<?xml version="1.0" encoding="UTF-8" standalone="no"?>
<!DOCTYPE svg PUBLIC "-//W3C//DTD SVG 1.1//EN"
 "http://www.w3.org/Graphics/SVG/1.1/DTD/svg11.dtd">
<!-- Generated by graphviz version 9.0.0 (20230911.1827)
 -->
<!-- Title: opengl/math_3d.h Pages: 1 -->
<svg width="118pt" height="84pt"
 viewBox="0.00 0.00 117.62 84.00" xmlns="http://www.w3.org/2000/svg" xmlns:xlink="http://www.w3.org/1999/xlink">
<g id="graph0" class="graph" transform="scale(1 1) rotate(0) translate(4 80)">
<title>opengl/math_3d.h</title>
<!-- Node1 -->
<g id="Node000001" class="node">
<title>Node1</title>
<g id="a_Node000001"><a xlink:title="Functions for OpenGL math.">
<polygon fill="#999999" stroke="#666666" points="101.62,-76 8.38,-76 8.38,-56 101.62,-56 101.62,-76"/>
<text text-anchor="middle" x="55" y="-62.5" font-family="Helvetica,sans-Serif" font-size="10.00">opengl/math_3d.h</text>
</a>
</g>
</g>
<!-- Node2 -->
<g id="Node000002" class="node">
<title>Node2</title>
<g id="a_Node000002"><a xlink:title=" ">
<polygon fill="#e0e0e0" stroke="#999999" points="46,-20 0,-20 0,0 46,0 46,-20"/>
<text text-anchor="middle" x="23" y="-6.5" font-family="Helvetica,sans-Serif" font-size="10.00">math.h</text>
</a>
</g>
</g>
<!-- Node1&#45;&gt;Node2 -->
<g id="edge1_Node000001_Node000002" class="edge">
<title>Node1&#45;&gt;Node2</title>
<g id="a_edge1_Node000001_Node000002"><a xlink:title=" ">
<path fill="none" stroke="#63b8ff" d="M49.43,-55.59C45.25,-48.55 39.4,-38.67 34.26,-30"/>
<polygon fill="#63b8ff" stroke="#63b8ff" points="37.39,-28.42 29.28,-21.6 31.37,-31.99 37.39,-28.42"/>
</a>
</g>
</g>
<!-- Node3 -->
<g id="Node000003" class="node">
<title>Node3</title>
<g id="a_Node000003"><a xlink:title=" ">
<polygon fill="#e0e0e0" stroke="#999999" points="109.62,-20 64.38,-20 64.38,0 109.62,0 109.62,-20"/>
<text text-anchor="middle" x="87" y="-6.5" font-family="Helvetica,sans-Serif" font-size="10.00">stdio.h</text>
</a>
</g>
</g>
<!-- Node1&#45;&gt;Node3 -->
<g id="edge2_Node000001_Node000003" class="edge">
<title>Node1&#45;&gt;Node3</title>
<g id="a_edge2_Node000001_Node000003"><a xlink:title=" ">
<path fill="none" stroke="#63b8ff" d="M60.57,-55.59C64.75,-48.55 70.6,-38.67 75.74,-30"/>
<polygon fill="#63b8ff" stroke="#63b8ff" points="78.63,-31.99 80.72,-21.6 72.61,-28.42 78.63,-31.99"/>
</a>
</g>
</g>
</g>
</svg>
