<?xml version="1.0" encoding="UTF-8" standalone="no"?>
<!DOCTYPE svg PUBLIC "-//W3C//DTD SVG 1.1//EN"
 "http://www.w3.org/Graphics/SVG/1.1/DTD/svg11.dtd">
<!-- Generated by graphviz version 7.1.0 (0)
 -->
<!-- Title: opengl/win/popup.c Pages: 1 -->
<svg width="1617pt" height="247pt"
 viewBox="0.00 0.00 1617.00 247.00" xmlns="http://www.w3.org/2000/svg" xmlns:xlink="http://www.w3.org/1999/xlink">
<g id="graph0" class="graph" transform="scale(1 1) rotate(0) translate(4 243)">
<title>opengl/win/popup.c</title>
<!-- Node1 -->
<g id="Node000001" class="node">
<title>Node1</title>
<g id="a_Node000001"><a xlink:title="Functions to create the OpenGL window popup menus:">
<polygon fill="#999999" stroke="#666666" points="1125.5,-239 1024.5,-239 1024.5,-220 1125.5,-220 1125.5,-239"/>
<text text-anchor="middle" x="1075" y="-227" font-family="Helvetica,sans-Serif" font-size="10.00">opengl/win/popup.c</text>
</a>
</g>
</g>
<!-- Node2 -->
<g id="Node000002" class="node">
<title>Node2</title>
<g id="a_Node000002"><a xlink:href="../../d2/d49/global_8h.html" target="_top" xlink:title="Global variable declarations &#160;&#160;Global convenience function declarations &#160;&#160;Global data structure defin...">
<polygon fill="white" stroke="#666666" points="710,-129 660,-129 660,-110 710,-110 710,-129"/>
<text text-anchor="middle" x="685" y="-117" font-family="Helvetica,sans-Serif" font-size="10.00">global.h</text>
</a>
</g>
</g>
<!-- Node1&#45;&gt;Node2 -->
<g id="edge1_Node000001_Node000002" class="edge">
<title>Node1&#45;&gt;Node2</title>
<g id="a_edge1_Node000001_Node000002"><a xlink:title=" ">
<path fill="none" stroke="#63b8ff" d="M1024.36,-220.05C980.68,-212.28 916.14,-199.6 861,-184 809.81,-169.52 752.08,-147.58 717.14,-133.65"/>
<polygon fill="#63b8ff" stroke="#63b8ff" points="718.62,-130.47 708.03,-129.99 716.01,-136.97 718.62,-130.47"/>
</a>
</g>
</g>
<!-- Node25 -->
<g id="Node000025" class="node">
<title>Node25</title>
<g id="a_Node000025"><a xlink:href="../../dd/d49/callbacks_8h.html" target="_top" xlink:title="Callback declarations for main window.">
<polygon fill="white" stroke="#666666" points="794,-129 728,-129 728,-110 794,-110 794,-129"/>
<text text-anchor="middle" x="761" y="-117" font-family="Helvetica,sans-Serif" font-size="10.00">callbacks.h</text>
</a>
</g>
</g>
<!-- Node1&#45;&gt;Node25 -->
<g id="edge26_Node000001_Node000025" class="edge">
<title>Node1&#45;&gt;Node25</title>
<g id="a_edge26_Node000001_Node000025"><a xlink:title=" ">
<path fill="none" stroke="#63b8ff" d="M1035.86,-219.58C1002.14,-211.5 952.34,-198.65 910,-184 867.16,-169.18 819.19,-147.84 789.54,-134.08"/>
<polygon fill="#63b8ff" stroke="#63b8ff" points="791.4,-131.08 780.86,-130.01 788.43,-137.42 791.4,-131.08"/>
</a>
</g>
</g>
<!-- Node26 -->
<g id="Node000026" class="node">
<title>Node26</title>
<g id="a_Node000026"><a xlink:href="../../d4/da9/interface_8h.html" target="_top" xlink:title="Messaging function declarations.">
<polygon fill="white" stroke="#666666" points="874,-129 812,-129 812,-110 874,-110 874,-129"/>
<text text-anchor="middle" x="843" y="-117" font-family="Helvetica,sans-Serif" font-size="10.00">interface.h</text>
</a>
</g>
</g>
<!-- Node1&#45;&gt;Node26 -->
<g id="edge27_Node000001_Node000026" class="edge">
<title>Node1&#45;&gt;Node26</title>
<g id="a_edge27_Node000001_Node000026"><a xlink:title=" ">
<path fill="none" stroke="#63b8ff" d="M1044.8,-219.56C1019.07,-211.52 981.38,-198.73 950,-184 919.58,-169.72 886.63,-149.35 865.45,-135.56"/>
<polygon fill="#63b8ff" stroke="#63b8ff" points="867.6,-132.79 857.32,-130.21 863.75,-138.64 867.6,-132.79"/>
</a>
</g>
</g>
<!-- Node27 -->
<g id="Node000027" class="node">
<title>Node27</title>
<g id="a_Node000027"><a xlink:href="../../d4/de6/workspace_8h.html" target="_top" xlink:title="Function declarations for workspace managment.">
<polygon fill="white" stroke="#666666" points="964,-129 892,-129 892,-110 964,-110 964,-129"/>
<text text-anchor="middle" x="928" y="-117" font-family="Helvetica,sans-Serif" font-size="10.00">workspace.h</text>
</a>
</g>
</g>
<!-- Node1&#45;&gt;Node27 -->
<g id="edge28_Node000001_Node000027" class="edge">
<title>Node1&#45;&gt;Node27</title>
<g id="a_edge28_Node000001_Node000027"><a xlink:title=" ">
<path fill="none" stroke="#63b8ff" d="M1040.58,-219.53C1018.63,-212.53 990.55,-201.09 970,-184 955.4,-171.86 943.97,-153.36 936.74,-139.45"/>
<polygon fill="#63b8ff" stroke="#63b8ff" points="940.07,-138.3 932.53,-130.85 933.78,-141.37 940.07,-138.3"/>
</a>
</g>
</g>
<!-- Node28 -->
<g id="Node000028" class="node">
<title>Node28</title>
<g id="a_Node000028"><a xlink:href="../../dc/d8d/project_8h.html" target="_top" xlink:title="Function declarations for reading atomes project file &#160;&#160;Function declarations for saving atomes proje...">
<polygon fill="white" stroke="#666666" points="1116,-129 1062,-129 1062,-110 1116,-110 1116,-129"/>
<text text-anchor="middle" x="1089" y="-117" font-family="Helvetica,sans-Serif" font-size="10.00">project.h</text>
</a>
</g>
</g>
<!-- Node1&#45;&gt;Node28 -->
<g id="edge29_Node000001_Node000028" class="edge">
<title>Node1&#45;&gt;Node28</title>
<g id="a_edge29_Node000001_Node000028"><a xlink:title=" ">
<path fill="none" stroke="#63b8ff" d="M1076.15,-219.66C1078.37,-202.5 1083.33,-164.26 1086.39,-140.6"/>
<polygon fill="#63b8ff" stroke="#63b8ff" points="1089.83,-141.33 1087.64,-130.96 1082.89,-140.43 1089.83,-141.33"/>
</a>
</g>
</g>
<!-- Node29 -->
<g id="Node000029" class="node">
<title>Node29</title>
<g id="a_Node000029"><a xlink:href="../../dc/de3/glview_8h.html" target="_top" xlink:title="Variable declarations related to the OpenGL window &#160;&#160;Function declaration related to the OpenGL windo...">
<polygon fill="white" stroke="#666666" points="1186,-129 1134,-129 1134,-110 1186,-110 1186,-129"/>
<text text-anchor="middle" x="1160" y="-117" font-family="Helvetica,sans-Serif" font-size="10.00">glview.h</text>
</a>
</g>
</g>
<!-- Node1&#45;&gt;Node29 -->
<g id="edge30_Node000001_Node000029" class="edge">
<title>Node1&#45;&gt;Node29</title>
<g id="a_edge30_Node000001_Node000029"><a xlink:title=" ">
<path fill="none" stroke="#63b8ff" d="M1081.96,-219.66C1095.9,-201.94 1127.52,-161.77 1145.95,-138.35"/>
<polygon fill="#63b8ff" stroke="#63b8ff" points="1148.58,-140.67 1152.01,-130.65 1143.08,-136.34 1148.58,-140.67"/>
</a>
</g>
</g>
<!-- Node30 -->
<g id="Node000030" class="node">
<title>Node30</title>
<g id="a_Node000030"><a xlink:href="../../d1/d2a/glwindow_8h.html" target="_top" xlink:title="Function declarations for the creation of the OpenGL window.">
<polygon fill="white" stroke="#666666" points="1269.5,-129 1204.5,-129 1204.5,-110 1269.5,-110 1269.5,-129"/>
<text text-anchor="middle" x="1237" y="-117" font-family="Helvetica,sans-Serif" font-size="10.00">glwindow.h</text>
</a>
</g>
</g>
<!-- Node1&#45;&gt;Node30 -->
<g id="edge31_Node000001_Node000030" class="edge">
<title>Node1&#45;&gt;Node30</title>
<g id="a_edge31_Node000001_Node000030"><a xlink:title=" ">
<path fill="none" stroke="#63b8ff" d="M1088.26,-219.66C1115.91,-201.23 1180,-158.5 1214.33,-135.62"/>
<polygon fill="#63b8ff" stroke="#63b8ff" points="1215.92,-138.76 1222.3,-130.3 1212.04,-132.93 1215.92,-138.76"/>
</a>
</g>
</g>
<!-- Node31 -->
<g id="Node000031" class="node">
<title>Node31</title>
<g id="a_Node000031"><a xlink:href="../../de/de0/submenus_8h.html" target="_top" xlink:title="Function declarations for the creation of the OpenGL window menus.">
<polygon fill="white" stroke="#666666" points="1287,-184 1217,-184 1217,-165 1287,-165 1287,-184"/>
<text text-anchor="middle" x="1252" y="-172" font-family="Helvetica,sans-Serif" font-size="10.00">submenus.h</text>
</a>
</g>
</g>
<!-- Node1&#45;&gt;Node31 -->
<g id="edge32_Node000001_Node000031" class="edge">
<title>Node1&#45;&gt;Node31</title>
<g id="a_edge32_Node000001_Node000031"><a xlink:title=" ">
<path fill="none" stroke="#63b8ff" d="M1105.03,-219.51C1134.23,-210.76 1178.81,-197.42 1211.21,-187.71"/>
<polygon fill="#63b8ff" stroke="#63b8ff" points="1212.1,-191.1 1220.67,-184.88 1210.09,-184.4 1212.1,-191.1"/>
</a>
</g>
</g>
<!-- Node32 -->
<g id="Node000032" class="node">
<title>Node32</title>
<g id="a_Node000032"><a xlink:href="../../d1/ddb/color__box_8h.html" target="_top" xlink:title="Structure definitions for color management &#160;&#160;Function declarations for color management.">
<polygon fill="white" stroke="#666666" points="1372.5,-184 1305.5,-184 1305.5,-165 1372.5,-165 1372.5,-184"/>
<text text-anchor="middle" x="1339" y="-172" font-family="Helvetica,sans-Serif" font-size="10.00">color_box.h</text>
</a>
</g>
</g>
<!-- Node1&#45;&gt;Node32 -->
<g id="edge33_Node000001_Node000032" class="edge">
<title>Node1&#45;&gt;Node32</title>
<g id="a_edge33_Node000001_Node000032"><a xlink:title=" ">
<path fill="none" stroke="#63b8ff" d="M1119.78,-219.51C1168.4,-209.75 1245.6,-194.25 1294.22,-184.49"/>
<polygon fill="#63b8ff" stroke="#63b8ff" points="1294.73,-187.96 1303.85,-182.56 1293.35,-181.09 1294.73,-187.96"/>
</a>
</g>
</g>
<!-- Node33 -->
<g id="Node000033" class="node">
<title>Node33</title>
<g id="a_Node000033"><a xlink:href="../../da/dc2/bind_8h.html" target="_top" xlink:title="Binding to the Fortran90 subroutines.">
<polygon fill="white" stroke="#666666" points="1330.5,-129 1287.5,-129 1287.5,-110 1330.5,-110 1330.5,-129"/>
<text text-anchor="middle" x="1309" y="-117" font-family="Helvetica,sans-Serif" font-size="10.00">bind.h</text>
</a>
</g>
</g>
<!-- Node1&#45;&gt;Node33 -->
<g id="edge34_Node000001_Node000033" class="edge">
<title>Node1&#45;&gt;Node33</title>
<g id="a_edge34_Node000001_Node000033"><a xlink:title=" ">
<path fill="none" stroke="#63b8ff" d="M1094.36,-219.61C1113.6,-210.73 1143.94,-196.62 1170,-184 1187,-175.77 1190.91,-173.03 1208,-165 1231.12,-154.14 1257.55,-142.52 1277.57,-133.88"/>
<polygon fill="#63b8ff" stroke="#63b8ff" points="1278.78,-137.17 1286.58,-130.01 1276.01,-130.74 1278.78,-137.17"/>
</a>
</g>
</g>
<!-- Node34 -->
<g id="Node000034" class="node">
<title>Node34</title>
<g id="a_Node000034"><a xlink:href="../../d5/d9c/atom__edit_8h.html" target="_top" xlink:title="Function declarations for the mode edition window.">
<polygon fill="white" stroke="#666666" points="1047,-184 979,-184 979,-165 1047,-165 1047,-184"/>
<text text-anchor="middle" x="1013" y="-172" font-family="Helvetica,sans-Serif" font-size="10.00">atom_edit.h</text>
</a>
</g>
</g>
<!-- Node1&#45;&gt;Node34 -->
<g id="edge35_Node000001_Node000034" class="edge">
<title>Node1&#45;&gt;Node34</title>
<g id="a_edge35_Node000001_Node000034"><a xlink:title=" ">
<path fill="none" stroke="#63b8ff" d="M1064.48,-219.51C1055.61,-211.93 1042.69,-200.88 1032.01,-191.75"/>
<polygon fill="#63b8ff" stroke="#63b8ff" points="1034.39,-189.18 1024.51,-185.34 1029.84,-194.5 1034.39,-189.18"/>
</a>
</g>
</g>
<!-- Node3 -->
<g id="Node000003" class="node">
<title>Node3</title>
<g id="a_Node000003"><a xlink:title=" ">
<polygon fill="#e0e0e0" stroke="#999999" points="40,-74 0,-74 0,-55 40,-55 40,-74"/>
<text text-anchor="middle" x="20" y="-62" font-family="Helvetica,sans-Serif" font-size="10.00">glib.h</text>
</a>
</g>
</g>
<!-- Node2&#45;&gt;Node3 -->
<g id="edge2_Node000002_Node000003" class="edge">
<title>Node2&#45;&gt;Node3</title>
<g id="a_edge2_Node000002_Node000003"><a xlink:title=" ">
<path fill="none" stroke="#63b8ff" d="M659.61,-118.67C574.6,-118.85 292.24,-116.15 51.53,-74.06"/>
<polygon fill="#63b8ff" stroke="#63b8ff" points="52.41,-70.66 41.95,-72.36 51.19,-77.55 52.41,-70.66"/>
</a>
</g>
</g>
<!-- Node4 -->
<g id="Node000004" class="node">
<title>Node4</title>
<g id="a_Node000004"><a xlink:title=" ">
<polygon fill="#e0e0e0" stroke="#999999" points="124,-74 58,-74 58,-55 124,-55 124,-74"/>
<text text-anchor="middle" x="91" y="-62" font-family="Helvetica,sans-Serif" font-size="10.00">glib/gi18n.h</text>
</a>
</g>
</g>
<!-- Node2&#45;&gt;Node4 -->
<g id="edge3_Node000002_Node000004" class="edge">
<title>Node2&#45;&gt;Node4</title>
<g id="a_edge3_Node000002_Node000004"><a xlink:title=" ">
<path fill="none" stroke="#63b8ff" d="M659.57,-117.53C582.32,-114.36 343.43,-102.87 135.54,-74.19"/>
<polygon fill="#63b8ff" stroke="#63b8ff" points="136.3,-70.76 125.91,-72.84 135.33,-77.7 136.3,-70.76"/>
</a>
</g>
</g>
<!-- Node5 -->
<g id="Node000005" class="node">
<title>Node5</title>
<g id="a_Node000005"><a xlink:title=" ">
<polygon fill="#e0e0e0" stroke="#999999" points="192,-74 142,-74 142,-55 192,-55 192,-74"/>
<text text-anchor="middle" x="167" y="-62" font-family="Helvetica,sans-Serif" font-size="10.00">locale.h</text>
</a>
</g>
</g>
<!-- Node2&#45;&gt;Node5 -->
<g id="edge4_Node000002_Node000005" class="edge">
<title>Node2&#45;&gt;Node5</title>
<g id="a_edge4_Node000002_Node000005"><a xlink:title=" ">
<path fill="none" stroke="#63b8ff" d="M659.63,-117.54C588.92,-114.57 383.53,-103.99 203.44,-74.15"/>
<polygon fill="#63b8ff" stroke="#63b8ff" points="204.1,-70.71 193.65,-72.5 202.93,-77.61 204.1,-70.71"/>
</a>
</g>
</g>
<!-- Node6 -->
<g id="Node000006" class="node">
<title>Node6</title>
<g id="a_Node000006"><a xlink:title=" ">
<polygon fill="#e0e0e0" stroke="#999999" points="261.5,-74 210.5,-74 210.5,-55 261.5,-55 261.5,-74"/>
<text text-anchor="middle" x="236" y="-62" font-family="Helvetica,sans-Serif" font-size="10.00">unistd.h</text>
</a>
</g>
</g>
<!-- Node2&#45;&gt;Node6 -->
<g id="edge5_Node000002_Node000006" class="edge">
<title>Node2&#45;&gt;Node6</title>
<g id="a_edge5_Node000002_Node000006"><a xlink:title=" ">
<path fill="none" stroke="#63b8ff" d="M659.56,-117C595.92,-112.99 424.54,-100.59 272.8,-74.29"/>
<polygon fill="#63b8ff" stroke="#63b8ff" points="273.86,-70.92 263.4,-72.63 272.64,-77.81 273.86,-70.92"/>
</a>
</g>
</g>
<!-- Node7 -->
<g id="Node000007" class="node">
<title>Node7</title>
<g id="a_Node000007"><a xlink:title=" ">
<polygon fill="#e0e0e0" stroke="#999999" points="328.5,-74 279.5,-74 279.5,-55 328.5,-55 328.5,-74"/>
<text text-anchor="middle" x="304" y="-62" font-family="Helvetica,sans-Serif" font-size="10.00">string.h</text>
</a>
</g>
</g>
<!-- Node2&#45;&gt;Node7 -->
<g id="edge6_Node000002_Node000007" class="edge">
<title>Node2&#45;&gt;Node7</title>
<g id="a_edge6_Node000002_Node000007"><a xlink:title=" ">
<path fill="none" stroke="#63b8ff" d="M659.57,-115.94C602.65,-110.05 460.69,-94.44 343,-74 341.98,-73.82 340.96,-73.64 339.92,-73.45"/>
<polygon fill="#63b8ff" stroke="#63b8ff" points="340.67,-70.03 330.18,-71.51 339.3,-76.89 340.67,-70.03"/>
</a>
</g>
</g>
<!-- Node8 -->
<g id="Node000008" class="node">
<title>Node8</title>
<g id="a_Node000008"><a xlink:title=" ">
<polygon fill="#e0e0e0" stroke="#999999" points="394,-19 348,-19 348,0 394,0 394,-19"/>
<text text-anchor="middle" x="371" y="-7" font-family="Helvetica,sans-Serif" font-size="10.00">stdio.h</text>
</a>
</g>
</g>
<!-- Node2&#45;&gt;Node8 -->
<g id="edge7_Node000002_Node000008" class="edge">
<title>Node2&#45;&gt;Node8</title>
<g id="a_edge7_Node000002_Node000008"><a xlink:title=" ">
<path fill="none" stroke="#63b8ff" d="M659.59,-118.73C592.72,-118.76 414.37,-114.92 376,-74 365.24,-62.52 364.89,-44.18 366.71,-30.15"/>
<polygon fill="#63b8ff" stroke="#63b8ff" points="370.09,-31.17 368.4,-20.71 363.2,-29.94 370.09,-31.17"/>
</a>
</g>
</g>
<!-- Node9 -->
<g id="Node000009" class="node">
<title>Node9</title>
<g id="a_Node000009"><a xlink:title=" ">
<polygon fill="#e0e0e0" stroke="#999999" points="551,-74 503,-74 503,-55 551,-55 551,-74"/>
<text text-anchor="middle" x="527" y="-62" font-family="Helvetica,sans-Serif" font-size="10.00">stdlib.h</text>
</a>
</g>
</g>
<!-- Node2&#45;&gt;Node9 -->
<g id="edge8_Node000002_Node000009" class="edge">
<title>Node2&#45;&gt;Node9</title>
<g id="a_edge8_Node000002_Node000009"><a xlink:title=" ">
<path fill="none" stroke="#63b8ff" d="M659.61,-109.98C633.16,-101.11 591.52,-87.14 561.96,-77.23"/>
<polygon fill="#63b8ff" stroke="#63b8ff" points="563.31,-73.99 552.72,-74.13 561.09,-80.63 563.31,-73.99"/>
</a>
</g>
</g>
<!-- Node10 -->
<g id="Node000010" class="node">
<title>Node10</title>
<g id="a_Node000010"><a xlink:title=" ">
<polygon fill="#e0e0e0" stroke="#999999" points="637,-74 569,-74 569,-55 637,-55 637,-74"/>
<text text-anchor="middle" x="603" y="-62" font-family="Helvetica,sans-Serif" font-size="10.00">sys/types.h</text>
</a>
</g>
</g>
<!-- Node2&#45;&gt;Node10 -->
<g id="edge9_Node000002_Node000010" class="edge">
<title>Node2&#45;&gt;Node10</title>
<g id="a_edge9_Node000002_Node000010"><a xlink:title=" ">
<path fill="none" stroke="#63b8ff" d="M671.09,-109.51C658.76,-101.54 640.53,-89.75 626.03,-80.38"/>
<polygon fill="#63b8ff" stroke="#63b8ff" points="628.27,-77.67 617.98,-75.18 624.47,-83.55 628.27,-77.67"/>
</a>
</g>
</g>
<!-- Node11 -->
<g id="Node000011" class="node">
<title>Node11</title>
<g id="a_Node000011"><a xlink:title=" ">
<polygon fill="#e0e0e0" stroke="#999999" points="715,-74 655,-74 655,-55 715,-55 715,-74"/>
<text text-anchor="middle" x="685" y="-62" font-family="Helvetica,sans-Serif" font-size="10.00">sys/stat.h</text>
</a>
</g>
</g>
<!-- Node2&#45;&gt;Node11 -->
<g id="edge10_Node000002_Node000011" class="edge">
<title>Node2&#45;&gt;Node11</title>
<g id="a_edge10_Node000002_Node000011"><a xlink:title=" ">
<path fill="none" stroke="#63b8ff" d="M685,-109.75C685,-103.27 685,-94.16 685,-85.9"/>
<polygon fill="#63b8ff" stroke="#63b8ff" points="688.5,-85.96 685,-75.96 681.5,-85.96 688.5,-85.96"/>
</a>
</g>
</g>
<!-- Node12 -->
<g id="Node000012" class="node">
<title>Node12</title>
<g id="a_Node000012"><a xlink:title=" ">
<polygon fill="#e0e0e0" stroke="#999999" points="472.5,-19 425.5,-19 425.5,0 472.5,0 472.5,-19"/>
<text text-anchor="middle" x="449" y="-7" font-family="Helvetica,sans-Serif" font-size="10.00">math.h</text>
</a>
</g>
</g>
<!-- Node2&#45;&gt;Node12 -->
<g id="edge11_Node000002_Node000012" class="edge">
<title>Node2&#45;&gt;Node12</title>
<g id="a_edge11_Node000002_Node000012"><a xlink:title=" ">
<path fill="none" stroke="#63b8ff" d="M659.56,-118.17C620.69,-116.51 545.58,-108.65 494,-74 477.72,-63.06 465.43,-44.1 457.84,-29.74"/>
<polygon fill="#63b8ff" stroke="#63b8ff" points="461,-28.24 453.45,-20.81 454.72,-31.33 461,-28.24"/>
</a>
</g>
</g>
<!-- Node13 -->
<g id="Node000013" class="node">
<title>Node13</title>
<g id="a_Node000013"><a xlink:title=" ">
<polygon fill="#e0e0e0" stroke="#999999" points="788.5,-74 733.5,-74 733.5,-55 788.5,-55 788.5,-74"/>
<text text-anchor="middle" x="761" y="-62" font-family="Helvetica,sans-Serif" font-size="10.00">gtk/gtk.h</text>
</a>
</g>
</g>
<!-- Node2&#45;&gt;Node13 -->
<g id="edge12_Node000002_Node000013" class="edge">
<title>Node2&#45;&gt;Node13</title>
<g id="a_edge12_Node000002_Node000013"><a xlink:title=" ">
<path fill="none" stroke="#63b8ff" d="M697.89,-109.51C709.1,-101.7 725.57,-90.21 738.88,-80.93"/>
<polygon fill="#63b8ff" stroke="#63b8ff" points="740.86,-83.81 747.06,-75.22 736.85,-78.07 740.86,-83.81"/>
</a>
</g>
</g>
<!-- Node14 -->
<g id="Node000014" class="node">
<title>Node14</title>
<g id="a_Node000014"><a xlink:title=" ">
<polygon fill="#e0e0e0" stroke="#999999" points="865.5,-74 806.5,-74 806.5,-55 865.5,-55 865.5,-74"/>
<text text-anchor="middle" x="836" y="-62" font-family="Helvetica,sans-Serif" font-size="10.00">gdk/gdk.h</text>
</a>
</g>
</g>
<!-- Node2&#45;&gt;Node14 -->
<g id="edge13_Node000002_Node000014" class="edge">
<title>Node2&#45;&gt;Node14</title>
<g id="a_edge13_Node000002_Node000014"><a xlink:title=" ">
<path fill="none" stroke="#63b8ff" d="M710.27,-109.63C734.7,-101.06 771.96,-87.98 799.58,-78.28"/>
<polygon fill="#63b8ff" stroke="#63b8ff" points="800.69,-81.6 808.96,-74.99 798.37,-75 800.69,-81.6"/>
</a>
</g>
</g>
<!-- Node15 -->
<g id="Node000015" class="node">
<title>Node15</title>
<g id="a_Node000015"><a xlink:title=" ">
<polygon fill="#e0e0e0" stroke="#999999" points="982.5,-74 883.5,-74 883.5,-55 982.5,-55 982.5,-74"/>
<text text-anchor="middle" x="933" y="-62" font-family="Helvetica,sans-Serif" font-size="10.00">gdk/gdkkeysyms.h</text>
</a>
</g>
</g>
<!-- Node2&#45;&gt;Node15 -->
<g id="edge14_Node000002_Node000015" class="edge">
<title>Node2&#45;&gt;Node15</title>
<g id="a_edge14_Node000002_Node000015"><a xlink:title=" ">
<path fill="none" stroke="#63b8ff" d="M710.22,-112.07C713.18,-111.36 716.15,-110.65 719,-110 772.14,-97.84 833.03,-85.31 876.24,-76.66"/>
<polygon fill="#63b8ff" stroke="#63b8ff" points="876.78,-80.12 885.9,-74.73 875.41,-73.26 876.78,-80.12"/>
</a>
</g>
</g>
<!-- Node16 -->
<g id="Node000016" class="node">
<title>Node16</title>
<g id="a_Node000016"><a xlink:title=" ">
<polygon fill="#e0e0e0" stroke="#999999" points="1119,-74 1001,-74 1001,-55 1119,-55 1119,-74"/>
<text text-anchor="middle" x="1060" y="-62" font-family="Helvetica,sans-Serif" font-size="10.00">gdk&#45;pixbuf/gdk&#45;pixbuf.h</text>
</a>
</g>
</g>
<!-- Node2&#45;&gt;Node16 -->
<g id="edge15_Node000002_Node000016" class="edge">
<title>Node2&#45;&gt;Node16</title>
<g id="a_edge15_Node000002_Node000016"><a xlink:title=" ">
<path fill="none" stroke="#63b8ff" d="M710.18,-111.86C713.14,-111.18 716.13,-110.54 719,-110 744.9,-105.09 897.4,-85.77 989.46,-74.26"/>
<polygon fill="#63b8ff" stroke="#63b8ff" points="989.66,-77.77 999.15,-73.05 988.8,-70.82 989.66,-77.77"/>
</a>
</g>
</g>
<!-- Node17 -->
<g id="Node000017" class="node">
<title>Node17</title>
<g id="a_Node000017"><a xlink:title=" ">
<polygon fill="#e0e0e0" stroke="#999999" points="1229,-74 1137,-74 1137,-55 1229,-55 1229,-74"/>
<text text-anchor="middle" x="1183" y="-62" font-family="Helvetica,sans-Serif" font-size="10.00">pango/pangoft2.h</text>
</a>
</g>
</g>
<!-- Node2&#45;&gt;Node17 -->
<g id="edge16_Node000002_Node000017" class="edge">
<title>Node2&#45;&gt;Node17</title>
<g id="a_edge16_Node000002_Node000017"><a xlink:title=" ">
<path fill="none" stroke="#63b8ff" d="M710.16,-111.74C713.12,-111.08 716.12,-110.48 719,-110 895.36,-80.38 944.87,-95.32 1125.3,-74.24"/>
<polygon fill="#63b8ff" stroke="#63b8ff" points="1125.5,-77.74 1135.02,-73.08 1124.67,-70.79 1125.5,-77.74"/>
</a>
</g>
</g>
<!-- Node18 -->
<g id="Node000018" class="node">
<title>Node18</title>
<g id="a_Node000018"><a xlink:title=" ">
<polygon fill="#e0e0e0" stroke="#999999" points="1309,-74 1247,-74 1247,-55 1309,-55 1309,-74"/>
<text text-anchor="middle" x="1278" y="-62" font-family="Helvetica,sans-Serif" font-size="10.00">epoxy/gl.h</text>
</a>
</g>
</g>
<!-- Node2&#45;&gt;Node18 -->
<g id="edge17_Node000002_Node000018" class="edge">
<title>Node2&#45;&gt;Node18</title>
<g id="a_edge17_Node000002_Node000018"><a xlink:title=" ">
<path fill="none" stroke="#63b8ff" d="M710.15,-111.69C713.12,-111.04 716.12,-110.46 719,-110 943.69,-74.4 1006.99,-105.09 1235.28,-74.17"/>
<polygon fill="#63b8ff" stroke="#63b8ff" points="1235.71,-77.64 1245.13,-72.81 1234.75,-70.71 1235.71,-77.64"/>
</a>
</g>
</g>
<!-- Node19 -->
<g id="Node000019" class="node">
<title>Node19</title>
<g id="a_Node000019"><a xlink:title=" ">
<polygon fill="#e0e0e0" stroke="#999999" points="1380.5,-74 1327.5,-74 1327.5,-55 1380.5,-55 1380.5,-74"/>
<text text-anchor="middle" x="1354" y="-62" font-family="Helvetica,sans-Serif" font-size="10.00">GL/glu.h</text>
</a>
</g>
</g>
<!-- Node2&#45;&gt;Node19 -->
<g id="edge18_Node000002_Node000019" class="edge">
<title>Node2&#45;&gt;Node19</title>
<g id="a_edge18_Node000002_Node000019"><a xlink:title=" ">
<path fill="none" stroke="#63b8ff" d="M710.15,-111.66C713.11,-111.02 716.11,-110.44 719,-110 979,-70.04 1052.14,-111.62 1316.27,-73.94"/>
<polygon fill="#63b8ff" stroke="#63b8ff" points="1316.47,-77.45 1325.86,-72.55 1315.46,-70.52 1316.47,-77.45"/>
</a>
</g>
</g>
<!-- Node20 -->
<g id="Node000020" class="node">
<title>Node20</title>
<g id="a_Node000020"><a xlink:title=" ">
<polygon fill="#e0e0e0" stroke="#999999" points="1465.5,-74 1398.5,-74 1398.5,-55 1465.5,-55 1465.5,-74"/>
<text text-anchor="middle" x="1432" y="-62" font-family="Helvetica,sans-Serif" font-size="10.00">epoxy/glx.h</text>
</a>
</g>
</g>
<!-- Node2&#45;&gt;Node20 -->
<g id="edge19_Node000002_Node000020" class="edge">
<title>Node2&#45;&gt;Node20</title>
<g id="a_edge19_Node000002_Node000020"><a xlink:title=" ">
<path fill="none" stroke="#63b8ff" d="M710.14,-111.64C713.11,-111 716.11,-110.43 719,-110 1010.72,-66.12 1091.77,-110.61 1387.1,-74.18"/>
<polygon fill="#63b8ff" stroke="#63b8ff" points="1387.16,-77.7 1396.64,-72.98 1386.28,-70.76 1387.16,-77.7"/>
</a>
</g>
</g>
<!-- Node21 -->
<g id="Node000021" class="node">
<title>Node21</title>
<g id="a_Node000021"><a xlink:href="../../dc/db0/math__3d_8h.html" target="_top" xlink:title="Functions for OpenGL math.">
<polygon fill="white" stroke="#666666" points="447,-74 385,-74 385,-55 447,-55 447,-74"/>
<text text-anchor="middle" x="416" y="-62" font-family="Helvetica,sans-Serif" font-size="10.00">math_3d.h</text>
</a>
</g>
</g>
<!-- Node2&#45;&gt;Node21 -->
<g id="edge20_Node000002_Node000021" class="edge">
<title>Node2&#45;&gt;Node21</title>
<g id="a_edge20_Node000002_Node000021"><a xlink:title=" ">
<path fill="none" stroke="#63b8ff" d="M659.69,-113.51C613.44,-104.4 514.82,-84.97 458.24,-73.82"/>
<polygon fill="#63b8ff" stroke="#63b8ff" points="459.15,-70.44 448.67,-71.94 457.8,-77.3 459.15,-70.44"/>
</a>
</g>
</g>
<!-- Node22 -->
<g id="Node000022" class="node">
<title>Node22</title>
<g id="a_Node000022"><a xlink:href="../../da/d7e/glwin_8h.html" target="_top" xlink:title="Variable declarations related the OpenGL window &#160;&#160;Data structure declarations related the OpenGL wind...">
<polygon fill="white" stroke="#666666" points="1530.5,-74 1483.5,-74 1483.5,-55 1530.5,-55 1530.5,-74"/>
<text text-anchor="middle" x="1507" y="-62" font-family="Helvetica,sans-Serif" font-size="10.00">glwin.h</text>
</a>
</g>
</g>
<!-- Node2&#45;&gt;Node22 -->
<g id="edge23_Node000002_Node000022" class="edge">
<title>Node2&#45;&gt;Node22</title>
<g id="a_edge23_Node000002_Node000022"><a xlink:title=" ">
<path fill="none" stroke="#63b8ff" d="M710.14,-111.63C713.11,-110.99 716.11,-110.43 719,-110 1048.05,-61.52 1140.51,-124.03 1471.63,-74.2"/>
<polygon fill="#63b8ff" stroke="#63b8ff" points="1472.15,-77.66 1481.51,-72.69 1471.09,-70.74 1472.15,-77.66"/>
</a>
</g>
</g>
<!-- Node24 -->
<g id="Node000024" class="node">
<title>Node24</title>
<g id="a_Node000024"><a xlink:title=" ">
<polygon fill="#e0e0e0" stroke="#999999" points="1609,-74 1549,-74 1549,-55 1609,-55 1609,-74"/>
<text text-anchor="middle" x="1579" y="-62" font-family="Helvetica,sans-Serif" font-size="10.00">gtk/gtkx.h</text>
</a>
</g>
</g>
<!-- Node2&#45;&gt;Node24 -->
<g id="edge25_Node000002_Node000024" class="edge">
<title>Node2&#45;&gt;Node24</title>
<g id="a_edge25_Node000002_Node000024"><a xlink:title=" ">
<path fill="none" stroke="#63b8ff" d="M710.14,-111.62C713.11,-110.98 716.11,-110.42 719,-110 1076.73,-57.98 1175.78,-119.77 1537.53,-74.06"/>
<polygon fill="#63b8ff" stroke="#63b8ff" points="1537.88,-77.54 1547.35,-72.8 1536.99,-70.6 1537.88,-77.54"/>
</a>
</g>
</g>
<!-- Node21&#45;&gt;Node8 -->
<g id="edge22_Node000021_Node000008" class="edge">
<title>Node21&#45;&gt;Node8</title>
<g id="a_edge22_Node000021_Node000008"><a xlink:title=" ">
<path fill="none" stroke="#63b8ff" d="M408.57,-54.75C402.42,-47.5 393.49,-36.98 385.87,-28.02"/>
<polygon fill="#63b8ff" stroke="#63b8ff" points="388.71,-25.95 379.57,-20.6 383.38,-30.48 388.71,-25.95"/>
</a>
</g>
</g>
<!-- Node21&#45;&gt;Node12 -->
<g id="edge21_Node000021_Node000012" class="edge">
<title>Node21&#45;&gt;Node12</title>
<g id="a_edge21_Node000021_Node000012"><a xlink:title=" ">
<path fill="none" stroke="#63b8ff" d="M421.45,-54.75C425.77,-47.81 431.96,-37.86 437.38,-29.16"/>
<polygon fill="#63b8ff" stroke="#63b8ff" points="440.32,-31.07 442.63,-20.73 434.38,-27.37 440.32,-31.07"/>
</a>
</g>
</g>
<!-- Node23 -->
<g id="Node000023" class="node">
<title>Node23</title>
<g id="a_Node000023"><a xlink:href="../../d5/d9e/ogl__shading_8h.html" target="_top" xlink:title="Variable declarations related to GLSL programs &#160;&#160;Data structure declarations related to GLSL programs...">
<polygon fill="white" stroke="#666666" points="1545.5,-19 1468.5,-19 1468.5,0 1545.5,0 1545.5,-19"/>
<text text-anchor="middle" x="1507" y="-7" font-family="Helvetica,sans-Serif" font-size="10.00">ogl_shading.h</text>
</a>
</g>
</g>
<!-- Node22&#45;&gt;Node23 -->
<g id="edge24_Node000022_Node000023" class="edge">
<title>Node22&#45;&gt;Node23</title>
<g id="a_edge24_Node000022_Node000023"><a xlink:title=" ">
<path fill="none" stroke="#63b8ff" d="M1507,-54.75C1507,-48.27 1507,-39.16 1507,-30.9"/>
<polygon fill="#63b8ff" stroke="#63b8ff" points="1510.5,-30.96 1507,-20.96 1503.5,-30.96 1510.5,-30.96"/>
</a>
</g>
</g>
<!-- Node34&#45;&gt;Node2 -->
<g id="edge36_Node000034_Node000002" class="edge">
<title>Node34&#45;&gt;Node2</title>
<g id="a_edge36_Node000034_Node000002"><a xlink:title=" ">
<path fill="none" stroke="#63b8ff" d="M978.86,-169.4C925.86,-162.81 820.37,-148.76 721.3,-129.29"/>
<polygon fill="#63b8ff" stroke="#63b8ff" points="722.17,-125.9 711.68,-127.38 720.8,-132.76 722.17,-125.9"/>
</a>
</g>
</g>
<!-- Node34&#45;&gt;Node25 -->
<g id="edge38_Node000034_Node000025" class="edge">
<title>Node34&#45;&gt;Node25</title>
<g id="a_edge38_Node000034_Node000025"><a xlink:title=" ">
<path fill="none" stroke="#63b8ff" d="M978.75,-166.3C933.81,-156.84 854.84,-140.24 805.37,-129.83"/>
<polygon fill="#63b8ff" stroke="#63b8ff" points="806.36,-126.46 795.85,-127.83 804.92,-133.31 806.36,-126.46"/>
</a>
</g>
</g>
<!-- Node34&#45;&gt;Node26 -->
<g id="edge39_Node000034_Node000026" class="edge">
<title>Node34&#45;&gt;Node26</title>
<g id="a_edge39_Node000034_Node000026"><a xlink:title=" ">
<path fill="none" stroke="#63b8ff" d="M984.16,-164.51C956.24,-155.8 913.67,-142.53 882.58,-132.84"/>
<polygon fill="#63b8ff" stroke="#63b8ff" points="883.73,-129.53 873.14,-129.9 881.65,-136.21 883.73,-129.53"/>
</a>
</g>
</g>
<!-- Node34&#45;&gt;Node27 -->
<g id="edge44_Node000034_Node000027" class="edge">
<title>Node34&#45;&gt;Node27</title>
<g id="a_edge44_Node000034_Node000027"><a xlink:title=" ">
<path fill="none" stroke="#63b8ff" d="M998.58,-164.51C985.8,-156.54 966.9,-144.75 951.87,-135.38"/>
<polygon fill="#63b8ff" stroke="#63b8ff" points="953.83,-132.48 943.49,-130.16 950.12,-138.42 953.83,-132.48"/>
</a>
</g>
</g>
<!-- Node34&#45;&gt;Node28 -->
<g id="edge43_Node000034_Node000028" class="edge">
<title>Node34&#45;&gt;Node28</title>
<g id="a_edge43_Node000034_Node000028"><a xlink:title=" ">
<path fill="none" stroke="#63b8ff" d="M1025.89,-164.51C1037.1,-156.7 1053.57,-145.21 1066.88,-135.93"/>
<polygon fill="#63b8ff" stroke="#63b8ff" points="1068.86,-138.81 1075.06,-130.22 1064.85,-133.07 1068.86,-138.81"/>
</a>
</g>
</g>
<!-- Node34&#45;&gt;Node29 -->
<g id="edge41_Node000034_Node000029" class="edge">
<title>Node34&#45;&gt;Node29</title>
<g id="a_edge41_Node000034_Node000029"><a xlink:title=" ">
<path fill="none" stroke="#63b8ff" d="M1037.94,-164.51C1061.84,-155.89 1098.14,-142.8 1124.95,-133.14"/>
<polygon fill="#63b8ff" stroke="#63b8ff" points="1125.79,-136.56 1134.01,-129.87 1123.41,-129.97 1125.79,-136.56"/>
</a>
</g>
</g>
<!-- Node34&#45;&gt;Node30 -->
<g id="edge42_Node000034_Node000030" class="edge">
<title>Node34&#45;&gt;Node30</title>
<g id="a_edge42_Node000034_Node000030"><a xlink:title=" ">
<path fill="none" stroke="#63b8ff" d="M1047.02,-165.45C1086.04,-156.22 1150.11,-141.06 1192.92,-130.93"/>
<polygon fill="#63b8ff" stroke="#63b8ff" points="1193.72,-134.34 1202.65,-128.63 1192.11,-127.52 1193.72,-134.34"/>
</a>
</g>
</g>
<!-- Node34&#45;&gt;Node33 -->
<g id="edge37_Node000034_Node000033" class="edge">
<title>Node34&#45;&gt;Node33</title>
<g id="a_edge37_Node000034_Node000033"><a xlink:title=" ">
<path fill="none" stroke="#63b8ff" d="M1047.25,-169C1096.04,-162.33 1188.55,-148.7 1275.94,-129.5"/>
<polygon fill="#63b8ff" stroke="#63b8ff" points="1276.64,-132.92 1285.64,-127.33 1275.12,-126.09 1276.64,-132.92"/>
</a>
</g>
</g>
<!-- Node35 -->
<g id="Node000035" class="node">
<title>Node35</title>
<g id="a_Node000035"><a xlink:href="../../d6/d75/initcoord_8h.html" target="_top" xlink:title="Function declarations to handle the atomic coordination data.">
<polygon fill="white" stroke="#666666" points="1044,-129 982,-129 982,-110 1044,-110 1044,-129"/>
<text text-anchor="middle" x="1013" y="-117" font-family="Helvetica,sans-Serif" font-size="10.00">initcoord.h</text>
</a>
</g>
</g>
<!-- Node34&#45;&gt;Node35 -->
<g id="edge40_Node000034_Node000035" class="edge">
<title>Node34&#45;&gt;Node35</title>
<g id="a_edge40_Node000034_Node000035"><a xlink:title=" ">
<path fill="none" stroke="#63b8ff" d="M1013,-164.75C1013,-158.27 1013,-149.16 1013,-140.9"/>
<polygon fill="#63b8ff" stroke="#63b8ff" points="1016.5,-140.96 1013,-130.96 1009.5,-140.96 1016.5,-140.96"/>
</a>
</g>
</g>
</g>
</svg>
