<?xml version="1.0" encoding="UTF-8" standalone="no"?>
<!DOCTYPE svg PUBLIC "-//W3C//DTD SVG 1.1//EN"
 "http://www.w3.org/Graphics/SVG/1.1/DTD/svg11.dtd">
<!-- Generated by graphviz version 2.43.0 (0)
 -->
<!-- Title: workspace/workspace.h Pages: 1 -->
<!--zoomable 159 -->

<svg id="main" version="1.1" xmlns="http://www.w3.org/2000/svg" xmlns:xlink="http://www.w3.org/1999/xlink" xml:space="preserve" onload="init(evt)">
<style type="text/css"><![CDATA[
.node, .edge {opacity: 0.7;}
.node.selected, .edge.selected {opacity: 1;}
.edge:hover path { stroke: red; }
.edge:hover polygon { stroke: red; fill: red; }
]]></style>

<defs>
  <circle id="rim" cx="0" cy="0" r="7"/>
  <circle id="rim2" cx="0" cy="0" r="3.5"/>
  <g id="zoomPlus">
    <use xlink:href="#rim" fill="#404040"><set attributeName="fill" to="#808080" begin="zoomplus.mouseover" end="zoomplus.mouseout"/></use>
    <path d="M-4,0h8M0,-4v8" fill="none" stroke="white" stroke-width="1.5" pointer-events="none"/>
  </g>
  <g id="zoomMin">
    <use xlink:href="#rim" fill="#404040"><set attributeName="fill" to="#808080" begin="zoomminus.mouseover" end="zoomminus.mouseout"/></use>
    <path d="M-4,0h8" fill="none" stroke="white" stroke-width="1.5" pointer-events="none"/>
  </g>
  <g id="arrowUp" transform="translate(30 24)">
    <use xlink:href="#rim"/>
    <path pointer-events="none" fill="none" stroke="white" stroke-width="1.5" d="M0,-3.0v7 M-2.5,-0.5L0,-3.0L2.5,-0.5"/>
  </g>
  <g id="arrowRight" transform="rotate(90) translate(36 -43)">
    <use xlink:href="#rim"/>
    <path pointer-events="none" fill="none" stroke="white" stroke-width="1.5" d="M0,-3.0v7 M-2.5,-0.5L0,-3.0L2.5,-0.5"/>
  </g>
  <g id="arrowDown" transform="rotate(180) translate(-30 -48)">
    <use xlink:href="#rim"/>
    <path pointer-events="none" fill="none" stroke="white" stroke-width="1.5" d="M0,-3.0v7 M-2.5,-0.5L0,-3.0L2.5,-0.5"/>
  </g>
  <g id="arrowLeft" transform="rotate(270) translate(-36 17)">
    <use xlink:href="#rim"/>
    <path pointer-events="none" fill="none" stroke="white" stroke-width="1.5" d="M0,-3.0v7 M-2.5,-0.5L0,-3.0L2.5,-0.5"/>
  </g>
  <g id="resetDef">
    <use xlink:href="#rim2" fill="#404040"><set attributeName="fill" to="#808080" begin="reset.mouseover" end="reset.mouseout"/></use>
  </g>
</defs>
<script type="application/ecmascript">
var viewWidth = 3658;
var viewHeight = 159;
var sectionId = 'dynsection-0';
</script>
<script type="application/ecmascript" xlink:href="../../svg.min.js"/>
<svg id="graph" class="graph">
<g id="viewport">
<title>workspace/workspace.h</title>
<!-- Node1 -->
<g id="Node000001" class="node">
<title>Node1</title>
<g id="a_Node000001"><a xlink:title="Function declarations for workspace managment.">
<polygon fill="#999999" stroke="#666666" points="2485.5,-151 2351.5,-151 2351.5,-132 2485.5,-132 2485.5,-151"/>
<text text-anchor="middle" x="2418.5" y="-139" font-family="Helvetica,sans-Serif" font-size="10.00">workspace/workspace.h</text>
</a>
</g>
</g>
<!-- Node2 -->
<g id="Node000002" class="node">
<title>Node2</title>
<g id="a_Node000002"><a xlink:href="../../d8/d5e/calc__menu_8c.html" target="_top" xlink:title="Creation of the calculation dialogs.">
<polygon fill="white" stroke="#666666" points="1663,-90.5 1568,-90.5 1568,-71.5 1663,-71.5 1663,-90.5"/>
<text text-anchor="middle" x="1615.5" y="-78.5" font-family="Helvetica,sans-Serif" font-size="10.00">gui/calc_menu.c</text>
</a>
</g>
</g>
<!-- Node1&#45;&gt;Node2 -->
<g id="edge1_Node000001_Node000002" class="edge">
<title>Node1&#45;&gt;Node2</title>
<g id="a_edge1_Node000001_Node000002"><a xlink:title=" ">
<path fill="none" stroke="#63b8ff" d="M2341.03,-140.6C2204.8,-139.73 1913.83,-133.18 1671.5,-96 1662.88,-94.68 1653.65,-92.64 1645.23,-90.52"/>
<polygon fill="#63b8ff" stroke="#63b8ff" points="2341.33,-144.1 2351.35,-140.66 2341.37,-137.1 2341.33,-144.1"/>
</a>
</g>
</g>
<!-- Node3 -->
<g id="Node000003" class="node">
<title>Node3</title>
<g id="a_Node000003"><a xlink:href="../../d3/d3a/callbacks_8c.html" target="_top" xlink:title="General callbacks &#160;&#160;Functions to open and close files.">
<polygon fill="white" stroke="#666666" points="3056,-24.5 2967,-24.5 2967,-5.5 3056,-5.5 3056,-24.5"/>
<text text-anchor="middle" x="3011.5" y="-12.5" font-family="Helvetica,sans-Serif" font-size="10.00">gui/callbacks.c</text>
</a>
</g>
</g>
<!-- Node1&#45;&gt;Node3 -->
<g id="edge2_Node000001_Node000003" class="edge">
<title>Node1&#45;&gt;Node3</title>
<g id="a_edge2_Node000001_Node000003"><a xlink:title=" ">
<path fill="none" stroke="#63b8ff" d="M2440.75,-126.63C2472.52,-107.09 2529.57,-73.04 2552.5,-66 2725.67,-12.82 2780.06,-61.24 2958.5,-30 2966.47,-28.6 2974.99,-26.59 2982.81,-24.53"/>
<polygon fill="#63b8ff" stroke="#63b8ff" points="2438.81,-123.72 2432.14,-131.95 2442.49,-129.67 2438.81,-123.72"/>
</a>
</g>
</g>
<!-- Node4 -->
<g id="Node000004" class="node">
<title>Node4</title>
<g id="a_Node000004"><a xlink:href="../../d8/da6/edit__menu_8c.html" target="_top" xlink:title="Creation of the edition dialogs.">
<polygon fill="white" stroke="#666666" points="2063,-90.5 1968,-90.5 1968,-71.5 2063,-71.5 2063,-90.5"/>
<text text-anchor="middle" x="2015.5" y="-78.5" font-family="Helvetica,sans-Serif" font-size="10.00">gui/edit_menu.c</text>
</a>
</g>
</g>
<!-- Node1&#45;&gt;Node4 -->
<g id="edge3_Node000001_Node000004" class="edge">
<title>Node1&#45;&gt;Node4</title>
<g id="a_edge3_Node000001_Node000004"><a xlink:title=" ">
<path fill="none" stroke="#63b8ff" d="M2341.38,-133.1C2271.01,-125.76 2164.29,-113.12 2072.5,-96 2064.39,-94.49 2055.7,-92.53 2047.62,-90.56"/>
<polygon fill="#63b8ff" stroke="#63b8ff" points="2341.19,-136.6 2351.5,-134.15 2341.91,-129.64 2341.19,-136.6"/>
</a>
</g>
</g>
<!-- Node5 -->
<g id="Node000005" class="node">
<title>Node5</title>
<g id="a_Node000005"><a xlink:href="../../d5/d03/gui_8c.html" target="_top" xlink:title="GUI of the main window &#160;&#160;Menu elements of the workspace menu &#160;&#160;Creation of menu items,...">
<polygon fill="white" stroke="#666666" points="2139.5,-90.5 2081.5,-90.5 2081.5,-71.5 2139.5,-71.5 2139.5,-90.5"/>
<text text-anchor="middle" x="2110.5" y="-78.5" font-family="Helvetica,sans-Serif" font-size="10.00">gui/gui.c</text>
</a>
</g>
</g>
<!-- Node1&#45;&gt;Node5 -->
<g id="edge4_Node000001_Node000005" class="edge">
<title>Node1&#45;&gt;Node5</title>
<g id="a_edge4_Node000001_Node000005"><a xlink:title=" ">
<path fill="none" stroke="#63b8ff" d="M2341.53,-131.76C2287.06,-124.62 2212.61,-112.93 2148.5,-96 2142.93,-94.53 2137.02,-92.56 2131.58,-90.57"/>
<polygon fill="#63b8ff" stroke="#63b8ff" points="2341.09,-135.24 2351.46,-133.04 2341.99,-128.29 2341.09,-135.24"/>
</a>
</g>
</g>
<!-- Node6 -->
<g id="Node000006" class="node">
<title>Node6</title>
<g id="a_Node000006"><a xlink:href="../../d0/d29/main_8c.html" target="_top" xlink:title="Initialization of the atomes program &#160;&#160;Functions required to read data from the command line.">
<polygon fill="white" stroke="#666666" points="2225.5,-90.5 2157.5,-90.5 2157.5,-71.5 2225.5,-71.5 2225.5,-90.5"/>
<text text-anchor="middle" x="2191.5" y="-78.5" font-family="Helvetica,sans-Serif" font-size="10.00">gui/main.c</text>
</a>
</g>
</g>
<!-- Node1&#45;&gt;Node6 -->
<g id="edge5_Node000001_Node000006" class="edge">
<title>Node1&#45;&gt;Node6</title>
<g id="a_edge5_Node000001_Node000006"><a xlink:title=" ">
<path fill="none" stroke="#63b8ff" d="M2369.42,-129.72C2332.2,-121.28 2279.88,-108.85 2234.5,-96 2228.76,-94.37 2222.64,-92.48 2216.87,-90.62"/>
<polygon fill="#63b8ff" stroke="#63b8ff" points="2368.98,-133.21 2379.5,-131.99 2370.52,-126.38 2368.98,-133.21"/>
</a>
</g>
</g>
<!-- Node7 -->
<g id="Node000007" class="node">
<title>Node7</title>
<g id="a_Node000007"><a xlink:href="../../d1/d9e/tools_8c.html" target="_top" xlink:title="Callbacks for the toolbox dialog.">
<polygon fill="white" stroke="#666666" points="2311,-90.5 2244,-90.5 2244,-71.5 2311,-71.5 2311,-90.5"/>
<text text-anchor="middle" x="2277.5" y="-78.5" font-family="Helvetica,sans-Serif" font-size="10.00">gui/tools.c</text>
</a>
</g>
</g>
<!-- Node1&#45;&gt;Node7 -->
<g id="edge6_Node000001_Node000007" class="edge">
<title>Node1&#45;&gt;Node7</title>
<g id="a_edge6_Node000001_Node000007"><a xlink:title=" ">
<path fill="none" stroke="#63b8ff" d="M2388.57,-128.08C2361.33,-116.78 2321.85,-100.4 2298.03,-90.52"/>
<polygon fill="#63b8ff" stroke="#63b8ff" points="2387.42,-131.39 2398,-131.99 2390.1,-124.93 2387.42,-131.39"/>
</a>
</g>
</g>
<!-- Node8 -->
<g id="Node000008" class="node">
<title>Node8</title>
<g id="a_Node000008"><a xlink:href="../../d7/d29/work__menu_8c.html" target="_top" xlink:title="Workspace menu GTK3 version &#160;&#160;Callbacks for the workspace menu.">
<polygon fill="white" stroke="#666666" points="2429.5,-90.5 2329.5,-90.5 2329.5,-71.5 2429.5,-71.5 2429.5,-90.5"/>
<text text-anchor="middle" x="2379.5" y="-78.5" font-family="Helvetica,sans-Serif" font-size="10.00">gui/work_menu.c</text>
</a>
</g>
</g>
<!-- Node1&#45;&gt;Node8 -->
<g id="edge7_Node000001_Node000008" class="edge">
<title>Node1&#45;&gt;Node8</title>
<g id="a_edge7_Node000001_Node000008"><a xlink:title=" ">
<path fill="none" stroke="#63b8ff" d="M2407.04,-123.3C2399.89,-112.58 2390.99,-99.23 2385.28,-90.67"/>
<polygon fill="#63b8ff" stroke="#63b8ff" points="2404.29,-125.49 2412.75,-131.87 2410.11,-121.61 2404.29,-125.49"/>
</a>
</g>
</g>
<!-- Node9 -->
<g id="Node000009" class="node">
<title>Node9</title>
<g id="a_Node000009"><a xlink:href="../../d5/d9c/atom__edit_8h.html" target="_top" xlink:title="Function declarations for the mode edition window.">
<polygon fill="white" stroke="#666666" points="1814,-90.5 1681,-90.5 1681,-71.5 1814,-71.5 1814,-90.5"/>
<text text-anchor="middle" x="1747.5" y="-78.5" font-family="Helvetica,sans-Serif" font-size="10.00">opengl/edit/atom_edit.h</text>
</a>
</g>
</g>
<!-- Node1&#45;&gt;Node9 -->
<g id="edge8_Node000001_Node000009" class="edge">
<title>Node1&#45;&gt;Node9</title>
<g id="a_edge8_Node000001_Node000009"><a xlink:title=" ">
<path fill="none" stroke="#63b8ff" d="M2341.32,-133.77C2208.67,-122.21 1939.67,-98.75 1814.44,-87.84"/>
<polygon fill="#63b8ff" stroke="#63b8ff" points="2341.13,-137.27 2351.4,-134.65 2341.74,-130.29 2341.13,-137.27"/>
</a>
</g>
</g>
<!-- Node20 -->
<g id="Node000020" class="node">
<title>Node20</title>
<g id="a_Node000020"><a xlink:href="../../d0/dd3/cbuild__action_8c.html" target="_top" xlink:title="Functions to build a crystal using space group, crystallographic position(s) and object(s) to insert.">
<polygon fill="white" stroke="#666666" points="2260.5,-30 2156.5,-30 2156.5,0 2260.5,0 2260.5,-30"/>
<text text-anchor="start" x="2164.5" y="-18" font-family="Helvetica,sans-Serif" font-size="10.00">opengl/edit/cbuild</text>
<text text-anchor="middle" x="2208.5" y="-7" font-family="Helvetica,sans-Serif" font-size="10.00">_action.c</text>
</a>
</g>
</g>
<!-- Node1&#45;&gt;Node20 -->
<g id="edge30_Node000001_Node000020" class="edge">
<title>Node1&#45;&gt;Node20</title>
<g id="a_edge30_Node000001_Node000020"><a xlink:title=" ">
<path fill="none" stroke="#63b8ff" d="M2431.06,-123.07C2441.19,-106.71 2451.74,-82.36 2438.5,-66 2390.18,-6.31 2344.48,-46.59 2269.5,-30 2266.64,-29.37 2263.7,-28.71 2260.73,-28.04"/>
<polygon fill="#63b8ff" stroke="#63b8ff" points="2427.97,-121.4 2425.34,-131.67 2433.8,-125.29 2427.97,-121.4"/>
</a>
</g>
</g>
<!-- Node26 -->
<g id="Node000026" class="node">
<title>Node26</title>
<g id="a_Node000026"><a xlink:href="../../d5/da4/popup_8c.html" target="_top" xlink:title="Functions to create the OpenGL window popup menus:">
<polygon fill="white" stroke="#666666" points="2390,-24.5 2279,-24.5 2279,-5.5 2390,-5.5 2390,-24.5"/>
<text text-anchor="middle" x="2334.5" y="-12.5" font-family="Helvetica,sans-Serif" font-size="10.00">opengl/win/popup.c</text>
</a>
</g>
</g>
<!-- Node1&#45;&gt;Node26 -->
<g id="edge42_Node000001_Node000026" class="edge">
<title>Node1&#45;&gt;Node26</title>
<g id="a_edge42_Node000001_Node000026"><a xlink:title=" ">
<path fill="none" stroke="#63b8ff" d="M2443.75,-126.24C2454.41,-118.75 2465.67,-108.51 2471.5,-96 2477.13,-83.92 2479.14,-76.93 2471.5,-66 2459.78,-49.25 2408.32,-33.73 2371.93,-24.56"/>
<polygon fill="#63b8ff" stroke="#63b8ff" points="2441.56,-123.49 2435.08,-131.87 2445.38,-129.36 2441.56,-123.49"/>
</a>
</g>
</g>
<!-- Node30 -->
<g id="Node000030" class="node">
<title>Node30</title>
<g id="a_Node000030"><a xlink:href="../../db/d0b/cbuild__edit_8c.html" target="_top" xlink:title="Functions to create the crystal builder window.">
<polygon fill="white" stroke="#666666" points="2665.5,-96 2561.5,-96 2561.5,-66 2665.5,-66 2665.5,-96"/>
<text text-anchor="start" x="2569.5" y="-84" font-family="Helvetica,sans-Serif" font-size="10.00">opengl/edit/cbuild</text>
<text text-anchor="middle" x="2613.5" y="-73" font-family="Helvetica,sans-Serif" font-size="10.00">_edit.c</text>
</a>
</g>
</g>
<!-- Node1&#45;&gt;Node30 -->
<g id="edge31_Node000001_Node000030" class="edge">
<title>Node1&#45;&gt;Node30</title>
<g id="a_edge31_Node000001_Node000030"><a xlink:title=" ">
<path fill="none" stroke="#63b8ff" d="M2456.58,-129.08C2488.07,-119.63 2532.92,-106.17 2566.62,-96.06"/>
<polygon fill="#63b8ff" stroke="#63b8ff" points="2455.43,-125.77 2446.85,-131.99 2457.44,-132.47 2455.43,-125.77"/>
</a>
</g>
</g>
<!-- Node31 -->
<g id="Node000031" class="node">
<title>Node31</title>
<g id="a_Node000031"><a xlink:href="../../d9/d97/cell__edit_8h.html" target="_top" xlink:title="Function declarations for the cell edition window.">
<polygon fill="white" stroke="#666666" points="2875,-90.5 2750,-90.5 2750,-71.5 2875,-71.5 2875,-90.5"/>
<text text-anchor="middle" x="2812.5" y="-78.5" font-family="Helvetica,sans-Serif" font-size="10.00">opengl/edit/cell_edit.h</text>
</a>
</g>
</g>
<!-- Node1&#45;&gt;Node31 -->
<g id="edge32_Node000001_Node000031" class="edge">
<title>Node1&#45;&gt;Node31</title>
<g id="a_edge32_Node000001_Node000031"><a xlink:title=" ">
<path fill="none" stroke="#63b8ff" d="M2485.72,-130.52C2561.55,-119.26 2683.62,-101.14 2755.14,-90.52"/>
<polygon fill="#63b8ff" stroke="#63b8ff" points="2485.17,-127.06 2475.79,-131.99 2486.2,-133.99 2485.17,-127.06"/>
</a>
</g>
</g>
<!-- Node36 -->
<g id="Node000036" class="node">
<title>Node36</title>
<g id="a_Node000036"><a xlink:href="../../d3/d50/close__p_8c.html" target="_top" xlink:title="Functions to close an atomes project &#160;&#160;Callbacks to close an atomes project.">
<polygon fill="white" stroke="#666666" points="2991.5,-90.5 2893.5,-90.5 2893.5,-71.5 2991.5,-71.5 2991.5,-90.5"/>
<text text-anchor="middle" x="2942.5" y="-78.5" font-family="Helvetica,sans-Serif" font-size="10.00">project/close_p.c</text>
</a>
</g>
</g>
<!-- Node1&#45;&gt;Node36 -->
<g id="edge43_Node000001_Node000036" class="edge">
<title>Node1&#45;&gt;Node36</title>
<g id="a_edge43_Node000001_Node000036"><a xlink:title=" ">
<path fill="none" stroke="#63b8ff" d="M2495.79,-136.48C2588.59,-130.88 2748.72,-118.75 2884.5,-96 2893.08,-94.56 2902.28,-92.56 2910.76,-90.52"/>
<polygon fill="#63b8ff" stroke="#63b8ff" points="2495.41,-133 2485.64,-137.08 2495.83,-139.98 2495.41,-133"/>
</a>
</g>
</g>
<!-- Node37 -->
<g id="Node000037" class="node">
<title>Node37</title>
<g id="a_Node000037"><a xlink:href="../../db/d3e/update__p_8c.html" target="_top" xlink:title="Functions to update a project &#160;&#160;Functions to activate a project.">
<polygon fill="white" stroke="#666666" points="3117,-90.5 3010,-90.5 3010,-71.5 3117,-71.5 3117,-90.5"/>
<text text-anchor="middle" x="3063.5" y="-78.5" font-family="Helvetica,sans-Serif" font-size="10.00">project/update_p.c</text>
</a>
</g>
</g>
<!-- Node1&#45;&gt;Node37 -->
<g id="edge44_Node000001_Node000037" class="edge">
<title>Node1&#45;&gt;Node37</title>
<g id="a_edge44_Node000001_Node000037"><a xlink:title=" ">
<path fill="none" stroke="#63b8ff" d="M2495.79,-138.09C2607.65,-133.81 2820.92,-122.68 3000.5,-96 3009.92,-94.6 3020.03,-92.59 3029.33,-90.52"/>
<polygon fill="#63b8ff" stroke="#63b8ff" points="2495.48,-134.6 2485.62,-138.47 2495.74,-141.59 2495.48,-134.6"/>
</a>
</g>
</g>
<!-- Node9&#45;&gt;Node3 -->
<g id="edge9_Node000009_Node000003" class="edge">
<title>Node9&#45;&gt;Node3</title>
<g id="a_edge9_Node000009_Node000003"><a xlink:title=" ">
<path fill="none" stroke="#63b8ff" d="M1824.66,-74.32C1864.6,-71.52 1914.15,-68.27 1958.5,-66 2402.65,-43.28 2518.57,-95.19 2958.5,-30 2966.88,-28.76 2975.84,-26.69 2983.96,-24.52"/>
<polygon fill="#63b8ff" stroke="#63b8ff" points="1824.19,-70.84 1814.46,-75.04 1824.69,-77.82 1824.19,-70.84"/>
</a>
</g>
</g>
<!-- Node10 -->
<g id="Node000010" class="node">
<title>Node10</title>
<g id="a_Node000010"><a xlink:href="../../d8/d15/atom__action_8c.html" target="_top" xlink:title="Functions to apply the edition actions to the model.">
<polygon fill="white" stroke="#666666" points="1201,-24.5 1058,-24.5 1058,-5.5 1201,-5.5 1201,-24.5"/>
<text text-anchor="middle" x="1129.5" y="-12.5" font-family="Helvetica,sans-Serif" font-size="10.00">opengl/edit/atom_action.c</text>
</a>
</g>
</g>
<!-- Node9&#45;&gt;Node10 -->
<g id="edge10_Node000009_Node000010" class="edge">
<title>Node9&#45;&gt;Node10</title>
<g id="a_edge10_Node000009_Node000010"><a xlink:title=" ">
<path fill="none" stroke="#63b8ff" d="M1695.43,-69.67C1687.44,-68.3 1679.26,-67.02 1671.5,-66 1467.72,-39.35 1414.42,-55.53 1210.5,-30 1198.75,-28.53 1186.1,-26.54 1174.38,-24.52"/>
<polygon fill="#63b8ff" stroke="#63b8ff" points="1694.96,-73.14 1705.41,-71.44 1696.18,-66.24 1694.96,-73.14"/>
</a>
</g>
</g>
<!-- Node11 -->
<g id="Node000011" class="node">
<title>Node11</title>
<g id="a_Node000011"><a xlink:href="../../d9/dbe/atom__coord_8c.html" target="_top" xlink:title="Functions to correct the coordination menus and the corresponding data pointers after edition.">
<polygon fill="white" stroke="#666666" points="1359.5,-24.5 1219.5,-24.5 1219.5,-5.5 1359.5,-5.5 1359.5,-24.5"/>
<text text-anchor="middle" x="1289.5" y="-12.5" font-family="Helvetica,sans-Serif" font-size="10.00">opengl/edit/atom_coord.c</text>
</a>
</g>
</g>
<!-- Node9&#45;&gt;Node11 -->
<g id="edge11_Node000009_Node000011" class="edge">
<title>Node9&#45;&gt;Node11</title>
<g id="a_edge11_Node000009_Node000011"><a xlink:title=" ">
<path fill="none" stroke="#63b8ff" d="M1693.73,-69.65C1686.27,-68.35 1678.7,-67.09 1671.5,-66 1537.41,-45.71 1502.65,-49.84 1368.5,-30 1357.61,-28.39 1345.92,-26.44 1334.96,-24.51"/>
<polygon fill="#63b8ff" stroke="#63b8ff" points="1693.31,-73.14 1703.77,-71.45 1694.55,-66.24 1693.31,-73.14"/>
</a>
</g>
</g>
<!-- Node12 -->
<g id="Node000012" class="node">
<title>Node12</title>
<g id="a_Node000012"><a xlink:href="../../dc/d6c/atom__edit_8c.html" target="_top" xlink:title="Functions to create the model edition window.">
<polygon fill="white" stroke="#666666" points="1509.5,-24.5 1377.5,-24.5 1377.5,-5.5 1509.5,-5.5 1509.5,-24.5"/>
<text text-anchor="middle" x="1443.5" y="-12.5" font-family="Helvetica,sans-Serif" font-size="10.00">opengl/edit/atom_edit.c</text>
</a>
</g>
</g>
<!-- Node9&#45;&gt;Node12 -->
<g id="edge12_Node000009_Node000012" class="edge">
<title>Node9&#45;&gt;Node12</title>
<g id="a_edge12_Node000009_Node000012"><a xlink:title=" ">
<path fill="none" stroke="#63b8ff" d="M1696.84,-69.34C1637.07,-56.75 1538.88,-36.08 1483.94,-24.51"/>
<polygon fill="#63b8ff" stroke="#63b8ff" points="1696.31,-72.8 1706.82,-71.44 1697.75,-65.95 1696.31,-72.8"/>
</a>
</g>
</g>
<!-- Node13 -->
<g id="Node000013" class="node">
<title>Node13</title>
<g id="a_Node000013"><a xlink:href="../../d2/d4a/atom__geo_8c.html" target="_top" xlink:title="Functions to check for the appropriate atomic coordinations.">
<polygon fill="white" stroke="#666666" points="1659,-24.5 1528,-24.5 1528,-5.5 1659,-5.5 1659,-24.5"/>
<text text-anchor="middle" x="1593.5" y="-12.5" font-family="Helvetica,sans-Serif" font-size="10.00">opengl/edit/atom_geo.c</text>
</a>
</g>
</g>
<!-- Node9&#45;&gt;Node13 -->
<g id="edge13_Node000009_Node000013" class="edge">
<title>Node9&#45;&gt;Node13</title>
<g id="a_edge13_Node000009_Node000013"><a xlink:title=" ">
<path fill="none" stroke="#63b8ff" d="M1717.48,-67.52C1687.13,-54.91 1641.03,-35.75 1614.43,-24.7"/>
<polygon fill="#63b8ff" stroke="#63b8ff" points="1716.15,-70.76 1726.73,-71.37 1718.84,-64.3 1716.15,-70.76"/>
</a>
</g>
</g>
<!-- Node14 -->
<g id="Node000014" class="node">
<title>Node14</title>
<g id="a_Node000014"><a xlink:href="../../dd/d0b/atom__insert_8c.html" target="_top" xlink:title="Functions to insert bond(s) in a project.">
<polygon fill="white" stroke="#666666" points="1818,-24.5 1677,-24.5 1677,-5.5 1818,-5.5 1818,-24.5"/>
<text text-anchor="middle" x="1747.5" y="-12.5" font-family="Helvetica,sans-Serif" font-size="10.00">opengl/edit/atom_insert.c</text>
</a>
</g>
</g>
<!-- Node9&#45;&gt;Node14 -->
<g id="edge14_Node000009_Node000014" class="edge">
<title>Node9&#45;&gt;Node14</title>
<g id="a_edge14_Node000009_Node000014"><a xlink:title=" ">
<path fill="none" stroke="#63b8ff" d="M1747.5,-61.08C1747.5,-49.13 1747.5,-34.22 1747.5,-24.91"/>
<polygon fill="#63b8ff" stroke="#63b8ff" points="1744,-61.37 1747.5,-71.37 1751,-61.37 1744,-61.37"/>
</a>
</g>
</g>
<!-- Node15 -->
<g id="Node000015" class="node">
<title>Node15</title>
<g id="a_Node000015"><a xlink:href="../../d7/d27/atom__move_8c.html" target="_top" xlink:title="Functions to move atom(s) and group of atom(s) &#160;&#160;Functions to move randomly atom(s) and group of atom...">
<polygon fill="white" stroke="#666666" points="1977,-24.5 1836,-24.5 1836,-5.5 1977,-5.5 1977,-24.5"/>
<text text-anchor="middle" x="1906.5" y="-12.5" font-family="Helvetica,sans-Serif" font-size="10.00">opengl/edit/atom_move.c</text>
</a>
</g>
</g>
<!-- Node9&#45;&gt;Node15 -->
<g id="edge15_Node000009_Node000015" class="edge">
<title>Node9&#45;&gt;Node15</title>
<g id="a_edge15_Node000009_Node000015"><a xlink:title=" ">
<path fill="none" stroke="#63b8ff" d="M1778.53,-67.51C1809.95,-54.86 1857.73,-35.63 1885.14,-24.6"/>
<polygon fill="#63b8ff" stroke="#63b8ff" points="1776.91,-64.39 1768.94,-71.37 1779.53,-70.88 1776.91,-64.39"/>
</a>
</g>
</g>
<!-- Node16 -->
<g id="Node000016" class="node">
<title>Node16</title>
<g id="a_Node000016"><a xlink:href="../../d7/d6a/atom__object_8c.html" target="_top" xlink:title="Functions to create atomic objects.">
<polygon fill="white" stroke="#666666" points="2138,-24.5 1995,-24.5 1995,-5.5 2138,-5.5 2138,-24.5"/>
<text text-anchor="middle" x="2066.5" y="-12.5" font-family="Helvetica,sans-Serif" font-size="10.00">opengl/edit/atom_object.c</text>
</a>
</g>
</g>
<!-- Node9&#45;&gt;Node16 -->
<g id="edge16_Node000009_Node000016" class="edge">
<title>Node9&#45;&gt;Node16</title>
<g id="a_edge16_Node000009_Node000016"><a xlink:title=" ">
<path fill="none" stroke="#63b8ff" d="M1800.27,-69.41C1862.96,-56.84 1966.3,-36.1 2024.06,-24.51"/>
<polygon fill="#63b8ff" stroke="#63b8ff" points="1799.31,-66.04 1790.19,-71.44 1800.68,-72.9 1799.31,-66.04"/>
</a>
</g>
</g>
<!-- Node17 -->
<g id="Node000017" class="node">
<title>Node17</title>
<g id="a_Node000017"><a xlink:href="../../d3/ded/atom__remove_8c.html" target="_top" xlink:title="Functions to remove bond(s) from a project &#160;&#160;Function to prepare the passivation (removal followed by...">
<polygon fill="white" stroke="#666666" points="151,-24.5 0,-24.5 0,-5.5 151,-5.5 151,-24.5"/>
<text text-anchor="middle" x="75.5" y="-12.5" font-family="Helvetica,sans-Serif" font-size="10.00">opengl/edit/atom_remove.c</text>
</a>
</g>
</g>
<!-- Node9&#45;&gt;Node17 -->
<g id="edge17_Node000009_Node000017" class="edge">
<title>Node9&#45;&gt;Node17</title>
<g id="a_edge17_Node000009_Node000017"><a xlink:title=" ">
<path fill="none" stroke="#63b8ff" d="M1697.78,-69.68C1689.05,-68.2 1680.04,-66.88 1671.5,-66 1003.31,3.06 829.31,-92.74 160.5,-30 147.25,-28.76 132.94,-26.69 119.9,-24.51"/>
<polygon fill="#63b8ff" stroke="#63b8ff" points="1697.37,-73.16 1707.83,-71.47 1698.6,-66.27 1697.37,-73.16"/>
</a>
</g>
</g>
<!-- Node18 -->
<g id="Node000018" class="node">
<title>Node18</title>
<g id="a_Node000018"><a xlink:href="../../d9/d33/atom__search_8c.html" target="_top" xlink:title="Functions to prepare the model edition &#39;search&#39; tabs and the associated widgets.">
<polygon fill="white" stroke="#666666" points="315.5,-24.5 169.5,-24.5 169.5,-5.5 315.5,-5.5 315.5,-24.5"/>
<text text-anchor="middle" x="242.5" y="-12.5" font-family="Helvetica,sans-Serif" font-size="10.00">opengl/edit/atom_search.c</text>
</a>
</g>
</g>
<!-- Node9&#45;&gt;Node18 -->
<g id="edge18_Node000009_Node000018" class="edge">
<title>Node9&#45;&gt;Node18</title>
<g id="a_edge18_Node000009_Node000018"><a xlink:title=" ">
<path fill="none" stroke="#63b8ff" d="M1697.77,-69.7C1689.05,-68.22 1680.04,-66.89 1671.5,-66 1075.88,-3.56 920.51,-88.54 324.5,-30 311.85,-28.76 298.21,-26.72 285.75,-24.57"/>
<polygon fill="#63b8ff" stroke="#63b8ff" points="1697.37,-73.18 1707.83,-71.49 1698.6,-66.29 1697.37,-73.18"/>
</a>
</g>
</g>
<!-- Node19 -->
<g id="Node000019" class="node">
<title>Node19</title>
<g id="a_Node000019"><a xlink:href="../../dd/d37/atom__species_8c.html" target="_top" xlink:title="Functions to look for new chemical species and modify the chemical information accordingly.">
<polygon fill="white" stroke="#666666" points="483.5,-24.5 333.5,-24.5 333.5,-5.5 483.5,-5.5 483.5,-24.5"/>
<text text-anchor="middle" x="408.5" y="-12.5" font-family="Helvetica,sans-Serif" font-size="10.00">opengl/edit/atom_species.c</text>
</a>
</g>
</g>
<!-- Node9&#45;&gt;Node19 -->
<g id="edge19_Node000009_Node000019" class="edge">
<title>Node9&#45;&gt;Node19</title>
<g id="a_edge19_Node000009_Node000019"><a xlink:title=" ">
<path fill="none" stroke="#63b8ff" d="M1697.48,-69.67C1688.85,-68.21 1679.94,-66.9 1671.5,-66 1150.22,-10.35 1014.24,-81.21 492.5,-30 479.55,-28.73 465.58,-26.68 452.82,-24.53"/>
<polygon fill="#63b8ff" stroke="#63b8ff" points="1696.98,-73.14 1707.44,-71.44 1698.2,-66.25 1696.98,-73.14"/>
</a>
</g>
</g>
<!-- Node9&#45;&gt;Node20 -->
<g id="edge20_Node000009_Node000020" class="edge">
<title>Node9&#45;&gt;Node20</title>
<g id="a_edge20_Node000009_Node000020"><a xlink:title=" ">
<path fill="none" stroke="#63b8ff" d="M1824.22,-72.63C1904.8,-64.36 2035.05,-49.52 2146.5,-30 2149.76,-29.43 2153.11,-28.8 2156.48,-28.13"/>
<polygon fill="#63b8ff" stroke="#63b8ff" points="1823.75,-69.16 1814.16,-73.65 1824.46,-76.12 1823.75,-69.16"/>
</a>
</g>
</g>
<!-- Node21 -->
<g id="Node000021" class="node">
<title>Node21</title>
<g id="a_Node000021"><a xlink:href="../../d2/d17/cell__cut_8c.html" target="_top" xlink:title="Functions to create the &#39;slab cutting&#39; tab of the cell edition window.">
<polygon fill="white" stroke="#666666" points="2528.5,-24.5 2408.5,-24.5 2408.5,-5.5 2528.5,-5.5 2528.5,-24.5"/>
<text text-anchor="middle" x="2468.5" y="-12.5" font-family="Helvetica,sans-Serif" font-size="10.00">opengl/edit/cell_cut.c</text>
</a>
</g>
</g>
<!-- Node9&#45;&gt;Node21 -->
<g id="edge21_Node000009_Node000021" class="edge">
<title>Node9&#45;&gt;Node21</title>
<g id="a_edge21_Node000009_Node000021"><a xlink:title=" ">
<path fill="none" stroke="#63b8ff" d="M1824.28,-74.63C1984.23,-63.36 2342.94,-37.66 2398.5,-30 2408.81,-28.58 2419.89,-26.58 2430.13,-24.54"/>
<polygon fill="#63b8ff" stroke="#63b8ff" points="1823.76,-71.15 1814.04,-75.35 1824.26,-78.14 1823.76,-71.15"/>
</a>
</g>
</g>
<!-- Node22 -->
<g id="Node000022" class="node">
<title>Node22</title>
<g id="a_Node000022"><a xlink:href="../../d8/d1c/cell__super_8c.html" target="_top" xlink:title="Functions to create a super&#45;cell using the extra cell(s)">
<polygon fill="white" stroke="#666666" points="2949,-24.5 2818,-24.5 2818,-5.5 2949,-5.5 2949,-24.5"/>
<text text-anchor="middle" x="2883.5" y="-12.5" font-family="Helvetica,sans-Serif" font-size="10.00">opengl/edit/cell_super.c</text>
</a>
</g>
</g>
<!-- Node9&#45;&gt;Node22 -->
<g id="edge22_Node000009_Node000022" class="edge">
<title>Node9&#45;&gt;Node22</title>
<g id="a_edge22_Node000009_Node000022"><a xlink:title=" ">
<path fill="none" stroke="#63b8ff" d="M1824.67,-74.43C1864.6,-71.67 1914.15,-68.41 1958.5,-66 2336.5,-45.47 2433.42,-73.3 2809.5,-30 2820.8,-28.7 2832.97,-26.67 2844.11,-24.55"/>
<polygon fill="#63b8ff" stroke="#63b8ff" points="1824.2,-70.96 1814.47,-75.14 1824.69,-77.94 1824.2,-70.96"/>
</a>
</g>
</g>
<!-- Node23 -->
<g id="Node000023" class="node">
<title>Node23</title>
<g id="a_Node000023"><a xlink:href="../../dc/d50/selection_8c.html" target="_top" xlink:title="Functions handling the atom and bond selection process in the OpenGL window.">
<polygon fill="white" stroke="#666666" points="607,-24.5 502,-24.5 502,-5.5 607,-5.5 607,-24.5"/>
<text text-anchor="middle" x="554.5" y="-12.5" font-family="Helvetica,sans-Serif" font-size="10.00">opengl/selection.c</text>
</a>
</g>
</g>
<!-- Node9&#45;&gt;Node23 -->
<g id="edge23_Node000009_Node000023" class="edge">
<title>Node9&#45;&gt;Node23</title>
<g id="a_edge23_Node000009_Node000023"><a xlink:title=" ">
<path fill="none" stroke="#63b8ff" d="M1697.47,-69.7C1688.84,-68.23 1679.94,-66.92 1671.5,-66 1204.64,-15.32 1081.15,-90.8 615.5,-30 605.91,-28.75 595.62,-26.67 586.27,-24.5"/>
<polygon fill="#63b8ff" stroke="#63b8ff" points="1696.97,-73.16 1707.43,-71.47 1698.2,-66.27 1696.97,-73.16"/>
</a>
</g>
</g>
<!-- Node24 -->
<g id="Node000024" class="node">
<title>Node24</title>
<g id="a_Node000024"><a xlink:href="../../db/d42/m__edit_8c.html" target="_top" xlink:title="Functions to create the &#39;Tools &#45;&gt; Edit&#39; submenu.">
<polygon fill="white" stroke="#666666" points="2800,-24.5 2685,-24.5 2685,-5.5 2800,-5.5 2800,-24.5"/>
<text text-anchor="middle" x="2742.5" y="-12.5" font-family="Helvetica,sans-Serif" font-size="10.00">opengl/win/m_edit.c</text>
</a>
</g>
</g>
<!-- Node9&#45;&gt;Node24 -->
<g id="edge24_Node000009_Node000024" class="edge">
<title>Node9&#45;&gt;Node24</title>
<g id="a_edge24_Node000009_Node000024"><a xlink:title=" ">
<path fill="none" stroke="#63b8ff" d="M1824.22,-74.61C1864.24,-71.88 1914,-68.59 1958.5,-66 2277.03,-47.44 2359.05,-70.75 2675.5,-30 2685.75,-28.68 2696.78,-26.64 2706.86,-24.52"/>
<polygon fill="#63b8ff" stroke="#63b8ff" points="1823.74,-71.14 1814,-75.31 1824.22,-78.12 1823.74,-71.14"/>
</a>
</g>
</g>
<!-- Node25 -->
<g id="Node000025" class="node">
<title>Node25</title>
<g id="a_Node000025"><a xlink:href="../../d3/d51/m__tools_8c.html" target="_top" xlink:title="Functions to create the &#39;Tools&#39; submenu.">
<polygon fill="white" stroke="#666666" points="2666.5,-24.5 2546.5,-24.5 2546.5,-5.5 2666.5,-5.5 2666.5,-24.5"/>
<text text-anchor="middle" x="2606.5" y="-12.5" font-family="Helvetica,sans-Serif" font-size="10.00">opengl/win/m_tools.c</text>
</a>
</g>
</g>
<!-- Node9&#45;&gt;Node25 -->
<g id="edge25_Node000009_Node000025" class="edge">
<title>Node9&#45;&gt;Node25</title>
<g id="a_edge25_Node000009_Node000025"><a xlink:title=" ">
<path fill="none" stroke="#63b8ff" d="M1824.24,-74.83C1864.25,-72.16 1914.01,-68.86 1958.5,-66 2215.8,-49.47 2281.88,-63.71 2537.5,-30 2547.92,-28.63 2559.13,-26.59 2569.42,-24.5"/>
<polygon fill="#63b8ff" stroke="#63b8ff" points="1823.76,-71.36 1814.02,-75.52 1824.23,-78.34 1823.76,-71.36"/>
</a>
</g>
</g>
<!-- Node9&#45;&gt;Node26 -->
<g id="edge26_Node000009_Node000026" class="edge">
<title>Node9&#45;&gt;Node26</title>
<g id="a_edge26_Node000009_Node000026"><a xlink:title=" ">
<path fill="none" stroke="#63b8ff" d="M1824.36,-75.45C1926.47,-68.77 2112.29,-54.37 2269.5,-30 2278.97,-28.53 2289.13,-26.54 2298.54,-24.53"/>
<polygon fill="#63b8ff" stroke="#63b8ff" points="1823.9,-71.98 1814.14,-76.11 1824.35,-78.96 1823.9,-71.98"/>
</a>
</g>
</g>
<!-- Node27 -->
<g id="Node000027" class="node">
<title>Node27</title>
<g id="a_Node000027"><a xlink:href="../../de/dc7/w__search_8c.html" target="_top" xlink:title="Functions to create the object search widgets, for:">
<polygon fill="white" stroke="#666666" points="752,-24.5 625,-24.5 625,-5.5 752,-5.5 752,-24.5"/>
<text text-anchor="middle" x="688.5" y="-12.5" font-family="Helvetica,sans-Serif" font-size="10.00">opengl/win/w_search.c</text>
</a>
</g>
</g>
<!-- Node9&#45;&gt;Node27 -->
<g id="edge27_Node000009_Node000027" class="edge">
<title>Node9&#45;&gt;Node27</title>
<g id="a_edge27_Node000009_Node000027"><a xlink:title=" ">
<path fill="none" stroke="#63b8ff" d="M1697.17,-69.69C1688.64,-68.24 1679.84,-66.93 1671.5,-66 1268.78,-21.18 1162.99,-76.81 760.5,-30 749.37,-28.71 737.38,-26.65 726.44,-24.5"/>
<polygon fill="#63b8ff" stroke="#63b8ff" points="1696.58,-73.14 1707.03,-71.44 1697.8,-66.24 1696.58,-73.14"/>
</a>
</g>
</g>
<!-- Node28 -->
<g id="Node000028" class="node">
<title>Node28</title>
<g id="a_Node000028"><a xlink:href="../../d8/de9/w__volumes_8c.html" target="_top" xlink:title="Functions to create the &#39;Volumes&#39; window &#160;&#160;Functions to compute system / fragment / molecular volumes...">
<polygon fill="white" stroke="#666666" points="907,-24.5 770,-24.5 770,-5.5 907,-5.5 907,-24.5"/>
<text text-anchor="middle" x="838.5" y="-12.5" font-family="Helvetica,sans-Serif" font-size="10.00">opengl/win/w_volumes.c</text>
</a>
</g>
</g>
<!-- Node9&#45;&gt;Node28 -->
<g id="edge28_Node000009_Node000028" class="edge">
<title>Node9&#45;&gt;Node28</title>
<g id="a_edge28_Node000009_Node000028"><a xlink:title=" ">
<path fill="none" stroke="#63b8ff" d="M1696.6,-69.65C1688.24,-68.23 1679.65,-66.94 1671.5,-66 1337.34,-27.44 1249.71,-68.17 915.5,-30 903.89,-28.67 891.39,-26.66 879.91,-24.57"/>
<polygon fill="#63b8ff" stroke="#63b8ff" points="1696.17,-73.13 1706.63,-71.43 1697.4,-66.24 1696.17,-73.13"/>
</a>
</g>
</g>
<!-- Node29 -->
<g id="Node000029" class="node">
<title>Node29</title>
<g id="a_Node000029"><a xlink:href="../../d8/d50/read__cif_8c.html" target="_top" xlink:title="Functions to read CIF files.">
<polygon fill="white" stroke="#666666" points="1040,-30 925,-30 925,0 1040,0 1040,-30"/>
<text text-anchor="start" x="933" y="-18" font-family="Helvetica,sans-Serif" font-size="10.00">project/readers/read</text>
<text text-anchor="middle" x="982.5" y="-7" font-family="Helvetica,sans-Serif" font-size="10.00">_cif.c</text>
</a>
</g>
</g>
<!-- Node9&#45;&gt;Node29 -->
<g id="edge29_Node000009_Node000029" class="edge">
<title>Node9&#45;&gt;Node29</title>
<g id="a_edge29_Node000009_Node000029"><a xlink:title=" ">
<path fill="none" stroke="#63b8ff" d="M1696.3,-69.67C1688.03,-68.26 1679.55,-66.97 1671.5,-66 1396.14,-32.81 1323.39,-66.88 1048.5,-30 1045.71,-29.63 1042.87,-29.2 1040,-28.73"/>
<polygon fill="#63b8ff" stroke="#63b8ff" points="1695.77,-73.13 1706.23,-71.43 1696.99,-66.24 1695.77,-73.13"/>
</a>
</g>
</g>
<!-- Node31&#45;&gt;Node3 -->
<g id="edge33_Node000031_Node000003" class="edge">
<title>Node31&#45;&gt;Node3</title>
<g id="a_edge33_Node000031_Node000003"><a xlink:title=" ">
<path fill="none" stroke="#63b8ff" d="M2849.06,-68.24C2888.33,-55.61 2949.79,-35.85 2984.77,-24.6"/>
<polygon fill="#63b8ff" stroke="#63b8ff" points="2847.79,-64.98 2839.34,-71.37 2849.93,-71.64 2847.79,-64.98"/>
</a>
</g>
</g>
<!-- Node31&#45;&gt;Node21 -->
<g id="edge34_Node000031_Node000021" class="edge">
<title>Node31&#45;&gt;Node21</title>
<g id="a_edge34_Node000031_Node000021"><a xlink:title=" ">
<path fill="none" stroke="#63b8ff" d="M2753.72,-69.67C2698,-59.79 2611.97,-44.32 2537.5,-30 2528.5,-28.27 2518.85,-26.35 2509.7,-24.5"/>
<polygon fill="#63b8ff" stroke="#63b8ff" points="2753.31,-73.15 2763.76,-71.45 2754.53,-66.26 2753.31,-73.15"/>
</a>
</g>
</g>
<!-- Node31&#45;&gt;Node22 -->
<g id="edge39_Node000031_Node000022" class="edge">
<title>Node31&#45;&gt;Node22</title>
<g id="a_edge39_Node000031_Node000022"><a xlink:title=" ">
<path fill="none" stroke="#63b8ff" d="M2829.88,-64.33C2843.63,-51.94 2862.33,-35.09 2873.62,-24.91"/>
<polygon fill="#63b8ff" stroke="#63b8ff" points="2827.16,-62.07 2822.08,-71.37 2831.85,-67.27 2827.16,-62.07"/>
</a>
</g>
</g>
<!-- Node31&#45;&gt;Node24 -->
<g id="edge40_Node000031_Node000024" class="edge">
<title>Node31&#45;&gt;Node24</title>
<g id="a_edge40_Node000031_Node000024"><a xlink:title=" ">
<path fill="none" stroke="#63b8ff" d="M2795.36,-64.33C2781.81,-51.94 2763.37,-35.09 2752.24,-24.91"/>
<polygon fill="#63b8ff" stroke="#63b8ff" points="2793.32,-67.2 2803.06,-71.37 2798.04,-62.04 2793.32,-67.2"/>
</a>
</g>
</g>
<!-- Node31&#45;&gt;Node25 -->
<g id="edge41_Node000031_Node000025" class="edge">
<title>Node31&#45;&gt;Node25</title>
<g id="a_edge41_Node000031_Node000025"><a xlink:title=" ">
<path fill="none" stroke="#63b8ff" d="M2774.92,-68.32C2734.28,-55.7 2670.46,-35.87 2634.17,-24.6"/>
<polygon fill="#63b8ff" stroke="#63b8ff" points="2774.13,-71.74 2784.72,-71.37 2776.21,-65.06 2774.13,-71.74"/>
</a>
</g>
</g>
<!-- Node32 -->
<g id="Node000032" class="node">
<title>Node32</title>
<g id="a_Node000032"><a xlink:href="../../d9/d1a/cell__density_8c.html" target="_top" xlink:title="Functions to create the &#39;density adjustment&#39; tab in the cell edition window.">
<polygon fill="white" stroke="#666666" points="3649.5,-24.5 3509.5,-24.5 3509.5,-5.5 3649.5,-5.5 3649.5,-24.5"/>
<text text-anchor="middle" x="3579.5" y="-12.5" font-family="Helvetica,sans-Serif" font-size="10.00">opengl/edit/cell_density.c</text>
</a>
</g>
</g>
<!-- Node31&#45;&gt;Node32 -->
<g id="edge35_Node000031_Node000032" class="edge">
<title>Node31&#45;&gt;Node32</title>
<g id="a_edge35_Node000031_Node000032"><a xlink:title=" ">
<path fill="none" stroke="#63b8ff" d="M2861.24,-69.61C2868.99,-68.22 2876.95,-66.95 2884.5,-66 3156.6,-31.75 3228.13,-61.98 3500.5,-30 3512.26,-28.62 3524.92,-26.61 3536.58,-24.55"/>
<polygon fill="#63b8ff" stroke="#63b8ff" points="2860.39,-66.21 2851.21,-71.49 2861.68,-73.09 2860.39,-66.21"/>
</a>
</g>
</g>
<!-- Node33 -->
<g id="Node000033" class="node">
<title>Node33</title>
<g id="a_Node000033"><a xlink:href="../../d3/d1b/cell__edit_8c.html" target="_top" xlink:title="Functions to create the cell edition window.">
<polygon fill="white" stroke="#666666" points="3197.5,-24.5 3073.5,-24.5 3073.5,-5.5 3197.5,-5.5 3197.5,-24.5"/>
<text text-anchor="middle" x="3135.5" y="-12.5" font-family="Helvetica,sans-Serif" font-size="10.00">opengl/edit/cell_edit.c</text>
</a>
</g>
</g>
<!-- Node31&#45;&gt;Node33 -->
<g id="edge36_Node000031_Node000033" class="edge">
<title>Node31&#45;&gt;Node33</title>
<g id="a_edge36_Node000031_Node000033"><a xlink:title=" ">
<path fill="none" stroke="#63b8ff" d="M2865.78,-69.51C2916.99,-59.41 2996.54,-43.71 3065.5,-30 3074.37,-28.24 3083.88,-26.34 3092.93,-24.53"/>
<polygon fill="#63b8ff" stroke="#63b8ff" points="2865.07,-66.08 2855.93,-71.45 2866.42,-72.95 2865.07,-66.08"/>
</a>
</g>
</g>
<!-- Node34 -->
<g id="Node000034" class="node">
<title>Node34</title>
<g id="a_Node000034"><a xlink:href="../../d1/d9f/cell__extra_8c.html" target="_top" xlink:title="Functions to create the &#39;add cell(s)&#39; tab in the cell edition window.">
<polygon fill="white" stroke="#666666" points="3347,-24.5 3216,-24.5 3216,-5.5 3347,-5.5 3347,-24.5"/>
<text text-anchor="middle" x="3281.5" y="-12.5" font-family="Helvetica,sans-Serif" font-size="10.00">opengl/edit/cell_extra.c</text>
</a>
</g>
</g>
<!-- Node31&#45;&gt;Node34 -->
<g id="edge37_Node000031_Node000034" class="edge">
<title>Node31&#45;&gt;Node34</title>
<g id="a_edge37_Node000031_Node000034"><a xlink:title=" ">
<path fill="none" stroke="#63b8ff" d="M2863.64,-69.53C2870.64,-68.25 2877.73,-67.03 2884.5,-66 3026.85,-44.24 3064.07,-51.23 3206.5,-30 3216.98,-28.44 3228.24,-26.49 3238.76,-24.54"/>
<polygon fill="#63b8ff" stroke="#63b8ff" points="2862.7,-66.14 2853.52,-71.43 2864,-73.02 2862.7,-66.14"/>
</a>
</g>
</g>
<!-- Node35 -->
<g id="Node000035" class="node">
<title>Node35</title>
<g id="a_Node000035"><a xlink:href="../../d1/d4a/cell__shift_8c.html" target="_top" xlink:title="Functions to create the &#39;shift cell center&#39; tab for the cell edition window.">
<polygon fill="white" stroke="#666666" points="3491.5,-24.5 3365.5,-24.5 3365.5,-5.5 3491.5,-5.5 3491.5,-24.5"/>
<text text-anchor="middle" x="3428.5" y="-12.5" font-family="Helvetica,sans-Serif" font-size="10.00">opengl/edit/cell_shift.c</text>
</a>
</g>
</g>
<!-- Node31&#45;&gt;Node35 -->
<g id="edge38_Node000031_Node000035" class="edge">
<title>Node31&#45;&gt;Node35</title>
<g id="a_edge38_Node000031_Node000035"><a xlink:title=" ">
<path fill="none" stroke="#63b8ff" d="M2862.05,-69.58C2869.55,-68.24 2877.21,-66.98 2884.5,-66 3093,-37.87 3148,-58.13 3356.5,-30 3367.1,-28.57 3378.5,-26.57 3389.02,-24.53"/>
<polygon fill="#63b8ff" stroke="#63b8ff" points="2861.16,-66.19 2851.98,-71.47 2862.45,-73.07 2861.16,-66.19"/>
</a>
</g>
</g>
</g>
</svg>

<g id="navigator" transform="translate(0 0)" fill="#404254">
  <rect fill="#f2f5e9" fill-opacity="0.5" stroke="#606060" stroke-width=".5" x="0" y="0" width="60" height="60"/>
  <use id="zoomplus" xlink:href="#zoomPlus" x="17" y="9" onmousedown="handleZoom(evt,'in')"/>
  <use id="zoomminus" xlink:href="#zoomMin" x="42" y="9" onmousedown="handleZoom(evt,'out')"/>
  <use id="reset" xlink:href="#resetDef" x="30" y="36" onmousedown="handleReset()"/>
   <use id="arrowup" xlink:href="#arrowUp" x="0" y="0" onmousedown="handlePan(0,-1)"/>
  <use id="arrowright" xlink:href="#arrowRight" x="0" y="0" onmousedown="handlePan(1,0)"/>
  <use id="arrowdown" xlink:href="#arrowDown" x="0" y="0" onmousedown="handlePan(0,1)"/>
  <use id="arrowleft" xlink:href="#arrowLeft" x="0" y="0" onmousedown="handlePan(-1,0)"/>
</g>
<svg viewBox="0 0 15 15" width="100%" height="30px" preserveAspectRatio="xMaxYMin meet">
 <g id="arrow_out" transform="scale(0.3 0.3)">
  <a xlink:href="workspace_8h__dep__incl_org.svg" target="_base">
   <rect id="button" ry="5" rx="5" y="6" x="6" height="38" width="38"
        fill="#f2f5e9" fill-opacity="0.5" stroke="#606060" stroke-width="1.0"/>
   <path id="arrow"
     d="M 11.500037,31.436501 C 11.940474,20.09759 22.043105,11.32322 32.158766,21.979434 L 37.068811,17.246167 C 37.068811,17.246167 37.088388,32 37.088388,32 L 22.160133,31.978069 C 22.160133,31.978069 26.997745,27.140456 26.997745,27.140456 C 18.528582,18.264221 13.291696,25.230495 11.500037,31.436501 z"
     style="fill:#404040;"/>
  </a>
 </g>
</svg>

<style type='text/css'>
<![CDATA[
[data-mouse-over-selected='false'] { opacity: 0.7; }
[data-mouse-over-selected='true']  { opacity: 1.0; }
]]>
</style>
<script type="application/ecmascript"><![CDATA[
document.addEventListener('DOMContentLoaded', (event) => {
  highlightEdges();
  highlightAdjacentNodes();
});
]]></script>
</svg>
