<?xml version="1.0" encoding="UTF-8" standalone="no"?>
<!DOCTYPE svg PUBLIC "-//W3C//DTD SVG 1.1//EN"
 "http://www.w3.org/Graphics/SVG/1.1/DTD/svg11.dtd">
<!-- Generated by graphviz version 7.1.0 (0)
 -->
<!-- Title: workspace/workspace.h Pages: 1 -->
<svg width="3107pt" height="148pt"
 viewBox="0.00 0.00 3106.50 148.00" xmlns="http://www.w3.org/2000/svg" xmlns:xlink="http://www.w3.org/1999/xlink">
<g id="graph0" class="graph" transform="scale(1 1) rotate(0) translate(4 144)">
<title>workspace/workspace.h</title>
<!-- Node1 -->
<g id="node1" class="node">
<title>Node1</title>
<g id="a_node1"><a xlink:title="Function declarations for workspace managment.">
<polygon fill="#999999" stroke="#666666" points="2085,-140 1963,-140 1963,-121 2085,-121 2085,-140"/>
<text text-anchor="middle" x="2024" y="-128" font-family="Helvetica,sans-Serif" font-size="10.00">workspace/workspace.h</text>
</a>
</g>
</g>
<!-- Node2 -->
<g id="node2" class="node">
<title>Node2</title>
<g id="a_node2"><a xlink:href="../../d8/d5e/calc__menu_8c.html" target="_top" xlink:title="Creation of the calculation dialogs.">
<polygon fill="white" stroke="#666666" points="1408,-79.5 1320,-79.5 1320,-60.5 1408,-60.5 1408,-79.5"/>
<text text-anchor="middle" x="1364" y="-67.5" font-family="Helvetica,sans-Serif" font-size="10.00">gui/calc_menu.c</text>
</a>
</g>
</g>
<!-- Node1&#45;&gt;Node2 -->
<g id="edge1" class="edge">
<title>Node1&#45;&gt;Node2</title>
<path fill="none" stroke="#63b8ff" d="M1951.44,-128.51C1837.07,-125.98 1608.19,-116.98 1417,-85 1409.49,-83.74 1401.5,-81.91 1394.06,-79.97"/>
<polygon fill="#63b8ff" stroke="#63b8ff" points="1951.23,-132 1961.3,-128.72 1951.38,-125.01 1951.23,-132"/>
</g>
<!-- Node3 -->
<g id="node3" class="node">
<title>Node3</title>
<g id="a_node3"><a xlink:href="../../d3/d3a/callbacks_8c.html" target="_top" xlink:title="General callbacks &#160;&#160;Functions to open and close files.">
<polygon fill="white" stroke="#666666" points="2558,-19 2476,-19 2476,0 2558,0 2558,-19"/>
<text text-anchor="middle" x="2517" y="-7" font-family="Helvetica,sans-Serif" font-size="10.00">gui/callbacks.c</text>
</a>
</g>
</g>
<!-- Node1&#45;&gt;Node3 -->
<g id="edge2" class="edge">
<title>Node1&#45;&gt;Node3</title>
<path fill="none" stroke="#63b8ff" d="M2039.6,-112.38C2056.87,-94.66 2086.47,-67.83 2118,-55 2262.43,3.78 2312.5,-40.08 2467,-19 2469.79,-18.62 2472.67,-18.2 2475.56,-17.76"/>
<polygon fill="#63b8ff" stroke="#63b8ff" points="2037.11,-109.91 2032.78,-119.59 2042.2,-114.72 2037.11,-109.91"/>
</g>
<!-- Node4 -->
<g id="node4" class="node">
<title>Node4</title>
<g id="a_node4"><a xlink:href="../../d8/da6/edit__menu_8c.html" target="_top" xlink:title="Creation of the edition dialogs.">
<polygon fill="white" stroke="#666666" points="1691,-79.5 1605,-79.5 1605,-60.5 1691,-60.5 1691,-79.5"/>
<text text-anchor="middle" x="1648" y="-67.5" font-family="Helvetica,sans-Serif" font-size="10.00">gui/edit_menu.c</text>
</a>
</g>
</g>
<!-- Node1&#45;&gt;Node4 -->
<g id="edge3" class="edge">
<title>Node1&#45;&gt;Node4</title>
<path fill="none" stroke="#63b8ff" d="M1951.61,-122.21C1885.65,-114.94 1785.75,-102.36 1700,-85 1693.04,-83.59 1685.62,-81.78 1678.64,-79.94"/>
<polygon fill="#63b8ff" stroke="#63b8ff" points="1950.88,-125.65 1961.2,-123.26 1951.64,-118.69 1950.88,-125.65"/>
</g>
<!-- Node5 -->
<g id="node5" class="node">
<title>Node5</title>
<g id="a_node5"><a xlink:href="../../d5/d03/gui_8c.html" target="_top" xlink:title="GUI of the main window &#160;&#160;Menu elements of the workspace menu &#160;&#160;Creation of menu items,...">
<polygon fill="white" stroke="#666666" points="1762.5,-79.5 1709.5,-79.5 1709.5,-60.5 1762.5,-60.5 1762.5,-79.5"/>
<text text-anchor="middle" x="1736" y="-67.5" font-family="Helvetica,sans-Serif" font-size="10.00">gui/gui.c</text>
</a>
</g>
</g>
<!-- Node1&#45;&gt;Node5 -->
<g id="edge4" class="edge">
<title>Node1&#45;&gt;Node5</title>
<path fill="none" stroke="#63b8ff" d="M1951.45,-120.54C1900.64,-113.33 1831.46,-101.64 1772,-85 1767.09,-83.63 1761.93,-81.83 1757.09,-79.99"/>
<polygon fill="#63b8ff" stroke="#63b8ff" points="1950.77,-123.98 1961.16,-121.89 1951.74,-117.04 1950.77,-123.98"/>
</g>
<!-- Node6 -->
<g id="node6" class="node">
<title>Node6</title>
<g id="a_node6"><a xlink:href="../../d0/d29/main_8c.html" target="_top" xlink:title="Initialization of the atomes program &#160;&#160;Functions required to read data from the command line.">
<polygon fill="white" stroke="#666666" points="1843,-79.5 1781,-79.5 1781,-60.5 1843,-60.5 1843,-79.5"/>
<text text-anchor="middle" x="1812" y="-67.5" font-family="Helvetica,sans-Serif" font-size="10.00">gui/main.c</text>
</a>
</g>
</g>
<!-- Node1&#45;&gt;Node6 -->
<g id="edge5" class="edge">
<title>Node1&#45;&gt;Node6</title>
<path fill="none" stroke="#63b8ff" d="M1974.74,-117.91C1940.18,-109.5 1893.01,-97.46 1852,-85 1846.93,-83.46 1841.55,-81.68 1836.43,-79.91"/>
<polygon fill="#63b8ff" stroke="#63b8ff" points="1973.47,-121.21 1984.02,-120.16 1975.12,-114.4 1973.47,-121.21"/>
</g>
<!-- Node7 -->
<g id="node7" class="node">
<title>Node7</title>
<g id="a_node7"><a xlink:href="../../d1/d9e/tools_8c.html" target="_top" xlink:title="Callbacks for the toolbox dialog.">
<polygon fill="white" stroke="#666666" points="1923,-79.5 1861,-79.5 1861,-60.5 1923,-60.5 1923,-79.5"/>
<text text-anchor="middle" x="1892" y="-67.5" font-family="Helvetica,sans-Serif" font-size="10.00">gui/tools.c</text>
</a>
</g>
</g>
<!-- Node1&#45;&gt;Node7 -->
<g id="edge6" class="edge">
<title>Node1&#45;&gt;Node7</title>
<path fill="none" stroke="#63b8ff" d="M1993.57,-116.02C1968.6,-104.95 1933.92,-89.58 1912.24,-79.97"/>
<polygon fill="#63b8ff" stroke="#63b8ff" points="1992.01,-119.15 2002.57,-120 1994.84,-112.75 1992.01,-119.15"/>
</g>
<!-- Node8 -->
<g id="node8" class="node">
<title>Node8</title>
<g id="a_node8"><a xlink:href="../../d7/d29/work__menu_8c.html" target="_top" xlink:title="Workspace menu GTK3 version &#160;&#160;Callbacks for the workspace menu.">
<polygon fill="white" stroke="#666666" points="2032.5,-79.5 1941.5,-79.5 1941.5,-60.5 2032.5,-60.5 2032.5,-79.5"/>
<text text-anchor="middle" x="1987" y="-67.5" font-family="Helvetica,sans-Serif" font-size="10.00">gui/work_menu.c</text>
</a>
</g>
</g>
<!-- Node1&#45;&gt;Node8 -->
<g id="edge7" class="edge">
<title>Node1&#45;&gt;Node8</title>
<path fill="none" stroke="#63b8ff" d="M2012.5,-111.32C2005.83,-100.78 1997.74,-87.98 1992.48,-79.67"/>
<polygon fill="#63b8ff" stroke="#63b8ff" points="2009.43,-113.01 2017.73,-119.59 2015.34,-109.27 2009.43,-113.01"/>
</g>
<!-- Node9 -->
<g id="node9" class="node">
<title>Node9</title>
<g id="a_node9"><a xlink:href="../../d5/d9c/atom__edit_8h.html" target="_top" xlink:title="Function declarations for the mode edition window.">
<polygon fill="white" stroke="#666666" points="1544,-79.5 1426,-79.5 1426,-60.5 1544,-60.5 1544,-79.5"/>
<text text-anchor="middle" x="1485" y="-67.5" font-family="Helvetica,sans-Serif" font-size="10.00">opengl/edit/atom_edit.h</text>
</a>
</g>
</g>
<!-- Node1&#45;&gt;Node9 -->
<g id="edge8" class="edge">
<title>Node1&#45;&gt;Node9</title>
<path fill="none" stroke="#63b8ff" d="M1951.29,-122.43C1866.09,-114.03 1720.7,-99.35 1596,-85 1579.21,-83.07 1561.02,-80.83 1544.31,-78.72"/>
<polygon fill="#63b8ff" stroke="#63b8ff" points="1950.85,-125.9 1961.14,-123.4 1951.53,-118.94 1950.85,-125.9"/>
</g>
<!-- Node25 -->
<g id="node25" class="node">
<title>Node25</title>
<g id="a_node25"><a xlink:href="../../d5/da4/popup_8c.html" target="_top" xlink:title="Functions to create the OpenGL window popup menus:">
<polygon fill="white" stroke="#666666" points="1943.5,-19 1842.5,-19 1842.5,0 1943.5,0 1943.5,-19"/>
<text text-anchor="middle" x="1893" y="-7" font-family="Helvetica,sans-Serif" font-size="10.00">opengl/win/popup.c</text>
</a>
</g>
</g>
<!-- Node1&#45;&gt;Node25 -->
<g id="edge40" class="edge">
<title>Node1&#45;&gt;Node25</title>
<path fill="none" stroke="#63b8ff" d="M2035.97,-110.86C2044.7,-94.64 2053.09,-71.26 2041,-55 2029.19,-39.12 1981.86,-26.77 1943.86,-19.15"/>
<polygon fill="#63b8ff" stroke="#63b8ff" points="2032.96,-109.07 2030.88,-119.46 2038.98,-112.63 2032.96,-109.07"/>
</g>
<!-- Node28 -->
<g id="node28" class="node">
<title>Node28</title>
<g id="a_node28"><a xlink:href="../../d0/dd3/cbuild__action_8c.html" target="_top" xlink:title="Functions to build a crystal using space group, crystallographic position(s) and object(s) to insert.">
<polygon fill="white" stroke="#666666" points="2219,-85 2127,-85 2127,-55 2219,-55 2219,-85"/>
<text text-anchor="start" x="2135" y="-73" font-family="Helvetica,sans-Serif" font-size="10.00">opengl/edit/cbuild</text>
<text text-anchor="middle" x="2173" y="-62" font-family="Helvetica,sans-Serif" font-size="10.00">_action.c</text>
</a>
</g>
</g>
<!-- Node1&#45;&gt;Node28 -->
<g id="edge28" class="edge">
<title>Node1&#45;&gt;Node28</title>
<path fill="none" stroke="#63b8ff" d="M2057.1,-116.5C2080.55,-107.3 2112,-94.95 2136.22,-85.44"/>
<polygon fill="#63b8ff" stroke="#63b8ff" points="2056.07,-113.15 2048.04,-120.06 2058.63,-119.67 2056.07,-113.15"/>
</g>
<!-- Node29 -->
<g id="node29" class="node">
<title>Node29</title>
<g id="a_node29"><a xlink:href="../../db/d0b/cbuild__edit_8c.html" target="_top" xlink:title="Functions to create the crystal builder window.">
<polygon fill="white" stroke="#666666" points="2329,-85 2237,-85 2237,-55 2329,-55 2329,-85"/>
<text text-anchor="start" x="2245" y="-73" font-family="Helvetica,sans-Serif" font-size="10.00">opengl/edit/cbuild</text>
<text text-anchor="middle" x="2283" y="-62" font-family="Helvetica,sans-Serif" font-size="10.00">_edit.c</text>
</a>
</g>
</g>
<!-- Node1&#45;&gt;Node29 -->
<g id="edge29" class="edge">
<title>Node1&#45;&gt;Node29</title>
<path fill="none" stroke="#63b8ff" d="M2078.23,-118.2C2119.4,-109.5 2177.37,-96.96 2228,-85 2230.78,-84.34 2233.64,-83.66 2236.52,-82.95"/>
<polygon fill="#63b8ff" stroke="#63b8ff" points="2077.62,-114.75 2068.56,-120.24 2079.07,-121.6 2077.62,-114.75"/>
</g>
<!-- Node30 -->
<g id="node30" class="node">
<title>Node30</title>
<g id="a_node30"><a xlink:href="../../d9/d97/cell__edit_8h.html" target="_top" xlink:title="Function declarations for the cell edition window.">
<polygon fill="white" stroke="#666666" points="2458.5,-79.5 2347.5,-79.5 2347.5,-60.5 2458.5,-60.5 2458.5,-79.5"/>
<text text-anchor="middle" x="2403" y="-67.5" font-family="Helvetica,sans-Serif" font-size="10.00">opengl/edit/cell_edit.h</text>
</a>
</g>
</g>
<!-- Node1&#45;&gt;Node30 -->
<g id="edge30" class="edge">
<title>Node1&#45;&gt;Node30</title>
<path fill="none" stroke="#63b8ff" d="M2096.42,-120.73C2160.22,-112.64 2255.55,-99.7 2338,-85 2346.3,-83.52 2355.15,-81.75 2363.56,-79.97"/>
<polygon fill="#63b8ff" stroke="#63b8ff" points="2096.27,-117.22 2086.78,-121.94 2097.14,-124.16 2096.27,-117.22"/>
</g>
<!-- Node35 -->
<g id="node35" class="node">
<title>Node35</title>
<g id="a_node35"><a xlink:href="../../d3/d50/close__p_8c.html" target="_top" xlink:title="Functions to close an atomes project &#160;&#160;Callbacks to close an atomes project.">
<polygon fill="white" stroke="#666666" points="2567.5,-79.5 2476.5,-79.5 2476.5,-60.5 2567.5,-60.5 2567.5,-79.5"/>
<text text-anchor="middle" x="2522" y="-67.5" font-family="Helvetica,sans-Serif" font-size="10.00">project/close_p.c</text>
</a>
</g>
</g>
<!-- Node1&#45;&gt;Node35 -->
<g id="edge41" class="edge">
<title>Node1&#45;&gt;Node35</title>
<path fill="none" stroke="#63b8ff" d="M2096.69,-125.65C2185.02,-120.19 2338.32,-108.17 2468,-85 2475.44,-83.67 2483.35,-81.85 2490.77,-79.97"/>
<polygon fill="#63b8ff" stroke="#63b8ff" points="2096.74,-122.14 2086.97,-126.24 2097.16,-129.13 2096.74,-122.14"/>
</g>
<!-- Node36 -->
<g id="node36" class="node">
<title>Node36</title>
<g id="a_node36"><a xlink:href="../../db/d3e/update__p_8c.html" target="_top" xlink:title="Functions to update a project &#160;&#160;Functions to activate a project.">
<polygon fill="white" stroke="#666666" points="2682.5,-79.5 2585.5,-79.5 2585.5,-60.5 2682.5,-60.5 2682.5,-79.5"/>
<text text-anchor="middle" x="2634" y="-67.5" font-family="Helvetica,sans-Serif" font-size="10.00">project/update_p.c</text>
</a>
</g>
</g>
<!-- Node1&#45;&gt;Node36 -->
<g id="edge42" class="edge">
<title>Node1&#45;&gt;Node36</title>
<path fill="none" stroke="#63b8ff" d="M2096.55,-127.37C2202.66,-123.42 2406.14,-112.67 2577,-85 2584.95,-83.71 2593.42,-81.89 2601.33,-79.98"/>
<polygon fill="#63b8ff" stroke="#63b8ff" points="2096.73,-123.86 2086.86,-127.72 2096.98,-130.86 2096.73,-123.86"/>
</g>
<!-- Node9&#45;&gt;Node3 -->
<g id="edge9" class="edge">
<title>Node9&#45;&gt;Node3</title>
<path fill="none" stroke="#63b8ff" d="M1555.39,-59.22C1568.85,-57.6 1582.84,-56.1 1596,-55 1982.1,-22.73 2081.69,-59.55 2467,-19 2469.8,-18.71 2472.69,-18.35 2475.58,-17.96"/>
<polygon fill="#63b8ff" stroke="#63b8ff" points="1555.24,-55.71 1545.74,-60.41 1556.09,-62.66 1555.24,-55.71"/>
</g>
<!-- Node10 -->
<g id="node10" class="node">
<title>Node10</title>
<g id="a_node10"><a xlink:href="../../d8/d15/atom__action_8c.html" target="_top" xlink:title="Functions to apply the edition actions to the model.">
<polygon fill="white" stroke="#666666" points="1264,-19 1136,-19 1136,0 1264,0 1264,-19"/>
<text text-anchor="middle" x="1200" y="-7" font-family="Helvetica,sans-Serif" font-size="10.00">opengl/edit/atom_action.c</text>
</a>
</g>
</g>
<!-- Node9&#45;&gt;Node10 -->
<g id="edge10" class="edge">
<title>Node9&#45;&gt;Node10</title>
<path fill="none" stroke="#63b8ff" d="M1430.31,-57.74C1425.81,-56.81 1421.33,-55.89 1417,-55 1356.92,-42.65 1287.47,-28.42 1243.64,-19.44"/>
<polygon fill="#63b8ff" stroke="#63b8ff" points="1429.49,-61.14 1439.99,-59.73 1430.9,-54.28 1429.49,-61.14"/>
</g>
<!-- Node11 -->
<g id="node11" class="node">
<title>Node11</title>
<g id="a_node11"><a xlink:href="../../d9/dbe/atom__coord_8c.html" target="_top" xlink:title="Functions to correct the coordination menus and the corresponding data pointers after edition.">
<polygon fill="white" stroke="#666666" points="1408,-19 1282,-19 1282,0 1408,0 1408,-19"/>
<text text-anchor="middle" x="1345" y="-7" font-family="Helvetica,sans-Serif" font-size="10.00">opengl/edit/atom_coord.c</text>
</a>
</g>
</g>
<!-- Node9&#45;&gt;Node11 -->
<g id="edge11" class="edge">
<title>Node9&#45;&gt;Node11</title>
<path fill="none" stroke="#63b8ff" d="M1453.44,-55.81C1426.9,-44.72 1389.67,-29.17 1366.46,-19.47"/>
<polygon fill="#63b8ff" stroke="#63b8ff" points="1451.76,-58.91 1462.34,-59.53 1454.46,-52.45 1451.76,-58.91"/>
</g>
<!-- Node12 -->
<g id="node12" class="node">
<title>Node12</title>
<g id="a_node12"><a xlink:href="../../dc/d6c/atom__edit_8c.html" target="_top" xlink:title="Functions to create the model edition window.">
<polygon fill="white" stroke="#666666" points="1544,-19 1426,-19 1426,0 1544,0 1544,-19"/>
<text text-anchor="middle" x="1485" y="-7" font-family="Helvetica,sans-Serif" font-size="10.00">opengl/edit/atom_edit.c</text>
</a>
</g>
</g>
<!-- Node9&#45;&gt;Node12 -->
<g id="edge12" class="edge">
<title>Node9&#45;&gt;Node12</title>
<path fill="none" stroke="#63b8ff" d="M1485,-49.16C1485,-38.95 1485,-27.04 1485,-19.17"/>
<polygon fill="#63b8ff" stroke="#63b8ff" points="1481.5,-48.85 1485,-58.85 1488.5,-48.85 1481.5,-48.85"/>
</g>
<!-- Node13 -->
<g id="node13" class="node">
<title>Node13</title>
<g id="a_node13"><a xlink:href="../../d2/d4a/atom__geo_8c.html" target="_top" xlink:title="Functions to check for the appropriate atomic coordinations.">
<polygon fill="white" stroke="#666666" points="1680,-19 1562,-19 1562,0 1680,0 1680,-19"/>
<text text-anchor="middle" x="1621" y="-7" font-family="Helvetica,sans-Serif" font-size="10.00">opengl/edit/atom_geo.c</text>
</a>
</g>
</g>
<!-- Node9&#45;&gt;Node13 -->
<g id="edge13" class="edge">
<title>Node9&#45;&gt;Node13</title>
<path fill="none" stroke="#63b8ff" d="M1516,-55.66C1541.76,-44.58 1577.71,-29.12 1600.15,-19.47"/>
<polygon fill="#63b8ff" stroke="#63b8ff" points="1514.85,-52.35 1507.05,-59.52 1517.62,-58.78 1514.85,-52.35"/>
</g>
<!-- Node14 -->
<g id="node14" class="node">
<title>Node14</title>
<g id="a_node14"><a xlink:href="../../dd/d0b/atom__insert_8c.html" target="_top" xlink:title="Functions to insert bond(s) in a project.">
<polygon fill="white" stroke="#666666" points="1824,-19 1698,-19 1698,0 1824,0 1824,-19"/>
<text text-anchor="middle" x="1761" y="-7" font-family="Helvetica,sans-Serif" font-size="10.00">opengl/edit/atom_insert.c</text>
</a>
</g>
</g>
<!-- Node9&#45;&gt;Node14 -->
<g id="edge14" class="edge">
<title>Node9&#45;&gt;Node14</title>
<path fill="none" stroke="#63b8ff" d="M1538.35,-57.69C1590.99,-46.54 1670.39,-29.7 1718.79,-19.45"/>
<polygon fill="#63b8ff" stroke="#63b8ff" points="1537.76,-54.24 1528.7,-59.74 1539.21,-61.09 1537.76,-54.24"/>
</g>
<!-- Node15 -->
<g id="node15" class="node">
<title>Node15</title>
<g id="a_node15"><a xlink:href="../../d7/d27/atom__move_8c.html" target="_top" xlink:title="Functions to move atom(s) and group of atom(s) &#160;&#160;Functions to move randomly atom(s) and group of atom...">
<polygon fill="white" stroke="#666666" points="126,-19 0,-19 0,0 126,0 126,-19"/>
<text text-anchor="middle" x="63" y="-7" font-family="Helvetica,sans-Serif" font-size="10.00">opengl/edit/atom_move.c</text>
</a>
</g>
</g>
<!-- Node9&#45;&gt;Node15 -->
<g id="edge15" class="edge">
<title>Node9&#45;&gt;Node15</title>
<path fill="none" stroke="#63b8ff" d="M1436.57,-57.95C1430.02,-56.77 1423.37,-55.74 1417,-55 850.8,10.72 703.49,-60.46 135,-19 132.11,-18.79 129.16,-18.55 126.19,-18.28"/>
<polygon fill="#63b8ff" stroke="#63b8ff" points="1435.46,-61.3 1445.94,-59.76 1436.78,-54.43 1435.46,-61.3"/>
</g>
<!-- Node16 -->
<g id="node16" class="node">
<title>Node16</title>
<g id="a_node16"><a xlink:href="../../d7/d6a/atom__object_8c.html" target="_top" xlink:title="Functions to create atomic objects.">
<polygon fill="white" stroke="#666666" points="272,-19 144,-19 144,0 272,0 272,-19"/>
<text text-anchor="middle" x="208" y="-7" font-family="Helvetica,sans-Serif" font-size="10.00">opengl/edit/atom_object.c</text>
</a>
</g>
</g>
<!-- Node9&#45;&gt;Node16 -->
<g id="edge16" class="edge">
<title>Node9&#45;&gt;Node16</title>
<path fill="none" stroke="#63b8ff" d="M1436.57,-57.97C1430.02,-56.79 1423.36,-55.75 1417,-55 915.33,4.15 784.77,-56.24 281,-19 278.2,-18.79 275.34,-18.56 272.46,-18.3"/>
<polygon fill="#63b8ff" stroke="#63b8ff" points="1435.45,-61.32 1445.93,-59.78 1436.78,-54.45 1435.45,-61.32"/>
</g>
<!-- Node17 -->
<g id="node17" class="node">
<title>Node17</title>
<g id="a_node17"><a xlink:href="../../d3/ded/atom__remove_8c.html" target="_top" xlink:title="Functions to remove bond(s) from a project &#160;&#160;Function to prepare the passivation (removal followed by...">
<polygon fill="white" stroke="#666666" points="424,-19 290,-19 290,0 424,0 424,-19"/>
<text text-anchor="middle" x="357" y="-7" font-family="Helvetica,sans-Serif" font-size="10.00">opengl/edit/atom_remove.c</text>
</a>
</g>
</g>
<!-- Node9&#45;&gt;Node17 -->
<g id="edge17" class="edge">
<title>Node9&#45;&gt;Node17</title>
<path fill="none" stroke="#63b8ff" d="M1435.85,-57.88C1429.54,-56.74 1423.13,-55.74 1417,-55 982.51,-2.69 869.43,-51.34 433,-19 430.09,-18.78 427.11,-18.54 424.11,-18.28"/>
<polygon fill="#63b8ff" stroke="#63b8ff" points="1435.09,-61.29 1445.57,-59.74 1436.41,-54.42 1435.09,-61.29"/>
</g>
<!-- Node18 -->
<g id="node18" class="node">
<title>Node18</title>
<g id="a_node18"><a xlink:href="../../d9/d33/atom__search_8c.html" target="_top" xlink:title="Functions to prepare the model edition &#39;search&#39; tabs and the associated widgets.">
<polygon fill="white" stroke="#666666" points="573.5,-19 442.5,-19 442.5,0 573.5,0 573.5,-19"/>
<text text-anchor="middle" x="508" y="-7" font-family="Helvetica,sans-Serif" font-size="10.00">opengl/edit/atom_search.c</text>
</a>
</g>
</g>
<!-- Node9&#45;&gt;Node18 -->
<g id="edge18" class="edge">
<title>Node9&#45;&gt;Node18</title>
<path fill="none" stroke="#63b8ff" d="M1435.85,-57.91C1429.53,-56.77 1423.13,-55.76 1417,-55 1048.8,-9.45 952.88,-47.91 583,-19 580,-18.77 576.92,-18.5 573.83,-18.22"/>
<polygon fill="#63b8ff" stroke="#63b8ff" points="1435.09,-61.33 1445.57,-59.78 1436.41,-54.46 1435.09,-61.33"/>
</g>
<!-- Node19 -->
<g id="node19" class="node">
<title>Node19</title>
<g id="a_node19"><a xlink:href="../../dd/d37/atom__species_8c.html" target="_top" xlink:title="Functions to look for new chemical species and modify the chemical information accordingly.">
<polygon fill="white" stroke="#666666" points="728,-19 592,-19 592,0 728,0 728,-19"/>
<text text-anchor="middle" x="660" y="-7" font-family="Helvetica,sans-Serif" font-size="10.00">opengl/edit/atom_species.c</text>
</a>
</g>
</g>
<!-- Node9&#45;&gt;Node19 -->
<g id="edge19" class="edge">
<title>Node9&#45;&gt;Node19</title>
<path fill="none" stroke="#63b8ff" d="M1435.61,-57.93C1429.37,-56.8 1423.05,-55.78 1417,-55 1116.83,-16.38 1038.64,-43.61 737,-19 734.19,-18.77 731.31,-18.52 728.41,-18.26"/>
<polygon fill="#63b8ff" stroke="#63b8ff" points="1434.72,-61.32 1445.2,-59.78 1436.05,-54.45 1434.72,-61.32"/>
</g>
<!-- Node20 -->
<g id="node20" class="node">
<title>Node20</title>
<g id="a_node20"><a xlink:href="../../d2/d17/cell__cut_8c.html" target="_top" xlink:title="Functions to create the &#39;slab cutting&#39; tab of the cell edition window.">
<polygon fill="white" stroke="#666666" points="2457.5,-19 2348.5,-19 2348.5,0 2457.5,0 2457.5,-19"/>
<text text-anchor="middle" x="2403" y="-7" font-family="Helvetica,sans-Serif" font-size="10.00">opengl/edit/cell_cut.c</text>
</a>
</g>
</g>
<!-- Node9&#45;&gt;Node20 -->
<g id="edge20" class="edge">
<title>Node9&#45;&gt;Node20</title>
<path fill="none" stroke="#63b8ff" d="M1555.4,-59.29C1568.86,-57.67 1582.85,-56.15 1596,-55 1925.8,-26.27 2010.32,-49.16 2340,-19 2342.64,-18.76 2345.33,-18.49 2348.06,-18.2"/>
<polygon fill="#63b8ff" stroke="#63b8ff" points="1555.24,-55.78 1545.75,-60.48 1556.1,-62.73 1555.24,-55.78"/>
</g>
<!-- Node21 -->
<g id="node21" class="node">
<title>Node21</title>
<g id="a_node21"><a xlink:href="../../d8/d1c/cell__super_8c.html" target="_top" xlink:title="Functions to create a super&#45;cell using the extra cell(s)">
<polygon fill="white" stroke="#666666" points="2080.5,-19 1961.5,-19 1961.5,0 2080.5,0 2080.5,-19"/>
<text text-anchor="middle" x="2021" y="-7" font-family="Helvetica,sans-Serif" font-size="10.00">opengl/edit/cell_super.c</text>
</a>
</g>
</g>
<!-- Node9&#45;&gt;Node21 -->
<g id="edge21" class="edge">
<title>Node9&#45;&gt;Node21</title>
<path fill="none" stroke="#63b8ff" d="M1555.45,-59.85C1568.91,-58.18 1582.88,-56.49 1596,-55 1754.01,-37.05 1793.96,-36.72 1952,-19 1955,-18.66 1958.07,-18.31 1961.17,-17.95"/>
<polygon fill="#63b8ff" stroke="#63b8ff" points="1555.29,-56.34 1545.8,-61.06 1556.16,-63.29 1555.29,-56.34"/>
</g>
<!-- Node22 -->
<g id="node22" class="node">
<title>Node22</title>
<g id="a_node22"><a xlink:href="../../dc/d50/selection_8c.html" target="_top" xlink:title="Functions handling the atom and bond selection process in the OpenGL window.">
<polygon fill="white" stroke="#666666" points="841.5,-19 746.5,-19 746.5,0 841.5,0 841.5,-19"/>
<text text-anchor="middle" x="794" y="-7" font-family="Helvetica,sans-Serif" font-size="10.00">opengl/selection.c</text>
</a>
</g>
</g>
<!-- Node9&#45;&gt;Node22 -->
<g id="edge22" class="edge">
<title>Node9&#45;&gt;Node22</title>
<path fill="none" stroke="#63b8ff" d="M1435.37,-57.95C1429.21,-56.82 1422.97,-55.8 1417,-55 1167.17,-21.5 1101.66,-45.61 851,-19 848.02,-18.68 844.95,-18.32 841.86,-17.94"/>
<polygon fill="#63b8ff" stroke="#63b8ff" points="1434.35,-61.32 1444.84,-59.78 1435.68,-54.44 1434.35,-61.32"/>
</g>
<!-- Node23 -->
<g id="node23" class="node">
<title>Node23</title>
<g id="a_node23"><a xlink:href="../../db/d42/m__edit_8c.html" target="_top" xlink:title="Functions to create the &#39;Tools &#45;&gt; Edit&#39; submenu.">
<polygon fill="white" stroke="#666666" points="2203,-19 2099,-19 2099,0 2203,0 2203,-19"/>
<text text-anchor="middle" x="2151" y="-7" font-family="Helvetica,sans-Serif" font-size="10.00">opengl/win/m_edit.c</text>
</a>
</g>
</g>
<!-- Node9&#45;&gt;Node23 -->
<g id="edge23" class="edge">
<title>Node9&#45;&gt;Node23</title>
<path fill="none" stroke="#63b8ff" d="M1555.42,-59.55C1568.88,-57.91 1582.86,-56.31 1596,-55 1814.61,-33.25 1870.51,-41.93 2089,-19 2092.13,-18.67 2095.35,-18.31 2098.6,-17.92"/>
<polygon fill="#63b8ff" stroke="#63b8ff" points="1555.26,-56.04 1545.77,-60.75 1556.13,-62.99 1555.26,-56.04"/>
</g>
<!-- Node24 -->
<g id="node24" class="node">
<title>Node24</title>
<g id="a_node24"><a xlink:href="../../d3/d51/m__tools_8c.html" target="_top" xlink:title="Functions to create the &#39;Tools&#39; submenu.">
<polygon fill="white" stroke="#666666" points="2330.5,-19 2221.5,-19 2221.5,0 2330.5,0 2330.5,-19"/>
<text text-anchor="middle" x="2276" y="-7" font-family="Helvetica,sans-Serif" font-size="10.00">opengl/win/m_tools.c</text>
</a>
</g>
</g>
<!-- Node9&#45;&gt;Node24 -->
<g id="edge24" class="edge">
<title>Node9&#45;&gt;Node24</title>
<path fill="none" stroke="#63b8ff" d="M1555.4,-59.4C1568.86,-57.77 1582.85,-56.21 1596,-55 1869.09,-29.83 1939,-45.07 2212,-19 2215.01,-18.71 2218.1,-18.39 2221.22,-18.05"/>
<polygon fill="#63b8ff" stroke="#63b8ff" points="1555.25,-55.89 1545.76,-60.59 1556.11,-62.84 1555.25,-55.89"/>
</g>
<!-- Node9&#45;&gt;Node25 -->
<g id="edge25" class="edge">
<title>Node9&#45;&gt;Node25</title>
<path fill="none" stroke="#63b8ff" d="M1555.52,-58.89C1637.29,-47.16 1770.07,-28.13 1842.3,-17.77"/>
<polygon fill="#63b8ff" stroke="#63b8ff" points="1555.23,-55.39 1545.82,-60.28 1556.22,-62.32 1555.23,-55.39"/>
</g>
<!-- Node26 -->
<g id="node26" class="node">
<title>Node26</title>
<g id="a_node26"><a xlink:href="../../de/dc7/w__search_8c.html" target="_top" xlink:title="Functions to create the object search widgets, for: &#160;.">
<polygon fill="white" stroke="#666666" points="976,-19 860,-19 860,0 976,0 976,-19"/>
<text text-anchor="middle" x="918" y="-7" font-family="Helvetica,sans-Serif" font-size="10.00">opengl/win/w_search.c</text>
</a>
</g>
</g>
<!-- Node9&#45;&gt;Node26 -->
<g id="edge26" class="edge">
<title>Node9&#45;&gt;Node26</title>
<path fill="none" stroke="#63b8ff" d="M1434.44,-57.89C1428.58,-56.81 1422.67,-55.82 1417,-55 1226.3,-27.52 1176.61,-39.13 985,-19 982.2,-18.71 979.34,-18.39 976.45,-18.07"/>
<polygon fill="#63b8ff" stroke="#63b8ff" points="1433.62,-61.3 1444.1,-59.76 1434.95,-54.43 1433.62,-61.3"/>
</g>
<!-- Node27 -->
<g id="node27" class="node">
<title>Node27</title>
<g id="a_node27"><a xlink:href="../../d8/de9/w__volumes_8c.html" target="_top" xlink:title="Functions to create the &#39;Volumes&#39; window &#160;&#160;Functions to compute system / fragment / molecular volumes...">
<polygon fill="white" stroke="#666666" points="1118,-19 994,-19 994,0 1118,0 1118,-19"/>
<text text-anchor="middle" x="1056" y="-7" font-family="Helvetica,sans-Serif" font-size="10.00">opengl/win/w_volumes.c</text>
</a>
</g>
</g>
<!-- Node9&#45;&gt;Node27 -->
<g id="edge27" class="edge">
<title>Node9&#45;&gt;Node27</title>
<path fill="none" stroke="#63b8ff" d="M1433.08,-57.86C1427.66,-56.83 1422.23,-55.86 1417,-55 1402.47,-52.61 1217.52,-30.09 1118.16,-18.03"/>
<polygon fill="#63b8ff" stroke="#63b8ff" points="1432.13,-61.24 1442.62,-59.73 1433.48,-54.38 1432.13,-61.24"/>
</g>
<!-- Node30&#45;&gt;Node3 -->
<g id="edge31" class="edge">
<title>Node30&#45;&gt;Node3</title>
<path fill="none" stroke="#63b8ff" d="M2430.45,-54.92C2451.92,-43.9 2481.13,-28.91 2499.52,-19.47"/>
<polygon fill="#63b8ff" stroke="#63b8ff" points="2428.96,-51.74 2421.66,-59.42 2432.16,-57.97 2428.96,-51.74"/>
</g>
<!-- Node30&#45;&gt;Node20 -->
<g id="edge32" class="edge">
<title>Node30&#45;&gt;Node20</title>
<path fill="none" stroke="#63b8ff" d="M2403,-49.16C2403,-38.95 2403,-27.04 2403,-19.17"/>
<polygon fill="#63b8ff" stroke="#63b8ff" points="2399.5,-48.85 2403,-58.85 2406.5,-48.85 2399.5,-48.85"/>
</g>
<!-- Node30&#45;&gt;Node21 -->
<g id="edge37" class="edge">
<title>Node30&#45;&gt;Node21</title>
<path fill="none" stroke="#63b8ff" d="M2352.35,-57.72C2347.51,-56.75 2342.67,-55.83 2338,-55 2289.92,-46.46 2158.45,-28.67 2080.75,-18.36"/>
<polygon fill="#63b8ff" stroke="#63b8ff" points="2351.58,-61.13 2362.08,-59.72 2352.99,-54.28 2351.58,-61.13"/>
</g>
<!-- Node30&#45;&gt;Node23 -->
<g id="edge38" class="edge">
<title>Node30&#45;&gt;Node23</title>
<path fill="none" stroke="#63b8ff" d="M2353.38,-57.48C2305.32,-46.32 2233.45,-29.64 2189.54,-19.45"/>
<polygon fill="#63b8ff" stroke="#63b8ff" points="2352.45,-60.86 2362.98,-59.71 2354.03,-54.04 2352.45,-60.86"/>
</g>
<!-- Node30&#45;&gt;Node24 -->
<g id="edge39" class="edge">
<title>Node30&#45;&gt;Node24</title>
<path fill="none" stroke="#63b8ff" d="M2373.4,-55.37C2349.4,-44.31 2316.24,-29.04 2295.47,-19.47"/>
<polygon fill="#63b8ff" stroke="#63b8ff" points="2371.79,-58.48 2382.34,-59.48 2374.72,-52.12 2371.79,-58.48"/>
</g>
<!-- Node31 -->
<g id="node31" class="node">
<title>Node31</title>
<g id="a_node31"><a xlink:href="../../d9/d1a/cell__density_8c.html" target="_top" xlink:title="Functions to create the &#39;density adjustment&#39; tab in the cell edition window.">
<polygon fill="white" stroke="#666666" points="2834,-19 2708,-19 2708,0 2834,0 2834,-19"/>
<text text-anchor="middle" x="2771" y="-7" font-family="Helvetica,sans-Serif" font-size="10.00">opengl/edit/cell_density.c</text>
</a>
</g>
</g>
<!-- Node30&#45;&gt;Node31 -->
<g id="edge33" class="edge">
<title>Node30&#45;&gt;Node31</title>
<path fill="none" stroke="#63b8ff" d="M2453.66,-57.75C2458.5,-56.78 2463.34,-55.84 2468,-55 2550.4,-40.09 2646.1,-26.68 2707.54,-18.57"/>
<polygon fill="#63b8ff" stroke="#63b8ff" points="2453.01,-54.31 2443.93,-59.76 2454.43,-61.16 2453.01,-54.31"/>
</g>
<!-- Node32 -->
<g id="node32" class="node">
<title>Node32</title>
<g id="a_node32"><a xlink:href="../../d3/d1b/cell__edit_8c.html" target="_top" xlink:title="Functions to create the cell edition window.">
<polygon fill="white" stroke="#666666" points="2963.5,-19 2852.5,-19 2852.5,0 2963.5,0 2963.5,-19"/>
<text text-anchor="middle" x="2908" y="-7" font-family="Helvetica,sans-Serif" font-size="10.00">opengl/edit/cell_edit.c</text>
</a>
</g>
</g>
<!-- Node30&#45;&gt;Node32 -->
<g id="edge34" class="edge">
<title>Node30&#45;&gt;Node32</title>
<path fill="none" stroke="#63b8ff" d="M2451.96,-57.82C2457.36,-56.78 2462.78,-55.81 2468,-55 2633.45,-29.33 2676.63,-37.86 2843,-19 2846.05,-18.65 2849.19,-18.29 2852.35,-17.91"/>
<polygon fill="#63b8ff" stroke="#63b8ff" points="2451.6,-54.32 2442.5,-59.74 2452.99,-61.18 2451.6,-54.32"/>
</g>
<!-- Node33 -->
<g id="node33" class="node">
<title>Node33</title>
<g id="a_node33"><a xlink:href="../../d1/d9f/cell__extra_8c.html" target="_top" xlink:title="Functions to create the &#39;add cell(s)&#39; tab in the cell edition window.">
<polygon fill="white" stroke="#666666" points="3098.5,-19 2981.5,-19 2981.5,0 3098.5,0 3098.5,-19"/>
<text text-anchor="middle" x="3040" y="-7" font-family="Helvetica,sans-Serif" font-size="10.00">opengl/edit/cell_extra.c</text>
</a>
</g>
</g>
<!-- Node30&#45;&gt;Node33 -->
<g id="edge35" class="edge">
<title>Node30&#45;&gt;Node33</title>
<path fill="none" stroke="#63b8ff" d="M2451.53,-57.77C2457.06,-56.72 2462.64,-55.76 2468,-55 2690.76,-23.23 2749.08,-41.17 2973,-19 2975.68,-18.73 2978.43,-18.45 2981.19,-18.15"/>
<polygon fill="#63b8ff" stroke="#63b8ff" points="2450.9,-54.32 2441.79,-59.72 2452.28,-61.19 2450.9,-54.32"/>
</g>
<!-- Node34 -->
<g id="node34" class="node">
<title>Node34</title>
<g id="a_node34"><a xlink:href="../../d1/d4a/cell__shift_8c.html" target="_top" xlink:title="Functions to create the &#39;shift cell center&#39; tab for the cell edition window.">
<polygon fill="white" stroke="#666666" points="2690,-19 2576,-19 2576,0 2690,0 2690,-19"/>
<text text-anchor="middle" x="2633" y="-7" font-family="Helvetica,sans-Serif" font-size="10.00">opengl/edit/cell_shift.c</text>
</a>
</g>
</g>
<!-- Node30&#45;&gt;Node34 -->
<g id="edge36" class="edge">
<title>Node30&#45;&gt;Node34</title>
<path fill="none" stroke="#63b8ff" d="M2449.12,-57.27C2492.98,-46.11 2558,-29.58 2597.82,-19.45"/>
<polygon fill="#63b8ff" stroke="#63b8ff" points="2448.48,-53.82 2439.65,-59.68 2450.2,-60.61 2448.48,-53.82"/>
</g>
</g>
</svg>
