<?xml version="1.0" encoding="UTF-8" standalone="no"?>
<!DOCTYPE svg PUBLIC "-//W3C//DTD SVG 1.1//EN"
 "http://www.w3.org/Graphics/SVG/1.1/DTD/svg11.dtd">
<!-- Generated by graphviz version 2.43.0 (0)
 -->
<!-- Title: workspace/workspace.h Pages: 1 -->
<!--zoomable 148 -->

<svg id="main" version="1.1" xmlns="http://www.w3.org/2000/svg" xmlns:xlink="http://www.w3.org/1999/xlink" xml:space="preserve" onload="init(evt)">
<style type="text/css"><![CDATA[
.node, .edge {opacity: 0.7;}
.node.selected, .edge.selected {opacity: 1;}
.edge:hover path { stroke: red; }
.edge:hover polygon { stroke: red; fill: red; }
]]></style>

<defs>
  <circle id="rim" cx="0" cy="0" r="7"/>
  <circle id="rim2" cx="0" cy="0" r="3.5"/>
  <g id="zoomPlus">
    <use xlink:href="#rim" fill="#404040"><set attributeName="fill" to="#808080" begin="zoomplus.mouseover" end="zoomplus.mouseout"/></use>
    <path d="M-4,0h8M0,-4v8" fill="none" stroke="white" stroke-width="1.5" pointer-events="none"/>
  </g>
  <g id="zoomMin">
    <use xlink:href="#rim" fill="#404040"><set attributeName="fill" to="#808080" begin="zoomminus.mouseover" end="zoomminus.mouseout"/></use>
    <path d="M-4,0h8" fill="none" stroke="white" stroke-width="1.5" pointer-events="none"/>
  </g>
  <g id="arrowUp" transform="translate(30 24)">
    <use xlink:href="#rim"/>
    <path pointer-events="none" fill="none" stroke="white" stroke-width="1.5" d="M0,-3.0v7 M-2.5,-0.5L0,-3.0L2.5,-0.5"/>
  </g>
  <g id="arrowRight" transform="rotate(90) translate(36 -43)">
    <use xlink:href="#rim"/>
    <path pointer-events="none" fill="none" stroke="white" stroke-width="1.5" d="M0,-3.0v7 M-2.5,-0.5L0,-3.0L2.5,-0.5"/>
  </g>
  <g id="arrowDown" transform="rotate(180) translate(-30 -48)">
    <use xlink:href="#rim"/>
    <path pointer-events="none" fill="none" stroke="white" stroke-width="1.5" d="M0,-3.0v7 M-2.5,-0.5L0,-3.0L2.5,-0.5"/>
  </g>
  <g id="arrowLeft" transform="rotate(270) translate(-36 17)">
    <use xlink:href="#rim"/>
    <path pointer-events="none" fill="none" stroke="white" stroke-width="1.5" d="M0,-3.0v7 M-2.5,-0.5L0,-3.0L2.5,-0.5"/>
  </g>
  <g id="resetDef">
    <use xlink:href="#rim2" fill="#404040"><set attributeName="fill" to="#808080" begin="reset.mouseover" end="reset.mouseout"/></use>
  </g>
</defs>
<script type="application/ecmascript">
var viewWidth = 3402;
var viewHeight = 148;
var sectionId = 'dynsection-0';
</script>
<script type="application/ecmascript" xlink:href="../../svg.min.js"/>
<svg id="graph" class="graph">
<g id="viewport">
<title>workspace/workspace.h</title>
<!-- Node1 -->
<g id="Node000001" class="node">
<title>Node1</title>
<g id="a_Node000001"><a xlink:title="Function declarations for workspace managment.">
<polygon fill="#999999" stroke="#666666" points="2287.5,-140 2153.5,-140 2153.5,-121 2287.5,-121 2287.5,-140"/>
<text text-anchor="middle" x="2220.5" y="-128" font-family="Helvetica,sans-Serif" font-size="10.00">workspace/workspace.h</text>
</a>
</g>
</g>
<!-- Node2 -->
<g id="Node000002" class="node">
<title>Node2</title>
<g id="a_Node000002"><a xlink:href="../../d8/d5e/calc__menu_8c.html" target="_top" xlink:title="Creation of the calculation dialogs.">
<polygon fill="white" stroke="#666666" points="1546,-79.5 1451,-79.5 1451,-60.5 1546,-60.5 1546,-79.5"/>
<text text-anchor="middle" x="1498.5" y="-67.5" font-family="Helvetica,sans-Serif" font-size="10.00">gui/calc_menu.c</text>
</a>
</g>
</g>
<!-- Node1&#45;&gt;Node2 -->
<g id="edge1_Node000001_Node000002" class="edge">
<title>Node1&#45;&gt;Node2</title>
<g id="a_edge1_Node000001_Node000002"><a xlink:title=" ">
<path fill="none" stroke="#63b8ff" d="M2143.22,-128.79C2018.58,-126.66 1765.78,-118.2 1554.5,-85 1545.99,-83.66 1536.87,-81.64 1528.52,-79.55"/>
<polygon fill="#63b8ff" stroke="#63b8ff" points="2143.36,-132.3 2153.42,-128.96 2143.48,-125.3 2143.36,-132.3"/>
</a>
</g>
</g>
<!-- Node3 -->
<g id="Node000003" class="node">
<title>Node3</title>
<g id="a_Node000003"><a xlink:href="../../d3/d3a/callbacks_8c.html" target="_top" xlink:title="General callbacks &#160;&#160;Functions to open and close files.">
<polygon fill="white" stroke="#666666" points="2800,-19 2711,-19 2711,0 2800,0 2800,-19"/>
<text text-anchor="middle" x="2755.5" y="-7" font-family="Helvetica,sans-Serif" font-size="10.00">gui/callbacks.c</text>
</a>
</g>
</g>
<!-- Node1&#45;&gt;Node3 -->
<g id="edge2_Node000001_Node000003" class="edge">
<title>Node1&#45;&gt;Node3</title>
<g id="a_edge2_Node000001_Node000003"><a xlink:title=" ">
<path fill="none" stroke="#63b8ff" d="M2235.52,-113.29C2253.05,-95.55 2283.84,-67.92 2316.5,-55 2476.31,8.2 2530.98,-40.37 2701.5,-19 2704.51,-18.62 2707.62,-18.21 2710.74,-17.77"/>
<polygon fill="#63b8ff" stroke="#63b8ff" points="2232.84,-111.02 2228.44,-120.65 2237.89,-115.87 2232.84,-111.02"/>
</a>
</g>
</g>
<!-- Node4 -->
<g id="Node000004" class="node">
<title>Node4</title>
<g id="a_Node000004"><a xlink:href="../../d8/da6/edit__menu_8c.html" target="_top" xlink:title="Creation of the edition dialogs.">
<polygon fill="white" stroke="#666666" points="1865,-79.5 1770,-79.5 1770,-60.5 1865,-60.5 1865,-79.5"/>
<text text-anchor="middle" x="1817.5" y="-67.5" font-family="Helvetica,sans-Serif" font-size="10.00">gui/edit_menu.c</text>
</a>
</g>
</g>
<!-- Node1&#45;&gt;Node4 -->
<g id="edge3_Node000001_Node000004" class="edge">
<title>Node1&#45;&gt;Node4</title>
<g id="a_edge3_Node000001_Node000004"><a xlink:title=" ">
<path fill="none" stroke="#63b8ff" d="M2143.38,-122.1C2073.01,-114.76 1966.29,-102.12 1874.5,-85 1866.39,-83.49 1857.7,-81.53 1849.62,-79.56"/>
<polygon fill="#63b8ff" stroke="#63b8ff" points="2143.19,-125.6 2153.5,-123.15 2143.91,-118.64 2143.19,-125.6"/>
</a>
</g>
</g>
<!-- Node5 -->
<g id="Node000005" class="node">
<title>Node5</title>
<g id="a_Node000005"><a xlink:href="../../d5/d03/gui_8c.html" target="_top" xlink:title="GUI of the main window &#160;&#160;Menu elements of the workspace menu &#160;&#160;Creation of menu items,...">
<polygon fill="white" stroke="#666666" points="1941.5,-79.5 1883.5,-79.5 1883.5,-60.5 1941.5,-60.5 1941.5,-79.5"/>
<text text-anchor="middle" x="1912.5" y="-67.5" font-family="Helvetica,sans-Serif" font-size="10.00">gui/gui.c</text>
</a>
</g>
</g>
<!-- Node1&#45;&gt;Node5 -->
<g id="edge4_Node000001_Node000005" class="edge">
<title>Node1&#45;&gt;Node5</title>
<g id="a_edge4_Node000001_Node000005"><a xlink:title=" ">
<path fill="none" stroke="#63b8ff" d="M2143.53,-120.76C2089.06,-113.62 2014.61,-101.93 1950.5,-85 1944.93,-83.53 1939.02,-81.56 1933.58,-79.57"/>
<polygon fill="#63b8ff" stroke="#63b8ff" points="2143.09,-124.24 2153.46,-122.04 2143.99,-117.29 2143.09,-124.24"/>
</a>
</g>
</g>
<!-- Node6 -->
<g id="Node000006" class="node">
<title>Node6</title>
<g id="a_Node000006"><a xlink:href="../../d0/d29/main_8c.html" target="_top" xlink:title="Initialization of the atomes program &#160;&#160;Functions required to read data from the command line.">
<polygon fill="white" stroke="#666666" points="2027.5,-79.5 1959.5,-79.5 1959.5,-60.5 2027.5,-60.5 2027.5,-79.5"/>
<text text-anchor="middle" x="1993.5" y="-67.5" font-family="Helvetica,sans-Serif" font-size="10.00">gui/main.c</text>
</a>
</g>
</g>
<!-- Node1&#45;&gt;Node6 -->
<g id="edge5_Node000001_Node000006" class="edge">
<title>Node1&#45;&gt;Node6</title>
<g id="a_edge5_Node000001_Node000006"><a xlink:title=" ">
<path fill="none" stroke="#63b8ff" d="M2171.42,-118.72C2134.2,-110.28 2081.88,-97.85 2036.5,-85 2030.76,-83.37 2024.64,-81.48 2018.87,-79.62"/>
<polygon fill="#63b8ff" stroke="#63b8ff" points="2170.98,-122.21 2181.5,-120.99 2172.52,-115.38 2170.98,-122.21"/>
</a>
</g>
</g>
<!-- Node7 -->
<g id="Node000007" class="node">
<title>Node7</title>
<g id="a_Node000007"><a xlink:href="../../d1/d9e/tools_8c.html" target="_top" xlink:title="Callbacks for the toolbox dialog.">
<polygon fill="white" stroke="#666666" points="2113,-79.5 2046,-79.5 2046,-60.5 2113,-60.5 2113,-79.5"/>
<text text-anchor="middle" x="2079.5" y="-67.5" font-family="Helvetica,sans-Serif" font-size="10.00">gui/tools.c</text>
</a>
</g>
</g>
<!-- Node1&#45;&gt;Node7 -->
<g id="edge6_Node000001_Node000007" class="edge">
<title>Node1&#45;&gt;Node7</title>
<g id="a_edge6_Node000001_Node000007"><a xlink:title=" ">
<path fill="none" stroke="#63b8ff" d="M2190.57,-117.08C2163.33,-105.78 2123.85,-89.4 2100.03,-79.52"/>
<polygon fill="#63b8ff" stroke="#63b8ff" points="2189.42,-120.39 2200,-120.99 2192.1,-113.93 2189.42,-120.39"/>
</a>
</g>
</g>
<!-- Node8 -->
<g id="Node000008" class="node">
<title>Node8</title>
<g id="a_Node000008"><a xlink:href="../../d7/d29/work__menu_8c.html" target="_top" xlink:title="Workspace menu GTK3 version &#160;&#160;Callbacks for the workspace menu.">
<polygon fill="white" stroke="#666666" points="2231.5,-79.5 2131.5,-79.5 2131.5,-60.5 2231.5,-60.5 2231.5,-79.5"/>
<text text-anchor="middle" x="2181.5" y="-67.5" font-family="Helvetica,sans-Serif" font-size="10.00">gui/work_menu.c</text>
</a>
</g>
</g>
<!-- Node1&#45;&gt;Node8 -->
<g id="edge7_Node000001_Node000008" class="edge">
<title>Node1&#45;&gt;Node8</title>
<g id="a_edge7_Node000001_Node000008"><a xlink:title=" ">
<path fill="none" stroke="#63b8ff" d="M2209.04,-112.3C2201.89,-101.58 2192.99,-88.23 2187.28,-79.67"/>
<polygon fill="#63b8ff" stroke="#63b8ff" points="2206.29,-114.49 2214.75,-120.87 2212.11,-110.61 2206.29,-114.49"/>
</a>
</g>
</g>
<!-- Node9 -->
<g id="Node000009" class="node">
<title>Node9</title>
<g id="a_Node000009"><a xlink:href="../../d5/d9c/atom__edit_8h.html" target="_top" xlink:title="Function declarations for the mode edition window.">
<polygon fill="white" stroke="#666666" points="1697,-79.5 1564,-79.5 1564,-60.5 1697,-60.5 1697,-79.5"/>
<text text-anchor="middle" x="1630.5" y="-67.5" font-family="Helvetica,sans-Serif" font-size="10.00">opengl/edit/atom_edit.h</text>
</a>
</g>
</g>
<!-- Node1&#45;&gt;Node9 -->
<g id="edge8_Node000001_Node000009" class="edge">
<title>Node1&#45;&gt;Node9</title>
<g id="a_edge8_Node000001_Node000009"><a xlink:title=" ">
<path fill="none" stroke="#63b8ff" d="M2143.44,-122.3C2052.05,-113.71 1895.13,-98.76 1760.5,-85 1739.95,-82.9 1717.58,-80.52 1697.29,-78.33"/>
<polygon fill="#63b8ff" stroke="#63b8ff" points="2143.15,-125.79 2153.44,-123.24 2143.81,-118.82 2143.15,-125.79"/>
</a>
</g>
</g>
<!-- Node25 -->
<g id="Node000025" class="node">
<title>Node25</title>
<g id="a_Node000025"><a xlink:href="../../d5/da4/popup_8c.html" target="_top" xlink:title="Functions to create the OpenGL window popup menus:">
<polygon fill="white" stroke="#666666" points="2134,-19 2023,-19 2023,0 2134,0 2134,-19"/>
<text text-anchor="middle" x="2078.5" y="-7" font-family="Helvetica,sans-Serif" font-size="10.00">opengl/win/popup.c</text>
</a>
</g>
</g>
<!-- Node1&#45;&gt;Node25 -->
<g id="edge40_Node000001_Node000025" class="edge">
<title>Node1&#45;&gt;Node25</title>
<g id="a_edge40_Node000001_Node000025"><a xlink:title=" ">
<path fill="none" stroke="#63b8ff" d="M2232.85,-112.24C2242.82,-96 2253.26,-71.74 2240.5,-55 2227.46,-37.89 2175.67,-25.73 2134.11,-18.49"/>
<polygon fill="#63b8ff" stroke="#63b8ff" points="2229.81,-110.49 2227.21,-120.76 2235.65,-114.35 2229.81,-110.49"/>
</a>
</g>
</g>
<!-- Node28 -->
<g id="Node000028" class="node">
<title>Node28</title>
<g id="a_Node000028"><a xlink:href="../../d0/dd3/cbuild__action_8c.html" target="_top" xlink:title="Functions to build a crystal using space group, crystallographic position(s) and object(s) to insert.">
<polygon fill="white" stroke="#666666" points="2429.5,-85 2325.5,-85 2325.5,-55 2429.5,-55 2429.5,-85"/>
<text text-anchor="start" x="2333.5" y="-73" font-family="Helvetica,sans-Serif" font-size="10.00">opengl/edit/cbuild</text>
<text text-anchor="middle" x="2377.5" y="-62" font-family="Helvetica,sans-Serif" font-size="10.00">_action.c</text>
</a>
</g>
</g>
<!-- Node1&#45;&gt;Node28 -->
<g id="edge28_Node000001_Node000028" class="edge">
<title>Node1&#45;&gt;Node28</title>
<g id="a_edge28_Node000001_Node000028"><a xlink:title=" ">
<path fill="none" stroke="#63b8ff" d="M2252.82,-117.46C2278.07,-108.05 2313.21,-94.95 2339.75,-85.06"/>
<polygon fill="#63b8ff" stroke="#63b8ff" points="2251.48,-114.22 2243.33,-120.99 2253.92,-120.78 2251.48,-114.22"/>
</a>
</g>
</g>
<!-- Node29 -->
<g id="Node000029" class="node">
<title>Node29</title>
<g id="a_Node000029"><a xlink:href="../../db/d0b/cbuild__edit_8c.html" target="_top" xlink:title="Functions to create the crystal builder window.">
<polygon fill="white" stroke="#666666" points="2551.5,-85 2447.5,-85 2447.5,-55 2551.5,-55 2551.5,-85"/>
<text text-anchor="start" x="2455.5" y="-73" font-family="Helvetica,sans-Serif" font-size="10.00">opengl/edit/cbuild</text>
<text text-anchor="middle" x="2499.5" y="-62" font-family="Helvetica,sans-Serif" font-size="10.00">_edit.c</text>
</a>
</g>
</g>
<!-- Node1&#45;&gt;Node29 -->
<g id="edge29_Node000001_Node000029" class="edge">
<title>Node1&#45;&gt;Node29</title>
<g id="a_edge29_Node000001_Node000029"><a xlink:title=" ">
<path fill="none" stroke="#63b8ff" d="M2273.94,-118.97C2318.12,-110.17 2382.46,-97.15 2438.5,-85 2441.37,-84.38 2444.31,-83.73 2447.28,-83.07"/>
<polygon fill="#63b8ff" stroke="#63b8ff" points="2273.12,-115.56 2263.99,-120.94 2274.49,-122.43 2273.12,-115.56"/>
</a>
</g>
</g>
<!-- Node30 -->
<g id="Node000030" class="node">
<title>Node30</title>
<g id="a_Node000030"><a xlink:href="../../d9/d97/cell__edit_8h.html" target="_top" xlink:title="Function declarations for the cell edition window.">
<polygon fill="white" stroke="#666666" points="2695,-79.5 2570,-79.5 2570,-60.5 2695,-60.5 2695,-79.5"/>
<text text-anchor="middle" x="2632.5" y="-67.5" font-family="Helvetica,sans-Serif" font-size="10.00">opengl/edit/cell_edit.h</text>
</a>
</g>
</g>
<!-- Node1&#45;&gt;Node30 -->
<g id="edge30_Node000001_Node000030" class="edge">
<title>Node1&#45;&gt;Node30</title>
<g id="a_edge30_Node000001_Node000030"><a xlink:title=" ">
<path fill="none" stroke="#63b8ff" d="M2298.12,-120.73C2367.17,-112.59 2470.79,-99.58 2560.5,-85 2570.43,-83.39 2581.09,-81.44 2591.08,-79.51"/>
<polygon fill="#63b8ff" stroke="#63b8ff" points="2297.3,-117.3 2287.77,-121.94 2298.11,-124.25 2297.3,-117.3"/>
</a>
</g>
</g>
<!-- Node35 -->
<g id="Node000035" class="node">
<title>Node35</title>
<g id="a_Node000035"><a xlink:href="../../d3/d50/close__p_8c.html" target="_top" xlink:title="Functions to close an atomes project &#160;&#160;Callbacks to close an atomes project.">
<polygon fill="white" stroke="#666666" points="2811.5,-79.5 2713.5,-79.5 2713.5,-60.5 2811.5,-60.5 2811.5,-79.5"/>
<text text-anchor="middle" x="2762.5" y="-67.5" font-family="Helvetica,sans-Serif" font-size="10.00">project/close_p.c</text>
</a>
</g>
</g>
<!-- Node1&#45;&gt;Node35 -->
<g id="edge41_Node000001_Node000035" class="edge">
<title>Node1&#45;&gt;Node35</title>
<g id="a_edge41_Node000001_Node000035"><a xlink:title=" ">
<path fill="none" stroke="#63b8ff" d="M2298.03,-125.85C2393.98,-120.53 2562.13,-108.6 2704.5,-85 2713.08,-83.58 2722.28,-81.58 2730.76,-79.54"/>
<polygon fill="#63b8ff" stroke="#63b8ff" points="2297.63,-122.36 2287.83,-126.4 2298.01,-129.35 2297.63,-122.36"/>
</a>
</g>
</g>
<!-- Node36 -->
<g id="Node000036" class="node">
<title>Node36</title>
<g id="a_Node000036"><a xlink:href="../../db/d3e/update__p_8c.html" target="_top" xlink:title="Functions to update a project &#160;&#160;Functions to activate a project.">
<polygon fill="white" stroke="#666666" points="2937,-79.5 2830,-79.5 2830,-60.5 2937,-60.5 2937,-79.5"/>
<text text-anchor="middle" x="2883.5" y="-67.5" font-family="Helvetica,sans-Serif" font-size="10.00">project/update_p.c</text>
</a>
</g>
</g>
<!-- Node1&#45;&gt;Node36 -->
<g id="edge42_Node000001_Node000036" class="edge">
<title>Node1&#45;&gt;Node36</title>
<g id="a_edge42_Node000001_Node000036"><a xlink:title=" ">
<path fill="none" stroke="#63b8ff" d="M2297.98,-127.33C2412.67,-123.32 2634.18,-112.46 2820.5,-85 2829.92,-83.61 2840.03,-81.6 2849.34,-79.54"/>
<polygon fill="#63b8ff" stroke="#63b8ff" points="2297.76,-123.84 2287.89,-127.68 2298,-130.83 2297.76,-123.84"/>
</a>
</g>
</g>
<!-- Node9&#45;&gt;Node3 -->
<g id="edge9_Node000009_Node000003" class="edge">
<title>Node9&#45;&gt;Node3</title>
<g id="a_edge9_Node000009_Node000003"><a xlink:title=" ">
<path fill="none" stroke="#63b8ff" d="M1707.36,-59.83C1724.81,-58 1743.28,-56.26 1760.5,-55 2177.92,-24.58 2284.95,-59.61 2701.5,-19 2704.52,-18.71 2707.63,-18.35 2710.76,-17.96"/>
<polygon fill="#63b8ff" stroke="#63b8ff" points="1706.79,-56.38 1697.22,-60.92 1707.54,-63.34 1706.79,-56.38"/>
</a>
</g>
</g>
<!-- Node10 -->
<g id="Node000010" class="node">
<title>Node10</title>
<g id="a_Node000010"><a xlink:href="../../d8/d15/atom__action_8c.html" target="_top" xlink:title="Functions to apply the edition actions to the model.">
<polygon fill="white" stroke="#666666" points="1388,-19 1245,-19 1245,0 1388,0 1388,-19"/>
<text text-anchor="middle" x="1316.5" y="-7" font-family="Helvetica,sans-Serif" font-size="10.00">opengl/edit/atom_action.c</text>
</a>
</g>
</g>
<!-- Node9&#45;&gt;Node10 -->
<g id="edge10_Node000009_Node000010" class="edge">
<title>Node9&#45;&gt;Node10</title>
<g id="a_edge10_Node000009_Node000010"><a xlink:title=" ">
<path fill="none" stroke="#63b8ff" d="M1574.69,-58.6C1514.12,-47.32 1418.52,-29.51 1362.21,-19.02"/>
<polygon fill="#63b8ff" stroke="#63b8ff" points="1574.37,-62.1 1584.84,-60.49 1575.65,-55.22 1574.37,-62.1"/>
</a>
</g>
</g>
<!-- Node11 -->
<g id="Node000011" class="node">
<title>Node11</title>
<g id="a_Node000011"><a xlink:href="../../d9/dbe/atom__coord_8c.html" target="_top" xlink:title="Functions to correct the coordination menus and the corresponding data pointers after edition.">
<polygon fill="white" stroke="#666666" points="1546.5,-19 1406.5,-19 1406.5,0 1546.5,0 1546.5,-19"/>
<text text-anchor="middle" x="1476.5" y="-7" font-family="Helvetica,sans-Serif" font-size="10.00">opengl/edit/atom_coord.c</text>
</a>
</g>
</g>
<!-- Node9&#45;&gt;Node11 -->
<g id="edge11_Node000009_Node000011" class="edge">
<title>Node9&#45;&gt;Node11</title>
<g id="a_edge11_Node000009_Node000011"><a xlink:title=" ">
<path fill="none" stroke="#63b8ff" d="M1598.59,-56.88C1568.82,-45.57 1525.16,-28.99 1498.92,-19.02"/>
<polygon fill="#63b8ff" stroke="#63b8ff" points="1597.52,-60.21 1608.11,-60.49 1600,-53.67 1597.52,-60.21"/>
</a>
</g>
</g>
<!-- Node12 -->
<g id="Node000012" class="node">
<title>Node12</title>
<g id="a_Node000012"><a xlink:href="../../dc/d6c/atom__edit_8c.html" target="_top" xlink:title="Functions to create the model edition window.">
<polygon fill="white" stroke="#666666" points="1696.5,-19 1564.5,-19 1564.5,0 1696.5,0 1696.5,-19"/>
<text text-anchor="middle" x="1630.5" y="-7" font-family="Helvetica,sans-Serif" font-size="10.00">opengl/edit/atom_edit.c</text>
</a>
</g>
</g>
<!-- Node9&#45;&gt;Node12 -->
<g id="edge12_Node000009_Node000012" class="edge">
<title>Node9&#45;&gt;Node12</title>
<g id="a_edge12_Node000009_Node000012"><a xlink:title=" ">
<path fill="none" stroke="#63b8ff" d="M1630.5,-50.16C1630.5,-39.74 1630.5,-27.3 1630.5,-19.17"/>
<polygon fill="#63b8ff" stroke="#63b8ff" points="1627,-50.37 1630.5,-60.37 1634,-50.37 1627,-50.37"/>
</a>
</g>
</g>
<!-- Node13 -->
<g id="Node000013" class="node">
<title>Node13</title>
<g id="a_Node000013"><a xlink:href="../../d2/d4a/atom__geo_8c.html" target="_top" xlink:title="Functions to check for the appropriate atomic coordinations.">
<polygon fill="white" stroke="#666666" points="1846,-19 1715,-19 1715,0 1846,0 1846,-19"/>
<text text-anchor="middle" x="1780.5" y="-7" font-family="Helvetica,sans-Serif" font-size="10.00">opengl/edit/atom_geo.c</text>
</a>
</g>
</g>
<!-- Node9&#45;&gt;Node13 -->
<g id="edge13_Node000009_Node000013" class="edge">
<title>Node9&#45;&gt;Node13</title>
<g id="a_edge13_Node000009_Node000013"><a xlink:title=" ">
<path fill="none" stroke="#63b8ff" d="M1661.96,-56.73C1690.95,-45.42 1733.21,-28.94 1758.66,-19.02"/>
<polygon fill="#63b8ff" stroke="#63b8ff" points="1660.36,-53.6 1652.31,-60.49 1662.9,-60.12 1660.36,-53.6"/>
</a>
</g>
</g>
<!-- Node14 -->
<g id="Node000014" class="node">
<title>Node14</title>
<g id="a_Node000014"><a xlink:href="../../dd/d0b/atom__insert_8c.html" target="_top" xlink:title="Functions to insert bond(s) in a project.">
<polygon fill="white" stroke="#666666" points="2005,-19 1864,-19 1864,0 2005,0 2005,-19"/>
<text text-anchor="middle" x="1934.5" y="-7" font-family="Helvetica,sans-Serif" font-size="10.00">opengl/edit/atom_insert.c</text>
</a>
</g>
</g>
<!-- Node9&#45;&gt;Node14 -->
<g id="edge14_Node000009_Node000014" class="edge">
<title>Node9&#45;&gt;Node14</title>
<g id="a_edge14_Node000009_Node000014"><a xlink:title=" ">
<path fill="none" stroke="#63b8ff" d="M1684.53,-58.6C1743.18,-47.32 1835.73,-29.51 1890.24,-19.02"/>
<polygon fill="#63b8ff" stroke="#63b8ff" points="1683.86,-55.17 1674.7,-60.49 1685.19,-62.04 1683.86,-55.17"/>
</a>
</g>
</g>
<!-- Node15 -->
<g id="Node000015" class="node">
<title>Node15</title>
<g id="a_Node000015"><a xlink:href="../../d7/d27/atom__move_8c.html" target="_top" xlink:title="Functions to move atom(s) and group of atom(s) &#160;&#160;Functions to move randomly atom(s) and group of atom...">
<polygon fill="white" stroke="#666666" points="141,-19 0,-19 0,0 141,0 141,-19"/>
<text text-anchor="middle" x="70.5" y="-7" font-family="Helvetica,sans-Serif" font-size="10.00">opengl/edit/atom_move.c</text>
</a>
</g>
</g>
<!-- Node9&#45;&gt;Node15 -->
<g id="edge15_Node000009_Node000015" class="edge">
<title>Node9&#45;&gt;Node15</title>
<g id="a_edge15_Node000009_Node000015"><a xlink:title=" ">
<path fill="none" stroke="#63b8ff" d="M1580.77,-58.69C1572.05,-57.21 1563.04,-55.89 1554.5,-55 933.22,9.78 772.77,-60.45 149.5,-19 146.75,-18.82 143.94,-18.61 141.11,-18.39"/>
<polygon fill="#63b8ff" stroke="#63b8ff" points="1580.37,-62.17 1590.83,-60.48 1581.6,-55.28 1580.37,-62.17"/>
</a>
</g>
</g>
<!-- Node16 -->
<g id="Node000016" class="node">
<title>Node16</title>
<g id="a_Node000016"><a xlink:href="../../d7/d6a/atom__object_8c.html" target="_top" xlink:title="Functions to create atomic objects.">
<polygon fill="white" stroke="#666666" points="302,-19 159,-19 159,0 302,0 302,-19"/>
<text text-anchor="middle" x="230.5" y="-7" font-family="Helvetica,sans-Serif" font-size="10.00">opengl/edit/atom_object.c</text>
</a>
</g>
</g>
<!-- Node9&#45;&gt;Node16 -->
<g id="edge16_Node000009_Node000016" class="edge">
<title>Node9&#45;&gt;Node16</title>
<g id="a_edge16_Node000009_Node000016"><a xlink:title=" ">
<path fill="none" stroke="#63b8ff" d="M1580.48,-58.66C1571.85,-57.2 1562.94,-55.89 1554.5,-55 1004.46,3.27 862.36,-56.25 310.5,-19 307.71,-18.81 304.87,-18.6 302.01,-18.37"/>
<polygon fill="#63b8ff" stroke="#63b8ff" points="1579.98,-62.13 1590.44,-60.43 1581.2,-55.24 1579.98,-62.13"/>
</a>
</g>
</g>
<!-- Node17 -->
<g id="Node000017" class="node">
<title>Node17</title>
<g id="a_Node000017"><a xlink:href="../../d3/ded/atom__remove_8c.html" target="_top" xlink:title="Functions to remove bond(s) from a project &#160;&#160;Function to prepare the passivation (removal followed by...">
<polygon fill="white" stroke="#666666" points="471,-19 320,-19 320,0 471,0 471,-19"/>
<text text-anchor="middle" x="395.5" y="-7" font-family="Helvetica,sans-Serif" font-size="10.00">opengl/edit/atom_remove.c</text>
</a>
</g>
</g>
<!-- Node9&#45;&gt;Node17 -->
<g id="edge17_Node000009_Node000017" class="edge">
<title>Node9&#45;&gt;Node17</title>
<g id="a_edge17_Node000009_Node000017"><a xlink:title=" ">
<path fill="none" stroke="#63b8ff" d="M1580.47,-58.69C1571.84,-57.23 1562.94,-55.91 1554.5,-55 1079.67,-3.6 957.04,-50.78 480.5,-19 477.39,-18.79 474.22,-18.56 471.02,-18.31"/>
<polygon fill="#63b8ff" stroke="#63b8ff" points="1579.97,-62.16 1590.43,-60.47 1581.2,-55.27 1579.97,-62.16"/>
</a>
</g>
</g>
<!-- Node18 -->
<g id="Node000018" class="node">
<title>Node18</title>
<g id="a_Node000018"><a xlink:href="../../d9/d33/atom__search_8c.html" target="_top" xlink:title="Functions to prepare the model edition &#39;search&#39; tabs and the associated widgets.">
<polygon fill="white" stroke="#666666" points="635.5,-19 489.5,-19 489.5,0 635.5,0 635.5,-19"/>
<text text-anchor="middle" x="562.5" y="-7" font-family="Helvetica,sans-Serif" font-size="10.00">opengl/edit/atom_search.c</text>
</a>
</g>
</g>
<!-- Node9&#45;&gt;Node18 -->
<g id="edge18_Node000009_Node000018" class="edge">
<title>Node9&#45;&gt;Node18</title>
<g id="a_edge18_Node000009_Node000018"><a xlink:title=" ">
<path fill="none" stroke="#63b8ff" d="M1580.17,-58.69C1571.64,-57.24 1562.84,-55.93 1554.5,-55 1152.22,-10.22 1048.23,-47.88 644.5,-19 641.64,-18.8 638.74,-18.57 635.8,-18.33"/>
<polygon fill="#63b8ff" stroke="#63b8ff" points="1579.58,-62.14 1590.03,-60.44 1580.8,-55.24 1579.58,-62.14"/>
</a>
</g>
</g>
<!-- Node19 -->
<g id="Node000019" class="node">
<title>Node19</title>
<g id="a_Node000019"><a xlink:href="../../dd/d37/atom__species_8c.html" target="_top" xlink:title="Functions to look for new chemical species and modify the chemical information accordingly.">
<polygon fill="white" stroke="#666666" points="803.5,-19 653.5,-19 653.5,0 803.5,0 803.5,-19"/>
<text text-anchor="middle" x="728.5" y="-7" font-family="Helvetica,sans-Serif" font-size="10.00">opengl/edit/atom_species.c</text>
</a>
</g>
</g>
<!-- Node9&#45;&gt;Node19 -->
<g id="edge19_Node000009_Node000019" class="edge">
<title>Node9&#45;&gt;Node19</title>
<g id="a_edge19_Node000009_Node000019"><a xlink:title=" ">
<path fill="none" stroke="#63b8ff" d="M1579.6,-58.65C1571.24,-57.24 1562.65,-55.94 1554.5,-55 1226.53,-17.01 1141.75,-43.63 812.5,-19 809.58,-18.78 806.6,-18.54 803.59,-18.29"/>
<polygon fill="#63b8ff" stroke="#63b8ff" points="1579.17,-62.13 1589.63,-60.43 1580.4,-55.24 1579.17,-62.13"/>
</a>
</g>
</g>
<!-- Node20 -->
<g id="Node000020" class="node">
<title>Node20</title>
<g id="a_Node000020"><a xlink:href="../../d2/d17/cell__cut_8c.html" target="_top" xlink:title="Functions to create the &#39;slab cutting&#39; tab of the cell edition window.">
<polygon fill="white" stroke="#666666" points="2692.5,-19 2572.5,-19 2572.5,0 2692.5,0 2692.5,-19"/>
<text text-anchor="middle" x="2632.5" y="-7" font-family="Helvetica,sans-Serif" font-size="10.00">opengl/edit/cell_cut.c</text>
</a>
</g>
</g>
<!-- Node9&#45;&gt;Node20 -->
<g id="edge20_Node000009_Node000020" class="edge">
<title>Node9&#45;&gt;Node20</title>
<g id="a_edge20_Node000009_Node000020"><a xlink:title=" ">
<path fill="none" stroke="#63b8ff" d="M1707.37,-59.92C1724.82,-58.08 1743.28,-56.31 1760.5,-55 2116.72,-27.86 2207.5,-48.86 2563.5,-19 2566.39,-18.76 2569.34,-18.49 2572.32,-18.19"/>
<polygon fill="#63b8ff" stroke="#63b8ff" points="1706.8,-56.46 1697.23,-61.01 1707.55,-63.42 1706.8,-56.46"/>
</a>
</g>
</g>
<!-- Node21 -->
<g id="Node000021" class="node">
<title>Node21</title>
<g id="a_Node000021"><a xlink:href="../../d8/d1c/cell__super_8c.html" target="_top" xlink:title="Functions to create a super&#45;cell using the extra cell(s)">
<polygon fill="white" stroke="#666666" points="2283,-19 2152,-19 2152,0 2283,0 2283,-19"/>
<text text-anchor="middle" x="2217.5" y="-7" font-family="Helvetica,sans-Serif" font-size="10.00">opengl/edit/cell_super.c</text>
</a>
</g>
</g>
<!-- Node9&#45;&gt;Node21 -->
<g id="edge21_Node000009_Node000021" class="edge">
<title>Node9&#45;&gt;Node21</title>
<g id="a_edge21_Node000009_Node000021"><a xlink:title=" ">
<path fill="none" stroke="#63b8ff" d="M1707.42,-60.54C1724.87,-58.67 1743.32,-56.73 1760.5,-55 1930.17,-37.87 1972.88,-36.6 2142.5,-19 2145.5,-18.69 2148.56,-18.37 2151.66,-18.03"/>
<polygon fill="#63b8ff" stroke="#63b8ff" points="1706.85,-57.09 1697.28,-61.64 1707.6,-64.05 1706.85,-57.09"/>
</a>
</g>
</g>
<!-- Node22 -->
<g id="Node000022" class="node">
<title>Node22</title>
<g id="a_Node000022"><a xlink:href="../../dc/d50/selection_8c.html" target="_top" xlink:title="Functions handling the atom and bond selection process in the OpenGL window.">
<polygon fill="white" stroke="#666666" points="927,-19 822,-19 822,0 927,0 927,-19"/>
<text text-anchor="middle" x="874.5" y="-7" font-family="Helvetica,sans-Serif" font-size="10.00">opengl/selection.c</text>
</a>
</g>
</g>
<!-- Node9&#45;&gt;Node22 -->
<g id="edge22_Node000009_Node000022" class="edge">
<title>Node9&#45;&gt;Node22</title>
<g id="a_edge22_Node000009_Node000022"><a xlink:title=" ">
<path fill="none" stroke="#63b8ff" d="M1579.3,-58.67C1571.03,-57.26 1562.55,-55.97 1554.5,-55 1280.91,-21.97 1209.75,-46.04 935.5,-19 932.73,-18.73 929.9,-18.42 927.04,-18.09"/>
<polygon fill="#63b8ff" stroke="#63b8ff" points="1578.77,-62.13 1589.23,-60.43 1579.99,-55.24 1578.77,-62.13"/>
</a>
</g>
</g>
<!-- Node23 -->
<g id="Node000023" class="node">
<title>Node23</title>
<g id="a_Node000023"><a xlink:href="../../db/d42/m__edit_8c.html" target="_top" xlink:title="Functions to create the &#39;Tools &#45;&gt; Edit&#39; submenu.">
<polygon fill="white" stroke="#666666" points="2416,-19 2301,-19 2301,0 2416,0 2416,-19"/>
<text text-anchor="middle" x="2358.5" y="-7" font-family="Helvetica,sans-Serif" font-size="10.00">opengl/win/m_edit.c</text>
</a>
</g>
</g>
<!-- Node9&#45;&gt;Node23 -->
<g id="edge23_Node000009_Node000023" class="edge">
<title>Node9&#45;&gt;Node23</title>
<g id="a_edge23_Node000009_Node000023"><a xlink:title=" ">
<path fill="none" stroke="#63b8ff" d="M1707.39,-60.21C1724.84,-58.36 1743.3,-56.51 1760.5,-55 1996.14,-34.33 2056.07,-41.89 2291.5,-19 2294.53,-18.7 2297.64,-18.38 2300.78,-18.04"/>
<polygon fill="#63b8ff" stroke="#63b8ff" points="1706.82,-56.75 1697.25,-61.3 1707.57,-63.71 1706.82,-56.75"/>
</a>
</g>
</g>
<!-- Node24 -->
<g id="Node000024" class="node">
<title>Node24</title>
<g id="a_Node000024"><a xlink:href="../../d3/d51/m__tools_8c.html" target="_top" xlink:title="Functions to create the &#39;Tools&#39; submenu.">
<polygon fill="white" stroke="#666666" points="2554.5,-19 2434.5,-19 2434.5,0 2554.5,0 2554.5,-19"/>
<text text-anchor="middle" x="2494.5" y="-7" font-family="Helvetica,sans-Serif" font-size="10.00">opengl/win/m_tools.c</text>
</a>
</g>
</g>
<!-- Node9&#45;&gt;Node24 -->
<g id="edge24_Node000009_Node000024" class="edge">
<title>Node9&#45;&gt;Node24</title>
<g id="a_edge24_Node000009_Node000024"><a xlink:title=" ">
<path fill="none" stroke="#63b8ff" d="M1707.38,-60.04C1724.83,-58.19 1743.29,-56.39 1760.5,-55 2055.08,-31.17 2130.09,-44.83 2424.5,-19 2427.67,-18.72 2430.92,-18.41 2434.2,-18.08"/>
<polygon fill="#63b8ff" stroke="#63b8ff" points="1706.81,-56.58 1697.24,-61.13 1707.55,-63.54 1706.81,-56.58"/>
</a>
</g>
</g>
<!-- Node9&#45;&gt;Node25 -->
<g id="edge25_Node000009_Node000025" class="edge">
<title>Node9&#45;&gt;Node25</title>
<g id="a_edge25_Node000009_Node000025"><a xlink:title=" ">
<path fill="none" stroke="#63b8ff" d="M1706.02,-59.15C1783.27,-49.07 1906.75,-32.95 2013.5,-19 2016.55,-18.6 2019.67,-18.19 2022.83,-17.78"/>
<polygon fill="#63b8ff" stroke="#63b8ff" points="1705.36,-55.7 1695.9,-60.47 1706.27,-62.64 1705.36,-55.7"/>
</a>
</g>
</g>
<!-- Node26 -->
<g id="Node000026" class="node">
<title>Node26</title>
<g id="a_Node000026"><a xlink:href="../../de/dc7/w__search_8c.html" target="_top" xlink:title="Functions to create the object search widgets, for:">
<polygon fill="white" stroke="#666666" points="1072,-19 945,-19 945,0 1072,0 1072,-19"/>
<text text-anchor="middle" x="1008.5" y="-7" font-family="Helvetica,sans-Serif" font-size="10.00">opengl/win/w_search.c</text>
</a>
</g>
</g>
<!-- Node9&#45;&gt;Node26 -->
<g id="edge26_Node000009_Node000026" class="edge">
<title>Node9&#45;&gt;Node26</title>
<g id="a_edge26_Node000009_Node000026"><a xlink:title=" ">
<path fill="none" stroke="#63b8ff" d="M1578.72,-58.7C1570.64,-57.31 1562.36,-56.02 1554.5,-55 1344.98,-27.82 1290.79,-39.39 1080.5,-19 1077.74,-18.73 1074.93,-18.45 1072.09,-18.15"/>
<polygon fill="#63b8ff" stroke="#63b8ff" points="1578.36,-62.19 1588.81,-60.5 1579.58,-55.3 1578.36,-62.19"/>
</a>
</g>
</g>
<!-- Node27 -->
<g id="Node000027" class="node">
<title>Node27</title>
<g id="a_Node000027"><a xlink:href="../../d8/de9/w__volumes_8c.html" target="_top" xlink:title="Functions to create the &#39;Volumes&#39; window &#160;&#160;Functions to compute system / fragment / molecular volumes...">
<polygon fill="white" stroke="#666666" points="1227,-19 1090,-19 1090,0 1227,0 1227,-19"/>
<text text-anchor="middle" x="1158.5" y="-7" font-family="Helvetica,sans-Serif" font-size="10.00">opengl/win/w_volumes.c</text>
</a>
</g>
</g>
<!-- Node9&#45;&gt;Node27 -->
<g id="edge27_Node000009_Node000027" class="edge">
<title>Node9&#45;&gt;Node27</title>
<g id="a_edge27_Node000009_Node000027"><a xlink:title=" ">
<path fill="none" stroke="#63b8ff" d="M1577.27,-58.71C1569.64,-57.37 1561.88,-56.09 1554.5,-55 1538.57,-52.64 1336.21,-30.16 1227.12,-18.08"/>
<polygon fill="#63b8ff" stroke="#63b8ff" points="1576.72,-62.16 1587.18,-60.48 1577.95,-55.27 1576.72,-62.16"/>
</a>
</g>
</g>
<!-- Node30&#45;&gt;Node3 -->
<g id="edge31_Node000030_Node000003" class="edge">
<title>Node30&#45;&gt;Node3</title>
<g id="a_edge31_Node000030_Node000003"><a xlink:title=" ">
<path fill="none" stroke="#63b8ff" d="M2659.55,-56.13C2683.28,-44.85 2717.09,-28.77 2737.59,-19.02"/>
<polygon fill="#63b8ff" stroke="#63b8ff" points="2657.91,-53.04 2650.39,-60.49 2660.92,-59.36 2657.91,-53.04"/>
</a>
</g>
</g>
<!-- Node30&#45;&gt;Node20 -->
<g id="edge32_Node000030_Node000020" class="edge">
<title>Node30&#45;&gt;Node20</title>
<g id="a_edge32_Node000030_Node000020"><a xlink:title=" ">
<path fill="none" stroke="#63b8ff" d="M2632.5,-50.16C2632.5,-39.74 2632.5,-27.3 2632.5,-19.17"/>
<polygon fill="#63b8ff" stroke="#63b8ff" points="2629,-50.37 2632.5,-60.37 2636,-50.37 2629,-50.37"/>
</a>
</g>
</g>
<!-- Node30&#45;&gt;Node21 -->
<g id="edge37_Node000030_Node000021" class="edge">
<title>Node30&#45;&gt;Node21</title>
<g id="a_edge37_Node000030_Node000021"><a xlink:title=" ">
<path fill="none" stroke="#63b8ff" d="M2581.08,-58.59C2574.17,-57.31 2567.17,-56.08 2560.5,-55 2508.63,-46.6 2367.39,-28.89 2283.21,-18.52"/>
<polygon fill="#63b8ff" stroke="#63b8ff" points="2580.6,-62.06 2591.08,-60.48 2581.9,-55.19 2580.6,-62.06"/>
</a>
</g>
</g>
<!-- Node30&#45;&gt;Node23 -->
<g id="edge38_Node000030_Node000023" class="edge">
<title>Node30&#45;&gt;Node23</title>
<g id="a_edge38_Node000030_Node000023"><a xlink:title=" ">
<path fill="none" stroke="#63b8ff" d="M2582.82,-58.39C2529.91,-47.1 2447.22,-29.44 2398.39,-19.02"/>
<polygon fill="#63b8ff" stroke="#63b8ff" points="2582.15,-61.83 2592.66,-60.49 2583.61,-54.98 2582.15,-61.83"/>
</a>
</g>
</g>
<!-- Node30&#45;&gt;Node24 -->
<g id="edge39_Node000030_Node000024" class="edge">
<title>Node30&#45;&gt;Node24</title>
<g id="a_edge39_Node000030_Node000024"><a xlink:title=" ">
<path fill="none" stroke="#63b8ff" d="M2603.21,-56.58C2576.55,-45.28 2537.9,-28.9 2514.59,-19.02"/>
<polygon fill="#63b8ff" stroke="#63b8ff" points="2601.86,-59.81 2612.43,-60.49 2604.59,-53.37 2601.86,-59.81"/>
</a>
</g>
</g>
<!-- Node31 -->
<g id="Node000031" class="node">
<title>Node31</title>
<g id="a_Node000031"><a xlink:href="../../d9/d1a/cell__density_8c.html" target="_top" xlink:title="Functions to create the &#39;density adjustment&#39; tab in the cell edition window.">
<polygon fill="white" stroke="#666666" points="3102.5,-19 2962.5,-19 2962.5,0 3102.5,0 3102.5,-19"/>
<text text-anchor="middle" x="3032.5" y="-7" font-family="Helvetica,sans-Serif" font-size="10.00">opengl/edit/cell_density.c</text>
</a>
</g>
</g>
<!-- Node30&#45;&gt;Node31 -->
<g id="edge33_Node000030_Node000031" class="edge">
<title>Node30&#45;&gt;Node31</title>
<g id="a_edge33_Node000030_Node000031"><a xlink:title=" ">
<path fill="none" stroke="#63b8ff" d="M2684.19,-58.58C2691.01,-57.31 2697.92,-56.09 2704.5,-55 2793.09,-40.39 2895.73,-27.04 2962.26,-18.85"/>
<polygon fill="#63b8ff" stroke="#63b8ff" points="2683.48,-55.15 2674.31,-60.45 2684.78,-62.03 2683.48,-55.15"/>
</a>
</g>
</g>
<!-- Node32 -->
<g id="Node000032" class="node">
<title>Node32</title>
<g id="a_Node000032"><a xlink:href="../../d3/d1b/cell__edit_8c.html" target="_top" xlink:title="Functions to create the cell edition window.">
<polygon fill="white" stroke="#666666" points="3244.5,-19 3120.5,-19 3120.5,0 3244.5,0 3244.5,-19"/>
<text text-anchor="middle" x="3182.5" y="-7" font-family="Helvetica,sans-Serif" font-size="10.00">opengl/edit/cell_edit.c</text>
</a>
</g>
</g>
<!-- Node30&#45;&gt;Node32 -->
<g id="edge34_Node000030_Node000032" class="edge">
<title>Node30&#45;&gt;Node32</title>
<g id="a_edge34_Node000030_Node000032"><a xlink:title=" ">
<path fill="none" stroke="#63b8ff" d="M2682.33,-58.62C2689.74,-57.27 2697.3,-56.01 2704.5,-55 2884.31,-29.64 2930.88,-37.8 3111.5,-19 3114.34,-18.7 3117.24,-18.39 3120.17,-18.07"/>
<polygon fill="#63b8ff" stroke="#63b8ff" points="2681.55,-55.2 2672.36,-60.48 2682.84,-62.08 2681.55,-55.2"/>
</a>
</g>
</g>
<!-- Node33 -->
<g id="Node000033" class="node">
<title>Node33</title>
<g id="a_Node000033"><a xlink:href="../../d1/d9f/cell__extra_8c.html" target="_top" xlink:title="Functions to create the &#39;add cell(s)&#39; tab in the cell edition window.">
<polygon fill="white" stroke="#666666" points="3394,-19 3263,-19 3263,0 3394,0 3394,-19"/>
<text text-anchor="middle" x="3328.5" y="-7" font-family="Helvetica,sans-Serif" font-size="10.00">opengl/edit/cell_extra.c</text>
</a>
</g>
</g>
<!-- Node30&#45;&gt;Node33 -->
<g id="edge35_Node000030_Node000033" class="edge">
<title>Node30&#45;&gt;Node33</title>
<g id="a_edge35_Node000030_Node000033"><a xlink:title=" ">
<path fill="none" stroke="#63b8ff" d="M2681.51,-58.61C2689.18,-57.23 2697.04,-55.97 2704.5,-55 2947,-23.6 3009.95,-40.77 3253.5,-19 3256.5,-18.73 3259.57,-18.44 3262.67,-18.14"/>
<polygon fill="#63b8ff" stroke="#63b8ff" points="2680.78,-55.19 2671.59,-60.47 2682.06,-62.07 2680.78,-55.19"/>
</a>
</g>
</g>
<!-- Node34 -->
<g id="Node000034" class="node">
<title>Node34</title>
<g id="a_Node000034"><a xlink:href="../../d1/d4a/cell__shift_8c.html" target="_top" xlink:title="Functions to create the &#39;shift cell center&#39; tab for the cell edition window.">
<polygon fill="white" stroke="#666666" points="2944.5,-19 2818.5,-19 2818.5,0 2944.5,0 2944.5,-19"/>
<text text-anchor="middle" x="2881.5" y="-7" font-family="Helvetica,sans-Serif" font-size="10.00">opengl/edit/cell_shift.c</text>
</a>
</g>
</g>
<!-- Node30&#45;&gt;Node34 -->
<g id="edge36_Node000030_Node000034" class="edge">
<title>Node30&#45;&gt;Node34</title>
<g id="a_edge36_Node000030_Node000034"><a xlink:title=" ">
<path fill="none" stroke="#63b8ff" d="M2678.55,-58.18C2726.67,-46.88 2801.16,-29.38 2845.25,-19.02"/>
<polygon fill="#63b8ff" stroke="#63b8ff" points="2677.64,-54.8 2668.71,-60.49 2679.24,-61.61 2677.64,-54.8"/>
</a>
</g>
</g>
</g>
</svg>

<g id="navigator" transform="translate(0 0)" fill="#404254">
  <rect fill="#f2f5e9" fill-opacity="0.5" stroke="#606060" stroke-width=".5" x="0" y="0" width="60" height="60"/>
  <use id="zoomplus" xlink:href="#zoomPlus" x="17" y="9" onmousedown="handleZoom(evt,'in')"/>
  <use id="zoomminus" xlink:href="#zoomMin" x="42" y="9" onmousedown="handleZoom(evt,'out')"/>
  <use id="reset" xlink:href="#resetDef" x="30" y="36" onmousedown="handleReset()"/>
   <use id="arrowup" xlink:href="#arrowUp" x="0" y="0" onmousedown="handlePan(0,-1)"/>
  <use id="arrowright" xlink:href="#arrowRight" x="0" y="0" onmousedown="handlePan(1,0)"/>
  <use id="arrowdown" xlink:href="#arrowDown" x="0" y="0" onmousedown="handlePan(0,1)"/>
  <use id="arrowleft" xlink:href="#arrowLeft" x="0" y="0" onmousedown="handlePan(-1,0)"/>
</g>
<svg viewBox="0 0 15 15" width="100%" height="30px" preserveAspectRatio="xMaxYMin meet">
 <g id="arrow_out" transform="scale(0.3 0.3)">
  <a xlink:href="workspace_8h__dep__incl_org.svg" target="_base">
   <rect id="button" ry="5" rx="5" y="6" x="6" height="38" width="38"
        fill="#f2f5e9" fill-opacity="0.5" stroke="#606060" stroke-width="1.0"/>
   <path id="arrow"
     d="M 11.500037,31.436501 C 11.940474,20.09759 22.043105,11.32322 32.158766,21.979434 L 37.068811,17.246167 C 37.068811,17.246167 37.088388,32 37.088388,32 L 22.160133,31.978069 C 22.160133,31.978069 26.997745,27.140456 26.997745,27.140456 C 18.528582,18.264221 13.291696,25.230495 11.500037,31.436501 z"
     style="fill:#404040;"/>
  </a>
 </g>
</svg>

<style type='text/css'>
<![CDATA[
[data-mouse-over-selected='false'] { opacity: 0.7; }
[data-mouse-over-selected='true']  { opacity: 1.0; }
]]>
</style>
<script type="application/ecmascript"><![CDATA[
document.addEventListener('DOMContentLoaded', (event) => {
  highlightEdges();
  highlightAdjacentNodes();
});
]]></script>
</svg>
