<?xml version="1.0" encoding="UTF-8" standalone="no"?>
<!DOCTYPE svg PUBLIC "-//W3C//DTD SVG 1.1//EN"
 "http://www.w3.org/Graphics/SVG/1.1/DTD/svg11.dtd">
<!-- Generated by graphviz version 7.1.0 (0)
 -->
<!-- Title: workspace/workspace.h Pages: 1 -->
<svg width="3339pt" height="159pt"
 viewBox="0.00 0.00 3339.00 159.00" xmlns="http://www.w3.org/2000/svg" xmlns:xlink="http://www.w3.org/1999/xlink">
<g id="graph0" class="graph" transform="scale(1 1) rotate(0) translate(4 155)">
<title>workspace/workspace.h</title>
<!-- Node1 -->
<g id="Node000001" class="node">
<title>Node1</title>
<g id="a_Node000001"><a xlink:title="Function declarations for workspace managment.">
<polygon fill="#999999" stroke="#666666" points="2267,-151 2145,-151 2145,-132 2267,-132 2267,-151"/>
<text text-anchor="middle" x="2206" y="-139" font-family="Helvetica,sans-Serif" font-size="10.00">workspace/workspace.h</text>
</a>
</g>
</g>
<!-- Node2 -->
<g id="Node000002" class="node">
<title>Node2</title>
<g id="a_Node000002"><a xlink:href="../../d8/d5e/calc__menu_8c.html" target="_top" xlink:title="Creation of the calculation dialogs.">
<polygon fill="white" stroke="#666666" points="1516,-90.5 1428,-90.5 1428,-71.5 1516,-71.5 1516,-90.5"/>
<text text-anchor="middle" x="1472" y="-78.5" font-family="Helvetica,sans-Serif" font-size="10.00">gui/calc_menu.c</text>
</a>
</g>
</g>
<!-- Node1&#45;&gt;Node2 -->
<g id="edge1_Node000001_Node000002" class="edge">
<title>Node1&#45;&gt;Node2</title>
<g id="a_edge1_Node000001_Node000002"><a xlink:title=" ">
<path fill="none" stroke="#63b8ff" d="M2133.2,-140.33C2008.05,-139.03 1744.42,-131.8 1525,-96 1517.39,-94.76 1509.29,-92.9 1501.77,-90.94"/>
<polygon fill="#63b8ff" stroke="#63b8ff" points="2132.96,-143.83 2142.99,-140.43 2133.03,-136.83 2132.96,-143.83"/>
</a>
</g>
</g>
<!-- Node3 -->
<g id="Node000003" class="node">
<title>Node3</title>
<g id="a_Node000003"><a xlink:href="../../d3/d3a/callbacks_8c.html" target="_top" xlink:title="General callbacks &#160;&#160;Functions to open and close files.">
<polygon fill="white" stroke="#666666" points="2790,-24.5 2708,-24.5 2708,-5.5 2790,-5.5 2790,-24.5"/>
<text text-anchor="middle" x="2749" y="-12.5" font-family="Helvetica,sans-Serif" font-size="10.00">gui/callbacks.c</text>
</a>
</g>
</g>
<!-- Node1&#45;&gt;Node3 -->
<g id="edge2_Node000001_Node000003" class="edge">
<title>Node1&#45;&gt;Node3</title>
<g id="a_edge2_Node000001_Node000003"><a xlink:title=" ">
<path fill="none" stroke="#63b8ff" d="M2229.61,-125.6C2261.2,-105.95 2315.8,-73.03 2338,-66 2491.72,-17.33 2540.55,-59.85 2699,-30 2706,-28.68 2713.44,-26.84 2720.38,-24.93"/>
<polygon fill="#63b8ff" stroke="#63b8ff" points="2227.77,-122.63 2221.15,-130.9 2231.48,-128.56 2227.77,-122.63"/>
</a>
</g>
</g>
<!-- Node4 -->
<g id="Node000004" class="node">
<title>Node4</title>
<g id="a_Node000004"><a xlink:href="../../d8/da6/edit__menu_8c.html" target="_top" xlink:title="Creation of the edition dialogs.">
<polygon fill="white" stroke="#666666" points="1873,-90.5 1787,-90.5 1787,-71.5 1873,-71.5 1873,-90.5"/>
<text text-anchor="middle" x="1830" y="-78.5" font-family="Helvetica,sans-Serif" font-size="10.00">gui/edit_menu.c</text>
</a>
</g>
</g>
<!-- Node1&#45;&gt;Node4 -->
<g id="edge3_Node000001_Node000004" class="edge">
<title>Node1&#45;&gt;Node4</title>
<g id="a_edge3_Node000001_Node000004"><a xlink:title=" ">
<path fill="none" stroke="#63b8ff" d="M2133.61,-133.21C2067.65,-125.94 1967.75,-113.36 1882,-96 1875.04,-94.59 1867.62,-92.78 1860.64,-90.94"/>
<polygon fill="#63b8ff" stroke="#63b8ff" points="2132.88,-136.65 2143.2,-134.26 2133.64,-129.69 2132.88,-136.65"/>
</a>
</g>
</g>
<!-- Node5 -->
<g id="Node000005" class="node">
<title>Node5</title>
<g id="a_Node000005"><a xlink:href="../../d5/d03/gui_8c.html" target="_top" xlink:title="GUI of the main window &#160;&#160;Menu elements of the workspace menu &#160;&#160;Creation of menu items,...">
<polygon fill="white" stroke="#666666" points="1944.5,-90.5 1891.5,-90.5 1891.5,-71.5 1944.5,-71.5 1944.5,-90.5"/>
<text text-anchor="middle" x="1918" y="-78.5" font-family="Helvetica,sans-Serif" font-size="10.00">gui/gui.c</text>
</a>
</g>
</g>
<!-- Node1&#45;&gt;Node5 -->
<g id="edge4_Node000001_Node000005" class="edge">
<title>Node1&#45;&gt;Node5</title>
<g id="a_edge4_Node000001_Node000005"><a xlink:title=" ">
<path fill="none" stroke="#63b8ff" d="M2133.45,-131.54C2082.64,-124.33 2013.46,-112.64 1954,-96 1949.09,-94.63 1943.93,-92.83 1939.09,-90.99"/>
<polygon fill="#63b8ff" stroke="#63b8ff" points="2132.77,-134.98 2143.16,-132.89 2133.74,-128.04 2132.77,-134.98"/>
</a>
</g>
</g>
<!-- Node6 -->
<g id="Node000006" class="node">
<title>Node6</title>
<g id="a_Node000006"><a xlink:href="../../d0/d29/main_8c.html" target="_top" xlink:title="Initialization of the atomes program &#160;&#160;Functions required to read data from the command line.">
<polygon fill="white" stroke="#666666" points="2025,-90.5 1963,-90.5 1963,-71.5 2025,-71.5 2025,-90.5"/>
<text text-anchor="middle" x="1994" y="-78.5" font-family="Helvetica,sans-Serif" font-size="10.00">gui/main.c</text>
</a>
</g>
</g>
<!-- Node1&#45;&gt;Node6 -->
<g id="edge5_Node000001_Node000006" class="edge">
<title>Node1&#45;&gt;Node6</title>
<g id="a_edge5_Node000001_Node000006"><a xlink:title=" ">
<path fill="none" stroke="#63b8ff" d="M2156.74,-128.91C2122.18,-120.5 2075.01,-108.46 2034,-96 2028.93,-94.46 2023.55,-92.68 2018.43,-90.91"/>
<polygon fill="#63b8ff" stroke="#63b8ff" points="2155.47,-132.21 2166.02,-131.16 2157.12,-125.4 2155.47,-132.21"/>
</a>
</g>
</g>
<!-- Node7 -->
<g id="Node000007" class="node">
<title>Node7</title>
<g id="a_Node000007"><a xlink:href="../../d1/d9e/tools_8c.html" target="_top" xlink:title="Callbacks for the toolbox dialog.">
<polygon fill="white" stroke="#666666" points="2105,-90.5 2043,-90.5 2043,-71.5 2105,-71.5 2105,-90.5"/>
<text text-anchor="middle" x="2074" y="-78.5" font-family="Helvetica,sans-Serif" font-size="10.00">gui/tools.c</text>
</a>
</g>
</g>
<!-- Node1&#45;&gt;Node7 -->
<g id="edge6_Node000001_Node000007" class="edge">
<title>Node1&#45;&gt;Node7</title>
<g id="a_edge6_Node000001_Node000007"><a xlink:title=" ">
<path fill="none" stroke="#63b8ff" d="M2175.57,-127.02C2150.6,-115.95 2115.92,-100.58 2094.24,-90.97"/>
<polygon fill="#63b8ff" stroke="#63b8ff" points="2174.01,-130.15 2184.57,-131 2176.84,-123.75 2174.01,-130.15"/>
</a>
</g>
</g>
<!-- Node8 -->
<g id="Node000008" class="node">
<title>Node8</title>
<g id="a_Node000008"><a xlink:href="../../d7/d29/work__menu_8c.html" target="_top" xlink:title="Workspace menu GTK3 version &#160;&#160;Callbacks for the workspace menu.">
<polygon fill="white" stroke="#666666" points="2214.5,-90.5 2123.5,-90.5 2123.5,-71.5 2214.5,-71.5 2214.5,-90.5"/>
<text text-anchor="middle" x="2169" y="-78.5" font-family="Helvetica,sans-Serif" font-size="10.00">gui/work_menu.c</text>
</a>
</g>
</g>
<!-- Node1&#45;&gt;Node8 -->
<g id="edge7_Node000001_Node000008" class="edge">
<title>Node1&#45;&gt;Node8</title>
<g id="a_edge7_Node000001_Node000008"><a xlink:title=" ">
<path fill="none" stroke="#63b8ff" d="M2194.5,-122.32C2187.83,-111.78 2179.74,-98.98 2174.48,-90.67"/>
<polygon fill="#63b8ff" stroke="#63b8ff" points="2191.43,-124.01 2199.73,-130.59 2197.34,-120.27 2191.43,-124.01"/>
</a>
</g>
</g>
<!-- Node9 -->
<g id="Node000009" class="node">
<title>Node9</title>
<g id="a_Node000009"><a xlink:href="../../d5/d9c/atom__edit_8h.html" target="_top" xlink:title="Function declarations for the mode edition window.">
<polygon fill="white" stroke="#666666" points="1652,-90.5 1534,-90.5 1534,-71.5 1652,-71.5 1652,-90.5"/>
<text text-anchor="middle" x="1593" y="-78.5" font-family="Helvetica,sans-Serif" font-size="10.00">opengl/edit/atom_edit.h</text>
</a>
</g>
</g>
<!-- Node1&#45;&gt;Node9 -->
<g id="edge8_Node000001_Node000009" class="edge">
<title>Node1&#45;&gt;Node9</title>
<g id="a_edge8_Node000001_Node000009"><a xlink:title=" ">
<path fill="none" stroke="#63b8ff" d="M2133.6,-133.59C2011.12,-121.9 1765.37,-98.45 1652.35,-87.66"/>
<polygon fill="#63b8ff" stroke="#63b8ff" points="2132.91,-137.04 2143.19,-134.51 2133.57,-130.07 2132.91,-137.04"/>
</a>
</g>
</g>
<!-- Node20 -->
<g id="Node000020" class="node">
<title>Node20</title>
<g id="a_Node000020"><a xlink:href="../../d0/dd3/cbuild__action_8c.html" target="_top" xlink:title="Functions to build a crystal using space group, crystallographic position(s) and object(s) to insert.">
<polygon fill="white" stroke="#666666" points="2056,-30 1964,-30 1964,0 2056,0 2056,-30"/>
<text text-anchor="start" x="1972" y="-18" font-family="Helvetica,sans-Serif" font-size="10.00">opengl/edit/cbuild</text>
<text text-anchor="middle" x="2010" y="-7" font-family="Helvetica,sans-Serif" font-size="10.00">_action.c</text>
</a>
</g>
</g>
<!-- Node1&#45;&gt;Node20 -->
<g id="edge30_Node000001_Node000020" class="edge">
<title>Node1&#45;&gt;Node20</title>
<g id="a_edge30_Node000001_Node000020"><a xlink:title=" ">
<path fill="none" stroke="#63b8ff" d="M2217.98,-122.12C2226.98,-105.75 2235.76,-81.99 2223,-66 2178.08,-9.7 2135.01,-46.88 2065,-30 2062.22,-29.33 2059.37,-28.63 2056.49,-27.92"/>
<polygon fill="#63b8ff" stroke="#63b8ff" points="2215.18,-119.98 2213.03,-130.35 2221.18,-123.58 2215.18,-119.98"/>
</a>
</g>
</g>
<!-- Node26 -->
<g id="Node000026" class="node">
<title>Node26</title>
<g id="a_Node000026"><a xlink:href="../../d5/da4/popup_8c.html" target="_top" xlink:title="Functions to create the OpenGL window popup menus:">
<polygon fill="white" stroke="#666666" points="2175.5,-24.5 2074.5,-24.5 2074.5,-5.5 2175.5,-5.5 2175.5,-24.5"/>
<text text-anchor="middle" x="2125" y="-12.5" font-family="Helvetica,sans-Serif" font-size="10.00">opengl/win/popup.c</text>
</a>
</g>
</g>
<!-- Node1&#45;&gt;Node26 -->
<g id="edge42_Node000001_Node000026" class="edge">
<title>Node1&#45;&gt;Node26</title>
<g id="a_edge42_Node000001_Node000026"><a xlink:title=" ">
<path fill="none" stroke="#63b8ff" d="M2231.45,-125.2C2241.36,-117.75 2251.62,-107.84 2257,-96 2262.52,-83.86 2264.58,-76.97 2257,-66 2245.83,-49.82 2196.78,-34.27 2161.74,-24.93"/>
<polygon fill="#63b8ff" stroke="#63b8ff" points="2229.71,-122.15 2223.47,-130.7 2233.69,-127.91 2229.71,-122.15"/>
</a>
</g>
</g>
<!-- Node30 -->
<g id="Node000030" class="node">
<title>Node30</title>
<g id="a_Node000030"><a xlink:href="../../db/d0b/cbuild__edit_8c.html" target="_top" xlink:title="Functions to create the crystal builder window.">
<polygon fill="white" stroke="#666666" points="2439,-96 2347,-96 2347,-66 2439,-66 2439,-96"/>
<text text-anchor="start" x="2355" y="-84" font-family="Helvetica,sans-Serif" font-size="10.00">opengl/edit/cbuild</text>
<text text-anchor="middle" x="2393" y="-73" font-family="Helvetica,sans-Serif" font-size="10.00">_edit.c</text>
</a>
</g>
</g>
<!-- Node1&#45;&gt;Node30 -->
<g id="edge31_Node000001_Node000030" class="edge">
<title>Node1&#45;&gt;Node30</title>
<g id="a_edge31_Node000001_Node000030"><a xlink:title=" ">
<path fill="none" stroke="#63b8ff" d="M2245.17,-128.25C2274.82,-118.97 2315.62,-106.21 2346.84,-96.44"/>
<polygon fill="#63b8ff" stroke="#63b8ff" points="2244.34,-124.84 2235.85,-131.16 2246.43,-131.52 2244.34,-124.84"/>
</a>
</g>
</g>
<!-- Node31 -->
<g id="Node000031" class="node">
<title>Node31</title>
<g id="a_Node000031"><a xlink:href="../../d9/d97/cell__edit_8h.html" target="_top" xlink:title="Function declarations for the cell edition window.">
<polygon fill="white" stroke="#666666" points="2620.5,-90.5 2509.5,-90.5 2509.5,-71.5 2620.5,-71.5 2620.5,-90.5"/>
<text text-anchor="middle" x="2565" y="-78.5" font-family="Helvetica,sans-Serif" font-size="10.00">opengl/edit/cell_edit.h</text>
</a>
</g>
</g>
<!-- Node1&#45;&gt;Node31 -->
<g id="edge32_Node000001_Node000031" class="edge">
<title>Node1&#45;&gt;Node31</title>
<g id="a_edge32_Node000001_Node000031"><a xlink:title=" ">
<path fill="none" stroke="#63b8ff" d="M2271.96,-129.75C2340.26,-118.62 2445.76,-101.43 2509.8,-91"/>
<polygon fill="#63b8ff" stroke="#63b8ff" points="2271.72,-126.25 2262.41,-131.31 2272.84,-133.15 2271.72,-126.25"/>
</a>
</g>
</g>
<!-- Node36 -->
<g id="Node000036" class="node">
<title>Node36</title>
<g id="a_Node000036"><a xlink:href="../../d3/d50/close__p_8c.html" target="_top" xlink:title="Functions to close an atomes project &#160;&#160;Callbacks to close an atomes project.">
<polygon fill="white" stroke="#666666" points="2729.5,-90.5 2638.5,-90.5 2638.5,-71.5 2729.5,-71.5 2729.5,-90.5"/>
<text text-anchor="middle" x="2684" y="-78.5" font-family="Helvetica,sans-Serif" font-size="10.00">project/close_p.c</text>
</a>
</g>
</g>
<!-- Node1&#45;&gt;Node36 -->
<g id="edge43_Node000001_Node000036" class="edge">
<title>Node1&#45;&gt;Node36</title>
<g id="a_edge43_Node000001_Node000036"><a xlink:title=" ">
<path fill="none" stroke="#63b8ff" d="M2278.81,-136.17C2363.64,-130.36 2507.8,-118.13 2630,-96 2637.43,-94.65 2645.35,-92.83 2652.77,-90.94"/>
<polygon fill="#63b8ff" stroke="#63b8ff" points="2278.75,-132.67 2269,-136.83 2279.22,-139.65 2278.75,-132.67"/>
</a>
</g>
</g>
<!-- Node37 -->
<g id="Node000037" class="node">
<title>Node37</title>
<g id="a_Node000037"><a xlink:href="../../db/d3e/update__p_8c.html" target="_top" xlink:title="Functions to update a project &#160;&#160;Functions to activate a project.">
<polygon fill="white" stroke="#666666" points="2844.5,-90.5 2747.5,-90.5 2747.5,-71.5 2844.5,-71.5 2844.5,-90.5"/>
<text text-anchor="middle" x="2796" y="-78.5" font-family="Helvetica,sans-Serif" font-size="10.00">project/update_p.c</text>
</a>
</g>
</g>
<!-- Node1&#45;&gt;Node37 -->
<g id="edge44_Node000001_Node000037" class="edge">
<title>Node1&#45;&gt;Node37</title>
<g id="a_edge44_Node000001_Node000037"><a xlink:title=" ">
<path fill="none" stroke="#63b8ff" d="M2278.63,-138.06C2381.62,-133.78 2575.76,-122.69 2739,-96 2746.94,-94.7 2755.41,-92.87 2763.33,-90.96"/>
<polygon fill="#63b8ff" stroke="#63b8ff" points="2278.49,-134.56 2268.64,-138.47 2278.78,-141.56 2278.49,-134.56"/>
</a>
</g>
</g>
<!-- Node9&#45;&gt;Node3 -->
<g id="edge9_Node000009_Node000003" class="edge">
<title>Node9&#45;&gt;Node3</title>
<g id="a_edge9_Node000009_Node000003"><a xlink:title=" ">
<path fill="none" stroke="#63b8ff" d="M1663.51,-74.06C1698,-71.3 1740.15,-68.17 1778,-66 2186.97,-42.54 2294.33,-93.66 2699,-30 2706.39,-28.84 2714.25,-26.96 2721.49,-24.95"/>
<polygon fill="#63b8ff" stroke="#63b8ff" points="1663.31,-70.56 1653.63,-74.85 1663.88,-77.54 1663.31,-70.56"/>
</a>
</g>
</g>
<!-- Node10 -->
<g id="Node000010" class="node">
<title>Node10</title>
<g id="a_Node000010"><a xlink:href="../../d8/d15/atom__action_8c.html" target="_top" xlink:title="Functions to apply the edition actions to the model.">
<polygon fill="white" stroke="#666666" points="1096,-24.5 968,-24.5 968,-5.5 1096,-5.5 1096,-24.5"/>
<text text-anchor="middle" x="1032" y="-12.5" font-family="Helvetica,sans-Serif" font-size="10.00">opengl/edit/atom_action.c</text>
</a>
</g>
</g>
<!-- Node9&#45;&gt;Node10 -->
<g id="edge10_Node000009_Node000010" class="edge">
<title>Node9&#45;&gt;Node10</title>
<g id="a_edge10_Node000009_Node000010"><a xlink:title=" ">
<path fill="none" stroke="#63b8ff" d="M1542.44,-68.91C1536.58,-67.82 1530.67,-66.82 1525,-66 1339.6,-39.06 1290.58,-55.68 1105,-30 1095.16,-28.64 1084.63,-26.83 1074.72,-24.96"/>
<polygon fill="#63b8ff" stroke="#63b8ff" points="1541.62,-72.31 1552.1,-70.78 1542.95,-65.44 1541.62,-72.31"/>
</a>
</g>
</g>
<!-- Node11 -->
<g id="Node000011" class="node">
<title>Node11</title>
<g id="a_Node000011"><a xlink:href="../../d9/dbe/atom__coord_8c.html" target="_top" xlink:title="Functions to correct the coordination menus and the corresponding data pointers after edition.">
<polygon fill="white" stroke="#666666" points="1240,-24.5 1114,-24.5 1114,-5.5 1240,-5.5 1240,-24.5"/>
<text text-anchor="middle" x="1177" y="-12.5" font-family="Helvetica,sans-Serif" font-size="10.00">opengl/edit/atom_coord.c</text>
</a>
</g>
</g>
<!-- Node9&#45;&gt;Node11 -->
<g id="edge11_Node000009_Node000011" class="edge">
<title>Node9&#45;&gt;Node11</title>
<g id="a_edge11_Node000009_Node000011"><a xlink:title=" ">
<path fill="none" stroke="#63b8ff" d="M1541.07,-68.9C1535.66,-67.87 1530.22,-66.88 1525,-66 1403,-45.51 1371.11,-49.82 1249,-30 1239.82,-28.51 1230.03,-26.73 1220.71,-24.95"/>
<polygon fill="#63b8ff" stroke="#63b8ff" points="1540.13,-72.28 1550.61,-70.78 1541.48,-65.41 1540.13,-72.28"/>
</a>
</g>
</g>
<!-- Node12 -->
<g id="Node000012" class="node">
<title>Node12</title>
<g id="a_Node000012"><a xlink:href="../../dc/d6c/atom__edit_8c.html" target="_top" xlink:title="Functions to create the model edition window.">
<polygon fill="white" stroke="#666666" points="1376,-24.5 1258,-24.5 1258,-5.5 1376,-5.5 1376,-24.5"/>
<text text-anchor="middle" x="1317" y="-12.5" font-family="Helvetica,sans-Serif" font-size="10.00">opengl/edit/atom_edit.c</text>
</a>
</g>
</g>
<!-- Node9&#45;&gt;Node12 -->
<g id="edge12_Node000009_Node000012" class="edge">
<title>Node9&#45;&gt;Node12</title>
<g id="a_edge12_Node000009_Node000012"><a xlink:title=" ">
<path fill="none" stroke="#63b8ff" d="M1543.32,-68.48C1489.4,-55.98 1404.45,-36.28 1355.41,-24.91"/>
<polygon fill="#63b8ff" stroke="#63b8ff" points="1542.33,-71.84 1552.86,-70.69 1543.91,-65.02 1542.33,-71.84"/>
</a>
</g>
</g>
<!-- Node13 -->
<g id="Node000013" class="node">
<title>Node13</title>
<g id="a_Node000013"><a xlink:href="../../d2/d4a/atom__geo_8c.html" target="_top" xlink:title="Functions to check for the appropriate atomic coordinations.">
<polygon fill="white" stroke="#666666" points="1512,-24.5 1394,-24.5 1394,-5.5 1512,-5.5 1512,-24.5"/>
<text text-anchor="middle" x="1453" y="-12.5" font-family="Helvetica,sans-Serif" font-size="10.00">opengl/edit/atom_geo.c</text>
</a>
</g>
</g>
<!-- Node9&#45;&gt;Node13 -->
<g id="edge13_Node000009_Node000013" class="edge">
<title>Node9&#45;&gt;Node13</title>
<g id="a_edge13_Node000009_Node000013"><a xlink:title=" ">
<path fill="none" stroke="#63b8ff" d="M1563.33,-66.44C1535.87,-53.88 1495.84,-35.58 1472.3,-24.82"/>
<polygon fill="#63b8ff" stroke="#63b8ff" points="1561.61,-69.5 1572.16,-70.47 1564.52,-63.13 1561.61,-69.5"/>
</a>
</g>
</g>
<!-- Node14 -->
<g id="Node000014" class="node">
<title>Node14</title>
<g id="a_Node000014"><a xlink:href="../../dd/d0b/atom__insert_8c.html" target="_top" xlink:title="Functions to insert bond(s) in a project.">
<polygon fill="white" stroke="#666666" points="1656,-24.5 1530,-24.5 1530,-5.5 1656,-5.5 1656,-24.5"/>
<text text-anchor="middle" x="1593" y="-12.5" font-family="Helvetica,sans-Serif" font-size="10.00">opengl/edit/atom_insert.c</text>
</a>
</g>
</g>
<!-- Node9&#45;&gt;Node14 -->
<g id="edge14_Node000009_Node000014" class="edge">
<title>Node9&#45;&gt;Node14</title>
<g id="a_edge14_Node000009_Node000014"><a xlink:title=" ">
<path fill="none" stroke="#63b8ff" d="M1593,-59.68C1593,-47.94 1593,-33.77 1593,-24.82"/>
<polygon fill="#63b8ff" stroke="#63b8ff" points="1589.5,-59.59 1593,-69.59 1596.5,-59.59 1589.5,-59.59"/>
</a>
</g>
</g>
<!-- Node15 -->
<g id="Node000015" class="node">
<title>Node15</title>
<g id="a_Node000015"><a xlink:href="../../d7/d27/atom__move_8c.html" target="_top" xlink:title="Functions to move atom(s) and group of atom(s) &#160;&#160;Functions to move randomly atom(s) and group of atom...">
<polygon fill="white" stroke="#666666" points="1800,-24.5 1674,-24.5 1674,-5.5 1800,-5.5 1800,-24.5"/>
<text text-anchor="middle" x="1737" y="-12.5" font-family="Helvetica,sans-Serif" font-size="10.00">opengl/edit/atom_move.c</text>
</a>
</g>
</g>
<!-- Node9&#45;&gt;Node15 -->
<g id="edge15_Node000009_Node000015" class="edge">
<title>Node9&#45;&gt;Node15</title>
<g id="a_edge15_Node000009_Node000015"><a xlink:title=" ">
<path fill="none" stroke="#63b8ff" d="M1623.52,-66.44C1651.76,-53.88 1692.94,-35.58 1717.15,-24.82"/>
<polygon fill="#63b8ff" stroke="#63b8ff" points="1622.12,-63.23 1614.41,-70.49 1624.97,-69.62 1622.12,-63.23"/>
</a>
</g>
</g>
<!-- Node16 -->
<g id="Node000016" class="node">
<title>Node16</title>
<g id="a_Node000016"><a xlink:href="../../d7/d6a/atom__object_8c.html" target="_top" xlink:title="Functions to create atomic objects.">
<polygon fill="white" stroke="#666666" points="1946,-24.5 1818,-24.5 1818,-5.5 1946,-5.5 1946,-24.5"/>
<text text-anchor="middle" x="1882" y="-12.5" font-family="Helvetica,sans-Serif" font-size="10.00">opengl/edit/atom_object.c</text>
</a>
</g>
</g>
<!-- Node9&#45;&gt;Node16 -->
<g id="edge16_Node000009_Node000016" class="edge">
<title>Node9&#45;&gt;Node16</title>
<g id="a_edge16_Node000009_Node000016"><a xlink:title=" ">
<path fill="none" stroke="#63b8ff" d="M1644.66,-68.56C1701.11,-56.06 1790.33,-36.3 1841.79,-24.91"/>
<polygon fill="#63b8ff" stroke="#63b8ff" points="1643.97,-65.13 1634.97,-70.71 1645.49,-71.96 1643.97,-65.13"/>
</a>
</g>
</g>
<!-- Node17 -->
<g id="Node000017" class="node">
<title>Node17</title>
<g id="a_Node000017"><a xlink:href="../../d3/ded/atom__remove_8c.html" target="_top" xlink:title="Functions to remove bond(s) from a project &#160;&#160;Function to prepare the passivation (removal followed by...">
<polygon fill="white" stroke="#666666" points="134,-24.5 0,-24.5 0,-5.5 134,-5.5 134,-24.5"/>
<text text-anchor="middle" x="67" y="-12.5" font-family="Helvetica,sans-Serif" font-size="10.00">opengl/edit/atom_remove.c</text>
</a>
</g>
</g>
<!-- Node9&#45;&gt;Node17 -->
<g id="edge17_Node000009_Node000017" class="edge">
<title>Node9&#45;&gt;Node17</title>
<g id="a_edge17_Node000009_Node000017"><a xlink:title=" ">
<path fill="none" stroke="#63b8ff" d="M1544.57,-68.94C1538.02,-67.76 1531.37,-66.73 1525,-66 914.6,4.23 754.1,-93.85 143,-30 131.92,-28.84 120.04,-26.96 109.04,-24.95"/>
<polygon fill="#63b8ff" stroke="#63b8ff" points="1543.46,-72.29 1553.94,-70.74 1544.78,-65.42 1543.46,-72.29"/>
</a>
</g>
</g>
<!-- Node18 -->
<g id="Node000018" class="node">
<title>Node18</title>
<g id="a_Node000018"><a xlink:href="../../d9/d33/atom__search_8c.html" target="_top" xlink:title="Functions to prepare the model edition &#39;search&#39; tabs and the associated widgets.">
<polygon fill="white" stroke="#666666" points="283.5,-24.5 152.5,-24.5 152.5,-5.5 283.5,-5.5 283.5,-24.5"/>
<text text-anchor="middle" x="218" y="-12.5" font-family="Helvetica,sans-Serif" font-size="10.00">opengl/edit/atom_search.c</text>
</a>
</g>
</g>
<!-- Node9&#45;&gt;Node18 -->
<g id="edge18_Node000009_Node000018" class="edge">
<title>Node9&#45;&gt;Node18</title>
<g id="a_edge18_Node000009_Node000018"><a xlink:title=" ">
<path fill="none" stroke="#63b8ff" d="M1544.57,-68.96C1538.02,-67.78 1531.37,-66.74 1525,-66 980.9,-2.53 837.66,-88.44 293,-30 282.07,-28.83 270.34,-26.94 259.48,-24.93"/>
<polygon fill="#63b8ff" stroke="#63b8ff" points="1543.46,-72.31 1553.94,-70.76 1544.78,-65.44 1543.46,-72.31"/>
</a>
</g>
</g>
<!-- Node19 -->
<g id="Node000019" class="node">
<title>Node19</title>
<g id="a_Node000019"><a xlink:href="../../dd/d37/atom__species_8c.html" target="_top" xlink:title="Functions to look for new chemical species and modify the chemical information accordingly.">
<polygon fill="white" stroke="#666666" points="438,-24.5 302,-24.5 302,-5.5 438,-5.5 438,-24.5"/>
<text text-anchor="middle" x="370" y="-12.5" font-family="Helvetica,sans-Serif" font-size="10.00">opengl/edit/atom_species.c</text>
</a>
</g>
</g>
<!-- Node9&#45;&gt;Node19 -->
<g id="edge19_Node000009_Node000019" class="edge">
<title>Node9&#45;&gt;Node19</title>
<g id="a_edge19_Node000009_Node000019"><a xlink:title=" ">
<path fill="none" stroke="#63b8ff" d="M1543.86,-68.86C1537.54,-67.73 1531.13,-66.73 1525,-66 1048.97,-9.46 923.66,-81.01 447,-30 435.92,-28.81 424.04,-26.95 413.01,-24.97"/>
<polygon fill="#63b8ff" stroke="#63b8ff" points="1543.1,-72.27 1553.58,-70.72 1544.41,-65.4 1543.1,-72.27"/>
</a>
</g>
</g>
<!-- Node9&#45;&gt;Node20 -->
<g id="edge20_Node000009_Node000020" class="edge">
<title>Node9&#45;&gt;Node20</title>
<g id="a_edge20_Node000009_Node000020"><a xlink:title=" ">
<path fill="none" stroke="#63b8ff" d="M1663.64,-72.61C1736.89,-64.4 1854.53,-49.66 1955,-30 1957.8,-29.45 1960.68,-28.85 1963.57,-28.21"/>
<polygon fill="#63b8ff" stroke="#63b8ff" points="1663.33,-69.13 1653.78,-73.71 1664.1,-76.08 1663.33,-69.13"/>
</a>
</g>
</g>
<!-- Node21 -->
<g id="Node000021" class="node">
<title>Node21</title>
<g id="a_Node000021"><a xlink:href="../../d2/d17/cell__cut_8c.html" target="_top" xlink:title="Functions to create the &#39;slab cutting&#39; tab of the cell edition window.">
<polygon fill="white" stroke="#666666" points="2302.5,-24.5 2193.5,-24.5 2193.5,-5.5 2302.5,-5.5 2302.5,-24.5"/>
<text text-anchor="middle" x="2248" y="-12.5" font-family="Helvetica,sans-Serif" font-size="10.00">opengl/edit/cell_cut.c</text>
</a>
</g>
</g>
<!-- Node9&#45;&gt;Node21 -->
<g id="edge21_Node000009_Node000021" class="edge">
<title>Node9&#45;&gt;Node21</title>
<g id="a_edge21_Node000009_Node000021"><a xlink:title=" ">
<path fill="none" stroke="#63b8ff" d="M1663.82,-74.53C1809.58,-63.2 2133.75,-37.59 2184,-30 2192.77,-28.68 2202.14,-26.86 2210.93,-24.97"/>
<polygon fill="#63b8ff" stroke="#63b8ff" points="1663.58,-71.04 1653.89,-75.3 1664.13,-78.02 1663.58,-71.04"/>
</a>
</g>
</g>
<!-- Node22 -->
<g id="Node000022" class="node">
<title>Node22</title>
<g id="a_Node000022"><a xlink:href="../../d8/d1c/cell__super_8c.html" target="_top" xlink:title="Functions to create a super&#45;cell using the extra cell(s)">
<polygon fill="white" stroke="#666666" points="2689.5,-24.5 2570.5,-24.5 2570.5,-5.5 2689.5,-5.5 2689.5,-24.5"/>
<text text-anchor="middle" x="2630" y="-12.5" font-family="Helvetica,sans-Serif" font-size="10.00">opengl/edit/cell_super.c</text>
</a>
</g>
</g>
<!-- Node9&#45;&gt;Node22 -->
<g id="edge22_Node000009_Node000022" class="edge">
<title>Node9&#45;&gt;Node22</title>
<g id="a_edge22_Node000009_Node000022"><a xlink:title=" ">
<path fill="none" stroke="#63b8ff" d="M1663.51,-74.17C1698.01,-71.45 1740.16,-68.3 1778,-66 2125.73,-44.85 2215.27,-72.76 2561,-30 2570.83,-28.78 2581.34,-26.94 2591.13,-24.98"/>
<polygon fill="#63b8ff" stroke="#63b8ff" points="1663.32,-70.68 1653.63,-74.96 1663.88,-77.65 1663.32,-70.68"/>
</a>
</g>
</g>
<!-- Node23 -->
<g id="Node000023" class="node">
<title>Node23</title>
<g id="a_Node000023"><a xlink:href="../../dc/d50/selection_8c.html" target="_top" xlink:title="Functions handling the atom and bond selection process in the OpenGL window.">
<polygon fill="white" stroke="#666666" points="551.5,-24.5 456.5,-24.5 456.5,-5.5 551.5,-5.5 551.5,-24.5"/>
<text text-anchor="middle" x="504" y="-12.5" font-family="Helvetica,sans-Serif" font-size="10.00">opengl/selection.c</text>
</a>
</g>
</g>
<!-- Node9&#45;&gt;Node23 -->
<g id="edge23_Node000009_Node000023" class="edge">
<title>Node9&#45;&gt;Node23</title>
<g id="a_edge23_Node000009_Node000023"><a xlink:title=" ">
<path fill="none" stroke="#63b8ff" d="M1543.85,-68.88C1537.54,-67.75 1531.13,-66.74 1525,-66 1099.35,-14.59 985.6,-89.44 561,-30 552.62,-28.83 543.69,-26.94 535.43,-24.93"/>
<polygon fill="#63b8ff" stroke="#63b8ff" points="1543.09,-72.3 1553.57,-70.75 1544.41,-65.42 1543.09,-72.3"/>
</a>
</g>
</g>
<!-- Node24 -->
<g id="Node000024" class="node">
<title>Node24</title>
<g id="a_Node000024"><a xlink:href="../../db/d42/m__edit_8c.html" target="_top" xlink:title="Functions to create the &#39;Tools &#45;&gt; Edit&#39; submenu.">
<polygon fill="white" stroke="#666666" points="2552,-24.5 2448,-24.5 2448,-5.5 2552,-5.5 2552,-24.5"/>
<text text-anchor="middle" x="2500" y="-12.5" font-family="Helvetica,sans-Serif" font-size="10.00">opengl/win/m_edit.c</text>
</a>
</g>
</g>
<!-- Node9&#45;&gt;Node24 -->
<g id="edge24_Node000009_Node000024" class="edge">
<title>Node9&#45;&gt;Node24</title>
<g id="a_edge24_Node000009_Node000024"><a xlink:title=" ">
<path fill="none" stroke="#63b8ff" d="M1663.52,-74.31C1698.02,-71.62 1740.17,-68.46 1778,-66 2071.59,-46.9 2147.67,-71.06 2439,-30 2447.72,-28.77 2457.02,-26.92 2465.67,-24.96"/>
<polygon fill="#63b8ff" stroke="#63b8ff" points="1663.34,-70.82 1653.64,-75.09 1663.88,-77.79 1663.34,-70.82"/>
</a>
</g>
</g>
<!-- Node25 -->
<g id="Node000025" class="node">
<title>Node25</title>
<g id="a_Node000025"><a xlink:href="../../d3/d51/m__tools_8c.html" target="_top" xlink:title="Functions to create the &#39;Tools&#39; submenu.">
<polygon fill="white" stroke="#666666" points="2429.5,-24.5 2320.5,-24.5 2320.5,-5.5 2429.5,-5.5 2429.5,-24.5"/>
<text text-anchor="middle" x="2375" y="-12.5" font-family="Helvetica,sans-Serif" font-size="10.00">opengl/win/m_tools.c</text>
</a>
</g>
</g>
<!-- Node9&#45;&gt;Node25 -->
<g id="edge25_Node000009_Node000025" class="edge">
<title>Node9&#45;&gt;Node25</title>
<g id="a_edge25_Node000009_Node000025"><a xlink:title=" ">
<path fill="none" stroke="#63b8ff" d="M1663.54,-74.53C1698.04,-71.88 1740.19,-68.71 1778,-66 2014.82,-49.04 2075.94,-63.46 2311,-30 2320.01,-28.72 2329.64,-26.87 2338.62,-24.93"/>
<polygon fill="#63b8ff" stroke="#63b8ff" points="1663.36,-71.03 1653.65,-75.29 1663.89,-78.01 1663.36,-71.03"/>
</a>
</g>
</g>
<!-- Node9&#45;&gt;Node26 -->
<g id="edge26_Node000009_Node000026" class="edge">
<title>Node9&#45;&gt;Node26</title>
<g id="a_edge26_Node000009_Node000026"><a xlink:title=" ">
<path fill="none" stroke="#63b8ff" d="M1663.65,-75.26C1756.27,-68.41 1923.58,-53.9 2065,-30 2073.12,-28.63 2081.79,-26.81 2089.93,-24.95"/>
<polygon fill="#63b8ff" stroke="#63b8ff" points="1663.42,-71.76 1653.7,-75.98 1663.92,-78.75 1663.42,-71.76"/>
</a>
</g>
</g>
<!-- Node27 -->
<g id="Node000027" class="node">
<title>Node27</title>
<g id="a_Node000027"><a xlink:href="../../de/dc7/w__search_8c.html" target="_top" xlink:title="Functions to create the object search widgets, for:">
<polygon fill="white" stroke="#666666" points="686,-24.5 570,-24.5 570,-5.5 686,-5.5 686,-24.5"/>
<text text-anchor="middle" x="628" y="-12.5" font-family="Helvetica,sans-Serif" font-size="10.00">opengl/win/w_search.c</text>
</a>
</g>
</g>
<!-- Node9&#45;&gt;Node27 -->
<g id="edge27_Node000009_Node000027" class="edge">
<title>Node9&#45;&gt;Node27</title>
<g id="a_edge27_Node000009_Node000027"><a xlink:title=" ">
<path fill="none" stroke="#63b8ff" d="M1543.85,-68.92C1537.53,-67.78 1531.13,-66.76 1525,-66 1158.56,-20.63 1061.37,-75.91 695,-30 685.33,-28.79 674.98,-26.92 665.38,-24.93"/>
<polygon fill="#63b8ff" stroke="#63b8ff" points="1543.09,-72.33 1553.57,-70.79 1544.41,-65.46 1543.09,-72.33"/>
</a>
</g>
</g>
<!-- Node28 -->
<g id="Node000028" class="node">
<title>Node28</title>
<g id="a_Node000028"><a xlink:href="../../d8/de9/w__volumes_8c.html" target="_top" xlink:title="Functions to create the &#39;Volumes&#39; window &#160;&#160;Functions to compute system / fragment / molecular volumes...">
<polygon fill="white" stroke="#666666" points="828,-24.5 704,-24.5 704,-5.5 828,-5.5 828,-24.5"/>
<text text-anchor="middle" x="766" y="-12.5" font-family="Helvetica,sans-Serif" font-size="10.00">opengl/win/w_volumes.c</text>
</a>
</g>
</g>
<!-- Node9&#45;&gt;Node28 -->
<g id="edge28_Node000009_Node000028" class="edge">
<title>Node9&#45;&gt;Node28</title>
<g id="a_edge28_Node000009_Node000028"><a xlink:title=" ">
<path fill="none" stroke="#63b8ff" d="M1543.61,-68.93C1537.37,-67.79 1531.05,-66.78 1525,-66 1221.3,-27.02 1140.86,-67.71 837,-30 827.03,-28.76 816.35,-26.93 806.39,-25"/>
<polygon fill="#63b8ff" stroke="#63b8ff" points="1542.72,-72.32 1553.2,-70.77 1544.05,-65.45 1542.72,-72.32"/>
</a>
</g>
</g>
<!-- Node29 -->
<g id="Node000029" class="node">
<title>Node29</title>
<g id="a_Node000029"><a xlink:href="../../d8/d50/read__cif_8c.html" target="_top" xlink:title="Functions to read CIF files.">
<polygon fill="white" stroke="#666666" points="949.5,-30 846.5,-30 846.5,0 949.5,0 949.5,-30"/>
<text text-anchor="start" x="854.5" y="-18" font-family="Helvetica,sans-Serif" font-size="10.00">project/readers/read</text>
<text text-anchor="middle" x="898" y="-7" font-family="Helvetica,sans-Serif" font-size="10.00">_cif.c</text>
</a>
</g>
</g>
<!-- Node9&#45;&gt;Node29 -->
<g id="edge29_Node000009_Node000029" class="edge">
<title>Node9&#45;&gt;Node29</title>
<g id="a_edge29_Node000009_Node000029"><a xlink:title=" ">
<path fill="none" stroke="#63b8ff" d="M1543.37,-68.95C1537.21,-67.82 1530.97,-66.8 1525,-66 1275.17,-32.5 1208.43,-66.31 959,-30 955.99,-29.56 952.91,-29.05 949.81,-28.49"/>
<polygon fill="#63b8ff" stroke="#63b8ff" points="1542.35,-72.32 1552.84,-70.78 1543.68,-65.44 1542.35,-72.32"/>
</a>
</g>
</g>
<!-- Node31&#45;&gt;Node3 -->
<g id="edge33_Node000031_Node000003" class="edge">
<title>Node31&#45;&gt;Node3</title>
<g id="a_edge33_Node000031_Node000003"><a xlink:title=" ">
<path fill="none" stroke="#63b8ff" d="M2601.12,-67.43C2637.14,-54.91 2691.53,-35.99 2723.34,-24.93"/>
<polygon fill="#63b8ff" stroke="#63b8ff" points="2600.31,-64.01 2592.01,-70.6 2602.61,-70.62 2600.31,-64.01"/>
</a>
</g>
</g>
<!-- Node31&#45;&gt;Node21 -->
<g id="edge34_Node000031_Node000021" class="edge">
<title>Node31&#45;&gt;Node21</title>
<g id="a_edge34_Node000031_Node000021"><a xlink:title=" ">
<path fill="none" stroke="#63b8ff" d="M2506.41,-68.89C2454.87,-59.01 2377.86,-44.01 2311,-30 2303.43,-28.41 2295.37,-26.67 2287.62,-24.96"/>
<polygon fill="#63b8ff" stroke="#63b8ff" points="2505.68,-72.31 2516.16,-70.75 2507,-65.43 2505.68,-72.31"/>
</a>
</g>
</g>
<!-- Node31&#45;&gt;Node22 -->
<g id="edge39_Node000031_Node000022" class="edge">
<title>Node31&#45;&gt;Node22</title>
<g id="a_edge39_Node000031_Node000022"><a xlink:title=" ">
<path fill="none" stroke="#63b8ff" d="M2581.93,-63.33C2594.44,-51.02 2610.98,-34.73 2621.04,-24.82"/>
<polygon fill="#63b8ff" stroke="#63b8ff" points="2579.79,-60.53 2575.12,-70.04 2584.7,-65.52 2579.79,-60.53"/>
</a>
</g>
</g>
<!-- Node31&#45;&gt;Node24 -->
<g id="edge40_Node000031_Node000024" class="edge">
<title>Node31&#45;&gt;Node24</title>
<g id="a_edge40_Node000031_Node000024"><a xlink:title=" ">
<path fill="none" stroke="#63b8ff" d="M2548.07,-63.33C2535.56,-51.02 2519.02,-34.73 2508.96,-24.82"/>
<polygon fill="#63b8ff" stroke="#63b8ff" points="2545.3,-65.52 2554.88,-70.04 2550.21,-60.53 2545.3,-65.52"/>
</a>
</g>
</g>
<!-- Node31&#45;&gt;Node25 -->
<g id="edge41_Node000031_Node000025" class="edge">
<title>Node31&#45;&gt;Node25</title>
<g id="a_edge41_Node000031_Node000025"><a xlink:title=" ">
<path fill="none" stroke="#63b8ff" d="M2527.7,-67.43C2490.51,-54.91 2434.34,-35.99 2401.5,-24.93"/>
<polygon fill="#63b8ff" stroke="#63b8ff" points="2526.55,-70.74 2537.15,-70.62 2528.79,-64.11 2526.55,-70.74"/>
</a>
</g>
</g>
<!-- Node32 -->
<g id="Node000032" class="node">
<title>Node32</title>
<g id="a_Node000032"><a xlink:href="../../d9/d1a/cell__density_8c.html" target="_top" xlink:title="Functions to create the &#39;density adjustment&#39; tab in the cell edition window.">
<polygon fill="white" stroke="#666666" points="3331,-24.5 3205,-24.5 3205,-5.5 3331,-5.5 3331,-24.5"/>
<text text-anchor="middle" x="3268" y="-12.5" font-family="Helvetica,sans-Serif" font-size="10.00">opengl/edit/cell_density.c</text>
</a>
</g>
</g>
<!-- Node31&#45;&gt;Node32 -->
<g id="edge35_Node000031_Node000032" class="edge">
<title>Node31&#45;&gt;Node32</title>
<g id="a_edge35_Node000031_Node000032"><a xlink:title=" ">
<path fill="none" stroke="#63b8ff" d="M2612.87,-68.85C2618.62,-67.76 2624.43,-66.77 2630,-66 2879.67,-31.37 2945.99,-62.12 3196,-30 3205.98,-28.72 3216.65,-26.89 3226.65,-24.98"/>
<polygon fill="#63b8ff" stroke="#63b8ff" points="2612.55,-65.34 2603.44,-70.75 2613.93,-72.21 2612.55,-65.34"/>
</a>
</g>
</g>
<!-- Node33 -->
<g id="Node000033" class="node">
<title>Node33</title>
<g id="a_Node000033"><a xlink:href="../../d3/d1b/cell__edit_8c.html" target="_top" xlink:title="Functions to create the cell edition window.">
<polygon fill="white" stroke="#666666" points="2919.5,-24.5 2808.5,-24.5 2808.5,-5.5 2919.5,-5.5 2919.5,-24.5"/>
<text text-anchor="middle" x="2864" y="-12.5" font-family="Helvetica,sans-Serif" font-size="10.00">opengl/edit/cell_edit.c</text>
</a>
</g>
</g>
<!-- Node31&#45;&gt;Node33 -->
<g id="edge36_Node000031_Node000033" class="edge">
<title>Node31&#45;&gt;Node33</title>
<g id="a_edge36_Node000031_Node000033"><a xlink:title=" ">
<path fill="none" stroke="#63b8ff" d="M2617.65,-68.65C2621.83,-67.75 2625.98,-66.86 2630,-66 2705.09,-49.92 2723.91,-46.08 2799,-30 2806.56,-28.38 2814.62,-26.65 2822.39,-24.98"/>
<polygon fill="#63b8ff" stroke="#63b8ff" points="2617.13,-65.18 2608.09,-70.71 2618.6,-72.03 2617.13,-65.18"/>
</a>
</g>
</g>
<!-- Node34 -->
<g id="Node000034" class="node">
<title>Node34</title>
<g id="a_Node000034"><a xlink:href="../../d1/d9f/cell__extra_8c.html" target="_top" xlink:title="Functions to create the &#39;add cell(s)&#39; tab in the cell edition window.">
<polygon fill="white" stroke="#666666" points="3054.5,-24.5 2937.5,-24.5 2937.5,-5.5 3054.5,-5.5 3054.5,-24.5"/>
<text text-anchor="middle" x="2996" y="-12.5" font-family="Helvetica,sans-Serif" font-size="10.00">opengl/edit/cell_extra.c</text>
</a>
</g>
</g>
<!-- Node31&#45;&gt;Node34 -->
<g id="edge37_Node000031_Node000034" class="edge">
<title>Node31&#45;&gt;Node34</title>
<g id="a_edge37_Node000031_Node000034"><a xlink:title=" ">
<path fill="none" stroke="#63b8ff" d="M2614.82,-68.78C2619.93,-67.78 2625.06,-66.83 2630,-66 2762.01,-43.89 2796.92,-51.71 2929,-30 2937.79,-28.55 2947.19,-26.75 2956.07,-24.93"/>
<polygon fill="#63b8ff" stroke="#63b8ff" points="2614.31,-65.31 2605.21,-70.74 2615.71,-72.17 2614.31,-65.31"/>
</a>
</g>
</g>
<!-- Node35 -->
<g id="Node000035" class="node">
<title>Node35</title>
<g id="a_Node000035"><a xlink:href="../../d1/d4a/cell__shift_8c.html" target="_top" xlink:title="Functions to create the &#39;shift cell center&#39; tab for the cell edition window.">
<polygon fill="white" stroke="#666666" points="3187,-24.5 3073,-24.5 3073,-5.5 3187,-5.5 3187,-24.5"/>
<text text-anchor="middle" x="3130" y="-12.5" font-family="Helvetica,sans-Serif" font-size="10.00">opengl/edit/cell_shift.c</text>
</a>
</g>
</g>
<!-- Node31&#45;&gt;Node35 -->
<g id="edge38_Node000031_Node000035" class="edge">
<title>Node31&#45;&gt;Node35</title>
<g id="a_edge38_Node000031_Node000035"><a xlink:title=" ">
<path fill="none" stroke="#63b8ff" d="M2613.74,-68.79C2619.21,-67.74 2624.71,-66.79 2630,-66 2821.45,-37.56 2872.5,-58.14 3064,-30 3073.04,-28.67 3082.7,-26.85 3091.76,-24.97"/>
<polygon fill="#63b8ff" stroke="#63b8ff" points="2613.25,-65.32 2604.14,-70.73 2614.64,-72.18 2613.25,-65.32"/>
</a>
</g>
</g>
</g>
</svg>
