<?xml version="1.0" encoding="UTF-8" standalone="no"?>
<!DOCTYPE svg PUBLIC "-//W3C//DTD SVG 1.1//EN"
 "http://www.w3.org/Graphics/SVG/1.1/DTD/svg11.dtd">
<!-- Generated by graphviz version 7.1.0 (0)
 -->
<!-- Title: workspace/workspace.h Pages: 1 -->
<svg width="3339pt" height="159pt"
 viewBox="0.00 0.00 3339.00 159.00" xmlns="http://www.w3.org/2000/svg" xmlns:xlink="http://www.w3.org/1999/xlink">
<g id="graph0" class="graph" transform="scale(1 1) rotate(0) translate(4 155)">
<title>workspace/workspace.h</title>
<!-- Node1 -->
<g id="Node000001" class="node">
<title>Node1</title>
<g id="a_Node000001"><a xlink:title="Function declarations for workspace managment.">
<polygon fill="#999999" stroke="#666666" points="2434,-151 2312,-151 2312,-132 2434,-132 2434,-151"/>
<text text-anchor="middle" x="2373" y="-139" font-family="Helvetica,sans-Serif" font-size="10.00">workspace/workspace.h</text>
</a>
</g>
</g>
<!-- Node2 -->
<g id="Node000002" class="node">
<title>Node2</title>
<g id="a_Node000002"><a xlink:href="../../d8/d5e/calc__menu_8c.html" target="_top" xlink:title="Creation of the calculation dialogs.">
<polygon fill="white" stroke="#666666" points="1516,-90.5 1428,-90.5 1428,-71.5 1516,-71.5 1516,-90.5"/>
<text text-anchor="middle" x="1472" y="-78.5" font-family="Helvetica,sans-Serif" font-size="10.00">gui/calc_menu.c</text>
</a>
</g>
</g>
<!-- Node1&#45;&gt;Node2 -->
<g id="edge1_Node000001_Node000002" class="edge">
<title>Node1&#45;&gt;Node2</title>
<g id="a_edge1_Node000001_Node000002"><a xlink:title=" ">
<path fill="none" stroke="#63b8ff" d="M2300.37,-138.61C2123.39,-133.7 1673.49,-119.25 1525,-96 1517.29,-94.79 1509.08,-92.92 1501.48,-90.94"/>
<polygon fill="#63b8ff" stroke="#63b8ff" points="2300.02,-142.1 2310.12,-138.88 2300.22,-135.1 2300.02,-142.1"/>
</a>
</g>
</g>
<!-- Node3 -->
<g id="Node000003" class="node">
<title>Node3</title>
<g id="a_Node000003"><a xlink:href="../../d3/d3a/callbacks_8c.html" target="_top" xlink:title="General callbacks &#160;&#160;Functions to open and close files.">
<polygon fill="white" stroke="#666666" points="3199,-24.5 3117,-24.5 3117,-5.5 3199,-5.5 3199,-24.5"/>
<text text-anchor="middle" x="3158" y="-12.5" font-family="Helvetica,sans-Serif" font-size="10.00">gui/callbacks.c</text>
</a>
</g>
</g>
<!-- Node1&#45;&gt;Node3 -->
<g id="edge2_Node000001_Node000003" class="edge">
<title>Node1&#45;&gt;Node3</title>
<g id="a_edge2_Node000001_Node000003"><a xlink:title=" ">
<path fill="none" stroke="#63b8ff" d="M2445.59,-136.37C2537.88,-130.33 2691.53,-117.42 2744,-96 2764.25,-87.74 2762.72,-74.17 2783,-66 2917.8,-11.69 2965.33,-57.68 3108,-30 3114.9,-28.66 3122.24,-26.84 3129.11,-24.95"/>
<polygon fill="#63b8ff" stroke="#63b8ff" points="2445.64,-132.86 2435.89,-136.99 2446.09,-139.84 2445.64,-132.86"/>
</a>
</g>
</g>
<!-- Node4 -->
<g id="Node000004" class="node">
<title>Node4</title>
<g id="a_Node000004"><a xlink:href="../../d8/da6/edit__menu_8c.html" target="_top" xlink:title="Creation of the edition dialogs.">
<polygon fill="white" stroke="#666666" points="1989,-90.5 1903,-90.5 1903,-71.5 1989,-71.5 1989,-90.5"/>
<text text-anchor="middle" x="1946" y="-78.5" font-family="Helvetica,sans-Serif" font-size="10.00">gui/edit_menu.c</text>
</a>
</g>
</g>
<!-- Node1&#45;&gt;Node4 -->
<g id="edge3_Node000001_Node000004" class="edge">
<title>Node1&#45;&gt;Node4</title>
<g id="a_edge3_Node000001_Node000004"><a xlink:title=" ">
<path fill="none" stroke="#63b8ff" d="M2300.21,-135.01C2224.3,-128.55 2102.09,-116.08 1998,-96 1990.93,-94.64 1983.41,-92.83 1976.35,-90.96"/>
<polygon fill="#63b8ff" stroke="#63b8ff" points="2299.76,-138.48 2310.02,-135.83 2300.34,-131.51 2299.76,-138.48"/>
</a>
</g>
</g>
<!-- Node5 -->
<g id="Node000005" class="node">
<title>Node5</title>
<g id="a_Node000005"><a xlink:href="../../d5/d03/gui_8c.html" target="_top" xlink:title="GUI of the main window &#160;&#160;Menu elements of the workspace menu &#160;&#160;Creation of menu items,...">
<polygon fill="white" stroke="#666666" points="2060.5,-90.5 2007.5,-90.5 2007.5,-71.5 2060.5,-71.5 2060.5,-90.5"/>
<text text-anchor="middle" x="2034" y="-78.5" font-family="Helvetica,sans-Serif" font-size="10.00">gui/gui.c</text>
</a>
</g>
</g>
<!-- Node1&#45;&gt;Node5 -->
<g id="edge4_Node000001_Node000005" class="edge">
<title>Node1&#45;&gt;Node5</title>
<g id="a_edge4_Node000001_Node000005"><a xlink:title=" ">
<path fill="none" stroke="#63b8ff" d="M2300.32,-134.46C2238.35,-128.21 2147.31,-116.43 2070,-96 2064.94,-94.66 2059.63,-92.84 2054.68,-90.95"/>
<polygon fill="#63b8ff" stroke="#63b8ff" points="2299.74,-137.92 2310.03,-135.41 2300.42,-130.95 2299.74,-137.92"/>
</a>
</g>
</g>
<!-- Node6 -->
<g id="Node000006" class="node">
<title>Node6</title>
<g id="a_Node000006"><a xlink:href="../../dd/dc3/main-b_8c.html" target="_top" xlink:title=" ">
<polygon fill="white" stroke="#666666" points="2149,-90.5 2079,-90.5 2079,-71.5 2149,-71.5 2149,-90.5"/>
<text text-anchor="middle" x="2114" y="-78.5" font-family="Helvetica,sans-Serif" font-size="10.00">gui/main&#45;b.c</text>
</a>
</g>
</g>
<!-- Node1&#45;&gt;Node6 -->
<g id="edge5_Node000001_Node000006" class="edge">
<title>Node1&#45;&gt;Node6</title>
<g id="a_edge5_Node000001_Node000006"><a xlink:title=" ">
<path fill="none" stroke="#63b8ff" d="M2311.08,-129.45C2267.91,-121.32 2209.11,-109.38 2158,-96 2152.26,-94.5 2146.16,-92.69 2140.39,-90.89"/>
<polygon fill="#63b8ff" stroke="#63b8ff" points="2310.3,-132.87 2320.78,-131.26 2311.59,-125.99 2310.3,-132.87"/>
</a>
</g>
</g>
<!-- Node7 -->
<g id="Node000007" class="node">
<title>Node7</title>
<g id="a_Node000007"><a xlink:href="../../d0/d29/main_8c.html" target="_top" xlink:title="Initialization of the atomes program &#160;&#160;Functions required to read data from the command line.">
<polygon fill="white" stroke="#666666" points="2229,-90.5 2167,-90.5 2167,-71.5 2229,-71.5 2229,-90.5"/>
<text text-anchor="middle" x="2198" y="-78.5" font-family="Helvetica,sans-Serif" font-size="10.00">gui/main.c</text>
</a>
</g>
</g>
<!-- Node1&#45;&gt;Node7 -->
<g id="edge6_Node000001_Node000007" class="edge">
<title>Node1&#45;&gt;Node7</title>
<g id="a_edge6_Node000001_Node000007"><a xlink:title=" ">
<path fill="none" stroke="#63b8ff" d="M2334.35,-127.97C2307.32,-119.15 2270.41,-107.01 2238,-96 2233.26,-94.39 2228.22,-92.65 2223.37,-90.96"/>
<polygon fill="#63b8ff" stroke="#63b8ff" points="2333.25,-131.29 2343.85,-131.06 2335.42,-124.64 2333.25,-131.29"/>
</a>
</g>
</g>
<!-- Node8 -->
<g id="Node000008" class="node">
<title>Node8</title>
<g id="a_Node000008"><a xlink:href="../../d1/d9e/tools_8c.html" target="_top" xlink:title="Callbacks for the toolbox dialog.">
<polygon fill="white" stroke="#666666" points="2309,-90.5 2247,-90.5 2247,-71.5 2309,-71.5 2309,-90.5"/>
<text text-anchor="middle" x="2278" y="-78.5" font-family="Helvetica,sans-Serif" font-size="10.00">gui/tools.c</text>
</a>
</g>
</g>
<!-- Node1&#45;&gt;Node8 -->
<g id="edge7_Node000001_Node000008" class="edge">
<title>Node1&#45;&gt;Node8</title>
<g id="a_edge7_Node000001_Node000008"><a xlink:title=" ">
<path fill="none" stroke="#63b8ff" d="M2348.89,-125.66C2331.13,-114.72 2307.54,-100.19 2292.56,-90.97"/>
<polygon fill="#63b8ff" stroke="#63b8ff" points="2346.93,-128.56 2357.28,-130.82 2350.6,-122.6 2346.93,-128.56"/>
</a>
</g>
</g>
<!-- Node9 -->
<g id="Node000009" class="node">
<title>Node9</title>
<g id="a_Node000009"><a xlink:href="../../d7/d29/work__menu_8c.html" target="_top" xlink:title="Workspace menu GTK3 version &#160;&#160;Callbacks for the workspace menu.">
<polygon fill="white" stroke="#666666" points="2418.5,-90.5 2327.5,-90.5 2327.5,-71.5 2418.5,-71.5 2418.5,-90.5"/>
<text text-anchor="middle" x="2373" y="-78.5" font-family="Helvetica,sans-Serif" font-size="10.00">gui/work_menu.c</text>
</a>
</g>
</g>
<!-- Node1&#45;&gt;Node9 -->
<g id="edge8_Node000001_Node000009" class="edge">
<title>Node1&#45;&gt;Node9</title>
<g id="a_edge8_Node000001_Node000009"><a xlink:title=" ">
<path fill="none" stroke="#63b8ff" d="M2373,-120.66C2373,-110.45 2373,-98.54 2373,-90.67"/>
<polygon fill="#63b8ff" stroke="#63b8ff" points="2369.5,-120.35 2373,-130.35 2376.5,-120.35 2369.5,-120.35"/>
</a>
</g>
</g>
<!-- Node10 -->
<g id="Node000010" class="node">
<title>Node10</title>
<g id="a_Node000010"><a xlink:href="../../d5/d9c/atom__edit_8h.html" target="_top" xlink:title="Function declarations for the mode edition window.">
<polygon fill="white" stroke="#666666" points="1652,-90.5 1534,-90.5 1534,-71.5 1652,-71.5 1652,-90.5"/>
<text text-anchor="middle" x="1593" y="-78.5" font-family="Helvetica,sans-Serif" font-size="10.00">opengl/edit/atom_edit.h</text>
</a>
</g>
</g>
<!-- Node1&#45;&gt;Node10 -->
<g id="edge9_Node000001_Node000010" class="edge">
<title>Node1&#45;&gt;Node10</title>
<g id="a_edge9_Node000001_Node000010"><a xlink:title=" ">
<path fill="none" stroke="#63b8ff" d="M2300.68,-135.08C2147.58,-123.59 1793.21,-97.02 1652.32,-86.45"/>
<polygon fill="#63b8ff" stroke="#63b8ff" points="2300.05,-138.54 2310.29,-135.8 2300.58,-131.56 2300.05,-138.54"/>
</a>
</g>
</g>
<!-- Node21 -->
<g id="Node000021" class="node">
<title>Node21</title>
<g id="a_Node000021"><a xlink:href="../../d0/dd3/cbuild__action_8c.html" target="_top" xlink:title="Functions to build a crystal using space group, crystallographic position(s) and object(s) to insert.">
<polygon fill="white" stroke="#666666" points="2056,-30 1964,-30 1964,0 2056,0 2056,-30"/>
<text text-anchor="start" x="1972" y="-18" font-family="Helvetica,sans-Serif" font-size="10.00">opengl/edit/cbuild</text>
<text text-anchor="middle" x="2010" y="-7" font-family="Helvetica,sans-Serif" font-size="10.00">_action.c</text>
</a>
</g>
</g>
<!-- Node1&#45;&gt;Node21 -->
<g id="edge31_Node000001_Node000021" class="edge">
<title>Node1&#45;&gt;Node21</title>
<g id="a_edge31_Node000001_Node000021"><a xlink:title=" ">
<path fill="none" stroke="#63b8ff" d="M2397.22,-125.31C2419.09,-109.75 2445.39,-85.2 2428,-66 2373.58,-5.92 2144.84,-44.04 2065,-30 2062.19,-29.51 2059.3,-28.94 2056.4,-28.33"/>
<polygon fill="#63b8ff" stroke="#63b8ff" points="2395.53,-122.22 2389.21,-130.73 2399.45,-128.02 2395.53,-122.22"/>
</a>
</g>
</g>
<!-- Node27 -->
<g id="Node000027" class="node">
<title>Node27</title>
<g id="a_Node000027"><a xlink:href="../../d5/da4/popup_8c.html" target="_top" xlink:title="Functions to create the OpenGL window popup menus:">
<polygon fill="white" stroke="#666666" points="2175.5,-24.5 2074.5,-24.5 2074.5,-5.5 2175.5,-5.5 2175.5,-24.5"/>
<text text-anchor="middle" x="2125" y="-12.5" font-family="Helvetica,sans-Serif" font-size="10.00">opengl/win/popup.c</text>
</a>
</g>
</g>
<!-- Node1&#45;&gt;Node27 -->
<g id="edge43_Node000001_Node000027" class="edge">
<title>Node1&#45;&gt;Node27</title>
<g id="a_edge43_Node000001_Node000027"><a xlink:title=" ">
<path fill="none" stroke="#63b8ff" d="M2420.87,-127.46C2436.41,-120.71 2451.97,-110.69 2461,-96 2467.98,-84.64 2469.8,-76.02 2461,-66 2420.03,-19.36 2245.06,-41.18 2184,-30 2176.23,-28.58 2167.95,-26.79 2160.13,-24.97"/>
<polygon fill="#63b8ff" stroke="#63b8ff" points="2419.65,-124.18 2411.6,-131.08 2422.19,-130.7 2419.65,-124.18"/>
</a>
</g>
</g>
<!-- Node31 -->
<g id="Node000031" class="node">
<title>Node31</title>
<g id="a_Node000031"><a xlink:href="../../db/d0b/cbuild__edit_8c.html" target="_top" xlink:title="Functions to create the crystal builder window.">
<polygon fill="white" stroke="#666666" points="2735,-96 2643,-96 2643,-66 2735,-66 2735,-96"/>
<text text-anchor="start" x="2651" y="-84" font-family="Helvetica,sans-Serif" font-size="10.00">opengl/edit/cbuild</text>
<text text-anchor="middle" x="2689" y="-73" font-family="Helvetica,sans-Serif" font-size="10.00">_edit.c</text>
</a>
</g>
</g>
<!-- Node1&#45;&gt;Node31 -->
<g id="edge32_Node000001_Node000031" class="edge">
<title>Node1&#45;&gt;Node31</title>
<g id="a_edge32_Node000001_Node000031"><a xlink:title=" ">
<path fill="none" stroke="#63b8ff" d="M2445.14,-129.8C2497.71,-121.61 2570.53,-109.47 2634,-96 2636.8,-95.41 2639.66,-94.77 2642.55,-94.1"/>
<polygon fill="#63b8ff" stroke="#63b8ff" points="2444.75,-126.31 2435.41,-131.3 2445.82,-133.23 2444.75,-126.31"/>
</a>
</g>
</g>
<!-- Node32 -->
<g id="Node000032" class="node">
<title>Node32</title>
<g id="a_Node000032"><a xlink:href="../../d9/d97/cell__edit_8h.html" target="_top" xlink:title="Function declarations for the cell edition window.">
<polygon fill="white" stroke="#666666" points="2624.5,-90.5 2513.5,-90.5 2513.5,-71.5 2624.5,-71.5 2624.5,-90.5"/>
<text text-anchor="middle" x="2569" y="-78.5" font-family="Helvetica,sans-Serif" font-size="10.00">opengl/edit/cell_edit.h</text>
</a>
</g>
</g>
<!-- Node1&#45;&gt;Node32 -->
<g id="edge33_Node000001_Node000032" class="edge">
<title>Node1&#45;&gt;Node32</title>
<g id="a_edge33_Node000001_Node000032"><a xlink:title=" ">
<path fill="none" stroke="#63b8ff" d="M2413.76,-128.33C2451.08,-117.2 2505.45,-100.97 2538.95,-90.97"/>
<polygon fill="#63b8ff" stroke="#63b8ff" points="2412.8,-124.97 2404.22,-131.18 2414.8,-131.68 2412.8,-124.97"/>
</a>
</g>
</g>
<!-- Node37 -->
<g id="Node000037" class="node">
<title>Node37</title>
<g id="a_Node000037"><a xlink:href="../../d3/d50/close__p_8c.html" target="_top" xlink:title="Functions to close an atomes project &#160;&#160;Callbacks to close an atomes project.">
<polygon fill="white" stroke="#666666" points="2882.5,-90.5 2791.5,-90.5 2791.5,-71.5 2882.5,-71.5 2882.5,-90.5"/>
<text text-anchor="middle" x="2837" y="-78.5" font-family="Helvetica,sans-Serif" font-size="10.00">project/close_p.c</text>
</a>
</g>
</g>
<!-- Node1&#45;&gt;Node37 -->
<g id="edge44_Node000001_Node000037" class="edge">
<title>Node1&#45;&gt;Node37</title>
<g id="a_edge44_Node000001_Node000037"><a xlink:title=" ">
<path fill="none" stroke="#63b8ff" d="M2445.31,-135.16C2526.43,-128.56 2661.75,-115.72 2777,-96 2785.01,-94.63 2793.56,-92.84 2801.61,-91"/>
<polygon fill="#63b8ff" stroke="#63b8ff" points="2445.43,-131.64 2435.74,-135.93 2445.99,-138.61 2445.43,-131.64"/>
</a>
</g>
</g>
<!-- Node38 -->
<g id="Node000038" class="node">
<title>Node38</title>
<g id="a_Node000038"><a xlink:href="../../db/d3e/update__p_8c.html" target="_top" xlink:title="Functions to update a project &#160;&#160;Functions to activate a project.">
<polygon fill="white" stroke="#666666" points="2997.5,-90.5 2900.5,-90.5 2900.5,-71.5 2997.5,-71.5 2997.5,-90.5"/>
<text text-anchor="middle" x="2949" y="-78.5" font-family="Helvetica,sans-Serif" font-size="10.00">project/update_p.c</text>
</a>
</g>
</g>
<!-- Node1&#45;&gt;Node38 -->
<g id="edge45_Node000001_Node000038" class="edge">
<title>Node1&#45;&gt;Node38</title>
<g id="a_edge45_Node000001_Node000038"><a xlink:title=" ">
<path fill="none" stroke="#63b8ff" d="M2445.35,-137.85C2546.05,-133.35 2733.9,-122.03 2892,-96 2899.94,-94.69 2908.41,-92.86 2916.33,-90.95"/>
<polygon fill="#63b8ff" stroke="#63b8ff" points="2445.46,-134.34 2435.62,-138.27 2445.76,-141.33 2445.46,-134.34"/>
</a>
</g>
</g>
<!-- Node10&#45;&gt;Node3 -->
<g id="edge10_Node000010_Node000003" class="edge">
<title>Node10&#45;&gt;Node3</title>
<g id="a_edge10_Node000010_Node000003"><a xlink:title=" ">
<path fill="none" stroke="#63b8ff" d="M1663.8,-76.37C1724.79,-73.32 1815.18,-69 1894,-66 2163.7,-55.73 2841.19,-70.69 3108,-30 3115.4,-28.87 3123.25,-27 3130.49,-24.99"/>
<polygon fill="#63b8ff" stroke="#63b8ff" points="1663.71,-72.87 1653.9,-76.87 1664.06,-79.86 1663.71,-72.87"/>
</a>
</g>
</g>
<!-- Node11 -->
<g id="Node000011" class="node">
<title>Node11</title>
<g id="a_Node000011"><a xlink:href="../../d8/d15/atom__action_8c.html" target="_top" xlink:title="Functions to apply the edition actions to the model.">
<polygon fill="white" stroke="#666666" points="1096,-24.5 968,-24.5 968,-5.5 1096,-5.5 1096,-24.5"/>
<text text-anchor="middle" x="1032" y="-12.5" font-family="Helvetica,sans-Serif" font-size="10.00">opengl/edit/atom_action.c</text>
</a>
</g>
</g>
<!-- Node10&#45;&gt;Node11 -->
<g id="edge11_Node000010_Node000011" class="edge">
<title>Node10&#45;&gt;Node11</title>
<g id="a_edge11_Node000010_Node000011"><a xlink:title=" ">
<path fill="none" stroke="#63b8ff" d="M1542.44,-68.91C1536.58,-67.82 1530.67,-66.82 1525,-66 1339.6,-39.06 1290.58,-55.68 1105,-30 1095.16,-28.64 1084.63,-26.83 1074.72,-24.96"/>
<polygon fill="#63b8ff" stroke="#63b8ff" points="1541.62,-72.31 1552.1,-70.78 1542.95,-65.44 1541.62,-72.31"/>
</a>
</g>
</g>
<!-- Node12 -->
<g id="Node000012" class="node">
<title>Node12</title>
<g id="a_Node000012"><a xlink:href="../../d9/dbe/atom__coord_8c.html" target="_top" xlink:title="Functions to correct the coordination menus and the corresponding data pointers after edition.">
<polygon fill="white" stroke="#666666" points="1240,-24.5 1114,-24.5 1114,-5.5 1240,-5.5 1240,-24.5"/>
<text text-anchor="middle" x="1177" y="-12.5" font-family="Helvetica,sans-Serif" font-size="10.00">opengl/edit/atom_coord.c</text>
</a>
</g>
</g>
<!-- Node10&#45;&gt;Node12 -->
<g id="edge12_Node000010_Node000012" class="edge">
<title>Node10&#45;&gt;Node12</title>
<g id="a_edge12_Node000010_Node000012"><a xlink:title=" ">
<path fill="none" stroke="#63b8ff" d="M1541.07,-68.9C1535.66,-67.87 1530.22,-66.88 1525,-66 1403,-45.51 1371.11,-49.82 1249,-30 1239.82,-28.51 1230.03,-26.73 1220.71,-24.95"/>
<polygon fill="#63b8ff" stroke="#63b8ff" points="1540.13,-72.28 1550.61,-70.78 1541.48,-65.41 1540.13,-72.28"/>
</a>
</g>
</g>
<!-- Node13 -->
<g id="Node000013" class="node">
<title>Node13</title>
<g id="a_Node000013"><a xlink:href="../../dc/d6c/atom__edit_8c.html" target="_top" xlink:title="Functions to create the model edition window.">
<polygon fill="white" stroke="#666666" points="1376,-24.5 1258,-24.5 1258,-5.5 1376,-5.5 1376,-24.5"/>
<text text-anchor="middle" x="1317" y="-12.5" font-family="Helvetica,sans-Serif" font-size="10.00">opengl/edit/atom_edit.c</text>
</a>
</g>
</g>
<!-- Node10&#45;&gt;Node13 -->
<g id="edge13_Node000010_Node000013" class="edge">
<title>Node10&#45;&gt;Node13</title>
<g id="a_edge13_Node000010_Node000013"><a xlink:title=" ">
<path fill="none" stroke="#63b8ff" d="M1543.32,-68.48C1489.4,-55.98 1404.45,-36.28 1355.41,-24.91"/>
<polygon fill="#63b8ff" stroke="#63b8ff" points="1542.33,-71.84 1552.86,-70.69 1543.91,-65.02 1542.33,-71.84"/>
</a>
</g>
</g>
<!-- Node14 -->
<g id="Node000014" class="node">
<title>Node14</title>
<g id="a_Node000014"><a xlink:href="../../d2/d4a/atom__geo_8c.html" target="_top" xlink:title="Functions to check for the appropriate atomic coordinations.">
<polygon fill="white" stroke="#666666" points="1512,-24.5 1394,-24.5 1394,-5.5 1512,-5.5 1512,-24.5"/>
<text text-anchor="middle" x="1453" y="-12.5" font-family="Helvetica,sans-Serif" font-size="10.00">opengl/edit/atom_geo.c</text>
</a>
</g>
</g>
<!-- Node10&#45;&gt;Node14 -->
<g id="edge14_Node000010_Node000014" class="edge">
<title>Node10&#45;&gt;Node14</title>
<g id="a_edge14_Node000010_Node000014"><a xlink:title=" ">
<path fill="none" stroke="#63b8ff" d="M1563.33,-66.44C1535.87,-53.88 1495.84,-35.58 1472.3,-24.82"/>
<polygon fill="#63b8ff" stroke="#63b8ff" points="1561.61,-69.5 1572.16,-70.47 1564.52,-63.13 1561.61,-69.5"/>
</a>
</g>
</g>
<!-- Node15 -->
<g id="Node000015" class="node">
<title>Node15</title>
<g id="a_Node000015"><a xlink:href="../../dd/d0b/atom__insert_8c.html" target="_top" xlink:title="Functions to insert bond(s) in a project.">
<polygon fill="white" stroke="#666666" points="1656,-24.5 1530,-24.5 1530,-5.5 1656,-5.5 1656,-24.5"/>
<text text-anchor="middle" x="1593" y="-12.5" font-family="Helvetica,sans-Serif" font-size="10.00">opengl/edit/atom_insert.c</text>
</a>
</g>
</g>
<!-- Node10&#45;&gt;Node15 -->
<g id="edge15_Node000010_Node000015" class="edge">
<title>Node10&#45;&gt;Node15</title>
<g id="a_edge15_Node000010_Node000015"><a xlink:title=" ">
<path fill="none" stroke="#63b8ff" d="M1593,-59.68C1593,-47.94 1593,-33.77 1593,-24.82"/>
<polygon fill="#63b8ff" stroke="#63b8ff" points="1589.5,-59.59 1593,-69.59 1596.5,-59.59 1589.5,-59.59"/>
</a>
</g>
</g>
<!-- Node16 -->
<g id="Node000016" class="node">
<title>Node16</title>
<g id="a_Node000016"><a xlink:href="../../d7/d27/atom__move_8c.html" target="_top" xlink:title="Functions to move atom(s) and group of atom(s) &#160;&#160;Functions to move randomly atom(s) and group of atom...">
<polygon fill="white" stroke="#666666" points="1800,-24.5 1674,-24.5 1674,-5.5 1800,-5.5 1800,-24.5"/>
<text text-anchor="middle" x="1737" y="-12.5" font-family="Helvetica,sans-Serif" font-size="10.00">opengl/edit/atom_move.c</text>
</a>
</g>
</g>
<!-- Node10&#45;&gt;Node16 -->
<g id="edge16_Node000010_Node000016" class="edge">
<title>Node10&#45;&gt;Node16</title>
<g id="a_edge16_Node000010_Node000016"><a xlink:title=" ">
<path fill="none" stroke="#63b8ff" d="M1623.52,-66.44C1651.76,-53.88 1692.94,-35.58 1717.15,-24.82"/>
<polygon fill="#63b8ff" stroke="#63b8ff" points="1622.12,-63.23 1614.41,-70.49 1624.97,-69.62 1622.12,-63.23"/>
</a>
</g>
</g>
<!-- Node17 -->
<g id="Node000017" class="node">
<title>Node17</title>
<g id="a_Node000017"><a xlink:href="../../d7/d6a/atom__object_8c.html" target="_top" xlink:title="Functions to create atomic objects.">
<polygon fill="white" stroke="#666666" points="1946,-24.5 1818,-24.5 1818,-5.5 1946,-5.5 1946,-24.5"/>
<text text-anchor="middle" x="1882" y="-12.5" font-family="Helvetica,sans-Serif" font-size="10.00">opengl/edit/atom_object.c</text>
</a>
</g>
</g>
<!-- Node10&#45;&gt;Node17 -->
<g id="edge17_Node000010_Node000017" class="edge">
<title>Node10&#45;&gt;Node17</title>
<g id="a_edge17_Node000010_Node000017"><a xlink:title=" ">
<path fill="none" stroke="#63b8ff" d="M1644.66,-68.56C1701.11,-56.06 1790.33,-36.3 1841.79,-24.91"/>
<polygon fill="#63b8ff" stroke="#63b8ff" points="1643.97,-65.13 1634.97,-70.71 1645.49,-71.96 1643.97,-65.13"/>
</a>
</g>
</g>
<!-- Node18 -->
<g id="Node000018" class="node">
<title>Node18</title>
<g id="a_Node000018"><a xlink:href="../../d3/ded/atom__remove_8c.html" target="_top" xlink:title="Functions to remove bond(s) from a project &#160;&#160;Function to prepare the passivation (removal followed by...">
<polygon fill="white" stroke="#666666" points="134,-24.5 0,-24.5 0,-5.5 134,-5.5 134,-24.5"/>
<text text-anchor="middle" x="67" y="-12.5" font-family="Helvetica,sans-Serif" font-size="10.00">opengl/edit/atom_remove.c</text>
</a>
</g>
</g>
<!-- Node10&#45;&gt;Node18 -->
<g id="edge18_Node000010_Node000018" class="edge">
<title>Node10&#45;&gt;Node18</title>
<g id="a_edge18_Node000010_Node000018"><a xlink:title=" ">
<path fill="none" stroke="#63b8ff" d="M1544.57,-68.94C1538.02,-67.76 1531.37,-66.73 1525,-66 914.6,4.23 754.1,-93.85 143,-30 131.92,-28.84 120.04,-26.96 109.04,-24.95"/>
<polygon fill="#63b8ff" stroke="#63b8ff" points="1543.46,-72.29 1553.94,-70.74 1544.78,-65.42 1543.46,-72.29"/>
</a>
</g>
</g>
<!-- Node19 -->
<g id="Node000019" class="node">
<title>Node19</title>
<g id="a_Node000019"><a xlink:href="../../d9/d33/atom__search_8c.html" target="_top" xlink:title="Functions to prepare the model edition &#39;search&#39; tabs and the associated widgets.">
<polygon fill="white" stroke="#666666" points="283.5,-24.5 152.5,-24.5 152.5,-5.5 283.5,-5.5 283.5,-24.5"/>
<text text-anchor="middle" x="218" y="-12.5" font-family="Helvetica,sans-Serif" font-size="10.00">opengl/edit/atom_search.c</text>
</a>
</g>
</g>
<!-- Node10&#45;&gt;Node19 -->
<g id="edge19_Node000010_Node000019" class="edge">
<title>Node10&#45;&gt;Node19</title>
<g id="a_edge19_Node000010_Node000019"><a xlink:title=" ">
<path fill="none" stroke="#63b8ff" d="M1544.57,-68.96C1538.02,-67.78 1531.37,-66.74 1525,-66 980.9,-2.53 837.66,-88.44 293,-30 282.07,-28.83 270.34,-26.94 259.48,-24.93"/>
<polygon fill="#63b8ff" stroke="#63b8ff" points="1543.46,-72.31 1553.94,-70.76 1544.78,-65.44 1543.46,-72.31"/>
</a>
</g>
</g>
<!-- Node20 -->
<g id="Node000020" class="node">
<title>Node20</title>
<g id="a_Node000020"><a xlink:href="../../dd/d37/atom__species_8c.html" target="_top" xlink:title="Functions to look for new chemical species and modify the chemical information accordingly.">
<polygon fill="white" stroke="#666666" points="438,-24.5 302,-24.5 302,-5.5 438,-5.5 438,-24.5"/>
<text text-anchor="middle" x="370" y="-12.5" font-family="Helvetica,sans-Serif" font-size="10.00">opengl/edit/atom_species.c</text>
</a>
</g>
</g>
<!-- Node10&#45;&gt;Node20 -->
<g id="edge20_Node000010_Node000020" class="edge">
<title>Node10&#45;&gt;Node20</title>
<g id="a_edge20_Node000010_Node000020"><a xlink:title=" ">
<path fill="none" stroke="#63b8ff" d="M1543.86,-68.86C1537.54,-67.73 1531.13,-66.73 1525,-66 1048.97,-9.46 923.66,-81.01 447,-30 435.92,-28.81 424.04,-26.95 413.01,-24.97"/>
<polygon fill="#63b8ff" stroke="#63b8ff" points="1543.1,-72.27 1553.58,-70.72 1544.41,-65.4 1543.1,-72.27"/>
</a>
</g>
</g>
<!-- Node10&#45;&gt;Node21 -->
<g id="edge21_Node000010_Node000021" class="edge">
<title>Node10&#45;&gt;Node21</title>
<g id="a_edge21_Node000010_Node000021"><a xlink:title=" ">
<path fill="none" stroke="#63b8ff" d="M1663.64,-72.61C1736.89,-64.4 1854.53,-49.66 1955,-30 1957.8,-29.45 1960.68,-28.85 1963.57,-28.21"/>
<polygon fill="#63b8ff" stroke="#63b8ff" points="1663.33,-69.13 1653.78,-73.71 1664.1,-76.08 1663.33,-69.13"/>
</a>
</g>
</g>
<!-- Node22 -->
<g id="Node000022" class="node">
<title>Node22</title>
<g id="a_Node000022"><a xlink:href="../../d2/d17/cell__cut_8c.html" target="_top" xlink:title="Functions to create the &#39;slab cutting&#39; tab of the cell edition window.">
<polygon fill="white" stroke="#666666" points="2302.5,-24.5 2193.5,-24.5 2193.5,-5.5 2302.5,-5.5 2302.5,-24.5"/>
<text text-anchor="middle" x="2248" y="-12.5" font-family="Helvetica,sans-Serif" font-size="10.00">opengl/edit/cell_cut.c</text>
</a>
</g>
</g>
<!-- Node10&#45;&gt;Node22 -->
<g id="edge22_Node000010_Node000022" class="edge">
<title>Node10&#45;&gt;Node22</title>
<g id="a_edge22_Node000010_Node000022"><a xlink:title=" ">
<path fill="none" stroke="#63b8ff" d="M1663.83,-77.01C1775.09,-71.64 1997.41,-58.18 2184,-30 2192.77,-28.68 2202.14,-26.86 2210.93,-24.97"/>
<polygon fill="#63b8ff" stroke="#63b8ff" points="1663.77,-73.51 1653.95,-77.48 1664.11,-80.5 1663.77,-73.51"/>
</a>
</g>
</g>
<!-- Node23 -->
<g id="Node000023" class="node">
<title>Node23</title>
<g id="a_Node000023"><a xlink:href="../../d8/d1c/cell__super_8c.html" target="_top" xlink:title="Functions to create a super&#45;cell using the extra cell(s)">
<polygon fill="white" stroke="#666666" points="2562.5,-24.5 2443.5,-24.5 2443.5,-5.5 2562.5,-5.5 2562.5,-24.5"/>
<text text-anchor="middle" x="2503" y="-12.5" font-family="Helvetica,sans-Serif" font-size="10.00">opengl/edit/cell_super.c</text>
</a>
</g>
</g>
<!-- Node10&#45;&gt;Node23 -->
<g id="edge23_Node000010_Node000023" class="edge">
<title>Node10&#45;&gt;Node23</title>
<g id="a_edge23_Node000010_Node000023"><a xlink:title=" ">
<path fill="none" stroke="#63b8ff" d="M1663.94,-76.36C1852.82,-66.58 2358.75,-39.82 2434,-30 2443.7,-28.73 2454.07,-26.89 2463.75,-24.96"/>
<polygon fill="#63b8ff" stroke="#63b8ff" points="1663.81,-72.86 1654.01,-76.87 1664.17,-79.85 1663.81,-72.86"/>
</a>
</g>
</g>
<!-- Node24 -->
<g id="Node000024" class="node">
<title>Node24</title>
<g id="a_Node000024"><a xlink:href="../../dc/d50/selection_8c.html" target="_top" xlink:title="Functions handling the atom and bond selection process in the OpenGL window.">
<polygon fill="white" stroke="#666666" points="551.5,-24.5 456.5,-24.5 456.5,-5.5 551.5,-5.5 551.5,-24.5"/>
<text text-anchor="middle" x="504" y="-12.5" font-family="Helvetica,sans-Serif" font-size="10.00">opengl/selection.c</text>
</a>
</g>
</g>
<!-- Node10&#45;&gt;Node24 -->
<g id="edge24_Node000010_Node000024" class="edge">
<title>Node10&#45;&gt;Node24</title>
<g id="a_edge24_Node000010_Node000024"><a xlink:title=" ">
<path fill="none" stroke="#63b8ff" d="M1543.85,-68.88C1537.54,-67.75 1531.13,-66.74 1525,-66 1099.35,-14.59 985.6,-89.44 561,-30 552.62,-28.83 543.69,-26.94 535.43,-24.93"/>
<polygon fill="#63b8ff" stroke="#63b8ff" points="1543.09,-72.3 1553.57,-70.75 1544.41,-65.42 1543.09,-72.3"/>
</a>
</g>
</g>
<!-- Node25 -->
<g id="Node000025" class="node">
<title>Node25</title>
<g id="a_Node000025"><a xlink:href="../../db/d42/m__edit_8c.html" target="_top" xlink:title="Functions to create the &#39;Tools &#45;&gt; Edit&#39; submenu.">
<polygon fill="white" stroke="#666666" points="2425,-24.5 2321,-24.5 2321,-5.5 2425,-5.5 2425,-24.5"/>
<text text-anchor="middle" x="2373" y="-12.5" font-family="Helvetica,sans-Serif" font-size="10.00">opengl/win/m_edit.c</text>
</a>
</g>
</g>
<!-- Node10&#45;&gt;Node25 -->
<g id="edge25_Node000010_Node000025" class="edge">
<title>Node10&#45;&gt;Node25</title>
<g id="a_edge25_Node000010_Node000025"><a xlink:title=" ">
<path fill="none" stroke="#63b8ff" d="M1663.69,-76.49C1819.48,-68.54 2188.31,-48.38 2312,-30 2320.6,-28.72 2329.78,-26.88 2338.34,-24.94"/>
<polygon fill="#63b8ff" stroke="#63b8ff" points="1663.73,-72.99 1653.92,-76.99 1664.08,-79.98 1663.73,-72.99"/>
</a>
</g>
</g>
<!-- Node26 -->
<g id="Node000026" class="node">
<title>Node26</title>
<g id="a_Node000026"><a xlink:href="../../d3/d51/m__tools_8c.html" target="_top" xlink:title="Functions to create the &#39;Tools&#39; submenu.">
<polygon fill="white" stroke="#666666" points="2689.5,-24.5 2580.5,-24.5 2580.5,-5.5 2689.5,-5.5 2689.5,-24.5"/>
<text text-anchor="middle" x="2635" y="-12.5" font-family="Helvetica,sans-Serif" font-size="10.00">opengl/win/m_tools.c</text>
</a>
</g>
</g>
<!-- Node10&#45;&gt;Node26 -->
<g id="edge26_Node000010_Node000026" class="edge">
<title>Node10&#45;&gt;Node26</title>
<g id="a_edge26_Node000010_Node000026"><a xlink:title=" ">
<path fill="none" stroke="#63b8ff" d="M1663.72,-76.71C1881.04,-66.57 2527.16,-36.08 2572,-30 2580.99,-28.78 2590.6,-26.93 2599.54,-24.97"/>
<polygon fill="#63b8ff" stroke="#63b8ff" points="1663.81,-73.21 1653.98,-77.17 1664.13,-80.2 1663.81,-73.21"/>
</a>
</g>
</g>
<!-- Node10&#45;&gt;Node27 -->
<g id="edge27_Node000010_Node000027" class="edge">
<title>Node10&#45;&gt;Node27</title>
<g id="a_edge27_Node000010_Node000027"><a xlink:title=" ">
<path fill="none" stroke="#63b8ff" d="M1663.65,-75.26C1756.27,-68.41 1923.58,-53.9 2065,-30 2073.12,-28.63 2081.79,-26.81 2089.93,-24.95"/>
<polygon fill="#63b8ff" stroke="#63b8ff" points="1663.42,-71.76 1653.7,-75.98 1663.92,-78.75 1663.42,-71.76"/>
</a>
</g>
</g>
<!-- Node28 -->
<g id="Node000028" class="node">
<title>Node28</title>
<g id="a_Node000028"><a xlink:href="../../de/dc7/w__search_8c.html" target="_top" xlink:title="Functions to create the object search widgets, for:">
<polygon fill="white" stroke="#666666" points="686,-24.5 570,-24.5 570,-5.5 686,-5.5 686,-24.5"/>
<text text-anchor="middle" x="628" y="-12.5" font-family="Helvetica,sans-Serif" font-size="10.00">opengl/win/w_search.c</text>
</a>
</g>
</g>
<!-- Node10&#45;&gt;Node28 -->
<g id="edge28_Node000010_Node000028" class="edge">
<title>Node10&#45;&gt;Node28</title>
<g id="a_edge28_Node000010_Node000028"><a xlink:title=" ">
<path fill="none" stroke="#63b8ff" d="M1543.85,-68.92C1537.53,-67.78 1531.13,-66.76 1525,-66 1158.56,-20.63 1061.37,-75.91 695,-30 685.33,-28.79 674.98,-26.92 665.38,-24.93"/>
<polygon fill="#63b8ff" stroke="#63b8ff" points="1543.09,-72.33 1553.57,-70.79 1544.41,-65.46 1543.09,-72.33"/>
</a>
</g>
</g>
<!-- Node29 -->
<g id="Node000029" class="node">
<title>Node29</title>
<g id="a_Node000029"><a xlink:href="../../d8/de9/w__volumes_8c.html" target="_top" xlink:title="Functions to create the &#39;Volumes&#39; window &#160;&#160;Functions to compute system / fragment / molecular volumes...">
<polygon fill="white" stroke="#666666" points="828,-24.5 704,-24.5 704,-5.5 828,-5.5 828,-24.5"/>
<text text-anchor="middle" x="766" y="-12.5" font-family="Helvetica,sans-Serif" font-size="10.00">opengl/win/w_volumes.c</text>
</a>
</g>
</g>
<!-- Node10&#45;&gt;Node29 -->
<g id="edge29_Node000010_Node000029" class="edge">
<title>Node10&#45;&gt;Node29</title>
<g id="a_edge29_Node000010_Node000029"><a xlink:title=" ">
<path fill="none" stroke="#63b8ff" d="M1543.61,-68.93C1537.37,-67.79 1531.05,-66.78 1525,-66 1221.3,-27.02 1140.86,-67.71 837,-30 827.03,-28.76 816.35,-26.93 806.39,-25"/>
<polygon fill="#63b8ff" stroke="#63b8ff" points="1542.72,-72.32 1553.2,-70.77 1544.05,-65.45 1542.72,-72.32"/>
</a>
</g>
</g>
<!-- Node30 -->
<g id="Node000030" class="node">
<title>Node30</title>
<g id="a_Node000030"><a xlink:href="../../d8/d50/read__cif_8c.html" target="_top" xlink:title="Functions to read CIF files.">
<polygon fill="white" stroke="#666666" points="949.5,-30 846.5,-30 846.5,0 949.5,0 949.5,-30"/>
<text text-anchor="start" x="854.5" y="-18" font-family="Helvetica,sans-Serif" font-size="10.00">project/readers/read</text>
<text text-anchor="middle" x="898" y="-7" font-family="Helvetica,sans-Serif" font-size="10.00">_cif.c</text>
</a>
</g>
</g>
<!-- Node10&#45;&gt;Node30 -->
<g id="edge30_Node000010_Node000030" class="edge">
<title>Node10&#45;&gt;Node30</title>
<g id="a_edge30_Node000010_Node000030"><a xlink:title=" ">
<path fill="none" stroke="#63b8ff" d="M1543.37,-68.95C1537.21,-67.82 1530.97,-66.8 1525,-66 1275.17,-32.5 1208.43,-66.31 959,-30 955.99,-29.56 952.91,-29.05 949.81,-28.49"/>
<polygon fill="#63b8ff" stroke="#63b8ff" points="1542.35,-72.32 1552.84,-70.78 1543.68,-65.44 1542.35,-72.32"/>
</a>
</g>
</g>
<!-- Node32&#45;&gt;Node3 -->
<g id="edge34_Node000032_Node000003" class="edge">
<title>Node32&#45;&gt;Node3</title>
<g id="a_edge34_Node000032_Node000003"><a xlink:title=" ">
<path fill="none" stroke="#63b8ff" d="M2617.53,-68.79C2623.06,-67.74 2628.64,-66.78 2634,-66 2843.09,-35.69 2899.93,-66.66 3108,-30 3115.1,-28.75 3122.65,-26.91 3129.67,-24.98"/>
<polygon fill="#63b8ff" stroke="#63b8ff" points="2616.9,-65.35 2607.79,-70.75 2618.29,-72.21 2616.9,-65.35"/>
</a>
</g>
</g>
<!-- Node32&#45;&gt;Node22 -->
<g id="edge35_Node000032_Node000022" class="edge">
<title>Node32&#45;&gt;Node22</title>
<g id="a_edge35_Node000032_Node000022"><a xlink:title=" ">
<path fill="none" stroke="#63b8ff" d="M2513.32,-68.83C2508.48,-67.87 2503.65,-66.91 2499,-66 2415.95,-49.7 2394.9,-47.04 2312,-30 2304.31,-28.42 2296.12,-26.67 2288.25,-24.97"/>
<polygon fill="#63b8ff" stroke="#63b8ff" points="2512.6,-72.25 2523.09,-70.77 2513.96,-65.39 2512.6,-72.25"/>
</a>
</g>
</g>
<!-- Node32&#45;&gt;Node23 -->
<g id="edge40_Node000032_Node000023" class="edge">
<title>Node32&#45;&gt;Node23</title>
<g id="a_edge40_Node000032_Node000023"><a xlink:title=" ">
<path fill="none" stroke="#63b8ff" d="M2551.81,-63.33C2539.11,-51.02 2522.31,-34.73 2512.1,-24.82"/>
<polygon fill="#63b8ff" stroke="#63b8ff" points="2549.12,-65.6 2558.74,-70.05 2553.99,-60.57 2549.12,-65.6"/>
</a>
</g>
</g>
<!-- Node32&#45;&gt;Node25 -->
<g id="edge41_Node000032_Node000025" class="edge">
<title>Node32&#45;&gt;Node25</title>
<g id="a_edge41_Node000032_Node000025"><a xlink:title=" ">
<path fill="none" stroke="#63b8ff" d="M2531.01,-67.6C2492.66,-55.07 2434.36,-36.04 2400.34,-24.93"/>
<polygon fill="#63b8ff" stroke="#63b8ff" points="2529.72,-70.85 2540.31,-70.63 2531.89,-64.2 2529.72,-70.85"/>
</a>
</g>
</g>
<!-- Node32&#45;&gt;Node26 -->
<g id="edge42_Node000032_Node000026" class="edge">
<title>Node32&#45;&gt;Node26</title>
<g id="a_edge42_Node000032_Node000026"><a xlink:title=" ">
<path fill="none" stroke="#63b8ff" d="M2586.19,-63.33C2598.89,-51.02 2615.69,-34.73 2625.9,-24.82"/>
<polygon fill="#63b8ff" stroke="#63b8ff" points="2584.01,-60.57 2579.26,-70.05 2588.88,-65.6 2584.01,-60.57"/>
</a>
</g>
</g>
<!-- Node33 -->
<g id="Node000033" class="node">
<title>Node33</title>
<g id="a_Node000033"><a xlink:href="../../d9/d1a/cell__density_8c.html" target="_top" xlink:title="Functions to create the &#39;density adjustment&#39; tab in the cell edition window.">
<polygon fill="white" stroke="#666666" points="2834,-24.5 2708,-24.5 2708,-5.5 2834,-5.5 2834,-24.5"/>
<text text-anchor="middle" x="2771" y="-12.5" font-family="Helvetica,sans-Serif" font-size="10.00">opengl/edit/cell_density.c</text>
</a>
</g>
</g>
<!-- Node32&#45;&gt;Node33 -->
<g id="edge36_Node000032_Node000033" class="edge">
<title>Node32&#45;&gt;Node33</title>
<g id="a_edge36_Node000032_Node000033"><a xlink:title=" ">
<path fill="none" stroke="#63b8ff" d="M2607.89,-67.68C2647.42,-55.15 2707.68,-36.06 2742.83,-24.93"/>
<polygon fill="#63b8ff" stroke="#63b8ff" points="2607.01,-64.29 2598.53,-70.64 2609.12,-70.96 2607.01,-64.29"/>
</a>
</g>
</g>
<!-- Node34 -->
<g id="Node000034" class="node">
<title>Node34</title>
<g id="a_Node000034"><a xlink:href="../../d3/d1b/cell__edit_8c.html" target="_top" xlink:title="Functions to create the cell edition window.">
<polygon fill="white" stroke="#666666" points="2963.5,-24.5 2852.5,-24.5 2852.5,-5.5 2963.5,-5.5 2963.5,-24.5"/>
<text text-anchor="middle" x="2908" y="-12.5" font-family="Helvetica,sans-Serif" font-size="10.00">opengl/edit/cell_edit.c</text>
</a>
</g>
</g>
<!-- Node32&#45;&gt;Node34 -->
<g id="edge37_Node000032_Node000034" class="edge">
<title>Node32&#45;&gt;Node34</title>
<g id="a_edge37_Node000032_Node000034"><a xlink:title=" ">
<path fill="none" stroke="#63b8ff" d="M2620.66,-68.67C2625.17,-67.74 2629.66,-66.84 2634,-66 2726.54,-48.07 2750.46,-47.93 2843,-30 2850.93,-28.46 2859.39,-26.72 2867.49,-25"/>
<polygon fill="#63b8ff" stroke="#63b8ff" points="2620.07,-65.22 2611,-70.69 2621.5,-72.07 2620.07,-65.22"/>
</a>
</g>
</g>
<!-- Node35 -->
<g id="Node000035" class="node">
<title>Node35</title>
<g id="a_Node000035"><a xlink:href="../../d1/d9f/cell__extra_8c.html" target="_top" xlink:title="Functions to create the &#39;add cell(s)&#39; tab in the cell edition window.">
<polygon fill="white" stroke="#666666" points="3098.5,-24.5 2981.5,-24.5 2981.5,-5.5 3098.5,-5.5 3098.5,-24.5"/>
<text text-anchor="middle" x="3040" y="-12.5" font-family="Helvetica,sans-Serif" font-size="10.00">opengl/edit/cell_extra.c</text>
</a>
</g>
</g>
<!-- Node32&#45;&gt;Node35 -->
<g id="edge38_Node000032_Node000035" class="edge">
<title>Node32&#45;&gt;Node35</title>
<g id="a_edge38_Node000032_Node000035"><a xlink:title=" ">
<path fill="none" stroke="#63b8ff" d="M2618.6,-68.75C2623.79,-67.74 2628.99,-66.8 2634,-66 2783.6,-42.02 2823.32,-53.52 2973,-30 2981.92,-28.6 2991.45,-26.79 3000.44,-24.95"/>
<polygon fill="#63b8ff" stroke="#63b8ff" points="2617.95,-65.31 2608.85,-70.73 2619.35,-72.17 2617.95,-65.31"/>
</a>
</g>
</g>
<!-- Node36 -->
<g id="Node000036" class="node">
<title>Node36</title>
<g id="a_Node000036"><a xlink:href="../../d1/d4a/cell__shift_8c.html" target="_top" xlink:title="Functions to create the &#39;shift cell center&#39; tab for the cell edition window.">
<polygon fill="white" stroke="#666666" points="3331,-24.5 3217,-24.5 3217,-5.5 3331,-5.5 3331,-24.5"/>
<text text-anchor="middle" x="3274" y="-12.5" font-family="Helvetica,sans-Serif" font-size="10.00">opengl/edit/cell_shift.c</text>
</a>
</g>
</g>
<!-- Node32&#45;&gt;Node36 -->
<g id="edge39_Node000032_Node000036" class="edge">
<title>Node32&#45;&gt;Node36</title>
<g id="a_edge39_Node000032_Node000036"><a xlink:title=" ">
<path fill="none" stroke="#63b8ff" d="M2616.87,-68.85C2622.62,-67.76 2628.43,-66.77 2634,-66 2887.2,-30.99 2954.74,-64.61 3208,-30 3217.28,-28.73 3227.21,-26.89 3236.47,-24.95"/>
<polygon fill="#63b8ff" stroke="#63b8ff" points="2616.55,-65.34 2607.44,-70.74 2617.93,-72.2 2616.55,-65.34"/>
</a>
</g>
</g>
</g>
</svg>
