<?xml version="1.0" encoding="UTF-8" standalone="no"?>
<!DOCTYPE svg PUBLIC "-//W3C//DTD SVG 1.1//EN"
 "http://www.w3.org/Graphics/SVG/1.1/DTD/svg11.dtd">
<!-- Generated by graphviz version 7.1.0 (0)
 -->
<!-- Title: opengl/ogl_shading.h Pages: 1 -->
<svg width="5885pt" height="269pt"
 viewBox="0.00 0.00 5885.00 269.00" xmlns="http://www.w3.org/2000/svg" xmlns:xlink="http://www.w3.org/1999/xlink">
<g id="graph0" class="graph" transform="scale(1 1) rotate(0) translate(4 265)">
<title>opengl/ogl_shading.h</title>
<!-- Node1 -->
<g id="node1" class="node">
<title>Node1</title>
<g id="a_node1"><a xlink:title="Variable declarations related to GLSL programs &#160;&#160;Data structure declarations related to GLSL programs...">
<polygon fill="#999999" stroke="#666666" points="3321,-261 3213,-261 3213,-242 3321,-242 3321,-261"/>
<text text-anchor="middle" x="3267" y="-249" font-family="Helvetica,sans-Serif" font-size="10.00">opengl/ogl_shading.h</text>
</a>
</g>
</g>
<!-- Node2 -->
<g id="node2" class="node">
<title>Node2</title>
<g id="a_node2"><a xlink:href="../../dc/dbd/d__atoms_8c.html" target="_top" xlink:title="nctions to prepare the OpenGL rendering atom(s) and clone(s)">
<polygon fill="white" stroke="#666666" points="118,-24.5 0,-24.5 0,-5.5 118,-5.5 118,-24.5"/>
<text text-anchor="middle" x="59" y="-12.5" font-family="Helvetica,sans-Serif" font-size="10.00">opengl/draw/d_atoms.c</text>
</a>
</g>
</g>
<!-- Node1&#45;&gt;Node2 -->
<g id="edge1" class="edge">
<title>Node1&#45;&gt;Node2</title>
<path fill="none" stroke="#63b8ff" d="M3201.32,-249.88C2753.96,-245.34 169.49,-214.04 57,-96 38.6,-76.69 48.92,-41.34 55.24,-24.88"/>
<polygon fill="#63b8ff" stroke="#63b8ff" points="3201.16,-253.38 3211.2,-249.98 3201.23,-246.38 3201.16,-253.38"/>
</g>
<!-- Node3 -->
<g id="node3" class="node">
<title>Node3</title>
<g id="a_node3"><a xlink:href="../../da/d7e/glwin_8h.html" target="_top" xlink:title="Variable declarations related the OpenGL window &#160;&#160;Data structure declarations related the OpenGL wind...">
<polygon fill="white" stroke="#666666" points="3306.5,-206 3227.5,-206 3227.5,-187 3306.5,-187 3306.5,-206"/>
<text text-anchor="middle" x="3267" y="-194" font-family="Helvetica,sans-Serif" font-size="10.00">opengl/glwin.h</text>
</a>
</g>
</g>
<!-- Node1&#45;&gt;Node3 -->
<g id="edge2" class="edge">
<title>Node1&#45;&gt;Node3</title>
<path fill="none" stroke="#63b8ff" d="M3267,-230.35C3267,-222.1 3267,-212.97 3267,-206.44"/>
<polygon fill="#63b8ff" stroke="#63b8ff" points="3263.5,-230.23 3267,-240.23 3270.5,-230.23 3263.5,-230.23"/>
</g>
<!-- Node149 -->
<g id="node49" class="node">
<title>Node149</title>
<g id="a_node49"><a xlink:href="../../d9/db9/ogl__shading_8c.html" target="_top" xlink:title="Functions to create GLSL programs &#160;&#160;Functions to manage GLSL programs.">
<polygon fill="white" stroke="#666666" points="5877,-90.5 5769,-90.5 5769,-71.5 5877,-71.5 5877,-90.5"/>
<text text-anchor="middle" x="5823" y="-78.5" font-family="Helvetica,sans-Serif" font-size="10.00">opengl/ogl_shading.c</text>
</a>
</g>
</g>
<!-- Node1&#45;&gt;Node149 -->
<g id="edge59" class="edge">
<title>Node1&#45;&gt;Node149</title>
<path fill="none" stroke="#63b8ff" d="M3332.8,-247.03C3561.75,-234.88 4344.79,-192.75 4991,-151 5332.94,-128.91 5420.95,-145.52 5760,-96 5768.76,-94.72 5778.11,-92.9 5786.86,-90.99"/>
<polygon fill="#63b8ff" stroke="#63b8ff" points="3332.68,-243.53 3322.88,-247.56 3333.05,-250.52 3332.68,-243.53"/>
</g>
<!-- Node4 -->
<g id="node4" class="node">
<title>Node4</title>
<g id="a_node4"><a xlink:href="../../d2/d49/global_8h.html" target="_top" xlink:title="Global variable declarations &#160;&#160;Global convenience function declarations &#160;&#160;Global data structure defin...">
<polygon fill="#fff0f0" stroke="red" points="3281,-151 3231,-151 3231,-132 3281,-132 3281,-151"/>
<text text-anchor="middle" x="3256" y="-139" font-family="Helvetica,sans-Serif" font-size="10.00">global.h</text>
</a>
</g>
</g>
<!-- Node3&#45;&gt;Node4 -->
<g id="edge3" class="edge">
<title>Node3&#45;&gt;Node4</title>
<path fill="none" stroke="#63b8ff" d="M3262.88,-175.64C3261.15,-167.31 3259.23,-158.05 3257.86,-151.44"/>
<polygon fill="#63b8ff" stroke="#63b8ff" points="3259.42,-176.19 3264.88,-185.27 3266.27,-174.76 3259.42,-176.19"/>
</g>
<!-- Node207 -->
<g id="node50" class="node">
<title>Node207</title>
<g id="a_node50"><a xlink:href="../../d2/d45/save__opengl_8c.html" target="_top" xlink:title="Functions to save OpenGL information in the atomes project file format.">
<polygon fill="white" stroke="#666666" points="5751,-90.5 5639,-90.5 5639,-71.5 5751,-71.5 5751,-90.5"/>
<text text-anchor="middle" x="5695" y="-78.5" font-family="Helvetica,sans-Serif" font-size="10.00">project/save_opengl.c</text>
</a>
</g>
</g>
<!-- Node3&#45;&gt;Node207 -->
<g id="edge58" class="edge">
<title>Node3&#45;&gt;Node207</title>
<path fill="none" stroke="#63b8ff" d="M3318.03,-194.53C3618.54,-188.66 5160.25,-156.03 5630,-96 5639.39,-94.8 5649.43,-92.93 5658.75,-90.95"/>
<polygon fill="#63b8ff" stroke="#63b8ff" points="3318.1,-191.03 3308.17,-194.73 3318.24,-198.03 3318.1,-191.03"/>
</g>
<!-- Node4&#45;&gt;Node2 -->
<g id="edge55" class="edge">
<title>Node4&#45;&gt;Node2</title>
<path fill="none" stroke="#63b8ff" d="M3219.05,-140.61C2868.63,-141.61 142.45,-147.67 78,-96 56.39,-78.68 56.62,-41.67 58,-24.76"/>
<polygon fill="#63b8ff" stroke="#63b8ff" points="3219,-144.11 3228.99,-140.58 3218.98,-137.11 3219,-144.11"/>
</g>
<!-- Node5 -->
<g id="node5" class="node">
<title>Node5</title>
<g id="a_node5"><a xlink:href="../../d1/dcc/calc_8c.html" target="_top" xlink:title="Callbacks used in by the molecular dynamics calculation assistants &#160;&#160;Atom selection structure manipul...">
<polygon fill="white" stroke="#666666" points="4844,-90.5 4780,-90.5 4780,-71.5 4844,-71.5 4844,-90.5"/>
<text text-anchor="middle" x="4812" y="-78.5" font-family="Helvetica,sans-Serif" font-size="10.00">calc/calc.c</text>
</a>
</g>
</g>
<!-- Node4&#45;&gt;Node5 -->
<g id="edge4" class="edge">
<title>Node4&#45;&gt;Node5</title>
<path fill="none" stroke="#63b8ff" d="M3292.77,-140.74C3494.61,-141.85 4469.57,-144.58 4766,-96 4772.92,-94.87 4780.25,-92.97 4786.98,-90.93"/>
<polygon fill="#63b8ff" stroke="#63b8ff" points="3292.92,-137.24 3282.9,-140.68 3292.88,-144.24 3292.92,-137.24"/>
</g>
<!-- Node6 -->
<g id="node6" class="node">
<title>Node6</title>
<g id="a_node6"><a xlink:href="../../db/d9f/cp2k__basis_8c.html" target="_top" xlink:title="CP2K basis set, as delivered with CP2K v9.1.">
<polygon fill="white" stroke="#666666" points="4981.5,-90.5 4862.5,-90.5 4862.5,-71.5 4981.5,-71.5 4981.5,-90.5"/>
<text text-anchor="middle" x="4922" y="-78.5" font-family="Helvetica,sans-Serif" font-size="10.00">calc/cp2k/cp2k_basis.c</text>
</a>
</g>
</g>
<!-- Node4&#45;&gt;Node6 -->
<g id="edge5" class="edge">
<title>Node4&#45;&gt;Node6</title>
<path fill="none" stroke="#63b8ff" d="M3292.82,-140.34C3501.37,-139.28 4536.38,-132.26 4853,-96 4863.08,-94.85 4873.88,-92.97 4883.87,-90.96"/>
<polygon fill="#63b8ff" stroke="#63b8ff" points="3292.84,-136.84 3282.86,-140.39 3292.88,-143.84 3292.84,-136.84"/>
</g>
<!-- Node7 -->
<g id="node7" class="node">
<title>Node7</title>
<g id="a_node7"><a xlink:href="../../d0/da4/cp2k__files_8c.html" target="_top" xlink:title="Functions to handle CP2K basis sets and pseudopotentials.">
<polygon fill="white" stroke="#666666" points="5205,-90.5 5091,-90.5 5091,-71.5 5205,-71.5 5205,-90.5"/>
<text text-anchor="middle" x="5148" y="-78.5" font-family="Helvetica,sans-Serif" font-size="10.00">calc/cp2k/cp2k_files.c</text>
</a>
</g>
</g>
<!-- Node4&#45;&gt;Node7 -->
<g id="edge6" class="edge">
<title>Node4&#45;&gt;Node7</title>
<path fill="none" stroke="#63b8ff" d="M3292.98,-140.53C3519.1,-140.57 4717.46,-138.73 5082,-96 5091.66,-94.87 5101.99,-93 5111.54,-90.99"/>
<polygon fill="#63b8ff" stroke="#63b8ff" points="3293.01,-137.03 3283.01,-140.53 3293.01,-144.03 3293.01,-137.03"/>
</g>
<!-- Node8 -->
<g id="node8" class="node">
<title>Node8</title>
<g id="a_node8"><a xlink:href="../../d5/d98/cp2k__gth-basis_8c.html" target="_top" xlink:title="CP2K GTH basis set, as delivered with CP2K v9.1.">
<polygon fill="white" stroke="#666666" points="5324.5,-96 5223.5,-96 5223.5,-66 5324.5,-66 5324.5,-96"/>
<text text-anchor="start" x="5231.5" y="-84" font-family="Helvetica,sans-Serif" font-size="10.00">calc/cp2k/cp2k_gth</text>
<text text-anchor="middle" x="5274" y="-73" font-family="Helvetica,sans-Serif" font-size="10.00">&#45;basis.c</text>
</a>
</g>
</g>
<!-- Node4&#45;&gt;Node8 -->
<g id="edge7" class="edge">
<title>Node4&#45;&gt;Node8</title>
<path fill="none" stroke="#63b8ff" d="M3292.68,-140.7C3527.45,-141.82 4821.93,-145.65 5214,-96 5216.97,-95.62 5220.01,-95.16 5223.07,-94.64"/>
<polygon fill="#63b8ff" stroke="#63b8ff" points="3292.94,-137.2 3282.92,-140.65 3292.9,-144.2 3292.94,-137.2"/>
</g>
<!-- Node9 -->
<g id="node9" class="node">
<title>Node9</title>
<g id="a_node9"><a xlink:href="../../de/d92/cp2k__init_8c.html" target="_top" xlink:title="Initialization of the CP2K input assistant.">
<polygon fill="white" stroke="#666666" points="5490.5,-90.5 5381.5,-90.5 5381.5,-71.5 5490.5,-71.5 5490.5,-90.5"/>
<text text-anchor="middle" x="5436" y="-78.5" font-family="Helvetica,sans-Serif" font-size="10.00">calc/cp2k/cp2k_init.c</text>
</a>
</g>
</g>
<!-- Node4&#45;&gt;Node9 -->
<g id="edge8" class="edge">
<title>Node4&#45;&gt;Node9</title>
<path fill="none" stroke="#63b8ff" d="M3292.33,-140.13C3554.51,-137.38 5153.05,-119.77 5367,-96 5377.2,-94.87 5388.14,-92.97 5398.23,-90.93"/>
<polygon fill="#63b8ff" stroke="#63b8ff" points="3292.68,-136.62 3282.71,-140.23 3292.75,-143.62 3292.68,-136.62"/>
</g>
<!-- Node10 -->
<g id="node10" class="node">
<title>Node10</title>
<g id="a_node10"><a xlink:href="../../d5/d8d/cp2k__mol_8c.html" target="_top" xlink:title="Functions to fix fragment(s) when creating the CP2K input file.">
<polygon fill="white" stroke="#666666" points="5621,-90.5 5509,-90.5 5509,-71.5 5621,-71.5 5621,-90.5"/>
<text text-anchor="middle" x="5565" y="-78.5" font-family="Helvetica,sans-Serif" font-size="10.00">calc/cp2k/cp2k_mol.c</text>
</a>
</g>
</g>
<!-- Node4&#45;&gt;Node10 -->
<g id="edge9" class="edge">
<title>Node4&#45;&gt;Node10</title>
<path fill="none" stroke="#63b8ff" d="M3292.48,-140.2C3564.52,-137.91 5272.13,-122.55 5500,-96 5509.63,-94.88 5519.94,-92.98 5529.45,-90.95"/>
<polygon fill="#63b8ff" stroke="#63b8ff" points="3292.8,-136.7 3282.83,-140.28 3292.86,-143.7 3292.8,-136.7"/>
</g>
<!-- Node11 -->
<g id="node11" class="node">
<title>Node11</title>
<g id="a_node11"><a xlink:href="../../da/d91/cp2k__molopt-basis_8c.html" target="_top" xlink:title="CP2K MOLOPT basis set, as distributed with CP2K 9.1.">
<polygon fill="white" stroke="#666666" points="204.5,-96 87.5,-96 87.5,-66 204.5,-66 204.5,-96"/>
<text text-anchor="start" x="95.5" y="-84" font-family="Helvetica,sans-Serif" font-size="10.00">calc/cp2k/cp2k_molopt</text>
<text text-anchor="middle" x="146" y="-73" font-family="Helvetica,sans-Serif" font-size="10.00">&#45;basis.c</text>
</a>
</g>
</g>
<!-- Node4&#45;&gt;Node11 -->
<g id="edge10" class="edge">
<title>Node4&#45;&gt;Node11</title>
<path fill="none" stroke="#63b8ff" d="M3219.42,-140.38C2895.81,-139.3 526.98,-130.2 214,-96 211,-95.67 207.95,-95.28 204.86,-94.83"/>
<polygon fill="#63b8ff" stroke="#63b8ff" points="3219.35,-143.88 3229.37,-140.42 3219.38,-136.88 3219.35,-143.88"/>
</g>
<!-- Node12 -->
<g id="node12" class="node">
<title>Node12</title>
<g id="a_node12"><a xlink:href="../../d3/dcb/cp2k__pot_8c.html" target="_top" xlink:title="CP2K potentials, as distributed with CP2K v9.1.">
<polygon fill="white" stroke="#666666" points="333,-90.5 223,-90.5 223,-71.5 333,-71.5 333,-90.5"/>
<text text-anchor="middle" x="278" y="-78.5" font-family="Helvetica,sans-Serif" font-size="10.00">calc/cp2k/cp2k_pot.c</text>
</a>
</g>
</g>
<!-- Node4&#45;&gt;Node12 -->
<g id="edge11" class="edge">
<title>Node4&#45;&gt;Node12</title>
<path fill="none" stroke="#63b8ff" d="M3219.5,-140.39C2903.89,-139.34 641.13,-130.65 342,-96 332.51,-94.9 322.36,-93.02 313,-90.98"/>
<polygon fill="#63b8ff" stroke="#63b8ff" points="3219.17,-143.88 3229.18,-140.42 3219.19,-136.88 3219.17,-143.88"/>
</g>
<!-- Node13 -->
<g id="node13" class="node">
<title>Node13</title>
<g id="a_node13"><a xlink:href="../../dc/d4a/cp2k__print_8c.html" target="_top" xlink:title="Functions to print the CP2K input file(s)">
<polygon fill="white" stroke="#666666" points="466.5,-90.5 351.5,-90.5 351.5,-71.5 466.5,-71.5 466.5,-90.5"/>
<text text-anchor="middle" x="409" y="-78.5" font-family="Helvetica,sans-Serif" font-size="10.00">calc/cp2k/cp2k_print.c</text>
</a>
</g>
</g>
<!-- Node4&#45;&gt;Node13 -->
<g id="edge12" class="edge">
<title>Node4&#45;&gt;Node13</title>
<path fill="none" stroke="#63b8ff" d="M3219.29,-140.34C2911.13,-138.96 759.99,-128.2 475,-96 465.22,-94.9 454.76,-93.01 445.11,-90.97"/>
<polygon fill="#63b8ff" stroke="#63b8ff" points="3219.12,-143.84 3229.13,-140.39 3219.15,-136.84 3219.12,-143.84"/>
</g>
<!-- Node14 -->
<g id="node14" class="node">
<title>Node14</title>
<g id="a_node14"><a xlink:href="../../d6/d03/cpmd__atoms_8c.html" target="_top" xlink:title="Functions to handle dummy atom(s) for the CPMD input file.">
<polygon fill="white" stroke="#666666" points="613.5,-90.5 484.5,-90.5 484.5,-71.5 613.5,-71.5 613.5,-90.5"/>
<text text-anchor="middle" x="549" y="-78.5" font-family="Helvetica,sans-Serif" font-size="10.00">calc/cpmd/cpmd_atoms.c</text>
</a>
</g>
</g>
<!-- Node4&#45;&gt;Node14 -->
<g id="edge13" class="edge">
<title>Node4&#45;&gt;Node14</title>
<path fill="none" stroke="#63b8ff" d="M3219.42,-140.26C2921.05,-138.29 891.64,-123.92 622,-96 611.22,-94.88 599.65,-92.99 588.98,-90.96"/>
<polygon fill="#63b8ff" stroke="#63b8ff" points="3219.28,-143.76 3229.3,-140.33 3219.33,-136.76 3219.28,-143.76"/>
</g>
<!-- Node15 -->
<g id="node15" class="node">
<title>Node15</title>
<g id="a_node15"><a xlink:href="../../dd/dc0/cpmd__init_8c.html" target="_top" xlink:title="Functions to initialize the QM / QM&#45;MM input file creation assistant.">
<polygon fill="white" stroke="#666666" points="746.5,-90.5 631.5,-90.5 631.5,-71.5 746.5,-71.5 746.5,-90.5"/>
<text text-anchor="middle" x="689" y="-78.5" font-family="Helvetica,sans-Serif" font-size="10.00">calc/cpmd/cpmd_init.c</text>
</a>
</g>
</g>
<!-- Node4&#45;&gt;Node15 -->
<g id="edge14" class="edge">
<title>Node4&#45;&gt;Node15</title>
<path fill="none" stroke="#63b8ff" d="M3219.47,-140.27C2929.91,-138.42 1010.22,-125.07 755,-96 745.22,-94.89 734.76,-93 725.11,-90.96"/>
<polygon fill="#63b8ff" stroke="#63b8ff" points="3219.03,-143.77 3229.05,-140.33 3219.07,-136.77 3219.03,-143.77"/>
</g>
<!-- Node16 -->
<g id="node16" class="node">
<title>Node16</title>
<g id="a_node16"><a xlink:href="../../d6/dc0/cpmd__nose_8c.html" target="_top" xlink:title="Functions to prepare the thermostat(s) configuration widgets for QM / QM&#45;MM input files.">
<polygon fill="white" stroke="#666666" points="887.5,-90.5 764.5,-90.5 764.5,-71.5 887.5,-71.5 887.5,-90.5"/>
<text text-anchor="middle" x="826" y="-78.5" font-family="Helvetica,sans-Serif" font-size="10.00">calc/cpmd/cpmd_nose.c</text>
</a>
</g>
</g>
<!-- Node4&#45;&gt;Node16 -->
<g id="edge15" class="edge">
<title>Node4&#45;&gt;Node16</title>
<path fill="none" stroke="#63b8ff" d="M3219.39,-140.2C2938.99,-137.89 1136.35,-122.09 896,-96 885.65,-94.88 874.56,-92.98 864.32,-90.95"/>
<polygon fill="#63b8ff" stroke="#63b8ff" points="3218.98,-143.7 3229,-140.28 3219.03,-136.7 3218.98,-143.7"/>
</g>
<!-- Node17 -->
<g id="node17" class="node">
<title>Node17</title>
<g id="a_node17"><a xlink:href="../../d1/dcc/cpmd__print_8c.html" target="_top" xlink:title="Functions to print the CPMD input file(s)">
<polygon fill="white" stroke="#666666" points="1026.5,-90.5 905.5,-90.5 905.5,-71.5 1026.5,-71.5 1026.5,-90.5"/>
<text text-anchor="middle" x="966" y="-78.5" font-family="Helvetica,sans-Serif" font-size="10.00">calc/cpmd/cpmd_print.c</text>
</a>
</g>
</g>
<!-- Node4&#45;&gt;Node17 -->
<g id="edge16" class="edge">
<title>Node4&#45;&gt;Node17</title>
<path fill="none" stroke="#63b8ff" d="M3219.3,-140.66C2966.87,-141.59 1484.21,-144.92 1036,-96 1025.65,-94.87 1014.56,-92.97 1004.32,-90.94"/>
<polygon fill="#63b8ff" stroke="#63b8ff" points="3219.21,-144.16 3229.19,-140.62 3219.18,-137.16 3219.21,-144.16"/>
</g>
<!-- Node18 -->
<g id="node18" class="node">
<title>Node18</title>
<g id="a_node18"><a xlink:href="../../db/d6f/cpmd__restart_8c.html" target="_top" xlink:title="Functions to configure the restart section for the CPMD input file creation assistant.">
<polygon fill="white" stroke="#666666" points="1175,-90.5 1045,-90.5 1045,-71.5 1175,-71.5 1175,-90.5"/>
<text text-anchor="middle" x="1110" y="-78.5" font-family="Helvetica,sans-Serif" font-size="10.00">calc/cpmd/cpmd_restart.c</text>
</a>
</g>
</g>
<!-- Node4&#45;&gt;Node18 -->
<g id="edge17" class="edge">
<title>Node4&#45;&gt;Node18</title>
<path fill="none" stroke="#63b8ff" d="M3219.23,-140.48C2976.82,-140.25 1605.25,-137.12 1189,-96 1177.49,-94.86 1165.15,-92.99 1153.71,-90.98"/>
<polygon fill="#63b8ff" stroke="#63b8ff" points="3219.01,-143.98 3229.01,-140.49 3219.02,-136.98 3219.01,-143.98"/>
</g>
<!-- Node19 -->
<g id="node19" class="node">
<title>Node19</title>
<g id="a_node19"><a xlink:href="../../d8/ded/dlp__comp_8c.html" target="_top" xlink:title="Functions to compare and adjust field body parameters.">
<polygon fill="white" stroke="#666666" points="1257,-24.5 1135,-24.5 1135,-5.5 1257,-5.5 1257,-24.5"/>
<text text-anchor="middle" x="1196" y="-12.5" font-family="Helvetica,sans-Serif" font-size="10.00">calc/dl_poly/dlp_comp.c</text>
</a>
</g>
</g>
<!-- Node4&#45;&gt;Node19 -->
<g id="edge18" class="edge">
<title>Node4&#45;&gt;Node19</title>
<path fill="none" stroke="#63b8ff" d="M3219.58,-140.64C2955.3,-141.54 1339.82,-145.03 1250,-96 1221.32,-80.35 1205,-42.12 1198.85,-24.8"/>
<polygon fill="#63b8ff" stroke="#63b8ff" points="3219.29,-144.14 3229.28,-140.61 3219.27,-137.14 3219.29,-144.14"/>
</g>
<!-- Node20 -->
<g id="node20" class="node">
<title>Node20</title>
<g id="a_node20"><a xlink:href="../../da/d88/dlp__copy_8c.html" target="_top" xlink:title="Functions to copy force field and related data structures.">
<polygon fill="white" stroke="#666666" points="1393,-24.5 1275,-24.5 1275,-5.5 1393,-5.5 1393,-24.5"/>
<text text-anchor="middle" x="1334" y="-12.5" font-family="Helvetica,sans-Serif" font-size="10.00">calc/dl_poly/dlp_copy.c</text>
</a>
</g>
</g>
<!-- Node4&#45;&gt;Node20 -->
<g id="edge19" class="edge">
<title>Node4&#45;&gt;Node20</title>
<path fill="none" stroke="#63b8ff" d="M3219.1,-140.39C2949.72,-139.48 1295.62,-132.42 1260,-96 1235.26,-70.71 1286.15,-39.68 1315.38,-24.79"/>
<polygon fill="#63b8ff" stroke="#63b8ff" points="3219,-143.89 3229.01,-140.42 3219.02,-136.89 3219,-143.89"/>
</g>
<!-- Node21 -->
<g id="node21" class="node">
<title>Node21</title>
<g id="a_node21"><a xlink:href="../../d4/d28/dlp__edit_8c.html" target="_top" xlink:title="Functions to edit DL&#45;POLY force field parameters.">
<polygon fill="white" stroke="#666666" points="1898.5,-24.5 1785.5,-24.5 1785.5,-5.5 1898.5,-5.5 1898.5,-24.5"/>
<text text-anchor="middle" x="1842" y="-12.5" font-family="Helvetica,sans-Serif" font-size="10.00">calc/dl_poly/dlp_edit.c</text>
</a>
</g>
</g>
<!-- Node4&#45;&gt;Node21 -->
<g id="edge20" class="edge">
<title>Node4&#45;&gt;Node21</title>
<path fill="none" stroke="#63b8ff" d="M3292.74,-140.76C3508.99,-142.1 4608.16,-146.42 4657,-96 4666.28,-86.42 4666.34,-75.51 4657,-66 4655.43,-64.4 2297.23,-23.82 1898.83,-16.98"/>
<polygon fill="#63b8ff" stroke="#63b8ff" points="3292.97,-137.26 3282.95,-140.7 3292.93,-144.26 3292.97,-137.26"/>
</g>
<!-- Node22 -->
<g id="node22" class="node">
<title>Node22</title>
<g id="a_node22"><a xlink:href="../../dc/d79/dlp__ff__match_8c.html" target="_top" xlink:title="Functions the list the available database parameters for the atom database window.">
<polygon fill="white" stroke="#666666" points="2773.5,-30 2678.5,-30 2678.5,0 2773.5,0 2773.5,-30"/>
<text text-anchor="start" x="2686.5" y="-18" font-family="Helvetica,sans-Serif" font-size="10.00">calc/dl_poly/dlp_ff</text>
<text text-anchor="middle" x="2726" y="-7" font-family="Helvetica,sans-Serif" font-size="10.00">_match.c</text>
</a>
</g>
</g>
<!-- Node4&#45;&gt;Node22 -->
<g id="edge21" class="edge">
<title>Node4&#45;&gt;Node22</title>
<path fill="none" stroke="#63b8ff" d="M3292.58,-140.06C3513.85,-137.33 4664.93,-121.86 4690,-96 4699.28,-86.43 4699.32,-75.54 4690,-66 4660.35,-35.65 3205.41,-31.18 3163,-30 3021.49,-26.07 2854.23,-20.43 2773.85,-17.67"/>
<polygon fill="#63b8ff" stroke="#63b8ff" points="3292.79,-136.56 3282.83,-140.18 3292.88,-143.56 3292.79,-136.56"/>
</g>
<!-- Node23 -->
<g id="node23" class="node">
<title>Node23</title>
<g id="a_node23"><a xlink:href="../../d8/da6/dlp__field_8h.html" target="_top" xlink:title="Variable declarations for the creation of the DL_POLY input file(s)">
<polygon fill="#fff0f0" stroke="red" points="1385,-90.5 1269,-90.5 1269,-71.5 1385,-71.5 1385,-90.5"/>
<text text-anchor="middle" x="1327" y="-78.5" font-family="Helvetica,sans-Serif" font-size="10.00">calc/dl_poly/dlp_field.h</text>
</a>
</g>
</g>
<!-- Node4&#45;&gt;Node23 -->
<g id="edge22" class="edge">
<title>Node4&#45;&gt;Node23</title>
<path fill="none" stroke="#63b8ff" d="M3219.36,-140.53C2991.54,-140.61 1766.38,-138.99 1394,-96 1384.2,-94.87 1373.71,-93 1364.01,-90.99"/>
<polygon fill="#63b8ff" stroke="#63b8ff" points="3219.11,-144.03 3229.11,-140.53 3219.11,-137.03 3219.11,-144.03"/>
</g>
<!-- Node32 -->
<g id="node24" class="node">
<title>Node32</title>
<g id="a_node24"><a xlink:href="../../d7/d30/force__fields_8c.html" target="_top" xlink:title="Functions to prepare the force field XML files from the sources in atomes &#160;&#160;Functions to read the for...">
<polygon fill="white" stroke="#666666" points="3285.5,-30 3172.5,-30 3172.5,0 3285.5,0 3285.5,-30"/>
<text text-anchor="start" x="3180.5" y="-18" font-family="Helvetica,sans-Serif" font-size="10.00">calc/force_fields/force</text>
<text text-anchor="middle" x="3229" y="-7" font-family="Helvetica,sans-Serif" font-size="10.00">_fields.c</text>
</a>
</g>
</g>
<!-- Node4&#45;&gt;Node32 -->
<g id="edge47" class="edge">
<title>Node4&#45;&gt;Node32</title>
<path fill="none" stroke="#63b8ff" d="M3292.83,-140.09C3518.18,-137.49 4702.23,-122.56 4728,-96 4737.28,-86.43 4737.27,-75.58 4728,-66 4676.97,-13.24 3552.75,-14.63 3285.59,-15.71"/>
<polygon fill="#63b8ff" stroke="#63b8ff" points="3292.85,-136.59 3282.89,-140.2 3292.93,-143.59 3292.85,-136.59"/>
</g>
<!-- Node43 -->
<g id="node25" class="node">
<title>Node43</title>
<g id="a_node25"><a xlink:href="../../d4/ddc/amber94_8c.html" target="_top" xlink:title="Amber&#45;94 force field, from &#39;parm94&#39;.">
<polygon fill="white" stroke="#666666" points="1540.5,-90.5 1403.5,-90.5 1403.5,-71.5 1540.5,-71.5 1540.5,-90.5"/>
<text text-anchor="middle" x="1472" y="-78.5" font-family="Helvetica,sans-Serif" font-size="10.00">calc/force_fields/amber94.c</text>
</a>
</g>
</g>
<!-- Node4&#45;&gt;Node43 -->
<g id="edge29" class="edge">
<title>Node4&#45;&gt;Node43</title>
<path fill="none" stroke="#63b8ff" d="M3219.42,-140.31C3003.11,-139.09 1889.24,-131.16 1549,-96 1537.78,-94.84 1525.74,-92.96 1514.6,-90.95"/>
<polygon fill="#63b8ff" stroke="#63b8ff" points="3219.18,-143.81 3229.2,-140.37 3219.22,-136.81 3219.18,-143.81"/>
</g>
<!-- Node44 -->
<g id="node26" class="node">
<title>Node44</title>
<g id="a_node26"><a xlink:href="../../dd/d7e/amber96_8c.html" target="_top" xlink:title="Amber&#45;96 force field, from &#39;parm96&#39;.">
<polygon fill="white" stroke="#666666" points="1695.5,-90.5 1558.5,-90.5 1558.5,-71.5 1695.5,-71.5 1695.5,-90.5"/>
<text text-anchor="middle" x="1627" y="-78.5" font-family="Helvetica,sans-Serif" font-size="10.00">calc/force_fields/amber96.c</text>
</a>
</g>
</g>
<!-- Node4&#45;&gt;Node44 -->
<g id="edge30" class="edge">
<title>Node4&#45;&gt;Node44</title>
<path fill="none" stroke="#63b8ff" d="M3219.25,-140.2C3014.39,-138.42 2011.54,-128.18 1704,-96 1692.78,-94.83 1680.75,-92.94 1669.6,-90.93"/>
<polygon fill="#63b8ff" stroke="#63b8ff" points="3218.99,-143.7 3229.02,-140.28 3219.05,-136.7 3218.99,-143.7"/>
</g>
<!-- Node45 -->
<g id="node27" class="node">
<title>Node45</title>
<g id="a_node27"><a xlink:href="../../d5/d08/amber98_8c.html" target="_top" xlink:title="Amber&#45;98 force field, from &#39;parm98&#39;.">
<polygon fill="white" stroke="#666666" points="1850.5,-90.5 1713.5,-90.5 1713.5,-71.5 1850.5,-71.5 1850.5,-90.5"/>
<text text-anchor="middle" x="1782" y="-78.5" font-family="Helvetica,sans-Serif" font-size="10.00">calc/force_fields/amber98.c</text>
</a>
</g>
</g>
<!-- Node4&#45;&gt;Node45 -->
<g id="edge31" class="edge">
<title>Node4&#45;&gt;Node45</title>
<path fill="none" stroke="#63b8ff" d="M3219.36,-140.07C3027.18,-137.69 2134.06,-125.22 1859,-96 1847.92,-94.82 1836.04,-92.96 1825.01,-90.98"/>
<polygon fill="#63b8ff" stroke="#63b8ff" points="3219.18,-143.57 3229.23,-140.19 3219.27,-136.57 3219.18,-143.57"/>
</g>
<!-- Node46 -->
<g id="node28" class="node">
<title>Node46</title>
<g id="a_node28"><a xlink:href="../../df/dad/amber99_8c.html" target="_top" xlink:title="Amber&#45;99 force field, from &#39;parm99&#39;.">
<polygon fill="white" stroke="#666666" points="2005.5,-90.5 1868.5,-90.5 1868.5,-71.5 2005.5,-71.5 2005.5,-90.5"/>
<text text-anchor="middle" x="1937" y="-78.5" font-family="Helvetica,sans-Serif" font-size="10.00">calc/force_fields/amber99.c</text>
</a>
</g>
</g>
<!-- Node4&#45;&gt;Node46 -->
<g id="edge32" class="edge">
<title>Node4&#45;&gt;Node46</title>
<path fill="none" stroke="#63b8ff" d="M3219.56,-139.89C3041.03,-136.8 2257.55,-121.98 2015,-96 2003.78,-94.8 1991.75,-92.93 1980.57,-90.95"/>
<polygon fill="#63b8ff" stroke="#63b8ff" points="3219.32,-143.39 3229.38,-140.06 3219.44,-136.39 3219.32,-143.39"/>
</g>
<!-- Node47 -->
<g id="node29" class="node">
<title>Node47</title>
<g id="a_node29"><a xlink:href="../../d9/de7/cff91_8c.html" target="_top" xlink:title="CFF91 force field, from &#39;CFF91.frc&#39;.">
<polygon fill="white" stroke="#666666" points="2144,-90.5 2024,-90.5 2024,-71.5 2144,-71.5 2144,-90.5"/>
<text text-anchor="middle" x="2084" y="-78.5" font-family="Helvetica,sans-Serif" font-size="10.00">calc/force_fields/cff91.c</text>
</a>
</g>
</g>
<!-- Node4&#45;&gt;Node47 -->
<g id="edge33" class="edge">
<title>Node4&#45;&gt;Node47</title>
<path fill="none" stroke="#63b8ff" d="M3219.45,-139.81C3053.11,-136.56 2366.46,-121.79 2153,-96 2143.05,-94.8 2132.39,-92.93 2122.51,-90.94"/>
<polygon fill="#63b8ff" stroke="#63b8ff" points="3219.37,-143.31 3229.44,-140.01 3219.51,-136.31 3219.37,-143.31"/>
</g>
<!-- Node48 -->
<g id="node30" class="node">
<title>Node48</title>
<g id="a_node30"><a xlink:href="../../d2/d6d/charmm22__prot_8c.html" target="_top" xlink:title="CHARMM&#45;charmm22_prot force field, from &#39;charmm22_prot&#39;.">
<polygon fill="white" stroke="#666666" points="2299.5,-96 2162.5,-96 2162.5,-66 2299.5,-66 2299.5,-96"/>
<text text-anchor="start" x="2170.5" y="-84" font-family="Helvetica,sans-Serif" font-size="10.00">calc/force_fields/charmm22</text>
<text text-anchor="middle" x="2231" y="-73" font-family="Helvetica,sans-Serif" font-size="10.00">_prot.c</text>
</a>
</g>
</g>
<!-- Node4&#45;&gt;Node48 -->
<g id="edge34" class="edge">
<title>Node4&#45;&gt;Node48</title>
<path fill="none" stroke="#63b8ff" d="M3219.33,-140.53C3092.55,-140.26 2661.26,-136.23 2308,-96 2305.3,-95.69 2302.55,-95.35 2299.78,-94.97"/>
<polygon fill="#63b8ff" stroke="#63b8ff" points="3219.11,-144.03 3229.12,-140.54 3219.12,-137.03 3219.11,-144.03"/>
</g>
<!-- Node49 -->
<g id="node31" class="node">
<title>Node49</title>
<g id="a_node31"><a xlink:href="../../de/d55/charmm22__prot__metals_8c.html" target="_top" xlink:title=" ">
<polygon fill="white" stroke="#666666" points="2454.5,-96 2317.5,-96 2317.5,-66 2454.5,-66 2454.5,-96"/>
<text text-anchor="start" x="2325.5" y="-84" font-family="Helvetica,sans-Serif" font-size="10.00">calc/force_fields/charmm22</text>
<text text-anchor="middle" x="2386" y="-73" font-family="Helvetica,sans-Serif" font-size="10.00">_prot_metals.c</text>
</a>
</g>
</g>
<!-- Node4&#45;&gt;Node49 -->
<g id="edge35" class="edge">
<title>Node4&#45;&gt;Node49</title>
<path fill="none" stroke="#63b8ff" d="M3219.15,-140.05C3105.9,-138.33 2753,-130.37 2463,-96 2460.3,-95.68 2457.55,-95.32 2454.78,-94.94"/>
<polygon fill="#63b8ff" stroke="#63b8ff" points="3219,-143.55 3229.05,-140.19 3219.1,-136.55 3219,-143.55"/>
</g>
<!-- Node50 -->
<g id="node32" class="node">
<title>Node50</title>
<g id="a_node32"><a xlink:href="../../d7/d39/charmm35__ethers_8c.html" target="_top" xlink:title="CHARMM&#45;charmm35_ethers force field, from &#39;charmm35_ethers&#39;.">
<polygon fill="white" stroke="#666666" points="2609.5,-96 2472.5,-96 2472.5,-66 2609.5,-66 2609.5,-96"/>
<text text-anchor="start" x="2480.5" y="-84" font-family="Helvetica,sans-Serif" font-size="10.00">calc/force_fields/charmm35</text>
<text text-anchor="middle" x="2541" y="-73" font-family="Helvetica,sans-Serif" font-size="10.00">_ethers.c</text>
</a>
</g>
</g>
<!-- Node4&#45;&gt;Node50 -->
<g id="edge36" class="edge">
<title>Node4&#45;&gt;Node50</title>
<path fill="none" stroke="#63b8ff" d="M3219.37,-139.36C3121.46,-136 2845.65,-124.55 2618,-96 2615.3,-95.66 2612.56,-95.29 2609.79,-94.89"/>
<polygon fill="#63b8ff" stroke="#63b8ff" points="3219.05,-142.85 3229.16,-139.69 3219.29,-135.85 3219.05,-142.85"/>
</g>
<!-- Node51 -->
<g id="node33" class="node">
<title>Node51</title>
<g id="a_node33"><a xlink:href="../../de/db7/charmm36__carb_8c.html" target="_top" xlink:title="CHARMM&#45;charmm36_carb force field, from &#39;charmm36_carb&#39;.">
<polygon fill="white" stroke="#666666" points="2764.5,-96 2627.5,-96 2627.5,-66 2764.5,-66 2764.5,-96"/>
<text text-anchor="start" x="2635.5" y="-84" font-family="Helvetica,sans-Serif" font-size="10.00">calc/force_fields/charmm36</text>
<text text-anchor="middle" x="2696" y="-73" font-family="Helvetica,sans-Serif" font-size="10.00">_carb.c</text>
</a>
</g>
</g>
<!-- Node4&#45;&gt;Node51 -->
<g id="edge37" class="edge">
<title>Node4&#45;&gt;Node51</title>
<path fill="none" stroke="#63b8ff" d="M3219.23,-138.22C3138.32,-132.96 2938.83,-118.67 2773,-96 2770.31,-95.63 2767.57,-95.24 2764.8,-94.82"/>
<polygon fill="#63b8ff" stroke="#63b8ff" points="3218.8,-141.7 3229,-138.85 3219.25,-134.71 3218.8,-141.7"/>
</g>
<!-- Node52 -->
<g id="node34" class="node">
<title>Node52</title>
<g id="a_node34"><a xlink:href="../../d1/d40/charmm36__cgenff_8c.html" target="_top" xlink:title="CHARMM&#45;charmm36_cgenff force field, from &#39;charmm36_cgenff&#39;.">
<polygon fill="white" stroke="#666666" points="2919.5,-96 2782.5,-96 2782.5,-66 2919.5,-66 2919.5,-96"/>
<text text-anchor="start" x="2790.5" y="-84" font-family="Helvetica,sans-Serif" font-size="10.00">calc/force_fields/charmm36</text>
<text text-anchor="middle" x="2851" y="-73" font-family="Helvetica,sans-Serif" font-size="10.00">_cgenff.c</text>
</a>
</g>
</g>
<!-- Node4&#45;&gt;Node52 -->
<g id="edge38" class="edge">
<title>Node4&#45;&gt;Node52</title>
<path fill="none" stroke="#63b8ff" d="M3219.61,-136.11C3159.01,-128.67 3033.62,-112.76 2928,-96 2925.32,-95.57 2922.58,-95.13 2919.82,-94.67"/>
<polygon fill="#63b8ff" stroke="#63b8ff" points="3218.99,-139.56 3229.34,-137.3 3219.84,-132.61 3218.99,-139.56"/>
</g>
<!-- Node53 -->
<g id="node35" class="node">
<title>Node53</title>
<g id="a_node35"><a xlink:href="../../d6/de8/charmm36__lipid_8c.html" target="_top" xlink:title="CHARMM&#45;charmm36_lipid force field, from &#39;charmm36_lipid&#39;.">
<polygon fill="white" stroke="#666666" points="3074.5,-96 2937.5,-96 2937.5,-66 3074.5,-66 3074.5,-96"/>
<text text-anchor="start" x="2945.5" y="-84" font-family="Helvetica,sans-Serif" font-size="10.00">calc/force_fields/charmm36</text>
<text text-anchor="middle" x="3006" y="-73" font-family="Helvetica,sans-Serif" font-size="10.00">_lipid.c</text>
</a>
</g>
</g>
<!-- Node4&#45;&gt;Node53 -->
<g id="edge39" class="edge">
<title>Node4&#45;&gt;Node53</title>
<path fill="none" stroke="#63b8ff" d="M3219.65,-131.99C3179.93,-122.7 3115.61,-107.65 3067.9,-96.49"/>
<polygon fill="#63b8ff" stroke="#63b8ff" points="3218.64,-135.35 3229.18,-134.22 3220.24,-128.54 3218.64,-135.35"/>
</g>
<!-- Node54 -->
<g id="node36" class="node">
<title>Node54</title>
<g id="a_node36"><a xlink:href="../../da/daa/charmm36__na_8c.html" target="_top" xlink:title="CHARMM&#45;charmm36_na force field, from &#39;charmm36_na&#39;.">
<polygon fill="white" stroke="#666666" points="3253.5,-90.5 3092.5,-90.5 3092.5,-71.5 3253.5,-71.5 3253.5,-90.5"/>
<text text-anchor="middle" x="3173" y="-78.5" font-family="Helvetica,sans-Serif" font-size="10.00">calc/force_fields/charmm36_na.c</text>
</a>
</g>
</g>
<!-- Node4&#45;&gt;Node54 -->
<g id="edge40" class="edge">
<title>Node4&#45;&gt;Node54</title>
<path fill="none" stroke="#63b8ff" d="M3234.06,-125.04C3218.65,-114.17 3198.57,-100.02 3185.72,-90.97"/>
<polygon fill="#63b8ff" stroke="#63b8ff" points="3231.97,-127.84 3242.16,-130.74 3236,-122.12 3231.97,-127.84"/>
</g>
<!-- Node55 -->
<g id="node37" class="node">
<title>Node55</title>
<g id="a_node37"><a xlink:href="../../d1/d8a/charmm36__prot_8c.html" target="_top" xlink:title="CHARMM&#45;charmm36_prot force field, from &#39;charmm36_prot&#39;.">
<polygon fill="white" stroke="#666666" points="3408.5,-96 3271.5,-96 3271.5,-66 3408.5,-66 3408.5,-96"/>
<text text-anchor="start" x="3279.5" y="-84" font-family="Helvetica,sans-Serif" font-size="10.00">calc/force_fields/charmm36</text>
<text text-anchor="middle" x="3340" y="-73" font-family="Helvetica,sans-Serif" font-size="10.00">_prot.c</text>
</a>
</g>
</g>
<!-- Node4&#45;&gt;Node55 -->
<g id="edge41" class="edge">
<title>Node4&#45;&gt;Node55</title>
<path fill="none" stroke="#63b8ff" d="M3278.17,-125.06C3290.9,-116.2 3306.78,-105.13 3319.27,-96.44"/>
<polygon fill="#63b8ff" stroke="#63b8ff" points="3276.21,-122.16 3270,-130.75 3280.21,-127.91 3276.21,-122.16"/>
</g>
<!-- Node56 -->
<g id="node38" class="node">
<title>Node56</title>
<g id="a_node38"><a xlink:href="../../d7/df9/charmm36__prot__metals_8c.html" target="_top" xlink:title="CHARMM&#45;charmm36m_prot force field, from &#39;charmm36m_prot&#39;.">
<polygon fill="white" stroke="#666666" points="3563.5,-96 3426.5,-96 3426.5,-66 3563.5,-66 3563.5,-96"/>
<text text-anchor="start" x="3434.5" y="-84" font-family="Helvetica,sans-Serif" font-size="10.00">calc/force_fields/charmm36</text>
<text text-anchor="middle" x="3495" y="-73" font-family="Helvetica,sans-Serif" font-size="10.00">_prot_metals.c</text>
</a>
</g>
</g>
<!-- Node4&#45;&gt;Node56 -->
<g id="edge42" class="edge">
<title>Node4&#45;&gt;Node56</title>
<path fill="none" stroke="#63b8ff" d="M3292.18,-131.64C3330.25,-122.33 3390.79,-107.51 3435.83,-96.48"/>
<polygon fill="#63b8ff" stroke="#63b8ff" points="3291.48,-128.21 3282.6,-133.99 3293.14,-135.01 3291.48,-128.21"/>
</g>
<!-- Node57 -->
<g id="node39" class="node">
<title>Node57</title>
<g id="a_node39"><a xlink:href="../../d3/deb/charmm__silicates_8c.html" target="_top" xlink:title="CHARMM&#45;charmm_silicates force field, from &#39;charmm_silicates&#39;.">
<polygon fill="white" stroke="#666666" points="3708,-96 3582,-96 3582,-66 3708,-66 3708,-96"/>
<text text-anchor="start" x="3590" y="-84" font-family="Helvetica,sans-Serif" font-size="10.00">calc/force_fields/charmm</text>
<text text-anchor="middle" x="3645" y="-73" font-family="Helvetica,sans-Serif" font-size="10.00">_silicates.c</text>
</a>
</g>
</g>
<!-- Node4&#45;&gt;Node57 -->
<g id="edge43" class="edge">
<title>Node4&#45;&gt;Node57</title>
<path fill="none" stroke="#63b8ff" d="M3292.45,-136.02C3351.5,-128.61 3471.72,-112.94 3573,-96 3575.89,-95.52 3578.84,-95.01 3581.82,-94.48"/>
<polygon fill="#63b8ff" stroke="#63b8ff" points="3292.13,-132.53 3282.64,-137.24 3292.99,-139.48 3292.13,-132.53"/>
</g>
<!-- Node58 -->
<g id="node40" class="node">
<title>Node58</title>
<g id="a_node40"><a xlink:href="../../d6/dfb/compass_8c.html" target="_top" xlink:title="Compass force field, from &#39;Compass.frc&#39;.">
<polygon fill="white" stroke="#666666" points="3865.5,-90.5 3726.5,-90.5 3726.5,-71.5 3865.5,-71.5 3865.5,-90.5"/>
<text text-anchor="middle" x="3796" y="-78.5" font-family="Helvetica,sans-Serif" font-size="10.00">calc/force_fields/compass.c</text>
</a>
</g>
</g>
<!-- Node4&#45;&gt;Node58 -->
<g id="edge44" class="edge">
<title>Node4&#45;&gt;Node58</title>
<path fill="none" stroke="#63b8ff" d="M3292.44,-137.97C3370.51,-132.33 3559.57,-117.51 3717,-96 3727.35,-94.59 3738.42,-92.8 3748.89,-90.98"/>
<polygon fill="#63b8ff" stroke="#63b8ff" points="3292.55,-134.45 3282.83,-138.66 3293.05,-141.43 3292.55,-134.45"/>
</g>
<!-- Node59 -->
<g id="node41" class="node">
<title>Node59</title>
<g id="a_node41"><a xlink:href="../../de/df0/cvff_8c.html" target="_top" xlink:title="CVFF force field, from &#39;CVFF.frc&#39;.">
<polygon fill="white" stroke="#666666" points="3998.5,-90.5 3883.5,-90.5 3883.5,-71.5 3998.5,-71.5 3998.5,-90.5"/>
<text text-anchor="middle" x="3941" y="-78.5" font-family="Helvetica,sans-Serif" font-size="10.00">calc/force_fields/cvff.c</text>
</a>
</g>
</g>
<!-- Node4&#45;&gt;Node59 -->
<g id="edge45" class="edge">
<title>Node4&#45;&gt;Node59</title>
<path fill="none" stroke="#63b8ff" d="M3292.88,-139.61C3389.11,-136.92 3655.55,-127.01 3875,-96 3884.16,-94.71 3893.96,-92.88 3903.12,-90.97"/>
<polygon fill="#63b8ff" stroke="#63b8ff" points="3292.9,-136.11 3283,-139.88 3293.09,-143.11 3292.9,-136.11"/>
</g>
<!-- Node60 -->
<g id="node42" class="node">
<title>Node60</title>
<g id="a_node42"><a xlink:href="../../d3/d21/cvff__aug_8c.html" target="_top" xlink:title="CVFF_aug force field, from &#39;CVFF_aug.frc&#39;.">
<polygon fill="white" stroke="#666666" points="4123.5,-96 4016.5,-96 4016.5,-66 4123.5,-66 4123.5,-96"/>
<text text-anchor="start" x="4024.5" y="-84" font-family="Helvetica,sans-Serif" font-size="10.00">calc/force_fields/cvff</text>
<text text-anchor="middle" x="4070" y="-73" font-family="Helvetica,sans-Serif" font-size="10.00">_aug.c</text>
</a>
</g>
</g>
<!-- Node4&#45;&gt;Node60 -->
<g id="edge46" class="edge">
<title>Node4&#45;&gt;Node60</title>
<path fill="none" stroke="#63b8ff" d="M3292.83,-140.44C3402.33,-139.81 3735.28,-134.6 4008,-96 4010.73,-95.61 4013.52,-95.17 4016.33,-94.68"/>
<polygon fill="#63b8ff" stroke="#63b8ff" points="3292.96,-136.94 3282.98,-140.49 3293,-143.94 3292.96,-136.94"/>
</g>
<!-- Node61 -->
<g id="node43" class="node">
<title>Node61</title>
<g id="a_node43"><a xlink:href="../../dc/d29/oplsaap_8c.html" target="_top" xlink:title="OPLSAAM force field.">
<polygon fill="white" stroke="#666666" points="4274.5,-90.5 4141.5,-90.5 4141.5,-71.5 4274.5,-71.5 4274.5,-90.5"/>
<text text-anchor="middle" x="4208" y="-78.5" font-family="Helvetica,sans-Serif" font-size="10.00">calc/force_fields/oplsaap.c</text>
</a>
</g>
</g>
<!-- Node4&#45;&gt;Node61 -->
<g id="edge48" class="edge">
<title>Node4&#45;&gt;Node61</title>
<path fill="none" stroke="#63b8ff" d="M3292.66,-140.39C3413.31,-139.67 3808.78,-134.31 4133,-96 4143.52,-94.76 4154.79,-92.92 4165.32,-90.99"/>
<polygon fill="#63b8ff" stroke="#63b8ff" points="3292.71,-136.89 3282.73,-140.44 3292.75,-143.89 3292.71,-136.89"/>
</g>
<!-- Node62 -->
<g id="node44" class="node">
<title>Node62</title>
<g id="a_node44"><a xlink:href="../../d4/d82/oplsaar_8c.html" target="_top" xlink:title="OPLSAAR force field.">
<polygon fill="white" stroke="#666666" points="4423.5,-90.5 4292.5,-90.5 4292.5,-71.5 4423.5,-71.5 4423.5,-90.5"/>
<text text-anchor="middle" x="4358" y="-78.5" font-family="Helvetica,sans-Serif" font-size="10.00">calc/force_fields/oplsaar.c</text>
</a>
</g>
</g>
<!-- Node4&#45;&gt;Node62 -->
<g id="edge49" class="edge">
<title>Node4&#45;&gt;Node62</title>
<path fill="none" stroke="#63b8ff" d="M3292.64,-140.81C3426.03,-141.55 3898.1,-140.62 4284,-96 4294.52,-94.78 4305.79,-92.94 4316.29,-90.98"/>
<polygon fill="#63b8ff" stroke="#63b8ff" points="3292.69,-137.31 3282.67,-140.75 3292.64,-144.31 3292.69,-137.31"/>
</g>
<!-- Node63 -->
<g id="node45" class="node">
<title>Node63</title>
<g id="a_node45"><a xlink:href="../../dd/d55/pcff_8c.html" target="_top" xlink:title="PCFF force field, from &#39;PCFF.frc&#39;.">
<polygon fill="white" stroke="#666666" points="4556.5,-90.5 4441.5,-90.5 4441.5,-71.5 4556.5,-71.5 4556.5,-90.5"/>
<text text-anchor="middle" x="4499" y="-78.5" font-family="Helvetica,sans-Serif" font-size="10.00">calc/force_fields/pcff.c</text>
</a>
</g>
</g>
<!-- Node4&#45;&gt;Node63 -->
<g id="edge50" class="edge">
<title>Node4&#45;&gt;Node63</title>
<path fill="none" stroke="#63b8ff" d="M3292.76,-139.96C3466.27,-137.27 4204.36,-124.36 4433,-96 4442.53,-94.82 4452.73,-92.96 4462.19,-90.97"/>
<polygon fill="#63b8ff" stroke="#63b8ff" points="3292.72,-136.46 3282.77,-140.11 3292.82,-143.46 3292.72,-136.46"/>
</g>
<!-- Node64 -->
<g id="node46" class="node">
<title>Node64</title>
<g id="a_node46"><a xlink:href="../../d3/d0c/cedit_8c.html" target="_top" xlink:title="Initialization of the curve layout edition dialog.">
<polygon fill="white" stroke="#666666" points="4647.5,-90.5 4574.5,-90.5 4574.5,-71.5 4647.5,-71.5 4647.5,-90.5"/>
<text text-anchor="middle" x="4611" y="-78.5" font-family="Helvetica,sans-Serif" font-size="10.00">curve/cedit.c</text>
</a>
</g>
</g>
<!-- Node4&#45;&gt;Node64 -->
<g id="edge51" class="edge">
<title>Node4&#45;&gt;Node64</title>
<path fill="none" stroke="#63b8ff" d="M3292.76,-140.58C3478.11,-140.76 4311.32,-139.14 4566,-96 4572.78,-94.85 4579.95,-92.95 4586.53,-90.91"/>
<polygon fill="#63b8ff" stroke="#63b8ff" points="3292.78,-137.08 3282.78,-140.56 3292.77,-144.08 3292.78,-137.08"/>
</g>
<!-- Node65 -->
<g id="node47" class="node">
<title>Node65</title>
<g id="a_node47"><a xlink:href="../../d7/d21/cedit_8h.html" target="_top" xlink:title="Variable declarations for the curve layout edition window.">
<polygon fill="#fff0f0" stroke="red" points="5072.5,-90.5 4999.5,-90.5 4999.5,-71.5 5072.5,-71.5 5072.5,-90.5"/>
<text text-anchor="middle" x="5036" y="-78.5" font-family="Helvetica,sans-Serif" font-size="10.00">curve/cedit.h</text>
</a>
</g>
</g>
<!-- Node4&#45;&gt;Node65 -->
<g id="edge52" class="edge">
<title>Node4&#45;&gt;Node65</title>
<path fill="none" stroke="#63b8ff" d="M3292.56,-140.17C3527.29,-137.95 4818.14,-124.54 4991,-96 4997.78,-94.88 5004.96,-92.99 5011.54,-90.95"/>
<polygon fill="#63b8ff" stroke="#63b8ff" points="3292.77,-136.67 3282.8,-140.26 3292.83,-143.66 3292.77,-136.67"/>
</g>
<!-- Node66 -->
<g id="node48" class="node">
<title>Node66</title>
<g id="a_node48"><a xlink:href="../../dc/d22/curve_8c.html" target="_top" xlink:title="Functions to manage curves.">
<polygon fill="white" stroke="#666666" points="5232,-24.5 5156,-24.5 5156,-5.5 5232,-5.5 5232,-24.5"/>
<text text-anchor="middle" x="5194" y="-12.5" font-family="Helvetica,sans-Serif" font-size="10.00">curve/curve.c</text>
</a>
</g>
</g>
<!-- Node4&#45;&gt;Node66 -->
<g id="edge54" class="edge">
<title>Node4&#45;&gt;Node66</title>
<path fill="none" stroke="#63b8ff" d="M3292.7,-140.42C3567.74,-139.74 5296.83,-133.98 5334,-96 5369.44,-59.79 5284.78,-34.79 5232.13,-23.25"/>
<polygon fill="#63b8ff" stroke="#63b8ff" points="3292.91,-136.92 3282.92,-140.44 3292.93,-143.92 3292.91,-136.92"/>
</g>
<!-- Node4&#45;&gt;Node149 -->
<g id="edge56" class="edge">
<title>Node4&#45;&gt;Node149</title>
<path fill="none" stroke="#63b8ff" d="M3292.58,-140.29C3582.5,-138.61 5504.62,-126.33 5760,-96 5769.35,-94.89 5779.34,-93 5788.55,-90.96"/>
<polygon fill="#63b8ff" stroke="#63b8ff" points="3292.96,-136.79 3282.98,-140.35 3293,-143.79 3292.96,-136.79"/>
</g>
<!-- Node4&#45;&gt;Node207 -->
<g id="edge57" class="edge">
<title>Node4&#45;&gt;Node207</title>
<path fill="none" stroke="#63b8ff" d="M3292.39,-140.24C3573.03,-138.21 5388.29,-124.03 5630,-96 5639.63,-94.88 5649.94,-92.99 5659.45,-90.95"/>
<polygon fill="#63b8ff" stroke="#63b8ff" points="3292.75,-136.74 3282.77,-140.31 3292.8,-143.74 3292.75,-136.74"/>
</g>
<!-- Node23&#45;&gt;Node2 -->
<g id="edge28" class="edge">
<title>Node23&#45;&gt;Node2</title>
<path fill="none" stroke="#63b8ff" d="M1257.42,-72.44C1234.1,-70.1 1207.95,-67.7 1184,-66 776.91,-37.05 285.69,-22.07 118.22,-17.52"/>
<polygon fill="#63b8ff" stroke="#63b8ff" points="1256.81,-75.89 1267.11,-73.42 1257.52,-68.93 1256.81,-75.89"/>
</g>
<!-- Node23&#45;&gt;Node19 -->
<g id="edge23" class="edge">
<title>Node23&#45;&gt;Node19</title>
<path fill="none" stroke="#63b8ff" d="M1298.55,-66.1C1272.88,-53.56 1235.89,-35.49 1214.06,-24.82"/>
<polygon fill="#63b8ff" stroke="#63b8ff" points="1296.9,-69.19 1307.43,-70.44 1299.98,-62.9 1296.9,-69.19"/>
</g>
<!-- Node23&#45;&gt;Node20 -->
<g id="edge24" class="edge">
<title>Node23&#45;&gt;Node20</title>
<path fill="none" stroke="#63b8ff" d="M1329.22,-59.68C1330.51,-47.94 1332.06,-33.77 1333.03,-24.82"/>
<polygon fill="#63b8ff" stroke="#63b8ff" points="1325.75,-59.28 1328.14,-69.6 1332.7,-60.04 1325.75,-59.28"/>
</g>
<!-- Node23&#45;&gt;Node21 -->
<g id="edge25" class="edge">
<title>Node23&#45;&gt;Node21</title>
<path fill="none" stroke="#63b8ff" d="M1377.93,-68.83C1383.34,-67.8 1388.77,-66.84 1394,-66 1533.87,-43.63 1699.91,-27.9 1785.19,-20.6"/>
<polygon fill="#63b8ff" stroke="#63b8ff" points="1377.54,-65.34 1368.4,-70.72 1378.89,-72.21 1377.54,-65.34"/>
</g>
<!-- Node23&#45;&gt;Node22 -->
<g id="edge26" class="edge">
<title>Node23&#45;&gt;Node22</title>
<path fill="none" stroke="#63b8ff" d="M1375.42,-68.88C1381.65,-67.74 1387.95,-66.74 1394,-66 1650.12,-34.66 2470.76,-19.98 2678.07,-16.72"/>
<polygon fill="#63b8ff" stroke="#63b8ff" points="1375.01,-65.39 1365.86,-70.74 1376.35,-72.26 1375.01,-65.39"/>
</g>
<!-- Node23&#45;&gt;Node32 -->
<g id="edge27" class="edge">
<title>Node23&#45;&gt;Node32</title>
<path fill="none" stroke="#63b8ff" d="M1375.18,-68.85C1381.48,-67.71 1387.88,-66.71 1394,-66 1700.48,-30.3 2473.58,-38.83 2782,-30 2922.28,-25.98 3087.31,-20.66 3172.2,-17.88"/>
<polygon fill="#63b8ff" stroke="#63b8ff" points="1374.65,-65.39 1365.5,-70.74 1375.99,-72.26 1374.65,-65.39"/>
</g>
<!-- Node65&#45;&gt;Node66 -->
<g id="edge53" class="edge">
<title>Node65&#45;&gt;Node66</title>
<path fill="none" stroke="#63b8ff" d="M5068.63,-66.78C5099.55,-54.26 5145.12,-35.8 5171.96,-24.93"/>
<polygon fill="#63b8ff" stroke="#63b8ff" points="5067.33,-63.53 5059.37,-70.53 5069.95,-70.02 5067.33,-63.53"/>
</g>
</g>
</svg>
