<?xml version="1.0" encoding="UTF-8" standalone="no"?>
<!DOCTYPE svg PUBLIC "-//W3C//DTD SVG 1.1//EN"
 "http://www.w3.org/Graphics/SVG/1.1/DTD/svg11.dtd">
<!-- Generated by graphviz version 9.0.0 (20230911.1827)
 -->
<!-- Title: animation Pages: 1 -->
<svg width="629pt" height="444pt"
 viewBox="0.00 0.00 628.54 444.00" xmlns="http://www.w3.org/2000/svg" xmlns:xlink="http://www.w3.org/1999/xlink">
<g id="graph0" class="graph" transform="scale(1 1) rotate(0) translate(4 440)">
<title>animation</title>
<!-- Node1 -->
<g id="Node000001" class="node">
<title>Node1</title>
<g id="a_Node000001"><a xlink:title=" ">
<polygon fill="#999999" stroke="#666666" points="393.54,-20 335.54,-20 335.54,0 393.54,0 393.54,-20"/>
<text text-anchor="middle" x="364.54" y="-6.5" font-family="Helvetica,sans-Serif" font-size="10.00">animation</text>
</a>
</g>
</g>
<!-- Node2 -->
<g id="Node000002" class="node">
<title>Node2</title>
<g id="a_Node000002"><a xlink:href="../../df/d94/structsnapshot.html" target="_top" xlink:title=" ">
<polygon fill="white" stroke="#666666" points="392.41,-102 336.66,-102 336.66,-82 392.41,-82 392.41,-102"/>
<text text-anchor="middle" x="364.54" y="-88.5" font-family="Helvetica,sans-Serif" font-size="10.00">snapshot</text>
</a>
</g>
</g>
<!-- Node2&#45;&gt;Node1 -->
<g id="edge1_Node000001_Node000002" class="edge">
<title>Node2&#45;&gt;Node1</title>
<g id="a_edge1_Node000001_Node000002"><a xlink:title=" ">
<path fill="none" stroke="#9a32cd" stroke-dasharray="5,2" d="M364.54,-70.06C364.54,-54.01 364.54,-32.62 364.54,-20.48"/>
<polygon fill="#9a32cd" stroke="#9a32cd" points="361.04,-70 364.54,-80 368.04,-70 361.04,-70"/>
</a>
</g>
<text text-anchor="middle" x="374.29" y="-52.5" font-family="Helvetica,sans-Serif" font-size="10.00" fill="grey"> first</text>
<text text-anchor="middle" x="374.29" y="-40.5" font-family="Helvetica,sans-Serif" font-size="10.00" fill="grey">last</text>
</g>
<!-- Node2&#45;&gt;Node2 -->
<g id="edge19_Node000002_Node000002" class="edge">
<title>Node2&#45;&gt;Node2</title>
<g id="a_edge19_Node000002_Node000002"><a xlink:title=" ">
<path fill="none" stroke="#9a32cd" stroke-dasharray="5,2" d="M404,-97.51C407.92,-96.41 410.41,-94.57 410.41,-92 410.41,-87.43 402.53,-85.18 392.76,-85.25"/>
<polygon fill="#9a32cd" stroke="#9a32cd" points="403.82,-94.01 394.27,-98.58 404.59,-100.97 403.82,-94.01"/>
</a>
</g>
<text text-anchor="middle" x="421.29" y="-94.5" font-family="Helvetica,sans-Serif" font-size="10.00" fill="grey"> next</text>
<text text-anchor="middle" x="421.29" y="-82.5" font-family="Helvetica,sans-Serif" font-size="10.00" fill="grey">prev</text>
</g>
<!-- Node3 -->
<g id="Node000003" class="node">
<title>Node3</title>
<g id="a_Node000003"><a xlink:href="../../de/d68/structimage.html" target="_top" xlink:title=" ">
<polygon fill="white" stroke="#666666" points="385.66,-172 343.41,-172 343.41,-152 385.66,-152 385.66,-172"/>
<text text-anchor="middle" x="364.54" y="-158.5" font-family="Helvetica,sans-Serif" font-size="10.00">image</text>
</a>
</g>
</g>
<!-- Node3&#45;&gt;Node2 -->
<g id="edge2_Node000002_Node000003" class="edge">
<title>Node3&#45;&gt;Node2</title>
<g id="a_edge2_Node000002_Node000003"><a xlink:title=" ">
<path fill="none" stroke="#9a32cd" stroke-dasharray="5,2" d="M364.54,-140.2C364.54,-127.58 364.54,-112.09 364.54,-102.37"/>
<polygon fill="#9a32cd" stroke="#9a32cd" points="361.04,-140.03 364.54,-150.03 368.04,-140.03 361.04,-140.03"/>
</a>
</g>
<text text-anchor="middle" x="373.91" y="-124.5" font-family="Helvetica,sans-Serif" font-size="10.00" fill="grey"> img</text>
</g>
<!-- Node4 -->
<g id="Node000004" class="node">
<title>Node4</title>
<g id="a_Node000004"><a xlink:href="../../d1/d74/struct_col_r_g_b_a.html" target="_top" xlink:title=" ">
<polygon fill="white" stroke="#666666" points="144.29,-434 84.79,-434 84.79,-414 144.29,-414 144.29,-434"/>
<text text-anchor="middle" x="114.54" y="-420.5" font-family="Helvetica,sans-Serif" font-size="10.00">ColRGBA</text>
</a>
</g>
</g>
<!-- Node4&#45;&gt;Node3 -->
<g id="edge3_Node000003_Node000004" class="edge">
<title>Node4&#45;&gt;Node3</title>
<g id="a_edge3_Node000003_Node000004"><a xlink:title=" ">
<path fill="none" stroke="#9a32cd" stroke-dasharray="5,2" d="M92.06,-406.8C68.18,-388.06 31.83,-354.76 16.79,-316 1.36,-276.22 -10.56,-252.75 16.79,-220 58.75,-169.76 273.56,-163.68 342.92,-163.04"/>
<polygon fill="#9a32cd" stroke="#9a32cd" points="89.85,-409.52 99.93,-412.78 94.08,-403.94 89.85,-409.52"/>
</a>
</g>
<text text-anchor="middle" x="43.41" y="-306.5" font-family="Helvetica,sans-Serif" font-size="10.00" fill="grey"> at_color</text>
<text text-anchor="middle" x="43.41" y="-294.5" font-family="Helvetica,sans-Serif" font-size="10.00" fill="grey">axis_color</text>
<text text-anchor="middle" x="43.41" y="-282.5" font-family="Helvetica,sans-Serif" font-size="10.00" fill="grey">backcolor</text>
<text text-anchor="middle" x="43.41" y="-270.5" font-family="Helvetica,sans-Serif" font-size="10.00" fill="grey">box_color</text>
<text text-anchor="middle" x="43.41" y="-258.5" font-family="Helvetica,sans-Serif" font-size="10.00" fill="grey">fm_vol_col</text>
<text text-anchor="middle" x="43.41" y="-246.5" font-family="Helvetica,sans-Serif" font-size="10.00" fill="grey">labels_color</text>
<text text-anchor="middle" x="43.41" y="-234.5" font-family="Helvetica,sans-Serif" font-size="10.00" fill="grey">spcolor</text>
<text text-anchor="middle" x="43.41" y="-222.5" font-family="Helvetica,sans-Serif" font-size="10.00" fill="grey">vol_col</text>
</g>
<!-- Node5 -->
<g id="Node000005" class="node">
<title>Node5</title>
<g id="a_Node000005"><a xlink:href="../../d0/dc3/structscreen__string.html" target="_top" xlink:title=" ">
<polygon fill="white" stroke="#666666" points="151.79,-278 77.29,-278 77.29,-258 151.79,-258 151.79,-278"/>
<text text-anchor="middle" x="114.54" y="-264.5" font-family="Helvetica,sans-Serif" font-size="10.00">screen_string</text>
</a>
</g>
</g>
<!-- Node4&#45;&gt;Node5 -->
<g id="edge5_Node000005_Node000004" class="edge">
<title>Node4&#45;&gt;Node5</title>
<g id="a_edge5_Node000005_Node000004"><a xlink:title=" ">
<path fill="none" stroke="#9a32cd" stroke-dasharray="5,2" d="M114.54,-402.64C114.54,-368.91 114.54,-302.72 114.54,-278.32"/>
<polygon fill="#9a32cd" stroke="#9a32cd" points="111.04,-402.31 114.54,-412.31 118.04,-402.31 111.04,-402.31"/>
</a>
</g>
<text text-anchor="middle" x="122.41" y="-360.5" font-family="Helvetica,sans-Serif" font-size="10.00" fill="grey"> col</text>
</g>
<!-- Node6 -->
<g id="Node000006" class="node">
<title>Node6</title>
<g id="a_Node000006"><a xlink:href="../../d6/d0f/structatom__selection.html" target="_top" xlink:title=" ">
<polygon fill="white" stroke="#666666" points="288.54,-278 206.54,-278 206.54,-258 288.54,-258 288.54,-278"/>
<text text-anchor="middle" x="247.54" y="-264.5" font-family="Helvetica,sans-Serif" font-size="10.00">atom_selection</text>
</a>
</g>
</g>
<!-- Node4&#45;&gt;Node6 -->
<g id="edge8_Node000006_Node000004" class="edge">
<title>Node4&#45;&gt;Node6</title>
<g id="a_edge8_Node000006_Node000004"><a xlink:title=" ">
<path fill="none" stroke="#9a32cd" stroke-dasharray="5,2" d="M127.49,-404.51C144.47,-380.33 172.75,-340.31 178.29,-334 186.02,-325.2 188.99,-324.01 197.54,-316 211.45,-302.96 227.5,-287.86 237.59,-278.37"/>
<polygon fill="#9a32cd" stroke="#9a32cd" points="124.75,-402.32 121.88,-412.51 130.48,-406.34 124.75,-402.32"/>
</a>
</g>
<text text-anchor="middle" x="211.16" y="-372.5" font-family="Helvetica,sans-Serif" font-size="10.00" fill="grey"> angle_colors</text>
<text text-anchor="middle" x="211.16" y="-360.5" font-family="Helvetica,sans-Serif" font-size="10.00" fill="grey">bond_colors</text>
<text text-anchor="middle" x="211.16" y="-348.5" font-family="Helvetica,sans-Serif" font-size="10.00" fill="grey">dihedral_colors</text>
</g>
<!-- Node5&#45;&gt;Node3 -->
<g id="edge4_Node000003_Node000005" class="edge">
<title>Node5&#45;&gt;Node3</title>
<g id="a_edge4_Node000003_Node000005"><a xlink:title=" ">
<path fill="none" stroke="#9a32cd" stroke-dasharray="5,2" d="M130.21,-249.13C147.06,-231.16 175.56,-204.13 206.04,-190 251.62,-168.87 311.46,-164.1 342.98,-163.14"/>
<polygon fill="#9a32cd" stroke="#9a32cd" points="127.67,-246.72 123.53,-256.47 132.85,-251.43 127.67,-246.72"/>
</a>
</g>
<text text-anchor="middle" x="229.79" y="-192.5" font-family="Helvetica,sans-Serif" font-size="10.00" fill="grey"> labels_list</text>
</g>
<!-- Node5&#45;&gt;Node5 -->
<g id="edge6_Node000005_Node000005" class="edge">
<title>Node5&#45;&gt;Node5</title>
<g id="a_edge6_Node000005_Node000005"><a xlink:title=" ">
<path fill="none" stroke="#9a32cd" stroke-dasharray="5,2" d="M142.79,-281.08C157.04,-282.95 169.79,-278.59 169.79,-268 169.79,-254.71 149.71,-251.23 131.79,-257.57"/>
<polygon fill="#9a32cd" stroke="#9a32cd" points="143.81,-277.72 133.26,-278.79 142.17,-284.53 143.81,-277.72"/>
</a>
</g>
<text text-anchor="middle" x="179.16" y="-270.5" font-family="Helvetica,sans-Serif" font-size="10.00" fill="grey"> last</text>
<text text-anchor="middle" x="179.16" y="-258.5" font-family="Helvetica,sans-Serif" font-size="10.00" fill="grey">prev</text>
</g>
<!-- Node6&#45;&gt;Node3 -->
<g id="edge7_Node000003_Node000006" class="edge">
<title>Node6&#45;&gt;Node3</title>
<g id="a_edge7_Node000003_Node000006"><a xlink:title=" ">
<path fill="none" stroke="#9a32cd" stroke-dasharray="5,2" d="M246.65,-246.15C247.08,-228.9 250.53,-204.9 264.79,-190 285.13,-168.74 320.35,-163.64 343.03,-162.72"/>
<polygon fill="#9a32cd" stroke="#9a32cd" points="243.15,-246.05 246.76,-256.01 250.15,-245.97 243.15,-246.05"/>
</a>
</g>
<text text-anchor="middle" x="285.41" y="-192.5" font-family="Helvetica,sans-Serif" font-size="10.00" fill="grey"> selected</text>
</g>
<!-- Node7 -->
<g id="Node000007" class="node">
<title>Node7</title>
<g id="a_Node000007"><a xlink:href="../../df/dab/structatom__in__selection.html" target="_top" xlink:title=" ">
<polygon fill="white" stroke="#666666" points="294.91,-434 200.16,-434 200.16,-414 294.91,-414 294.91,-434"/>
<text text-anchor="middle" x="247.54" y="-420.5" font-family="Helvetica,sans-Serif" font-size="10.00">atom_in_selection</text>
</a>
</g>
</g>
<!-- Node7&#45;&gt;Node6 -->
<g id="edge9_Node000006_Node000007" class="edge">
<title>Node7&#45;&gt;Node6</title>
<g id="a_edge9_Node000006_Node000007"><a xlink:title=" ">
<path fill="none" stroke="#9a32cd" stroke-dasharray="5,2" d="M247.54,-402.64C247.54,-368.91 247.54,-302.72 247.54,-278.32"/>
<polygon fill="#9a32cd" stroke="#9a32cd" points="244.04,-402.31 247.54,-412.31 251.04,-402.31 244.04,-402.31"/>
</a>
</g>
<text text-anchor="middle" x="257.29" y="-366.5" font-family="Helvetica,sans-Serif" font-size="10.00" fill="grey"> first</text>
<text text-anchor="middle" x="257.29" y="-354.5" font-family="Helvetica,sans-Serif" font-size="10.00" fill="grey">last</text>
</g>
<!-- Node7&#45;&gt;Node7 -->
<g id="edge10_Node000007_Node000007" class="edge">
<title>Node7&#45;&gt;Node7</title>
<g id="a_edge10_Node000007_Node000007"><a xlink:title=" ">
<path fill="none" stroke="#9a32cd" stroke-dasharray="5,2" d="M288.45,-435.25C302.05,-435.24 312.91,-431.49 312.91,-424 312.91,-414.51 295.46,-411.02 277.12,-413.54"/>
<polygon fill="#9a32cd" stroke="#9a32cd" points="288.85,-431.77 278.63,-434.56 288.36,-438.75 288.85,-431.77"/>
</a>
</g>
<text text-anchor="middle" x="323.79" y="-426.5" font-family="Helvetica,sans-Serif" font-size="10.00" fill="grey"> next</text>
<text text-anchor="middle" x="323.79" y="-414.5" font-family="Helvetica,sans-Serif" font-size="10.00" fill="grey">prev</text>
</g>
<!-- Node8 -->
<g id="Node000008" class="node">
<title>Node8</title>
<g id="a_Node000008"><a xlink:href="../../d7/d36/structvec4__t.html" target="_top" xlink:title=" ">
<polygon fill="white" stroke="#666666" points="352.16,-278 306.91,-278 306.91,-258 352.16,-258 352.16,-278"/>
<text text-anchor="middle" x="329.54" y="-264.5" font-family="Helvetica,sans-Serif" font-size="10.00">vec4_t</text>
</a>
</g>
</g>
<!-- Node8&#45;&gt;Node3 -->
<g id="edge11_Node000003_Node000008" class="edge">
<title>Node8&#45;&gt;Node3</title>
<g id="a_edge11_Node000003_Node000008"><a xlink:title=" ">
<path fill="none" stroke="#9a32cd" stroke-dasharray="5,2" d="M317.94,-248.2C309.45,-231.78 301.14,-207.86 312.04,-190 318.82,-178.89 331.79,-172.16 343.15,-168.19"/>
<polygon fill="#9a32cd" stroke="#9a32cd" points="314.64,-249.46 322.61,-256.44 320.73,-246.01 314.64,-249.46"/>
</a>
</g>
<text text-anchor="middle" x="355.29" y="-192.5" font-family="Helvetica,sans-Serif" font-size="10.00" fill="grey"> rotation_quaternion</text>
</g>
<!-- Node9 -->
<g id="Node000009" class="node">
<title>Node9</title>
<g id="a_Node000009"><a xlink:href="../../db/d99/structatom__data.html" target="_top" xlink:title=" ">
<polygon fill="white" stroke="#666666" points="441.41,-278 379.66,-278 379.66,-258 441.41,-258 441.41,-278"/>
<text text-anchor="middle" x="410.54" y="-264.5" font-family="Helvetica,sans-Serif" font-size="10.00">atom_data</text>
</a>
</g>
</g>
<!-- Node9&#45;&gt;Node3 -->
<g id="edge12_Node000003_Node000009" class="edge">
<title>Node9&#45;&gt;Node3</title>
<g id="a_edge12_Node000003_Node000009"><a xlink:title=" ">
<path fill="none" stroke="#9a32cd" stroke-dasharray="5,2" d="M410.92,-246.3C410.34,-229.99 407.53,-207.21 397.54,-190 393.45,-182.96 386.78,-176.98 380.51,-172.46"/>
<polygon fill="#9a32cd" stroke="#9a32cd" points="407.42,-246.28 410.99,-256.25 414.42,-246.23 407.42,-246.28"/>
</a>
</g>
<text text-anchor="middle" x="421.16" y="-192.5" font-family="Helvetica,sans-Serif" font-size="10.00" fill="grey"> at_data</text>
</g>
<!-- Node10 -->
<g id="Node000010" class="node">
<title>Node10</title>
<g id="a_Node000010"><a xlink:href="../../d7/d61/struct_light.html" target="_top" xlink:title=" ">
<polygon fill="white" stroke="#666666" points="496.04,-278 459.04,-278 459.04,-258 496.04,-258 496.04,-278"/>
<text text-anchor="middle" x="477.54" y="-264.5" font-family="Helvetica,sans-Serif" font-size="10.00">Light</text>
</a>
</g>
</g>
<!-- Node10&#45;&gt;Node3 -->
<g id="edge13_Node000003_Node000010" class="edge">
<title>Node10&#45;&gt;Node3</title>
<g id="a_edge13_Node000003_Node000010"><a xlink:title=" ">
<path fill="none" stroke="#9a32cd" stroke-dasharray="5,2" d="M473.01,-246.4C468.2,-229.13 458.96,-204.96 442.54,-190 426.86,-175.72 403.24,-168.93 386.1,-165.74"/>
<polygon fill="#9a32cd" stroke="#9a32cd" points="469.6,-247.19 475.4,-256.05 476.39,-245.5 469.6,-247.19"/>
</a>
</g>
<text text-anchor="middle" x="465.54" y="-192.5" font-family="Helvetica,sans-Serif" font-size="10.00" fill="grey"> l_ght</text>
</g>
<!-- Node11 -->
<g id="Node000011" class="node">
<title>Node11</title>
<g id="a_Node000011"><a xlink:href="../../d3/d7c/structvec3__t.html" target="_top" xlink:title=" ">
<polygon fill="white" stroke="#666666" points="567.16,-434 521.91,-434 521.91,-414 567.16,-414 567.16,-434"/>
<text text-anchor="middle" x="544.54" y="-420.5" font-family="Helvetica,sans-Serif" font-size="10.00">vec3_t</text>
</a>
</g>
</g>
<!-- Node11&#45;&gt;Node10 -->
<g id="edge14_Node000010_Node000011" class="edge">
<title>Node11&#45;&gt;Node10</title>
<g id="a_edge14_Node000010_Node000011"><a xlink:title=" ">
<path fill="none" stroke="#9a32cd" stroke-dasharray="5,2" d="M511.12,-412.89C502.04,-408.52 493.18,-402.42 487.54,-394 463.07,-357.46 470.99,-300.76 475.42,-278.46"/>
<polygon fill="#9a32cd" stroke="#9a32cd" points="509.7,-416.1 520.28,-416.68 512.38,-409.63 509.7,-416.1"/>
</a>
</g>
<text text-anchor="middle" x="513.04" y="-384.5" font-family="Helvetica,sans-Serif" font-size="10.00" fill="grey"> attenuation</text>
<text text-anchor="middle" x="513.04" y="-372.5" font-family="Helvetica,sans-Serif" font-size="10.00" fill="grey">direction</text>
<text text-anchor="middle" x="513.04" y="-360.5" font-family="Helvetica,sans-Serif" font-size="10.00" fill="grey">intensity</text>
<text text-anchor="middle" x="513.04" y="-348.5" font-family="Helvetica,sans-Serif" font-size="10.00" fill="grey">position</text>
<text text-anchor="middle" x="513.04" y="-336.5" font-family="Helvetica,sans-Serif" font-size="10.00" fill="grey">spot_data</text>
</g>
<!-- Node12 -->
<g id="Node000012" class="node">
<title>Node12</title>
<g id="a_Node000012"><a xlink:href="../../d3/d0a/struct_material.html" target="_top" xlink:title=" ">
<polygon fill="white" stroke="#666666" points="564.79,-278 514.29,-278 514.29,-258 564.79,-258 564.79,-278"/>
<text text-anchor="middle" x="539.54" y="-264.5" font-family="Helvetica,sans-Serif" font-size="10.00">Material</text>
</a>
</g>
</g>
<!-- Node11&#45;&gt;Node12 -->
<g id="edge16_Node000012_Node000011" class="edge">
<title>Node11&#45;&gt;Node12</title>
<g id="a_edge16_Node000012_Node000011"><a xlink:title=" ">
<path fill="none" stroke="#9a32cd" stroke-dasharray="5,2" d="M543.88,-402.64C542.78,-368.91 540.63,-302.72 539.84,-278.32"/>
<polygon fill="#9a32cd" stroke="#9a32cd" points="540.37,-402.43 544.19,-412.32 547.37,-402.21 540.37,-402.43"/>
</a>
</g>
<text text-anchor="middle" x="560.29" y="-360.5" font-family="Helvetica,sans-Serif" font-size="10.00" fill="grey"> albedo</text>
</g>
<!-- Node13 -->
<g id="Node000013" class="node">
<title>Node13</title>
<g id="a_Node000013"><a xlink:href="../../d8/df7/struct_fog.html" target="_top" xlink:title=" ">
<polygon fill="white" stroke="#666666" points="615.79,-278 583.29,-278 583.29,-258 615.79,-258 615.79,-278"/>
<text text-anchor="middle" x="599.54" y="-264.5" font-family="Helvetica,sans-Serif" font-size="10.00">Fog</text>
</a>
</g>
</g>
<!-- Node11&#45;&gt;Node13 -->
<g id="edge18_Node000013_Node000011" class="edge">
<title>Node11&#45;&gt;Node13</title>
<g id="a_edge18_Node000013_Node000011"><a xlink:title=" ">
<path fill="none" stroke="#9a32cd" stroke-dasharray="5,2" d="M567.64,-406.4C571.46,-402.71 574.99,-398.54 577.54,-394 599.24,-355.39 600.43,-300.35 599.93,-278.48"/>
<polygon fill="#9a32cd" stroke="#9a32cd" points="565.63,-403.52 560.28,-412.66 570.16,-408.85 565.63,-403.52"/>
</a>
</g>
<text text-anchor="middle" x="608.54" y="-360.5" font-family="Helvetica,sans-Serif" font-size="10.00" fill="grey"> color</text>
</g>
<!-- Node12&#45;&gt;Node3 -->
<g id="edge15_Node000003_Node000012" class="edge">
<title>Node12&#45;&gt;Node3</title>
<g id="a_edge15_Node000003_Node000012"><a xlink:title=" ">
<path fill="none" stroke="#9a32cd" stroke-dasharray="5,2" d="M530.07,-247.6C520.36,-229.83 503.58,-204.18 481.54,-190 452.09,-171.05 410.9,-165.34 386.07,-163.66"/>
<polygon fill="#9a32cd" stroke="#9a32cd" points="526.9,-249.1 534.6,-256.37 533.12,-245.88 526.9,-249.1"/>
</a>
</g>
<text text-anchor="middle" x="515.29" y="-192.5" font-family="Helvetica,sans-Serif" font-size="10.00" fill="grey"> m_terial</text>
</g>
<!-- Node13&#45;&gt;Node3 -->
<g id="edge17_Node000003_Node000013" class="edge">
<title>Node13&#45;&gt;Node3</title>
<g id="a_edge17_Node000003_Node000013"><a xlink:title=" ">
<path fill="none" stroke="#9a32cd" stroke-dasharray="5,2" d="M590.82,-247.53C586.34,-238.65 580.39,-228.29 573.54,-220 560.27,-203.95 556.52,-198.58 537.54,-190 486.72,-167.01 419.87,-163.11 386.08,-162.74"/>
<polygon fill="#9a32cd" stroke="#9a32cd" points="587.56,-248.82 595.01,-256.35 593.88,-245.82 587.56,-248.82"/>
</a>
</g>
<text text-anchor="middle" x="565.79" y="-192.5" font-family="Helvetica,sans-Serif" font-size="10.00" fill="grey"> f_g</text>
</g>
</g>
</svg>
