<?xml version="1.0" encoding="UTF-8" standalone="no"?>
<!DOCTYPE svg PUBLIC "-//W3C//DTD SVG 1.1//EN"
 "http://www.w3.org/Graphics/SVG/1.1/DTD/svg11.dtd">
<!-- Generated by graphviz version 7.1.0 (0)
 -->
<!-- Title: animation Pages: 1 -->
<svg width="633pt" height="421pt"
 viewBox="0.00 0.00 632.65 421.00" xmlns="http://www.w3.org/2000/svg" xmlns:xlink="http://www.w3.org/1999/xlink">
<g id="graph0" class="graph" transform="scale(1 1) rotate(0) translate(4 417)">
<title>animation</title>
<!-- Node1 -->
<g id="node1" class="node">
<title>Node1</title>
<g id="a_node1"><a xlink:title=" ">
<polygon fill="#999999" stroke="#666666" points="395.15,-19 336.15,-19 336.15,0 395.15,0 395.15,-19"/>
<text text-anchor="middle" x="365.65" y="-7" font-family="Helvetica,sans-Serif" font-size="10.00">animation</text>
</a>
</g>
</g>
<!-- Node2 -->
<g id="node2" class="node">
<title>Node2</title>
<g id="a_node2"><a xlink:href="../../df/d94/structsnapshot.html" target="_top" xlink:title=" ">
<polygon fill="white" stroke="#666666" points="393.65,-97.5 337.65,-97.5 337.65,-78.5 393.65,-78.5 393.65,-97.5"/>
<text text-anchor="middle" x="365.65" y="-85.5" font-family="Helvetica,sans-Serif" font-size="10.00">snapshot</text>
</a>
</g>
</g>
<!-- Node2&#45;&gt;Node1 -->
<g id="edge1" class="edge">
<title>Node2&#45;&gt;Node1</title>
<path fill="none" stroke="#9a32cd" stroke-dasharray="5,2" d="M365.65,-66.72C365.65,-51.23 365.65,-30.65 365.65,-19.17"/>
<polygon fill="#9a32cd" stroke="#9a32cd" points="362.15,-66.71 365.65,-76.71 369.15,-66.71 362.15,-66.71"/>
<text text-anchor="middle" x="375.65" y="-51" font-family="Helvetica,sans-Serif" font-size="10.00"> first</text>
<text text-anchor="middle" x="375.65" y="-40" font-family="Helvetica,sans-Serif" font-size="10.00">last</text>
</g>
<!-- Node2&#45;&gt;Node2 -->
<g id="edge19" class="edge">
<title>Node2&#45;&gt;Node2</title>
<path fill="none" stroke="#9a32cd" stroke-dasharray="5,2" d="M405.22,-93.28C409.15,-92.22 411.65,-90.46 411.65,-88 411.65,-83.62 403.74,-81.46 393.95,-81.53"/>
<polygon fill="#9a32cd" stroke="#9a32cd" points="405.03,-89.78 395.45,-94.31 405.77,-96.74 405.03,-89.78"/>
<text text-anchor="middle" x="422.65" y="-91" font-family="Helvetica,sans-Serif" font-size="10.00"> next</text>
<text text-anchor="middle" x="422.65" y="-80" font-family="Helvetica,sans-Serif" font-size="10.00">prev</text>
</g>
<!-- Node3 -->
<g id="node3" class="node">
<title>Node3</title>
<g id="a_node3"><a xlink:href="../../de/d68/structimage.html" target="_top" xlink:title="a structure to describe the content of the OpenGL rendering">
<polygon fill="white" stroke="#666666" points="387.15,-165 344.15,-165 344.15,-146 387.15,-146 387.15,-165"/>
<text text-anchor="middle" x="365.65" y="-153" font-family="Helvetica,sans-Serif" font-size="10.00">image</text>
</a>
</g>
</g>
<!-- Node3&#45;&gt;Node2 -->
<g id="edge2" class="edge">
<title>Node3&#45;&gt;Node2</title>
<path fill="none" stroke="#9a32cd" stroke-dasharray="5,2" d="M365.65,-134.24C365.65,-121.98 365.65,-106.97 365.65,-97.69"/>
<polygon fill="#9a32cd" stroke="#9a32cd" points="362.15,-134.15 365.65,-144.15 369.15,-134.15 362.15,-134.15"/>
<text text-anchor="middle" x="375.15" y="-120" font-family="Helvetica,sans-Serif" font-size="10.00"> img</text>
</g>
<!-- Node4 -->
<g id="node4" class="node">
<title>Node4</title>
<g id="a_node4"><a xlink:href="../../d1/d74/struct_col_r_g_b_a.html" target="_top" xlink:title=" ">
<polygon fill="white" stroke="#666666" points="144.65,-411.5 84.65,-411.5 84.65,-392.5 144.65,-392.5 144.65,-411.5"/>
<text text-anchor="middle" x="114.65" y="-399.5" font-family="Helvetica,sans-Serif" font-size="10.00">ColRGBA</text>
</a>
</g>
</g>
<!-- Node4&#45;&gt;Node3 -->
<g id="edge3" class="edge">
<title>Node4&#45;&gt;Node3</title>
<path fill="none" stroke="#9a32cd" stroke-dasharray="5,2" d="M91.54,-385.8C67.38,-368.38 30.91,-337.36 15.65,-300 0.86,-263.79 -9.56,-241.9 15.65,-212 58.08,-161.67 274.15,-156.7 343.9,-156.43"/>
<polygon fill="#9a32cd" stroke="#9a32cd" points="89.29,-388.5 99.49,-391.34 93.29,-382.75 89.29,-388.5"/>
<text text-anchor="middle" x="41.65" y="-292" font-family="Helvetica,sans-Serif" font-size="10.00"> at_color</text>
<text text-anchor="middle" x="41.65" y="-281" font-family="Helvetica,sans-Serif" font-size="10.00">axis_color</text>
<text text-anchor="middle" x="41.65" y="-270" font-family="Helvetica,sans-Serif" font-size="10.00">backcolor</text>
<text text-anchor="middle" x="41.65" y="-259" font-family="Helvetica,sans-Serif" font-size="10.00">box_color</text>
<text text-anchor="middle" x="41.65" y="-248" font-family="Helvetica,sans-Serif" font-size="10.00">fm_vol_col</text>
<text text-anchor="middle" x="41.65" y="-237" font-family="Helvetica,sans-Serif" font-size="10.00">labels_color</text>
<text text-anchor="middle" x="41.65" y="-226" font-family="Helvetica,sans-Serif" font-size="10.00">spcolor</text>
<text text-anchor="middle" x="41.65" y="-215" font-family="Helvetica,sans-Serif" font-size="10.00">vol_col</text>
</g>
<!-- Node5 -->
<g id="node5" class="node">
<title>Node5</title>
<g id="a_node5"><a xlink:href="../../d0/dc3/structscreen__string.html" target="_top" xlink:title="OpenGL string rendering.">
<polygon fill="white" stroke="#666666" points="152.15,-265.5 77.15,-265.5 77.15,-246.5 152.15,-246.5 152.15,-265.5"/>
<text text-anchor="middle" x="114.65" y="-253.5" font-family="Helvetica,sans-Serif" font-size="10.00">screen_string</text>
</a>
</g>
</g>
<!-- Node4&#45;&gt;Node5 -->
<g id="edge5" class="edge">
<title>Node4&#45;&gt;Node5</title>
<path fill="none" stroke="#9a32cd" stroke-dasharray="5,2" d="M114.65,-381.12C114.65,-349.33 114.65,-288.33 114.65,-265.71"/>
<polygon fill="#9a32cd" stroke="#9a32cd" points="111.15,-380.91 114.65,-390.91 118.15,-380.91 111.15,-380.91"/>
<text text-anchor="middle" x="122.65" y="-343" font-family="Helvetica,sans-Serif" font-size="10.00"> col</text>
</g>
<!-- Node6 -->
<g id="node6" class="node">
<title>Node6</title>
<g id="a_node6"><a xlink:href="../../d6/d0f/structatom__selection.html" target="_top" xlink:title=" ">
<polygon fill="white" stroke="#666666" points="290.15,-265.5 207.15,-265.5 207.15,-246.5 290.15,-246.5 290.15,-265.5"/>
<text text-anchor="middle" x="248.65" y="-253.5" font-family="Helvetica,sans-Serif" font-size="10.00">atom_selection</text>
</a>
</g>
</g>
<!-- Node4&#45;&gt;Node6 -->
<g id="edge8" class="edge">
<title>Node4&#45;&gt;Node6</title>
<path fill="none" stroke="#9a32cd" stroke-dasharray="5,2" d="M127.83,-383.06C143.26,-362.23 168.04,-329.27 178.65,-318 188.87,-307.15 220.88,-280.12 237.84,-265.97"/>
<polygon fill="#9a32cd" stroke="#9a32cd" points="125.13,-380.83 122.01,-390.95 130.77,-384.98 125.13,-380.83"/>
<text text-anchor="middle" x="211.65" y="-354" font-family="Helvetica,sans-Serif" font-size="10.00"> angle_colors</text>
<text text-anchor="middle" x="211.65" y="-343" font-family="Helvetica,sans-Serif" font-size="10.00">bond_colors</text>
<text text-anchor="middle" x="211.65" y="-332" font-family="Helvetica,sans-Serif" font-size="10.00">dihedral_colors</text>
</g>
<!-- Node5&#45;&gt;Node3 -->
<g id="edge4" class="edge">
<title>Node5&#45;&gt;Node3</title>
<path fill="none" stroke="#9a32cd" stroke-dasharray="5,2" d="M130.87,-238.31C148.23,-221.51 177.38,-196.24 207.65,-183 253.26,-163.04 312.33,-158.04 343.75,-156.83"/>
<polygon fill="#9a32cd" stroke="#9a32cd" points="128.61,-235.61 123.99,-245.14 133.55,-240.57 128.61,-235.61"/>
<text text-anchor="middle" x="231.15" y="-186" font-family="Helvetica,sans-Serif" font-size="10.00"> labels_list</text>
</g>
<!-- Node5&#45;&gt;Node5 -->
<g id="edge6" class="edge">
<title>Node5&#45;&gt;Node5</title>
<path fill="none" stroke="#9a32cd" stroke-dasharray="5,2" d="M143.49,-268.32C157.61,-269.93 170.15,-265.82 170.15,-256 170.15,-243.67 150.41,-240.35 132.55,-246.03"/>
<polygon fill="#9a32cd" stroke="#9a32cd" points="144.55,-264.96 134.03,-266.29 143.08,-271.81 144.55,-264.96"/>
<text text-anchor="middle" x="179.65" y="-259" font-family="Helvetica,sans-Serif" font-size="10.00"> last</text>
<text text-anchor="middle" x="179.65" y="-248" font-family="Helvetica,sans-Serif" font-size="10.00">prev</text>
</g>
<!-- Node6&#45;&gt;Node3 -->
<g id="edge7" class="edge">
<title>Node6&#45;&gt;Node3</title>
<path fill="none" stroke="#9a32cd" stroke-dasharray="5,2" d="M247.77,-234.77C248.2,-218.69 251.47,-196.68 264.65,-183 285.27,-161.58 320.92,-156.73 343.88,-156.01"/>
<polygon fill="#9a32cd" stroke="#9a32cd" points="244.27,-234.66 247.88,-244.62 251.27,-234.58 244.27,-234.66"/>
<text text-anchor="middle" x="284.65" y="-186" font-family="Helvetica,sans-Serif" font-size="10.00"> selected</text>
</g>
<!-- Node7 -->
<g id="node7" class="node">
<title>Node7</title>
<g id="a_node7"><a xlink:href="../../dd/d4c/structselatom.html" target="_top" xlink:title=" ">
<polygon fill="white" stroke="#666666" points="274.15,-411.5 223.15,-411.5 223.15,-392.5 274.15,-392.5 274.15,-411.5"/>
<text text-anchor="middle" x="248.65" y="-399.5" font-family="Helvetica,sans-Serif" font-size="10.00">selatom</text>
</a>
</g>
</g>
<!-- Node7&#45;&gt;Node6 -->
<g id="edge9" class="edge">
<title>Node7&#45;&gt;Node6</title>
<path fill="none" stroke="#9a32cd" stroke-dasharray="5,2" d="M248.65,-381.12C248.65,-349.33 248.65,-288.33 248.65,-265.71"/>
<polygon fill="#9a32cd" stroke="#9a32cd" points="245.15,-380.91 248.65,-390.91 252.15,-380.91 245.15,-380.91"/>
<text text-anchor="middle" x="258.65" y="-348.5" font-family="Helvetica,sans-Serif" font-size="10.00"> first</text>
<text text-anchor="middle" x="258.65" y="-337.5" font-family="Helvetica,sans-Serif" font-size="10.00">last</text>
</g>
<!-- Node7&#45;&gt;Node7 -->
<g id="edge10" class="edge">
<title>Node7&#45;&gt;Node7</title>
<path fill="none" stroke="#9a32cd" stroke-dasharray="5,2" d="M280.03,-412.32C287.04,-411.37 292.15,-407.93 292.15,-402 292.15,-393.17 280.82,-389.86 268.79,-392.07"/>
<polygon fill="#9a32cd" stroke="#9a32cd" points="280.41,-408.83 270.3,-411.98 280.17,-415.83 280.41,-408.83"/>
<text text-anchor="middle" x="303.15" y="-405" font-family="Helvetica,sans-Serif" font-size="10.00"> next</text>
<text text-anchor="middle" x="303.15" y="-394" font-family="Helvetica,sans-Serif" font-size="10.00">prev</text>
</g>
<!-- Node8 -->
<g id="node8" class="node">
<title>Node8</title>
<g id="a_node8"><a xlink:href="../../d7/d36/structvec4__t.html" target="_top" xlink:title=" ">
<polygon fill="white" stroke="#666666" points="354.65,-265.5 308.65,-265.5 308.65,-246.5 354.65,-246.5 354.65,-265.5"/>
<text text-anchor="middle" x="331.65" y="-253.5" font-family="Helvetica,sans-Serif" font-size="10.00">vec4_t</text>
</a>
</g>
</g>
<!-- Node8&#45;&gt;Node3 -->
<g id="edge11" class="edge">
<title>Node8&#45;&gt;Node3</title>
<path fill="none" stroke="#9a32cd" stroke-dasharray="5,2" d="M319.52,-237.02C310.86,-221.71 302.38,-199.62 312.65,-183 319.46,-171.97 332.41,-165.38 343.8,-161.53"/>
<polygon fill="#9a32cd" stroke="#9a32cd" points="316.29,-238.44 324.53,-245.1 322.24,-234.75 316.29,-238.44"/>
<text text-anchor="middle" x="355.65" y="-186" font-family="Helvetica,sans-Serif" font-size="10.00"> rotation_quaternion</text>
</g>
<!-- Node9 -->
<g id="node9" class="node">
<title>Node9</title>
<g id="a_node9"><a xlink:href="../../db/d99/structatom__data.html" target="_top" xlink:title=" ">
<polygon fill="white" stroke="#666666" points="442.65,-265.5 380.65,-265.5 380.65,-246.5 442.65,-246.5 442.65,-265.5"/>
<text text-anchor="middle" x="411.65" y="-253.5" font-family="Helvetica,sans-Serif" font-size="10.00">atom_data</text>
</a>
</g>
</g>
<!-- Node9&#45;&gt;Node3 -->
<g id="edge12" class="edge">
<title>Node9&#45;&gt;Node3</title>
<path fill="none" stroke="#9a32cd" stroke-dasharray="5,2" d="M411.75,-235.16C411,-219.92 408.08,-198.87 398.65,-183 394.37,-175.8 387.36,-169.76 380.89,-165.27"/>
<polygon fill="#9a32cd" stroke="#9a32cd" points="408.24,-234.91 411.94,-244.84 415.24,-234.77 408.24,-234.91"/>
<text text-anchor="middle" x="422.65" y="-186" font-family="Helvetica,sans-Serif" font-size="10.00"> at_data</text>
</g>
<!-- Node10 -->
<g id="node10" class="node">
<title>Node10</title>
<g id="a_node10"><a xlink:href="../../d7/d61/struct_light.html" target="_top" xlink:title="Light parameters for OpenGL rendering.">
<polygon fill="white" stroke="#666666" points="498.65,-265.5 460.65,-265.5 460.65,-246.5 498.65,-246.5 498.65,-265.5"/>
<text text-anchor="middle" x="479.65" y="-253.5" font-family="Helvetica,sans-Serif" font-size="10.00">Light</text>
</a>
</g>
</g>
<!-- Node10&#45;&gt;Node3 -->
<g id="edge13" class="edge">
<title>Node10&#45;&gt;Node3</title>
<path fill="none" stroke="#9a32cd" stroke-dasharray="5,2" d="M474.65,-235.21C469.61,-219.06 460.29,-196.75 444.65,-183 428.57,-168.87 404.68,-162.22 387.38,-159.12"/>
<polygon fill="#9a32cd" stroke="#9a32cd" points="471.23,-235.97 477.3,-244.65 477.97,-234.08 471.23,-235.97"/>
<text text-anchor="middle" x="466.15" y="-186" font-family="Helvetica,sans-Serif" font-size="10.00"> l_ght</text>
</g>
<!-- Node11 -->
<g id="node11" class="node">
<title>Node11</title>
<g id="a_node11"><a xlink:href="../../d3/d7c/structvec3__t.html" target="_top" xlink:title=" ">
<polygon fill="white" stroke="#666666" points="570.65,-411.5 524.65,-411.5 524.65,-392.5 570.65,-392.5 570.65,-411.5"/>
<text text-anchor="middle" x="547.65" y="-399.5" font-family="Helvetica,sans-Serif" font-size="10.00">vec3_t</text>
</a>
</g>
</g>
<!-- Node11&#45;&gt;Node10 -->
<g id="edge14" class="edge">
<title>Node11&#45;&gt;Node10</title>
<path fill="none" stroke="#9a32cd" stroke-dasharray="5,2" d="M513.49,-391.48C504.34,-387.28 495.4,-381.34 489.65,-373 466.48,-339.38 473.65,-286.59 477.7,-265.82"/>
<polygon fill="#9a32cd" stroke="#9a32cd" points="512.16,-394.72 522.75,-395.09 514.71,-388.2 512.16,-394.72"/>
<text text-anchor="middle" x="515.65" y="-365" font-family="Helvetica,sans-Serif" font-size="10.00"> attenuation</text>
<text text-anchor="middle" x="515.65" y="-354" font-family="Helvetica,sans-Serif" font-size="10.00">direction</text>
<text text-anchor="middle" x="515.65" y="-343" font-family="Helvetica,sans-Serif" font-size="10.00">intensity</text>
<text text-anchor="middle" x="515.65" y="-332" font-family="Helvetica,sans-Serif" font-size="10.00">position</text>
<text text-anchor="middle" x="515.65" y="-321" font-family="Helvetica,sans-Serif" font-size="10.00">spot_data</text>
</g>
<!-- Node12 -->
<g id="node12" class="node">
<title>Node12</title>
<g id="a_node12"><a xlink:href="../../d3/d0a/struct_material.html" target="_top" xlink:title="Material parameters for OpenGL rendering.">
<polygon fill="white" stroke="#666666" points="568.15,-265.5 517.15,-265.5 517.15,-246.5 568.15,-246.5 568.15,-265.5"/>
<text text-anchor="middle" x="542.65" y="-253.5" font-family="Helvetica,sans-Serif" font-size="10.00">Material</text>
</a>
</g>
</g>
<!-- Node11&#45;&gt;Node12 -->
<g id="edge16" class="edge">
<title>Node11&#45;&gt;Node12</title>
<path fill="none" stroke="#9a32cd" stroke-dasharray="5,2" d="M546.96,-381.12C545.86,-349.33 543.74,-288.33 542.95,-265.71"/>
<polygon fill="#9a32cd" stroke="#9a32cd" points="543.45,-381.04 547.3,-390.91 550.45,-380.8 543.45,-381.04"/>
<text text-anchor="middle" x="562.65" y="-343" font-family="Helvetica,sans-Serif" font-size="10.00"> albedo</text>
</g>
<!-- Node13 -->
<g id="node13" class="node">
<title>Node13</title>
<g id="a_node13"><a xlink:href="../../d8/df7/struct_fog.html" target="_top" xlink:title="Fog parameters for OpenGL rendering.">
<polygon fill="white" stroke="#666666" points="619.15,-265.5 586.15,-265.5 586.15,-246.5 619.15,-246.5 619.15,-265.5"/>
<text text-anchor="middle" x="602.65" y="-253.5" font-family="Helvetica,sans-Serif" font-size="10.00">Fog</text>
</a>
</g>
</g>
<!-- Node11&#45;&gt;Node13 -->
<g id="edge18" class="edge">
<title>Node11&#45;&gt;Node13</title>
<path fill="none" stroke="#9a32cd" stroke-dasharray="5,2" d="M571.01,-384.76C574.71,-381.27 578.14,-377.31 580.65,-373 601.38,-337.4 603.12,-286.19 602.91,-265.83"/>
<polygon fill="#9a32cd" stroke="#9a32cd" points="568.85,-382.02 563.36,-391.08 573.3,-387.42 568.85,-382.02"/>
<text text-anchor="middle" x="612.15" y="-343" font-family="Helvetica,sans-Serif" font-size="10.00"> color</text>
</g>
<!-- Node12&#45;&gt;Node3 -->
<g id="edge15" class="edge">
<title>Node12&#45;&gt;Node3</title>
<path fill="none" stroke="#9a32cd" stroke-dasharray="5,2" d="M532.27,-236.56C521.9,-219.91 504.39,-196.06 482.65,-183 452.84,-165.09 412.13,-159.27 387.43,-157.39"/>
<polygon fill="#9a32cd" stroke="#9a32cd" points="529.15,-238.16 537.25,-244.98 535.17,-234.6 529.15,-238.16"/>
<text text-anchor="middle" x="516.65" y="-186" font-family="Helvetica,sans-Serif" font-size="10.00"> m_terial</text>
</g>
<!-- Node13&#45;&gt;Node3 -->
<g id="edge17" class="edge">
<title>Node13&#45;&gt;Node3</title>
<path fill="none" stroke="#9a32cd" stroke-dasharray="5,2" d="M593.15,-236.03C588.72,-228.15 583.02,-219.19 576.65,-212 562.8,-196.36 558.83,-191.29 539.65,-183 488.32,-160.82 421.46,-156.81 387.5,-156.32"/>
<polygon fill="#9a32cd" stroke="#9a32cd" points="590.02,-237.6 597.79,-244.81 596.21,-234.33 590.02,-237.6"/>
<text text-anchor="middle" x="568.15" y="-186" font-family="Helvetica,sans-Serif" font-size="10.00"> f_g</text>
</g>
</g>
</svg>
