<?xml version="1.0" encoding="UTF-8" standalone="no"?>
<!DOCTYPE svg PUBLIC "-//W3C//DTD SVG 1.1//EN"
 "http://www.w3.org/Graphics/SVG/1.1/DTD/svg11.dtd">
<!-- Generated by graphviz version 9.0.0 (20230911.1827)
 -->
<!-- Title: cell_info Pages: 1 -->
<svg width="308pt" height="176pt"
 viewBox="0.00 0.00 307.77 176.00" xmlns="http://www.w3.org/2000/svg" xmlns:xlink="http://www.w3.org/1999/xlink">
<g id="graph0" class="graph" transform="scale(1 1) rotate(0) translate(4 172)">
<title>cell_info</title>
<!-- Node1 -->
<g id="Node000001" class="node">
<title>Node1</title>
<g id="a_Node000001"><a xlink:title=" ">
<polygon fill="#999999" stroke="#666666" points="106.39,-20 54.39,-20 54.39,0 106.39,0 106.39,-20"/>
<text text-anchor="middle" x="80.39" y="-6.5" font-family="Helvetica,sans-Serif" font-size="10.00">cell_info</text>
</a>
</g>
</g>
<!-- Node2 -->
<g id="Node000002" class="node">
<title>Node2</title>
<g id="a_Node000002"><a xlink:href="../../d7/d81/structbox__info.html" target="_top" xlink:title=" ">
<polygon fill="white" stroke="#666666" points="66.77,-88 14.02,-88 14.02,-68 66.77,-68 66.77,-88"/>
<text text-anchor="middle" x="40.39" y="-74.5" font-family="Helvetica,sans-Serif" font-size="10.00">box_info</text>
</a>
</g>
</g>
<!-- Node2&#45;&gt;Node1 -->
<g id="edge1_Node000001_Node000002" class="edge">
<title>Node2&#45;&gt;Node1</title>
<g id="a_edge1_Node000001_Node000002"><a xlink:title=" ">
<path fill="none" stroke="#9a32cd" stroke-dasharray="5,2" d="M52.04,-57.78C59.48,-45.51 68.8,-30.14 74.67,-20.44"/>
<polygon fill="#9a32cd" stroke="#9a32cd" points="49.1,-55.88 46.91,-66.25 55.09,-59.51 49.1,-55.88"/>
</a>
</g>
<text text-anchor="middle" x="73.77" y="-40.5" font-family="Helvetica,sans-Serif" font-size="10.00" fill="grey"> box</text>
</g>
<!-- Node3 -->
<g id="Node000003" class="node">
<title>Node3</title>
<g id="a_Node000003"><a xlink:href="../../d6/d41/unionmat4__t.html" target="_top" xlink:title=" ">
<polygon fill="white" stroke="#666666" points="64.39,-168 18.39,-168 18.39,-148 64.39,-148 64.39,-168"/>
<text text-anchor="middle" x="41.39" y="-154.5" font-family="Helvetica,sans-Serif" font-size="10.00">mat4_t</text>
</a>
</g>
</g>
<!-- Node3&#45;&gt;Node2 -->
<g id="edge2_Node000002_Node000003" class="edge">
<title>Node3&#45;&gt;Node2</title>
<g id="a_edge2_Node000002_Node000003"><a xlink:title=" ">
<path fill="none" stroke="#9a32cd" stroke-dasharray="5,2" d="M12.21,-140.8C8.77,-137.67 5.74,-134.08 3.64,-130 -1.23,-120.51 -1.17,-115.52 3.64,-106 7.36,-98.65 14.12,-92.82 20.84,-88.48"/>
<polygon fill="#9a32cd" stroke="#9a32cd" points="10.01,-143.53 20.11,-146.72 14.21,-137.93 10.01,-143.53"/>
</a>
</g>
<text text-anchor="middle" x="31.77" y="-120.5" font-family="Helvetica,sans-Serif" font-size="10.00" fill="grey"> cart_to_frac</text>
<text text-anchor="middle" x="31.77" y="-108.5" font-family="Helvetica,sans-Serif" font-size="10.00" fill="grey">frac_to_cart</text>
</g>
<!-- Node4 -->
<g id="Node000004" class="node">
<title>Node4</title>
<g id="a_Node000004"><a xlink:href="../../de/df2/structspace__group.html" target="_top" xlink:title=" ">
<polygon fill="white" stroke="#666666" points="175.14,-88 103.64,-88 103.64,-68 175.14,-68 175.14,-88"/>
<text text-anchor="middle" x="139.39" y="-74.5" font-family="Helvetica,sans-Serif" font-size="10.00">space_group</text>
</a>
</g>
</g>
<!-- Node3&#45;&gt;Node4 -->
<g id="edge6_Node000004_Node000003" class="edge">
<title>Node3&#45;&gt;Node4</title>
<g id="a_edge6_Node000004_Node000003"><a xlink:title=" ">
<path fill="none" stroke="#9a32cd" stroke-dasharray="5,2" d="M55.11,-139.05C63.73,-128.55 75.55,-115.53 87.89,-106 96.84,-99.09 107.82,-93.06 117.34,-88.46"/>
<polygon fill="#9a32cd" stroke="#9a32cd" points="52.57,-136.62 49.09,-146.63 58.05,-140.97 52.57,-136.62"/>
</a>
</g>
<text text-anchor="middle" x="116.14" y="-120.5" font-family="Helvetica,sans-Serif" font-size="10.00" fill="grey"> coord_origin</text>
<text text-anchor="middle" x="116.14" y="-108.5" font-family="Helvetica,sans-Serif" font-size="10.00" fill="grey">wyck_origin</text>
</g>
<!-- Node4&#45;&gt;Node1 -->
<g id="edge3_Node000001_Node000004" class="edge">
<title>Node4&#45;&gt;Node1</title>
<g id="a_edge3_Node000001_Node000004"><a xlink:title=" ">
<path fill="none" stroke="#9a32cd" stroke-dasharray="5,2" d="M123.53,-59.25C112.36,-46.76 97.85,-30.53 88.83,-20.44"/>
<polygon fill="#9a32cd" stroke="#9a32cd" points="120.66,-61.29 129.93,-66.42 125.88,-56.63 120.66,-61.29"/>
</a>
</g>
<text text-anchor="middle" x="136.77" y="-40.5" font-family="Helvetica,sans-Serif" font-size="10.00" fill="grey"> sp_group</text>
</g>
<!-- Node5 -->
<g id="Node000005" class="node">
<title>Node5</title>
<g id="a_Node000005"><a xlink:href="../../dc/de2/structspg__setting.html" target="_top" xlink:title=" ">
<polygon fill="white" stroke="#666666" points="192.52,-168 126.27,-168 126.27,-148 192.52,-148 192.52,-168"/>
<text text-anchor="middle" x="159.39" y="-154.5" font-family="Helvetica,sans-Serif" font-size="10.00">spg_setting</text>
</a>
</g>
</g>
<!-- Node5&#45;&gt;Node4 -->
<g id="edge4_Node000004_Node000005" class="edge">
<title>Node5&#45;&gt;Node4</title>
<g id="a_edge4_Node000004_Node000005"><a xlink:title=" ">
<path fill="none" stroke="#9a32cd" stroke-dasharray="5,2" d="M154.28,-137.05C150.25,-121.35 144.83,-100.2 141.76,-88.24"/>
<polygon fill="#9a32cd" stroke="#9a32cd" points="150.77,-137.46 156.64,-146.28 157.55,-135.72 150.77,-137.46"/>
</a>
</g>
<text text-anchor="middle" x="171.14" y="-114.5" font-family="Helvetica,sans-Serif" font-size="10.00" fill="grey"> settings</text>
</g>
<!-- Node6 -->
<g id="Node000006" class="node">
<title>Node6</title>
<g id="a_Node000006"><a xlink:href="../../d9/d4f/structwyckoff__position.html" target="_top" xlink:title=" ">
<polygon fill="white" stroke="#666666" points="299.77,-168 211.02,-168 211.02,-148 299.77,-148 299.77,-168"/>
<text text-anchor="middle" x="255.39" y="-154.5" font-family="Helvetica,sans-Serif" font-size="10.00">wyckoff_position</text>
</a>
</g>
</g>
<!-- Node6&#45;&gt;Node4 -->
<g id="edge5_Node000004_Node000006" class="edge">
<title>Node6&#45;&gt;Node4</title>
<g id="a_edge5_Node000004_Node000006"><a xlink:title=" ">
<path fill="none" stroke="#9a32cd" stroke-dasharray="5,2" d="M237.22,-139.82C225.55,-129.29 209.74,-115.97 194.39,-106 184.14,-99.33 172,-93.21 161.73,-88.48"/>
<polygon fill="#9a32cd" stroke="#9a32cd" points="234.78,-142.32 244.5,-146.52 239.52,-137.17 234.78,-142.32"/>
</a>
</g>
<text text-anchor="middle" x="243.77" y="-114.5" font-family="Helvetica,sans-Serif" font-size="10.00" fill="grey"> wyckoff</text>
</g>
</g>
</svg>
