<?xml version="1.0" encoding="UTF-8" standalone="no"?>
<!DOCTYPE svg PUBLIC "-//W3C//DTD SVG 1.1//EN"
 "http://www.w3.org/Graphics/SVG/1.1/DTD/svg11.dtd">
<!-- Generated by graphviz version 7.1.0 (0)
 -->
<!-- Title: cell_info Pages: 1 -->
<svg width="308pt" height="170pt"
 viewBox="0.00 0.00 307.88 170.00" xmlns="http://www.w3.org/2000/svg" xmlns:xlink="http://www.w3.org/1999/xlink">
<g id="graph0" class="graph" transform="scale(1 1) rotate(0) translate(4 166)">
<title>cell_info</title>
<!-- Node1 -->
<g id="node1" class="node">
<title>Node1</title>
<g id="a_node1"><a xlink:title=" ">
<polygon fill="#999999" stroke="#666666" points="106.88,-19 53.88,-19 53.88,0 106.88,0 106.88,-19"/>
<text text-anchor="middle" x="80.38" y="-7" font-family="Helvetica,sans-Serif" font-size="10.00">cell_info</text>
</a>
</g>
</g>
<!-- Node2 -->
<g id="node2" class="node">
<title>Node2</title>
<g id="a_node2"><a xlink:href="../../d7/d81/structbox__info.html" target="_top" xlink:title=" ">
<polygon fill="white" stroke="#666666" points="66.88,-85 13.88,-85 13.88,-66 66.88,-66 66.88,-85"/>
<text text-anchor="middle" x="40.38" y="-73" font-family="Helvetica,sans-Serif" font-size="10.00">box_info</text>
</a>
</g>
</g>
<!-- Node2&#45;&gt;Node1 -->
<g id="edge1" class="edge">
<title>Node2&#45;&gt;Node1</title>
<path fill="none" stroke="#9a32cd" stroke-dasharray="5,2" d="M51.92,-56.03C59.46,-43.96 68.97,-28.75 74.86,-19.32"/>
<polygon fill="#9a32cd" stroke="#9a32cd" points="49.07,-53.98 46.74,-64.32 55.01,-57.69 49.07,-53.98"/>
<text text-anchor="middle" x="72.88" y="-40" font-family="Helvetica,sans-Serif" font-size="10.00"> box</text>
</g>
<!-- Node3 -->
<g id="node3" class="node">
<title>Node3</title>
<g id="a_node3"><a xlink:href="../../d6/d41/unionmat4__t.html" target="_top" xlink:title=" ">
<polygon fill="white" stroke="#666666" points="64.88,-162 17.88,-162 17.88,-143 64.88,-143 64.88,-162"/>
<text text-anchor="middle" x="41.38" y="-150" font-family="Helvetica,sans-Serif" font-size="10.00">mat4_t</text>
</a>
</g>
</g>
<!-- Node3&#45;&gt;Node2 -->
<g id="edge2" class="edge">
<title>Node3&#45;&gt;Node2</title>
<path fill="none" stroke="#9a32cd" stroke-dasharray="5,2" d="M12.52,-136.15C8.84,-132.96 5.6,-129.25 3.38,-125 -1.14,-116.33 -1.09,-111.7 3.38,-103 7.21,-95.55 14.21,-89.73 21.1,-85.46"/>
<polygon fill="#9a32cd" stroke="#9a32cd" points="10.19,-138.79 20.36,-141.77 14.27,-133.1 10.19,-138.79"/>
<text text-anchor="middle" x="30.88" y="-117" font-family="Helvetica,sans-Serif" font-size="10.00"> cart_to_frac</text>
<text text-anchor="middle" x="30.88" y="-106" font-family="Helvetica,sans-Serif" font-size="10.00">frac_to_cart</text>
</g>
<!-- Node4 -->
<g id="node4" class="node">
<title>Node4</title>
<g id="a_node4"><a xlink:href="../../de/df2/structspace__group.html" target="_top" xlink:title=" ">
<polygon fill="white" stroke="#666666" points="176.38,-85 104.38,-85 104.38,-66 176.38,-66 176.38,-85"/>
<text text-anchor="middle" x="140.38" y="-73" font-family="Helvetica,sans-Serif" font-size="10.00">space_group</text>
</a>
</g>
</g>
<!-- Node3&#45;&gt;Node4 -->
<g id="edge6" class="edge">
<title>Node3&#45;&gt;Node4</title>
<path fill="none" stroke="#9a32cd" stroke-dasharray="5,2" d="M55.66,-134.13C64.4,-124.2 76.23,-111.97 88.38,-103 97.75,-96.08 109.2,-90.03 118.96,-85.46"/>
<polygon fill="#9a32cd" stroke="#9a32cd" points="53.1,-131.73 49.28,-141.61 58.43,-136.27 53.1,-131.73"/>
<text text-anchor="middle" x="116.38" y="-117" font-family="Helvetica,sans-Serif" font-size="10.00"> coord_origin</text>
<text text-anchor="middle" x="116.38" y="-106" font-family="Helvetica,sans-Serif" font-size="10.00">wyck_origin</text>
</g>
<!-- Node4&#45;&gt;Node1 -->
<g id="edge3" class="edge">
<title>Node4&#45;&gt;Node1</title>
<path fill="none" stroke="#9a32cd" stroke-dasharray="5,2" d="M124.42,-57.48C112.91,-45.2 97.84,-29.13 88.65,-19.32"/>
<polygon fill="#9a32cd" stroke="#9a32cd" points="121.61,-59.6 131,-64.5 126.71,-54.81 121.61,-59.6"/>
<text text-anchor="middle" x="135.88" y="-40" font-family="Helvetica,sans-Serif" font-size="10.00"> sp_group</text>
</g>
<!-- Node5 -->
<g id="node5" class="node">
<title>Node5</title>
<g id="a_node5"><a xlink:href="../../dc/de2/structspg__setting.html" target="_top" xlink:title=" ">
<polygon fill="white" stroke="#666666" points="192.88,-162 125.88,-162 125.88,-143 192.88,-143 192.88,-162"/>
<text text-anchor="middle" x="159.38" y="-150" font-family="Helvetica,sans-Serif" font-size="10.00">spg_setting</text>
</a>
</g>
</g>
<!-- Node5&#45;&gt;Node4 -->
<g id="edge4" class="edge">
<title>Node5&#45;&gt;Node4</title>
<path fill="none" stroke="#9a32cd" stroke-dasharray="5,2" d="M154.41,-131.87C150.59,-116.83 145.51,-96.77 142.63,-85.39"/>
<polygon fill="#9a32cd" stroke="#9a32cd" points="150.9,-132.3 156.75,-141.13 157.69,-130.58 150.9,-132.3"/>
<text text-anchor="middle" x="171.38" y="-111.5" font-family="Helvetica,sans-Serif" font-size="10.00"> settings</text>
</g>
<!-- Node6 -->
<g id="node6" class="node">
<title>Node6</title>
<g id="a_node6"><a xlink:href="../../d9/d4f/structwyckoff__position.html" target="_top" xlink:title=" ">
<polygon fill="white" stroke="#666666" points="299.88,-162 210.88,-162 210.88,-143 299.88,-143 299.88,-162"/>
<text text-anchor="middle" x="255.38" y="-150" font-family="Helvetica,sans-Serif" font-size="10.00">wyckoff_position</text>
</a>
</g>
</g>
<!-- Node6&#45;&gt;Node4 -->
<g id="edge5" class="edge">
<title>Node6&#45;&gt;Node4</title>
<path fill="none" stroke="#9a32cd" stroke-dasharray="5,2" d="M237.08,-135.23C225.35,-125.25 209.54,-112.59 194.38,-103 183.88,-96.36 171.47,-90.16 161.2,-85.44"/>
<polygon fill="#9a32cd" stroke="#9a32cd" points="234.53,-137.65 244.38,-141.56 239.12,-132.37 234.53,-137.65"/>
<text text-anchor="middle" x="241.88" y="-111.5" font-family="Helvetica,sans-Serif" font-size="10.00"> wyckoff</text>
</g>
</g>
</svg>
