<?xml version="1.0" encoding="UTF-8" standalone="no"?>
<!DOCTYPE svg PUBLIC "-//W3C//DTD SVG 1.1//EN"
 "http://www.w3.org/Graphics/SVG/1.1/DTD/svg11.dtd">
<!-- Generated by graphviz version 7.1.0 (0)
 -->
<!-- Title: cedit.h Pages: 1 -->
<svg width="479pt" height="82pt"
 viewBox="0.00 0.00 478.50 82.00" xmlns="http://www.w3.org/2000/svg" xmlns:xlink="http://www.w3.org/1999/xlink">
<g id="graph0" class="graph" transform="scale(1 1) rotate(0) translate(4 78)">
<title>cedit.h</title>
<!-- Node1 -->
<g id="node1" class="node">
<title>Node1</title>
<g id="a_node1"><a xlink:title=" ">
<polygon fill="#999999" stroke="#666666" points="259.5,-74 213.5,-74 213.5,-55 259.5,-55 259.5,-74"/>
<text text-anchor="middle" x="236.5" y="-62" font-family="Helvetica,sans-Serif" font-size="10.00">cedit.h</text>
</a>
</g>
</g>
<!-- Node2 -->
<g id="node2" class="node">
<title>Node2</title>
<g id="a_node2"><a xlink:href="curve_8c.html" target="_top" xlink:title=" ">
<polygon fill="white" stroke="#666666" points="49,-19 0,-19 0,0 49,0 49,-19"/>
<text text-anchor="middle" x="24.5" y="-7" font-family="Helvetica,sans-Serif" font-size="10.00">curve.c</text>
</a>
</g>
</g>
<!-- Node1&#45;&gt;Node2 -->
<g id="edge1" class="edge">
<title>Node1&#45;&gt;Node2</title>
<path fill="none" stroke="#63b8ff" d="M202.01,-54.88C159.2,-44.17 87.22,-26.18 49.41,-16.73"/>
<polygon fill="#63b8ff" stroke="#63b8ff" points="200.98,-58.23 211.53,-57.26 202.68,-51.44 200.98,-58.23"/>
</g>
<!-- Node3 -->
<g id="node3" class="node">
<title>Node3</title>
<g id="a_node3"><a xlink:href="m__curve_8c.html" target="_top" xlink:title=" ">
<polygon fill="white" stroke="#666666" points="129.5,-19 67.5,-19 67.5,0 129.5,0 129.5,-19"/>
<text text-anchor="middle" x="98.5" y="-7" font-family="Helvetica,sans-Serif" font-size="10.00">m_curve.c</text>
</a>
</g>
</g>
<!-- Node1&#45;&gt;Node3 -->
<g id="edge2" class="edge">
<title>Node1&#45;&gt;Node3</title>
<path fill="none" stroke="#63b8ff" d="M202.53,-50.45C177.34,-40.78 143.68,-27.85 121.56,-19.36"/>
<polygon fill="#63b8ff" stroke="#63b8ff" points="201.09,-53.65 211.68,-53.97 203.6,-47.11 201.09,-53.65"/>
</g>
<!-- Node4 -->
<g id="node4" class="node">
<title>Node4</title>
<g id="a_node4"><a xlink:href="tab-1_8c.html" target="_top" xlink:title=" ">
<polygon fill="white" stroke="#666666" points="195,-19 148,-19 148,0 195,0 195,-19"/>
<text text-anchor="middle" x="171.5" y="-7" font-family="Helvetica,sans-Serif" font-size="10.00">tab&#45;1.c</text>
</a>
</g>
</g>
<!-- Node1&#45;&gt;Node4 -->
<g id="edge3" class="edge">
<title>Node1&#45;&gt;Node4</title>
<path fill="none" stroke="#63b8ff" d="M216.71,-47.37C205.42,-38.16 191.71,-26.98 182.36,-19.36"/>
<polygon fill="#63b8ff" stroke="#63b8ff" points="214.34,-49.95 224.3,-53.55 218.76,-44.52 214.34,-49.95"/>
</g>
<!-- Node5 -->
<g id="node5" class="node">
<title>Node5</title>
<g id="a_node5"><a xlink:href="tab-2_8c.html" target="_top" xlink:title=" ">
<polygon fill="white" stroke="#666666" points="260,-19 213,-19 213,0 260,0 260,-19"/>
<text text-anchor="middle" x="236.5" y="-7" font-family="Helvetica,sans-Serif" font-size="10.00">tab&#45;2.c</text>
</a>
</g>
</g>
<!-- Node1&#45;&gt;Node5 -->
<g id="edge4" class="edge">
<title>Node1&#45;&gt;Node5</title>
<path fill="none" stroke="#63b8ff" d="M236.5,-43.35C236.5,-35.1 236.5,-25.97 236.5,-19.44"/>
<polygon fill="#63b8ff" stroke="#63b8ff" points="233,-43.23 236.5,-53.23 240,-43.23 233,-43.23"/>
</g>
<!-- Node6 -->
<g id="node6" class="node">
<title>Node6</title>
<g id="a_node6"><a xlink:href="tab-3_8c.html" target="_top" xlink:title=" ">
<polygon fill="white" stroke="#666666" points="325,-19 278,-19 278,0 325,0 325,-19"/>
<text text-anchor="middle" x="301.5" y="-7" font-family="Helvetica,sans-Serif" font-size="10.00">tab&#45;3.c</text>
</a>
</g>
</g>
<!-- Node1&#45;&gt;Node6 -->
<g id="edge5" class="edge">
<title>Node1&#45;&gt;Node6</title>
<path fill="none" stroke="#63b8ff" d="M256.29,-47.37C267.58,-38.16 281.29,-26.98 290.64,-19.36"/>
<polygon fill="#63b8ff" stroke="#63b8ff" points="254.24,-44.52 248.7,-53.55 258.66,-49.95 254.24,-44.52"/>
</g>
<!-- Node7 -->
<g id="node7" class="node">
<title>Node7</title>
<g id="a_node7"><a xlink:href="tab-4_8c.html" target="_top" xlink:title=" ">
<polygon fill="white" stroke="#666666" points="390,-19 343,-19 343,0 390,0 390,-19"/>
<text text-anchor="middle" x="366.5" y="-7" font-family="Helvetica,sans-Serif" font-size="10.00">tab&#45;4.c</text>
</a>
</g>
</g>
<!-- Node1&#45;&gt;Node7 -->
<g id="edge6" class="edge">
<title>Node1&#45;&gt;Node7</title>
<path fill="none" stroke="#63b8ff" d="M269.14,-50.19C292.79,-40.55 324.12,-27.78 344.77,-19.36"/>
<polygon fill="#63b8ff" stroke="#63b8ff" points="267.89,-46.92 259.95,-53.94 270.54,-53.4 267.89,-46.92"/>
</g>
<!-- Node8 -->
<g id="node8" class="node">
<title>Node8</title>
<g id="a_node8"><a xlink:href="w__curve_8c.html" target="_top" xlink:title=" ">
<polygon fill="white" stroke="#666666" points="470.5,-19 408.5,-19 408.5,0 470.5,0 470.5,-19"/>
<text text-anchor="middle" x="439.5" y="-7" font-family="Helvetica,sans-Serif" font-size="10.00">w_curve.c</text>
</a>
</g>
</g>
<!-- Node1&#45;&gt;Node8 -->
<g id="edge7" class="edge">
<title>Node1&#45;&gt;Node8</title>
<path fill="none" stroke="#63b8ff" d="M270.92,-54.51C309.37,-44.47 371.08,-28.36 408.21,-18.67"/>
<polygon fill="#63b8ff" stroke="#63b8ff" points="270.04,-51.13 261.25,-57.04 271.81,-57.9 270.04,-51.13"/>
</g>
</g>
</svg>
