<?xml version="1.0" encoding="UTF-8" standalone="no"?>
<!DOCTYPE svg PUBLIC "-//W3C//DTD SVG 1.1//EN"
 "http://www.w3.org/Graphics/SVG/1.1/DTD/svg11.dtd">
<!-- Generated by graphviz version 7.1.0 (0)
 -->
<!-- Title: cell_edit.h Pages: 1 -->
<svg width="731pt" height="82pt"
 viewBox="0.00 0.00 730.50 82.00" xmlns="http://www.w3.org/2000/svg" xmlns:xlink="http://www.w3.org/1999/xlink">
<g id="graph0" class="graph" transform="scale(1 1) rotate(0) translate(4 78)">
<title>cell_edit.h</title>
<!-- Node1 -->
<g id="node1" class="node">
<title>Node1</title>
<g id="a_node1"><a xlink:title=" ">
<polygon fill="#999999" stroke="#666666" points="399.5,-74 338.5,-74 338.5,-55 399.5,-55 399.5,-74"/>
<text text-anchor="middle" x="369" y="-62" font-family="Helvetica,sans-Serif" font-size="10.00">cell_edit.h</text>
</a>
</g>
</g>
<!-- Node2 -->
<g id="node2" class="node">
<title>Node2</title>
<g id="a_node2"><a xlink:href="callbacks_8c.html" target="_top" xlink:title=" ">
<polygon fill="white" stroke="#666666" points="66,-19 0,-19 0,0 66,0 66,-19"/>
<text text-anchor="middle" x="33" y="-7" font-family="Helvetica,sans-Serif" font-size="10.00">callbacks.c</text>
</a>
</g>
</g>
<!-- Node1&#45;&gt;Node2 -->
<g id="edge1" class="edge">
<title>Node1&#45;&gt;Node2</title>
<path fill="none" stroke="#63b8ff" d="M326.91,-57.8C269.74,-49.9 164.41,-34.8 75,-19 72.22,-18.51 69.33,-17.97 66.44,-17.42"/>
<polygon fill="#63b8ff" stroke="#63b8ff" points="326.14,-61.22 336.52,-59.12 327.09,-54.29 326.14,-61.22"/>
</g>
<!-- Node3 -->
<g id="node3" class="node">
<title>Node3</title>
<g id="a_node3"><a xlink:href="cell__cut_8c.html" target="_top" xlink:title=" ">
<polygon fill="white" stroke="#666666" points="143.5,-19 84.5,-19 84.5,0 143.5,0 143.5,-19"/>
<text text-anchor="middle" x="114" y="-7" font-family="Helvetica,sans-Serif" font-size="10.00">cell_cut.c</text>
</a>
</g>
</g>
<!-- Node1&#45;&gt;Node3 -->
<g id="edge2" class="edge">
<title>Node1&#45;&gt;Node3</title>
<path fill="none" stroke="#63b8ff" d="M327.21,-55.04C283.68,-46.19 213.51,-31.83 153,-19 150.02,-18.37 146.91,-17.7 143.8,-17.03"/>
<polygon fill="#63b8ff" stroke="#63b8ff" points="326.24,-58.41 336.73,-56.97 327.63,-51.55 326.24,-58.41"/>
</g>
<!-- Node4 -->
<g id="node4" class="node">
<title>Node4</title>
<g id="a_node4"><a xlink:href="cell__density_8c.html" target="_top" xlink:title=" ">
<polygon fill="white" stroke="#666666" points="238,-19 162,-19 162,0 238,0 238,-19"/>
<text text-anchor="middle" x="200" y="-7" font-family="Helvetica,sans-Serif" font-size="10.00">cell_density.c</text>
</a>
</g>
</g>
<!-- Node1&#45;&gt;Node4 -->
<g id="edge3" class="edge">
<title>Node1&#45;&gt;Node4</title>
<path fill="none" stroke="#63b8ff" d="M329.49,-51.11C298.55,-41.41 256.24,-28.14 228.53,-19.45"/>
<polygon fill="#63b8ff" stroke="#63b8ff" points="328.3,-54.4 338.89,-54.06 330.39,-47.72 328.3,-54.4"/>
</g>
<!-- Node5 -->
<g id="node5" class="node">
<title>Node5</title>
<g id="a_node5"><a xlink:href="cell__edit_8c.html" target="_top" xlink:title=" ">
<polygon fill="white" stroke="#666666" points="317.5,-19 256.5,-19 256.5,0 317.5,0 317.5,-19"/>
<text text-anchor="middle" x="287" y="-7" font-family="Helvetica,sans-Serif" font-size="10.00">cell_edit.c</text>
</a>
</g>
</g>
<!-- Node1&#45;&gt;Node5 -->
<g id="edge4" class="edge">
<title>Node1&#45;&gt;Node5</title>
<path fill="none" stroke="#63b8ff" d="M345.73,-48.46C331.19,-39.06 312.96,-27.28 300.7,-19.36"/>
<polygon fill="#63b8ff" stroke="#63b8ff" points="343.52,-51.2 353.82,-53.69 347.32,-45.32 343.52,-51.2"/>
</g>
<!-- Node6 -->
<g id="node6" class="node">
<title>Node6</title>
<g id="a_node6"><a xlink:href="cell__extra_8c.html" target="_top" xlink:title=" ">
<polygon fill="white" stroke="#666666" points="402.5,-19 335.5,-19 335.5,0 402.5,0 402.5,-19"/>
<text text-anchor="middle" x="369" y="-7" font-family="Helvetica,sans-Serif" font-size="10.00">cell_extra.c</text>
</a>
</g>
</g>
<!-- Node1&#45;&gt;Node6 -->
<g id="edge5" class="edge">
<title>Node1&#45;&gt;Node6</title>
<path fill="none" stroke="#63b8ff" d="M369,-43.35C369,-35.1 369,-25.97 369,-19.44"/>
<polygon fill="#63b8ff" stroke="#63b8ff" points="365.5,-43.23 369,-53.23 372.5,-43.23 365.5,-43.23"/>
</g>
<!-- Node7 -->
<g id="node7" class="node">
<title>Node7</title>
<g id="a_node7"><a xlink:href="cell__shift_8c.html" target="_top" xlink:title=" ">
<polygon fill="white" stroke="#666666" points="485,-19 421,-19 421,0 485,0 485,-19"/>
<text text-anchor="middle" x="453" y="-7" font-family="Helvetica,sans-Serif" font-size="10.00">cell_shift.c</text>
</a>
</g>
</g>
<!-- Node1&#45;&gt;Node7 -->
<g id="edge6" class="edge">
<title>Node1&#45;&gt;Node7</title>
<path fill="none" stroke="#63b8ff" d="M392.84,-48.46C407.73,-39.06 426.4,-27.28 438.96,-19.36"/>
<polygon fill="#63b8ff" stroke="#63b8ff" points="391.12,-45.41 384.53,-53.7 394.85,-51.33 391.12,-45.41"/>
</g>
<!-- Node8 -->
<g id="node8" class="node">
<title>Node8</title>
<g id="a_node8"><a xlink:href="cell__super_8c.html" target="_top" xlink:title=" ">
<polygon fill="white" stroke="#666666" points="572.5,-19 503.5,-19 503.5,0 572.5,0 572.5,-19"/>
<text text-anchor="middle" x="538" y="-7" font-family="Helvetica,sans-Serif" font-size="10.00">cell_super.c</text>
</a>
</g>
</g>
<!-- Node1&#45;&gt;Node8 -->
<g id="edge7" class="edge">
<title>Node1&#45;&gt;Node8</title>
<path fill="none" stroke="#63b8ff" d="M408.51,-51.11C439.45,-41.41 481.76,-28.14 509.47,-19.45"/>
<polygon fill="#63b8ff" stroke="#63b8ff" points="407.61,-47.72 399.11,-54.06 409.7,-54.4 407.61,-47.72"/>
</g>
<!-- Node9 -->
<g id="node9" class="node">
<title>Node9</title>
<g id="a_node9"><a xlink:href="m__edit_8c.html" target="_top" xlink:title=" ">
<polygon fill="white" stroke="#666666" points="645,-19 591,-19 591,0 645,0 645,-19"/>
<text text-anchor="middle" x="618" y="-7" font-family="Helvetica,sans-Serif" font-size="10.00">m_edit.c</text>
</a>
</g>
</g>
<!-- Node1&#45;&gt;Node9 -->
<g id="edge8" class="edge">
<title>Node1&#45;&gt;Node9</title>
<path fill="none" stroke="#63b8ff" d="M410.89,-55.08C453.89,-46.36 522.72,-32.19 582,-19 584.88,-18.36 587.89,-17.67 590.89,-16.98"/>
<polygon fill="#63b8ff" stroke="#63b8ff" points="410.33,-51.62 401.22,-57.04 411.72,-58.48 410.33,-51.62"/>
</g>
<!-- Node10 -->
<g id="node10" class="node">
<title>Node10</title>
<g id="a_node10"><a xlink:href="m__tools_8c.html" target="_top" xlink:title=" ">
<polygon fill="white" stroke="#666666" points="722.5,-19 663.5,-19 663.5,0 722.5,0 722.5,-19"/>
<text text-anchor="middle" x="693" y="-7" font-family="Helvetica,sans-Serif" font-size="10.00">m_tools.c</text>
</a>
</g>
</g>
<!-- Node1&#45;&gt;Node10 -->
<g id="edge9" class="edge">
<title>Node1&#45;&gt;Node10</title>
<path fill="none" stroke="#63b8ff" d="M411.07,-57.73C466.79,-49.91 568.06,-35.06 654,-19 657,-18.44 660.12,-17.82 663.23,-17.18"/>
<polygon fill="#63b8ff" stroke="#63b8ff" points="410.81,-54.24 401.39,-59.08 411.78,-61.17 410.81,-54.24"/>
</g>
</g>
</svg>
