<?xml version="1.0" encoding="UTF-8" standalone="no"?>
<!DOCTYPE svg PUBLIC "-//W3C//DTD SVG 1.1//EN"
 "http://www.w3.org/Graphics/SVG/1.1/DTD/svg11.dtd">
<!-- Generated by graphviz version 7.1.0 (0)
 -->
<!-- Title: curve Pages: 1 -->
<svg width="102pt" height="82pt"
 viewBox="0.00 0.00 101.50 82.00" xmlns="http://www.w3.org/2000/svg" xmlns:xlink="http://www.w3.org/1999/xlink">
<g id="graph0" class="graph" transform="scale(1 1) rotate(0) translate(4 78)">
<title>curve</title>
<!-- dir_f503eccc909c3cc44ffd239385415fa7 -->
<g id="node1" class="node">
<title>dir_f503eccc909c3cc44ffd239385415fa7</title>
<g id="a_node1"><a xlink:href="dir_f503eccc909c3cc44ffd239385415fa7.html" target="_top" xlink:title="curve">
<polygon fill="#edf0f7" stroke="#404040" stroke-width="2" points="63,-74 22,-74 22,-55 63,-55 63,-74"/>
<text text-anchor="middle" x="42.5" y="-62" font-family="Helvetica,sans-Serif" font-size="10.00">curve</text>
</a>
</g>
</g>
<!-- dir_11bc0974ce736ce9a6fadebbeb7a8314 -->
<g id="node2" class="node">
<title>dir_11bc0974ce736ce9a6fadebbeb7a8314</title>
<g id="a_node2"><a xlink:href="dir_11bc0974ce736ce9a6fadebbeb7a8314.html" target="_top" xlink:title="gui">
<polygon fill="#edf0f7" stroke="#404040" points="29,-19 0,-19 0,0 29,0 29,-19"/>
<text text-anchor="middle" x="14.5" y="-7" font-family="Helvetica,sans-Serif" font-size="10.00">gui</text>
</a>
</g>
</g>
<!-- dir_f503eccc909c3cc44ffd239385415fa7&#45;&gt;dir_11bc0974ce736ce9a6fadebbeb7a8314 -->
<g id="edge1" class="edge">
<title>dir_f503eccc909c3cc44ffd239385415fa7&#45;&gt;dir_11bc0974ce736ce9a6fadebbeb7a8314</title>
<path fill="none" stroke="#63b8ff" d="M37.88,-54.75C34.25,-47.88 29.07,-38.08 24.51,-29.45"/>
<polygon fill="#63b8ff" stroke="#63b8ff" points="27.7,-27.99 19.93,-20.78 21.51,-31.26 27.7,-27.99"/>
<g id="a_edge1&#45;headlabel"><a xlink:href="dir_000003_000009.html" target="_top" xlink:title="19">
<text text-anchor="middle" x="31.18" y="-26" font-family="Helvetica,sans-Serif" font-size="10.00" fill="#63b8ff">19</text>
</a>
</g>
</g>
<!-- dir_167790342fb55959539d550b874be046 -->
<g id="node3" class="node">
<title>dir_167790342fb55959539d550b874be046</title>
<g id="a_node3"><a xlink:href="dir_167790342fb55959539d550b874be046.html" target="_top" xlink:title="project">
<polygon fill="#edf0f7" stroke="red" points="93.5,-19 47.5,-19 47.5,0 93.5,0 93.5,-19"/>
<text text-anchor="middle" x="70.5" y="-7" font-family="Helvetica,sans-Serif" font-size="10.00">project</text>
</a>
</g>
</g>
<!-- dir_f503eccc909c3cc44ffd239385415fa7&#45;&gt;dir_167790342fb55959539d550b874be046 -->
<g id="edge2" class="edge">
<title>dir_f503eccc909c3cc44ffd239385415fa7&#45;&gt;dir_167790342fb55959539d550b874be046</title>
<path fill="none" stroke="#63b8ff" d="M47.12,-54.75C50.75,-47.88 55.93,-38.08 60.49,-29.45"/>
<polygon fill="#63b8ff" stroke="#63b8ff" points="63.49,-31.26 65.07,-20.78 57.3,-27.99 63.49,-31.26"/>
<g id="a_edge2&#45;headlabel"><a xlink:href="dir_000003_000012.html" target="_top" xlink:title="7">
<text text-anchor="middle" x="65.03" y="-31.92" font-family="Helvetica,sans-Serif" font-size="10.00" fill="#63b8ff">7</text>
</a>
</g>
</g>
</g>
</svg>
