<?xml version="1.0" encoding="UTF-8" standalone="no"?>
<!DOCTYPE svg PUBLIC "-//W3C//DTD SVG 1.1//EN"
 "http://www.w3.org/Graphics/SVG/1.1/DTD/svg11.dtd">
<!-- Generated by graphviz version 7.1.0 (0)
 -->
<!-- Title: cpmd Pages: 1 -->
<svg width="239pt" height="133pt"
 viewBox="0.00 0.00 238.50 133.00" xmlns="http://www.w3.org/2000/svg" xmlns:xlink="http://www.w3.org/1999/xlink">
<g id="graph0" class="graph" transform="scale(1 1) rotate(0) translate(4 129)">
<title>cpmd</title>
<g id="clust1" class="cluster">
<title>clusterdir_cfb6e93dbea17f3e8193818fb6e149f2</title>
<g id="a_clust1"><a xlink:href="dir_cfb6e93dbea17f3e8193818fb6e149f2.html" target="_top" xlink:title="calc">
<polygon fill="#edf0f7" stroke="#7f7f7f" stroke-dasharray="5,2" points="8,-8 8,-117 66,-117 66,-8 8,-8"/>
<text text-anchor="middle" x="37" y="-105" font-family="Helvetica,sans-Serif" font-size="10.00">calc</text>
</a>
</g>
</g>
<!-- dir_7ebf521237b7fa6714bb6b98b1a1b266 -->
<g id="node1" class="node">
<title>dir_7ebf521237b7fa6714bb6b98b1a1b266</title>
<g id="a_node1"><a xlink:href="dir_7ebf521237b7fa6714bb6b98b1a1b266.html" target="_top" xlink:title="cp2k">
<polygon fill="#a2b4d6" stroke="#404040" points="56,-35 18,-35 18,-16 56,-16 56,-35"/>
<text text-anchor="middle" x="37" y="-23" font-family="Helvetica,sans-Serif" font-size="10.00">cp2k</text>
</a>
</g>
</g>
<!-- dir_750702e6f8cd8de2165ce2bed37e99c7 -->
<g id="node2" class="node">
<title>dir_750702e6f8cd8de2165ce2bed37e99c7</title>
<g id="a_node2"><a xlink:href="dir_750702e6f8cd8de2165ce2bed37e99c7.html" target="_top" xlink:title="cpmd">
<polygon fill="#edf0f7" stroke="#404040" stroke-width="2" points="57.5,-90 16.5,-90 16.5,-71 57.5,-71 57.5,-90"/>
<text text-anchor="middle" x="37" y="-78" font-family="Helvetica,sans-Serif" font-size="10.00">cpmd</text>
</a>
</g>
</g>
<!-- dir_750702e6f8cd8de2165ce2bed37e99c7&#45;&gt;dir_7ebf521237b7fa6714bb6b98b1a1b266 -->
<g id="edge2" class="edge">
<title>dir_750702e6f8cd8de2165ce2bed37e99c7&#45;&gt;dir_7ebf521237b7fa6714bb6b98b1a1b266</title>
<path fill="none" stroke="#63b8ff" d="M37,-70.75C37,-64.27 37,-55.16 37,-46.9"/>
<polygon fill="#63b8ff" stroke="#63b8ff" points="40.5,-46.96 37,-36.96 33.5,-46.96 40.5,-46.96"/>
<g id="a_edge2&#45;headlabel"><a xlink:href="dir_000004_000003.html" target="_top" xlink:title="2">
<text text-anchor="middle" x="43.34" y="-46.54" font-family="Helvetica,sans-Serif" font-size="10.00" fill="#63b8ff">2</text>
</a>
</g>
</g>
<!-- dir_503391f8f88e69ff0b6bb2ea195a5f61 -->
<g id="node3" class="node">
<title>dir_503391f8f88e69ff0b6bb2ea195a5f61</title>
<g id="a_node3"><a xlink:href="dir_503391f8f88e69ff0b6bb2ea195a5f61.html" target="_top" xlink:title="project">
<polygon fill="#edf0f7" stroke="red" stroke-dasharray="5,2" points="120,-35 74,-35 74,-16 120,-16 120,-35"/>
<text text-anchor="middle" x="97" y="-23" font-family="Helvetica,sans-Serif" font-size="10.00">project</text>
</a>
</g>
</g>
<!-- dir_750702e6f8cd8de2165ce2bed37e99c7&#45;&gt;dir_503391f8f88e69ff0b6bb2ea195a5f61 -->
<g id="edge1" class="edge">
<title>dir_750702e6f8cd8de2165ce2bed37e99c7&#45;&gt;dir_503391f8f88e69ff0b6bb2ea195a5f61</title>
<path fill="none" stroke="#63b8ff" d="M47.18,-70.51C55.76,-62.93 68.27,-51.88 78.6,-42.75"/>
<polygon fill="#63b8ff" stroke="#63b8ff" points="80.66,-45.6 85.84,-36.36 76.03,-40.36 80.66,-45.6"/>
<g id="a_edge1&#45;headlabel"><a xlink:href="dir_000004_000017.html" target="_top" xlink:title="1">
<text text-anchor="middle" x="80.98" y="-46.61" font-family="Helvetica,sans-Serif" font-size="10.00" fill="#63b8ff">1</text>
</a>
</g>
</g>
<!-- dir_896854cd3247b6cb36f98a37c2863463 -->
<g id="node4" class="node">
<title>dir_896854cd3247b6cb36f98a37c2863463</title>
<g id="a_node4"><a xlink:href="dir_896854cd3247b6cb36f98a37c2863463.html" target="_top" xlink:title="opengl">
<polygon fill="#edf0f7" stroke="red" stroke-dasharray="5,2" points="183.5,-35 138.5,-35 138.5,-16 183.5,-16 183.5,-35"/>
<text text-anchor="middle" x="161" y="-23" font-family="Helvetica,sans-Serif" font-size="10.00">opengl</text>
</a>
</g>
</g>
<!-- dir_750702e6f8cd8de2165ce2bed37e99c7&#45;&gt;dir_896854cd3247b6cb36f98a37c2863463 -->
<g id="edge3" class="edge">
<title>dir_750702e6f8cd8de2165ce2bed37e99c7&#45;&gt;dir_896854cd3247b6cb36f98a37c2863463</title>
<path fill="none" stroke="#63b8ff" d="M57.75,-70.63C77.43,-62.22 107.23,-49.48 129.77,-39.85"/>
<polygon fill="#63b8ff" stroke="#63b8ff" points="130.97,-43.14 138.79,-35.99 128.21,-36.71 130.97,-43.14"/>
<g id="a_edge3&#45;headlabel"><a xlink:href="dir_000004_000016.html" target="_top" xlink:title="4">
<text text-anchor="middle" x="130.17" y="-44.07" font-family="Helvetica,sans-Serif" font-size="10.00" fill="#63b8ff">4</text>
</a>
</g>
</g>
<!-- dir_9268fa4967c416e4e882c5e3d890d467 -->
<g id="node5" class="node">
<title>dir_9268fa4967c416e4e882c5e3d890d467</title>
<g id="a_node5"><a xlink:href="dir_9268fa4967c416e4e882c5e3d890d467.html" target="_top" xlink:title="gui">
<polygon fill="#edf0f7" stroke="#7f7f7f" points="230.5,-35 201.5,-35 201.5,-16 230.5,-16 230.5,-35"/>
<text text-anchor="middle" x="216" y="-23" font-family="Helvetica,sans-Serif" font-size="10.00">gui</text>
</a>
</g>
</g>
<!-- dir_750702e6f8cd8de2165ce2bed37e99c7&#45;&gt;dir_9268fa4967c416e4e882c5e3d890d467 -->
<g id="edge4" class="edge">
<title>dir_750702e6f8cd8de2165ce2bed37e99c7&#45;&gt;dir_9268fa4967c416e4e882c5e3d890d467</title>
<path fill="none" stroke="#63b8ff" d="M57.84,-74.1C85.97,-66.69 137.82,-52.63 190.55,-35.62"/>
<polygon fill="#63b8ff" stroke="#63b8ff" points="191.6,-38.96 200.02,-32.53 189.43,-32.31 191.6,-38.96"/>
<g id="a_edge4&#45;headlabel"><a xlink:href="dir_000004_000012.html" target="_top" xlink:title="7">
<text text-anchor="middle" x="190.5" y="-39.81" font-family="Helvetica,sans-Serif" font-size="10.00" fill="#63b8ff">7</text>
</a>
</g>
</g>
</g>
</svg>
