<?xml version="1.0" encoding="UTF-8" standalone="no"?>
<!DOCTYPE svg PUBLIC "-//W3C//DTD SVG 1.1//EN"
 "http://www.w3.org/Graphics/SVG/1.1/DTD/svg11.dtd">
<!-- Generated by graphviz version 7.1.0 (0)
 -->
<!-- Title: cp2k Pages: 1 -->
<svg width="240pt" height="133pt"
 viewBox="0.00 0.00 240.00 133.00" xmlns="http://www.w3.org/2000/svg" xmlns:xlink="http://www.w3.org/1999/xlink">
<g id="graph0" class="graph" transform="scale(1 1) rotate(0) translate(4 129)">
<title>cp2k</title>
<g id="clust1" class="cluster">
<title>clusterdir_b69cbee60e647204afcf7b8718bedceb</title>
<g id="a_clust1"><a xlink:href="dir_b69cbee60e647204afcf7b8718bedceb.html" target="_top" xlink:title="calc">
<polygon fill="#edf0f7" stroke="#7f7f7f" stroke-dasharray="5,2" points="8,-8 8,-117 66,-117 66,-8 8,-8"/>
<text text-anchor="middle" x="37" y="-105" font-family="Helvetica,sans-Serif" font-size="10.00">calc</text>
</a>
</g>
</g>
<!-- dir_caeb26bee8661dbf425546c6599ec934 -->
<g id="node1" class="node">
<title>dir_caeb26bee8661dbf425546c6599ec934</title>
<g id="a_node1"><a xlink:href="dir_caeb26bee8661dbf425546c6599ec934.html" target="_top" xlink:title="cpmd">
<polygon fill="#a2b4d6" stroke="#404040" points="57.5,-35 16.5,-35 16.5,-16 57.5,-16 57.5,-35"/>
<text text-anchor="middle" x="37" y="-23" font-family="Helvetica,sans-Serif" font-size="10.00">cpmd</text>
</a>
</g>
</g>
<!-- dir_4ab9ed588a33ddf3ded84b781a5fa5eb -->
<g id="node2" class="node">
<title>dir_4ab9ed588a33ddf3ded84b781a5fa5eb</title>
<g id="a_node2"><a xlink:href="dir_4ab9ed588a33ddf3ded84b781a5fa5eb.html" target="_top" xlink:title="cp2k">
<polygon fill="#edf0f7" stroke="#404040" stroke-width="2" points="58,-90 20,-90 20,-71 58,-71 58,-90"/>
<text text-anchor="middle" x="39" y="-78" font-family="Helvetica,sans-Serif" font-size="10.00">cp2k</text>
</a>
</g>
</g>
<!-- dir_4ab9ed588a33ddf3ded84b781a5fa5eb&#45;&gt;dir_caeb26bee8661dbf425546c6599ec934 -->
<g id="edge3" class="edge">
<title>dir_4ab9ed588a33ddf3ded84b781a5fa5eb&#45;&gt;dir_caeb26bee8661dbf425546c6599ec934</title>
<path fill="none" stroke="#63b8ff" d="M38.67,-70.75C38.43,-64.27 38.08,-55.16 37.77,-46.9"/>
<polygon fill="#63b8ff" stroke="#63b8ff" points="41.27,-46.82 37.39,-36.95 34.27,-47.08 41.27,-46.82"/>
<g id="a_edge3&#45;headlabel"><a xlink:href="dir_000003_000004.html" target="_top" xlink:title="1">
<text text-anchor="middle" x="44.18" y="-46.29" font-family="Helvetica,sans-Serif" font-size="10.00" fill="#63b8ff">1</text>
</a>
</g>
</g>
<!-- dir_2c7347912a4c256662f0916909de91f6 -->
<g id="node3" class="node">
<title>dir_2c7347912a4c256662f0916909de91f6</title>
<g id="a_node3"><a xlink:href="dir_2c7347912a4c256662f0916909de91f6.html" target="_top" xlink:title="gui">
<polygon fill="#edf0f7" stroke="#7f7f7f" points="104.5,-35 75.5,-35 75.5,-16 104.5,-16 104.5,-35"/>
<text text-anchor="middle" x="90" y="-23" font-family="Helvetica,sans-Serif" font-size="10.00">gui</text>
</a>
</g>
</g>
<!-- dir_4ab9ed588a33ddf3ded84b781a5fa5eb&#45;&gt;dir_2c7347912a4c256662f0916909de91f6 -->
<g id="edge1" class="edge">
<title>dir_4ab9ed588a33ddf3ded84b781a5fa5eb&#45;&gt;dir_2c7347912a4c256662f0916909de91f6</title>
<path fill="none" stroke="#63b8ff" d="M47.42,-70.75C54.47,-63.43 64.73,-52.76 73.41,-43.74"/>
<polygon fill="#63b8ff" stroke="#63b8ff" points="75.93,-46.17 80.35,-36.53 70.89,-41.31 75.93,-46.17"/>
<g id="a_edge1&#45;headlabel"><a xlink:href="dir_000003_000013.html" target="_top" xlink:title="6">
<text text-anchor="middle" x="76.54" y="-47.13" font-family="Helvetica,sans-Serif" font-size="10.00" fill="#63b8ff">6</text>
</a>
</g>
</g>
<!-- dir_c307836a8a3824cdddc5eadc2484ae0c -->
<g id="node4" class="node">
<title>dir_c307836a8a3824cdddc5eadc2484ae0c</title>
<g id="a_node4"><a xlink:href="dir_c307836a8a3824cdddc5eadc2484ae0c.html" target="_top" xlink:title="opengl">
<polygon fill="#edf0f7" stroke="red" stroke-dasharray="5,2" points="167.5,-35 122.5,-35 122.5,-16 167.5,-16 167.5,-35"/>
<text text-anchor="middle" x="145" y="-23" font-family="Helvetica,sans-Serif" font-size="10.00">opengl</text>
</a>
</g>
</g>
<!-- dir_4ab9ed588a33ddf3ded84b781a5fa5eb&#45;&gt;dir_c307836a8a3824cdddc5eadc2484ae0c -->
<g id="edge2" class="edge">
<title>dir_4ab9ed588a33ddf3ded84b781a5fa5eb&#45;&gt;dir_c307836a8a3824cdddc5eadc2484ae0c</title>
<path fill="none" stroke="#63b8ff" d="M56.98,-70.51C73.45,-62.27 98.09,-49.96 117.11,-40.45"/>
<polygon fill="#63b8ff" stroke="#63b8ff" points="118.55,-43.64 125.93,-36.03 115.42,-37.38 118.55,-43.64"/>
<g id="a_edge2&#45;headlabel"><a xlink:href="dir_000003_000015.html" target="_top" xlink:title="4">
<text text-anchor="middle" x="117.96" y="-44.61" font-family="Helvetica,sans-Serif" font-size="10.00" fill="#63b8ff">4</text>
</a>
</g>
</g>
<!-- dir_da605f587a6e9eadd4939071a5b287b2 -->
<g id="node5" class="node">
<title>dir_da605f587a6e9eadd4939071a5b287b2</title>
<g id="a_node5"><a xlink:href="dir_da605f587a6e9eadd4939071a5b287b2.html" target="_top" xlink:title="project">
<polygon fill="#edf0f7" stroke="red" stroke-dasharray="5,2" points="232,-35 186,-35 186,-16 232,-16 232,-35"/>
<text text-anchor="middle" x="209" y="-23" font-family="Helvetica,sans-Serif" font-size="10.00">project</text>
</a>
</g>
</g>
<!-- dir_4ab9ed588a33ddf3ded84b781a5fa5eb&#45;&gt;dir_da605f587a6e9eadd4939071a5b287b2 -->
<g id="edge4" class="edge">
<title>dir_4ab9ed588a33ddf3ded84b781a5fa5eb&#45;&gt;dir_da605f587a6e9eadd4939071a5b287b2</title>
<path fill="none" stroke="#63b8ff" d="M58.17,-73.52C86.46,-64.7 139.8,-48.07 174.87,-37.14"/>
<polygon fill="#63b8ff" stroke="#63b8ff" points="175.61,-40.58 184.12,-34.26 173.53,-33.89 175.61,-40.58"/>
<g id="a_edge4&#45;headlabel"><a xlink:href="dir_000003_000016.html" target="_top" xlink:title="2">
<text text-anchor="middle" x="174.47" y="-41.41" font-family="Helvetica,sans-Serif" font-size="10.00" fill="#63b8ff">2</text>
</a>
</g>
</g>
</g>
</svg>
