<?xml version="1.0" encoding="UTF-8" standalone="no"?>
<!DOCTYPE svg PUBLIC "-//W3C//DTD SVG 1.1//EN"
 "http://www.w3.org/Graphics/SVG/1.1/DTD/svg11.dtd">
<!-- Generated by graphviz version 7.1.0 (0)
 -->
<!-- Title: /data/files/codeblocks&#45;files/atomes/src/opengl Pages: 1 -->
<svg width="320pt" height="306pt"
 viewBox="0.00 0.00 320.00 306.00" xmlns="http://www.w3.org/2000/svg" xmlns:xlink="http://www.w3.org/1999/xlink">
<g id="graph0" class="graph" transform="scale(1 1) rotate(0) translate(4 302)">
<title>/data/files/codeblocks&#45;files/atomes/src/opengl</title>
<g id="clust1" class="cluster">
<title>clusterdir_3921ebae5ef364b0d2f6acfa0fb0d8d3</title>
<g id="a_clust1"><a xlink:href="dir_3921ebae5ef364b0d2f6acfa0fb0d8d3.html" target="_top" xlink:title="src">
<polygon fill="#edf0f7" stroke="#7f7f7f" stroke-dasharray="5,2" points="8,-8 8,-290 304,-290 304,-8 8,-8"/>
<text text-anchor="middle" x="156" y="-278" font-family="Helvetica,sans-Serif" font-size="10.00">src</text>
</a>
</g>
</g>
<g id="clust2" class="cluster">
<title>clusterdir_c307836a8a3824cdddc5eadc2484ae0c</title>
<g id="a_clust2"><a xlink:href="dir_c307836a8a3824cdddc5eadc2484ae0c.html" target="_top">
<polygon fill="#edf0f7" stroke="#404040" stroke-width="2" points="156,-63 156,-263 224,-263 224,-63 156,-63"/>
</a>
</g>
</g>
<!-- dir_2c7347912a4c256662f0916909de91f6 -->
<g id="node1" class="node">
<title>dir_2c7347912a4c256662f0916909de91f6</title>
<g id="a_node1"><a xlink:href="dir_2c7347912a4c256662f0916909de91f6.html" target="_top" xlink:title="gui">
<polygon fill="#a2b4d6" stroke="#404040" points="279.5,-35 250.5,-35 250.5,-16 279.5,-16 279.5,-35"/>
<text text-anchor="middle" x="265" y="-23" font-family="Helvetica,sans-Serif" font-size="10.00">gui</text>
</a>
</g>
</g>
<!-- dir_9dcb8a3ca69c67ff49858f399d09016c -->
<g id="node2" class="node">
<title>dir_9dcb8a3ca69c67ff49858f399d09016c</title>
<g id="a_node2"><a xlink:href="dir_9dcb8a3ca69c67ff49858f399d09016c.html" target="_top" xlink:title="workspace">
<polygon fill="#a2b4d6" stroke="#404040" points="140,-90 76,-90 76,-71 140,-71 140,-90"/>
<text text-anchor="middle" x="108" y="-78" font-family="Helvetica,sans-Serif" font-size="10.00">workspace</text>
</a>
</g>
</g>
<!-- dir_b69cbee60e647204afcf7b8718bedceb -->
<g id="node3" class="node">
<title>dir_b69cbee60e647204afcf7b8718bedceb</title>
<g id="a_node3"><a xlink:href="dir_b69cbee60e647204afcf7b8718bedceb.html" target="_top" xlink:title="calc">
<polygon fill="#a2b4d6" stroke="red" points="214.5,-35 179.5,-35 179.5,-16 214.5,-16 214.5,-35"/>
<text text-anchor="middle" x="197" y="-23" font-family="Helvetica,sans-Serif" font-size="10.00">calc</text>
</a>
</g>
</g>
<!-- dir_da605f587a6e9eadd4939071a5b287b2 -->
<g id="node4" class="node">
<title>dir_da605f587a6e9eadd4939071a5b287b2</title>
<g id="a_node4"><a xlink:href="dir_da605f587a6e9eadd4939071a5b287b2.html" target="_top" xlink:title="project">
<polygon fill="#a2b4d6" stroke="red" points="120,-35 74,-35 74,-16 120,-16 120,-35"/>
<text text-anchor="middle" x="97" y="-23" font-family="Helvetica,sans-Serif" font-size="10.00">project</text>
</a>
</g>
</g>
<!-- dir_e91d843e8f0aa7d6b92ea0c09cf9089b -->
<g id="node5" class="node">
<title>dir_e91d843e8f0aa7d6b92ea0c09cf9089b</title>
<g id="a_node5"><a xlink:href="dir_e91d843e8f0aa7d6b92ea0c09cf9089b.html" target="_top" xlink:title="curve">
<polygon fill="#a2b4d6" stroke="#404040" points="97.5,-145 56.5,-145 56.5,-126 97.5,-126 97.5,-145"/>
<text text-anchor="middle" x="77" y="-133" font-family="Helvetica,sans-Serif" font-size="10.00">curve</text>
</a>
</g>
</g>
<!-- dir_c307836a8a3824cdddc5eadc2484ae0c -->
<g id="node6" class="node">
<title>dir_c307836a8a3824cdddc5eadc2484ae0c</title>
<text text-anchor="middle" x="187" y="-243" font-family="Helvetica,sans-Serif" font-size="10.00">opengl</text>
</g>
<!-- dir_c307836a8a3824cdddc5eadc2484ae0c&#45;&gt;dir_2c7347912a4c256662f0916909de91f6 -->
<g id="edge1" class="edge">
<title>dir_c307836a8a3824cdddc5eadc2484ae0c&#45;&gt;dir_2c7347912a4c256662f0916909de91f6</title>
<g id="a_edge1"><a xlink:href="dir_000016_000014.html" target="_top">
<path fill="none" stroke="#63b8ff" d="M191.87,-236.14C204.8,-213.48 240.1,-148.69 256,-90 259.89,-75.65 262.17,-59 263.46,-46.35"/>
<polygon fill="#63b8ff" stroke="#63b8ff" points="266.91,-47.04 264.31,-36.77 259.94,-46.42 266.91,-47.04"/>
</a>
</g>
<g id="a_edge1&#45;headlabel"><a xlink:href="dir_000016_000014.html" target="_top" xlink:title="45">
<text text-anchor="middle" x="269.56" y="-46.87" font-family="Helvetica,sans-Serif" font-size="10.00" fill="#63b8ff">45</text>
</a>
</g>
</g>
<!-- dir_c307836a8a3824cdddc5eadc2484ae0c&#45;&gt;dir_b69cbee60e647204afcf7b8718bedceb -->
<g id="edge3" class="edge">
<title>dir_c307836a8a3824cdddc5eadc2484ae0c&#45;&gt;dir_b69cbee60e647204afcf7b8718bedceb</title>
<g id="a_edge3"><a xlink:href="dir_000016_000002.html" target="_top">
<path fill="none" stroke="#63b8ff" d="M164.64,-236.34C131.82,-223.01 71.82,-193.09 47,-145 43.13,-137.5 45.71,-134.34 47,-126 51.5,-96.97 45.88,-83.42 67,-63 81.4,-49.08 134.48,-37.48 168.2,-31.31"/>
<polygon fill="#63b8ff" stroke="#63b8ff" points="168.5,-34.81 177.74,-29.62 167.28,-27.92 168.5,-34.81"/>
</a>
</g>
<g id="a_edge3&#45;headlabel"><a xlink:href="dir_000016_000002.html" target="_top" xlink:title="9">
<text text-anchor="middle" x="166.95" y="-35.47" font-family="Helvetica,sans-Serif" font-size="10.00" fill="#63b8ff">9</text>
</a>
</g>
</g>
<!-- dir_c307836a8a3824cdddc5eadc2484ae0c&#45;&gt;dir_da605f587a6e9eadd4939071a5b287b2 -->
<g id="edge4" class="edge">
<title>dir_c307836a8a3824cdddc5eadc2484ae0c&#45;&gt;dir_da605f587a6e9eadd4939071a5b287b2</title>
<g id="a_edge4"><a xlink:href="dir_000016_000017.html" target="_top">
<path fill="none" stroke="#63b8ff" d="M164.77,-240.59C139.74,-235.2 99.03,-223.4 72,-200 50.78,-181.64 48.12,-172.14 41,-145 35.39,-123.61 39.54,-77.75 48,-63 52.95,-54.36 60.86,-47.15 68.89,-41.49"/>
<polygon fill="#63b8ff" stroke="#63b8ff" points="70.71,-44.47 77.27,-36.16 66.96,-38.57 70.71,-44.47"/>
</a>
</g>
<g id="a_edge4&#45;headlabel"><a xlink:href="dir_000016_000017.html" target="_top" xlink:title="21">
<text text-anchor="middle" x="70.48" y="-45.49" font-family="Helvetica,sans-Serif" font-size="10.00" fill="#63b8ff">21</text>
</a>
</g>
</g>
<!-- dir_e4fae41d0e3c6490b24fe7e5266276fd -->
<g id="node8" class="node">
<title>dir_e4fae41d0e3c6490b24fe7e5266276fd</title>
<g id="a_node8"><a xlink:href="dir_e4fae41d0e3c6490b24fe7e5266276fd.html" target="_top" xlink:title="edit">
<polygon fill="#a2b4d6" stroke="#404040" points="196,-200 164,-200 164,-181 196,-181 196,-200"/>
<text text-anchor="middle" x="180" y="-188" font-family="Helvetica,sans-Serif" font-size="10.00">edit</text>
</a>
</g>
</g>
<!-- dir_c307836a8a3824cdddc5eadc2484ae0c&#45;&gt;dir_e4fae41d0e3c6490b24fe7e5266276fd -->
<g id="edge5" class="edge">
<title>dir_c307836a8a3824cdddc5eadc2484ae0c&#45;&gt;dir_e4fae41d0e3c6490b24fe7e5266276fd</title>
<g id="a_edge5"><a xlink:href="dir_000016_000010.html" target="_top">
<path fill="none" stroke="#63b8ff" d="M185.91,-236.22C185.04,-229.65 183.79,-220.18 182.66,-211.64"/>
<polygon fill="#63b8ff" stroke="#63b8ff" points="186.13,-211.21 181.35,-201.75 179.19,-212.12 186.13,-211.21"/>
</a>
</g>
<g id="a_edge5&#45;headlabel"><a xlink:href="dir_000016_000010.html" target="_top" xlink:title="8">
<text text-anchor="middle" x="189.22" y="-210.4" font-family="Helvetica,sans-Serif" font-size="10.00" fill="#63b8ff">8</text>
</a>
</g>
</g>
<!-- dir_7304069b73b1563e8c2107db644ad20a -->
<g id="node9" class="node">
<title>dir_7304069b73b1563e8c2107db644ad20a</title>
<g id="a_node9"><a xlink:href="dir_7304069b73b1563e8c2107db644ad20a.html" target="_top" xlink:title="win">
<polygon fill="#a2b4d6" stroke="#404040" points="213,-145 181,-145 181,-126 213,-126 213,-145"/>
<text text-anchor="middle" x="197" y="-133" font-family="Helvetica,sans-Serif" font-size="10.00">win</text>
</a>
</g>
</g>
<!-- dir_c307836a8a3824cdddc5eadc2484ae0c&#45;&gt;dir_7304069b73b1563e8c2107db644ad20a -->
<g id="edge2" class="edge">
<title>dir_c307836a8a3824cdddc5eadc2484ae0c&#45;&gt;dir_7304069b73b1563e8c2107db644ad20a</title>
<g id="a_edge2"><a xlink:href="dir_000016_000020.html" target="_top">
<path fill="none" stroke="#63b8ff" d="M191.46,-236.27C195.9,-227.55 202.42,-213.25 205,-200 207.83,-185.44 205.54,-168.8 202.69,-156.2"/>
<polygon fill="#63b8ff" stroke="#63b8ff" points="206.11,-155.45 200.21,-146.65 199.33,-157.21 206.11,-155.45"/>
</a>
</g>
<g id="a_edge2&#45;headlabel"><a xlink:href="dir_000016_000020.html" target="_top" xlink:title="8">
<text text-anchor="middle" x="209.38" y="-154.25" font-family="Helvetica,sans-Serif" font-size="10.00" fill="#63b8ff">8</text>
</a>
</g>
</g>
<!-- dir_d4adcea235edc19929008928ddfc8359 -->
<g id="node7" class="node">
<title>dir_d4adcea235edc19929008928ddfc8359</title>
<g id="a_node7"><a xlink:href="dir_d4adcea235edc19929008928ddfc8359.html" target="_top" xlink:title="draw">
<polygon fill="#a2b4d6" stroke="#404040" points="216,-90 178,-90 178,-71 216,-71 216,-90"/>
<text text-anchor="middle" x="197" y="-78" font-family="Helvetica,sans-Serif" font-size="10.00">draw</text>
</a>
</g>
</g>
<!-- dir_d4adcea235edc19929008928ddfc8359&#45;&gt;dir_2c7347912a4c256662f0916909de91f6 -->
<g id="edge6" class="edge">
<title>dir_d4adcea235edc19929008928ddfc8359&#45;&gt;dir_2c7347912a4c256662f0916909de91f6</title>
<g id="a_edge6"><a xlink:href="dir_000009_000014.html" target="_top">
<path fill="none" stroke="#63b8ff" d="M208.54,-70.51C218.46,-62.77 233.01,-51.43 244.86,-42.2"/>
<polygon fill="#63b8ff" stroke="#63b8ff" points="246.71,-45.2 252.44,-36.29 242.4,-39.68 246.71,-45.2"/>
</a>
</g>
<g id="a_edge6&#45;headlabel"><a xlink:href="dir_000009_000014.html" target="_top" xlink:title="3">
<text text-anchor="middle" x="246.81" y="-46.22" font-family="Helvetica,sans-Serif" font-size="10.00" fill="#63b8ff">3</text>
</a>
</g>
</g>
<!-- dir_d4adcea235edc19929008928ddfc8359&#45;&gt;dir_b69cbee60e647204afcf7b8718bedceb -->
<g id="edge8" class="edge">
<title>dir_d4adcea235edc19929008928ddfc8359&#45;&gt;dir_b69cbee60e647204afcf7b8718bedceb</title>
<g id="a_edge8"><a xlink:href="dir_000009_000002.html" target="_top">
<path fill="none" stroke="#63b8ff" d="M197,-70.75C197,-64.27 197,-55.16 197,-46.9"/>
<polygon fill="#63b8ff" stroke="#63b8ff" points="200.5,-46.96 197,-36.96 193.5,-46.96 200.5,-46.96"/>
</a>
</g>
<g id="a_edge8&#45;headlabel"><a xlink:href="dir_000009_000002.html" target="_top" xlink:title="5">
<text text-anchor="middle" x="203.34" y="-46.54" font-family="Helvetica,sans-Serif" font-size="10.00" fill="#63b8ff">5</text>
</a>
</g>
</g>
<!-- dir_d4adcea235edc19929008928ddfc8359&#45;&gt;dir_da605f587a6e9eadd4939071a5b287b2 -->
<g id="edge9" class="edge">
<title>dir_d4adcea235edc19929008928ddfc8359&#45;&gt;dir_da605f587a6e9eadd4939071a5b287b2</title>
<g id="a_edge9"><a xlink:href="dir_000009_000017.html" target="_top">
<path fill="none" stroke="#63b8ff" d="M185.57,-70.69C181.96,-68.07 177.9,-65.3 174,-63 159.58,-54.5 142.86,-46.38 128.7,-39.97"/>
<polygon fill="#63b8ff" stroke="#63b8ff" points="130.39,-36.89 119.83,-36.04 127.55,-43.29 130.39,-36.89"/>
</a>
</g>
<g id="a_edge9&#45;headlabel"><a xlink:href="dir_000009_000017.html" target="_top" xlink:title="2">
<text text-anchor="middle" x="133.44" y="-32.64" font-family="Helvetica,sans-Serif" font-size="10.00" fill="#63b8ff">2</text>
</a>
</g>
</g>
<!-- dir_d4adcea235edc19929008928ddfc8359&#45;&gt;dir_7304069b73b1563e8c2107db644ad20a -->
<g id="edge7" class="edge">
<title>dir_d4adcea235edc19929008928ddfc8359&#45;&gt;dir_7304069b73b1563e8c2107db644ad20a</title>
<g id="a_edge7"><a xlink:href="dir_000009_000020.html" target="_top">
<path fill="none" stroke="#63b8ff" d="M202.21,-90.44C203.58,-96.97 204.04,-106.1 203.57,-114.35"/>
<polygon fill="#63b8ff" stroke="#63b8ff" points="200.1,-113.89 202.35,-124.25 207.05,-114.75 200.1,-113.89"/>
</a>
</g>
<g id="a_edge7&#45;headlabel"><a xlink:href="dir_000009_000020.html" target="_top" xlink:title="4">
<text text-anchor="middle" x="197.54" y="-108.98" font-family="Helvetica,sans-Serif" font-size="10.00" fill="#63b8ff">4</text>
</a>
</g>
</g>
<!-- dir_e4fae41d0e3c6490b24fe7e5266276fd&#45;&gt;dir_2c7347912a4c256662f0916909de91f6 -->
<g id="edge10" class="edge">
<title>dir_e4fae41d0e3c6490b24fe7e5266276fd&#45;&gt;dir_2c7347912a4c256662f0916909de91f6</title>
<g id="a_edge10"><a xlink:href="dir_000010_000014.html" target="_top">
<path fill="none" stroke="#63b8ff" d="M190.55,-180.53C199.87,-172.14 213.3,-158.86 222,-145 241.92,-113.27 254.42,-71 260.53,-46.46"/>
<polygon fill="#63b8ff" stroke="#63b8ff" points="263.9,-47.41 262.79,-36.87 257.09,-45.8 263.9,-47.41"/>
</a>
</g>
<g id="a_edge10&#45;headlabel"><a xlink:href="dir_000010_000014.html" target="_top" xlink:title="8">
<text text-anchor="middle" x="266.18" y="-47.59" font-family="Helvetica,sans-Serif" font-size="10.00" fill="#63b8ff">8</text>
</a>
</g>
</g>
<!-- dir_e4fae41d0e3c6490b24fe7e5266276fd&#45;&gt;dir_9dcb8a3ca69c67ff49858f399d09016c -->
<g id="edge12" class="edge">
<title>dir_e4fae41d0e3c6490b24fe7e5266276fd&#45;&gt;dir_9dcb8a3ca69c67ff49858f399d09016c</title>
<g id="a_edge12"><a xlink:href="dir_000010_000021.html" target="_top">
<path fill="none" stroke="#63b8ff" d="M174.11,-180.66C162.4,-163.1 135.99,-123.48 120.32,-99.98"/>
<polygon fill="#63b8ff" stroke="#63b8ff" points="123.27,-98.1 114.81,-91.72 117.45,-101.98 123.27,-98.1"/>
</a>
</g>
<g id="a_edge12&#45;headlabel"><a xlink:href="dir_000010_000021.html" target="_top" xlink:title="4">
<text text-anchor="middle" x="126.79" y="-95.76" font-family="Helvetica,sans-Serif" font-size="10.00" fill="#63b8ff">4</text>
</a>
</g>
</g>
<!-- dir_e4fae41d0e3c6490b24fe7e5266276fd&#45;&gt;dir_da605f587a6e9eadd4939071a5b287b2 -->
<g id="edge13" class="edge">
<title>dir_e4fae41d0e3c6490b24fe7e5266276fd&#45;&gt;dir_da605f587a6e9eadd4939071a5b287b2</title>
<g id="a_edge13"><a xlink:href="dir_000010_000017.html" target="_top">
<path fill="none" stroke="#63b8ff" d="M169.72,-180.64C142.12,-156.85 68.4,-93.1 67,-90 62.06,-79.06 62.95,-74.3 67,-63 69.58,-55.8 74.25,-49.01 79.16,-43.28"/>
<polygon fill="#63b8ff" stroke="#63b8ff" points="81.4,-46 85.75,-36.34 76.32,-41.18 81.4,-46"/>
</a>
</g>
<g id="a_edge13&#45;headlabel"><a xlink:href="dir_000010_000017.html" target="_top" xlink:title="6">
<text text-anchor="middle" x="82.03" y="-46.97" font-family="Helvetica,sans-Serif" font-size="10.00" fill="#63b8ff">6</text>
</a>
</g>
</g>
<!-- dir_e4fae41d0e3c6490b24fe7e5266276fd&#45;&gt;dir_e91d843e8f0aa7d6b92ea0c09cf9089b -->
<g id="edge14" class="edge">
<title>dir_e4fae41d0e3c6490b24fe7e5266276fd&#45;&gt;dir_e91d843e8f0aa7d6b92ea0c09cf9089b</title>
<g id="a_edge14"><a xlink:href="dir_000010_000006.html" target="_top">
<path fill="none" stroke="#63b8ff" d="M163.91,-181.22C148.04,-173.05 123.47,-160.41 104.5,-150.65"/>
<polygon fill="#63b8ff" stroke="#63b8ff" points="106.2,-147.59 95.7,-146.12 102.99,-153.81 106.2,-147.59"/>
</a>
</g>
<g id="a_edge14&#45;headlabel"><a xlink:href="dir_000010_000006.html" target="_top" xlink:title="1">
<text text-anchor="middle" x="109.34" y="-143.51" font-family="Helvetica,sans-Serif" font-size="10.00" fill="#63b8ff">1</text>
</a>
</g>
</g>
<!-- dir_e4fae41d0e3c6490b24fe7e5266276fd&#45;&gt;dir_7304069b73b1563e8c2107db644ad20a -->
<g id="edge11" class="edge">
<title>dir_e4fae41d0e3c6490b24fe7e5266276fd&#45;&gt;dir_7304069b73b1563e8c2107db644ad20a</title>
<g id="a_edge11"><a xlink:href="dir_000010_000020.html" target="_top">
<path fill="none" stroke="#63b8ff" d="M177.64,-180.75C178.36,-173.96 181.01,-164.3 184.31,-155.73"/>
<polygon fill="#63b8ff" stroke="#63b8ff" points="187.41,-157.38 188.31,-146.82 181.02,-154.52 187.41,-157.38"/>
</a>
</g>
<g id="a_edge11&#45;headlabel"><a xlink:href="dir_000010_000020.html" target="_top" xlink:title="3">
<text text-anchor="middle" x="189.15" y="-157.94" font-family="Helvetica,sans-Serif" font-size="10.00" fill="#63b8ff">3</text>
</a>
</g>
</g>
<!-- dir_7304069b73b1563e8c2107db644ad20a&#45;&gt;dir_2c7347912a4c256662f0916909de91f6 -->
<g id="edge15" class="edge">
<title>dir_7304069b73b1563e8c2107db644ad20a&#45;&gt;dir_2c7347912a4c256662f0916909de91f6</title>
<g id="a_edge15"><a xlink:href="dir_000020_000014.html" target="_top">
<path fill="none" stroke="#63b8ff" d="M204.48,-125.61C211.68,-116.84 222.68,-102.92 231,-90 240.32,-75.52 249.45,-58.25 255.9,-45.38"/>
<polygon fill="#63b8ff" stroke="#63b8ff" points="258.87,-47.26 260.14,-36.74 252.59,-44.17 258.87,-47.26"/>
</a>
</g>
<g id="a_edge15&#45;headlabel"><a xlink:href="dir_000020_000014.html" target="_top" xlink:title="30">
<text text-anchor="middle" x="260.5" y="-47.88" font-family="Helvetica,sans-Serif" font-size="10.00" fill="#63b8ff">30</text>
</a>
</g>
</g>
<!-- dir_7304069b73b1563e8c2107db644ad20a&#45;&gt;dir_9dcb8a3ca69c67ff49858f399d09016c -->
<g id="edge16" class="edge">
<title>dir_7304069b73b1563e8c2107db644ad20a&#45;&gt;dir_9dcb8a3ca69c67ff49858f399d09016c</title>
<g id="a_edge16"><a xlink:href="dir_000020_000021.html" target="_top">
<path fill="none" stroke="#63b8ff" d="M181.9,-125.51C168.4,-117.47 148.35,-105.53 132.54,-96.11"/>
<polygon fill="#63b8ff" stroke="#63b8ff" points="134.56,-93.24 124.18,-91.13 130.98,-99.26 134.56,-93.24"/>
</a>
</g>
<g id="a_edge16&#45;headlabel"><a xlink:href="dir_000020_000021.html" target="_top" xlink:title="1">
<text text-anchor="middle" x="137.8" y="-89.37" font-family="Helvetica,sans-Serif" font-size="10.00" fill="#63b8ff">1</text>
</a>
</g>
</g>
<!-- dir_7304069b73b1563e8c2107db644ad20a&#45;&gt;dir_b69cbee60e647204afcf7b8718bedceb -->
<g id="edge17" class="edge">
<title>dir_7304069b73b1563e8c2107db644ad20a&#45;&gt;dir_b69cbee60e647204afcf7b8718bedceb</title>
<g id="a_edge17"><a xlink:href="dir_000020_000002.html" target="_top">
<path fill="none" stroke="#63b8ff" d="M204.67,-125.7C211.52,-117.21 221.05,-103.68 225,-90 228.33,-78.47 228.86,-74.36 225,-63 222.67,-56.12 218.45,-49.52 213.99,-43.87"/>
<polygon fill="#63b8ff" stroke="#63b8ff" points="216.77,-41.73 207.54,-36.52 211.51,-46.34 216.77,-41.73"/>
</a>
</g>
<g id="a_edge17&#45;headlabel"><a xlink:href="dir_000020_000002.html" target="_top" xlink:title="2">
<text text-anchor="middle" x="220.27" y="-38.92" font-family="Helvetica,sans-Serif" font-size="10.00" fill="#63b8ff">2</text>
</a>
</g>
</g>
<!-- dir_7304069b73b1563e8c2107db644ad20a&#45;&gt;dir_da605f587a6e9eadd4939071a5b287b2 -->
<g id="edge19" class="edge">
<title>dir_7304069b73b1563e8c2107db644ad20a&#45;&gt;dir_da605f587a6e9eadd4939071a5b287b2</title>
<g id="a_edge19"><a xlink:href="dir_000020_000017.html" target="_top">
<path fill="none" stroke="#63b8ff" d="M191.54,-125.51C181.25,-108.71 159.1,-73.31 149,-63 141.15,-54.98 131.33,-47.58 122.34,-41.56"/>
<polygon fill="#63b8ff" stroke="#63b8ff" points="124.29,-38.65 113.97,-36.21 120.52,-44.55 124.29,-38.65"/>
</a>
</g>
<g id="a_edge19&#45;headlabel"><a xlink:href="dir_000020_000017.html" target="_top" xlink:title="12">
<text text-anchor="middle" x="127.57" y="-34.88" font-family="Helvetica,sans-Serif" font-size="10.00" fill="#63b8ff">12</text>
</a>
</g>
</g>
<!-- dir_7304069b73b1563e8c2107db644ad20a&#45;&gt;dir_d4adcea235edc19929008928ddfc8359 -->
<g id="edge18" class="edge">
<title>dir_7304069b73b1563e8c2107db644ad20a&#45;&gt;dir_d4adcea235edc19929008928ddfc8359</title>
<g id="a_edge18"><a xlink:href="dir_000020_000009.html" target="_top">
<path fill="none" stroke="#63b8ff" d="M191.83,-125.75C190.42,-119.19 189.96,-109.95 190.43,-101.6"/>
<polygon fill="#63b8ff" stroke="#63b8ff" points="193.87,-102.3 191.61,-91.94 186.92,-101.45 193.87,-102.3"/>
</a>
</g>
<g id="a_edge18&#45;headlabel"><a xlink:href="dir_000020_000009.html" target="_top" xlink:title="1">
<text text-anchor="middle" x="196.44" y="-102.21" font-family="Helvetica,sans-Serif" font-size="10.00" fill="#63b8ff">1</text>
</a>
</g>
</g>
<!-- dir_7304069b73b1563e8c2107db644ad20a&#45;&gt;dir_e4fae41d0e3c6490b24fe7e5266276fd -->
<g id="edge20" class="edge">
<title>dir_7304069b73b1563e8c2107db644ad20a&#45;&gt;dir_e4fae41d0e3c6490b24fe7e5266276fd</title>
<g id="a_edge20"><a xlink:href="dir_000020_000010.html" target="_top">
<path fill="none" stroke="#63b8ff" d="M199.34,-145.44C198.58,-152.28 195.91,-161.96 192.6,-170.5"/>
<polygon fill="#63b8ff" stroke="#63b8ff" points="189.52,-168.81 188.6,-179.37 195.9,-171.69 189.52,-168.81"/>
</a>
</g>
<g id="a_edge20&#45;headlabel"><a xlink:href="dir_000020_000010.html" target="_top" xlink:title="7">
<text text-anchor="middle" x="187.79" y="-163.25" font-family="Helvetica,sans-Serif" font-size="10.00" fill="#63b8ff">7</text>
</a>
</g>
</g>
</g>
</svg>
