<?xml version="1.0" encoding="UTF-8" standalone="no"?>
<!DOCTYPE svg PUBLIC "-//W3C//DTD SVG 1.1//EN"
 "http://www.w3.org/Graphics/SVG/1.1/DTD/svg11.dtd">
<!-- Generated by graphviz version 9.0.0 (20230911.1827)
 -->
<!-- Title: opengl Pages: 1 -->
<svg width="325pt" height="268pt"
 viewBox="0.00 0.00 324.90 268.00" xmlns="http://www.w3.org/2000/svg" xmlns:xlink="http://www.w3.org/1999/xlink">

<svg id="main" version="1.1" xmlns="http://www.w3.org/2000/svg" xmlns:xlink="http://www.w3.org/1999/xlink" xml:space="preserve" onload="init(evt)">
<style type="text/css"><![CDATA[
.node, .edge {opacity: 0.7;}
.node.selected, .edge.selected {opacity: 1;}
.edge:hover path { stroke: red; }
.edge:hover polygon { stroke: red; fill: red; }
]]></style>
<script type="application/ecmascript" xlink:href="svg.min.js"/>
<svg id="graph" class="graph">
<g id="graph0" class="graph" transform="scale(1 1) rotate(0) translate(4 264)">
<title>opengl</title>
<g id="clust1" class="cluster">
<title>clusterdir_35aa532d637074063c646a4cf80a0972</title>
<g id="a_clust1"><a xlink:href="dir_35aa532d637074063c646a4cf80a0972.html" target="_top">
<polygon fill="#edf0f7" stroke="#404040" stroke-width="2" points="194.22,-48 194.22,-252 262.22,-252 262.22,-48 194.22,-48"/>
</a>
</g>
</g>
<!-- dir_35aa532d637074063c646a4cf80a0972 -->
<g id="node1" class="node">
<title>dir_35aa532d637074063c646a4cf80a0972</title>
<text text-anchor="middle" x="224.22" y="-230.5" font-family="Helvetica,sans-Serif" font-size="10.00">opengl</text>
</g>
<!-- dir_adb84e959311a9ff6718b594edd7a2c4 -->
<g id="node3" class="node">
<title>dir_adb84e959311a9ff6718b594edd7a2c4</title>
<g id="a_node3"><a xlink:href="dir_adb84e959311a9ff6718b594edd7a2c4.html" target="_top" xlink:title="edit">
<polygon fill="#a2b4d6" stroke="#404040" points="234.09,-188 202.34,-188 202.34,-168 234.09,-168 234.09,-188"/>
<text text-anchor="middle" x="218.22" y="-174.5" font-family="Helvetica,sans-Serif" font-size="10.00">edit</text>
</a>
</g>
</g>
<!-- dir_35aa532d637074063c646a4cf80a0972&#45;&gt;dir_adb84e959311a9ff6718b594edd7a2c4 -->
<g id="edge4" class="edge">
<title>dir_35aa532d637074063c646a4cf80a0972&#45;&gt;dir_adb84e959311a9ff6718b594edd7a2c4</title>
<g id="a_edge4"><a xlink:href="dir_000011_000006.html" target="_top">
<path fill="none" stroke="#63b8ff" d="M223.23,-224.08C222.49,-217.48 221.46,-208.21 220.53,-199.79"/>
<polygon fill="#63b8ff" stroke="#63b8ff" points="224.02,-199.53 219.44,-189.98 217.06,-200.31 224.02,-199.53"/>
</a>
</g>
<g id="a_edge4&#45;headlabel"><a xlink:href="dir_000011_000006.html" target="_top" xlink:title="8">
<text text-anchor="middle" x="227.07" y="-197.79" font-family="Helvetica,sans-Serif" font-size="10.00" fill="#63b8ff">8</text>
</a>
</g>
</g>
<!-- dir_ad0a8d4fb7f400ce29cb18ba2262ad2b -->
<g id="node4" class="node">
<title>dir_ad0a8d4fb7f400ce29cb18ba2262ad2b</title>
<g id="a_node4"><a xlink:href="dir_ad0a8d4fb7f400ce29cb18ba2262ad2b.html" target="_top" xlink:title="win">
<polygon fill="#a2b4d6" stroke="#404040" points="233.72,-132 202.72,-132 202.72,-112 233.72,-112 233.72,-132"/>
<text text-anchor="middle" x="218.22" y="-118.5" font-family="Helvetica,sans-Serif" font-size="10.00">win</text>
</a>
</g>
</g>
<!-- dir_35aa532d637074063c646a4cf80a0972&#45;&gt;dir_ad0a8d4fb7f400ce29cb18ba2262ad2b -->
<g id="edge3" class="edge">
<title>dir_35aa532d637074063c646a4cf80a0972&#45;&gt;dir_ad0a8d4fb7f400ce29cb18ba2262ad2b</title>
<g id="a_edge3"><a xlink:href="dir_000011_000015.html" target="_top">
<path fill="none" stroke="#63b8ff" d="M229.9,-224.22C237.23,-211.77 248.47,-188.26 243.22,-168 240.84,-158.84 236.16,-149.56 231.48,-141.83"/>
<polygon fill="#63b8ff" stroke="#63b8ff" points="234.54,-140.12 226.14,-133.66 228.68,-143.95 234.54,-140.12"/>
</a>
</g>
<g id="a_edge3&#45;headlabel"><a xlink:href="dir_000011_000015.html" target="_top" xlink:title="8">
<text text-anchor="middle" x="238.06" y="-136.81" font-family="Helvetica,sans-Serif" font-size="10.00" fill="#63b8ff">8</text>
</a>
</g>
</g>
<!-- dir_11bc0974ce736ce9a6fadebbeb7a8314 -->
<g id="node5" class="node">
<title>dir_11bc0974ce736ce9a6fadebbeb7a8314</title>
<g id="a_node5"><a xlink:href="dir_11bc0974ce736ce9a6fadebbeb7a8314.html" target="_top" xlink:title="gui">
<polygon fill="#edf0f7" stroke="#404040" points="315.62,-20 286.82,-20 286.82,0 315.62,0 315.62,-20"/>
<text text-anchor="middle" x="301.22" y="-6.5" font-family="Helvetica,sans-Serif" font-size="10.00">gui</text>
</a>
</g>
</g>
<!-- dir_35aa532d637074063c646a4cf80a0972&#45;&gt;dir_11bc0974ce736ce9a6fadebbeb7a8314 -->
<g id="edge1" class="edge">
<title>dir_35aa532d637074063c646a4cf80a0972&#45;&gt;dir_11bc0974ce736ce9a6fadebbeb7a8314</title>
<g id="a_edge1"><a xlink:href="dir_000011_000009.html" target="_top">
<path fill="none" stroke="#63b8ff" d="M230.76,-224.06C247.18,-200.99 289.81,-137.04 304.22,-76 307.64,-61.49 306.74,-44.66 305.06,-31.76"/>
<polygon fill="#63b8ff" stroke="#63b8ff" points="308.52,-31.23 303.49,-21.9 301.6,-32.33 308.52,-31.23"/>
</a>
</g>
<g id="a_edge1&#45;headlabel"><a xlink:href="dir_000011_000009.html" target="_top" xlink:title="44">
<text text-anchor="middle" x="311.65" y="-29.34" font-family="Helvetica,sans-Serif" font-size="10.00" fill="#63b8ff">44</text>
</a>
</g>
</g>
<!-- dir_167790342fb55959539d550b874be046 -->
<g id="node6" class="node">
<title>dir_167790342fb55959539d550b874be046</title>
<g id="a_node6"><a xlink:href="dir_167790342fb55959539d550b874be046.html" target="_top" xlink:title="project">
<polygon fill="#edf0f7" stroke="red" points="102.84,-20 57.59,-20 57.59,0 102.84,0 102.84,-20"/>
<text text-anchor="middle" x="80.22" y="-6.5" font-family="Helvetica,sans-Serif" font-size="10.00">project</text>
</a>
</g>
</g>
<!-- dir_35aa532d637074063c646a4cf80a0972&#45;&gt;dir_167790342fb55959539d550b874be046 -->
<g id="edge2" class="edge">
<title>dir_35aa532d637074063c646a4cf80a0972&#45;&gt;dir_167790342fb55959539d550b874be046</title>
<g id="a_edge2"><a xlink:href="dir_000011_000012.html" target="_top">
<path fill="none" stroke="#63b8ff" d="M202.03,-232.59C165.22,-230.88 90.58,-223 40.22,-188 15.52,-170.84 11.05,-160.75 2.22,-132 -5.84,-105.76 15.12,-52.17 18.22,-48 25.64,-38.01 36.63,-30.2 47.3,-24.39"/>
<polygon fill="#63b8ff" stroke="#63b8ff" points="48.55,-27.68 55.95,-20.09 45.44,-21.41 48.55,-27.68"/>
</a>
</g>
<g id="a_edge2&#45;headlabel"><a xlink:href="dir_000011_000012.html" target="_top" xlink:title="20">
<text text-anchor="middle" x="47.95" y="-27.64" font-family="Helvetica,sans-Serif" font-size="10.00" fill="#63b8ff">20</text>
</a>
</g>
</g>
<!-- dir_b23ce9843a0cf83641620a63d26b700d -->
<g id="node8" class="node">
<title>dir_b23ce9843a0cf83641620a63d26b700d</title>
<g id="a_node8"><a xlink:href="dir_b23ce9843a0cf83641620a63d26b700d.html" target="_top" xlink:title="calc">
<polygon fill="#edf0f7" stroke="red" points="205.22,-20 171.22,-20 171.22,0 205.22,0 205.22,-20"/>
<text text-anchor="middle" x="188.22" y="-6.5" font-family="Helvetica,sans-Serif" font-size="10.00">calc</text>
</a>
</g>
</g>
<!-- dir_35aa532d637074063c646a4cf80a0972&#45;&gt;dir_b23ce9843a0cf83641620a63d26b700d -->
<g id="edge5" class="edge">
<title>dir_35aa532d637074063c646a4cf80a0972&#45;&gt;dir_b23ce9843a0cf83641620a63d26b700d</title>
<g id="a_edge5"><a xlink:href="dir_000011_000000.html" target="_top">
<path fill="none" stroke="#63b8ff" d="M202.01,-230.18C156.7,-223.1 54.21,-199.96 11.22,-132 -8.46,-100.9 31.2,-61.62 49.22,-48 81.78,-23.37 129.43,-15.11 159.63,-12.36"/>
<polygon fill="#63b8ff" stroke="#63b8ff" points="159.81,-15.85 169.52,-11.61 159.29,-8.87 159.81,-15.85"/>
</a>
</g>
<g id="a_edge5&#45;headlabel"><a xlink:href="dir_000011_000000.html" target="_top" xlink:title="9">
<text text-anchor="middle" x="157.95" y="-15.34" font-family="Helvetica,sans-Serif" font-size="10.00" fill="#63b8ff">9</text>
</a>
</g>
</g>
<!-- dir_0e34caf28e6baf80c1fb8b79d4d9295f -->
<g id="node2" class="node">
<title>dir_0e34caf28e6baf80c1fb8b79d4d9295f</title>
<g id="a_node2"><a xlink:href="dir_0e34caf28e6baf80c1fb8b79d4d9295f.html" target="_top" xlink:title="draw">
<polygon fill="#a2b4d6" stroke="#404040" points="253.72,-76 216.72,-76 216.72,-56 253.72,-56 253.72,-76"/>
<text text-anchor="middle" x="235.22" y="-62.5" font-family="Helvetica,sans-Serif" font-size="10.00">draw</text>
</a>
</g>
</g>
<!-- dir_0e34caf28e6baf80c1fb8b79d4d9295f&#45;&gt;dir_ad0a8d4fb7f400ce29cb18ba2262ad2b -->
<g id="edge8" class="edge">
<title>dir_0e34caf28e6baf80c1fb8b79d4d9295f&#45;&gt;dir_ad0a8d4fb7f400ce29cb18ba2262ad2b</title>
<g id="a_edge8"><a xlink:href="dir_000005_000015.html" target="_top">
<path fill="none" stroke="#63b8ff" d="M237.53,-76.3C236.76,-83.16 234.17,-92.75 230.95,-101.29"/>
<polygon fill="#63b8ff" stroke="#63b8ff" points="227.85,-99.64 227.05,-110.21 234.26,-102.45 227.85,-99.64"/>
</a>
</g>
<g id="a_edge8&#45;headlabel"><a xlink:href="dir_000005_000015.html" target="_top" xlink:title="4">
<text text-anchor="middle" x="226.08" y="-93.1" font-family="Helvetica,sans-Serif" font-size="10.00" fill="#63b8ff">4</text>
</a>
</g>
</g>
<!-- dir_0e34caf28e6baf80c1fb8b79d4d9295f&#45;&gt;dir_11bc0974ce736ce9a6fadebbeb7a8314 -->
<g id="edge6" class="edge">
<title>dir_0e34caf28e6baf80c1fb8b79d4d9295f&#45;&gt;dir_11bc0974ce736ce9a6fadebbeb7a8314</title>
<g id="a_edge6"><a xlink:href="dir_000005_000009.html" target="_top">
<path fill="none" stroke="#63b8ff" d="M246.71,-55.59C256.18,-47.85 269.82,-36.69 281.09,-27.47"/>
<polygon fill="#63b8ff" stroke="#63b8ff" points="283.16,-30.3 288.68,-21.26 278.72,-24.88 283.16,-30.3"/>
</a>
</g>
<g id="a_edge6&#45;headlabel"><a xlink:href="dir_000005_000009.html" target="_top" xlink:title="3">
<text text-anchor="middle" x="283.34" y="-30.31" font-family="Helvetica,sans-Serif" font-size="10.00" fill="#63b8ff">3</text>
</a>
</g>
</g>
<!-- dir_0e34caf28e6baf80c1fb8b79d4d9295f&#45;&gt;dir_167790342fb55959539d550b874be046 -->
<g id="edge7" class="edge">
<title>dir_0e34caf28e6baf80c1fb8b79d4d9295f&#45;&gt;dir_167790342fb55959539d550b874be046</title>
<g id="a_edge7"><a xlink:href="dir_000005_000012.html" target="_top">
<path fill="none" stroke="#63b8ff" d="M216.52,-58.49C191.09,-49.63 145.19,-33.63 113.73,-22.68"/>
<polygon fill="#63b8ff" stroke="#63b8ff" points="115.29,-19.51 104.69,-19.53 112.99,-26.12 115.29,-19.51"/>
</a>
</g>
<g id="a_edge7&#45;headlabel"><a xlink:href="dir_000005_000012.html" target="_top" xlink:title="2">
<text text-anchor="middle" x="118.19" y="-14.02" font-family="Helvetica,sans-Serif" font-size="10.00" fill="#63b8ff">2</text>
</a>
</g>
</g>
<!-- dir_0e34caf28e6baf80c1fb8b79d4d9295f&#45;&gt;dir_b23ce9843a0cf83641620a63d26b700d -->
<g id="edge9" class="edge">
<title>dir_0e34caf28e6baf80c1fb8b79d4d9295f&#45;&gt;dir_b23ce9843a0cf83641620a63d26b700d</title>
<g id="a_edge9"><a xlink:href="dir_000005_000000.html" target="_top">
<path fill="none" stroke="#63b8ff" d="M227.03,-55.59C220.63,-48.24 211.54,-37.8 203.77,-28.87"/>
<polygon fill="#63b8ff" stroke="#63b8ff" points="206.51,-26.69 197.3,-21.44 201.23,-31.28 206.51,-26.69"/>
</a>
</g>
<g id="a_edge9&#45;headlabel"><a xlink:href="dir_000005_000000.html" target="_top" xlink:title="5">
<text text-anchor="middle" x="210.02" y="-22.89" font-family="Helvetica,sans-Serif" font-size="10.00" fill="#63b8ff">5</text>
</a>
</g>
</g>
<!-- dir_adb84e959311a9ff6718b594edd7a2c4&#45;&gt;dir_ad0a8d4fb7f400ce29cb18ba2262ad2b -->
<g id="edge13" class="edge">
<title>dir_adb84e959311a9ff6718b594edd7a2c4&#45;&gt;dir_ad0a8d4fb7f400ce29cb18ba2262ad2b</title>
<g id="a_edge13"><a xlink:href="dir_000006_000015.html" target="_top">
<path fill="none" stroke="#63b8ff" d="M212.95,-167.59C211.63,-161.01 211.19,-151.96 211.63,-143.73"/>
<polygon fill="#63b8ff" stroke="#63b8ff" points="215.11,-144.14 212.8,-133.8 208.15,-143.33 215.11,-144.14"/>
</a>
</g>
<g id="a_edge13&#45;headlabel"><a xlink:href="dir_000006_000015.html" target="_top" xlink:title="3">
<text text-anchor="middle" x="217.68" y="-143.04" font-family="Helvetica,sans-Serif" font-size="10.00" fill="#63b8ff">3</text>
</a>
</g>
</g>
<!-- dir_adb84e959311a9ff6718b594edd7a2c4&#45;&gt;dir_11bc0974ce736ce9a6fadebbeb7a8314 -->
<g id="edge10" class="edge">
<title>dir_adb84e959311a9ff6718b594edd7a2c4&#45;&gt;dir_11bc0974ce736ce9a6fadebbeb7a8314</title>
<g id="a_edge10"><a xlink:href="dir_000006_000009.html" target="_top">
<path fill="none" stroke="#63b8ff" d="M226.26,-167.67C240.51,-150.63 270.22,-112.84 286.22,-76 292.44,-61.67 296.27,-44.4 298.5,-31.26"/>
<polygon fill="#63b8ff" stroke="#63b8ff" points="301.92,-32.07 299.95,-21.66 295,-31.02 301.92,-32.07"/>
</a>
</g>
<g id="a_edge10&#45;headlabel"><a xlink:href="dir_000006_000009.html" target="_top" xlink:title="8">
<text text-anchor="middle" x="304.41" y="-31.05" font-family="Helvetica,sans-Serif" font-size="10.00" fill="#63b8ff">8</text>
</a>
</g>
</g>
<!-- dir_adb84e959311a9ff6718b594edd7a2c4&#45;&gt;dir_167790342fb55959539d550b874be046 -->
<g id="edge11" class="edge">
<title>dir_adb84e959311a9ff6718b594edd7a2c4&#45;&gt;dir_167790342fb55959539d550b874be046</title>
<g id="a_edge11"><a xlink:href="dir_000006_000012.html" target="_top">
<path fill="none" stroke="#63b8ff" d="M201.97,-173.14C166.4,-163.69 82.18,-135.69 49.22,-76 43.2,-65.11 44.96,-59.7 49.22,-48 51.81,-40.87 56.45,-34.15 61.36,-28.45"/>
<polygon fill="#63b8ff" stroke="#63b8ff" points="63.62,-31.15 68,-21.5 58.56,-26.31 63.62,-31.15"/>
</a>
</g>
<g id="a_edge11&#45;headlabel"><a xlink:href="dir_000006_000012.html" target="_top" xlink:title="6">
<text text-anchor="middle" x="64.23" y="-31.12" font-family="Helvetica,sans-Serif" font-size="10.00" fill="#63b8ff">6</text>
</a>
</g>
</g>
<!-- dir_a5be7bbed3ff2f129951759fe96bf5d5 -->
<g id="node7" class="node">
<title>dir_a5be7bbed3ff2f129951759fe96bf5d5</title>
<g id="a_node7"><a xlink:href="dir_a5be7bbed3ff2f129951759fe96bf5d5.html" target="_top" xlink:title="workspace">
<polygon fill="#edf0f7" stroke="#404040" points="121.84,-76 58.59,-76 58.59,-56 121.84,-56 121.84,-76"/>
<text text-anchor="middle" x="90.22" y="-62.5" font-family="Helvetica,sans-Serif" font-size="10.00">workspace</text>
</a>
</g>
</g>
<!-- dir_adb84e959311a9ff6718b594edd7a2c4&#45;&gt;dir_a5be7bbed3ff2f129951759fe96bf5d5 -->
<g id="edge12" class="edge">
<title>dir_adb84e959311a9ff6718b594edd7a2c4&#45;&gt;dir_a5be7bbed3ff2f129951759fe96bf5d5</title>
<g id="a_edge12"><a xlink:href="dir_000006_000016.html" target="_top">
<path fill="none" stroke="#63b8ff" d="M207.3,-167.62C185.67,-149.03 137.09,-107.28 109.79,-83.82"/>
<polygon fill="#63b8ff" stroke="#63b8ff" points="112.12,-81.2 102.25,-77.34 107.55,-86.51 112.12,-81.2"/>
</a>
</g>
<g id="a_edge12&#45;headlabel"><a xlink:href="dir_000006_000016.html" target="_top" xlink:title="4">
<text text-anchor="middle" x="115.54" y="-76.91" font-family="Helvetica,sans-Serif" font-size="10.00" fill="#63b8ff">4</text>
</a>
</g>
</g>
<!-- dir_f503eccc909c3cc44ffd239385415fa7 -->
<g id="node9" class="node">
<title>dir_f503eccc909c3cc44ffd239385415fa7</title>
<g id="a_node9"><a xlink:href="dir_f503eccc909c3cc44ffd239385415fa7.html" target="_top" xlink:title="curve">
<polygon fill="#edf0f7" stroke="#404040" points="60.22,-132 20.22,-132 20.22,-112 60.22,-112 60.22,-132"/>
<text text-anchor="middle" x="40.22" y="-118.5" font-family="Helvetica,sans-Serif" font-size="10.00">curve</text>
</a>
</g>
</g>
<!-- dir_adb84e959311a9ff6718b594edd7a2c4&#45;&gt;dir_f503eccc909c3cc44ffd239385415fa7 -->
<g id="edge14" class="edge">
<title>dir_adb84e959311a9ff6718b594edd7a2c4&#45;&gt;dir_f503eccc909c3cc44ffd239385415fa7</title>
<g id="a_edge14"><a xlink:href="dir_000006_000003.html" target="_top">
<path fill="none" stroke="#63b8ff" d="M202.11,-172.11C172.64,-163.17 109.57,-144.04 71.43,-132.47"/>
<polygon fill="#63b8ff" stroke="#63b8ff" points="72.5,-129.14 61.91,-129.58 70.47,-135.83 72.5,-129.14"/>
</a>
</g>
<g id="a_edge14&#45;headlabel"><a xlink:href="dir_000006_000003.html" target="_top" xlink:title="1">
<text text-anchor="middle" x="75.31" y="-123.52" font-family="Helvetica,sans-Serif" font-size="10.00" fill="#63b8ff">1</text>
</a>
</g>
</g>
<!-- dir_ad0a8d4fb7f400ce29cb18ba2262ad2b&#45;&gt;dir_0e34caf28e6baf80c1fb8b79d4d9295f -->
<g id="edge15" class="edge">
<title>dir_ad0a8d4fb7f400ce29cb18ba2262ad2b&#45;&gt;dir_0e34caf28e6baf80c1fb8b79d4d9295f</title>
<g id="a_edge15"><a xlink:href="dir_000015_000005.html" target="_top">
<path fill="none" stroke="#63b8ff" d="M215.91,-111.59C216.7,-104.7 219.31,-95.1 222.54,-86.57"/>
<polygon fill="#63b8ff" stroke="#63b8ff" points="225.62,-88.25 226.44,-77.68 219.21,-85.44 225.62,-88.25"/>
</a>
</g>
<g id="a_edge15&#45;headlabel"><a xlink:href="dir_000015_000005.html" target="_top" xlink:title="1">
<text text-anchor="middle" x="227.39" y="-87.79" font-family="Helvetica,sans-Serif" font-size="10.00" fill="#63b8ff">1</text>
</a>
</g>
</g>
<!-- dir_ad0a8d4fb7f400ce29cb18ba2262ad2b&#45;&gt;dir_adb84e959311a9ff6718b594edd7a2c4 -->
<g id="edge19" class="edge">
<title>dir_ad0a8d4fb7f400ce29cb18ba2262ad2b&#45;&gt;dir_adb84e959311a9ff6718b594edd7a2c4</title>
<g id="a_edge19"><a xlink:href="dir_000015_000006.html" target="_top">
<path fill="none" stroke="#63b8ff" d="M223.46,-132.3C224.81,-138.93 225.25,-148.11 224.79,-156.43"/>
<polygon fill="#63b8ff" stroke="#63b8ff" points="221.35,-155.75 223.66,-166.09 228.3,-156.57 221.35,-155.75"/>
</a>
</g>
<g id="a_edge19&#45;headlabel"><a xlink:href="dir_000015_000006.html" target="_top" xlink:title="7">
<text text-anchor="middle" x="218.77" y="-149.85" font-family="Helvetica,sans-Serif" font-size="10.00" fill="#63b8ff">7</text>
</a>
</g>
</g>
<!-- dir_ad0a8d4fb7f400ce29cb18ba2262ad2b&#45;&gt;dir_11bc0974ce736ce9a6fadebbeb7a8314 -->
<g id="edge16" class="edge">
<title>dir_ad0a8d4fb7f400ce29cb18ba2262ad2b&#45;&gt;dir_11bc0974ce736ce9a6fadebbeb7a8314</title>
<g id="a_edge16"><a xlink:href="dir_000015_000009.html" target="_top">
<path fill="none" stroke="#63b8ff" d="M229.01,-111.68C238.65,-103.02 252.82,-89.47 263.22,-76 274.32,-61.61 284.58,-43.67 291.63,-30.29"/>
<polygon fill="#63b8ff" stroke="#63b8ff" points="294.61,-32.14 296.05,-21.64 288.38,-28.95 294.61,-32.14"/>
</a>
</g>
<g id="a_edge16&#45;headlabel"><a xlink:href="dir_000015_000009.html" target="_top" xlink:title="29">
<text text-anchor="middle" x="296.19" y="-31.79" font-family="Helvetica,sans-Serif" font-size="10.00" fill="#63b8ff">29</text>
</a>
</g>
</g>
<!-- dir_ad0a8d4fb7f400ce29cb18ba2262ad2b&#45;&gt;dir_167790342fb55959539d550b874be046 -->
<g id="edge17" class="edge">
<title>dir_ad0a8d4fb7f400ce29cb18ba2262ad2b&#45;&gt;dir_167790342fb55959539d550b874be046</title>
<g id="a_edge17"><a xlink:href="dir_000015_000012.html" target="_top">
<path fill="none" stroke="#63b8ff" d="M207.43,-111.53C191.19,-97.36 159.35,-69.96 131.22,-48 122.2,-40.96 112.03,-33.49 103.16,-27.12"/>
<polygon fill="#63b8ff" stroke="#63b8ff" points="105.24,-24.31 95.06,-21.36 101.18,-30.01 105.24,-24.31"/>
</a>
</g>
<g id="a_edge17&#45;headlabel"><a xlink:href="dir_000015_000012.html" target="_top" xlink:title="11">
<text text-anchor="middle" x="108.58" y="-19.7" font-family="Helvetica,sans-Serif" font-size="10.00" fill="#63b8ff">11</text>
</a>
</g>
</g>
<!-- dir_ad0a8d4fb7f400ce29cb18ba2262ad2b&#45;&gt;dir_a5be7bbed3ff2f129951759fe96bf5d5 -->
<g id="edge18" class="edge">
<title>dir_ad0a8d4fb7f400ce29cb18ba2262ad2b&#45;&gt;dir_a5be7bbed3ff2f129951759fe96bf5d5</title>
<g id="a_edge18"><a xlink:href="dir_000015_000016.html" target="_top">
<path fill="none" stroke="#63b8ff" d="M202.26,-114.27C182.44,-105.91 148.14,-91.43 122.69,-80.7"/>
<polygon fill="#63b8ff" stroke="#63b8ff" points="124.36,-77.61 113.79,-76.94 121.64,-84.06 124.36,-77.61"/>
</a>
</g>
<g id="a_edge18&#45;headlabel"><a xlink:href="dir_000015_000016.html" target="_top" xlink:title="1">
<text text-anchor="middle" x="127.38" y="-72.3" font-family="Helvetica,sans-Serif" font-size="10.00" fill="#63b8ff">1</text>
</a>
</g>
</g>
<!-- dir_ad0a8d4fb7f400ce29cb18ba2262ad2b&#45;&gt;dir_b23ce9843a0cf83641620a63d26b700d -->
<g id="edge20" class="edge">
<title>dir_ad0a8d4fb7f400ce29cb18ba2262ad2b&#45;&gt;dir_b23ce9843a0cf83641620a63d26b700d</title>
<g id="a_edge20"><a xlink:href="dir_000015_000000.html" target="_top">
<path fill="none" stroke="#63b8ff" d="M215.66,-111.62C210.83,-93.92 200.28,-55.24 193.76,-31.32"/>
<polygon fill="#63b8ff" stroke="#63b8ff" points="197.17,-30.54 191.17,-21.82 190.42,-32.38 197.17,-30.54"/>
</a>
</g>
<g id="a_edge20&#45;headlabel"><a xlink:href="dir_000015_000000.html" target="_top" xlink:title="2">
<text text-anchor="middle" x="200.46" y="-28.3" font-family="Helvetica,sans-Serif" font-size="10.00" fill="#63b8ff">2</text>
</a>
</g>
</g>
</g>
</svg>
</svg>

<style type='text/css'>
<![CDATA[
[data-mouse-over-selected='false'] { opacity: 0.7; }
[data-mouse-over-selected='true']  { opacity: 1.0; }
]]>
</style>
<script type="application/ecmascript"><![CDATA[
document.addEventListener('DOMContentLoaded', (event) => {
  highlightEdges();
  highlightAdjacentNodes();
});
]]></script>
</svg>
