<?xml version="1.0" encoding="UTF-8" standalone="no"?>
<!DOCTYPE svg PUBLIC "-//W3C//DTD SVG 1.1//EN"
 "http://www.w3.org/Graphics/SVG/1.1/DTD/svg11.dtd">
<!-- Generated by graphviz version 7.1.0 (0)
 -->
<!-- Title: draw Pages: 1 -->
<svg width="225pt" height="133pt"
 viewBox="0.00 0.00 224.50 133.00" xmlns="http://www.w3.org/2000/svg" xmlns:xlink="http://www.w3.org/1999/xlink">
<g id="graph0" class="graph" transform="scale(1 1) rotate(0) translate(4 129)">
<title>draw</title>
<g id="clust1" class="cluster">
<title>clusterdir_896854cd3247b6cb36f98a37c2863463</title>
<g id="a_clust1"><a xlink:href="dir_896854cd3247b6cb36f98a37c2863463.html" target="_top" xlink:title="opengl">
<polygon fill="#edf0f7" stroke="#7f7f7f" stroke-dasharray="5,2" points="8,-8 8,-117 62,-117 62,-8 8,-8"/>
<text text-anchor="middle" x="35" y="-105" font-family="Helvetica,sans-Serif" font-size="10.00">opengl</text>
</a>
</g>
</g>
<!-- dir_e974ad0149b2947e115452623ce914ca -->
<g id="node1" class="node">
<title>dir_e974ad0149b2947e115452623ce914ca</title>
<g id="a_node1"><a xlink:href="dir_e974ad0149b2947e115452623ce914ca.html" target="_top" xlink:title="win">
<polygon fill="#a2b4d6" stroke="#404040" points="51,-35 19,-35 19,-16 51,-16 51,-35"/>
<text text-anchor="middle" x="35" y="-23" font-family="Helvetica,sans-Serif" font-size="10.00">win</text>
</a>
</g>
</g>
<!-- dir_ca41797f77cd69bf1ec4c84513765b8c -->
<g id="node2" class="node">
<title>dir_ca41797f77cd69bf1ec4c84513765b8c</title>
<g id="a_node2"><a xlink:href="dir_ca41797f77cd69bf1ec4c84513765b8c.html" target="_top" xlink:title="draw">
<polygon fill="#edf0f7" stroke="#404040" stroke-width="2" points="54,-90 16,-90 16,-71 54,-71 54,-90"/>
<text text-anchor="middle" x="35" y="-78" font-family="Helvetica,sans-Serif" font-size="10.00">draw</text>
</a>
</g>
</g>
<!-- dir_ca41797f77cd69bf1ec4c84513765b8c&#45;&gt;dir_e974ad0149b2947e115452623ce914ca -->
<g id="edge4" class="edge">
<title>dir_ca41797f77cd69bf1ec4c84513765b8c&#45;&gt;dir_e974ad0149b2947e115452623ce914ca</title>
<path fill="none" stroke="#63b8ff" d="M35,-70.75C35,-64.27 35,-55.16 35,-46.9"/>
<polygon fill="#63b8ff" stroke="#63b8ff" points="38.5,-46.96 35,-36.96 31.5,-46.96 38.5,-46.96"/>
<g id="a_edge4&#45;headlabel"><a xlink:href="dir_000007_000020.html" target="_top" xlink:title="4">
<text text-anchor="middle" x="41.34" y="-46.54" font-family="Helvetica,sans-Serif" font-size="10.00" fill="#63b8ff">4</text>
</a>
</g>
</g>
<!-- dir_503391f8f88e69ff0b6bb2ea195a5f61 -->
<g id="node3" class="node">
<title>dir_503391f8f88e69ff0b6bb2ea195a5f61</title>
<g id="a_node3"><a xlink:href="dir_503391f8f88e69ff0b6bb2ea195a5f61.html" target="_top" xlink:title="project">
<polygon fill="#edf0f7" stroke="red" stroke-dasharray="5,2" points="116,-35 70,-35 70,-16 116,-16 116,-35"/>
<text text-anchor="middle" x="93" y="-23" font-family="Helvetica,sans-Serif" font-size="10.00">project</text>
</a>
</g>
</g>
<!-- dir_ca41797f77cd69bf1ec4c84513765b8c&#45;&gt;dir_503391f8f88e69ff0b6bb2ea195a5f61 -->
<g id="edge1" class="edge">
<title>dir_ca41797f77cd69bf1ec4c84513765b8c&#45;&gt;dir_503391f8f88e69ff0b6bb2ea195a5f61</title>
<path fill="none" stroke="#63b8ff" d="M44.84,-70.51C53.05,-63 64.98,-52.1 74.91,-43.03"/>
<polygon fill="#63b8ff" stroke="#63b8ff" points="77.17,-45.71 82.19,-36.38 72.45,-40.54 77.17,-45.71"/>
<g id="a_edge1&#45;headlabel"><a xlink:href="dir_000007_000017.html" target="_top" xlink:title="2">
<text text-anchor="middle" x="77.55" y="-46.71" font-family="Helvetica,sans-Serif" font-size="10.00" fill="#63b8ff">2</text>
</a>
</g>
</g>
<!-- dir_9268fa4967c416e4e882c5e3d890d467 -->
<g id="node4" class="node">
<title>dir_9268fa4967c416e4e882c5e3d890d467</title>
<g id="a_node4"><a xlink:href="dir_9268fa4967c416e4e882c5e3d890d467.html" target="_top" xlink:title="gui">
<polygon fill="#edf0f7" stroke="#7f7f7f" points="163.5,-35 134.5,-35 134.5,-16 163.5,-16 163.5,-35"/>
<text text-anchor="middle" x="149" y="-23" font-family="Helvetica,sans-Serif" font-size="10.00">gui</text>
</a>
</g>
</g>
<!-- dir_ca41797f77cd69bf1ec4c84513765b8c&#45;&gt;dir_9268fa4967c416e4e882c5e3d890d467 -->
<g id="edge2" class="edge">
<title>dir_ca41797f77cd69bf1ec4c84513765b8c&#45;&gt;dir_9268fa4967c416e4e882c5e3d890d467</title>
<path fill="none" stroke="#63b8ff" d="M54.34,-70.51C73.51,-61.6 102.96,-47.9 123.92,-38.16"/>
<polygon fill="#63b8ff" stroke="#63b8ff" points="125.33,-41.37 132.92,-33.98 122.37,-35.02 125.33,-41.37"/>
<g id="a_edge2&#45;headlabel"><a xlink:href="dir_000007_000012.html" target="_top" xlink:title="3">
<text text-anchor="middle" x="124.63" y="-42.32" font-family="Helvetica,sans-Serif" font-size="10.00" fill="#63b8ff">3</text>
</a>
</g>
</g>
<!-- dir_cfb6e93dbea17f3e8193818fb6e149f2 -->
<g id="node5" class="node">
<title>dir_cfb6e93dbea17f3e8193818fb6e149f2</title>
<g id="a_node5"><a xlink:href="dir_cfb6e93dbea17f3e8193818fb6e149f2.html" target="_top" xlink:title="calc">
<polygon fill="#edf0f7" stroke="red" stroke-dasharray="5,2" points="216.5,-35 181.5,-35 181.5,-16 216.5,-16 216.5,-35"/>
<text text-anchor="middle" x="199" y="-23" font-family="Helvetica,sans-Serif" font-size="10.00">calc</text>
</a>
</g>
</g>
<!-- dir_ca41797f77cd69bf1ec4c84513765b8c&#45;&gt;dir_cfb6e93dbea17f3e8193818fb6e149f2 -->
<g id="edge3" class="edge">
<title>dir_ca41797f77cd69bf1ec4c84513765b8c&#45;&gt;dir_cfb6e93dbea17f3e8193818fb6e149f2</title>
<path fill="none" stroke="#63b8ff" d="M54.21,-73.33C78.95,-65.38 123.55,-51.03 170.18,-35.91"/>
<polygon fill="#63b8ff" stroke="#63b8ff" points="171.23,-39.25 179.66,-32.83 169.07,-32.59 171.23,-39.25"/>
<g id="a_edge3&#45;headlabel"><a xlink:href="dir_000007_000001.html" target="_top" xlink:title="5">
<text text-anchor="middle" x="170.13" y="-40.09" font-family="Helvetica,sans-Serif" font-size="10.00" fill="#63b8ff">5</text>
</a>
</g>
</g>
</g>
</svg>
