<?xml version="1.0" encoding="UTF-8" standalone="no"?>
<!DOCTYPE svg PUBLIC "-//W3C//DTD SVG 1.1//EN"
 "http://www.w3.org/Graphics/SVG/1.1/DTD/svg11.dtd">
<!-- Generated by graphviz version 7.1.0 (0)
 -->
<!-- Title: opengl Pages: 1 -->
<svg width="326pt" height="263pt"
 viewBox="0.00 0.00 325.54 263.00" xmlns="http://www.w3.org/2000/svg" xmlns:xlink="http://www.w3.org/1999/xlink">
<g id="graph0" class="graph" transform="scale(1 1) rotate(0) translate(4 259)">
<title>opengl</title>
<g id="clust1" class="cluster">
<title>clusterdir_e3787dfdbc46fad3e6d80e1f98f95a2e</title>
<g id="a_clust1"><a xlink:href="dir_e3787dfdbc46fad3e6d80e1f98f95a2e.html" target="_top">
<polygon fill="#edf0f7" stroke="#404040" stroke-width="2" points="159.04,-47 159.04,-247 227.04,-247 227.04,-47 159.04,-47"/>
</a>
</g>
</g>
<!-- dir_e3787dfdbc46fad3e6d80e1f98f95a2e -->
<g id="node1" class="node">
<title>dir_e3787dfdbc46fad3e6d80e1f98f95a2e</title>
<text text-anchor="middle" x="196.04" y="-227" font-family="Helvetica,sans-Serif" font-size="10.00">opengl</text>
</g>
<!-- dir_418eabe1aa0952264a697ba7817a92a9 -->
<g id="node3" class="node">
<title>dir_418eabe1aa0952264a697ba7817a92a9</title>
<g id="a_node3"><a xlink:href="dir_418eabe1aa0952264a697ba7817a92a9.html" target="_top" xlink:title="edit">
<polygon fill="#a2b4d6" stroke="#404040" points="199.04,-184 167.04,-184 167.04,-165 199.04,-165 199.04,-184"/>
<text text-anchor="middle" x="183.04" y="-172" font-family="Helvetica,sans-Serif" font-size="10.00">edit</text>
</a>
</g>
</g>
<!-- dir_e3787dfdbc46fad3e6d80e1f98f95a2e&#45;&gt;dir_418eabe1aa0952264a697ba7817a92a9 -->
<g id="edge3" class="edge">
<title>dir_e3787dfdbc46fad3e6d80e1f98f95a2e&#45;&gt;dir_418eabe1aa0952264a697ba7817a92a9</title>
<g id="a_edge3"><a xlink:href="dir_000012_000007.html" target="_top">
<path fill="none" stroke="#63b8ff" d="M194.01,-220.22C192.38,-213.57 190.02,-203.96 187.91,-195.34"/>
<polygon fill="#63b8ff" stroke="#63b8ff" points="191.33,-194.6 185.55,-185.72 184.54,-196.27 191.33,-194.6"/>
</a>
</g>
<g id="a_edge3&#45;headlabel"><a xlink:href="dir_000012_000007.html" target="_top" xlink:title="8">
<text text-anchor="middle" x="194.59" y="-193.44" font-family="Helvetica,sans-Serif" font-size="10.00" fill="#63b8ff">8</text>
</a>
</g>
</g>
<!-- dir_35218102a3d553d0037dd9e6309944ae -->
<g id="node4" class="node">
<title>dir_35218102a3d553d0037dd9e6309944ae</title>
<g id="a_node4"><a xlink:href="dir_35218102a3d553d0037dd9e6309944ae.html" target="_top" xlink:title="win">
<polygon fill="#a2b4d6" stroke="#404040" points="199.04,-129 167.04,-129 167.04,-110 199.04,-110 199.04,-129"/>
<text text-anchor="middle" x="183.04" y="-117" font-family="Helvetica,sans-Serif" font-size="10.00">win</text>
</a>
</g>
</g>
<!-- dir_e3787dfdbc46fad3e6d80e1f98f95a2e&#45;&gt;dir_35218102a3d553d0037dd9e6309944ae -->
<g id="edge2" class="edge">
<title>dir_e3787dfdbc46fad3e6d80e1f98f95a2e&#45;&gt;dir_35218102a3d553d0037dd9e6309944ae</title>
<g id="a_edge2"><a xlink:href="dir_000012_000015.html" target="_top">
<path fill="none" stroke="#63b8ff" d="M199.94,-220.2C205.15,-207.99 213.16,-184.54 208.04,-165 205.64,-155.81 200.86,-146.5 196.12,-138.8"/>
<polygon fill="#63b8ff" stroke="#63b8ff" points="199.19,-137.1 190.74,-130.7 193.36,-140.97 199.19,-137.1"/>
</a>
</g>
<g id="a_edge2&#45;headlabel"><a xlink:href="dir_000012_000015.html" target="_top" xlink:title="8">
<text text-anchor="middle" x="202.71" y="-134.76" font-family="Helvetica,sans-Serif" font-size="10.00" fill="#63b8ff">8</text>
</a>
</g>
</g>
<!-- dir_00f0a3b1654669903f8939607e046ce9 -->
<g id="node5" class="node">
<title>dir_00f0a3b1654669903f8939607e046ce9</title>
<g id="a_node5"><a xlink:href="dir_00f0a3b1654669903f8939607e046ce9.html" target="_top" xlink:title="project">
<polygon fill="#edf0f7" stroke="red" points="314.04,-19 268.04,-19 268.04,0 314.04,0 314.04,-19"/>
<text text-anchor="middle" x="291.04" y="-7" font-family="Helvetica,sans-Serif" font-size="10.00">project</text>
</a>
</g>
</g>
<!-- dir_e3787dfdbc46fad3e6d80e1f98f95a2e&#45;&gt;dir_00f0a3b1654669903f8939607e046ce9 -->
<g id="edge1" class="edge">
<title>dir_e3787dfdbc46fad3e6d80e1f98f95a2e&#45;&gt;dir_00f0a3b1654669903f8939607e046ce9</title>
<g id="a_edge1"><a xlink:href="dir_000012_000013.html" target="_top">
<path fill="none" stroke="#63b8ff" d="M215.86,-220.07C231.96,-212.46 254.47,-200.02 270.04,-184 289.6,-163.88 291.05,-155.22 301.04,-129 314.16,-94.58 322.91,-82.49 313.04,-47 311.31,-40.74 308.17,-34.49 304.81,-28.97"/>
<polygon fill="#63b8ff" stroke="#63b8ff" points="307.71,-27.02 299.2,-20.7 301.92,-30.95 307.71,-27.02"/>
</a>
</g>
<g id="a_edge1&#45;headlabel"><a xlink:href="dir_000012_000013.html" target="_top" xlink:title="21">
<text text-anchor="middle" x="311.23" y="-24.64" font-family="Helvetica,sans-Serif" font-size="10.00" fill="#63b8ff">21</text>
</a>
</g>
</g>
<!-- dir_4f43f4cad42e15ad2210eb2040958738 -->
<g id="node7" class="node">
<title>dir_4f43f4cad42e15ad2210eb2040958738</title>
<g id="a_node7"><a xlink:href="dir_4f43f4cad42e15ad2210eb2040958738.html" target="_top" xlink:title="calc">
<polygon fill="#edf0f7" stroke="red" points="217.54,-19 182.54,-19 182.54,0 217.54,0 217.54,-19"/>
<text text-anchor="middle" x="200.04" y="-7" font-family="Helvetica,sans-Serif" font-size="10.00">calc</text>
</a>
</g>
</g>
<!-- dir_e3787dfdbc46fad3e6d80e1f98f95a2e&#45;&gt;dir_4f43f4cad42e15ad2210eb2040958738 -->
<g id="edge4" class="edge">
<title>dir_e3787dfdbc46fad3e6d80e1f98f95a2e&#45;&gt;dir_4f43f4cad42e15ad2210eb2040958738</title>
<g id="a_edge4"><a xlink:href="dir_000012_000001.html" target="_top">
<path fill="none" stroke="#63b8ff" d="M208.06,-220.06C228.71,-204.74 270.22,-170.08 286.04,-129 302.2,-87.05 254.99,-46.5 224.25,-25.44"/>
<polygon fill="#63b8ff" stroke="#63b8ff" points="226.49,-22.73 216.22,-20.15 222.64,-28.57 226.49,-22.73"/>
</a>
</g>
<g id="a_edge4&#45;headlabel"><a xlink:href="dir_000012_000001.html" target="_top" xlink:title="9">
<text text-anchor="middle" x="229.79" y="-19" font-family="Helvetica,sans-Serif" font-size="10.00" fill="#63b8ff">9</text>
</a>
</g>
</g>
<!-- dir_99d0482cf009f9d97a0877749b817f19 -->
<g id="node8" class="node">
<title>dir_99d0482cf009f9d97a0877749b817f19</title>
<g id="a_node8"><a xlink:href="dir_99d0482cf009f9d97a0877749b817f19.html" target="_top" xlink:title="gui">
<polygon fill="#edf0f7" stroke="#404040" points="69.54,-19 40.54,-19 40.54,0 69.54,0 69.54,-19"/>
<text text-anchor="middle" x="55.04" y="-7" font-family="Helvetica,sans-Serif" font-size="10.00">gui</text>
</a>
</g>
</g>
<!-- dir_e3787dfdbc46fad3e6d80e1f98f95a2e&#45;&gt;dir_99d0482cf009f9d97a0877749b817f19 -->
<g id="edge5" class="edge">
<title>dir_e3787dfdbc46fad3e6d80e1f98f95a2e&#45;&gt;dir_99d0482cf009f9d97a0877749b817f19</title>
<g id="a_edge5"><a xlink:href="dir_000012_000010.html" target="_top">
<path fill="none" stroke="#63b8ff" d="M178.2,-220.1C147.64,-205.07 84.49,-171.19 42.04,-129 13.82,-100.94 -11.81,-82.57 6.04,-47 11.29,-36.56 21.09,-28.34 30.56,-22.37"/>
<polygon fill="#63b8ff" stroke="#63b8ff" points="32.17,-25.49 39.15,-17.52 28.72,-19.39 32.17,-25.49"/>
</a>
</g>
<g id="a_edge5&#45;headlabel"><a xlink:href="dir_000012_000010.html" target="_top" xlink:title="45">
<text text-anchor="middle" x="31.75" y="-26.48" font-family="Helvetica,sans-Serif" font-size="10.00" fill="#63b8ff">45</text>
</a>
</g>
</g>
<!-- dir_c02b696957f033c7e5cd8ce997138e40 -->
<g id="node2" class="node">
<title>dir_c02b696957f033c7e5cd8ce997138e40</title>
<g id="a_node2"><a xlink:href="dir_c02b696957f033c7e5cd8ce997138e40.html" target="_top" xlink:title="draw">
<polygon fill="#a2b4d6" stroke="#404040" points="219.04,-74 181.04,-74 181.04,-55 219.04,-55 219.04,-74"/>
<text text-anchor="middle" x="200.04" y="-62" font-family="Helvetica,sans-Serif" font-size="10.00">draw</text>
</a>
</g>
</g>
<!-- dir_c02b696957f033c7e5cd8ce997138e40&#45;&gt;dir_35218102a3d553d0037dd9e6309944ae -->
<g id="edge7" class="edge">
<title>dir_c02b696957f033c7e5cd8ce997138e40&#45;&gt;dir_35218102a3d553d0037dd9e6309944ae</title>
<g id="a_edge7"><a xlink:href="dir_000006_000015.html" target="_top">
<path fill="none" stroke="#63b8ff" d="M202.38,-74.44C201.63,-81.28 198.96,-90.96 195.64,-99.5"/>
<polygon fill="#63b8ff" stroke="#63b8ff" points="192.56,-97.81 191.64,-108.37 198.94,-100.69 192.56,-97.81"/>
</a>
</g>
<g id="a_edge7&#45;headlabel"><a xlink:href="dir_000006_000015.html" target="_top" xlink:title="4">
<text text-anchor="middle" x="190.83" y="-92.25" font-family="Helvetica,sans-Serif" font-size="10.00" fill="#63b8ff">4</text>
</a>
</g>
</g>
<!-- dir_c02b696957f033c7e5cd8ce997138e40&#45;&gt;dir_00f0a3b1654669903f8939607e046ce9 -->
<g id="edge6" class="edge">
<title>dir_c02b696957f033c7e5cd8ce997138e40&#45;&gt;dir_00f0a3b1654669903f8939607e046ce9</title>
<g id="a_edge6"><a xlink:href="dir_000006_000013.html" target="_top">
<path fill="none" stroke="#63b8ff" d="M215.48,-54.51C229.29,-46.47 249.79,-34.53 265.95,-25.11"/>
<polygon fill="#63b8ff" stroke="#63b8ff" points="267.65,-28.18 274.53,-20.12 264.13,-22.13 267.65,-28.18"/>
</a>
</g>
<g id="a_edge6&#45;headlabel"><a xlink:href="dir_000006_000013.html" target="_top" xlink:title="2">
<text text-anchor="middle" x="267.28" y="-29.18" font-family="Helvetica,sans-Serif" font-size="10.00" fill="#63b8ff">2</text>
</a>
</g>
</g>
<!-- dir_c02b696957f033c7e5cd8ce997138e40&#45;&gt;dir_4f43f4cad42e15ad2210eb2040958738 -->
<g id="edge8" class="edge">
<title>dir_c02b696957f033c7e5cd8ce997138e40&#45;&gt;dir_4f43f4cad42e15ad2210eb2040958738</title>
<g id="a_edge8"><a xlink:href="dir_000006_000001.html" target="_top">
<path fill="none" stroke="#63b8ff" d="M200.04,-54.75C200.04,-48.27 200.04,-39.16 200.04,-30.9"/>
<polygon fill="#63b8ff" stroke="#63b8ff" points="203.54,-30.96 200.04,-20.96 196.54,-30.96 203.54,-30.96"/>
</a>
</g>
<g id="a_edge8&#45;headlabel"><a xlink:href="dir_000006_000001.html" target="_top" xlink:title="5">
<text text-anchor="middle" x="206.38" y="-30.54" font-family="Helvetica,sans-Serif" font-size="10.00" fill="#63b8ff">5</text>
</a>
</g>
</g>
<!-- dir_c02b696957f033c7e5cd8ce997138e40&#45;&gt;dir_99d0482cf009f9d97a0877749b817f19 -->
<g id="edge9" class="edge">
<title>dir_c02b696957f033c7e5cd8ce997138e40&#45;&gt;dir_99d0482cf009f9d97a0877749b817f19</title>
<g id="a_edge9"><a xlink:href="dir_000006_000010.html" target="_top">
<path fill="none" stroke="#63b8ff" d="M180.79,-56.46C155.06,-47.06 109.39,-30.37 80.75,-19.89"/>
<polygon fill="#63b8ff" stroke="#63b8ff" points="81.99,-16.62 71.39,-16.48 79.58,-23.2 81.99,-16.62"/>
</a>
</g>
<g id="a_edge9&#45;headlabel"><a xlink:href="dir_000006_000010.html" target="_top" xlink:title="3">
<text text-anchor="middle" x="84.92" y="-12.17" font-family="Helvetica,sans-Serif" font-size="10.00" fill="#63b8ff">3</text>
</a>
</g>
</g>
<!-- dir_418eabe1aa0952264a697ba7817a92a9&#45;&gt;dir_35218102a3d553d0037dd9e6309944ae -->
<g id="edge11" class="edge">
<title>dir_418eabe1aa0952264a697ba7817a92a9&#45;&gt;dir_35218102a3d553d0037dd9e6309944ae</title>
<g id="a_edge11"><a xlink:href="dir_000007_000015.html" target="_top">
<path fill="none" stroke="#63b8ff" d="M177.88,-164.75C176.47,-158.19 176,-148.95 176.47,-140.6"/>
<polygon fill="#63b8ff" stroke="#63b8ff" points="179.91,-141.3 177.65,-130.94 172.97,-140.45 179.91,-141.3"/>
</a>
</g>
<g id="a_edge11&#45;headlabel"><a xlink:href="dir_000007_000015.html" target="_top" xlink:title="3">
<text text-anchor="middle" x="182.48" y="-141.21" font-family="Helvetica,sans-Serif" font-size="10.00" fill="#63b8ff">3</text>
</a>
</g>
</g>
<!-- dir_418eabe1aa0952264a697ba7817a92a9&#45;&gt;dir_00f0a3b1654669903f8939607e046ce9 -->
<g id="edge10" class="edge">
<title>dir_418eabe1aa0952264a697ba7817a92a9&#45;&gt;dir_00f0a3b1654669903f8939607e046ce9</title>
<g id="a_edge10"><a xlink:href="dir_000007_000013.html" target="_top">
<path fill="none" stroke="#63b8ff" d="M199.24,-171.76C222.85,-168.27 266.06,-158.05 286.04,-129 306.31,-99.54 301.38,-55.52 296.12,-30.25"/>
<polygon fill="#63b8ff" stroke="#63b8ff" points="299.56,-29.62 293.88,-20.68 292.75,-31.21 299.56,-29.62"/>
</a>
</g>
<g id="a_edge10&#45;headlabel"><a xlink:href="dir_000007_000013.html" target="_top" xlink:title="6">
<text text-anchor="middle" x="302.8" y="-28.5" font-family="Helvetica,sans-Serif" font-size="10.00" fill="#63b8ff">6</text>
</a>
</g>
</g>
<!-- dir_46fb1afe702e1a8810ee5ae756e6207c -->
<g id="node6" class="node">
<title>dir_46fb1afe702e1a8810ee5ae756e6207c</title>
<g id="a_node6"><a xlink:href="dir_46fb1afe702e1a8810ee5ae756e6207c.html" target="_top" xlink:title="curve">
<polygon fill="#edf0f7" stroke="#404040" points="276.54,-129 235.54,-129 235.54,-110 276.54,-110 276.54,-129"/>
<text text-anchor="middle" x="256.04" y="-117" font-family="Helvetica,sans-Serif" font-size="10.00">curve</text>
</a>
</g>
</g>
<!-- dir_418eabe1aa0952264a697ba7817a92a9&#45;&gt;dir_46fb1afe702e1a8810ee5ae756e6207c -->
<g id="edge12" class="edge">
<title>dir_418eabe1aa0952264a697ba7817a92a9&#45;&gt;dir_46fb1afe702e1a8810ee5ae756e6207c</title>
<g id="a_edge12"><a xlink:href="dir_000007_000004.html" target="_top">
<path fill="none" stroke="#63b8ff" d="M195.43,-164.51C206.19,-156.7 222.01,-145.21 234.8,-135.93"/>
<polygon fill="#63b8ff" stroke="#63b8ff" points="236.58,-138.95 242.62,-130.25 232.47,-133.29 236.58,-138.95"/>
</a>
</g>
<g id="a_edge12&#45;headlabel"><a xlink:href="dir_000007_000004.html" target="_top" xlink:title="1">
<text text-anchor="middle" x="236.57" y="-139.97" font-family="Helvetica,sans-Serif" font-size="10.00" fill="#63b8ff">1</text>
</a>
</g>
</g>
<!-- dir_418eabe1aa0952264a697ba7817a92a9&#45;&gt;dir_99d0482cf009f9d97a0877749b817f19 -->
<g id="edge13" class="edge">
<title>dir_418eabe1aa0952264a697ba7817a92a9&#45;&gt;dir_99d0482cf009f9d97a0877749b817f19</title>
<g id="a_edge13"><a xlink:href="dir_000007_000010.html" target="_top">
<path fill="none" stroke="#63b8ff" d="M166.63,-169.65C131.11,-160.33 47.61,-132.85 14.04,-74 8.1,-63.58 9.13,-57.95 14.04,-47 17.75,-38.75 24.33,-31.6 31.16,-25.87"/>
<polygon fill="#63b8ff" stroke="#63b8ff" points="33.26,-28.67 39.16,-19.88 29.06,-23.07 33.26,-28.67"/>
</a>
</g>
<g id="a_edge13&#45;headlabel"><a xlink:href="dir_000007_000010.html" target="_top" xlink:title="8">
<text text-anchor="middle" x="33.3" y="-29.69" font-family="Helvetica,sans-Serif" font-size="10.00" fill="#63b8ff">8</text>
</a>
</g>
</g>
<!-- dir_f6a83b7e0ebe317a15f9505bd2dc12ce -->
<g id="node9" class="node">
<title>dir_f6a83b7e0ebe317a15f9505bd2dc12ce</title>
<g id="a_node9"><a xlink:href="dir_f6a83b7e0ebe317a15f9505bd2dc12ce.html" target="_top" xlink:title="workspace">
<polygon fill="#edf0f7" stroke="#404040" points="87.04,-74 23.04,-74 23.04,-55 87.04,-55 87.04,-74"/>
<text text-anchor="middle" x="55.04" y="-62" font-family="Helvetica,sans-Serif" font-size="10.00">workspace</text>
</a>
</g>
</g>
<!-- dir_418eabe1aa0952264a697ba7817a92a9&#45;&gt;dir_f6a83b7e0ebe317a15f9505bd2dc12ce -->
<g id="edge14" class="edge">
<title>dir_418eabe1aa0952264a697ba7817a92a9&#45;&gt;dir_f6a83b7e0ebe317a15f9505bd2dc12ce</title>
<g id="a_edge14"><a xlink:href="dir_000007_000016.html" target="_top">
<path fill="none" stroke="#63b8ff" d="M172.57,-164.66C151.1,-146.55 101.81,-104.96 74.38,-81.81"/>
<polygon fill="#63b8ff" stroke="#63b8ff" points="76.72,-79.21 66.82,-75.44 72.21,-84.56 76.72,-79.21"/>
</a>
</g>
<g id="a_edge14&#45;headlabel"><a xlink:href="dir_000007_000016.html" target="_top" xlink:title="4">
<text text-anchor="middle" x="80.14" y="-75.88" font-family="Helvetica,sans-Serif" font-size="10.00" fill="#63b8ff">4</text>
</a>
</g>
</g>
<!-- dir_35218102a3d553d0037dd9e6309944ae&#45;&gt;dir_c02b696957f033c7e5cd8ce997138e40 -->
<g id="edge19" class="edge">
<title>dir_35218102a3d553d0037dd9e6309944ae&#45;&gt;dir_c02b696957f033c7e5cd8ce997138e40</title>
<g id="a_edge19"><a xlink:href="dir_000015_000006.html" target="_top">
<path fill="none" stroke="#63b8ff" d="M180.69,-109.75C181.4,-102.96 184.05,-93.3 187.36,-84.73"/>
<polygon fill="#63b8ff" stroke="#63b8ff" points="190.45,-86.38 191.35,-75.82 184.07,-83.52 190.45,-86.38"/>
</a>
</g>
<g id="a_edge19&#45;headlabel"><a xlink:href="dir_000015_000006.html" target="_top" xlink:title="1">
<text text-anchor="middle" x="192.19" y="-86.94" font-family="Helvetica,sans-Serif" font-size="10.00" fill="#63b8ff">1</text>
</a>
</g>
</g>
<!-- dir_35218102a3d553d0037dd9e6309944ae&#45;&gt;dir_418eabe1aa0952264a697ba7817a92a9 -->
<g id="edge16" class="edge">
<title>dir_35218102a3d553d0037dd9e6309944ae&#45;&gt;dir_418eabe1aa0952264a697ba7817a92a9</title>
<g id="a_edge16"><a xlink:href="dir_000015_000007.html" target="_top">
<path fill="none" stroke="#63b8ff" d="M188.25,-129.44C189.63,-135.97 190.08,-145.1 189.62,-153.35"/>
<polygon fill="#63b8ff" stroke="#63b8ff" points="186.15,-152.89 188.4,-163.25 193.1,-153.75 186.15,-152.89"/>
</a>
</g>
<g id="a_edge16&#45;headlabel"><a xlink:href="dir_000015_000007.html" target="_top" xlink:title="7">
<text text-anchor="middle" x="183.59" y="-147.98" font-family="Helvetica,sans-Serif" font-size="10.00" fill="#63b8ff">7</text>
</a>
</g>
</g>
<!-- dir_35218102a3d553d0037dd9e6309944ae&#45;&gt;dir_00f0a3b1654669903f8939607e046ce9 -->
<g id="edge15" class="edge">
<title>dir_35218102a3d553d0037dd9e6309944ae&#45;&gt;dir_00f0a3b1654669903f8939607e046ce9</title>
<g id="a_edge15"><a xlink:href="dir_000015_000013.html" target="_top">
<path fill="none" stroke="#63b8ff" d="M192.03,-109.66C201.14,-100.7 215.6,-86.42 228.04,-74 243.94,-58.13 261.98,-39.93 274.67,-27.09"/>
<polygon fill="#63b8ff" stroke="#63b8ff" points="276.91,-29.8 281.45,-20.23 271.93,-24.88 276.91,-29.8"/>
</a>
</g>
<g id="a_edge15&#45;headlabel"><a xlink:href="dir_000015_000013.html" target="_top" xlink:title="12">
<text text-anchor="middle" x="277.47" y="-30.78" font-family="Helvetica,sans-Serif" font-size="10.00" fill="#63b8ff">12</text>
</a>
</g>
</g>
<!-- dir_35218102a3d553d0037dd9e6309944ae&#45;&gt;dir_4f43f4cad42e15ad2210eb2040958738 -->
<g id="edge17" class="edge">
<title>dir_35218102a3d553d0037dd9e6309944ae&#45;&gt;dir_4f43f4cad42e15ad2210eb2040958738</title>
<g id="a_edge17"><a xlink:href="dir_000015_000001.html" target="_top">
<path fill="none" stroke="#63b8ff" d="M179.16,-109.91C173.55,-96.25 164.62,-68.88 172.04,-47 174.38,-40.12 178.59,-33.52 183.05,-27.87"/>
<polygon fill="#63b8ff" stroke="#63b8ff" points="185.54,-30.34 189.5,-20.52 180.28,-25.73 185.54,-30.34"/>
</a>
</g>
<g id="a_edge17&#45;headlabel"><a xlink:href="dir_000015_000001.html" target="_top" xlink:title="2">
<text text-anchor="middle" x="186.3" y="-31.28" font-family="Helvetica,sans-Serif" font-size="10.00" fill="#63b8ff">2</text>
</a>
</g>
</g>
<!-- dir_35218102a3d553d0037dd9e6309944ae&#45;&gt;dir_99d0482cf009f9d97a0877749b817f19 -->
<g id="edge18" class="edge">
<title>dir_35218102a3d553d0037dd9e6309944ae&#45;&gt;dir_99d0482cf009f9d97a0877749b817f19</title>
<g id="a_edge18"><a xlink:href="dir_000015_000010.html" target="_top">
<path fill="none" stroke="#63b8ff" d="M172.57,-109.66C151.1,-91.55 101.81,-49.96 74.38,-26.81"/>
<polygon fill="#63b8ff" stroke="#63b8ff" points="76.72,-24.21 66.82,-20.44 72.21,-29.56 76.72,-24.21"/>
</a>
</g>
<g id="a_edge18&#45;headlabel"><a xlink:href="dir_000015_000010.html" target="_top" xlink:title="30">
<text text-anchor="middle" x="80.14" y="-20.88" font-family="Helvetica,sans-Serif" font-size="10.00" fill="#63b8ff">30</text>
</a>
</g>
</g>
<!-- dir_35218102a3d553d0037dd9e6309944ae&#45;&gt;dir_f6a83b7e0ebe317a15f9505bd2dc12ce -->
<g id="edge20" class="edge">
<title>dir_35218102a3d553d0037dd9e6309944ae&#45;&gt;dir_f6a83b7e0ebe317a15f9505bd2dc12ce</title>
<g id="a_edge20"><a xlink:href="dir_000015_000016.html" target="_top">
<path fill="none" stroke="#63b8ff" d="M166.57,-111.68C146.58,-103.4 112.39,-89.25 87.13,-78.79"/>
<polygon fill="#63b8ff" stroke="#63b8ff" points="88.55,-75.59 77.97,-74.99 85.87,-82.05 88.55,-75.59"/>
</a>
</g>
<g id="a_edge20&#45;headlabel"><a xlink:href="dir_000015_000016.html" target="_top" xlink:title="1">
<text text-anchor="middle" x="91.56" y="-71.26" font-family="Helvetica,sans-Serif" font-size="10.00" fill="#63b8ff">1</text>
</a>
</g>
</g>
</g>
</svg>
