<?xml version="1.0" encoding="UTF-8" standalone="no"?>
<!DOCTYPE svg PUBLIC "-//W3C//DTD SVG 1.1//EN"
 "http://www.w3.org/Graphics/SVG/1.1/DTD/svg11.dtd">
<!-- Generated by graphviz version 2.43.0 (0)
 -->
<!-- Title: opengl Pages: 1 -->
<svg width="336pt" height="263pt"
 viewBox="0.00 0.00 336.39 263.00" xmlns="http://www.w3.org/2000/svg" xmlns:xlink="http://www.w3.org/1999/xlink">
<g id="graph0" class="graph" transform="scale(1 1) rotate(0) translate(4 259)">
<title>opengl</title>
<g id="clust1" class="cluster">
<title>clusterdir_35aa532d637074063c646a4cf80a0972</title>
<g id="a_clust1"><a xlink:href="dir_35aa532d637074063c646a4cf80a0972.html" target="_top">
<polygon fill="#edf0f7" stroke="#404040" stroke-width="2" points="200.45,-47 200.45,-247 272.45,-247 272.45,-47 200.45,-47"/>
</a>
</g>
</g>
<!-- dir_35aa532d637074063c646a4cf80a0972 -->
<g id="node1" class="node">
<title>dir_35aa532d637074063c646a4cf80a0972</title>
<text text-anchor="middle" x="233.45" y="-227" font-family="Helvetica,sans-Serif" font-size="10.00">opengl</text>
</g>
<!-- dir_adb84e959311a9ff6718b594edd7a2c4 -->
<g id="node3" class="node">
<title>dir_adb84e959311a9ff6718b594edd7a2c4</title>
<g id="a_node3"><a xlink:href="dir_adb84e959311a9ff6718b594edd7a2c4.html" target="_top" xlink:title="edit">
<polygon fill="#a2b4d6" stroke="#404040" points="243.95,-184 208.95,-184 208.95,-165 243.95,-165 243.95,-184"/>
<text text-anchor="middle" x="226.45" y="-172" font-family="Helvetica,sans-Serif" font-size="10.00">edit</text>
</a>
</g>
</g>
<!-- dir_35aa532d637074063c646a4cf80a0972&#45;&gt;dir_adb84e959311a9ff6718b594edd7a2c4 -->
<g id="edge4" class="edge">
<title>dir_35aa532d637074063c646a4cf80a0972&#45;&gt;dir_adb84e959311a9ff6718b594edd7a2c4</title>
<g id="a_edge4"><a xlink:href="dir_000011_000006.html" target="_top">
<path fill="none" stroke="#63b8ff" d="M232.29,-219.75C231.37,-212.8 230.06,-202.85 228.91,-194.13"/>
<polygon fill="#63b8ff" stroke="#63b8ff" points="232.36,-193.54 227.58,-184.09 225.42,-194.46 232.36,-193.54"/>
</a>
</g>
<g id="a_edge4&#45;headlabel"><a xlink:href="dir_000011_000006.html" target="_top" xlink:title="8">
<text text-anchor="middle" x="235.65" y="-194.24" font-family="Helvetica,sans-Serif" font-size="10.00" fill="#63b8ff">8</text>
</a>
</g>
</g>
<!-- dir_ad0a8d4fb7f400ce29cb18ba2262ad2b -->
<g id="node4" class="node">
<title>dir_ad0a8d4fb7f400ce29cb18ba2262ad2b</title>
<g id="a_node4"><a xlink:href="dir_ad0a8d4fb7f400ce29cb18ba2262ad2b.html" target="_top" xlink:title="win">
<polygon fill="#a2b4d6" stroke="#404040" points="243.45,-129 209.45,-129 209.45,-110 243.45,-110 243.45,-129"/>
<text text-anchor="middle" x="226.45" y="-117" font-family="Helvetica,sans-Serif" font-size="10.00">win</text>
</a>
</g>
</g>
<!-- dir_35aa532d637074063c646a4cf80a0972&#45;&gt;dir_ad0a8d4fb7f400ce29cb18ba2262ad2b -->
<g id="edge3" class="edge">
<title>dir_35aa532d637074063c646a4cf80a0972&#45;&gt;dir_ad0a8d4fb7f400ce29cb18ba2262ad2b</title>
<g id="a_edge3"><a xlink:href="dir_000011_000014.html" target="_top">
<path fill="none" stroke="#63b8ff" d="M239.43,-219.93C247.15,-207.77 258.99,-184.81 253.45,-165 250.68,-155.12 245.06,-145.25 239.65,-137.32"/>
<polygon fill="#63b8ff" stroke="#63b8ff" points="242.32,-135.04 233.6,-129.03 236.67,-139.17 242.32,-135.04"/>
</a>
</g>
<g id="a_edge3&#45;headlabel"><a xlink:href="dir_000011_000014.html" target="_top" xlink:title="8">
<text text-anchor="middle" x="246.73" y="-133.77" font-family="Helvetica,sans-Serif" font-size="10.00" fill="#63b8ff">8</text>
</a>
</g>
</g>
<!-- dir_11bc0974ce736ce9a6fadebbeb7a8314 -->
<g id="node5" class="node">
<title>dir_11bc0974ce736ce9a6fadebbeb7a8314</title>
<g id="a_node5"><a xlink:href="dir_11bc0974ce736ce9a6fadebbeb7a8314.html" target="_top" xlink:title="gui">
<polygon fill="#edf0f7" stroke="#404040" points="327.45,-19 295.45,-19 295.45,0 327.45,0 327.45,-19"/>
<text text-anchor="middle" x="311.45" y="-7" font-family="Helvetica,sans-Serif" font-size="10.00">gui</text>
</a>
</g>
</g>
<!-- dir_35aa532d637074063c646a4cf80a0972&#45;&gt;dir_11bc0974ce736ce9a6fadebbeb7a8314 -->
<g id="edge1" class="edge">
<title>dir_35aa532d637074063c646a4cf80a0972&#45;&gt;dir_11bc0974ce736ce9a6fadebbeb7a8314</title>
<g id="a_edge1"><a xlink:href="dir_000011_000009.html" target="_top">
<path fill="none" stroke="#63b8ff" d="M240.09,-219.74C256.74,-197.13 299.96,-134.37 314.45,-74 317.99,-59.22 316.86,-41.98 315.05,-29.19"/>
<polygon fill="#63b8ff" stroke="#63b8ff" points="318.49,-28.56 313.39,-19.27 311.59,-29.71 318.49,-28.56"/>
</a>
</g>
<g id="a_edge1&#45;headlabel"><a xlink:href="dir_000011_000009.html" target="_top" xlink:title="44">
<text text-anchor="middle" x="321.89" y="-29.13" font-family="Helvetica,sans-Serif" font-size="10.00" fill="#63b8ff">44</text>
</a>
</g>
</g>
<!-- dir_167790342fb55959539d550b874be046 -->
<g id="node6" class="node">
<title>dir_167790342fb55959539d550b874be046</title>
<g id="a_node6"><a xlink:href="dir_167790342fb55959539d550b874be046.html" target="_top" xlink:title="project">
<polygon fill="#edf0f7" stroke="red" points="107.45,-19 57.45,-19 57.45,0 107.45,0 107.45,-19"/>
<text text-anchor="middle" x="82.45" y="-7" font-family="Helvetica,sans-Serif" font-size="10.00">project</text>
</a>
</g>
</g>
<!-- dir_35aa532d637074063c646a4cf80a0972&#45;&gt;dir_167790342fb55959539d550b874be046 -->
<g id="edge2" class="edge">
<title>dir_35aa532d637074063c646a4cf80a0972&#45;&gt;dir_167790342fb55959539d550b874be046</title>
<g id="a_edge2"><a xlink:href="dir_000011_000012.html" target="_top">
<path fill="none" stroke="#63b8ff" d="M208.38,-228.11C169.67,-226.38 94.38,-218.43 42.45,-184 17.26,-167.3 11.79,-157.74 2.45,-129 -5.64,-104.12 11.83,-54.44 17.45,-47 25.24,-36.67 36.87,-28.84 48.14,-23.13"/>
<polygon fill="#63b8ff" stroke="#63b8ff" points="49.83,-26.21 57.43,-18.83 46.89,-19.86 49.83,-26.21"/>
</a>
</g>
<g id="a_edge2&#45;headlabel"><a xlink:href="dir_000011_000012.html" target="_top" xlink:title="20">
<text text-anchor="middle" x="47.76" y="-27.8" font-family="Helvetica,sans-Serif" font-size="10.00" fill="#63b8ff">20</text>
</a>
</g>
</g>
<!-- dir_b23ce9843a0cf83641620a63d26b700d -->
<g id="node8" class="node">
<title>dir_b23ce9843a0cf83641620a63d26b700d</title>
<g id="a_node8"><a xlink:href="dir_b23ce9843a0cf83641620a63d26b700d.html" target="_top" xlink:title="calc">
<polygon fill="#edf0f7" stroke="red" points="212.45,-19 176.45,-19 176.45,0 212.45,0 212.45,-19"/>
<text text-anchor="middle" x="194.45" y="-7" font-family="Helvetica,sans-Serif" font-size="10.00">calc</text>
</a>
</g>
</g>
<!-- dir_35aa532d637074063c646a4cf80a0972&#45;&gt;dir_b23ce9843a0cf83641620a63d26b700d -->
<g id="edge5" class="edge">
<title>dir_35aa532d637074063c646a4cf80a0972&#45;&gt;dir_b23ce9843a0cf83641620a63d26b700d</title>
<g id="a_edge5"><a xlink:href="dir_000011_000000.html" target="_top">
<path fill="none" stroke="#63b8ff" d="M208.16,-225.87C159.97,-219.34 55.87,-197.6 11.45,-129 -8.25,-98.59 28.21,-62.73 49.45,-47 67.82,-33.4 129.54,-21.24 166.27,-14.97"/>
<polygon fill="#63b8ff" stroke="#63b8ff" points="167.06,-18.39 176.35,-13.29 165.91,-11.48 167.06,-18.39"/>
</a>
</g>
<g id="a_edge5&#45;headlabel"><a xlink:href="dir_000011_000000.html" target="_top" xlink:title="9">
<text text-anchor="middle" x="163.98" y="-19.28" font-family="Helvetica,sans-Serif" font-size="10.00" fill="#63b8ff">9</text>
</a>
</g>
</g>
<!-- dir_0e34caf28e6baf80c1fb8b79d4d9295f -->
<g id="node2" class="node">
<title>dir_0e34caf28e6baf80c1fb8b79d4d9295f</title>
<g id="a_node2"><a xlink:href="dir_0e34caf28e6baf80c1fb8b79d4d9295f.html" target="_top" xlink:title="draw">
<polygon fill="#a2b4d6" stroke="#404040" points="263.95,-74 222.95,-74 222.95,-55 263.95,-55 263.95,-74"/>
<text text-anchor="middle" x="243.45" y="-62" font-family="Helvetica,sans-Serif" font-size="10.00">draw</text>
</a>
</g>
</g>
<!-- dir_0e34caf28e6baf80c1fb8b79d4d9295f&#45;&gt;dir_ad0a8d4fb7f400ce29cb18ba2262ad2b -->
<g id="edge8" class="edge">
<title>dir_0e34caf28e6baf80c1fb8b79d4d9295f&#45;&gt;dir_ad0a8d4fb7f400ce29cb18ba2262ad2b</title>
<g id="a_edge8"><a xlink:href="dir_000005_000014.html" target="_top">
<path fill="none" stroke="#63b8ff" d="M245.82,-74.09C245.1,-81.22 242.2,-91.6 238.64,-100.53"/>
<polygon fill="#63b8ff" stroke="#63b8ff" points="235.4,-99.2 234.42,-109.75 241.77,-102.11 235.4,-99.2"/>
</a>
</g>
<g id="a_edge8&#45;headlabel"><a xlink:href="dir_000005_000014.html" target="_top" xlink:title="4">
<text text-anchor="middle" x="234.31" y="-92.25" font-family="Helvetica,sans-Serif" font-size="10.00" fill="#63b8ff">4</text>
</a>
</g>
</g>
<!-- dir_0e34caf28e6baf80c1fb8b79d4d9295f&#45;&gt;dir_11bc0974ce736ce9a6fadebbeb7a8314 -->
<g id="edge6" class="edge">
<title>dir_0e34caf28e6baf80c1fb8b79d4d9295f&#45;&gt;dir_11bc0974ce736ce9a6fadebbeb7a8314</title>
<g id="a_edge6"><a xlink:href="dir_000005_000009.html" target="_top">
<path fill="none" stroke="#63b8ff" d="M254.37,-54.98C264.52,-47.07 279.87,-35.11 292.09,-25.58"/>
<polygon fill="#63b8ff" stroke="#63b8ff" points="294.59,-28.08 300.32,-19.17 290.28,-22.56 294.59,-28.08"/>
</a>
</g>
<g id="a_edge6&#45;headlabel"><a xlink:href="dir_000005_000009.html" target="_top" xlink:title="3">
<text text-anchor="middle" x="293.5" y="-30.03" font-family="Helvetica,sans-Serif" font-size="10.00" fill="#63b8ff">3</text>
</a>
</g>
</g>
<!-- dir_0e34caf28e6baf80c1fb8b79d4d9295f&#45;&gt;dir_167790342fb55959539d550b874be046 -->
<g id="edge7" class="edge">
<title>dir_0e34caf28e6baf80c1fb8b79d4d9295f&#45;&gt;dir_167790342fb55959539d550b874be046</title>
<g id="a_edge7"><a xlink:href="dir_000005_000012.html" target="_top">
<path fill="none" stroke="#63b8ff" d="M222.73,-56.68C196.14,-47.93 149.6,-32.61 117.47,-22.03"/>
<polygon fill="#63b8ff" stroke="#63b8ff" points="118.18,-18.58 107.58,-18.77 115.99,-25.23 118.18,-18.58"/>
</a>
</g>
<g id="a_edge7&#45;headlabel"><a xlink:href="dir_000005_000012.html" target="_top" xlink:title="2">
<text text-anchor="middle" x="122.48" y="-14.5" font-family="Helvetica,sans-Serif" font-size="10.00" fill="#63b8ff">2</text>
</a>
</g>
</g>
<!-- dir_0e34caf28e6baf80c1fb8b79d4d9295f&#45;&gt;dir_b23ce9843a0cf83641620a63d26b700d -->
<g id="edge9" class="edge">
<title>dir_0e34caf28e6baf80c1fb8b79d4d9295f&#45;&gt;dir_b23ce9843a0cf83641620a63d26b700d</title>
<g id="a_edge9"><a xlink:href="dir_000005_000000.html" target="_top">
<path fill="none" stroke="#63b8ff" d="M235.36,-54.75C228.29,-47.11 217.86,-35.82 209.3,-26.56"/>
<polygon fill="#63b8ff" stroke="#63b8ff" points="211.75,-24.06 202.39,-19.09 206.61,-28.81 211.75,-24.06"/>
</a>
</g>
<g id="a_edge9&#45;headlabel"><a xlink:href="dir_000005_000000.html" target="_top" xlink:title="5">
<text text-anchor="middle" x="216.27" y="-22.27" font-family="Helvetica,sans-Serif" font-size="10.00" fill="#63b8ff">5</text>
</a>
</g>
</g>
<!-- dir_adb84e959311a9ff6718b594edd7a2c4&#45;&gt;dir_ad0a8d4fb7f400ce29cb18ba2262ad2b -->
<g id="edge13" class="edge">
<title>dir_adb84e959311a9ff6718b594edd7a2c4&#45;&gt;dir_ad0a8d4fb7f400ce29cb18ba2262ad2b</title>
<g id="a_edge13"><a xlink:href="dir_000006_000014.html" target="_top">
<path fill="none" stroke="#63b8ff" d="M221.28,-164.75C219.79,-157.8 219.35,-147.85 219.97,-139.13"/>
<polygon fill="#63b8ff" stroke="#63b8ff" points="223.46,-139.47 221.32,-129.09 216.52,-138.53 223.46,-139.47"/>
</a>
</g>
<g id="a_edge13&#45;headlabel"><a xlink:href="dir_000006_000014.html" target="_top" xlink:title="3">
<text text-anchor="middle" x="225.79" y="-140.91" font-family="Helvetica,sans-Serif" font-size="10.00" fill="#63b8ff">3</text>
</a>
</g>
</g>
<!-- dir_adb84e959311a9ff6718b594edd7a2c4&#45;&gt;dir_11bc0974ce736ce9a6fadebbeb7a8314 -->
<g id="edge10" class="edge">
<title>dir_adb84e959311a9ff6718b594edd7a2c4&#45;&gt;dir_11bc0974ce736ce9a6fadebbeb7a8314</title>
<g id="a_edge10"><a xlink:href="dir_000006_000009.html" target="_top">
<path fill="none" stroke="#63b8ff" d="M234.27,-164.89C248.76,-148.46 279.82,-110.99 296.45,-74 302.91,-59.62 306.78,-42.1 308.97,-29.11"/>
<polygon fill="#63b8ff" stroke="#63b8ff" points="312.45,-29.46 310.48,-19.05 305.53,-28.42 312.45,-29.46"/>
</a>
</g>
<g id="a_edge10&#45;headlabel"><a xlink:href="dir_000006_000009.html" target="_top" xlink:title="8">
<text text-anchor="middle" x="314.73" y="-30.93" font-family="Helvetica,sans-Serif" font-size="10.00" fill="#63b8ff">8</text>
</a>
</g>
</g>
<!-- dir_adb84e959311a9ff6718b594edd7a2c4&#45;&gt;dir_167790342fb55959539d550b874be046 -->
<g id="edge11" class="edge">
<title>dir_adb84e959311a9ff6718b594edd7a2c4&#45;&gt;dir_167790342fb55959539d550b874be046</title>
<g id="a_edge11"><a xlink:href="dir_000006_000012.html" target="_top">
<path fill="none" stroke="#63b8ff" d="M208.74,-169.77C171.3,-160.82 84.69,-134.25 49.45,-74 43.39,-63.64 45.14,-58.2 49.45,-47 52.44,-39.22 57.95,-32.06 63.62,-26.19"/>
<polygon fill="#63b8ff" stroke="#63b8ff" points="66.35,-28.43 71.24,-19.03 61.55,-23.33 66.35,-28.43"/>
</a>
</g>
<g id="a_edge11&#45;headlabel"><a xlink:href="dir_000006_000012.html" target="_top" xlink:title="6">
<text text-anchor="middle" x="65.67" y="-30.46" font-family="Helvetica,sans-Serif" font-size="10.00" fill="#63b8ff">6</text>
</a>
</g>
</g>
<!-- dir_a5be7bbed3ff2f129951759fe96bf5d5 -->
<g id="node7" class="node">
<title>dir_a5be7bbed3ff2f129951759fe96bf5d5</title>
<g id="a_node7"><a xlink:href="dir_a5be7bbed3ff2f129951759fe96bf5d5.html" target="_top" xlink:title="workspace">
<polygon fill="#edf0f7" stroke="#404040" points="127.95,-74 58.95,-74 58.95,-55 127.95,-55 127.95,-74"/>
<text text-anchor="middle" x="93.45" y="-62" font-family="Helvetica,sans-Serif" font-size="10.00">workspace</text>
</a>
</g>
</g>
<!-- dir_adb84e959311a9ff6718b594edd7a2c4&#45;&gt;dir_a5be7bbed3ff2f129951759fe96bf5d5 -->
<g id="edge12" class="edge">
<title>dir_adb84e959311a9ff6718b594edd7a2c4&#45;&gt;dir_a5be7bbed3ff2f129951759fe96bf5d5</title>
<g id="a_edge12"><a xlink:href="dir_000006_000015.html" target="_top">
<path fill="none" stroke="#63b8ff" d="M215.56,-164.66C192.85,-146.22 140.18,-103.45 112.01,-80.57"/>
<polygon fill="#63b8ff" stroke="#63b8ff" points="114.08,-77.75 104.11,-74.16 109.67,-83.18 114.08,-77.75"/>
</a>
</g>
<g id="a_edge12&#45;headlabel"><a xlink:href="dir_000006_000015.html" target="_top" xlink:title="4">
<text text-anchor="middle" x="118.66" y="-75.31" font-family="Helvetica,sans-Serif" font-size="10.00" fill="#63b8ff">4</text>
</a>
</g>
</g>
<!-- dir_f503eccc909c3cc44ffd239385415fa7 -->
<g id="node9" class="node">
<title>dir_f503eccc909c3cc44ffd239385415fa7</title>
<g id="a_node9"><a xlink:href="dir_f503eccc909c3cc44ffd239385415fa7.html" target="_top" xlink:title="curve">
<polygon fill="#edf0f7" stroke="#404040" points="64.45,-129 20.45,-129 20.45,-110 64.45,-110 64.45,-129"/>
<text text-anchor="middle" x="42.45" y="-117" font-family="Helvetica,sans-Serif" font-size="10.00">curve</text>
</a>
</g>
</g>
<!-- dir_adb84e959311a9ff6718b594edd7a2c4&#45;&gt;dir_f503eccc909c3cc44ffd239385415fa7 -->
<g id="edge14" class="edge">
<title>dir_adb84e959311a9ff6718b594edd7a2c4&#45;&gt;dir_f503eccc909c3cc44ffd239385415fa7</title>
<g id="a_edge14"><a xlink:href="dir_000006_000003.html" target="_top">
<path fill="none" stroke="#63b8ff" d="M208.8,-168.42C177.84,-159.5 113.31,-140.91 74.35,-129.69"/>
<polygon fill="#63b8ff" stroke="#63b8ff" points="75.14,-126.27 64.56,-126.87 73.2,-133 75.14,-126.27"/>
</a>
</g>
<g id="a_edge14&#45;headlabel"><a xlink:href="dir_000006_000003.html" target="_top" xlink:title="1">
<text text-anchor="middle" x="79.38" y="-122.04" font-family="Helvetica,sans-Serif" font-size="10.00" fill="#63b8ff">1</text>
</a>
</g>
</g>
<!-- dir_ad0a8d4fb7f400ce29cb18ba2262ad2b&#45;&gt;dir_0e34caf28e6baf80c1fb8b79d4d9295f -->
<g id="edge15" class="edge">
<title>dir_ad0a8d4fb7f400ce29cb18ba2262ad2b&#45;&gt;dir_0e34caf28e6baf80c1fb8b79d4d9295f</title>
<g id="a_edge15"><a xlink:href="dir_000014_000005.html" target="_top">
<path fill="none" stroke="#63b8ff" d="M224.09,-109.75C224.85,-102.57 227.77,-92.18 231.33,-83.27"/>
<polygon fill="#63b8ff" stroke="#63b8ff" points="234.56,-84.64 235.56,-74.09 228.2,-81.71 234.56,-84.64"/>
</a>
</g>
<g id="a_edge15&#45;headlabel"><a xlink:href="dir_000014_000005.html" target="_top" xlink:title="1">
<text text-anchor="middle" x="235.63" y="-86.59" font-family="Helvetica,sans-Serif" font-size="10.00" fill="#63b8ff">1</text>
</a>
</g>
</g>
<!-- dir_ad0a8d4fb7f400ce29cb18ba2262ad2b&#45;&gt;dir_adb84e959311a9ff6718b594edd7a2c4 -->
<g id="edge19" class="edge">
<title>dir_ad0a8d4fb7f400ce29cb18ba2262ad2b&#45;&gt;dir_adb84e959311a9ff6718b594edd7a2c4</title>
<g id="a_edge19"><a xlink:href="dir_000014_000006.html" target="_top">
<path fill="none" stroke="#63b8ff" d="M231.58,-129.09C233.09,-135.99 233.54,-145.93 232.94,-154.66"/>
<polygon fill="#63b8ff" stroke="#63b8ff" points="229.45,-154.38 231.61,-164.75 236.39,-155.29 229.45,-154.38"/>
</a>
</g>
<g id="a_edge19&#45;headlabel"><a xlink:href="dir_000014_000006.html" target="_top" xlink:title="7">
<text text-anchor="middle" x="227.1" y="-147.94" font-family="Helvetica,sans-Serif" font-size="10.00" fill="#63b8ff">7</text>
</a>
</g>
</g>
<!-- dir_ad0a8d4fb7f400ce29cb18ba2262ad2b&#45;&gt;dir_11bc0974ce736ce9a6fadebbeb7a8314 -->
<g id="edge16" class="edge">
<title>dir_ad0a8d4fb7f400ce29cb18ba2262ad2b&#45;&gt;dir_11bc0974ce736ce9a6fadebbeb7a8314</title>
<g id="a_edge16"><a xlink:href="dir_000014_000009.html" target="_top">
<path fill="none" stroke="#63b8ff" d="M237.34,-109.69C247.43,-101.21 262.48,-87.67 273.45,-74 284.98,-59.62 295.52,-41.42 302.56,-28.2"/>
<polygon fill="#63b8ff" stroke="#63b8ff" points="305.72,-29.69 307.21,-19.2 299.51,-26.47 305.72,-29.69"/>
</a>
</g>
<g id="a_edge16&#45;headlabel"><a xlink:href="dir_000014_000009.html" target="_top" xlink:title="29">
<text text-anchor="middle" x="306.59" y="-31.68" font-family="Helvetica,sans-Serif" font-size="10.00" fill="#63b8ff">29</text>
</a>
</g>
</g>
<!-- dir_ad0a8d4fb7f400ce29cb18ba2262ad2b&#45;&gt;dir_167790342fb55959539d550b874be046 -->
<g id="edge17" class="edge">
<title>dir_ad0a8d4fb7f400ce29cb18ba2262ad2b&#45;&gt;dir_167790342fb55959539d550b874be046</title>
<g id="a_edge17"><a xlink:href="dir_000014_000012.html" target="_top">
<path fill="none" stroke="#63b8ff" d="M216.27,-109.82C199.98,-96.04 166.89,-68.53 137.45,-47 126.96,-39.34 114.99,-31.3 104.89,-24.73"/>
<polygon fill="#63b8ff" stroke="#63b8ff" points="106.55,-21.64 96.24,-19.16 102.75,-27.52 106.55,-21.64"/>
</a>
</g>
<g id="a_edge17&#45;headlabel"><a xlink:href="dir_000014_000012.html" target="_top" xlink:title="11">
<text text-anchor="middle" x="111.11" y="-18.7" font-family="Helvetica,sans-Serif" font-size="10.00" fill="#63b8ff">11</text>
</a>
</g>
</g>
<!-- dir_ad0a8d4fb7f400ce29cb18ba2262ad2b&#45;&gt;dir_a5be7bbed3ff2f129951759fe96bf5d5 -->
<g id="edge18" class="edge">
<title>dir_ad0a8d4fb7f400ce29cb18ba2262ad2b&#45;&gt;dir_a5be7bbed3ff2f129951759fe96bf5d5</title>
<g id="a_edge18"><a xlink:href="dir_000014_000015.html" target="_top">
<path fill="none" stroke="#63b8ff" d="M209.33,-111.68C187.93,-103.15 150.9,-88.39 124.46,-77.86"/>
<polygon fill="#63b8ff" stroke="#63b8ff" points="125.48,-74.5 114.89,-74.05 122.89,-81 125.48,-74.5"/>
</a>
</g>
<g id="a_edge18&#45;headlabel"><a xlink:href="dir_000014_000015.html" target="_top" xlink:title="1">
<text text-anchor="middle" x="129.87" y="-70.69" font-family="Helvetica,sans-Serif" font-size="10.00" fill="#63b8ff">1</text>
</a>
</g>
</g>
<!-- dir_ad0a8d4fb7f400ce29cb18ba2262ad2b&#45;&gt;dir_b23ce9843a0cf83641620a63d26b700d -->
<g id="edge20" class="edge">
<title>dir_ad0a8d4fb7f400ce29cb18ba2262ad2b&#45;&gt;dir_b23ce9843a0cf83641620a63d26b700d</title>
<g id="a_edge20"><a xlink:href="dir_000014_000000.html" target="_top">
<path fill="none" stroke="#63b8ff" d="M223.83,-109.66C218.62,-92.09 206.88,-52.45 199.91,-28.95"/>
<polygon fill="#63b8ff" stroke="#63b8ff" points="203.21,-27.75 197.01,-19.16 196.5,-29.74 203.21,-27.75"/>
</a>
</g>
<g id="a_edge20&#45;headlabel"><a xlink:href="dir_000014_000000.html" target="_top" xlink:title="2">
<text text-anchor="middle" x="206.95" y="-27.89" font-family="Helvetica,sans-Serif" font-size="10.00" fill="#63b8ff">2</text>
</a>
</g>
</g>
</g>
</svg>
