<?xml version="1.0" encoding="UTF-8" standalone="no"?>
<!DOCTYPE svg PUBLIC "-//W3C//DTD SVG 1.1//EN"
 "http://www.w3.org/Graphics/SVG/1.1/DTD/svg11.dtd">
<!-- Generated by graphviz version 7.1.0 (0)
 -->
<!-- Title: lammps Pages: 1 -->
<svg width="122pt" height="133pt"
 viewBox="0.00 0.00 121.50 133.00" xmlns="http://www.w3.org/2000/svg" xmlns:xlink="http://www.w3.org/1999/xlink">
<g id="graph0" class="graph" transform="scale(1 1) rotate(0) translate(4 129)">
<title>lammps</title>
<g id="clust1" class="cluster">
<title>clusterdir_cfb6e93dbea17f3e8193818fb6e149f2</title>
<g id="a_clust1"><a xlink:href="dir_cfb6e93dbea17f3e8193818fb6e149f2.html" target="_top" xlink:title="calc">
<polygon fill="#edf0f7" stroke="#7f7f7f" stroke-dasharray="5,2" points="8,-8 8,-117 76,-117 76,-8 8,-8"/>
<text text-anchor="middle" x="42" y="-105" font-family="Helvetica,sans-Serif" font-size="10.00">calc</text>
</a>
</g>
</g>
<!-- dir_78f22f1b6e75c59f4835dcc371001c36 -->
<g id="node1" class="node">
<title>dir_78f22f1b6e75c59f4835dcc371001c36</title>
<g id="a_node1"><a xlink:href="dir_78f22f1b6e75c59f4835dcc371001c36.html" target="_top" xlink:title="dl_poly">
<polygon fill="#a2b4d6" stroke="#404040" points="65.5,-35 18.5,-35 18.5,-16 65.5,-16 65.5,-35"/>
<text text-anchor="middle" x="42" y="-23" font-family="Helvetica,sans-Serif" font-size="10.00">dl_poly</text>
</a>
</g>
</g>
<!-- dir_a56d725a0fe9284a83a1e9510135d61a -->
<g id="node2" class="node">
<title>dir_a56d725a0fe9284a83a1e9510135d61a</title>
<g id="a_node2"><a xlink:href="dir_a56d725a0fe9284a83a1e9510135d61a.html" target="_top" xlink:title="lammps">
<polygon fill="#edf0f7" stroke="#404040" stroke-width="2" points="67.5,-90 16.5,-90 16.5,-71 67.5,-71 67.5,-90"/>
<text text-anchor="middle" x="42" y="-78" font-family="Helvetica,sans-Serif" font-size="10.00">lammps</text>
</a>
</g>
</g>
<!-- dir_a56d725a0fe9284a83a1e9510135d61a&#45;&gt;dir_78f22f1b6e75c59f4835dcc371001c36 -->
<g id="edge1" class="edge">
<title>dir_a56d725a0fe9284a83a1e9510135d61a&#45;&gt;dir_78f22f1b6e75c59f4835dcc371001c36</title>
<path fill="none" stroke="#63b8ff" d="M42,-70.75C42,-64.27 42,-55.16 42,-46.9"/>
<polygon fill="#63b8ff" stroke="#63b8ff" points="45.5,-46.96 42,-36.96 38.5,-46.96 45.5,-46.96"/>
<g id="a_edge1&#45;headlabel"><a xlink:href="dir_000014_000006.html" target="_top" xlink:title="1">
<text text-anchor="middle" x="48.34" y="-46.54" font-family="Helvetica,sans-Serif" font-size="10.00" fill="#63b8ff">1</text>
</a>
</g>
</g>
<!-- dir_9268fa4967c416e4e882c5e3d890d467 -->
<g id="node3" class="node">
<title>dir_9268fa4967c416e4e882c5e3d890d467</title>
<g id="a_node3"><a xlink:href="dir_9268fa4967c416e4e882c5e3d890d467.html" target="_top" xlink:title="gui">
<polygon fill="#edf0f7" stroke="#7f7f7f" points="113.5,-35 84.5,-35 84.5,-16 113.5,-16 113.5,-35"/>
<text text-anchor="middle" x="99" y="-23" font-family="Helvetica,sans-Serif" font-size="10.00">gui</text>
</a>
</g>
</g>
<!-- dir_a56d725a0fe9284a83a1e9510135d61a&#45;&gt;dir_9268fa4967c416e4e882c5e3d890d467 -->
<g id="edge2" class="edge">
<title>dir_a56d725a0fe9284a83a1e9510135d61a&#45;&gt;dir_9268fa4967c416e4e882c5e3d890d467</title>
<path fill="none" stroke="#63b8ff" d="M51.67,-70.51C59.74,-63 71.47,-52.1 81.22,-43.03"/>
<polygon fill="#63b8ff" stroke="#63b8ff" points="83.43,-45.76 88.37,-36.39 78.66,-40.63 83.43,-45.76"/>
<g id="a_edge2&#45;headlabel"><a xlink:href="dir_000014_000012.html" target="_top" xlink:title="1">
<text text-anchor="middle" x="83.83" y="-46.76" font-family="Helvetica,sans-Serif" font-size="10.00" fill="#63b8ff">1</text>
</a>
</g>
</g>
</g>
</svg>
