<?xml version="1.0" encoding="UTF-8" standalone="no"?>
<!DOCTYPE svg PUBLIC "-//W3C//DTD SVG 1.1//EN"
 "http://www.w3.org/Graphics/SVG/1.1/DTD/svg11.dtd">
<!-- Generated by graphviz version 7.1.0 (0)
 -->
<!-- Title: gui Pages: 1 -->
<svg width="344pt" height="133pt"
 viewBox="0.00 0.00 344.00 133.00" xmlns="http://www.w3.org/2000/svg" xmlns:xlink="http://www.w3.org/1999/xlink">
<g id="graph0" class="graph" transform="scale(1 1) rotate(0) translate(4 129)">
<title>gui</title>
<g id="clust1" class="cluster">
<title>clusterdir_9a0adb9856b1b8f79a5aed667f750c45</title>
<g id="a_clust1"><a xlink:href="dir_9a0adb9856b1b8f79a5aed667f750c45.html" target="_top" xlink:title="src">
<polygon fill="#edf0f7" stroke="#7f7f7f" stroke-dasharray="5,2" points="8,-8 8,-117 328,-117 328,-8 8,-8"/>
<text text-anchor="middle" x="168" y="-105" font-family="Helvetica,sans-Serif" font-size="10.00">src</text>
</a>
</g>
</g>
<!-- dir_43db5ab264bba6ded25a436c3d8b4fee -->
<g id="node1" class="node">
<title>dir_43db5ab264bba6ded25a436c3d8b4fee</title>
<g id="a_node1"><a xlink:href="dir_43db5ab264bba6ded25a436c3d8b4fee.html" target="_top" xlink:title="workspace">
<polygon fill="#a2b4d6" stroke="#404040" points="80,-35 16,-35 16,-16 80,-16 80,-35"/>
<text text-anchor="middle" x="48" y="-23" font-family="Helvetica,sans-Serif" font-size="10.00">workspace</text>
</a>
</g>
</g>
<!-- dir_503391f8f88e69ff0b6bb2ea195a5f61 -->
<g id="node2" class="node">
<title>dir_503391f8f88e69ff0b6bb2ea195a5f61</title>
<g id="a_node2"><a xlink:href="dir_503391f8f88e69ff0b6bb2ea195a5f61.html" target="_top" xlink:title="project">
<polygon fill="#a2b4d6" stroke="red" points="144,-35 98,-35 98,-16 144,-16 144,-35"/>
<text text-anchor="middle" x="121" y="-23" font-family="Helvetica,sans-Serif" font-size="10.00">project</text>
</a>
</g>
</g>
<!-- dir_896854cd3247b6cb36f98a37c2863463 -->
<g id="node3" class="node">
<title>dir_896854cd3247b6cb36f98a37c2863463</title>
<g id="a_node3"><a xlink:href="dir_896854cd3247b6cb36f98a37c2863463.html" target="_top" xlink:title="opengl">
<polygon fill="#a2b4d6" stroke="red" points="207.5,-35 162.5,-35 162.5,-16 207.5,-16 207.5,-35"/>
<text text-anchor="middle" x="185" y="-23" font-family="Helvetica,sans-Serif" font-size="10.00">opengl</text>
</a>
</g>
</g>
<!-- dir_a64f4d3da146dfbb12317d36ed2423d1 -->
<g id="node4" class="node">
<title>dir_a64f4d3da146dfbb12317d36ed2423d1</title>
<g id="a_node4"><a xlink:href="dir_a64f4d3da146dfbb12317d36ed2423d1.html" target="_top" xlink:title="curve">
<polygon fill="#a2b4d6" stroke="#404040" points="266.5,-35 225.5,-35 225.5,-16 266.5,-16 266.5,-35"/>
<text text-anchor="middle" x="246" y="-23" font-family="Helvetica,sans-Serif" font-size="10.00">curve</text>
</a>
</g>
</g>
<!-- dir_cfb6e93dbea17f3e8193818fb6e149f2 -->
<g id="node5" class="node">
<title>dir_cfb6e93dbea17f3e8193818fb6e149f2</title>
<g id="a_node5"><a xlink:href="dir_cfb6e93dbea17f3e8193818fb6e149f2.html" target="_top" xlink:title="calc">
<polygon fill="#a2b4d6" stroke="red" points="319.5,-35 284.5,-35 284.5,-16 319.5,-16 319.5,-35"/>
<text text-anchor="middle" x="302" y="-23" font-family="Helvetica,sans-Serif" font-size="10.00">calc</text>
</a>
</g>
</g>
<!-- dir_9268fa4967c416e4e882c5e3d890d467 -->
<g id="node6" class="node">
<title>dir_9268fa4967c416e4e882c5e3d890d467</title>
<g id="a_node6"><a xlink:href="dir_9268fa4967c416e4e882c5e3d890d467.html" target="_top" xlink:title="gui">
<polygon fill="#edf0f7" stroke="#404040" stroke-width="2" points="199.5,-90 170.5,-90 170.5,-71 199.5,-71 199.5,-90"/>
<text text-anchor="middle" x="185" y="-78" font-family="Helvetica,sans-Serif" font-size="10.00">gui</text>
</a>
</g>
</g>
<!-- dir_9268fa4967c416e4e882c5e3d890d467&#45;&gt;dir_43db5ab264bba6ded25a436c3d8b4fee -->
<g id="edge1" class="edge">
<title>dir_9268fa4967c416e4e882c5e3d890d467&#45;&gt;dir_43db5ab264bba6ded25a436c3d8b4fee</title>
<path fill="none" stroke="#63b8ff" d="M170.08,-73.73C149.02,-65.58 109.99,-50.48 81.72,-39.55"/>
<polygon fill="#63b8ff" stroke="#63b8ff" points="83.1,-36.33 72.51,-35.98 80.57,-42.85 83.1,-36.33"/>
<g id="a_edge1&#45;headlabel"><a xlink:href="dir_000012_000021.html" target="_top" xlink:title="7">
<text text-anchor="middle" x="86.07" y="-31.93" font-family="Helvetica,sans-Serif" font-size="10.00" fill="#63b8ff">7</text>
</a>
</g>
</g>
<!-- dir_9268fa4967c416e4e882c5e3d890d467&#45;&gt;dir_503391f8f88e69ff0b6bb2ea195a5f61 -->
<g id="edge2" class="edge">
<title>dir_9268fa4967c416e4e882c5e3d890d467&#45;&gt;dir_503391f8f88e69ff0b6bb2ea195a5f61</title>
<path fill="none" stroke="#63b8ff" d="M174.14,-70.51C164.89,-62.85 151.38,-51.66 140.29,-42.47"/>
<polygon fill="#63b8ff" stroke="#63b8ff" points="142.8,-40.01 132.86,-36.32 138.33,-45.4 142.8,-40.01"/>
<g id="a_edge2&#45;headlabel"><a xlink:href="dir_000012_000017.html" target="_top" xlink:title="17">
<text text-anchor="middle" x="146.21" y="-36.65" font-family="Helvetica,sans-Serif" font-size="10.00" fill="#63b8ff">17</text>
</a>
</g>
</g>
<!-- dir_9268fa4967c416e4e882c5e3d890d467&#45;&gt;dir_896854cd3247b6cb36f98a37c2863463 -->
<g id="edge3" class="edge">
<title>dir_9268fa4967c416e4e882c5e3d890d467&#45;&gt;dir_896854cd3247b6cb36f98a37c2863463</title>
<path fill="none" stroke="#63b8ff" d="M185,-70.75C185,-64.27 185,-55.16 185,-46.9"/>
<polygon fill="#63b8ff" stroke="#63b8ff" points="188.5,-46.96 185,-36.96 181.5,-46.96 188.5,-46.96"/>
<g id="a_edge3&#45;headlabel"><a xlink:href="dir_000012_000016.html" target="_top" xlink:title="12">
<text text-anchor="middle" x="191.34" y="-46.54" font-family="Helvetica,sans-Serif" font-size="10.00" fill="#63b8ff">12</text>
</a>
</g>
</g>
<!-- dir_9268fa4967c416e4e882c5e3d890d467&#45;&gt;dir_a64f4d3da146dfbb12317d36ed2423d1 -->
<g id="edge4" class="edge">
<title>dir_9268fa4967c416e4e882c5e3d890d467&#45;&gt;dir_a64f4d3da146dfbb12317d36ed2423d1</title>
<path fill="none" stroke="#63b8ff" d="M195.35,-70.51C204.08,-62.93 216.79,-51.88 227.3,-42.75"/>
<polygon fill="#63b8ff" stroke="#63b8ff" points="229.41,-45.55 234.66,-36.35 224.82,-40.27 229.41,-45.55"/>
<g id="a_edge4&#45;headlabel"><a xlink:href="dir_000012_000005.html" target="_top" xlink:title="8">
<text text-anchor="middle" x="229.7" y="-46.56" font-family="Helvetica,sans-Serif" font-size="10.00" fill="#63b8ff">8</text>
</a>
</g>
</g>
<!-- dir_9268fa4967c416e4e882c5e3d890d467&#45;&gt;dir_cfb6e93dbea17f3e8193818fb6e149f2 -->
<g id="edge5" class="edge">
<title>dir_9268fa4967c416e4e882c5e3d890d467&#45;&gt;dir_cfb6e93dbea17f3e8193818fb6e149f2</title>
<path fill="none" stroke="#63b8ff" d="M199.82,-72.79C218.4,-64.37 250.63,-49.77 273.94,-39.21"/>
<polygon fill="#63b8ff" stroke="#63b8ff" points="275.2,-42.48 282.87,-35.17 272.32,-36.1 275.2,-42.48"/>
<g id="a_edge5&#45;headlabel"><a xlink:href="dir_000012_000001.html" target="_top" xlink:title="1">
<text text-anchor="middle" x="274.48" y="-43.43" font-family="Helvetica,sans-Serif" font-size="10.00" fill="#63b8ff">1</text>
</a>
</g>
</g>
</g>
</svg>
