<?xml version="1.0" encoding="UTF-8" standalone="no"?>
<!DOCTYPE svg PUBLIC "-//W3C//DTD SVG 1.1//EN"
 "http://www.w3.org/Graphics/SVG/1.1/DTD/svg11.dtd">
<!-- Generated by graphviz version 7.1.0 (0)
 -->
<!-- Title: src Pages: 1 -->
<svg width="220pt" height="424pt"
 viewBox="0.00 0.00 220.00 424.00" xmlns="http://www.w3.org/2000/svg" xmlns:xlink="http://www.w3.org/1999/xlink">
<g id="graph0" class="graph" transform="scale(1 1) rotate(0) translate(4 420)">
<title>src</title>
<g id="clust1" class="cluster">
<title>clusterdir_270d50af10ac0a3e9d5bb4322b4b032b</title>
<g id="a_clust1"><a xlink:href="dir_270d50af10ac0a3e9d5bb4322b4b032b.html" target="_top" xlink:title="atomes">
<polygon fill="#edf0f7" stroke="#7f7f7f" stroke-dasharray="5,2" points="8,-8 8,-408 204,-408 204,-8 8,-8"/>
<text text-anchor="middle" x="106" y="-396" font-family="Helvetica,sans-Serif" font-size="10.00">atomes</text>
</a>
</g>
</g>
<g id="clust2" class="cluster">
<title>clusterdir_3921ebae5ef364b0d2f6acfa0fb0d8d3</title>
<g id="a_clust2"><a xlink:href="dir_3921ebae5ef364b0d2f6acfa0fb0d8d3.html" target="_top">
<polygon fill="#edf0f7" stroke="#404040" stroke-width="2" points="16,-16 16,-381 196,-381 196,-16 16,-16"/>
</a>
</g>
</g>
<!-- dir_3921ebae5ef364b0d2f6acfa0fb0d8d3 -->
<g id="node1" class="node">
<title>dir_3921ebae5ef364b0d2f6acfa0fb0d8d3</title>
<text text-anchor="middle" x="130" y="-361" font-family="Helvetica,sans-Serif" font-size="10.00">src</text>
</g>
<!-- dir_c307836a8a3824cdddc5eadc2484ae0c -->
<g id="node6" class="node">
<title>dir_c307836a8a3824cdddc5eadc2484ae0c</title>
<g id="a_node6"><a xlink:href="dir_c307836a8a3824cdddc5eadc2484ae0c.html" target="_top" xlink:title="opengl">
<polygon fill="#a2b4d6" stroke="#404040" points="152.5,-318 107.5,-318 107.5,-299 152.5,-299 152.5,-318"/>
<text text-anchor="middle" x="130" y="-306" font-family="Helvetica,sans-Serif" font-size="10.00">opengl</text>
</a>
</g>
</g>
<!-- dir_3921ebae5ef364b0d2f6acfa0fb0d8d3&#45;&gt;dir_c307836a8a3824cdddc5eadc2484ae0c -->
<g id="edge1" class="edge">
<title>dir_3921ebae5ef364b0d2f6acfa0fb0d8d3&#45;&gt;dir_c307836a8a3824cdddc5eadc2484ae0c</title>
<path fill="none" stroke="#63b8ff" d="M130,-354.22C130,-347.65 130,-338.18 130,-329.64"/>
<polygon fill="#63b8ff" stroke="#63b8ff" points="133.5,-329.77 130,-319.77 126.5,-329.77 133.5,-329.77"/>
<g id="a_edge1&#45;headlabel"><a xlink:href="dir_000018_000015.html" target="_top" xlink:title="79">
<text text-anchor="middle" x="136.34" y="-329.35" font-family="Helvetica,sans-Serif" font-size="10.00" fill="#63b8ff">79</text>
</a>
</g>
</g>
<!-- dir_b69cbee60e647204afcf7b8718bedceb -->
<g id="node2" class="node">
<title>dir_b69cbee60e647204afcf7b8718bedceb</title>
<g id="a_node2"><a xlink:href="dir_b69cbee60e647204afcf7b8718bedceb.html" target="_top" xlink:title="calc">
<polygon fill="#a2b4d6" stroke="#404040" points="147.5,-263 112.5,-263 112.5,-244 147.5,-244 147.5,-263"/>
<text text-anchor="middle" x="130" y="-251" font-family="Helvetica,sans-Serif" font-size="10.00">calc</text>
</a>
</g>
</g>
<!-- dir_2c7347912a4c256662f0916909de91f6 -->
<g id="node5" class="node">
<title>dir_2c7347912a4c256662f0916909de91f6</title>
<g id="a_node5"><a xlink:href="dir_2c7347912a4c256662f0916909de91f6.html" target="_top" xlink:title="gui">
<polygon fill="#a2b4d6" stroke="#404040" points="107.5,-208 78.5,-208 78.5,-189 107.5,-189 107.5,-208"/>
<text text-anchor="middle" x="93" y="-196" font-family="Helvetica,sans-Serif" font-size="10.00">gui</text>
</a>
</g>
</g>
<!-- dir_b69cbee60e647204afcf7b8718bedceb&#45;&gt;dir_2c7347912a4c256662f0916909de91f6 -->
<g id="edge2" class="edge">
<title>dir_b69cbee60e647204afcf7b8718bedceb&#45;&gt;dir_2c7347912a4c256662f0916909de91f6</title>
<path fill="none" stroke="#63b8ff" d="M118.72,-243.75C112.46,-236.88 105.17,-227.08 99.73,-218.45"/>
<polygon fill="#63b8ff" stroke="#63b8ff" points="102.77,-216.72 94.78,-209.76 96.69,-220.18 102.77,-216.72"/>
<g id="a_edge2&#45;headlabel"><a xlink:href="dir_000001_000013.html" target="_top" xlink:title="27">
<text text-anchor="middle" x="106.27" y="-214.62" font-family="Helvetica,sans-Serif" font-size="10.00" fill="#63b8ff">27</text>
</a>
</g>
</g>
<!-- dir_b69cbee60e647204afcf7b8718bedceb&#45;&gt;dir_c307836a8a3824cdddc5eadc2484ae0c -->
<g id="edge3" class="edge">
<title>dir_b69cbee60e647204afcf7b8718bedceb&#45;&gt;dir_c307836a8a3824cdddc5eadc2484ae0c</title>
<path fill="none" stroke="#63b8ff" d="M135.21,-263.44C136.58,-269.97 137.04,-279.1 136.57,-287.35"/>
<polygon fill="#63b8ff" stroke="#63b8ff" points="133.1,-286.89 135.35,-297.25 140.05,-287.75 133.1,-286.89"/>
<g id="a_edge3&#45;headlabel"><a xlink:href="dir_000001_000015.html" target="_top" xlink:title="24">
<text text-anchor="middle" x="130.54" y="-281.98" font-family="Helvetica,sans-Serif" font-size="10.00" fill="#63b8ff">24</text>
</a>
</g>
</g>
<!-- dir_da605f587a6e9eadd4939071a5b287b2 -->
<g id="node7" class="node">
<title>dir_da605f587a6e9eadd4939071a5b287b2</title>
<g id="a_node7"><a xlink:href="dir_da605f587a6e9eadd4939071a5b287b2.html" target="_top" xlink:title="project">
<polygon fill="#a2b4d6" stroke="#404040" points="139,-98 93,-98 93,-79 139,-79 139,-98"/>
<text text-anchor="middle" x="116" y="-86" font-family="Helvetica,sans-Serif" font-size="10.00">project</text>
</a>
</g>
</g>
<!-- dir_b69cbee60e647204afcf7b8718bedceb&#45;&gt;dir_da605f587a6e9eadd4939071a5b287b2 -->
<g id="edge4" class="edge">
<title>dir_b69cbee60e647204afcf7b8718bedceb&#45;&gt;dir_da605f587a6e9eadd4939071a5b287b2</title>
<path fill="none" stroke="#63b8ff" d="M130.81,-243.61C138.24,-223.52 163.35,-173.31 148,-134 143.83,-123.31 135.75,-113.64 128.56,-106.06"/>
<polygon fill="#63b8ff" stroke="#63b8ff" points="131.38,-103.95 121.87,-99.28 126.4,-108.86 131.38,-103.95"/>
<g id="a_edge4&#45;headlabel"><a xlink:href="dir_000001_000016.html" target="_top" xlink:title="7">
<text text-anchor="middle" x="134.87" y="-100.94" font-family="Helvetica,sans-Serif" font-size="10.00" fill="#63b8ff">7</text>
</a>
</g>
</g>
<!-- dir_e91d843e8f0aa7d6b92ea0c09cf9089b -->
<g id="node3" class="node">
<title>dir_e91d843e8f0aa7d6b92ea0c09cf9089b</title>
<g id="a_node3"><a xlink:href="dir_e91d843e8f0aa7d6b92ea0c09cf9089b.html" target="_top" xlink:title="curve">
<polygon fill="#a2b4d6" stroke="#404040" points="65.5,-43 24.5,-43 24.5,-24 65.5,-24 65.5,-43"/>
<text text-anchor="middle" x="45" y="-31" font-family="Helvetica,sans-Serif" font-size="10.00">curve</text>
</a>
</g>
</g>
<!-- dir_e91d843e8f0aa7d6b92ea0c09cf9089b&#45;&gt;dir_2c7347912a4c256662f0916909de91f6 -->
<g id="edge5" class="edge">
<title>dir_e91d843e8f0aa7d6b92ea0c09cf9089b&#45;&gt;dir_2c7347912a4c256662f0916909de91f6</title>
<path fill="none" stroke="#63b8ff" d="M50.46,-43.38C56.64,-63.46 62.56,-113.65 77,-153 80.2,-161.73 84.98,-170.78 88.88,-178.42"/>
<polygon fill="#63b8ff" stroke="#63b8ff" points="85.68,-179.84 93.16,-187.34 92,-176.81 85.68,-179.84"/>
<g id="a_edge5&#45;headlabel"><a xlink:href="dir_000005_000013.html" target="_top" xlink:title="19">
<text text-anchor="middle" x="82.22" y="-176.69" font-family="Helvetica,sans-Serif" font-size="10.00" fill="#63b8ff">19</text>
</a>
</g>
</g>
<!-- dir_e91d843e8f0aa7d6b92ea0c09cf9089b&#45;&gt;dir_da605f587a6e9eadd4939071a5b287b2 -->
<g id="edge6" class="edge">
<title>dir_e91d843e8f0aa7d6b92ea0c09cf9089b&#45;&gt;dir_da605f587a6e9eadd4939071a5b287b2</title>
<path fill="none" stroke="#63b8ff" d="M62.06,-43.36C73.88,-50.98 89.22,-62.16 100.65,-71.37"/>
<polygon fill="#63b8ff" stroke="#63b8ff" points="98.1,-73.79 108.01,-77.54 102.6,-68.43 98.1,-73.79"/>
<g id="a_edge6&#45;headlabel"><a xlink:href="dir_000005_000016.html" target="_top" xlink:title="7">
<text text-anchor="middle" x="94.68" y="-72.13" font-family="Helvetica,sans-Serif" font-size="10.00" fill="#63b8ff">7</text>
</a>
</g>
</g>
<!-- dir_f0db1e9b629d3f223aadf374bfb7cd19 -->
<g id="node4" class="node">
<title>dir_f0db1e9b629d3f223aadf374bfb7cd19</title>
<g id="a_node4"><a xlink:href="dir_f0db1e9b629d3f223aadf374bfb7cd19.html" target="_top" xlink:title="fortran">
<polygon fill="#a2b4d6" stroke="#404040" points="83,-373 39,-373 39,-354 83,-354 83,-373"/>
<text text-anchor="middle" x="61" y="-361" font-family="Helvetica,sans-Serif" font-size="10.00">fortran</text>
</a>
</g>
</g>
<!-- dir_2c7347912a4c256662f0916909de91f6&#45;&gt;dir_b69cbee60e647204afcf7b8718bedceb -->
<g id="edge8" class="edge">
<title>dir_2c7347912a4c256662f0916909de91f6&#45;&gt;dir_b69cbee60e647204afcf7b8718bedceb</title>
<path fill="none" stroke="#63b8ff" d="M104.45,-208.44C110.73,-215.36 118.01,-225.18 123.42,-233.79"/>
<polygon fill="#63b8ff" stroke="#63b8ff" points="120.34,-235.45 128.31,-242.43 126.43,-232 120.34,-235.45"/>
<g id="a_edge8&#45;headlabel"><a xlink:href="dir_000013_000001.html" target="_top" xlink:title="1">
<text text-anchor="middle" x="116.84" y="-232.54" font-family="Helvetica,sans-Serif" font-size="10.00" fill="#63b8ff">1</text>
</a>
</g>
</g>
<!-- dir_2c7347912a4c256662f0916909de91f6&#45;&gt;dir_e91d843e8f0aa7d6b92ea0c09cf9089b -->
<g id="edge11" class="edge">
<title>dir_2c7347912a4c256662f0916909de91f6&#45;&gt;dir_e91d843e8f0aa7d6b92ea0c09cf9089b</title>
<path fill="none" stroke="#63b8ff" d="M80.05,-188.71C72.22,-180.01 63.82,-166.14 59,-153 46.81,-119.8 40.7,-78.88 40.53,-54.84"/>
<polygon fill="#63b8ff" stroke="#63b8ff" points="44.02,-55.04 40.97,-44.89 37.03,-54.73 44.02,-55.04"/>
<g id="a_edge11&#45;headlabel"><a xlink:href="dir_000013_000005.html" target="_top" xlink:title="8">
<text text-anchor="middle" x="46.76" y="-54.75" font-family="Helvetica,sans-Serif" font-size="10.00" fill="#63b8ff">8</text>
</a>
</g>
</g>
<!-- dir_2c7347912a4c256662f0916909de91f6&#45;&gt;dir_c307836a8a3824cdddc5eadc2484ae0c -->
<g id="edge9" class="edge">
<title>dir_2c7347912a4c256662f0916909de91f6&#45;&gt;dir_c307836a8a3824cdddc5eadc2484ae0c</title>
<path fill="none" stroke="#63b8ff" d="M99.51,-208.38C103.52,-220.9 106.17,-244.29 113,-263 116.26,-271.92 121.29,-281.1 125.41,-288.78"/>
<polygon fill="#63b8ff" stroke="#63b8ff" points="122.16,-290.1 129.82,-297.42 128.39,-286.92 122.16,-290.1"/>
<g id="a_edge9&#45;headlabel"><a xlink:href="dir_000013_000015.html" target="_top" xlink:title="12">
<text text-anchor="middle" x="118.68" y="-287.03" font-family="Helvetica,sans-Serif" font-size="10.00" fill="#63b8ff">12</text>
</a>
</g>
</g>
<!-- dir_2c7347912a4c256662f0916909de91f6&#45;&gt;dir_da605f587a6e9eadd4939071a5b287b2 -->
<g id="edge10" class="edge">
<title>dir_2c7347912a4c256662f0916909de91f6&#45;&gt;dir_da605f587a6e9eadd4939071a5b287b2</title>
<path fill="none" stroke="#63b8ff" d="M80.96,-188.7C70.18,-176.28 58.58,-153 66,-134 70.36,-122.84 78.96,-112.8 87.97,-105.09"/>
<polygon fill="#63b8ff" stroke="#63b8ff" points="89.95,-107.98 95.76,-99.12 85.69,-102.42 89.95,-107.98"/>
<g id="a_edge10&#45;headlabel"><a xlink:href="dir_000013_000016.html" target="_top" xlink:title="17">
<text text-anchor="middle" x="90.02" y="-109" font-family="Helvetica,sans-Serif" font-size="10.00" fill="#63b8ff">17</text>
</a>
</g>
</g>
<!-- dir_9dcb8a3ca69c67ff49858f399d09016c -->
<g id="node8" class="node">
<title>dir_9dcb8a3ca69c67ff49858f399d09016c</title>
<g id="a_node8"><a xlink:href="dir_9dcb8a3ca69c67ff49858f399d09016c.html" target="_top" xlink:title="workspace">
<polygon fill="#a2b4d6" stroke="#404040" points="148,-153 84,-153 84,-134 148,-134 148,-153"/>
<text text-anchor="middle" x="116" y="-141" font-family="Helvetica,sans-Serif" font-size="10.00">workspace</text>
</a>
</g>
</g>
<!-- dir_2c7347912a4c256662f0916909de91f6&#45;&gt;dir_9dcb8a3ca69c67ff49858f399d09016c -->
<g id="edge7" class="edge">
<title>dir_2c7347912a4c256662f0916909de91f6&#45;&gt;dir_9dcb8a3ca69c67ff49858f399d09016c</title>
<path fill="none" stroke="#63b8ff" d="M91.63,-188.75C93.13,-181.88 96.94,-172.08 101.28,-163.45"/>
<polygon fill="#63b8ff" stroke="#63b8ff" points="104.31,-165.19 106.17,-154.76 98.21,-161.76 104.31,-165.19"/>
<g id="a_edge7&#45;headlabel"><a xlink:href="dir_000013_000020.html" target="_top" xlink:title="7">
<text text-anchor="middle" x="105.76" y="-165.9" font-family="Helvetica,sans-Serif" font-size="10.00" fill="#63b8ff">7</text>
</a>
</g>
</g>
<!-- dir_c307836a8a3824cdddc5eadc2484ae0c&#45;&gt;dir_b69cbee60e647204afcf7b8718bedceb -->
<g id="edge14" class="edge">
<title>dir_c307836a8a3824cdddc5eadc2484ae0c&#45;&gt;dir_b69cbee60e647204afcf7b8718bedceb</title>
<path fill="none" stroke="#63b8ff" d="M124.83,-298.75C123.42,-292.19 122.96,-282.95 123.43,-274.6"/>
<polygon fill="#63b8ff" stroke="#63b8ff" points="126.87,-275.3 124.61,-264.94 119.92,-274.45 126.87,-275.3"/>
<g id="a_edge14&#45;headlabel"><a xlink:href="dir_000015_000001.html" target="_top" xlink:title="9">
<text text-anchor="middle" x="129.44" y="-275.21" font-family="Helvetica,sans-Serif" font-size="10.00" fill="#63b8ff">9</text>
</a>
</g>
</g>
<!-- dir_c307836a8a3824cdddc5eadc2484ae0c&#45;&gt;dir_e91d843e8f0aa7d6b92ea0c09cf9089b -->
<g id="edge16" class="edge">
<title>dir_c307836a8a3824cdddc5eadc2484ae0c&#45;&gt;dir_e91d843e8f0aa7d6b92ea0c09cf9089b</title>
<path fill="none" stroke="#63b8ff" d="M110.74,-298.6C80.43,-283.11 25,-248.14 25,-199.5 25,-199.5 25,-199.5 25,-142.5 25,-111.26 33.19,-75.77 39.09,-54.26"/>
<polygon fill="#63b8ff" stroke="#63b8ff" points="42.41,-55.39 41.8,-44.81 35.68,-53.46 42.41,-55.39"/>
<g id="a_edge16&#45;headlabel"><a xlink:href="dir_000015_000005.html" target="_top" xlink:title="1">
<text text-anchor="middle" x="44.56" y="-55.67" font-family="Helvetica,sans-Serif" font-size="10.00" fill="#63b8ff">1</text>
</a>
</g>
</g>
<!-- dir_c307836a8a3824cdddc5eadc2484ae0c&#45;&gt;dir_2c7347912a4c256662f0916909de91f6 -->
<g id="edge12" class="edge">
<title>dir_c307836a8a3824cdddc5eadc2484ae0c&#45;&gt;dir_2c7347912a4c256662f0916909de91f6</title>
<path fill="none" stroke="#63b8ff" d="M116.73,-298.77C108.62,-290.12 99.85,-276.28 95,-263 89.88,-248.97 87.1,-232.3 86.9,-219.57"/>
<polygon fill="#63b8ff" stroke="#63b8ff" points="90.38,-220.08 87.47,-209.89 83.39,-219.67 90.38,-220.08"/>
<g id="a_edge12&#45;headlabel"><a xlink:href="dir_000015_000013.html" target="_top" xlink:title="45">
<text text-anchor="middle" x="93.09" y="-219.83" font-family="Helvetica,sans-Serif" font-size="10.00" fill="#63b8ff">45</text>
</a>
</g>
</g>
<!-- dir_c307836a8a3824cdddc5eadc2484ae0c&#45;&gt;dir_da605f587a6e9eadd4939071a5b287b2 -->
<g id="edge15" class="edge">
<title>dir_c307836a8a3824cdddc5eadc2484ae0c&#45;&gt;dir_da605f587a6e9eadd4939071a5b287b2</title>
<path fill="none" stroke="#63b8ff" d="M131.95,-298.56C137.74,-290.19 148.38,-276.91 153,-263 171.08,-208.59 177.94,-186.55 155,-134 150.06,-122.68 140.66,-112.95 132.17,-105.5"/>
<polygon fill="#63b8ff" stroke="#63b8ff" points="134.66,-103.02 124.73,-99.32 130.18,-108.4 134.66,-103.02"/>
<g id="a_edge15&#45;headlabel"><a xlink:href="dir_000015_000016.html" target="_top" xlink:title="21">
<text text-anchor="middle" x="138.07" y="-99.67" font-family="Helvetica,sans-Serif" font-size="10.00" fill="#63b8ff">21</text>
</a>
</g>
</g>
<!-- dir_c307836a8a3824cdddc5eadc2484ae0c&#45;&gt;dir_9dcb8a3ca69c67ff49858f399d09016c -->
<g id="edge13" class="edge">
<title>dir_c307836a8a3824cdddc5eadc2484ae0c&#45;&gt;dir_9dcb8a3ca69c67ff49858f399d09016c</title>
<path fill="none" stroke="#63b8ff" d="M130.44,-298.65C135.01,-290.13 144.2,-276.58 148,-263 150.27,-254.87 149.64,-252.28 148,-244 142.23,-214.86 127.81,-183.53 119.87,-163.98"/>
<polygon fill="#63b8ff" stroke="#63b8ff" points="123.24,-162.99 116.43,-154.86 116.69,-165.46 123.24,-162.99"/>
<g id="a_edge13&#45;headlabel"><a xlink:href="dir_000015_000020.html" target="_top" xlink:title="5">
<text text-anchor="middle" x="126.63" y="-161.43" font-family="Helvetica,sans-Serif" font-size="10.00" fill="#63b8ff">5</text>
</a>
</g>
</g>
<!-- dir_da605f587a6e9eadd4939071a5b287b2&#45;&gt;dir_b69cbee60e647204afcf7b8718bedceb -->
<g id="edge19" class="edge">
<title>dir_da605f587a6e9eadd4939071a5b287b2&#45;&gt;dir_b69cbee60e647204afcf7b8718bedceb</title>
<path fill="none" stroke="#63b8ff" d="M135.04,-98.2C146.83,-106.23 160.19,-119.13 166,-134 179.37,-168.24 162.04,-210.76 146.76,-234.43"/>
<polygon fill="#63b8ff" stroke="#63b8ff" points="144.05,-232.2 141.1,-242.38 149.75,-236.27 144.05,-232.2"/>
<g id="a_edge19&#45;headlabel"><a xlink:href="dir_000016_000001.html" target="_top" xlink:title="2">
<text text-anchor="middle" x="142.95" y="-226.36" font-family="Helvetica,sans-Serif" font-size="10.00" fill="#63b8ff">2</text>
</a>
</g>
</g>
<!-- dir_da605f587a6e9eadd4939071a5b287b2&#45;&gt;dir_e91d843e8f0aa7d6b92ea0c09cf9089b -->
<g id="edge21" class="edge">
<title>dir_da605f587a6e9eadd4939071a5b287b2&#45;&gt;dir_e91d843e8f0aa7d6b92ea0c09cf9089b</title>
<path fill="none" stroke="#63b8ff" d="M98.74,-78.51C86.99,-70.93 71.84,-59.88 60.49,-50.75"/>
<polygon fill="#63b8ff" stroke="#63b8ff" points="62.75,-48.08 52.84,-44.33 58.25,-53.44 62.75,-48.08"/>
<g id="a_edge21&#45;headlabel"><a xlink:href="dir_000016_000005.html" target="_top" xlink:title="3">
<text text-anchor="middle" x="66.17" y="-44.74" font-family="Helvetica,sans-Serif" font-size="10.00" fill="#63b8ff">3</text>
</a>
</g>
</g>
<!-- dir_da605f587a6e9eadd4939071a5b287b2&#45;&gt;dir_2c7347912a4c256662f0916909de91f6 -->
<g id="edge17" class="edge">
<title>dir_da605f587a6e9eadd4939071a5b287b2&#45;&gt;dir_2c7347912a4c256662f0916909de91f6</title>
<path fill="none" stroke="#63b8ff" d="M111.19,-98.2C103.17,-106.23 89.81,-119.13 84,-134 78.32,-148.55 83.79,-165.6 88.79,-178.37"/>
<polygon fill="#63b8ff" stroke="#63b8ff" points="85.39,-179.31 92.35,-187.29 91.89,-176.71 85.39,-179.31"/>
<g id="a_edge17&#45;headlabel"><a xlink:href="dir_000016_000013.html" target="_top" xlink:title="27">
<text text-anchor="middle" x="81.98" y="-175.93" font-family="Helvetica,sans-Serif" font-size="10.00" fill="#63b8ff">27</text>
</a>
</g>
</g>
<!-- dir_da605f587a6e9eadd4939071a5b287b2&#45;&gt;dir_c307836a8a3824cdddc5eadc2484ae0c -->
<g id="edge20" class="edge">
<title>dir_da605f587a6e9eadd4939071a5b287b2&#45;&gt;dir_c307836a8a3824cdddc5eadc2484ae0c</title>
<path fill="none" stroke="#63b8ff" d="M138.09,-98.35C151.28,-106.12 166.27,-118.59 173,-134 195.94,-186.55 189.08,-208.59 171,-263 167.64,-273.1 161.11,-282.88 154.06,-290.68"/>
<polygon fill="#63b8ff" stroke="#63b8ff" points="151.8,-288 147.11,-297.5 156.7,-292.99 151.8,-288"/>
<g id="a_edge20&#45;headlabel"><a xlink:href="dir_000016_000015.html" target="_top" xlink:title="23">
<text text-anchor="middle" x="151.29" y="-282.01" font-family="Helvetica,sans-Serif" font-size="10.00" fill="#63b8ff">23</text>
</a>
</g>
</g>
<!-- dir_da605f587a6e9eadd4939071a5b287b2&#45;&gt;dir_9dcb8a3ca69c67ff49858f399d09016c -->
<g id="edge18" class="edge">
<title>dir_da605f587a6e9eadd4939071a5b287b2&#45;&gt;dir_9dcb8a3ca69c67ff49858f399d09016c</title>
<path fill="none" stroke="#63b8ff" d="M121.21,-98.44C122.58,-104.97 123.04,-114.1 122.57,-122.35"/>
<polygon fill="#63b8ff" stroke="#63b8ff" points="119.1,-121.89 121.35,-132.25 126.05,-122.75 119.1,-121.89"/>
<g id="a_edge18&#45;headlabel"><a xlink:href="dir_000016_000020.html" target="_top" xlink:title="2">
<text text-anchor="middle" x="116.54" y="-116.98" font-family="Helvetica,sans-Serif" font-size="10.00" fill="#63b8ff">2</text>
</a>
</g>
</g>
<!-- dir_9dcb8a3ca69c67ff49858f399d09016c&#45;&gt;dir_2c7347912a4c256662f0916909de91f6 -->
<g id="edge22" class="edge">
<title>dir_9dcb8a3ca69c67ff49858f399d09016c&#45;&gt;dir_2c7347912a4c256662f0916909de91f6</title>
<path fill="none" stroke="#63b8ff" d="M117.33,-153.44C115.78,-160.36 111.95,-170.18 107.6,-178.79"/>
<polygon fill="#63b8ff" stroke="#63b8ff" points="104.59,-177 102.71,-187.43 110.68,-180.45 104.59,-177"/>
<g id="a_edge22&#45;headlabel"><a xlink:href="dir_000020_000013.html" target="_top" xlink:title="4">
<text text-anchor="middle" x="103.15" y="-171.29" font-family="Helvetica,sans-Serif" font-size="10.00" fill="#63b8ff">4</text>
</a>
</g>
</g>
<!-- dir_9dcb8a3ca69c67ff49858f399d09016c&#45;&gt;dir_c307836a8a3824cdddc5eadc2484ae0c -->
<g id="edge23" class="edge">
<title>dir_9dcb8a3ca69c67ff49858f399d09016c&#45;&gt;dir_c307836a8a3824cdddc5eadc2484ae0c</title>
<path fill="none" stroke="#63b8ff" d="M126.3,-153.45C139.45,-170.44 159.03,-208.81 166,-244 167.64,-252.28 168.27,-254.87 166,-263 163.3,-272.65 157.87,-282.29 151.86,-290.12"/>
<polygon fill="#63b8ff" stroke="#63b8ff" points="149.33,-287.69 145.37,-297.51 154.59,-292.31 149.33,-287.69"/>
<g id="a_edge23&#45;headlabel"><a xlink:href="dir_000020_000015.html" target="_top" xlink:title="1">
<text text-anchor="middle" x="148.57" y="-281.75" font-family="Helvetica,sans-Serif" font-size="10.00" fill="#63b8ff">1</text>
</a>
</g>
</g>
<!-- dir_9dcb8a3ca69c67ff49858f399d09016c&#45;&gt;dir_da605f587a6e9eadd4939071a5b287b2 -->
<g id="edge24" class="edge">
<title>dir_9dcb8a3ca69c67ff49858f399d09016c&#45;&gt;dir_da605f587a6e9eadd4939071a5b287b2</title>
<path fill="none" stroke="#63b8ff" d="M110.83,-133.75C109.42,-127.19 108.96,-117.95 109.43,-109.6"/>
<polygon fill="#63b8ff" stroke="#63b8ff" points="112.87,-110.3 110.61,-99.94 105.92,-109.45 112.87,-110.3"/>
<g id="a_edge24&#45;headlabel"><a xlink:href="dir_000020_000016.html" target="_top" xlink:title="2">
<text text-anchor="middle" x="115.44" y="-110.21" font-family="Helvetica,sans-Serif" font-size="10.00" fill="#63b8ff">2</text>
</a>
</g>
</g>
</g>
</svg>
