<?xml version="1.0" encoding="UTF-8" standalone="no"?>
<!DOCTYPE svg PUBLIC "-//W3C//DTD SVG 1.1//EN"
 "http://www.w3.org/Graphics/SVG/1.1/DTD/svg11.dtd">
<!-- Generated by graphviz version 7.1.0 (0)
 -->
<!-- Title: curve Pages: 1 -->
<svg width="134pt" height="133pt"
 viewBox="0.00 0.00 134.00 133.00" xmlns="http://www.w3.org/2000/svg" xmlns:xlink="http://www.w3.org/1999/xlink">
<g id="graph0" class="graph" transform="scale(1 1) rotate(0) translate(4 129)">
<title>curve</title>
<g id="clust1" class="cluster">
<title>clusterdir_9a0adb9856b1b8f79a5aed667f750c45</title>
<g id="a_clust1"><a xlink:href="dir_9a0adb9856b1b8f79a5aed667f750c45.html" target="_top" xlink:title="src">
<polygon fill="#edf0f7" stroke="#7f7f7f" stroke-dasharray="5,2" points="8,-8 8,-117 118,-117 118,-8 8,-8"/>
<text text-anchor="middle" x="63" y="-105" font-family="Helvetica,sans-Serif" font-size="10.00">src</text>
</a>
</g>
</g>
<!-- dir_503391f8f88e69ff0b6bb2ea195a5f61 -->
<g id="node1" class="node">
<title>dir_503391f8f88e69ff0b6bb2ea195a5f61</title>
<g id="a_node1"><a xlink:href="dir_503391f8f88e69ff0b6bb2ea195a5f61.html" target="_top" xlink:title="project">
<polygon fill="#a2b4d6" stroke="red" points="62,-35 16,-35 16,-16 62,-16 62,-35"/>
<text text-anchor="middle" x="39" y="-23" font-family="Helvetica,sans-Serif" font-size="10.00">project</text>
</a>
</g>
</g>
<!-- dir_9268fa4967c416e4e882c5e3d890d467 -->
<g id="node2" class="node">
<title>dir_9268fa4967c416e4e882c5e3d890d467</title>
<g id="a_node2"><a xlink:href="dir_9268fa4967c416e4e882c5e3d890d467.html" target="_top" xlink:title="gui">
<polygon fill="#a2b4d6" stroke="#404040" points="109.5,-35 80.5,-35 80.5,-16 109.5,-16 109.5,-35"/>
<text text-anchor="middle" x="95" y="-23" font-family="Helvetica,sans-Serif" font-size="10.00">gui</text>
</a>
</g>
</g>
<!-- dir_a64f4d3da146dfbb12317d36ed2423d1 -->
<g id="node3" class="node">
<title>dir_a64f4d3da146dfbb12317d36ed2423d1</title>
<g id="a_node3"><a xlink:href="dir_a64f4d3da146dfbb12317d36ed2423d1.html" target="_top" xlink:title="curve">
<polygon fill="#edf0f7" stroke="#404040" stroke-width="2" points="84.5,-90 43.5,-90 43.5,-71 84.5,-71 84.5,-90"/>
<text text-anchor="middle" x="64" y="-78" font-family="Helvetica,sans-Serif" font-size="10.00">curve</text>
</a>
</g>
</g>
<!-- dir_a64f4d3da146dfbb12317d36ed2423d1&#45;&gt;dir_503391f8f88e69ff0b6bb2ea195a5f61 -->
<g id="edge1" class="edge">
<title>dir_a64f4d3da146dfbb12317d36ed2423d1&#45;&gt;dir_503391f8f88e69ff0b6bb2ea195a5f61</title>
<path fill="none" stroke="#63b8ff" d="M59.87,-70.75C56.67,-63.96 52.11,-54.3 48.07,-45.73"/>
<polygon fill="#63b8ff" stroke="#63b8ff" points="51.3,-44.36 43.86,-36.81 44.96,-47.35 51.3,-44.36"/>
<g id="a_edge1&#45;headlabel"><a xlink:href="dir_000005_000017.html" target="_top" xlink:title="7">
<text text-anchor="middle" x="54.75" y="-42.53" font-family="Helvetica,sans-Serif" font-size="10.00" fill="#63b8ff">7</text>
</a>
</g>
</g>
<!-- dir_a64f4d3da146dfbb12317d36ed2423d1&#45;&gt;dir_9268fa4967c416e4e882c5e3d890d467 -->
<g id="edge2" class="edge">
<title>dir_a64f4d3da146dfbb12317d36ed2423d1&#45;&gt;dir_9268fa4967c416e4e882c5e3d890d467</title>
<path fill="none" stroke="#63b8ff" d="M69.12,-70.75C73.18,-63.81 78.99,-53.86 84.09,-45.16"/>
<polygon fill="#63b8ff" stroke="#63b8ff" points="86.98,-47.15 89.01,-36.75 80.94,-43.61 86.98,-47.15"/>
<g id="a_edge2&#45;headlabel"><a xlink:href="dir_000005_000012.html" target="_top" xlink:title="19">
<text text-anchor="middle" x="88.38" y="-47.88" font-family="Helvetica,sans-Serif" font-size="10.00" fill="#63b8ff">19</text>
</a>
</g>
</g>
</g>
</svg>
