<?xml version="1.0" encoding="UTF-8" standalone="no"?>
<!DOCTYPE svg PUBLIC "-//W3C//DTD SVG 1.1//EN"
 "http://www.w3.org/Graphics/SVG/1.1/DTD/svg11.dtd">
<!-- Generated by graphviz version 2.43.0 (0)
 -->
<!-- Title: calc Pages: 1 -->
<svg width="355pt" height="153pt"
 viewBox="0.00 0.00 355.08 153.16" xmlns="http://www.w3.org/2000/svg" xmlns:xlink="http://www.w3.org/1999/xlink">

<svg id="main" version="1.1" xmlns="http://www.w3.org/2000/svg" xmlns:xlink="http://www.w3.org/1999/xlink" xml:space="preserve" onload="init(evt)">
<style type="text/css"><![CDATA[
.node, .edge {opacity: 0.7;}
.node.selected, .edge.selected {opacity: 1;}
.edge:hover path { stroke: red; }
.edge:hover polygon { stroke: red; fill: red; }
]]></style>
<script type="application/ecmascript" xlink:href="svg.min.js"/>
<svg id="graph" class="graph">
<g id="graph0" class="graph" transform="scale(1 1) rotate(0) translate(4 149.16)">
<title>calc</title>
<g id="clust1" class="cluster">
<title>clusterdir_4f43f4cad42e15ad2210eb2040958738</title>
<g id="a_clust1"><a xlink:href="dir_4f43f4cad42e15ad2210eb2040958738.html" target="_top">
<polygon fill="#edf0f7" stroke="#404040" stroke-width="2" points="8,-47.16 8,-137.16 284,-137.16 284,-47.16 8,-47.16"/>
</a>
</g>
</g>
<!-- dir_4f43f4cad42e15ad2210eb2040958738 -->
<g id="node1" class="node">
<title>dir_4f43f4cad42e15ad2210eb2040958738</title>
<text text-anchor="middle" x="258" y="-117.16" font-family="Helvetica,sans-Serif" font-size="10.00">calc</text>
</g>
<!-- dir_00f0a3b1654669903f8939607e046ce9 -->
<g id="node7" class="node">
<title>dir_00f0a3b1654669903f8939607e046ce9</title>
<g id="a_node7"><a xlink:href="dir_00f0a3b1654669903f8939607e046ce9.html" target="_top" xlink:title="project">
<polygon fill="#edf0f7" stroke="red" points="134,-19.16 84,-19.16 84,-0.16 134,-0.16 134,-19.16"/>
<text text-anchor="middle" x="109" y="-7.16" font-family="Helvetica,sans-Serif" font-size="10.00">project</text>
</a>
</g>
</g>
<!-- dir_4f43f4cad42e15ad2210eb2040958738&#45;&gt;dir_00f0a3b1654669903f8939607e046ce9 -->
<g id="edge1" class="edge">
<title>dir_4f43f4cad42e15ad2210eb2040958738&#45;&gt;dir_00f0a3b1654669903f8939607e046ce9</title>
<g id="a_edge1"><a xlink:href="dir_000001_000013.html" target="_top">
<path fill="none" stroke="#63b8ff" d="M239.73,-112.82C236.81,-111.91 233.83,-111 231,-110.16 173.51,-93.16 137.3,-121.88 101,-74.16 91.24,-61.34 95.11,-42.66 100.29,-28.88"/>
<polygon fill="#63b8ff" stroke="#63b8ff" points="103.6,-30.05 104.31,-19.48 97.16,-27.3 103.6,-30.05"/>
</a>
</g>
<g id="a_edge1&#45;headlabel"><a xlink:href="dir_000001_000013.html" target="_top" xlink:title="7">
<text text-anchor="middle" x="104.8" y="-31.97" font-family="Helvetica,sans-Serif" font-size="10.00" fill="#63b8ff">7</text>
</a>
</g>
</g>
<!-- dir_99d0482cf009f9d97a0877749b817f19 -->
<g id="node8" class="node">
<title>dir_99d0482cf009f9d97a0877749b817f19</title>
<g id="a_node8"><a xlink:href="dir_99d0482cf009f9d97a0877749b817f19.html" target="_top" xlink:title="gui">
<polygon fill="#edf0f7" stroke="#404040" points="185,-19.16 153,-19.16 153,-0.16 185,-0.16 185,-19.16"/>
<text text-anchor="middle" x="169" y="-7.16" font-family="Helvetica,sans-Serif" font-size="10.00">gui</text>
</a>
</g>
</g>
<!-- dir_4f43f4cad42e15ad2210eb2040958738&#45;&gt;dir_99d0482cf009f9d97a0877749b817f19 -->
<g id="edge2" class="edge">
<title>dir_4f43f4cad42e15ad2210eb2040958738&#45;&gt;dir_99d0482cf009f9d97a0877749b817f19</title>
<g id="a_edge2"><a xlink:href="dir_000001_000010.html" target="_top">
<path fill="none" stroke="#63b8ff" d="M259.28,-109.75C260.88,-95.14 261.89,-65.88 248,-47.16 241.19,-37.99 214.85,-26.91 194.44,-19.39"/>
<polygon fill="#63b8ff" stroke="#63b8ff" points="195.6,-16.08 185,-16 193.23,-22.67 195.6,-16.08"/>
</a>
</g>
<g id="a_edge2&#45;headlabel"><a xlink:href="dir_000001_000010.html" target="_top" xlink:title="27">
<text text-anchor="middle" x="199.94" y="-12.13" font-family="Helvetica,sans-Serif" font-size="10.00" fill="#63b8ff">27</text>
</a>
</g>
</g>
<!-- dir_e3787dfdbc46fad3e6d80e1f98f95a2e -->
<g id="node9" class="node">
<title>dir_e3787dfdbc46fad3e6d80e1f98f95a2e</title>
<g id="a_node9"><a xlink:href="dir_e3787dfdbc46fad3e6d80e1f98f95a2e.html" target="_top" xlink:title="opengl">
<polygon fill="#edf0f7" stroke="red" points="253,-19.16 203,-19.16 203,-0.16 253,-0.16 253,-19.16"/>
<text text-anchor="middle" x="228" y="-7.16" font-family="Helvetica,sans-Serif" font-size="10.00">opengl</text>
</a>
</g>
</g>
<!-- dir_4f43f4cad42e15ad2210eb2040958738&#45;&gt;dir_e3787dfdbc46fad3e6d80e1f98f95a2e -->
<g id="edge3" class="edge">
<title>dir_4f43f4cad42e15ad2210eb2040958738&#45;&gt;dir_e3787dfdbc46fad3e6d80e1f98f95a2e</title>
<g id="a_edge3"><a xlink:href="dir_000001_000012.html" target="_top">
<path fill="none" stroke="#63b8ff" d="M276.25,-114.83C296.37,-109.52 327.79,-97.78 342,-74.16 348.19,-63.88 349.07,-56.86 342,-47.16 324.15,-22.71 289.71,-14.27 263.33,-11.53"/>
<polygon fill="#63b8ff" stroke="#63b8ff" points="263.56,-8.04 253.31,-10.72 263,-15.02 263.56,-8.04"/>
</a>
</g>
<g id="a_edge3&#45;headlabel"><a xlink:href="dir_000001_000012.html" target="_top" xlink:title="24">
<text text-anchor="middle" x="267.37" y="-3" font-family="Helvetica,sans-Serif" font-size="10.00" fill="#63b8ff">24</text>
</a>
</g>
</g>
<!-- dir_7935327e614a2bfecf294bde09851bf8 -->
<g id="node2" class="node">
<title>dir_7935327e614a2bfecf294bde09851bf8</title>
<g id="a_node2"><a xlink:href="dir_7935327e614a2bfecf294bde09851bf8.html" target="_top" xlink:title="cp2k">
<polygon fill="#a2b4d6" stroke="#404040" points="222,-129.16 182,-129.16 182,-110.16 222,-110.16 222,-129.16"/>
<text text-anchor="middle" x="202" y="-117.16" font-family="Helvetica,sans-Serif" font-size="10.00">cp2k</text>
</a>
</g>
</g>
<!-- dir_2d4ada969e9ccac1ac8749af6eabf93e -->
<g id="node3" class="node">
<title>dir_2d4ada969e9ccac1ac8749af6eabf93e</title>
<g id="a_node3"><a xlink:href="dir_2d4ada969e9ccac1ac8749af6eabf93e.html" target="_top" xlink:title="cpmd">
<polygon fill="#a2b4d6" stroke="#404040" points="224,-74.16 180,-74.16 180,-55.16 224,-55.16 224,-74.16"/>
<text text-anchor="middle" x="202" y="-62.16" font-family="Helvetica,sans-Serif" font-size="10.00">cpmd</text>
</a>
</g>
</g>
<!-- dir_7935327e614a2bfecf294bde09851bf8&#45;&gt;dir_2d4ada969e9ccac1ac8749af6eabf93e -->
<g id="edge5" class="edge">
<title>dir_7935327e614a2bfecf294bde09851bf8&#45;&gt;dir_2d4ada969e9ccac1ac8749af6eabf93e</title>
<g id="a_edge5"><a xlink:href="dir_000002_000003.html" target="_top">
<path fill="none" stroke="#63b8ff" d="M196.83,-109.91C195.34,-102.96 194.9,-93.01 195.52,-84.3"/>
<polygon fill="#63b8ff" stroke="#63b8ff" points="199.01,-84.63 196.87,-74.25 192.07,-83.7 199.01,-84.63"/>
</a>
</g>
<g id="a_edge5&#45;headlabel"><a xlink:href="dir_000002_000003.html" target="_top" xlink:title="1">
<text text-anchor="middle" x="201.34" y="-86.07" font-family="Helvetica,sans-Serif" font-size="10.00" fill="#63b8ff">1</text>
</a>
</g>
</g>
<!-- dir_7935327e614a2bfecf294bde09851bf8&#45;&gt;dir_00f0a3b1654669903f8939607e046ce9 -->
<g id="edge4" class="edge">
<title>dir_7935327e614a2bfecf294bde09851bf8&#45;&gt;dir_00f0a3b1654669903f8939607e046ce9</title>
<g id="a_edge4"><a xlink:href="dir_000002_000013.html" target="_top">
<path fill="none" stroke="#63b8ff" d="M181.99,-112.69C145.48,-101.7 71.45,-78.95 68,-74.16 60.98,-64.43 63.09,-58.11 68,-47.16 71.81,-38.66 78.69,-31.33 85.74,-25.52"/>
<polygon fill="#63b8ff" stroke="#63b8ff" points="88,-28.2 93.92,-19.41 83.81,-22.59 88,-28.2"/>
</a>
</g>
<g id="a_edge4&#45;headlabel"><a xlink:href="dir_000002_000013.html" target="_top" xlink:title="2">
<text text-anchor="middle" x="86.82" y="-30.12" font-family="Helvetica,sans-Serif" font-size="10.00" fill="#63b8ff">2</text>
</a>
</g>
</g>
<!-- dir_7935327e614a2bfecf294bde09851bf8&#45;&gt;dir_99d0482cf009f9d97a0877749b817f19 -->
<g id="edge6" class="edge">
<title>dir_7935327e614a2bfecf294bde09851bf8&#45;&gt;dir_99d0482cf009f9d97a0877749b817f19</title>
<g id="a_edge6"><a xlink:href="dir_000002_000010.html" target="_top">
<path fill="none" stroke="#63b8ff" d="M210.94,-109.99C224.02,-96.21 245.5,-68.69 233,-47.16 228.58,-39.56 210.46,-29.6 194.62,-22"/>
<polygon fill="#63b8ff" stroke="#63b8ff" points="195.73,-18.66 185.19,-17.62 192.78,-25.01 195.73,-18.66"/>
</a>
</g>
<g id="a_edge6&#45;headlabel"><a xlink:href="dir_000002_000010.html" target="_top" xlink:title="6">
<text text-anchor="middle" x="200.19" y="-15.1" font-family="Helvetica,sans-Serif" font-size="10.00" fill="#63b8ff">6</text>
</a>
</g>
</g>
<!-- dir_7935327e614a2bfecf294bde09851bf8&#45;&gt;dir_e3787dfdbc46fad3e6d80e1f98f95a2e -->
<g id="edge7" class="edge">
<title>dir_7935327e614a2bfecf294bde09851bf8&#45;&gt;dir_e3787dfdbc46fad3e6d80e1f98f95a2e</title>
<g id="a_edge7"><a xlink:href="dir_000002_000012.html" target="_top">
<path fill="none" stroke="#63b8ff" d="M222.23,-110.77C237.32,-103.68 256.85,-91.67 266,-74.16 271.56,-63.53 270.7,-58.2 266,-47.16 262.52,-39 256.22,-31.78 249.74,-25.96"/>
<polygon fill="#63b8ff" stroke="#63b8ff" points="251.59,-22.96 241.62,-19.38 247.18,-28.4 251.59,-22.96"/>
</a>
</g>
<g id="a_edge7&#45;headlabel"><a xlink:href="dir_000002_000012.html" target="_top" xlink:title="4">
<text text-anchor="middle" x="256.17" y="-20.52" font-family="Helvetica,sans-Serif" font-size="10.00" fill="#63b8ff">4</text>
</a>
</g>
</g>
<!-- dir_2d4ada969e9ccac1ac8749af6eabf93e&#45;&gt;dir_7935327e614a2bfecf294bde09851bf8 -->
<g id="edge9" class="edge">
<title>dir_2d4ada969e9ccac1ac8749af6eabf93e&#45;&gt;dir_7935327e614a2bfecf294bde09851bf8</title>
<g id="a_edge9"><a xlink:href="dir_000003_000002.html" target="_top">
<path fill="none" stroke="#63b8ff" d="M207.13,-74.25C208.64,-81.15 209.09,-91.09 208.49,-99.82"/>
<polygon fill="#63b8ff" stroke="#63b8ff" points="205,-99.54 207.17,-109.91 211.94,-100.45 205,-99.54"/>
</a>
</g>
<g id="a_edge9&#45;headlabel"><a xlink:href="dir_000003_000002.html" target="_top" xlink:title="2">
<text text-anchor="middle" x="202.65" y="-93.11" font-family="Helvetica,sans-Serif" font-size="10.00" fill="#63b8ff">2</text>
</a>
</g>
</g>
<!-- dir_2d4ada969e9ccac1ac8749af6eabf93e&#45;&gt;dir_00f0a3b1654669903f8939607e046ce9 -->
<g id="edge8" class="edge">
<title>dir_2d4ada969e9ccac1ac8749af6eabf93e&#45;&gt;dir_00f0a3b1654669903f8939607e046ce9</title>
<g id="a_edge8"><a xlink:href="dir_000003_000013.html" target="_top">
<path fill="none" stroke="#63b8ff" d="M187.06,-55.15C172.5,-46.85 150.13,-34.1 133.07,-24.38"/>
<polygon fill="#63b8ff" stroke="#63b8ff" points="134.64,-21.24 124.21,-19.33 131.17,-27.33 134.64,-21.24"/>
</a>
</g>
<g id="a_edge8&#45;headlabel"><a xlink:href="dir_000003_000013.html" target="_top" xlink:title="1">
<text text-anchor="middle" x="139.16" y="-18.06" font-family="Helvetica,sans-Serif" font-size="10.00" fill="#63b8ff">1</text>
</a>
</g>
</g>
<!-- dir_2d4ada969e9ccac1ac8749af6eabf93e&#45;&gt;dir_99d0482cf009f9d97a0877749b817f19 -->
<g id="edge10" class="edge">
<title>dir_2d4ada969e9ccac1ac8749af6eabf93e&#45;&gt;dir_99d0482cf009f9d97a0877749b817f19</title>
<g id="a_edge10"><a xlink:href="dir_000003_000010.html" target="_top">
<path fill="none" stroke="#63b8ff" d="M196.55,-54.91C191.99,-47.58 185.33,-36.89 179.71,-27.86"/>
<polygon fill="#63b8ff" stroke="#63b8ff" points="182.6,-25.89 174.35,-19.25 176.66,-29.59 182.6,-25.89"/>
</a>
</g>
<g id="a_edge10&#45;headlabel"><a xlink:href="dir_000003_000010.html" target="_top" xlink:title="7">
<text text-anchor="middle" x="186.91" y="-24.94" font-family="Helvetica,sans-Serif" font-size="10.00" fill="#63b8ff">7</text>
</a>
</g>
</g>
<!-- dir_2d4ada969e9ccac1ac8749af6eabf93e&#45;&gt;dir_e3787dfdbc46fad3e6d80e1f98f95a2e -->
<g id="edge11" class="edge">
<title>dir_2d4ada969e9ccac1ac8749af6eabf93e&#45;&gt;dir_e3787dfdbc46fad3e6d80e1f98f95a2e</title>
<g id="a_edge11"><a xlink:href="dir_000003_000012.html" target="_top">
<path fill="none" stroke="#63b8ff" d="M206.29,-54.91C209.81,-47.73 214.91,-37.34 219.28,-28.43"/>
<polygon fill="#63b8ff" stroke="#63b8ff" points="222.52,-29.77 223.79,-19.25 216.24,-26.69 222.52,-29.77"/>
</a>
</g>
<g id="a_edge11&#45;headlabel"><a xlink:href="dir_000003_000012.html" target="_top" xlink:title="4">
<text text-anchor="middle" x="223.49" y="-31.75" font-family="Helvetica,sans-Serif" font-size="10.00" fill="#63b8ff">4</text>
</a>
</g>
</g>
<!-- dir_5b004bdd7867c2be8ce06732d22e6b2f -->
<g id="node4" class="node">
<title>dir_5b004bdd7867c2be8ce06732d22e6b2f</title>
<g id="a_node4"><a xlink:href="dir_5b004bdd7867c2be8ce06732d22e6b2f.html" target="_top" xlink:title="dl_poly">
<polygon fill="#a2b4d6" stroke="#404040" points="162,-74.16 110,-74.16 110,-55.16 162,-55.16 162,-74.16"/>
<text text-anchor="middle" x="136" y="-62.16" font-family="Helvetica,sans-Serif" font-size="10.00">dl_poly</text>
</a>
</g>
</g>
<!-- dir_5b004bdd7867c2be8ce06732d22e6b2f&#45;&gt;dir_00f0a3b1654669903f8939607e046ce9 -->
<g id="edge12" class="edge">
<title>dir_5b004bdd7867c2be8ce06732d22e6b2f&#45;&gt;dir_00f0a3b1654669903f8939607e046ce9</title>
<g id="a_edge12"><a xlink:href="dir_000005_000013.html" target="_top">
<path fill="none" stroke="#63b8ff" d="M131.54,-54.91C127.88,-47.73 122.59,-37.34 118.05,-28.43"/>
<polygon fill="#63b8ff" stroke="#63b8ff" points="121.03,-26.57 113.38,-19.25 114.8,-29.75 121.03,-26.57"/>
</a>
</g>
<g id="a_edge12&#45;headlabel"><a xlink:href="dir_000005_000013.html" target="_top" xlink:title="3">
<text text-anchor="middle" x="125.2" y="-25.99" font-family="Helvetica,sans-Serif" font-size="10.00" fill="#63b8ff">3</text>
</a>
</g>
</g>
<!-- dir_5b004bdd7867c2be8ce06732d22e6b2f&#45;&gt;dir_99d0482cf009f9d97a0877749b817f19 -->
<g id="edge13" class="edge">
<title>dir_5b004bdd7867c2be8ce06732d22e6b2f&#45;&gt;dir_99d0482cf009f9d97a0877749b817f19</title>
<g id="a_edge13"><a xlink:href="dir_000005_000010.html" target="_top">
<path fill="none" stroke="#63b8ff" d="M141.45,-54.91C146.01,-47.58 152.67,-36.89 158.29,-27.86"/>
<polygon fill="#63b8ff" stroke="#63b8ff" points="161.34,-29.59 163.65,-19.25 155.4,-25.89 161.34,-29.59"/>
</a>
</g>
<g id="a_edge13&#45;headlabel"><a xlink:href="dir_000005_000010.html" target="_top" xlink:title="11">
<text text-anchor="middle" x="161.85" y="-31.64" font-family="Helvetica,sans-Serif" font-size="10.00" fill="#63b8ff">11</text>
</a>
</g>
</g>
<!-- dir_5b004bdd7867c2be8ce06732d22e6b2f&#45;&gt;dir_e3787dfdbc46fad3e6d80e1f98f95a2e -->
<g id="edge14" class="edge">
<title>dir_5b004bdd7867c2be8ce06732d22e6b2f&#45;&gt;dir_e3787dfdbc46fad3e6d80e1f98f95a2e</title>
<g id="a_edge14"><a xlink:href="dir_000005_000012.html" target="_top">
<path fill="none" stroke="#63b8ff" d="M150.78,-55.15C165.18,-46.85 187.31,-34.1 204.19,-24.38"/>
<polygon fill="#63b8ff" stroke="#63b8ff" points="206.03,-27.36 212.95,-19.33 202.54,-21.29 206.03,-27.36"/>
</a>
</g>
<g id="a_edge14&#45;headlabel"><a xlink:href="dir_000005_000012.html" target="_top" xlink:title="14">
<text text-anchor="middle" x="204.33" y="-29.11" font-family="Helvetica,sans-Serif" font-size="10.00" fill="#63b8ff">14</text>
</a>
</g>
</g>
<!-- dir_9f480b89fec9a684b7c248cdfb24f4cb -->
<g id="node5" class="node">
<title>dir_9f480b89fec9a684b7c248cdfb24f4cb</title>
<g id="a_node5"><a xlink:href="dir_9f480b89fec9a684b7c248cdfb24f4cb.html" target="_top" xlink:title="force_fields">
<polygon fill="#a2b4d6" stroke="#404040" points="89.5,-129.16 16.5,-129.16 16.5,-110.16 89.5,-110.16 89.5,-129.16"/>
<text text-anchor="middle" x="53" y="-117.16" font-family="Helvetica,sans-Serif" font-size="10.00">force_fields</text>
</a>
</g>
</g>
<!-- dir_9f480b89fec9a684b7c248cdfb24f4cb&#45;&gt;dir_5b004bdd7867c2be8ce06732d22e6b2f -->
<g id="edge15" class="edge">
<title>dir_9f480b89fec9a684b7c248cdfb24f4cb&#45;&gt;dir_5b004bdd7867c2be8ce06732d22e6b2f</title>
<g id="a_edge15"><a xlink:href="dir_000008_000005.html" target="_top">
<path fill="none" stroke="#63b8ff" d="M66.34,-110.15C79.09,-102.01 98.55,-89.57 113.67,-79.92"/>
<polygon fill="#63b8ff" stroke="#63b8ff" points="115.88,-82.66 122.42,-74.33 112.11,-76.77 115.88,-82.66"/>
</a>
</g>
<g id="a_edge15&#45;headlabel"><a xlink:href="dir_000008_000005.html" target="_top" xlink:title="1">
<text text-anchor="middle" x="114.38" y="-84.49" font-family="Helvetica,sans-Serif" font-size="10.00" fill="#63b8ff">1</text>
</a>
</g>
</g>
<!-- dir_9f480b89fec9a684b7c248cdfb24f4cb&#45;&gt;dir_99d0482cf009f9d97a0877749b817f19 -->
<g id="edge16" class="edge">
<title>dir_9f480b89fec9a684b7c248cdfb24f4cb&#45;&gt;dir_99d0482cf009f9d97a0877749b817f19</title>
<g id="a_edge16"><a xlink:href="dir_000008_000010.html" target="_top">
<path fill="none" stroke="#63b8ff" d="M55.98,-110.1C61.45,-95.48 74.34,-65.53 94,-47.16 101.67,-40 124.7,-29.24 143.23,-21.26"/>
<polygon fill="#63b8ff" stroke="#63b8ff" points="144.83,-24.39 152.68,-17.27 142.1,-17.94 144.83,-24.39"/>
</a>
</g>
<g id="a_edge16&#45;headlabel"><a xlink:href="dir_000008_000010.html" target="_top" xlink:title="1">
<text text-anchor="middle" x="142.63" y="-25.9" font-family="Helvetica,sans-Serif" font-size="10.00" fill="#63b8ff">1</text>
</a>
</g>
</g>
<!-- dir_8ffd6d7ceaab3872ca95860f90f7e0dc -->
<g id="node6" class="node">
<title>dir_8ffd6d7ceaab3872ca95860f90f7e0dc</title>
<g id="a_node6"><a xlink:href="dir_8ffd6d7ceaab3872ca95860f90f7e0dc.html" target="_top" xlink:title="lammps">
<polygon fill="#a2b4d6" stroke="#404040" points="164,-129.16 108,-129.16 108,-110.16 164,-110.16 164,-129.16"/>
<text text-anchor="middle" x="136" y="-117.16" font-family="Helvetica,sans-Serif" font-size="10.00">lammps</text>
</a>
</g>
</g>
<!-- dir_8ffd6d7ceaab3872ca95860f90f7e0dc&#45;&gt;dir_5b004bdd7867c2be8ce06732d22e6b2f -->
<g id="edge17" class="edge">
<title>dir_8ffd6d7ceaab3872ca95860f90f7e0dc&#45;&gt;dir_5b004bdd7867c2be8ce06732d22e6b2f</title>
<g id="a_edge17"><a xlink:href="dir_000011_000005.html" target="_top">
<path fill="none" stroke="#63b8ff" d="M136,-109.91C136,-102.96 136,-93.01 136,-84.3"/>
<polygon fill="#63b8ff" stroke="#63b8ff" points="139.5,-84.25 136,-74.25 132.5,-84.25 139.5,-84.25"/>
</a>
</g>
<g id="a_edge17&#45;headlabel"><a xlink:href="dir_000011_000005.html" target="_top" xlink:title="1">
<text text-anchor="middle" x="142.34" y="-85.35" font-family="Helvetica,sans-Serif" font-size="10.00" fill="#63b8ff">1</text>
</a>
</g>
</g>
<!-- dir_8ffd6d7ceaab3872ca95860f90f7e0dc&#45;&gt;dir_99d0482cf009f9d97a0877749b817f19 -->
<g id="edge18" class="edge">
<title>dir_8ffd6d7ceaab3872ca95860f90f7e0dc&#45;&gt;dir_99d0482cf009f9d97a0877749b817f19</title>
<g id="a_edge18"><a xlink:href="dir_000011_000010.html" target="_top">
<path fill="none" stroke="#63b8ff" d="M126.15,-110.06C111.74,-96.38 87.95,-68.99 101,-47.16 105.86,-39.04 126.06,-28.77 143.2,-21.19"/>
<polygon fill="#63b8ff" stroke="#63b8ff" points="144.98,-24.23 152.79,-17.08 142.22,-17.8 144.98,-24.23"/>
</a>
</g>
<g id="a_edge18&#45;headlabel"><a xlink:href="dir_000011_000010.html" target="_top" xlink:title="1">
<text text-anchor="middle" x="142.79" y="-25.76" font-family="Helvetica,sans-Serif" font-size="10.00" fill="#63b8ff">1</text>
</a>
</g>
</g>
</g>
</svg>
</svg>

<style type='text/css'>
<![CDATA[
[data-mouse-over-selected='false'] { opacity: 0.7; }
[data-mouse-over-selected='true']  { opacity: 1.0; }
]]>
</style>
<script type="application/ecmascript"><![CDATA[
document.addEventListener('DOMContentLoaded', (event) => {
  highlightEdges();
  highlightAdjacentNodes();
});
]]></script>
</svg>
