<?xml version="1.0" encoding="UTF-8" standalone="no"?>
<!DOCTYPE svg PUBLIC "-//W3C//DTD SVG 1.1//EN"
 "http://www.w3.org/Graphics/SVG/1.1/DTD/svg11.dtd">
<!-- Generated by graphviz version 2.43.0 (0)
 -->
<!-- Title: /home/slookeur/files/codeblocks&#45;files/atomes/src Pages: 1 -->
<svg width="226pt" height="424pt"
 viewBox="0.00 0.00 226.00 424.00" xmlns="http://www.w3.org/2000/svg" xmlns:xlink="http://www.w3.org/1999/xlink">
<g id="graph0" class="graph" transform="scale(1 1) rotate(0) translate(4 420)">
<title>/home/slookeur/files/codeblocks&#45;files/atomes/src</title>
<g id="clust1" class="cluster">
<title>clusterdir_ac38f4d25b06e0e29ae53169a8759171</title>
<g id="a_clust1"><a xlink:href="dir_ac38f4d25b06e0e29ae53169a8759171.html" target="_top" xlink:title="atomes">
<polygon fill="#edf0f7" stroke="#7f7f7f" stroke-dasharray="5,2" points="8,-8 8,-408 210,-408 210,-8 8,-8"/>
<text text-anchor="middle" x="109" y="-396" font-family="Helvetica,sans-Serif" font-size="10.00">atomes</text>
</a>
</g>
</g>
<g id="clust2" class="cluster">
<title>clusterdir_824f65ee6c46d990d1a8cba394b0bf35</title>
<g id="a_clust2"><a xlink:href="dir_824f65ee6c46d990d1a8cba394b0bf35.html" target="_top">
<polygon fill="#edf0f7" stroke="#404040" stroke-width="2" points="16,-16 16,-381 202,-381 202,-16 16,-16"/>
</a>
</g>
</g>
<!-- dir_824f65ee6c46d990d1a8cba394b0bf35 -->
<g id="node1" class="node">
<title>dir_824f65ee6c46d990d1a8cba394b0bf35</title>
<text text-anchor="middle" x="136" y="-361" font-family="Helvetica,sans-Serif" font-size="10.00">src</text>
</g>
<!-- dir_9ae3e17586b91db62976387a5c397c96 -->
<g id="node6" class="node">
<title>dir_9ae3e17586b91db62976387a5c397c96</title>
<g id="a_node6"><a xlink:href="dir_9ae3e17586b91db62976387a5c397c96.html" target="_top" xlink:title="opengl">
<polygon fill="#a2b4d6" stroke="#404040" points="161,-318 111,-318 111,-299 161,-299 161,-318"/>
<text text-anchor="middle" x="136" y="-306" font-family="Helvetica,sans-Serif" font-size="10.00">opengl</text>
</a>
</g>
</g>
<!-- dir_824f65ee6c46d990d1a8cba394b0bf35&#45;&gt;dir_9ae3e17586b91db62976387a5c397c96 -->
<g id="edge1" class="edge">
<title>dir_824f65ee6c46d990d1a8cba394b0bf35&#45;&gt;dir_9ae3e17586b91db62976387a5c397c96</title>
<g id="a_edge1"><a xlink:href="dir_000019_000015.html" target="_top">
<path fill="none" stroke="#63b8ff" d="M136,-353.75C136,-346.8 136,-336.85 136,-328.13"/>
<polygon fill="#63b8ff" stroke="#63b8ff" points="139.5,-328.09 136,-318.09 132.5,-328.09 139.5,-328.09"/>
</a>
</g>
<g id="a_edge1&#45;headlabel"><a xlink:href="dir_000019_000015.html" target="_top" xlink:title="79">
<text text-anchor="middle" x="142.34" y="-329.18" font-family="Helvetica,sans-Serif" font-size="10.00" fill="#63b8ff">79</text>
</a>
</g>
</g>
<!-- dir_23f6eabde111695d9ecc40bd26b8f8c7 -->
<g id="node2" class="node">
<title>dir_23f6eabde111695d9ecc40bd26b8f8c7</title>
<g id="a_node2"><a xlink:href="dir_23f6eabde111695d9ecc40bd26b8f8c7.html" target="_top" xlink:title="calc">
<polygon fill="#a2b4d6" stroke="#404040" points="154,-263 118,-263 118,-244 154,-244 154,-263"/>
<text text-anchor="middle" x="136" y="-251" font-family="Helvetica,sans-Serif" font-size="10.00">calc</text>
</a>
</g>
</g>
<!-- dir_34f6e4a59dd3faec6332be8c96b107c2 -->
<g id="node5" class="node">
<title>dir_34f6e4a59dd3faec6332be8c96b107c2</title>
<g id="a_node5"><a xlink:href="dir_34f6e4a59dd3faec6332be8c96b107c2.html" target="_top" xlink:title="gui">
<polygon fill="#a2b4d6" stroke="#404040" points="115,-208 83,-208 83,-189 115,-189 115,-208"/>
<text text-anchor="middle" x="99" y="-196" font-family="Helvetica,sans-Serif" font-size="10.00">gui</text>
</a>
</g>
</g>
<!-- dir_23f6eabde111695d9ecc40bd26b8f8c7&#45;&gt;dir_34f6e4a59dd3faec6332be8c96b107c2 -->
<g id="edge2" class="edge">
<title>dir_23f6eabde111695d9ecc40bd26b8f8c7&#45;&gt;dir_34f6e4a59dd3faec6332be8c96b107c2</title>
<g id="a_edge2"><a xlink:href="dir_000002_000013.html" target="_top">
<path fill="none" stroke="#63b8ff" d="M124.72,-243.75C118.1,-236.49 110.33,-225.95 104.81,-216.98"/>
<polygon fill="#63b8ff" stroke="#63b8ff" points="107.79,-215.12 99.87,-208.09 101.67,-218.53 107.79,-215.12"/>
</a>
</g>
<g id="a_edge2&#45;headlabel"><a xlink:href="dir_000002_000013.html" target="_top" xlink:title="27">
<text text-anchor="middle" x="112.02" y="-214.39" font-family="Helvetica,sans-Serif" font-size="10.00" fill="#63b8ff">27</text>
</a>
</g>
</g>
<!-- dir_23f6eabde111695d9ecc40bd26b8f8c7&#45;&gt;dir_9ae3e17586b91db62976387a5c397c96 -->
<g id="edge3" class="edge">
<title>dir_23f6eabde111695d9ecc40bd26b8f8c7&#45;&gt;dir_9ae3e17586b91db62976387a5c397c96</title>
<g id="a_edge3"><a xlink:href="dir_000002_000015.html" target="_top">
<path fill="none" stroke="#63b8ff" d="M141.13,-263.09C142.64,-269.99 143.09,-279.93 142.49,-288.66"/>
<polygon fill="#63b8ff" stroke="#63b8ff" points="139,-288.38 141.17,-298.75 145.94,-289.29 139,-288.38"/>
</a>
</g>
<g id="a_edge3&#45;headlabel"><a xlink:href="dir_000002_000015.html" target="_top" xlink:title="24">
<text text-anchor="middle" x="136.65" y="-281.94" font-family="Helvetica,sans-Serif" font-size="10.00" fill="#63b8ff">24</text>
</a>
</g>
</g>
<!-- dir_b1a8941be30432c9b1bb4ec8314a47e1 -->
<g id="node7" class="node">
<title>dir_b1a8941be30432c9b1bb4ec8314a47e1</title>
<g id="a_node7"><a xlink:href="dir_b1a8941be30432c9b1bb4ec8314a47e1.html" target="_top" xlink:title="project">
<polygon fill="#a2b4d6" stroke="#404040" points="144,-98 94,-98 94,-79 144,-79 144,-98"/>
<text text-anchor="middle" x="119" y="-86" font-family="Helvetica,sans-Serif" font-size="10.00">project</text>
</a>
</g>
</g>
<!-- dir_23f6eabde111695d9ecc40bd26b8f8c7&#45;&gt;dir_b1a8941be30432c9b1bb4ec8314a47e1 -->
<g id="edge4" class="edge">
<title>dir_23f6eabde111695d9ecc40bd26b8f8c7&#45;&gt;dir_b1a8941be30432c9b1bb4ec8314a47e1</title>
<g id="a_edge4"><a xlink:href="dir_000002_000016.html" target="_top">
<path fill="none" stroke="#63b8ff" d="M136.79,-243.87C144.28,-223.91 170.12,-173.23 154,-134 149.29,-122.54 140.05,-112.47 132.04,-104.81"/>
<polygon fill="#63b8ff" stroke="#63b8ff" points="134.39,-102.21 124.66,-98 129.64,-107.35 134.39,-102.21"/>
</a>
</g>
<g id="a_edge4&#45;headlabel"><a xlink:href="dir_000002_000016.html" target="_top" xlink:title="7">
<text text-anchor="middle" x="138.95" y="-100.06" font-family="Helvetica,sans-Serif" font-size="10.00" fill="#63b8ff">7</text>
</a>
</g>
</g>
<!-- dir_31ed563dab755144156c40147d1107ba -->
<g id="node3" class="node">
<title>dir_31ed563dab755144156c40147d1107ba</title>
<g id="a_node3"><a xlink:href="dir_31ed563dab755144156c40147d1107ba.html" target="_top" xlink:title="curve">
<polygon fill="#a2b4d6" stroke="#404040" points="68,-43 24,-43 24,-24 68,-24 68,-43"/>
<text text-anchor="middle" x="46" y="-31" font-family="Helvetica,sans-Serif" font-size="10.00">curve</text>
</a>
</g>
</g>
<!-- dir_31ed563dab755144156c40147d1107ba&#45;&gt;dir_34f6e4a59dd3faec6332be8c96b107c2 -->
<g id="edge5" class="edge">
<title>dir_31ed563dab755144156c40147d1107ba&#45;&gt;dir_34f6e4a59dd3faec6332be8c96b107c2</title>
<g id="a_edge5"><a xlink:href="dir_000006_000013.html" target="_top">
<path fill="none" stroke="#63b8ff" d="M51.14,-43.17C56.9,-63.22 61.89,-114.08 78,-153 82,-162.67 88.27,-172.42 93.28,-180.32"/>
<polygon fill="#63b8ff" stroke="#63b8ff" points="90.33,-182.21 98.54,-188.91 96.3,-178.55 90.33,-182.21"/>
</a>
</g>
<g id="a_edge5&#45;headlabel"><a xlink:href="dir_000006_000013.html" target="_top" xlink:title="19">
<text text-anchor="middle" x="86.03" y="-178.12" font-family="Helvetica,sans-Serif" font-size="10.00" fill="#63b8ff">19</text>
</a>
</g>
</g>
<!-- dir_31ed563dab755144156c40147d1107ba&#45;&gt;dir_b1a8941be30432c9b1bb4ec8314a47e1 -->
<g id="edge6" class="edge">
<title>dir_31ed563dab755144156c40147d1107ba&#45;&gt;dir_b1a8941be30432c9b1bb4ec8314a47e1</title>
<g id="a_edge6"><a xlink:href="dir_000006_000016.html" target="_top">
<path fill="none" stroke="#63b8ff" d="M63.09,-43.17C75.79,-51.13 92.61,-63.11 104.62,-72.6"/>
<polygon fill="#63b8ff" stroke="#63b8ff" points="102.44,-75.34 112.39,-78.98 106.88,-69.93 102.44,-75.34"/>
</a>
</g>
<g id="a_edge6&#45;headlabel"><a xlink:href="dir_000006_000016.html" target="_top" xlink:title="7">
<text text-anchor="middle" x="97.86" y="-72.75" font-family="Helvetica,sans-Serif" font-size="10.00" fill="#63b8ff">7</text>
</a>
</g>
</g>
<!-- dir_4eebeb0b49e6188c8cab198499fa8534 -->
<g id="node4" class="node">
<title>dir_4eebeb0b49e6188c8cab198499fa8534</title>
<g id="a_node4"><a xlink:href="dir_4eebeb0b49e6188c8cab198499fa8534.html" target="_top" xlink:title="fortran">
<polygon fill="#a2b4d6" stroke="#404040" points="88,-373 38,-373 38,-354 88,-354 88,-373"/>
<text text-anchor="middle" x="63" y="-361" font-family="Helvetica,sans-Serif" font-size="10.00">fortran</text>
</a>
</g>
</g>
<!-- dir_34f6e4a59dd3faec6332be8c96b107c2&#45;&gt;dir_23f6eabde111695d9ecc40bd26b8f8c7 -->
<g id="edge7" class="edge">
<title>dir_34f6e4a59dd3faec6332be8c96b107c2&#45;&gt;dir_23f6eabde111695d9ecc40bd26b8f8c7</title>
<g id="a_edge7"><a xlink:href="dir_000013_000002.html" target="_top">
<path fill="none" stroke="#63b8ff" d="M110.13,-208.09C116.73,-215.29 124.51,-225.82 130.06,-234.82"/>
<polygon fill="#63b8ff" stroke="#63b8ff" points="127.12,-236.73 135.06,-243.75 133.23,-233.31 127.12,-236.73"/>
</a>
</g>
<g id="a_edge7&#45;headlabel"><a xlink:href="dir_000013_000002.html" target="_top" xlink:title="1">
<text text-anchor="middle" x="122.89" y="-232.48" font-family="Helvetica,sans-Serif" font-size="10.00" fill="#63b8ff">1</text>
</a>
</g>
</g>
<!-- dir_34f6e4a59dd3faec6332be8c96b107c2&#45;&gt;dir_31ed563dab755144156c40147d1107ba -->
<g id="edge8" class="edge">
<title>dir_34f6e4a59dd3faec6332be8c96b107c2&#45;&gt;dir_31ed563dab755144156c40147d1107ba</title>
<g id="a_edge8"><a xlink:href="dir_000013_000006.html" target="_top">
<path fill="none" stroke="#63b8ff" d="M84.77,-188.91C75.74,-180.37 65.63,-166.6 60,-153 46.16,-119.55 40.52,-77.29 41.09,-53.34"/>
<polygon fill="#63b8ff" stroke="#63b8ff" points="44.59,-53.4 41.85,-43.17 37.61,-52.88 44.59,-53.4"/>
</a>
</g>
<g id="a_edge8&#45;headlabel"><a xlink:href="dir_000013_000006.html" target="_top" xlink:title="8">
<text text-anchor="middle" x="47.15" y="-54.7" font-family="Helvetica,sans-Serif" font-size="10.00" fill="#63b8ff">8</text>
</a>
</g>
</g>
<!-- dir_34f6e4a59dd3faec6332be8c96b107c2&#45;&gt;dir_9ae3e17586b91db62976387a5c397c96 -->
<g id="edge9" class="edge">
<title>dir_34f6e4a59dd3faec6332be8c96b107c2&#45;&gt;dir_9ae3e17586b91db62976387a5c397c96</title>
<g id="a_edge9"><a xlink:href="dir_000013_000015.html" target="_top">
<path fill="none" stroke="#63b8ff" d="M105.29,-208.4C109.01,-220.93 111.17,-244.34 118,-263 121.45,-272.43 126.99,-282.05 131.42,-289.93"/>
<polygon fill="#63b8ff" stroke="#63b8ff" points="128.38,-291.67 136.2,-298.82 134.55,-288.36 128.38,-291.67"/>
</a>
</g>
<g id="a_edge9&#45;headlabel"><a xlink:href="dir_000013_000015.html" target="_top" xlink:title="12">
<text text-anchor="middle" x="124.18" y="-287.35" font-family="Helvetica,sans-Serif" font-size="10.00" fill="#63b8ff">12</text>
</a>
</g>
</g>
<!-- dir_34f6e4a59dd3faec6332be8c96b107c2&#45;&gt;dir_b1a8941be30432c9b1bb4ec8314a47e1 -->
<g id="edge10" class="edge">
<title>dir_34f6e4a59dd3faec6332be8c96b107c2&#45;&gt;dir_b1a8941be30432c9b1bb4ec8314a47e1</title>
<g id="a_edge10"><a xlink:href="dir_000013_000016.html" target="_top">
<path fill="none" stroke="#63b8ff" d="M85.74,-188.8C73.35,-176.49 59.18,-153.35 67,-134 71.78,-122.17 81.38,-111.74 91.19,-103.96"/>
<polygon fill="#63b8ff" stroke="#63b8ff" points="93.31,-106.75 99.39,-98.07 89.23,-101.06 93.31,-106.75"/>
</a>
</g>
<g id="a_edge10&#45;headlabel"><a xlink:href="dir_000013_000016.html" target="_top" xlink:title="17">
<text text-anchor="middle" x="92.05" y="-108.65" font-family="Helvetica,sans-Serif" font-size="10.00" fill="#63b8ff">17</text>
</a>
</g>
</g>
<!-- dir_d9c5a349be5ac0e9651fe82cc716d8dc -->
<g id="node8" class="node">
<title>dir_d9c5a349be5ac0e9651fe82cc716d8dc</title>
<g id="a_node8"><a xlink:href="dir_d9c5a349be5ac0e9651fe82cc716d8dc.html" target="_top" xlink:title="workspace">
<polygon fill="#a2b4d6" stroke="#404040" points="153.5,-153 84.5,-153 84.5,-134 153.5,-134 153.5,-153"/>
<text text-anchor="middle" x="119" y="-141" font-family="Helvetica,sans-Serif" font-size="10.00">workspace</text>
</a>
</g>
</g>
<!-- dir_34f6e4a59dd3faec6332be8c96b107c2&#45;&gt;dir_d9c5a349be5ac0e9651fe82cc716d8dc -->
<g id="edge11" class="edge">
<title>dir_34f6e4a59dd3faec6332be8c96b107c2&#45;&gt;dir_d9c5a349be5ac0e9651fe82cc716d8dc</title>
<g id="a_edge11"><a xlink:href="dir_000013_000021.html" target="_top">
<path fill="none" stroke="#63b8ff" d="M97.14,-188.75C98.31,-181.49 101.88,-170.95 106.01,-161.98"/>
<polygon fill="#63b8ff" stroke="#63b8ff" points="109.13,-163.58 110.63,-153.09 102.92,-160.35 109.13,-163.58"/>
</a>
</g>
<g id="a_edge11&#45;headlabel"><a xlink:href="dir_000013_000021.html" target="_top" xlink:title="7">
<text text-anchor="middle" x="109.99" y="-165.58" font-family="Helvetica,sans-Serif" font-size="10.00" fill="#63b8ff">7</text>
</a>
</g>
</g>
<!-- dir_9ae3e17586b91db62976387a5c397c96&#45;&gt;dir_23f6eabde111695d9ecc40bd26b8f8c7 -->
<g id="edge12" class="edge">
<title>dir_9ae3e17586b91db62976387a5c397c96&#45;&gt;dir_23f6eabde111695d9ecc40bd26b8f8c7</title>
<g id="a_edge12"><a xlink:href="dir_000015_000002.html" target="_top">
<path fill="none" stroke="#63b8ff" d="M130.83,-298.75C129.34,-291.8 128.9,-281.85 129.52,-273.13"/>
<polygon fill="#63b8ff" stroke="#63b8ff" points="133.01,-273.47 130.87,-263.09 126.07,-272.53 133.01,-273.47"/>
</a>
</g>
<g id="a_edge12&#45;headlabel"><a xlink:href="dir_000015_000002.html" target="_top" xlink:title="9">
<text text-anchor="middle" x="135.34" y="-274.91" font-family="Helvetica,sans-Serif" font-size="10.00" fill="#63b8ff">9</text>
</a>
</g>
</g>
<!-- dir_9ae3e17586b91db62976387a5c397c96&#45;&gt;dir_31ed563dab755144156c40147d1107ba -->
<g id="edge13" class="edge">
<title>dir_9ae3e17586b91db62976387a5c397c96&#45;&gt;dir_31ed563dab755144156c40147d1107ba</title>
<g id="a_edge13"><a xlink:href="dir_000015_000006.html" target="_top">
<path fill="none" stroke="#63b8ff" d="M115.64,-298.91C83.6,-283.86 25,-249.51 25,-199.5 25,-199.5 25,-199.5 25,-142.5 25,-110.46 34.02,-74.03 40.23,-52.73"/>
<polygon fill="#63b8ff" stroke="#63b8ff" points="43.61,-53.65 43.17,-43.07 36.91,-51.62 43.61,-53.65"/>
</a>
</g>
<g id="a_edge13&#45;headlabel"><a xlink:href="dir_000015_000006.html" target="_top" xlink:title="1">
<text text-anchor="middle" x="45.28" y="-55.42" font-family="Helvetica,sans-Serif" font-size="10.00" fill="#63b8ff">1</text>
</a>
</g>
</g>
<!-- dir_9ae3e17586b91db62976387a5c397c96&#45;&gt;dir_34f6e4a59dd3faec6332be8c96b107c2 -->
<g id="edge14" class="edge">
<title>dir_9ae3e17586b91db62976387a5c397c96&#45;&gt;dir_34f6e4a59dd3faec6332be8c96b107c2</title>
<g id="a_edge14"><a xlink:href="dir_000015_000013.html" target="_top">
<path fill="none" stroke="#63b8ff" d="M122.43,-298.82C114.04,-290.22 104.91,-276.41 100,-263 94.72,-248.57 92.23,-231.3 92.45,-218.41"/>
<polygon fill="#63b8ff" stroke="#63b8ff" points="95.94,-218.67 93.34,-208.4 88.97,-218.05 95.94,-218.67"/>
</a>
</g>
<g id="a_edge14&#45;headlabel"><a xlink:href="dir_000015_000013.html" target="_top" xlink:title="45">
<text text-anchor="middle" x="98.45" y="-220" font-family="Helvetica,sans-Serif" font-size="10.00" fill="#63b8ff">45</text>
</a>
</g>
</g>
<!-- dir_9ae3e17586b91db62976387a5c397c96&#45;&gt;dir_b1a8941be30432c9b1bb4ec8314a47e1 -->
<g id="edge15" class="edge">
<title>dir_9ae3e17586b91db62976387a5c397c96&#45;&gt;dir_b1a8941be30432c9b1bb4ec8314a47e1</title>
<g id="a_edge15"><a xlink:href="dir_000015_000016.html" target="_top">
<path fill="none" stroke="#63b8ff" d="M137.73,-298.88C143.46,-290.53 154.32,-277.09 159,-263 177.08,-208.59 184.73,-186.2 161,-134 155.49,-121.88 144.87,-111.77 135.51,-104.27"/>
<polygon fill="#63b8ff" stroke="#63b8ff" points="137.54,-101.41 127.47,-98.12 133.29,-106.97 137.54,-101.41"/>
</a>
</g>
<g id="a_edge15&#45;headlabel"><a xlink:href="dir_000015_000016.html" target="_top" xlink:title="21">
<text text-anchor="middle" x="142.12" y="-98.83" font-family="Helvetica,sans-Serif" font-size="10.00" fill="#63b8ff">21</text>
</a>
</g>
</g>
<!-- dir_9ae3e17586b91db62976387a5c397c96&#45;&gt;dir_d9c5a349be5ac0e9651fe82cc716d8dc -->
<g id="edge16" class="edge">
<title>dir_9ae3e17586b91db62976387a5c397c96&#45;&gt;dir_d9c5a349be5ac0e9651fe82cc716d8dc</title>
<g id="a_edge16"><a xlink:href="dir_000015_000021.html" target="_top">
<path fill="none" stroke="#63b8ff" d="M136.27,-298.97C140.77,-290.48 150.15,-276.75 154,-263 156.27,-254.87 155.75,-252.26 154,-244 147.64,-213.91 131.57,-181.84 123.03,-162.48"/>
<polygon fill="#63b8ff" stroke="#63b8ff" points="126.22,-161.04 119.17,-153.13 119.75,-163.71 126.22,-161.04"/>
</a>
</g>
<g id="a_edge16&#45;headlabel"><a xlink:href="dir_000015_000021.html" target="_top" xlink:title="5">
<text text-anchor="middle" x="130.22" y="-160.78" font-family="Helvetica,sans-Serif" font-size="10.00" fill="#63b8ff">5</text>
</a>
</g>
</g>
<!-- dir_b1a8941be30432c9b1bb4ec8314a47e1&#45;&gt;dir_23f6eabde111695d9ecc40bd26b8f8c7 -->
<g id="edge17" class="edge">
<title>dir_b1a8941be30432c9b1bb4ec8314a47e1&#45;&gt;dir_23f6eabde111695d9ecc40bd26b8f8c7</title>
<g id="a_edge17"><a xlink:href="dir_000016_000002.html" target="_top">
<path fill="none" stroke="#63b8ff" d="M138.89,-98C151.39,-105.9 165.72,-118.73 172,-134 186.23,-168.63 167.76,-212.19 152.09,-235.66"/>
<polygon fill="#63b8ff" stroke="#63b8ff" points="149.16,-233.74 146.08,-243.87 154.81,-237.87 149.16,-233.74"/>
</a>
</g>
<g id="a_edge17&#45;headlabel"><a xlink:href="dir_000016_000002.html" target="_top" xlink:title="2">
<text text-anchor="middle" x="148.99" y="-226.66" font-family="Helvetica,sans-Serif" font-size="10.00" fill="#63b8ff">2</text>
</a>
</g>
</g>
<!-- dir_b1a8941be30432c9b1bb4ec8314a47e1&#45;&gt;dir_31ed563dab755144156c40147d1107ba -->
<g id="edge18" class="edge">
<title>dir_b1a8941be30432c9b1bb4ec8314a47e1&#45;&gt;dir_31ed563dab755144156c40147d1107ba</title>
<g id="a_edge18"><a xlink:href="dir_000016_000006.html" target="_top">
<path fill="none" stroke="#63b8ff" d="M102.16,-78.98C89.51,-71.07 72.69,-59.11 60.62,-49.58"/>
<polygon fill="#63b8ff" stroke="#63b8ff" points="62.75,-46.8 52.79,-43.17 58.31,-52.22 62.75,-46.8"/>
</a>
</g>
<g id="a_edge18&#45;headlabel"><a xlink:href="dir_000016_000006.html" target="_top" xlink:title="3">
<text text-anchor="middle" x="67.33" y="-44.39" font-family="Helvetica,sans-Serif" font-size="10.00" fill="#63b8ff">3</text>
</a>
</g>
</g>
<!-- dir_b1a8941be30432c9b1bb4ec8314a47e1&#45;&gt;dir_34f6e4a59dd3faec6332be8c96b107c2 -->
<g id="edge19" class="edge">
<title>dir_b1a8941be30432c9b1bb4ec8314a47e1&#45;&gt;dir_34f6e4a59dd3faec6332be8c96b107c2</title>
<g id="a_edge19"><a xlink:href="dir_000016_000013.html" target="_top">
<path fill="none" stroke="#63b8ff" d="M113.62,-98.07C105.13,-106.01 91.12,-118.86 85,-134 78.83,-149.27 86.35,-166.9 92.91,-179.7"/>
<polygon fill="#63b8ff" stroke="#63b8ff" points="89.94,-181.57 97.69,-188.8 96.14,-178.32 89.94,-181.57"/>
</a>
</g>
<g id="a_edge19&#45;headlabel"><a xlink:href="dir_000016_000013.html" target="_top" xlink:title="27">
<text text-anchor="middle" x="85.76" y="-177.21" font-family="Helvetica,sans-Serif" font-size="10.00" fill="#63b8ff">27</text>
</a>
</g>
</g>
<!-- dir_b1a8941be30432c9b1bb4ec8314a47e1&#45;&gt;dir_9ae3e17586b91db62976387a5c397c96 -->
<g id="edge20" class="edge">
<title>dir_b1a8941be30432c9b1bb4ec8314a47e1&#45;&gt;dir_9ae3e17586b91db62976387a5c397c96</title>
<g id="a_edge20"><a xlink:href="dir_000016_000015.html" target="_top">
<path fill="none" stroke="#63b8ff" d="M141.99,-98.12C155.88,-105.77 171.8,-118.17 179,-134 202.73,-186.2 195.08,-208.59 177,-263 173.49,-273.57 166.5,-283.77 159.09,-291.73"/>
<polygon fill="#63b8ff" stroke="#63b8ff" points="156.44,-289.43 151.65,-298.88 161.29,-294.48 156.44,-289.43"/>
</a>
</g>
<g id="a_edge20&#45;headlabel"><a xlink:href="dir_000016_000015.html" target="_top" xlink:title="23">
<text text-anchor="middle" x="157.06" y="-282.39" font-family="Helvetica,sans-Serif" font-size="10.00" fill="#63b8ff">23</text>
</a>
</g>
</g>
<!-- dir_b1a8941be30432c9b1bb4ec8314a47e1&#45;&gt;dir_d9c5a349be5ac0e9651fe82cc716d8dc -->
<g id="edge21" class="edge">
<title>dir_b1a8941be30432c9b1bb4ec8314a47e1&#45;&gt;dir_d9c5a349be5ac0e9651fe82cc716d8dc</title>
<g id="a_edge21"><a xlink:href="dir_000016_000021.html" target="_top">
<path fill="none" stroke="#63b8ff" d="M124.13,-98.09C125.64,-104.99 126.09,-114.93 125.49,-123.66"/>
<polygon fill="#63b8ff" stroke="#63b8ff" points="122,-123.38 124.17,-133.75 128.94,-124.29 122,-123.38"/>
</a>
</g>
<g id="a_edge21&#45;headlabel"><a xlink:href="dir_000016_000021.html" target="_top" xlink:title="2">
<text text-anchor="middle" x="119.65" y="-116.94" font-family="Helvetica,sans-Serif" font-size="10.00" fill="#63b8ff">2</text>
</a>
</g>
</g>
<!-- dir_d9c5a349be5ac0e9651fe82cc716d8dc&#45;&gt;dir_34f6e4a59dd3faec6332be8c96b107c2 -->
<g id="edge22" class="edge">
<title>dir_d9c5a349be5ac0e9651fe82cc716d8dc&#45;&gt;dir_34f6e4a59dd3faec6332be8c96b107c2</title>
<g id="a_edge22"><a xlink:href="dir_000021_000013.html" target="_top">
<path fill="none" stroke="#63b8ff" d="M120.89,-153.09C119.75,-160.29 116.2,-170.82 112.08,-179.82"/>
<polygon fill="#63b8ff" stroke="#63b8ff" points="108.95,-178.26 107.47,-188.75 115.17,-181.47 108.95,-178.26"/>
</a>
</g>
<g id="a_edge22&#45;headlabel"><a xlink:href="dir_000021_000013.html" target="_top" xlink:title="4">
<text text-anchor="middle" x="108.07" y="-171.26" font-family="Helvetica,sans-Serif" font-size="10.00" fill="#63b8ff">4</text>
</a>
</g>
</g>
<!-- dir_d9c5a349be5ac0e9651fe82cc716d8dc&#45;&gt;dir_9ae3e17586b91db62976387a5c397c96 -->
<g id="edge23" class="edge">
<title>dir_d9c5a349be5ac0e9651fe82cc716d8dc&#45;&gt;dir_9ae3e17586b91db62976387a5c397c96</title>
<g id="a_edge23"><a xlink:href="dir_000021_000015.html" target="_top">
<path fill="none" stroke="#63b8ff" d="M129.46,-153.13C143.28,-169.89 164.47,-208.33 172,-244 173.75,-252.26 174.27,-254.87 172,-263 169.15,-273.21 163.24,-283.4 156.81,-291.45"/>
<polygon fill="#63b8ff" stroke="#63b8ff" points="154.13,-289.2 150.03,-298.97 159.33,-293.89 154.13,-289.2"/>
</a>
</g>
<g id="a_edge23&#45;headlabel"><a xlink:href="dir_000021_000015.html" target="_top" xlink:title="1">
<text text-anchor="middle" x="154.43" y="-282.13" font-family="Helvetica,sans-Serif" font-size="10.00" fill="#63b8ff">1</text>
</a>
</g>
</g>
<!-- dir_d9c5a349be5ac0e9651fe82cc716d8dc&#45;&gt;dir_b1a8941be30432c9b1bb4ec8314a47e1 -->
<g id="edge24" class="edge">
<title>dir_d9c5a349be5ac0e9651fe82cc716d8dc&#45;&gt;dir_b1a8941be30432c9b1bb4ec8314a47e1</title>
<g id="a_edge24"><a xlink:href="dir_000021_000016.html" target="_top">
<path fill="none" stroke="#63b8ff" d="M113.83,-133.75C112.34,-126.8 111.9,-116.85 112.52,-108.13"/>
<polygon fill="#63b8ff" stroke="#63b8ff" points="116.01,-108.47 113.87,-98.09 109.07,-107.53 116.01,-108.47"/>
</a>
</g>
<g id="a_edge24&#45;headlabel"><a xlink:href="dir_000021_000016.html" target="_top" xlink:title="2">
<text text-anchor="middle" x="118.34" y="-109.91" font-family="Helvetica,sans-Serif" font-size="10.00" fill="#63b8ff">2</text>
</a>
</g>
</g>
</g>
</svg>
