<?xml version="1.0" encoding="UTF-8" standalone="no"?>
<!DOCTYPE svg PUBLIC "-//W3C//DTD SVG 1.1//EN"
 "http://www.w3.org/Graphics/SVG/1.1/DTD/svg11.dtd">
<!-- Generated by graphviz version 7.1.0 (0)
 -->
<!-- Title: force_fields Pages: 1 -->
<svg width="138pt" height="133pt"
 viewBox="0.00 0.00 137.50 133.00" xmlns="http://www.w3.org/2000/svg" xmlns:xlink="http://www.w3.org/1999/xlink">
<g id="graph0" class="graph" transform="scale(1 1) rotate(0) translate(4 129)">
<title>force_fields</title>
<g id="clust1" class="cluster">
<title>clusterdir_cfb6e93dbea17f3e8193818fb6e149f2</title>
<g id="a_clust1"><a xlink:href="dir_cfb6e93dbea17f3e8193818fb6e149f2.html" target="_top" xlink:title="calc">
<polygon fill="#edf0f7" stroke="#7f7f7f" stroke-dasharray="5,2" points="8,-8 8,-117 92,-117 92,-8 8,-8"/>
<text text-anchor="middle" x="50" y="-105" font-family="Helvetica,sans-Serif" font-size="10.00">calc</text>
</a>
</g>
</g>
<!-- dir_78f22f1b6e75c59f4835dcc371001c36 -->
<g id="node1" class="node">
<title>dir_78f22f1b6e75c59f4835dcc371001c36</title>
<g id="a_node1"><a xlink:href="dir_78f22f1b6e75c59f4835dcc371001c36.html" target="_top" xlink:title="dl_poly">
<polygon fill="#a2b4d6" stroke="#404040" points="73.5,-35 26.5,-35 26.5,-16 73.5,-16 73.5,-35"/>
<text text-anchor="middle" x="50" y="-23" font-family="Helvetica,sans-Serif" font-size="10.00">dl_poly</text>
</a>
</g>
</g>
<!-- dir_fb6be94885e3562fa6308c6a8fdfd782 -->
<g id="node2" class="node">
<title>dir_fb6be94885e3562fa6308c6a8fdfd782</title>
<g id="a_node2"><a xlink:href="dir_fb6be94885e3562fa6308c6a8fdfd782.html" target="_top" xlink:title="force_fields">
<polygon fill="#edf0f7" stroke="#404040" stroke-width="2" points="83.5,-90 16.5,-90 16.5,-71 83.5,-71 83.5,-90"/>
<text text-anchor="middle" x="50" y="-78" font-family="Helvetica,sans-Serif" font-size="10.00">force_fields</text>
</a>
</g>
</g>
<!-- dir_fb6be94885e3562fa6308c6a8fdfd782&#45;&gt;dir_78f22f1b6e75c59f4835dcc371001c36 -->
<g id="edge1" class="edge">
<title>dir_fb6be94885e3562fa6308c6a8fdfd782&#45;&gt;dir_78f22f1b6e75c59f4835dcc371001c36</title>
<path fill="none" stroke="#63b8ff" d="M50,-70.75C50,-64.27 50,-55.16 50,-46.9"/>
<polygon fill="#63b8ff" stroke="#63b8ff" points="53.5,-46.96 50,-36.96 46.5,-46.96 53.5,-46.96"/>
<g id="a_edge1&#45;headlabel"><a xlink:href="dir_000010_000006.html" target="_top" xlink:title="1">
<text text-anchor="middle" x="56.34" y="-46.54" font-family="Helvetica,sans-Serif" font-size="10.00" fill="#63b8ff">1</text>
</a>
</g>
</g>
<!-- dir_9268fa4967c416e4e882c5e3d890d467 -->
<g id="node3" class="node">
<title>dir_9268fa4967c416e4e882c5e3d890d467</title>
<g id="a_node3"><a xlink:href="dir_9268fa4967c416e4e882c5e3d890d467.html" target="_top" xlink:title="gui">
<polygon fill="#edf0f7" stroke="#7f7f7f" points="129.5,-35 100.5,-35 100.5,-16 129.5,-16 129.5,-35"/>
<text text-anchor="middle" x="115" y="-23" font-family="Helvetica,sans-Serif" font-size="10.00">gui</text>
</a>
</g>
</g>
<!-- dir_fb6be94885e3562fa6308c6a8fdfd782&#45;&gt;dir_9268fa4967c416e4e882c5e3d890d467 -->
<g id="edge2" class="edge">
<title>dir_fb6be94885e3562fa6308c6a8fdfd782&#45;&gt;dir_9268fa4967c416e4e882c5e3d890d467</title>
<path fill="none" stroke="#63b8ff" d="M61.03,-70.51C70.42,-62.85 84.15,-51.66 95.41,-42.47"/>
<polygon fill="#63b8ff" stroke="#63b8ff" points="97.43,-45.35 102.96,-36.31 93,-39.92 97.43,-45.35"/>
<g id="a_edge2&#45;headlabel"><a xlink:href="dir_000010_000012.html" target="_top" xlink:title="1">
<text text-anchor="middle" x="97.61" y="-46.36" font-family="Helvetica,sans-Serif" font-size="10.00" fill="#63b8ff">1</text>
</a>
</g>
</g>
</g>
</svg>
