<?xml version="1.0" encoding="UTF-8" standalone="no"?>
<!DOCTYPE svg PUBLIC "-//W3C//DTD SVG 1.1//EN"
 "http://www.w3.org/Graphics/SVG/1.1/DTD/svg11.dtd">
<!-- Generated by graphviz version 2.43.0 (0)
 -->
<!-- Title: /home/slookeur/files/codeblocks&#45;files/atomes/src/opengl Pages: 1 -->
<svg width="330pt" height="306pt"
 viewBox="0.00 0.00 330.00 306.00" xmlns="http://www.w3.org/2000/svg" xmlns:xlink="http://www.w3.org/1999/xlink">
<g id="graph0" class="graph" transform="scale(1 1) rotate(0) translate(4 302)">
<title>/home/slookeur/files/codeblocks&#45;files/atomes/src/opengl</title>
<g id="clust1" class="cluster">
<title>clusterdir_824f65ee6c46d990d1a8cba394b0bf35</title>
<g id="a_clust1"><a xlink:href="dir_824f65ee6c46d990d1a8cba394b0bf35.html" target="_top" xlink:title="src">
<polygon fill="#edf0f7" stroke="#7f7f7f" stroke-dasharray="5,2" points="8,-8 8,-290 314,-290 314,-8 8,-8"/>
<text text-anchor="middle" x="161" y="-278" font-family="Helvetica,sans-Serif" font-size="10.00">src</text>
</a>
</g>
</g>
<g id="clust2" class="cluster">
<title>clusterdir_9ae3e17586b91db62976387a5c397c96</title>
<g id="a_clust2"><a xlink:href="dir_9ae3e17586b91db62976387a5c397c96.html" target="_top">
<polygon fill="#edf0f7" stroke="#404040" stroke-width="2" points="182,-63 182,-263 254,-263 254,-63 182,-63"/>
</a>
</g>
</g>
<!-- dir_23f6eabde111695d9ecc40bd26b8f8c7 -->
<g id="node1" class="node">
<title>dir_23f6eabde111695d9ecc40bd26b8f8c7</title>
<g id="a_node1"><a xlink:href="dir_23f6eabde111695d9ecc40bd26b8f8c7.html" target="_top" xlink:title="calc">
<polygon fill="#a2b4d6" stroke="red" points="203,-35 167,-35 167,-16 203,-16 203,-35"/>
<text text-anchor="middle" x="185" y="-23" font-family="Helvetica,sans-Serif" font-size="10.00">calc</text>
</a>
</g>
</g>
<!-- dir_31ed563dab755144156c40147d1107ba -->
<g id="node2" class="node">
<title>dir_31ed563dab755144156c40147d1107ba</title>
<g id="a_node2"><a xlink:href="dir_31ed563dab755144156c40147d1107ba.html" target="_top" xlink:title="curve">
<polygon fill="#a2b4d6" stroke="#404040" points="100,-145 56,-145 56,-126 100,-126 100,-145"/>
<text text-anchor="middle" x="78" y="-133" font-family="Helvetica,sans-Serif" font-size="10.00">curve</text>
</a>
</g>
</g>
<!-- dir_34f6e4a59dd3faec6332be8c96b107c2 -->
<g id="node3" class="node">
<title>dir_34f6e4a59dd3faec6332be8c96b107c2</title>
<g id="a_node3"><a xlink:href="dir_34f6e4a59dd3faec6332be8c96b107c2.html" target="_top" xlink:title="gui">
<polygon fill="#a2b4d6" stroke="#404040" points="291,-35 259,-35 259,-16 291,-16 291,-35"/>
<text text-anchor="middle" x="275" y="-23" font-family="Helvetica,sans-Serif" font-size="10.00">gui</text>
</a>
</g>
</g>
<!-- dir_b1a8941be30432c9b1bb4ec8314a47e1 -->
<g id="node4" class="node">
<title>dir_b1a8941be30432c9b1bb4ec8314a47e1</title>
<g id="a_node4"><a xlink:href="dir_b1a8941be30432c9b1bb4ec8314a47e1.html" target="_top" xlink:title="project">
<polygon fill="#a2b4d6" stroke="red" points="115,-35 65,-35 65,-16 115,-16 115,-35"/>
<text text-anchor="middle" x="90" y="-23" font-family="Helvetica,sans-Serif" font-size="10.00">project</text>
</a>
</g>
</g>
<!-- dir_d9c5a349be5ac0e9651fe82cc716d8dc -->
<g id="node5" class="node">
<title>dir_d9c5a349be5ac0e9651fe82cc716d8dc</title>
<g id="a_node5"><a xlink:href="dir_d9c5a349be5ac0e9651fe82cc716d8dc.html" target="_top" xlink:title="workspace">
<polygon fill="#a2b4d6" stroke="#404040" points="145.5,-90 76.5,-90 76.5,-71 145.5,-71 145.5,-90"/>
<text text-anchor="middle" x="111" y="-78" font-family="Helvetica,sans-Serif" font-size="10.00">workspace</text>
</a>
</g>
</g>
<!-- dir_9ae3e17586b91db62976387a5c397c96 -->
<g id="node6" class="node">
<title>dir_9ae3e17586b91db62976387a5c397c96</title>
<text text-anchor="middle" x="215" y="-243" font-family="Helvetica,sans-Serif" font-size="10.00">opengl</text>
</g>
<!-- dir_9ae3e17586b91db62976387a5c397c96&#45;&gt;dir_23f6eabde111695d9ecc40bd26b8f8c7 -->
<g id="edge1" class="edge">
<title>dir_9ae3e17586b91db62976387a5c397c96&#45;&gt;dir_23f6eabde111695d9ecc40bd26b8f8c7</title>
<g id="a_edge1"><a xlink:href="dir_000015_000002.html" target="_top">
<path fill="none" stroke="#63b8ff" d="M189.94,-238.17C151.16,-226.88 77.89,-199.19 47,-145 33.43,-121.18 51.23,-79.45 68,-63 80.64,-50.6 126.27,-38.9 156.67,-32.23"/>
<polygon fill="#63b8ff" stroke="#63b8ff" points="157.66,-35.6 166.71,-30.09 156.2,-28.75 157.66,-35.6"/>
</a>
</g>
<g id="a_edge1&#45;headlabel"><a xlink:href="dir_000015_000002.html" target="_top" xlink:title="9">
<text text-anchor="middle" x="154.74" y="-36.63" font-family="Helvetica,sans-Serif" font-size="10.00" fill="#63b8ff">9</text>
</a>
</g>
</g>
<!-- dir_9ae3e17586b91db62976387a5c397c96&#45;&gt;dir_34f6e4a59dd3faec6332be8c96b107c2 -->
<g id="edge2" class="edge">
<title>dir_9ae3e17586b91db62976387a5c397c96&#45;&gt;dir_34f6e4a59dd3faec6332be8c96b107c2</title>
<g id="a_edge2"><a xlink:href="dir_000015_000013.html" target="_top">
<path fill="none" stroke="#63b8ff" d="M220.57,-235.93C226.08,-227.17 234.46,-213.05 240,-200 259.95,-153.02 264.79,-140.38 273,-90 275.42,-75.16 275.83,-58.13 275.68,-45.44"/>
<polygon fill="#63b8ff" stroke="#63b8ff" points="279.18,-45.11 275.44,-35.2 272.18,-45.28 279.18,-45.11"/>
</a>
</g>
<g id="a_edge2&#45;headlabel"><a xlink:href="dir_000015_000013.html" target="_top" xlink:title="45">
<text text-anchor="middle" x="282.1" y="-46.13" font-family="Helvetica,sans-Serif" font-size="10.00" fill="#63b8ff">45</text>
</a>
</g>
</g>
<!-- dir_9ae3e17586b91db62976387a5c397c96&#45;&gt;dir_b1a8941be30432c9b1bb4ec8314a47e1 -->
<g id="edge4" class="edge">
<title>dir_9ae3e17586b91db62976387a5c397c96&#45;&gt;dir_b1a8941be30432c9b1bb4ec8314a47e1</title>
<g id="a_edge4"><a xlink:href="dir_000015_000016.html" target="_top">
<path fill="none" stroke="#63b8ff" d="M189.99,-241.77C159.84,-237.4 108.88,-226.43 74,-200 50.72,-182.35 46.35,-173 38,-145 31.76,-124.06 36.86,-79.64 46,-63 50.67,-54.5 58.19,-47.17 65.7,-41.35"/>
<polygon fill="#63b8ff" stroke="#63b8ff" points="68.2,-43.87 74.34,-35.24 64.16,-38.16 68.2,-43.87"/>
</a>
</g>
<g id="a_edge4&#45;headlabel"><a xlink:href="dir_000015_000016.html" target="_top" xlink:title="21">
<text text-anchor="middle" x="66.9" y="-45.77" font-family="Helvetica,sans-Serif" font-size="10.00" fill="#63b8ff">21</text>
</a>
</g>
</g>
<!-- dir_b889ea7c7a8c3e5bdcb37b5f94c249c9 -->
<g id="node8" class="node">
<title>dir_b889ea7c7a8c3e5bdcb37b5f94c249c9</title>
<g id="a_node8"><a xlink:href="dir_b889ea7c7a8c3e5bdcb37b5f94c249c9.html" target="_top" xlink:title="edit">
<polygon fill="#a2b4d6" stroke="#404040" points="225.5,-200 190.5,-200 190.5,-181 225.5,-181 225.5,-200"/>
<text text-anchor="middle" x="208" y="-188" font-family="Helvetica,sans-Serif" font-size="10.00">edit</text>
</a>
</g>
</g>
<!-- dir_9ae3e17586b91db62976387a5c397c96&#45;&gt;dir_b889ea7c7a8c3e5bdcb37b5f94c249c9 -->
<g id="edge5" class="edge">
<title>dir_9ae3e17586b91db62976387a5c397c96&#45;&gt;dir_b889ea7c7a8c3e5bdcb37b5f94c249c9</title>
<g id="a_edge5"><a xlink:href="dir_000015_000009.html" target="_top">
<path fill="none" stroke="#63b8ff" d="M213.84,-235.75C212.93,-228.8 211.61,-218.85 210.46,-210.13"/>
<polygon fill="#63b8ff" stroke="#63b8ff" points="213.91,-209.54 209.13,-200.09 206.97,-210.46 213.91,-209.54"/>
</a>
</g>
<g id="a_edge5&#45;headlabel"><a xlink:href="dir_000015_000009.html" target="_top" xlink:title="8">
<text text-anchor="middle" x="217.2" y="-210.24" font-family="Helvetica,sans-Serif" font-size="10.00" fill="#63b8ff">8</text>
</a>
</g>
</g>
<!-- dir_9e3432439c9b5305448c00008108ddba -->
<g id="node9" class="node">
<title>dir_9e3432439c9b5305448c00008108ddba</title>
<g id="a_node9"><a xlink:href="dir_9e3432439c9b5305448c00008108ddba.html" target="_top" xlink:title="win">
<polygon fill="#a2b4d6" stroke="#404040" points="225,-145 191,-145 191,-126 225,-126 225,-145"/>
<text text-anchor="middle" x="208" y="-133" font-family="Helvetica,sans-Serif" font-size="10.00">win</text>
</a>
</g>
</g>
<!-- dir_9ae3e17586b91db62976387a5c397c96&#45;&gt;dir_9e3432439c9b5305448c00008108ddba -->
<g id="edge3" class="edge">
<title>dir_9ae3e17586b91db62976387a5c397c96&#45;&gt;dir_9e3432439c9b5305448c00008108ddba</title>
<g id="a_edge3"><a xlink:href="dir_000015_000020.html" target="_top">
<path fill="none" stroke="#63b8ff" d="M220.98,-235.93C228.71,-223.77 240.54,-200.81 235,-181 232.24,-171.12 226.61,-161.25 221.21,-153.32"/>
<polygon fill="#63b8ff" stroke="#63b8ff" points="223.87,-151.04 215.15,-145.03 218.22,-155.17 223.87,-151.04"/>
</a>
</g>
<g id="a_edge3&#45;headlabel"><a xlink:href="dir_000015_000020.html" target="_top" xlink:title="8">
<text text-anchor="middle" x="228.29" y="-149.77" font-family="Helvetica,sans-Serif" font-size="10.00" fill="#63b8ff">8</text>
</a>
</g>
</g>
<!-- dir_54146b6006fef31cb46515f0b257c8e9 -->
<g id="node7" class="node">
<title>dir_54146b6006fef31cb46515f0b257c8e9</title>
<g id="a_node7"><a xlink:href="dir_54146b6006fef31cb46515f0b257c8e9.html" target="_top" xlink:title="draw">
<polygon fill="#a2b4d6" stroke="#404040" points="245.5,-90 204.5,-90 204.5,-71 245.5,-71 245.5,-90"/>
<text text-anchor="middle" x="225" y="-78" font-family="Helvetica,sans-Serif" font-size="10.00">draw</text>
</a>
</g>
</g>
<!-- dir_54146b6006fef31cb46515f0b257c8e9&#45;&gt;dir_23f6eabde111695d9ecc40bd26b8f8c7 -->
<g id="edge6" class="edge">
<title>dir_54146b6006fef31cb46515f0b257c8e9&#45;&gt;dir_23f6eabde111695d9ecc40bd26b8f8c7</title>
<g id="a_edge6"><a xlink:href="dir_000008_000002.html" target="_top">
<path fill="none" stroke="#63b8ff" d="M218.39,-70.75C212.74,-63.26 204.46,-52.28 197.55,-43.13"/>
<polygon fill="#63b8ff" stroke="#63b8ff" points="200.3,-40.96 191.48,-35.09 194.71,-45.18 200.3,-40.96"/>
</a>
</g>
<g id="a_edge6&#45;headlabel"><a xlink:href="dir_000008_000002.html" target="_top" xlink:title="5">
<text text-anchor="middle" x="204.73" y="-39.62" font-family="Helvetica,sans-Serif" font-size="10.00" fill="#63b8ff">5</text>
</a>
</g>
</g>
<!-- dir_54146b6006fef31cb46515f0b257c8e9&#45;&gt;dir_34f6e4a59dd3faec6332be8c96b107c2 -->
<g id="edge7" class="edge">
<title>dir_54146b6006fef31cb46515f0b257c8e9&#45;&gt;dir_34f6e4a59dd3faec6332be8c96b107c2</title>
<g id="a_edge7"><a xlink:href="dir_000008_000013.html" target="_top">
<path fill="none" stroke="#63b8ff" d="M233.26,-70.75C240.46,-63.11 251.11,-51.82 259.85,-42.56"/>
<polygon fill="#63b8ff" stroke="#63b8ff" points="262.58,-44.76 266.9,-35.09 257.49,-39.96 262.58,-44.76"/>
</a>
</g>
<g id="a_edge7&#45;headlabel"><a xlink:href="dir_000008_000013.html" target="_top" xlink:title="3">
<text text-anchor="middle" x="262.18" y="-46.83" font-family="Helvetica,sans-Serif" font-size="10.00" fill="#63b8ff">3</text>
</a>
</g>
</g>
<!-- dir_54146b6006fef31cb46515f0b257c8e9&#45;&gt;dir_b1a8941be30432c9b1bb4ec8314a47e1 -->
<g id="edge9" class="edge">
<title>dir_54146b6006fef31cb46515f0b257c8e9&#45;&gt;dir_b1a8941be30432c9b1bb4ec8314a47e1</title>
<g id="a_edge9"><a xlink:href="dir_000008_000016.html" target="_top">
<path fill="none" stroke="#63b8ff" d="M213.69,-70.75C209.81,-68.01 205.35,-65.15 201,-63 176.57,-50.9 147.19,-41.44 124.8,-35.19"/>
<polygon fill="#63b8ff" stroke="#63b8ff" points="125.61,-31.78 115.04,-32.54 123.78,-38.54 125.61,-31.78"/>
</a>
</g>
<g id="a_edge9&#45;headlabel"><a xlink:href="dir_000008_000016.html" target="_top" xlink:title="2">
<text text-anchor="middle" x="129.82" y="-27.48" font-family="Helvetica,sans-Serif" font-size="10.00" fill="#63b8ff">2</text>
</a>
</g>
</g>
<!-- dir_54146b6006fef31cb46515f0b257c8e9&#45;&gt;dir_9e3432439c9b5305448c00008108ddba -->
<g id="edge8" class="edge">
<title>dir_54146b6006fef31cb46515f0b257c8e9&#45;&gt;dir_9e3432439c9b5305448c00008108ddba</title>
<g id="a_edge8"><a xlink:href="dir_000008_000020.html" target="_top">
<path fill="none" stroke="#63b8ff" d="M227.38,-90.09C226.65,-97.22 223.75,-107.6 220.19,-116.53"/>
<polygon fill="#63b8ff" stroke="#63b8ff" points="216.95,-115.2 215.97,-125.75 223.32,-118.11 216.95,-115.2"/>
</a>
</g>
<g id="a_edge8&#45;headlabel"><a xlink:href="dir_000008_000020.html" target="_top" xlink:title="4">
<text text-anchor="middle" x="215.87" y="-108.25" font-family="Helvetica,sans-Serif" font-size="10.00" fill="#63b8ff">4</text>
</a>
</g>
</g>
<!-- dir_b889ea7c7a8c3e5bdcb37b5f94c249c9&#45;&gt;dir_31ed563dab755144156c40147d1107ba -->
<g id="edge10" class="edge">
<title>dir_b889ea7c7a8c3e5bdcb37b5f94c249c9&#45;&gt;dir_31ed563dab755144156c40147d1107ba</title>
<g id="a_edge10"><a xlink:href="dir_000009_000006.html" target="_top">
<path fill="none" stroke="#63b8ff" d="M190.47,-182.35C169.54,-173.82 134.19,-159.41 108.7,-149.01"/>
<polygon fill="#63b8ff" stroke="#63b8ff" points="109.71,-145.65 99.12,-145.11 107.06,-152.13 109.71,-145.65"/>
</a>
</g>
<g id="a_edge10&#45;headlabel"><a xlink:href="dir_000009_000006.html" target="_top" xlink:title="1">
<text text-anchor="middle" x="114.11" y="-141.87" font-family="Helvetica,sans-Serif" font-size="10.00" fill="#63b8ff">1</text>
</a>
</g>
</g>
<!-- dir_b889ea7c7a8c3e5bdcb37b5f94c249c9&#45;&gt;dir_34f6e4a59dd3faec6332be8c96b107c2 -->
<g id="edge11" class="edge">
<title>dir_b889ea7c7a8c3e5bdcb37b5f94c249c9&#45;&gt;dir_34f6e4a59dd3faec6332be8c96b107c2</title>
<g id="a_edge11"><a xlink:href="dir_000009_000013.html" target="_top">
<path fill="none" stroke="#63b8ff" d="M214.36,-180.98C226.39,-164.41 252.38,-126.29 265,-90 270.05,-75.49 272.56,-58.22 273.8,-45.36"/>
<polygon fill="#63b8ff" stroke="#63b8ff" points="277.29,-45.61 274.6,-35.37 270.31,-45.06 277.29,-45.61"/>
</a>
</g>
<g id="a_edge11&#45;headlabel"><a xlink:href="dir_000009_000013.html" target="_top" xlink:title="8">
<text text-anchor="middle" x="279.84" y="-46.92" font-family="Helvetica,sans-Serif" font-size="10.00" fill="#63b8ff">8</text>
</a>
</g>
</g>
<!-- dir_b889ea7c7a8c3e5bdcb37b5f94c249c9&#45;&gt;dir_b1a8941be30432c9b1bb4ec8314a47e1 -->
<g id="edge13" class="edge">
<title>dir_b889ea7c7a8c3e5bdcb37b5f94c249c9&#45;&gt;dir_b1a8941be30432c9b1bb4ec8314a47e1</title>
<g id="a_edge13"><a xlink:href="dir_000009_000016.html" target="_top">
<path fill="none" stroke="#63b8ff" d="M194.38,-180.84C160.57,-159.22 75.01,-103.58 68,-90 60.25,-74.98 68.31,-56.63 76.78,-43.53"/>
<polygon fill="#63b8ff" stroke="#63b8ff" points="79.87,-45.22 82.79,-35.03 74.15,-41.17 79.87,-45.22"/>
</a>
</g>
<g id="a_edge13&#45;headlabel"><a xlink:href="dir_000009_000016.html" target="_top" xlink:title="6">
<text text-anchor="middle" x="80.11" y="-47.29" font-family="Helvetica,sans-Serif" font-size="10.00" fill="#63b8ff">6</text>
</a>
</g>
</g>
<!-- dir_b889ea7c7a8c3e5bdcb37b5f94c249c9&#45;&gt;dir_d9c5a349be5ac0e9651fe82cc716d8dc -->
<g id="edge14" class="edge">
<title>dir_b889ea7c7a8c3e5bdcb37b5f94c249c9&#45;&gt;dir_d9c5a349be5ac0e9651fe82cc716d8dc</title>
<g id="a_edge14"><a xlink:href="dir_000009_000021.html" target="_top">
<path fill="none" stroke="#63b8ff" d="M200.06,-180.66C183.78,-162.54 146.4,-120.91 125.61,-97.77"/>
<polygon fill="#63b8ff" stroke="#63b8ff" points="128.06,-95.26 118.78,-90.16 122.85,-99.94 128.06,-95.26"/>
</a>
</g>
<g id="a_edge14&#45;headlabel"><a xlink:href="dir_000009_000021.html" target="_top" xlink:title="4">
<text text-anchor="middle" x="132.58" y="-93.54" font-family="Helvetica,sans-Serif" font-size="10.00" fill="#63b8ff">4</text>
</a>
</g>
</g>
<!-- dir_b889ea7c7a8c3e5bdcb37b5f94c249c9&#45;&gt;dir_9e3432439c9b5305448c00008108ddba -->
<g id="edge12" class="edge">
<title>dir_b889ea7c7a8c3e5bdcb37b5f94c249c9&#45;&gt;dir_9e3432439c9b5305448c00008108ddba</title>
<g id="a_edge12"><a xlink:href="dir_000009_000020.html" target="_top">
<path fill="none" stroke="#63b8ff" d="M202.83,-180.75C201.34,-173.8 200.9,-163.85 201.52,-155.13"/>
<polygon fill="#63b8ff" stroke="#63b8ff" points="205.01,-155.47 202.87,-145.09 198.07,-154.53 205.01,-155.47"/>
</a>
</g>
<g id="a_edge12&#45;headlabel"><a xlink:href="dir_000009_000020.html" target="_top" xlink:title="3">
<text text-anchor="middle" x="207.34" y="-156.91" font-family="Helvetica,sans-Serif" font-size="10.00" fill="#63b8ff">3</text>
</a>
</g>
</g>
<!-- dir_9e3432439c9b5305448c00008108ddba&#45;&gt;dir_23f6eabde111695d9ecc40bd26b8f8c7 -->
<g id="edge15" class="edge">
<title>dir_9e3432439c9b5305448c00008108ddba&#45;&gt;dir_23f6eabde111695d9ecc40bd26b8f8c7</title>
<g id="a_edge15"><a xlink:href="dir_000020_000002.html" target="_top">
<path fill="none" stroke="#63b8ff" d="M205.37,-125.69C202.76,-116.76 198.76,-102.5 196,-90 192.71,-75.11 189.81,-58.08 187.81,-45.4"/>
<polygon fill="#63b8ff" stroke="#63b8ff" points="191.22,-44.53 186.24,-35.18 184.3,-45.59 191.22,-44.53"/>
</a>
</g>
<g id="a_edge15&#45;headlabel"><a xlink:href="dir_000020_000002.html" target="_top" xlink:title="2">
<text text-anchor="middle" x="194.57" y="-45.16" font-family="Helvetica,sans-Serif" font-size="10.00" fill="#63b8ff">2</text>
</a>
</g>
</g>
<!-- dir_9e3432439c9b5305448c00008108ddba&#45;&gt;dir_34f6e4a59dd3faec6332be8c96b107c2 -->
<g id="edge16" class="edge">
<title>dir_9e3432439c9b5305448c00008108ddba&#45;&gt;dir_34f6e4a59dd3faec6332be8c96b107c2</title>
<g id="a_edge16"><a xlink:href="dir_000020_000013.html" target="_top">
<path fill="none" stroke="#63b8ff" d="M220.07,-125.92C230.68,-117.79 245.82,-104.67 255,-90 263.62,-76.22 268.8,-58.42 271.73,-45.17"/>
<polygon fill="#63b8ff" stroke="#63b8ff" points="275.17,-45.79 273.68,-35.3 268.3,-44.44 275.17,-45.79"/>
</a>
</g>
<g id="a_edge16&#45;headlabel"><a xlink:href="dir_000020_000013.html" target="_top" xlink:title="30">
<text text-anchor="middle" x="277.26" y="-47.37" font-family="Helvetica,sans-Serif" font-size="10.00" fill="#63b8ff">30</text>
</a>
</g>
</g>
<!-- dir_9e3432439c9b5305448c00008108ddba&#45;&gt;dir_b1a8941be30432c9b1bb4ec8314a47e1 -->
<g id="edge18" class="edge">
<title>dir_9e3432439c9b5305448c00008108ddba&#45;&gt;dir_b1a8941be30432c9b1bb4ec8314a47e1</title>
<g id="a_edge18"><a xlink:href="dir_000020_000016.html" target="_top">
<path fill="none" stroke="#63b8ff" d="M203.12,-125.65C194.77,-111.14 176.56,-82 155,-63 144.43,-53.68 131.09,-45.69 119.25,-39.58"/>
<polygon fill="#63b8ff" stroke="#63b8ff" points="120.67,-36.38 110.16,-35.09 117.58,-42.65 120.67,-36.38"/>
</a>
</g>
<g id="a_edge18&#45;headlabel"><a xlink:href="dir_000020_000016.html" target="_top" xlink:title="12">
<text text-anchor="middle" x="125.15" y="-32.92" font-family="Helvetica,sans-Serif" font-size="10.00" fill="#63b8ff">12</text>
</a>
</g>
</g>
<!-- dir_9e3432439c9b5305448c00008108ddba&#45;&gt;dir_d9c5a349be5ac0e9651fe82cc716d8dc -->
<g id="edge20" class="edge">
<title>dir_9e3432439c9b5305448c00008108ddba&#45;&gt;dir_d9c5a349be5ac0e9651fe82cc716d8dc</title>
<g id="a_edge20"><a xlink:href="dir_000020_000021.html" target="_top">
<path fill="none" stroke="#63b8ff" d="M192.42,-125.98C177.23,-117.69 153.9,-104.94 136.1,-95.22"/>
<polygon fill="#63b8ff" stroke="#63b8ff" points="137.32,-91.89 126.87,-90.17 133.97,-98.04 137.32,-91.89"/>
</a>
</g>
<g id="a_edge20&#45;headlabel"><a xlink:href="dir_000020_000021.html" target="_top" xlink:title="1">
<text text-anchor="middle" x="141.84" y="-88.63" font-family="Helvetica,sans-Serif" font-size="10.00" fill="#63b8ff">1</text>
</a>
</g>
</g>
<!-- dir_9e3432439c9b5305448c00008108ddba&#45;&gt;dir_54146b6006fef31cb46515f0b257c8e9 -->
<g id="edge17" class="edge">
<title>dir_9e3432439c9b5305448c00008108ddba&#45;&gt;dir_54146b6006fef31cb46515f0b257c8e9</title>
<g id="a_edge17"><a xlink:href="dir_000020_000008.html" target="_top">
<path fill="none" stroke="#63b8ff" d="M205.64,-125.75C206.4,-118.57 209.32,-108.18 212.89,-99.27"/>
<polygon fill="#63b8ff" stroke="#63b8ff" points="216.11,-100.64 217.11,-90.09 209.75,-97.71 216.11,-100.64"/>
</a>
</g>
<g id="a_edge17&#45;headlabel"><a xlink:href="dir_000020_000008.html" target="_top" xlink:title="1">
<text text-anchor="middle" x="217.19" y="-102.59" font-family="Helvetica,sans-Serif" font-size="10.00" fill="#63b8ff">1</text>
</a>
</g>
</g>
<!-- dir_9e3432439c9b5305448c00008108ddba&#45;&gt;dir_b889ea7c7a8c3e5bdcb37b5f94c249c9 -->
<g id="edge19" class="edge">
<title>dir_9e3432439c9b5305448c00008108ddba&#45;&gt;dir_b889ea7c7a8c3e5bdcb37b5f94c249c9</title>
<g id="a_edge19"><a xlink:href="dir_000020_000009.html" target="_top">
<path fill="none" stroke="#63b8ff" d="M213.13,-145.09C214.64,-151.99 215.09,-161.93 214.49,-170.66"/>
<polygon fill="#63b8ff" stroke="#63b8ff" points="211,-170.38 213.17,-180.75 217.94,-171.29 211,-170.38"/>
</a>
</g>
<g id="a_edge19&#45;headlabel"><a xlink:href="dir_000020_000009.html" target="_top" xlink:title="7">
<text text-anchor="middle" x="208.65" y="-163.94" font-family="Helvetica,sans-Serif" font-size="10.00" fill="#63b8ff">7</text>
</a>
</g>
</g>
</g>
</svg>
