<?xml version="1.0" encoding="UTF-8" standalone="no"?>
<!DOCTYPE svg PUBLIC "-//W3C//DTD SVG 1.1//EN"
 "http://www.w3.org/Graphics/SVG/1.1/DTD/svg11.dtd">
<!-- Generated by graphviz version 7.1.0 (0)
 -->
<!-- Title: opengl Pages: 1 -->
<svg width="325pt" height="263pt"
 viewBox="0.00 0.00 325.37 263.00" xmlns="http://www.w3.org/2000/svg" xmlns:xlink="http://www.w3.org/1999/xlink">

<svg id="main" version="1.1" xmlns="http://www.w3.org/2000/svg" xmlns:xlink="http://www.w3.org/1999/xlink" xml:space="preserve" onload="init(evt)">
<style type="text/css"><![CDATA[
.node, .edge {opacity: 0.7;}
.node.selected, .edge.selected {opacity: 1;}
.edge:hover path { stroke: red; }
.edge:hover polygon { stroke: red; fill: red; }
]]></style>
<script type="application/ecmascript" xlink:href="svg.min.js"/>
<svg id="graph" class="graph">
<g id="graph0" class="graph" transform="scale(1 1) rotate(0) translate(4 259)">
<title>opengl</title>
<g id="clust1" class="cluster">
<title>clusterdir_35aa532d637074063c646a4cf80a0972</title>
<g id="a_clust1"><a xlink:href="dir_35aa532d637074063c646a4cf80a0972.html" target="_top">
<polygon fill="#edf0f7" stroke="#404040" stroke-width="2" points="194.47,-47 194.47,-247 262.47,-247 262.47,-47 194.47,-47"/>
</a>
</g>
</g>
<!-- dir_35aa532d637074063c646a4cf80a0972 -->
<g id="node1" class="node">
<title>dir_35aa532d637074063c646a4cf80a0972</title>
<text text-anchor="middle" x="225.47" y="-227" font-family="Helvetica,sans-Serif" font-size="10.00">opengl</text>
</g>
<!-- dir_adb84e959311a9ff6718b594edd7a2c4 -->
<g id="node3" class="node">
<title>dir_adb84e959311a9ff6718b594edd7a2c4</title>
<g id="a_node3"><a xlink:href="dir_adb84e959311a9ff6718b594edd7a2c4.html" target="_top" xlink:title="edit">
<polygon fill="#a2b4d6" stroke="#404040" points="234.47,-184 202.47,-184 202.47,-165 234.47,-165 234.47,-184"/>
<text text-anchor="middle" x="218.47" y="-172" font-family="Helvetica,sans-Serif" font-size="10.00">edit</text>
</a>
</g>
</g>
<!-- dir_35aa532d637074063c646a4cf80a0972&#45;&gt;dir_adb84e959311a9ff6718b594edd7a2c4 -->
<g id="edge4" class="edge">
<title>dir_35aa532d637074063c646a4cf80a0972&#45;&gt;dir_adb84e959311a9ff6718b594edd7a2c4</title>
<g id="a_edge4"><a xlink:href="dir_000011_000006.html" target="_top">
<path fill="none" stroke="#63b8ff" d="M224.37,-220.22C223.5,-213.65 222.25,-204.18 221.13,-195.64"/>
<polygon fill="#63b8ff" stroke="#63b8ff" points="224.6,-195.21 219.82,-185.75 217.66,-196.12 224.6,-195.21"/>
</a>
</g>
<g id="a_edge4&#45;headlabel"><a xlink:href="dir_000011_000006.html" target="_top" xlink:title="8">
<text text-anchor="middle" x="227.69" y="-194.4" font-family="Helvetica,sans-Serif" font-size="10.00" fill="#63b8ff">8</text>
</a>
</g>
</g>
<!-- dir_ad0a8d4fb7f400ce29cb18ba2262ad2b -->
<g id="node4" class="node">
<title>dir_ad0a8d4fb7f400ce29cb18ba2262ad2b</title>
<g id="a_node4"><a xlink:href="dir_ad0a8d4fb7f400ce29cb18ba2262ad2b.html" target="_top" xlink:title="win">
<polygon fill="#a2b4d6" stroke="#404040" points="234.47,-129 202.47,-129 202.47,-110 234.47,-110 234.47,-129"/>
<text text-anchor="middle" x="218.47" y="-117" font-family="Helvetica,sans-Serif" font-size="10.00">win</text>
</a>
</g>
</g>
<!-- dir_35aa532d637074063c646a4cf80a0972&#45;&gt;dir_ad0a8d4fb7f400ce29cb18ba2262ad2b -->
<g id="edge3" class="edge">
<title>dir_35aa532d637074063c646a4cf80a0972&#45;&gt;dir_ad0a8d4fb7f400ce29cb18ba2262ad2b</title>
<g id="a_edge3"><a xlink:href="dir_000011_000014.html" target="_top">
<path fill="none" stroke="#63b8ff" d="M230.66,-220.31C237.67,-208.24 248.69,-184.95 243.47,-165 241.06,-155.81 236.28,-146.5 231.54,-138.8"/>
<polygon fill="#63b8ff" stroke="#63b8ff" points="234.61,-137.1 226.17,-130.7 228.78,-140.97 234.61,-137.1"/>
</a>
</g>
<g id="a_edge3&#45;headlabel"><a xlink:href="dir_000011_000014.html" target="_top" xlink:title="8">
<text text-anchor="middle" x="238.13" y="-134.76" font-family="Helvetica,sans-Serif" font-size="10.00" fill="#63b8ff">8</text>
</a>
</g>
</g>
<!-- dir_11bc0974ce736ce9a6fadebbeb7a8314 -->
<g id="node5" class="node">
<title>dir_11bc0974ce736ce9a6fadebbeb7a8314</title>
<g id="a_node5"><a xlink:href="dir_11bc0974ce736ce9a6fadebbeb7a8314.html" target="_top" xlink:title="gui">
<polygon fill="#edf0f7" stroke="#404040" points="315.97,-19 286.97,-19 286.97,0 315.97,0 315.97,-19"/>
<text text-anchor="middle" x="301.47" y="-7" font-family="Helvetica,sans-Serif" font-size="10.00">gui</text>
</a>
</g>
</g>
<!-- dir_35aa532d637074063c646a4cf80a0972&#45;&gt;dir_11bc0974ce736ce9a6fadebbeb7a8314 -->
<g id="edge1" class="edge">
<title>dir_35aa532d637074063c646a4cf80a0972&#45;&gt;dir_11bc0974ce736ce9a6fadebbeb7a8314</title>
<g id="a_edge1"><a xlink:href="dir_000011_000009.html" target="_top">
<path fill="none" stroke="#63b8ff" d="M231.67,-220.03C247.66,-197.62 289.99,-134.35 304.47,-74 307.9,-59.67 306.94,-43.02 305.23,-30.36"/>
<polygon fill="#63b8ff" stroke="#63b8ff" points="308.73,-30.07 303.65,-20.77 301.82,-31.2 308.73,-30.07"/>
</a>
</g>
<g id="a_edge1&#45;headlabel"><a xlink:href="dir_000011_000009.html" target="_top" xlink:title="44">
<text text-anchor="middle" x="311.87" y="-29.16" font-family="Helvetica,sans-Serif" font-size="10.00" fill="#63b8ff">44</text>
</a>
</g>
</g>
<!-- dir_167790342fb55959539d550b874be046 -->
<g id="node6" class="node">
<title>dir_167790342fb55959539d550b874be046</title>
<g id="a_node6"><a xlink:href="dir_167790342fb55959539d550b874be046.html" target="_top" xlink:title="project">
<polygon fill="#edf0f7" stroke="red" points="103.47,-19 57.47,-19 57.47,0 103.47,0 103.47,-19"/>
<text text-anchor="middle" x="80.47" y="-7" font-family="Helvetica,sans-Serif" font-size="10.00">project</text>
</a>
</g>
</g>
<!-- dir_35aa532d637074063c646a4cf80a0972&#45;&gt;dir_167790342fb55959539d550b874be046 -->
<g id="edge2" class="edge">
<title>dir_35aa532d637074063c646a4cf80a0972&#45;&gt;dir_167790342fb55959539d550b874be046</title>
<g id="a_edge2"><a xlink:href="dir_000011_000012.html" target="_top">
<path fill="none" stroke="#63b8ff" d="M203.11,-227.82C166.73,-225.72 93.77,-217.32 43.47,-184 18.05,-167.16 12.07,-157.94 2.47,-129 -5.91,-103.76 13.24,-53.97 18.47,-47 25.72,-37.33 36.35,-29.76 46.76,-24.08"/>
<polygon fill="#63b8ff" stroke="#63b8ff" points="48.21,-27.27 55.61,-19.69 45.1,-21 48.21,-27.27"/>
</a>
</g>
<g id="a_edge2&#45;headlabel"><a xlink:href="dir_000011_000012.html" target="_top" xlink:title="20">
<text text-anchor="middle" x="47.6" y="-28.24" font-family="Helvetica,sans-Serif" font-size="10.00" fill="#63b8ff">20</text>
</a>
</g>
</g>
<!-- dir_b23ce9843a0cf83641620a63d26b700d -->
<g id="node8" class="node">
<title>dir_b23ce9843a0cf83641620a63d26b700d</title>
<g id="a_node8"><a xlink:href="dir_b23ce9843a0cf83641620a63d26b700d.html" target="_top" xlink:title="calc">
<polygon fill="#edf0f7" stroke="red" points="205.97,-19 170.97,-19 170.97,0 205.97,0 205.97,-19"/>
<text text-anchor="middle" x="188.47" y="-7" font-family="Helvetica,sans-Serif" font-size="10.00">calc</text>
</a>
</g>
</g>
<!-- dir_35aa532d637074063c646a4cf80a0972&#45;&gt;dir_b23ce9843a0cf83641620a63d26b700d -->
<g id="edge5" class="edge">
<title>dir_35aa532d637074063c646a4cf80a0972&#45;&gt;dir_b23ce9843a0cf83641620a63d26b700d</title>
<g id="a_edge5"><a xlink:href="dir_000011_000000.html" target="_top">
<path fill="none" stroke="#63b8ff" d="M203.18,-225.87C157.68,-219.18 54.76,-196.88 11.47,-129 -8.01,-98.47 29.08,-62.26 49.47,-47 81.95,-22.69 129.24,-14.54 159.43,-11.82"/>
<polygon fill="#63b8ff" stroke="#63b8ff" points="159.62,-15.32 169.34,-11.09 159.11,-8.34 159.62,-15.32"/>
</a>
</g>
<g id="a_edge5&#45;headlabel"><a xlink:href="dir_000011_000000.html" target="_top" xlink:title="9">
<text text-anchor="middle" x="157.76" y="-15.8" font-family="Helvetica,sans-Serif" font-size="10.00" fill="#63b8ff">9</text>
</a>
</g>
</g>
<!-- dir_0e34caf28e6baf80c1fb8b79d4d9295f -->
<g id="node2" class="node">
<title>dir_0e34caf28e6baf80c1fb8b79d4d9295f</title>
<g id="a_node2"><a xlink:href="dir_0e34caf28e6baf80c1fb8b79d4d9295f.html" target="_top" xlink:title="draw">
<polygon fill="#a2b4d6" stroke="#404040" points="254.47,-74 216.47,-74 216.47,-55 254.47,-55 254.47,-74"/>
<text text-anchor="middle" x="235.47" y="-62" font-family="Helvetica,sans-Serif" font-size="10.00">draw</text>
</a>
</g>
</g>
<!-- dir_0e34caf28e6baf80c1fb8b79d4d9295f&#45;&gt;dir_ad0a8d4fb7f400ce29cb18ba2262ad2b -->
<g id="edge8" class="edge">
<title>dir_0e34caf28e6baf80c1fb8b79d4d9295f&#45;&gt;dir_ad0a8d4fb7f400ce29cb18ba2262ad2b</title>
<g id="a_edge8"><a xlink:href="dir_000005_000014.html" target="_top">
<path fill="none" stroke="#63b8ff" d="M237.8,-74.44C237.05,-81.28 234.38,-90.96 231.06,-99.5"/>
<polygon fill="#63b8ff" stroke="#63b8ff" points="227.99,-97.81 227.06,-108.37 234.37,-100.69 227.99,-97.81"/>
</a>
</g>
<g id="a_edge8&#45;headlabel"><a xlink:href="dir_000005_000014.html" target="_top" xlink:title="4">
<text text-anchor="middle" x="226.25" y="-92.25" font-family="Helvetica,sans-Serif" font-size="10.00" fill="#63b8ff">4</text>
</a>
</g>
</g>
<!-- dir_0e34caf28e6baf80c1fb8b79d4d9295f&#45;&gt;dir_11bc0974ce736ce9a6fadebbeb7a8314 -->
<g id="edge6" class="edge">
<title>dir_0e34caf28e6baf80c1fb8b79d4d9295f&#45;&gt;dir_11bc0974ce736ce9a6fadebbeb7a8314</title>
<g id="a_edge6"><a xlink:href="dir_000005_000009.html" target="_top">
<path fill="none" stroke="#63b8ff" d="M246.66,-54.51C256.2,-46.85 270.14,-35.66 281.57,-26.47"/>
<polygon fill="#63b8ff" stroke="#63b8ff" points="283.65,-29.3 289.26,-20.31 279.27,-23.84 283.65,-29.3"/>
</a>
</g>
<g id="a_edge6&#45;headlabel"><a xlink:href="dir_000005_000009.html" target="_top" xlink:title="3">
<text text-anchor="middle" x="283.81" y="-30.31" font-family="Helvetica,sans-Serif" font-size="10.00" fill="#63b8ff">3</text>
</a>
</g>
</g>
<!-- dir_0e34caf28e6baf80c1fb8b79d4d9295f&#45;&gt;dir_167790342fb55959539d550b874be046 -->
<g id="edge7" class="edge">
<title>dir_0e34caf28e6baf80c1fb8b79d4d9295f&#45;&gt;dir_167790342fb55959539d550b874be046</title>
<g id="a_edge7"><a xlink:href="dir_000005_000012.html" target="_top">
<path fill="none" stroke="#63b8ff" d="M216.15,-56.89C190.78,-48.22 145.81,-32.84 114.63,-22.18"/>
<polygon fill="#63b8ff" stroke="#63b8ff" points="115.85,-18.9 105.26,-18.98 113.59,-25.53 115.85,-18.9"/>
</a>
</g>
<g id="a_edge7&#45;headlabel"><a xlink:href="dir_000005_000012.html" target="_top" xlink:title="2">
<text text-anchor="middle" x="118.74" y="-14.39" font-family="Helvetica,sans-Serif" font-size="10.00" fill="#63b8ff">2</text>
</a>
</g>
</g>
<!-- dir_0e34caf28e6baf80c1fb8b79d4d9295f&#45;&gt;dir_b23ce9843a0cf83641620a63d26b700d -->
<g id="edge9" class="edge">
<title>dir_0e34caf28e6baf80c1fb8b79d4d9295f&#45;&gt;dir_b23ce9843a0cf83641620a63d26b700d</title>
<g id="a_edge9"><a xlink:href="dir_000005_000000.html" target="_top">
<path fill="none" stroke="#63b8ff" d="M227.71,-54.75C221.28,-47.5 211.95,-36.98 204,-28.02"/>
<polygon fill="#63b8ff" stroke="#63b8ff" points="206.65,-25.73 197.4,-20.57 201.42,-30.38 206.65,-25.73"/>
</a>
</g>
<g id="a_edge9&#45;headlabel"><a xlink:href="dir_000005_000000.html" target="_top" xlink:title="5">
<text text-anchor="middle" x="210.16" y="-22.91" font-family="Helvetica,sans-Serif" font-size="10.00" fill="#63b8ff">5</text>
</a>
</g>
</g>
<!-- dir_adb84e959311a9ff6718b594edd7a2c4&#45;&gt;dir_ad0a8d4fb7f400ce29cb18ba2262ad2b -->
<g id="edge13" class="edge">
<title>dir_adb84e959311a9ff6718b594edd7a2c4&#45;&gt;dir_ad0a8d4fb7f400ce29cb18ba2262ad2b</title>
<g id="a_edge13"><a xlink:href="dir_000006_000014.html" target="_top">
<path fill="none" stroke="#63b8ff" d="M213.3,-164.75C211.89,-158.19 211.42,-148.95 211.89,-140.6"/>
<polygon fill="#63b8ff" stroke="#63b8ff" points="215.34,-141.3 213.08,-130.94 208.39,-140.45 215.34,-141.3"/>
</a>
</g>
<g id="a_edge13&#45;headlabel"><a xlink:href="dir_000006_000014.html" target="_top" xlink:title="3">
<text text-anchor="middle" x="217.9" y="-141.21" font-family="Helvetica,sans-Serif" font-size="10.00" fill="#63b8ff">3</text>
</a>
</g>
</g>
<!-- dir_adb84e959311a9ff6718b594edd7a2c4&#45;&gt;dir_11bc0974ce736ce9a6fadebbeb7a8314 -->
<g id="edge10" class="edge">
<title>dir_adb84e959311a9ff6718b594edd7a2c4&#45;&gt;dir_11bc0974ce736ce9a6fadebbeb7a8314</title>
<g id="a_edge10"><a xlink:href="dir_000006_000009.html" target="_top">
<path fill="none" stroke="#63b8ff" d="M226.27,-164.58C240.42,-147.95 270.33,-110.56 286.47,-74 292.57,-60.17 296.39,-43.49 298.64,-30.7"/>
<polygon fill="#63b8ff" stroke="#63b8ff" points="302.08,-31.37 300.17,-20.95 295.17,-30.29 302.08,-31.37"/>
</a>
</g>
<g id="a_edge10&#45;headlabel"><a xlink:href="dir_000006_000009.html" target="_top" xlink:title="8">
<text text-anchor="middle" x="304.57" y="-31.37" font-family="Helvetica,sans-Serif" font-size="10.00" fill="#63b8ff">8</text>
</a>
</g>
</g>
<!-- dir_adb84e959311a9ff6718b594edd7a2c4&#45;&gt;dir_167790342fb55959539d550b874be046 -->
<g id="edge11" class="edge">
<title>dir_adb84e959311a9ff6718b594edd7a2c4&#45;&gt;dir_167790342fb55959539d550b874be046</title>
<g id="a_edge11"><a xlink:href="dir_000006_000012.html" target="_top">
<path fill="none" stroke="#63b8ff" d="M202.06,-169.65C166.54,-160.33 83.04,-132.85 49.47,-74 43.52,-63.58 45.33,-58.26 49.47,-47 52.1,-39.83 56.84,-33.11 61.83,-27.43"/>
<polygon fill="#63b8ff" stroke="#63b8ff" points="64.07,-30.14 68.55,-20.54 59.06,-25.25 64.07,-30.14"/>
</a>
</g>
<g id="a_edge11&#45;headlabel"><a xlink:href="dir_000006_000012.html" target="_top" xlink:title="6">
<text text-anchor="middle" x="64.65" y="-31.12" font-family="Helvetica,sans-Serif" font-size="10.00" fill="#63b8ff">6</text>
</a>
</g>
</g>
<!-- dir_a5be7bbed3ff2f129951759fe96bf5d5 -->
<g id="node7" class="node">
<title>dir_a5be7bbed3ff2f129951759fe96bf5d5</title>
<g id="a_node7"><a xlink:href="dir_a5be7bbed3ff2f129951759fe96bf5d5.html" target="_top" xlink:title="workspace">
<polygon fill="#edf0f7" stroke="#404040" points="122.47,-74 58.47,-74 58.47,-55 122.47,-55 122.47,-74"/>
<text text-anchor="middle" x="90.47" y="-62" font-family="Helvetica,sans-Serif" font-size="10.00">workspace</text>
</a>
</g>
</g>
<!-- dir_adb84e959311a9ff6718b594edd7a2c4&#45;&gt;dir_a5be7bbed3ff2f129951759fe96bf5d5 -->
<g id="edge12" class="edge">
<title>dir_adb84e959311a9ff6718b594edd7a2c4&#45;&gt;dir_a5be7bbed3ff2f129951759fe96bf5d5</title>
<g id="a_edge12"><a xlink:href="dir_000006_000015.html" target="_top">
<path fill="none" stroke="#63b8ff" d="M207.99,-164.66C186.52,-146.55 137.24,-104.96 109.8,-81.81"/>
<polygon fill="#63b8ff" stroke="#63b8ff" points="112.14,-79.21 102.24,-75.44 107.63,-84.56 112.14,-79.21"/>
</a>
</g>
<g id="a_edge12&#45;headlabel"><a xlink:href="dir_000006_000015.html" target="_top" xlink:title="4">
<text text-anchor="middle" x="115.56" y="-75.88" font-family="Helvetica,sans-Serif" font-size="10.00" fill="#63b8ff">4</text>
</a>
</g>
</g>
<!-- dir_f503eccc909c3cc44ffd239385415fa7 -->
<g id="node9" class="node">
<title>dir_f503eccc909c3cc44ffd239385415fa7</title>
<g id="a_node9"><a xlink:href="dir_f503eccc909c3cc44ffd239385415fa7.html" target="_top" xlink:title="curve">
<polygon fill="#edf0f7" stroke="#404040" points="61.97,-129 20.97,-129 20.97,-110 61.97,-110 61.97,-129"/>
<text text-anchor="middle" x="41.47" y="-117" font-family="Helvetica,sans-Serif" font-size="10.00">curve</text>
</a>
</g>
</g>
<!-- dir_adb84e959311a9ff6718b594edd7a2c4&#45;&gt;dir_f503eccc909c3cc44ffd239385415fa7 -->
<g id="edge14" class="edge">
<title>dir_adb84e959311a9ff6718b594edd7a2c4&#45;&gt;dir_f503eccc909c3cc44ffd239385415fa7</title>
<g id="a_edge14"><a xlink:href="dir_000006_000003.html" target="_top">
<path fill="none" stroke="#63b8ff" d="M202.13,-168.61C172.89,-159.85 111.13,-141.36 73.28,-130.02"/>
<polygon fill="#63b8ff" stroke="#63b8ff" points="74.39,-126.71 63.81,-127.19 72.38,-133.41 74.39,-126.71"/>
</a>
</g>
<g id="a_edge14&#45;headlabel"><a xlink:href="dir_000006_000003.html" target="_top" xlink:title="1">
<text text-anchor="middle" x="77.2" y="-122.08" font-family="Helvetica,sans-Serif" font-size="10.00" fill="#63b8ff">1</text>
</a>
</g>
</g>
<!-- dir_ad0a8d4fb7f400ce29cb18ba2262ad2b&#45;&gt;dir_0e34caf28e6baf80c1fb8b79d4d9295f -->
<g id="edge15" class="edge">
<title>dir_ad0a8d4fb7f400ce29cb18ba2262ad2b&#45;&gt;dir_0e34caf28e6baf80c1fb8b79d4d9295f</title>
<g id="a_edge15"><a xlink:href="dir_000014_000005.html" target="_top">
<path fill="none" stroke="#63b8ff" d="M216.11,-109.75C216.83,-102.96 219.47,-93.3 222.78,-84.73"/>
<polygon fill="#63b8ff" stroke="#63b8ff" points="225.88,-86.38 226.77,-75.82 219.49,-83.52 225.88,-86.38"/>
</a>
</g>
<g id="a_edge15&#45;headlabel"><a xlink:href="dir_000014_000005.html" target="_top" xlink:title="1">
<text text-anchor="middle" x="227.62" y="-86.94" font-family="Helvetica,sans-Serif" font-size="10.00" fill="#63b8ff">1</text>
</a>
</g>
</g>
<!-- dir_ad0a8d4fb7f400ce29cb18ba2262ad2b&#45;&gt;dir_adb84e959311a9ff6718b594edd7a2c4 -->
<g id="edge19" class="edge">
<title>dir_ad0a8d4fb7f400ce29cb18ba2262ad2b&#45;&gt;dir_adb84e959311a9ff6718b594edd7a2c4</title>
<g id="a_edge19"><a xlink:href="dir_000014_000006.html" target="_top">
<path fill="none" stroke="#63b8ff" d="M223.67,-129.44C225.05,-135.97 225.5,-145.1 225.04,-153.35"/>
<polygon fill="#63b8ff" stroke="#63b8ff" points="221.57,-152.89 223.82,-163.25 228.52,-153.75 221.57,-152.89"/>
</a>
</g>
<g id="a_edge19&#45;headlabel"><a xlink:href="dir_000014_000006.html" target="_top" xlink:title="7">
<text text-anchor="middle" x="219.01" y="-147.98" font-family="Helvetica,sans-Serif" font-size="10.00" fill="#63b8ff">7</text>
</a>
</g>
</g>
<!-- dir_ad0a8d4fb7f400ce29cb18ba2262ad2b&#45;&gt;dir_11bc0974ce736ce9a6fadebbeb7a8314 -->
<g id="edge16" class="edge">
<title>dir_ad0a8d4fb7f400ce29cb18ba2262ad2b&#45;&gt;dir_11bc0974ce736ce9a6fadebbeb7a8314</title>
<g id="a_edge16"><a xlink:href="dir_000014_000009.html" target="_top">
<path fill="none" stroke="#63b8ff" d="M228.86,-109.61C238.49,-101.06 252.89,-87.49 263.47,-74 274.5,-59.93 284.78,-42.38 291.85,-29.3"/>
<polygon fill="#63b8ff" stroke="#63b8ff" points="294.92,-30.98 296.48,-20.5 288.73,-27.72 294.92,-30.98"/>
</a>
</g>
<g id="a_edge16&#45;headlabel"><a xlink:href="dir_000014_000009.html" target="_top" xlink:title="29">
<text text-anchor="middle" x="296.47" y="-31.64" font-family="Helvetica,sans-Serif" font-size="10.00" fill="#63b8ff">29</text>
</a>
</g>
</g>
<!-- dir_ad0a8d4fb7f400ce29cb18ba2262ad2b&#45;&gt;dir_167790342fb55959539d550b874be046 -->
<g id="edge17" class="edge">
<title>dir_ad0a8d4fb7f400ce29cb18ba2262ad2b&#45;&gt;dir_167790342fb55959539d550b874be046</title>
<g id="a_edge17"><a xlink:href="dir_000014_000012.html" target="_top">
<path fill="none" stroke="#63b8ff" d="M208.2,-109.69C192.11,-95.96 159.85,-68.78 131.47,-47 122.08,-39.8 111.47,-32.13 102.37,-25.69"/>
<polygon fill="#63b8ff" stroke="#63b8ff" points="104.65,-23.02 94.45,-20.14 100.63,-28.75 104.65,-23.02"/>
</a>
</g>
<g id="a_edge17&#45;headlabel"><a xlink:href="dir_000014_000012.html" target="_top" xlink:title="11">
<text text-anchor="middle" x="107.98" y="-19.39" font-family="Helvetica,sans-Serif" font-size="10.00" fill="#63b8ff">11</text>
</a>
</g>
</g>
<!-- dir_ad0a8d4fb7f400ce29cb18ba2262ad2b&#45;&gt;dir_a5be7bbed3ff2f129951759fe96bf5d5 -->
<g id="edge18" class="edge">
<title>dir_ad0a8d4fb7f400ce29cb18ba2262ad2b&#45;&gt;dir_a5be7bbed3ff2f129951759fe96bf5d5</title>
<g id="a_edge18"><a xlink:href="dir_000014_000015.html" target="_top">
<path fill="none" stroke="#63b8ff" d="M201.99,-111.68C182,-103.4 147.82,-89.25 122.55,-78.79"/>
<polygon fill="#63b8ff" stroke="#63b8ff" points="123.97,-75.59 113.4,-74.99 121.3,-82.05 123.97,-75.59"/>
</a>
</g>
<g id="a_edge18&#45;headlabel"><a xlink:href="dir_000014_000015.html" target="_top" xlink:title="1">
<text text-anchor="middle" x="126.98" y="-71.26" font-family="Helvetica,sans-Serif" font-size="10.00" fill="#63b8ff">1</text>
</a>
</g>
</g>
<!-- dir_ad0a8d4fb7f400ce29cb18ba2262ad2b&#45;&gt;dir_b23ce9843a0cf83641620a63d26b700d -->
<g id="edge20" class="edge">
<title>dir_ad0a8d4fb7f400ce29cb18ba2262ad2b&#45;&gt;dir_b23ce9843a0cf83641620a63d26b700d</title>
<g id="a_edge20"><a xlink:href="dir_000014_000000.html" target="_top">
<path fill="none" stroke="#63b8ff" d="M216.01,-109.66C211.22,-92.42 200.52,-53.9 193.96,-30.27"/>
<polygon fill="#63b8ff" stroke="#63b8ff" points="197.41,-29.62 191.36,-20.92 190.66,-31.49 197.41,-29.62"/>
</a>
</g>
<g id="a_edge20&#45;headlabel"><a xlink:href="dir_000014_000000.html" target="_top" xlink:title="2">
<text text-anchor="middle" x="200.7" y="-28.36" font-family="Helvetica,sans-Serif" font-size="10.00" fill="#63b8ff">2</text>
</a>
</g>
</g>
</g>
</svg>
</svg>

<style type='text/css'>
<![CDATA[
[data-mouse-over-selected='false'] { opacity: 0.7; }
[data-mouse-over-selected='true']  { opacity: 1.0; }
]]>
</style>
<script type="application/ecmascript"><![CDATA[
document.addEventListener('DOMContentLoaded', (event) => {
  highlightEdges();
  highlightAdjacentNodes();
});
]]></script>
</svg>
