<?xml version="1.0" encoding="UTF-8" standalone="no"?>
<!DOCTYPE svg PUBLIC "-//W3C//DTD SVG 1.1//EN"
 "http://www.w3.org/Graphics/SVG/1.1/DTD/svg11.dtd">
<!-- Generated by graphviz version 2.43.0 (0)
 -->
<!-- Title: calc Pages: 1 -->
<svg width="367pt" height="153pt"
 viewBox="0.00 0.00 366.91 153.00" xmlns="http://www.w3.org/2000/svg" xmlns:xlink="http://www.w3.org/1999/xlink">
<g id="graph0" class="graph" transform="scale(1 1) rotate(0) translate(4 149)">
<title>calc</title>
<g id="clust1" class="cluster">
<title>clusterdir_b23ce9843a0cf83641620a63d26b700d</title>
<g id="a_clust1"><a xlink:href="dir_b23ce9843a0cf83641620a63d26b700d.html" target="_top">
<polygon fill="#edf0f7" stroke="#404040" stroke-width="2" points="24.43,-47 24.43,-137 300.43,-137 300.43,-47 24.43,-47"/>
</a>
</g>
</g>
<!-- dir_b23ce9843a0cf83641620a63d26b700d -->
<g id="node1" class="node">
<title>dir_b23ce9843a0cf83641620a63d26b700d</title>
<text text-anchor="middle" x="274.43" y="-117" font-family="Helvetica,sans-Serif" font-size="10.00">calc</text>
</g>
<!-- dir_11bc0974ce736ce9a6fadebbeb7a8314 -->
<g id="node7" class="node">
<title>dir_11bc0974ce736ce9a6fadebbeb7a8314</title>
<g id="a_node7"><a xlink:href="dir_11bc0974ce736ce9a6fadebbeb7a8314.html" target="_top" xlink:title="gui">
<polygon fill="#edf0f7" stroke="#404040" points="91.43,-19 59.43,-19 59.43,0 91.43,0 91.43,-19"/>
<text text-anchor="middle" x="75.43" y="-7" font-family="Helvetica,sans-Serif" font-size="10.00">gui</text>
</a>
</g>
</g>
<!-- dir_b23ce9843a0cf83641620a63d26b700d&#45;&gt;dir_11bc0974ce736ce9a6fadebbeb7a8314 -->
<g id="edge1" class="edge">
<title>dir_b23ce9843a0cf83641620a63d26b700d&#45;&gt;dir_11bc0974ce736ce9a6fadebbeb7a8314</title>
<g id="a_edge1"><a xlink:href="dir_000000_000009.html" target="_top">
<path fill="none" stroke="#63b8ff" d="M256.16,-112.63C253.25,-111.73 250.26,-110.83 247.43,-110 188.23,-92.74 162.63,-111.17 113.43,-74 98.25,-62.53 87.92,-43.09 81.9,-28.73"/>
<polygon fill="#63b8ff" stroke="#63b8ff" points="85.15,-27.43 78.28,-19.36 78.62,-29.95 85.15,-27.43"/>
</a>
</g>
<g id="a_edge1&#45;headlabel"><a xlink:href="dir_000000_000009.html" target="_top" xlink:title="27">
<text text-anchor="middle" x="89.1" y="-27.25" font-family="Helvetica,sans-Serif" font-size="10.00" fill="#63b8ff">27</text>
</a>
</g>
</g>
<!-- dir_167790342fb55959539d550b874be046 -->
<g id="node8" class="node">
<title>dir_167790342fb55959539d550b874be046</title>
<g id="a_node8"><a xlink:href="dir_167790342fb55959539d550b874be046.html" target="_top" xlink:title="project">
<polygon fill="#edf0f7" stroke="red" points="322.43,-19 272.43,-19 272.43,0 322.43,0 322.43,-19"/>
<text text-anchor="middle" x="297.43" y="-7" font-family="Helvetica,sans-Serif" font-size="10.00">project</text>
</a>
</g>
</g>
<!-- dir_b23ce9843a0cf83641620a63d26b700d&#45;&gt;dir_167790342fb55959539d550b874be046 -->
<g id="edge2" class="edge">
<title>dir_b23ce9843a0cf83641620a63d26b700d&#45;&gt;dir_167790342fb55959539d550b874be046</title>
<g id="a_edge2"><a xlink:href="dir_000000_000012.html" target="_top">
<path fill="none" stroke="#63b8ff" d="M292.53,-114.2C311.75,-108.56 341.14,-96.6 354.43,-74 360.51,-63.66 360.19,-57.53 354.43,-47 349.04,-37.16 339.75,-29.58 330.2,-23.94"/>
<polygon fill="#63b8ff" stroke="#63b8ff" points="331.58,-20.71 321.1,-19.13 328.3,-26.9 331.58,-20.71"/>
</a>
</g>
<g id="a_edge2&#45;headlabel"><a xlink:href="dir_000000_000012.html" target="_top" xlink:title="7">
<text text-anchor="middle" x="336.08" y="-17.38" font-family="Helvetica,sans-Serif" font-size="10.00" fill="#63b8ff">7</text>
</a>
</g>
</g>
<!-- dir_35aa532d637074063c646a4cf80a0972 -->
<g id="node9" class="node">
<title>dir_35aa532d637074063c646a4cf80a0972</title>
<g id="a_node9"><a xlink:href="dir_35aa532d637074063c646a4cf80a0972.html" target="_top" xlink:title="opengl">
<polygon fill="#edf0f7" stroke="red" points="244.43,-19 194.43,-19 194.43,0 244.43,0 244.43,-19"/>
<text text-anchor="middle" x="219.43" y="-7" font-family="Helvetica,sans-Serif" font-size="10.00">opengl</text>
</a>
</g>
</g>
<!-- dir_b23ce9843a0cf83641620a63d26b700d&#45;&gt;dir_35aa532d637074063c646a4cf80a0972 -->
<g id="edge3" class="edge">
<title>dir_b23ce9843a0cf83641620a63d26b700d&#45;&gt;dir_35aa532d637074063c646a4cf80a0972</title>
<g id="a_edge3"><a xlink:href="dir_000000_000011.html" target="_top">
<path fill="none" stroke="#63b8ff" d="M274.48,-109.97C274.2,-95.92 272.09,-67.44 260.43,-47 255.68,-38.67 248.33,-31.25 241.16,-25.31"/>
<polygon fill="#63b8ff" stroke="#63b8ff" points="243.05,-22.35 232.98,-19.05 238.8,-27.91 243.05,-22.35"/>
</a>
</g>
<g id="a_edge3&#45;headlabel"><a xlink:href="dir_000000_000011.html" target="_top" xlink:title="24">
<text text-anchor="middle" x="247.63" y="-19.78" font-family="Helvetica,sans-Serif" font-size="10.00" fill="#63b8ff">24</text>
</a>
</g>
</g>
<!-- dir_01a309c05bfc2b395e442be53fadc5b8 -->
<g id="node2" class="node">
<title>dir_01a309c05bfc2b395e442be53fadc5b8</title>
<g id="a_node2"><a xlink:href="dir_01a309c05bfc2b395e442be53fadc5b8.html" target="_top" xlink:title="cp2k">
<polygon fill="#a2b4d6" stroke="#404040" points="238.43,-129 198.43,-129 198.43,-110 238.43,-110 238.43,-129"/>
<text text-anchor="middle" x="218.43" y="-117" font-family="Helvetica,sans-Serif" font-size="10.00">cp2k</text>
</a>
</g>
</g>
<!-- dir_3c461fae8816b6eed18cc888a5849005 -->
<g id="node3" class="node">
<title>dir_3c461fae8816b6eed18cc888a5849005</title>
<g id="a_node3"><a xlink:href="dir_3c461fae8816b6eed18cc888a5849005.html" target="_top" xlink:title="cpmd">
<polygon fill="#a2b4d6" stroke="#404040" points="236.43,-74 192.43,-74 192.43,-55 236.43,-55 236.43,-74"/>
<text text-anchor="middle" x="214.43" y="-62" font-family="Helvetica,sans-Serif" font-size="10.00">cpmd</text>
</a>
</g>
</g>
<!-- dir_01a309c05bfc2b395e442be53fadc5b8&#45;&gt;dir_3c461fae8816b6eed18cc888a5849005 -->
<g id="edge7" class="edge">
<title>dir_01a309c05bfc2b395e442be53fadc5b8&#45;&gt;dir_3c461fae8816b6eed18cc888a5849005</title>
<g id="a_edge7"><a xlink:href="dir_000001_000002.html" target="_top">
<path fill="none" stroke="#63b8ff" d="M212.6,-109.75C210.59,-102.8 209.4,-92.85 209.36,-84.13"/>
<polygon fill="#63b8ff" stroke="#63b8ff" points="212.86,-84.28 209.95,-74.09 205.87,-83.87 212.86,-84.28"/>
</a>
</g>
<g id="a_edge7&#45;headlabel"><a xlink:href="dir_000001_000002.html" target="_top" xlink:title="1">
<text text-anchor="middle" x="215.48" y="-85.53" font-family="Helvetica,sans-Serif" font-size="10.00" fill="#63b8ff">1</text>
</a>
</g>
</g>
<!-- dir_01a309c05bfc2b395e442be53fadc5b8&#45;&gt;dir_11bc0974ce736ce9a6fadebbeb7a8314 -->
<g id="edge4" class="edge">
<title>dir_01a309c05bfc2b395e442be53fadc5b8&#45;&gt;dir_11bc0974ce736ce9a6fadebbeb7a8314</title>
<g id="a_edge4"><a xlink:href="dir_000001_000009.html" target="_top">
<path fill="none" stroke="#63b8ff" d="M198.4,-112.36C160.6,-100.72 82.32,-76.39 80.43,-74 70.68,-61.66 70.22,-43.44 71.74,-29.68"/>
<polygon fill="#63b8ff" stroke="#63b8ff" points="75.26,-29.81 73.31,-19.39 68.34,-28.75 75.26,-29.81"/>
</a>
</g>
<g id="a_edge4&#45;headlabel"><a xlink:href="dir_000001_000009.html" target="_top" xlink:title="6">
<text text-anchor="middle" x="77.52" y="-31.29" font-family="Helvetica,sans-Serif" font-size="10.00" fill="#63b8ff">6</text>
</a>
</g>
</g>
<!-- dir_01a309c05bfc2b395e442be53fadc5b8&#45;&gt;dir_167790342fb55959539d550b874be046 -->
<g id="edge5" class="edge">
<title>dir_01a309c05bfc2b395e442be53fadc5b8&#45;&gt;dir_167790342fb55959539d550b874be046</title>
<g id="a_edge5"><a xlink:href="dir_000001_000012.html" target="_top">
<path fill="none" stroke="#63b8ff" d="M227.76,-109.84C236.74,-101.24 250.38,-87.44 260.43,-74 271.39,-59.34 281.68,-41.18 288.62,-28.03"/>
<polygon fill="#63b8ff" stroke="#63b8ff" points="291.75,-29.6 293.22,-19.1 285.53,-26.39 291.75,-29.6"/>
</a>
</g>
<g id="a_edge5&#45;headlabel"><a xlink:href="dir_000001_000012.html" target="_top" xlink:title="2">
<text text-anchor="middle" x="292.63" y="-31.59" font-family="Helvetica,sans-Serif" font-size="10.00" fill="#63b8ff">2</text>
</a>
</g>
</g>
<!-- dir_01a309c05bfc2b395e442be53fadc5b8&#45;&gt;dir_35aa532d637074063c646a4cf80a0972 -->
<g id="edge6" class="edge">
<title>dir_01a309c05bfc2b395e442be53fadc5b8&#45;&gt;dir_35aa532d637074063c646a4cf80a0972</title>
<g id="a_edge6"><a xlink:href="dir_000001_000011.html" target="_top">
<path fill="none" stroke="#63b8ff" d="M225.58,-109.97C232.2,-101.48 241.58,-87.75 245.43,-74 248.66,-62.44 249.08,-58.43 245.43,-47 243.14,-39.83 238.86,-32.87 234.43,-26.98"/>
<polygon fill="#63b8ff" stroke="#63b8ff" points="237.1,-24.71 228.05,-19.22 231.7,-29.16 237.1,-24.71"/>
</a>
</g>
<g id="a_edge6&#45;headlabel"><a xlink:href="dir_000001_000011.html" target="_top" xlink:title="4">
<text text-anchor="middle" x="241.58" y="-23.18" font-family="Helvetica,sans-Serif" font-size="10.00" fill="#63b8ff">4</text>
</a>
</g>
</g>
<!-- dir_3c461fae8816b6eed18cc888a5849005&#45;&gt;dir_01a309c05bfc2b395e442be53fadc5b8 -->
<g id="edge8" class="edge">
<title>dir_3c461fae8816b6eed18cc888a5849005&#45;&gt;dir_01a309c05bfc2b395e442be53fadc5b8</title>
<g id="a_edge8"><a xlink:href="dir_000002_000001.html" target="_top">
<path fill="none" stroke="#63b8ff" d="M220.21,-74.09C222.24,-80.99 223.44,-90.93 223.5,-99.66"/>
<polygon fill="#63b8ff" stroke="#63b8ff" points="220,-99.57 222.94,-109.75 226.99,-99.96 220,-99.57"/>
</a>
</g>
<g id="a_edge8&#45;headlabel"><a xlink:href="dir_000002_000001.html" target="_top" xlink:title="2">
<text text-anchor="middle" x="217.37" y="-93.32" font-family="Helvetica,sans-Serif" font-size="10.00" fill="#63b8ff">2</text>
</a>
</g>
</g>
<!-- dir_3c461fae8816b6eed18cc888a5849005&#45;&gt;dir_11bc0974ce736ce9a6fadebbeb7a8314 -->
<g id="edge9" class="edge">
<title>dir_3c461fae8816b6eed18cc888a5849005&#45;&gt;dir_11bc0974ce736ce9a6fadebbeb7a8314</title>
<g id="a_edge9"><a xlink:href="dir_000002_000009.html" target="_top">
<path fill="none" stroke="#63b8ff" d="M199.54,-54.94C194.51,-52.22 188.8,-49.32 183.43,-47 155.98,-35.15 123.31,-24.57 101.15,-17.9"/>
<polygon fill="#63b8ff" stroke="#63b8ff" points="102.06,-14.51 91.47,-15.03 100.07,-21.23 102.06,-14.51"/>
</a>
</g>
<g id="a_edge9&#45;headlabel"><a xlink:href="dir_000002_000009.html" target="_top" xlink:title="7">
<text text-anchor="middle" x="106.31" y="-10.31" font-family="Helvetica,sans-Serif" font-size="10.00" fill="#63b8ff">7</text>
</a>
</g>
</g>
<!-- dir_3c461fae8816b6eed18cc888a5849005&#45;&gt;dir_167790342fb55959539d550b874be046 -->
<g id="edge10" class="edge">
<title>dir_3c461fae8816b6eed18cc888a5849005&#45;&gt;dir_167790342fb55959539d550b874be046</title>
<g id="a_edge10"><a xlink:href="dir_000002_000012.html" target="_top">
<path fill="none" stroke="#63b8ff" d="M227.77,-54.98C240.52,-46.84 259.98,-34.41 275.1,-24.76"/>
<polygon fill="#63b8ff" stroke="#63b8ff" points="277.31,-27.5 283.85,-19.17 273.54,-21.6 277.31,-27.5"/>
</a>
</g>
<g id="a_edge10&#45;headlabel"><a xlink:href="dir_000002_000012.html" target="_top" xlink:title="1">
<text text-anchor="middle" x="275.81" y="-29.33" font-family="Helvetica,sans-Serif" font-size="10.00" fill="#63b8ff">1</text>
</a>
</g>
</g>
<!-- dir_3c461fae8816b6eed18cc888a5849005&#45;&gt;dir_35aa532d637074063c646a4cf80a0972 -->
<g id="edge11" class="edge">
<title>dir_3c461fae8816b6eed18cc888a5849005&#45;&gt;dir_35aa532d637074063c646a4cf80a0972</title>
<g id="a_edge11"><a xlink:href="dir_000002_000011.html" target="_top">
<path fill="none" stroke="#63b8ff" d="M215.26,-54.75C215.91,-47.8 216.85,-37.85 217.67,-29.13"/>
<polygon fill="#63b8ff" stroke="#63b8ff" points="221.16,-29.37 218.62,-19.09 214.2,-28.72 221.16,-29.37"/>
</a>
</g>
<g id="a_edge11&#45;headlabel"><a xlink:href="dir_000002_000011.html" target="_top" xlink:title="4">
<text text-anchor="middle" x="223.65" y="-30.72" font-family="Helvetica,sans-Serif" font-size="10.00" fill="#63b8ff">4</text>
</a>
</g>
</g>
<!-- dir_2f6dfc3fd2a80fa7f81281d4ff381abc -->
<g id="node4" class="node">
<title>dir_2f6dfc3fd2a80fa7f81281d4ff381abc</title>
<g id="a_node4"><a xlink:href="dir_2f6dfc3fd2a80fa7f81281d4ff381abc.html" target="_top" xlink:title="dl_poly">
<polygon fill="#a2b4d6" stroke="#404040" points="174.43,-74 122.43,-74 122.43,-55 174.43,-55 174.43,-74"/>
<text text-anchor="middle" x="148.43" y="-62" font-family="Helvetica,sans-Serif" font-size="10.00">dl_poly</text>
</a>
</g>
</g>
<!-- dir_2f6dfc3fd2a80fa7f81281d4ff381abc&#45;&gt;dir_11bc0974ce736ce9a6fadebbeb7a8314 -->
<g id="edge12" class="edge">
<title>dir_2f6dfc3fd2a80fa7f81281d4ff381abc&#45;&gt;dir_11bc0974ce736ce9a6fadebbeb7a8314</title>
<g id="a_edge12"><a xlink:href="dir_000004_000009.html" target="_top">
<path fill="none" stroke="#63b8ff" d="M136.7,-54.98C125.7,-47 109.01,-34.88 95.83,-25.31"/>
<polygon fill="#63b8ff" stroke="#63b8ff" points="97.52,-22.21 87.37,-19.17 93.41,-27.88 97.52,-22.21"/>
</a>
</g>
<g id="a_edge12&#45;headlabel"><a xlink:href="dir_000004_000009.html" target="_top" xlink:title="11">
<text text-anchor="middle" x="102.1" y="-19.53" font-family="Helvetica,sans-Serif" font-size="10.00" fill="#63b8ff">11</text>
</a>
</g>
</g>
<!-- dir_2f6dfc3fd2a80fa7f81281d4ff381abc&#45;&gt;dir_167790342fb55959539d550b874be046 -->
<g id="edge13" class="edge">
<title>dir_2f6dfc3fd2a80fa7f81281d4ff381abc&#45;&gt;dir_167790342fb55959539d550b874be046</title>
<g id="a_edge13"><a xlink:href="dir_000004_000012.html" target="_top">
<path fill="none" stroke="#63b8ff" d="M165.32,-54.99C171.01,-52.27 177.43,-49.36 183.43,-47 209.42,-36.76 239.55,-27.21 262.3,-20.45"/>
<polygon fill="#63b8ff" stroke="#63b8ff" points="263.58,-23.72 272.19,-17.55 261.61,-17.01 263.58,-23.72"/>
</a>
</g>
<g id="a_edge13&#45;headlabel"><a xlink:href="dir_000004_000012.html" target="_top" xlink:title="3">
<text text-anchor="middle" x="260.93" y="-24.96" font-family="Helvetica,sans-Serif" font-size="10.00" fill="#63b8ff">3</text>
</a>
</g>
</g>
<!-- dir_2f6dfc3fd2a80fa7f81281d4ff381abc&#45;&gt;dir_35aa532d637074063c646a4cf80a0972 -->
<g id="edge14" class="edge">
<title>dir_2f6dfc3fd2a80fa7f81281d4ff381abc&#45;&gt;dir_35aa532d637074063c646a4cf80a0972</title>
<g id="a_edge14"><a xlink:href="dir_000004_000011.html" target="_top">
<path fill="none" stroke="#63b8ff" d="M159.84,-54.98C170.54,-47 186.77,-34.88 199.59,-25.31"/>
<polygon fill="#63b8ff" stroke="#63b8ff" points="201.89,-27.96 207.81,-19.17 197.71,-22.35 201.89,-27.96"/>
</a>
</g>
<g id="a_edge14&#45;headlabel"><a xlink:href="dir_000004_000011.html" target="_top" xlink:title="14">
<text text-anchor="middle" x="200.71" y="-29.88" font-family="Helvetica,sans-Serif" font-size="10.00" fill="#63b8ff">14</text>
</a>
</g>
</g>
<!-- dir_37646e985372d1b7e165a1cac716d637 -->
<g id="node5" class="node">
<title>dir_37646e985372d1b7e165a1cac716d637</title>
<g id="a_node5"><a xlink:href="dir_37646e985372d1b7e165a1cac716d637.html" target="_top" xlink:title="force_fields">
<polygon fill="#a2b4d6" stroke="#404040" points="179.93,-129 106.93,-129 106.93,-110 179.93,-110 179.93,-129"/>
<text text-anchor="middle" x="143.43" y="-117" font-family="Helvetica,sans-Serif" font-size="10.00">force_fields</text>
</a>
</g>
</g>
<!-- dir_37646e985372d1b7e165a1cac716d637&#45;&gt;dir_2f6dfc3fd2a80fa7f81281d4ff381abc -->
<g id="edge16" class="edge">
<title>dir_37646e985372d1b7e165a1cac716d637&#45;&gt;dir_2f6dfc3fd2a80fa7f81281d4ff381abc</title>
<g id="a_edge16"><a xlink:href="dir_000007_000004.html" target="_top">
<path fill="none" stroke="#63b8ff" d="M144.26,-109.75C144.91,-102.8 145.85,-92.85 146.67,-84.13"/>
<polygon fill="#63b8ff" stroke="#63b8ff" points="150.16,-84.37 147.62,-74.09 143.2,-83.72 150.16,-84.37"/>
</a>
</g>
<g id="a_edge16&#45;headlabel"><a xlink:href="dir_000007_000004.html" target="_top" xlink:title="1">
<text text-anchor="middle" x="152.65" y="-85.72" font-family="Helvetica,sans-Serif" font-size="10.00" fill="#63b8ff">1</text>
</a>
</g>
</g>
<!-- dir_37646e985372d1b7e165a1cac716d637&#45;&gt;dir_11bc0974ce736ce9a6fadebbeb7a8314 -->
<g id="edge15" class="edge">
<title>dir_37646e985372d1b7e165a1cac716d637&#45;&gt;dir_11bc0974ce736ce9a6fadebbeb7a8314</title>
<g id="a_edge15"><a xlink:href="dir_000007_000009.html" target="_top">
<path fill="none" stroke="#63b8ff" d="M115.01,-109.84C88.16,-101.01 50.8,-86.84 42.43,-74 35.87,-63.95 38.12,-58.2 42.43,-47 45.43,-39.22 50.94,-32.06 56.61,-26.19"/>
<polygon fill="#63b8ff" stroke="#63b8ff" points="59.33,-28.43 64.22,-19.03 54.54,-23.33 59.33,-28.43"/>
</a>
</g>
<g id="a_edge15&#45;headlabel"><a xlink:href="dir_000007_000009.html" target="_top" xlink:title="1">
<text text-anchor="middle" x="58.66" y="-30.46" font-family="Helvetica,sans-Serif" font-size="10.00" fill="#63b8ff">1</text>
</a>
</g>
</g>
<!-- dir_7de34b2e4e838288c85b1788432c8a75 -->
<g id="node6" class="node">
<title>dir_7de34b2e4e838288c85b1788432c8a75</title>
<g id="a_node6"><a xlink:href="dir_7de34b2e4e838288c85b1788432c8a75.html" target="_top" xlink:title="lammps">
<polygon fill="#a2b4d6" stroke="#404040" points="88.43,-129 32.43,-129 32.43,-110 88.43,-110 88.43,-129"/>
<text text-anchor="middle" x="60.43" y="-117" font-family="Helvetica,sans-Serif" font-size="10.00">lammps</text>
</a>
</g>
</g>
<!-- dir_7de34b2e4e838288c85b1788432c8a75&#45;&gt;dir_2f6dfc3fd2a80fa7f81281d4ff381abc -->
<g id="edge18" class="edge">
<title>dir_7de34b2e4e838288c85b1788432c8a75&#45;&gt;dir_2f6dfc3fd2a80fa7f81281d4ff381abc</title>
<g id="a_edge18"><a xlink:href="dir_000010_000004.html" target="_top">
<path fill="none" stroke="#63b8ff" d="M74.57,-109.98C88.21,-101.77 109.12,-89.18 125.21,-79.49"/>
<polygon fill="#63b8ff" stroke="#63b8ff" points="127.27,-82.33 134.03,-74.17 123.66,-76.33 127.27,-82.33"/>
</a>
</g>
<g id="a_edge18&#45;headlabel"><a xlink:href="dir_000010_000004.html" target="_top" xlink:title="1">
<text text-anchor="middle" x="125.66" y="-84.11" font-family="Helvetica,sans-Serif" font-size="10.00" fill="#63b8ff">1</text>
</a>
</g>
</g>
<!-- dir_7de34b2e4e838288c85b1788432c8a75&#45;&gt;dir_11bc0974ce736ce9a6fadebbeb7a8314 -->
<g id="edge17" class="edge">
<title>dir_7de34b2e4e838288c85b1788432c8a75&#45;&gt;dir_11bc0974ce736ce9a6fadebbeb7a8314</title>
<g id="a_edge17"><a xlink:href="dir_000010_000009.html" target="_top">
<path fill="none" stroke="#63b8ff" d="M42.66,-109.96C29.42,-102.51 12.31,-90.33 4.43,-74 -0.79,-63.19 -1.82,-57.24 4.43,-47 14.2,-30.99 33.49,-21.7 49.5,-16.51"/>
<polygon fill="#63b8ff" stroke="#63b8ff" points="50.77,-19.79 59.41,-13.66 48.83,-13.06 50.77,-19.79"/>
</a>
</g>
<g id="a_edge17&#45;headlabel"><a xlink:href="dir_000010_000009.html" target="_top" xlink:title="1">
<text text-anchor="middle" x="48.1" y="-21.01" font-family="Helvetica,sans-Serif" font-size="10.00" fill="#63b8ff">1</text>
</a>
</g>
</g>
</g>
</svg>
