<?xml version="1.0" encoding="UTF-8" standalone="no"?>
<!DOCTYPE svg PUBLIC "-//W3C//DTD SVG 1.1//EN"
 "http://www.w3.org/Graphics/SVG/1.1/DTD/svg11.dtd">
<!-- Generated by graphviz version 7.1.0 (0)
 -->
<!-- Title: calc Pages: 1 -->
<svg width="342pt" height="153pt"
 viewBox="0.00 0.00 342.08 153.40" xmlns="http://www.w3.org/2000/svg" xmlns:xlink="http://www.w3.org/1999/xlink">
<g id="graph0" class="graph" transform="scale(1 1) rotate(0) translate(4 149.4)">
<title>calc</title>
<g id="clust1" class="cluster">
<title>clusterdir_4f43f4cad42e15ad2210eb2040958738</title>
<g id="a_clust1"><a xlink:href="dir_4f43f4cad42e15ad2210eb2040958738.html" target="_top">
<polygon fill="#edf0f7" stroke="#404040" stroke-width="2" points="8,-47.4 8,-137.4 271,-137.4 271,-47.4 8,-47.4"/>
</a>
</g>
</g>
<!-- dir_4f43f4cad42e15ad2210eb2040958738 -->
<g id="node1" class="node">
<title>dir_4f43f4cad42e15ad2210eb2040958738</title>
<text text-anchor="middle" x="245" y="-117.4" font-family="Helvetica,sans-Serif" font-size="10.00">calc</text>
</g>
<!-- dir_00f0a3b1654669903f8939607e046ce9 -->
<g id="node7" class="node">
<title>dir_00f0a3b1654669903f8939607e046ce9</title>
<g id="a_node7"><a xlink:href="dir_00f0a3b1654669903f8939607e046ce9.html" target="_top" xlink:title="project">
<polygon fill="#edf0f7" stroke="red" points="125,-19.4 79,-19.4 79,-0.4 125,-0.4 125,-19.4"/>
<text text-anchor="middle" x="102" y="-7.4" font-family="Helvetica,sans-Serif" font-size="10.00">project</text>
</a>
</g>
</g>
<!-- dir_4f43f4cad42e15ad2210eb2040958738&#45;&gt;dir_00f0a3b1654669903f8939607e046ce9 -->
<g id="edge1" class="edge">
<title>dir_4f43f4cad42e15ad2210eb2040958738&#45;&gt;dir_00f0a3b1654669903f8939607e046ce9</title>
<g id="a_edge1"><a xlink:href="dir_000001_000013.html" target="_top">
<path fill="none" stroke="#63b8ff" d="M227.59,-113.36C224.4,-112.36 221.1,-111.34 218,-110.4 163.5,-93.84 129.15,-119.98 95,-74.4 85.64,-61.9 88.69,-43.95 93.33,-30.32"/>
<polygon fill="#63b8ff" stroke="#63b8ff" points="96.55,-31.69 96.99,-21.1 90.05,-29.11 96.55,-31.69"/>
</a>
</g>
<g id="a_edge1&#45;headlabel"><a xlink:href="dir_000001_000013.html" target="_top" xlink:title="7">
<text text-anchor="middle" x="98.42" y="-32.17" font-family="Helvetica,sans-Serif" font-size="10.00" fill="#63b8ff">7</text>
</a>
</g>
</g>
<!-- dir_99d0482cf009f9d97a0877749b817f19 -->
<g id="node8" class="node">
<title>dir_99d0482cf009f9d97a0877749b817f19</title>
<g id="a_node8"><a xlink:href="dir_99d0482cf009f9d97a0877749b817f19.html" target="_top" xlink:title="gui">
<polygon fill="#edf0f7" stroke="#404040" points="173.5,-19.4 144.5,-19.4 144.5,-0.4 173.5,-0.4 173.5,-19.4"/>
<text text-anchor="middle" x="159" y="-7.4" font-family="Helvetica,sans-Serif" font-size="10.00">gui</text>
</a>
</g>
</g>
<!-- dir_4f43f4cad42e15ad2210eb2040958738&#45;&gt;dir_99d0482cf009f9d97a0877749b817f19 -->
<g id="edge2" class="edge">
<title>dir_4f43f4cad42e15ad2210eb2040958738&#45;&gt;dir_99d0482cf009f9d97a0877749b817f19</title>
<g id="a_edge2"><a xlink:href="dir_000001_000010.html" target="_top">
<path fill="none" stroke="#63b8ff" d="M246.2,-110.47C247.78,-96.06 248.9,-66.42 235,-47.4 228.58,-38.6 203.94,-27.7 184.44,-20.11"/>
<polygon fill="#63b8ff" stroke="#63b8ff" points="185.73,-16.86 175.14,-16.6 183.26,-23.41 185.73,-16.86"/>
</a>
</g>
<g id="a_edge2&#45;headlabel"><a xlink:href="dir_000001_000010.html" target="_top" xlink:title="27">
<text text-anchor="middle" x="188.68" y="-12.44" font-family="Helvetica,sans-Serif" font-size="10.00" fill="#63b8ff">27</text>
</a>
</g>
</g>
<!-- dir_e3787dfdbc46fad3e6d80e1f98f95a2e -->
<g id="node9" class="node">
<title>dir_e3787dfdbc46fad3e6d80e1f98f95a2e</title>
<g id="a_node9"><a xlink:href="dir_e3787dfdbc46fad3e6d80e1f98f95a2e.html" target="_top" xlink:title="opengl">
<polygon fill="#edf0f7" stroke="red" points="237.5,-19.4 192.5,-19.4 192.5,-0.4 237.5,-0.4 237.5,-19.4"/>
<text text-anchor="middle" x="215" y="-7.4" font-family="Helvetica,sans-Serif" font-size="10.00">opengl</text>
</a>
</g>
</g>
<!-- dir_4f43f4cad42e15ad2210eb2040958738&#45;&gt;dir_e3787dfdbc46fad3e6d80e1f98f95a2e -->
<g id="edge3" class="edge">
<title>dir_4f43f4cad42e15ad2210eb2040958738&#45;&gt;dir_e3787dfdbc46fad3e6d80e1f98f95a2e</title>
<g id="a_edge3"><a xlink:href="dir_000001_000012.html" target="_top">
<path fill="none" stroke="#63b8ff" d="M262.17,-115.34C282.24,-110.17 314.53,-98.43 329,-74.4 335.19,-64.11 336.07,-57.09 329,-47.4 310.94,-22.65 275.87,-14.3 249.38,-11.67"/>
<polygon fill="#63b8ff" stroke="#63b8ff" points="249.64,-8.18 239.41,-10.94 249.13,-15.16 249.64,-8.18"/>
</a>
</g>
<g id="a_edge3&#45;headlabel"><a xlink:href="dir_000001_000012.html" target="_top" xlink:title="24">
<text text-anchor="middle" x="251.92" y="-3" font-family="Helvetica,sans-Serif" font-size="10.00" fill="#63b8ff">24</text>
</a>
</g>
</g>
<!-- dir_7935327e614a2bfecf294bde09851bf8 -->
<g id="node2" class="node">
<title>dir_7935327e614a2bfecf294bde09851bf8</title>
<g id="a_node2"><a xlink:href="dir_7935327e614a2bfecf294bde09851bf8.html" target="_top" xlink:title="cp2k">
<polygon fill="#a2b4d6" stroke="#404040" points="209,-129.4 171,-129.4 171,-110.4 209,-110.4 209,-129.4"/>
<text text-anchor="middle" x="190" y="-117.4" font-family="Helvetica,sans-Serif" font-size="10.00">cp2k</text>
</a>
</g>
</g>
<!-- dir_2d4ada969e9ccac1ac8749af6eabf93e -->
<g id="node3" class="node">
<title>dir_2d4ada969e9ccac1ac8749af6eabf93e</title>
<g id="a_node3"><a xlink:href="dir_2d4ada969e9ccac1ac8749af6eabf93e.html" target="_top" xlink:title="cpmd">
<polygon fill="#a2b4d6" stroke="#404040" points="210.5,-74.4 169.5,-74.4 169.5,-55.4 210.5,-55.4 210.5,-74.4"/>
<text text-anchor="middle" x="190" y="-62.4" font-family="Helvetica,sans-Serif" font-size="10.00">cpmd</text>
</a>
</g>
</g>
<!-- dir_7935327e614a2bfecf294bde09851bf8&#45;&gt;dir_2d4ada969e9ccac1ac8749af6eabf93e -->
<g id="edge5" class="edge">
<title>dir_7935327e614a2bfecf294bde09851bf8&#45;&gt;dir_2d4ada969e9ccac1ac8749af6eabf93e</title>
<g id="a_edge5"><a xlink:href="dir_000002_000003.html" target="_top">
<path fill="none" stroke="#63b8ff" d="M184.83,-110.14C183.42,-103.59 182.96,-94.34 183.43,-86"/>
<polygon fill="#63b8ff" stroke="#63b8ff" points="186.87,-86.69 184.61,-76.34 179.92,-85.84 186.87,-86.69"/>
</a>
</g>
<g id="a_edge5&#45;headlabel"><a xlink:href="dir_000002_000003.html" target="_top" xlink:title="1">
<text text-anchor="middle" x="189.44" y="-86.6" font-family="Helvetica,sans-Serif" font-size="10.00" fill="#63b8ff">1</text>
</a>
</g>
</g>
<!-- dir_7935327e614a2bfecf294bde09851bf8&#45;&gt;dir_00f0a3b1654669903f8939607e046ce9 -->
<g id="edge4" class="edge">
<title>dir_7935327e614a2bfecf294bde09851bf8&#45;&gt;dir_00f0a3b1654669903f8939607e046ce9</title>
<g id="a_edge4"><a xlink:href="dir_000002_000013.html" target="_top">
<path fill="none" stroke="#63b8ff" d="M170.61,-112.81C135.64,-101.73 65.27,-79 62,-74.4 55.05,-64.62 57.16,-58.37 62,-47.4 65.55,-39.35 71.84,-32.32 78.4,-26.62"/>
<polygon fill="#63b8ff" stroke="#63b8ff" points="80.33,-29.56 86.08,-20.66 76.04,-24.03 80.33,-29.56"/>
</a>
</g>
<g id="a_edge4&#45;headlabel"><a xlink:href="dir_000002_000013.html" target="_top" xlink:title="2">
<text text-anchor="middle" x="80.43" y="-30.57" font-family="Helvetica,sans-Serif" font-size="10.00" fill="#63b8ff">2</text>
</a>
</g>
</g>
<!-- dir_7935327e614a2bfecf294bde09851bf8&#45;&gt;dir_99d0482cf009f9d97a0877749b817f19 -->
<g id="edge6" class="edge">
<title>dir_7935327e614a2bfecf294bde09851bf8&#45;&gt;dir_99d0482cf009f9d97a0877749b817f19</title>
<g id="a_edge6"><a xlink:href="dir_000002_000010.html" target="_top">
<path fill="none" stroke="#63b8ff" d="M198.68,-110.22C211.37,-96.45 232.22,-68.94 220,-47.4 215.85,-40.07 198.78,-30.18 183.75,-22.54"/>
<polygon fill="#63b8ff" stroke="#63b8ff" points="185.73,-19.62 175.21,-18.34 182.64,-25.9 185.73,-19.62"/>
</a>
</g>
<g id="a_edge6&#45;headlabel"><a xlink:href="dir_000002_000010.html" target="_top" xlink:title="6">
<text text-anchor="middle" x="188.85" y="-15.49" font-family="Helvetica,sans-Serif" font-size="10.00" fill="#63b8ff">6</text>
</a>
</g>
</g>
<!-- dir_7935327e614a2bfecf294bde09851bf8&#45;&gt;dir_e3787dfdbc46fad3e6d80e1f98f95a2e -->
<g id="edge7" class="edge">
<title>dir_7935327e614a2bfecf294bde09851bf8&#45;&gt;dir_e3787dfdbc46fad3e6d80e1f98f95a2e</title>
<g id="a_edge7"><a xlink:href="dir_000002_000012.html" target="_top">
<path fill="none" stroke="#63b8ff" d="M209.31,-111.21C224.25,-104.12 243.88,-91.99 253,-74.4 258.52,-63.74 257.7,-58.44 253,-47.4 249.72,-39.71 243.95,-32.86 237.87,-27.23"/>
<polygon fill="#63b8ff" stroke="#63b8ff" points="240.11,-24.54 230.17,-20.86 235.65,-29.93 240.11,-24.54"/>
</a>
</g>
<g id="a_edge7&#45;headlabel"><a xlink:href="dir_000002_000012.html" target="_top" xlink:title="4">
<text text-anchor="middle" x="243.52" y="-21.18" font-family="Helvetica,sans-Serif" font-size="10.00" fill="#63b8ff">4</text>
</a>
</g>
</g>
<!-- dir_2d4ada969e9ccac1ac8749af6eabf93e&#45;&gt;dir_7935327e614a2bfecf294bde09851bf8 -->
<g id="edge9" class="edge">
<title>dir_2d4ada969e9ccac1ac8749af6eabf93e&#45;&gt;dir_7935327e614a2bfecf294bde09851bf8</title>
<g id="a_edge9"><a xlink:href="dir_000003_000002.html" target="_top">
<path fill="none" stroke="#63b8ff" d="M195.21,-74.84C196.58,-81.37 197.04,-90.49 196.57,-98.74"/>
<polygon fill="#63b8ff" stroke="#63b8ff" points="193.1,-98.29 195.35,-108.64 200.05,-99.15 193.1,-98.29"/>
</a>
</g>
<g id="a_edge9&#45;headlabel"><a xlink:href="dir_000003_000002.html" target="_top" xlink:title="2">
<text text-anchor="middle" x="190.54" y="-93.37" font-family="Helvetica,sans-Serif" font-size="10.00" fill="#63b8ff">2</text>
</a>
</g>
</g>
<!-- dir_2d4ada969e9ccac1ac8749af6eabf93e&#45;&gt;dir_00f0a3b1654669903f8939607e046ce9 -->
<g id="edge8" class="edge">
<title>dir_2d4ada969e9ccac1ac8749af6eabf93e&#45;&gt;dir_00f0a3b1654669903f8939607e046ce9</title>
<g id="a_edge8"><a xlink:href="dir_000003_000013.html" target="_top">
<path fill="none" stroke="#63b8ff" d="M175.07,-54.91C161.72,-46.86 141.89,-34.92 126.26,-25.51"/>
<polygon fill="#63b8ff" stroke="#63b8ff" points="128.38,-22.7 118,-20.53 124.76,-28.69 128.38,-22.7"/>
</a>
</g>
<g id="a_edge8&#45;headlabel"><a xlink:href="dir_000003_000013.html" target="_top" xlink:title="1">
<text text-anchor="middle" x="131.62" y="-18.84" font-family="Helvetica,sans-Serif" font-size="10.00" fill="#63b8ff">1</text>
</a>
</g>
</g>
<!-- dir_2d4ada969e9ccac1ac8749af6eabf93e&#45;&gt;dir_99d0482cf009f9d97a0877749b817f19 -->
<g id="edge10" class="edge">
<title>dir_2d4ada969e9ccac1ac8749af6eabf93e&#45;&gt;dir_99d0482cf009f9d97a0877749b817f19</title>
<g id="a_edge10"><a xlink:href="dir_000003_000010.html" target="_top">
<path fill="none" stroke="#63b8ff" d="M184.88,-55.14C180.82,-48.2 175.01,-38.26 169.91,-29.55"/>
<polygon fill="#63b8ff" stroke="#63b8ff" points="173.06,-28.01 164.99,-21.14 167.02,-31.54 173.06,-28.01"/>
</a>
</g>
<g id="a_edge10&#45;headlabel"><a xlink:href="dir_000003_000010.html" target="_top" xlink:title="7">
<text text-anchor="middle" x="176.57" y="-25.87" font-family="Helvetica,sans-Serif" font-size="10.00" fill="#63b8ff">7</text>
</a>
</g>
</g>
<!-- dir_2d4ada969e9ccac1ac8749af6eabf93e&#45;&gt;dir_e3787dfdbc46fad3e6d80e1f98f95a2e -->
<g id="edge11" class="edge">
<title>dir_2d4ada969e9ccac1ac8749af6eabf93e&#45;&gt;dir_e3787dfdbc46fad3e6d80e1f98f95a2e</title>
<g id="a_edge11"><a xlink:href="dir_000003_000012.html" target="_top">
<path fill="none" stroke="#63b8ff" d="M194.13,-55.14C197.33,-48.36 201.89,-38.7 205.93,-30.13"/>
<polygon fill="#63b8ff" stroke="#63b8ff" points="209.04,-31.74 210.14,-21.21 202.7,-28.76 209.04,-31.74"/>
</a>
</g>
<g id="a_edge11&#45;headlabel"><a xlink:href="dir_000003_000012.html" target="_top" xlink:title="4">
<text text-anchor="middle" x="210.72" y="-32.34" font-family="Helvetica,sans-Serif" font-size="10.00" fill="#63b8ff">4</text>
</a>
</g>
</g>
<!-- dir_5b004bdd7867c2be8ce06732d22e6b2f -->
<g id="node4" class="node">
<title>dir_5b004bdd7867c2be8ce06732d22e6b2f</title>
<g id="a_node4"><a xlink:href="dir_5b004bdd7867c2be8ce06732d22e6b2f.html" target="_top" xlink:title="dl_poly">
<polygon fill="#a2b4d6" stroke="#404040" points="151.5,-74.4 104.5,-74.4 104.5,-55.4 151.5,-55.4 151.5,-74.4"/>
<text text-anchor="middle" x="128" y="-62.4" font-family="Helvetica,sans-Serif" font-size="10.00">dl_poly</text>
</a>
</g>
</g>
<!-- dir_5b004bdd7867c2be8ce06732d22e6b2f&#45;&gt;dir_00f0a3b1654669903f8939607e046ce9 -->
<g id="edge12" class="edge">
<title>dir_5b004bdd7867c2be8ce06732d22e6b2f&#45;&gt;dir_00f0a3b1654669903f8939607e046ce9</title>
<g id="a_edge12"><a xlink:href="dir_000005_000013.html" target="_top">
<path fill="none" stroke="#63b8ff" d="M123.71,-55.14C120.38,-48.36 115.64,-38.7 111.44,-30.13"/>
<polygon fill="#63b8ff" stroke="#63b8ff" points="114.6,-28.63 107.05,-21.2 108.32,-31.72 114.6,-28.63"/>
</a>
</g>
<g id="a_edge12&#45;headlabel"><a xlink:href="dir_000005_000013.html" target="_top" xlink:title="3">
<text text-anchor="middle" x="118.07" y="-26.75" font-family="Helvetica,sans-Serif" font-size="10.00" fill="#63b8ff">3</text>
</a>
</g>
</g>
<!-- dir_5b004bdd7867c2be8ce06732d22e6b2f&#45;&gt;dir_99d0482cf009f9d97a0877749b817f19 -->
<g id="edge13" class="edge">
<title>dir_5b004bdd7867c2be8ce06732d22e6b2f&#45;&gt;dir_99d0482cf009f9d97a0877749b817f19</title>
<g id="a_edge13"><a xlink:href="dir_000005_000010.html" target="_top">
<path fill="none" stroke="#63b8ff" d="M133.12,-55.14C137.18,-48.2 142.99,-38.26 148.09,-29.55"/>
<polygon fill="#63b8ff" stroke="#63b8ff" points="150.98,-31.54 153.01,-21.14 144.94,-28.01 150.98,-31.54"/>
</a>
</g>
<g id="a_edge13&#45;headlabel"><a xlink:href="dir_000005_000010.html" target="_top" xlink:title="11">
<text text-anchor="middle" x="152.38" y="-32.27" font-family="Helvetica,sans-Serif" font-size="10.00" fill="#63b8ff">11</text>
</a>
</g>
</g>
<!-- dir_5b004bdd7867c2be8ce06732d22e6b2f&#45;&gt;dir_e3787dfdbc46fad3e6d80e1f98f95a2e -->
<g id="edge14" class="edge">
<title>dir_5b004bdd7867c2be8ce06732d22e6b2f&#45;&gt;dir_e3787dfdbc46fad3e6d80e1f98f95a2e</title>
<g id="a_edge14"><a xlink:href="dir_000005_000012.html" target="_top">
<path fill="none" stroke="#63b8ff" d="M142.76,-54.91C155.96,-46.86 175.56,-34.92 191.01,-25.51"/>
<polygon fill="#63b8ff" stroke="#63b8ff" points="192.45,-28.73 199.17,-20.54 188.81,-22.75 192.45,-28.73"/>
</a>
</g>
<g id="a_edge14&#45;headlabel"><a xlink:href="dir_000005_000012.html" target="_top" xlink:title="14">
<text text-anchor="middle" x="192.15" y="-29.74" font-family="Helvetica,sans-Serif" font-size="10.00" fill="#63b8ff">14</text>
</a>
</g>
</g>
<!-- dir_9f480b89fec9a684b7c248cdfb24f4cb -->
<g id="node5" class="node">
<title>dir_9f480b89fec9a684b7c248cdfb24f4cb</title>
<g id="a_node5"><a xlink:href="dir_9f480b89fec9a684b7c248cdfb24f4cb.html" target="_top" xlink:title="force_fields">
<polygon fill="#a2b4d6" stroke="#404040" points="83.5,-129.4 16.5,-129.4 16.5,-110.4 83.5,-110.4 83.5,-129.4"/>
<text text-anchor="middle" x="50" y="-117.4" font-family="Helvetica,sans-Serif" font-size="10.00">force_fields</text>
</a>
</g>
</g>
<!-- dir_9f480b89fec9a684b7c248cdfb24f4cb&#45;&gt;dir_5b004bdd7867c2be8ce06732d22e6b2f -->
<g id="edge15" class="edge">
<title>dir_9f480b89fec9a684b7c248cdfb24f4cb&#45;&gt;dir_5b004bdd7867c2be8ce06732d22e6b2f</title>
<g id="a_edge15"><a xlink:href="dir_000008_000005.html" target="_top">
<path fill="none" stroke="#63b8ff" d="M63.23,-109.91C74.84,-102.02 91.97,-90.38 105.7,-81.05"/>
<polygon fill="#63b8ff" stroke="#63b8ff" points="107.41,-84.12 113.71,-75.6 103.47,-78.33 107.41,-84.12"/>
</a>
</g>
<g id="a_edge15&#45;headlabel"><a xlink:href="dir_000008_000005.html" target="_top" xlink:title="1">
<text text-anchor="middle" x="107.28" y="-85.14" font-family="Helvetica,sans-Serif" font-size="10.00" fill="#63b8ff">1</text>
</a>
</g>
</g>
<!-- dir_9f480b89fec9a684b7c248cdfb24f4cb&#45;&gt;dir_99d0482cf009f9d97a0877749b817f19 -->
<g id="edge16" class="edge">
<title>dir_9f480b89fec9a684b7c248cdfb24f4cb&#45;&gt;dir_99d0482cf009f9d97a0877749b817f19</title>
<g id="a_edge16"><a xlink:href="dir_000008_000010.html" target="_top">
<path fill="none" stroke="#63b8ff" d="M52.79,-109.9C57.76,-95.18 69.39,-65.76 88,-47.4 95.07,-40.42 116.46,-29.82 133.93,-21.84"/>
<polygon fill="#63b8ff" stroke="#63b8ff" points="135.07,-25.17 142.76,-17.88 132.2,-18.78 135.07,-25.17"/>
</a>
</g>
<g id="a_edge16&#45;headlabel"><a xlink:href="dir_000008_000010.html" target="_top" xlink:title="1">
<text text-anchor="middle" x="134.33" y="-26.11" font-family="Helvetica,sans-Serif" font-size="10.00" fill="#63b8ff">1</text>
</a>
</g>
</g>
<!-- dir_8ffd6d7ceaab3872ca95860f90f7e0dc -->
<g id="node6" class="node">
<title>dir_8ffd6d7ceaab3872ca95860f90f7e0dc</title>
<g id="a_node6"><a xlink:href="dir_8ffd6d7ceaab3872ca95860f90f7e0dc.html" target="_top" xlink:title="lammps">
<polygon fill="#a2b4d6" stroke="#404040" points="152.5,-129.4 101.5,-129.4 101.5,-110.4 152.5,-110.4 152.5,-129.4"/>
<text text-anchor="middle" x="127" y="-117.4" font-family="Helvetica,sans-Serif" font-size="10.00">lammps</text>
</a>
</g>
</g>
<!-- dir_8ffd6d7ceaab3872ca95860f90f7e0dc&#45;&gt;dir_5b004bdd7867c2be8ce06732d22e6b2f -->
<g id="edge17" class="edge">
<title>dir_8ffd6d7ceaab3872ca95860f90f7e0dc&#45;&gt;dir_5b004bdd7867c2be8ce06732d22e6b2f</title>
<g id="a_edge17"><a xlink:href="dir_000011_000005.html" target="_top">
<path fill="none" stroke="#63b8ff" d="M127.17,-110.14C127.29,-103.66 127.46,-94.56 127.62,-86.29"/>
<polygon fill="#63b8ff" stroke="#63b8ff" points="131.11,-86.42 127.8,-76.35 124.11,-86.28 131.11,-86.42"/>
</a>
</g>
<g id="a_edge17&#45;headlabel"><a xlink:href="dir_000011_000005.html" target="_top" xlink:title="1">
<text text-anchor="middle" x="133.91" y="-86.05" font-family="Helvetica,sans-Serif" font-size="10.00" fill="#63b8ff">1</text>
</a>
</g>
</g>
<!-- dir_8ffd6d7ceaab3872ca95860f90f7e0dc&#45;&gt;dir_99d0482cf009f9d97a0877749b817f19 -->
<g id="edge18" class="edge">
<title>dir_8ffd6d7ceaab3872ca95860f90f7e0dc&#45;&gt;dir_99d0482cf009f9d97a0877749b817f19</title>
<g id="a_edge18"><a xlink:href="dir_000011_000010.html" target="_top">
<path fill="none" stroke="#63b8ff" d="M117.85,-110.24C104.46,-96.5 82.43,-69.03 95,-47.4 99.44,-39.76 117.72,-29.74 133.61,-22.13"/>
<polygon fill="#63b8ff" stroke="#63b8ff" points="135.05,-25.32 142.66,-17.94 132.11,-18.96 135.05,-25.32"/>
</a>
</g>
<g id="a_edge18&#45;headlabel"><a xlink:href="dir_000011_000010.html" target="_top" xlink:title="1">
<text text-anchor="middle" x="134.36" y="-26.27" font-family="Helvetica,sans-Serif" font-size="10.00" fill="#63b8ff">1</text>
</a>
</g>
</g>
</g>
</svg>
