<?xml version="1.0" encoding="UTF-8" standalone="no"?>
<!DOCTYPE svg PUBLIC "-//W3C//DTD SVG 1.1//EN"
 "http://www.w3.org/Graphics/SVG/1.1/DTD/svg11.dtd">
<!-- Generated by graphviz version 7.1.0 (0)
 -->
<!-- Title: cpmd Pages: 1 -->
<svg width="239pt" height="133pt"
 viewBox="0.00 0.00 239.00 133.00" xmlns="http://www.w3.org/2000/svg" xmlns:xlink="http://www.w3.org/1999/xlink">
<g id="graph0" class="graph" transform="scale(1 1) rotate(0) translate(4 129)">
<title>cpmd</title>
<g id="clust1" class="cluster">
<title>clusterdir_b69cbee60e647204afcf7b8718bedceb</title>
<g id="a_clust1"><a xlink:href="dir_b69cbee60e647204afcf7b8718bedceb.html" target="_top" xlink:title="calc">
<polygon fill="#edf0f7" stroke="#7f7f7f" stroke-dasharray="5,2" points="8,-8 8,-117 66,-117 66,-8 8,-8"/>
<text text-anchor="middle" x="37" y="-105" font-family="Helvetica,sans-Serif" font-size="10.00">calc</text>
</a>
</g>
</g>
<!-- dir_4ab9ed588a33ddf3ded84b781a5fa5eb -->
<g id="node1" class="node">
<title>dir_4ab9ed588a33ddf3ded84b781a5fa5eb</title>
<g id="a_node1"><a xlink:href="dir_4ab9ed588a33ddf3ded84b781a5fa5eb.html" target="_top" xlink:title="cp2k">
<polygon fill="#a2b4d6" stroke="#404040" points="56,-35 18,-35 18,-16 56,-16 56,-35"/>
<text text-anchor="middle" x="37" y="-23" font-family="Helvetica,sans-Serif" font-size="10.00">cp2k</text>
</a>
</g>
</g>
<!-- dir_caeb26bee8661dbf425546c6599ec934 -->
<g id="node2" class="node">
<title>dir_caeb26bee8661dbf425546c6599ec934</title>
<g id="a_node2"><a xlink:href="dir_caeb26bee8661dbf425546c6599ec934.html" target="_top" xlink:title="cpmd">
<polygon fill="#edf0f7" stroke="#404040" stroke-width="2" points="57.5,-90 16.5,-90 16.5,-71 57.5,-71 57.5,-90"/>
<text text-anchor="middle" x="37" y="-78" font-family="Helvetica,sans-Serif" font-size="10.00">cpmd</text>
</a>
</g>
</g>
<!-- dir_caeb26bee8661dbf425546c6599ec934&#45;&gt;dir_4ab9ed588a33ddf3ded84b781a5fa5eb -->
<g id="edge2" class="edge">
<title>dir_caeb26bee8661dbf425546c6599ec934&#45;&gt;dir_4ab9ed588a33ddf3ded84b781a5fa5eb</title>
<path fill="none" stroke="#63b8ff" d="M37,-70.75C37,-64.27 37,-55.16 37,-46.9"/>
<polygon fill="#63b8ff" stroke="#63b8ff" points="40.5,-46.96 37,-36.96 33.5,-46.96 40.5,-46.96"/>
<g id="a_edge2&#45;headlabel"><a xlink:href="dir_000004_000003.html" target="_top" xlink:title="2">
<text text-anchor="middle" x="43.34" y="-46.54" font-family="Helvetica,sans-Serif" font-size="10.00" fill="#63b8ff">2</text>
</a>
</g>
</g>
<!-- dir_2c7347912a4c256662f0916909de91f6 -->
<g id="node3" class="node">
<title>dir_2c7347912a4c256662f0916909de91f6</title>
<g id="a_node3"><a xlink:href="dir_2c7347912a4c256662f0916909de91f6.html" target="_top" xlink:title="gui">
<polygon fill="#edf0f7" stroke="#7f7f7f" points="103.5,-35 74.5,-35 74.5,-16 103.5,-16 103.5,-35"/>
<text text-anchor="middle" x="89" y="-23" font-family="Helvetica,sans-Serif" font-size="10.00">gui</text>
</a>
</g>
</g>
<!-- dir_caeb26bee8661dbf425546c6599ec934&#45;&gt;dir_2c7347912a4c256662f0916909de91f6 -->
<g id="edge1" class="edge">
<title>dir_caeb26bee8661dbf425546c6599ec934&#45;&gt;dir_2c7347912a4c256662f0916909de91f6</title>
<path fill="none" stroke="#63b8ff" d="M45.59,-70.75C52.84,-63.35 63.45,-52.54 72.37,-43.45"/>
<polygon fill="#63b8ff" stroke="#63b8ff" points="74.66,-46.11 79.17,-36.52 69.66,-41.21 74.66,-46.11"/>
<g id="a_edge1&#45;headlabel"><a xlink:href="dir_000004_000013.html" target="_top" xlink:title="7">
<text text-anchor="middle" x="75.23" y="-47.09" font-family="Helvetica,sans-Serif" font-size="10.00" fill="#63b8ff">7</text>
</a>
</g>
</g>
<!-- dir_c307836a8a3824cdddc5eadc2484ae0c -->
<g id="node4" class="node">
<title>dir_c307836a8a3824cdddc5eadc2484ae0c</title>
<g id="a_node4"><a xlink:href="dir_c307836a8a3824cdddc5eadc2484ae0c.html" target="_top" xlink:title="opengl">
<polygon fill="#edf0f7" stroke="red" stroke-dasharray="5,2" points="166.5,-35 121.5,-35 121.5,-16 166.5,-16 166.5,-35"/>
<text text-anchor="middle" x="144" y="-23" font-family="Helvetica,sans-Serif" font-size="10.00">opengl</text>
</a>
</g>
</g>
<!-- dir_caeb26bee8661dbf425546c6599ec934&#45;&gt;dir_c307836a8a3824cdddc5eadc2484ae0c -->
<g id="edge3" class="edge">
<title>dir_caeb26bee8661dbf425546c6599ec934&#45;&gt;dir_c307836a8a3824cdddc5eadc2484ae0c</title>
<path fill="none" stroke="#63b8ff" d="M55.15,-70.51C71.78,-62.27 96.64,-49.96 115.85,-40.45"/>
<polygon fill="#63b8ff" stroke="#63b8ff" points="117.35,-43.6 124.76,-36.03 114.25,-37.33 117.35,-43.6"/>
<g id="a_edge3&#45;headlabel"><a xlink:href="dir_000004_000015.html" target="_top" xlink:title="4">
<text text-anchor="middle" x="116.75" y="-44.57" font-family="Helvetica,sans-Serif" font-size="10.00" fill="#63b8ff">4</text>
</a>
</g>
</g>
<!-- dir_da605f587a6e9eadd4939071a5b287b2 -->
<g id="node5" class="node">
<title>dir_da605f587a6e9eadd4939071a5b287b2</title>
<g id="a_node5"><a xlink:href="dir_da605f587a6e9eadd4939071a5b287b2.html" target="_top" xlink:title="project">
<polygon fill="#edf0f7" stroke="red" stroke-dasharray="5,2" points="231,-35 185,-35 185,-16 231,-16 231,-35"/>
<text text-anchor="middle" x="208" y="-23" font-family="Helvetica,sans-Serif" font-size="10.00">project</text>
</a>
</g>
</g>
<!-- dir_caeb26bee8661dbf425546c6599ec934&#45;&gt;dir_da605f587a6e9eadd4939071a5b287b2 -->
<g id="edge4" class="edge">
<title>dir_caeb26bee8661dbf425546c6599ec934&#45;&gt;dir_da605f587a6e9eadd4939071a5b287b2</title>
<path fill="none" stroke="#63b8ff" d="M57.97,-73C86.81,-64.06 139.09,-47.86 173.68,-37.14"/>
<polygon fill="#63b8ff" stroke="#63b8ff" points="174.71,-40.48 183.23,-34.18 172.64,-33.8 174.71,-40.48"/>
<g id="a_edge4&#45;headlabel"><a xlink:href="dir_000004_000016.html" target="_top" xlink:title="1">
<text text-anchor="middle" x="173.56" y="-41.31" font-family="Helvetica,sans-Serif" font-size="10.00" fill="#63b8ff">1</text>
</a>
</g>
</g>
</g>
</svg>
