<?xml version="1.0" encoding="UTF-8" standalone="no"?>
<!DOCTYPE svg PUBLIC "-//W3C//DTD SVG 1.1//EN"
 "http://www.w3.org/Graphics/SVG/1.1/DTD/svg11.dtd">
<!-- Generated by graphviz version 7.1.0 (0)
 -->
<!-- Title: project Pages: 1 -->
<svg width="328pt" height="141pt"
 viewBox="0.00 0.00 328.00 141.00" xmlns="http://www.w3.org/2000/svg" xmlns:xlink="http://www.w3.org/1999/xlink">
<g id="graph0" class="graph" transform="scale(1 1) rotate(0) translate(4 137)">
<title>project</title>
<g id="clust1" class="cluster">
<title>clusterdir_9a0adb9856b1b8f79a5aed667f750c45</title>
<g id="a_clust1"><a xlink:href="dir_9a0adb9856b1b8f79a5aed667f750c45.html" target="_top" xlink:title="src">
<polygon fill="#edf0f7" stroke="#7f7f7f" stroke-dasharray="5,2" points="8,-8 8,-125 312,-125 312,-8 8,-8"/>
<text text-anchor="middle" x="160" y="-113" font-family="Helvetica,sans-Serif" font-size="10.00">src</text>
</a>
</g>
</g>
<g id="clust2" class="cluster">
<title>clusterdir_503391f8f88e69ff0b6bb2ea195a5f61</title>
<g id="a_clust2"><a xlink:href="dir_503391f8f88e69ff0b6bb2ea195a5f61.html" target="_top">
<polygon fill="#edf0f7" stroke="#404040" stroke-width="2" points="60,-63 60,-98 190,-98 190,-63 60,-63"/>
</a>
</g>
</g>
<!-- dir_43db5ab264bba6ded25a436c3d8b4fee -->
<g id="node1" class="node">
<title>dir_43db5ab264bba6ded25a436c3d8b4fee</title>
<g id="a_node1"><a xlink:href="dir_43db5ab264bba6ded25a436c3d8b4fee.html" target="_top" xlink:title="workspace">
<polygon fill="#a2b4d6" stroke="#404040" points="191,-35 127,-35 127,-16 191,-16 191,-35"/>
<text text-anchor="middle" x="159" y="-23" font-family="Helvetica,sans-Serif" font-size="10.00">workspace</text>
</a>
</g>
</g>
<!-- dir_896854cd3247b6cb36f98a37c2863463 -->
<g id="node2" class="node">
<title>dir_896854cd3247b6cb36f98a37c2863463</title>
<g id="a_node2"><a xlink:href="dir_896854cd3247b6cb36f98a37c2863463.html" target="_top" xlink:title="opengl">
<polygon fill="#a2b4d6" stroke="red" points="61.5,-35 16.5,-35 16.5,-16 61.5,-16 61.5,-35"/>
<text text-anchor="middle" x="39" y="-23" font-family="Helvetica,sans-Serif" font-size="10.00">opengl</text>
</a>
</g>
</g>
<!-- dir_9268fa4967c416e4e882c5e3d890d467 -->
<g id="node3" class="node">
<title>dir_9268fa4967c416e4e882c5e3d890d467</title>
<g id="a_node3"><a xlink:href="dir_9268fa4967c416e4e882c5e3d890d467.html" target="_top" xlink:title="gui">
<polygon fill="#a2b4d6" stroke="#404040" points="108.5,-35 79.5,-35 79.5,-16 108.5,-16 108.5,-35"/>
<text text-anchor="middle" x="94" y="-23" font-family="Helvetica,sans-Serif" font-size="10.00">gui</text>
</a>
</g>
</g>
<!-- dir_a64f4d3da146dfbb12317d36ed2423d1 -->
<g id="node4" class="node">
<title>dir_a64f4d3da146dfbb12317d36ed2423d1</title>
<g id="a_node4"><a xlink:href="dir_a64f4d3da146dfbb12317d36ed2423d1.html" target="_top" xlink:title="curve">
<polygon fill="#a2b4d6" stroke="#404040" points="250.5,-35 209.5,-35 209.5,-16 250.5,-16 250.5,-35"/>
<text text-anchor="middle" x="230" y="-23" font-family="Helvetica,sans-Serif" font-size="10.00">curve</text>
</a>
</g>
</g>
<!-- dir_cfb6e93dbea17f3e8193818fb6e149f2 -->
<g id="node5" class="node">
<title>dir_cfb6e93dbea17f3e8193818fb6e149f2</title>
<g id="a_node5"><a xlink:href="dir_cfb6e93dbea17f3e8193818fb6e149f2.html" target="_top" xlink:title="calc">
<polygon fill="#a2b4d6" stroke="red" points="303.5,-35 268.5,-35 268.5,-16 303.5,-16 303.5,-35"/>
<text text-anchor="middle" x="286" y="-23" font-family="Helvetica,sans-Serif" font-size="10.00">calc</text>
</a>
</g>
</g>
<!-- dir_503391f8f88e69ff0b6bb2ea195a5f61 -->
<g id="node6" class="node">
<title>dir_503391f8f88e69ff0b6bb2ea195a5f61</title>
<text text-anchor="middle" x="159" y="-78" font-family="Helvetica,sans-Serif" font-size="10.00">project</text>
</g>
<!-- dir_503391f8f88e69ff0b6bb2ea195a5f61&#45;&gt;dir_43db5ab264bba6ded25a436c3d8b4fee -->
<g id="edge1" class="edge">
<title>dir_503391f8f88e69ff0b6bb2ea195a5f61&#45;&gt;dir_43db5ab264bba6ded25a436c3d8b4fee</title>
<path fill="none" stroke="#63b8ff" d="M159,-71.22C159,-64.65 159,-55.18 159,-46.64"/>
<polygon fill="#63b8ff" stroke="#63b8ff" points="162.5,-46.77 159,-36.77 155.5,-46.77 162.5,-46.77"/>
<g id="a_edge1&#45;headlabel"><a xlink:href="dir_000017_000021.html" target="_top" xlink:title="2">
<text text-anchor="middle" x="165.34" y="-46.35" font-family="Helvetica,sans-Serif" font-size="10.00" fill="#63b8ff">2</text>
</a>
</g>
</g>
<!-- dir_503391f8f88e69ff0b6bb2ea195a5f61&#45;&gt;dir_896854cd3247b6cb36f98a37c2863463 -->
<g id="edge2" class="edge">
<title>dir_503391f8f88e69ff0b6bb2ea195a5f61&#45;&gt;dir_896854cd3247b6cb36f98a37c2863463</title>
<path fill="none" stroke="#63b8ff" d="M143.18,-71.01C138.06,-68.36 132.33,-65.47 127,-63 109.03,-54.66 88.62,-46.13 71.97,-39.42"/>
<polygon fill="#63b8ff" stroke="#63b8ff" points="73.64,-36.32 63.05,-35.86 71.04,-42.82 73.64,-36.32"/>
<g id="a_edge2&#45;headlabel"><a xlink:href="dir_000017_000016.html" target="_top" xlink:title="23">
<text text-anchor="middle" x="76.62" y="-31.95" font-family="Helvetica,sans-Serif" font-size="10.00" fill="#63b8ff">23</text>
</a>
</g>
</g>
<!-- dir_503391f8f88e69ff0b6bb2ea195a5f61&#45;&gt;dir_9268fa4967c416e4e882c5e3d890d467 -->
<g id="edge3" class="edge">
<title>dir_503391f8f88e69ff0b6bb2ea195a5f61&#45;&gt;dir_9268fa4967c416e4e882c5e3d890d467</title>
<path fill="none" stroke="#63b8ff" d="M148.84,-71.22C139.38,-63.5 125.01,-51.78 113.35,-42.28"/>
<polygon fill="#63b8ff" stroke="#63b8ff" points="115.87,-39.82 105.91,-36.21 111.44,-45.24 115.87,-39.82"/>
<g id="a_edge3&#45;headlabel"><a xlink:href="dir_000017_000012.html" target="_top" xlink:title="27">
<text text-anchor="middle" x="119.28" y="-36.43" font-family="Helvetica,sans-Serif" font-size="10.00" fill="#63b8ff">27</text>
</a>
</g>
</g>
<!-- dir_503391f8f88e69ff0b6bb2ea195a5f61&#45;&gt;dir_a64f4d3da146dfbb12317d36ed2423d1 -->
<g id="edge4" class="edge">
<title>dir_503391f8f88e69ff0b6bb2ea195a5f61&#45;&gt;dir_a64f4d3da146dfbb12317d36ed2423d1</title>
<path fill="none" stroke="#63b8ff" d="M170.09,-71.22C180.54,-63.42 196.44,-51.55 209.24,-42"/>
<polygon fill="#63b8ff" stroke="#63b8ff" points="211.14,-44.94 217.06,-36.16 206.96,-39.33 211.14,-44.94"/>
<g id="a_edge4&#45;headlabel"><a xlink:href="dir_000017_000005.html" target="_top" xlink:title="3">
<text text-anchor="middle" x="211.17" y="-45.96" font-family="Helvetica,sans-Serif" font-size="10.00" fill="#63b8ff">3</text>
</a>
</g>
</g>
<!-- dir_503391f8f88e69ff0b6bb2ea195a5f61&#45;&gt;dir_cfb6e93dbea17f3e8193818fb6e149f2 -->
<g id="edge5" class="edge">
<title>dir_503391f8f88e69ff0b6bb2ea195a5f61&#45;&gt;dir_cfb6e93dbea17f3e8193818fb6e149f2</title>
<path fill="none" stroke="#63b8ff" d="M179.12,-71.1C200.26,-62.28 233.67,-48.34 257.51,-38.39"/>
<polygon fill="#63b8ff" stroke="#63b8ff" points="258.75,-41.67 266.63,-34.58 256.05,-35.21 258.75,-41.67"/>
<g id="a_edge5&#45;headlabel"><a xlink:href="dir_000017_000001.html" target="_top" xlink:title="2">
<text text-anchor="middle" x="257.92" y="-42.59" font-family="Helvetica,sans-Serif" font-size="10.00" fill="#63b8ff">2</text>
</a>
</g>
</g>
<!-- dir_90bad7cc0176f79061fa8dec19fe26f2 -->
<g id="node7" class="node">
<title>dir_90bad7cc0176f79061fa8dec19fe26f2</title>
<g id="a_node7"><a xlink:href="dir_90bad7cc0176f79061fa8dec19fe26f2.html" target="_top" xlink:title="readers">
<polygon fill="#a2b4d6" stroke="#404040" points="117.5,-90 68.5,-90 68.5,-71 117.5,-71 117.5,-90"/>
<text text-anchor="middle" x="93" y="-78" font-family="Helvetica,sans-Serif" font-size="10.00">readers</text>
</a>
</g>
</g>
<!-- dir_90bad7cc0176f79061fa8dec19fe26f2&#45;&gt;dir_896854cd3247b6cb36f98a37c2863463 -->
<g id="edge6" class="edge">
<title>dir_90bad7cc0176f79061fa8dec19fe26f2&#45;&gt;dir_896854cd3247b6cb36f98a37c2863463</title>
<path fill="none" stroke="#63b8ff" d="M84.08,-70.75C76.55,-63.35 65.53,-52.54 56.27,-43.45"/>
<polygon fill="#63b8ff" stroke="#63b8ff" points="58.78,-41.01 49.19,-36.5 53.88,-46 58.78,-41.01"/>
<g id="a_edge6&#45;headlabel"><a xlink:href="dir_000018_000016.html" target="_top" xlink:title="10">
<text text-anchor="middle" x="62.25" y="-37.94" font-family="Helvetica,sans-Serif" font-size="10.00" fill="#63b8ff">10</text>
</a>
</g>
</g>
<!-- dir_90bad7cc0176f79061fa8dec19fe26f2&#45;&gt;dir_9268fa4967c416e4e882c5e3d890d467 -->
<g id="edge7" class="edge">
<title>dir_90bad7cc0176f79061fa8dec19fe26f2&#45;&gt;dir_9268fa4967c416e4e882c5e3d890d467</title>
<path fill="none" stroke="#63b8ff" d="M93.17,-70.75C93.29,-64.27 93.46,-55.16 93.62,-46.9"/>
<polygon fill="#63b8ff" stroke="#63b8ff" points="97.11,-47.02 93.8,-36.96 90.11,-46.89 97.11,-47.02"/>
<g id="a_edge7&#45;headlabel"><a xlink:href="dir_000018_000012.html" target="_top" xlink:title="17">
<text text-anchor="middle" x="99.91" y="-46.65" font-family="Helvetica,sans-Serif" font-size="10.00" fill="#63b8ff">17</text>
</a>
</g>
</g>
</g>
</svg>
