<?xml version="1.0" encoding="UTF-8" standalone="no"?>
<!DOCTYPE svg PUBLIC "-//W3C//DTD SVG 1.1//EN"
 "http://www.w3.org/Graphics/SVG/1.1/DTD/svg11.dtd">
<!-- Generated by graphviz version 7.1.0 (0)
 -->
<!-- Title: opengl Pages: 1 -->
<svg width="320pt" height="306pt"
 viewBox="0.00 0.00 320.00 306.00" xmlns="http://www.w3.org/2000/svg" xmlns:xlink="http://www.w3.org/1999/xlink">
<g id="graph0" class="graph" transform="scale(1 1) rotate(0) translate(4 302)">
<title>opengl</title>
<g id="clust1" class="cluster">
<title>clusterdir_9a0adb9856b1b8f79a5aed667f750c45</title>
<g id="a_clust1"><a xlink:href="dir_9a0adb9856b1b8f79a5aed667f750c45.html" target="_top" xlink:title="src">
<polygon fill="#edf0f7" stroke="#7f7f7f" stroke-dasharray="5,2" points="8,-8 8,-290 304,-290 304,-8 8,-8"/>
<text text-anchor="middle" x="156" y="-278" font-family="Helvetica,sans-Serif" font-size="10.00">src</text>
</a>
</g>
</g>
<g id="clust2" class="cluster">
<title>clusterdir_896854cd3247b6cb36f98a37c2863463</title>
<g id="a_clust2"><a xlink:href="dir_896854cd3247b6cb36f98a37c2863463.html" target="_top">
<polygon fill="#edf0f7" stroke="#404040" stroke-width="2" points="176,-63 176,-263 244,-263 244,-63 176,-63"/>
</a>
</g>
</g>
<!-- dir_43db5ab264bba6ded25a436c3d8b4fee -->
<g id="node1" class="node">
<title>dir_43db5ab264bba6ded25a436c3d8b4fee</title>
<g id="a_node1"><a xlink:href="dir_43db5ab264bba6ded25a436c3d8b4fee.html" target="_top" xlink:title="workspace">
<polygon fill="#a2b4d6" stroke="#404040" points="140,-90 76,-90 76,-71 140,-71 140,-90"/>
<text text-anchor="middle" x="108" y="-78" font-family="Helvetica,sans-Serif" font-size="10.00">workspace</text>
</a>
</g>
</g>
<!-- dir_503391f8f88e69ff0b6bb2ea195a5f61 -->
<g id="node2" class="node">
<title>dir_503391f8f88e69ff0b6bb2ea195a5f61</title>
<g id="a_node2"><a xlink:href="dir_503391f8f88e69ff0b6bb2ea195a5f61.html" target="_top" xlink:title="project">
<polygon fill="#a2b4d6" stroke="red" points="287,-35 241,-35 241,-16 287,-16 287,-35"/>
<text text-anchor="middle" x="264" y="-23" font-family="Helvetica,sans-Serif" font-size="10.00">project</text>
</a>
</g>
</g>
<!-- dir_9268fa4967c416e4e882c5e3d890d467 -->
<g id="node3" class="node">
<title>dir_9268fa4967c416e4e882c5e3d890d467</title>
<g id="a_node3"><a xlink:href="dir_9268fa4967c416e4e882c5e3d890d467.html" target="_top" xlink:title="gui">
<polygon fill="#a2b4d6" stroke="#404040" points="107.5,-35 78.5,-35 78.5,-16 107.5,-16 107.5,-35"/>
<text text-anchor="middle" x="93" y="-23" font-family="Helvetica,sans-Serif" font-size="10.00">gui</text>
</a>
</g>
</g>
<!-- dir_a64f4d3da146dfbb12317d36ed2423d1 -->
<g id="node4" class="node">
<title>dir_a64f4d3da146dfbb12317d36ed2423d1</title>
<g id="a_node4"><a xlink:href="dir_a64f4d3da146dfbb12317d36ed2423d1.html" target="_top" xlink:title="curve">
<polygon fill="#a2b4d6" stroke="#404040" points="97.5,-145 56.5,-145 56.5,-126 97.5,-126 97.5,-145"/>
<text text-anchor="middle" x="77" y="-133" font-family="Helvetica,sans-Serif" font-size="10.00">curve</text>
</a>
</g>
</g>
<!-- dir_cfb6e93dbea17f3e8193818fb6e149f2 -->
<g id="node5" class="node">
<title>dir_cfb6e93dbea17f3e8193818fb6e149f2</title>
<g id="a_node5"><a xlink:href="dir_cfb6e93dbea17f3e8193818fb6e149f2.html" target="_top" xlink:title="calc">
<polygon fill="#a2b4d6" stroke="red" points="196.5,-35 161.5,-35 161.5,-16 196.5,-16 196.5,-35"/>
<text text-anchor="middle" x="179" y="-23" font-family="Helvetica,sans-Serif" font-size="10.00">calc</text>
</a>
</g>
</g>
<!-- dir_896854cd3247b6cb36f98a37c2863463 -->
<g id="node6" class="node">
<title>dir_896854cd3247b6cb36f98a37c2863463</title>
<text text-anchor="middle" x="207" y="-243" font-family="Helvetica,sans-Serif" font-size="10.00">opengl</text>
</g>
<!-- dir_896854cd3247b6cb36f98a37c2863463&#45;&gt;dir_503391f8f88e69ff0b6bb2ea195a5f61 -->
<g id="edge2" class="edge">
<title>dir_896854cd3247b6cb36f98a37c2863463&#45;&gt;dir_503391f8f88e69ff0b6bb2ea195a5f61</title>
<path fill="none" stroke="#63b8ff" d="M212.15,-236.23C217.43,-227.48 225.61,-213.16 231,-200 250.3,-152.89 255.42,-140.35 263,-90 265.17,-75.6 265.37,-59.15 265.05,-46.6"/>
<polygon fill="#63b8ff" stroke="#63b8ff" points="268.55,-46.55 264.65,-36.7 261.55,-46.83 268.55,-46.55"/>
<g id="a_edge2&#45;headlabel"><a xlink:href="dir_000016_000017.html" target="_top" xlink:title="21">
<text text-anchor="middle" x="271.47" y="-46.02" font-family="Helvetica,sans-Serif" font-size="10.00" fill="#63b8ff">21</text>
</a>
</g>
</g>
<!-- dir_896854cd3247b6cb36f98a37c2863463&#45;&gt;dir_9268fa4967c416e4e882c5e3d890d467 -->
<g id="edge3" class="edge">
<title>dir_896854cd3247b6cb36f98a37c2863463&#45;&gt;dir_9268fa4967c416e4e882c5e3d890d467</title>
<path fill="none" stroke="#63b8ff" d="M184.59,-241.68C156.26,-237.14 107.19,-225.94 74,-200 51.17,-182.16 47.1,-172.82 39,-145 32.83,-123.8 38.1,-78.79 47,-63 52.18,-53.81 60.69,-46.08 68.99,-40.14"/>
<polygon fill="#63b8ff" stroke="#63b8ff" points="70.69,-43.21 77.16,-34.83 66.87,-37.35 70.69,-43.21"/>
<g id="a_edge3&#45;headlabel"><a xlink:href="dir_000016_000012.html" target="_top" xlink:title="45">
<text text-anchor="middle" x="70.49" y="-44.23" font-family="Helvetica,sans-Serif" font-size="10.00" fill="#63b8ff">45</text>
</a>
</g>
</g>
<!-- dir_896854cd3247b6cb36f98a37c2863463&#45;&gt;dir_cfb6e93dbea17f3e8193818fb6e149f2 -->
<g id="edge4" class="edge">
<title>dir_896854cd3247b6cb36f98a37c2863463&#45;&gt;dir_cfb6e93dbea17f3e8193818fb6e149f2</title>
<path fill="none" stroke="#63b8ff" d="M184.58,-238.27C148.01,-226.76 76.63,-198.33 47,-145 33.92,-121.46 50.72,-79.4 67,-63 89.04,-40.79 124.73,-32.09 149.89,-28.69"/>
<polygon fill="#63b8ff" stroke="#63b8ff" points="150.24,-32.17 159.78,-27.57 149.45,-25.21 150.24,-32.17"/>
<g id="a_edge4&#45;headlabel"><a xlink:href="dir_000016_000001.html" target="_top" xlink:title="9">
<text text-anchor="middle" x="148.48" y="-32.72" font-family="Helvetica,sans-Serif" font-size="10.00" fill="#63b8ff">9</text>
</a>
</g>
</g>
<!-- dir_29de1f4f515f1169d584c6b9235953bf -->
<g id="node8" class="node">
<title>dir_29de1f4f515f1169d584c6b9235953bf</title>
<g id="a_node8"><a xlink:href="dir_29de1f4f515f1169d584c6b9235953bf.html" target="_top" xlink:title="edit">
<polygon fill="#a2b4d6" stroke="#404040" points="216,-200 184,-200 184,-181 216,-181 216,-200"/>
<text text-anchor="middle" x="200" y="-188" font-family="Helvetica,sans-Serif" font-size="10.00">edit</text>
</a>
</g>
</g>
<!-- dir_896854cd3247b6cb36f98a37c2863463&#45;&gt;dir_29de1f4f515f1169d584c6b9235953bf -->
<g id="edge1" class="edge">
<title>dir_896854cd3247b6cb36f98a37c2863463&#45;&gt;dir_29de1f4f515f1169d584c6b9235953bf</title>
<path fill="none" stroke="#63b8ff" d="M205.91,-236.22C205.04,-229.65 203.79,-220.18 202.66,-211.64"/>
<polygon fill="#63b8ff" stroke="#63b8ff" points="206.13,-211.21 201.35,-201.75 199.19,-212.12 206.13,-211.21"/>
<g id="a_edge1&#45;headlabel"><a xlink:href="dir_000016_000008.html" target="_top" xlink:title="8">
<text text-anchor="middle" x="209.22" y="-210.4" font-family="Helvetica,sans-Serif" font-size="10.00" fill="#63b8ff">8</text>
</a>
</g>
</g>
<!-- dir_e974ad0149b2947e115452623ce914ca -->
<g id="node9" class="node">
<title>dir_e974ad0149b2947e115452623ce914ca</title>
<g id="a_node9"><a xlink:href="dir_e974ad0149b2947e115452623ce914ca.html" target="_top" xlink:title="win">
<polygon fill="#a2b4d6" stroke="#404040" points="216,-145 184,-145 184,-126 216,-126 216,-145"/>
<text text-anchor="middle" x="200" y="-133" font-family="Helvetica,sans-Serif" font-size="10.00">win</text>
</a>
</g>
</g>
<!-- dir_896854cd3247b6cb36f98a37c2863463&#45;&gt;dir_e974ad0149b2947e115452623ce914ca -->
<g id="edge5" class="edge">
<title>dir_896854cd3247b6cb36f98a37c2863463&#45;&gt;dir_e974ad0149b2947e115452623ce914ca</title>
<path fill="none" stroke="#63b8ff" d="M212.2,-236.31C219.2,-224.24 230.22,-200.95 225,-181 222.59,-171.81 217.82,-162.5 213.08,-154.8"/>
<polygon fill="#63b8ff" stroke="#63b8ff" points="216.15,-153.1 207.7,-146.7 210.32,-156.97 216.15,-153.1"/>
<g id="a_edge5&#45;headlabel"><a xlink:href="dir_000016_000020.html" target="_top" xlink:title="8">
<text text-anchor="middle" x="219.66" y="-150.76" font-family="Helvetica,sans-Serif" font-size="10.00" fill="#63b8ff">8</text>
</a>
</g>
</g>
<!-- dir_ca41797f77cd69bf1ec4c84513765b8c -->
<g id="node7" class="node">
<title>dir_ca41797f77cd69bf1ec4c84513765b8c</title>
<g id="a_node7"><a xlink:href="dir_ca41797f77cd69bf1ec4c84513765b8c.html" target="_top" xlink:title="draw">
<polygon fill="#a2b4d6" stroke="#404040" points="236,-90 198,-90 198,-71 236,-71 236,-90"/>
<text text-anchor="middle" x="217" y="-78" font-family="Helvetica,sans-Serif" font-size="10.00">draw</text>
</a>
</g>
</g>
<!-- dir_ca41797f77cd69bf1ec4c84513765b8c&#45;&gt;dir_503391f8f88e69ff0b6bb2ea195a5f61 -->
<g id="edge6" class="edge">
<title>dir_ca41797f77cd69bf1ec4c84513765b8c&#45;&gt;dir_503391f8f88e69ff0b6bb2ea195a5f61</title>
<path fill="none" stroke="#63b8ff" d="M224.76,-70.75C231.19,-63.5 240.51,-52.98 248.46,-44.02"/>
<polygon fill="#63b8ff" stroke="#63b8ff" points="251.05,-46.38 255.07,-36.57 245.81,-41.73 251.05,-46.38"/>
<g id="a_edge6&#45;headlabel"><a xlink:href="dir_000007_000017.html" target="_top" xlink:title="2">
<text text-anchor="middle" x="251.79" y="-47.32" font-family="Helvetica,sans-Serif" font-size="10.00" fill="#63b8ff">2</text>
</a>
</g>
</g>
<!-- dir_ca41797f77cd69bf1ec4c84513765b8c&#45;&gt;dir_9268fa4967c416e4e882c5e3d890d467 -->
<g id="edge7" class="edge">
<title>dir_ca41797f77cd69bf1ec4c84513765b8c&#45;&gt;dir_9268fa4967c416e4e882c5e3d890d467</title>
<path fill="none" stroke="#63b8ff" d="M206.17,-70.8C202.45,-68.07 198.17,-65.2 194,-63 169.61,-50.16 139.72,-39.98 118.8,-33.67"/>
<polygon fill="#63b8ff" stroke="#63b8ff" points="119.95,-30.36 109.37,-30.91 117.99,-37.08 119.95,-30.36"/>
<g id="a_edge7&#45;headlabel"><a xlink:href="dir_000007_000012.html" target="_top" xlink:title="3">
<text text-anchor="middle" x="122.75" y="-25.72" font-family="Helvetica,sans-Serif" font-size="10.00" fill="#63b8ff">3</text>
</a>
</g>
</g>
<!-- dir_ca41797f77cd69bf1ec4c84513765b8c&#45;&gt;dir_cfb6e93dbea17f3e8193818fb6e149f2 -->
<g id="edge8" class="edge">
<title>dir_ca41797f77cd69bf1ec4c84513765b8c&#45;&gt;dir_cfb6e93dbea17f3e8193818fb6e149f2</title>
<path fill="none" stroke="#63b8ff" d="M210.73,-70.75C205.64,-63.66 198.3,-53.42 191.97,-44.59"/>
<polygon fill="#63b8ff" stroke="#63b8ff" points="194.96,-42.76 186.29,-36.67 189.28,-46.84 194.96,-42.76"/>
<g id="a_edge8&#45;headlabel"><a xlink:href="dir_000007_000001.html" target="_top" xlink:title="5">
<text text-anchor="middle" x="198.48" y="-40.3" font-family="Helvetica,sans-Serif" font-size="10.00" fill="#63b8ff">5</text>
</a>
</g>
</g>
<!-- dir_ca41797f77cd69bf1ec4c84513765b8c&#45;&gt;dir_e974ad0149b2947e115452623ce914ca -->
<g id="edge9" class="edge">
<title>dir_ca41797f77cd69bf1ec4c84513765b8c&#45;&gt;dir_e974ad0149b2947e115452623ce914ca</title>
<path fill="none" stroke="#63b8ff" d="M219.34,-90.44C218.58,-97.28 215.91,-106.96 212.6,-115.5"/>
<polygon fill="#63b8ff" stroke="#63b8ff" points="209.52,-113.81 208.6,-124.37 215.9,-116.69 209.52,-113.81"/>
<g id="a_edge9&#45;headlabel"><a xlink:href="dir_000007_000020.html" target="_top" xlink:title="4">
<text text-anchor="middle" x="207.79" y="-108.25" font-family="Helvetica,sans-Serif" font-size="10.00" fill="#63b8ff">4</text>
</a>
</g>
</g>
<!-- dir_29de1f4f515f1169d584c6b9235953bf&#45;&gt;dir_43db5ab264bba6ded25a436c3d8b4fee -->
<g id="edge10" class="edge">
<title>dir_29de1f4f515f1169d584c6b9235953bf&#45;&gt;dir_43db5ab264bba6ded25a436c3d8b4fee</title>
<path fill="none" stroke="#63b8ff" d="M192.47,-180.66C177.31,-162.86 142.85,-122.41 122.94,-99.04"/>
<polygon fill="#63b8ff" stroke="#63b8ff" points="125.76,-96.96 116.61,-91.61 120.43,-101.49 125.76,-96.96"/>
<g id="a_edge10&#45;headlabel"><a xlink:href="dir_000008_000021.html" target="_top" xlink:title="4">
<text text-anchor="middle" x="129.27" y="-94.2" font-family="Helvetica,sans-Serif" font-size="10.00" fill="#63b8ff">4</text>
</a>
</g>
</g>
<!-- dir_29de1f4f515f1169d584c6b9235953bf&#45;&gt;dir_503391f8f88e69ff0b6bb2ea195a5f61 -->
<g id="edge11" class="edge">
<title>dir_29de1f4f515f1169d584c6b9235953bf&#45;&gt;dir_503391f8f88e69ff0b6bb2ea195a5f61</title>
<path fill="none" stroke="#63b8ff" d="M206.36,-180.7C218.1,-163.95 243.08,-125.97 255,-90 259.68,-75.89 261.92,-59.23 263,-46.51"/>
<polygon fill="#63b8ff" stroke="#63b8ff" points="266.47,-47.07 263.64,-36.86 259.49,-46.61 266.47,-47.07"/>
<g id="a_edge11&#45;headlabel"><a xlink:href="dir_000008_000017.html" target="_top" xlink:title="6">
<text text-anchor="middle" x="269.17" y="-46.84" font-family="Helvetica,sans-Serif" font-size="10.00" fill="#63b8ff">6</text>
</a>
</g>
</g>
<!-- dir_29de1f4f515f1169d584c6b9235953bf&#45;&gt;dir_9268fa4967c416e4e882c5e3d890d467 -->
<g id="edge12" class="edge">
<title>dir_29de1f4f515f1169d584c6b9235953bf&#45;&gt;dir_9268fa4967c416e4e882c5e3d890d467</title>
<path fill="none" stroke="#63b8ff" d="M187.06,-180.8C154.92,-159.07 73.62,-103.21 67,-90 61.63,-79.27 63.35,-74.43 67,-63 69.19,-56.16 73.17,-49.51 77.38,-43.81"/>
<polygon fill="#63b8ff" stroke="#63b8ff" points="79.82,-46.35 83.43,-36.39 74.39,-41.93 79.82,-46.35"/>
<g id="a_edge12&#45;headlabel"><a xlink:href="dir_000008_000012.html" target="_top" xlink:title="8">
<text text-anchor="middle" x="80.7" y="-47.26" font-family="Helvetica,sans-Serif" font-size="10.00" fill="#63b8ff">8</text>
</a>
</g>
</g>
<!-- dir_29de1f4f515f1169d584c6b9235953bf&#45;&gt;dir_a64f4d3da146dfbb12317d36ed2423d1 -->
<g id="edge13" class="edge">
<title>dir_29de1f4f515f1169d584c6b9235953bf&#45;&gt;dir_a64f4d3da146dfbb12317d36ed2423d1</title>
<path fill="none" stroke="#63b8ff" d="M183.67,-182.46C164.4,-174.16 131.95,-160.18 107.89,-149.81"/>
<polygon fill="#63b8ff" stroke="#63b8ff" points="109.46,-146.68 98.89,-145.93 106.69,-153.11 109.46,-146.68"/>
<g id="a_edge13&#45;headlabel"><a xlink:href="dir_000008_000005.html" target="_top" xlink:title="1">
<text text-anchor="middle" x="112.5" y="-142.39" font-family="Helvetica,sans-Serif" font-size="10.00" fill="#63b8ff">1</text>
</a>
</g>
</g>
<!-- dir_29de1f4f515f1169d584c6b9235953bf&#45;&gt;dir_e974ad0149b2947e115452623ce914ca -->
<g id="edge14" class="edge">
<title>dir_29de1f4f515f1169d584c6b9235953bf&#45;&gt;dir_e974ad0149b2947e115452623ce914ca</title>
<path fill="none" stroke="#63b8ff" d="M194.83,-180.75C193.42,-174.19 192.96,-164.95 193.43,-156.6"/>
<polygon fill="#63b8ff" stroke="#63b8ff" points="196.87,-157.3 194.61,-146.94 189.92,-156.45 196.87,-157.3"/>
<g id="a_edge14&#45;headlabel"><a xlink:href="dir_000008_000020.html" target="_top" xlink:title="3">
<text text-anchor="middle" x="199.44" y="-157.21" font-family="Helvetica,sans-Serif" font-size="10.00" fill="#63b8ff">3</text>
</a>
</g>
</g>
<!-- dir_e974ad0149b2947e115452623ce914ca&#45;&gt;dir_43db5ab264bba6ded25a436c3d8b4fee -->
<g id="edge16" class="edge">
<title>dir_e974ad0149b2947e115452623ce914ca&#45;&gt;dir_43db5ab264bba6ded25a436c3d8b4fee</title>
<path fill="none" stroke="#63b8ff" d="M184.39,-125.51C170.3,-117.39 149.31,-105.3 132.9,-95.85"/>
<polygon fill="#63b8ff" stroke="#63b8ff" points="135.1,-93.07 124.69,-91.11 131.61,-99.14 135.1,-93.07"/>
<g id="a_edge16&#45;headlabel"><a xlink:href="dir_000020_000021.html" target="_top" xlink:title="1">
<text text-anchor="middle" x="138.32" y="-89.15" font-family="Helvetica,sans-Serif" font-size="10.00" fill="#63b8ff">1</text>
</a>
</g>
</g>
<!-- dir_e974ad0149b2947e115452623ce914ca&#45;&gt;dir_503391f8f88e69ff0b6bb2ea195a5f61 -->
<g id="edge17" class="edge">
<title>dir_e974ad0149b2947e115452623ce914ca&#45;&gt;dir_503391f8f88e69ff0b6bb2ea195a5f61</title>
<path fill="none" stroke="#63b8ff" d="M211.99,-125.52C222.15,-117.32 236.4,-104.32 245,-90 253.08,-76.54 257.95,-59.4 260.73,-46.32"/>
<polygon fill="#63b8ff" stroke="#63b8ff" points="264.12,-47.23 262.51,-36.76 257.23,-45.95 264.12,-47.23"/>
<g id="a_edge17&#45;headlabel"><a xlink:href="dir_000020_000017.html" target="_top" xlink:title="12">
<text text-anchor="middle" x="266.52" y="-47.3" font-family="Helvetica,sans-Serif" font-size="10.00" fill="#63b8ff">12</text>
</a>
</g>
</g>
<!-- dir_e974ad0149b2947e115452623ce914ca&#45;&gt;dir_9268fa4967c416e4e882c5e3d890d467 -->
<g id="edge18" class="edge">
<title>dir_e974ad0149b2947e115452623ce914ca&#45;&gt;dir_9268fa4967c416e4e882c5e3d890d467</title>
<path fill="none" stroke="#63b8ff" d="M195.24,-125.79C187.12,-111.48 169.47,-82.63 149,-63 139.7,-54.08 127.94,-46.04 117.6,-39.78"/>
<polygon fill="#63b8ff" stroke="#63b8ff" points="119.59,-36.89 109.18,-34.92 116.09,-42.95 119.59,-36.89"/>
<g id="a_edge18&#45;headlabel"><a xlink:href="dir_000020_000012.html" target="_top" xlink:title="30">
<text text-anchor="middle" x="122.81" y="-32.98" font-family="Helvetica,sans-Serif" font-size="10.00" fill="#63b8ff">30</text>
</a>
</g>
</g>
<!-- dir_e974ad0149b2947e115452623ce914ca&#45;&gt;dir_cfb6e93dbea17f3e8193818fb6e149f2 -->
<g id="edge20" class="edge">
<title>dir_e974ad0149b2947e115452623ce914ca&#45;&gt;dir_cfb6e93dbea17f3e8193818fb6e149f2</title>
<path fill="none" stroke="#63b8ff" d="M197.58,-125.69C195.19,-116.74 191.52,-102.48 189,-90 186.08,-75.55 183.51,-59.1 181.71,-46.57"/>
<polygon fill="#63b8ff" stroke="#63b8ff" points="185.18,-46.09 180.33,-36.67 178.24,-47.06 185.18,-46.09"/>
<g id="a_edge20&#45;headlabel"><a xlink:href="dir_000020_000001.html" target="_top" xlink:title="2">
<text text-anchor="middle" x="188.28" y="-45.26" font-family="Helvetica,sans-Serif" font-size="10.00" fill="#63b8ff">2</text>
</a>
</g>
</g>
<!-- dir_e974ad0149b2947e115452623ce914ca&#45;&gt;dir_ca41797f77cd69bf1ec4c84513765b8c -->
<g id="edge19" class="edge">
<title>dir_e974ad0149b2947e115452623ce914ca&#45;&gt;dir_ca41797f77cd69bf1ec4c84513765b8c</title>
<path fill="none" stroke="#63b8ff" d="M197.64,-125.75C198.36,-118.96 201.01,-109.3 204.31,-100.73"/>
<polygon fill="#63b8ff" stroke="#63b8ff" points="207.41,-102.38 208.31,-91.82 201.02,-99.52 207.41,-102.38"/>
<g id="a_edge19&#45;headlabel"><a xlink:href="dir_000020_000007.html" target="_top" xlink:title="1">
<text text-anchor="middle" x="209.15" y="-102.94" font-family="Helvetica,sans-Serif" font-size="10.00" fill="#63b8ff">1</text>
</a>
</g>
</g>
<!-- dir_e974ad0149b2947e115452623ce914ca&#45;&gt;dir_29de1f4f515f1169d584c6b9235953bf -->
<g id="edge15" class="edge">
<title>dir_e974ad0149b2947e115452623ce914ca&#45;&gt;dir_29de1f4f515f1169d584c6b9235953bf</title>
<path fill="none" stroke="#63b8ff" d="M205.21,-145.44C206.58,-151.97 207.04,-161.1 206.57,-169.35"/>
<polygon fill="#63b8ff" stroke="#63b8ff" points="203.1,-168.89 205.35,-179.25 210.05,-169.75 203.1,-168.89"/>
<g id="a_edge15&#45;headlabel"><a xlink:href="dir_000020_000008.html" target="_top" xlink:title="7">
<text text-anchor="middle" x="200.54" y="-163.98" font-family="Helvetica,sans-Serif" font-size="10.00" fill="#63b8ff">7</text>
</a>
</g>
</g>
</g>
</svg>
