<?xml version="1.0" encoding="UTF-8" standalone="no"?>
<!DOCTYPE svg PUBLIC "-//W3C//DTD SVG 1.1//EN"
 "http://www.w3.org/Graphics/SVG/1.1/DTD/svg11.dtd">
<!-- Generated by graphviz version 7.1.0 (0)
 -->
<!-- Title: /data/files/codeblocks&#45;files/atomes/src/calc Pages: 1 -->
<svg width="307pt" height="196pt"
 viewBox="0.00 0.00 307.00 196.00" xmlns="http://www.w3.org/2000/svg" xmlns:xlink="http://www.w3.org/1999/xlink">
<g id="graph0" class="graph" transform="scale(1 1) rotate(0) translate(4 192)">
<title>/data/files/codeblocks&#45;files/atomes/src/calc</title>
<g id="clust1" class="cluster">
<title>clusterdir_3921ebae5ef364b0d2f6acfa0fb0d8d3</title>
<g id="a_clust1"><a xlink:href="dir_3921ebae5ef364b0d2f6acfa0fb0d8d3.html" target="_top" xlink:title="src">
<polygon fill="#edf0f7" stroke="#7f7f7f" stroke-dasharray="5,2" points="8,-8 8,-180 291,-180 291,-8 8,-8"/>
<text text-anchor="middle" x="149.5" y="-168" font-family="Helvetica,sans-Serif" font-size="10.00">src</text>
</a>
</g>
</g>
<g id="clust2" class="cluster">
<title>clusterdir_b69cbee60e647204afcf7b8718bedceb</title>
<g id="a_clust2"><a xlink:href="dir_b69cbee60e647204afcf7b8718bedceb.html" target="_top">
<polygon fill="#edf0f7" stroke="#404040" stroke-width="2" points="20,-63 20,-153 283,-153 283,-63 20,-63"/>
</a>
</g>
</g>
<!-- dir_2c7347912a4c256662f0916909de91f6 -->
<g id="node1" class="node">
<title>dir_2c7347912a4c256662f0916909de91f6</title>
<g id="a_node1"><a xlink:href="dir_2c7347912a4c256662f0916909de91f6.html" target="_top" xlink:title="gui">
<polygon fill="#a2b4d6" stroke="#404040" points="246.5,-35 217.5,-35 217.5,-16 246.5,-16 246.5,-35"/>
<text text-anchor="middle" x="232" y="-23" font-family="Helvetica,sans-Serif" font-size="10.00">gui</text>
</a>
</g>
</g>
<!-- dir_c307836a8a3824cdddc5eadc2484ae0c -->
<g id="node2" class="node">
<title>dir_c307836a8a3824cdddc5eadc2484ae0c</title>
<g id="a_node2"><a xlink:href="dir_c307836a8a3824cdddc5eadc2484ae0c.html" target="_top" xlink:title="opengl">
<polygon fill="#a2b4d6" stroke="red" points="77.5,-35 32.5,-35 32.5,-16 77.5,-16 77.5,-35"/>
<text text-anchor="middle" x="55" y="-23" font-family="Helvetica,sans-Serif" font-size="10.00">opengl</text>
</a>
</g>
</g>
<!-- dir_da605f587a6e9eadd4939071a5b287b2 -->
<g id="node3" class="node">
<title>dir_da605f587a6e9eadd4939071a5b287b2</title>
<g id="a_node3"><a xlink:href="dir_da605f587a6e9eadd4939071a5b287b2.html" target="_top" xlink:title="project">
<polygon fill="#a2b4d6" stroke="red" points="142,-35 96,-35 96,-16 142,-16 142,-35"/>
<text text-anchor="middle" x="119" y="-23" font-family="Helvetica,sans-Serif" font-size="10.00">project</text>
</a>
</g>
</g>
<!-- dir_b69cbee60e647204afcf7b8718bedceb -->
<g id="node4" class="node">
<title>dir_b69cbee60e647204afcf7b8718bedceb</title>
<text text-anchor="middle" x="46" y="-133" font-family="Helvetica,sans-Serif" font-size="10.00">calc</text>
</g>
<!-- dir_b69cbee60e647204afcf7b8718bedceb&#45;&gt;dir_2c7347912a4c256662f0916909de91f6 -->
<g id="edge1" class="edge">
<title>dir_b69cbee60e647204afcf7b8718bedceb&#45;&gt;dir_2c7347912a4c256662f0916909de91f6</title>
<g id="a_edge1"><a xlink:href="dir_000002_000014.html" target="_top">
<path fill="none" stroke="#63b8ff" d="M63.39,-128.88C66.58,-127.89 69.88,-126.89 73,-126 134.34,-108.41 165.72,-133.94 212,-90 218.34,-83.97 224.18,-62.86 227.89,-46.62"/>
<polygon fill="#63b8ff" stroke="#63b8ff" points="231.29,-47.47 229.97,-36.96 224.44,-46 231.29,-47.47"/>
</a>
</g>
<g id="a_edge1&#45;headlabel"><a xlink:href="dir_000002_000014.html" target="_top" xlink:title="27">
<text text-anchor="middle" x="233.63" y="-47.6" font-family="Helvetica,sans-Serif" font-size="10.00" fill="#63b8ff">27</text>
</a>
</g>
</g>
<!-- dir_b69cbee60e647204afcf7b8718bedceb&#45;&gt;dir_c307836a8a3824cdddc5eadc2484ae0c -->
<g id="edge2" class="edge">
<title>dir_b69cbee60e647204afcf7b8718bedceb&#45;&gt;dir_c307836a8a3824cdddc5eadc2484ae0c</title>
<g id="a_edge2"><a xlink:href="dir_000002_000016.html" target="_top">
<path fill="none" stroke="#63b8ff" d="M41.77,-126.02C35.6,-112.51 25.54,-85.36 32,-63 33.87,-56.52 37.27,-50.09 40.89,-44.47"/>
<polygon fill="#63b8ff" stroke="#63b8ff" points="43.52,-46.8 46.48,-36.63 37.83,-42.73 43.52,-46.8"/>
</a>
</g>
<g id="a_edge2&#45;headlabel"><a xlink:href="dir_000002_000016.html" target="_top" xlink:title="24">
<text text-anchor="middle" x="44.63" y="-47.64" font-family="Helvetica,sans-Serif" font-size="10.00" fill="#63b8ff">24</text>
</a>
</g>
</g>
<!-- dir_b69cbee60e647204afcf7b8718bedceb&#45;&gt;dir_da605f587a6e9eadd4939071a5b287b2 -->
<g id="edge3" class="edge">
<title>dir_b69cbee60e647204afcf7b8718bedceb&#45;&gt;dir_da605f587a6e9eadd4939071a5b287b2</title>
<g id="a_edge3"><a xlink:href="dir_000002_000017.html" target="_top">
<path fill="none" stroke="#63b8ff" d="M49.02,-126.04C54.24,-112.1 65.85,-83.77 81,-63 86.34,-55.68 93.23,-48.57 99.68,-42.59"/>
<polygon fill="#63b8ff" stroke="#63b8ff" points="101.69,-45.48 106.87,-36.24 97.06,-40.24 101.69,-45.48"/>
</a>
</g>
<g id="a_edge3&#45;headlabel"><a xlink:href="dir_000002_000017.html" target="_top" xlink:title="7">
<text text-anchor="middle" x="102.01" y="-46.49" font-family="Helvetica,sans-Serif" font-size="10.00" fill="#63b8ff">7</text>
</a>
</g>
</g>
<!-- dir_4ab9ed588a33ddf3ded84b781a5fa5eb -->
<g id="node5" class="node">
<title>dir_4ab9ed588a33ddf3ded84b781a5fa5eb</title>
<g id="a_node5"><a xlink:href="dir_4ab9ed588a33ddf3ded84b781a5fa5eb.html" target="_top" xlink:title="cp2k">
<polygon fill="#a2b4d6" stroke="#404040" points="120,-145 82,-145 82,-126 120,-126 120,-145"/>
<text text-anchor="middle" x="101" y="-133" font-family="Helvetica,sans-Serif" font-size="10.00">cp2k</text>
</a>
</g>
</g>
<!-- dir_4ab9ed588a33ddf3ded84b781a5fa5eb&#45;&gt;dir_2c7347912a4c256662f0916909de91f6 -->
<g id="edge4" class="edge">
<title>dir_4ab9ed588a33ddf3ded84b781a5fa5eb&#45;&gt;dir_2c7347912a4c256662f0916909de91f6</title>
<g id="a_edge4"><a xlink:href="dir_000004_000014.html" target="_top">
<path fill="none" stroke="#63b8ff" d="M120.32,-128.29C154.79,-117.12 223.62,-94.4 227,-90 236.39,-77.78 237.04,-60.05 235.68,-46.43"/>
<polygon fill="#63b8ff" stroke="#63b8ff" points="239.19,-46.24 234.28,-36.85 232.26,-47.25 239.19,-46.24"/>
</a>
</g>
<g id="a_edge4&#45;headlabel"><a xlink:href="dir_000004_000014.html" target="_top" xlink:title="6">
<text text-anchor="middle" x="242.3" y="-45.39" font-family="Helvetica,sans-Serif" font-size="10.00" fill="#63b8ff">6</text>
</a>
</g>
</g>
<!-- dir_4ab9ed588a33ddf3ded84b781a5fa5eb&#45;&gt;dir_c307836a8a3824cdddc5eadc2484ae0c -->
<g id="edge5" class="edge">
<title>dir_4ab9ed588a33ddf3ded84b781a5fa5eb&#45;&gt;dir_c307836a8a3824cdddc5eadc2484ae0c</title>
<g id="a_edge5"><a xlink:href="dir_000004_000016.html" target="_top">
<path fill="none" stroke="#63b8ff" d="M96.93,-125.67C92.82,-116.72 86.35,-102.45 81,-90 74.66,-75.23 67.78,-58.4 62.7,-45.77"/>
<polygon fill="#63b8ff" stroke="#63b8ff" points="65.97,-44.55 59,-36.57 59.48,-47.16 65.97,-44.55"/>
</a>
</g>
<g id="a_edge5&#45;headlabel"><a xlink:href="dir_000004_000016.html" target="_top" xlink:title="4">
<text text-anchor="middle" x="69.38" y="-42.92" font-family="Helvetica,sans-Serif" font-size="10.00" fill="#63b8ff">4</text>
</a>
</g>
</g>
<!-- dir_4ab9ed588a33ddf3ded84b781a5fa5eb&#45;&gt;dir_da605f587a6e9eadd4939071a5b287b2 -->
<g id="edge7" class="edge">
<title>dir_4ab9ed588a33ddf3ded84b781a5fa5eb&#45;&gt;dir_da605f587a6e9eadd4939071a5b287b2</title>
<g id="a_edge7"><a xlink:href="dir_000004_000017.html" target="_top">
<path fill="none" stroke="#63b8ff" d="M96.36,-125.88C89.62,-112.19 78.8,-84.78 87,-63 89.73,-55.75 94.62,-49.01 99.77,-43.34"/>
<polygon fill="#63b8ff" stroke="#63b8ff" points="102.08,-45.97 106.73,-36.45 97.16,-41 102.08,-45.97"/>
</a>
</g>
<g id="a_edge7&#45;headlabel"><a xlink:href="dir_000004_000017.html" target="_top" xlink:title="2">
<text text-anchor="middle" x="102.59" y="-46.96" font-family="Helvetica,sans-Serif" font-size="10.00" fill="#63b8ff">2</text>
</a>
</g>
</g>
<!-- dir_caeb26bee8661dbf425546c6599ec934 -->
<g id="node6" class="node">
<title>dir_caeb26bee8661dbf425546c6599ec934</title>
<g id="a_node6"><a xlink:href="dir_caeb26bee8661dbf425546c6599ec934.html" target="_top" xlink:title="cpmd">
<polygon fill="#a2b4d6" stroke="#404040" points="137.5,-90 96.5,-90 96.5,-71 137.5,-71 137.5,-90"/>
<text text-anchor="middle" x="117" y="-78" font-family="Helvetica,sans-Serif" font-size="10.00">cpmd</text>
</a>
</g>
</g>
<!-- dir_4ab9ed588a33ddf3ded84b781a5fa5eb&#45;&gt;dir_caeb26bee8661dbf425546c6599ec934 -->
<g id="edge6" class="edge">
<title>dir_4ab9ed588a33ddf3ded84b781a5fa5eb&#45;&gt;dir_caeb26bee8661dbf425546c6599ec934</title>
<g id="a_edge6"><a xlink:href="dir_000004_000005.html" target="_top">
<path fill="none" stroke="#63b8ff" d="M98.48,-125.75C99.06,-119.04 101.48,-109.52 104.57,-101.02"/>
<polygon fill="#63b8ff" stroke="#63b8ff" points="107.78,-102.4 108.5,-91.83 101.35,-99.65 107.78,-102.4"/>
</a>
</g>
<g id="a_edge6&#45;headlabel"><a xlink:href="dir_000004_000005.html" target="_top" xlink:title="1">
<text text-anchor="middle" x="109.58" y="-102.93" font-family="Helvetica,sans-Serif" font-size="10.00" fill="#63b8ff">1</text>
</a>
</g>
</g>
<!-- dir_caeb26bee8661dbf425546c6599ec934&#45;&gt;dir_2c7347912a4c256662f0916909de91f6 -->
<g id="edge8" class="edge">
<title>dir_caeb26bee8661dbf425546c6599ec934&#45;&gt;dir_2c7347912a4c256662f0916909de91f6</title>
<g id="a_edge8"><a xlink:href="dir_000005_000014.html" target="_top">
<path fill="none" stroke="#63b8ff" d="M131.87,-70.6C136.36,-68.04 141.33,-65.31 146,-63 166.04,-53.09 189.42,-43.27 206.75,-36.32"/>
<polygon fill="#63b8ff" stroke="#63b8ff" points="207.75,-39.69 215.75,-32.75 205.17,-33.18 207.75,-39.69"/>
</a>
</g>
<g id="a_edge8&#45;headlabel"><a xlink:href="dir_000005_000014.html" target="_top" xlink:title="7">
<text text-anchor="middle" x="206.86" y="-40.59" font-family="Helvetica,sans-Serif" font-size="10.00" fill="#63b8ff">7</text>
</a>
</g>
</g>
<!-- dir_caeb26bee8661dbf425546c6599ec934&#45;&gt;dir_c307836a8a3824cdddc5eadc2484ae0c -->
<g id="edge10" class="edge">
<title>dir_caeb26bee8661dbf425546c6599ec934&#45;&gt;dir_c307836a8a3824cdddc5eadc2484ae0c</title>
<g id="a_edge10"><a xlink:href="dir_000005_000016.html" target="_top">
<path fill="none" stroke="#63b8ff" d="M106.48,-70.51C97.61,-62.93 84.69,-51.88 74.01,-42.75"/>
<polygon fill="#63b8ff" stroke="#63b8ff" points="76.39,-40.18 66.51,-36.34 71.84,-45.5 76.39,-40.18"/>
</a>
</g>
<g id="a_edge10&#45;headlabel"><a xlink:href="dir_000005_000016.html" target="_top" xlink:title="4">
<text text-anchor="middle" x="79.81" y="-36.87" font-family="Helvetica,sans-Serif" font-size="10.00" fill="#63b8ff">4</text>
</a>
</g>
</g>
<!-- dir_caeb26bee8661dbf425546c6599ec934&#45;&gt;dir_da605f587a6e9eadd4939071a5b287b2 -->
<g id="edge11" class="edge">
<title>dir_caeb26bee8661dbf425546c6599ec934&#45;&gt;dir_da605f587a6e9eadd4939071a5b287b2</title>
<g id="a_edge11"><a xlink:href="dir_000005_000017.html" target="_top">
<path fill="none" stroke="#63b8ff" d="M117.33,-70.75C117.57,-64.27 117.92,-55.16 118.23,-46.9"/>
<polygon fill="#63b8ff" stroke="#63b8ff" points="121.73,-47.08 118.61,-36.95 114.73,-46.82 121.73,-47.08"/>
</a>
</g>
<g id="a_edge11&#45;headlabel"><a xlink:href="dir_000005_000017.html" target="_top" xlink:title="1">
<text text-anchor="middle" x="124.48" y="-46.77" font-family="Helvetica,sans-Serif" font-size="10.00" fill="#63b8ff">1</text>
</a>
</g>
</g>
<!-- dir_caeb26bee8661dbf425546c6599ec934&#45;&gt;dir_4ab9ed588a33ddf3ded84b781a5fa5eb -->
<g id="edge9" class="edge">
<title>dir_caeb26bee8661dbf425546c6599ec934&#45;&gt;dir_4ab9ed588a33ddf3ded84b781a5fa5eb</title>
<g id="a_edge9"><a xlink:href="dir_000005_000004.html" target="_top">
<path fill="none" stroke="#63b8ff" d="M119.51,-90.44C118.89,-97.21 116.45,-106.74 113.34,-115.22"/>
<polygon fill="#63b8ff" stroke="#63b8ff" points="110.15,-113.79 109.41,-124.36 116.58,-116.56 110.15,-113.79"/>
</a>
</g>
<g id="a_edge9&#45;headlabel"><a xlink:href="dir_000005_000004.html" target="_top" xlink:title="2">
<text text-anchor="middle" x="108.36" y="-108.25" font-family="Helvetica,sans-Serif" font-size="10.00" fill="#63b8ff">2</text>
</a>
</g>
</g>
<!-- dir_3782050fa72c98c54a5dcde88f610403 -->
<g id="node7" class="node">
<title>dir_3782050fa72c98c54a5dcde88f610403</title>
<g id="a_node7"><a xlink:href="dir_3782050fa72c98c54a5dcde88f610403.html" target="_top" xlink:title="dl_poly">
<polygon fill="#a2b4d6" stroke="#404040" points="202.5,-90 155.5,-90 155.5,-71 202.5,-71 202.5,-90"/>
<text text-anchor="middle" x="179" y="-78" font-family="Helvetica,sans-Serif" font-size="10.00">dl_poly</text>
</a>
</g>
</g>
<!-- dir_3782050fa72c98c54a5dcde88f610403&#45;&gt;dir_2c7347912a4c256662f0916909de91f6 -->
<g id="edge12" class="edge">
<title>dir_3782050fa72c98c54a5dcde88f610403&#45;&gt;dir_2c7347912a4c256662f0916909de91f6</title>
<g id="a_edge12"><a xlink:href="dir_000008_000014.html" target="_top">
<path fill="none" stroke="#63b8ff" d="M187.75,-70.75C195.15,-63.35 205.96,-52.54 215.05,-43.45"/>
<polygon fill="#63b8ff" stroke="#63b8ff" points="217.39,-46.06 221.99,-36.51 212.44,-41.11 217.39,-46.06"/>
</a>
</g>
<g id="a_edge12&#45;headlabel"><a xlink:href="dir_000008_000014.html" target="_top" xlink:title="11">
<text text-anchor="middle" x="217.93" y="-47.04" font-family="Helvetica,sans-Serif" font-size="10.00" fill="#63b8ff">11</text>
</a>
</g>
</g>
<!-- dir_3782050fa72c98c54a5dcde88f610403&#45;&gt;dir_c307836a8a3824cdddc5eadc2484ae0c -->
<g id="edge13" class="edge">
<title>dir_3782050fa72c98c54a5dcde88f610403&#45;&gt;dir_c307836a8a3824cdddc5eadc2484ae0c</title>
<g id="a_edge13"><a xlink:href="dir_000008_000016.html" target="_top">
<path fill="none" stroke="#63b8ff" d="M162,-70.67C156.9,-68.11 151.26,-65.36 146,-63 127.15,-54.53 105.71,-45.88 88.38,-39.13"/>
<polygon fill="#63b8ff" stroke="#63b8ff" points="89.66,-35.87 79.07,-35.54 87.14,-42.4 89.66,-35.87"/>
</a>
</g>
<g id="a_edge13&#45;headlabel"><a xlink:href="dir_000008_000016.html" target="_top" xlink:title="14">
<text text-anchor="middle" x="92.62" y="-31.47" font-family="Helvetica,sans-Serif" font-size="10.00" fill="#63b8ff">14</text>
</a>
</g>
</g>
<!-- dir_3782050fa72c98c54a5dcde88f610403&#45;&gt;dir_da605f587a6e9eadd4939071a5b287b2 -->
<g id="edge14" class="edge">
<title>dir_3782050fa72c98c54a5dcde88f610403&#45;&gt;dir_da605f587a6e9eadd4939071a5b287b2</title>
<g id="a_edge14"><a xlink:href="dir_000008_000017.html" target="_top">
<path fill="none" stroke="#63b8ff" d="M168.82,-70.51C160.24,-62.93 147.73,-51.88 137.4,-42.75"/>
<polygon fill="#63b8ff" stroke="#63b8ff" points="139.97,-40.36 130.16,-36.36 135.34,-45.6 139.97,-40.36"/>
</a>
</g>
<g id="a_edge14&#45;headlabel"><a xlink:href="dir_000008_000017.html" target="_top" xlink:title="3">
<text text-anchor="middle" x="143.41" y="-37.11" font-family="Helvetica,sans-Serif" font-size="10.00" fill="#63b8ff">3</text>
</a>
</g>
</g>
<!-- dir_455b21f68fae38961c892179ca8594c1 -->
<g id="node8" class="node">
<title>dir_455b21f68fae38961c892179ca8594c1</title>
<g id="a_node8"><a xlink:href="dir_455b21f68fae38961c892179ca8594c1.html" target="_top" xlink:title="force_fields">
<polygon fill="#a2b4d6" stroke="#404040" points="205.5,-145 138.5,-145 138.5,-126 205.5,-126 205.5,-145"/>
<text text-anchor="middle" x="172" y="-133" font-family="Helvetica,sans-Serif" font-size="10.00">force_fields</text>
</a>
</g>
</g>
<!-- dir_455b21f68fae38961c892179ca8594c1&#45;&gt;dir_2c7347912a4c256662f0916909de91f6 -->
<g id="edge15" class="edge">
<title>dir_455b21f68fae38961c892179ca8594c1&#45;&gt;dir_2c7347912a4c256662f0916909de91f6</title>
<g id="a_edge15"><a xlink:href="dir_000012_000014.html" target="_top">
<path fill="none" stroke="#63b8ff" d="M200.78,-125.52C217.48,-118.66 237.11,-107.37 247,-90 254.88,-76.16 249.58,-58.36 243.2,-45.13"/>
<polygon fill="#63b8ff" stroke="#63b8ff" points="246.42,-43.73 238.57,-36.61 240.27,-47.07 246.42,-43.73"/>
</a>
</g>
<g id="a_edge15&#45;headlabel"><a xlink:href="dir_000012_000014.html" target="_top" xlink:title="1">
<text text-anchor="middle" x="249.91" y="-41.7" font-family="Helvetica,sans-Serif" font-size="10.00" fill="#63b8ff">1</text>
</a>
</g>
</g>
<!-- dir_455b21f68fae38961c892179ca8594c1&#45;&gt;dir_3782050fa72c98c54a5dcde88f610403 -->
<g id="edge16" class="edge">
<title>dir_455b21f68fae38961c892179ca8594c1&#45;&gt;dir_3782050fa72c98c54a5dcde88f610403</title>
<g id="a_edge16"><a xlink:href="dir_000012_000008.html" target="_top">
<path fill="none" stroke="#63b8ff" d="M173.16,-125.75C174.02,-119.19 175.24,-109.95 176.34,-101.6"/>
<polygon fill="#63b8ff" stroke="#63b8ff" points="179.78,-102.31 177.62,-91.94 172.84,-101.4 179.78,-102.31"/>
</a>
</g>
<g id="a_edge16&#45;headlabel"><a xlink:href="dir_000012_000008.html" target="_top" xlink:title="1">
<text text-anchor="middle" x="182.32" y="-102.25" font-family="Helvetica,sans-Serif" font-size="10.00" fill="#63b8ff">1</text>
</a>
</g>
</g>
<!-- dir_b8465f2f52ca03f47316b5663bbe26ce -->
<g id="node9" class="node">
<title>dir_b8465f2f52ca03f47316b5663bbe26ce</title>
<g id="a_node9"><a xlink:href="dir_b8465f2f52ca03f47316b5663bbe26ce.html" target="_top" xlink:title="lammps">
<polygon fill="#a2b4d6" stroke="#404040" points="274.5,-145 223.5,-145 223.5,-126 274.5,-126 274.5,-145"/>
<text text-anchor="middle" x="249" y="-133" font-family="Helvetica,sans-Serif" font-size="10.00">lammps</text>
</a>
</g>
</g>
<!-- dir_b8465f2f52ca03f47316b5663bbe26ce&#45;&gt;dir_2c7347912a4c256662f0916909de91f6 -->
<g id="edge17" class="edge">
<title>dir_b8465f2f52ca03f47316b5663bbe26ce&#45;&gt;dir_2c7347912a4c256662f0916909de91f6</title>
<g id="a_edge17"><a xlink:href="dir_000015_000014.html" target="_top">
<path fill="none" stroke="#63b8ff" d="M254.56,-125.9C262.64,-112.23 275.78,-84.85 267,-63 263.96,-55.45 258.54,-48.58 252.85,-42.89"/>
<polygon fill="#63b8ff" stroke="#63b8ff" points="255.48,-40.54 245.7,-36.46 250.8,-45.75 255.48,-40.54"/>
</a>
</g>
<g id="a_edge17&#45;headlabel"><a xlink:href="dir_000015_000014.html" target="_top" xlink:title="1">
<text text-anchor="middle" x="258.92" y="-37.32" font-family="Helvetica,sans-Serif" font-size="10.00" fill="#63b8ff">1</text>
</a>
</g>
</g>
<!-- dir_b8465f2f52ca03f47316b5663bbe26ce&#45;&gt;dir_3782050fa72c98c54a5dcde88f610403 -->
<g id="edge18" class="edge">
<title>dir_b8465f2f52ca03f47316b5663bbe26ce&#45;&gt;dir_3782050fa72c98c54a5dcde88f610403</title>
<g id="a_edge18"><a xlink:href="dir_000015_000008.html" target="_top">
<path fill="none" stroke="#63b8ff" d="M237.13,-125.51C226.91,-117.77 211.93,-106.43 199.74,-97.2"/>
<polygon fill="#63b8ff" stroke="#63b8ff" points="201.99,-94.52 191.91,-91.27 197.77,-100.1 201.99,-94.52"/>
</a>
</g>
<g id="a_edge18&#45;headlabel"><a xlink:href="dir_000015_000008.html" target="_top" xlink:title="1">
<text text-anchor="middle" x="205.36" y="-91.01" font-family="Helvetica,sans-Serif" font-size="10.00" fill="#63b8ff">1</text>
</a>
</g>
</g>
</g>
</svg>
