<?xml version="1.0" encoding="UTF-8" standalone="no"?>
<!DOCTYPE svg PUBLIC "-//W3C//DTD SVG 1.1//EN"
 "http://www.w3.org/Graphics/SVG/1.1/DTD/svg11.dtd">
<!-- Generated by graphviz version 9.0.0 (20230911.1827)
 -->
<!-- Title: calc Pages: 1 -->
<svg width="357pt" height="156pt"
 viewBox="0.00 0.00 357.25 156.00" xmlns="http://www.w3.org/2000/svg" xmlns:xlink="http://www.w3.org/1999/xlink">
<g id="graph0" class="graph" transform="scale(1 1) rotate(0) translate(4 152)">
<title>calc</title>
<g id="clust1" class="cluster">
<title>clusterdir_b23ce9843a0cf83641620a63d26b700d</title>
<g id="a_clust1"><a xlink:href="dir_b23ce9843a0cf83641620a63d26b700d.html" target="_top">
<polygon fill="#edf0f7" stroke="#404040" stroke-width="2" points="31.62,-48 31.62,-140 289.62,-140 289.62,-48 31.62,-48"/>
</a>
</g>
</g>
<!-- dir_b23ce9843a0cf83641620a63d26b700d -->
<g id="node1" class="node">
<title>dir_b23ce9843a0cf83641620a63d26b700d</title>
<text text-anchor="middle" x="264.62" y="-118.5" font-family="Helvetica,sans-Serif" font-size="10.00">calc</text>
</g>
<!-- dir_11bc0974ce736ce9a6fadebbeb7a8314 -->
<g id="node7" class="node">
<title>dir_11bc0974ce736ce9a6fadebbeb7a8314</title>
<g id="a_node7"><a xlink:href="dir_11bc0974ce736ce9a6fadebbeb7a8314.html" target="_top" xlink:title="gui">
<polygon fill="#edf0f7" stroke="#404040" points="90.02,-20 61.22,-20 61.22,0 90.02,0 90.02,-20"/>
<text text-anchor="middle" x="75.62" y="-6.5" font-family="Helvetica,sans-Serif" font-size="10.00">gui</text>
</a>
</g>
</g>
<!-- dir_b23ce9843a0cf83641620a63d26b700d&#45;&gt;dir_11bc0974ce736ce9a6fadebbeb7a8314 -->
<g id="edge1" class="edge">
<title>dir_b23ce9843a0cf83641620a63d26b700d&#45;&gt;dir_11bc0974ce736ce9a6fadebbeb7a8314</title>
<g id="a_edge1"><a xlink:href="dir_000000_000009.html" target="_top">
<path fill="none" stroke="#63b8ff" d="M247.88,-115.06C244.81,-114.01 241.62,-112.95 238.62,-112 183.5,-94.54 159.25,-111.5 113.62,-76 98.8,-64.47 88.65,-45.42 82.59,-30.92"/>
<polygon fill="#63b8ff" stroke="#63b8ff" points="85.99,-29.99 79.14,-21.91 79.45,-32.5 85.99,-29.99"/>
</a>
</g>
<g id="a_edge1&#45;headlabel"><a xlink:href="dir_000000_000009.html" target="_top" xlink:title="27">
<text text-anchor="middle" x="89.38" y="-27.42" font-family="Helvetica,sans-Serif" font-size="10.00" fill="#63b8ff">27</text>
</a>
</g>
</g>
<!-- dir_167790342fb55959539d550b874be046 -->
<g id="node8" class="node">
<title>dir_167790342fb55959539d550b874be046</title>
<g id="a_node8"><a xlink:href="dir_167790342fb55959539d550b874be046.html" target="_top" xlink:title="project">
<polygon fill="#edf0f7" stroke="red" points="309.24,-20 263.99,-20 263.99,0 309.24,0 309.24,-20"/>
<text text-anchor="middle" x="286.62" y="-6.5" font-family="Helvetica,sans-Serif" font-size="10.00">project</text>
</a>
</g>
</g>
<!-- dir_b23ce9843a0cf83641620a63d26b700d&#45;&gt;dir_167790342fb55959539d550b874be046 -->
<g id="edge2" class="edge">
<title>dir_b23ce9843a0cf83641620a63d26b700d&#45;&gt;dir_167790342fb55959539d550b874be046</title>
<g id="a_edge2"><a xlink:href="dir_000000_000012.html" target="_top">
<path fill="none" stroke="#63b8ff" d="M281.35,-117C300.51,-111.41 331.02,-99.25 344.62,-76 350.9,-65.26 350.6,-58.91 344.62,-48 339.08,-37.89 329.48,-30.15 319.66,-24.42"/>
<polygon fill="#63b8ff" stroke="#63b8ff" points="321.35,-21.36 310.86,-19.87 318.13,-27.57 321.35,-21.36"/>
</a>
</g>
<g id="a_edge2&#45;headlabel"><a xlink:href="dir_000000_000012.html" target="_top" xlink:title="7">
<text text-anchor="middle" x="324.5" y="-16.29" font-family="Helvetica,sans-Serif" font-size="10.00" fill="#63b8ff">7</text>
</a>
</g>
</g>
<!-- dir_35aa532d637074063c646a4cf80a0972 -->
<g id="node9" class="node">
<title>dir_35aa532d637074063c646a4cf80a0972</title>
<g id="a_node9"><a xlink:href="dir_35aa532d637074063c646a4cf80a0972.html" target="_top" xlink:title="opengl">
<polygon fill="#edf0f7" stroke="red" points="234.87,-20 190.37,-20 190.37,0 234.87,0 234.87,-20"/>
<text text-anchor="middle" x="212.62" y="-6.5" font-family="Helvetica,sans-Serif" font-size="10.00">opengl</text>
</a>
</g>
</g>
<!-- dir_b23ce9843a0cf83641620a63d26b700d&#45;&gt;dir_35aa532d637074063c646a4cf80a0972 -->
<g id="edge3" class="edge">
<title>dir_b23ce9843a0cf83641620a63d26b700d&#45;&gt;dir_35aa532d637074063c646a4cf80a0972</title>
<g id="a_edge3"><a xlink:href="dir_000000_000011.html" target="_top">
<path fill="none" stroke="#63b8ff" d="M264.6,-112.35C264.23,-98.09 262,-69.13 250.62,-48 246.48,-40.31 240.18,-33.24 233.91,-27.38"/>
<polygon fill="#63b8ff" stroke="#63b8ff" points="236.57,-25.05 226.7,-21.19 232.01,-30.36 236.57,-25.05"/>
</a>
</g>
<g id="a_edge3&#45;headlabel"><a xlink:href="dir_000000_000011.html" target="_top" xlink:title="24">
<text text-anchor="middle" x="240" y="-20.76" font-family="Helvetica,sans-Serif" font-size="10.00" fill="#63b8ff">24</text>
</a>
</g>
</g>
<!-- dir_01a309c05bfc2b395e442be53fadc5b8 -->
<g id="node2" class="node">
<title>dir_01a309c05bfc2b395e442be53fadc5b8</title>
<g id="a_node2"><a xlink:href="dir_01a309c05bfc2b395e442be53fadc5b8.html" target="_top" xlink:title="cp2k">
<polygon fill="#a2b4d6" stroke="#404040" points="229.12,-132 192.12,-132 192.12,-112 229.12,-112 229.12,-132"/>
<text text-anchor="middle" x="210.62" y="-118.5" font-family="Helvetica,sans-Serif" font-size="10.00">cp2k</text>
</a>
</g>
</g>
<!-- dir_3c461fae8816b6eed18cc888a5849005 -->
<g id="node3" class="node">
<title>dir_3c461fae8816b6eed18cc888a5849005</title>
<g id="a_node3"><a xlink:href="dir_3c461fae8816b6eed18cc888a5849005.html" target="_top" xlink:title="cpmd">
<polygon fill="#a2b4d6" stroke="#404040" points="226.62,-76 186.62,-76 186.62,-56 226.62,-56 226.62,-76"/>
<text text-anchor="middle" x="206.62" y="-62.5" font-family="Helvetica,sans-Serif" font-size="10.00">cpmd</text>
</a>
</g>
</g>
<!-- dir_01a309c05bfc2b395e442be53fadc5b8&#45;&gt;dir_3c461fae8816b6eed18cc888a5849005 -->
<g id="edge7" class="edge">
<title>dir_01a309c05bfc2b395e442be53fadc5b8&#45;&gt;dir_3c461fae8816b6eed18cc888a5849005</title>
<g id="a_edge7"><a xlink:href="dir_000001_000002.html" target="_top">
<path fill="none" stroke="#63b8ff" d="M204.65,-111.59C202.85,-105.01 201.74,-95.96 201.57,-87.73"/>
<polygon fill="#63b8ff" stroke="#63b8ff" points="205.06,-87.95 202,-77.81 198.07,-87.65 205.06,-87.95"/>
</a>
</g>
<g id="a_edge7&#45;headlabel"><a xlink:href="dir_000001_000002.html" target="_top" xlink:title="1">
<text text-anchor="middle" x="207.81" y="-86.65" font-family="Helvetica,sans-Serif" font-size="10.00" fill="#63b8ff">1</text>
</a>
</g>
</g>
<!-- dir_01a309c05bfc2b395e442be53fadc5b8&#45;&gt;dir_11bc0974ce736ce9a6fadebbeb7a8314 -->
<g id="edge4" class="edge">
<title>dir_01a309c05bfc2b395e442be53fadc5b8&#45;&gt;dir_11bc0974ce736ce9a6fadebbeb7a8314</title>
<g id="a_edge4"><a xlink:href="dir_000001_000009.html" target="_top">
<path fill="none" stroke="#63b8ff" d="M191.75,-114.76C156.13,-102.95 82.39,-78.29 80.62,-76 70.98,-63.51 70.36,-45.36 71.79,-31.41"/>
<polygon fill="#63b8ff" stroke="#63b8ff" points="75.24,-31.97 73.25,-21.56 68.32,-30.94 75.24,-31.97"/>
</a>
</g>
<g id="a_edge4&#45;headlabel"><a xlink:href="dir_000001_000009.html" target="_top" xlink:title="6">
<text text-anchor="middle" x="77.74" y="-30.95" font-family="Helvetica,sans-Serif" font-size="10.00" fill="#63b8ff">6</text>
</a>
</g>
</g>
<!-- dir_01a309c05bfc2b395e442be53fadc5b8&#45;&gt;dir_167790342fb55959539d550b874be046 -->
<g id="edge5" class="edge">
<title>dir_01a309c05bfc2b395e442be53fadc5b8&#45;&gt;dir_167790342fb55959539d550b874be046</title>
<g id="a_edge5"><a xlink:href="dir_000001_000012.html" target="_top">
<path fill="none" stroke="#63b8ff" d="M220.18,-111.52C228.73,-102.75 241.31,-89.14 250.62,-76 260.99,-61.36 270.71,-43.45 277.44,-30.13"/>
<polygon fill="#63b8ff" stroke="#63b8ff" points="280.38,-32.08 281.66,-21.56 274.1,-28.99 280.38,-32.08"/>
</a>
</g>
<g id="a_edge5&#45;headlabel"><a xlink:href="dir_000001_000012.html" target="_top" xlink:title="2">
<text text-anchor="middle" x="282.01" y="-31.7" font-family="Helvetica,sans-Serif" font-size="10.00" fill="#63b8ff">2</text>
</a>
</g>
</g>
<!-- dir_01a309c05bfc2b395e442be53fadc5b8&#45;&gt;dir_35aa532d637074063c646a4cf80a0972 -->
<g id="edge6" class="edge">
<title>dir_01a309c05bfc2b395e442be53fadc5b8&#45;&gt;dir_35aa532d637074063c646a4cf80a0972</title>
<g id="a_edge6"><a xlink:href="dir_000001_000011.html" target="_top">
<path fill="none" stroke="#63b8ff" d="M217.72,-111.61C223.82,-102.9 232.17,-89.32 235.62,-76 238.74,-63.95 239.03,-59.97 235.62,-48 233.78,-41.55 230.45,-35.12 226.88,-29.48"/>
<polygon fill="#63b8ff" stroke="#63b8ff" points="229.95,-27.76 221.35,-21.57 224.22,-31.77 229.95,-27.76"/>
</a>
</g>
<g id="a_edge6&#45;headlabel"><a xlink:href="dir_000001_000011.html" target="_top" xlink:title="4">
<text text-anchor="middle" x="233.47" y="-24.34" font-family="Helvetica,sans-Serif" font-size="10.00" fill="#63b8ff">4</text>
</a>
</g>
</g>
<!-- dir_3c461fae8816b6eed18cc888a5849005&#45;&gt;dir_01a309c05bfc2b395e442be53fadc5b8 -->
<g id="edge8" class="edge">
<title>dir_3c461fae8816b6eed18cc888a5849005&#45;&gt;dir_01a309c05bfc2b395e442be53fadc5b8</title>
<g id="a_edge8"><a xlink:href="dir_000002_000001.html" target="_top">
<path fill="none" stroke="#63b8ff" d="M212.55,-76.3C214.37,-82.85 215.48,-91.9 215.67,-100.13"/>
<polygon fill="#63b8ff" stroke="#63b8ff" points="212.17,-99.94 215.25,-110.08 219.16,-100.24 212.17,-99.94"/>
</a>
</g>
<g id="a_edge8&#45;headlabel"><a xlink:href="dir_000002_000001.html" target="_top" xlink:title="2">
<text text-anchor="middle" x="209.42" y="-94.25" font-family="Helvetica,sans-Serif" font-size="10.00" fill="#63b8ff">2</text>
</a>
</g>
</g>
<!-- dir_3c461fae8816b6eed18cc888a5849005&#45;&gt;dir_11bc0974ce736ce9a6fadebbeb7a8314 -->
<g id="edge9" class="edge">
<title>dir_3c461fae8816b6eed18cc888a5849005&#45;&gt;dir_11bc0974ce736ce9a6fadebbeb7a8314</title>
<g id="a_edge9"><a xlink:href="dir_000002_000009.html" target="_top">
<path fill="none" stroke="#63b8ff" d="M191.85,-55.64C187.37,-53 182.37,-50.23 177.62,-48 152.42,-36.16 122.31,-25.66 101.37,-18.9"/>
<polygon fill="#63b8ff" stroke="#63b8ff" points="102.52,-15.59 91.93,-15.91 100.4,-22.26 102.52,-15.59"/>
</a>
</g>
<g id="a_edge9&#45;headlabel"><a xlink:href="dir_000002_000009.html" target="_top" xlink:title="7">
<text text-anchor="middle" x="105.36" y="-10.01" font-family="Helvetica,sans-Serif" font-size="10.00" fill="#63b8ff">7</text>
</a>
</g>
</g>
<!-- dir_3c461fae8816b6eed18cc888a5849005&#45;&gt;dir_167790342fb55959539d550b874be046 -->
<g id="edge10" class="edge">
<title>dir_3c461fae8816b6eed18cc888a5849005&#45;&gt;dir_167790342fb55959539d550b874be046</title>
<g id="a_edge10"><a xlink:href="dir_000002_000012.html" target="_top">
<path fill="none" stroke="#63b8ff" d="M220.55,-55.59C232.3,-47.67 249.35,-36.16 263.19,-26.82"/>
<polygon fill="#63b8ff" stroke="#63b8ff" points="264.99,-29.82 271.32,-21.33 261.07,-24.02 264.99,-29.82"/>
</a>
</g>
<g id="a_edge10&#45;headlabel"><a xlink:href="dir_000002_000012.html" target="_top" xlink:title="1">
<text text-anchor="middle" x="264.85" y="-29.84" font-family="Helvetica,sans-Serif" font-size="10.00" fill="#63b8ff">1</text>
</a>
</g>
</g>
<!-- dir_3c461fae8816b6eed18cc888a5849005&#45;&gt;dir_35aa532d637074063c646a4cf80a0972 -->
<g id="edge11" class="edge">
<title>dir_3c461fae8816b6eed18cc888a5849005&#45;&gt;dir_35aa532d637074063c646a4cf80a0972</title>
<g id="a_edge11"><a xlink:href="dir_000002_000011.html" target="_top">
<path fill="none" stroke="#63b8ff" d="M207.66,-55.59C208.39,-49.01 209.4,-39.96 210.31,-31.73"/>
<polygon fill="#63b8ff" stroke="#63b8ff" points="213.79,-32.13 211.42,-21.8 206.83,-31.35 213.79,-32.13"/>
</a>
</g>
<g id="a_edge11&#45;headlabel"><a xlink:href="dir_000002_000011.html" target="_top" xlink:title="4">
<text text-anchor="middle" x="216.38" y="-31.01" font-family="Helvetica,sans-Serif" font-size="10.00" fill="#63b8ff">4</text>
</a>
</g>
</g>
<!-- dir_2f6dfc3fd2a80fa7f81281d4ff381abc -->
<g id="node4" class="node">
<title>dir_2f6dfc3fd2a80fa7f81281d4ff381abc</title>
<g id="a_node4"><a xlink:href="dir_2f6dfc3fd2a80fa7f81281d4ff381abc.html" target="_top" xlink:title="dl_poly">
<polygon fill="#a2b4d6" stroke="#404040" points="168.99,-76 122.24,-76 122.24,-56 168.99,-56 168.99,-76"/>
<text text-anchor="middle" x="145.62" y="-62.5" font-family="Helvetica,sans-Serif" font-size="10.00">dl_poly</text>
</a>
</g>
</g>
<!-- dir_2f6dfc3fd2a80fa7f81281d4ff381abc&#45;&gt;dir_11bc0974ce736ce9a6fadebbeb7a8314 -->
<g id="edge12" class="edge">
<title>dir_2f6dfc3fd2a80fa7f81281d4ff381abc&#45;&gt;dir_11bc0974ce736ce9a6fadebbeb7a8314</title>
<g id="a_edge12"><a xlink:href="dir_000004_000009.html" target="_top">
<path fill="none" stroke="#63b8ff" d="M133.43,-55.59C123.29,-47.77 108.63,-36.46 96.61,-27.19"/>
<polygon fill="#63b8ff" stroke="#63b8ff" points="98.93,-24.56 88.87,-21.22 94.65,-30.1 98.93,-24.56"/>
</a>
</g>
<g id="a_edge12&#45;headlabel"><a xlink:href="dir_000004_000009.html" target="_top" xlink:title="11">
<text text-anchor="middle" x="102.31" y="-20.08" font-family="Helvetica,sans-Serif" font-size="10.00" fill="#63b8ff">11</text>
</a>
</g>
</g>
<!-- dir_2f6dfc3fd2a80fa7f81281d4ff381abc&#45;&gt;dir_167790342fb55959539d550b874be046 -->
<g id="edge13" class="edge">
<title>dir_2f6dfc3fd2a80fa7f81281d4ff381abc&#45;&gt;dir_167790342fb55959539d550b874be046</title>
<g id="a_edge13"><a xlink:href="dir_000004_000012.html" target="_top">
<path fill="none" stroke="#63b8ff" d="M161.98,-55.66C166.92,-53.01 172.42,-50.25 177.62,-48 202.19,-37.39 230.88,-27.75 252.66,-20.98"/>
<polygon fill="#63b8ff" stroke="#63b8ff" points="253.68,-24.32 262.22,-18.05 251.64,-17.63 253.68,-24.32"/>
</a>
</g>
<g id="a_edge13&#45;headlabel"><a xlink:href="dir_000004_000012.html" target="_top" xlink:title="3">
<text text-anchor="middle" x="252.52" y="-24.15" font-family="Helvetica,sans-Serif" font-size="10.00" fill="#63b8ff">3</text>
</a>
</g>
</g>
<!-- dir_2f6dfc3fd2a80fa7f81281d4ff381abc&#45;&gt;dir_35aa532d637074063c646a4cf80a0972 -->
<g id="edge14" class="edge">
<title>dir_2f6dfc3fd2a80fa7f81281d4ff381abc&#45;&gt;dir_35aa532d637074063c646a4cf80a0972</title>
<g id="a_edge14"><a xlink:href="dir_000004_000011.html" target="_top">
<path fill="none" stroke="#63b8ff" d="M157.29,-55.59C166.9,-47.85 180.75,-36.69 192.19,-27.47"/>
<polygon fill="#63b8ff" stroke="#63b8ff" points="194.31,-30.25 199.9,-21.25 189.92,-24.8 194.31,-30.25"/>
</a>
</g>
<g id="a_edge14&#45;headlabel"><a xlink:href="dir_000004_000011.html" target="_top" xlink:title="14">
<text text-anchor="middle" x="194.47" y="-30.26" font-family="Helvetica,sans-Serif" font-size="10.00" fill="#63b8ff">14</text>
</a>
</g>
</g>
<!-- dir_37646e985372d1b7e165a1cac716d637 -->
<g id="node5" class="node">
<title>dir_37646e985372d1b7e165a1cac716d637</title>
<g id="a_node5"><a xlink:href="dir_37646e985372d1b7e165a1cac716d637.html" target="_top" xlink:title="force_fields">
<polygon fill="#a2b4d6" stroke="#404040" points="173.74,-132 107.49,-132 107.49,-112 173.74,-112 173.74,-132"/>
<text text-anchor="middle" x="140.62" y="-118.5" font-family="Helvetica,sans-Serif" font-size="10.00">force_fields</text>
</a>
</g>
</g>
<!-- dir_37646e985372d1b7e165a1cac716d637&#45;&gt;dir_2f6dfc3fd2a80fa7f81281d4ff381abc -->
<g id="edge16" class="edge">
<title>dir_37646e985372d1b7e165a1cac716d637&#45;&gt;dir_2f6dfc3fd2a80fa7f81281d4ff381abc</title>
<g id="a_edge16"><a xlink:href="dir_000007_000004.html" target="_top">
<path fill="none" stroke="#63b8ff" d="M141.49,-111.59C142.1,-105.01 142.94,-95.96 143.7,-87.73"/>
<polygon fill="#63b8ff" stroke="#63b8ff" points="147.18,-88.09 144.62,-77.81 140.21,-87.44 147.18,-88.09"/>
</a>
</g>
<g id="a_edge16&#45;headlabel"><a xlink:href="dir_000007_000004.html" target="_top" xlink:title="1">
<text text-anchor="middle" x="149.82" y="-86.92" font-family="Helvetica,sans-Serif" font-size="10.00" fill="#63b8ff">1</text>
</a>
</g>
</g>
<!-- dir_37646e985372d1b7e165a1cac716d637&#45;&gt;dir_11bc0974ce736ce9a6fadebbeb7a8314 -->
<g id="edge15" class="edge">
<title>dir_37646e985372d1b7e165a1cac716d637&#45;&gt;dir_11bc0974ce736ce9a6fadebbeb7a8314</title>
<g id="a_edge15"><a xlink:href="dir_000007_000009.html" target="_top">
<path fill="none" stroke="#63b8ff" d="M111.54,-111.57C85.61,-102.49 50.55,-88.37 42.62,-76 35.9,-65.52 38.19,-59.63 42.62,-48 45.39,-40.72 50.34,-33.96 55.56,-28.26"/>
<polygon fill="#63b8ff" stroke="#63b8ff" points="57.96,-30.81 62.66,-21.32 53.06,-25.81 57.96,-30.81"/>
</a>
</g>
<g id="a_edge15&#45;headlabel"><a xlink:href="dir_000007_000009.html" target="_top" xlink:title="1">
<text text-anchor="middle" x="58.45" y="-30.8" font-family="Helvetica,sans-Serif" font-size="10.00" fill="#63b8ff">1</text>
</a>
</g>
</g>
<!-- dir_7de34b2e4e838288c85b1788432c8a75 -->
<g id="node6" class="node">
<title>dir_7de34b2e4e838288c85b1788432c8a75</title>
<g id="a_node6"><a xlink:href="dir_7de34b2e4e838288c85b1788432c8a75.html" target="_top" xlink:title="lammps">
<polygon fill="#a2b4d6" stroke="#404040" points="89.87,-132 39.37,-132 39.37,-112 89.87,-112 89.87,-132"/>
<text text-anchor="middle" x="64.62" y="-118.5" font-family="Helvetica,sans-Serif" font-size="10.00">lammps</text>
</a>
</g>
</g>
<!-- dir_7de34b2e4e838288c85b1788432c8a75&#45;&gt;dir_2f6dfc3fd2a80fa7f81281d4ff381abc -->
<g id="edge18" class="edge">
<title>dir_7de34b2e4e838288c85b1788432c8a75&#45;&gt;dir_2f6dfc3fd2a80fa7f81281d4ff381abc</title>
<g id="a_edge18"><a xlink:href="dir_000010_000004.html" target="_top">
<path fill="none" stroke="#63b8ff" d="M78.73,-111.59C90.62,-103.67 107.88,-92.16 121.89,-82.82"/>
<polygon fill="#63b8ff" stroke="#63b8ff" points="123.76,-85.78 130.14,-77.32 119.88,-79.95 123.76,-85.78"/>
</a>
</g>
<g id="a_edge18&#45;headlabel"><a xlink:href="dir_000010_000004.html" target="_top" xlink:title="1">
<text text-anchor="middle" x="123.6" y="-85.8" font-family="Helvetica,sans-Serif" font-size="10.00" fill="#63b8ff">1</text>
</a>
</g>
</g>
<!-- dir_7de34b2e4e838288c85b1788432c8a75&#45;&gt;dir_11bc0974ce736ce9a6fadebbeb7a8314 -->
<g id="edge17" class="edge">
<title>dir_7de34b2e4e838288c85b1788432c8a75&#45;&gt;dir_11bc0974ce736ce9a6fadebbeb7a8314</title>
<g id="a_edge17"><a xlink:href="dir_000010_000009.html" target="_top">
<path fill="none" stroke="#63b8ff" d="M43.55,-111.54C29.71,-104.06 12.71,-92.19 4.62,-76 -0.95,-64.87 -1.84,-58.64 4.62,-48 14.42,-31.84 33.84,-22.41 49.9,-17.11"/>
<polygon fill="#63b8ff" stroke="#63b8ff" points="50.73,-20.52 59.36,-14.38 48.78,-13.8 50.73,-20.52"/>
</a>
</g>
<g id="a_edge17&#45;headlabel"><a xlink:href="dir_000010_000009.html" target="_top" xlink:title="1">
<text text-anchor="middle" x="49.52" y="-20.33" font-family="Helvetica,sans-Serif" font-size="10.00" fill="#63b8ff">1</text>
</a>
</g>
</g>
</g>
</svg>
