<?xml version="1.0" encoding="UTF-8" standalone="no"?>
<!DOCTYPE svg PUBLIC "-//W3C//DTD SVG 1.1//EN"
 "http://www.w3.org/Graphics/SVG/1.1/DTD/svg11.dtd">
<!-- Generated by graphviz version 7.1.0 (0)
 -->
<!-- Title: calc Pages: 1 -->
<svg width="307pt" height="196pt"
 viewBox="0.00 0.00 307.00 196.00" xmlns="http://www.w3.org/2000/svg" xmlns:xlink="http://www.w3.org/1999/xlink">
<g id="graph0" class="graph" transform="scale(1 1) rotate(0) translate(4 192)">
<title>calc</title>
<g id="clust1" class="cluster">
<title>clusterdir_9a0adb9856b1b8f79a5aed667f750c45</title>
<g id="a_clust1"><a xlink:href="dir_9a0adb9856b1b8f79a5aed667f750c45.html" target="_top" xlink:title="src">
<polygon fill="#edf0f7" stroke="#7f7f7f" stroke-dasharray="5,2" points="8,-8 8,-180 291,-180 291,-8 8,-8"/>
<text text-anchor="middle" x="149.5" y="-168" font-family="Helvetica,sans-Serif" font-size="10.00">src</text>
</a>
</g>
</g>
<g id="clust2" class="cluster">
<title>clusterdir_cfb6e93dbea17f3e8193818fb6e149f2</title>
<g id="a_clust2"><a xlink:href="dir_cfb6e93dbea17f3e8193818fb6e149f2.html" target="_top">
<polygon fill="#edf0f7" stroke="#404040" stroke-width="2" points="20,-63 20,-153 283,-153 283,-63 20,-63"/>
</a>
</g>
</g>
<!-- dir_503391f8f88e69ff0b6bb2ea195a5f61 -->
<g id="node1" class="node">
<title>dir_503391f8f88e69ff0b6bb2ea195a5f61</title>
<g id="a_node1"><a xlink:href="dir_503391f8f88e69ff0b6bb2ea195a5f61.html" target="_top" xlink:title="project">
<polygon fill="#a2b4d6" stroke="red" points="78,-35 32,-35 32,-16 78,-16 78,-35"/>
<text text-anchor="middle" x="55" y="-23" font-family="Helvetica,sans-Serif" font-size="10.00">project</text>
</a>
</g>
</g>
<!-- dir_896854cd3247b6cb36f98a37c2863463 -->
<g id="node2" class="node">
<title>dir_896854cd3247b6cb36f98a37c2863463</title>
<g id="a_node2"><a xlink:href="dir_896854cd3247b6cb36f98a37c2863463.html" target="_top" xlink:title="opengl">
<polygon fill="#a2b4d6" stroke="red" points="141.5,-35 96.5,-35 96.5,-16 141.5,-16 141.5,-35"/>
<text text-anchor="middle" x="119" y="-23" font-family="Helvetica,sans-Serif" font-size="10.00">opengl</text>
</a>
</g>
</g>
<!-- dir_9268fa4967c416e4e882c5e3d890d467 -->
<g id="node3" class="node">
<title>dir_9268fa4967c416e4e882c5e3d890d467</title>
<g id="a_node3"><a xlink:href="dir_9268fa4967c416e4e882c5e3d890d467.html" target="_top" xlink:title="gui">
<polygon fill="#a2b4d6" stroke="#404040" points="246.5,-35 217.5,-35 217.5,-16 246.5,-16 246.5,-35"/>
<text text-anchor="middle" x="232" y="-23" font-family="Helvetica,sans-Serif" font-size="10.00">gui</text>
</a>
</g>
</g>
<!-- dir_cfb6e93dbea17f3e8193818fb6e149f2 -->
<g id="node4" class="node">
<title>dir_cfb6e93dbea17f3e8193818fb6e149f2</title>
<text text-anchor="middle" x="46" y="-133" font-family="Helvetica,sans-Serif" font-size="10.00">calc</text>
</g>
<!-- dir_cfb6e93dbea17f3e8193818fb6e149f2&#45;&gt;dir_503391f8f88e69ff0b6bb2ea195a5f61 -->
<g id="edge1" class="edge">
<title>dir_cfb6e93dbea17f3e8193818fb6e149f2&#45;&gt;dir_503391f8f88e69ff0b6bb2ea195a5f61</title>
<path fill="none" stroke="#63b8ff" d="M41.77,-126.02C35.6,-112.51 25.54,-85.36 32,-63 33.87,-56.52 37.27,-50.09 40.89,-44.47"/>
<polygon fill="#63b8ff" stroke="#63b8ff" points="43.52,-46.8 46.48,-36.63 37.83,-42.73 43.52,-46.8"/>
<g id="a_edge1&#45;headlabel"><a xlink:href="dir_000001_000017.html" target="_top" xlink:title="7">
<text text-anchor="middle" x="44.63" y="-47.64" font-family="Helvetica,sans-Serif" font-size="10.00" fill="#63b8ff">7</text>
</a>
</g>
</g>
<!-- dir_cfb6e93dbea17f3e8193818fb6e149f2&#45;&gt;dir_896854cd3247b6cb36f98a37c2863463 -->
<g id="edge2" class="edge">
<title>dir_cfb6e93dbea17f3e8193818fb6e149f2&#45;&gt;dir_896854cd3247b6cb36f98a37c2863463</title>
<path fill="none" stroke="#63b8ff" d="M49.02,-126.04C54.24,-112.1 65.85,-83.77 81,-63 86.34,-55.68 93.23,-48.57 99.68,-42.59"/>
<polygon fill="#63b8ff" stroke="#63b8ff" points="101.69,-45.48 106.87,-36.24 97.06,-40.24 101.69,-45.48"/>
<g id="a_edge2&#45;headlabel"><a xlink:href="dir_000001_000016.html" target="_top" xlink:title="24">
<text text-anchor="middle" x="102.01" y="-46.49" font-family="Helvetica,sans-Serif" font-size="10.00" fill="#63b8ff">24</text>
</a>
</g>
</g>
<!-- dir_cfb6e93dbea17f3e8193818fb6e149f2&#45;&gt;dir_9268fa4967c416e4e882c5e3d890d467 -->
<g id="edge3" class="edge">
<title>dir_cfb6e93dbea17f3e8193818fb6e149f2&#45;&gt;dir_9268fa4967c416e4e882c5e3d890d467</title>
<path fill="none" stroke="#63b8ff" d="M63.39,-128.88C66.58,-127.89 69.88,-126.89 73,-126 134.34,-108.41 165.72,-133.94 212,-90 218.34,-83.97 224.18,-62.86 227.89,-46.62"/>
<polygon fill="#63b8ff" stroke="#63b8ff" points="231.29,-47.47 229.97,-36.96 224.44,-46 231.29,-47.47"/>
<g id="a_edge3&#45;headlabel"><a xlink:href="dir_000001_000012.html" target="_top" xlink:title="27">
<text text-anchor="middle" x="233.63" y="-47.6" font-family="Helvetica,sans-Serif" font-size="10.00" fill="#63b8ff">27</text>
</a>
</g>
</g>
<!-- dir_7ebf521237b7fa6714bb6b98b1a1b266 -->
<g id="node5" class="node">
<title>dir_7ebf521237b7fa6714bb6b98b1a1b266</title>
<g id="a_node5"><a xlink:href="dir_7ebf521237b7fa6714bb6b98b1a1b266.html" target="_top" xlink:title="cp2k">
<polygon fill="#a2b4d6" stroke="#404040" points="120,-145 82,-145 82,-126 120,-126 120,-145"/>
<text text-anchor="middle" x="101" y="-133" font-family="Helvetica,sans-Serif" font-size="10.00">cp2k</text>
</a>
</g>
</g>
<!-- dir_7ebf521237b7fa6714bb6b98b1a1b266&#45;&gt;dir_503391f8f88e69ff0b6bb2ea195a5f61 -->
<g id="edge4" class="edge">
<title>dir_7ebf521237b7fa6714bb6b98b1a1b266&#45;&gt;dir_503391f8f88e69ff0b6bb2ea195a5f61</title>
<path fill="none" stroke="#63b8ff" d="M96.93,-125.67C92.82,-116.72 86.35,-102.45 81,-90 74.66,-75.23 67.78,-58.4 62.7,-45.77"/>
<polygon fill="#63b8ff" stroke="#63b8ff" points="65.97,-44.55 59,-36.57 59.48,-47.16 65.97,-44.55"/>
<g id="a_edge4&#45;headlabel"><a xlink:href="dir_000003_000017.html" target="_top" xlink:title="2">
<text text-anchor="middle" x="69.38" y="-42.92" font-family="Helvetica,sans-Serif" font-size="10.00" fill="#63b8ff">2</text>
</a>
</g>
</g>
<!-- dir_7ebf521237b7fa6714bb6b98b1a1b266&#45;&gt;dir_896854cd3247b6cb36f98a37c2863463 -->
<g id="edge6" class="edge">
<title>dir_7ebf521237b7fa6714bb6b98b1a1b266&#45;&gt;dir_896854cd3247b6cb36f98a37c2863463</title>
<path fill="none" stroke="#63b8ff" d="M96.59,-125.89C90.21,-112.19 80,-84.79 88,-63 90.63,-55.83 95.37,-49.11 100.36,-43.43"/>
<polygon fill="#63b8ff" stroke="#63b8ff" points="102.6,-46.14 107.09,-36.54 97.6,-41.25 102.6,-46.14"/>
<g id="a_edge6&#45;headlabel"><a xlink:href="dir_000003_000016.html" target="_top" xlink:title="4">
<text text-anchor="middle" x="103.18" y="-47.12" font-family="Helvetica,sans-Serif" font-size="10.00" fill="#63b8ff">4</text>
</a>
</g>
</g>
<!-- dir_7ebf521237b7fa6714bb6b98b1a1b266&#45;&gt;dir_9268fa4967c416e4e882c5e3d890d467 -->
<g id="edge7" class="edge">
<title>dir_7ebf521237b7fa6714bb6b98b1a1b266&#45;&gt;dir_9268fa4967c416e4e882c5e3d890d467</title>
<path fill="none" stroke="#63b8ff" d="M120.32,-128.29C154.79,-117.12 223.62,-94.4 227,-90 236.39,-77.78 237.04,-60.05 235.68,-46.43"/>
<polygon fill="#63b8ff" stroke="#63b8ff" points="239.19,-46.24 234.28,-36.85 232.26,-47.25 239.19,-46.24"/>
<g id="a_edge7&#45;headlabel"><a xlink:href="dir_000003_000012.html" target="_top" xlink:title="6">
<text text-anchor="middle" x="242.3" y="-45.39" font-family="Helvetica,sans-Serif" font-size="10.00" fill="#63b8ff">6</text>
</a>
</g>
</g>
<!-- dir_750702e6f8cd8de2165ce2bed37e99c7 -->
<g id="node6" class="node">
<title>dir_750702e6f8cd8de2165ce2bed37e99c7</title>
<g id="a_node6"><a xlink:href="dir_750702e6f8cd8de2165ce2bed37e99c7.html" target="_top" xlink:title="cpmd">
<polygon fill="#a2b4d6" stroke="#404040" points="137.5,-90 96.5,-90 96.5,-71 137.5,-71 137.5,-90"/>
<text text-anchor="middle" x="117" y="-78" font-family="Helvetica,sans-Serif" font-size="10.00">cpmd</text>
</a>
</g>
</g>
<!-- dir_7ebf521237b7fa6714bb6b98b1a1b266&#45;&gt;dir_750702e6f8cd8de2165ce2bed37e99c7 -->
<g id="edge5" class="edge">
<title>dir_7ebf521237b7fa6714bb6b98b1a1b266&#45;&gt;dir_750702e6f8cd8de2165ce2bed37e99c7</title>
<path fill="none" stroke="#63b8ff" d="M98.48,-125.75C99.06,-119.04 101.48,-109.52 104.57,-101.02"/>
<polygon fill="#63b8ff" stroke="#63b8ff" points="107.78,-102.4 108.5,-91.83 101.35,-99.65 107.78,-102.4"/>
<g id="a_edge5&#45;headlabel"><a xlink:href="dir_000003_000004.html" target="_top" xlink:title="1">
<text text-anchor="middle" x="109.58" y="-102.93" font-family="Helvetica,sans-Serif" font-size="10.00" fill="#63b8ff">1</text>
</a>
</g>
</g>
<!-- dir_750702e6f8cd8de2165ce2bed37e99c7&#45;&gt;dir_503391f8f88e69ff0b6bb2ea195a5f61 -->
<g id="edge8" class="edge">
<title>dir_750702e6f8cd8de2165ce2bed37e99c7&#45;&gt;dir_503391f8f88e69ff0b6bb2ea195a5f61</title>
<path fill="none" stroke="#63b8ff" d="M106.48,-70.51C97.61,-62.93 84.69,-51.88 74.01,-42.75"/>
<polygon fill="#63b8ff" stroke="#63b8ff" points="76.39,-40.18 66.51,-36.34 71.84,-45.5 76.39,-40.18"/>
<g id="a_edge8&#45;headlabel"><a xlink:href="dir_000004_000017.html" target="_top" xlink:title="1">
<text text-anchor="middle" x="79.81" y="-36.87" font-family="Helvetica,sans-Serif" font-size="10.00" fill="#63b8ff">1</text>
</a>
</g>
</g>
<!-- dir_750702e6f8cd8de2165ce2bed37e99c7&#45;&gt;dir_896854cd3247b6cb36f98a37c2863463 -->
<g id="edge10" class="edge">
<title>dir_750702e6f8cd8de2165ce2bed37e99c7&#45;&gt;dir_896854cd3247b6cb36f98a37c2863463</title>
<path fill="none" stroke="#63b8ff" d="M117.33,-70.75C117.57,-64.27 117.92,-55.16 118.23,-46.9"/>
<polygon fill="#63b8ff" stroke="#63b8ff" points="121.73,-47.08 118.61,-36.95 114.73,-46.82 121.73,-47.08"/>
<g id="a_edge10&#45;headlabel"><a xlink:href="dir_000004_000016.html" target="_top" xlink:title="4">
<text text-anchor="middle" x="124.48" y="-46.77" font-family="Helvetica,sans-Serif" font-size="10.00" fill="#63b8ff">4</text>
</a>
</g>
</g>
<!-- dir_750702e6f8cd8de2165ce2bed37e99c7&#45;&gt;dir_9268fa4967c416e4e882c5e3d890d467 -->
<g id="edge11" class="edge">
<title>dir_750702e6f8cd8de2165ce2bed37e99c7&#45;&gt;dir_9268fa4967c416e4e882c5e3d890d467</title>
<path fill="none" stroke="#63b8ff" d="M132.42,-70.64C137.06,-68.08 142.19,-65.35 147,-63 166.77,-53.35 189.72,-43.57 206.79,-36.57"/>
<polygon fill="#63b8ff" stroke="#63b8ff" points="207.71,-39.97 215.66,-32.97 205.08,-33.49 207.71,-39.97"/>
<g id="a_edge11&#45;headlabel"><a xlink:href="dir_000004_000012.html" target="_top" xlink:title="7">
<text text-anchor="middle" x="206.85" y="-40.89" font-family="Helvetica,sans-Serif" font-size="10.00" fill="#63b8ff">7</text>
</a>
</g>
</g>
<!-- dir_750702e6f8cd8de2165ce2bed37e99c7&#45;&gt;dir_7ebf521237b7fa6714bb6b98b1a1b266 -->
<g id="edge9" class="edge">
<title>dir_750702e6f8cd8de2165ce2bed37e99c7&#45;&gt;dir_7ebf521237b7fa6714bb6b98b1a1b266</title>
<path fill="none" stroke="#63b8ff" d="M119.51,-90.44C118.89,-97.21 116.45,-106.74 113.34,-115.22"/>
<polygon fill="#63b8ff" stroke="#63b8ff" points="110.15,-113.79 109.41,-124.36 116.58,-116.56 110.15,-113.79"/>
<g id="a_edge9&#45;headlabel"><a xlink:href="dir_000004_000003.html" target="_top" xlink:title="2">
<text text-anchor="middle" x="108.36" y="-108.25" font-family="Helvetica,sans-Serif" font-size="10.00" fill="#63b8ff">2</text>
</a>
</g>
</g>
<!-- dir_78f22f1b6e75c59f4835dcc371001c36 -->
<g id="node7" class="node">
<title>dir_78f22f1b6e75c59f4835dcc371001c36</title>
<g id="a_node7"><a xlink:href="dir_78f22f1b6e75c59f4835dcc371001c36.html" target="_top" xlink:title="dl_poly">
<polygon fill="#a2b4d6" stroke="#404040" points="202.5,-90 155.5,-90 155.5,-71 202.5,-71 202.5,-90"/>
<text text-anchor="middle" x="179" y="-78" font-family="Helvetica,sans-Serif" font-size="10.00">dl_poly</text>
</a>
</g>
</g>
<!-- dir_78f22f1b6e75c59f4835dcc371001c36&#45;&gt;dir_503391f8f88e69ff0b6bb2ea195a5f61 -->
<g id="edge12" class="edge">
<title>dir_78f22f1b6e75c59f4835dcc371001c36&#45;&gt;dir_503391f8f88e69ff0b6bb2ea195a5f61</title>
<path fill="none" stroke="#63b8ff" d="M162.54,-70.62C157.6,-68.06 152.12,-65.33 147,-63 127.96,-54.34 106.22,-45.66 88.66,-38.94"/>
<polygon fill="#63b8ff" stroke="#63b8ff" points="90.33,-35.83 79.74,-35.56 87.86,-42.38 90.33,-35.83"/>
<g id="a_edge12&#45;headlabel"><a xlink:href="dir_000006_000017.html" target="_top" xlink:title="3">
<text text-anchor="middle" x="93.29" y="-31.41" font-family="Helvetica,sans-Serif" font-size="10.00" fill="#63b8ff">3</text>
</a>
</g>
</g>
<!-- dir_78f22f1b6e75c59f4835dcc371001c36&#45;&gt;dir_896854cd3247b6cb36f98a37c2863463 -->
<g id="edge13" class="edge">
<title>dir_78f22f1b6e75c59f4835dcc371001c36&#45;&gt;dir_896854cd3247b6cb36f98a37c2863463</title>
<path fill="none" stroke="#63b8ff" d="M168.82,-70.51C160.24,-62.93 147.73,-51.88 137.4,-42.75"/>
<polygon fill="#63b8ff" stroke="#63b8ff" points="139.97,-40.36 130.16,-36.36 135.34,-45.6 139.97,-40.36"/>
<g id="a_edge13&#45;headlabel"><a xlink:href="dir_000006_000016.html" target="_top" xlink:title="14">
<text text-anchor="middle" x="143.41" y="-37.11" font-family="Helvetica,sans-Serif" font-size="10.00" fill="#63b8ff">14</text>
</a>
</g>
</g>
<!-- dir_78f22f1b6e75c59f4835dcc371001c36&#45;&gt;dir_9268fa4967c416e4e882c5e3d890d467 -->
<g id="edge14" class="edge">
<title>dir_78f22f1b6e75c59f4835dcc371001c36&#45;&gt;dir_9268fa4967c416e4e882c5e3d890d467</title>
<path fill="none" stroke="#63b8ff" d="M187.75,-70.75C195.15,-63.35 205.96,-52.54 215.05,-43.45"/>
<polygon fill="#63b8ff" stroke="#63b8ff" points="217.39,-46.06 221.99,-36.51 212.44,-41.11 217.39,-46.06"/>
<g id="a_edge14&#45;headlabel"><a xlink:href="dir_000006_000012.html" target="_top" xlink:title="11">
<text text-anchor="middle" x="217.93" y="-47.04" font-family="Helvetica,sans-Serif" font-size="10.00" fill="#63b8ff">11</text>
</a>
</g>
</g>
<!-- dir_fb6be94885e3562fa6308c6a8fdfd782 -->
<g id="node8" class="node">
<title>dir_fb6be94885e3562fa6308c6a8fdfd782</title>
<g id="a_node8"><a xlink:href="dir_fb6be94885e3562fa6308c6a8fdfd782.html" target="_top" xlink:title="force_fields">
<polygon fill="#a2b4d6" stroke="#404040" points="205.5,-145 138.5,-145 138.5,-126 205.5,-126 205.5,-145"/>
<text text-anchor="middle" x="172" y="-133" font-family="Helvetica,sans-Serif" font-size="10.00">force_fields</text>
</a>
</g>
</g>
<!-- dir_fb6be94885e3562fa6308c6a8fdfd782&#45;&gt;dir_9268fa4967c416e4e882c5e3d890d467 -->
<g id="edge16" class="edge">
<title>dir_fb6be94885e3562fa6308c6a8fdfd782&#45;&gt;dir_9268fa4967c416e4e882c5e3d890d467</title>
<path fill="none" stroke="#63b8ff" d="M200.78,-125.52C217.48,-118.66 237.11,-107.37 247,-90 254.88,-76.16 249.58,-58.36 243.2,-45.13"/>
<polygon fill="#63b8ff" stroke="#63b8ff" points="246.42,-43.73 238.57,-36.61 240.27,-47.07 246.42,-43.73"/>
<g id="a_edge16&#45;headlabel"><a xlink:href="dir_000010_000012.html" target="_top" xlink:title="1">
<text text-anchor="middle" x="249.91" y="-41.7" font-family="Helvetica,sans-Serif" font-size="10.00" fill="#63b8ff">1</text>
</a>
</g>
</g>
<!-- dir_fb6be94885e3562fa6308c6a8fdfd782&#45;&gt;dir_78f22f1b6e75c59f4835dcc371001c36 -->
<g id="edge15" class="edge">
<title>dir_fb6be94885e3562fa6308c6a8fdfd782&#45;&gt;dir_78f22f1b6e75c59f4835dcc371001c36</title>
<path fill="none" stroke="#63b8ff" d="M173.16,-125.75C174.02,-119.19 175.24,-109.95 176.34,-101.6"/>
<polygon fill="#63b8ff" stroke="#63b8ff" points="179.78,-102.31 177.62,-91.94 172.84,-101.4 179.78,-102.31"/>
<g id="a_edge15&#45;headlabel"><a xlink:href="dir_000010_000006.html" target="_top" xlink:title="1">
<text text-anchor="middle" x="182.32" y="-102.25" font-family="Helvetica,sans-Serif" font-size="10.00" fill="#63b8ff">1</text>
</a>
</g>
</g>
<!-- dir_a56d725a0fe9284a83a1e9510135d61a -->
<g id="node9" class="node">
<title>dir_a56d725a0fe9284a83a1e9510135d61a</title>
<g id="a_node9"><a xlink:href="dir_a56d725a0fe9284a83a1e9510135d61a.html" target="_top" xlink:title="lammps">
<polygon fill="#a2b4d6" stroke="#404040" points="274.5,-145 223.5,-145 223.5,-126 274.5,-126 274.5,-145"/>
<text text-anchor="middle" x="249" y="-133" font-family="Helvetica,sans-Serif" font-size="10.00">lammps</text>
</a>
</g>
</g>
<!-- dir_a56d725a0fe9284a83a1e9510135d61a&#45;&gt;dir_9268fa4967c416e4e882c5e3d890d467 -->
<g id="edge18" class="edge">
<title>dir_a56d725a0fe9284a83a1e9510135d61a&#45;&gt;dir_9268fa4967c416e4e882c5e3d890d467</title>
<path fill="none" stroke="#63b8ff" d="M254.56,-125.9C262.64,-112.23 275.78,-84.85 267,-63 263.96,-55.45 258.54,-48.58 252.85,-42.89"/>
<polygon fill="#63b8ff" stroke="#63b8ff" points="255.48,-40.54 245.7,-36.46 250.8,-45.75 255.48,-40.54"/>
<g id="a_edge18&#45;headlabel"><a xlink:href="dir_000014_000012.html" target="_top" xlink:title="1">
<text text-anchor="middle" x="258.92" y="-37.32" font-family="Helvetica,sans-Serif" font-size="10.00" fill="#63b8ff">1</text>
</a>
</g>
</g>
<!-- dir_a56d725a0fe9284a83a1e9510135d61a&#45;&gt;dir_78f22f1b6e75c59f4835dcc371001c36 -->
<g id="edge17" class="edge">
<title>dir_a56d725a0fe9284a83a1e9510135d61a&#45;&gt;dir_78f22f1b6e75c59f4835dcc371001c36</title>
<path fill="none" stroke="#63b8ff" d="M237.13,-125.51C226.91,-117.77 211.93,-106.43 199.74,-97.2"/>
<polygon fill="#63b8ff" stroke="#63b8ff" points="201.99,-94.52 191.91,-91.27 197.77,-100.1 201.99,-94.52"/>
<g id="a_edge17&#45;headlabel"><a xlink:href="dir_000014_000006.html" target="_top" xlink:title="1">
<text text-anchor="middle" x="205.36" y="-91.01" font-family="Helvetica,sans-Serif" font-size="10.00" fill="#63b8ff">1</text>
</a>
</g>
</g>
</g>
</svg>
