<?xml version="1.0" encoding="UTF-8" standalone="no"?>
<!DOCTYPE svg PUBLIC "-//W3C//DTD SVG 1.1//EN"
 "http://www.w3.org/Graphics/SVG/1.1/DTD/svg11.dtd">
<!-- Generated by graphviz version 7.1.0 (0)
 -->
<!-- Title: dlp_field.h Pages: 1 -->
<svg width="1946pt" height="82pt"
 viewBox="0.00 0.00 1945.50 82.00" xmlns="http://www.w3.org/2000/svg" xmlns:xlink="http://www.w3.org/1999/xlink">
<g id="graph0" class="graph" transform="scale(1 1) rotate(0) translate(4 78)">
<title>dlp_field.h</title>
<!-- Node1 -->
<g id="node1" class="node">
<title>Node1</title>
<g id="a_node1"><a xlink:title=" ">
<polygon fill="#999999" stroke="#666666" points="997.5,-74 936.5,-74 936.5,-55 997.5,-55 997.5,-74"/>
<text text-anchor="middle" x="967" y="-62" font-family="Helvetica,sans-Serif" font-size="10.00">dlp_field.h</text>
</a>
</g>
</g>
<!-- Node2 -->
<g id="node2" class="node">
<title>Node2</title>
<g id="a_node2"><a xlink:href="bdcall_8c.html" target="_top" xlink:title=" ">
<polygon fill="white" stroke="#666666" points="50,-19 0,-19 0,0 50,0 50,-19"/>
<text text-anchor="middle" x="25" y="-7" font-family="Helvetica,sans-Serif" font-size="10.00">bdcall.c</text>
</a>
</g>
</g>
<!-- Node1&#45;&gt;Node2 -->
<g id="edge1" class="edge">
<title>Node1&#45;&gt;Node2</title>
<path fill="none" stroke="#63b8ff" d="M924.84,-62.53C769.51,-58.79 229.42,-44.23 59,-19 56.11,-18.57 53.11,-18.01 50.14,-17.37"/>
<polygon fill="#63b8ff" stroke="#63b8ff" points="924.59,-66.03 934.67,-62.77 924.75,-59.03 924.59,-66.03"/>
</g>
<!-- Node3 -->
<g id="node3" class="node">
<title>Node3</title>
<g id="a_node3"><a xlink:href="d__atoms_8c.html" target="_top" xlink:title=" ">
<polygon fill="white" stroke="#666666" points="130,-19 68,-19 68,0 130,0 130,-19"/>
<text text-anchor="middle" x="99" y="-7" font-family="Helvetica,sans-Serif" font-size="10.00">d_atoms.c</text>
</a>
</g>
</g>
<!-- Node1&#45;&gt;Node3 -->
<g id="edge2" class="edge">
<title>Node1&#45;&gt;Node3</title>
<path fill="none" stroke="#63b8ff" d="M924.6,-63.54C802.22,-63.17 438.02,-58.56 139,-19 136.18,-18.63 133.27,-18.16 130.36,-17.65"/>
<polygon fill="#63b8ff" stroke="#63b8ff" points="924.49,-67.04 934.5,-63.57 924.51,-60.04 924.49,-67.04"/>
</g>
<!-- Node4 -->
<g id="node4" class="node">
<title>Node4</title>
<g id="a_node4"><a xlink:href="d__bonds_8c.html" target="_top" xlink:title=" ">
<polygon fill="white" stroke="#666666" points="210,-19 148,-19 148,0 210,0 210,-19"/>
<text text-anchor="middle" x="179" y="-7" font-family="Helvetica,sans-Serif" font-size="10.00">d_bonds.c</text>
</a>
</g>
</g>
<!-- Node1&#45;&gt;Node4 -->
<g id="edge3" class="edge">
<title>Node1&#45;&gt;Node4</title>
<path fill="none" stroke="#63b8ff" d="M924.89,-63.2C810.75,-61.92 486.08,-55.11 219,-19 216.19,-18.62 213.27,-18.15 210.37,-17.63"/>
<polygon fill="#63b8ff" stroke="#63b8ff" points="924.65,-66.7 934.69,-63.3 924.73,-59.7 924.65,-66.7"/>
</g>
<!-- Node5 -->
<g id="node5" class="node">
<title>Node5</title>
<g id="a_node5"><a xlink:href="d__label_8c.html" target="_top" xlink:title=" ">
<polygon fill="white" stroke="#666666" points="284,-19 228,-19 228,0 284,0 284,-19"/>
<text text-anchor="middle" x="256" y="-7" font-family="Helvetica,sans-Serif" font-size="10.00">d_label.c</text>
</a>
</g>
</g>
<!-- Node1&#45;&gt;Node5 -->
<g id="edge4" class="edge">
<title>Node1&#45;&gt;Node5</title>
<path fill="none" stroke="#63b8ff" d="M924.75,-63.05C818.2,-61.41 530.12,-53.84 293,-19 290.13,-18.58 287.15,-18.05 284.19,-17.47"/>
<polygon fill="#63b8ff" stroke="#63b8ff" points="924.69,-66.55 934.74,-63.19 924.79,-59.55 924.69,-66.55"/>
</g>
<!-- Node6 -->
<g id="node6" class="node">
<title>Node6</title>
<g id="a_node6"><a xlink:href="d__poly_8c.html" target="_top" xlink:title=" ">
<polygon fill="white" stroke="#666666" points="355.5,-19 302.5,-19 302.5,0 355.5,0 355.5,-19"/>
<text text-anchor="middle" x="329" y="-7" font-family="Helvetica,sans-Serif" font-size="10.00">d_poly.c</text>
</a>
</g>
</g>
<!-- Node1&#45;&gt;Node6 -->
<g id="edge5" class="edge">
<title>Node1&#45;&gt;Node6</title>
<path fill="none" stroke="#63b8ff" d="M924.87,-62.67C826.37,-60.24 573.52,-51.12 365,-19 361.95,-18.53 358.78,-17.94 355.64,-17.29"/>
<polygon fill="#63b8ff" stroke="#63b8ff" points="924.51,-66.16 934.59,-62.9 924.68,-59.17 924.51,-66.16"/>
</g>
<!-- Node7 -->
<g id="node7" class="node">
<title>Node7</title>
<g id="a_node7"><a xlink:href="d__selection_8c.html" target="_top" xlink:title=" ">
<polygon fill="white" stroke="#666666" points="448,-19 374,-19 374,0 448,0 448,-19"/>
<text text-anchor="middle" x="411" y="-7" font-family="Helvetica,sans-Serif" font-size="10.00">d_selection.c</text>
</a>
</g>
</g>
<!-- Node1&#45;&gt;Node7 -->
<g id="edge6" class="edge">
<title>Node1&#45;&gt;Node7</title>
<path fill="none" stroke="#63b8ff" d="M924.84,-61.19C837.35,-56.1 629.82,-42.45 457,-19 454.18,-18.62 451.28,-18.18 448.36,-17.71"/>
<polygon fill="#63b8ff" stroke="#63b8ff" points="924.43,-64.67 934.62,-61.75 924.84,-57.68 924.43,-64.67"/>
</g>
<!-- Node8 -->
<g id="node8" class="node">
<title>Node8</title>
<g id="a_node8"><a xlink:href="dlp__active_8c.html" target="_top" xlink:title=" ">
<polygon fill="white" stroke="#666666" points="535.5,-19 466.5,-19 466.5,0 535.5,0 535.5,-19"/>
<text text-anchor="middle" x="501" y="-7" font-family="Helvetica,sans-Serif" font-size="10.00">dlp_active.c</text>
</a>
</g>
</g>
<!-- Node1&#45;&gt;Node8 -->
<g id="edge7" class="edge">
<title>Node1&#45;&gt;Node8</title>
<path fill="none" stroke="#63b8ff" d="M924.62,-60.32C848.26,-54.3 682.61,-39.95 544,-19 541.29,-18.59 538.49,-18.13 535.69,-17.64"/>
<polygon fill="#63b8ff" stroke="#63b8ff" points="924.34,-63.81 934.59,-61.09 924.89,-56.83 924.34,-63.81"/>
</g>
<!-- Node9 -->
<g id="node9" class="node">
<title>Node9</title>
<g id="a_node9"><a xlink:href="dlp__atom_8c.html" target="_top" xlink:title=" ">
<polygon fill="white" stroke="#666666" points="618.5,-19 553.5,-19 553.5,0 618.5,0 618.5,-19"/>
<text text-anchor="middle" x="586" y="-7" font-family="Helvetica,sans-Serif" font-size="10.00">dlp_atom.c</text>
</a>
</g>
</g>
<!-- Node1&#45;&gt;Node9 -->
<g id="edge8" class="edge">
<title>Node1&#45;&gt;Node9</title>
<path fill="none" stroke="#63b8ff" d="M925.15,-59.04C860.84,-51.95 733.93,-37.06 627,-19 624.28,-18.54 621.46,-18.03 618.63,-17.49"/>
<polygon fill="#63b8ff" stroke="#63b8ff" points="924.58,-62.49 934.9,-60.1 925.34,-55.54 924.58,-62.49"/>
</g>
<!-- Node10 -->
<g id="node10" class="node">
<title>Node10</title>
<g id="a_node10"><a xlink:href="dlp__comp_8c.html" target="_top" xlink:title=" ">
<polygon fill="white" stroke="#666666" points="703.5,-19 636.5,-19 636.5,0 703.5,0 703.5,-19"/>
<text text-anchor="middle" x="670" y="-7" font-family="Helvetica,sans-Serif" font-size="10.00">dlp_comp.c</text>
</a>
</g>
</g>
<!-- Node1&#45;&gt;Node10 -->
<g id="edge9" class="edge">
<title>Node1&#45;&gt;Node10</title>
<path fill="none" stroke="#63b8ff" d="M924.98,-56.43C874.57,-47.87 787.52,-32.89 713,-19 710.01,-18.44 706.9,-17.85 703.79,-17.25"/>
<polygon fill="#63b8ff" stroke="#63b8ff" points="924.14,-59.83 934.58,-58.05 925.31,-52.93 924.14,-59.83"/>
</g>
<!-- Node11 -->
<g id="node11" class="node">
<title>Node11</title>
<g id="a_node11"><a xlink:href="dlp__control_8c.html" target="_top" xlink:title=" ">
<polygon fill="white" stroke="#666666" points="794,-19 722,-19 722,0 794,0 794,-19"/>
<text text-anchor="middle" x="758" y="-7" font-family="Helvetica,sans-Serif" font-size="10.00">dlp_control.c</text>
</a>
</g>
</g>
<!-- Node1&#45;&gt;Node11 -->
<g id="edge10" class="edge">
<title>Node1&#45;&gt;Node11</title>
<path fill="none" stroke="#63b8ff" d="M925.27,-52.92C886.56,-43.1 829.61,-28.66 793.16,-19.42"/>
<polygon fill="#63b8ff" stroke="#63b8ff" points="924.14,-56.24 934.69,-55.31 925.86,-49.46 924.14,-56.24"/>
</g>
<!-- Node12 -->
<g id="node12" class="node">
<title>Node12</title>
<g id="a_node12"><a xlink:href="dlp__copy_8c.html" target="_top" xlink:title=" ">
<polygon fill="white" stroke="#666666" points="875.5,-19 812.5,-19 812.5,0 875.5,0 875.5,-19"/>
<text text-anchor="middle" x="844" y="-7" font-family="Helvetica,sans-Serif" font-size="10.00">dlp_copy.c</text>
</a>
</g>
</g>
<!-- Node1&#45;&gt;Node12 -->
<g id="edge11" class="edge">
<title>Node1&#45;&gt;Node12</title>
<path fill="none" stroke="#63b8ff" d="M935.81,-50.06C913.47,-40.43 884.01,-27.74 864.56,-19.36"/>
<polygon fill="#63b8ff" stroke="#63b8ff" points="934.18,-53.17 944.74,-53.91 936.95,-46.74 934.18,-53.17"/>
</g>
<!-- Node13 -->
<g id="node13" class="node">
<title>Node13</title>
<g id="a_node13"><a xlink:href="dlp__edit_8c.html" target="_top" xlink:title=" ">
<polygon fill="white" stroke="#666666" points="952.5,-19 893.5,-19 893.5,0 952.5,0 952.5,-19"/>
<text text-anchor="middle" x="923" y="-7" font-family="Helvetica,sans-Serif" font-size="10.00">dlp_edit.c</text>
</a>
</g>
</g>
<!-- Node1&#45;&gt;Node13 -->
<g id="edge12" class="edge">
<title>Node1&#45;&gt;Node13</title>
<path fill="none" stroke="#63b8ff" d="M952.42,-45.93C945.05,-37.06 936.42,-26.67 930.42,-19.44"/>
<polygon fill="#63b8ff" stroke="#63b8ff" points="949.69,-48.13 958.77,-53.58 955.07,-43.65 949.69,-48.13"/>
</g>
<!-- Node14 -->
<g id="node14" class="node">
<title>Node14</title>
<g id="a_node14"><a xlink:href="dlp__ff__match_8c.html" target="_top" xlink:title=" ">
<polygon fill="white" stroke="#666666" points="1051,-19 971,-19 971,0 1051,0 1051,-19"/>
<text text-anchor="middle" x="1011" y="-7" font-family="Helvetica,sans-Serif" font-size="10.00">dlp_ff_match.c</text>
</a>
</g>
</g>
<!-- Node1&#45;&gt;Node14 -->
<g id="edge13" class="edge">
<title>Node1&#45;&gt;Node14</title>
<path fill="none" stroke="#63b8ff" d="M981.58,-45.93C988.95,-37.06 997.58,-26.67 1003.58,-19.44"/>
<polygon fill="#63b8ff" stroke="#63b8ff" points="978.93,-43.65 975.23,-53.58 984.31,-48.13 978.93,-43.65"/>
</g>
<!-- Node15 -->
<g id="node15" class="node">
<title>Node15</title>
<g id="a_node15"><a xlink:href="dlp__field_8c.html" target="_top" xlink:title=" ">
<polygon fill="white" stroke="#666666" points="1130.5,-19 1069.5,-19 1069.5,0 1130.5,0 1130.5,-19"/>
<text text-anchor="middle" x="1100" y="-7" font-family="Helvetica,sans-Serif" font-size="10.00">dlp_field.c</text>
</a>
</g>
</g>
<!-- Node1&#45;&gt;Node15 -->
<g id="edge14" class="edge">
<title>Node1&#45;&gt;Node15</title>
<path fill="none" stroke="#63b8ff" d="M1000.07,-50.32C1024.3,-40.67 1056.55,-27.82 1077.77,-19.36"/>
<polygon fill="#63b8ff" stroke="#63b8ff" points="998.96,-47 990.97,-53.95 1001.55,-53.5 998.96,-47"/>
</g>
<!-- Node16 -->
<g id="node16" class="node">
<title>Node16</title>
<g id="a_node16"><a xlink:href="dlp__init_8c.html" target="_top" xlink:title=" ">
<polygon fill="white" stroke="#666666" points="1205,-19 1149,-19 1149,0 1205,0 1205,-19"/>
<text text-anchor="middle" x="1177" y="-7" font-family="Helvetica,sans-Serif" font-size="10.00">dlp_init.c</text>
</a>
</g>
</g>
<!-- Node1&#45;&gt;Node16 -->
<g id="edge15" class="edge">
<title>Node1&#45;&gt;Node16</title>
<path fill="none" stroke="#63b8ff" d="M1009.08,-52.88C1050.52,-42.42 1112.66,-26.74 1148.58,-17.67"/>
<polygon fill="#63b8ff" stroke="#63b8ff" points="1008.29,-49.47 999.45,-55.31 1010.01,-56.26 1008.29,-49.47"/>
</g>
<!-- Node17 -->
<g id="node17" class="node">
<title>Node17</title>
<g id="a_node17"><a xlink:href="dlp__mol_8c.html" target="_top" xlink:title=" ">
<polygon fill="white" stroke="#666666" points="1282.5,-19 1223.5,-19 1223.5,0 1282.5,0 1282.5,-19"/>
<text text-anchor="middle" x="1253" y="-7" font-family="Helvetica,sans-Serif" font-size="10.00">dlp_mol.c</text>
</a>
</g>
</g>
<!-- Node1&#45;&gt;Node17 -->
<g id="edge16" class="edge">
<title>Node1&#45;&gt;Node17</title>
<path fill="none" stroke="#63b8ff" d="M1009.02,-56.41C1058.24,-47.99 1142.19,-33.29 1214,-19 1216.99,-18.4 1220.11,-17.76 1223.21,-17.11"/>
<polygon fill="#63b8ff" stroke="#63b8ff" points="1008.64,-52.92 999.37,-58.05 1009.81,-59.82 1008.64,-52.92"/>
</g>
<!-- Node18 -->
<g id="node18" class="node">
<title>Node18</title>
<g id="a_node18"><a xlink:href="dlp__print_8c.html" target="_top" xlink:title=" ">
<polygon fill="white" stroke="#666666" points="1363,-19 1301,-19 1301,0 1363,0 1363,-19"/>
<text text-anchor="middle" x="1332" y="-7" font-family="Helvetica,sans-Serif" font-size="10.00">dlp_print.c</text>
</a>
</g>
</g>
<!-- Node1&#45;&gt;Node18 -->
<g id="edge17" class="edge">
<title>Node1&#45;&gt;Node18</title>
<path fill="none" stroke="#63b8ff" d="M1008.84,-58.77C1070.87,-51.52 1190.8,-36.66 1292,-19 1294.8,-18.51 1297.7,-17.97 1300.6,-17.4"/>
<polygon fill="#63b8ff" stroke="#63b8ff" points="1008.62,-55.27 999.09,-59.9 1009.42,-62.22 1008.62,-55.27"/>
</g>
<!-- Node19 -->
<g id="node19" class="node">
<title>Node19</title>
<g id="a_node19"><a xlink:href="dlp__viz_8c.html" target="_top" xlink:title=" ">
<polygon fill="white" stroke="#666666" points="1437,-19 1381,-19 1381,0 1437,0 1437,-19"/>
<text text-anchor="middle" x="1409" y="-7" font-family="Helvetica,sans-Serif" font-size="10.00">dlp_viz.c</text>
</a>
</g>
</g>
<!-- Node1&#45;&gt;Node19 -->
<g id="edge18" class="edge">
<title>Node1&#45;&gt;Node19</title>
<path fill="none" stroke="#63b8ff" d="M1009.02,-60.5C1082.83,-54.88 1240.42,-41.26 1372,-19 1374.86,-18.52 1377.83,-17.95 1380.79,-17.34"/>
<polygon fill="#63b8ff" stroke="#63b8ff" points="1009.13,-56.99 999.42,-61.22 1009.65,-63.97 1009.13,-56.99"/>
</g>
<!-- Node20 -->
<g id="node20" class="node">
<title>Node20</title>
<g id="a_node20"><a xlink:href="force__fields_8c.html" target="_top" xlink:title=" ">
<polygon fill="white" stroke="#666666" points="1530.5,-19 1455.5,-19 1455.5,0 1530.5,0 1530.5,-19"/>
<text text-anchor="middle" x="1493" y="-7" font-family="Helvetica,sans-Serif" font-size="10.00">force_fields.c</text>
</a>
</g>
</g>
<!-- Node1&#45;&gt;Node20 -->
<g id="edge19" class="edge">
<title>Node1&#45;&gt;Node20</title>
<path fill="none" stroke="#63b8ff" d="M1009.22,-60.81C1092.85,-55.2 1285.33,-40.95 1446,-19 1448.96,-18.6 1452.01,-18.14 1455.08,-17.65"/>
<polygon fill="#63b8ff" stroke="#63b8ff" points="1009.18,-57.3 999.44,-61.46 1009.65,-64.29 1009.18,-57.3"/>
</g>
<!-- Node21 -->
<g id="node21" class="node">
<title>Node21</title>
<g id="a_node21"><a xlink:href="la__print_8c.html" target="_top" xlink:title=" ">
<polygon fill="white" stroke="#666666" points="1605,-19 1549,-19 1549,0 1605,0 1605,-19"/>
<text text-anchor="middle" x="1577" y="-7" font-family="Helvetica,sans-Serif" font-size="10.00">la_print.c</text>
</a>
</g>
</g>
<!-- Node1&#45;&gt;Node21 -->
<g id="edge20" class="edge">
<title>Node1&#45;&gt;Node21</title>
<path fill="none" stroke="#63b8ff" d="M1009.36,-62.36C1104.66,-59.32 1343.02,-49.1 1540,-19 1542.87,-18.56 1545.84,-18.02 1548.8,-17.43"/>
<polygon fill="#63b8ff" stroke="#63b8ff" points="1009.33,-58.86 999.44,-62.66 1009.55,-65.85 1009.33,-58.86"/>
</g>
<!-- Node22 -->
<g id="node22" class="node">
<title>Node22</title>
<g id="a_node22"><a xlink:href="ogl__draw_8c.html" target="_top" xlink:title=" ">
<polygon fill="white" stroke="#666666" points="1686.5,-19 1623.5,-19 1623.5,0 1686.5,0 1686.5,-19"/>
<text text-anchor="middle" x="1655" y="-7" font-family="Helvetica,sans-Serif" font-size="10.00">ogl_draw.c</text>
</a>
</g>
</g>
<!-- Node1&#45;&gt;Node22 -->
<g id="edge21" class="edge">
<title>Node1&#45;&gt;Node22</title>
<path fill="none" stroke="#63b8ff" d="M1009.28,-62.58C1112.86,-59.88 1387.34,-50.14 1614,-19 1617.02,-18.58 1620.16,-18.08 1623.29,-17.52"/>
<polygon fill="#63b8ff" stroke="#63b8ff" points="1009.22,-59.08 999.31,-62.83 1009.4,-66.07 1009.22,-59.08"/>
</g>
<!-- Node23 -->
<g id="node23" class="node">
<title>Node23</title>
<g id="a_node23"><a xlink:href="ogl__utils_8c.html" target="_top" xlink:title=" ">
<polygon fill="white" stroke="#666666" points="1765.5,-19 1704.5,-19 1704.5,0 1765.5,0 1765.5,-19"/>
<text text-anchor="middle" x="1735" y="-7" font-family="Helvetica,sans-Serif" font-size="10.00">ogl_utils.c</text>
</a>
</g>
</g>
<!-- Node1&#45;&gt;Node23 -->
<g id="edge22" class="edge">
<title>Node1&#45;&gt;Node23</title>
<path fill="none" stroke="#63b8ff" d="M1009.17,-63.19C1121.44,-61.86 1436.67,-54.96 1696,-19 1698.75,-18.62 1701.59,-18.15 1704.42,-17.63"/>
<polygon fill="#63b8ff" stroke="#63b8ff" points="1009.2,-59.68 999.24,-63.29 1009.28,-66.68 1009.2,-59.68"/>
</g>
<!-- Node24 -->
<g id="node24" class="node">
<title>Node24</title>
<g id="a_node24"><a xlink:href="read__field_8c.html" target="_top" xlink:title=" ">
<polygon fill="white" stroke="#666666" points="1850.5,-19 1783.5,-19 1783.5,0 1850.5,0 1850.5,-19"/>
<text text-anchor="middle" x="1817" y="-7" font-family="Helvetica,sans-Serif" font-size="10.00">read_field.c</text>
</a>
</g>
</g>
<!-- Node1&#45;&gt;Node24 -->
<g id="edge23" class="edge">
<title>Node1&#45;&gt;Node24</title>
<path fill="none" stroke="#63b8ff" d="M1009.19,-63.32C1129.38,-62.36 1483.7,-56.3 1775,-19 1777.66,-18.66 1780.4,-18.25 1783.14,-17.79"/>
<polygon fill="#63b8ff" stroke="#63b8ff" points="1009.46,-59.82 999.48,-63.39 1009.51,-66.82 1009.46,-59.82"/>
</g>
<!-- Node25 -->
<g id="node25" class="node">
<title>Node25</title>
<g id="a_node25"><a xlink:href="save__field_8c.html" target="_top" xlink:title=" ">
<polygon fill="white" stroke="#666666" points="1937.5,-19 1868.5,-19 1868.5,0 1937.5,0 1937.5,-19"/>
<text text-anchor="middle" x="1903" y="-7" font-family="Helvetica,sans-Serif" font-size="10.00">save_field.c</text>
</a>
</g>
</g>
<!-- Node1&#45;&gt;Node25 -->
<g id="edge24" class="edge">
<title>Node1&#45;&gt;Node25</title>
<path fill="none" stroke="#63b8ff" d="M1009.21,-63.57C1137.57,-63.31 1534.31,-59.09 1860,-19 1862.72,-18.67 1865.52,-18.26 1868.34,-17.8"/>
<polygon fill="#63b8ff" stroke="#63b8ff" points="1009.5,-60.07 999.5,-63.58 1009.5,-67.07 1009.5,-60.07"/>
</g>
</g>
</svg>
