<?xml version="1.0" encoding="UTF-8" standalone="no"?>
<!DOCTYPE svg PUBLIC "-//W3C//DTD SVG 1.1//EN"
 "http://www.w3.org/Graphics/SVG/1.1/DTD/svg11.dtd">
<!-- Generated by graphviz version 7.1.0 (0)
 -->
<!-- Title: glyph.c Pages: 1 -->
<svg width="1719pt" height="247pt"
 viewBox="0.00 0.00 1719.00 247.00" xmlns="http://www.w3.org/2000/svg" xmlns:xlink="http://www.w3.org/1999/xlink">
<g id="graph0" class="graph" transform="scale(1 1) rotate(0) translate(4 243)">
<title>glyph.c</title>
<!-- Node1 -->
<g id="node1" class="node">
<title>Node1</title>
<g id="a_node1"><a xlink:title=" ">
<polygon fill="#999999" stroke="#666666" points="252,-239 204,-239 204,-220 252,-220 252,-239"/>
<text text-anchor="middle" x="228" y="-227" font-family="Helvetica,sans-Serif" font-size="10.00">glyph.c</text>
</a>
</g>
</g>
<!-- Node2 -->
<g id="node2" class="node">
<title>Node2</title>
<g id="a_node2"><a xlink:title=" ">
<polygon fill="#e0e0e0" stroke="#999999" points="46,-184 0,-184 0,-165 46,-165 46,-184"/>
<text text-anchor="middle" x="23" y="-172" font-family="Helvetica,sans-Serif" font-size="10.00">cairo.h</text>
</a>
</g>
</g>
<!-- Node1&#45;&gt;Node2 -->
<g id="edge1" class="edge">
<title>Node1&#45;&gt;Node2</title>
<path fill="none" stroke="#63b8ff" d="M203.68,-222.21C167.32,-212.81 98.67,-195.06 57.25,-184.36"/>
<polygon fill="#63b8ff" stroke="#63b8ff" points="58.37,-181.03 47.81,-181.91 56.61,-187.81 58.37,-181.03"/>
</g>
<!-- Node3 -->
<g id="node3" class="node">
<title>Node3</title>
<g id="a_node3"><a xlink:title=" ">
<polygon fill="#e0e0e0" stroke="#999999" points="135.5,-19 88.5,-19 88.5,0 135.5,0 135.5,-19"/>
<text text-anchor="middle" x="112" y="-7" font-family="Helvetica,sans-Serif" font-size="10.00">math.h</text>
</a>
</g>
</g>
<!-- Node1&#45;&gt;Node3 -->
<g id="edge2" class="edge">
<title>Node1&#45;&gt;Node3</title>
<path fill="none" stroke="#63b8ff" d="M218.36,-219.56C195.35,-197.49 137.46,-137.61 115,-74 110.1,-60.11 109.49,-43.43 110.03,-30.66"/>
<polygon fill="#63b8ff" stroke="#63b8ff" points="113.51,-31.17 110.74,-20.94 106.52,-30.67 113.51,-31.17"/>
</g>
<!-- Node4 -->
<g id="node4" class="node">
<title>Node4</title>
<g id="a_node4"><a xlink:href="global_8h.html" target="_top" xlink:title=" ">
<polygon fill="white" stroke="#666666" points="730,-129 680,-129 680,-110 730,-110 730,-129"/>
<text text-anchor="middle" x="705" y="-117" font-family="Helvetica,sans-Serif" font-size="10.00">global.h</text>
</a>
</g>
</g>
<!-- Node1&#45;&gt;Node4 -->
<g id="edge3" class="edge">
<title>Node1&#45;&gt;Node4</title>
<path fill="none" stroke="#63b8ff" d="M252.31,-223C330.42,-205.31 575.28,-149.87 668.49,-128.77"/>
<polygon fill="#63b8ff" stroke="#63b8ff" points="669.13,-132.21 678.11,-126.59 667.59,-125.38 669.13,-132.21"/>
</g>
<!-- Node26 -->
<g id="node26" class="node">
<title>Node26</title>
<g id="a_node26"><a xlink:href="curve_8h.html" target="_top" xlink:title=" ">
<polygon fill="white" stroke="#666666" points="652.5,-184 603.5,-184 603.5,-165 652.5,-165 652.5,-184"/>
<text text-anchor="middle" x="628" y="-172" font-family="Helvetica,sans-Serif" font-size="10.00">curve.h</text>
</a>
</g>
</g>
<!-- Node1&#45;&gt;Node26 -->
<g id="edge28" class="edge">
<title>Node1&#45;&gt;Node26</title>
<path fill="none" stroke="#63b8ff" d="M252.42,-225.26C320.4,-216.26 512.09,-190.86 592.16,-180.25"/>
<polygon fill="#63b8ff" stroke="#63b8ff" points="592.18,-183.78 601.64,-178.99 591.26,-176.84 592.18,-183.78"/>
</g>
<!-- Node4&#45;&gt;Node3 -->
<g id="edge13" class="edge">
<title>Node4&#45;&gt;Node3</title>
<path fill="none" stroke="#63b8ff" d="M679.6,-118.2C574.13,-116.72 174.18,-108.83 131,-74 118.11,-63.61 113.71,-44.84 112.33,-30.4"/>
<polygon fill="#63b8ff" stroke="#63b8ff" points="115.83,-30.45 111.83,-20.64 108.84,-30.81 115.83,-30.45"/>
</g>
<!-- Node5 -->
<g id="node5" class="node">
<title>Node5</title>
<g id="a_node5"><a xlink:title=" ">
<polygon fill="#e0e0e0" stroke="#999999" points="260,-74 220,-74 220,-55 260,-55 260,-74"/>
<text text-anchor="middle" x="240" y="-62" font-family="Helvetica,sans-Serif" font-size="10.00">glib.h</text>
</a>
</g>
</g>
<!-- Node4&#45;&gt;Node5 -->
<g id="edge4" class="edge">
<title>Node4&#45;&gt;Node5</title>
<path fill="none" stroke="#63b8ff" d="M679.7,-117.54C613.83,-114.7 431.63,-104.67 271.48,-74.14"/>
<polygon fill="#63b8ff" stroke="#63b8ff" points="272.45,-70.77 261.97,-72.3 271.12,-77.64 272.45,-70.77"/>
</g>
<!-- Node6 -->
<g id="node6" class="node">
<title>Node6</title>
<g id="a_node6"><a xlink:title=" ">
<polygon fill="#e0e0e0" stroke="#999999" points="344,-74 278,-74 278,-55 344,-55 344,-74"/>
<text text-anchor="middle" x="311" y="-62" font-family="Helvetica,sans-Serif" font-size="10.00">glib/gi18n.h</text>
</a>
</g>
</g>
<!-- Node4&#45;&gt;Node6 -->
<g id="edge5" class="edge">
<title>Node4&#45;&gt;Node6</title>
<path fill="none" stroke="#63b8ff" d="M679.72,-115.95C623.4,-110.14 483.12,-94.9 355.55,-74.31"/>
<polygon fill="#63b8ff" stroke="#63b8ff" points="356.36,-70.9 345.92,-72.74 355.23,-77.81 356.36,-70.9"/>
</g>
<!-- Node7 -->
<g id="node7" class="node">
<title>Node7</title>
<g id="a_node7"><a xlink:title=" ">
<polygon fill="#e0e0e0" stroke="#999999" points="412,-74 362,-74 362,-55 412,-55 412,-74"/>
<text text-anchor="middle" x="387" y="-62" font-family="Helvetica,sans-Serif" font-size="10.00">locale.h</text>
</a>
</g>
</g>
<!-- Node4&#45;&gt;Node7 -->
<g id="edge6" class="edge">
<title>Node4&#45;&gt;Node7</title>
<path fill="none" stroke="#63b8ff" d="M679.79,-115.32C631.85,-109.11 524.05,-94.37 423.47,-74.34"/>
<polygon fill="#63b8ff" stroke="#63b8ff" points="424.17,-70.91 413.68,-72.36 422.79,-77.77 424.17,-70.91"/>
</g>
<!-- Node8 -->
<g id="node8" class="node">
<title>Node8</title>
<g id="a_node8"><a xlink:title=" ">
<polygon fill="#e0e0e0" stroke="#999999" points="481.5,-74 430.5,-74 430.5,-55 481.5,-55 481.5,-74"/>
<text text-anchor="middle" x="456" y="-62" font-family="Helvetica,sans-Serif" font-size="10.00">unistd.h</text>
</a>
</g>
</g>
<!-- Node4&#45;&gt;Node8 -->
<g id="edge7" class="edge">
<title>Node4&#45;&gt;Node8</title>
<path fill="none" stroke="#63b8ff" d="M679.77,-113.63C641.5,-106.16 566.2,-91.17 493.18,-74.66"/>
<polygon fill="#63b8ff" stroke="#63b8ff" points="493.97,-71.25 483.44,-72.44 492.41,-78.07 493.97,-71.25"/>
</g>
<!-- Node9 -->
<g id="node9" class="node">
<title>Node9</title>
<g id="a_node9"><a xlink:title=" ">
<polygon fill="#e0e0e0" stroke="#999999" points="548.5,-74 499.5,-74 499.5,-55 548.5,-55 548.5,-74"/>
<text text-anchor="middle" x="524" y="-62" font-family="Helvetica,sans-Serif" font-size="10.00">string.h</text>
</a>
</g>
</g>
<!-- Node4&#45;&gt;Node9 -->
<g id="edge8" class="edge">
<title>Node4&#45;&gt;Node9</title>
<path fill="none" stroke="#63b8ff" d="M679.83,-111.13C648.63,-101.99 595.24,-86.36 559.78,-75.98"/>
<polygon fill="#63b8ff" stroke="#63b8ff" points="560.99,-72.68 550.41,-73.23 559.02,-79.4 560.99,-72.68"/>
</g>
<!-- Node10 -->
<g id="node10" class="node">
<title>Node10</title>
<g id="a_node10"><a xlink:title=" ">
<polygon fill="#e0e0e0" stroke="#999999" points="400,-19 354,-19 354,0 400,0 400,-19"/>
<text text-anchor="middle" x="377" y="-7" font-family="Helvetica,sans-Serif" font-size="10.00">stdio.h</text>
</a>
</g>
</g>
<!-- Node4&#45;&gt;Node10 -->
<g id="edge9" class="edge">
<title>Node4&#45;&gt;Node10</title>
<path fill="none" stroke="#63b8ff" d="M681.85,-109.56C659.65,-100.87 625.3,-87.1 596,-74 578.4,-66.13 575.13,-61.57 557,-55 507.71,-37.13 448.28,-23.98 411.56,-16.79"/>
<polygon fill="#63b8ff" stroke="#63b8ff" points="412.45,-13.39 401.97,-14.95 411.13,-20.27 412.45,-13.39"/>
</g>
<!-- Node11 -->
<g id="node11" class="node">
<title>Node11</title>
<g id="a_node11"><a xlink:title=" ">
<polygon fill="#e0e0e0" stroke="#999999" points="653,-74 605,-74 605,-55 653,-55 653,-74"/>
<text text-anchor="middle" x="629" y="-62" font-family="Helvetica,sans-Serif" font-size="10.00">stdlib.h</text>
</a>
</g>
</g>
<!-- Node4&#45;&gt;Node11 -->
<g id="edge10" class="edge">
<title>Node4&#45;&gt;Node11</title>
<path fill="none" stroke="#63b8ff" d="M692.11,-109.51C680.9,-101.7 664.43,-90.21 651.12,-80.93"/>
<polygon fill="#63b8ff" stroke="#63b8ff" points="653.15,-78.07 642.94,-75.22 649.14,-83.81 653.15,-78.07"/>
</g>
<!-- Node12 -->
<g id="node12" class="node">
<title>Node12</title>
<g id="a_node12"><a xlink:title=" ">
<polygon fill="#e0e0e0" stroke="#999999" points="739,-74 671,-74 671,-55 739,-55 739,-74"/>
<text text-anchor="middle" x="705" y="-62" font-family="Helvetica,sans-Serif" font-size="10.00">sys/types.h</text>
</a>
</g>
</g>
<!-- Node4&#45;&gt;Node12 -->
<g id="edge11" class="edge">
<title>Node4&#45;&gt;Node12</title>
<path fill="none" stroke="#63b8ff" d="M705,-109.75C705,-103.27 705,-94.16 705,-85.9"/>
<polygon fill="#63b8ff" stroke="#63b8ff" points="708.5,-85.96 705,-75.96 701.5,-85.96 708.5,-85.96"/>
</g>
<!-- Node13 -->
<g id="node13" class="node">
<title>Node13</title>
<g id="a_node13"><a xlink:title=" ">
<polygon fill="#e0e0e0" stroke="#999999" points="817,-74 757,-74 757,-55 817,-55 817,-74"/>
<text text-anchor="middle" x="787" y="-62" font-family="Helvetica,sans-Serif" font-size="10.00">sys/stat.h</text>
</a>
</g>
</g>
<!-- Node4&#45;&gt;Node13 -->
<g id="edge12" class="edge">
<title>Node4&#45;&gt;Node13</title>
<path fill="none" stroke="#63b8ff" d="M718.91,-109.51C731.24,-101.54 749.47,-89.75 763.97,-80.38"/>
<polygon fill="#63b8ff" stroke="#63b8ff" points="765.53,-83.55 772.02,-75.18 761.73,-77.67 765.53,-83.55"/>
</g>
<!-- Node14 -->
<g id="node14" class="node">
<title>Node14</title>
<g id="a_node14"><a xlink:title=" ">
<polygon fill="#e0e0e0" stroke="#999999" points="890.5,-74 835.5,-74 835.5,-55 890.5,-55 890.5,-74"/>
<text text-anchor="middle" x="863" y="-62" font-family="Helvetica,sans-Serif" font-size="10.00">gtk/gtk.h</text>
</a>
</g>
</g>
<!-- Node4&#45;&gt;Node14 -->
<g id="edge14" class="edge">
<title>Node4&#45;&gt;Node14</title>
<path fill="none" stroke="#63b8ff" d="M730.39,-109.98C756.14,-101.34 796.3,-87.87 825.68,-78.02"/>
<polygon fill="#63b8ff" stroke="#63b8ff" points="826.56,-81.42 834.92,-74.92 824.33,-74.78 826.56,-81.42"/>
</g>
<!-- Node15 -->
<g id="node15" class="node">
<title>Node15</title>
<g id="a_node15"><a xlink:title=" ">
<polygon fill="#e0e0e0" stroke="#999999" points="967.5,-74 908.5,-74 908.5,-55 967.5,-55 967.5,-74"/>
<text text-anchor="middle" x="938" y="-62" font-family="Helvetica,sans-Serif" font-size="10.00">gdk/gdk.h</text>
</a>
</g>
</g>
<!-- Node4&#45;&gt;Node15 -->
<g id="edge15" class="edge">
<title>Node4&#45;&gt;Node15</title>
<path fill="none" stroke="#63b8ff" d="M730.38,-112.73C770.56,-103.59 849.2,-85.7 897.32,-74.75"/>
<polygon fill="#63b8ff" stroke="#63b8ff" points="897.82,-78.23 906.79,-72.6 896.27,-71.4 897.82,-78.23"/>
</g>
<!-- Node16 -->
<g id="node16" class="node">
<title>Node16</title>
<g id="a_node16"><a xlink:title=" ">
<polygon fill="#e0e0e0" stroke="#999999" points="1084.5,-74 985.5,-74 985.5,-55 1084.5,-55 1084.5,-74"/>
<text text-anchor="middle" x="1035" y="-62" font-family="Helvetica,sans-Serif" font-size="10.00">gdk/gdkkeysyms.h</text>
</a>
</g>
</g>
<!-- Node4&#45;&gt;Node16 -->
<g id="edge16" class="edge">
<title>Node4&#45;&gt;Node16</title>
<path fill="none" stroke="#63b8ff" d="M730.35,-114.43C781.99,-106.13 900.69,-87.07 973.74,-75.34"/>
<polygon fill="#63b8ff" stroke="#63b8ff" points="974.24,-78.8 983.56,-73.76 973.13,-71.89 974.24,-78.8"/>
</g>
<!-- Node17 -->
<g id="node17" class="node">
<title>Node17</title>
<g id="a_node17"><a xlink:title=" ">
<polygon fill="#e0e0e0" stroke="#999999" points="1221,-74 1103,-74 1103,-55 1221,-55 1221,-74"/>
<text text-anchor="middle" x="1162" y="-62" font-family="Helvetica,sans-Serif" font-size="10.00">gdk&#45;pixbuf/gdk&#45;pixbuf.h</text>
</a>
</g>
</g>
<!-- Node4&#45;&gt;Node17 -->
<g id="edge17" class="edge">
<title>Node4&#45;&gt;Node17</title>
<path fill="none" stroke="#63b8ff" d="M730.5,-115.68C791.09,-108.95 948.71,-91.33 1091.54,-74.28"/>
<polygon fill="#63b8ff" stroke="#63b8ff" points="1091.65,-77.8 1101.16,-73.13 1090.82,-70.85 1091.65,-77.8"/>
</g>
<!-- Node18 -->
<g id="node18" class="node">
<title>Node18</title>
<g id="a_node18"><a xlink:title=" ">
<polygon fill="#e0e0e0" stroke="#999999" points="1331,-74 1239,-74 1239,-55 1331,-55 1331,-74"/>
<text text-anchor="middle" x="1285" y="-62" font-family="Helvetica,sans-Serif" font-size="10.00">pango/pangoft2.h</text>
</a>
</g>
</g>
<!-- Node4&#45;&gt;Node18 -->
<g id="edge18" class="edge">
<title>Node4&#45;&gt;Node18</title>
<path fill="none" stroke="#63b8ff" d="M730.47,-116.96C805.11,-112.33 1030.03,-97.44 1227.36,-74.24"/>
<polygon fill="#63b8ff" stroke="#63b8ff" points="1227.5,-77.75 1237.02,-73.09 1226.67,-70.79 1227.5,-77.75"/>
</g>
<!-- Node19 -->
<g id="node19" class="node">
<title>Node19</title>
<g id="a_node19"><a xlink:title=" ">
<polygon fill="#e0e0e0" stroke="#999999" points="1411,-74 1349,-74 1349,-55 1411,-55 1411,-74"/>
<text text-anchor="middle" x="1380" y="-62" font-family="Helvetica,sans-Serif" font-size="10.00">epoxy/gl.h</text>
</a>
</g>
</g>
<!-- Node4&#45;&gt;Node19 -->
<g id="edge19" class="edge">
<title>Node4&#45;&gt;Node19</title>
<path fill="none" stroke="#63b8ff" d="M730.24,-117.99C814.78,-116.03 1095.75,-107.39 1337.51,-74.15"/>
<polygon fill="#63b8ff" stroke="#63b8ff" points="1337.71,-77.65 1347.13,-72.81 1336.74,-70.72 1337.71,-77.65"/>
</g>
<!-- Node20 -->
<g id="node20" class="node">
<title>Node20</title>
<g id="a_node20"><a xlink:title=" ">
<polygon fill="#e0e0e0" stroke="#999999" points="1482.5,-74 1429.5,-74 1429.5,-55 1482.5,-55 1482.5,-74"/>
<text text-anchor="middle" x="1456" y="-62" font-family="Helvetica,sans-Serif" font-size="10.00">GL/glu.h</text>
</a>
</g>
</g>
<!-- Node4&#45;&gt;Node20 -->
<g id="edge20" class="edge">
<title>Node4&#45;&gt;Node20</title>
<path fill="none" stroke="#63b8ff" d="M730.49,-118.47C822.13,-118.05 1143.46,-113.74 1417.97,-73.99"/>
<polygon fill="#63b8ff" stroke="#63b8ff" points="1418.48,-77.46 1427.86,-72.54 1417.46,-70.53 1418.48,-77.46"/>
</g>
<!-- Node21 -->
<g id="node21" class="node">
<title>Node21</title>
<g id="a_node21"><a xlink:title=" ">
<polygon fill="#e0e0e0" stroke="#999999" points="1567.5,-74 1500.5,-74 1500.5,-55 1567.5,-55 1567.5,-74"/>
<text text-anchor="middle" x="1534" y="-62" font-family="Helvetica,sans-Serif" font-size="10.00">epoxy/glx.h</text>
</a>
</g>
</g>
<!-- Node4&#45;&gt;Node21 -->
<g id="edge21" class="edge">
<title>Node4&#45;&gt;Node21</title>
<path fill="none" stroke="#63b8ff" d="M730.26,-118.38C827.27,-117.67 1185.19,-112.5 1488.91,-74.22"/>
<polygon fill="#63b8ff" stroke="#63b8ff" points="1489.17,-77.72 1498.64,-72.98 1488.28,-70.77 1489.17,-77.72"/>
</g>
<!-- Node22 -->
<g id="node22" class="node">
<title>Node22</title>
<g id="a_node22"><a xlink:href="math__3d_8h.html" target="_top" xlink:title=" ">
<polygon fill="white" stroke="#666666" points="202,-74 140,-74 140,-55 202,-55 202,-74"/>
<text text-anchor="middle" x="171" y="-62" font-family="Helvetica,sans-Serif" font-size="10.00">math_3d.h</text>
</a>
</g>
</g>
<!-- Node4&#45;&gt;Node22 -->
<g id="edge22" class="edge">
<title>Node4&#45;&gt;Node22</title>
<path fill="none" stroke="#63b8ff" d="M679.68,-117.29C608.1,-113.65 398.03,-101.39 213.64,-74.22"/>
<polygon fill="#63b8ff" stroke="#63b8ff" points="214.28,-70.78 203.88,-72.76 213.25,-77.7 214.28,-70.78"/>
</g>
<!-- Node23 -->
<g id="node23" class="node">
<title>Node23</title>
<g id="a_node23"><a xlink:href="glwin_8h.html" target="_top" xlink:title=" ">
<polygon fill="white" stroke="#666666" points="1632.5,-74 1585.5,-74 1585.5,-55 1632.5,-55 1632.5,-74"/>
<text text-anchor="middle" x="1609" y="-62" font-family="Helvetica,sans-Serif" font-size="10.00">glwin.h</text>
</a>
</g>
</g>
<!-- Node4&#45;&gt;Node23 -->
<g id="edge25" class="edge">
<title>Node4&#45;&gt;Node23</title>
<path fill="none" stroke="#63b8ff" d="M730.31,-117.92C852.8,-115.01 1385.46,-101.13 1573.89,-74.12"/>
<polygon fill="#63b8ff" stroke="#63b8ff" points="1574.14,-77.62 1583.51,-72.67 1573.1,-70.7 1574.14,-77.62"/>
</g>
<!-- Node25 -->
<g id="node25" class="node">
<title>Node25</title>
<g id="a_node25"><a xlink:title=" ">
<polygon fill="#e0e0e0" stroke="#999999" points="1711,-74 1651,-74 1651,-55 1711,-55 1711,-74"/>
<text text-anchor="middle" x="1681" y="-62" font-family="Helvetica,sans-Serif" font-size="10.00">gtk/gtkx.h</text>
</a>
</g>
</g>
<!-- Node4&#45;&gt;Node25 -->
<g id="edge27" class="edge">
<title>Node4&#45;&gt;Node25</title>
<path fill="none" stroke="#63b8ff" d="M730.48,-118.85C839.04,-119.99 1273.71,-121.31 1639.51,-74.08"/>
<polygon fill="#63b8ff" stroke="#63b8ff" points="1639.89,-77.56 1649.35,-72.79 1638.98,-70.61 1639.89,-77.56"/>
</g>
<!-- Node22&#45;&gt;Node3 -->
<g id="edge23" class="edge">
<title>Node22&#45;&gt;Node3</title>
<path fill="none" stroke="#63b8ff" d="M160.99,-54.51C152.63,-47 140.5,-36.1 130.4,-27.03"/>
<polygon fill="#63b8ff" stroke="#63b8ff" points="132.76,-24.45 122.99,-20.37 128.09,-29.66 132.76,-24.45"/>
</g>
<!-- Node22&#45;&gt;Node10 -->
<g id="edge24" class="edge">
<title>Node22&#45;&gt;Node10</title>
<path fill="none" stroke="#63b8ff" d="M202.29,-55.45C240.11,-45.72 303.54,-29.4 342.68,-19.33"/>
<polygon fill="#63b8ff" stroke="#63b8ff" points="343.47,-22.74 352.28,-16.86 341.73,-15.96 343.47,-22.74"/>
</g>
<!-- Node24 -->
<g id="node24" class="node">
<title>Node24</title>
<g id="a_node24"><a xlink:href="ogl__shading_8h.html" target="_top" xlink:title=" ">
<polygon fill="white" stroke="#666666" points="1647.5,-19 1570.5,-19 1570.5,0 1647.5,0 1647.5,-19"/>
<text text-anchor="middle" x="1609" y="-7" font-family="Helvetica,sans-Serif" font-size="10.00">ogl_shading.h</text>
</a>
</g>
</g>
<!-- Node23&#45;&gt;Node24 -->
<g id="edge26" class="edge">
<title>Node23&#45;&gt;Node24</title>
<path fill="none" stroke="#63b8ff" d="M1609,-54.75C1609,-48.27 1609,-39.16 1609,-30.9"/>
<polygon fill="#63b8ff" stroke="#63b8ff" points="1612.5,-30.96 1609,-20.96 1605.5,-30.96 1612.5,-30.96"/>
</g>
<!-- Node26&#45;&gt;Node4 -->
<g id="edge29" class="edge">
<title>Node26&#45;&gt;Node4</title>
<path fill="none" stroke="#63b8ff" d="M641.06,-164.51C652.52,-156.62 669.43,-144.98 682.98,-135.65"/>
<polygon fill="#63b8ff" stroke="#63b8ff" points="684.63,-138.77 690.88,-130.22 680.66,-133 684.63,-138.77"/>
</g>
</g>
</svg>
