<?xml version="1.0" encoding="UTF-8" standalone="no"?>
<!DOCTYPE svg PUBLIC "-//W3C//DTD SVG 1.1//EN"
 "http://www.w3.org/Graphics/SVG/1.1/DTD/svg11.dtd">
<!-- Generated by graphviz version 7.1.0 (0)
 -->
<!-- Title: labels.c Pages: 1 -->
<!--zoomable 247 -->
<svg id="main" version="1.1" xmlns="http://www.w3.org/2000/svg" xmlns:xlink="http://www.w3.org/1999/xlink" xml:space="preserve" onload="init(evt)">
<style type="text/css"><![CDATA[
.edge:hover path { stroke: red; }
.edge:hover polygon { stroke: red; fill: red; }
]]></style>
<script type="text/javascript"><![CDATA[
var edges = document.getElementsByTagName('g');
if (edges && edges.length) {
  for (var i=0;i<edges.length;i++) {
    if (edges[i].id.substr(0,4)=='edge') {
      edges[i].setAttribute('class','edge');
    }
  }
}
]]></script>
        <defs>
                <circle id="rim" cx="0" cy="0" r="7"/>
                <circle id="rim2" cx="0" cy="0" r="3.5"/>
                <g id="zoomPlus">
                        <use xlink:href="#rim" fill="#404040">
                                <set attributeName="fill" to="#808080" begin="zoomplus.mouseover" end="zoomplus.mouseout"/>
                        </use>
                        <path d="M-4,0h8M0,-4v8" fill="none" stroke="white" stroke-width="1.5" pointer-events="none"/>
                </g>
                <g id="zoomMin">
                        <use xlink:href="#rim" fill="#404040">
                                <set attributeName="fill" to="#808080" begin="zoomminus.mouseover" end="zoomminus.mouseout"/>
                        </use>
                        <path d="M-4,0h8" fill="none" stroke="white" stroke-width="1.5" pointer-events="none"/>
                </g>
                <g id="dirArrow">
                        <path fill="none" stroke="white" stroke-width="1.5" d="M0,-3.0v7 M-2.5,-0.5L0,-3.0L2.5,-0.5"/>
                </g>
               <g id="resetDef">
                       <use xlink:href="#rim2" fill="#404040">
                               <set attributeName="fill" to="#808080" begin="reset.mouseover" end="reset.mouseout"/>
                       </use>
               </g>
        </defs>

<script type="text/javascript">
var viewWidth = 1839;
var viewHeight = 247;
var sectionId = 'dynsection-0';
</script>
<script xlink:href="svgpan.js"/>
<svg id="graph" class="graph">
<g id="viewport">
<title>labels.c</title>
<!-- Node1 -->
<g id="node1" class="node">
<title>Node1</title>
<g id="a_node1"><a xlink:title=" ">
<polygon fill="#999999" stroke="#666666" points="1322.5,-239 1272.5,-239 1272.5,-220 1322.5,-220 1322.5,-239"/>
<text text-anchor="middle" x="1297.5" y="-227" font-family="Helvetica,sans-Serif" font-size="10.00">labels.c</text>
</a>
</g>
</g>
<!-- Node2 -->
<g id="node2" class="node">
<title>Node2</title>
<g id="a_node2"><a xlink:title=" ">
<polygon fill="#e0e0e0" stroke="#999999" points="49,-74 0,-74 0,-55 49,-55 49,-74"/>
<text text-anchor="middle" x="24.5" y="-62" font-family="Helvetica,sans-Serif" font-size="10.00">string.h</text>
</a>
</g>
</g>
<!-- Node1&#45;&gt;Node2 -->
<g id="edge1" class="edge">
<title>Node1&#45;&gt;Node2</title>
<path fill="none" stroke="#63b8ff" d="M1272.03,-226.48C1143.26,-216.01 551.27,-165.06 60.52,-74.16"/>
<polygon fill="#63b8ff" stroke="#63b8ff" points="61.27,-70.74 50.79,-72.35 59.98,-77.62 61.27,-70.74"/>
</g>
<!-- Node3 -->
<g id="node3" class="node">
<title>Node3</title>
<g id="a_node3"><a xlink:title=" ">
<polygon fill="#e0e0e0" stroke="#999999" points="1623,-19 1576,-19 1576,0 1623,0 1623,-19"/>
<text text-anchor="middle" x="1599.5" y="-7" font-family="Helvetica,sans-Serif" font-size="10.00">math.h</text>
</a>
</g>
</g>
<!-- Node1&#45;&gt;Node3 -->
<g id="edge2" class="edge">
<title>Node1&#45;&gt;Node3</title>
<path fill="none" stroke="#63b8ff" d="M1322.58,-224.6C1383.29,-213.66 1537.73,-176.46 1600.5,-74 1608.44,-61.04 1607.54,-43.63 1605.02,-30.32"/>
<polygon fill="#63b8ff" stroke="#63b8ff" points="1608.51,-29.89 1602.8,-20.96 1601.7,-31.5 1608.51,-29.89"/>
</g>
<!-- Node4 -->
<g id="node4" class="node">
<title>Node4</title>
<g id="a_node4"><a xlink:title=" ">
<polygon fill="#e0e0e0" stroke="#999999" points="1711.5,-184 1665.5,-184 1665.5,-165 1711.5,-165 1711.5,-184"/>
<text text-anchor="middle" x="1688.5" y="-172" font-family="Helvetica,sans-Serif" font-size="10.00">cairo.h</text>
</a>
</g>
</g>
<!-- Node1&#45;&gt;Node4 -->
<g id="edge3" class="edge">
<title>Node1&#45;&gt;Node4</title>
<path fill="none" stroke="#63b8ff" d="M1322.96,-226.19C1381.33,-220.7 1529.21,-205.68 1651.5,-184 1652.33,-183.85 1653.16,-183.7 1654.01,-183.54"/>
<polygon fill="#63b8ff" stroke="#63b8ff" points="1654.52,-187.01 1663.6,-181.56 1653.1,-180.15 1654.52,-187.01"/>
</g>
<!-- Node5 -->
<g id="node5" class="node">
<title>Node5</title>
<g id="a_node5"><a xlink:title=" ">
<polygon fill="#e0e0e0" stroke="#999999" points="1831,-184 1730,-184 1730,-165 1831,-165 1831,-184"/>
<text text-anchor="middle" x="1780.5" y="-172" font-family="Helvetica,sans-Serif" font-size="10.00">pango/pangocairo.h</text>
</a>
</g>
</g>
<!-- Node1&#45;&gt;Node5 -->
<g id="edge4" class="edge">
<title>Node1&#45;&gt;Node5</title>
<path fill="none" stroke="#63b8ff" d="M1322.81,-226.16C1386.97,-220.15 1561.46,-203.39 1718.5,-184.2"/>
<polygon fill="#63b8ff" stroke="#63b8ff" points="1718.78,-187.69 1728.28,-183 1717.92,-180.75 1718.78,-187.69"/>
</g>
<!-- Node6 -->
<g id="node6" class="node">
<title>Node6</title>
<g id="a_node6"><a xlink:href="global_8h.html" target="_top" xlink:title=" ">
<polygon fill="white" stroke="#666666" points="929.5,-129 879.5,-129 879.5,-110 929.5,-110 929.5,-129"/>
<text text-anchor="middle" x="904.5" y="-117" font-family="Helvetica,sans-Serif" font-size="10.00">global.h</text>
</a>
</g>
</g>
<!-- Node1&#45;&gt;Node6 -->
<g id="edge5" class="edge">
<title>Node1&#45;&gt;Node6</title>
<path fill="none" stroke="#63b8ff" d="M1272.26,-219.7C1234.67,-206.76 1161.64,-182.28 1098.5,-165 1044.01,-150.09 980.01,-136.07 940.85,-127.89"/>
<polygon fill="#63b8ff" stroke="#63b8ff" points="941.76,-124.51 931.26,-125.9 940.34,-131.36 941.76,-124.51"/>
</g>
<!-- Node27 -->
<g id="node27" class="node">
<title>Node27</title>
<g id="a_node27"><a xlink:href="curve_8h.html" target="_top" xlink:title=" ">
<polygon fill="white" stroke="#666666" points="1089,-184 1040,-184 1040,-165 1089,-165 1089,-184"/>
<text text-anchor="middle" x="1064.5" y="-172" font-family="Helvetica,sans-Serif" font-size="10.00">curve.h</text>
</a>
</g>
</g>
<!-- Node1&#45;&gt;Node27 -->
<g id="edge30" class="edge">
<title>Node1&#45;&gt;Node27</title>
<path fill="none" stroke="#63b8ff" d="M1272.12,-222.73C1230.61,-213.28 1148.05,-194.5 1100.5,-183.69"/>
<polygon fill="#63b8ff" stroke="#63b8ff" points="1101.5,-180.33 1090.97,-181.52 1099.95,-187.15 1101.5,-180.33"/>
</g>
<!-- Node6&#45;&gt;Node2 -->
<g id="edge10" class="edge">
<title>Node6&#45;&gt;Node2</title>
<path fill="none" stroke="#63b8ff" d="M879.14,-117.82C758.88,-114.52 244.57,-99.28 60.4,-73.89"/>
<polygon fill="#63b8ff" stroke="#63b8ff" points="61.17,-70.46 50.77,-72.49 60.17,-77.39 61.17,-70.46"/>
</g>
<!-- Node6&#45;&gt;Node3 -->
<g id="edge15" class="edge">
<title>Node6&#45;&gt;Node3</title>
<path fill="none" stroke="#63b8ff" d="M929.95,-118.51C1046.85,-118.35 1528.82,-115.19 1580.5,-74 1593.45,-63.68 1597.84,-44.91 1599.21,-30.44"/>
<polygon fill="#63b8ff" stroke="#63b8ff" points="1602.69,-30.83 1599.69,-20.67 1595.7,-30.48 1602.69,-30.83"/>
</g>
<!-- Node7 -->
<g id="node7" class="node">
<title>Node7</title>
<g id="a_node7"><a xlink:title=" ">
<polygon fill="#e0e0e0" stroke="#999999" points="107.5,-74 67.5,-74 67.5,-55 107.5,-55 107.5,-74"/>
<text text-anchor="middle" x="87.5" y="-62" font-family="Helvetica,sans-Serif" font-size="10.00">glib.h</text>
</a>
</g>
</g>
<!-- Node6&#45;&gt;Node7 -->
<g id="edge6" class="edge">
<title>Node6&#45;&gt;Node7</title>
<path fill="none" stroke="#63b8ff" d="M879.32,-117.85C764.64,-114.79 290.39,-100.84 119.27,-74"/>
<polygon fill="#63b8ff" stroke="#63b8ff" points="119.89,-70.55 109.45,-72.37 118.75,-77.46 119.89,-70.55"/>
</g>
<!-- Node8 -->
<g id="node8" class="node">
<title>Node8</title>
<g id="a_node8"><a xlink:title=" ">
<polygon fill="#e0e0e0" stroke="#999999" points="191.5,-74 125.5,-74 125.5,-55 191.5,-55 191.5,-74"/>
<text text-anchor="middle" x="158.5" y="-62" font-family="Helvetica,sans-Serif" font-size="10.00">glib/gi18n.h</text>
</a>
</g>
</g>
<!-- Node6&#45;&gt;Node8 -->
<g id="edge7" class="edge">
<title>Node6&#45;&gt;Node8</title>
<path fill="none" stroke="#63b8ff" d="M879.12,-118.15C788.61,-116.62 473.06,-109.07 203.1,-74.16"/>
<polygon fill="#63b8ff" stroke="#63b8ff" points="203.77,-70.71 193.4,-72.88 202.86,-77.65 203.77,-70.71"/>
</g>
<!-- Node9 -->
<g id="node9" class="node">
<title>Node9</title>
<g id="a_node9"><a xlink:title=" ">
<polygon fill="#e0e0e0" stroke="#999999" points="259.5,-74 209.5,-74 209.5,-55 259.5,-55 259.5,-74"/>
<text text-anchor="middle" x="234.5" y="-62" font-family="Helvetica,sans-Serif" font-size="10.00">locale.h</text>
</a>
</g>
</g>
<!-- Node6&#45;&gt;Node9 -->
<g id="edge8" class="edge">
<title>Node6&#45;&gt;Node9</title>
<path fill="none" stroke="#63b8ff" d="M879.17,-118.32C794.35,-117.37 512.52,-111.53 270.77,-74.06"/>
<polygon fill="#63b8ff" stroke="#63b8ff" points="271.57,-70.64 261.14,-72.54 270.48,-77.56 271.57,-70.64"/>
</g>
<!-- Node10 -->
<g id="node10" class="node">
<title>Node10</title>
<g id="a_node10"><a xlink:title=" ">
<polygon fill="#e0e0e0" stroke="#999999" points="329,-74 278,-74 278,-55 329,-55 329,-74"/>
<text text-anchor="middle" x="303.5" y="-62" font-family="Helvetica,sans-Serif" font-size="10.00">unistd.h</text>
</a>
</g>
</g>
<!-- Node6&#45;&gt;Node10 -->
<g id="edge9" class="edge">
<title>Node6&#45;&gt;Node10</title>
<path fill="none" stroke="#63b8ff" d="M879.23,-117.95C800.74,-115.94 554.2,-107.37 340.52,-74.04"/>
<polygon fill="#63b8ff" stroke="#63b8ff" points="341.32,-70.62 330.9,-72.52 340.22,-77.54 341.32,-70.62"/>
</g>
<!-- Node11 -->
<g id="node11" class="node">
<title>Node11</title>
<g id="a_node11"><a xlink:title=" ">
<polygon fill="#e0e0e0" stroke="#999999" points="1530.5,-19 1484.5,-19 1484.5,0 1530.5,0 1530.5,-19"/>
<text text-anchor="middle" x="1507.5" y="-7" font-family="Helvetica,sans-Serif" font-size="10.00">stdio.h</text>
</a>
</g>
</g>
<!-- Node6&#45;&gt;Node11 -->
<g id="edge11" class="edge">
<title>Node6&#45;&gt;Node11</title>
<path fill="none" stroke="#63b8ff" d="M929.97,-117.73C1033.02,-114.45 1415.77,-100.57 1462.5,-74 1479.91,-64.1 1492.25,-44.38 1499.55,-29.53"/>
<polygon fill="#63b8ff" stroke="#63b8ff" points="1502.59,-31.29 1503.52,-20.74 1496.21,-28.41 1502.59,-31.29"/>
</g>
<!-- Node12 -->
<g id="node12" class="node">
<title>Node12</title>
<g id="a_node12"><a xlink:title=" ">
<polygon fill="#e0e0e0" stroke="#999999" points="395.5,-74 347.5,-74 347.5,-55 395.5,-55 395.5,-74"/>
<text text-anchor="middle" x="371.5" y="-62" font-family="Helvetica,sans-Serif" font-size="10.00">stdlib.h</text>
</a>
</g>
</g>
<!-- Node6&#45;&gt;Node12 -->
<g id="edge12" class="edge">
<title>Node6&#45;&gt;Node12</title>
<path fill="none" stroke="#63b8ff" d="M879.08,-117.7C806.69,-115.13 593.21,-105.39 407.01,-74.15"/>
<polygon fill="#63b8ff" stroke="#63b8ff" points="407.85,-70.75 397.4,-72.52 406.67,-77.65 407.85,-70.75"/>
</g>
<!-- Node13 -->
<g id="node13" class="node">
<title>Node13</title>
<g id="a_node13"><a xlink:title=" ">
<polygon fill="#e0e0e0" stroke="#999999" points="481.5,-74 413.5,-74 413.5,-55 481.5,-55 481.5,-74"/>
<text text-anchor="middle" x="447.5" y="-62" font-family="Helvetica,sans-Serif" font-size="10.00">sys/types.h</text>
</a>
</g>
</g>
<!-- Node6&#45;&gt;Node13 -->
<g id="edge13" class="edge">
<title>Node6&#45;&gt;Node13</title>
<path fill="none" stroke="#63b8ff" d="M879.2,-116.56C815.87,-111.54 645.25,-97.01 492.67,-74.2"/>
<polygon fill="#63b8ff" stroke="#63b8ff" points="493.63,-70.81 483.22,-72.77 492.58,-77.73 493.63,-70.81"/>
</g>
<!-- Node14 -->
<g id="node14" class="node">
<title>Node14</title>
<g id="a_node14"><a xlink:title=" ">
<polygon fill="#e0e0e0" stroke="#999999" points="559.5,-74 499.5,-74 499.5,-55 559.5,-55 559.5,-74"/>
<text text-anchor="middle" x="529.5" y="-62" font-family="Helvetica,sans-Serif" font-size="10.00">sys/stat.h</text>
</a>
</g>
</g>
<!-- Node6&#45;&gt;Node14 -->
<g id="edge14" class="edge">
<title>Node6&#45;&gt;Node14</title>
<path fill="none" stroke="#63b8ff" d="M879.1,-115.86C824.6,-110.05 692.19,-95.11 571,-74.3"/>
<polygon fill="#63b8ff" stroke="#63b8ff" points="571.63,-70.86 561.18,-72.6 570.43,-77.76 571.63,-70.86"/>
</g>
<!-- Node15 -->
<g id="node15" class="node">
<title>Node15</title>
<g id="a_node15"><a xlink:title=" ">
<polygon fill="#e0e0e0" stroke="#999999" points="633,-74 578,-74 578,-55 633,-55 633,-74"/>
<text text-anchor="middle" x="605.5" y="-62" font-family="Helvetica,sans-Serif" font-size="10.00">gtk/gtk.h</text>
</a>
</g>
</g>
<!-- Node6&#45;&gt;Node15 -->
<g id="edge16" class="edge">
<title>Node6&#45;&gt;Node15</title>
<path fill="none" stroke="#63b8ff" d="M879.01,-114.74C833.76,-107.96 736.21,-92.8 644.52,-74.51"/>
<polygon fill="#63b8ff" stroke="#63b8ff" points="645.35,-71.11 634.85,-72.57 643.97,-77.97 645.35,-71.11"/>
</g>
<!-- Node16 -->
<g id="node16" class="node">
<title>Node16</title>
<g id="a_node16"><a xlink:title=" ">
<polygon fill="#e0e0e0" stroke="#999999" points="710,-74 651,-74 651,-55 710,-55 710,-74"/>
<text text-anchor="middle" x="680.5" y="-62" font-family="Helvetica,sans-Serif" font-size="10.00">gdk/gdk.h</text>
</a>
</g>
</g>
<!-- Node6&#45;&gt;Node16 -->
<g id="edge17" class="edge">
<title>Node6&#45;&gt;Node16</title>
<path fill="none" stroke="#63b8ff" d="M879.24,-112.52C840.85,-103.44 767.41,-86.06 721.36,-75.17"/>
<polygon fill="#63b8ff" stroke="#63b8ff" points="722.29,-71.79 711.75,-72.89 720.68,-78.6 722.29,-71.79"/>
</g>
<!-- Node17 -->
<g id="node17" class="node">
<title>Node17</title>
<g id="a_node17"><a xlink:title=" ">
<polygon fill="#e0e0e0" stroke="#999999" points="827,-74 728,-74 728,-55 827,-55 827,-74"/>
<text text-anchor="middle" x="777.5" y="-62" font-family="Helvetica,sans-Serif" font-size="10.00">gdk/gdkkeysyms.h</text>
</a>
</g>
</g>
<!-- Node6&#45;&gt;Node17 -->
<g id="edge18" class="edge">
<title>Node6&#45;&gt;Node17</title>
<path fill="none" stroke="#63b8ff" d="M882.96,-109.51C862.76,-101.08 832.33,-88.38 809.34,-78.79"/>
<polygon fill="#63b8ff" stroke="#63b8ff" points="810.7,-75.56 800.12,-74.94 808,-82.02 810.7,-75.56"/>
</g>
<!-- Node18 -->
<g id="node18" class="node">
<title>Node18</title>
<g id="a_node18"><a xlink:title=" ">
<polygon fill="#e0e0e0" stroke="#999999" points="963.5,-74 845.5,-74 845.5,-55 963.5,-55 963.5,-74"/>
<text text-anchor="middle" x="904.5" y="-62" font-family="Helvetica,sans-Serif" font-size="10.00">gdk&#45;pixbuf/gdk&#45;pixbuf.h</text>
</a>
</g>
</g>
<!-- Node6&#45;&gt;Node18 -->
<g id="edge19" class="edge">
<title>Node6&#45;&gt;Node18</title>
<path fill="none" stroke="#63b8ff" d="M904.5,-109.75C904.5,-103.27 904.5,-94.16 904.5,-85.9"/>
<polygon fill="#63b8ff" stroke="#63b8ff" points="908,-85.96 904.5,-75.96 901,-85.96 908,-85.96"/>
</g>
<!-- Node19 -->
<g id="node19" class="node">
<title>Node19</title>
<g id="a_node19"><a xlink:title=" ">
<polygon fill="#e0e0e0" stroke="#999999" points="1073.5,-74 981.5,-74 981.5,-55 1073.5,-55 1073.5,-74"/>
<text text-anchor="middle" x="1027.5" y="-62" font-family="Helvetica,sans-Serif" font-size="10.00">pango/pangoft2.h</text>
</a>
</g>
</g>
<!-- Node6&#45;&gt;Node19 -->
<g id="edge20" class="edge">
<title>Node6&#45;&gt;Node19</title>
<path fill="none" stroke="#63b8ff" d="M925.37,-109.51C944.92,-101.08 974.4,-88.38 996.67,-78.79"/>
<polygon fill="#63b8ff" stroke="#63b8ff" points="997.75,-82.13 1005.55,-74.96 994.98,-75.7 997.75,-82.13"/>
</g>
<!-- Node20 -->
<g id="node20" class="node">
<title>Node20</title>
<g id="a_node20"><a xlink:title=" ">
<polygon fill="#e0e0e0" stroke="#999999" points="1153.5,-74 1091.5,-74 1091.5,-55 1153.5,-55 1153.5,-74"/>
<text text-anchor="middle" x="1122.5" y="-62" font-family="Helvetica,sans-Serif" font-size="10.00">epoxy/gl.h</text>
</a>
</g>
</g>
<!-- Node6&#45;&gt;Node20 -->
<g id="edge21" class="edge">
<title>Node6&#45;&gt;Node20</title>
<path fill="none" stroke="#63b8ff" d="M929.93,-112.32C966.82,-103.35 1035.61,-86.62 1080.21,-75.78"/>
<polygon fill="#63b8ff" stroke="#63b8ff" points="1080.9,-79.21 1089.79,-73.45 1079.25,-72.41 1080.9,-79.21"/>
</g>
<!-- Node21 -->
<g id="node21" class="node">
<title>Node21</title>
<g id="a_node21"><a xlink:title=" ">
<polygon fill="#e0e0e0" stroke="#999999" points="1225,-74 1172,-74 1172,-55 1225,-55 1225,-74"/>
<text text-anchor="middle" x="1198.5" y="-62" font-family="Helvetica,sans-Serif" font-size="10.00">GL/glu.h</text>
</a>
</g>
</g>
<!-- Node6&#45;&gt;Node21 -->
<g id="edge22" class="edge">
<title>Node6&#45;&gt;Node21</title>
<path fill="none" stroke="#63b8ff" d="M929.86,-114.65C974.41,-107.78 1069.82,-92.57 1160.74,-74.24"/>
<polygon fill="#63b8ff" stroke="#63b8ff" points="1161.22,-77.72 1170.32,-72.3 1159.82,-70.86 1161.22,-77.72"/>
</g>
<!-- Node22 -->
<g id="node22" class="node">
<title>Node22</title>
<g id="a_node22"><a xlink:title=" ">
<polygon fill="#e0e0e0" stroke="#999999" points="1310,-74 1243,-74 1243,-55 1310,-55 1310,-74"/>
<text text-anchor="middle" x="1276.5" y="-62" font-family="Helvetica,sans-Serif" font-size="10.00">epoxy/glx.h</text>
</a>
</g>
</g>
<!-- Node6&#45;&gt;Node22 -->
<g id="edge23" class="edge">
<title>Node6&#45;&gt;Node22</title>
<path fill="none" stroke="#63b8ff" d="M929.84,-115.66C983.58,-109.51 1113.18,-94.03 1231.56,-74.41"/>
<polygon fill="#63b8ff" stroke="#63b8ff" points="1231.83,-77.91 1241.12,-72.81 1230.68,-71.01 1231.83,-77.91"/>
</g>
<!-- Node23 -->
<g id="node23" class="node">
<title>Node23</title>
<g id="a_node23"><a xlink:href="math__3d_8h.html" target="_top" xlink:title=" ">
<polygon fill="white" stroke="#666666" points="1571.5,-74 1509.5,-74 1509.5,-55 1571.5,-55 1571.5,-74"/>
<text text-anchor="middle" x="1540.5" y="-62" font-family="Helvetica,sans-Serif" font-size="10.00">math_3d.h</text>
</a>
</g>
</g>
<!-- Node6&#45;&gt;Node23 -->
<g id="edge24" class="edge">
<title>Node6&#45;&gt;Node23</title>
<path fill="none" stroke="#63b8ff" d="M929.95,-117.6C1012.13,-114.47 1277.7,-102.68 1495.5,-74 1496.33,-73.89 1497.16,-73.78 1498,-73.66"/>
<polygon fill="#63b8ff" stroke="#63b8ff" points="1498.28,-77.16 1507.61,-72.13 1497.18,-70.24 1498.28,-77.16"/>
</g>
<!-- Node24 -->
<g id="node24" class="node">
<title>Node24</title>
<g id="a_node24"><a xlink:href="glwin_8h.html" target="_top" xlink:title=" ">
<polygon fill="white" stroke="#666666" points="1375,-74 1328,-74 1328,-55 1375,-55 1375,-74"/>
<text text-anchor="middle" x="1351.5" y="-62" font-family="Helvetica,sans-Serif" font-size="10.00">glwin.h</text>
</a>
</g>
</g>
<!-- Node6&#45;&gt;Node24 -->
<g id="edge27" class="edge">
<title>Node6&#45;&gt;Node24</title>
<path fill="none" stroke="#63b8ff" d="M929.96,-117.13C993.66,-113.41 1165.15,-101.64 1316.93,-74.22"/>
<polygon fill="#63b8ff" stroke="#63b8ff" points="1317.13,-77.74 1326.34,-72.49 1315.87,-70.86 1317.13,-77.74"/>
</g>
<!-- Node26 -->
<g id="node26" class="node">
<title>Node26</title>
<g id="a_node26"><a xlink:title=" ">
<polygon fill="#e0e0e0" stroke="#999999" points="1453.5,-74 1393.5,-74 1393.5,-55 1453.5,-55 1453.5,-74"/>
<text text-anchor="middle" x="1423.5" y="-62" font-family="Helvetica,sans-Serif" font-size="10.00">gtk/gtkx.h</text>
</a>
</g>
</g>
<!-- Node6&#45;&gt;Node26 -->
<g id="edge29" class="edge">
<title>Node6&#45;&gt;Node26</title>
<path fill="none" stroke="#63b8ff" d="M929.87,-117.24C1000.13,-113.53 1203.29,-101.23 1382.13,-74.17"/>
<polygon fill="#63b8ff" stroke="#63b8ff" points="1382.49,-77.66 1391.84,-72.69 1381.42,-70.74 1382.49,-77.66"/>
</g>
<!-- Node23&#45;&gt;Node3 -->
<g id="edge25" class="edge">
<title>Node23&#45;&gt;Node3</title>
<path fill="none" stroke="#63b8ff" d="M1550.51,-54.51C1558.87,-47 1571,-36.1 1581.1,-27.03"/>
<polygon fill="#63b8ff" stroke="#63b8ff" points="1583.41,-29.66 1588.51,-20.37 1578.74,-24.45 1583.41,-29.66"/>
</g>
<!-- Node23&#45;&gt;Node11 -->
<g id="edge26" class="edge">
<title>Node23&#45;&gt;Node11</title>
<path fill="none" stroke="#63b8ff" d="M1535.05,-54.75C1530.73,-47.81 1524.54,-37.86 1519.12,-29.16"/>
<polygon fill="#63b8ff" stroke="#63b8ff" points="1522.12,-27.37 1513.87,-20.73 1516.18,-31.07 1522.12,-27.37"/>
</g>
<!-- Node25 -->
<g id="node25" class="node">
<title>Node25</title>
<g id="a_node25"><a xlink:href="ogl__shading_8h.html" target="_top" xlink:title=" ">
<polygon fill="white" stroke="#666666" points="1390,-19 1313,-19 1313,0 1390,0 1390,-19"/>
<text text-anchor="middle" x="1351.5" y="-7" font-family="Helvetica,sans-Serif" font-size="10.00">ogl_shading.h</text>
</a>
</g>
</g>
<!-- Node24&#45;&gt;Node25 -->
<g id="edge28" class="edge">
<title>Node24&#45;&gt;Node25</title>
<path fill="none" stroke="#63b8ff" d="M1351.5,-54.75C1351.5,-48.27 1351.5,-39.16 1351.5,-30.9"/>
<polygon fill="#63b8ff" stroke="#63b8ff" points="1355,-30.96 1351.5,-20.96 1348,-30.96 1355,-30.96"/>
</g>
<!-- Node27&#45;&gt;Node6 -->
<g id="edge31" class="edge">
<title>Node27&#45;&gt;Node6</title>
<path fill="none" stroke="#63b8ff" d="M1039.5,-165.22C1013,-156.44 970.9,-142.5 940.76,-132.51"/>
<polygon fill="#63b8ff" stroke="#63b8ff" points="941.88,-129.2 931.29,-129.37 939.68,-135.84 941.88,-129.2"/>
</g>
</g>
</svg>
        <g id="navigator" transform="translate(0 0)" fill="#404254">
                <rect fill="#f2f5e9" fill-opacity="0.5" stroke="#606060" stroke-width=".5" x="0" y="0" width="60" height="60"/>
                <use id="zoomplus" xlink:href="#zoomPlus" x="17" y="9" onmousedown="handleZoom(evt,'in')"/>
                <use id="zoomminus" xlink:href="#zoomMin" x="42" y="9" onmousedown="handleZoom(evt,'out')"/>
                <use id="reset" xlink:href="#resetDef" x="30" y="36" onmousedown="handleReset()"/>
                <g id="arrowUp" xlink:href="#dirArrow" transform="translate(30 24)" onmousedown="handlePan(0,-1)">
                  <use xlink:href="#rim" fill="#404040">
                        <set attributeName="fill" to="#808080" begin="arrowUp.mouseover" end="arrowUp.mouseout"/>
                  </use>
                  <path fill="none" stroke="white" stroke-width="1.5" d="M0,-3.0v7 M-2.5,-0.5L0,-3.0L2.5,-0.5"/>
                </g>
                <g id="arrowRight" xlink:href="#dirArrow" transform="rotate(90) translate(36 -43)" onmousedown="handlePan(1,0)">
                  <use xlink:href="#rim" fill="#404040">
                        <set attributeName="fill" to="#808080" begin="arrowRight.mouseover" end="arrowRight.mouseout"/>
                  </use>
                  <path fill="none" stroke="white" stroke-width="1.5" d="M0,-3.0v7 M-2.5,-0.5L0,-3.0L2.5,-0.5"/>
                </g>
                <g id="arrowDown" xlink:href="#dirArrow" transform="rotate(180) translate(-30 -48)" onmousedown="handlePan(0,1)">
                  <use xlink:href="#rim" fill="#404040">
                        <set attributeName="fill" to="#808080" begin="arrowDown.mouseover" end="arrowDown.mouseout"/>
                  </use>
                  <path fill="none" stroke="white" stroke-width="1.5" d="M0,-3.0v7 M-2.5,-0.5L0,-3.0L2.5,-0.5"/>
                </g>
                <g id="arrowLeft" xlink:href="#dirArrow" transform="rotate(270) translate(-36 17)" onmousedown="handlePan(-1,0)">
                  <use xlink:href="#rim" fill="#404040">
                        <set attributeName="fill" to="#808080" begin="arrowLeft.mouseover" end="arrowLeft.mouseout"/>
                  </use>
                  <path fill="none" stroke="white" stroke-width="1.5" d="M0,-3.0v7 M-2.5,-0.5L0,-3.0L2.5,-0.5"/>
                </g>
        </g>
        <svg viewBox="0 0 15 15" width="100%" height="30px" preserveAspectRatio="xMaxYMin meet">
         <g id="arrow_out" transform="scale(0.3 0.3)">
          <a xlink:href="labels_8c__incl_org.svg" target="_base">
           <rect id="button" ry="5" rx="5" y="6" x="6" height="38" width="38"
                fill="#f2f5e9" fill-opacity="0.5" stroke="#606060" stroke-width="1.0"/>
           <path id="arrow"
             d="M 11.500037,31.436501 C 11.940474,20.09759 22.043105,11.32322 32.158766,21.979434 L 37.068811,17.246167 C 37.068811,17.246167 37.088388,32 37.088388,32 L 22.160133,31.978069 C 22.160133,31.978069 26.997745,27.140456 26.997745,27.140456 C 18.528582,18.264221 13.291696,25.230495 11.500037,31.436501 z"
             style="fill:#404040;"/>
          </a>
         </g>
        </svg>
</svg>
