<?xml version="1.0" encoding="UTF-8" standalone="no"?>
<!DOCTYPE svg PUBLIC "-//W3C//DTD SVG 1.1//EN"
 "http://www.w3.org/Graphics/SVG/1.1/DTD/svg11.dtd">
<!-- Generated by graphviz version 7.1.0 (0)
 -->
<!-- Title: legend.c Pages: 1 -->
<svg width="1618pt" height="247pt"
 viewBox="0.00 0.00 1618.00 247.00" xmlns="http://www.w3.org/2000/svg" xmlns:xlink="http://www.w3.org/1999/xlink">
<g id="graph0" class="graph" transform="scale(1 1) rotate(0) translate(4 243)">
<title>legend.c</title>
<!-- Node1 -->
<g id="node1" class="node">
<title>Node1</title>
<g id="a_node1"><a xlink:title=" ">
<polygon fill="#999999" stroke="#666666" points="582.5,-239 529.5,-239 529.5,-220 582.5,-220 582.5,-239"/>
<text text-anchor="middle" x="556" y="-227" font-family="Helvetica,sans-Serif" font-size="10.00">legend.c</text>
</a>
</g>
</g>
<!-- Node2 -->
<g id="node2" class="node">
<title>Node2</title>
<g id="a_node2"><a xlink:title=" ">
<polygon fill="#e0e0e0" stroke="#999999" points="48,-74 0,-74 0,-55 48,-55 48,-74"/>
<text text-anchor="middle" x="24" y="-62" font-family="Helvetica,sans-Serif" font-size="10.00">stdlib.h</text>
</a>
</g>
</g>
<!-- Node1&#45;&gt;Node2 -->
<g id="edge1" class="edge">
<title>Node1&#45;&gt;Node2</title>
<path fill="none" stroke="#63b8ff" d="M529.25,-220.31C440.99,-193.26 158.92,-106.84 59.28,-76.31"/>
<polygon fill="#63b8ff" stroke="#63b8ff" points="60.36,-72.98 49.77,-73.4 58.31,-79.67 60.36,-72.98"/>
</g>
<!-- Node3 -->
<g id="node3" class="node">
<title>Node3</title>
<g id="a_node3"><a xlink:title=" ">
<polygon fill="#e0e0e0" stroke="#999999" points="487,-184 441,-184 441,-165 487,-165 487,-184"/>
<text text-anchor="middle" x="464" y="-172" font-family="Helvetica,sans-Serif" font-size="10.00">cairo.h</text>
</a>
</g>
</g>
<!-- Node1&#45;&gt;Node3 -->
<g id="edge2" class="edge">
<title>Node1&#45;&gt;Node3</title>
<path fill="none" stroke="#63b8ff" d="M540.39,-219.51C526.3,-211.39 505.31,-199.3 488.9,-189.85"/>
<polygon fill="#63b8ff" stroke="#63b8ff" points="491.1,-187.07 480.69,-185.11 487.61,-193.14 491.1,-187.07"/>
</g>
<!-- Node4 -->
<g id="node4" class="node">
<title>Node4</title>
<g id="a_node4"><a xlink:title=" ">
<polygon fill="#e0e0e0" stroke="#999999" points="606.5,-184 505.5,-184 505.5,-165 606.5,-165 606.5,-184"/>
<text text-anchor="middle" x="556" y="-172" font-family="Helvetica,sans-Serif" font-size="10.00">pango/pangocairo.h</text>
</a>
</g>
</g>
<!-- Node1&#45;&gt;Node4 -->
<g id="edge3" class="edge">
<title>Node1&#45;&gt;Node4</title>
<path fill="none" stroke="#63b8ff" d="M556,-219.75C556,-213.27 556,-204.16 556,-195.9"/>
<polygon fill="#63b8ff" stroke="#63b8ff" points="559.5,-195.96 556,-185.96 552.5,-195.96 559.5,-195.96"/>
</g>
<!-- Node5 -->
<g id="node5" class="node">
<title>Node5</title>
<g id="a_node5"><a xlink:href="global_8h.html" target="_top" xlink:title=" ">
<polygon fill="white" stroke="#666666" points="727,-129 677,-129 677,-110 727,-110 727,-129"/>
<text text-anchor="middle" x="702" y="-117" font-family="Helvetica,sans-Serif" font-size="10.00">global.h</text>
</a>
</g>
</g>
<!-- Node1&#45;&gt;Node5 -->
<g id="edge4" class="edge">
<title>Node1&#45;&gt;Node5</title>
<path fill="none" stroke="#63b8ff" d="M582.9,-226.16C611.59,-222.25 656.46,-211.8 683,-184 694.19,-172.28 698.82,-154.23 700.72,-140.36"/>
<polygon fill="#63b8ff" stroke="#63b8ff" points="704.18,-140.91 701.66,-130.62 697.22,-140.23 704.18,-140.91"/>
</g>
<!-- Node27 -->
<g id="node27" class="node">
<title>Node27</title>
<g id="a_node27"><a xlink:href="curve_8h.html" target="_top" xlink:title=" ">
<polygon fill="white" stroke="#666666" points="673.5,-184 624.5,-184 624.5,-165 673.5,-165 673.5,-184"/>
<text text-anchor="middle" x="649" y="-172" font-family="Helvetica,sans-Serif" font-size="10.00">curve.h</text>
</a>
</g>
</g>
<!-- Node1&#45;&gt;Node27 -->
<g id="edge29" class="edge">
<title>Node1&#45;&gt;Node27</title>
<path fill="none" stroke="#63b8ff" d="M571.78,-219.51C586.02,-211.39 607.24,-199.3 623.83,-189.85"/>
<polygon fill="#63b8ff" stroke="#63b8ff" points="625.19,-193.1 632.14,-185.11 621.72,-187.02 625.19,-193.1"/>
</g>
<!-- Node5&#45;&gt;Node2 -->
<g id="edge11" class="edge">
<title>Node5&#45;&gt;Node2</title>
<path fill="none" stroke="#63b8ff" d="M676.61,-118.41C590.93,-117.77 304.63,-112.81 59.67,-74.12"/>
<polygon fill="#63b8ff" stroke="#63b8ff" points="60.33,-70.69 49.9,-72.56 59.22,-77.6 60.33,-70.69"/>
</g>
<!-- Node6 -->
<g id="node6" class="node">
<title>Node6</title>
<g id="a_node6"><a xlink:title=" ">
<polygon fill="#e0e0e0" stroke="#999999" points="1610,-74 1570,-74 1570,-55 1610,-55 1610,-74"/>
<text text-anchor="middle" x="1590" y="-62" font-family="Helvetica,sans-Serif" font-size="10.00">glib.h</text>
</a>
</g>
</g>
<!-- Node5&#45;&gt;Node6 -->
<g id="edge5" class="edge">
<title>Node5&#45;&gt;Node6</title>
<path fill="none" stroke="#63b8ff" d="M727.36,-117.98C848.8,-115.39 1372.36,-102.85 1558.31,-73.97"/>
<polygon fill="#63b8ff" stroke="#63b8ff" points="1558.75,-77.45 1568.05,-72.38 1557.62,-70.54 1558.75,-77.45"/>
</g>
<!-- Node7 -->
<g id="node7" class="node">
<title>Node7</title>
<g id="a_node7"><a xlink:title=" ">
<polygon fill="#e0e0e0" stroke="#999999" points="132,-74 66,-74 66,-55 132,-55 132,-74"/>
<text text-anchor="middle" x="99" y="-62" font-family="Helvetica,sans-Serif" font-size="10.00">glib/gi18n.h</text>
</a>
</g>
</g>
<!-- Node5&#45;&gt;Node7 -->
<g id="edge6" class="edge">
<title>Node5&#45;&gt;Node7</title>
<path fill="none" stroke="#63b8ff" d="M676.72,-117.58C598.81,-114.52 355.37,-103.26 143.74,-74.22"/>
<polygon fill="#63b8ff" stroke="#63b8ff" points="144.29,-70.76 133.91,-72.85 143.33,-77.69 144.29,-70.76"/>
</g>
<!-- Node8 -->
<g id="node8" class="node">
<title>Node8</title>
<g id="a_node8"><a xlink:title=" ">
<polygon fill="#e0e0e0" stroke="#999999" points="200,-74 150,-74 150,-55 200,-55 200,-74"/>
<text text-anchor="middle" x="175" y="-62" font-family="Helvetica,sans-Serif" font-size="10.00">locale.h</text>
</a>
</g>
</g>
<!-- Node5&#45;&gt;Node8 -->
<g id="edge7" class="edge">
<title>Node5&#45;&gt;Node8</title>
<path fill="none" stroke="#63b8ff" d="M676.68,-117.6C605.12,-114.76 395.16,-104.44 211.39,-74.13"/>
<polygon fill="#63b8ff" stroke="#63b8ff" points="212.09,-70.7 201.65,-72.5 210.94,-77.61 212.09,-70.7"/>
</g>
<!-- Node9 -->
<g id="node9" class="node">
<title>Node9</title>
<g id="a_node9"><a xlink:title=" ">
<polygon fill="#e0e0e0" stroke="#999999" points="269.5,-74 218.5,-74 218.5,-55 269.5,-55 269.5,-74"/>
<text text-anchor="middle" x="244" y="-62" font-family="Helvetica,sans-Serif" font-size="10.00">unistd.h</text>
</a>
</g>
</g>
<!-- Node5&#45;&gt;Node9 -->
<g id="edge8" class="edge">
<title>Node5&#45;&gt;Node9</title>
<path fill="none" stroke="#63b8ff" d="M676.98,-117.1C612.74,-113.26 436.67,-101.1 281.07,-74.33"/>
<polygon fill="#63b8ff" stroke="#63b8ff" points="281.85,-70.91 271.4,-72.64 280.65,-77.81 281.85,-70.91"/>
</g>
<!-- Node10 -->
<g id="node10" class="node">
<title>Node10</title>
<g id="a_node10"><a xlink:title=" ">
<polygon fill="#e0e0e0" stroke="#999999" points="336.5,-74 287.5,-74 287.5,-55 336.5,-55 336.5,-74"/>
<text text-anchor="middle" x="312" y="-62" font-family="Helvetica,sans-Serif" font-size="10.00">string.h</text>
</a>
</g>
</g>
<!-- Node5&#45;&gt;Node10 -->
<g id="edge9" class="edge">
<title>Node5&#45;&gt;Node10</title>
<path fill="none" stroke="#63b8ff" d="M676.78,-116.08C618.93,-110.35 472.38,-94.88 351,-74 349.98,-73.83 348.95,-73.64 347.92,-73.45"/>
<polygon fill="#63b8ff" stroke="#63b8ff" points="348.67,-70.03 338.18,-71.52 347.31,-76.9 348.67,-70.03"/>
</g>
<!-- Node11 -->
<g id="node11" class="node">
<title>Node11</title>
<g id="a_node11"><a xlink:title=" ">
<polygon fill="#e0e0e0" stroke="#999999" points="539,-19 493,-19 493,0 539,0 539,-19"/>
<text text-anchor="middle" x="516" y="-7" font-family="Helvetica,sans-Serif" font-size="10.00">stdio.h</text>
</a>
</g>
</g>
<!-- Node5&#45;&gt;Node11 -->
<g id="edge10" class="edge">
<title>Node5&#45;&gt;Node11</title>
<path fill="none" stroke="#63b8ff" d="M676.67,-119.01C608.2,-119.78 422.05,-117.74 384,-74 353.7,-39.17 432.75,-21.81 481.3,-14.65"/>
<polygon fill="#63b8ff" stroke="#63b8ff" points="481.68,-18.13 491.11,-13.29 480.72,-11.2 481.68,-18.13"/>
</g>
<!-- Node12 -->
<g id="node12" class="node">
<title>Node12</title>
<g id="a_node12"><a xlink:title=" ">
<polygon fill="#e0e0e0" stroke="#999999" points="461,-74 393,-74 393,-55 461,-55 461,-74"/>
<text text-anchor="middle" x="427" y="-62" font-family="Helvetica,sans-Serif" font-size="10.00">sys/types.h</text>
</a>
</g>
</g>
<!-- Node5&#45;&gt;Node12 -->
<g id="edge12" class="edge">
<title>Node5&#45;&gt;Node12</title>
<path fill="none" stroke="#63b8ff" d="M676.59,-113.67C635.73,-105.91 552.62,-90.06 472.09,-74.4"/>
<polygon fill="#63b8ff" stroke="#63b8ff" points="473.23,-71.06 462.75,-72.58 471.9,-77.93 473.23,-71.06"/>
</g>
<!-- Node13 -->
<g id="node13" class="node">
<title>Node13</title>
<g id="a_node13"><a xlink:title=" ">
<polygon fill="#e0e0e0" stroke="#999999" points="539,-74 479,-74 479,-55 539,-55 539,-74"/>
<text text-anchor="middle" x="509" y="-62" font-family="Helvetica,sans-Serif" font-size="10.00">sys/stat.h</text>
</a>
</g>
</g>
<!-- Node5&#45;&gt;Node13 -->
<g id="edge13" class="edge">
<title>Node5&#45;&gt;Node13</title>
<path fill="none" stroke="#63b8ff" d="M676.77,-111.57C644.59,-102.73 588.53,-87.34 550.14,-76.8"/>
<polygon fill="#63b8ff" stroke="#63b8ff" points="551.35,-73.5 540.78,-74.23 549.5,-80.25 551.35,-73.5"/>
</g>
<!-- Node14 -->
<g id="node14" class="node">
<title>Node14</title>
<g id="a_node14"><a xlink:title=" ">
<polygon fill="#e0e0e0" stroke="#999999" points="683.5,-19 636.5,-19 636.5,0 683.5,0 683.5,-19"/>
<text text-anchor="middle" x="660" y="-7" font-family="Helvetica,sans-Serif" font-size="10.00">math.h</text>
</a>
</g>
</g>
<!-- Node5&#45;&gt;Node14 -->
<g id="edge14" class="edge">
<title>Node5&#45;&gt;Node14</title>
<path fill="none" stroke="#63b8ff" d="M727.39,-118.83C845.07,-120.09 1333.71,-122.36 1379,-74 1384.77,-67.84 1384.78,-61.15 1379,-55 1355.33,-29.82 836.42,-14.95 695.21,-11.35"/>
<polygon fill="#63b8ff" stroke="#63b8ff" points="695.44,-7.86 685.36,-11.11 695.27,-14.86 695.44,-7.86"/>
</g>
<!-- Node15 -->
<g id="node15" class="node">
<title>Node15</title>
<g id="a_node15"><a xlink:title=" ">
<polygon fill="#e0e0e0" stroke="#999999" points="692.5,-74 637.5,-74 637.5,-55 692.5,-55 692.5,-74"/>
<text text-anchor="middle" x="665" y="-62" font-family="Helvetica,sans-Serif" font-size="10.00">gtk/gtk.h</text>
</a>
</g>
</g>
<!-- Node5&#45;&gt;Node15 -->
<g id="edge15" class="edge">
<title>Node5&#45;&gt;Node15</title>
<path fill="none" stroke="#63b8ff" d="M695.89,-109.75C690.99,-102.73 683.95,-92.64 677.83,-83.87"/>
<polygon fill="#63b8ff" stroke="#63b8ff" points="680.7,-81.88 672.11,-75.68 674.96,-85.89 680.7,-81.88"/>
</g>
<!-- Node16 -->
<g id="node16" class="node">
<title>Node16</title>
<g id="a_node16"><a xlink:title=" ">
<polygon fill="#e0e0e0" stroke="#999999" points="769.5,-74 710.5,-74 710.5,-55 769.5,-55 769.5,-74"/>
<text text-anchor="middle" x="740" y="-62" font-family="Helvetica,sans-Serif" font-size="10.00">gdk/gdk.h</text>
</a>
</g>
</g>
<!-- Node5&#45;&gt;Node16 -->
<g id="edge16" class="edge">
<title>Node5&#45;&gt;Node16</title>
<path fill="none" stroke="#63b8ff" d="M708.27,-109.75C713.36,-102.66 720.7,-92.42 727.03,-83.59"/>
<polygon fill="#63b8ff" stroke="#63b8ff" points="729.72,-85.84 732.71,-75.67 724.04,-81.76 729.72,-85.84"/>
</g>
<!-- Node17 -->
<g id="node17" class="node">
<title>Node17</title>
<g id="a_node17"><a xlink:title=" ">
<polygon fill="#e0e0e0" stroke="#999999" points="886.5,-74 787.5,-74 787.5,-55 886.5,-55 886.5,-74"/>
<text text-anchor="middle" x="837" y="-62" font-family="Helvetica,sans-Serif" font-size="10.00">gdk/gdkkeysyms.h</text>
</a>
</g>
</g>
<!-- Node5&#45;&gt;Node17 -->
<g id="edge17" class="edge">
<title>Node5&#45;&gt;Node17</title>
<path fill="none" stroke="#63b8ff" d="M724.9,-109.51C746.56,-101.01 779.31,-88.15 803.82,-78.53"/>
<polygon fill="#63b8ff" stroke="#63b8ff" points="805,-81.82 813.03,-74.91 802.44,-75.31 805,-81.82"/>
</g>
<!-- Node18 -->
<g id="node18" class="node">
<title>Node18</title>
<g id="a_node18"><a xlink:title=" ">
<polygon fill="#e0e0e0" stroke="#999999" points="1023,-74 905,-74 905,-55 1023,-55 1023,-74"/>
<text text-anchor="middle" x="964" y="-62" font-family="Helvetica,sans-Serif" font-size="10.00">gdk&#45;pixbuf/gdk&#45;pixbuf.h</text>
</a>
</g>
</g>
<!-- Node5&#45;&gt;Node18 -->
<g id="edge18" class="edge">
<title>Node5&#45;&gt;Node18</title>
<path fill="none" stroke="#63b8ff" d="M727.12,-113.42C768.7,-105.01 852.78,-88 908.76,-76.68"/>
<polygon fill="#63b8ff" stroke="#63b8ff" points="909.31,-80.13 918.42,-74.72 907.92,-73.27 909.31,-80.13"/>
</g>
<!-- Node19 -->
<g id="node19" class="node">
<title>Node19</title>
<g id="a_node19"><a xlink:title=" ">
<polygon fill="#e0e0e0" stroke="#999999" points="1133,-74 1041,-74 1041,-55 1133,-55 1133,-74"/>
<text text-anchor="middle" x="1087" y="-62" font-family="Helvetica,sans-Serif" font-size="10.00">pango/pangoft2.h</text>
</a>
</g>
</g>
<!-- Node5&#45;&gt;Node19 -->
<g id="edge19" class="edge">
<title>Node5&#45;&gt;Node19</title>
<path fill="none" stroke="#63b8ff" d="M727.28,-115.26C780.9,-108.35 910.28,-91.49 1029.65,-74.32"/>
<polygon fill="#63b8ff" stroke="#63b8ff" points="1029.9,-77.82 1039.3,-72.92 1028.9,-70.89 1029.9,-77.82"/>
</g>
<!-- Node20 -->
<g id="node20" class="node">
<title>Node20</title>
<g id="a_node20"><a xlink:title=" ">
<polygon fill="#e0e0e0" stroke="#999999" points="1213,-74 1151,-74 1151,-55 1213,-55 1213,-74"/>
<text text-anchor="middle" x="1182" y="-62" font-family="Helvetica,sans-Serif" font-size="10.00">epoxy/gl.h</text>
</a>
</g>
</g>
<!-- Node5&#45;&gt;Node20 -->
<g id="edge20" class="edge">
<title>Node5&#45;&gt;Node20</title>
<path fill="none" stroke="#63b8ff" d="M727.42,-116.9C793.61,-112.53 976.87,-99.11 1139.44,-74.24"/>
<polygon fill="#63b8ff" stroke="#63b8ff" points="1139.78,-77.73 1149.12,-72.74 1138.7,-70.81 1139.78,-77.73"/>
</g>
<!-- Node21 -->
<g id="node21" class="node">
<title>Node21</title>
<g id="a_node21"><a xlink:title=" ">
<polygon fill="#e0e0e0" stroke="#999999" points="1284.5,-74 1231.5,-74 1231.5,-55 1284.5,-55 1284.5,-74"/>
<text text-anchor="middle" x="1258" y="-62" font-family="Helvetica,sans-Serif" font-size="10.00">GL/glu.h</text>
</a>
</g>
</g>
<!-- Node5&#45;&gt;Node21 -->
<g id="edge21" class="edge">
<title>Node5&#45;&gt;Node21</title>
<path fill="none" stroke="#63b8ff" d="M727.32,-117.65C801.48,-114.88 1024.72,-104.57 1220.01,-74.05"/>
<polygon fill="#63b8ff" stroke="#63b8ff" points="1220.53,-77.51 1229.86,-72.49 1219.43,-70.6 1220.53,-77.51"/>
</g>
<!-- Node22 -->
<g id="node22" class="node">
<title>Node22</title>
<g id="a_node22"><a xlink:title=" ">
<polygon fill="#e0e0e0" stroke="#999999" points="1369.5,-74 1302.5,-74 1302.5,-55 1369.5,-55 1369.5,-74"/>
<text text-anchor="middle" x="1336" y="-62" font-family="Helvetica,sans-Serif" font-size="10.00">epoxy/glx.h</text>
</a>
</g>
</g>
<!-- Node5&#45;&gt;Node22 -->
<g id="edge22" class="edge">
<title>Node5&#45;&gt;Node22</title>
<path fill="none" stroke="#63b8ff" d="M727.22,-117.73C807.89,-115.03 1066.97,-104.52 1290.83,-74.28"/>
<polygon fill="#63b8ff" stroke="#63b8ff" points="1291.2,-77.76 1300.64,-72.94 1290.25,-70.83 1291.2,-77.76"/>
</g>
<!-- Node23 -->
<g id="node23" class="node">
<title>Node23</title>
<g id="a_node23"><a xlink:href="math__3d_8h.html" target="_top" xlink:title=" ">
<polygon fill="white" stroke="#666666" points="619,-74 557,-74 557,-55 619,-55 619,-74"/>
<text text-anchor="middle" x="588" y="-62" font-family="Helvetica,sans-Serif" font-size="10.00">math_3d.h</text>
</a>
</g>
</g>
<!-- Node5&#45;&gt;Node23 -->
<g id="edge23" class="edge">
<title>Node5&#45;&gt;Node23</title>
<path fill="none" stroke="#63b8ff" d="M682.66,-109.51C664.78,-101.2 637.96,-88.73 617.43,-79.18"/>
<polygon fill="#63b8ff" stroke="#63b8ff" points="618.97,-76.04 608.43,-75 616.02,-82.39 618.97,-76.04"/>
</g>
<!-- Node24 -->
<g id="node24" class="node">
<title>Node24</title>
<g id="a_node24"><a xlink:href="glwin_8h.html" target="_top" xlink:title=" ">
<polygon fill="white" stroke="#666666" points="1473.5,-74 1426.5,-74 1426.5,-55 1473.5,-55 1473.5,-74"/>
<text text-anchor="middle" x="1450" y="-62" font-family="Helvetica,sans-Serif" font-size="10.00">glwin.h</text>
</a>
</g>
</g>
<!-- Node5&#45;&gt;Node24 -->
<g id="edge26" class="edge">
<title>Node5&#45;&gt;Node24</title>
<path fill="none" stroke="#63b8ff" d="M727.3,-118.35C819.5,-117.5 1146.05,-111.84 1412,-74 1413.02,-73.85 1414.06,-73.7 1415.11,-73.53"/>
<polygon fill="#63b8ff" stroke="#63b8ff" points="1415.73,-76.97 1424.9,-71.67 1414.43,-70.09 1415.73,-76.97"/>
</g>
<!-- Node26 -->
<g id="node26" class="node">
<title>Node26</title>
<g id="a_node26"><a xlink:title=" ">
<polygon fill="#e0e0e0" stroke="#999999" points="1552,-74 1492,-74 1492,-55 1552,-55 1552,-74"/>
<text text-anchor="middle" x="1522" y="-62" font-family="Helvetica,sans-Serif" font-size="10.00">gtk/gtkx.h</text>
</a>
</g>
</g>
<!-- Node5&#45;&gt;Node26 -->
<g id="edge28" class="edge">
<title>Node5&#45;&gt;Node26</title>
<path fill="none" stroke="#63b8ff" d="M727.42,-118.5C824.24,-118.21 1179.16,-114.39 1480.7,-74.07"/>
<polygon fill="#63b8ff" stroke="#63b8ff" points="1480.91,-77.58 1490.35,-72.77 1479.97,-70.64 1480.91,-77.58"/>
</g>
<!-- Node23&#45;&gt;Node11 -->
<g id="edge25" class="edge">
<title>Node23&#45;&gt;Node11</title>
<path fill="none" stroke="#63b8ff" d="M575.79,-54.51C565.17,-46.7 549.56,-35.21 536.96,-25.93"/>
<polygon fill="#63b8ff" stroke="#63b8ff" points="539.38,-23.36 529.25,-20.26 535.23,-29 539.38,-23.36"/>
</g>
<!-- Node23&#45;&gt;Node14 -->
<g id="edge24" class="edge">
<title>Node23&#45;&gt;Node14</title>
<path fill="none" stroke="#63b8ff" d="M600.21,-54.51C610.83,-46.7 626.44,-35.21 639.04,-25.93"/>
<polygon fill="#63b8ff" stroke="#63b8ff" points="640.77,-29 646.75,-20.26 636.62,-23.36 640.77,-29"/>
</g>
<!-- Node25 -->
<g id="node25" class="node">
<title>Node25</title>
<g id="a_node25"><a xlink:href="ogl__shading_8h.html" target="_top" xlink:title=" ">
<polygon fill="white" stroke="#666666" points="1488.5,-19 1411.5,-19 1411.5,0 1488.5,0 1488.5,-19"/>
<text text-anchor="middle" x="1450" y="-7" font-family="Helvetica,sans-Serif" font-size="10.00">ogl_shading.h</text>
</a>
</g>
</g>
<!-- Node24&#45;&gt;Node25 -->
<g id="edge27" class="edge">
<title>Node24&#45;&gt;Node25</title>
<path fill="none" stroke="#63b8ff" d="M1450,-54.75C1450,-48.27 1450,-39.16 1450,-30.9"/>
<polygon fill="#63b8ff" stroke="#63b8ff" points="1453.5,-30.96 1450,-20.96 1446.5,-30.96 1453.5,-30.96"/>
</g>
<!-- Node27&#45;&gt;Node5 -->
<g id="edge30" class="edge">
<title>Node27&#45;&gt;Node5</title>
<path fill="none" stroke="#63b8ff" d="M657.75,-164.75C665.15,-157.35 675.96,-146.54 685.05,-137.45"/>
<polygon fill="#63b8ff" stroke="#63b8ff" points="687.39,-140.06 691.99,-130.51 682.44,-135.11 687.39,-140.06"/>
</g>
</g>
</svg>
