<?xml version="1.0" encoding="UTF-8" standalone="no"?>
<!DOCTYPE svg PUBLIC "-//W3C//DTD SVG 1.1//EN"
 "http://www.w3.org/Graphics/SVG/1.1/DTD/svg11.dtd">
<!-- Generated by graphviz version 7.1.0 (0)
 -->
<!-- Title: m_axis.c Pages: 1 -->
<!--zoomable 192 -->
<svg id="main" version="1.1" xmlns="http://www.w3.org/2000/svg" xmlns:xlink="http://www.w3.org/1999/xlink" xml:space="preserve" onload="init(evt)">
<style type="text/css"><![CDATA[
.edge:hover path { stroke: red; }
.edge:hover polygon { stroke: red; fill: red; }
]]></style>
<script type="text/javascript"><![CDATA[
var edges = document.getElementsByTagName('g');
if (edges && edges.length) {
  for (var i=0;i<edges.length;i++) {
    if (edges[i].id.substr(0,4)=='edge') {
      edges[i].setAttribute('class','edge');
    }
  }
}
]]></script>
        <defs>
                <circle id="rim" cx="0" cy="0" r="7"/>
                <circle id="rim2" cx="0" cy="0" r="3.5"/>
                <g id="zoomPlus">
                        <use xlink:href="#rim" fill="#404040">
                                <set attributeName="fill" to="#808080" begin="zoomplus.mouseover" end="zoomplus.mouseout"/>
                        </use>
                        <path d="M-4,0h8M0,-4v8" fill="none" stroke="white" stroke-width="1.5" pointer-events="none"/>
                </g>
                <g id="zoomMin">
                        <use xlink:href="#rim" fill="#404040">
                                <set attributeName="fill" to="#808080" begin="zoomminus.mouseover" end="zoomminus.mouseout"/>
                        </use>
                        <path d="M-4,0h8" fill="none" stroke="white" stroke-width="1.5" pointer-events="none"/>
                </g>
                <g id="dirArrow">
                        <path fill="none" stroke="white" stroke-width="1.5" d="M0,-3.0v7 M-2.5,-0.5L0,-3.0L2.5,-0.5"/>
                </g>
               <g id="resetDef">
                       <use xlink:href="#rim2" fill="#404040">
                               <set attributeName="fill" to="#808080" begin="reset.mouseover" end="reset.mouseout"/>
                       </use>
               </g>
        </defs>

<script type="text/javascript">
var viewWidth = 1618;
var viewHeight = 192;
var sectionId = 'dynsection-0';
</script>
<script xlink:href="svgpan.js"/>
<svg id="graph" class="graph">
<g id="viewport">
<title>m_axis.c</title>
<!-- Node1 -->
<g id="node1" class="node">
<title>Node1</title>
<g id="a_node1"><a xlink:title=" ">
<polygon fill="#999999" stroke="#666666" points="858,-184 802,-184 802,-165 858,-165 858,-184"/>
<text text-anchor="middle" x="830" y="-172" font-family="Helvetica,sans-Serif" font-size="10.00">m_axis.c</text>
</a>
</g>
</g>
<!-- Node2 -->
<g id="node2" class="node">
<title>Node2</title>
<g id="a_node2"><a xlink:href="global_8h.html" target="_top" xlink:title=" ">
<polygon fill="white" stroke="#666666" points="748,-129 698,-129 698,-110 748,-110 748,-129"/>
<text text-anchor="middle" x="723" y="-117" font-family="Helvetica,sans-Serif" font-size="10.00">global.h</text>
</a>
</g>
</g>
<!-- Node1&#45;&gt;Node2 -->
<g id="edge1" class="edge">
<title>Node1&#45;&gt;Node2</title>
<path fill="none" stroke="#63b8ff" d="M811.85,-164.51C795.22,-156.27 770.36,-143.96 751.15,-134.45"/>
<polygon fill="#63b8ff" stroke="#63b8ff" points="752.75,-131.33 742.24,-130.03 749.65,-137.6 752.75,-131.33"/>
</g>
<!-- Node25 -->
<g id="node25" class="node">
<title>Node25</title>
<g id="a_node25"><a xlink:href="glview_8h.html" target="_top" xlink:title=" ">
<polygon fill="white" stroke="#666666" points="818,-129 766,-129 766,-110 818,-110 818,-129"/>
<text text-anchor="middle" x="792" y="-117" font-family="Helvetica,sans-Serif" font-size="10.00">glview.h</text>
</a>
</g>
</g>
<!-- Node1&#45;&gt;Node25 -->
<g id="edge26" class="edge">
<title>Node1&#45;&gt;Node25</title>
<path fill="none" stroke="#63b8ff" d="M823.73,-164.75C818.64,-157.66 811.3,-147.42 804.97,-138.59"/>
<polygon fill="#63b8ff" stroke="#63b8ff" points="807.96,-136.76 799.29,-130.67 802.28,-140.84 807.96,-136.76"/>
</g>
<!-- Node26 -->
<g id="node26" class="node">
<title>Node26</title>
<g id="a_node26"><a xlink:href="glwindow_8h.html" target="_top" xlink:title=" ">
<polygon fill="white" stroke="#666666" points="901.5,-129 836.5,-129 836.5,-110 901.5,-110 901.5,-129"/>
<text text-anchor="middle" x="869" y="-117" font-family="Helvetica,sans-Serif" font-size="10.00">glwindow.h</text>
</a>
</g>
</g>
<!-- Node1&#45;&gt;Node26 -->
<g id="edge27" class="edge">
<title>Node1&#45;&gt;Node26</title>
<path fill="none" stroke="#63b8ff" d="M836.44,-164.75C841.66,-157.66 849.19,-147.42 855.69,-138.59"/>
<polygon fill="#63b8ff" stroke="#63b8ff" points="858.42,-140.79 861.52,-130.66 852.78,-136.64 858.42,-140.79"/>
</g>
<!-- Node27 -->
<g id="node27" class="node">
<title>Node27</title>
<g id="a_node27"><a xlink:href="submenus_8h.html" target="_top" xlink:title=" ">
<polygon fill="white" stroke="#666666" points="990,-129 920,-129 920,-110 990,-110 990,-129"/>
<text text-anchor="middle" x="955" y="-117" font-family="Helvetica,sans-Serif" font-size="10.00">submenus.h</text>
</a>
</g>
</g>
<!-- Node1&#45;&gt;Node27 -->
<g id="edge28" class="edge">
<title>Node1&#45;&gt;Node27</title>
<path fill="none" stroke="#63b8ff" d="M851.2,-164.51C871.08,-156.08 901.03,-143.38 923.66,-133.79"/>
<polygon fill="#63b8ff" stroke="#63b8ff" points="924.87,-137.07 932.72,-129.95 922.14,-130.63 924.87,-137.07"/>
</g>
<!-- Node3 -->
<g id="node3" class="node">
<title>Node3</title>
<g id="a_node3"><a xlink:title=" ">
<polygon fill="#e0e0e0" stroke="#999999" points="40,-74 0,-74 0,-55 40,-55 40,-74"/>
<text text-anchor="middle" x="20" y="-62" font-family="Helvetica,sans-Serif" font-size="10.00">glib.h</text>
</a>
</g>
</g>
<!-- Node2&#45;&gt;Node3 -->
<g id="edge2" class="edge">
<title>Node2&#45;&gt;Node3</title>
<path fill="none" stroke="#63b8ff" d="M697.67,-118.82C609.47,-119.5 307.7,-118.37 51.47,-74.04"/>
<polygon fill="#63b8ff" stroke="#63b8ff" points="52.41,-70.65 41.95,-72.36 51.2,-77.54 52.41,-70.65"/>
</g>
<!-- Node4 -->
<g id="node4" class="node">
<title>Node4</title>
<g id="a_node4"><a xlink:title=" ">
<polygon fill="#e0e0e0" stroke="#999999" points="124,-74 58,-74 58,-55 124,-55 124,-74"/>
<text text-anchor="middle" x="91" y="-62" font-family="Helvetica,sans-Serif" font-size="10.00">glib/gi18n.h</text>
</a>
</g>
</g>
<!-- Node2&#45;&gt;Node4 -->
<g id="edge3" class="edge">
<title>Node2&#45;&gt;Node4</title>
<path fill="none" stroke="#63b8ff" d="M697.58,-117.71C616.86,-114.98 359,-104.42 135.69,-74.2"/>
<polygon fill="#63b8ff" stroke="#63b8ff" points="136.29,-70.75 125.91,-72.86 135.34,-77.68 136.29,-70.75"/>
</g>
<!-- Node5 -->
<g id="node5" class="node">
<title>Node5</title>
<g id="a_node5"><a xlink:title=" ">
<polygon fill="#e0e0e0" stroke="#999999" points="192,-74 142,-74 142,-55 192,-55 192,-74"/>
<text text-anchor="middle" x="167" y="-62" font-family="Helvetica,sans-Serif" font-size="10.00">locale.h</text>
</a>
</g>
</g>
<!-- Node2&#45;&gt;Node5 -->
<g id="edge4" class="edge">
<title>Node2&#45;&gt;Node5</title>
<path fill="none" stroke="#63b8ff" d="M697.56,-117.77C623.06,-115.34 398.84,-105.86 203.5,-74.14"/>
<polygon fill="#63b8ff" stroke="#63b8ff" points="204.09,-70.69 193.65,-72.51 202.95,-77.59 204.09,-70.69"/>
</g>
<!-- Node6 -->
<g id="node6" class="node">
<title>Node6</title>
<g id="a_node6"><a xlink:title=" ">
<polygon fill="#e0e0e0" stroke="#999999" points="261.5,-74 210.5,-74 210.5,-55 261.5,-55 261.5,-74"/>
<text text-anchor="middle" x="236" y="-62" font-family="Helvetica,sans-Serif" font-size="10.00">unistd.h</text>
</a>
</g>
</g>
<!-- Node2&#45;&gt;Node6 -->
<g id="edge5" class="edge">
<title>Node2&#45;&gt;Node6</title>
<path fill="none" stroke="#63b8ff" d="M697.53,-117.31C629.85,-113.88 439.78,-102.45 272.86,-74.27"/>
<polygon fill="#63b8ff" stroke="#63b8ff" points="273.84,-70.89 263.4,-72.65 272.66,-77.79 273.84,-70.89"/>
</g>
<!-- Node7 -->
<g id="node7" class="node">
<title>Node7</title>
<g id="a_node7"><a xlink:title=" ">
<polygon fill="#e0e0e0" stroke="#999999" points="328.5,-74 279.5,-74 279.5,-55 328.5,-55 328.5,-74"/>
<text text-anchor="middle" x="304" y="-62" font-family="Helvetica,sans-Serif" font-size="10.00">string.h</text>
</a>
</g>
</g>
<!-- Node2&#45;&gt;Node7 -->
<g id="edge6" class="edge">
<title>Node2&#45;&gt;Node7</title>
<path fill="none" stroke="#63b8ff" d="M697.53,-116.39C636.22,-111.11 475.67,-96.17 343,-74 341.98,-73.83 340.95,-73.65 339.91,-73.47"/>
<polygon fill="#63b8ff" stroke="#63b8ff" points="340.66,-70.04 330.17,-71.55 339.31,-76.91 340.66,-70.04"/>
</g>
<!-- Node8 -->
<g id="node8" class="node">
<title>Node8</title>
<g id="a_node8"><a xlink:title=" ">
<polygon fill="#e0e0e0" stroke="#999999" points="580,-19 534,-19 534,0 580,0 580,-19"/>
<text text-anchor="middle" x="557" y="-7" font-family="Helvetica,sans-Serif" font-size="10.00">stdio.h</text>
</a>
</g>
</g>
<!-- Node2&#45;&gt;Node8 -->
<g id="edge7" class="edge">
<title>Node2&#45;&gt;Node8</title>
<path fill="none" stroke="#63b8ff" d="M697.66,-117.15C621.28,-112.82 397.27,-98.17 376,-74 333.43,-25.62 458.66,-14.1 522.32,-11.36"/>
<polygon fill="#63b8ff" stroke="#63b8ff" points="522.42,-14.85 532.28,-10.98 522.16,-7.86 522.42,-14.85"/>
</g>
<!-- Node9 -->
<g id="node9" class="node">
<title>Node9</title>
<g id="a_node9"><a xlink:title=" ">
<polygon fill="#e0e0e0" stroke="#999999" points="433,-74 385,-74 385,-55 433,-55 433,-74"/>
<text text-anchor="middle" x="409" y="-62" font-family="Helvetica,sans-Serif" font-size="10.00">stdlib.h</text>
</a>
</g>
</g>
<!-- Node2&#45;&gt;Node9 -->
<g id="edge8" class="edge">
<title>Node2&#45;&gt;Node9</title>
<path fill="none" stroke="#63b8ff" d="M697.67,-115.31C650.02,-109.14 543.64,-94.52 444.56,-74.36"/>
<polygon fill="#63b8ff" stroke="#63b8ff" points="445.43,-70.97 434.93,-72.38 444.02,-77.83 445.43,-70.97"/>
</g>
<!-- Node10 -->
<g id="node10" class="node">
<title>Node10</title>
<g id="a_node10"><a xlink:title=" ">
<polygon fill="#e0e0e0" stroke="#999999" points="519,-74 451,-74 451,-55 519,-55 519,-74"/>
<text text-anchor="middle" x="485" y="-62" font-family="Helvetica,sans-Serif" font-size="10.00">sys/types.h</text>
</a>
</g>
</g>
<!-- Node2&#45;&gt;Node10 -->
<g id="edge9" class="edge">
<title>Node2&#45;&gt;Node10</title>
<path fill="none" stroke="#63b8ff" d="M697.53,-112.83C657.7,-103.96 580.11,-86.68 530.51,-75.64"/>
<polygon fill="#63b8ff" stroke="#63b8ff" points="531.46,-72.26 520.94,-73.5 529.94,-79.09 531.46,-72.26"/>
</g>
<!-- Node11 -->
<g id="node11" class="node">
<title>Node11</title>
<g id="a_node11"><a xlink:title=" ">
<polygon fill="#e0e0e0" stroke="#999999" points="597,-74 537,-74 537,-55 597,-55 597,-74"/>
<text text-anchor="middle" x="567" y="-62" font-family="Helvetica,sans-Serif" font-size="10.00">sys/stat.h</text>
</a>
</g>
</g>
<!-- Node2&#45;&gt;Node11 -->
<g id="edge10" class="edge">
<title>Node2&#45;&gt;Node11</title>
<path fill="none" stroke="#63b8ff" d="M697.59,-109.87C672.28,-101.27 633.16,-87.98 604.33,-78.18"/>
<polygon fill="#63b8ff" stroke="#63b8ff" points="605.47,-74.87 594.88,-74.97 603.22,-81.5 605.47,-74.87"/>
</g>
<!-- Node12 -->
<g id="node12" class="node">
<title>Node12</title>
<g id="a_node12"><a xlink:title=" ">
<polygon fill="#e0e0e0" stroke="#999999" points="757.5,-19 710.5,-19 710.5,0 757.5,0 757.5,-19"/>
<text text-anchor="middle" x="734" y="-7" font-family="Helvetica,sans-Serif" font-size="10.00">math.h</text>
</a>
</g>
</g>
<!-- Node2&#45;&gt;Node12 -->
<g id="edge11" class="edge">
<title>Node2&#45;&gt;Node12</title>
<path fill="none" stroke="#63b8ff" d="M748.14,-111.64C751.11,-111 754.11,-110.43 757,-110 831.82,-98.77 1384.93,-128.9 1437,-74 1442.81,-67.87 1442.78,-61.16 1437,-55 1413.9,-30.39 907.62,-15.13 768.88,-11.4"/>
<polygon fill="#63b8ff" stroke="#63b8ff" points="769.31,-7.91 759.22,-11.14 769.12,-14.9 769.31,-7.91"/>
</g>
<!-- Node13 -->
<g id="node13" class="node">
<title>Node13</title>
<g id="a_node13"><a xlink:title=" ">
<polygon fill="#e0e0e0" stroke="#999999" points="750.5,-74 695.5,-74 695.5,-55 750.5,-55 750.5,-74"/>
<text text-anchor="middle" x="723" y="-62" font-family="Helvetica,sans-Serif" font-size="10.00">gtk/gtk.h</text>
</a>
</g>
</g>
<!-- Node2&#45;&gt;Node13 -->
<g id="edge12" class="edge">
<title>Node2&#45;&gt;Node13</title>
<path fill="none" stroke="#63b8ff" d="M723,-109.75C723,-103.27 723,-94.16 723,-85.9"/>
<polygon fill="#63b8ff" stroke="#63b8ff" points="726.5,-85.96 723,-75.96 719.5,-85.96 726.5,-85.96"/>
</g>
<!-- Node14 -->
<g id="node14" class="node">
<title>Node14</title>
<g id="a_node14"><a xlink:title=" ">
<polygon fill="#e0e0e0" stroke="#999999" points="827.5,-74 768.5,-74 768.5,-55 827.5,-55 827.5,-74"/>
<text text-anchor="middle" x="798" y="-62" font-family="Helvetica,sans-Serif" font-size="10.00">gdk/gdk.h</text>
</a>
</g>
</g>
<!-- Node2&#45;&gt;Node14 -->
<g id="edge13" class="edge">
<title>Node2&#45;&gt;Node14</title>
<path fill="none" stroke="#63b8ff" d="M735.72,-109.51C746.78,-101.7 763.04,-90.21 776.17,-80.93"/>
<polygon fill="#63b8ff" stroke="#63b8ff" points="778.08,-83.86 784.23,-75.23 774.04,-78.14 778.08,-83.86"/>
</g>
<!-- Node15 -->
<g id="node15" class="node">
<title>Node15</title>
<g id="a_node15"><a xlink:title=" ">
<polygon fill="#e0e0e0" stroke="#999999" points="944.5,-74 845.5,-74 845.5,-55 944.5,-55 944.5,-74"/>
<text text-anchor="middle" x="895" y="-62" font-family="Helvetica,sans-Serif" font-size="10.00">gdk/gdkkeysyms.h</text>
</a>
</g>
</g>
<!-- Node2&#45;&gt;Node15 -->
<g id="edge14" class="edge">
<title>Node2&#45;&gt;Node15</title>
<path fill="none" stroke="#63b8ff" d="M748.38,-110.68C776.59,-101.99 822.5,-87.84 855.44,-77.69"/>
<polygon fill="#63b8ff" stroke="#63b8ff" points="856.09,-81.15 864.62,-74.86 854.03,-74.46 856.09,-81.15"/>
</g>
<!-- Node16 -->
<g id="node16" class="node">
<title>Node16</title>
<g id="a_node16"><a xlink:title=" ">
<polygon fill="#e0e0e0" stroke="#999999" points="1081,-74 963,-74 963,-55 1081,-55 1081,-74"/>
<text text-anchor="middle" x="1022" y="-62" font-family="Helvetica,sans-Serif" font-size="10.00">gdk&#45;pixbuf/gdk&#45;pixbuf.h</text>
</a>
</g>
</g>
<!-- Node2&#45;&gt;Node16 -->
<g id="edge15" class="edge">
<title>Node2&#45;&gt;Node16</title>
<path fill="none" stroke="#63b8ff" d="M748.2,-111.97C751.16,-111.27 754.14,-110.6 757,-110 822.55,-96.32 897.91,-83.99 951.46,-75.8"/>
<polygon fill="#63b8ff" stroke="#63b8ff" points="951.69,-79.31 961.05,-74.34 950.64,-72.39 951.69,-79.31"/>
</g>
<!-- Node17 -->
<g id="node17" class="node">
<title>Node17</title>
<g id="a_node17"><a xlink:title=" ">
<polygon fill="#e0e0e0" stroke="#999999" points="1191,-74 1099,-74 1099,-55 1191,-55 1191,-74"/>
<text text-anchor="middle" x="1145" y="-62" font-family="Helvetica,sans-Serif" font-size="10.00">pango/pangoft2.h</text>
</a>
</g>
</g>
<!-- Node2&#45;&gt;Node17 -->
<g id="edge16" class="edge">
<title>Node2&#45;&gt;Node17</title>
<path fill="none" stroke="#63b8ff" d="M748.17,-111.8C751.13,-111.13 754.12,-110.51 757,-110 899.98,-84.52 940.44,-92.93 1087.28,-74.29"/>
<polygon fill="#63b8ff" stroke="#63b8ff" points="1087.54,-77.78 1097.01,-73.03 1086.64,-70.84 1087.54,-77.78"/>
</g>
<!-- Node18 -->
<g id="node18" class="node">
<title>Node18</title>
<g id="a_node18"><a xlink:title=" ">
<polygon fill="#e0e0e0" stroke="#999999" points="1271,-74 1209,-74 1209,-55 1271,-55 1271,-74"/>
<text text-anchor="middle" x="1240" y="-62" font-family="Helvetica,sans-Serif" font-size="10.00">epoxy/gl.h</text>
</a>
</g>
</g>
<!-- Node2&#45;&gt;Node18 -->
<g id="edge17" class="edge">
<title>Node2&#45;&gt;Node18</title>
<path fill="none" stroke="#63b8ff" d="M748.15,-111.72C751.12,-111.07 754.12,-110.47 757,-110 948.3,-78.53 1002.54,-101.69 1197.42,-74.18"/>
<polygon fill="#63b8ff" stroke="#63b8ff" points="1197.73,-77.67 1207.13,-72.78 1196.73,-70.74 1197.73,-77.67"/>
</g>
<!-- Node19 -->
<g id="node19" class="node">
<title>Node19</title>
<g id="a_node19"><a xlink:title=" ">
<polygon fill="#e0e0e0" stroke="#999999" points="1342.5,-74 1289.5,-74 1289.5,-55 1342.5,-55 1342.5,-74"/>
<text text-anchor="middle" x="1316" y="-62" font-family="Helvetica,sans-Serif" font-size="10.00">GL/glu.h</text>
</a>
</g>
</g>
<!-- Node2&#45;&gt;Node19 -->
<g id="edge18" class="edge">
<title>Node2&#45;&gt;Node19</title>
<path fill="none" stroke="#63b8ff" d="M748.15,-111.69C751.12,-111.04 754.12,-110.46 757,-110 983.54,-74.17 1047.64,-107.8 1278.25,-73.96"/>
<polygon fill="#63b8ff" stroke="#63b8ff" points="1278.49,-77.47 1287.86,-72.53 1277.45,-70.54 1278.49,-77.47"/>
</g>
<!-- Node20 -->
<g id="node20" class="node">
<title>Node20</title>
<g id="a_node20"><a xlink:title=" ">
<polygon fill="#e0e0e0" stroke="#999999" points="1427.5,-74 1360.5,-74 1360.5,-55 1427.5,-55 1427.5,-74"/>
<text text-anchor="middle" x="1394" y="-62" font-family="Helvetica,sans-Serif" font-size="10.00">epoxy/glx.h</text>
</a>
</g>
</g>
<!-- Node2&#45;&gt;Node20 -->
<g id="edge19" class="edge">
<title>Node2&#45;&gt;Node20</title>
<path fill="none" stroke="#63b8ff" d="M748.15,-111.66C751.11,-111.02 754.11,-110.44 757,-110 1014.7,-70.33 1086.65,-106.66 1348.85,-74.06"/>
<polygon fill="#63b8ff" stroke="#63b8ff" points="1349.29,-77.53 1358.77,-72.8 1348.41,-70.59 1349.29,-77.53"/>
</g>
<!-- Node21 -->
<g id="node21" class="node">
<title>Node21</title>
<g id="a_node21"><a xlink:href="math__3d_8h.html" target="_top" xlink:title=" ">
<polygon fill="white" stroke="#666666" points="677,-74 615,-74 615,-55 677,-55 677,-74"/>
<text text-anchor="middle" x="646" y="-62" font-family="Helvetica,sans-Serif" font-size="10.00">math_3d.h</text>
</a>
</g>
</g>
<!-- Node2&#45;&gt;Node21 -->
<g id="edge20" class="edge">
<title>Node2&#45;&gt;Node21</title>
<path fill="none" stroke="#63b8ff" d="M709.94,-109.51C698.48,-101.62 681.57,-89.98 668.02,-80.65"/>
<polygon fill="#63b8ff" stroke="#63b8ff" points="670.34,-78 660.12,-75.22 666.37,-83.77 670.34,-78"/>
</g>
<!-- Node22 -->
<g id="node22" class="node">
<title>Node22</title>
<g id="a_node22"><a xlink:href="glwin_8h.html" target="_top" xlink:title=" ">
<polygon fill="white" stroke="#666666" points="1531.5,-74 1484.5,-74 1484.5,-55 1531.5,-55 1531.5,-74"/>
<text text-anchor="middle" x="1508" y="-62" font-family="Helvetica,sans-Serif" font-size="10.00">glwin.h</text>
</a>
</g>
</g>
<!-- Node2&#45;&gt;Node22 -->
<g id="edge23" class="edge">
<title>Node2&#45;&gt;Node22</title>
<path fill="none" stroke="#63b8ff" d="M748.14,-111.64C751.11,-111 754.11,-110.43 757,-110 1070.84,-63.3 1155.61,-116.78 1470,-74 1471.03,-73.86 1472.06,-73.71 1473.11,-73.54"/>
<polygon fill="#63b8ff" stroke="#63b8ff" points="1473.72,-76.99 1482.91,-71.71 1472.43,-70.11 1473.72,-76.99"/>
</g>
<!-- Node24 -->
<g id="node24" class="node">
<title>Node24</title>
<g id="a_node24"><a xlink:title=" ">
<polygon fill="#e0e0e0" stroke="#999999" points="1610,-74 1550,-74 1550,-55 1610,-55 1610,-74"/>
<text text-anchor="middle" x="1580" y="-62" font-family="Helvetica,sans-Serif" font-size="10.00">gtk/gtkx.h</text>
</a>
</g>
</g>
<!-- Node2&#45;&gt;Node24 -->
<g id="edge25" class="edge">
<title>Node2&#45;&gt;Node24</title>
<path fill="none" stroke="#63b8ff" d="M748.14,-111.62C751.11,-110.99 754.11,-110.42 757,-110 1098.42,-59.99 1193.12,-118.03 1538.51,-74.06"/>
<polygon fill="#63b8ff" stroke="#63b8ff" points="1538.89,-77.55 1548.35,-72.79 1537.99,-70.6 1538.89,-77.55"/>
</g>
<!-- Node21&#45;&gt;Node8 -->
<g id="edge22" class="edge">
<title>Node21&#45;&gt;Node8</title>
<path fill="none" stroke="#63b8ff" d="M630.9,-54.51C617.4,-46.47 597.35,-34.53 581.54,-25.11"/>
<polygon fill="#63b8ff" stroke="#63b8ff" points="583.56,-22.24 573.18,-20.13 579.98,-28.26 583.56,-22.24"/>
</g>
<!-- Node21&#45;&gt;Node12 -->
<g id="edge21" class="edge">
<title>Node21&#45;&gt;Node12</title>
<path fill="none" stroke="#63b8ff" d="M660.93,-54.51C674.28,-46.47 694.11,-34.53 709.74,-25.11"/>
<polygon fill="#63b8ff" stroke="#63b8ff" points="711.24,-28.3 718,-20.14 707.62,-22.3 711.24,-28.3"/>
</g>
<!-- Node23 -->
<g id="node23" class="node">
<title>Node23</title>
<g id="a_node23"><a xlink:href="ogl__shading_8h.html" target="_top" xlink:title=" ">
<polygon fill="white" stroke="#666666" points="1546.5,-19 1469.5,-19 1469.5,0 1546.5,0 1546.5,-19"/>
<text text-anchor="middle" x="1508" y="-7" font-family="Helvetica,sans-Serif" font-size="10.00">ogl_shading.h</text>
</a>
</g>
</g>
<!-- Node22&#45;&gt;Node23 -->
<g id="edge24" class="edge">
<title>Node22&#45;&gt;Node23</title>
<path fill="none" stroke="#63b8ff" d="M1508,-54.75C1508,-48.27 1508,-39.16 1508,-30.9"/>
<polygon fill="#63b8ff" stroke="#63b8ff" points="1511.5,-30.96 1508,-20.96 1504.5,-30.96 1511.5,-30.96"/>
</g>
</g>
</svg>
        <g id="navigator" transform="translate(0 0)" fill="#404254">
                <rect fill="#f2f5e9" fill-opacity="0.5" stroke="#606060" stroke-width=".5" x="0" y="0" width="60" height="60"/>
                <use id="zoomplus" xlink:href="#zoomPlus" x="17" y="9" onmousedown="handleZoom(evt,'in')"/>
                <use id="zoomminus" xlink:href="#zoomMin" x="42" y="9" onmousedown="handleZoom(evt,'out')"/>
                <use id="reset" xlink:href="#resetDef" x="30" y="36" onmousedown="handleReset()"/>
                <g id="arrowUp" xlink:href="#dirArrow" transform="translate(30 24)" onmousedown="handlePan(0,-1)">
                  <use xlink:href="#rim" fill="#404040">
                        <set attributeName="fill" to="#808080" begin="arrowUp.mouseover" end="arrowUp.mouseout"/>
                  </use>
                  <path fill="none" stroke="white" stroke-width="1.5" d="M0,-3.0v7 M-2.5,-0.5L0,-3.0L2.5,-0.5"/>
                </g>
                <g id="arrowRight" xlink:href="#dirArrow" transform="rotate(90) translate(36 -43)" onmousedown="handlePan(1,0)">
                  <use xlink:href="#rim" fill="#404040">
                        <set attributeName="fill" to="#808080" begin="arrowRight.mouseover" end="arrowRight.mouseout"/>
                  </use>
                  <path fill="none" stroke="white" stroke-width="1.5" d="M0,-3.0v7 M-2.5,-0.5L0,-3.0L2.5,-0.5"/>
                </g>
                <g id="arrowDown" xlink:href="#dirArrow" transform="rotate(180) translate(-30 -48)" onmousedown="handlePan(0,1)">
                  <use xlink:href="#rim" fill="#404040">
                        <set attributeName="fill" to="#808080" begin="arrowDown.mouseover" end="arrowDown.mouseout"/>
                  </use>
                  <path fill="none" stroke="white" stroke-width="1.5" d="M0,-3.0v7 M-2.5,-0.5L0,-3.0L2.5,-0.5"/>
                </g>
                <g id="arrowLeft" xlink:href="#dirArrow" transform="rotate(270) translate(-36 17)" onmousedown="handlePan(-1,0)">
                  <use xlink:href="#rim" fill="#404040">
                        <set attributeName="fill" to="#808080" begin="arrowLeft.mouseover" end="arrowLeft.mouseout"/>
                  </use>
                  <path fill="none" stroke="white" stroke-width="1.5" d="M0,-3.0v7 M-2.5,-0.5L0,-3.0L2.5,-0.5"/>
                </g>
        </g>
        <svg viewBox="0 0 15 15" width="100%" height="30px" preserveAspectRatio="xMaxYMin meet">
         <g id="arrow_out" transform="scale(0.3 0.3)">
          <a xlink:href="m__axis_8c__incl_org.svg" target="_base">
           <rect id="button" ry="5" rx="5" y="6" x="6" height="38" width="38"
                fill="#f2f5e9" fill-opacity="0.5" stroke="#606060" stroke-width="1.0"/>
           <path id="arrow"
             d="M 11.500037,31.436501 C 11.940474,20.09759 22.043105,11.32322 32.158766,21.979434 L 37.068811,17.246167 C 37.068811,17.246167 37.088388,32 37.088388,32 L 22.160133,31.978069 C 22.160133,31.978069 26.997745,27.140456 26.997745,27.140456 C 18.528582,18.264221 13.291696,25.230495 11.500037,31.436501 z"
             style="fill:#404040;"/>
          </a>
         </g>
        </svg>
</svg>
