<?xml version="1.0" encoding="UTF-8" standalone="no"?>
<!DOCTYPE svg PUBLIC "-//W3C//DTD SVG 1.1//EN"
 "http://www.w3.org/Graphics/SVG/1.1/DTD/svg11.dtd">
<!-- Generated by graphviz version 7.1.0 (0)
 -->
<!-- Title: ogl_shading.h Pages: 1 -->
<svg width="4077pt" height="247pt"
 viewBox="0.00 0.00 4076.50 247.00" xmlns="http://www.w3.org/2000/svg" xmlns:xlink="http://www.w3.org/1999/xlink">
<g id="graph0" class="graph" transform="scale(1 1) rotate(0) translate(4 243)">
<title>ogl_shading.h</title>
<!-- Node1 -->
<g id="node1" class="node">
<title>Node1</title>
<g id="a_node1"><a xlink:title=" ">
<polygon fill="#999999" stroke="#666666" points="1129.5,-239 1052.5,-239 1052.5,-220 1129.5,-220 1129.5,-239"/>
<text text-anchor="middle" x="1091" y="-227" font-family="Helvetica,sans-Serif" font-size="10.00">ogl_shading.h</text>
</a>
</g>
</g>
<!-- Node2 -->
<g id="node2" class="node">
<title>Node2</title>
<g id="a_node2"><a xlink:href="d__atoms_8c.html" target="_top" xlink:title=" ">
<polygon fill="white" stroke="#666666" points="62,-74 0,-74 0,-55 62,-55 62,-74"/>
<text text-anchor="middle" x="31" y="-62" font-family="Helvetica,sans-Serif" font-size="10.00">d_atoms.c</text>
</a>
</g>
</g>
<!-- Node1&#45;&gt;Node2 -->
<g id="edge1" class="edge">
<title>Node1&#45;&gt;Node2</title>
<path fill="none" stroke="#63b8ff" d="M1041.04,-222C892.7,-202.46 442.02,-141.46 71,-74 68.21,-73.49 65.31,-72.94 62.41,-72.36"/>
<polygon fill="#63b8ff" stroke="#63b8ff" points="1040.55,-225.46 1050.92,-223.3 1041.46,-218.52 1040.55,-225.46"/>
</g>
<!-- Node3 -->
<g id="node3" class="node">
<title>Node3</title>
<g id="a_node3"><a xlink:href="glwin_8h.html" target="_top" xlink:title=" ">
<polygon fill="white" stroke="#666666" points="1114.5,-184 1067.5,-184 1067.5,-165 1114.5,-165 1114.5,-184"/>
<text text-anchor="middle" x="1091" y="-172" font-family="Helvetica,sans-Serif" font-size="10.00">glwin.h</text>
</a>
</g>
</g>
<!-- Node1&#45;&gt;Node3 -->
<g id="edge2" class="edge">
<title>Node1&#45;&gt;Node3</title>
<path fill="none" stroke="#63b8ff" d="M1091,-208.35C1091,-200.1 1091,-190.97 1091,-184.44"/>
<polygon fill="#63b8ff" stroke="#63b8ff" points="1087.5,-208.23 1091,-218.23 1094.5,-208.23 1087.5,-208.23"/>
</g>
<!-- Node167 -->
<g id="node49" class="node">
<title>Node167</title>
<g id="a_node49"><a xlink:href="ogl__shading_8c.html" target="_top" xlink:title=" ">
<polygon fill="white" stroke="#666666" points="4068.5,-74 3991.5,-74 3991.5,-55 4068.5,-55 4068.5,-74"/>
<text text-anchor="middle" x="4030" y="-62" font-family="Helvetica,sans-Serif" font-size="10.00">ogl_shading.c</text>
</a>
</g>
</g>
<!-- Node1&#45;&gt;Node167 -->
<g id="edge58" class="edge">
<title>Node1&#45;&gt;Node167</title>
<path fill="none" stroke="#63b8ff" d="M1141.3,-228.1C1423.38,-225.38 2836.85,-205.5 3982,-74 3984.94,-73.66 3987.98,-73.26 3991.03,-72.81"/>
<polygon fill="#63b8ff" stroke="#63b8ff" points="1141.33,-224.6 1131.37,-228.19 1141.4,-231.6 1141.33,-224.6"/>
</g>
<!-- Node4 -->
<g id="node4" class="node">
<title>Node4</title>
<g id="a_node4"><a xlink:href="global_8h.html" target="_top" xlink:title=" ">
<polygon fill="#fff0f0" stroke="red" points="2056,-129 2006,-129 2006,-110 2056,-110 2056,-129"/>
<text text-anchor="middle" x="2031" y="-117" font-family="Helvetica,sans-Serif" font-size="10.00">global.h</text>
</a>
</g>
</g>
<!-- Node3&#45;&gt;Node4 -->
<g id="edge3" class="edge">
<title>Node3&#45;&gt;Node4</title>
<path fill="none" stroke="#63b8ff" d="M1126.02,-171.53C1277.53,-162.98 1874.87,-129.3 2005.62,-121.93"/>
<polygon fill="#63b8ff" stroke="#63b8ff" points="1126,-168.02 1116.22,-172.08 1126.4,-175.01 1126,-168.02"/>
</g>
<!-- Node187 -->
<g id="node50" class="node">
<title>Node187</title>
<g id="a_node50"><a xlink:href="save__opengl_8c.html" target="_top" xlink:title=" ">
<polygon fill="white" stroke="#666666" points="160,-74 80,-74 80,-55 160,-55 160,-74"/>
<text text-anchor="middle" x="120" y="-62" font-family="Helvetica,sans-Serif" font-size="10.00">save_opengl.c</text>
</a>
</g>
</g>
<!-- Node3&#45;&gt;Node187 -->
<g id="edge57" class="edge">
<title>Node3&#45;&gt;Node187</title>
<path fill="none" stroke="#63b8ff" d="M1080.65,-155.55C1070.8,-140.39 1054.47,-119.65 1034,-110 946.99,-68.99 264.65,-84.24 169,-74 166.17,-73.7 163.25,-73.33 160.32,-72.92"/>
<polygon fill="#63b8ff" stroke="#63b8ff" points="1077.41,-156.96 1085.61,-163.66 1083.38,-153.3 1077.41,-156.96"/>
</g>
<!-- Node4&#45;&gt;Node2 -->
<g id="edge54" class="edge">
<title>Node4&#45;&gt;Node2</title>
<path fill="none" stroke="#63b8ff" d="M1994.18,-118.08C1741.57,-115.13 268.71,-97.05 71,-74 68.18,-73.67 65.26,-73.24 62.35,-72.74"/>
<polygon fill="#63b8ff" stroke="#63b8ff" points="1994.05,-121.58 2004.09,-118.19 1994.13,-114.58 1994.05,-121.58"/>
</g>
<!-- Node5 -->
<g id="node5" class="node">
<title>Node5</title>
<g id="a_node5"><a xlink:href="amber94_8c.html" target="_top" xlink:title=" ">
<polygon fill="white" stroke="#666666" points="3389,-74 3327,-74 3327,-55 3389,-55 3389,-74"/>
<text text-anchor="middle" x="3358" y="-62" font-family="Helvetica,sans-Serif" font-size="10.00">amber94.c</text>
</a>
</g>
</g>
<!-- Node4&#45;&gt;Node5 -->
<g id="edge4" class="edge">
<title>Node4&#45;&gt;Node5</title>
<path fill="none" stroke="#63b8ff" d="M2067.64,-118.1C2250.59,-115.96 3066.38,-104.84 3318,-74 3320.82,-73.65 3323.73,-73.21 3326.64,-72.7"/>
<polygon fill="#63b8ff" stroke="#63b8ff" points="2067.75,-114.6 2057.79,-118.21 2067.83,-121.6 2067.75,-114.6"/>
</g>
<!-- Node6 -->
<g id="node6" class="node">
<title>Node6</title>
<g id="a_node6"><a xlink:href="amber96_8c.html" target="_top" xlink:title=" ">
<polygon fill="white" stroke="#666666" points="3469,-74 3407,-74 3407,-55 3469,-55 3469,-74"/>
<text text-anchor="middle" x="3438" y="-62" font-family="Helvetica,sans-Serif" font-size="10.00">amber96.c</text>
</a>
</g>
</g>
<!-- Node4&#45;&gt;Node6 -->
<g id="edge5" class="edge">
<title>Node4&#45;&gt;Node6</title>
<path fill="none" stroke="#63b8ff" d="M2067.48,-118.19C2256.88,-116.42 3129.59,-106.63 3398,-74 3400.82,-73.66 3403.73,-73.21 3406.65,-72.71"/>
<polygon fill="#63b8ff" stroke="#63b8ff" points="2067.73,-114.68 2057.77,-118.27 2067.8,-121.68 2067.73,-114.68"/>
</g>
<!-- Node7 -->
<g id="node7" class="node">
<title>Node7</title>
<g id="a_node7"><a xlink:href="amber98_8c.html" target="_top" xlink:title=" ">
<polygon fill="white" stroke="#666666" points="3549,-74 3487,-74 3487,-55 3549,-55 3549,-74"/>
<text text-anchor="middle" x="3518" y="-62" font-family="Helvetica,sans-Serif" font-size="10.00">amber98.c</text>
</a>
</g>
</g>
<!-- Node4&#45;&gt;Node7 -->
<g id="edge6" class="edge">
<title>Node4&#45;&gt;Node7</title>
<path fill="none" stroke="#63b8ff" d="M2067.72,-118.26C2264.21,-116.84 3192.96,-108.39 3478,-74 3480.82,-73.66 3483.73,-73.22 3486.65,-72.72"/>
<polygon fill="#63b8ff" stroke="#63b8ff" points="2067.85,-114.76 2057.87,-118.33 2067.89,-121.76 2067.85,-114.76"/>
</g>
<!-- Node8 -->
<g id="node8" class="node">
<title>Node8</title>
<g id="a_node8"><a xlink:href="amber99_8c.html" target="_top" xlink:title=" ">
<polygon fill="white" stroke="#666666" points="3629,-74 3567,-74 3567,-55 3629,-55 3629,-74"/>
<text text-anchor="middle" x="3598" y="-62" font-family="Helvetica,sans-Serif" font-size="10.00">amber99.c</text>
</a>
</g>
</g>
<!-- Node4&#45;&gt;Node8 -->
<g id="edge7" class="edge">
<title>Node4&#45;&gt;Node8</title>
<path fill="none" stroke="#63b8ff" d="M2067.8,-118.33C2270.86,-117.24 3256.23,-110.16 3558,-74 3560.82,-73.66 3563.73,-73.22 3566.65,-72.72"/>
<polygon fill="#63b8ff" stroke="#63b8ff" points="2067.84,-114.83 2057.86,-118.38 2067.88,-121.83 2067.84,-114.83"/>
</g>
<!-- Node9 -->
<g id="node9" class="node">
<title>Node9</title>
<g id="a_node9"><a xlink:href="arcball_8c.html" target="_top" xlink:title=" ">
<polygon fill="white" stroke="#666666" points="3700.5,-74 3647.5,-74 3647.5,-55 3700.5,-55 3700.5,-74"/>
<text text-anchor="middle" x="3674" y="-62" font-family="Helvetica,sans-Serif" font-size="10.00">arcball.c</text>
</a>
</g>
</g>
<!-- Node4&#45;&gt;Node9 -->
<g id="edge8" class="edge">
<title>Node4&#45;&gt;Node9</title>
<path fill="none" stroke="#63b8ff" d="M2067.73,-118.5C2276.92,-118.36 3319.84,-115.52 3638,-74 3641.06,-73.6 3644.23,-73.05 3647.38,-72.43"/>
<polygon fill="#63b8ff" stroke="#63b8ff" points="2067.75,-115 2057.75,-118.51 2067.75,-122 2067.75,-115"/>
</g>
<!-- Node10 -->
<g id="node10" class="node">
<title>Node10</title>
<g id="a_node10"><a xlink:href="atom__edit_8h.html" target="_top" xlink:title=" ">
<polygon fill="#fff0f0" stroke="red" points="3905,-74 3837,-74 3837,-55 3905,-55 3905,-74"/>
<text text-anchor="middle" x="3871" y="-62" font-family="Helvetica,sans-Serif" font-size="10.00">atom_edit.h</text>
</a>
</g>
</g>
<!-- Node4&#45;&gt;Node10 -->
<g id="edge9" class="edge">
<title>Node4&#45;&gt;Node10</title>
<path fill="none" stroke="#63b8ff" d="M2067.74,-118.44C2291.12,-117.97 3469.16,-113.62 3828,-74 3830.87,-73.68 3833.84,-73.27 3836.81,-72.8"/>
<polygon fill="#63b8ff" stroke="#63b8ff" points="2067.9,-114.94 2057.91,-118.46 2067.91,-121.94 2067.9,-114.94"/>
</g>
<!-- Node21 -->
<g id="node11" class="node">
<title>Node21</title>
<g id="a_node11"><a xlink:href="callbacks_8c.html" target="_top" xlink:title=" ">
<polygon fill="white" stroke="#666666" points="3821,-19 3755,-19 3755,0 3821,0 3821,-19"/>
<text text-anchor="middle" x="3788" y="-7" font-family="Helvetica,sans-Serif" font-size="10.00">callbacks.c</text>
</a>
</g>
</g>
<!-- Node4&#45;&gt;Node21 -->
<g id="edge14" class="edge">
<title>Node4&#45;&gt;Node21</title>
<path fill="none" stroke="#63b8ff" d="M2067.83,-118.2C2306.8,-116.15 3630.42,-103.49 3710,-74 3740.78,-62.59 3768.42,-33.69 3780.93,-19.15"/>
<polygon fill="#63b8ff" stroke="#63b8ff" points="2067.84,-114.7 2057.87,-118.28 2067.9,-121.7 2067.84,-114.7"/>
</g>
<!-- Node30 -->
<g id="node12" class="node">
<title>Node30</title>
<g id="a_node12"><a xlink:href="bdcall_8c.html" target="_top" xlink:title=" ">
<polygon fill="white" stroke="#666666" points="3973,-74 3923,-74 3923,-55 3973,-55 3973,-74"/>
<text text-anchor="middle" x="3948" y="-62" font-family="Helvetica,sans-Serif" font-size="10.00">bdcall.c</text>
</a>
</g>
</g>
<!-- Node4&#45;&gt;Node30 -->
<g id="edge11" class="edge">
<title>Node4&#45;&gt;Node30</title>
<path fill="none" stroke="#63b8ff" d="M2067.91,-118.12C2314.99,-115.51 3724.89,-99.55 3914,-74 3916.89,-73.61 3919.9,-73.07 3922.87,-72.44"/>
<polygon fill="#63b8ff" stroke="#63b8ff" points="2067.87,-114.62 2057.91,-118.22 2067.95,-121.62 2067.87,-114.62"/>
</g>
<!-- Node31 -->
<g id="node13" class="node">
<title>Node31</title>
<g id="a_node13"><a xlink:href="calc_8c.html" target="_top" xlink:title=" ">
<polygon fill="white" stroke="#666666" points="221.5,-74 178.5,-74 178.5,-55 221.5,-55 221.5,-74"/>
<text text-anchor="middle" x="200" y="-62" font-family="Helvetica,sans-Serif" font-size="10.00">calc.c</text>
</a>
</g>
</g>
<!-- Node4&#45;&gt;Node31 -->
<g id="edge12" class="edge">
<title>Node4&#45;&gt;Node31</title>
<path fill="none" stroke="#63b8ff" d="M1994.59,-118.13C1755.22,-115.64 411.2,-100.53 231,-74 228.02,-73.56 224.92,-72.93 221.88,-72.21"/>
<polygon fill="#63b8ff" stroke="#63b8ff" points="1994.21,-121.63 2004.24,-118.23 1994.28,-114.63 1994.21,-121.63"/>
</g>
<!-- Node32 -->
<g id="node14" class="node">
<title>Node32</title>
<g id="a_node14"><a xlink:href="calc__menu_8c.html" target="_top" xlink:title=" ">
<polygon fill="white" stroke="#666666" points="312,-74 240,-74 240,-55 312,-55 312,-74"/>
<text text-anchor="middle" x="276" y="-62" font-family="Helvetica,sans-Serif" font-size="10.00">calc_menu.c</text>
</a>
</g>
</g>
<!-- Node4&#45;&gt;Node32 -->
<g id="edge13" class="edge">
<title>Node4&#45;&gt;Node32</title>
<path fill="none" stroke="#63b8ff" d="M1994.47,-118.25C1778.44,-116.7 666.04,-107.17 326,-74 321.53,-73.56 316.86,-72.96 312.24,-72.28"/>
<polygon fill="#63b8ff" stroke="#63b8ff" points="1994.21,-121.75 2004.24,-118.32 1994.26,-114.75 1994.21,-121.75"/>
</g>
<!-- Node33 -->
<g id="node15" class="node">
<title>Node33</title>
<g id="a_node15"><a xlink:href="cbuild__action_8c.html" target="_top" xlink:title=" ">
<polygon fill="white" stroke="#666666" points="343,-19 261,-19 261,0 343,0 343,-19"/>
<text text-anchor="middle" x="302" y="-7" font-family="Helvetica,sans-Serif" font-size="10.00">cbuild_action.c</text>
</a>
</g>
</g>
<!-- Node4&#45;&gt;Node33 -->
<g id="edge15" class="edge">
<title>Node4&#45;&gt;Node33</title>
<path fill="none" stroke="#63b8ff" d="M1994.16,-118.15C1757.96,-115.8 463.35,-101.72 385,-74 352.84,-62.62 323.15,-33.71 309.65,-19.15"/>
<polygon fill="#63b8ff" stroke="#63b8ff" points="1993.96,-121.64 2004,-118.24 1994.03,-114.65 1993.96,-121.64"/>
</g>
<!-- Node34 -->
<g id="node16" class="node">
<title>Node34</title>
<g id="a_node16"><a xlink:href="cbuild__edit_8c.html" target="_top" xlink:title=" ">
<polygon fill="white" stroke="#666666" points="432.5,-19 361.5,-19 361.5,0 432.5,0 432.5,-19"/>
<text text-anchor="middle" x="397" y="-7" font-family="Helvetica,sans-Serif" font-size="10.00">cbuild_edit.c</text>
</a>
</g>
</g>
<!-- Node4&#45;&gt;Node34 -->
<g id="edge16" class="edge">
<title>Node4&#45;&gt;Node34</title>
<path fill="none" stroke="#63b8ff" d="M1994.34,-118.2C1755.18,-116.18 425.82,-103.61 397,-74 382.85,-59.46 389.04,-33.02 393.64,-19.29"/>
<polygon fill="#63b8ff" stroke="#63b8ff" points="1994.28,-121.7 2004.3,-118.29 1994.33,-114.7 1994.28,-121.7"/>
</g>
<!-- Node35 -->
<g id="node17" class="node">
<title>Node35</title>
<g id="a_node17"><a xlink:href="cbuild__edit_8h.html" target="_top" xlink:title=" ">
<polygon fill="#fff0f0" stroke="red" points="477.5,-74 406.5,-74 406.5,-55 477.5,-55 477.5,-74"/>
<text text-anchor="middle" x="442" y="-62" font-family="Helvetica,sans-Serif" font-size="10.00">cbuild_edit.h</text>
</a>
</g>
</g>
<!-- Node4&#45;&gt;Node35 -->
<g id="edge17" class="edge">
<title>Node4&#45;&gt;Node35</title>
<path fill="none" stroke="#63b8ff" d="M1994.26,-118.13C1790.46,-116 796.99,-104.18 492,-74 487.44,-73.55 482.68,-72.93 477.97,-72.23"/>
<polygon fill="#63b8ff" stroke="#63b8ff" points="1994.2,-121.63 2004.24,-118.24 1994.27,-114.63 1994.2,-121.63"/>
</g>
<!-- Node36 -->
<g id="node18" class="node">
<title>Node36</title>
<g id="a_node18"><a xlink:href="cbuild__info_8c.html" target="_top" xlink:title=" ">
<polygon fill="white" stroke="#666666" points="521.5,-19 450.5,-19 450.5,0 521.5,0 521.5,-19"/>
<text text-anchor="middle" x="486" y="-7" font-family="Helvetica,sans-Serif" font-size="10.00">cbuild_info.c</text>
</a>
</g>
</g>
<!-- Node4&#45;&gt;Node36 -->
<g id="edge22" class="edge">
<title>Node4&#45;&gt;Node36</title>
<path fill="none" stroke="#63b8ff" d="M1994.49,-118.14C1773.45,-115.84 621.55,-102.52 553,-74 525.18,-62.42 502.09,-33.6 491.78,-19.11"/>
<polygon fill="#63b8ff" stroke="#63b8ff" points="1994.18,-121.63 2004.22,-118.24 1994.25,-114.63 1994.18,-121.63"/>
</g>
<!-- Node37 -->
<g id="node19" class="node">
<title>Node37</title>
<g id="a_node19"><a xlink:href="cbuild__sg_8c.html" target="_top" xlink:title=" ">
<polygon fill="white" stroke="#666666" points="606,-19 540,-19 540,0 606,0 606,-19"/>
<text text-anchor="middle" x="573" y="-7" font-family="Helvetica,sans-Serif" font-size="10.00">cbuild_sg.c</text>
</a>
</g>
</g>
<!-- Node4&#45;&gt;Node37 -->
<g id="edge23" class="edge">
<title>Node4&#45;&gt;Node37</title>
<path fill="none" stroke="#63b8ff" d="M1994.27,-118.09C1769.54,-115.47 588.7,-100.49 563,-74 548.7,-59.26 560.12,-32.91 567.68,-19.25"/>
<polygon fill="#63b8ff" stroke="#63b8ff" points="1994.14,-121.59 2004.18,-118.2 1994.22,-114.59 1994.14,-121.59"/>
</g>
<!-- Node42 -->
<g id="node20" class="node">
<title>Node42</title>
<g id="a_node20"><a xlink:href="cedit_8c.html" target="_top" xlink:title=" ">
<polygon fill="white" stroke="#666666" points="618,-74 572,-74 572,-55 618,-55 618,-74"/>
<text text-anchor="middle" x="595" y="-62" font-family="Helvetica,sans-Serif" font-size="10.00">cedit.c</text>
</a>
</g>
</g>
<!-- Node4&#45;&gt;Node42 -->
<g id="edge24" class="edge">
<title>Node4&#45;&gt;Node42</title>
<path fill="none" stroke="#63b8ff" d="M1994.12,-118.47C1800.73,-118.12 902.05,-114.35 627,-74 624.16,-73.58 621.2,-73 618.29,-72.34"/>
<polygon fill="#63b8ff" stroke="#63b8ff" points="1994.06,-121.97 2004.06,-118.48 1994.07,-114.97 1994.06,-121.97"/>
</g>
<!-- Node43 -->
<g id="node21" class="node">
<title>Node43</title>
<g id="a_node21"><a xlink:href="cedit_8h.html" target="_top" xlink:title=" ">
<polygon fill="#fff0f0" stroke="red" points="682,-74 636,-74 636,-55 682,-55 682,-74"/>
<text text-anchor="middle" x="659" y="-62" font-family="Helvetica,sans-Serif" font-size="10.00">cedit.h</text>
</a>
</g>
</g>
<!-- Node4&#45;&gt;Node43 -->
<g id="edge25" class="edge">
<title>Node4&#45;&gt;Node43</title>
<path fill="none" stroke="#63b8ff" d="M1994.32,-118.4C1806.69,-117.74 952.8,-112.61 691,-74 688.16,-73.58 685.2,-73 682.29,-72.34"/>
<polygon fill="#63b8ff" stroke="#63b8ff" points="1994.18,-121.9 2004.19,-118.44 1994.2,-114.9 1994.18,-121.9"/>
</g>
<!-- Node51 -->
<g id="node22" class="node">
<title>Node51</title>
<g id="a_node22"><a xlink:href="cell__edit_8h.html" target="_top" xlink:title=" ">
<polygon fill="#fff0f0" stroke="red" points="3818.5,-74 3757.5,-74 3757.5,-55 3818.5,-55 3818.5,-74"/>
<text text-anchor="middle" x="3788" y="-62" font-family="Helvetica,sans-Serif" font-size="10.00">cell_edit.h</text>
</a>
</g>
</g>
<!-- Node4&#45;&gt;Node51 -->
<g id="edge26" class="edge">
<title>Node4&#45;&gt;Node51</title>
<path fill="none" stroke="#63b8ff" d="M2067.69,-118.35C2284.66,-117.34 3401.88,-110.41 3743,-74 3747.59,-73.51 3752.4,-72.81 3757.11,-72.01"/>
<polygon fill="#63b8ff" stroke="#63b8ff" points="2067.86,-114.85 2057.87,-118.39 2067.89,-121.85 2067.86,-114.85"/>
</g>
<!-- Node56 -->
<g id="node23" class="node">
<title>Node56</title>
<g id="a_node23"><a xlink:href="cff91_8c.html" target="_top" xlink:title=" ">
<polygon fill="white" stroke="#666666" points="746,-74 700,-74 700,-55 746,-55 746,-74"/>
<text text-anchor="middle" x="723" y="-62" font-family="Helvetica,sans-Serif" font-size="10.00">cff91.c</text>
</a>
</g>
</g>
<!-- Node4&#45;&gt;Node56 -->
<g id="edge28" class="edge">
<title>Node4&#45;&gt;Node56</title>
<path fill="none" stroke="#63b8ff" d="M1994.35,-118.33C1812.22,-117.33 1003.49,-110.86 755,-74 752.16,-73.58 749.2,-73 746.29,-72.33"/>
<polygon fill="#63b8ff" stroke="#63b8ff" points="1994.13,-121.83 2004.15,-118.38 1994.16,-114.83 1994.13,-121.83"/>
</g>
<!-- Node57 -->
<g id="node24" class="node">
<title>Node57</title>
<g id="a_node24"><a xlink:href="chainscall_8c.html" target="_top" xlink:title=" ">
<polygon fill="white" stroke="#666666" points="832,-74 764,-74 764,-55 832,-55 832,-74"/>
<text text-anchor="middle" x="798" y="-62" font-family="Helvetica,sans-Serif" font-size="10.00">chainscall.c</text>
</a>
</g>
</g>
<!-- Node4&#45;&gt;Node57 -->
<g id="edge29" class="edge">
<title>Node4&#45;&gt;Node57</title>
<path fill="none" stroke="#63b8ff" d="M1994.67,-117.91C1820.82,-115 1072.73,-101.07 841,-74 838.13,-73.66 835.16,-73.24 832.19,-72.76"/>
<polygon fill="#63b8ff" stroke="#63b8ff" points="1994.39,-121.41 2004.44,-118.08 1994.5,-114.41 1994.39,-121.41"/>
</g>
<!-- Node58 -->
<g id="node25" class="node">
<title>Node58</title>
<g id="a_node25"><a xlink:href="charmm22__prot_8c.html" target="_top" xlink:title=" ">
<polygon fill="white" stroke="#666666" points="942,-74 850,-74 850,-55 942,-55 942,-74"/>
<text text-anchor="middle" x="896" y="-62" font-family="Helvetica,sans-Serif" font-size="10.00">charmm22_prot.c</text>
</a>
</g>
</g>
<!-- Node4&#45;&gt;Node58 -->
<g id="edge30" class="edge">
<title>Node4&#45;&gt;Node58</title>
<path fill="none" stroke="#63b8ff" d="M1994.36,-118.48C1856.91,-118.08 1358.93,-113.8 951,-74 948.21,-73.73 945.35,-73.41 942.46,-73.06"/>
<polygon fill="#63b8ff" stroke="#63b8ff" points="1994.29,-121.98 2004.3,-118.5 1994.31,-114.98 1994.29,-121.98"/>
</g>
<!-- Node59 -->
<g id="node26" class="node">
<title>Node59</title>
<g id="a_node26"><a xlink:href="charmm22__prot__metals_8c.html" target="_top" xlink:title=" ">
<polygon fill="white" stroke="#666666" points="1087.5,-74 960.5,-74 960.5,-55 1087.5,-55 1087.5,-74"/>
<text text-anchor="middle" x="1024" y="-62" font-family="Helvetica,sans-Serif" font-size="10.00">charmm22_prot_metals.c</text>
</a>
</g>
</g>
<!-- Node4&#45;&gt;Node59 -->
<g id="edge31" class="edge">
<title>Node4&#45;&gt;Node59</title>
<path fill="none" stroke="#63b8ff" d="M1994.53,-117.66C1869.36,-114.58 1445.74,-102.58 1097,-74 1093.95,-73.75 1090.83,-73.47 1087.68,-73.17"/>
<polygon fill="#63b8ff" stroke="#63b8ff" points="1994.1,-121.15 2004.18,-117.89 1994.27,-114.15 1994.1,-121.15"/>
</g>
<!-- Node60 -->
<g id="node27" class="node">
<title>Node60</title>
<g id="a_node27"><a xlink:href="charmm35__ethers_8c.html" target="_top" xlink:title=" ">
<polygon fill="white" stroke="#666666" points="1208.5,-74 1105.5,-74 1105.5,-55 1208.5,-55 1208.5,-74"/>
<text text-anchor="middle" x="1157" y="-62" font-family="Helvetica,sans-Serif" font-size="10.00">charmm35_ethers.c</text>
</a>
</g>
</g>
<!-- Node4&#45;&gt;Node60 -->
<g id="edge32" class="edge">
<title>Node4&#45;&gt;Node60</title>
<path fill="none" stroke="#63b8ff" d="M1994.42,-117.59C1879.72,-114.5 1516.96,-102.96 1218,-74 1215.02,-73.71 1211.96,-73.38 1208.88,-73.03"/>
<polygon fill="#63b8ff" stroke="#63b8ff" points="1994.05,-121.08 2004.14,-117.85 1994.24,-114.08 1994.05,-121.08"/>
</g>
<!-- Node61 -->
<g id="node28" class="node">
<title>Node61</title>
<g id="a_node28"><a xlink:href="charmm36__carb_8c.html" target="_top" xlink:title=" ">
<polygon fill="white" stroke="#666666" points="1321.5,-74 1226.5,-74 1226.5,-55 1321.5,-55 1321.5,-74"/>
<text text-anchor="middle" x="1274" y="-62" font-family="Helvetica,sans-Serif" font-size="10.00">charmm36_carb.c</text>
</a>
</g>
</g>
<!-- Node4&#45;&gt;Node61 -->
<g id="edge33" class="edge">
<title>Node4&#45;&gt;Node61</title>
<path fill="none" stroke="#63b8ff" d="M1994.08,-117.25C1889.72,-113.49 1583.76,-100.83 1331,-74 1328.02,-73.68 1324.95,-73.32 1321.86,-72.94"/>
<polygon fill="#63b8ff" stroke="#63b8ff" points="1993.88,-120.75 2003.99,-117.6 1994.13,-113.75 1993.88,-120.75"/>
</g>
<!-- Node62 -->
<g id="node29" class="node">
<title>Node62</title>
<g id="a_node29"><a xlink:href="charmm36__cgenff_8c.html" target="_top" xlink:title=" ">
<polygon fill="white" stroke="#666666" points="1442,-74 1340,-74 1340,-55 1442,-55 1442,-74"/>
<text text-anchor="middle" x="1391" y="-62" font-family="Helvetica,sans-Serif" font-size="10.00">charmm36_cgenff.c</text>
</a>
</g>
</g>
<!-- Node4&#45;&gt;Node62 -->
<g id="edge34" class="edge">
<title>Node4&#45;&gt;Node62</title>
<path fill="none" stroke="#63b8ff" d="M1994.14,-116.46C1902.37,-111.21 1656.33,-96.07 1452,-74 1448.81,-73.66 1445.53,-73.28 1442.23,-72.87"/>
<polygon fill="#63b8ff" stroke="#63b8ff" points="1993.86,-119.95 2004.04,-117.02 1994.25,-112.96 1993.86,-119.95"/>
</g>
<!-- Node63 -->
<g id="node30" class="node">
<title>Node63</title>
<g id="a_node30"><a xlink:href="charmm36__lipid_8c.html" target="_top" xlink:title=" ">
<polygon fill="white" stroke="#666666" points="1553.5,-74 1460.5,-74 1460.5,-55 1553.5,-55 1553.5,-74"/>
<text text-anchor="middle" x="1507" y="-62" font-family="Helvetica,sans-Serif" font-size="10.00">charmm36_lipid.c</text>
</a>
</g>
</g>
<!-- Node4&#45;&gt;Node63 -->
<g id="edge35" class="edge">
<title>Node4&#45;&gt;Node63</title>
<path fill="none" stroke="#63b8ff" d="M1994.33,-115.71C1915.33,-109.56 1723.26,-93.77 1563,-74 1559.97,-73.63 1556.86,-73.22 1553.72,-72.79"/>
<polygon fill="#63b8ff" stroke="#63b8ff" points="1993.83,-119.19 2004.07,-116.47 1994.37,-112.21 1993.83,-119.19"/>
</g>
<!-- Node64 -->
<g id="node31" class="node">
<title>Node64</title>
<g id="a_node31"><a xlink:href="charmm36__na_8c.html" target="_top" xlink:title=" ">
<polygon fill="white" stroke="#666666" points="1658,-74 1572,-74 1572,-55 1658,-55 1658,-74"/>
<text text-anchor="middle" x="1615" y="-62" font-family="Helvetica,sans-Serif" font-size="10.00">charmm36_na.c</text>
</a>
</g>
</g>
<!-- Node4&#45;&gt;Node64 -->
<g id="edge36" class="edge">
<title>Node4&#45;&gt;Node64</title>
<path fill="none" stroke="#63b8ff" d="M1994.45,-114.53C1928.79,-107.28 1786.56,-91.07 1667,-74 1664.19,-73.6 1661.3,-73.17 1658.39,-72.73"/>
<polygon fill="#63b8ff" stroke="#63b8ff" points="1993.97,-117.99 2004.3,-115.61 1994.74,-111.04 1993.97,-117.99"/>
</g>
<!-- Node65 -->
<g id="node32" class="node">
<title>Node65</title>
<g id="a_node32"><a xlink:href="charmm36__prot_8c.html" target="_top" xlink:title=" ">
<polygon fill="white" stroke="#666666" points="1768,-74 1676,-74 1676,-55 1768,-55 1768,-74"/>
<text text-anchor="middle" x="1722" y="-62" font-family="Helvetica,sans-Serif" font-size="10.00">charmm36_prot.c</text>
</a>
</g>
</g>
<!-- Node4&#45;&gt;Node65 -->
<g id="edge37" class="edge">
<title>Node4&#45;&gt;Node65</title>
<path fill="none" stroke="#63b8ff" d="M1994.52,-112.24C1938.23,-102.59 1830.24,-84.07 1768.45,-73.47"/>
<polygon fill="#63b8ff" stroke="#63b8ff" points="1993.77,-115.67 2004.22,-113.91 1994.96,-108.77 1993.77,-115.67"/>
</g>
<!-- Node66 -->
<g id="node33" class="node">
<title>Node66</title>
<g id="a_node33"><a xlink:href="charmm36__prot__metals_8c.html" target="_top" xlink:title=" ">
<polygon fill="white" stroke="#666666" points="1913.5,-74 1786.5,-74 1786.5,-55 1913.5,-55 1913.5,-74"/>
<text text-anchor="middle" x="1850" y="-62" font-family="Helvetica,sans-Serif" font-size="10.00">charmm36_prot_metals.c</text>
</a>
</g>
</g>
<!-- Node4&#45;&gt;Node66 -->
<g id="edge38" class="edge">
<title>Node4&#45;&gt;Node66</title>
<path fill="none" stroke="#63b8ff" d="M1995.15,-108C1961.71,-98.21 1912.36,-83.76 1880.7,-74.49"/>
<polygon fill="#63b8ff" stroke="#63b8ff" points="1993.8,-111.25 2004.38,-110.71 1995.77,-104.54 1993.8,-111.25"/>
</g>
<!-- Node67 -->
<g id="node34" class="node">
<title>Node67</title>
<g id="a_node34"><a xlink:href="charmm__silicates_8c.html" target="_top" xlink:title=" ">
<polygon fill="white" stroke="#666666" points="2032.5,-74 1931.5,-74 1931.5,-55 2032.5,-55 2032.5,-74"/>
<text text-anchor="middle" x="1982" y="-62" font-family="Helvetica,sans-Serif" font-size="10.00">charmm_silicates.c</text>
</a>
</g>
</g>
<!-- Node4&#45;&gt;Node67 -->
<g id="edge39" class="edge">
<title>Node4&#45;&gt;Node67</title>
<path fill="none" stroke="#63b8ff" d="M2015.28,-101.5C2006.96,-92.5 1997.09,-81.82 1990.27,-74.44"/>
<polygon fill="#63b8ff" stroke="#63b8ff" points="2012.52,-103.67 2021.88,-108.64 2017.66,-98.92 2012.52,-103.67"/>
</g>
<!-- Node68 -->
<g id="node35" class="node">
<title>Node68</title>
<g id="a_node35"><a xlink:href="close__p_8c.html" target="_top" xlink:title=" ">
<polygon fill="white" stroke="#666666" points="2109.5,-74 2050.5,-74 2050.5,-55 2109.5,-55 2109.5,-74"/>
<text text-anchor="middle" x="2080" y="-62" font-family="Helvetica,sans-Serif" font-size="10.00">close_p.c</text>
</a>
</g>
</g>
<!-- Node4&#45;&gt;Node68 -->
<g id="edge40" class="edge">
<title>Node4&#45;&gt;Node68</title>
<path fill="none" stroke="#63b8ff" d="M2046.72,-101.5C2055.04,-92.5 2064.91,-81.82 2071.73,-74.44"/>
<polygon fill="#63b8ff" stroke="#63b8ff" points="2044.34,-98.92 2040.12,-108.64 2049.48,-103.67 2044.34,-98.92"/>
</g>
<!-- Node69 -->
<g id="node36" class="node">
<title>Node69</title>
<g id="a_node36"><a xlink:href="color__box_8c.html" target="_top" xlink:title=" ">
<polygon fill="white" stroke="#666666" points="2194.5,-74 2127.5,-74 2127.5,-55 2194.5,-55 2194.5,-74"/>
<text text-anchor="middle" x="2161" y="-62" font-family="Helvetica,sans-Serif" font-size="10.00">color_box.c</text>
</a>
</g>
</g>
<!-- Node4&#45;&gt;Node69 -->
<g id="edge41" class="edge">
<title>Node4&#45;&gt;Node69</title>
<path fill="none" stroke="#63b8ff" d="M2063.64,-105.19C2087.29,-95.55 2118.62,-82.78 2139.27,-74.36"/>
<polygon fill="#63b8ff" stroke="#63b8ff" points="2062.39,-101.92 2054.45,-108.94 2065.04,-108.4 2062.39,-101.92"/>
</g>
<!-- Node70 -->
<g id="node37" class="node">
<title>Node70</title>
<g id="a_node37"><a xlink:href="compass_8c.html" target="_top" xlink:title=" ">
<polygon fill="white" stroke="#666666" points="2277.5,-74 2212.5,-74 2212.5,-55 2277.5,-55 2277.5,-74"/>
<text text-anchor="middle" x="2245" y="-62" font-family="Helvetica,sans-Serif" font-size="10.00">compass.c</text>
</a>
</g>
</g>
<!-- Node4&#45;&gt;Node70 -->
<g id="edge42" class="edge">
<title>Node4&#45;&gt;Node70</title>
<path fill="none" stroke="#63b8ff" d="M2067.41,-109.48C2108.05,-99.42 2173.24,-83.27 2212.31,-73.6"/>
<polygon fill="#63b8ff" stroke="#63b8ff" points="2066.72,-106.05 2057.86,-111.85 2068.41,-112.84 2066.72,-106.05"/>
</g>
<!-- Node71 -->
<g id="node38" class="node">
<title>Node71</title>
<g id="a_node38"><a xlink:href="cp2k__basis_8c.html" target="_top" xlink:title=" ">
<polygon fill="white" stroke="#666666" points="2370,-74 2296,-74 2296,-55 2370,-55 2370,-74"/>
<text text-anchor="middle" x="2333" y="-62" font-family="Helvetica,sans-Serif" font-size="10.00">cp2k_basis.c</text>
</a>
</g>
</g>
<!-- Node4&#45;&gt;Node71 -->
<g id="edge43" class="edge">
<title>Node4&#45;&gt;Node71</title>
<path fill="none" stroke="#63b8ff" d="M2067.57,-112.27C2117.26,-103.77 2208.9,-88 2287,-74 2289.88,-73.48 2292.86,-72.95 2295.85,-72.4"/>
<polygon fill="#63b8ff" stroke="#63b8ff" points="2067.21,-108.78 2057.94,-113.91 2068.39,-115.68 2067.21,-108.78"/>
</g>
<!-- Node72 -->
<g id="node39" class="node">
<title>Node72</title>
<g id="a_node39"><a xlink:href="cp2k__files_8c.html" target="_top" xlink:title=" ">
<polygon fill="white" stroke="#666666" points="2457.5,-74 2388.5,-74 2388.5,-55 2457.5,-55 2457.5,-74"/>
<text text-anchor="middle" x="2423" y="-62" font-family="Helvetica,sans-Serif" font-size="10.00">cp2k_files.c</text>
</a>
</g>
</g>
<!-- Node4&#45;&gt;Node72 -->
<g id="edge44" class="edge">
<title>Node4&#45;&gt;Node72</title>
<path fill="none" stroke="#63b8ff" d="M2067.8,-114.57C2131.41,-107.61 2266,-92.12 2379,-74 2382.07,-73.51 2385.26,-72.96 2388.45,-72.39"/>
<polygon fill="#63b8ff" stroke="#63b8ff" points="2067.47,-111.09 2057.91,-115.65 2068.23,-118.05 2067.47,-111.09"/>
</g>
<!-- Node73 -->
<g id="node40" class="node">
<title>Node73</title>
<g id="a_node40"><a xlink:href="cp2k__gth-basis_8c.html" target="_top" xlink:title=" ">
<polygon fill="white" stroke="#666666" points="2566.5,-74 2475.5,-74 2475.5,-55 2566.5,-55 2566.5,-74"/>
<text text-anchor="middle" x="2521" y="-62" font-family="Helvetica,sans-Serif" font-size="10.00">cp2k_gth&#45;basis.c</text>
</a>
</g>
</g>
<!-- Node4&#45;&gt;Node73 -->
<g id="edge45" class="edge">
<title>Node4&#45;&gt;Node73</title>
<path fill="none" stroke="#63b8ff" d="M2067.24,-115.47C2142.07,-109.07 2319.1,-93.17 2467,-74 2469.64,-73.66 2472.34,-73.29 2475.07,-72.9"/>
<polygon fill="#63b8ff" stroke="#63b8ff" points="2067.3,-111.96 2057.63,-116.29 2067.89,-118.93 2067.3,-111.96"/>
</g>
<!-- Node74 -->
<g id="node41" class="node">
<title>Node74</title>
<g id="a_node41"><a xlink:href="cp2k__init_8c.html" target="_top" xlink:title=" ">
<polygon fill="white" stroke="#666666" points="2649,-74 2585,-74 2585,-55 2649,-55 2649,-74"/>
<text text-anchor="middle" x="2617" y="-62" font-family="Helvetica,sans-Serif" font-size="10.00">cp2k_init.c</text>
</a>
</g>
</g>
<!-- Node4&#45;&gt;Node74 -->
<g id="edge46" class="edge">
<title>Node4&#45;&gt;Node74</title>
<path fill="none" stroke="#63b8ff" d="M2067.87,-117.06C2156.06,-113.26 2385.97,-101.35 2576,-74 2578.88,-73.59 2581.86,-73.09 2584.84,-72.56"/>
<polygon fill="#63b8ff" stroke="#63b8ff" points="2067.74,-113.56 2057.9,-117.47 2068.04,-120.55 2067.74,-113.56"/>
</g>
<!-- Node75 -->
<g id="node42" class="node">
<title>Node75</title>
<g id="a_node42"><a xlink:href="cp2k__mol_8c.html" target="_top" xlink:title=" ">
<polygon fill="white" stroke="#666666" points="2734.5,-74 2667.5,-74 2667.5,-55 2734.5,-55 2734.5,-74"/>
<text text-anchor="middle" x="2701" y="-62" font-family="Helvetica,sans-Serif" font-size="10.00">cp2k_mol.c</text>
</a>
</g>
</g>
<!-- Node4&#45;&gt;Node75 -->
<g id="edge47" class="edge">
<title>Node4&#45;&gt;Node75</title>
<path fill="none" stroke="#63b8ff" d="M2067.99,-117.48C2165.12,-114.45 2435.24,-103.8 2658,-74 2661.02,-73.6 2664.14,-73.11 2667.26,-72.58"/>
<polygon fill="#63b8ff" stroke="#63b8ff" points="2067.9,-113.98 2058.01,-117.78 2068.11,-120.98 2067.9,-113.98"/>
</g>
<!-- Node76 -->
<g id="node43" class="node">
<title>Node76</title>
<g id="a_node43"><a xlink:href="cp2k__molopt-basis_8c.html" target="_top" xlink:title=" ">
<polygon fill="white" stroke="#666666" points="2859.5,-74 2752.5,-74 2752.5,-55 2859.5,-55 2859.5,-74"/>
<text text-anchor="middle" x="2806" y="-62" font-family="Helvetica,sans-Serif" font-size="10.00">cp2k_molopt&#45;basis.c</text>
</a>
</g>
</g>
<!-- Node4&#45;&gt;Node76 -->
<g id="edge48" class="edge">
<title>Node4&#45;&gt;Node76</title>
<path fill="none" stroke="#63b8ff" d="M2067.54,-117.17C2172.78,-113.15 2485.53,-99.75 2744,-74 2746.7,-73.73 2749.47,-73.43 2752.26,-73.11"/>
<polygon fill="#63b8ff" stroke="#63b8ff" points="2067.69,-113.67 2057.83,-117.54 2067.95,-120.66 2067.69,-113.67"/>
</g>
<!-- Node77 -->
<g id="node44" class="node">
<title>Node77</title>
<g id="a_node44"><a xlink:href="cp2k__pot_8c.html" target="_top" xlink:title=" ">
<polygon fill="white" stroke="#666666" points="2942.5,-74 2877.5,-74 2877.5,-55 2942.5,-55 2942.5,-74"/>
<text text-anchor="middle" x="2910" y="-62" font-family="Helvetica,sans-Serif" font-size="10.00">cp2k_pot.c</text>
</a>
</g>
</g>
<!-- Node4&#45;&gt;Node77 -->
<g id="edge49" class="edge">
<title>Node4&#45;&gt;Node77</title>
<path fill="none" stroke="#63b8ff" d="M2068,-118.53C2185.62,-118.19 2561.3,-113.83 2869,-74 2871.74,-73.65 2874.57,-73.21 2877.4,-72.72"/>
<polygon fill="#63b8ff" stroke="#63b8ff" points="2068,-115.03 2058.01,-118.55 2068.02,-122.03 2068,-115.03"/>
</g>
<!-- Node78 -->
<g id="node45" class="node">
<title>Node78</title>
<g id="a_node45"><a xlink:href="cp2k__print_8c.html" target="_top" xlink:title=" ">
<polygon fill="white" stroke="#666666" points="3031,-74 2961,-74 2961,-55 3031,-55 3031,-74"/>
<text text-anchor="middle" x="2996" y="-62" font-family="Helvetica,sans-Serif" font-size="10.00">cp2k_print.c</text>
</a>
</g>
</g>
<!-- Node4&#45;&gt;Node78 -->
<g id="edge50" class="edge">
<title>Node4&#45;&gt;Node78</title>
<path fill="none" stroke="#63b8ff" d="M2067.86,-118.6C2192.59,-118.54 2610.14,-115.07 2952,-74 2954.78,-73.67 2957.65,-73.26 2960.53,-72.8"/>
<polygon fill="#63b8ff" stroke="#63b8ff" points="2067.9,-115.1 2057.9,-118.6 2067.9,-122.1 2067.9,-115.1"/>
</g>
<!-- Node79 -->
<g id="node46" class="node">
<title>Node79</title>
<g id="a_node46"><a xlink:href="cpmd__atoms_8c.html" target="_top" xlink:title=" ">
<polygon fill="white" stroke="#666666" points="3130.5,-74 3049.5,-74 3049.5,-55 3130.5,-55 3130.5,-74"/>
<text text-anchor="middle" x="3090" y="-62" font-family="Helvetica,sans-Serif" font-size="10.00">cpmd_atoms.c</text>
</a>
</g>
</g>
<!-- Node4&#45;&gt;Node79 -->
<g id="edge51" class="edge">
<title>Node4&#45;&gt;Node79</title>
<path fill="none" stroke="#63b8ff" d="M2067.82,-118.53C2199.83,-118.27 2661.69,-114.34 3040,-74 3042.98,-73.68 3046.04,-73.3 3049.13,-72.87"/>
<polygon fill="#63b8ff" stroke="#63b8ff" points="2067.94,-115.03 2057.94,-118.54 2067.95,-122.03 2067.94,-115.03"/>
</g>
<!-- Node80 -->
<g id="node47" class="node">
<title>Node80</title>
<g id="a_node47"><a xlink:href="cpmd__init_8c.html" target="_top" xlink:title=" ">
<polygon fill="white" stroke="#666666" points="3215.5,-74 3148.5,-74 3148.5,-55 3215.5,-55 3215.5,-74"/>
<text text-anchor="middle" x="3182" y="-62" font-family="Helvetica,sans-Serif" font-size="10.00">cpmd_init.c</text>
</a>
</g>
</g>
<!-- Node4&#45;&gt;Node80 -->
<g id="edge52" class="edge">
<title>Node4&#45;&gt;Node80</title>
<path fill="none" stroke="#63b8ff" d="M2067.49,-117.82C2234.3,-114.59 2925.26,-99.87 3140,-74 3142.66,-73.68 3145.4,-73.28 3148.15,-72.83"/>
<polygon fill="#63b8ff" stroke="#63b8ff" points="2067.63,-114.32 2057.7,-118.01 2067.76,-121.31 2067.63,-114.32"/>
</g>
<!-- Node81 -->
<g id="node48" class="node">
<title>Node81</title>
<g id="a_node48"><a xlink:href="cpmd__nose_8c.html" target="_top" xlink:title=" ">
<polygon fill="white" stroke="#666666" points="3308.5,-74 3233.5,-74 3233.5,-55 3308.5,-55 3308.5,-74"/>
<text text-anchor="middle" x="3271" y="-62" font-family="Helvetica,sans-Serif" font-size="10.00">cpmd_nose.c</text>
</a>
</g>
</g>
<!-- Node4&#45;&gt;Node81 -->
<g id="edge53" class="edge">
<title>Node4&#45;&gt;Node81</title>
<path fill="none" stroke="#63b8ff" d="M2067.44,-117.86C2241.85,-114.67 2992.32,-99.69 3225,-74 3227.66,-73.71 3230.41,-73.35 3233.16,-72.94"/>
<polygon fill="#63b8ff" stroke="#63b8ff" points="2067.57,-114.35 2057.64,-118.03 2067.7,-121.35 2067.57,-114.35"/>
</g>
<!-- Node4&#45;&gt;Node167 -->
<g id="edge55" class="edge">
<title>Node4&#45;&gt;Node167</title>
<path fill="none" stroke="#63b8ff" d="M2067.52,-118.43C2301.26,-117.85 3590.14,-112.94 3982,-74 3984.95,-73.71 3987.99,-73.34 3991.04,-72.91"/>
<polygon fill="#63b8ff" stroke="#63b8ff" points="2067.8,-114.93 2057.81,-118.45 2067.82,-121.93 2067.8,-114.93"/>
</g>
<!-- Node4&#45;&gt;Node187 -->
<g id="edge56" class="edge">
<title>Node4&#45;&gt;Node187</title>
<path fill="none" stroke="#63b8ff" d="M1994.38,-118.36C1766.67,-117.41 542.06,-110.61 169,-74 166.16,-73.72 163.25,-73.37 160.31,-72.98"/>
<polygon fill="#63b8ff" stroke="#63b8ff" points="1994.11,-121.86 2004.12,-118.4 1994.14,-114.86 1994.11,-121.86"/>
</g>
<!-- Node10&#45;&gt;Node21 -->
<g id="edge10" class="edge">
<title>Node10&#45;&gt;Node21</title>
<path fill="none" stroke="#63b8ff" d="M3847.45,-48.46C3832.73,-39.06 3814.28,-27.28 3801.87,-19.36"/>
<polygon fill="#63b8ff" stroke="#63b8ff" points="3845.33,-51.26 3855.64,-53.69 3849.1,-45.36 3845.33,-51.26"/>
</g>
<!-- Node35&#45;&gt;Node33 -->
<g id="edge18" class="edge">
<title>Node35&#45;&gt;Node33</title>
<path fill="none" stroke="#63b8ff" d="M407.54,-50.45C381.99,-40.78 347.84,-27.85 325.4,-19.36"/>
<polygon fill="#63b8ff" stroke="#63b8ff" points="406.24,-53.71 416.84,-53.97 408.72,-47.16 406.24,-53.71"/>
</g>
<!-- Node35&#45;&gt;Node34 -->
<g id="edge19" class="edge">
<title>Node35&#45;&gt;Node34</title>
<path fill="none" stroke="#63b8ff" d="M427.32,-46.22C419.74,-37.28 410.79,-26.74 404.59,-19.44"/>
<polygon fill="#63b8ff" stroke="#63b8ff" points="424.45,-48.24 433.59,-53.59 429.79,-43.71 424.45,-48.24"/>
</g>
<!-- Node35&#45;&gt;Node36 -->
<g id="edge20" class="edge">
<title>Node35&#45;&gt;Node36</title>
<path fill="none" stroke="#63b8ff" d="M456.58,-45.93C463.95,-37.06 472.58,-26.67 478.58,-19.44"/>
<polygon fill="#63b8ff" stroke="#63b8ff" points="453.93,-43.65 450.23,-53.58 459.31,-48.13 453.93,-43.65"/>
</g>
<!-- Node35&#45;&gt;Node37 -->
<g id="edge21" class="edge">
<title>Node35&#45;&gt;Node37</title>
<path fill="none" stroke="#63b8ff" d="M474.89,-50.19C498.73,-40.55 530.3,-27.78 551.11,-19.36"/>
<polygon fill="#63b8ff" stroke="#63b8ff" points="473.58,-46.95 465.63,-53.94 476.21,-53.44 473.58,-46.95"/>
</g>
<!-- Node51&#45;&gt;Node21 -->
<g id="edge27" class="edge">
<title>Node51&#45;&gt;Node21</title>
<path fill="none" stroke="#63b8ff" d="M3788,-43.35C3788,-35.1 3788,-25.97 3788,-19.44"/>
<polygon fill="#63b8ff" stroke="#63b8ff" points="3784.5,-43.23 3788,-53.23 3791.5,-43.23 3784.5,-43.23"/>
</g>
</g>
</svg>
