<?xml version="1.0" encoding="UTF-8" standalone="no"?>
<!DOCTYPE svg PUBLIC "-//W3C//DTD SVG 1.1//EN"
 "http://www.w3.org/Graphics/SVG/1.1/DTD/svg11.dtd">
<!-- Generated by graphviz version 7.1.0 (0)
 -->
<!-- Title: ogl_shading.c Pages: 1 -->
<svg width="1806pt" height="192pt"
 viewBox="0.00 0.00 1806.00 192.00" xmlns="http://www.w3.org/2000/svg" xmlns:xlink="http://www.w3.org/1999/xlink">
<g id="graph0" class="graph" transform="scale(1 1) rotate(0) translate(4 188)">
<title>ogl_shading.c</title>
<!-- Node1 -->
<g id="node1" class="node">
<title>Node1</title>
<g id="a_node1"><a xlink:title=" ">
<polygon fill="#999999" stroke="#666666" points="1705.5,-184 1628.5,-184 1628.5,-165 1705.5,-165 1705.5,-184"/>
<text text-anchor="middle" x="1667" y="-172" font-family="Helvetica,sans-Serif" font-size="10.00">ogl_shading.c</text>
</a>
</g>
</g>
<!-- Node2 -->
<g id="node2" class="node">
<title>Node2</title>
<g id="a_node2"><a xlink:href="global_8h.html" target="_top" xlink:title=" ">
<polygon fill="white" stroke="#666666" points="814,-129 764,-129 764,-110 814,-110 814,-129"/>
<text text-anchor="middle" x="789" y="-117" font-family="Helvetica,sans-Serif" font-size="10.00">global.h</text>
</a>
</g>
</g>
<!-- Node1&#45;&gt;Node2 -->
<g id="edge1" class="edge">
<title>Node1&#45;&gt;Node2</title>
<path fill="none" stroke="#63b8ff" d="M1628.14,-171.15C1482.22,-162.35 968.08,-131.31 825.76,-122.72"/>
<polygon fill="#63b8ff" stroke="#63b8ff" points="825.98,-119.23 815.79,-122.12 825.56,-126.21 825.98,-119.23"/>
</g>
<!-- Node23 -->
<g id="node23" class="node">
<title>Node23</title>
<g id="a_node23"><a xlink:href="ogl__shading_8h.html" target="_top" xlink:title=" ">
<polygon fill="white" stroke="#666666" points="1582.5,-19 1505.5,-19 1505.5,0 1582.5,0 1582.5,-19"/>
<text text-anchor="middle" x="1544" y="-7" font-family="Helvetica,sans-Serif" font-size="10.00">ogl_shading.h</text>
</a>
</g>
</g>
<!-- Node1&#45;&gt;Node23 -->
<g id="edge28" class="edge">
<title>Node1&#45;&gt;Node23</title>
<path fill="none" stroke="#63b8ff" d="M1665.46,-164.76C1661.34,-143.66 1648.37,-89.17 1619,-55 1607.72,-41.88 1591.57,-31.61 1577.14,-24.25"/>
<polygon fill="#63b8ff" stroke="#63b8ff" points="1578.93,-21.23 1568.4,-20.07 1575.91,-27.54 1578.93,-21.23"/>
</g>
<!-- Node25 -->
<g id="node25" class="node">
<title>Node25</title>
<g id="a_node25"><a xlink:href="interface_8h.html" target="_top" xlink:title=" ">
<polygon fill="white" stroke="#666666" points="1728,-129 1666,-129 1666,-110 1728,-110 1728,-129"/>
<text text-anchor="middle" x="1697" y="-117" font-family="Helvetica,sans-Serif" font-size="10.00">interface.h</text>
</a>
</g>
</g>
<!-- Node1&#45;&gt;Node25 -->
<g id="edge26" class="edge">
<title>Node1&#45;&gt;Node25</title>
<path fill="none" stroke="#63b8ff" d="M1671.95,-164.75C1675.84,-157.88 1681.39,-148.08 1686.28,-139.45"/>
<polygon fill="#63b8ff" stroke="#63b8ff" points="1689.31,-141.19 1691.19,-130.76 1683.22,-137.74 1689.31,-141.19"/>
</g>
<!-- Node26 -->
<g id="node26" class="node">
<title>Node26</title>
<g id="a_node26"><a xlink:href="glview_8h.html" target="_top" xlink:title=" ">
<polygon fill="white" stroke="#666666" points="1798,-129 1746,-129 1746,-110 1798,-110 1798,-129"/>
<text text-anchor="middle" x="1772" y="-117" font-family="Helvetica,sans-Serif" font-size="10.00">glview.h</text>
</a>
</g>
</g>
<!-- Node1&#45;&gt;Node26 -->
<g id="edge27" class="edge">
<title>Node1&#45;&gt;Node26</title>
<path fill="none" stroke="#63b8ff" d="M1684.81,-164.51C1701.13,-156.27 1725.53,-143.96 1744.37,-134.45"/>
<polygon fill="#63b8ff" stroke="#63b8ff" points="1745.75,-137.67 1753.1,-130.04 1742.6,-131.42 1745.75,-137.67"/>
</g>
<!-- Node3 -->
<g id="node3" class="node">
<title>Node3</title>
<g id="a_node3"><a xlink:title=" ">
<polygon fill="#e0e0e0" stroke="#999999" points="1610,-74 1570,-74 1570,-55 1610,-55 1610,-74"/>
<text text-anchor="middle" x="1590" y="-62" font-family="Helvetica,sans-Serif" font-size="10.00">glib.h</text>
</a>
</g>
</g>
<!-- Node2&#45;&gt;Node3 -->
<g id="edge2" class="edge">
<title>Node2&#45;&gt;Node3</title>
<path fill="none" stroke="#63b8ff" d="M814.44,-117.81C928.08,-114.62 1390.59,-100.37 1558.23,-74"/>
<polygon fill="#63b8ff" stroke="#63b8ff" points="1558.76,-77.46 1568.05,-72.37 1557.61,-70.56 1558.76,-77.46"/>
</g>
<!-- Node4 -->
<g id="node4" class="node">
<title>Node4</title>
<g id="a_node4"><a xlink:title=" ">
<polygon fill="#e0e0e0" stroke="#999999" points="66,-74 0,-74 0,-55 66,-55 66,-74"/>
<text text-anchor="middle" x="33" y="-62" font-family="Helvetica,sans-Serif" font-size="10.00">glib/gi18n.h</text>
</a>
</g>
</g>
<!-- Node2&#45;&gt;Node4 -->
<g id="edge3" class="edge">
<title>Node2&#45;&gt;Node4</title>
<path fill="none" stroke="#63b8ff" d="M763.58,-118.18C672.21,-116.75 351.75,-109.48 77.77,-74.17"/>
<polygon fill="#63b8ff" stroke="#63b8ff" points="78.27,-70.71 67.9,-72.89 77.36,-77.65 78.27,-70.71"/>
</g>
<!-- Node5 -->
<g id="node5" class="node">
<title>Node5</title>
<g id="a_node5"><a xlink:title=" ">
<polygon fill="#e0e0e0" stroke="#999999" points="134,-74 84,-74 84,-55 134,-55 134,-74"/>
<text text-anchor="middle" x="109" y="-62" font-family="Helvetica,sans-Serif" font-size="10.00">locale.h</text>
</a>
</g>
</g>
<!-- Node2&#45;&gt;Node5 -->
<g id="edge4" class="edge">
<title>Node2&#45;&gt;Node5</title>
<path fill="none" stroke="#63b8ff" d="M763.58,-118.35C677.8,-117.52 391.15,-112.02 145.45,-74.08"/>
<polygon fill="#63b8ff" stroke="#63b8ff" points="146.07,-70.64 135.64,-72.55 144.98,-77.55 146.07,-70.64"/>
</g>
<!-- Node6 -->
<g id="node6" class="node">
<title>Node6</title>
<g id="a_node6"><a xlink:title=" ">
<polygon fill="#e0e0e0" stroke="#999999" points="203.5,-74 152.5,-74 152.5,-55 203.5,-55 203.5,-74"/>
<text text-anchor="middle" x="178" y="-62" font-family="Helvetica,sans-Serif" font-size="10.00">unistd.h</text>
</a>
</g>
</g>
<!-- Node2&#45;&gt;Node6 -->
<g id="edge5" class="edge">
<title>Node2&#45;&gt;Node6</title>
<path fill="none" stroke="#63b8ff" d="M763.51,-118.06C683.79,-116.36 432.04,-108.57 215.17,-74.26"/>
<polygon fill="#63b8ff" stroke="#63b8ff" points="215.82,-70.82 205.39,-72.69 214.71,-77.73 215.82,-70.82"/>
</g>
<!-- Node7 -->
<g id="node7" class="node">
<title>Node7</title>
<g id="a_node7"><a xlink:title=" ">
<polygon fill="#e0e0e0" stroke="#999999" points="270.5,-74 221.5,-74 221.5,-55 270.5,-55 270.5,-74"/>
<text text-anchor="middle" x="246" y="-62" font-family="Helvetica,sans-Serif" font-size="10.00">string.h</text>
</a>
</g>
</g>
<!-- Node2&#45;&gt;Node7 -->
<g id="edge6" class="edge">
<title>Node2&#45;&gt;Node7</title>
<path fill="none" stroke="#63b8ff" d="M763.69,-117.4C689.68,-113.94 467.36,-101.81 285,-74 283.98,-73.84 282.95,-73.68 281.91,-73.5"/>
<polygon fill="#63b8ff" stroke="#63b8ff" points="282.63,-70.08 272.16,-71.65 281.33,-76.96 282.63,-70.08"/>
</g>
<!-- Node8 -->
<g id="node8" class="node">
<title>Node8</title>
<g id="a_node8"><a xlink:title=" ">
<polygon fill="#e0e0e0" stroke="#999999" points="522,-19 476,-19 476,0 522,0 522,-19"/>
<text text-anchor="middle" x="499" y="-7" font-family="Helvetica,sans-Serif" font-size="10.00">stdio.h</text>
</a>
</g>
</g>
<!-- Node2&#45;&gt;Node8 -->
<g id="edge7" class="edge">
<title>Node2&#45;&gt;Node8</title>
<path fill="none" stroke="#63b8ff" d="M763.59,-118.05C669.96,-116.14 348.2,-107.18 318,-74 274.53,-26.23 400.79,-14.4 464.57,-11.46"/>
<polygon fill="#63b8ff" stroke="#63b8ff" points="464.34,-14.98 474.19,-11.08 464.05,-7.98 464.34,-14.98"/>
</g>
<!-- Node9 -->
<g id="node9" class="node">
<title>Node9</title>
<g id="a_node9"><a xlink:title=" ">
<polygon fill="#e0e0e0" stroke="#999999" points="375,-74 327,-74 327,-55 375,-55 375,-74"/>
<text text-anchor="middle" x="351" y="-62" font-family="Helvetica,sans-Serif" font-size="10.00">stdlib.h</text>
</a>
</g>
</g>
<!-- Node2&#45;&gt;Node9 -->
<g id="edge8" class="edge">
<title>Node2&#45;&gt;Node9</title>
<path fill="none" stroke="#63b8ff" d="M763.7,-116.98C701.26,-112.96 534.7,-100.63 386.51,-74.21"/>
<polygon fill="#63b8ff" stroke="#63b8ff" points="387.38,-70.81 376.91,-72.47 386.13,-77.7 387.38,-70.81"/>
</g>
<!-- Node10 -->
<g id="node10" class="node">
<title>Node10</title>
<g id="a_node10"><a xlink:title=" ">
<polygon fill="#e0e0e0" stroke="#999999" points="461,-74 393,-74 393,-55 461,-55 461,-74"/>
<text text-anchor="middle" x="427" y="-62" font-family="Helvetica,sans-Serif" font-size="10.00">sys/types.h</text>
</a>
</g>
</g>
<!-- Node2&#45;&gt;Node10 -->
<g id="edge9" class="edge">
<title>Node2&#45;&gt;Node10</title>
<path fill="none" stroke="#63b8ff" d="M763.7,-115.46C711.33,-109.08 587,-93.37 472.3,-74.3"/>
<polygon fill="#63b8ff" stroke="#63b8ff" points="473.17,-70.9 462.73,-72.7 472.01,-77.8 473.17,-70.9"/>
</g>
<!-- Node11 -->
<g id="node11" class="node">
<title>Node11</title>
<g id="a_node11"><a xlink:title=" ">
<polygon fill="#e0e0e0" stroke="#999999" points="539,-74 479,-74 479,-55 539,-55 539,-74"/>
<text text-anchor="middle" x="509" y="-62" font-family="Helvetica,sans-Serif" font-size="10.00">sys/stat.h</text>
</a>
</g>
</g>
<!-- Node2&#45;&gt;Node11 -->
<g id="edge10" class="edge">
<title>Node2&#45;&gt;Node11</title>
<path fill="none" stroke="#63b8ff" d="M763.62,-114.09C721.52,-106.71 634.34,-91.19 550.48,-74.45"/>
<polygon fill="#63b8ff" stroke="#63b8ff" points="551.19,-71.02 540.7,-72.48 549.81,-77.88 551.19,-71.02"/>
</g>
<!-- Node12 -->
<g id="node12" class="node">
<title>Node12</title>
<g id="a_node12"><a xlink:title=" ">
<polygon fill="#e0e0e0" stroke="#999999" points="699.5,-19 652.5,-19 652.5,0 699.5,0 699.5,-19"/>
<text text-anchor="middle" x="676" y="-7" font-family="Helvetica,sans-Serif" font-size="10.00">math.h</text>
</a>
</g>
</g>
<!-- Node2&#45;&gt;Node12 -->
<g id="edge11" class="edge">
<title>Node2&#45;&gt;Node12</title>
<path fill="none" stroke="#63b8ff" d="M814.26,-118.56C921.98,-118.57 1339.17,-115.87 1378,-74 1383.74,-67.81 1383.78,-61.16 1378,-55 1354.93,-30.42 849.37,-15.14 710.83,-11.4"/>
<polygon fill="#63b8ff" stroke="#63b8ff" points="711.28,-7.91 701.19,-11.14 711.09,-14.91 711.28,-7.91"/>
</g>
<!-- Node13 -->
<g id="node13" class="node">
<title>Node13</title>
<g id="a_node13"><a xlink:title=" ">
<polygon fill="#e0e0e0" stroke="#999999" points="692.5,-74 637.5,-74 637.5,-55 692.5,-55 692.5,-74"/>
<text text-anchor="middle" x="665" y="-62" font-family="Helvetica,sans-Serif" font-size="10.00">gtk/gtk.h</text>
</a>
</g>
</g>
<!-- Node2&#45;&gt;Node13 -->
<g id="edge12" class="edge">
<title>Node2&#45;&gt;Node13</title>
<path fill="none" stroke="#63b8ff" d="M767.97,-109.51C748.25,-101.08 718.53,-88.38 696.09,-78.79"/>
<polygon fill="#63b8ff" stroke="#63b8ff" points="697.69,-75.66 687.12,-74.95 694.94,-82.1 697.69,-75.66"/>
</g>
<!-- Node14 -->
<g id="node14" class="node">
<title>Node14</title>
<g id="a_node14"><a xlink:title=" ">
<polygon fill="#e0e0e0" stroke="#999999" points="769.5,-74 710.5,-74 710.5,-55 769.5,-55 769.5,-74"/>
<text text-anchor="middle" x="740" y="-62" font-family="Helvetica,sans-Serif" font-size="10.00">gdk/gdk.h</text>
</a>
</g>
</g>
<!-- Node2&#45;&gt;Node14 -->
<g id="edge13" class="edge">
<title>Node2&#45;&gt;Node14</title>
<path fill="none" stroke="#63b8ff" d="M780.91,-109.75C774.14,-102.43 764.28,-91.76 755.94,-82.74"/>
<polygon fill="#63b8ff" stroke="#63b8ff" points="758.65,-80.52 749.29,-75.55 753.51,-85.27 758.65,-80.52"/>
</g>
<!-- Node15 -->
<g id="node15" class="node">
<title>Node15</title>
<g id="a_node15"><a xlink:title=" ">
<polygon fill="#e0e0e0" stroke="#999999" points="886.5,-74 787.5,-74 787.5,-55 886.5,-55 886.5,-74"/>
<text text-anchor="middle" x="837" y="-62" font-family="Helvetica,sans-Serif" font-size="10.00">gdk/gdkkeysyms.h</text>
</a>
</g>
</g>
<!-- Node2&#45;&gt;Node15 -->
<g id="edge14" class="edge">
<title>Node2&#45;&gt;Node15</title>
<path fill="none" stroke="#63b8ff" d="M796.93,-109.75C803.56,-102.43 813.22,-91.76 821.39,-82.74"/>
<polygon fill="#63b8ff" stroke="#63b8ff" points="823.77,-85.33 827.89,-75.56 818.58,-80.63 823.77,-85.33"/>
</g>
<!-- Node16 -->
<g id="node16" class="node">
<title>Node16</title>
<g id="a_node16"><a xlink:title=" ">
<polygon fill="#e0e0e0" stroke="#999999" points="1023,-74 905,-74 905,-55 1023,-55 1023,-74"/>
<text text-anchor="middle" x="964" y="-62" font-family="Helvetica,sans-Serif" font-size="10.00">gdk&#45;pixbuf/gdk&#45;pixbuf.h</text>
</a>
</g>
</g>
<!-- Node2&#45;&gt;Node16 -->
<g id="edge15" class="edge">
<title>Node2&#45;&gt;Node16</title>
<path fill="none" stroke="#63b8ff" d="M814.45,-110.79C843.06,-102.13 889.92,-87.93 923.57,-77.75"/>
<polygon fill="#63b8ff" stroke="#63b8ff" points="924.42,-81.14 932.98,-74.9 922.39,-74.44 924.42,-81.14"/>
</g>
<!-- Node17 -->
<g id="node17" class="node">
<title>Node17</title>
<g id="a_node17"><a xlink:title=" ">
<polygon fill="#e0e0e0" stroke="#999999" points="1133,-74 1041,-74 1041,-55 1133,-55 1133,-74"/>
<text text-anchor="middle" x="1087" y="-62" font-family="Helvetica,sans-Serif" font-size="10.00">pango/pangoft2.h</text>
</a>
</g>
</g>
<!-- Node2&#45;&gt;Node17 -->
<g id="edge16" class="edge">
<title>Node2&#45;&gt;Node17</title>
<path fill="none" stroke="#63b8ff" d="M814.41,-113.98C861.74,-105.56 964.5,-87.29 1029.46,-75.73"/>
<polygon fill="#63b8ff" stroke="#63b8ff" points="1030,-79.19 1039.24,-73.99 1028.78,-72.3 1030,-79.19"/>
</g>
<!-- Node18 -->
<g id="node18" class="node">
<title>Node18</title>
<g id="a_node18"><a xlink:title=" ">
<polygon fill="#e0e0e0" stroke="#999999" points="1213,-74 1151,-74 1151,-55 1213,-55 1213,-74"/>
<text text-anchor="middle" x="1182" y="-62" font-family="Helvetica,sans-Serif" font-size="10.00">epoxy/gl.h</text>
</a>
</g>
</g>
<!-- Node2&#45;&gt;Node18 -->
<g id="edge17" class="edge">
<title>Node2&#45;&gt;Node18</title>
<path fill="none" stroke="#63b8ff" d="M814.36,-116.04C870.87,-110.41 1011.61,-95.51 1139.46,-74.3"/>
<polygon fill="#63b8ff" stroke="#63b8ff" points="1139.83,-77.79 1149.11,-72.68 1138.67,-70.89 1139.83,-77.79"/>
</g>
<!-- Node19 -->
<g id="node19" class="node">
<title>Node19</title>
<g id="a_node19"><a xlink:title=" ">
<polygon fill="#e0e0e0" stroke="#999999" points="1284.5,-74 1231.5,-74 1231.5,-55 1284.5,-55 1284.5,-74"/>
<text text-anchor="middle" x="1258" y="-62" font-family="Helvetica,sans-Serif" font-size="10.00">GL/glu.h</text>
</a>
</g>
</g>
<!-- Node2&#45;&gt;Node19 -->
<g id="edge18" class="edge">
<title>Node2&#45;&gt;Node19</title>
<path fill="none" stroke="#63b8ff" d="M814.05,-117.06C879.26,-113.09 1059.77,-100.54 1220.31,-74.05"/>
<polygon fill="#63b8ff" stroke="#63b8ff" points="1220.57,-77.55 1229.85,-72.45 1219.41,-70.65 1220.57,-77.55"/>
</g>
<!-- Node20 -->
<g id="node20" class="node">
<title>Node20</title>
<g id="a_node20"><a xlink:title=" ">
<polygon fill="#e0e0e0" stroke="#999999" points="1369.5,-74 1302.5,-74 1302.5,-55 1369.5,-55 1369.5,-74"/>
<text text-anchor="middle" x="1336" y="-62" font-family="Helvetica,sans-Serif" font-size="10.00">epoxy/glx.h</text>
</a>
</g>
</g>
<!-- Node2&#45;&gt;Node20 -->
<g id="edge19" class="edge">
<title>Node2&#45;&gt;Node20</title>
<path fill="none" stroke="#63b8ff" d="M814.28,-117.23C886.78,-113.38 1101.76,-100.55 1290.98,-74.12"/>
<polygon fill="#63b8ff" stroke="#63b8ff" points="1291.35,-77.6 1300.76,-72.74 1290.37,-70.67 1291.35,-77.6"/>
</g>
<!-- Node21 -->
<g id="node21" class="node">
<title>Node21</title>
<g id="a_node21"><a xlink:href="math__3d_8h.html" target="_top" xlink:title=" ">
<polygon fill="white" stroke="#666666" points="619,-74 557,-74 557,-55 619,-55 619,-74"/>
<text text-anchor="middle" x="588" y="-62" font-family="Helvetica,sans-Serif" font-size="10.00">math_3d.h</text>
</a>
</g>
</g>
<!-- Node2&#45;&gt;Node21 -->
<g id="edge20" class="edge">
<title>Node2&#45;&gt;Node21</title>
<path fill="none" stroke="#63b8ff" d="M763.54,-111.79C730.01,-102.95 670.59,-87.28 630.26,-76.64"/>
<polygon fill="#63b8ff" stroke="#63b8ff" points="631.2,-73.27 620.64,-74.11 629.42,-80.04 631.2,-73.27"/>
</g>
<!-- Node22 -->
<g id="node22" class="node">
<title>Node22</title>
<g id="a_node22"><a xlink:href="glwin_8h.html" target="_top" xlink:title=" ">
<polygon fill="white" stroke="#666666" points="1473.5,-74 1426.5,-74 1426.5,-55 1473.5,-55 1473.5,-74"/>
<text text-anchor="middle" x="1450" y="-62" font-family="Helvetica,sans-Serif" font-size="10.00">glwin.h</text>
</a>
</g>
</g>
<!-- Node2&#45;&gt;Node22 -->
<g id="edge23" class="edge">
<title>Node2&#45;&gt;Node22</title>
<path fill="none" stroke="#63b8ff" d="M814.37,-118.04C899.35,-116.21 1181.6,-107.8 1412,-74 1413.02,-73.85 1414.06,-73.69 1415.11,-73.51"/>
<polygon fill="#63b8ff" stroke="#63b8ff" points="1415.74,-76.96 1424.9,-71.64 1414.42,-70.08 1415.74,-76.96"/>
</g>
<!-- Node24 -->
<g id="node24" class="node">
<title>Node24</title>
<g id="a_node24"><a xlink:title=" ">
<polygon fill="#e0e0e0" stroke="#999999" points="1552,-74 1492,-74 1492,-55 1552,-55 1552,-74"/>
<text text-anchor="middle" x="1522" y="-62" font-family="Helvetica,sans-Serif" font-size="10.00">gtk/gtkx.h</text>
</a>
</g>
</g>
<!-- Node2&#45;&gt;Node24 -->
<g id="edge25" class="edge">
<title>Node2&#45;&gt;Node24</title>
<path fill="none" stroke="#63b8ff" d="M814.31,-118.2C903.86,-116.86 1214.18,-109.86 1480.46,-73.97"/>
<polygon fill="#63b8ff" stroke="#63b8ff" points="1480.57,-77.48 1490.01,-72.66 1479.62,-70.55 1480.57,-77.48"/>
</g>
<!-- Node21&#45;&gt;Node8 -->
<g id="edge22" class="edge">
<title>Node21&#45;&gt;Node8</title>
<path fill="none" stroke="#63b8ff" d="M572.9,-54.51C559.4,-46.47 539.35,-34.53 523.54,-25.11"/>
<polygon fill="#63b8ff" stroke="#63b8ff" points="525.56,-22.24 515.18,-20.13 521.98,-28.26 525.56,-22.24"/>
</g>
<!-- Node21&#45;&gt;Node12 -->
<g id="edge21" class="edge">
<title>Node21&#45;&gt;Node12</title>
<path fill="none" stroke="#63b8ff" d="M602.93,-54.51C616.28,-46.47 636.11,-34.53 651.74,-25.11"/>
<polygon fill="#63b8ff" stroke="#63b8ff" points="653.24,-28.3 660,-20.14 649.62,-22.3 653.24,-28.3"/>
</g>
<!-- Node22&#45;&gt;Node23 -->
<g id="edge24" class="edge">
<title>Node22&#45;&gt;Node23</title>
<path fill="none" stroke="#63b8ff" d="M1465.95,-54.51C1480.35,-46.39 1501.79,-34.3 1518.56,-24.85"/>
<polygon fill="#63b8ff" stroke="#63b8ff" points="1519.98,-28.06 1526.97,-20.1 1516.54,-21.96 1519.98,-28.06"/>
</g>
</g>
</svg>
