<?xml version="1.0" encoding="UTF-8" standalone="no"?>
<!DOCTYPE svg PUBLIC "-//W3C//DTD SVG 1.1//EN"
 "http://www.w3.org/Graphics/SVG/1.1/DTD/svg11.dtd">
<!-- Generated by graphviz version 7.1.0 (0)
 -->
<!-- Title: selection.c Pages: 1 -->
<svg width="1617pt" height="247pt"
 viewBox="0.00 0.00 1617.00 247.00" xmlns="http://www.w3.org/2000/svg" xmlns:xlink="http://www.w3.org/1999/xlink">
<g id="graph0" class="graph" transform="scale(1 1) rotate(0) translate(4 243)">
<title>selection.c</title>
<!-- Node1 -->
<g id="node1" class="node">
<title>Node1</title>
<g id="a_node1"><a xlink:title=" ">
<polygon fill="#999999" stroke="#666666" points="837,-239 773,-239 773,-220 837,-220 837,-239"/>
<text text-anchor="middle" x="805" y="-227" font-family="Helvetica,sans-Serif" font-size="10.00">selection.c</text>
</a>
</g>
</g>
<!-- Node2 -->
<g id="node2" class="node">
<title>Node2</title>
<g id="a_node2"><a xlink:href="global_8h.html" target="_top" xlink:title=" ">
<polygon fill="white" stroke="#666666" points="710,-129 660,-129 660,-110 710,-110 710,-129"/>
<text text-anchor="middle" x="685" y="-117" font-family="Helvetica,sans-Serif" font-size="10.00">global.h</text>
</a>
</g>
</g>
<!-- Node1&#45;&gt;Node2 -->
<g id="edge1" class="edge">
<title>Node1&#45;&gt;Node2</title>
<path fill="none" stroke="#63b8ff" d="M795.18,-219.66C775.14,-201.62 729.25,-160.32 703.46,-137.12"/>
<polygon fill="#63b8ff" stroke="#63b8ff" points="705.86,-134.56 696.08,-130.47 701.17,-139.76 705.86,-134.56"/>
</g>
<!-- Node25 -->
<g id="node25" class="node">
<title>Node25</title>
<g id="a_node25"><a xlink:href="interface_8h.html" target="_top" xlink:title=" ">
<polygon fill="white" stroke="#666666" points="790,-129 728,-129 728,-110 790,-110 790,-129"/>
<text text-anchor="middle" x="759" y="-117" font-family="Helvetica,sans-Serif" font-size="10.00">interface.h</text>
</a>
</g>
</g>
<!-- Node1&#45;&gt;Node25 -->
<g id="edge26" class="edge">
<title>Node1&#45;&gt;Node25</title>
<path fill="none" stroke="#63b8ff" d="M801.24,-219.66C793.86,-202.34 777.34,-163.55 767.28,-139.95"/>
<polygon fill="#63b8ff" stroke="#63b8ff" points="770.55,-138.68 763.41,-130.85 764.11,-141.42 770.55,-138.68"/>
</g>
<!-- Node26 -->
<g id="node26" class="node">
<title>Node26</title>
<g id="a_node26"><a xlink:href="glview_8h.html" target="_top" xlink:title=" ">
<polygon fill="white" stroke="#666666" points="860,-129 808,-129 808,-110 860,-110 860,-129"/>
<text text-anchor="middle" x="834" y="-117" font-family="Helvetica,sans-Serif" font-size="10.00">glview.h</text>
</a>
</g>
</g>
<!-- Node1&#45;&gt;Node26 -->
<g id="edge27" class="edge">
<title>Node1&#45;&gt;Node26</title>
<path fill="none" stroke="#63b8ff" d="M807.37,-219.66C812,-202.42 822.35,-163.9 828.69,-140.27"/>
<polygon fill="#63b8ff" stroke="#63b8ff" points="831.99,-141.49 831.2,-130.92 825.23,-139.67 831.99,-141.49"/>
</g>
<!-- Node27 -->
<g id="node27" class="node">
<title>Node27</title>
<g id="a_node27"><a xlink:href="atom__edit_8h.html" target="_top" xlink:title=" ">
<polygon fill="white" stroke="#666666" points="984,-184 916,-184 916,-165 984,-165 984,-184"/>
<text text-anchor="middle" x="950" y="-172" font-family="Helvetica,sans-Serif" font-size="10.00">atom_edit.h</text>
</a>
</g>
</g>
<!-- Node1&#45;&gt;Node27 -->
<g id="edge28" class="edge">
<title>Node1&#45;&gt;Node27</title>
<path fill="none" stroke="#63b8ff" d="M829.6,-219.51C853.07,-210.93 888.67,-197.92 915.07,-188.27"/>
<polygon fill="#63b8ff" stroke="#63b8ff" points="916.15,-191.6 924.34,-184.88 913.75,-185.02 916.15,-191.6"/>
</g>
<!-- Node3 -->
<g id="node3" class="node">
<title>Node3</title>
<g id="a_node3"><a xlink:title=" ">
<polygon fill="#e0e0e0" stroke="#999999" points="40,-74 0,-74 0,-55 40,-55 40,-74"/>
<text text-anchor="middle" x="20" y="-62" font-family="Helvetica,sans-Serif" font-size="10.00">glib.h</text>
</a>
</g>
</g>
<!-- Node2&#45;&gt;Node3 -->
<g id="edge2" class="edge">
<title>Node2&#45;&gt;Node3</title>
<path fill="none" stroke="#63b8ff" d="M659.61,-118.67C574.6,-118.85 292.24,-116.15 51.53,-74.06"/>
<polygon fill="#63b8ff" stroke="#63b8ff" points="52.41,-70.66 41.95,-72.36 51.19,-77.55 52.41,-70.66"/>
</g>
<!-- Node4 -->
<g id="node4" class="node">
<title>Node4</title>
<g id="a_node4"><a xlink:title=" ">
<polygon fill="#e0e0e0" stroke="#999999" points="124,-74 58,-74 58,-55 124,-55 124,-74"/>
<text text-anchor="middle" x="91" y="-62" font-family="Helvetica,sans-Serif" font-size="10.00">glib/gi18n.h</text>
</a>
</g>
</g>
<!-- Node2&#45;&gt;Node4 -->
<g id="edge3" class="edge">
<title>Node2&#45;&gt;Node4</title>
<path fill="none" stroke="#63b8ff" d="M659.57,-117.53C582.32,-114.36 343.43,-102.87 135.54,-74.19"/>
<polygon fill="#63b8ff" stroke="#63b8ff" points="136.3,-70.76 125.91,-72.84 135.33,-77.7 136.3,-70.76"/>
</g>
<!-- Node5 -->
<g id="node5" class="node">
<title>Node5</title>
<g id="a_node5"><a xlink:title=" ">
<polygon fill="#e0e0e0" stroke="#999999" points="192,-74 142,-74 142,-55 192,-55 192,-74"/>
<text text-anchor="middle" x="167" y="-62" font-family="Helvetica,sans-Serif" font-size="10.00">locale.h</text>
</a>
</g>
</g>
<!-- Node2&#45;&gt;Node5 -->
<g id="edge4" class="edge">
<title>Node2&#45;&gt;Node5</title>
<path fill="none" stroke="#63b8ff" d="M659.63,-117.54C588.92,-114.57 383.53,-103.99 203.44,-74.15"/>
<polygon fill="#63b8ff" stroke="#63b8ff" points="204.1,-70.71 193.65,-72.5 202.93,-77.61 204.1,-70.71"/>
</g>
<!-- Node6 -->
<g id="node6" class="node">
<title>Node6</title>
<g id="a_node6"><a xlink:title=" ">
<polygon fill="#e0e0e0" stroke="#999999" points="261.5,-74 210.5,-74 210.5,-55 261.5,-55 261.5,-74"/>
<text text-anchor="middle" x="236" y="-62" font-family="Helvetica,sans-Serif" font-size="10.00">unistd.h</text>
</a>
</g>
</g>
<!-- Node2&#45;&gt;Node6 -->
<g id="edge5" class="edge">
<title>Node2&#45;&gt;Node6</title>
<path fill="none" stroke="#63b8ff" d="M659.56,-117C595.92,-112.99 424.54,-100.59 272.8,-74.29"/>
<polygon fill="#63b8ff" stroke="#63b8ff" points="273.86,-70.92 263.4,-72.63 272.64,-77.81 273.86,-70.92"/>
</g>
<!-- Node7 -->
<g id="node7" class="node">
<title>Node7</title>
<g id="a_node7"><a xlink:title=" ">
<polygon fill="#e0e0e0" stroke="#999999" points="328.5,-74 279.5,-74 279.5,-55 328.5,-55 328.5,-74"/>
<text text-anchor="middle" x="304" y="-62" font-family="Helvetica,sans-Serif" font-size="10.00">string.h</text>
</a>
</g>
</g>
<!-- Node2&#45;&gt;Node7 -->
<g id="edge6" class="edge">
<title>Node2&#45;&gt;Node7</title>
<path fill="none" stroke="#63b8ff" d="M659.57,-115.94C602.65,-110.05 460.69,-94.44 343,-74 341.98,-73.82 340.96,-73.64 339.92,-73.45"/>
<polygon fill="#63b8ff" stroke="#63b8ff" points="340.67,-70.03 330.18,-71.51 339.3,-76.89 340.67,-70.03"/>
</g>
<!-- Node8 -->
<g id="node8" class="node">
<title>Node8</title>
<g id="a_node8"><a xlink:title=" ">
<polygon fill="#e0e0e0" stroke="#999999" points="394,-19 348,-19 348,0 394,0 394,-19"/>
<text text-anchor="middle" x="371" y="-7" font-family="Helvetica,sans-Serif" font-size="10.00">stdio.h</text>
</a>
</g>
</g>
<!-- Node2&#45;&gt;Node8 -->
<g id="edge7" class="edge">
<title>Node2&#45;&gt;Node8</title>
<path fill="none" stroke="#63b8ff" d="M659.59,-118.73C592.72,-118.76 414.37,-114.92 376,-74 365.24,-62.52 364.89,-44.18 366.71,-30.15"/>
<polygon fill="#63b8ff" stroke="#63b8ff" points="370.09,-31.17 368.4,-20.71 363.2,-29.94 370.09,-31.17"/>
</g>
<!-- Node9 -->
<g id="node9" class="node">
<title>Node9</title>
<g id="a_node9"><a xlink:title=" ">
<polygon fill="#e0e0e0" stroke="#999999" points="551,-74 503,-74 503,-55 551,-55 551,-74"/>
<text text-anchor="middle" x="527" y="-62" font-family="Helvetica,sans-Serif" font-size="10.00">stdlib.h</text>
</a>
</g>
</g>
<!-- Node2&#45;&gt;Node9 -->
<g id="edge8" class="edge">
<title>Node2&#45;&gt;Node9</title>
<path fill="none" stroke="#63b8ff" d="M659.61,-109.98C633.16,-101.11 591.52,-87.14 561.96,-77.23"/>
<polygon fill="#63b8ff" stroke="#63b8ff" points="563.31,-73.99 552.72,-74.13 561.09,-80.63 563.31,-73.99"/>
</g>
<!-- Node10 -->
<g id="node10" class="node">
<title>Node10</title>
<g id="a_node10"><a xlink:title=" ">
<polygon fill="#e0e0e0" stroke="#999999" points="637,-74 569,-74 569,-55 637,-55 637,-74"/>
<text text-anchor="middle" x="603" y="-62" font-family="Helvetica,sans-Serif" font-size="10.00">sys/types.h</text>
</a>
</g>
</g>
<!-- Node2&#45;&gt;Node10 -->
<g id="edge9" class="edge">
<title>Node2&#45;&gt;Node10</title>
<path fill="none" stroke="#63b8ff" d="M671.09,-109.51C658.76,-101.54 640.53,-89.75 626.03,-80.38"/>
<polygon fill="#63b8ff" stroke="#63b8ff" points="628.27,-77.67 617.98,-75.18 624.47,-83.55 628.27,-77.67"/>
</g>
<!-- Node11 -->
<g id="node11" class="node">
<title>Node11</title>
<g id="a_node11"><a xlink:title=" ">
<polygon fill="#e0e0e0" stroke="#999999" points="715,-74 655,-74 655,-55 715,-55 715,-74"/>
<text text-anchor="middle" x="685" y="-62" font-family="Helvetica,sans-Serif" font-size="10.00">sys/stat.h</text>
</a>
</g>
</g>
<!-- Node2&#45;&gt;Node11 -->
<g id="edge10" class="edge">
<title>Node2&#45;&gt;Node11</title>
<path fill="none" stroke="#63b8ff" d="M685,-109.75C685,-103.27 685,-94.16 685,-85.9"/>
<polygon fill="#63b8ff" stroke="#63b8ff" points="688.5,-85.96 685,-75.96 681.5,-85.96 688.5,-85.96"/>
</g>
<!-- Node12 -->
<g id="node12" class="node">
<title>Node12</title>
<g id="a_node12"><a xlink:title=" ">
<polygon fill="#e0e0e0" stroke="#999999" points="472.5,-19 425.5,-19 425.5,0 472.5,0 472.5,-19"/>
<text text-anchor="middle" x="449" y="-7" font-family="Helvetica,sans-Serif" font-size="10.00">math.h</text>
</a>
</g>
</g>
<!-- Node2&#45;&gt;Node12 -->
<g id="edge11" class="edge">
<title>Node2&#45;&gt;Node12</title>
<path fill="none" stroke="#63b8ff" d="M659.56,-118.17C620.69,-116.51 545.58,-108.65 494,-74 477.72,-63.06 465.43,-44.1 457.84,-29.74"/>
<polygon fill="#63b8ff" stroke="#63b8ff" points="461,-28.24 453.45,-20.81 454.72,-31.33 461,-28.24"/>
</g>
<!-- Node13 -->
<g id="node13" class="node">
<title>Node13</title>
<g id="a_node13"><a xlink:title=" ">
<polygon fill="#e0e0e0" stroke="#999999" points="788.5,-74 733.5,-74 733.5,-55 788.5,-55 788.5,-74"/>
<text text-anchor="middle" x="761" y="-62" font-family="Helvetica,sans-Serif" font-size="10.00">gtk/gtk.h</text>
</a>
</g>
</g>
<!-- Node2&#45;&gt;Node13 -->
<g id="edge12" class="edge">
<title>Node2&#45;&gt;Node13</title>
<path fill="none" stroke="#63b8ff" d="M697.89,-109.51C709.1,-101.7 725.57,-90.21 738.88,-80.93"/>
<polygon fill="#63b8ff" stroke="#63b8ff" points="740.86,-83.81 747.06,-75.22 736.85,-78.07 740.86,-83.81"/>
</g>
<!-- Node14 -->
<g id="node14" class="node">
<title>Node14</title>
<g id="a_node14"><a xlink:title=" ">
<polygon fill="#e0e0e0" stroke="#999999" points="865.5,-74 806.5,-74 806.5,-55 865.5,-55 865.5,-74"/>
<text text-anchor="middle" x="836" y="-62" font-family="Helvetica,sans-Serif" font-size="10.00">gdk/gdk.h</text>
</a>
</g>
</g>
<!-- Node2&#45;&gt;Node14 -->
<g id="edge13" class="edge">
<title>Node2&#45;&gt;Node14</title>
<path fill="none" stroke="#63b8ff" d="M710.27,-109.63C734.7,-101.06 771.96,-87.98 799.58,-78.28"/>
<polygon fill="#63b8ff" stroke="#63b8ff" points="800.69,-81.6 808.96,-74.99 798.37,-75 800.69,-81.6"/>
</g>
<!-- Node15 -->
<g id="node15" class="node">
<title>Node15</title>
<g id="a_node15"><a xlink:title=" ">
<polygon fill="#e0e0e0" stroke="#999999" points="982.5,-74 883.5,-74 883.5,-55 982.5,-55 982.5,-74"/>
<text text-anchor="middle" x="933" y="-62" font-family="Helvetica,sans-Serif" font-size="10.00">gdk/gdkkeysyms.h</text>
</a>
</g>
</g>
<!-- Node2&#45;&gt;Node15 -->
<g id="edge14" class="edge">
<title>Node2&#45;&gt;Node15</title>
<path fill="none" stroke="#63b8ff" d="M710.22,-112.07C713.18,-111.36 716.15,-110.65 719,-110 772.14,-97.84 833.03,-85.31 876.24,-76.66"/>
<polygon fill="#63b8ff" stroke="#63b8ff" points="876.78,-80.12 885.9,-74.73 875.41,-73.26 876.78,-80.12"/>
</g>
<!-- Node16 -->
<g id="node16" class="node">
<title>Node16</title>
<g id="a_node16"><a xlink:title=" ">
<polygon fill="#e0e0e0" stroke="#999999" points="1119,-74 1001,-74 1001,-55 1119,-55 1119,-74"/>
<text text-anchor="middle" x="1060" y="-62" font-family="Helvetica,sans-Serif" font-size="10.00">gdk&#45;pixbuf/gdk&#45;pixbuf.h</text>
</a>
</g>
</g>
<!-- Node2&#45;&gt;Node16 -->
<g id="edge15" class="edge">
<title>Node2&#45;&gt;Node16</title>
<path fill="none" stroke="#63b8ff" d="M710.18,-111.86C713.14,-111.18 716.13,-110.54 719,-110 732.11,-107.52 893.13,-86.81 989.14,-74.54"/>
<polygon fill="#63b8ff" stroke="#63b8ff" points="989.54,-78.01 999.01,-73.27 988.65,-71.07 989.54,-78.01"/>
</g>
<!-- Node17 -->
<g id="node17" class="node">
<title>Node17</title>
<g id="a_node17"><a xlink:title=" ">
<polygon fill="#e0e0e0" stroke="#999999" points="1229,-74 1137,-74 1137,-55 1229,-55 1229,-74"/>
<text text-anchor="middle" x="1183" y="-62" font-family="Helvetica,sans-Serif" font-size="10.00">pango/pangoft2.h</text>
</a>
</g>
</g>
<!-- Node2&#45;&gt;Node17 -->
<g id="edge16" class="edge">
<title>Node2&#45;&gt;Node17</title>
<path fill="none" stroke="#63b8ff" d="M710.16,-111.74C713.12,-111.08 716.12,-110.48 719,-110 895.36,-80.38 944.87,-95.32 1125.3,-74.24"/>
<polygon fill="#63b8ff" stroke="#63b8ff" points="1125.5,-77.74 1135.02,-73.08 1124.67,-70.79 1125.5,-77.74"/>
</g>
<!-- Node18 -->
<g id="node18" class="node">
<title>Node18</title>
<g id="a_node18"><a xlink:title=" ">
<polygon fill="#e0e0e0" stroke="#999999" points="1309,-74 1247,-74 1247,-55 1309,-55 1309,-74"/>
<text text-anchor="middle" x="1278" y="-62" font-family="Helvetica,sans-Serif" font-size="10.00">epoxy/gl.h</text>
</a>
</g>
</g>
<!-- Node2&#45;&gt;Node18 -->
<g id="edge17" class="edge">
<title>Node2&#45;&gt;Node18</title>
<path fill="none" stroke="#63b8ff" d="M710.15,-111.69C713.12,-111.04 716.12,-110.46 719,-110 943.69,-74.4 1006.99,-105.09 1235.28,-74.17"/>
<polygon fill="#63b8ff" stroke="#63b8ff" points="1235.71,-77.64 1245.13,-72.81 1234.75,-70.71 1235.71,-77.64"/>
</g>
<!-- Node19 -->
<g id="node19" class="node">
<title>Node19</title>
<g id="a_node19"><a xlink:title=" ">
<polygon fill="#e0e0e0" stroke="#999999" points="1380.5,-74 1327.5,-74 1327.5,-55 1380.5,-55 1380.5,-74"/>
<text text-anchor="middle" x="1354" y="-62" font-family="Helvetica,sans-Serif" font-size="10.00">GL/glu.h</text>
</a>
</g>
</g>
<!-- Node2&#45;&gt;Node19 -->
<g id="edge18" class="edge">
<title>Node2&#45;&gt;Node19</title>
<path fill="none" stroke="#63b8ff" d="M710.15,-111.66C713.11,-111.02 716.11,-110.44 719,-110 979,-70.04 1052.14,-111.62 1316.27,-73.94"/>
<polygon fill="#63b8ff" stroke="#63b8ff" points="1316.47,-77.45 1325.86,-72.55 1315.46,-70.52 1316.47,-77.45"/>
</g>
<!-- Node20 -->
<g id="node20" class="node">
<title>Node20</title>
<g id="a_node20"><a xlink:title=" ">
<polygon fill="#e0e0e0" stroke="#999999" points="1465.5,-74 1398.5,-74 1398.5,-55 1465.5,-55 1465.5,-74"/>
<text text-anchor="middle" x="1432" y="-62" font-family="Helvetica,sans-Serif" font-size="10.00">epoxy/glx.h</text>
</a>
</g>
</g>
<!-- Node2&#45;&gt;Node20 -->
<g id="edge19" class="edge">
<title>Node2&#45;&gt;Node20</title>
<path fill="none" stroke="#63b8ff" d="M710.14,-111.64C713.11,-111 716.11,-110.43 719,-110 1010.72,-66.12 1091.77,-110.61 1387.1,-74.18"/>
<polygon fill="#63b8ff" stroke="#63b8ff" points="1387.16,-77.7 1396.64,-72.98 1386.28,-70.76 1387.16,-77.7"/>
</g>
<!-- Node21 -->
<g id="node21" class="node">
<title>Node21</title>
<g id="a_node21"><a xlink:href="math__3d_8h.html" target="_top" xlink:title=" ">
<polygon fill="white" stroke="#666666" points="447,-74 385,-74 385,-55 447,-55 447,-74"/>
<text text-anchor="middle" x="416" y="-62" font-family="Helvetica,sans-Serif" font-size="10.00">math_3d.h</text>
</a>
</g>
</g>
<!-- Node2&#45;&gt;Node21 -->
<g id="edge20" class="edge">
<title>Node2&#45;&gt;Node21</title>
<path fill="none" stroke="#63b8ff" d="M659.69,-113.51C613.44,-104.4 514.82,-84.97 458.24,-73.82"/>
<polygon fill="#63b8ff" stroke="#63b8ff" points="459.15,-70.44 448.67,-71.94 457.8,-77.3 459.15,-70.44"/>
</g>
<!-- Node22 -->
<g id="node22" class="node">
<title>Node22</title>
<g id="a_node22"><a xlink:href="glwin_8h.html" target="_top" xlink:title=" ">
<polygon fill="white" stroke="#666666" points="1530.5,-74 1483.5,-74 1483.5,-55 1530.5,-55 1530.5,-74"/>
<text text-anchor="middle" x="1507" y="-62" font-family="Helvetica,sans-Serif" font-size="10.00">glwin.h</text>
</a>
</g>
</g>
<!-- Node2&#45;&gt;Node22 -->
<g id="edge23" class="edge">
<title>Node2&#45;&gt;Node22</title>
<path fill="none" stroke="#63b8ff" d="M710.14,-111.63C713.11,-110.99 716.11,-110.43 719,-110 1048.05,-61.52 1140.51,-124.03 1471.63,-74.2"/>
<polygon fill="#63b8ff" stroke="#63b8ff" points="1472.15,-77.66 1481.51,-72.69 1471.09,-70.74 1472.15,-77.66"/>
</g>
<!-- Node24 -->
<g id="node24" class="node">
<title>Node24</title>
<g id="a_node24"><a xlink:title=" ">
<polygon fill="#e0e0e0" stroke="#999999" points="1609,-74 1549,-74 1549,-55 1609,-55 1609,-74"/>
<text text-anchor="middle" x="1579" y="-62" font-family="Helvetica,sans-Serif" font-size="10.00">gtk/gtkx.h</text>
</a>
</g>
</g>
<!-- Node2&#45;&gt;Node24 -->
<g id="edge25" class="edge">
<title>Node2&#45;&gt;Node24</title>
<path fill="none" stroke="#63b8ff" d="M710.14,-111.62C713.11,-110.98 716.11,-110.42 719,-110 1076.73,-57.98 1175.78,-119.77 1537.53,-74.06"/>
<polygon fill="#63b8ff" stroke="#63b8ff" points="1537.88,-77.54 1547.35,-72.8 1536.99,-70.6 1537.88,-77.54"/>
</g>
<!-- Node21&#45;&gt;Node8 -->
<g id="edge22" class="edge">
<title>Node21&#45;&gt;Node8</title>
<path fill="none" stroke="#63b8ff" d="M408.57,-54.75C402.42,-47.5 393.49,-36.98 385.87,-28.02"/>
<polygon fill="#63b8ff" stroke="#63b8ff" points="388.71,-25.95 379.57,-20.6 383.38,-30.48 388.71,-25.95"/>
</g>
<!-- Node21&#45;&gt;Node12 -->
<g id="edge21" class="edge">
<title>Node21&#45;&gt;Node12</title>
<path fill="none" stroke="#63b8ff" d="M421.45,-54.75C425.77,-47.81 431.96,-37.86 437.38,-29.16"/>
<polygon fill="#63b8ff" stroke="#63b8ff" points="440.32,-31.07 442.63,-20.73 434.38,-27.37 440.32,-31.07"/>
</g>
<!-- Node23 -->
<g id="node23" class="node">
<title>Node23</title>
<g id="a_node23"><a xlink:href="ogl__shading_8h.html" target="_top" xlink:title=" ">
<polygon fill="white" stroke="#666666" points="1545.5,-19 1468.5,-19 1468.5,0 1545.5,0 1545.5,-19"/>
<text text-anchor="middle" x="1507" y="-7" font-family="Helvetica,sans-Serif" font-size="10.00">ogl_shading.h</text>
</a>
</g>
</g>
<!-- Node22&#45;&gt;Node23 -->
<g id="edge24" class="edge">
<title>Node22&#45;&gt;Node23</title>
<path fill="none" stroke="#63b8ff" d="M1507,-54.75C1507,-48.27 1507,-39.16 1507,-30.9"/>
<polygon fill="#63b8ff" stroke="#63b8ff" points="1510.5,-30.96 1507,-20.96 1503.5,-30.96 1510.5,-30.96"/>
</g>
<!-- Node27&#45;&gt;Node2 -->
<g id="edge29" class="edge">
<title>Node27&#45;&gt;Node2</title>
<path fill="none" stroke="#63b8ff" d="M915.83,-167.52C872.76,-159.85 796.2,-145.79 721.26,-129.4"/>
<polygon fill="#63b8ff" stroke="#63b8ff" points="722.21,-126.03 711.69,-127.29 720.7,-132.86 722.21,-126.03"/>
</g>
<!-- Node27&#45;&gt;Node25 -->
<g id="edge32" class="edge">
<title>Node27&#45;&gt;Node25</title>
<path fill="none" stroke="#63b8ff" d="M917.6,-164.51C885.52,-155.61 836.26,-141.94 801.15,-132.2"/>
<polygon fill="#63b8ff" stroke="#63b8ff" points="802.32,-128.89 791.75,-129.59 800.45,-135.63 802.32,-128.89"/>
</g>
<!-- Node27&#45;&gt;Node26 -->
<g id="edge34" class="edge">
<title>Node27&#45;&gt;Node26</title>
<path fill="none" stroke="#63b8ff" d="M930.32,-164.51C912.05,-156.16 884.59,-143.61 863.65,-134.05"/>
<polygon fill="#63b8ff" stroke="#63b8ff" points="865.31,-130.96 854.76,-129.99 862.4,-137.33 865.31,-130.96"/>
</g>
<!-- Node28 -->
<g id="node28" class="node">
<title>Node28</title>
<g id="a_node28"><a xlink:href="bind_8h.html" target="_top" xlink:title=" ">
<polygon fill="white" stroke="#666666" points="1167.5,-129 1124.5,-129 1124.5,-110 1167.5,-110 1167.5,-129"/>
<text text-anchor="middle" x="1146" y="-117" font-family="Helvetica,sans-Serif" font-size="10.00">bind.h</text>
</a>
</g>
</g>
<!-- Node27&#45;&gt;Node28 -->
<g id="edge30" class="edge">
<title>Node27&#45;&gt;Node28</title>
<path fill="none" stroke="#63b8ff" d="M983.51,-164.51C1014.64,-156.14 1062.57,-143.24 1113.43,-129.42"/>
<polygon fill="#63b8ff" stroke="#63b8ff" points="1114.13,-132.85 1122.86,-126.85 1112.29,-126.1 1114.13,-132.85"/>
</g>
<!-- Node29 -->
<g id="node29" class="node">
<title>Node29</title>
<g id="a_node29"><a xlink:href="callbacks_8h.html" target="_top" xlink:title=" ">
<polygon fill="white" stroke="#666666" points="1252,-129 1186,-129 1186,-110 1252,-110 1252,-129"/>
<text text-anchor="middle" x="1219" y="-117" font-family="Helvetica,sans-Serif" font-size="10.00">callbacks.h</text>
</a>
</g>
</g>
<!-- Node27&#45;&gt;Node29 -->
<g id="edge31" class="edge">
<title>Node27&#45;&gt;Node29</title>
<path fill="none" stroke="#63b8ff" d="M984.24,-166.86C1026.52,-158.64 1100.94,-144.12 1174.26,-129.54"/>
<polygon fill="#63b8ff" stroke="#63b8ff" points="1174.92,-132.97 1184.05,-127.59 1173.56,-126.11 1174.92,-132.97"/>
</g>
<!-- Node30 -->
<g id="node30" class="node">
<title>Node30</title>
<g id="a_node30"><a xlink:href="initcoord_8h.html" target="_top" xlink:title=" ">
<polygon fill="white" stroke="#666666" points="1332,-129 1270,-129 1270,-110 1332,-110 1332,-129"/>
<text text-anchor="middle" x="1301" y="-117" font-family="Helvetica,sans-Serif" font-size="10.00">initcoord.h</text>
</a>
</g>
</g>
<!-- Node27&#45;&gt;Node30 -->
<g id="edge33" class="edge">
<title>Node27&#45;&gt;Node30</title>
<path fill="none" stroke="#63b8ff" d="M984.17,-169.37C1039.6,-162.52 1152.76,-147.84 1258.41,-129.36"/>
<polygon fill="#63b8ff" stroke="#63b8ff" points="1258.87,-132.83 1268.11,-127.65 1257.65,-125.94 1258.87,-132.83"/>
</g>
<!-- Node31 -->
<g id="node31" class="node">
<title>Node31</title>
<g id="a_node31"><a xlink:href="glwindow_8h.html" target="_top" xlink:title=" ">
<polygon fill="white" stroke="#666666" points="943.5,-129 878.5,-129 878.5,-110 943.5,-110 943.5,-129"/>
<text text-anchor="middle" x="911" y="-117" font-family="Helvetica,sans-Serif" font-size="10.00">glwindow.h</text>
</a>
</g>
</g>
<!-- Node27&#45;&gt;Node31 -->
<g id="edge35" class="edge">
<title>Node27&#45;&gt;Node31</title>
<path fill="none" stroke="#63b8ff" d="M943.56,-164.75C938.34,-157.66 930.81,-147.42 924.31,-138.59"/>
<polygon fill="#63b8ff" stroke="#63b8ff" points="927.22,-136.64 918.48,-130.66 921.58,-140.79 927.22,-136.64"/>
</g>
<!-- Node32 -->
<g id="node32" class="node">
<title>Node32</title>
<g id="a_node32"><a xlink:href="project_8h.html" target="_top" xlink:title=" ">
<polygon fill="white" stroke="#666666" points="1016,-129 962,-129 962,-110 1016,-110 1016,-129"/>
<text text-anchor="middle" x="989" y="-117" font-family="Helvetica,sans-Serif" font-size="10.00">project.h</text>
</a>
</g>
</g>
<!-- Node27&#45;&gt;Node32 -->
<g id="edge36" class="edge">
<title>Node27&#45;&gt;Node32</title>
<path fill="none" stroke="#63b8ff" d="M956.44,-164.75C961.66,-157.66 969.19,-147.42 975.69,-138.59"/>
<polygon fill="#63b8ff" stroke="#63b8ff" points="978.42,-140.79 981.52,-130.66 972.78,-136.64 978.42,-140.79"/>
</g>
<!-- Node33 -->
<g id="node33" class="node">
<title>Node33</title>
<g id="a_node33"><a xlink:href="workspace_8h.html" target="_top" xlink:title=" ">
<polygon fill="white" stroke="#666666" points="1106,-129 1034,-129 1034,-110 1106,-110 1106,-129"/>
<text text-anchor="middle" x="1070" y="-117" font-family="Helvetica,sans-Serif" font-size="10.00">workspace.h</text>
</a>
</g>
</g>
<!-- Node27&#45;&gt;Node33 -->
<g id="edge37" class="edge">
<title>Node27&#45;&gt;Node33</title>
<path fill="none" stroke="#63b8ff" d="M970.36,-164.51C989.35,-156.12 1017.93,-143.5 1039.62,-133.92"/>
<polygon fill="#63b8ff" stroke="#63b8ff" points="1040.83,-137.21 1048.56,-129.97 1038,-130.81 1040.83,-137.21"/>
</g>
</g>
</svg>
