<?xml version="1.0" encoding="UTF-8" standalone="no"?>
<!DOCTYPE svg PUBLIC "-//W3C//DTD SVG 1.1//EN"
 "http://www.w3.org/Graphics/SVG/1.1/DTD/svg11.dtd">
<!-- Generated by graphviz version 7.1.0 (0)
 -->
<!-- Title: atom_selection Pages: 1 -->
<svg width="193pt" height="118pt"
 viewBox="0.00 0.00 192.50 118.00" xmlns="http://www.w3.org/2000/svg" xmlns:xlink="http://www.w3.org/1999/xlink">
<g id="graph0" class="graph" transform="scale(1 1) rotate(0) translate(4 114)">
<title>atom_selection</title>
<!-- Node1 -->
<g id="node1" class="node">
<title>Node1</title>
<g id="a_node1"><a xlink:title=" ">
<polygon fill="#999999" stroke="#666666" points="115.5,-19 32.5,-19 32.5,0 115.5,0 115.5,-19"/>
<text text-anchor="middle" x="74" y="-7" font-family="Helvetica,sans-Serif" font-size="10.00">atom_selection</text>
</a>
</g>
</g>
<!-- Node2 -->
<g id="node2" class="node">
<title>Node2</title>
<g id="a_node2"><a xlink:href="struct_col_r_g_b_a.html" target="_top" xlink:title=" ">
<polygon fill="white" stroke="#666666" points="60,-108.5 0,-108.5 0,-89.5 60,-89.5 60,-108.5"/>
<text text-anchor="middle" x="30" y="-96.5" font-family="Helvetica,sans-Serif" font-size="10.00">ColRGBA</text>
</a>
</g>
</g>
<!-- Node2&#45;&gt;Node1 -->
<g id="edge1" class="edge">
<title>Node2&#45;&gt;Node1</title>
<path fill="none" stroke="#9a32cd" stroke-dasharray="5,2" d="M25.66,-77.91C24.03,-65.35 24.01,-49.29 31,-37 35.42,-29.23 43.15,-23.44 50.84,-19.29"/>
<polygon fill="#9a32cd" stroke="#9a32cd" points="22.18,-78.3 27.36,-87.53 29.07,-77.08 22.18,-78.3"/>
<text text-anchor="middle" x="64" y="-62" font-family="Helvetica,sans-Serif" font-size="10.00"> angle_colors</text>
<text text-anchor="middle" x="64" y="-51" font-family="Helvetica,sans-Serif" font-size="10.00">bond_colors</text>
<text text-anchor="middle" x="64" y="-40" font-family="Helvetica,sans-Serif" font-size="10.00">dihedral_colors</text>
</g>
<!-- Node3 -->
<g id="node3" class="node">
<title>Node3</title>
<g id="a_node3"><a xlink:href="structselatom.html" target="_top" xlink:title=" ">
<polygon fill="white" stroke="#666666" points="144.5,-108.5 93.5,-108.5 93.5,-89.5 144.5,-89.5 144.5,-108.5"/>
<text text-anchor="middle" x="119" y="-96.5" font-family="Helvetica,sans-Serif" font-size="10.00">selatom</text>
</a>
</g>
</g>
<!-- Node3&#45;&gt;Node1 -->
<g id="edge2" class="edge">
<title>Node3&#45;&gt;Node1</title>
<path fill="none" stroke="#9a32cd" stroke-dasharray="5,2" d="M113.93,-78.37C110.26,-66 104.6,-49.96 97,-37 93.18,-30.48 87.66,-24.06 82.99,-19.17"/>
<polygon fill="#9a32cd" stroke="#9a32cd" points="110.5,-79.11 116.54,-87.82 117.25,-77.25 110.5,-79.11"/>
<text text-anchor="middle" x="121" y="-56.5" font-family="Helvetica,sans-Serif" font-size="10.00"> first</text>
<text text-anchor="middle" x="121" y="-45.5" font-family="Helvetica,sans-Serif" font-size="10.00">last</text>
</g>
<!-- Node3&#45;&gt;Node3 -->
<g id="edge3" class="edge">
<title>Node3&#45;&gt;Node3</title>
<path fill="none" stroke="#9a32cd" stroke-dasharray="5,2" d="M156.07,-106.09C159.99,-104.71 162.5,-102.35 162.5,-99 162.5,-93.05 154.55,-90.21 144.9,-90.49"/>
<polygon fill="#9a32cd" stroke="#9a32cd" points="155.88,-102.58 146.4,-107.32 156.77,-109.53 155.88,-102.58"/>
<text text-anchor="middle" x="173.5" y="-102" font-family="Helvetica,sans-Serif" font-size="10.00"> next</text>
<text text-anchor="middle" x="173.5" y="-91" font-family="Helvetica,sans-Serif" font-size="10.00">prev</text>
</g>
</g>
</svg>
