<?xml version="1.0" encoding="UTF-8" standalone="no"?>
<!DOCTYPE svg PUBLIC "-//W3C//DTD SVG 1.1//EN"
 "http://www.w3.org/Graphics/SVG/1.1/DTD/svg11.dtd">
<!-- Generated by graphviz version 7.1.0 (0)
 -->
<!-- Title: cp2k Pages: 1 -->
<svg width="113pt" height="96pt"
 viewBox="0.00 0.00 112.50 96.00" xmlns="http://www.w3.org/2000/svg" xmlns:xlink="http://www.w3.org/1999/xlink">
<g id="graph0" class="graph" transform="scale(1 1) rotate(0) translate(4 92)">
<title>cp2k</title>
<!-- Node1 -->
<g id="node1" class="node">
<title>Node1</title>
<g id="a_node1"><a xlink:title=" ">
<polygon fill="#999999" stroke="#666666" points="50.5,-19 12.5,-19 12.5,0 50.5,0 50.5,-19"/>
<text text-anchor="middle" x="31.5" y="-7" font-family="Helvetica,sans-Serif" font-size="10.00">cp2k</text>
</a>
</g>
</g>
<!-- Node2 -->
<g id="node2" class="node">
<title>Node2</title>
<g id="a_node2"><a xlink:href="structthermostat.html" target="_top" xlink:title=" ">
<polygon fill="white" stroke="#666666" points="63,-86.5 0,-86.5 0,-67.5 63,-67.5 63,-86.5"/>
<text text-anchor="middle" x="31.5" y="-74.5" font-family="Helvetica,sans-Serif" font-size="10.00">thermostat</text>
</a>
</g>
</g>
<!-- Node2&#45;&gt;Node1 -->
<g id="edge1" class="edge">
<title>Node2&#45;&gt;Node1</title>
<path fill="none" stroke="#9a32cd" stroke-dasharray="5,2" d="M31.5,-55.74C31.5,-43.48 31.5,-28.47 31.5,-19.19"/>
<polygon fill="#9a32cd" stroke="#9a32cd" points="28,-55.65 31.5,-65.65 35,-55.65 28,-55.65"/>
<text text-anchor="middle" x="68" y="-40" font-family="Helvetica,sans-Serif" font-size="10.00"> ions_thermostat</text>
</g>
<!-- Node2&#45;&gt;Node2 -->
<g id="edge2" class="edge">
<title>Node2&#45;&gt;Node2</title>
<path fill="none" stroke="#9a32cd" stroke-dasharray="5,2" d="M74.65,-82.13C78.55,-81.06 81,-79.35 81,-77 81,-72.82 73.26,-70.67 63.4,-70.54"/>
<polygon fill="#9a32cd" stroke="#9a32cd" points="74.42,-78.63 64.9,-83.28 75.24,-85.58 74.42,-78.63"/>
<text text-anchor="middle" x="92" y="-80" font-family="Helvetica,sans-Serif" font-size="10.00"> next</text>
<text text-anchor="middle" x="92" y="-69" font-family="Helvetica,sans-Serif" font-size="10.00">prev</text>
</g>
</g>
</svg>
