<?xml version="1.0" encoding="UTF-8" standalone="no"?>
<!DOCTYPE svg PUBLIC "-//W3C//DTD SVG 1.1//EN"
 "http://www.w3.org/Graphics/SVG/1.1/DTD/svg11.dtd">
<!-- Generated by graphviz version 7.1.0 (0)
 -->
<!-- Title: curve Pages: 1 -->
<svg width="391pt" height="338pt"
 viewBox="0.00 0.00 391.00 338.00" xmlns="http://www.w3.org/2000/svg" xmlns:xlink="http://www.w3.org/1999/xlink">
<g id="graph0" class="graph" transform="scale(1 1) rotate(0) translate(4 334)">
<title>curve</title>
<!-- Node1 -->
<g id="node1" class="node">
<title>Node1</title>
<g id="a_node1"><a xlink:title=" ">
<polygon fill="#999999" stroke="#666666" points="184.5,-19 143.5,-19 143.5,0 184.5,0 184.5,-19"/>
<text text-anchor="middle" x="164" y="-7" font-family="Helvetica,sans-Serif" font-size="10.00">curve</text>
</a>
</g>
</g>
<!-- Node2 -->
<g id="node2" class="node">
<title>Node2</title>
<g id="a_node2"><a xlink:href="structqint.html" target="_top" xlink:title=" ">
<polygon fill="white" stroke="#666666" points="32,-85 0,-85 0,-66 32,-66 32,-85"/>
<text text-anchor="middle" x="16" y="-73" font-family="Helvetica,sans-Serif" font-size="10.00">qint</text>
</a>
</g>
</g>
<!-- Node2&#45;&gt;Node1 -->
<g id="edge1" class="edge">
<title>Node2&#45;&gt;Node1</title>
<path fill="none" stroke="#9a32cd" stroke-dasharray="5,2" d="M14.92,-54.23C15.62,-47.98 17.57,-41.55 22,-37 38.5,-20.07 107.69,-13.71 143.03,-11.52"/>
<polygon fill="#9a32cd" stroke="#9a32cd" points="11.42,-53.94 14.79,-63.99 18.42,-54.04 11.42,-53.94"/>
<text text-anchor="middle" x="34" y="-40" font-family="Helvetica,sans-Serif" font-size="10.00"> idcol</text>
</g>
<!-- Node3 -->
<g id="node3" class="node">
<title>Node3</title>
<g id="a_node3"><a xlink:href="struct_col_r_g_b_a.html" target="_top" xlink:title=" ">
<polygon fill="white" stroke="#666666" points="106,-330 46,-330 46,-311 106,-311 106,-330"/>
<text text-anchor="middle" x="76" y="-318" font-family="Helvetica,sans-Serif" font-size="10.00">ColRGBA</text>
</a>
</g>
</g>
<!-- Node3&#45;&gt;Node1 -->
<g id="edge2" class="edge">
<title>Node3&#45;&gt;Node1</title>
<path fill="none" stroke="#9a32cd" stroke-dasharray="5,2" d="M68.5,-300.03C64.34,-287.51 60,-270.78 60,-255.5 60,-255.5 60,-255.5 60,-74.5 60,-35.7 113.14,-19.67 143.45,-13.68"/>
<polygon fill="#9a32cd" stroke="#9a32cd" points="65.1,-300.91 71.78,-309.14 71.69,-298.54 65.1,-300.91"/>
<text text-anchor="middle" x="98" y="-190" font-family="Helvetica,sans-Serif" font-size="10.00"> backcolor</text>
<text text-anchor="middle" x="98" y="-179" font-family="Helvetica,sans-Serif" font-size="10.00">frame_color</text>
<text text-anchor="middle" x="98" y="-168" font-family="Helvetica,sans-Serif" font-size="10.00">legend_box_color</text>
<text text-anchor="middle" x="98" y="-157" font-family="Helvetica,sans-Serif" font-size="10.00">legend_color</text>
<text text-anchor="middle" x="98" y="-146" font-family="Helvetica,sans-Serif" font-size="10.00">title_color</text>
</g>
<!-- Node4 -->
<g id="node4" class="node">
<title>Node4</title>
<g id="a_node4"><a xlink:href="struct_data_layout.html" target="_top" xlink:title=" ">
<polygon fill="white" stroke="#666666" points="197.5,-264 130.5,-264 130.5,-245 197.5,-245 197.5,-264"/>
<text text-anchor="middle" x="164" y="-252" font-family="Helvetica,sans-Serif" font-size="10.00">DataLayout</text>
</a>
</g>
</g>
<!-- Node3&#45;&gt;Node4 -->
<g id="edge4" class="edge">
<title>Node3&#45;&gt;Node4</title>
<path fill="none" stroke="#9a32cd" stroke-dasharray="5,2" d="M97.46,-303.89C114.55,-291.46 137.86,-274.51 151.87,-264.32"/>
<polygon fill="#9a32cd" stroke="#9a32cd" points="95.49,-301 89.46,-309.71 99.61,-306.66 95.49,-301"/>
<text text-anchor="middle" x="147.5" y="-285" font-family="Helvetica,sans-Serif" font-size="10.00"> datacolor</text>
</g>
<!-- Node4&#45;&gt;Node1 -->
<g id="edge3" class="edge">
<title>Node4&#45;&gt;Node1</title>
<path fill="none" stroke="#9a32cd" stroke-dasharray="5,2" d="M164,-233.37C164,-183.18 164,-54.08 164,-19.26"/>
<polygon fill="#9a32cd" stroke="#9a32cd" points="160.5,-233.05 164,-243.05 167.5,-233.05 160.5,-233.05"/>
<text text-anchor="middle" x="179" y="-111.5" font-family="Helvetica,sans-Serif" font-size="10.00"> layout</text>
</g>
<!-- Node6 -->
<g id="node6" class="node">
<title>Node6</title>
<g id="a_node6"><a xlink:href="structcextra.html" target="_top" xlink:title=" ">
<polygon fill="white" stroke="#666666" points="236,-180 192,-180 192,-161 236,-161 236,-180"/>
<text text-anchor="middle" x="214" y="-168" font-family="Helvetica,sans-Serif" font-size="10.00">cextra</text>
</a>
</g>
</g>
<!-- Node4&#45;&gt;Node6 -->
<g id="edge8" class="edge">
<title>Node4&#45;&gt;Node6</title>
<path fill="none" stroke="#9a32cd" stroke-dasharray="5,2" d="M175.1,-235.29C185.48,-218.27 200.54,-193.57 208.54,-180.46"/>
<polygon fill="#9a32cd" stroke="#9a32cd" points="172.36,-233.07 170.14,-243.43 178.33,-236.72 172.36,-233.07"/>
<text text-anchor="middle" x="202" y="-219" font-family="Helvetica,sans-Serif" font-size="10.00"> layout</text>
</g>
<!-- Node5 -->
<g id="node5" class="node">
<title>Node5</title>
<g id="a_node5"><a xlink:href="struct_extra_sets.html" target="_top" xlink:title=" ">
<polygon fill="white" stroke="#666666" points="252,-85 192,-85 192,-66 252,-66 252,-85"/>
<text text-anchor="middle" x="222" y="-73" font-family="Helvetica,sans-Serif" font-size="10.00">ExtraSets</text>
</a>
</g>
</g>
<!-- Node5&#45;&gt;Node1 -->
<g id="edge5" class="edge">
<title>Node5&#45;&gt;Node1</title>
<path fill="none" stroke="#9a32cd" stroke-dasharray="5,2" d="M206.25,-57.12C195.17,-44.89 180.8,-29.04 172,-19.32"/>
<polygon fill="#9a32cd" stroke="#9a32cd" points="203.61,-59.42 212.92,-64.48 208.8,-54.72 203.61,-59.42"/>
<text text-anchor="middle" x="212.5" y="-40" font-family="Helvetica,sans-Serif" font-size="10.00"> extrac</text>
</g>
<!-- Node6&#45;&gt;Node5 -->
<g id="edge6" class="edge">
<title>Node6&#45;&gt;Node5</title>
<path fill="none" stroke="#9a32cd" stroke-dasharray="5,2" d="M215.73,-149.39C217.45,-129.45 219.99,-99.83 221.25,-85.25"/>
<polygon fill="#9a32cd" stroke="#9a32cd" points="212.27,-148.81 214.9,-159.07 219.24,-149.41 212.27,-148.81"/>
<text text-anchor="middle" x="230" y="-117" font-family="Helvetica,sans-Serif" font-size="10.00"> first</text>
<text text-anchor="middle" x="230" y="-106" font-family="Helvetica,sans-Serif" font-size="10.00">last</text>
</g>
<!-- Node6&#45;&gt;Node6 -->
<g id="edge9" class="edge">
<title>Node6&#45;&gt;Node6</title>
<path fill="none" stroke="#9a32cd" stroke-dasharray="5,2" d="M247.43,-178.71C251.4,-177.22 254,-174.48 254,-170.5 254,-163.43 245.8,-160.28 236.21,-161.05"/>
<polygon fill="#9a32cd" stroke="#9a32cd" points="247.27,-175.21 237.72,-179.78 248.04,-182.16 247.27,-175.21"/>
<text text-anchor="middle" x="265" y="-173.5" font-family="Helvetica,sans-Serif" font-size="10.00"> next</text>
<text text-anchor="middle" x="265" y="-162.5" font-family="Helvetica,sans-Serif" font-size="10.00">prev</text>
</g>
<!-- Node7 -->
<g id="node7" class="node">
<title>Node7</title>
<g id="a_node7"><a xlink:href="structtint.html" target="_top" xlink:title=" ">
<polygon fill="white" stroke="#666666" points="272,-264 242,-264 242,-245 272,-245 272,-264"/>
<text text-anchor="middle" x="257" y="-252" font-family="Helvetica,sans-Serif" font-size="10.00">tint</text>
</a>
</g>
</g>
<!-- Node7&#45;&gt;Node6 -->
<g id="edge7" class="edge">
<title>Node7&#45;&gt;Node6</title>
<path fill="none" stroke="#9a32cd" stroke-dasharray="5,2" d="M247.2,-234.81C238.28,-217.81 225.51,-193.45 218.7,-180.46"/>
<polygon fill="#9a32cd" stroke="#9a32cd" points="243.95,-236.15 251.7,-243.38 250.15,-232.9 243.95,-236.15"/>
<text text-anchor="middle" x="249.5" y="-219" font-family="Helvetica,sans-Serif" font-size="10.00"> id</text>
</g>
<!-- Node8 -->
<g id="node8" class="node">
<title>Node8</title>
<g id="a_node8"><a xlink:href="struct_curve_state.html" target="_top" xlink:title=" ">
<polygon fill="white" stroke="#666666" points="360,-180 294,-180 294,-161 360,-161 360,-180"/>
<text text-anchor="middle" x="327" y="-168" font-family="Helvetica,sans-Serif" font-size="10.00">CurveState</text>
</a>
</g>
</g>
<!-- Node7&#45;&gt;Node8 -->
<g id="edge12" class="edge">
<title>Node7&#45;&gt;Node8</title>
<path fill="none" stroke="#9a32cd" stroke-dasharray="5,2" d="M271.73,-236.25C286.27,-219.21 307.95,-193.82 319.35,-180.46"/>
<polygon fill="#9a32cd" stroke="#9a32cd" points="269.3,-233.7 265.47,-243.57 274.63,-238.24 269.3,-233.7"/>
<text text-anchor="middle" x="293.5" y="-219" font-family="Helvetica,sans-Serif" font-size="10.00"> id</text>
</g>
<!-- Node8&#45;&gt;Node1 -->
<g id="edge10" class="edge">
<title>Node8&#45;&gt;Node1</title>
<path fill="none" stroke="#9a32cd" stroke-dasharray="5,2" d="M318.77,-150.14C305.22,-120.75 275.33,-65.29 232,-37 217.47,-27.51 199.01,-20.59 185,-16.2"/>
<polygon fill="#9a32cd" stroke="#9a32cd" points="315.57,-151.56 322.82,-159.28 321.97,-148.72 315.57,-151.56"/>
<text text-anchor="middle" x="292.5" y="-73" font-family="Helvetica,sans-Serif" font-size="10.00"> state</text>
</g>
<!-- Node9 -->
<g id="node9" class="node">
<title>Node9</title>
<g id="a_node9"><a xlink:href="struct_mouse_state.html" target="_top" xlink:title=" ">
<polygon fill="white" stroke="#666666" points="361.5,-264 292.5,-264 292.5,-245 361.5,-245 361.5,-264"/>
<text text-anchor="middle" x="327" y="-252" font-family="Helvetica,sans-Serif" font-size="10.00">MouseState</text>
</a>
</g>
</g>
<!-- Node9&#45;&gt;Node8 -->
<g id="edge11" class="edge">
<title>Node9&#45;&gt;Node8</title>
<path fill="none" stroke="#9a32cd" stroke-dasharray="5,2" d="M327,-233.33C327,-216.42 327,-193.08 327,-180.46"/>
<polygon fill="#9a32cd" stroke="#9a32cd" points="323.5,-233.21 327,-243.21 330.5,-233.21 323.5,-233.21"/>
<text text-anchor="middle" x="355" y="-219" font-family="Helvetica,sans-Serif" font-size="10.00"> mouseState</text>
</g>
</g>
</svg>
