<?xml version="1.0" encoding="UTF-8" standalone="no"?>
<!DOCTYPE svg PUBLIC "-//W3C//DTD SVG 1.1//EN"
 "http://www.w3.org/Graphics/SVG/1.1/DTD/svg11.dtd">
<!-- Generated by graphviz version 7.1.0 (0)
 -->
<!-- Title: submenus.h Pages: 1 -->
<svg width="779pt" height="82pt"
 viewBox="0.00 0.00 778.50 82.00" xmlns="http://www.w3.org/2000/svg" xmlns:xlink="http://www.w3.org/1999/xlink">
<g id="graph0" class="graph" transform="scale(1 1) rotate(0) translate(4 78)">
<title>submenus.h</title>
<!-- Node1 -->
<g id="node1" class="node">
<title>Node1</title>
<g id="a_node1"><a xlink:title=" ">
<polygon fill="#999999" stroke="#666666" points="424,-74 354,-74 354,-55 424,-55 424,-74"/>
<text text-anchor="middle" x="389" y="-62" font-family="Helvetica,sans-Serif" font-size="10.00">submenus.h</text>
</a>
</g>
</g>
<!-- Node2 -->
<g id="node2" class="node">
<title>Node2</title>
<g id="a_node2"><a xlink:href="chainscall_8c.html" target="_top" xlink:title=" ">
<polygon fill="white" stroke="#666666" points="68,-19 0,-19 0,0 68,0 68,-19"/>
<text text-anchor="middle" x="34" y="-7" font-family="Helvetica,sans-Serif" font-size="10.00">chainscall.c</text>
</a>
</g>
</g>
<!-- Node1&#45;&gt;Node2 -->
<g id="edge1" class="edge">
<title>Node1&#45;&gt;Node2</title>
<path fill="none" stroke="#63b8ff" d="M342.65,-57.68C281.6,-49.83 171,-34.98 77,-19 74.15,-18.52 71.2,-17.99 68.24,-17.44"/>
<polygon fill="#63b8ff" stroke="#63b8ff" points="341.95,-61.12 352.31,-58.91 342.84,-54.17 341.95,-61.12"/>
</g>
<!-- Node3 -->
<g id="node3" class="node">
<title>Node3</title>
<g id="a_node3"><a xlink:href="glwindow_8c.html" target="_top" xlink:title=" ">
<polygon fill="white" stroke="#666666" points="151.5,-19 86.5,-19 86.5,0 151.5,0 151.5,-19"/>
<text text-anchor="middle" x="119" y="-7" font-family="Helvetica,sans-Serif" font-size="10.00">glwindow.c</text>
</a>
</g>
</g>
<!-- Node1&#45;&gt;Node3 -->
<g id="edge2" class="edge">
<title>Node1&#45;&gt;Node3</title>
<path fill="none" stroke="#63b8ff" d="M342.71,-54.56C296.64,-45.64 223.9,-31.5 161,-19 157.94,-18.39 154.75,-17.75 151.55,-17.11"/>
<polygon fill="#63b8ff" stroke="#63b8ff" points="341.86,-57.96 352.35,-56.43 343.19,-51.09 341.86,-57.96"/>
</g>
<!-- Node4 -->
<g id="node4" class="node">
<title>Node4</title>
<g id="a_node4"><a xlink:href="m__axis_8c.html" target="_top" xlink:title=" ">
<polygon fill="white" stroke="#666666" points="226,-19 170,-19 170,0 226,0 226,-19"/>
<text text-anchor="middle" x="198" y="-7" font-family="Helvetica,sans-Serif" font-size="10.00">m_axis.c</text>
</a>
</g>
</g>
<!-- Node1&#45;&gt;Node4 -->
<g id="edge3" class="edge">
<title>Node1&#45;&gt;Node4</title>
<path fill="none" stroke="#63b8ff" d="M345.78,-51.51C309.28,-41.38 258.06,-27.16 226.5,-18.41"/>
<polygon fill="#63b8ff" stroke="#63b8ff" points="344.57,-54.8 355.14,-54.1 346.44,-48.06 344.57,-54.8"/>
</g>
<!-- Node5 -->
<g id="node5" class="node">
<title>Node5</title>
<g id="a_node5"><a xlink:href="m__box_8c.html" target="_top" xlink:title=" ">
<polygon fill="white" stroke="#666666" points="298,-19 244,-19 244,0 298,0 298,-19"/>
<text text-anchor="middle" x="271" y="-7" font-family="Helvetica,sans-Serif" font-size="10.00">m_box.c</text>
</a>
</g>
</g>
<!-- Node1&#45;&gt;Node5 -->
<g id="edge4" class="edge">
<title>Node1&#45;&gt;Node5</title>
<path fill="none" stroke="#63b8ff" d="M358.49,-49.8C337.13,-40.2 309.21,-27.66 290.72,-19.36"/>
<polygon fill="#63b8ff" stroke="#63b8ff" points="357.05,-52.98 367.6,-53.89 359.91,-46.6 357.05,-52.98"/>
</g>
<!-- Node6 -->
<g id="node6" class="node">
<title>Node6</title>
<g id="a_node6"><a xlink:href="m__clones_8c.html" target="_top" xlink:title=" ">
<polygon fill="white" stroke="#666666" points="383.5,-19 316.5,-19 316.5,0 383.5,0 383.5,-19"/>
<text text-anchor="middle" x="350" y="-7" font-family="Helvetica,sans-Serif" font-size="10.00">m_clones.c</text>
</a>
</g>
</g>
<!-- Node1&#45;&gt;Node6 -->
<g id="edge5" class="edge">
<title>Node1&#45;&gt;Node6</title>
<path fill="none" stroke="#63b8ff" d="M375.86,-45.65C369.38,-36.84 361.84,-26.59 356.58,-19.44"/>
<polygon fill="#63b8ff" stroke="#63b8ff" points="372.92,-47.55 381.66,-53.53 378.56,-43.4 372.92,-47.55"/>
</g>
<!-- Node7 -->
<g id="node7" class="node">
<title>Node7</title>
<g id="a_node7"><a xlink:href="m__rep_8c.html" target="_top" xlink:title=" ">
<polygon fill="white" stroke="#666666" points="454,-19 402,-19 402,0 454,0 454,-19"/>
<text text-anchor="middle" x="428" y="-7" font-family="Helvetica,sans-Serif" font-size="10.00">m_rep.c</text>
</a>
</g>
</g>
<!-- Node1&#45;&gt;Node7 -->
<g id="edge6" class="edge">
<title>Node1&#45;&gt;Node7</title>
<path fill="none" stroke="#63b8ff" d="M402.14,-45.65C408.62,-36.84 416.16,-26.59 421.42,-19.44"/>
<polygon fill="#63b8ff" stroke="#63b8ff" points="399.44,-43.4 396.34,-53.53 405.08,-47.55 399.44,-43.4"/>
</g>
<!-- Node8 -->
<g id="node8" class="node">
<title>Node8</title>
<g id="a_node8"><a xlink:href="m__tools_8c.html" target="_top" xlink:title=" ">
<polygon fill="white" stroke="#666666" points="531.5,-19 472.5,-19 472.5,0 531.5,0 531.5,-19"/>
<text text-anchor="middle" x="502" y="-7" font-family="Helvetica,sans-Serif" font-size="10.00">m_tools.c</text>
</a>
</g>
</g>
<!-- Node1&#45;&gt;Node8 -->
<g id="edge7" class="edge">
<title>Node1&#45;&gt;Node8</title>
<path fill="none" stroke="#63b8ff" d="M418.49,-49.67C438.92,-40.09 465.49,-27.62 483.11,-19.36"/>
<polygon fill="#63b8ff" stroke="#63b8ff" points="417.11,-46.45 409.54,-53.87 420.08,-52.79 417.11,-46.45"/>
</g>
<!-- Node9 -->
<g id="node9" class="node">
<title>Node9</title>
<g id="a_node9"><a xlink:href="menu__bar_8c.html" target="_top" xlink:title=" ">
<polygon fill="white" stroke="#666666" points="618,-19 550,-19 550,0 618,0 618,-19"/>
<text text-anchor="middle" x="584" y="-7" font-family="Helvetica,sans-Serif" font-size="10.00">menu_bar.c</text>
</a>
</g>
</g>
<!-- Node1&#45;&gt;Node9 -->
<g id="edge8" class="edge">
<title>Node1&#45;&gt;Node9</title>
<path fill="none" stroke="#63b8ff" d="M433.18,-51.49C469,-41.76 518.69,-28.25 551.08,-19.45"/>
<polygon fill="#63b8ff" stroke="#63b8ff" points="432.27,-48.11 423.54,-54.11 434.11,-54.87 432.27,-48.11"/>
</g>
<!-- Node10 -->
<g id="node10" class="node">
<title>Node10</title>
<g id="a_node10"><a xlink:href="popup_8c.html" target="_top" xlink:title=" ">
<polygon fill="white" stroke="#666666" points="687.5,-19 636.5,-19 636.5,0 687.5,0 687.5,-19"/>
<text text-anchor="middle" x="662" y="-7" font-family="Helvetica,sans-Serif" font-size="10.00">popup.c</text>
</a>
</g>
</g>
<!-- Node1&#45;&gt;Node10 -->
<g id="edge9" class="edge">
<title>Node1&#45;&gt;Node10</title>
<path fill="none" stroke="#63b8ff" d="M435.48,-55.57C483.56,-47.18 560.75,-33.23 627,-19 629.93,-18.37 633,-17.68 636.04,-16.97"/>
<polygon fill="#63b8ff" stroke="#63b8ff" points="434.95,-52.11 425.69,-57.27 436.14,-59 434.95,-52.11"/>
</g>
<!-- Node11 -->
<g id="node11" class="node">
<title>Node11</title>
<g id="a_node11"><a xlink:href="read__mol_8c.html" target="_top" xlink:title=" ">
<polygon fill="white" stroke="#666666" points="770.5,-19 705.5,-19 705.5,0 770.5,0 770.5,-19"/>
<text text-anchor="middle" x="738" y="-7" font-family="Helvetica,sans-Serif" font-size="10.00">read_mol.c</text>
</a>
</g>
</g>
<!-- Node1&#45;&gt;Node11 -->
<g id="edge10" class="edge">
<title>Node1&#45;&gt;Node11</title>
<path fill="none" stroke="#63b8ff" d="M435.27,-57.71C495.65,-49.95 604.52,-35.25 697,-19 699.72,-18.52 702.54,-18 705.36,-17.45"/>
<polygon fill="#63b8ff" stroke="#63b8ff" points="435.19,-54.19 425.72,-58.93 436.08,-61.13 435.19,-54.19"/>
</g>
</g>
</svg>
