<?xml version="1.0" encoding="UTF-8" standalone="no"?>
<!DOCTYPE svg PUBLIC "-//W3C//DTD SVG 1.1//EN"
 "http://www.w3.org/Graphics/SVG/1.1/DTD/svg11.dtd">
<!-- Generated by graphviz version 9.0.0 (20230911.1827)
 -->
<!-- Title: project/readers/read_coord.c Pages: 1 -->
<svg width="1618pt" height="264pt"
 viewBox="0.00 0.00 1617.62 264.00" xmlns="http://www.w3.org/2000/svg" xmlns:xlink="http://www.w3.org/1999/xlink">
<g id="graph0" class="graph" transform="scale(1 1) rotate(0) translate(4 260)">
<title>project/readers/read_coord.c</title>
<!-- Node1 -->
<g id="Node000001" class="node">
<title>Node1</title>
<g id="a_Node000001"><a xlink:title="General functions to import atomic coordinates.">
<polygon fill="#999999" stroke="#666666" points="809.75,-256 707.5,-256 707.5,-224 809.75,-224 809.75,-256"/>
<text text-anchor="start" x="715.5" y="-242.5" font-family="Helvetica,sans-Serif" font-size="10.00">project/readers/read</text>
<text text-anchor="middle" x="758.62" y="-230.5" font-family="Helvetica,sans-Serif" font-size="10.00">_coord.c</text>
</a>
</g>
</g>
<!-- Node2 -->
<g id="Node000002" class="node">
<title>Node2</title>
<g id="a_Node000002"><a xlink:href="../../d2/d49/global_8h.html" target="_top" xlink:title="Global variable declarations &#160;&#160;Global convenience function declarations &#160;&#160;Global data structure defin...">
<polygon fill="white" stroke="#666666" points="740.5,-132 690.75,-132 690.75,-112 740.5,-112 740.5,-132"/>
<text text-anchor="middle" x="715.62" y="-118.5" font-family="Helvetica,sans-Serif" font-size="10.00">global.h</text>
</a>
</g>
</g>
<!-- Node1&#45;&gt;Node2 -->
<g id="edge1_Node000001_Node000002" class="edge">
<title>Node1&#45;&gt;Node2</title>
<g id="a_edge1_Node000001_Node000002"><a xlink:title=" ">
<path fill="none" stroke="#63b8ff" d="M707.07,-232.49C655.94,-224.85 582.81,-210.31 565.62,-188 533.76,-146.62 625.19,-131.15 679.14,-125.71"/>
<polygon fill="#63b8ff" stroke="#63b8ff" points="679.21,-129.22 688.84,-124.81 678.56,-122.25 679.21,-129.22"/>
</a>
</g>
</g>
<!-- Node25 -->
<g id="Node000025" class="node">
<title>Node25</title>
<g id="a_Node000025"><a xlink:href="../../dc/de3/glview_8h.html" target="_top" xlink:title="Variable declarations related to the OpenGL window &#160;&#160;Function declarations related to the OpenGL wind...">
<polygon fill="white" stroke="#666666" points="626.25,-188 575,-188 575,-168 626.25,-168 626.25,-188"/>
<text text-anchor="middle" x="600.62" y="-174.5" font-family="Helvetica,sans-Serif" font-size="10.00">glview.h</text>
</a>
</g>
</g>
<!-- Node1&#45;&gt;Node25 -->
<g id="edge26_Node000001_Node000025" class="edge">
<title>Node1&#45;&gt;Node25</title>
<g id="a_edge26_Node000001_Node000025"><a xlink:title=" ">
<path fill="none" stroke="#63b8ff" d="M717.94,-223.55C692.56,-213.91 660.23,-201.64 635.94,-192.41"/>
<polygon fill="#63b8ff" stroke="#63b8ff" points="637.41,-189.22 626.81,-188.95 634.92,-195.77 637.41,-189.22"/>
</a>
</g>
</g>
<!-- Node26 -->
<g id="Node000026" class="node">
<title>Node26</title>
<g id="a_Node000026"><a xlink:href="../../dd/d49/callbacks_8h.html" target="_top" xlink:title="Callback declarations for main window.">
<polygon fill="white" stroke="#666666" points="709.38,-188 643.88,-188 643.88,-168 709.38,-168 709.38,-188"/>
<text text-anchor="middle" x="676.62" y="-174.5" font-family="Helvetica,sans-Serif" font-size="10.00">callbacks.h</text>
</a>
</g>
</g>
<!-- Node1&#45;&gt;Node26 -->
<g id="edge27_Node000001_Node000026" class="edge">
<title>Node1&#45;&gt;Node26</title>
<g id="a_edge27_Node000001_Node000026"><a xlink:title=" ">
<path fill="none" stroke="#63b8ff" d="M737.51,-223.55C725.53,-214.78 710.55,-203.83 698.46,-194.97"/>
<polygon fill="#63b8ff" stroke="#63b8ff" points="700.84,-192.38 690.7,-189.3 696.71,-198.03 700.84,-192.38"/>
</a>
</g>
</g>
<!-- Node27 -->
<g id="Node000027" class="node">
<title>Node27</title>
<g id="a_Node000027"><a xlink:href="../../d4/da9/interface_8h.html" target="_top" xlink:title="Messaging function declarations.">
<polygon fill="white" stroke="#666666" points="789.5,-188 727.75,-188 727.75,-168 789.5,-168 789.5,-188"/>
<text text-anchor="middle" x="758.62" y="-174.5" font-family="Helvetica,sans-Serif" font-size="10.00">interface.h</text>
</a>
</g>
</g>
<!-- Node1&#45;&gt;Node27 -->
<g id="edge28_Node000001_Node000027" class="edge">
<title>Node1&#45;&gt;Node27</title>
<g id="a_edge28_Node000001_Node000027"><a xlink:title=" ">
<path fill="none" stroke="#63b8ff" d="M758.62,-223.55C758.62,-216.34 758.62,-207.66 758.62,-199.88"/>
<polygon fill="#63b8ff" stroke="#63b8ff" points="762.13,-199.92 758.63,-189.92 755.13,-199.92 762.13,-199.92"/>
</a>
</g>
</g>
<!-- Node28 -->
<g id="Node000028" class="node">
<title>Node28</title>
<g id="a_Node000028"><a xlink:href="../../dc/d8d/project_8h.html" target="_top" xlink:title="Function declarations for reading atomes project file &#160;&#160;Function declarations for saving atomes proje...">
<polygon fill="white" stroke="#666666" points="861.38,-188 807.88,-188 807.88,-168 861.38,-168 861.38,-188"/>
<text text-anchor="middle" x="834.62" y="-174.5" font-family="Helvetica,sans-Serif" font-size="10.00">project.h</text>
</a>
</g>
</g>
<!-- Node1&#45;&gt;Node28 -->
<g id="edge29_Node000001_Node000028" class="edge">
<title>Node1&#45;&gt;Node28</title>
<g id="a_edge29_Node000001_Node000028"><a xlink:title=" ">
<path fill="none" stroke="#63b8ff" d="M778.2,-223.55C789.08,-214.95 802.63,-204.26 813.72,-195.5"/>
<polygon fill="#63b8ff" stroke="#63b8ff" points="815.84,-198.29 821.52,-189.35 811.5,-192.8 815.84,-198.29"/>
</a>
</g>
</g>
<!-- Node29 -->
<g id="Node000029" class="node">
<title>Node29</title>
<g id="a_Node000029"><a xlink:href="../../da/dc2/bind_8h.html" target="_top" xlink:title="Binding to the Fortran90 subroutines.">
<polygon fill="white" stroke="#666666" points="921.75,-188 879.5,-188 879.5,-168 921.75,-168 921.75,-188"/>
<text text-anchor="middle" x="900.62" y="-174.5" font-family="Helvetica,sans-Serif" font-size="10.00">bind.h</text>
</a>
</g>
</g>
<!-- Node1&#45;&gt;Node29 -->
<g id="edge30_Node000001_Node000029" class="edge">
<title>Node1&#45;&gt;Node29</title>
<g id="a_edge30_Node000001_Node000029"><a xlink:title=" ">
<path fill="none" stroke="#63b8ff" d="M795.19,-223.55C817.97,-213.92 846.98,-201.67 868.81,-192.44"/>
<polygon fill="#63b8ff" stroke="#63b8ff" points="869.94,-195.76 877.79,-188.65 867.22,-189.32 869.94,-195.76"/>
</a>
</g>
</g>
<!-- Node30 -->
<g id="Node000030" class="node">
<title>Node30</title>
<g id="a_Node000030"><a xlink:href="../../de/d8a/cbuild__edit_8h.html" target="_top" xlink:title="Function declarations for the crystal builder.">
<polygon fill="white" stroke="#666666" points="1011,-188 940.25,-188 940.25,-168 1011,-168 1011,-188"/>
<text text-anchor="middle" x="975.62" y="-174.5" font-family="Helvetica,sans-Serif" font-size="10.00">cbuild_edit.h</text>
</a>
</g>
</g>
<!-- Node1&#45;&gt;Node30 -->
<g id="edge31_Node000001_Node000030" class="edge">
<title>Node1&#45;&gt;Node30</title>
<g id="a_edge31_Node000001_Node000030"><a xlink:title=" ">
<path fill="none" stroke="#63b8ff" d="M810.05,-224.78C846.69,-214.65 895.48,-201.16 930.59,-191.45"/>
<polygon fill="#63b8ff" stroke="#63b8ff" points="931.31,-194.88 940.01,-188.85 929.44,-188.14 931.31,-194.88"/>
</a>
</g>
</g>
<!-- Node3 -->
<g id="Node000003" class="node">
<title>Node3</title>
<g id="a_Node000003"><a xlink:title=" ">
<polygon fill="#e0e0e0" stroke="#999999" points="39.25,-76 0,-76 0,-56 39.25,-56 39.25,-76"/>
<text text-anchor="middle" x="19.62" y="-62.5" font-family="Helvetica,sans-Serif" font-size="10.00">glib.h</text>
</a>
</g>
</g>
<!-- Node2&#45;&gt;Node3 -->
<g id="edge2_Node000002_Node000003" class="edge">
<title>Node2&#45;&gt;Node3</title>
<g id="a_edge2_Node000002_Node000003"><a xlink:title=" ">
<path fill="none" stroke="#63b8ff" d="M690.48,-121.5C602.96,-122.77 303.73,-123.3 50.9,-76.22"/>
<polygon fill="#63b8ff" stroke="#63b8ff" points="51.62,-72.79 41.15,-74.37 50.32,-79.67 51.62,-72.79"/>
</a>
</g>
</g>
<!-- Node4 -->
<g id="Node000004" class="node">
<title>Node4</title>
<g id="a_Node000004"><a xlink:title=" ">
<polygon fill="#e0e0e0" stroke="#999999" points="122.38,-76 56.88,-76 56.88,-56 122.38,-56 122.38,-76"/>
<text text-anchor="middle" x="89.62" y="-62.5" font-family="Helvetica,sans-Serif" font-size="10.00">glib/gi18n.h</text>
</a>
</g>
</g>
<!-- Node2&#45;&gt;Node4 -->
<g id="edge3_Node000002_Node000004" class="edge">
<title>Node2&#45;&gt;Node4</title>
<g id="a_edge3_Node000002_Node000004"><a xlink:title=" ">
<path fill="none" stroke="#63b8ff" d="M690.45,-120.27C610.5,-117.69 355.16,-107.5 133.75,-76.1"/>
<polygon fill="#63b8ff" stroke="#63b8ff" points="134.46,-72.67 124.06,-74.71 133.46,-79.6 134.46,-72.67"/>
</a>
</g>
</g>
<!-- Node5 -->
<g id="Node000005" class="node">
<title>Node5</title>
<g id="a_Node000005"><a xlink:title=" ">
<polygon fill="#e0e0e0" stroke="#999999" points="190.5,-76 140.75,-76 140.75,-56 190.5,-56 190.5,-76"/>
<text text-anchor="middle" x="165.62" y="-62.5" font-family="Helvetica,sans-Serif" font-size="10.00">locale.h</text>
</a>
</g>
</g>
<!-- Node2&#45;&gt;Node5 -->
<g id="edge4_Node000002_Node000005" class="edge">
<title>Node2&#45;&gt;Node5</title>
<g id="a_edge4_Node000002_Node000005"><a xlink:title=" ">
<path fill="none" stroke="#63b8ff" d="M690.46,-120.33C616.76,-118.07 394.98,-108.96 201.98,-76.11"/>
<polygon fill="#63b8ff" stroke="#63b8ff" points="202.71,-72.69 192.26,-74.43 201.52,-79.58 202.71,-72.69"/>
</a>
</g>
</g>
<!-- Node6 -->
<g id="Node000006" class="node">
<title>Node6</title>
<g id="a_Node000006"><a xlink:title=" ">
<polygon fill="#e0e0e0" stroke="#999999" points="258.88,-76 208.38,-76 208.38,-56 258.88,-56 258.88,-76"/>
<text text-anchor="middle" x="233.62" y="-62.5" font-family="Helvetica,sans-Serif" font-size="10.00">unistd.h</text>
</a>
</g>
</g>
<!-- Node2&#45;&gt;Node6 -->
<g id="edge5_Node000002_Node000006" class="edge">
<title>Node2&#45;&gt;Node6</title>
<g id="a_edge5_Node000002_Node000006"><a xlink:title=" ">
<path fill="none" stroke="#63b8ff" d="M690.66,-119.88C623.89,-116.61 435.55,-105.44 270.02,-76.17"/>
<polygon fill="#63b8ff" stroke="#63b8ff" points="271.1,-72.81 260.64,-74.49 269.86,-79.7 271.1,-72.81"/>
</a>
</g>
</g>
<!-- Node7 -->
<g id="Node000007" class="node">
<title>Node7</title>
<g id="a_Node000007"><a xlink:title=" ">
<polygon fill="#e0e0e0" stroke="#999999" points="324.75,-76 276.5,-76 276.5,-56 324.75,-56 324.75,-76"/>
<text text-anchor="middle" x="300.62" y="-62.5" font-family="Helvetica,sans-Serif" font-size="10.00">string.h</text>
</a>
</g>
</g>
<!-- Node2&#45;&gt;Node7 -->
<g id="edge6_Node000002_Node000007" class="edge">
<title>Node2&#45;&gt;Node7</title>
<g id="a_edge6_Node000002_Node000007"><a xlink:title=" ">
<path fill="none" stroke="#63b8ff" d="M690.33,-118.98C629.45,-113.91 470.05,-99.33 338.62,-76 337.8,-75.85 336.96,-75.7 336.12,-75.54"/>
<polygon fill="#63b8ff" stroke="#63b8ff" points="337.06,-72.16 326.55,-73.53 335.62,-79.01 337.06,-72.16"/>
</a>
</g>
</g>
<!-- Node8 -->
<g id="Node000008" class="node">
<title>Node8</title>
<g id="a_Node000008"><a xlink:title=" ">
<polygon fill="#e0e0e0" stroke="#999999" points="574.25,-20 529,-20 529,0 574.25,0 574.25,-20"/>
<text text-anchor="middle" x="551.62" y="-6.5" font-family="Helvetica,sans-Serif" font-size="10.00">stdio.h</text>
</a>
</g>
</g>
<!-- Node2&#45;&gt;Node8 -->
<g id="edge7_Node000002_Node000008" class="edge">
<title>Node2&#45;&gt;Node8</title>
<g id="a_edge7_Node000002_Node000008"><a xlink:title=" ">
<path fill="none" stroke="#63b8ff" d="M690.5,-119.6C614.78,-115.11 392.68,-99.99 371.62,-76 329.21,-27.67 453.79,-15.27 517.12,-12.09"/>
<polygon fill="#63b8ff" stroke="#63b8ff" points="517.19,-15.59 527.03,-11.65 516.88,-8.6 517.19,-15.59"/>
</a>
</g>
</g>
<!-- Node9 -->
<g id="Node000009" class="node">
<title>Node9</title>
<g id="a_Node000009"><a xlink:title=" ">
<polygon fill="#e0e0e0" stroke="#999999" points="428.38,-76 380.88,-76 380.88,-56 428.38,-56 428.38,-76"/>
<text text-anchor="middle" x="404.62" y="-62.5" font-family="Helvetica,sans-Serif" font-size="10.00">stdlib.h</text>
</a>
</g>
</g>
<!-- Node2&#45;&gt;Node9 -->
<g id="edge8_Node000002_Node000009" class="edge">
<title>Node2&#45;&gt;Node9</title>
<g id="a_edge8_Node000002_Node000009"><a xlink:title=" ">
<path fill="none" stroke="#63b8ff" d="M690.43,-117.92C643.07,-111.92 537.34,-97.53 439.62,-76.48"/>
<polygon fill="#63b8ff" stroke="#63b8ff" points="440.66,-73.12 430.14,-74.4 439.16,-79.96 440.66,-73.12"/>
</a>
</g>
</g>
<!-- Node10 -->
<g id="Node000010" class="node">
<title>Node10</title>
<g id="a_Node000010"><a xlink:title=" ">
<polygon fill="#e0e0e0" stroke="#999999" points="513.12,-76 446.12,-76 446.12,-56 513.12,-56 513.12,-76"/>
<text text-anchor="middle" x="479.62" y="-62.5" font-family="Helvetica,sans-Serif" font-size="10.00">sys/types.h</text>
</a>
</g>
</g>
<!-- Node2&#45;&gt;Node10 -->
<g id="edge9_Node000002_Node000010" class="edge">
<title>Node2&#45;&gt;Node10</title>
<g id="a_edge9_Node000002_Node000010"><a xlink:title=" ">
<path fill="none" stroke="#63b8ff" d="M690.37,-115.22C650.77,-106.16 573.51,-88.48 524.35,-77.23"/>
<polygon fill="#63b8ff" stroke="#63b8ff" points="525.4,-73.88 514.87,-75.07 523.84,-80.71 525.4,-73.88"/>
</a>
</g>
</g>
<!-- Node11 -->
<g id="Node000011" class="node">
<title>Node11</title>
<g id="a_Node000011"><a xlink:title=" ">
<polygon fill="#e0e0e0" stroke="#999999" points="590.38,-76 530.88,-76 530.88,-56 590.38,-56 590.38,-76"/>
<text text-anchor="middle" x="560.62" y="-62.5" font-family="Helvetica,sans-Serif" font-size="10.00">sys/stat.h</text>
</a>
</g>
</g>
<!-- Node2&#45;&gt;Node11 -->
<g id="edge10_Node000002_Node000011" class="edge">
<title>Node2&#45;&gt;Node11</title>
<g id="a_edge10_Node000002_Node000011"><a xlink:title=" ">
<path fill="none" stroke="#63b8ff" d="M690.38,-112.2C665.46,-103.52 627.06,-90.14 598.49,-80.19"/>
<polygon fill="#63b8ff" stroke="#63b8ff" points="599.71,-76.91 589.12,-76.93 597.41,-83.52 599.71,-76.91"/>
</a>
</g>
</g>
<!-- Node12 -->
<g id="Node000012" class="node">
<title>Node12</title>
<g id="a_Node000012"><a xlink:title=" ">
<polygon fill="#e0e0e0" stroke="#999999" points="749.62,-20 703.62,-20 703.62,0 749.62,0 749.62,-20"/>
<text text-anchor="middle" x="726.62" y="-6.5" font-family="Helvetica,sans-Serif" font-size="10.00">math.h</text>
</a>
</g>
</g>
<!-- Node2&#45;&gt;Node12 -->
<g id="edge11_Node000002_Node000012" class="edge">
<title>Node2&#45;&gt;Node12</title>
<g id="a_edge11_Node000002_Node000012"><a xlink:title=" ">
<path fill="none" stroke="#63b8ff" d="M740.65,-119.8C873.98,-113.38 1494.92,-83.1 1501.62,-76 1507.73,-69.54 1507.73,-62.46 1501.62,-56 1475.87,-28.71 908.24,-14.84 761.17,-11.7"/>
<polygon fill="#63b8ff" stroke="#63b8ff" points="761.37,-8.2 751.3,-11.49 761.22,-15.2 761.37,-8.2"/>
</a>
</g>
</g>
<!-- Node13 -->
<g id="Node000013" class="node">
<title>Node13</title>
<g id="a_Node000013"><a xlink:title=" ">
<polygon fill="#e0e0e0" stroke="#999999" points="742.75,-76 688.5,-76 688.5,-56 742.75,-56 742.75,-76"/>
<text text-anchor="middle" x="715.62" y="-62.5" font-family="Helvetica,sans-Serif" font-size="10.00">gtk/gtk.h</text>
</a>
</g>
</g>
<!-- Node2&#45;&gt;Node13 -->
<g id="edge12_Node000002_Node000013" class="edge">
<title>Node2&#45;&gt;Node13</title>
<g id="a_edge12_Node000002_Node000013"><a xlink:title=" ">
<path fill="none" stroke="#63b8ff" d="M715.62,-111.59C715.62,-105.01 715.62,-95.96 715.62,-87.73"/>
<polygon fill="#63b8ff" stroke="#63b8ff" points="719.13,-87.81 715.63,-77.81 712.13,-87.81 719.13,-87.81"/>
</a>
</g>
</g>
<!-- Node14 -->
<g id="Node000014" class="node">
<title>Node14</title>
<g id="a_Node000014"><a xlink:title=" ">
<polygon fill="#e0e0e0" stroke="#999999" points="820.38,-76 760.88,-76 760.88,-56 820.38,-56 820.38,-76"/>
<text text-anchor="middle" x="790.62" y="-62.5" font-family="Helvetica,sans-Serif" font-size="10.00">gtk/gtkx.h</text>
</a>
</g>
</g>
<!-- Node2&#45;&gt;Node14 -->
<g id="edge13_Node000002_Node000014" class="edge">
<title>Node2&#45;&gt;Node14</title>
<g id="a_edge13_Node000002_Node000014"><a xlink:title=" ">
<path fill="none" stroke="#63b8ff" d="M728.69,-111.59C739.59,-103.74 755.38,-92.38 768.28,-83.09"/>
<polygon fill="#63b8ff" stroke="#63b8ff" points="770.16,-86.05 776.23,-77.36 766.07,-80.37 770.16,-86.05"/>
</a>
</g>
</g>
<!-- Node15 -->
<g id="Node000015" class="node">
<title>Node15</title>
<g id="a_Node000015"><a xlink:title=" ">
<polygon fill="#e0e0e0" stroke="#999999" points="897,-76 838.25,-76 838.25,-56 897,-56 897,-76"/>
<text text-anchor="middle" x="867.62" y="-62.5" font-family="Helvetica,sans-Serif" font-size="10.00">gdk/gdk.h</text>
</a>
</g>
</g>
<!-- Node2&#45;&gt;Node15 -->
<g id="edge14_Node000002_Node000015" class="edge">
<title>Node2&#45;&gt;Node15</title>
<g id="a_edge14_Node000002_Node000015"><a xlink:title=" ">
<path fill="none" stroke="#63b8ff" d="M740.72,-112.08C765.14,-103.41 802.53,-90.13 830.41,-80.22"/>
<polygon fill="#63b8ff" stroke="#63b8ff" points="831.28,-83.63 839.53,-76.98 828.93,-77.03 831.28,-83.63"/>
</a>
</g>
</g>
<!-- Node16 -->
<g id="Node000016" class="node">
<title>Node16</title>
<g id="a_Node000016"><a xlink:title=" ">
<polygon fill="#e0e0e0" stroke="#999999" points="1013.88,-76 915.38,-76 915.38,-56 1013.88,-56 1013.88,-76"/>
<text text-anchor="middle" x="964.62" y="-62.5" font-family="Helvetica,sans-Serif" font-size="10.00">gdk/gdkkeysyms.h</text>
</a>
</g>
</g>
<!-- Node2&#45;&gt;Node16 -->
<g id="edge15_Node000002_Node000016" class="edge">
<title>Node2&#45;&gt;Node16</title>
<g id="a_edge15_Node000002_Node000016"><a xlink:title=" ">
<path fill="none" stroke="#63b8ff" d="M740.87,-115.53C780.26,-106.98 857.28,-90.28 909.84,-78.88"/>
<polygon fill="#63b8ff" stroke="#63b8ff" points="910.48,-82.32 919.51,-76.78 908.99,-75.48 910.48,-82.32"/>
</a>
</g>
</g>
<!-- Node17 -->
<g id="Node000017" class="node">
<title>Node17</title>
<g id="a_Node000017"><a xlink:title=" ">
<polygon fill="#e0e0e0" stroke="#999999" points="1149.25,-76 1032,-76 1032,-56 1149.25,-56 1149.25,-76"/>
<text text-anchor="middle" x="1090.62" y="-62.5" font-family="Helvetica,sans-Serif" font-size="10.00">gdk&#45;pixbuf/gdk&#45;pixbuf.h</text>
</a>
</g>
</g>
<!-- Node2&#45;&gt;Node17 -->
<g id="edge16_Node000002_Node000017" class="edge">
<title>Node2&#45;&gt;Node17</title>
<g id="a_edge16_Node000002_Node000017"><a xlink:title=" ">
<path fill="none" stroke="#63b8ff" d="M740.81,-117.37C797.25,-109.25 935.56,-89.33 1020.38,-77.12"/>
<polygon fill="#63b8ff" stroke="#63b8ff" points="1020.83,-80.59 1030.22,-75.7 1019.83,-73.66 1020.83,-80.59"/>
</a>
</g>
</g>
<!-- Node18 -->
<g id="Node000018" class="node">
<title>Node18</title>
<g id="a_Node000018"><a xlink:title=" ">
<polygon fill="#e0e0e0" stroke="#999999" points="1258.12,-76 1167.12,-76 1167.12,-56 1258.12,-56 1258.12,-76"/>
<text text-anchor="middle" x="1212.62" y="-62.5" font-family="Helvetica,sans-Serif" font-size="10.00">pango/pangoft2.h</text>
</a>
</g>
</g>
<!-- Node2&#45;&gt;Node18 -->
<g id="edge17_Node000002_Node000018" class="edge">
<title>Node2&#45;&gt;Node18</title>
<g id="a_edge17_Node000002_Node000018"><a xlink:title=" ">
<path fill="none" stroke="#63b8ff" d="M740.67,-119.02C806.75,-113.68 991.47,-97.98 1155.43,-76.36"/>
<polygon fill="#63b8ff" stroke="#63b8ff" points="1155.75,-79.85 1165.2,-75.06 1154.82,-72.91 1155.75,-79.85"/>
</a>
</g>
</g>
<!-- Node19 -->
<g id="Node000019" class="node">
<title>Node19</title>
<g id="a_Node000019"><a xlink:title=" ">
<polygon fill="#e0e0e0" stroke="#999999" points="1337.12,-76 1276.12,-76 1276.12,-56 1337.12,-56 1337.12,-76"/>
<text text-anchor="middle" x="1306.62" y="-62.5" font-family="Helvetica,sans-Serif" font-size="10.00">epoxy/gl.h</text>
</a>
</g>
</g>
<!-- Node2&#45;&gt;Node19 -->
<g id="edge18_Node000002_Node000019" class="edge">
<title>Node2&#45;&gt;Node19</title>
<g id="a_edge18_Node000002_Node000019"><a xlink:title=" ">
<path fill="none" stroke="#63b8ff" d="M740.81,-120.25C817.87,-117.68 1057.34,-107.68 1264.94,-76.21"/>
<polygon fill="#63b8ff" stroke="#63b8ff" points="1265.2,-79.71 1274.55,-74.73 1264.14,-72.79 1265.2,-79.71"/>
</a>
</g>
</g>
<!-- Node20 -->
<g id="Node000020" class="node">
<title>Node20</title>
<g id="a_Node000020"><a xlink:title=" ">
<polygon fill="#e0e0e0" stroke="#999999" points="1408,-76 1355.25,-76 1355.25,-56 1408,-56 1408,-76"/>
<text text-anchor="middle" x="1381.62" y="-62.5" font-family="Helvetica,sans-Serif" font-size="10.00">GL/glu.h</text>
</a>
</g>
</g>
<!-- Node2&#45;&gt;Node20 -->
<g id="edge19_Node000002_Node000020" class="edge">
<title>Node2&#45;&gt;Node20</title>
<g id="a_edge19_Node000002_Node000020"><a xlink:title=" ">
<path fill="none" stroke="#63b8ff" d="M740.72,-119.82C839.96,-115.05 1205.92,-96.58 1343.89,-76.11"/>
<polygon fill="#63b8ff" stroke="#63b8ff" points="1344.14,-79.62 1353.48,-74.61 1343.06,-72.7 1344.14,-79.62"/>
</a>
</g>
</g>
<!-- Node21 -->
<g id="Node000021" class="node">
<title>Node21</title>
<g id="a_Node000021"><a xlink:title=" ">
<polygon fill="#e0e0e0" stroke="#999999" points="1492.75,-76 1426.5,-76 1426.5,-56 1492.75,-56 1492.75,-76"/>
<text text-anchor="middle" x="1459.62" y="-62.5" font-family="Helvetica,sans-Serif" font-size="10.00">epoxy/glx.h</text>
</a>
</g>
</g>
<!-- Node2&#45;&gt;Node21 -->
<g id="edge20_Node000002_Node000021" class="edge">
<title>Node2&#45;&gt;Node21</title>
<g id="a_edge20_Node000002_Node000021"><a xlink:title=" ">
<path fill="none" stroke="#63b8ff" d="M740.85,-119.86C847.3,-114.99 1260.99,-95.32 1415.28,-75.9"/>
<polygon fill="#63b8ff" stroke="#63b8ff" points="1415.41,-79.42 1424.87,-74.64 1414.5,-72.48 1415.41,-79.42"/>
</a>
</g>
</g>
<!-- Node22 -->
<g id="Node000022" class="node">
<title>Node22</title>
<g id="a_Node000022"><a xlink:href="../../dc/db0/math__3d_8h.html" target="_top" xlink:title="Functions for OpenGL math.">
<polygon fill="white" stroke="#666666" points="670.5,-76 608.75,-76 608.75,-56 670.5,-56 670.5,-76"/>
<text text-anchor="middle" x="639.62" y="-62.5" font-family="Helvetica,sans-Serif" font-size="10.00">math_3d.h</text>
</a>
</g>
</g>
<!-- Node2&#45;&gt;Node22 -->
<g id="edge21_Node000002_Node000022" class="edge">
<title>Node2&#45;&gt;Node22</title>
<g id="a_edge21_Node000002_Node000022"><a xlink:title=" ">
<path fill="none" stroke="#63b8ff" d="M702.39,-111.59C691.34,-103.74 675.34,-92.38 662.27,-83.09"/>
<polygon fill="#63b8ff" stroke="#63b8ff" points="664.38,-80.3 654.2,-77.36 660.32,-86 664.38,-80.3"/>
</a>
</g>
</g>
<!-- Node23 -->
<g id="Node000023" class="node">
<title>Node23</title>
<g id="a_Node000023"><a xlink:href="../../da/d7e/glwin_8h.html" target="_top" xlink:title="Variable declarations related the OpenGL window &#160;&#160;Data structure declarations related the OpenGL wind...">
<polygon fill="white" stroke="#666666" points="1595,-76 1548.25,-76 1548.25,-56 1595,-56 1595,-76"/>
<text text-anchor="middle" x="1571.62" y="-62.5" font-family="Helvetica,sans-Serif" font-size="10.00">glwin.h</text>
</a>
</g>
</g>
<!-- Node2&#45;&gt;Node23 -->
<g id="edge24_Node000002_Node000023" class="edge">
<title>Node2&#45;&gt;Node23</title>
<g id="a_edge24_Node000002_Node000023"><a xlink:title=" ">
<path fill="none" stroke="#63b8ff" d="M740.84,-119.89C869.99,-114.18 1454.5,-87.84 1534.62,-76 1535.3,-75.9 1535.98,-75.79 1536.66,-75.68"/>
<polygon fill="#63b8ff" stroke="#63b8ff" points="1537.26,-79.13 1546.38,-73.75 1535.89,-72.27 1537.26,-79.13"/>
</a>
</g>
</g>
<!-- Node22&#45;&gt;Node8 -->
<g id="edge23_Node000022_Node000008" class="edge">
<title>Node22&#45;&gt;Node8</title>
<g id="a_edge23_Node000022_Node000008"><a xlink:title=" ">
<path fill="none" stroke="#63b8ff" d="M624.3,-55.59C611.13,-47.51 591.89,-35.71 576.52,-26.27"/>
<polygon fill="#63b8ff" stroke="#63b8ff" points="578.72,-23.52 568.36,-21.27 575.06,-29.48 578.72,-23.52"/>
</a>
</g>
</g>
<!-- Node22&#45;&gt;Node12 -->
<g id="edge22_Node000022_Node000012" class="edge">
<title>Node22&#45;&gt;Node12</title>
<g id="a_edge22_Node000022_Node000012"><a xlink:title=" ">
<path fill="none" stroke="#63b8ff" d="M654.78,-55.59C667.67,-47.59 686.46,-35.93 701.58,-26.54"/>
<polygon fill="#63b8ff" stroke="#63b8ff" points="703.42,-29.53 710.07,-21.28 699.72,-23.58 703.42,-29.53"/>
</a>
</g>
</g>
<!-- Node24 -->
<g id="Node000024" class="node">
<title>Node24</title>
<g id="a_Node000024"><a xlink:href="../../d5/d9e/ogl__shading_8h.html" target="_top" xlink:title="Variable declarations related to GLSL programs &#160;&#160;Data structure declarations related to GLSL programs...">
<polygon fill="white" stroke="#666666" points="1609.62,-20 1533.62,-20 1533.62,0 1609.62,0 1609.62,-20"/>
<text text-anchor="middle" x="1571.62" y="-6.5" font-family="Helvetica,sans-Serif" font-size="10.00">ogl_shading.h</text>
</a>
</g>
</g>
<!-- Node23&#45;&gt;Node24 -->
<g id="edge25_Node000023_Node000024" class="edge">
<title>Node23&#45;&gt;Node24</title>
<g id="a_edge25_Node000023_Node000024"><a xlink:title=" ">
<path fill="none" stroke="#63b8ff" d="M1571.62,-55.59C1571.62,-49.01 1571.62,-39.96 1571.62,-31.73"/>
<polygon fill="#63b8ff" stroke="#63b8ff" points="1575.13,-31.81 1571.63,-21.81 1568.13,-31.81 1575.13,-31.81"/>
</a>
</g>
</g>
<!-- Node30&#45;&gt;Node2 -->
<g id="edge32_Node000030_Node000002" class="edge">
<title>Node30&#45;&gt;Node2</title>
<g id="a_edge32_Node000030_Node000002"><a xlink:title=" ">
<path fill="none" stroke="#63b8ff" d="M940.02,-169.6C890.58,-159.34 801.61,-140.86 751.85,-130.52"/>
<polygon fill="#63b8ff" stroke="#63b8ff" points="752.66,-127.12 742.15,-128.51 751.23,-133.97 752.66,-127.12"/>
</a>
</g>
</g>
<!-- Node31 -->
<g id="Node000031" class="node">
<title>Node31</title>
<g id="a_Node000031"><a xlink:title=" ">
<polygon fill="#e0e0e0" stroke="#999999" points="1023.38,-132 927.88,-132 927.88,-112 1023.38,-112 1023.38,-132"/>
<text text-anchor="middle" x="975.62" y="-118.5" font-family="Helvetica,sans-Serif" font-size="10.00">libxml/xmlreader.h</text>
</a>
</g>
</g>
<!-- Node30&#45;&gt;Node31 -->
<g id="edge33_Node000030_Node000031" class="edge">
<title>Node30&#45;&gt;Node31</title>
<g id="a_edge33_Node000030_Node000031"><a xlink:title=" ">
<path fill="none" stroke="#63b8ff" d="M975.62,-167.59C975.62,-161.01 975.62,-151.96 975.62,-143.73"/>
<polygon fill="#63b8ff" stroke="#63b8ff" points="979.13,-143.81 975.63,-133.81 972.13,-143.81 979.13,-143.81"/>
</a>
</g>
</g>
</g>
</svg>
