<?xml version="1.0" encoding="UTF-8" standalone="no"?>
<!DOCTYPE svg PUBLIC "-//W3C//DTD SVG 1.1//EN"
 "http://www.w3.org/Graphics/SVG/1.1/DTD/svg11.dtd">
<!-- Generated by graphviz version 9.0.0 (20230911.1827)
 -->
<!-- Title: cell_file Pages: 1 -->
<svg width="308pt" height="244pt"
 viewBox="0.00 0.00 307.77 244.00" xmlns="http://www.w3.org/2000/svg" xmlns:xlink="http://www.w3.org/1999/xlink">
<g id="graph0" class="graph" transform="scale(1 1) rotate(0) translate(4 240)">
<title>cell_file</title>
<!-- Node1 -->
<g id="Node000001" class="node">
<title>Node1</title>
<g id="a_Node000001"><a xlink:title=" ">
<polygon fill="#999999" stroke="#666666" points="104.89,-20 55.89,-20 55.89,0 104.89,0 104.89,-20"/>
<text text-anchor="middle" x="80.39" y="-6.5" font-family="Helvetica,sans-Serif" font-size="10.00">cell_file</text>
</a>
</g>
</g>
<!-- Node2 -->
<g id="Node000002" class="node">
<title>Node2</title>
<g id="a_Node000002"><a xlink:href="../../de/df1/structcell__info.html" target="_top" xlink:title=" ">
<polygon fill="white" stroke="#666666" points="106.39,-88 54.39,-88 54.39,-68 106.39,-68 106.39,-88"/>
<text text-anchor="middle" x="80.39" y="-74.5" font-family="Helvetica,sans-Serif" font-size="10.00">cell_info</text>
</a>
</g>
</g>
<!-- Node2&#45;&gt;Node1 -->
<g id="edge1_Node000001_Node000002" class="edge">
<title>Node2&#45;&gt;Node1</title>
<g id="a_edge1_Node000001_Node000002"><a xlink:title=" ">
<path fill="none" stroke="#9a32cd" stroke-dasharray="5,2" d="M80.39,-56.28C80.39,-44.27 80.39,-29.74 80.39,-20.44"/>
<polygon fill="#9a32cd" stroke="#9a32cd" points="76.89,-56.03 80.39,-66.03 83.89,-56.03 76.89,-56.03"/>
</a>
</g>
<text text-anchor="middle" x="95.02" y="-40.5" font-family="Helvetica,sans-Serif" font-size="10.00" fill="grey"> lattice</text>
</g>
<!-- Node3 -->
<g id="Node000003" class="node">
<title>Node3</title>
<g id="a_Node000003"><a xlink:href="../../d7/d81/structbox__info.html" target="_top" xlink:title=" ">
<polygon fill="white" stroke="#666666" points="66.77,-156 14.02,-156 14.02,-136 66.77,-136 66.77,-156"/>
<text text-anchor="middle" x="40.39" y="-142.5" font-family="Helvetica,sans-Serif" font-size="10.00">box_info</text>
</a>
</g>
</g>
<!-- Node3&#45;&gt;Node2 -->
<g id="edge2_Node000002_Node000003" class="edge">
<title>Node3&#45;&gt;Node2</title>
<g id="a_edge2_Node000002_Node000003"><a xlink:title=" ">
<path fill="none" stroke="#9a32cd" stroke-dasharray="5,2" d="M52.04,-125.78C59.48,-113.51 68.8,-98.14 74.67,-88.44"/>
<polygon fill="#9a32cd" stroke="#9a32cd" points="49.1,-123.88 46.91,-134.25 55.09,-127.51 49.1,-123.88"/>
</a>
</g>
<text text-anchor="middle" x="73.77" y="-108.5" font-family="Helvetica,sans-Serif" font-size="10.00" fill="grey"> box</text>
</g>
<!-- Node4 -->
<g id="Node000004" class="node">
<title>Node4</title>
<g id="a_Node000004"><a xlink:href="../../d6/d41/unionmat4__t.html" target="_top" xlink:title=" ">
<polygon fill="white" stroke="#666666" points="64.39,-236 18.39,-236 18.39,-216 64.39,-216 64.39,-236"/>
<text text-anchor="middle" x="41.39" y="-222.5" font-family="Helvetica,sans-Serif" font-size="10.00">mat4_t</text>
</a>
</g>
</g>
<!-- Node4&#45;&gt;Node3 -->
<g id="edge3_Node000003_Node000004" class="edge">
<title>Node4&#45;&gt;Node3</title>
<g id="a_edge3_Node000003_Node000004"><a xlink:title=" ">
<path fill="none" stroke="#9a32cd" stroke-dasharray="5,2" d="M12.21,-208.8C8.77,-205.67 5.74,-202.08 3.64,-198 -1.23,-188.51 -1.17,-183.52 3.64,-174 7.36,-166.65 14.12,-160.82 20.84,-156.48"/>
<polygon fill="#9a32cd" stroke="#9a32cd" points="10.01,-211.53 20.11,-214.72 14.21,-205.93 10.01,-211.53"/>
</a>
</g>
<text text-anchor="middle" x="31.77" y="-188.5" font-family="Helvetica,sans-Serif" font-size="10.00" fill="grey"> cart_to_frac</text>
<text text-anchor="middle" x="31.77" y="-176.5" font-family="Helvetica,sans-Serif" font-size="10.00" fill="grey">frac_to_cart</text>
</g>
<!-- Node5 -->
<g id="Node000005" class="node">
<title>Node5</title>
<g id="a_Node000005"><a xlink:href="../../de/df2/structspace__group.html" target="_top" xlink:title=" ">
<polygon fill="white" stroke="#666666" points="175.14,-156 103.64,-156 103.64,-136 175.14,-136 175.14,-156"/>
<text text-anchor="middle" x="139.39" y="-142.5" font-family="Helvetica,sans-Serif" font-size="10.00">space_group</text>
</a>
</g>
</g>
<!-- Node4&#45;&gt;Node5 -->
<g id="edge7_Node000005_Node000004" class="edge">
<title>Node4&#45;&gt;Node5</title>
<g id="a_edge7_Node000005_Node000004"><a xlink:title=" ">
<path fill="none" stroke="#9a32cd" stroke-dasharray="5,2" d="M55.11,-207.05C63.73,-196.55 75.55,-183.53 87.89,-174 96.84,-167.09 107.82,-161.06 117.34,-156.46"/>
<polygon fill="#9a32cd" stroke="#9a32cd" points="52.57,-204.62 49.09,-214.63 58.05,-208.97 52.57,-204.62"/>
</a>
</g>
<text text-anchor="middle" x="116.14" y="-188.5" font-family="Helvetica,sans-Serif" font-size="10.00" fill="grey"> coord_origin</text>
<text text-anchor="middle" x="116.14" y="-176.5" font-family="Helvetica,sans-Serif" font-size="10.00" fill="grey">wyck_origin</text>
</g>
<!-- Node5&#45;&gt;Node2 -->
<g id="edge4_Node000002_Node000005" class="edge">
<title>Node5&#45;&gt;Node2</title>
<g id="a_edge4_Node000002_Node000005"><a xlink:title=" ">
<path fill="none" stroke="#9a32cd" stroke-dasharray="5,2" d="M123.53,-127.25C112.36,-114.76 97.85,-98.53 88.83,-88.44"/>
<polygon fill="#9a32cd" stroke="#9a32cd" points="120.66,-129.29 129.93,-134.42 125.88,-124.63 120.66,-129.29"/>
</a>
</g>
<text text-anchor="middle" x="136.77" y="-108.5" font-family="Helvetica,sans-Serif" font-size="10.00" fill="grey"> sp_group</text>
</g>
<!-- Node6 -->
<g id="Node000006" class="node">
<title>Node6</title>
<g id="a_Node000006"><a xlink:href="../../dc/de2/structspg__setting.html" target="_top" xlink:title=" ">
<polygon fill="white" stroke="#666666" points="192.52,-236 126.27,-236 126.27,-216 192.52,-216 192.52,-236"/>
<text text-anchor="middle" x="159.39" y="-222.5" font-family="Helvetica,sans-Serif" font-size="10.00">spg_setting</text>
</a>
</g>
</g>
<!-- Node6&#45;&gt;Node5 -->
<g id="edge5_Node000005_Node000006" class="edge">
<title>Node6&#45;&gt;Node5</title>
<g id="a_edge5_Node000005_Node000006"><a xlink:title=" ">
<path fill="none" stroke="#9a32cd" stroke-dasharray="5,2" d="M154.28,-205.05C150.25,-189.35 144.83,-168.2 141.76,-156.24"/>
<polygon fill="#9a32cd" stroke="#9a32cd" points="150.77,-205.46 156.64,-214.28 157.55,-203.72 150.77,-205.46"/>
</a>
</g>
<text text-anchor="middle" x="171.14" y="-182.5" font-family="Helvetica,sans-Serif" font-size="10.00" fill="grey"> settings</text>
</g>
<!-- Node7 -->
<g id="Node000007" class="node">
<title>Node7</title>
<g id="a_Node000007"><a xlink:href="../../d9/d4f/structwyckoff__position.html" target="_top" xlink:title=" ">
<polygon fill="white" stroke="#666666" points="299.77,-236 211.02,-236 211.02,-216 299.77,-216 299.77,-236"/>
<text text-anchor="middle" x="255.39" y="-222.5" font-family="Helvetica,sans-Serif" font-size="10.00">wyckoff_position</text>
</a>
</g>
</g>
<!-- Node7&#45;&gt;Node5 -->
<g id="edge6_Node000005_Node000007" class="edge">
<title>Node7&#45;&gt;Node5</title>
<g id="a_edge6_Node000005_Node000007"><a xlink:title=" ">
<path fill="none" stroke="#9a32cd" stroke-dasharray="5,2" d="M237.22,-207.82C225.55,-197.29 209.74,-183.97 194.39,-174 184.14,-167.33 172,-161.21 161.73,-156.48"/>
<polygon fill="#9a32cd" stroke="#9a32cd" points="234.78,-210.32 244.5,-214.52 239.52,-205.17 234.78,-210.32"/>
</a>
</g>
<text text-anchor="middle" x="243.77" y="-182.5" font-family="Helvetica,sans-Serif" font-size="10.00" fill="grey"> wyckoff</text>
</g>
</g>
</svg>
