<?xml version="1.0" encoding="UTF-8" standalone="no"?>
<!DOCTYPE svg PUBLIC "-//W3C//DTD SVG 1.1//EN"
 "http://www.w3.org/Graphics/SVG/1.1/DTD/svg11.dtd">
<!-- Generated by graphviz version 9.0.0 (20230911.1827)
 -->
<!-- Title: curve/frame.c Pages: 1 -->
<svg width="1618pt" height="252pt"
 viewBox="0.00 0.00 1617.75 252.00" xmlns="http://www.w3.org/2000/svg" xmlns:xlink="http://www.w3.org/1999/xlink">
<g id="graph0" class="graph" transform="scale(1 1) rotate(0) translate(4 248)">
<title>curve/frame.c</title>
<!-- Node1 -->
<g id="Node000001" class="node">
<title>Node1</title>
<g id="a_Node000001"><a xlink:title="Functions to draw the frame.">
<polygon fill="#999999" stroke="#666666" points="655.75,-244 579.75,-244 579.75,-224 655.75,-224 655.75,-244"/>
<text text-anchor="middle" x="617.75" y="-230.5" font-family="Helvetica,sans-Serif" font-size="10.00">curve/frame.c</text>
</a>
</g>
</g>
<!-- Node2 -->
<g id="Node000002" class="node">
<title>Node2</title>
<g id="a_Node000002"><a xlink:title=" ">
<polygon fill="#e0e0e0" stroke="#999999" points="47.5,-76 0,-76 0,-56 47.5,-56 47.5,-76"/>
<text text-anchor="middle" x="23.75" y="-62.5" font-family="Helvetica,sans-Serif" font-size="10.00">stdlib.h</text>
</a>
</g>
</g>
<!-- Node1&#45;&gt;Node2 -->
<g id="edge1_Node000001_Node000002" class="edge">
<title>Node1&#45;&gt;Node2</title>
<g id="a_edge1_Node000001_Node000002"><a xlink:title=" ">
<path fill="none" stroke="#63b8ff" d="M579.6,-225.15C539.59,-216.72 474.97,-202.57 419.75,-188 284.77,-152.39 126.71,-101.18 58.25,-78.53"/>
<polygon fill="#63b8ff" stroke="#63b8ff" points="59.7,-75.32 49.11,-75.49 57.5,-81.96 59.7,-75.32"/>
</a>
</g>
</g>
<!-- Node3 -->
<g id="Node000003" class="node">
<title>Node3</title>
<g id="a_Node000003"><a xlink:title=" ">
<polygon fill="#e0e0e0" stroke="#999999" points="124.12,-76 65.38,-76 65.38,-56 124.12,-56 124.12,-76"/>
<text text-anchor="middle" x="94.75" y="-62.5" font-family="Helvetica,sans-Serif" font-size="10.00">gdk/gdk.h</text>
</a>
</g>
</g>
<!-- Node1&#45;&gt;Node3 -->
<g id="edge2_Node000001_Node000003" class="edge">
<title>Node1&#45;&gt;Node3</title>
<g id="a_edge2_Node000001_Node000003"><a xlink:title=" ">
<path fill="none" stroke="#63b8ff" d="M588.13,-223.6C499.51,-195.47 236.29,-111.92 135.05,-79.79"/>
<polygon fill="#63b8ff" stroke="#63b8ff" points="136.4,-76.55 125.81,-76.86 134.28,-83.22 136.4,-76.55"/>
</a>
</g>
</g>
<!-- Node4 -->
<g id="Node000004" class="node">
<title>Node4</title>
<g id="a_Node000004"><a xlink:title=" ">
<polygon fill="#e0e0e0" stroke="#999999" points="743.38,-188 698.12,-188 698.12,-168 743.38,-168 743.38,-188"/>
<text text-anchor="middle" x="720.75" y="-174.5" font-family="Helvetica,sans-Serif" font-size="10.00">cairo.h</text>
</a>
</g>
</g>
<!-- Node1&#45;&gt;Node4 -->
<g id="edge3_Node000001_Node000004" class="edge">
<title>Node1&#45;&gt;Node4</title>
<g id="a_edge3_Node000001_Node000004"><a xlink:title=" ">
<path fill="none" stroke="#63b8ff" d="M635.69,-223.59C651.4,-215.36 674.48,-203.26 692.64,-193.74"/>
<polygon fill="#63b8ff" stroke="#63b8ff" points="694.1,-196.93 701.33,-189.18 690.85,-190.73 694.1,-196.93"/>
</a>
</g>
</g>
<!-- Node5 -->
<g id="Node000005" class="node">
<title>Node5</title>
<g id="a_Node000005"><a xlink:href="../../d2/d49/global_8h.html" target="_top" xlink:title="Global variable declarations &#160;&#160;Global convenience function declarations &#160;&#160;Global data structure defin...">
<polygon fill="white" stroke="#666666" points="771.62,-132 721.88,-132 721.88,-112 771.62,-112 771.62,-132"/>
<text text-anchor="middle" x="746.75" y="-118.5" font-family="Helvetica,sans-Serif" font-size="10.00">global.h</text>
</a>
</g>
</g>
<!-- Node1&#45;&gt;Node5 -->
<g id="edge4_Node000001_Node000005" class="edge">
<title>Node1&#45;&gt;Node5</title>
<g id="a_edge4_Node000001_Node000005"><a xlink:title=" ">
<path fill="none" stroke="#63b8ff" d="M627.17,-223.92C640.57,-211.11 666.01,-187.18 688.75,-168 700.51,-158.09 714.06,-147.52 725.11,-139.12"/>
<polygon fill="#63b8ff" stroke="#63b8ff" points="726.99,-142.09 732.86,-133.28 722.77,-136.51 726.99,-142.09"/>
</a>
</g>
</g>
<!-- Node26 -->
<g id="Node000026" class="node">
<title>Node26</title>
<g id="a_Node000026"><a xlink:href="../../df/de9/curve_8h.html" target="_top" xlink:title="Variable declarations for the curve widget &#160;&#160;Functions for interactions with the curve widget.">
<polygon fill="white" stroke="#666666" points="641.88,-188 593.62,-188 593.62,-168 641.88,-168 641.88,-188"/>
<text text-anchor="middle" x="617.75" y="-174.5" font-family="Helvetica,sans-Serif" font-size="10.00">curve.h</text>
</a>
</g>
</g>
<!-- Node1&#45;&gt;Node26 -->
<g id="edge29_Node000001_Node000026" class="edge">
<title>Node1&#45;&gt;Node26</title>
<g id="a_edge29_Node000001_Node000026"><a xlink:title=" ">
<path fill="none" stroke="#63b8ff" d="M617.75,-223.59C617.75,-217.01 617.75,-207.96 617.75,-199.73"/>
<polygon fill="#63b8ff" stroke="#63b8ff" points="621.25,-199.81 617.75,-189.81 614.25,-199.81 621.25,-199.81"/>
</a>
</g>
</g>
<!-- Node5&#45;&gt;Node2 -->
<g id="edge11_Node000005_Node000002" class="edge">
<title>Node5&#45;&gt;Node2</title>
<g id="a_edge11_Node000005_Node000002"><a xlink:title=" ">
<path fill="none" stroke="#63b8ff" d="M721.48,-121.18C632.1,-121.42 322.62,-119.03 59.1,-76.03"/>
<polygon fill="#63b8ff" stroke="#63b8ff" points="59.71,-72.58 49.27,-74.4 58.56,-79.49 59.71,-72.58"/>
</a>
</g>
</g>
<!-- Node5&#45;&gt;Node3 -->
<g id="edge17_Node000005_Node000003" class="edge">
<title>Node5&#45;&gt;Node3</title>
<g id="a_edge17_Node000005_Node000003"><a xlink:title=" ">
<path fill="none" stroke="#63b8ff" d="M721.39,-120.33C637.67,-117.86 362.67,-107.71 137.75,-76 136.93,-75.88 136.1,-75.76 135.26,-75.63"/>
<polygon fill="#63b8ff" stroke="#63b8ff" points="136.21,-72.25 125.76,-73.98 135.01,-79.14 136.21,-72.25"/>
</a>
</g>
</g>
<!-- Node6 -->
<g id="Node000006" class="node">
<title>Node6</title>
<g id="a_Node000006"><a xlink:title=" ">
<polygon fill="#e0e0e0" stroke="#999999" points="1244.38,-76 1205.12,-76 1205.12,-56 1244.38,-56 1244.38,-76"/>
<text text-anchor="middle" x="1224.75" y="-62.5" font-family="Helvetica,sans-Serif" font-size="10.00">glib.h</text>
</a>
</g>
</g>
<!-- Node5&#45;&gt;Node6 -->
<g id="edge5_Node000005_Node000006" class="edge">
<title>Node5&#45;&gt;Node6</title>
<g id="a_edge5_Node000005_Node000006"><a xlink:title=" ">
<path fill="none" stroke="#63b8ff" d="M771.98,-119.84C840.05,-116.41 1032.96,-104.7 1190.75,-76 1191.75,-75.82 1192.76,-75.62 1193.78,-75.41"/>
<polygon fill="#63b8ff" stroke="#63b8ff" points="1194.31,-78.88 1203.26,-73.2 1192.72,-72.07 1194.31,-78.88"/>
</a>
</g>
</g>
<!-- Node7 -->
<g id="Node000007" class="node">
<title>Node7</title>
<g id="a_Node000007"><a xlink:title=" ">
<polygon fill="#e0e0e0" stroke="#999999" points="1327.5,-76 1262,-76 1262,-56 1327.5,-56 1327.5,-76"/>
<text text-anchor="middle" x="1294.75" y="-62.5" font-family="Helvetica,sans-Serif" font-size="10.00">glib/gi18n.h</text>
</a>
</g>
</g>
<!-- Node5&#45;&gt;Node7 -->
<g id="edge6_Node000005_Node000007" class="edge">
<title>Node5&#45;&gt;Node7</title>
<g id="a_edge6_Node000005_Node000007"><a xlink:title=" ">
<path fill="none" stroke="#63b8ff" d="M771.94,-119.9C844.68,-116.5 1061.42,-104.66 1250.44,-76.35"/>
<polygon fill="#63b8ff" stroke="#63b8ff" points="1250.84,-79.82 1260.2,-74.86 1249.79,-72.9 1250.84,-79.82"/>
</a>
</g>
</g>
<!-- Node8 -->
<g id="Node000008" class="node">
<title>Node8</title>
<g id="a_Node000008"><a xlink:title=" ">
<polygon fill="#e0e0e0" stroke="#999999" points="1395.62,-76 1345.88,-76 1345.88,-56 1395.62,-56 1395.62,-76"/>
<text text-anchor="middle" x="1370.75" y="-62.5" font-family="Helvetica,sans-Serif" font-size="10.00">locale.h</text>
</a>
</g>
</g>
<!-- Node5&#45;&gt;Node8 -->
<g id="edge7_Node000005_Node000008" class="edge">
<title>Node5&#45;&gt;Node8</title>
<g id="a_edge7_Node000005_Node000008"><a xlink:title=" ">
<path fill="none" stroke="#63b8ff" d="M771.96,-120.72C852.6,-119.47 1111.45,-112.82 1334.35,-76.09"/>
<polygon fill="#63b8ff" stroke="#63b8ff" points="1334.83,-79.56 1344.12,-74.45 1333.68,-72.65 1334.83,-79.56"/>
</a>
</g>
</g>
<!-- Node9 -->
<g id="Node000009" class="node">
<title>Node9</title>
<g id="a_Node000009"><a xlink:title=" ">
<polygon fill="#e0e0e0" stroke="#999999" points="1464,-76 1413.5,-76 1413.5,-56 1464,-56 1464,-76"/>
<text text-anchor="middle" x="1438.75" y="-62.5" font-family="Helvetica,sans-Serif" font-size="10.00">unistd.h</text>
</a>
</g>
</g>
<!-- Node5&#45;&gt;Node9 -->
<g id="edge8_Node000005_Node000009" class="edge">
<title>Node5&#45;&gt;Node9</title>
<g id="a_edge8_Node000005_Node000009"><a xlink:title=" ">
<path fill="none" stroke="#63b8ff" d="M772.05,-121C858.76,-120.62 1151.96,-116.39 1402.12,-76.13"/>
<polygon fill="#63b8ff" stroke="#63b8ff" points="1402.45,-79.62 1411.75,-74.55 1401.32,-72.71 1402.45,-79.62"/>
</a>
</g>
</g>
<!-- Node10 -->
<g id="Node000010" class="node">
<title>Node10</title>
<g id="a_Node000010"><a xlink:title=" ">
<polygon fill="#e0e0e0" stroke="#999999" points="1529.88,-76 1481.62,-76 1481.62,-56 1529.88,-56 1529.88,-76"/>
<text text-anchor="middle" x="1505.75" y="-62.5" font-family="Helvetica,sans-Serif" font-size="10.00">string.h</text>
</a>
</g>
</g>
<!-- Node5&#45;&gt;Node10 -->
<g id="edge9_Node000005_Node000010" class="edge">
<title>Node5&#45;&gt;Node10</title>
<g id="a_edge9_Node000005_Node000010"><a xlink:title=" ">
<path fill="none" stroke="#63b8ff" d="M772.04,-121.29C864.42,-121.97 1192.35,-120.99 1470.25,-76.07"/>
<polygon fill="#63b8ff" stroke="#63b8ff" points="1470.57,-79.57 1479.87,-74.49 1469.44,-72.66 1470.57,-79.57"/>
</a>
</g>
</g>
<!-- Node11 -->
<g id="Node000011" class="node">
<title>Node11</title>
<g id="a_Node000011"><a xlink:title=" ">
<polygon fill="#e0e0e0" stroke="#999999" points="734.38,-20 689.12,-20 689.12,0 734.38,0 734.38,-20"/>
<text text-anchor="middle" x="711.75" y="-6.5" font-family="Helvetica,sans-Serif" font-size="10.00">stdio.h</text>
</a>
</g>
</g>
<!-- Node5&#45;&gt;Node11 -->
<g id="edge10_Node000005_Node000011" class="edge">
<title>Node5&#45;&gt;Node11</title>
<g id="a_edge10_Node000005_Node000011"><a xlink:title=" ">
<path fill="none" stroke="#63b8ff" d="M772.01,-121C869.21,-120.58 1211.05,-114.94 1157.75,-56 1130.26,-25.59 845.87,-14.75 746.1,-11.87"/>
<polygon fill="#63b8ff" stroke="#63b8ff" points="746.22,-8.37 736.13,-11.59 746.03,-15.37 746.22,-8.37"/>
</a>
</g>
</g>
<!-- Node12 -->
<g id="Node000012" class="node">
<title>Node12</title>
<g id="a_Node000012"><a xlink:title=" ">
<polygon fill="#e0e0e0" stroke="#999999" points="326.25,-76 259.25,-76 259.25,-56 326.25,-56 326.25,-76"/>
<text text-anchor="middle" x="292.75" y="-62.5" font-family="Helvetica,sans-Serif" font-size="10.00">sys/types.h</text>
</a>
</g>
</g>
<!-- Node5&#45;&gt;Node12 -->
<g id="edge12_Node000005_Node000012" class="edge">
<title>Node5&#45;&gt;Node12</title>
<g id="a_edge12_Node000005_Node000012"><a xlink:title=" ">
<path fill="none" stroke="#63b8ff" d="M721.55,-119.15C658.54,-114.34 488.93,-100.2 337.92,-76.38"/>
<polygon fill="#63b8ff" stroke="#63b8ff" points="338.54,-72.93 328.11,-74.81 337.44,-79.84 338.54,-72.93"/>
</a>
</g>
</g>
<!-- Node13 -->
<g id="Node000013" class="node">
<title>Node13</title>
<g id="a_Node000013"><a xlink:title=" ">
<polygon fill="#e0e0e0" stroke="#999999" points="403.5,-76 344,-76 344,-56 403.5,-56 403.5,-76"/>
<text text-anchor="middle" x="373.75" y="-62.5" font-family="Helvetica,sans-Serif" font-size="10.00">sys/stat.h</text>
</a>
</g>
</g>
<!-- Node5&#45;&gt;Node13 -->
<g id="edge13_Node000005_Node000013" class="edge">
<title>Node5&#45;&gt;Node13</title>
<g id="a_edge13_Node000005_Node000013"><a xlink:title=" ">
<path fill="none" stroke="#63b8ff" d="M721.48,-118.41C667.28,-112.67 535.59,-97.82 415.17,-76.29"/>
<polygon fill="#63b8ff" stroke="#63b8ff" points="415.88,-72.86 405.42,-74.52 414.63,-79.75 415.88,-72.86"/>
</a>
</g>
</g>
<!-- Node14 -->
<g id="Node000014" class="node">
<title>Node14</title>
<g id="a_Node000014"><a xlink:title=" ">
<polygon fill="#e0e0e0" stroke="#999999" points="204.75,-20 158.75,-20 158.75,0 204.75,0 204.75,-20"/>
<text text-anchor="middle" x="181.75" y="-6.5" font-family="Helvetica,sans-Serif" font-size="10.00">math.h</text>
</a>
</g>
</g>
<!-- Node5&#45;&gt;Node14 -->
<g id="edge14_Node000005_Node000014" class="edge">
<title>Node5&#45;&gt;Node14</title>
<g id="a_edge14_Node000005_Node000014"><a xlink:title=" ">
<path fill="none" stroke="#63b8ff" d="M721.69,-120.99C615.78,-120.71 208.64,-116.96 170.75,-76 159.48,-63.81 164.51,-44.57 170.99,-30.18"/>
<polygon fill="#63b8ff" stroke="#63b8ff" points="173.9,-32.17 175.3,-21.67 167.66,-29.01 173.9,-32.17"/>
</a>
</g>
</g>
<!-- Node15 -->
<g id="Node000015" class="node">
<title>Node15</title>
<g id="a_Node000015"><a xlink:title=" ">
<polygon fill="#e0e0e0" stroke="#999999" points="475.88,-76 421.62,-76 421.62,-56 475.88,-56 475.88,-76"/>
<text text-anchor="middle" x="448.75" y="-62.5" font-family="Helvetica,sans-Serif" font-size="10.00">gtk/gtk.h</text>
</a>
</g>
</g>
<!-- Node5&#45;&gt;Node15 -->
<g id="edge15_Node000005_Node000015" class="edge">
<title>Node5&#45;&gt;Node15</title>
<g id="a_edge15_Node000005_Node000015"><a xlink:title=" ">
<path fill="none" stroke="#63b8ff" d="M721.71,-117.34C676.77,-110.63 579.25,-95.46 487.39,-76.43"/>
<polygon fill="#63b8ff" stroke="#63b8ff" points="488.2,-73.03 477.7,-74.4 486.77,-79.88 488.2,-73.03"/>
</a>
</g>
</g>
<!-- Node16 -->
<g id="Node000016" class="node">
<title>Node16</title>
<g id="a_Node000016"><a xlink:title=" ">
<polygon fill="#e0e0e0" stroke="#999999" points="553.5,-76 494,-76 494,-56 553.5,-56 553.5,-76"/>
<text text-anchor="middle" x="523.75" y="-62.5" font-family="Helvetica,sans-Serif" font-size="10.00">gtk/gtkx.h</text>
</a>
</g>
</g>
<!-- Node5&#45;&gt;Node16 -->
<g id="edge16_Node000005_Node000016" class="edge">
<title>Node5&#45;&gt;Node16</title>
<g id="a_edge16_Node000005_Node000016"><a xlink:title=" ">
<path fill="none" stroke="#63b8ff" d="M721.6,-114.91C683.48,-105.68 610.67,-88.05 564.8,-76.94"/>
<polygon fill="#63b8ff" stroke="#63b8ff" points="565.77,-73.58 555.23,-74.62 564.13,-80.38 565.77,-73.58"/>
</a>
</g>
</g>
<!-- Node17 -->
<g id="Node000017" class="node">
<title>Node17</title>
<g id="a_Node000017"><a xlink:title=" ">
<polygon fill="#e0e0e0" stroke="#999999" points="670,-76 571.5,-76 571.5,-56 670,-56 670,-76"/>
<text text-anchor="middle" x="620.75" y="-62.5" font-family="Helvetica,sans-Serif" font-size="10.00">gdk/gdkkeysyms.h</text>
</a>
</g>
</g>
<!-- Node5&#45;&gt;Node17 -->
<g id="edge18_Node000005_Node000017" class="edge">
<title>Node5&#45;&gt;Node17</title>
<g id="a_edge18_Node000005_Node000017"><a xlink:title=" ">
<path fill="none" stroke="#63b8ff" d="M724.8,-111.59C705.05,-103.13 675.76,-90.58 653.28,-80.94"/>
<polygon fill="#63b8ff" stroke="#63b8ff" points="654.83,-77.8 644.26,-77.08 652.07,-84.23 654.83,-77.8"/>
</a>
</g>
</g>
<!-- Node18 -->
<g id="Node000018" class="node">
<title>Node18</title>
<g id="a_Node000018"><a xlink:title=" ">
<polygon fill="#e0e0e0" stroke="#999999" points="805.38,-76 688.12,-76 688.12,-56 805.38,-56 805.38,-76"/>
<text text-anchor="middle" x="746.75" y="-62.5" font-family="Helvetica,sans-Serif" font-size="10.00">gdk&#45;pixbuf/gdk&#45;pixbuf.h</text>
</a>
</g>
</g>
<!-- Node5&#45;&gt;Node18 -->
<g id="edge19_Node000005_Node000018" class="edge">
<title>Node5&#45;&gt;Node18</title>
<g id="a_edge19_Node000005_Node000018"><a xlink:title=" ">
<path fill="none" stroke="#63b8ff" d="M746.75,-111.59C746.75,-105.01 746.75,-95.96 746.75,-87.73"/>
<polygon fill="#63b8ff" stroke="#63b8ff" points="750.25,-87.81 746.75,-77.81 743.25,-87.81 750.25,-87.81"/>
</a>
</g>
</g>
<!-- Node19 -->
<g id="Node000019" class="node">
<title>Node19</title>
<g id="a_Node000019"><a xlink:title=" ">
<polygon fill="#e0e0e0" stroke="#999999" points="914.25,-76 823.25,-76 823.25,-56 914.25,-56 914.25,-76"/>
<text text-anchor="middle" x="868.75" y="-62.5" font-family="Helvetica,sans-Serif" font-size="10.00">pango/pangoft2.h</text>
</a>
</g>
</g>
<!-- Node5&#45;&gt;Node19 -->
<g id="edge20_Node000005_Node000019" class="edge">
<title>Node5&#45;&gt;Node19</title>
<g id="a_edge20_Node000005_Node000019"><a xlink:title=" ">
<path fill="none" stroke="#63b8ff" d="M768,-111.59C787.04,-103.17 815.23,-90.69 836.95,-81.07"/>
<polygon fill="#63b8ff" stroke="#63b8ff" points="838.22,-84.34 845.95,-77.09 835.39,-77.94 838.22,-84.34"/>
</a>
</g>
</g>
<!-- Node20 -->
<g id="Node000020" class="node">
<title>Node20</title>
<g id="a_Node000020"><a xlink:title=" ">
<polygon fill="#e0e0e0" stroke="#999999" points="993.25,-76 932.25,-76 932.25,-56 993.25,-56 993.25,-76"/>
<text text-anchor="middle" x="962.75" y="-62.5" font-family="Helvetica,sans-Serif" font-size="10.00">epoxy/gl.h</text>
</a>
</g>
</g>
<!-- Node5&#45;&gt;Node20 -->
<g id="edge21_Node000005_Node000020" class="edge">
<title>Node5&#45;&gt;Node20</title>
<g id="a_edge21_Node000005_Node000020"><a xlink:title=" ">
<path fill="none" stroke="#63b8ff" d="M771.95,-114.7C808.5,-105.56 876.66,-88.52 920.84,-77.48"/>
<polygon fill="#63b8ff" stroke="#63b8ff" points="921.48,-80.93 930.33,-75.1 919.78,-74.13 921.48,-80.93"/>
</a>
</g>
</g>
<!-- Node21 -->
<g id="Node000021" class="node">
<title>Node21</title>
<g id="a_Node000021"><a xlink:title=" ">
<polygon fill="#e0e0e0" stroke="#999999" points="1064.12,-76 1011.38,-76 1011.38,-56 1064.12,-56 1064.12,-76"/>
<text text-anchor="middle" x="1037.75" y="-62.5" font-family="Helvetica,sans-Serif" font-size="10.00">GL/glu.h</text>
</a>
</g>
</g>
<!-- Node5&#45;&gt;Node21 -->
<g id="edge22_Node000005_Node000021" class="edge">
<title>Node5&#45;&gt;Node21</title>
<g id="a_edge22_Node000005_Node000021"><a xlink:title=" ">
<path fill="none" stroke="#63b8ff" d="M771.95,-117.24C816.15,-110.49 910.75,-95.43 999.92,-76.48"/>
<polygon fill="#63b8ff" stroke="#63b8ff" points="1000.53,-79.93 1009.57,-74.41 999.06,-73.09 1000.53,-79.93"/>
</a>
</g>
</g>
<!-- Node22 -->
<g id="Node000022" class="node">
<title>Node22</title>
<g id="a_Node000022"><a xlink:title=" ">
<polygon fill="#e0e0e0" stroke="#999999" points="1148.88,-76 1082.62,-76 1082.62,-56 1148.88,-56 1148.88,-76"/>
<text text-anchor="middle" x="1115.75" y="-62.5" font-family="Helvetica,sans-Serif" font-size="10.00">epoxy/glx.h</text>
</a>
</g>
</g>
<!-- Node5&#45;&gt;Node22 -->
<g id="edge23_Node000005_Node000022" class="edge">
<title>Node5&#45;&gt;Node22</title>
<g id="a_edge23_Node000005_Node000022"><a xlink:title=" ">
<path fill="none" stroke="#63b8ff" d="M771.79,-118.14C824.89,-111.96 952.94,-96.36 1071.4,-76.12"/>
<polygon fill="#63b8ff" stroke="#63b8ff" points="1071.71,-79.61 1080.97,-74.46 1070.52,-72.71 1071.71,-79.61"/>
</a>
</g>
</g>
<!-- Node23 -->
<g id="Node000023" class="node">
<title>Node23</title>
<g id="a_Node000023"><a xlink:href="../../dc/db0/math__3d_8h.html" target="_top" xlink:title="Functions for OpenGL math.">
<polygon fill="white" stroke="#666666" points="241.62,-76 179.88,-76 179.88,-56 241.62,-56 241.62,-76"/>
<text text-anchor="middle" x="210.75" y="-62.5" font-family="Helvetica,sans-Serif" font-size="10.00">math_3d.h</text>
</a>
</g>
</g>
<!-- Node5&#45;&gt;Node23 -->
<g id="edge24_Node000005_Node000023" class="edge">
<title>Node5&#45;&gt;Node23</title>
<g id="a_edge24_Node000005_Node000023"><a xlink:title=" ">
<path fill="none" stroke="#63b8ff" d="M721.52,-119.93C649.7,-116.64 437.9,-105.16 253.05,-76.34"/>
<polygon fill="#63b8ff" stroke="#63b8ff" points="253.67,-72.9 243.25,-74.79 252.58,-79.81 253.67,-72.9"/>
</a>
</g>
</g>
<!-- Node24 -->
<g id="Node000024" class="node">
<title>Node24</title>
<g id="a_Node000024"><a xlink:href="../../da/d7e/glwin_8h.html" target="_top" xlink:title="Variable declarations related the OpenGL window &#160;&#160;Data structure declarations related the OpenGL wind...">
<polygon fill="white" stroke="#666666" points="1595.12,-76 1548.38,-76 1548.38,-56 1595.12,-56 1595.12,-76"/>
<text text-anchor="middle" x="1571.75" y="-62.5" font-family="Helvetica,sans-Serif" font-size="10.00">glwin.h</text>
</a>
</g>
</g>
<!-- Node5&#45;&gt;Node24 -->
<g id="edge27_Node000005_Node000024" class="edge">
<title>Node5&#45;&gt;Node24</title>
<g id="a_edge27_Node000005_Node000024"><a xlink:title=" ">
<path fill="none" stroke="#63b8ff" d="M771.93,-121.48C869.37,-122.92 1231.06,-124.62 1536.78,-75.92"/>
<polygon fill="#63b8ff" stroke="#63b8ff" points="1537.28,-79.38 1546.59,-74.33 1536.16,-72.47 1537.28,-79.38"/>
</a>
</g>
</g>
<!-- Node23&#45;&gt;Node11 -->
<g id="edge26_Node000023_Node000011" class="edge">
<title>Node23&#45;&gt;Node11</title>
<g id="a_edge26_Node000023_Node000011"><a xlink:title=" ">
<path fill="none" stroke="#63b8ff" d="M241.76,-57.46C244.45,-56.92 247.14,-56.43 249.75,-56 408.67,-30.04 600.96,-17.19 677.72,-12.8"/>
<polygon fill="#63b8ff" stroke="#63b8ff" points="677.72,-16.3 687.51,-12.25 677.33,-9.32 677.72,-16.3"/>
</a>
</g>
</g>
<!-- Node23&#45;&gt;Node14 -->
<g id="edge25_Node000023_Node000014" class="edge">
<title>Node23&#45;&gt;Node14</title>
<g id="a_edge25_Node000023_Node000014"><a xlink:title=" ">
<path fill="none" stroke="#63b8ff" d="M205.7,-55.59C201.96,-48.63 196.73,-38.89 192.11,-30.29"/>
<polygon fill="#63b8ff" stroke="#63b8ff" points="195.27,-28.79 187.46,-21.63 189.11,-32.1 195.27,-28.79"/>
</a>
</g>
</g>
<!-- Node25 -->
<g id="Node000025" class="node">
<title>Node25</title>
<g id="a_Node000025"><a xlink:href="../../d5/d9e/ogl__shading_8h.html" target="_top" xlink:title="Variable declarations related to GLSL programs &#160;&#160;Data structure declarations related to GLSL programs...">
<polygon fill="white" stroke="#666666" points="1609.75,-20 1533.75,-20 1533.75,0 1609.75,0 1609.75,-20"/>
<text text-anchor="middle" x="1571.75" y="-6.5" font-family="Helvetica,sans-Serif" font-size="10.00">ogl_shading.h</text>
</a>
</g>
</g>
<!-- Node24&#45;&gt;Node25 -->
<g id="edge28_Node000024_Node000025" class="edge">
<title>Node24&#45;&gt;Node25</title>
<g id="a_edge28_Node000024_Node000025"><a xlink:title=" ">
<path fill="none" stroke="#63b8ff" d="M1571.75,-55.59C1571.75,-49.01 1571.75,-39.96 1571.75,-31.73"/>
<polygon fill="#63b8ff" stroke="#63b8ff" points="1575.25,-31.81 1571.75,-21.81 1568.25,-31.81 1575.25,-31.81"/>
</a>
</g>
</g>
<!-- Node26&#45;&gt;Node5 -->
<g id="edge30_Node000026_Node000005" class="edge">
<title>Node26&#45;&gt;Node5</title>
<g id="a_edge30_Node000026_Node000005"><a xlink:title=" ">
<path fill="none" stroke="#63b8ff" d="M640.22,-167.59C660.54,-159.09 690.7,-146.46 713.76,-136.81"/>
<polygon fill="#63b8ff" stroke="#63b8ff" points="714.84,-140.15 722.71,-133.06 712.13,-133.7 714.84,-140.15"/>
</a>
</g>
</g>
</g>
</svg>
