<?xml version="1.0" encoding="UTF-8" standalone="no"?>
<!DOCTYPE svg PUBLIC "-//W3C//DTD SVG 1.1//EN"
 "http://www.w3.org/Graphics/SVG/1.1/DTD/svg11.dtd">
<!-- Generated by graphviz version 7.1.0 (0)
 -->
<!-- Title: curve/frame.c Pages: 1 -->
<!--zoomable 247 -->
<svg id="main" version="1.1" xmlns="http://www.w3.org/2000/svg" xmlns:xlink="http://www.w3.org/1999/xlink" xml:space="preserve" onload="init(evt)">
<style type="text/css"><![CDATA[
.edge:hover path { stroke: red; }
.edge:hover polygon { stroke: red; fill: red; }
]]></style>
<script type="text/javascript"><![CDATA[
var edges = document.getElementsByTagName('g');
if (edges && edges.length) {
  for (var i=0;i<edges.length;i++) {
    if (edges[i].id.substr(0,4)=='edge') {
      edges[i].setAttribute('class','edge');
    }
  }
}
]]></script>
        <defs>
                <circle id="rim" cx="0" cy="0" r="7"/>
                <circle id="rim2" cx="0" cy="0" r="3.5"/>
                <g id="zoomPlus">
                        <use xlink:href="#rim" fill="#404040">
                                <set attributeName="fill" to="#808080" begin="zoomplus.mouseover" end="zoomplus.mouseout"/>
                        </use>
                        <path d="M-4,0h8M0,-4v8" fill="none" stroke="white" stroke-width="1.5" pointer-events="none"/>
                </g>
                <g id="zoomMin">
                        <use xlink:href="#rim" fill="#404040">
                                <set attributeName="fill" to="#808080" begin="zoomminus.mouseover" end="zoomminus.mouseout"/>
                        </use>
                        <path d="M-4,0h8" fill="none" stroke="white" stroke-width="1.5" pointer-events="none"/>
                </g>
                <g id="dirArrow">
                        <path fill="none" stroke="white" stroke-width="1.5" d="M0,-3.0v7 M-2.5,-0.5L0,-3.0L2.5,-0.5"/>
                </g>
               <g id="resetDef">
                       <use xlink:href="#rim2" fill="#404040">
                               <set attributeName="fill" to="#808080" begin="reset.mouseover" end="reset.mouseout"/>
                       </use>
               </g>
        </defs>

<script type="text/javascript">
var viewWidth = 1633;
var viewHeight = 247;
var sectionId = 'dynsection-0';
</script>
<script xlink:href="../../svgpan.js"/>
<svg id="graph" class="graph">
<g id="viewport">
<title>curve/frame.c</title>
<!-- Node1 -->
<g id="node1" class="node">
<title>Node1</title>
<g id="a_node1"><a xlink:title="Functions to draw the frame.">
<polygon fill="#999999" stroke="#666666" points="701.5,-239 624.5,-239 624.5,-220 701.5,-220 701.5,-239"/>
<text text-anchor="middle" x="663" y="-227" font-family="Helvetica,sans-Serif" font-size="10.00">curve/frame.c</text>
</a>
</g>
</g>
<!-- Node2 -->
<g id="node2" class="node">
<title>Node2</title>
<g id="a_node2"><a xlink:title=" ">
<polygon fill="#e0e0e0" stroke="#999999" points="48,-74 0,-74 0,-55 48,-55 48,-74"/>
<text text-anchor="middle" x="24" y="-62" font-family="Helvetica,sans-Serif" font-size="10.00">stdlib.h</text>
</a>
</g>
</g>
<!-- Node1&#45;&gt;Node2 -->
<g id="edge1" class="edge">
<title>Node1&#45;&gt;Node2</title>
<path fill="none" stroke="#63b8ff" d="M624.37,-221.33C581.2,-213.13 509.3,-198.89 448,-184 302.42,-148.63 131.2,-97.95 58.95,-76.14"/>
<polygon fill="#63b8ff" stroke="#63b8ff" points="60.26,-72.88 49.67,-73.34 58.23,-79.58 60.26,-72.88"/>
</g>
<!-- Node3 -->
<g id="node3" class="node">
<title>Node3</title>
<g id="a_node3"><a xlink:title=" ">
<polygon fill="#e0e0e0" stroke="#999999" points="125.5,-74 66.5,-74 66.5,-55 125.5,-55 125.5,-74"/>
<text text-anchor="middle" x="96" y="-62" font-family="Helvetica,sans-Serif" font-size="10.00">gdk/gdk.h</text>
</a>
</g>
</g>
<!-- Node1&#45;&gt;Node3 -->
<g id="edge2" class="edge">
<title>Node1&#45;&gt;Node3</title>
<path fill="none" stroke="#63b8ff" d="M631.71,-219.5C535.61,-191.88 244.77,-108.27 136.87,-77.25"/>
<polygon fill="#63b8ff" stroke="#63b8ff" points="137.85,-73.89 127.27,-74.49 135.92,-80.62 137.85,-73.89"/>
</g>
<!-- Node4 -->
<g id="node4" class="node">
<title>Node4</title>
<g id="a_node4"><a xlink:title=" ">
<polygon fill="#e0e0e0" stroke="#999999" points="790,-184 744,-184 744,-165 790,-165 790,-184"/>
<text text-anchor="middle" x="767" y="-172" font-family="Helvetica,sans-Serif" font-size="10.00">cairo.h</text>
</a>
</g>
</g>
<!-- Node1&#45;&gt;Node4 -->
<g id="edge3" class="edge">
<title>Node1&#45;&gt;Node4</title>
<path fill="none" stroke="#63b8ff" d="M680.64,-219.51C696.73,-211.31 720.75,-199.07 739.37,-189.58"/>
<polygon fill="#63b8ff" stroke="#63b8ff" points="740.95,-192.7 748.27,-185.05 737.77,-186.47 740.95,-192.7"/>
</g>
<!-- Node5 -->
<g id="node5" class="node">
<title>Node5</title>
<g id="a_node5"><a xlink:href="../../d2/d49/global_8h.html" target="_top" xlink:title="Global variable declarations &#160;&#160;Global convenience function declarations &#160;&#160;Global data structure defin...">
<polygon fill="white" stroke="#666666" points="824,-129 774,-129 774,-110 824,-110 824,-129"/>
<text text-anchor="middle" x="799" y="-117" font-family="Helvetica,sans-Serif" font-size="10.00">global.h</text>
</a>
</g>
</g>
<!-- Node1&#45;&gt;Node5 -->
<g id="edge4" class="edge">
<title>Node1&#45;&gt;Node5</title>
<path fill="none" stroke="#63b8ff" d="M672.48,-219.51C685.97,-206.86 711.66,-183.31 735,-165 748.06,-154.76 763.3,-144.11 775.63,-135.8"/>
<polygon fill="#63b8ff" stroke="#63b8ff" points="777.55,-138.73 783.93,-130.27 773.67,-132.9 777.55,-138.73"/>
</g>
<!-- Node26 -->
<g id="node26" class="node">
<title>Node26</title>
<g id="a_node26"><a xlink:href="../../df/de9/curve_8h.html" target="_top" xlink:title="Variable declarations for the curve widget \ Functions for interactions with the curve widget.">
<polygon fill="white" stroke="#666666" points="687.5,-184 638.5,-184 638.5,-165 687.5,-165 687.5,-184"/>
<text text-anchor="middle" x="663" y="-172" font-family="Helvetica,sans-Serif" font-size="10.00">curve.h</text>
</a>
</g>
</g>
<!-- Node1&#45;&gt;Node26 -->
<g id="edge29" class="edge">
<title>Node1&#45;&gt;Node26</title>
<path fill="none" stroke="#63b8ff" d="M663,-219.75C663,-213.27 663,-204.16 663,-195.9"/>
<polygon fill="#63b8ff" stroke="#63b8ff" points="666.5,-195.96 663,-185.96 659.5,-195.96 666.5,-195.96"/>
</g>
<!-- Node5&#45;&gt;Node2 -->
<g id="edge11" class="edge">
<title>Node5&#45;&gt;Node2</title>
<path fill="none" stroke="#63b8ff" d="M773.51,-118.74C679.61,-119.24 344.24,-117.8 59.77,-74.12"/>
<polygon fill="#63b8ff" stroke="#63b8ff" points="60.31,-70.66 49.89,-72.57 59.24,-77.57 60.31,-70.66"/>
</g>
<!-- Node5&#45;&gt;Node3 -->
<g id="edge16" class="edge">
<title>Node5&#45;&gt;Node3</title>
<path fill="none" stroke="#63b8ff" d="M773.75,-117.92C685.91,-115.65 385.63,-105.89 140,-74 138.99,-73.87 137.96,-73.73 136.93,-73.58"/>
<polygon fill="#63b8ff" stroke="#63b8ff" points="137.67,-70.15 127.24,-72 136.54,-77.06 137.67,-70.15"/>
</g>
<!-- Node6 -->
<g id="node6" class="node">
<title>Node6</title>
<g id="a_node6"><a xlink:title=" ">
<polygon fill="#e0e0e0" stroke="#999999" points="1256,-74 1216,-74 1216,-55 1256,-55 1256,-74"/>
<text text-anchor="middle" x="1236" y="-62" font-family="Helvetica,sans-Serif" font-size="10.00">glib.h</text>
</a>
</g>
</g>
<!-- Node5&#45;&gt;Node6 -->
<g id="edge5" class="edge">
<title>Node5&#45;&gt;Node6</title>
<path fill="none" stroke="#63b8ff" d="M824.07,-117.31C886.73,-114 1055.25,-103.12 1204.36,-74.2"/>
<polygon fill="#63b8ff" stroke="#63b8ff" points="1204.9,-77.66 1214.03,-72.28 1203.54,-70.79 1204.9,-77.66"/>
</g>
<!-- Node7 -->
<g id="node7" class="node">
<title>Node7</title>
<g id="a_node7"><a xlink:title=" ">
<polygon fill="#e0e0e0" stroke="#999999" points="1340,-74 1274,-74 1274,-55 1340,-55 1340,-74"/>
<text text-anchor="middle" x="1307" y="-62" font-family="Helvetica,sans-Serif" font-size="10.00">glib/gi18n.h</text>
</a>
</g>
</g>
<!-- Node5&#45;&gt;Node7 -->
<g id="edge6" class="edge">
<title>Node5&#45;&gt;Node7</title>
<path fill="none" stroke="#63b8ff" d="M824.37,-117.01C893.15,-112.78 1089.12,-99.43 1262.22,-74.26"/>
<polygon fill="#63b8ff" stroke="#63b8ff" points="1262.7,-77.73 1272.09,-72.81 1261.68,-70.81 1262.7,-77.73"/>
</g>
<!-- Node8 -->
<g id="node8" class="node">
<title>Node8</title>
<g id="a_node8"><a xlink:title=" ">
<polygon fill="#e0e0e0" stroke="#999999" points="1408,-74 1358,-74 1358,-55 1408,-55 1408,-74"/>
<text text-anchor="middle" x="1383" y="-62" font-family="Helvetica,sans-Serif" font-size="10.00">locale.h</text>
</a>
</g>
</g>
<!-- Node5&#45;&gt;Node8 -->
<g id="edge7" class="edge">
<title>Node5&#45;&gt;Node8</title>
<path fill="none" stroke="#63b8ff" d="M824.4,-117.93C901.55,-115.87 1140.01,-107.24 1346.78,-74.08"/>
<polygon fill="#63b8ff" stroke="#63b8ff" points="1347.04,-77.58 1356.35,-72.52 1345.92,-70.68 1347.04,-77.58"/>
</g>
<!-- Node9 -->
<g id="node9" class="node">
<title>Node9</title>
<g id="a_node9"><a xlink:title=" ">
<polygon fill="#e0e0e0" stroke="#999999" points="1477.5,-74 1426.5,-74 1426.5,-55 1477.5,-55 1477.5,-74"/>
<text text-anchor="middle" x="1452" y="-62" font-family="Helvetica,sans-Serif" font-size="10.00">unistd.h</text>
</a>
</g>
</g>
<!-- Node5&#45;&gt;Node9 -->
<g id="edge8" class="edge">
<title>Node5&#45;&gt;Node9</title>
<path fill="none" stroke="#63b8ff" d="M824.48,-118.18C907.89,-116.82 1180.34,-109.86 1414.96,-74.03"/>
<polygon fill="#63b8ff" stroke="#63b8ff" points="1415.26,-77.52 1424.61,-72.53 1414.19,-70.6 1415.26,-77.52"/>
</g>
<!-- Node10 -->
<g id="node10" class="node">
<title>Node10</title>
<g id="a_node10"><a xlink:title=" ">
<polygon fill="#e0e0e0" stroke="#999999" points="1544.5,-74 1495.5,-74 1495.5,-55 1544.5,-55 1544.5,-74"/>
<text text-anchor="middle" x="1520" y="-62" font-family="Helvetica,sans-Serif" font-size="10.00">string.h</text>
</a>
</g>
</g>
<!-- Node5&#45;&gt;Node10 -->
<g id="edge9" class="edge">
<title>Node5&#45;&gt;Node10</title>
<path fill="none" stroke="#63b8ff" d="M824.49,-118.57C913.95,-118.45 1221.92,-115.01 1483.98,-74.19"/>
<polygon fill="#63b8ff" stroke="#63b8ff" points="1484.41,-77.67 1493.74,-72.65 1483.32,-70.75 1484.41,-77.67"/>
</g>
<!-- Node11 -->
<g id="node11" class="node">
<title>Node11</title>
<g id="a_node11"><a xlink:title=" ">
<polygon fill="#e0e0e0" stroke="#999999" points="703,-19 657,-19 657,0 703,0 703,-19"/>
<text text-anchor="middle" x="680" y="-7" font-family="Helvetica,sans-Serif" font-size="10.00">stdio.h</text>
</a>
</g>
</g>
<!-- Node5&#45;&gt;Node11 -->
<g id="edge10" class="edge">
<title>Node5&#45;&gt;Node11</title>
<path fill="none" stroke="#63b8ff" d="M824.13,-118.66C888.48,-118.46 1056.58,-114.06 1091,-74 1096.5,-67.59 1096.64,-61.28 1091,-55 1066.03,-27.18 809.42,-15.17 714.8,-11.66"/>
<polygon fill="#63b8ff" stroke="#63b8ff" points="714.95,-8.16 704.84,-11.3 714.7,-15.16 714.95,-8.16"/>
</g>
<!-- Node12 -->
<g id="node12" class="node">
<title>Node12</title>
<g id="a_node12"><a xlink:title=" ">
<polygon fill="#e0e0e0" stroke="#999999" points="330,-74 262,-74 262,-55 330,-55 330,-74"/>
<text text-anchor="middle" x="296" y="-62" font-family="Helvetica,sans-Serif" font-size="10.00">sys/types.h</text>
</a>
</g>
</g>
<!-- Node5&#45;&gt;Node12 -->
<g id="edge12" class="edge">
<title>Node5&#45;&gt;Node12</title>
<path fill="none" stroke="#63b8ff" d="M773.71,-116.93C705.6,-112.53 512.46,-98.82 341.45,-74.22"/>
<polygon fill="#63b8ff" stroke="#63b8ff" points="342.11,-70.78 331.71,-72.8 341.1,-77.7 342.11,-70.78"/>
</g>
<!-- Node13 -->
<g id="node13" class="node">
<title>Node13</title>
<g id="a_node13"><a xlink:title=" ">
<polygon fill="#e0e0e0" stroke="#999999" points="408,-74 348,-74 348,-55 408,-55 408,-74"/>
<text text-anchor="middle" x="378" y="-62" font-family="Helvetica,sans-Serif" font-size="10.00">sys/stat.h</text>
</a>
</g>
</g>
<!-- Node5&#45;&gt;Node13 -->
<g id="edge13" class="edge">
<title>Node5&#45;&gt;Node13</title>
<path fill="none" stroke="#63b8ff" d="M773.85,-116.44C714.17,-111.35 559.16,-97.08 419.49,-74.26"/>
<polygon fill="#63b8ff" stroke="#63b8ff" points="420.11,-70.81 409.67,-72.63 418.96,-77.72 420.11,-70.81"/>
</g>
<!-- Node14 -->
<g id="node14" class="node">
<title>Node14</title>
<g id="a_node14"><a xlink:title=" ">
<polygon fill="#e0e0e0" stroke="#999999" points="207.5,-19 160.5,-19 160.5,0 207.5,0 207.5,-19"/>
<text text-anchor="middle" x="184" y="-7" font-family="Helvetica,sans-Serif" font-size="10.00">math.h</text>
</a>
</g>
</g>
<!-- Node5&#45;&gt;Node14 -->
<g id="edge14" class="edge">
<title>Node5&#45;&gt;Node14</title>
<path fill="none" stroke="#63b8ff" d="M773.68,-118.68C661.68,-119.23 214.54,-118.6 173,-74 161.93,-62.11 166.95,-43.28 173.38,-29.21"/>
<polygon fill="#63b8ff" stroke="#63b8ff" points="176.39,-31.01 177.86,-20.51 170.17,-27.8 176.39,-31.01"/>
</g>
<!-- Node15 -->
<g id="node15" class="node">
<title>Node15</title>
<g id="a_node15"><a xlink:title=" ">
<polygon fill="#e0e0e0" stroke="#999999" points="481.5,-74 426.5,-74 426.5,-55 481.5,-55 481.5,-74"/>
<text text-anchor="middle" x="454" y="-62" font-family="Helvetica,sans-Serif" font-size="10.00">gtk/gtk.h</text>
</a>
</g>
</g>
<!-- Node5&#45;&gt;Node15 -->
<g id="edge15" class="edge">
<title>Node5&#45;&gt;Node15</title>
<path fill="none" stroke="#63b8ff" d="M773.64,-115.62C722.45,-109.65 602.93,-94.87 493.13,-74.46"/>
<polygon fill="#63b8ff" stroke="#63b8ff" points="493.82,-71.03 483.34,-72.62 492.52,-77.91 493.82,-71.03"/>
</g>
<!-- Node16 -->
<g id="node16" class="node">
<title>Node16</title>
<g id="a_node16"><a xlink:title=" ">
<polygon fill="#e0e0e0" stroke="#999999" points="598.5,-74 499.5,-74 499.5,-55 598.5,-55 598.5,-74"/>
<text text-anchor="middle" x="549" y="-62" font-family="Helvetica,sans-Serif" font-size="10.00">gdk/gdkkeysyms.h</text>
</a>
</g>
</g>
<!-- Node5&#45;&gt;Node16 -->
<g id="edge17" class="edge">
<title>Node5&#45;&gt;Node16</title>
<path fill="none" stroke="#63b8ff" d="M773.65,-113.13C733.75,-104.67 655.42,-88.06 602.62,-76.87"/>
<polygon fill="#63b8ff" stroke="#63b8ff" points="603.43,-73.46 592.92,-74.81 601.98,-80.31 603.43,-73.46"/>
</g>
<!-- Node17 -->
<g id="node17" class="node">
<title>Node17</title>
<g id="a_node17"><a xlink:title=" ">
<polygon fill="#e0e0e0" stroke="#999999" points="735,-74 617,-74 617,-55 735,-55 735,-74"/>
<text text-anchor="middle" x="676" y="-62" font-family="Helvetica,sans-Serif" font-size="10.00">gdk&#45;pixbuf/gdk&#45;pixbuf.h</text>
</a>
</g>
</g>
<!-- Node5&#45;&gt;Node17 -->
<g id="edge18" class="edge">
<title>Node5&#45;&gt;Node17</title>
<path fill="none" stroke="#63b8ff" d="M778.13,-109.51C758.58,-101.08 729.1,-88.38 706.83,-78.79"/>
<polygon fill="#63b8ff" stroke="#63b8ff" points="708.52,-75.7 697.95,-74.96 705.75,-82.13 708.52,-75.7"/>
</g>
<!-- Node18 -->
<g id="node18" class="node">
<title>Node18</title>
<g id="a_node18"><a xlink:title=" ">
<polygon fill="#e0e0e0" stroke="#999999" points="845,-74 753,-74 753,-55 845,-55 845,-74"/>
<text text-anchor="middle" x="799" y="-62" font-family="Helvetica,sans-Serif" font-size="10.00">pango/pangoft2.h</text>
</a>
</g>
</g>
<!-- Node5&#45;&gt;Node18 -->
<g id="edge19" class="edge">
<title>Node5&#45;&gt;Node18</title>
<path fill="none" stroke="#63b8ff" d="M799,-109.75C799,-103.27 799,-94.16 799,-85.9"/>
<polygon fill="#63b8ff" stroke="#63b8ff" points="802.5,-85.96 799,-75.96 795.5,-85.96 802.5,-85.96"/>
</g>
<!-- Node19 -->
<g id="node19" class="node">
<title>Node19</title>
<g id="a_node19"><a xlink:title=" ">
<polygon fill="#e0e0e0" stroke="#999999" points="925,-74 863,-74 863,-55 925,-55 925,-74"/>
<text text-anchor="middle" x="894" y="-62" font-family="Helvetica,sans-Serif" font-size="10.00">epoxy/gl.h</text>
</a>
</g>
</g>
<!-- Node5&#45;&gt;Node19 -->
<g id="edge20" class="edge">
<title>Node5&#45;&gt;Node19</title>
<path fill="none" stroke="#63b8ff" d="M815.12,-109.51C829.67,-101.39 851.34,-89.3 868.29,-79.85"/>
<polygon fill="#63b8ff" stroke="#63b8ff" points="869.77,-83.02 876.8,-75.1 866.36,-76.91 869.77,-83.02"/>
</g>
<!-- Node20 -->
<g id="node20" class="node">
<title>Node20</title>
<g id="a_node20"><a xlink:title=" ">
<polygon fill="#e0e0e0" stroke="#999999" points="996.5,-74 943.5,-74 943.5,-55 996.5,-55 996.5,-74"/>
<text text-anchor="middle" x="970" y="-62" font-family="Helvetica,sans-Serif" font-size="10.00">GL/glu.h</text>
</a>
</g>
</g>
<!-- Node5&#45;&gt;Node20 -->
<g id="edge21" class="edge">
<title>Node5&#45;&gt;Node20</title>
<path fill="none" stroke="#63b8ff" d="M824.23,-110.68C852.74,-101.84 899.43,-87.37 932.27,-77.19"/>
<polygon fill="#63b8ff" stroke="#63b8ff" points="933.29,-80.54 941.81,-74.24 931.22,-73.85 933.29,-80.54"/>
</g>
<!-- Node21 -->
<g id="node21" class="node">
<title>Node21</title>
<g id="a_node21"><a xlink:title=" ">
<polygon fill="#e0e0e0" stroke="#999999" points="1081.5,-74 1014.5,-74 1014.5,-55 1081.5,-55 1081.5,-74"/>
<text text-anchor="middle" x="1048" y="-62" font-family="Helvetica,sans-Serif" font-size="10.00">epoxy/glx.h</text>
</a>
</g>
</g>
<!-- Node5&#45;&gt;Node21 -->
<g id="edge22" class="edge">
<title>Node5&#45;&gt;Node21</title>
<path fill="none" stroke="#63b8ff" d="M824.25,-113.13C866.17,-104.2 950.72,-86.21 1003.04,-75.07"/>
<polygon fill="#63b8ff" stroke="#63b8ff" points="1003.47,-78.56 1012.52,-73.05 1002.01,-71.71 1003.47,-78.56"/>
</g>
<!-- Node22 -->
<g id="node22" class="node">
<title>Node22</title>
<g id="a_node22"><a xlink:href="../../dc/db0/math__3d_8h.html" target="_top" xlink:title="Functions for OpenGL math.">
<polygon fill="white" stroke="#666666" points="244,-74 182,-74 182,-55 244,-55 244,-74"/>
<text text-anchor="middle" x="213" y="-62" font-family="Helvetica,sans-Serif" font-size="10.00">math_3d.h</text>
</a>
</g>
</g>
<!-- Node5&#45;&gt;Node22 -->
<g id="edge23" class="edge">
<title>Node5&#45;&gt;Node22</title>
<path fill="none" stroke="#63b8ff" d="M773.56,-117.59C696.86,-114.58 461,-103.58 255.68,-74.2"/>
<polygon fill="#63b8ff" stroke="#63b8ff" points="256.27,-70.75 245.87,-72.78 255.27,-77.68 256.27,-70.75"/>
</g>
<!-- Node23 -->
<g id="node23" class="node">
<title>Node23</title>
<g id="a_node23"><a xlink:href="../../da/d7e/glwin_8h.html" target="_top" xlink:title="Variable declarations related the OpenGL window &#160;&#160;Data structure declarations related the OpenGL wind...">
<polygon fill="white" stroke="#666666" points="1609.5,-74 1562.5,-74 1562.5,-55 1609.5,-55 1609.5,-74"/>
<text text-anchor="middle" x="1586" y="-62" font-family="Helvetica,sans-Serif" font-size="10.00">glwin.h</text>
</a>
</g>
</g>
<!-- Node5&#45;&gt;Node23 -->
<g id="edge26" class="edge">
<title>Node5&#45;&gt;Node23</title>
<path fill="none" stroke="#63b8ff" d="M824.29,-118.84C918.98,-119.74 1261.56,-119.55 1551.2,-74.12"/>
<polygon fill="#63b8ff" stroke="#63b8ff" points="1551.53,-77.62 1560.85,-72.59 1550.43,-70.7 1551.53,-77.62"/>
</g>
<!-- Node25 -->
<g id="node25" class="node">
<title>Node25</title>
<g id="a_node25"><a xlink:title=" ">
<polygon fill="#e0e0e0" stroke="#999999" points="1198,-74 1138,-74 1138,-55 1198,-55 1198,-74"/>
<text text-anchor="middle" x="1168" y="-62" font-family="Helvetica,sans-Serif" font-size="10.00">gtk/gtkx.h</text>
</a>
</g>
</g>
<!-- Node5&#45;&gt;Node25 -->
<g id="edge28" class="edge">
<title>Node5&#45;&gt;Node25</title>
<path fill="none" stroke="#63b8ff" d="M824.36,-115.51C879.17,-108.93 1012.74,-92.35 1124,-74 1124.83,-73.86 1125.68,-73.72 1126.53,-73.58"/>
<polygon fill="#63b8ff" stroke="#63b8ff" points="1127.02,-77.04 1136.25,-71.84 1125.79,-70.15 1127.02,-77.04"/>
</g>
<!-- Node22&#45;&gt;Node11 -->
<g id="edge25" class="edge">
<title>Node22&#45;&gt;Node11</title>
<path fill="none" stroke="#63b8ff" d="M244.38,-56.5C247.29,-55.95 250.19,-55.44 253,-55 398.06,-32.09 572.77,-18.09 645.56,-12.85"/>
<polygon fill="#63b8ff" stroke="#63b8ff" points="645.51,-16.36 655.24,-12.16 645.01,-9.38 645.51,-16.36"/>
</g>
<!-- Node22&#45;&gt;Node14 -->
<g id="edge24" class="edge">
<title>Node22&#45;&gt;Node14</title>
<path fill="none" stroke="#63b8ff" d="M208.21,-54.75C204.46,-47.88 199.09,-38.08 194.37,-29.45"/>
<polygon fill="#63b8ff" stroke="#63b8ff" points="197.49,-27.86 189.62,-20.77 191.35,-31.22 197.49,-27.86"/>
</g>
<!-- Node24 -->
<g id="node24" class="node">
<title>Node24</title>
<g id="a_node24"><a xlink:href="../../d5/d9e/ogl__shading_8h.html" target="_top" xlink:title="Variable declarations related to GLSL programs &#160;&#160;Data structure declarations related to GLSL programs...">
<polygon fill="white" stroke="#666666" points="1624.5,-19 1547.5,-19 1547.5,0 1624.5,0 1624.5,-19"/>
<text text-anchor="middle" x="1586" y="-7" font-family="Helvetica,sans-Serif" font-size="10.00">ogl_shading.h</text>
</a>
</g>
</g>
<!-- Node23&#45;&gt;Node24 -->
<g id="edge27" class="edge">
<title>Node23&#45;&gt;Node24</title>
<path fill="none" stroke="#63b8ff" d="M1586,-54.75C1586,-48.27 1586,-39.16 1586,-30.9"/>
<polygon fill="#63b8ff" stroke="#63b8ff" points="1589.5,-30.96 1586,-20.96 1582.5,-30.96 1589.5,-30.96"/>
</g>
<!-- Node26&#45;&gt;Node5 -->
<g id="edge30" class="edge">
<title>Node26&#45;&gt;Node5</title>
<path fill="none" stroke="#63b8ff" d="M686.07,-164.51C707.89,-156.01 740.88,-143.15 765.58,-133.53"/>
<polygon fill="#63b8ff" stroke="#63b8ff" points="766.81,-136.8 774.86,-129.91 764.27,-130.28 766.81,-136.8"/>
</g>
</g>
</svg>
        <g id="navigator" transform="translate(0 0)" fill="#404254">
                <rect fill="#f2f5e9" fill-opacity="0.5" stroke="#606060" stroke-width=".5" x="0" y="0" width="60" height="60"/>
                <use id="zoomplus" xlink:href="#zoomPlus" x="17" y="9" onmousedown="handleZoom(evt,'in')"/>
                <use id="zoomminus" xlink:href="#zoomMin" x="42" y="9" onmousedown="handleZoom(evt,'out')"/>
                <use id="reset" xlink:href="#resetDef" x="30" y="36" onmousedown="handleReset()"/>
                <g id="arrowUp" xlink:href="#dirArrow" transform="translate(30 24)" onmousedown="handlePan(0,-1)">
                  <use xlink:href="#rim" fill="#404040">
                        <set attributeName="fill" to="#808080" begin="arrowUp.mouseover" end="arrowUp.mouseout"/>
                  </use>
                  <path fill="none" stroke="white" stroke-width="1.5" d="M0,-3.0v7 M-2.5,-0.5L0,-3.0L2.5,-0.5"/>
                </g>
                <g id="arrowRight" xlink:href="#dirArrow" transform="rotate(90) translate(36 -43)" onmousedown="handlePan(1,0)">
                  <use xlink:href="#rim" fill="#404040">
                        <set attributeName="fill" to="#808080" begin="arrowRight.mouseover" end="arrowRight.mouseout"/>
                  </use>
                  <path fill="none" stroke="white" stroke-width="1.5" d="M0,-3.0v7 M-2.5,-0.5L0,-3.0L2.5,-0.5"/>
                </g>
                <g id="arrowDown" xlink:href="#dirArrow" transform="rotate(180) translate(-30 -48)" onmousedown="handlePan(0,1)">
                  <use xlink:href="#rim" fill="#404040">
                        <set attributeName="fill" to="#808080" begin="arrowDown.mouseover" end="arrowDown.mouseout"/>
                  </use>
                  <path fill="none" stroke="white" stroke-width="1.5" d="M0,-3.0v7 M-2.5,-0.5L0,-3.0L2.5,-0.5"/>
                </g>
                <g id="arrowLeft" xlink:href="#dirArrow" transform="rotate(270) translate(-36 17)" onmousedown="handlePan(-1,0)">
                  <use xlink:href="#rim" fill="#404040">
                        <set attributeName="fill" to="#808080" begin="arrowLeft.mouseover" end="arrowLeft.mouseout"/>
                  </use>
                  <path fill="none" stroke="white" stroke-width="1.5" d="M0,-3.0v7 M-2.5,-0.5L0,-3.0L2.5,-0.5"/>
                </g>
        </g>
        <svg viewBox="0 0 15 15" width="100%" height="30px" preserveAspectRatio="xMaxYMin meet">
         <g id="arrow_out" transform="scale(0.3 0.3)">
          <a xlink:href="frame_8c__incl_org.svg" target="_base">
           <rect id="button" ry="5" rx="5" y="6" x="6" height="38" width="38"
                fill="#f2f5e9" fill-opacity="0.5" stroke="#606060" stroke-width="1.0"/>
           <path id="arrow"
             d="M 11.500037,31.436501 C 11.940474,20.09759 22.043105,11.32322 32.158766,21.979434 L 37.068811,17.246167 C 37.068811,17.246167 37.088388,32 37.088388,32 L 22.160133,31.978069 C 22.160133,31.978069 26.997745,27.140456 26.997745,27.140456 C 18.528582,18.264221 13.291696,25.230495 11.500037,31.436501 z"
             style="fill:#404040;"/>
          </a>
         </g>
        </svg>
</svg>
