<?xml version="1.0" encoding="UTF-8" standalone="no"?>
<!DOCTYPE svg PUBLIC "-//W3C//DTD SVG 1.1//EN"
 "http://www.w3.org/Graphics/SVG/1.1/DTD/svg11.dtd">
<!-- Generated by graphviz version 7.1.0 (0)
 -->
<!-- Title: submenus.h Pages: 1 -->
<!--zoomable 82 -->
<svg id="main" version="1.1" xmlns="http://www.w3.org/2000/svg" xmlns:xlink="http://www.w3.org/1999/xlink" xml:space="preserve" onload="init(evt)">
<style type="text/css"><![CDATA[
.edge:hover path { stroke: red; }
.edge:hover polygon { stroke: red; fill: red; }
]]></style>
<script type="text/javascript"><![CDATA[
var edges = document.getElementsByTagName('g');
if (edges && edges.length) {
  for (var i=0;i<edges.length;i++) {
    if (edges[i].id.substr(0,4)=='edge') {
      edges[i].setAttribute('class','edge');
    }
  }
}
]]></script>
        <defs>
                <circle id="rim" cx="0" cy="0" r="7"/>
                <circle id="rim2" cx="0" cy="0" r="3.5"/>
                <g id="zoomPlus">
                        <use xlink:href="#rim" fill="#404040">
                                <set attributeName="fill" to="#808080" begin="zoomplus.mouseover" end="zoomplus.mouseout"/>
                        </use>
                        <path d="M-4,0h8M0,-4v8" fill="none" stroke="white" stroke-width="1.5" pointer-events="none"/>
                </g>
                <g id="zoomMin">
                        <use xlink:href="#rim" fill="#404040">
                                <set attributeName="fill" to="#808080" begin="zoomminus.mouseover" end="zoomminus.mouseout"/>
                        </use>
                        <path d="M-4,0h8" fill="none" stroke="white" stroke-width="1.5" pointer-events="none"/>
                </g>
                <g id="dirArrow">
                        <path fill="none" stroke="white" stroke-width="1.5" d="M0,-3.0v7 M-2.5,-0.5L0,-3.0L2.5,-0.5"/>
                </g>
               <g id="resetDef">
                       <use xlink:href="#rim2" fill="#404040">
                               <set attributeName="fill" to="#808080" begin="reset.mouseover" end="reset.mouseout"/>
                       </use>
               </g>
        </defs>

<script type="text/javascript">
var viewWidth = 779;
var viewHeight = 82;
var sectionId = 'dynsection-0';
</script>
<script xlink:href="../../svgpan.js"/>
<svg id="graph" class="graph">
<g id="viewport">
<title>submenus.h</title>
<!-- Node1 -->
<g id="node1" class="node">
<title>Node1</title>
<g id="a_node1"><a xlink:title="Function declarations for the creation of the OpenGL window menus.">
<polygon fill="#999999" stroke="#666666" points="424,-74 354,-74 354,-55 424,-55 424,-74"/>
<text text-anchor="middle" x="389" y="-62" font-family="Helvetica,sans-Serif" font-size="10.00">submenus.h</text>
</a>
</g>
</g>
<!-- Node2 -->
<g id="node2" class="node">
<title>Node2</title>
<g id="a_node2"><a xlink:href="../../d2/d01/chainscall_8c.html" target="_top" xlink:title="Callbacks for the chains statistics calculation dialog.">
<polygon fill="white" stroke="#666666" points="68,-19 0,-19 0,0 68,0 68,-19"/>
<text text-anchor="middle" x="34" y="-7" font-family="Helvetica,sans-Serif" font-size="10.00">chainscall.c</text>
</a>
</g>
</g>
<!-- Node1&#45;&gt;Node2 -->
<g id="edge1" class="edge">
<title>Node1&#45;&gt;Node2</title>
<path fill="none" stroke="#63b8ff" d="M342.65,-57.68C281.6,-49.83 171,-34.98 77,-19 74.15,-18.52 71.2,-17.99 68.24,-17.44"/>
<polygon fill="#63b8ff" stroke="#63b8ff" points="341.95,-61.12 352.31,-58.91 342.84,-54.17 341.95,-61.12"/>
</g>
<!-- Node3 -->
<g id="node3" class="node">
<title>Node3</title>
<g id="a_node3"><a xlink:href="../../d7/dc8/glwindow_8c.html" target="_top" xlink:title="Functions to create a project OpenGL window.">
<polygon fill="white" stroke="#666666" points="151.5,-19 86.5,-19 86.5,0 151.5,0 151.5,-19"/>
<text text-anchor="middle" x="119" y="-7" font-family="Helvetica,sans-Serif" font-size="10.00">glwindow.c</text>
</a>
</g>
</g>
<!-- Node1&#45;&gt;Node3 -->
<g id="edge2" class="edge">
<title>Node1&#45;&gt;Node3</title>
<path fill="none" stroke="#63b8ff" d="M342.71,-54.56C296.64,-45.64 223.9,-31.5 161,-19 157.94,-18.39 154.75,-17.75 151.55,-17.11"/>
<polygon fill="#63b8ff" stroke="#63b8ff" points="341.86,-57.96 352.35,-56.43 343.19,-51.09 341.86,-57.96"/>
</g>
<!-- Node4 -->
<g id="node4" class="node">
<title>Node4</title>
<g id="a_node4"><a xlink:href="../../d5/dc1/m__axis_8c.html" target="_top" xlink:title="Functions to create the &#39;View &#45;&gt; Axis&#39; submenu.">
<polygon fill="white" stroke="#666666" points="226,-19 170,-19 170,0 226,0 226,-19"/>
<text text-anchor="middle" x="198" y="-7" font-family="Helvetica,sans-Serif" font-size="10.00">m_axis.c</text>
</a>
</g>
</g>
<!-- Node1&#45;&gt;Node4 -->
<g id="edge3" class="edge">
<title>Node1&#45;&gt;Node4</title>
<path fill="none" stroke="#63b8ff" d="M345.78,-51.51C309.28,-41.38 258.06,-27.16 226.5,-18.41"/>
<polygon fill="#63b8ff" stroke="#63b8ff" points="344.57,-54.8 355.14,-54.1 346.44,-48.06 344.57,-54.8"/>
</g>
<!-- Node5 -->
<g id="node5" class="node">
<title>Node5</title>
<g id="a_node5"><a xlink:href="../../d6/d35/m__box_8c.html" target="_top" xlink:title="Functions to create the &#39;Model &#45;&gt; Box&#39; submenu.">
<polygon fill="white" stroke="#666666" points="298,-19 244,-19 244,0 298,0 298,-19"/>
<text text-anchor="middle" x="271" y="-7" font-family="Helvetica,sans-Serif" font-size="10.00">m_box.c</text>
</a>
</g>
</g>
<!-- Node1&#45;&gt;Node5 -->
<g id="edge4" class="edge">
<title>Node1&#45;&gt;Node5</title>
<path fill="none" stroke="#63b8ff" d="M358.49,-49.8C337.13,-40.2 309.21,-27.66 290.72,-19.36"/>
<polygon fill="#63b8ff" stroke="#63b8ff" points="357.05,-52.98 367.6,-53.89 359.91,-46.6 357.05,-52.98"/>
</g>
<!-- Node6 -->
<g id="node6" class="node">
<title>Node6</title>
<g id="a_node6"><a xlink:href="../../db/dab/m__clones_8c.html" target="_top" xlink:title="Functions to create the &#39;Model &#45;&gt; Clone(s)&#39; submenu.">
<polygon fill="white" stroke="#666666" points="383.5,-19 316.5,-19 316.5,0 383.5,0 383.5,-19"/>
<text text-anchor="middle" x="350" y="-7" font-family="Helvetica,sans-Serif" font-size="10.00">m_clones.c</text>
</a>
</g>
</g>
<!-- Node1&#45;&gt;Node6 -->
<g id="edge5" class="edge">
<title>Node1&#45;&gt;Node6</title>
<path fill="none" stroke="#63b8ff" d="M375.86,-45.65C369.38,-36.84 361.84,-26.59 356.58,-19.44"/>
<polygon fill="#63b8ff" stroke="#63b8ff" points="372.92,-47.55 381.66,-53.53 378.56,-43.4 372.92,-47.55"/>
</g>
<!-- Node7 -->
<g id="node7" class="node">
<title>Node7</title>
<g id="a_node7"><a xlink:href="../../da/d98/m__rep_8c.html" target="_top" xlink:title="Functions to create the &#39;View &#45;&gt; Representation&#39; submenu.">
<polygon fill="white" stroke="#666666" points="454,-19 402,-19 402,0 454,0 454,-19"/>
<text text-anchor="middle" x="428" y="-7" font-family="Helvetica,sans-Serif" font-size="10.00">m_rep.c</text>
</a>
</g>
</g>
<!-- Node1&#45;&gt;Node7 -->
<g id="edge6" class="edge">
<title>Node1&#45;&gt;Node7</title>
<path fill="none" stroke="#63b8ff" d="M402.14,-45.65C408.62,-36.84 416.16,-26.59 421.42,-19.44"/>
<polygon fill="#63b8ff" stroke="#63b8ff" points="399.44,-43.4 396.34,-53.53 405.08,-47.55 399.44,-43.4"/>
</g>
<!-- Node8 -->
<g id="node8" class="node">
<title>Node8</title>
<g id="a_node8"><a xlink:href="../../d3/d51/m__tools_8c.html" target="_top" xlink:title="Functions to create the &#39;Tools&#39; submenu.">
<polygon fill="white" stroke="#666666" points="531.5,-19 472.5,-19 472.5,0 531.5,0 531.5,-19"/>
<text text-anchor="middle" x="502" y="-7" font-family="Helvetica,sans-Serif" font-size="10.00">m_tools.c</text>
</a>
</g>
</g>
<!-- Node1&#45;&gt;Node8 -->
<g id="edge7" class="edge">
<title>Node1&#45;&gt;Node8</title>
<path fill="none" stroke="#63b8ff" d="M418.49,-49.67C438.92,-40.09 465.49,-27.62 483.11,-19.36"/>
<polygon fill="#63b8ff" stroke="#63b8ff" points="417.11,-46.45 409.54,-53.87 420.08,-52.79 417.11,-46.45"/>
</g>
<!-- Node9 -->
<g id="node9" class="node">
<title>Node9</title>
<g id="a_node9"><a xlink:href="../../d5/dbe/menu__bar_8c.html" target="_top" xlink:title="Functions to create the menu bar of the OpenGL window &#160;&#160;Functions to create the menu items for the me...">
<polygon fill="white" stroke="#666666" points="618,-19 550,-19 550,0 618,0 618,-19"/>
<text text-anchor="middle" x="584" y="-7" font-family="Helvetica,sans-Serif" font-size="10.00">menu_bar.c</text>
</a>
</g>
</g>
<!-- Node1&#45;&gt;Node9 -->
<g id="edge8" class="edge">
<title>Node1&#45;&gt;Node9</title>
<path fill="none" stroke="#63b8ff" d="M433.18,-51.49C469,-41.76 518.69,-28.25 551.08,-19.45"/>
<polygon fill="#63b8ff" stroke="#63b8ff" points="432.27,-48.11 423.54,-54.11 434.11,-54.87 432.27,-48.11"/>
</g>
<!-- Node10 -->
<g id="node10" class="node">
<title>Node10</title>
<g id="a_node10"><a xlink:href="../../d5/da4/popup_8c.html" target="_top" xlink:title="Functions to create the OpenGL window popup menus:">
<polygon fill="white" stroke="#666666" points="687.5,-19 636.5,-19 636.5,0 687.5,0 687.5,-19"/>
<text text-anchor="middle" x="662" y="-7" font-family="Helvetica,sans-Serif" font-size="10.00">popup.c</text>
</a>
</g>
</g>
<!-- Node1&#45;&gt;Node10 -->
<g id="edge9" class="edge">
<title>Node1&#45;&gt;Node10</title>
<path fill="none" stroke="#63b8ff" d="M435.48,-55.57C483.56,-47.18 560.75,-33.23 627,-19 629.93,-18.37 633,-17.68 636.04,-16.97"/>
<polygon fill="#63b8ff" stroke="#63b8ff" points="434.95,-52.11 425.69,-57.27 436.14,-59 434.95,-52.11"/>
</g>
<!-- Node11 -->
<g id="node11" class="node">
<title>Node11</title>
<g id="a_node11"><a xlink:href="../../d4/db6/read__mol_8c.html" target="_top" xlink:title="Functions to read molecule(s) data in the atomes project file format.">
<polygon fill="white" stroke="#666666" points="770.5,-19 705.5,-19 705.5,0 770.5,0 770.5,-19"/>
<text text-anchor="middle" x="738" y="-7" font-family="Helvetica,sans-Serif" font-size="10.00">read_mol.c</text>
</a>
</g>
</g>
<!-- Node1&#45;&gt;Node11 -->
<g id="edge10" class="edge">
<title>Node1&#45;&gt;Node11</title>
<path fill="none" stroke="#63b8ff" d="M435.27,-57.71C495.65,-49.95 604.52,-35.25 697,-19 699.72,-18.52 702.54,-18 705.36,-17.45"/>
<polygon fill="#63b8ff" stroke="#63b8ff" points="435.19,-54.19 425.72,-58.93 436.08,-61.13 435.19,-54.19"/>
</g>
</g>
</svg>
        <g id="navigator" transform="translate(0 0)" fill="#404254">
                <rect fill="#f2f5e9" fill-opacity="0.5" stroke="#606060" stroke-width=".5" x="0" y="0" width="60" height="60"/>
                <use id="zoomplus" xlink:href="#zoomPlus" x="17" y="9" onmousedown="handleZoom(evt,'in')"/>
                <use id="zoomminus" xlink:href="#zoomMin" x="42" y="9" onmousedown="handleZoom(evt,'out')"/>
                <use id="reset" xlink:href="#resetDef" x="30" y="36" onmousedown="handleReset()"/>
                <g id="arrowUp" xlink:href="#dirArrow" transform="translate(30 24)" onmousedown="handlePan(0,-1)">
                  <use xlink:href="#rim" fill="#404040">
                        <set attributeName="fill" to="#808080" begin="arrowUp.mouseover" end="arrowUp.mouseout"/>
                  </use>
                  <path fill="none" stroke="white" stroke-width="1.5" d="M0,-3.0v7 M-2.5,-0.5L0,-3.0L2.5,-0.5"/>
                </g>
                <g id="arrowRight" xlink:href="#dirArrow" transform="rotate(90) translate(36 -43)" onmousedown="handlePan(1,0)">
                  <use xlink:href="#rim" fill="#404040">
                        <set attributeName="fill" to="#808080" begin="arrowRight.mouseover" end="arrowRight.mouseout"/>
                  </use>
                  <path fill="none" stroke="white" stroke-width="1.5" d="M0,-3.0v7 M-2.5,-0.5L0,-3.0L2.5,-0.5"/>
                </g>
                <g id="arrowDown" xlink:href="#dirArrow" transform="rotate(180) translate(-30 -48)" onmousedown="handlePan(0,1)">
                  <use xlink:href="#rim" fill="#404040">
                        <set attributeName="fill" to="#808080" begin="arrowDown.mouseover" end="arrowDown.mouseout"/>
                  </use>
                  <path fill="none" stroke="white" stroke-width="1.5" d="M0,-3.0v7 M-2.5,-0.5L0,-3.0L2.5,-0.5"/>
                </g>
                <g id="arrowLeft" xlink:href="#dirArrow" transform="rotate(270) translate(-36 17)" onmousedown="handlePan(-1,0)">
                  <use xlink:href="#rim" fill="#404040">
                        <set attributeName="fill" to="#808080" begin="arrowLeft.mouseover" end="arrowLeft.mouseout"/>
                  </use>
                  <path fill="none" stroke="white" stroke-width="1.5" d="M0,-3.0v7 M-2.5,-0.5L0,-3.0L2.5,-0.5"/>
                </g>
        </g>
        <svg viewBox="0 0 15 15" width="100%" height="30px" preserveAspectRatio="xMaxYMin meet">
         <g id="arrow_out" transform="scale(0.3 0.3)">
          <a xlink:href="submenus_8h__dep__incl_org.svg" target="_base">
           <rect id="button" ry="5" rx="5" y="6" x="6" height="38" width="38"
                fill="#f2f5e9" fill-opacity="0.5" stroke="#606060" stroke-width="1.0"/>
           <path id="arrow"
             d="M 11.500037,31.436501 C 11.940474,20.09759 22.043105,11.32322 32.158766,21.979434 L 37.068811,17.246167 C 37.068811,17.246167 37.088388,32 37.088388,32 L 22.160133,31.978069 C 22.160133,31.978069 26.997745,27.140456 26.997745,27.140456 C 18.528582,18.264221 13.291696,25.230495 11.500037,31.436501 z"
             style="fill:#404040;"/>
          </a>
         </g>
        </svg>
</svg>
