<?xml version="1.0" encoding="UTF-8" standalone="no"?>
<!DOCTYPE svg PUBLIC "-//W3C//DTD SVG 1.1//EN"
 "http://www.w3.org/Graphics/SVG/1.1/DTD/svg11.dtd">
<!-- Generated by graphviz version 7.1.0 (0)
 -->
<!-- Title: opengl/win/submenus.h Pages: 1 -->
<!--zoomable 82 -->

<svg id="main" version="1.1" xmlns="http://www.w3.org/2000/svg" xmlns:xlink="http://www.w3.org/1999/xlink" xml:space="preserve" onload="init(evt)">
<style type="text/css"><![CDATA[
.node, .edge {opacity: 0.7;}
.node.selected, .edge.selected {opacity: 1;}
.edge:hover path { stroke: red; }
.edge:hover polygon { stroke: red; fill: red; }
]]></style>

<defs>
  <circle id="rim" cx="0" cy="0" r="7"/>
  <circle id="rim2" cx="0" cy="0" r="3.5"/>
  <g id="zoomPlus">
    <use xlink:href="#rim" fill="#404040"><set attributeName="fill" to="#808080" begin="zoomplus.mouseover" end="zoomplus.mouseout"/></use>
    <path d="M-4,0h8M0,-4v8" fill="none" stroke="white" stroke-width="1.5" pointer-events="none"/>
  </g>
  <g id="zoomMin">
    <use xlink:href="#rim" fill="#404040"><set attributeName="fill" to="#808080" begin="zoomminus.mouseover" end="zoomminus.mouseout"/></use>
    <path d="M-4,0h8" fill="none" stroke="white" stroke-width="1.5" pointer-events="none"/>
  </g>
  <g id="arrowUp" transform="translate(30 24)">
    <use xlink:href="#rim"/>
    <path pointer-events="none" fill="none" stroke="white" stroke-width="1.5" d="M0,-3.0v7 M-2.5,-0.5L0,-3.0L2.5,-0.5"/>
  </g>
  <g id="arrowRight" transform="rotate(90) translate(36 -43)">
    <use xlink:href="#rim"/>
    <path pointer-events="none" fill="none" stroke="white" stroke-width="1.5" d="M0,-3.0v7 M-2.5,-0.5L0,-3.0L2.5,-0.5"/>
  </g>
  <g id="arrowDown" transform="rotate(180) translate(-30 -48)">
    <use xlink:href="#rim"/>
    <path pointer-events="none" fill="none" stroke="white" stroke-width="1.5" d="M0,-3.0v7 M-2.5,-0.5L0,-3.0L2.5,-0.5"/>
  </g>
  <g id="arrowLeft" transform="rotate(270) translate(-36 17)">
    <use xlink:href="#rim"/>
    <path pointer-events="none" fill="none" stroke="white" stroke-width="1.5" d="M0,-3.0v7 M-2.5,-0.5L0,-3.0L2.5,-0.5"/>
  </g>
  <g id="resetDef">
    <use xlink:href="#rim2" fill="#404040"><set attributeName="fill" to="#808080" begin="reset.mouseover" end="reset.mouseout"/></use>
  </g>
</defs>
<script type="application/ecmascript">
var viewWidth = 1220;
var viewHeight = 82;
var sectionId = 'dynsection-0';
</script>
<script type="application/ecmascript" xlink:href="../../svg.min.js"/>
<svg id="graph" class="graph">
<g id="viewport">
<title>opengl/win/submenus.h</title>
<!-- Node1 -->
<g id="Node000001" class="node">
<title>Node1</title>
<g id="a_Node000001"><a xlink:title="Function declarations for the creation of the OpenGL window menus.">
<polygon fill="#999999" stroke="#666666" points="660.5,-74 541.5,-74 541.5,-55 660.5,-55 660.5,-74"/>
<text text-anchor="middle" x="601" y="-62" font-family="Helvetica,sans-Serif" font-size="10.00">opengl/win/submenus.h</text>
</a>
</g>
</g>
<!-- Node2 -->
<g id="Node000002" class="node">
<title>Node2</title>
<g id="a_Node000002"><a xlink:href="../../d2/d01/chainscall_8c.html" target="_top" xlink:title="Callbacks for the chains statistics calculation dialog.">
<polygon fill="white" stroke="#666666" points="84,-19 0,-19 0,0 84,0 84,-19"/>
<text text-anchor="middle" x="42" y="-7" font-family="Helvetica,sans-Serif" font-size="10.00">gui/chainscall.c</text>
</a>
</g>
</g>
<!-- Node1&#45;&gt;Node2 -->
<g id="edge1_Node000001_Node000002" class="edge">
<title>Node1&#45;&gt;Node2</title>
<g id="a_edge1_Node000001_Node000002"><a xlink:title=" ">
<path fill="none" stroke="#63b8ff" d="M529.72,-59.01C431.28,-52.41 248.24,-38.71 93,-19 90.15,-18.64 87.22,-18.23 84.26,-17.8"/>
<polygon fill="#63b8ff" stroke="#63b8ff" points="529.29,-62.49 539.5,-59.66 529.76,-55.51 529.29,-62.49"/>
</a>
</g>
</g>
<!-- Node3 -->
<g id="Node000003" class="node">
<title>Node3</title>
<g id="a_Node000003"><a xlink:href="../../d7/dc8/glwindow_8c.html" target="_top" xlink:title="Functions to create a project OpenGL window.">
<polygon fill="white" stroke="#666666" points="216,-19 102,-19 102,0 216,0 216,-19"/>
<text text-anchor="middle" x="159" y="-7" font-family="Helvetica,sans-Serif" font-size="10.00">opengl/win/glwindow.c</text>
</a>
</g>
</g>
<!-- Node1&#45;&gt;Node3 -->
<g id="edge2_Node000001_Node000003" class="edge">
<title>Node1&#45;&gt;Node3</title>
<g id="a_edge2_Node000001_Node000003"><a xlink:title=" ">
<path fill="none" stroke="#63b8ff" d="M529.8,-55.29C454.17,-46.53 331.11,-32.11 225,-19 222.13,-18.65 219.2,-18.28 216.23,-17.91"/>
<polygon fill="#63b8ff" stroke="#63b8ff" points="529.23,-58.75 539.56,-56.42 530.03,-51.8 529.23,-58.75"/>
</a>
</g>
</g>
<!-- Node4 -->
<g id="Node000004" class="node">
<title>Node4</title>
<g id="a_Node000004"><a xlink:href="../../d5/dc1/m__axis_8c.html" target="_top" xlink:title="Functions to create the &#39;View &#45;&gt; Axis&#39; submenu.">
<polygon fill="white" stroke="#666666" points="340,-19 234,-19 234,0 340,0 340,-19"/>
<text text-anchor="middle" x="287" y="-7" font-family="Helvetica,sans-Serif" font-size="10.00">opengl/win/m_axis.c</text>
</a>
</g>
</g>
<!-- Node1&#45;&gt;Node4 -->
<g id="edge3_Node000001_Node000004" class="edge">
<title>Node1&#45;&gt;Node4</title>
<g id="a_edge3_Node000001_Node000004"><a xlink:title=" ">
<path fill="none" stroke="#63b8ff" d="M536.51,-52.61C478.56,-42.83 394.48,-28.64 340.26,-19.49"/>
<polygon fill="#63b8ff" stroke="#63b8ff" points="535.8,-56.04 546.24,-54.26 536.96,-49.14 535.8,-56.04"/>
</a>
</g>
</g>
<!-- Node5 -->
<g id="Node000005" class="node">
<title>Node5</title>
<g id="a_Node000005"><a xlink:href="../../d6/d35/m__box_8c.html" target="_top" xlink:title="Functions to create the &#39;Model &#45;&gt; Box&#39; submenu.">
<polygon fill="white" stroke="#666666" points="462,-19 358,-19 358,0 462,0 462,-19"/>
<text text-anchor="middle" x="410" y="-7" font-family="Helvetica,sans-Serif" font-size="10.00">opengl/win/m_box.c</text>
</a>
</g>
</g>
<!-- Node1&#45;&gt;Node5 -->
<g id="edge4_Node000001_Node000005" class="edge">
<title>Node1&#45;&gt;Node5</title>
<g id="a_edge4_Node000001_Node000005"><a xlink:title=" ">
<path fill="none" stroke="#63b8ff" d="M557.72,-51.49C522.64,-41.76 473.97,-28.25 442.24,-19.45"/>
<polygon fill="#63b8ff" stroke="#63b8ff" points="556.57,-54.8 567.14,-54.1 558.44,-48.06 556.57,-54.8"/>
</a>
</g>
</g>
<!-- Node6 -->
<g id="Node000006" class="node">
<title>Node6</title>
<g id="a_Node000006"><a xlink:href="../../db/dab/m__clones_8c.html" target="_top" xlink:title="Functions to create the &#39;Model &#45;&gt; Clone(s)&#39; submenu.">
<polygon fill="white" stroke="#666666" points="596,-19 480,-19 480,0 596,0 596,-19"/>
<text text-anchor="middle" x="538" y="-7" font-family="Helvetica,sans-Serif" font-size="10.00">opengl/win/m_clones.c</text>
</a>
</g>
</g>
<!-- Node1&#45;&gt;Node6 -->
<g id="edge5_Node000001_Node000006" class="edge">
<title>Node1&#45;&gt;Node6</title>
<g id="a_edge5_Node000001_Node000006"><a xlink:title=" ">
<path fill="none" stroke="#63b8ff" d="M581.82,-47.37C570.88,-38.16 557.59,-26.98 548.53,-19.36"/>
<polygon fill="#63b8ff" stroke="#63b8ff" points="579.25,-49.78 589.15,-53.53 583.76,-44.42 579.25,-49.78"/>
</a>
</g>
</g>
<!-- Node7 -->
<g id="Node000007" class="node">
<title>Node7</title>
<g id="a_Node000007"><a xlink:href="../../da/d98/m__rep_8c.html" target="_top" xlink:title="Functions to create the &#39;View &#45;&gt; Representation&#39; submenu.">
<polygon fill="white" stroke="#666666" points="715.5,-19 614.5,-19 614.5,0 715.5,0 715.5,-19"/>
<text text-anchor="middle" x="665" y="-7" font-family="Helvetica,sans-Serif" font-size="10.00">opengl/win/m_rep.c</text>
</a>
</g>
</g>
<!-- Node1&#45;&gt;Node7 -->
<g id="edge6_Node000001_Node000007" class="edge">
<title>Node1&#45;&gt;Node7</title>
<g id="a_edge6_Node000001_Node000007"><a xlink:title=" ">
<path fill="none" stroke="#63b8ff" d="M620.48,-47.37C631.6,-38.16 645.1,-26.98 654.3,-19.36"/>
<polygon fill="#63b8ff" stroke="#63b8ff" points="618.49,-44.47 613.02,-53.54 622.96,-49.86 618.49,-44.47"/>
</a>
</g>
</g>
<!-- Node8 -->
<g id="Node000008" class="node">
<title>Node8</title>
<g id="a_Node000008"><a xlink:href="../../d3/d51/m__tools_8c.html" target="_top" xlink:title="Functions to create the &#39;Tools&#39; submenu.">
<polygon fill="white" stroke="#666666" points="842.5,-19 733.5,-19 733.5,0 842.5,0 842.5,-19"/>
<text text-anchor="middle" x="788" y="-7" font-family="Helvetica,sans-Serif" font-size="10.00">opengl/win/m_tools.c</text>
</a>
</g>
</g>
<!-- Node1&#45;&gt;Node8 -->
<g id="edge7_Node000001_Node000008" class="edge">
<title>Node1&#45;&gt;Node8</title>
<g id="a_edge7_Node000001_Node000008"><a xlink:title=" ">
<path fill="none" stroke="#63b8ff" d="M643.37,-51.49C677.72,-41.76 725.37,-28.25 756.43,-19.45"/>
<polygon fill="#63b8ff" stroke="#63b8ff" points="642.84,-48 634.18,-54.1 644.75,-54.74 642.84,-48"/>
</a>
</g>
</g>
<!-- Node9 -->
<g id="Node000009" class="node">
<title>Node9</title>
<g id="a_Node000009"><a xlink:href="../../d5/dbe/menu__bar_8c.html" target="_top" xlink:title="Functions to create the menu bar of the OpenGL window &#160;&#160;Functions to create the menu items for the me...">
<polygon fill="white" stroke="#666666" points="977.5,-19 860.5,-19 860.5,0 977.5,0 977.5,-19"/>
<text text-anchor="middle" x="919" y="-7" font-family="Helvetica,sans-Serif" font-size="10.00">opengl/win/menu_bar.c</text>
</a>
</g>
</g>
<!-- Node1&#45;&gt;Node9 -->
<g id="edge8_Node000001_Node000009" class="edge">
<title>Node1&#45;&gt;Node9</title>
<g id="a_edge8_Node000001_Node000009"><a xlink:title=" ">
<path fill="none" stroke="#63b8ff" d="M665.95,-52.68C724.64,-42.89 810.04,-28.66 865.06,-19.49"/>
<polygon fill="#63b8ff" stroke="#63b8ff" points="665.73,-49.16 656.44,-54.26 666.88,-56.07 665.73,-49.16"/>
</a>
</g>
</g>
<!-- Node10 -->
<g id="Node000010" class="node">
<title>Node10</title>
<g id="a_Node000010"><a xlink:href="../../d5/da4/popup_8c.html" target="_top" xlink:title="Functions to create the OpenGL window popup menus:">
<polygon fill="white" stroke="#666666" points="1096.5,-19 995.5,-19 995.5,0 1096.5,0 1096.5,-19"/>
<text text-anchor="middle" x="1046" y="-7" font-family="Helvetica,sans-Serif" font-size="10.00">opengl/win/popup.c</text>
</a>
</g>
</g>
<!-- Node1&#45;&gt;Node10 -->
<g id="edge9_Node000001_Node000010" class="edge">
<title>Node1&#45;&gt;Node10</title>
<g id="a_edge9_Node000001_Node000010"><a xlink:title=" ">
<path fill="none" stroke="#63b8ff" d="M671.97,-55.93C749.46,-47.52 877.17,-33.24 987,-19 989.67,-18.65 992.4,-18.29 995.16,-17.92"/>
<polygon fill="#63b8ff" stroke="#63b8ff" points="671.98,-52.41 662.41,-56.96 672.73,-59.37 671.98,-52.41"/>
</a>
</g>
</g>
<!-- Node11 -->
<g id="Node000011" class="node">
<title>Node11</title>
<g id="a_Node000011"><a xlink:href="../../d4/db6/read__mol_8c.html" target="_top" xlink:title="Functions to read molecule(s) data in the atomes project file format.">
<polygon fill="white" stroke="#666666" points="1211.5,-19 1114.5,-19 1114.5,0 1211.5,0 1211.5,-19"/>
<text text-anchor="middle" x="1163" y="-7" font-family="Helvetica,sans-Serif" font-size="10.00">project/read_mol.c</text>
</a>
</g>
</g>
<!-- Node1&#45;&gt;Node11 -->
<g id="edge10_Node000001_Node000011" class="edge">
<title>Node1&#45;&gt;Node11</title>
<g id="a_edge10_Node000001_Node000011"><a xlink:title=" ">
<path fill="none" stroke="#63b8ff" d="M672.21,-58.58C770.11,-51.51 951.73,-37.28 1106,-19 1108.68,-18.68 1111.43,-18.34 1114.21,-17.97"/>
<polygon fill="#63b8ff" stroke="#63b8ff" points="672.21,-55.07 662.49,-59.28 672.71,-62.05 672.21,-55.07"/>
</a>
</g>
</g>
</g>
</svg>

<g id="navigator" transform="translate(0 0)" fill="#404254">
  <rect fill="#f2f5e9" fill-opacity="0.5" stroke="#606060" stroke-width=".5" x="0" y="0" width="60" height="60"/>
  <use id="zoomplus" xlink:href="#zoomPlus" x="17" y="9" onmousedown="handleZoom(evt,'in')"/>
  <use id="zoomminus" xlink:href="#zoomMin" x="42" y="9" onmousedown="handleZoom(evt,'out')"/>
  <use id="reset" xlink:href="#resetDef" x="30" y="36" onmousedown="handleReset()"/>
   <use id="arrowup" xlink:href="#arrowUp" x="0" y="0" onmousedown="handlePan(0,-1)"/>
  <use id="arrowright" xlink:href="#arrowRight" x="0" y="0" onmousedown="handlePan(1,0)"/>
  <use id="arrowdown" xlink:href="#arrowDown" x="0" y="0" onmousedown="handlePan(0,1)"/>
  <use id="arrowleft" xlink:href="#arrowLeft" x="0" y="0" onmousedown="handlePan(-1,0)"/>
</g>
<svg viewBox="0 0 15 15" width="100%" height="30px" preserveAspectRatio="xMaxYMin meet">
 <g id="arrow_out" transform="scale(0.3 0.3)">
  <a xlink:href="submenus_8h__dep__incl_org.svg" target="_base">
   <rect id="button" ry="5" rx="5" y="6" x="6" height="38" width="38"
        fill="#f2f5e9" fill-opacity="0.5" stroke="#606060" stroke-width="1.0"/>
   <path id="arrow"
     d="M 11.500037,31.436501 C 11.940474,20.09759 22.043105,11.32322 32.158766,21.979434 L 37.068811,17.246167 C 37.068811,17.246167 37.088388,32 37.088388,32 L 22.160133,31.978069 C 22.160133,31.978069 26.997745,27.140456 26.997745,27.140456 C 18.528582,18.264221 13.291696,25.230495 11.500037,31.436501 z"
     style="fill:#404040;"/>
  </a>
 </g>
</svg>

<style type='text/css'>
<![CDATA[
[data-mouse-over-selected='false'] { opacity: 0.7; }
[data-mouse-over-selected='true']  { opacity: 1.0; }
]]>
</style>
<script type="application/ecmascript"><![CDATA[
document.addEventListener('DOMContentLoaded', (event) => {
  highlightEdges();
  highlightAdjacentNodes();
});
]]></script>
</svg>
