<?xml version="1.0" encoding="UTF-8" standalone="no"?>
<!DOCTYPE svg PUBLIC "-//W3C//DTD SVG 1.1//EN"
 "http://www.w3.org/Graphics/SVG/1.1/DTD/svg11.dtd">
<!-- Generated by graphviz version 2.43.0 (0)
 -->
<!-- Title: /home/slookeur/files/codeblocks&#45;files/atomes/src/opengl/win/submenus.h Pages: 1 -->
<svg width="1584pt" height="126pt"
 viewBox="0.00 0.00 1584.00 126.00" xmlns="http://www.w3.org/2000/svg" xmlns:xlink="http://www.w3.org/1999/xlink">
<g id="graph0" class="graph" transform="scale(1 1) rotate(0) translate(4 122)">
<title>/home/slookeur/files/codeblocks&#45;files/atomes/src/opengl/win/submenus.h</title>
<!-- Node1 -->
<g id="Node000001" class="node">
<title>Node1</title>
<g id="a_Node000001"><a xlink:title="Function declarations for the creation of the OpenGL window menus.">
<polygon fill="#999999" stroke="#666666" points="864,-118 712,-118 712,-77 864,-77 864,-118"/>
<text text-anchor="start" x="720" y="-106" font-family="Helvetica,sans-Serif" font-size="10.00">/home/slookeur/files</text>
<text text-anchor="start" x="720" y="-95" font-family="Helvetica,sans-Serif" font-size="10.00">/codeblocks&#45;files/atomes</text>
<text text-anchor="middle" x="788" y="-84" font-family="Helvetica,sans-Serif" font-size="10.00">/src/opengl/win/submenus.h</text>
</a>
</g>
</g>
<!-- Node2 -->
<g id="Node000002" class="node">
<title>Node2</title>
<g id="a_Node000002"><a xlink:href="../../d2/d01/chainscall_8c.html" target="_top" xlink:title="Callbacks for the chains statistics calculation dialog.">
<polygon fill="white" stroke="#666666" points="138,-41 0,-41 0,0 138,0 138,-41"/>
<text text-anchor="start" x="8" y="-29" font-family="Helvetica,sans-Serif" font-size="10.00">/home/slookeur/files</text>
<text text-anchor="start" x="8" y="-18" font-family="Helvetica,sans-Serif" font-size="10.00">/codeblocks&#45;files/atomes</text>
<text text-anchor="middle" x="69" y="-7" font-family="Helvetica,sans-Serif" font-size="10.00">/src/gui/chainscall.c</text>
</a>
</g>
</g>
<!-- Node1&#45;&gt;Node2 -->
<g id="edge1_Node000001_Node000002" class="edge">
<title>Node1&#45;&gt;Node2</title>
<g id="a_edge1_Node000001_Node000002"><a xlink:title=" ">
<path fill="none" stroke="#63b8ff" d="M701.36,-93.36C577.66,-87.89 343.64,-73.88 147,-41 144.11,-40.52 141.17,-39.98 138.2,-39.41"/>
<polygon fill="#63b8ff" stroke="#63b8ff" points="701.39,-96.86 711.53,-93.8 701.69,-89.87 701.39,-96.86"/>
</a>
</g>
</g>
<!-- Node3 -->
<g id="Node000003" class="node">
<title>Node3</title>
<g id="a_Node000003"><a xlink:href="../../d7/dc8/glwindow_8c.html" target="_top" xlink:title="Functions to create a project OpenGL window.">
<polygon fill="white" stroke="#666666" points="303.5,-41 156.5,-41 156.5,0 303.5,0 303.5,-41"/>
<text text-anchor="start" x="164.5" y="-29" font-family="Helvetica,sans-Serif" font-size="10.00">/home/slookeur/files</text>
<text text-anchor="start" x="164.5" y="-18" font-family="Helvetica,sans-Serif" font-size="10.00">/codeblocks&#45;files/atomes</text>
<text text-anchor="middle" x="230" y="-7" font-family="Helvetica,sans-Serif" font-size="10.00">/src/opengl/win/glwindow.c</text>
</a>
</g>
</g>
<!-- Node1&#45;&gt;Node3 -->
<g id="edge2_Node000001_Node000003" class="edge">
<title>Node1&#45;&gt;Node3</title>
<g id="a_edge2_Node000001_Node000003"><a xlink:title=" ">
<path fill="none" stroke="#63b8ff" d="M701.74,-89.41C606.23,-80.87 447.93,-64.65 313,-41 309.94,-40.46 306.82,-39.88 303.68,-39.27"/>
<polygon fill="#63b8ff" stroke="#63b8ff" points="701.66,-92.92 711.93,-90.32 702.27,-85.95 701.66,-92.92"/>
</a>
</g>
</g>
<!-- Node4 -->
<g id="Node000004" class="node">
<title>Node4</title>
<g id="a_Node000004"><a xlink:href="../../d5/dc1/m__axis_8c.html" target="_top" xlink:title="Functions to create the &#39;View &#45;&gt; Axis&#39; submenu.">
<polygon fill="white" stroke="#666666" points="460,-41 322,-41 322,0 460,0 460,-41"/>
<text text-anchor="start" x="330" y="-29" font-family="Helvetica,sans-Serif" font-size="10.00">/home/slookeur/files</text>
<text text-anchor="start" x="330" y="-18" font-family="Helvetica,sans-Serif" font-size="10.00">/codeblocks&#45;files/atomes</text>
<text text-anchor="middle" x="391" y="-7" font-family="Helvetica,sans-Serif" font-size="10.00">/src/opengl/win/m_axis.c</text>
</a>
</g>
</g>
<!-- Node1&#45;&gt;Node4 -->
<g id="edge3_Node000001_Node000004" class="edge">
<title>Node1&#45;&gt;Node4</title>
<g id="a_edge3_Node000001_Node000004"><a xlink:title=" ">
<path fill="none" stroke="#63b8ff" d="M701.86,-83.25C637.48,-72.93 547.43,-57.6 469,-41 466.13,-40.39 463.21,-39.75 460.26,-39.09"/>
<polygon fill="#63b8ff" stroke="#63b8ff" points="701.54,-86.75 711.97,-84.87 702.65,-79.84 701.54,-86.75"/>
</a>
</g>
</g>
<!-- Node5 -->
<g id="Node000005" class="node">
<title>Node5</title>
<g id="a_Node000005"><a xlink:href="../../d6/d35/m__box_8c.html" target="_top" xlink:title="Functions to create the &#39;Model &#45;&gt; Box&#39; submenu.">
<polygon fill="white" stroke="#666666" points="616,-41 478,-41 478,0 616,0 616,-41"/>
<text text-anchor="start" x="486" y="-29" font-family="Helvetica,sans-Serif" font-size="10.00">/home/slookeur/files</text>
<text text-anchor="start" x="486" y="-18" font-family="Helvetica,sans-Serif" font-size="10.00">/codeblocks&#45;files/atomes</text>
<text text-anchor="middle" x="547" y="-7" font-family="Helvetica,sans-Serif" font-size="10.00">/src/opengl/win/m_box.c</text>
</a>
</g>
</g>
<!-- Node1&#45;&gt;Node5 -->
<g id="edge4_Node000001_Node000005" class="edge">
<title>Node1&#45;&gt;Node5</title>
<g id="a_edge4_Node000001_Node000005"><a xlink:title=" ">
<path fill="none" stroke="#63b8ff" d="M715.52,-73.94C681.84,-63.46 642.18,-51.12 609.8,-41.04"/>
<polygon fill="#63b8ff" stroke="#63b8ff" points="714.72,-77.36 725.31,-76.99 716.8,-70.68 714.72,-77.36"/>
</a>
</g>
</g>
<!-- Node6 -->
<g id="Node000006" class="node">
<title>Node6</title>
<g id="a_Node000006"><a xlink:href="../../db/dab/m__clones_8c.html" target="_top" xlink:title="Functions to create the &#39;Model &#45;&gt; Clone(s)&#39; submenu.">
<polygon fill="white" stroke="#666666" points="782,-41 634,-41 634,0 782,0 782,-41"/>
<text text-anchor="start" x="642" y="-29" font-family="Helvetica,sans-Serif" font-size="10.00">/home/slookeur/files</text>
<text text-anchor="start" x="642" y="-18" font-family="Helvetica,sans-Serif" font-size="10.00">/codeblocks&#45;files/atomes</text>
<text text-anchor="middle" x="708" y="-7" font-family="Helvetica,sans-Serif" font-size="10.00">/src/opengl/win/m_clones.c</text>
</a>
</g>
</g>
<!-- Node1&#45;&gt;Node6 -->
<g id="edge5_Node000001_Node000006" class="edge">
<title>Node1&#45;&gt;Node6</title>
<g id="a_edge5_Node000001_Node000006"><a xlink:title=" ">
<path fill="none" stroke="#63b8ff" d="M759.51,-69.79C749.41,-60.32 738.23,-49.84 728.88,-41.07"/>
<polygon fill="#63b8ff" stroke="#63b8ff" points="757.29,-72.51 766.98,-76.79 762.08,-67.4 757.29,-72.51"/>
</a>
</g>
</g>
<!-- Node7 -->
<g id="Node000007" class="node">
<title>Node7</title>
<g id="a_Node000007"><a xlink:href="../../da/d98/m__rep_8c.html" target="_top" xlink:title="Functions to create the &#39;View &#45;&gt; Representation&#39; submenu.">
<polygon fill="white" stroke="#666666" points="938,-41 800,-41 800,0 938,0 938,-41"/>
<text text-anchor="start" x="808" y="-29" font-family="Helvetica,sans-Serif" font-size="10.00">/home/slookeur/files</text>
<text text-anchor="start" x="808" y="-18" font-family="Helvetica,sans-Serif" font-size="10.00">/codeblocks&#45;files/atomes</text>
<text text-anchor="middle" x="869" y="-7" font-family="Helvetica,sans-Serif" font-size="10.00">/src/opengl/win/m_rep.c</text>
</a>
</g>
</g>
<!-- Node1&#45;&gt;Node7 -->
<g id="edge6_Node000001_Node000007" class="edge">
<title>Node1&#45;&gt;Node7</title>
<g id="a_edge6_Node000001_Node000007"><a xlink:title=" ">
<path fill="none" stroke="#63b8ff" d="M816.85,-69.79C827.08,-60.32 838.39,-49.84 847.86,-41.07"/>
<polygon fill="#63b8ff" stroke="#63b8ff" points="814.24,-67.43 809.28,-76.79 819,-72.57 814.24,-67.43"/>
</a>
</g>
</g>
<!-- Node8 -->
<g id="Node000008" class="node">
<title>Node8</title>
<g id="a_Node000008"><a xlink:href="../../d3/d51/m__tools_8c.html" target="_top" xlink:title="Functions to create the &#39;Tools&#39; submenu.">
<polygon fill="white" stroke="#666666" points="1096,-41 956,-41 956,0 1096,0 1096,-41"/>
<text text-anchor="start" x="964" y="-29" font-family="Helvetica,sans-Serif" font-size="10.00">/home/slookeur/files</text>
<text text-anchor="start" x="964" y="-18" font-family="Helvetica,sans-Serif" font-size="10.00">/codeblocks&#45;files/atomes</text>
<text text-anchor="middle" x="1026" y="-7" font-family="Helvetica,sans-Serif" font-size="10.00">/src/opengl/win/m_tools.c</text>
</a>
</g>
</g>
<!-- Node1&#45;&gt;Node8 -->
<g id="edge7_Node000001_Node000008" class="edge">
<title>Node1&#45;&gt;Node8</title>
<g id="a_edge7_Node000001_Node000008"><a xlink:title=" ">
<path fill="none" stroke="#63b8ff" d="M859.57,-73.94C892.84,-63.46 932.01,-51.12 963.99,-41.04"/>
<polygon fill="#63b8ff" stroke="#63b8ff" points="858.4,-70.65 849.91,-76.99 860.5,-77.32 858.4,-70.65"/>
</a>
</g>
</g>
<!-- Node9 -->
<g id="Node000009" class="node">
<title>Node9</title>
<g id="a_Node000009"><a xlink:href="../../d5/dbe/menu__bar_8c.html" target="_top" xlink:title="Functions to create the menu bar of the OpenGL window &#160;&#160;Functions to create the menu items for the me...">
<polygon fill="white" stroke="#666666" points="1263.5,-41 1114.5,-41 1114.5,0 1263.5,0 1263.5,-41"/>
<text text-anchor="start" x="1122.5" y="-29" font-family="Helvetica,sans-Serif" font-size="10.00">/home/slookeur/files</text>
<text text-anchor="start" x="1122.5" y="-18" font-family="Helvetica,sans-Serif" font-size="10.00">/codeblocks&#45;files/atomes</text>
<text text-anchor="middle" x="1189" y="-7" font-family="Helvetica,sans-Serif" font-size="10.00">/src/opengl/win/menu_bar.c</text>
</a>
</g>
</g>
<!-- Node1&#45;&gt;Node9 -->
<g id="edge8_Node000001_Node000009" class="edge">
<title>Node1&#45;&gt;Node9</title>
<g id="a_edge8_Node000001_Node000009"><a xlink:title=" ">
<path fill="none" stroke="#63b8ff" d="M874.15,-82.73C938.04,-72.19 1027.18,-56.83 1105,-41 1108.08,-40.37 1111.22,-39.72 1114.39,-39.04"/>
<polygon fill="#63b8ff" stroke="#63b8ff" points="873.42,-79.3 864.12,-84.38 874.56,-86.21 873.42,-79.3"/>
</a>
</g>
</g>
<!-- Node10 -->
<g id="Node000010" class="node">
<title>Node10</title>
<g id="a_Node000010"><a xlink:href="../../d5/da4/popup_8c.html" target="_top" xlink:title="Functions to create the OpenGL window popup menus:">
<polygon fill="white" stroke="#666666" points="1420,-41 1282,-41 1282,0 1420,0 1420,-41"/>
<text text-anchor="start" x="1290" y="-29" font-family="Helvetica,sans-Serif" font-size="10.00">/home/slookeur/files</text>
<text text-anchor="start" x="1290" y="-18" font-family="Helvetica,sans-Serif" font-size="10.00">/codeblocks&#45;files/atomes</text>
<text text-anchor="middle" x="1351" y="-7" font-family="Helvetica,sans-Serif" font-size="10.00">/src/opengl/win/popup.c</text>
</a>
</g>
</g>
<!-- Node1&#45;&gt;Node10 -->
<g id="edge9_Node000001_Node000010" class="edge">
<title>Node1&#45;&gt;Node10</title>
<g id="a_edge9_Node000001_Node000010"><a xlink:title=" ">
<path fill="none" stroke="#63b8ff" d="M874.14,-90.07C971.5,-82.02 1134.47,-66.13 1273,-41 1275.88,-40.48 1278.82,-39.91 1281.78,-39.31"/>
<polygon fill="#63b8ff" stroke="#63b8ff" points="873.74,-86.59 864.06,-90.9 874.31,-93.57 873.74,-86.59"/>
</a>
</g>
</g>
<!-- Node11 -->
<g id="Node000011" class="node">
<title>Node11</title>
<g id="a_Node000011"><a xlink:href="../../d4/db6/read__mol_8c.html" target="_top" xlink:title="Functions to read molecule(s) data in the atomes project file format.">
<polygon fill="white" stroke="#666666" points="1576,-41 1438,-41 1438,0 1576,0 1576,-41"/>
<text text-anchor="start" x="1446" y="-29" font-family="Helvetica,sans-Serif" font-size="10.00">/home/slookeur/files</text>
<text text-anchor="start" x="1446" y="-18" font-family="Helvetica,sans-Serif" font-size="10.00">/codeblocks&#45;files/atomes</text>
<text text-anchor="middle" x="1507" y="-7" font-family="Helvetica,sans-Serif" font-size="10.00">/src/project/read_mol.c</text>
</a>
</g>
</g>
<!-- Node1&#45;&gt;Node11 -->
<g id="edge10_Node000001_Node000011" class="edge">
<title>Node1&#45;&gt;Node11</title>
<g id="a_edge10_Node000001_Node000011"><a xlink:title=" ">
<path fill="none" stroke="#63b8ff" d="M874.64,-93.36C998.34,-87.89 1232.36,-73.88 1429,-41 1431.89,-40.52 1434.83,-39.98 1437.8,-39.41"/>
<polygon fill="#63b8ff" stroke="#63b8ff" points="874.31,-89.87 864.47,-93.8 874.61,-96.86 874.31,-89.87"/>
</a>
</g>
</g>
</g>
</svg>
