<?xml version="1.0" encoding="UTF-8" standalone="no"?>
<!DOCTYPE svg PUBLIC "-//W3C//DTD SVG 1.1//EN"
 "http://www.w3.org/Graphics/SVG/1.1/DTD/svg11.dtd">
<!-- Generated by graphviz version 9.0.0 (20230911.1827)
 -->
<!-- Title: opengl/win/submenus.h Pages: 1 -->
<svg width="1212pt" height="84pt"
 viewBox="0.00 0.00 1211.88 84.00" xmlns="http://www.w3.org/2000/svg" xmlns:xlink="http://www.w3.org/1999/xlink">
<g id="graph0" class="graph" transform="scale(1 1) rotate(0) translate(4 80)">
<title>opengl/win/submenus.h</title>
<!-- Node1 -->
<g id="Node000001" class="node">
<title>Node1</title>
<g id="a_Node000001"><a xlink:title="Function declarations for the creation of the OpenGL window menus.">
<polygon fill="#999999" stroke="#666666" points="657.12,-76 538.38,-76 538.38,-56 657.12,-56 657.12,-76"/>
<text text-anchor="middle" x="597.75" y="-62.5" font-family="Helvetica,sans-Serif" font-size="10.00">opengl/win/submenus.h</text>
</a>
</g>
</g>
<!-- Node2 -->
<g id="Node000002" class="node">
<title>Node2</title>
<g id="a_Node000002"><a xlink:href="../../d2/d01/chainscall_8c.html" target="_top" xlink:title="Callbacks for the chains statistics calculation dialog.">
<polygon fill="white" stroke="#666666" points="83.5,-20 0,-20 0,0 83.5,0 83.5,-20"/>
<text text-anchor="middle" x="41.75" y="-6.5" font-family="Helvetica,sans-Serif" font-size="10.00">gui/chainscall.c</text>
</a>
</g>
</g>
<!-- Node1&#45;&gt;Node2 -->
<g id="edge1_Node000001_Node000002" class="edge">
<title>Node1&#45;&gt;Node2</title>
<g id="a_edge1_Node000001_Node000002"><a xlink:title=" ">
<path fill="none" stroke="#63b8ff" d="M526.87,-60.61C428.97,-54.11 246.98,-40.44 92.75,-20 89.81,-19.61 86.78,-19.17 83.73,-18.7"/>
<polygon fill="#63b8ff" stroke="#63b8ff" points="526.38,-64.08 536.59,-61.25 526.84,-57.1 526.38,-64.08"/>
</a>
</g>
</g>
<!-- Node3 -->
<g id="Node000003" class="node">
<title>Node3</title>
<g id="a_Node000003"><a xlink:href="../../d7/dc8/glwindow_8c.html" target="_top" xlink:title="Functions to create a project OpenGL window.">
<polygon fill="white" stroke="#666666" points="215.5,-20 102,-20 102,0 215.5,0 215.5,-20"/>
<text text-anchor="middle" x="158.75" y="-6.5" font-family="Helvetica,sans-Serif" font-size="10.00">opengl/win/glwindow.c</text>
</a>
</g>
</g>
<!-- Node1&#45;&gt;Node3 -->
<g id="edge2_Node000001_Node000003" class="edge">
<title>Node1&#45;&gt;Node3</title>
<g id="a_edge2_Node000001_Node000003"><a xlink:title=" ">
<path fill="none" stroke="#63b8ff" d="M526.91,-56.86C451.66,-48.12 329.24,-33.65 223.75,-20 221.15,-19.66 218.5,-19.32 215.81,-18.96"/>
<polygon fill="#63b8ff" stroke="#63b8ff" points="526.28,-60.31 536.61,-57.98 527.08,-53.35 526.28,-60.31"/>
</a>
</g>
</g>
<!-- Node4 -->
<g id="Node000004" class="node">
<title>Node4</title>
<g id="a_Node000004"><a xlink:href="../../d5/dc1/m__axis_8c.html" target="_top" xlink:title="Functions to create the &#39;View &#45;&gt; Axis&#39; submenu.">
<polygon fill="white" stroke="#666666" points="338.38,-20 233.12,-20 233.12,0 338.38,0 338.38,-20"/>
<text text-anchor="middle" x="285.75" y="-6.5" font-family="Helvetica,sans-Serif" font-size="10.00">opengl/win/m_axis.c</text>
</a>
</g>
</g>
<!-- Node1&#45;&gt;Node4 -->
<g id="edge3_Node000001_Node000004" class="edge">
<title>Node1&#45;&gt;Node4</title>
<g id="a_edge3_Node000001_Node000004"><a xlink:title=" ">
<path fill="none" stroke="#63b8ff" d="M531.9,-53.6C474.45,-43.66 392.15,-29.42 338.83,-20.19"/>
<polygon fill="#63b8ff" stroke="#63b8ff" points="531.1,-57.02 541.56,-55.27 532.3,-50.12 531.1,-57.02"/>
</a>
</g>
</g>
<!-- Node5 -->
<g id="Node000005" class="node">
<title>Node5</title>
<g id="a_Node000005"><a xlink:href="../../d6/d35/m__box_8c.html" target="_top" xlink:title="Functions to create the &#39;Model &#45;&gt; Box&#39; submenu.">
<polygon fill="white" stroke="#666666" points="459.25,-20 356.25,-20 356.25,0 459.25,0 459.25,-20"/>
<text text-anchor="middle" x="407.75" y="-6.5" font-family="Helvetica,sans-Serif" font-size="10.00">opengl/win/m_box.c</text>
</a>
</g>
</g>
<!-- Node1&#45;&gt;Node5 -->
<g id="edge4_Node000001_Node000005" class="edge">
<title>Node1&#45;&gt;Node5</title>
<g id="a_edge4_Node000001_Node000005"><a xlink:title=" ">
<path fill="none" stroke="#63b8ff" d="M553.98,-52.56C519.61,-42.79 472.47,-29.39 441.1,-20.48"/>
<polygon fill="#63b8ff" stroke="#63b8ff" points="552.62,-55.81 563.2,-55.18 554.54,-49.08 552.62,-55.81"/>
</a>
</g>
</g>
<!-- Node6 -->
<g id="Node000006" class="node">
<title>Node6</title>
<g id="a_Node000006"><a xlink:href="../../db/dab/m__clones_8c.html" target="_top" xlink:title="Functions to create the &#39;Model &#45;&gt; Clone(s)&#39; submenu.">
<polygon fill="white" stroke="#666666" points="592.62,-20 476.88,-20 476.88,0 592.62,0 592.62,-20"/>
<text text-anchor="middle" x="534.75" y="-6.5" font-family="Helvetica,sans-Serif" font-size="10.00">opengl/win/m_clones.c</text>
</a>
</g>
</g>
<!-- Node1&#45;&gt;Node6 -->
<g id="edge5_Node000001_Node000006" class="edge">
<title>Node1&#45;&gt;Node6</title>
<g id="a_edge5_Node000001_Node000006"><a xlink:title=" ">
<path fill="none" stroke="#63b8ff" d="M578.06,-48.13C567.35,-38.94 554.5,-27.93 545.6,-20.3"/>
<polygon fill="#63b8ff" stroke="#63b8ff" points="575.76,-50.76 585.63,-54.61 580.31,-45.44 575.76,-50.76"/>
</a>
</g>
</g>
<!-- Node7 -->
<g id="Node000007" class="node">
<title>Node7</title>
<g id="a_Node000007"><a xlink:href="../../da/d98/m__rep_8c.html" target="_top" xlink:title="Functions to create the &#39;View &#45;&gt; Representation&#39; submenu.">
<polygon fill="white" stroke="#666666" points="711.12,-20 610.38,-20 610.38,0 711.12,0 711.12,-20"/>
<text text-anchor="middle" x="660.75" y="-6.5" font-family="Helvetica,sans-Serif" font-size="10.00">opengl/win/m_rep.c</text>
</a>
</g>
</g>
<!-- Node1&#45;&gt;Node7 -->
<g id="edge6_Node000001_Node000007" class="edge">
<title>Node1&#45;&gt;Node7</title>
<g id="a_edge6_Node000001_Node000007"><a xlink:title=" ">
<path fill="none" stroke="#63b8ff" d="M617.44,-48.13C628.15,-38.94 641,-27.93 649.9,-20.3"/>
<polygon fill="#63b8ff" stroke="#63b8ff" points="615.19,-45.44 609.87,-54.61 619.74,-50.76 615.19,-45.44"/>
</a>
</g>
</g>
<!-- Node8 -->
<g id="Node000008" class="node">
<title>Node8</title>
<g id="a_Node000008"><a xlink:href="../../d3/d51/m__tools_8c.html" target="_top" xlink:title="Functions to create the &#39;Tools&#39; submenu.">
<polygon fill="white" stroke="#666666" points="837.88,-20 729.62,-20 729.62,0 837.88,0 837.88,-20"/>
<text text-anchor="middle" x="783.75" y="-6.5" font-family="Helvetica,sans-Serif" font-size="10.00">opengl/win/m_tools.c</text>
</a>
</g>
</g>
<!-- Node1&#45;&gt;Node8 -->
<g id="edge7_Node000001_Node000008" class="edge">
<title>Node1&#45;&gt;Node8</title>
<g id="a_edge7_Node000001_Node000008"><a xlink:title=" ">
<path fill="none" stroke="#63b8ff" d="M641.04,-52.43C674.65,-42.67 720.53,-29.35 751.1,-20.48"/>
<polygon fill="#63b8ff" stroke="#63b8ff" points="640.23,-49.02 631.6,-55.17 642.18,-55.74 640.23,-49.02"/>
</a>
</g>
</g>
<!-- Node9 -->
<g id="Node000009" class="node">
<title>Node9</title>
<g id="a_Node000009"><a xlink:href="../../d5/dbe/menu__bar_8c.html" target="_top" xlink:title="Functions to create the menu bar of the OpenGL window &#160;&#160;Functions to create the menu items for the me...">
<polygon fill="white" stroke="#666666" points="972,-20 855.5,-20 855.5,0 972,0 972,-20"/>
<text text-anchor="middle" x="913.75" y="-6.5" font-family="Helvetica,sans-Serif" font-size="10.00">opengl/win/menu_bar.c</text>
</a>
</g>
</g>
<!-- Node1&#45;&gt;Node9 -->
<g id="edge8_Node000001_Node000009" class="edge">
<title>Node1&#45;&gt;Node9</title>
<g id="a_edge8_Node000001_Node000009"><a xlink:title=" ">
<path fill="none" stroke="#63b8ff" d="M664.34,-53.62C721.97,-43.77 804.33,-29.7 858.41,-20.46"/>
<polygon fill="#63b8ff" stroke="#63b8ff" points="663.91,-50.14 654.65,-55.28 665.09,-57.04 663.91,-50.14"/>
</a>
</g>
</g>
<!-- Node10 -->
<g id="Node000010" class="node">
<title>Node10</title>
<g id="a_Node000010"><a xlink:href="../../d5/da4/popup_8c.html" target="_top" xlink:title="Functions to create the OpenGL window popup menus:">
<polygon fill="white" stroke="#666666" points="1089.75,-20 989.75,-20 989.75,0 1089.75,0 1089.75,-20"/>
<text text-anchor="middle" x="1039.75" y="-6.5" font-family="Helvetica,sans-Serif" font-size="10.00">opengl/win/popup.c</text>
</a>
</g>
</g>
<!-- Node1&#45;&gt;Node10 -->
<g id="edge9_Node000001_Node000010" class="edge">
<title>Node1&#45;&gt;Node10</title>
<g id="a_edge9_Node000001_Node000010"><a xlink:title=" ">
<path fill="none" stroke="#63b8ff" d="M668.52,-57.42C745.45,-49.01 871.98,-34.68 980.75,-20 983.63,-19.61 986.58,-19.2 989.55,-18.78"/>
<polygon fill="#63b8ff" stroke="#63b8ff" points="668.6,-53.89 659.04,-58.46 669.36,-60.85 668.6,-53.89"/>
</a>
</g>
</g>
<!-- Node11 -->
<g id="Node000011" class="node">
<title>Node11</title>
<g id="a_Node000011"><a xlink:href="../../d4/db6/read__mol_8c.html" target="_top" xlink:title="Functions to read molecule(s) data in the atomes project file format.">
<polygon fill="white" stroke="#666666" points="1203.88,-20 1107.62,-20 1107.62,0 1203.88,0 1203.88,-20"/>
<text text-anchor="middle" x="1155.75" y="-6.5" font-family="Helvetica,sans-Serif" font-size="10.00">project/read_mol.c</text>
</a>
</g>
</g>
<!-- Node1&#45;&gt;Node11 -->
<g id="edge10_Node000001_Node000011" class="edge">
<title>Node1&#45;&gt;Node11</title>
<g id="a_edge10_Node000001_Node000011"><a xlink:title=" ">
<path fill="none" stroke="#63b8ff" d="M668.71,-60.13C765.94,-53.12 945.93,-38.91 1098.75,-20 1101.53,-19.66 1104.39,-19.28 1107.27,-18.88"/>
<polygon fill="#63b8ff" stroke="#63b8ff" points="668.5,-56.64 658.78,-60.84 669.01,-63.62 668.5,-56.64"/>
</a>
</g>
</g>
</g>
</svg>
