<?xml version="1.0" encoding="UTF-8" standalone="no"?>
<!DOCTYPE svg PUBLIC "-//W3C//DTD SVG 1.1//EN"
 "http://www.w3.org/Graphics/SVG/1.1/DTD/svg11.dtd">
<!-- Generated by graphviz version 9.0.0 (20230911.1827)
 -->
<!-- Title: opengl/selection.c Pages: 1 -->
<svg width="1619pt" height="252pt"
 viewBox="0.00 0.00 1618.62 252.00" xmlns="http://www.w3.org/2000/svg" xmlns:xlink="http://www.w3.org/1999/xlink">
<g id="graph0" class="graph" transform="scale(1 1) rotate(0) translate(4 248)">
<title>opengl/selection.c</title>
<!-- Node1 -->
<g id="Node000001" class="node">
<title>Node1</title>
<g id="a_Node000001"><a xlink:title="Functions handling the atom and bond selection process in the OpenGL window.">
<polygon fill="#999999" stroke="#666666" points="846,-244 751.25,-244 751.25,-224 846,-224 846,-244"/>
<text text-anchor="middle" x="798.62" y="-230.5" font-family="Helvetica,sans-Serif" font-size="10.00">opengl/selection.c</text>
</a>
</g>
</g>
<!-- Node2 -->
<g id="Node000002" class="node">
<title>Node2</title>
<g id="a_Node000002"><a xlink:href="../../d2/d49/global_8h.html" target="_top" xlink:title="Global variable declarations &#160;&#160;Global convenience function declarations &#160;&#160;Global data structure defin...">
<polygon fill="white" stroke="#666666" points="703.5,-132 653.75,-132 653.75,-112 703.5,-112 703.5,-132"/>
<text text-anchor="middle" x="678.62" y="-118.5" font-family="Helvetica,sans-Serif" font-size="10.00">global.h</text>
</a>
</g>
</g>
<!-- Node1&#45;&gt;Node2 -->
<g id="edge1_Node000001_Node000002" class="edge">
<title>Node1&#45;&gt;Node2</title>
<g id="a_edge1_Node000001_Node000002"><a xlink:title=" ">
<path fill="none" stroke="#63b8ff" d="M788.39,-223.62C768.2,-205.11 722.97,-163.65 697.31,-140.13"/>
<polygon fill="#63b8ff" stroke="#63b8ff" points="699.68,-137.55 689.95,-133.38 694.95,-142.71 699.68,-137.55"/>
</a>
</g>
</g>
<!-- Node25 -->
<g id="Node000025" class="node">
<title>Node25</title>
<g id="a_Node000025"><a xlink:href="../../d4/da9/interface_8h.html" target="_top" xlink:title="Messaging function declarations.">
<polygon fill="white" stroke="#666666" points="783.5,-132 721.75,-132 721.75,-112 783.5,-112 783.5,-132"/>
<text text-anchor="middle" x="752.62" y="-118.5" font-family="Helvetica,sans-Serif" font-size="10.00">interface.h</text>
</a>
</g>
</g>
<!-- Node1&#45;&gt;Node25 -->
<g id="edge26_Node000001_Node000025" class="edge">
<title>Node1&#45;&gt;Node25</title>
<g id="a_edge26_Node000001_Node000025"><a xlink:title=" ">
<path fill="none" stroke="#63b8ff" d="M794.7,-223.62C787.23,-205.76 770.83,-166.53 760.85,-142.67"/>
<polygon fill="#63b8ff" stroke="#63b8ff" points="764.21,-141.63 757.12,-133.75 757.75,-144.33 764.21,-141.63"/>
</a>
</g>
</g>
<!-- Node26 -->
<g id="Node000026" class="node">
<title>Node26</title>
<g id="a_Node000026"><a xlink:href="../../dc/de3/glview_8h.html" target="_top" xlink:title="Variable declarations related to the OpenGL window &#160;&#160;Function declarations related to the OpenGL wind...">
<polygon fill="white" stroke="#666666" points="853.25,-132 802,-132 802,-112 853.25,-112 853.25,-132"/>
<text text-anchor="middle" x="827.62" y="-118.5" font-family="Helvetica,sans-Serif" font-size="10.00">glview.h</text>
</a>
</g>
</g>
<!-- Node1&#45;&gt;Node26 -->
<g id="edge27_Node000001_Node000026" class="edge">
<title>Node1&#45;&gt;Node26</title>
<g id="a_edge27_Node000001_Node000026"><a xlink:title=" ">
<path fill="none" stroke="#63b8ff" d="M801.1,-223.62C805.76,-205.92 815.96,-167.24 822.27,-143.32"/>
<polygon fill="#63b8ff" stroke="#63b8ff" points="825.61,-144.38 824.77,-133.82 818.84,-142.6 825.61,-144.38"/>
</a>
</g>
</g>
<!-- Node27 -->
<g id="Node000027" class="node">
<title>Node27</title>
<g id="a_Node000027"><a xlink:href="../../d5/d9c/atom__edit_8h.html" target="_top" xlink:title="Function declarations for the mode edition window.">
<polygon fill="white" stroke="#666666" points="975.12,-188 908.12,-188 908.12,-168 975.12,-168 975.12,-188"/>
<text text-anchor="middle" x="941.62" y="-174.5" font-family="Helvetica,sans-Serif" font-size="10.00">atom_edit.h</text>
</a>
</g>
</g>
<!-- Node1&#45;&gt;Node27 -->
<g id="edge28_Node000001_Node000027" class="edge">
<title>Node1&#45;&gt;Node27</title>
<g id="a_edge28_Node000001_Node000027"><a xlink:title=" ">
<path fill="none" stroke="#63b8ff" d="M823.53,-223.59C846.36,-214.97 880.41,-202.12 906.09,-192.42"/>
<polygon fill="#63b8ff" stroke="#63b8ff" points="906.99,-195.82 915.11,-189.01 904.51,-189.27 906.99,-195.82"/>
</a>
</g>
</g>
<!-- Node3 -->
<g id="Node000003" class="node">
<title>Node3</title>
<g id="a_Node000003"><a xlink:title=" ">
<polygon fill="#e0e0e0" stroke="#999999" points="39.25,-76 0,-76 0,-56 39.25,-56 39.25,-76"/>
<text text-anchor="middle" x="19.62" y="-62.5" font-family="Helvetica,sans-Serif" font-size="10.00">glib.h</text>
</a>
</g>
</g>
<!-- Node2&#45;&gt;Node3 -->
<g id="edge2_Node000002_Node000003" class="edge">
<title>Node2&#45;&gt;Node3</title>
<g id="a_edge2_Node000002_Node000003"><a xlink:title=" ">
<path fill="none" stroke="#63b8ff" d="M653.39,-121.36C568.96,-122.1 288.67,-120.94 50.95,-76.24"/>
<polygon fill="#63b8ff" stroke="#63b8ff" points="51.63,-72.8 41.15,-74.36 50.31,-79.68 51.63,-72.8"/>
</a>
</g>
</g>
<!-- Node4 -->
<g id="Node000004" class="node">
<title>Node4</title>
<g id="a_Node000004"><a xlink:title=" ">
<polygon fill="#e0e0e0" stroke="#999999" points="122.38,-76 56.88,-76 56.88,-56 122.38,-56 122.38,-76"/>
<text text-anchor="middle" x="89.62" y="-62.5" font-family="Helvetica,sans-Serif" font-size="10.00">glib/gi18n.h</text>
</a>
</g>
</g>
<!-- Node2&#45;&gt;Node4 -->
<g id="edge3_Node000002_Node000004" class="edge">
<title>Node2&#45;&gt;Node4</title>
<g id="a_edge3_Node000002_Node000004"><a xlink:title=" ">
<path fill="none" stroke="#63b8ff" d="M653.41,-120.08C576.86,-117.06 340.23,-105.92 133.92,-76.14"/>
<polygon fill="#63b8ff" stroke="#63b8ff" points="134.47,-72.68 124.06,-74.7 133.45,-79.61 134.47,-72.68"/>
</a>
</g>
</g>
<!-- Node5 -->
<g id="Node000005" class="node">
<title>Node5</title>
<g id="a_Node000005"><a xlink:title=" ">
<polygon fill="#e0e0e0" stroke="#999999" points="190.5,-76 140.75,-76 140.75,-56 190.5,-56 190.5,-76"/>
<text text-anchor="middle" x="165.62" y="-62.5" font-family="Helvetica,sans-Serif" font-size="10.00">locale.h</text>
</a>
</g>
</g>
<!-- Node2&#45;&gt;Node5 -->
<g id="edge4_Node000002_Node000005" class="edge">
<title>Node2&#45;&gt;Node5</title>
<g id="a_edge4_Node000002_Node000005"><a xlink:title=" ">
<path fill="none" stroke="#63b8ff" d="M653.5,-120.1C583.46,-117.29 380.07,-107.04 201.93,-76.12"/>
<polygon fill="#63b8ff" stroke="#63b8ff" points="202.72,-72.71 192.26,-74.41 201.5,-79.6 202.72,-72.71"/>
</a>
</g>
</g>
<!-- Node6 -->
<g id="Node000006" class="node">
<title>Node6</title>
<g id="a_Node000006"><a xlink:title=" ">
<polygon fill="#e0e0e0" stroke="#999999" points="258.88,-76 208.38,-76 208.38,-56 258.88,-56 258.88,-76"/>
<text text-anchor="middle" x="233.62" y="-62.5" font-family="Helvetica,sans-Serif" font-size="10.00">unistd.h</text>
</a>
</g>
</g>
<!-- Node2&#45;&gt;Node6 -->
<g id="edge5_Node000002_Node000006" class="edge">
<title>Node2&#45;&gt;Node6</title>
<g id="a_edge5_Node000002_Node000006"><a xlink:title=" ">
<path fill="none" stroke="#63b8ff" d="M653.41,-119.56C590.4,-115.68 420.85,-103.52 270.41,-76.27"/>
<polygon fill="#63b8ff" stroke="#63b8ff" points="271.11,-72.84 260.64,-74.47 269.84,-79.72 271.11,-72.84"/>
</a>
</g>
</g>
<!-- Node7 -->
<g id="Node000007" class="node">
<title>Node7</title>
<g id="a_Node000007"><a xlink:title=" ">
<polygon fill="#e0e0e0" stroke="#999999" points="324.75,-76 276.5,-76 276.5,-56 324.75,-56 324.75,-76"/>
<text text-anchor="middle" x="300.62" y="-62.5" font-family="Helvetica,sans-Serif" font-size="10.00">string.h</text>
</a>
</g>
</g>
<!-- Node2&#45;&gt;Node7 -->
<g id="edge6_Node000002_Node000007" class="edge">
<title>Node2&#45;&gt;Node7</title>
<g id="a_edge6_Node000002_Node000007"><a xlink:title=" ">
<path fill="none" stroke="#63b8ff" d="M653.32,-118.53C596.68,-112.82 455.45,-97.51 338.62,-76 337.8,-75.85 336.97,-75.69 336.13,-75.53"/>
<polygon fill="#63b8ff" stroke="#63b8ff" points="337.07,-72.15 326.56,-73.49 335.61,-79 337.07,-72.15"/>
</a>
</g>
</g>
<!-- Node8 -->
<g id="Node000008" class="node">
<title>Node8</title>
<g id="a_Node000008"><a xlink:title=" ">
<polygon fill="#e0e0e0" stroke="#999999" points="389.25,-20 344,-20 344,0 389.25,0 389.25,-20"/>
<text text-anchor="middle" x="366.62" y="-6.5" font-family="Helvetica,sans-Serif" font-size="10.00">stdio.h</text>
</a>
</g>
</g>
<!-- Node2&#45;&gt;Node8 -->
<g id="edge7_Node000002_Node000008" class="edge">
<title>Node2&#45;&gt;Node8</title>
<g id="a_edge7_Node000002_Node000008"><a xlink:title=" ">
<path fill="none" stroke="#63b8ff" d="M653.37,-121.16C586.91,-121.02 409.67,-116.76 371.62,-76 360.75,-64.35 360.33,-45.86 362.14,-31.57"/>
<polygon fill="#63b8ff" stroke="#63b8ff" points="365.57,-32.33 363.85,-21.87 358.67,-31.11 365.57,-32.33"/>
</a>
</g>
</g>
<!-- Node9 -->
<g id="Node000009" class="node">
<title>Node9</title>
<g id="a_Node000009"><a xlink:title=" ">
<polygon fill="#e0e0e0" stroke="#999999" points="546.38,-76 498.88,-76 498.88,-56 546.38,-56 546.38,-76"/>
<text text-anchor="middle" x="522.62" y="-62.5" font-family="Helvetica,sans-Serif" font-size="10.00">stdlib.h</text>
</a>
</g>
</g>
<!-- Node2&#45;&gt;Node9 -->
<g id="edge8_Node000002_Node000009" class="edge">
<title>Node2&#45;&gt;Node9</title>
<g id="a_edge8_Node000002_Node000009"><a xlink:title=" ">
<path fill="none" stroke="#63b8ff" d="M653.56,-112.32C627.52,-103.31 586.57,-89.13 557.4,-79.04"/>
<polygon fill="#63b8ff" stroke="#63b8ff" points="558.88,-75.85 548.29,-75.88 556.59,-82.46 558.88,-75.85"/>
</a>
</g>
</g>
<!-- Node10 -->
<g id="Node000010" class="node">
<title>Node10</title>
<g id="a_Node000010"><a xlink:title=" ">
<polygon fill="#e0e0e0" stroke="#999999" points="631.12,-76 564.12,-76 564.12,-56 631.12,-56 631.12,-76"/>
<text text-anchor="middle" x="597.62" y="-62.5" font-family="Helvetica,sans-Serif" font-size="10.00">sys/types.h</text>
</a>
</g>
</g>
<!-- Node2&#45;&gt;Node10 -->
<g id="edge9_Node000002_Node000010" class="edge">
<title>Node2&#45;&gt;Node10</title>
<g id="a_edge9_Node000002_Node000010"><a xlink:title=" ">
<path fill="none" stroke="#63b8ff" d="M664.52,-111.59C652.63,-103.67 635.36,-92.16 621.35,-82.82"/>
<polygon fill="#63b8ff" stroke="#63b8ff" points="623.37,-79.95 613.1,-77.32 619.48,-85.78 623.37,-79.95"/>
</a>
</g>
</g>
<!-- Node11 -->
<g id="Node000011" class="node">
<title>Node11</title>
<g id="a_Node000011"><a xlink:title=" ">
<polygon fill="#e0e0e0" stroke="#999999" points="708.38,-76 648.88,-76 648.88,-56 708.38,-56 708.38,-76"/>
<text text-anchor="middle" x="678.62" y="-62.5" font-family="Helvetica,sans-Serif" font-size="10.00">sys/stat.h</text>
</a>
</g>
</g>
<!-- Node2&#45;&gt;Node11 -->
<g id="edge10_Node000002_Node000011" class="edge">
<title>Node2&#45;&gt;Node11</title>
<g id="a_edge10_Node000002_Node000011"><a xlink:title=" ">
<path fill="none" stroke="#63b8ff" d="M678.62,-111.59C678.62,-105.01 678.62,-95.96 678.62,-87.73"/>
<polygon fill="#63b8ff" stroke="#63b8ff" points="682.13,-87.81 678.63,-77.81 675.13,-87.81 682.13,-87.81"/>
</a>
</g>
</g>
<!-- Node12 -->
<g id="Node000012" class="node">
<title>Node12</title>
<g id="a_Node000012"><a xlink:title=" ">
<polygon fill="#e0e0e0" stroke="#999999" points="466.62,-20 420.62,-20 420.62,0 466.62,0 466.62,-20"/>
<text text-anchor="middle" x="443.62" y="-6.5" font-family="Helvetica,sans-Serif" font-size="10.00">math.h</text>
</a>
</g>
</g>
<!-- Node2&#45;&gt;Node12 -->
<g id="edge11_Node000002_Node000012" class="edge">
<title>Node2&#45;&gt;Node12</title>
<g id="a_edge11_Node000002_Node000012"><a xlink:title=" ">
<path fill="none" stroke="#63b8ff" d="M653.44,-120.53C614.96,-118.66 540.63,-110.47 489.62,-76 472.83,-64.65 460.18,-44.98 452.44,-30.24"/>
<polygon fill="#63b8ff" stroke="#63b8ff" points="455.71,-28.95 448.16,-21.51 449.42,-32.03 455.71,-28.95"/>
</a>
</g>
</g>
<!-- Node13 -->
<g id="Node000013" class="node">
<title>Node13</title>
<g id="a_Node000013"><a xlink:title=" ">
<polygon fill="#e0e0e0" stroke="#999999" points="780.75,-76 726.5,-76 726.5,-56 780.75,-56 780.75,-76"/>
<text text-anchor="middle" x="753.62" y="-62.5" font-family="Helvetica,sans-Serif" font-size="10.00">gtk/gtk.h</text>
</a>
</g>
</g>
<!-- Node2&#45;&gt;Node13 -->
<g id="edge12_Node000002_Node000013" class="edge">
<title>Node2&#45;&gt;Node13</title>
<g id="a_edge12_Node000002_Node000013"><a xlink:title=" ">
<path fill="none" stroke="#63b8ff" d="M691.69,-111.59C702.59,-103.74 718.38,-92.38 731.28,-83.09"/>
<polygon fill="#63b8ff" stroke="#63b8ff" points="733.16,-86.05 739.23,-77.36 729.07,-80.37 733.16,-86.05"/>
</a>
</g>
</g>
<!-- Node14 -->
<g id="Node000014" class="node">
<title>Node14</title>
<g id="a_Node000014"><a xlink:title=" ">
<polygon fill="#e0e0e0" stroke="#999999" points="858.38,-76 798.88,-76 798.88,-56 858.38,-56 858.38,-76"/>
<text text-anchor="middle" x="828.62" y="-62.5" font-family="Helvetica,sans-Serif" font-size="10.00">gtk/gtkx.h</text>
</a>
</g>
</g>
<!-- Node2&#45;&gt;Node14 -->
<g id="edge13_Node000002_Node000014" class="edge">
<title>Node2&#45;&gt;Node14</title>
<g id="a_edge13_Node000002_Node000014"><a xlink:title=" ">
<path fill="none" stroke="#63b8ff" d="M703.73,-111.96C727.77,-103.31 764.34,-90.14 791.7,-80.29"/>
<polygon fill="#63b8ff" stroke="#63b8ff" points="792.78,-83.62 801,-76.94 790.41,-77.04 792.78,-83.62"/>
</a>
</g>
</g>
<!-- Node15 -->
<g id="Node000015" class="node">
<title>Node15</title>
<g id="a_Node000015"><a xlink:title=" ">
<polygon fill="#e0e0e0" stroke="#999999" points="935,-76 876.25,-76 876.25,-56 935,-56 935,-76"/>
<text text-anchor="middle" x="905.62" y="-62.5" font-family="Helvetica,sans-Serif" font-size="10.00">gdk/gdk.h</text>
</a>
</g>
</g>
<!-- Node2&#45;&gt;Node15 -->
<g id="edge14_Node000002_Node000015" class="edge">
<title>Node2&#45;&gt;Node15</title>
<g id="a_edge14_Node000002_Node000015"><a xlink:title=" ">
<path fill="none" stroke="#63b8ff" d="M703.85,-114.23C706.81,-113.46 709.78,-112.71 712.62,-112 777.91,-95.78 796.94,-92.46 864.89,-76.63"/>
<polygon fill="#63b8ff" stroke="#63b8ff" points="865.34,-80.12 874.28,-74.43 863.75,-73.3 865.34,-80.12"/>
</a>
</g>
</g>
<!-- Node16 -->
<g id="Node000016" class="node">
<title>Node16</title>
<g id="a_Node000016"><a xlink:title=" ">
<polygon fill="#e0e0e0" stroke="#999999" points="1051.88,-76 953.38,-76 953.38,-56 1051.88,-56 1051.88,-76"/>
<text text-anchor="middle" x="1002.62" y="-62.5" font-family="Helvetica,sans-Serif" font-size="10.00">gdk/gdkkeysyms.h</text>
</a>
</g>
</g>
<!-- Node2&#45;&gt;Node16 -->
<g id="edge15_Node000002_Node000016" class="edge">
<title>Node2&#45;&gt;Node16</title>
<g id="a_edge15_Node000002_Node000016"><a xlink:title=" ">
<path fill="none" stroke="#63b8ff" d="M703.81,-114.02C706.77,-113.29 709.76,-112.6 712.62,-112 718.21,-110.83 858.26,-89.22 941.65,-76.38"/>
<polygon fill="#63b8ff" stroke="#63b8ff" points="942.18,-79.84 951.53,-74.86 941.11,-72.92 942.18,-79.84"/>
</a>
</g>
</g>
<!-- Node17 -->
<g id="Node000017" class="node">
<title>Node17</title>
<g id="a_Node000017"><a xlink:title=" ">
<polygon fill="#e0e0e0" stroke="#999999" points="1187.25,-76 1070,-76 1070,-56 1187.25,-56 1187.25,-76"/>
<text text-anchor="middle" x="1128.62" y="-62.5" font-family="Helvetica,sans-Serif" font-size="10.00">gdk&#45;pixbuf/gdk&#45;pixbuf.h</text>
</a>
</g>
</g>
<!-- Node2&#45;&gt;Node17 -->
<g id="edge16_Node000002_Node000017" class="edge">
<title>Node2&#45;&gt;Node17</title>
<g id="a_edge16_Node000002_Node000017"><a xlink:title=" ">
<path fill="none" stroke="#63b8ff" d="M703.78,-113.88C706.74,-113.17 709.74,-112.53 712.62,-112 861.99,-84.68 904.24,-93.75 1058.37,-76.22"/>
<polygon fill="#63b8ff" stroke="#63b8ff" points="1058.63,-79.71 1068.16,-75.08 1057.83,-72.76 1058.63,-79.71"/>
</a>
</g>
</g>
<!-- Node18 -->
<g id="Node000018" class="node">
<title>Node18</title>
<g id="a_Node000018"><a xlink:title=" ">
<polygon fill="#e0e0e0" stroke="#999999" points="1296.12,-76 1205.12,-76 1205.12,-56 1296.12,-56 1296.12,-76"/>
<text text-anchor="middle" x="1250.62" y="-62.5" font-family="Helvetica,sans-Serif" font-size="10.00">pango/pangoft2.h</text>
</a>
</g>
</g>
<!-- Node2&#45;&gt;Node18 -->
<g id="edge17_Node000002_Node000018" class="edge">
<title>Node2&#45;&gt;Node18</title>
<g id="a_edge17_Node000002_Node000018"><a xlink:title=" ">
<path fill="none" stroke="#63b8ff" d="M703.76,-113.79C706.73,-113.11 709.73,-112.49 712.62,-112 921.71,-76.86 980.47,-100.9 1193.46,-76.27"/>
<polygon fill="#63b8ff" stroke="#63b8ff" points="1193.69,-79.77 1203.21,-75.12 1192.86,-72.82 1193.69,-79.77"/>
</a>
</g>
</g>
<!-- Node19 -->
<g id="Node000019" class="node">
<title>Node19</title>
<g id="a_Node000019"><a xlink:title=" ">
<polygon fill="#e0e0e0" stroke="#999999" points="1375.12,-76 1314.12,-76 1314.12,-56 1375.12,-56 1375.12,-76"/>
<text text-anchor="middle" x="1344.62" y="-62.5" font-family="Helvetica,sans-Serif" font-size="10.00">epoxy/gl.h</text>
</a>
</g>
</g>
<!-- Node2&#45;&gt;Node19 -->
<g id="edge18_Node000002_Node000019" class="edge">
<title>Node2&#45;&gt;Node19</title>
<g id="a_edge18_Node000002_Node000019"><a xlink:title=" ">
<path fill="none" stroke="#63b8ff" d="M703.76,-113.75C706.73,-113.07 709.73,-112.47 712.62,-112 969.61,-70.61 1042.26,-112.59 1302.31,-76.26"/>
<polygon fill="#63b8ff" stroke="#63b8ff" points="1302.73,-79.73 1312.13,-74.85 1301.74,-72.8 1302.73,-79.73"/>
</a>
</g>
</g>
<!-- Node20 -->
<g id="Node000020" class="node">
<title>Node20</title>
<g id="a_Node000020"><a xlink:title=" ">
<polygon fill="#e0e0e0" stroke="#999999" points="1446,-76 1393.25,-76 1393.25,-56 1446,-56 1446,-76"/>
<text text-anchor="middle" x="1419.62" y="-62.5" font-family="Helvetica,sans-Serif" font-size="10.00">GL/glu.h</text>
</a>
</g>
</g>
<!-- Node2&#45;&gt;Node20 -->
<g id="edge19_Node000002_Node000020" class="edge">
<title>Node2&#45;&gt;Node20</title>
<g id="a_edge19_Node000002_Node000020"><a xlink:title=" ">
<path fill="none" stroke="#63b8ff" d="M703.75,-113.73C706.72,-113.06 709.73,-112.46 712.62,-112 1004.47,-66.05 1087,-120.12 1381.95,-76.11"/>
<polygon fill="#63b8ff" stroke="#63b8ff" points="1382.13,-79.62 1391.49,-74.66 1381.08,-72.7 1382.13,-79.62"/>
</a>
</g>
</g>
<!-- Node21 -->
<g id="Node000021" class="node">
<title>Node21</title>
<g id="a_Node000021"><a xlink:title=" ">
<polygon fill="#e0e0e0" stroke="#999999" points="1530.75,-76 1464.5,-76 1464.5,-56 1530.75,-56 1530.75,-76"/>
<text text-anchor="middle" x="1497.62" y="-62.5" font-family="Helvetica,sans-Serif" font-size="10.00">epoxy/glx.h</text>
</a>
</g>
</g>
<!-- Node2&#45;&gt;Node21 -->
<g id="edge20_Node000002_Node000021" class="edge">
<title>Node2&#45;&gt;Node21</title>
<g id="a_edge20_Node000002_Node000021"><a xlink:title=" ">
<path fill="none" stroke="#63b8ff" d="M703.75,-113.72C706.72,-113.05 709.73,-112.45 712.62,-112 1035.24,-62.04 1125.12,-116.7 1453.11,-75.93"/>
<polygon fill="#63b8ff" stroke="#63b8ff" points="1453.4,-79.42 1462.88,-74.69 1452.52,-72.47 1453.4,-79.42"/>
</a>
</g>
</g>
<!-- Node22 -->
<g id="Node000022" class="node">
<title>Node22</title>
<g id="a_Node000022"><a xlink:href="../../dc/db0/math__3d_8h.html" target="_top" xlink:title="Functions for OpenGL math.">
<polygon fill="white" stroke="#666666" points="442.5,-76 380.75,-76 380.75,-56 442.5,-56 442.5,-76"/>
<text text-anchor="middle" x="411.62" y="-62.5" font-family="Helvetica,sans-Serif" font-size="10.00">math_3d.h</text>
</a>
</g>
</g>
<!-- Node2&#45;&gt;Node22 -->
<g id="edge21_Node000002_Node000022" class="edge">
<title>Node2&#45;&gt;Node22</title>
<g id="a_edge21_Node000002_Node000022"><a xlink:title=" ">
<path fill="none" stroke="#63b8ff" d="M653.51,-115.92C607.72,-106.66 510.23,-86.94 454,-75.57"/>
<polygon fill="#63b8ff" stroke="#63b8ff" points="454.98,-72.2 444.48,-73.65 453.59,-79.06 454.98,-72.2"/>
</a>
</g>
</g>
<!-- Node23 -->
<g id="Node000023" class="node">
<title>Node23</title>
<g id="a_Node000023"><a xlink:href="../../da/d7e/glwin_8h.html" target="_top" xlink:title="Variable declarations related the OpenGL window &#160;&#160;Data structure declarations related the OpenGL wind...">
<polygon fill="white" stroke="#666666" points="1596,-76 1549.25,-76 1549.25,-56 1596,-56 1596,-76"/>
<text text-anchor="middle" x="1572.62" y="-62.5" font-family="Helvetica,sans-Serif" font-size="10.00">glwin.h</text>
</a>
</g>
</g>
<!-- Node2&#45;&gt;Node23 -->
<g id="edge24_Node000002_Node000023" class="edge">
<title>Node2&#45;&gt;Node23</title>
<g id="a_edge24_Node000002_Node000023"><a xlink:title=" ">
<path fill="none" stroke="#63b8ff" d="M703.75,-113.7C706.72,-113.03 709.73,-112.44 712.62,-112 1072.69,-57.16 1174.1,-131.24 1537.85,-75.85"/>
<polygon fill="#63b8ff" stroke="#63b8ff" points="1538.13,-79.35 1547.47,-74.36 1537.06,-72.43 1538.13,-79.35"/>
</a>
</g>
</g>
<!-- Node22&#45;&gt;Node8 -->
<g id="edge23_Node000022_Node000008" class="edge">
<title>Node22&#45;&gt;Node8</title>
<g id="a_edge23_Node000022_Node000008"><a xlink:title=" ">
<path fill="none" stroke="#63b8ff" d="M403.79,-55.59C397.66,-48.24 388.95,-37.8 381.51,-28.87"/>
<polygon fill="#63b8ff" stroke="#63b8ff" points="384.43,-26.9 375.34,-21.46 379.06,-31.38 384.43,-26.9"/>
</a>
</g>
</g>
<!-- Node22&#45;&gt;Node12 -->
<g id="edge22_Node000022_Node000012" class="edge">
<title>Node22&#45;&gt;Node12</title>
<g id="a_edge22_Node000022_Node000012"><a xlink:title=" ">
<path fill="none" stroke="#63b8ff" d="M417.2,-55.59C421.37,-48.55 427.23,-38.67 432.37,-30"/>
<polygon fill="#63b8ff" stroke="#63b8ff" points="435.26,-31.99 437.34,-21.6 429.23,-28.42 435.26,-31.99"/>
</a>
</g>
</g>
<!-- Node24 -->
<g id="Node000024" class="node">
<title>Node24</title>
<g id="a_Node000024"><a xlink:href="../../d5/d9e/ogl__shading_8h.html" target="_top" xlink:title="Variable declarations related to GLSL programs &#160;&#160;Data structure declarations related to GLSL programs...">
<polygon fill="white" stroke="#666666" points="1610.62,-20 1534.62,-20 1534.62,0 1610.62,0 1610.62,-20"/>
<text text-anchor="middle" x="1572.62" y="-6.5" font-family="Helvetica,sans-Serif" font-size="10.00">ogl_shading.h</text>
</a>
</g>
</g>
<!-- Node23&#45;&gt;Node24 -->
<g id="edge25_Node000023_Node000024" class="edge">
<title>Node23&#45;&gt;Node24</title>
<g id="a_edge25_Node000023_Node000024"><a xlink:title=" ">
<path fill="none" stroke="#63b8ff" d="M1572.62,-55.59C1572.62,-49.01 1572.62,-39.96 1572.62,-31.73"/>
<polygon fill="#63b8ff" stroke="#63b8ff" points="1576.13,-31.81 1572.63,-21.81 1569.13,-31.81 1576.13,-31.81"/>
</a>
</g>
</g>
<!-- Node27&#45;&gt;Node2 -->
<g id="edge29_Node000027_Node000002" class="edge">
<title>Node27&#45;&gt;Node2</title>
<g id="a_edge29_Node000027_Node000002"><a xlink:title=" ">
<path fill="none" stroke="#63b8ff" d="M907.72,-171.05C865,-163.39 789.07,-149.27 714.78,-132.38"/>
<polygon fill="#63b8ff" stroke="#63b8ff" points="715.84,-129.03 705.31,-130.21 714.27,-135.85 715.84,-129.03"/>
</a>
</g>
</g>
<!-- Node27&#45;&gt;Node25 -->
<g id="edge32_Node000027_Node000025" class="edge">
<title>Node27&#45;&gt;Node25</title>
<g id="a_edge32_Node000027_Node000025"><a xlink:title=" ">
<path fill="none" stroke="#63b8ff" d="M908.7,-167.59C877.02,-158.54 828.98,-144.82 794.57,-134.98"/>
<polygon fill="#63b8ff" stroke="#63b8ff" points="795.95,-131.74 785.37,-132.36 794.02,-138.47 795.95,-131.74"/>
</a>
</g>
</g>
<!-- Node27&#45;&gt;Node26 -->
<g id="edge34_Node000027_Node000026" class="edge">
<title>Node27&#45;&gt;Node26</title>
<g id="a_edge34_Node000027_Node000026"><a xlink:title=" ">
<path fill="none" stroke="#63b8ff" d="M921.77,-167.59C904.14,-159.24 878.12,-146.92 857.9,-137.34"/>
<polygon fill="#63b8ff" stroke="#63b8ff" points="859.54,-134.25 849.01,-133.13 856.54,-140.57 859.54,-134.25"/>
</a>
</g>
</g>
<!-- Node28 -->
<g id="Node000028" class="node">
<title>Node28</title>
<g id="a_Node000028"><a xlink:href="../../da/dc2/bind_8h.html" target="_top" xlink:title="Binding to the Fortran90 subroutines.">
<polygon fill="white" stroke="#666666" points="1157.75,-132 1115.5,-132 1115.5,-112 1157.75,-112 1157.75,-132"/>
<text text-anchor="middle" x="1136.62" y="-118.5" font-family="Helvetica,sans-Serif" font-size="10.00">bind.h</text>
</a>
</g>
</g>
<!-- Node27&#45;&gt;Node28 -->
<g id="edge30_Node000027_Node000028" class="edge">
<title>Node27&#45;&gt;Node28</title>
<g id="a_edge30_Node000027_Node000028"><a xlink:title=" ">
<path fill="none" stroke="#63b8ff" d="M975.51,-168.03C1006.63,-159.73 1054.3,-146.87 1104.04,-132.69"/>
<polygon fill="#63b8ff" stroke="#63b8ff" points="1104.91,-136.09 1113.56,-129.97 1102.98,-129.36 1104.91,-136.09"/>
</a>
</g>
</g>
<!-- Node29 -->
<g id="Node000029" class="node">
<title>Node29</title>
<g id="a_Node000029"><a xlink:href="../../dd/d49/callbacks_8h.html" target="_top" xlink:title="Callback declarations for main window.">
<polygon fill="white" stroke="#666666" points="1241.38,-132 1175.88,-132 1175.88,-112 1241.38,-112 1241.38,-132"/>
<text text-anchor="middle" x="1208.62" y="-118.5" font-family="Helvetica,sans-Serif" font-size="10.00">callbacks.h</text>
</a>
</g>
</g>
<!-- Node27&#45;&gt;Node29 -->
<g id="edge31_Node000027_Node000029" class="edge">
<title>Node27&#45;&gt;Node29</title>
<g id="a_edge31_Node000027_Node000029"><a xlink:title=" ">
<path fill="none" stroke="#63b8ff" d="M975.58,-170.36C1017.5,-162.13 1091.29,-147.53 1164.37,-132.44"/>
<polygon fill="#63b8ff" stroke="#63b8ff" points="1165.05,-135.88 1174.14,-130.42 1163.64,-129.02 1165.05,-135.88"/>
</a>
</g>
</g>
<!-- Node30 -->
<g id="Node000030" class="node">
<title>Node30</title>
<g id="a_Node000030"><a xlink:href="../../d6/d75/initcoord_8h.html" target="_top" xlink:title="Function declarations to handle the atomic coordination data.">
<polygon fill="white" stroke="#666666" points="1320.12,-132 1259.12,-132 1259.12,-112 1320.12,-112 1320.12,-132"/>
<text text-anchor="middle" x="1289.62" y="-118.5" font-family="Helvetica,sans-Serif" font-size="10.00">initcoord.h</text>
</a>
</g>
</g>
<!-- Node27&#45;&gt;Node30 -->
<g id="edge33_Node000027_Node000030" class="edge">
<title>Node27&#45;&gt;Node30</title>
<g id="a_edge33_Node000027_Node000030"><a xlink:title=" ">
<path fill="none" stroke="#63b8ff" d="M975.61,-172.98C1030.72,-166.26 1143.22,-151.71 1247.93,-132.38"/>
<polygon fill="#63b8ff" stroke="#63b8ff" points="1248.34,-135.87 1257.53,-130.59 1247.06,-128.99 1248.34,-135.87"/>
</a>
</g>
</g>
<!-- Node31 -->
<g id="Node000031" class="node">
<title>Node31</title>
<g id="a_Node000031"><a xlink:href="../../d1/d2a/glwindow_8h.html" target="_top" xlink:title="Function declarations for the creation of the OpenGL window.">
<polygon fill="white" stroke="#666666" points="935.62,-132 871.62,-132 871.62,-112 935.62,-112 935.62,-132"/>
<text text-anchor="middle" x="903.62" y="-118.5" font-family="Helvetica,sans-Serif" font-size="10.00">glwindow.h</text>
</a>
</g>
</g>
<!-- Node27&#45;&gt;Node31 -->
<g id="edge35_Node000027_Node000031" class="edge">
<title>Node27&#45;&gt;Node31</title>
<g id="a_edge35_Node000027_Node000031"><a xlink:title=" ">
<path fill="none" stroke="#63b8ff" d="M935.01,-167.59C929.94,-160.39 922.79,-150.23 916.6,-141.43"/>
<polygon fill="#63b8ff" stroke="#63b8ff" points="919.66,-139.7 911.04,-133.54 913.93,-143.73 919.66,-139.7"/>
</a>
</g>
</g>
<!-- Node32 -->
<g id="Node000032" class="node">
<title>Node32</title>
<g id="a_Node000032"><a xlink:href="../../dc/d8d/project_8h.html" target="_top" xlink:title="Function declarations for reading atomes project file &#160;&#160;Function declarations for saving atomes proje...">
<polygon fill="white" stroke="#666666" points="1007.38,-132 953.88,-132 953.88,-112 1007.38,-112 1007.38,-132"/>
<text text-anchor="middle" x="980.62" y="-118.5" font-family="Helvetica,sans-Serif" font-size="10.00">project.h</text>
</a>
</g>
</g>
<!-- Node27&#45;&gt;Node32 -->
<g id="edge36_Node000027_Node000032" class="edge">
<title>Node27&#45;&gt;Node32</title>
<g id="a_edge36_Node000027_Node000032"><a xlink:title=" ">
<path fill="none" stroke="#63b8ff" d="M948.42,-167.59C953.62,-160.39 960.96,-150.23 967.31,-141.43"/>
<polygon fill="#63b8ff" stroke="#63b8ff" points="970.01,-143.68 973.02,-133.53 964.33,-139.58 970.01,-143.68"/>
</a>
</g>
</g>
<!-- Node33 -->
<g id="Node000033" class="node">
<title>Node33</title>
<g id="a_Node000033"><a xlink:href="../../d4/de6/workspace_8h.html" target="_top" xlink:title="Function declarations for workspace managment.">
<polygon fill="white" stroke="#666666" points="1097.38,-132 1025.88,-132 1025.88,-112 1097.38,-112 1097.38,-132"/>
<text text-anchor="middle" x="1061.62" y="-118.5" font-family="Helvetica,sans-Serif" font-size="10.00">workspace.h</text>
</a>
</g>
</g>
<!-- Node27&#45;&gt;Node33 -->
<g id="edge37_Node000027_Node000033" class="edge">
<title>Node27&#45;&gt;Node33</title>
<g id="a_edge37_Node000027_Node000033"><a xlink:title=" ">
<path fill="none" stroke="#63b8ff" d="M962.53,-167.59C981.25,-159.17 1008.98,-146.69 1030.35,-137.07"/>
<polygon fill="#63b8ff" stroke="#63b8ff" points="1031.5,-140.4 1039.18,-133.1 1028.62,-134.01 1031.5,-140.4"/>
</a>
</g>
</g>
</g>
</svg>
