<?xml version="1.0" encoding="UTF-8" standalone="no"?>
<!DOCTYPE svg PUBLIC "-//W3C//DTD SVG 1.1//EN"
 "http://www.w3.org/Graphics/SVG/1.1/DTD/svg11.dtd">
<!-- Generated by graphviz version 7.1.0 (0)
 -->
<!-- Title: m_tools.c Pages: 1 -->
<!--zoomable 247 -->
<svg id="main" version="1.1" xmlns="http://www.w3.org/2000/svg" xmlns:xlink="http://www.w3.org/1999/xlink" xml:space="preserve" onload="init(evt)">
<style type="text/css"><![CDATA[
.edge:hover path { stroke: red; }
.edge:hover polygon { stroke: red; fill: red; }
]]></style>
<script type="text/javascript"><![CDATA[
var edges = document.getElementsByTagName('g');
if (edges && edges.length) {
  for (var i=0;i<edges.length;i++) {
    if (edges[i].id.substr(0,4)=='edge') {
      edges[i].setAttribute('class','edge');
    }
  }
}
]]></script>
        <defs>
                <circle id="rim" cx="0" cy="0" r="7"/>
                <circle id="rim2" cx="0" cy="0" r="3.5"/>
                <g id="zoomPlus">
                        <use xlink:href="#rim" fill="#404040">
                                <set attributeName="fill" to="#808080" begin="zoomplus.mouseover" end="zoomplus.mouseout"/>
                        </use>
                        <path d="M-4,0h8M0,-4v8" fill="none" stroke="white" stroke-width="1.5" pointer-events="none"/>
                </g>
                <g id="zoomMin">
                        <use xlink:href="#rim" fill="#404040">
                                <set attributeName="fill" to="#808080" begin="zoomminus.mouseover" end="zoomminus.mouseout"/>
                        </use>
                        <path d="M-4,0h8" fill="none" stroke="white" stroke-width="1.5" pointer-events="none"/>
                </g>
                <g id="dirArrow">
                        <path fill="none" stroke="white" stroke-width="1.5" d="M0,-3.0v7 M-2.5,-0.5L0,-3.0L2.5,-0.5"/>
                </g>
               <g id="resetDef">
                       <use xlink:href="#rim2" fill="#404040">
                               <set attributeName="fill" to="#808080" begin="reset.mouseover" end="reset.mouseout"/>
                       </use>
               </g>
        </defs>

<script type="text/javascript">
var viewWidth = 1617;
var viewHeight = 247;
var sectionId = 'dynsection-0';
</script>
<script xlink:href="../../svgpan.js"/>
<svg id="graph" class="graph">
<g id="viewport">
<title>m_tools.c</title>
<!-- Node1 -->
<g id="node1" class="node">
<title>Node1</title>
<g id="a_node1"><a xlink:title=" ">
<polygon fill="#999999" stroke="#666666" points="483.5,-239 424.5,-239 424.5,-220 483.5,-220 483.5,-239"/>
<text text-anchor="middle" x="454" y="-227" font-family="Helvetica,sans-Serif" font-size="10.00">m_tools.c</text>
</a>
</g>
</g>
<!-- Node2 -->
<g id="node2" class="node">
<title>Node2</title>
<g id="a_node2"><a xlink:href="../../d9/d97/cell__edit_8h.html" target="_top" xlink:title=" ">
<polygon fill="white" stroke="#666666" points="401.5,-184 340.5,-184 340.5,-165 401.5,-165 401.5,-184"/>
<text text-anchor="middle" x="371" y="-172" font-family="Helvetica,sans-Serif" font-size="10.00">cell_edit.h</text>
</a>
</g>
</g>
<!-- Node1&#45;&gt;Node2 -->
<g id="edge1" class="edge">
<title>Node1&#45;&gt;Node2</title>
<path fill="none" stroke="#63b8ff" d="M439.92,-219.51C427.44,-211.54 408.98,-199.75 394.31,-190.38"/>
<polygon fill="#63b8ff" stroke="#63b8ff" points="396.46,-187.6 386.15,-185.17 392.69,-193.5 396.46,-187.6"/>
</g>
<!-- Node33 -->
<g id="node33" class="node">
<title>Node33</title>
<g id="a_node33"><a xlink:href="../../d5/d9c/atom__edit_8h.html" target="_top" xlink:title=" ">
<polygon fill="white" stroke="#666666" points="488,-184 420,-184 420,-165 488,-165 488,-184"/>
<text text-anchor="middle" x="454" y="-172" font-family="Helvetica,sans-Serif" font-size="10.00">atom_edit.h</text>
</a>
</g>
</g>
<!-- Node1&#45;&gt;Node33 -->
<g id="edge34" class="edge">
<title>Node1&#45;&gt;Node33</title>
<path fill="none" stroke="#63b8ff" d="M454,-219.75C454,-213.27 454,-204.16 454,-195.9"/>
<polygon fill="#63b8ff" stroke="#63b8ff" points="457.5,-195.96 454,-185.96 450.5,-195.96 457.5,-195.96"/>
</g>
<!-- Node35 -->
<g id="node35" class="node">
<title>Node35</title>
<g id="a_node35"><a xlink:href="../../de/de0/submenus_8h.html" target="_top" xlink:title=" ">
<polygon fill="white" stroke="#666666" points="576,-184 506,-184 506,-165 576,-165 576,-184"/>
<text text-anchor="middle" x="541" y="-172" font-family="Helvetica,sans-Serif" font-size="10.00">submenus.h</text>
</a>
</g>
</g>
<!-- Node1&#45;&gt;Node35 -->
<g id="edge44" class="edge">
<title>Node1&#45;&gt;Node35</title>
<path fill="none" stroke="#63b8ff" d="M468.76,-219.51C481.96,-211.47 501.56,-199.53 517.01,-190.11"/>
<polygon fill="#63b8ff" stroke="#63b8ff" points="518.45,-193.34 525.17,-185.15 514.81,-187.36 518.45,-193.34"/>
</g>
<!-- Node3 -->
<g id="node3" class="node">
<title>Node3</title>
<g id="a_node3"><a xlink:href="../../d2/d49/global_8h.html" target="_top" xlink:title="global variable declarations &#160;&#160;global convenience function declarations &#160;&#160;global data structure defin...">
<polygon fill="white" stroke="#666666" points="710,-129 660,-129 660,-110 710,-110 710,-129"/>
<text text-anchor="middle" x="685" y="-117" font-family="Helvetica,sans-Serif" font-size="10.00">global.h</text>
</a>
</g>
</g>
<!-- Node2&#45;&gt;Node3 -->
<g id="edge2" class="edge">
<title>Node2&#45;&gt;Node3</title>
<path fill="none" stroke="#63b8ff" d="M401.97,-166.73C405.02,-166.12 408.07,-165.53 411,-165 513.61,-146.42 543.27,-149.84 648.68,-129.29"/>
<polygon fill="#63b8ff" stroke="#63b8ff" points="649.2,-132.75 658.33,-127.38 647.84,-125.89 649.2,-132.75"/>
</g>
<!-- Node26 -->
<g id="node26" class="node">
<title>Node26</title>
<g id="a_node26"><a xlink:href="../../da/dc2/bind_8h.html" target="_top" xlink:title="binding to the Fortran90 subroutines">
<polygon fill="white" stroke="#666666" points="161.5,-129 118.5,-129 118.5,-110 161.5,-110 161.5,-129"/>
<text text-anchor="middle" x="140" y="-117" font-family="Helvetica,sans-Serif" font-size="10.00">bind.h</text>
</a>
</g>
</g>
<!-- Node2&#45;&gt;Node26 -->
<g id="edge27" class="edge">
<title>Node2&#45;&gt;Node26</title>
<path fill="none" stroke="#63b8ff" d="M340.05,-167.1C302.74,-159.28 237.86,-145.35 172.84,-129.36"/>
<polygon fill="#63b8ff" stroke="#63b8ff" points="174,-126.04 163.45,-127.03 172.31,-132.83 174,-126.04"/>
</g>
<!-- Node27 -->
<g id="node27" class="node">
<title>Node27</title>
<g id="a_node27"><a xlink:href="../../dd/d49/callbacks_8h.html" target="_top" xlink:title=" ">
<polygon fill="white" stroke="#666666" points="246,-129 180,-129 180,-110 246,-110 246,-129"/>
<text text-anchor="middle" x="213" y="-117" font-family="Helvetica,sans-Serif" font-size="10.00">callbacks.h</text>
</a>
</g>
</g>
<!-- Node2&#45;&gt;Node27 -->
<g id="edge28" class="edge">
<title>Node2&#45;&gt;Node27</title>
<path fill="none" stroke="#63b8ff" d="M344.2,-164.51C318.47,-155.88 279.37,-142.76 250.55,-133.1"/>
<polygon fill="#63b8ff" stroke="#63b8ff" points="251.7,-129.79 241.1,-129.93 249.47,-136.43 251.7,-129.79"/>
</g>
<!-- Node28 -->
<g id="node28" class="node">
<title>Node28</title>
<g id="a_node28"><a xlink:href="../../d4/da9/interface_8h.html" target="_top" xlink:title=" ">
<polygon fill="white" stroke="#666666" points="326,-129 264,-129 264,-110 326,-110 326,-129"/>
<text text-anchor="middle" x="295" y="-117" font-family="Helvetica,sans-Serif" font-size="10.00">interface.h</text>
</a>
</g>
</g>
<!-- Node2&#45;&gt;Node28 -->
<g id="edge29" class="edge">
<title>Node2&#45;&gt;Node28</title>
<path fill="none" stroke="#63b8ff" d="M358.11,-164.51C346.9,-156.7 330.43,-145.21 317.12,-135.93"/>
<polygon fill="#63b8ff" stroke="#63b8ff" points="319.15,-133.07 308.94,-130.22 315.14,-138.81 319.15,-133.07"/>
</g>
<!-- Node29 -->
<g id="node29" class="node">
<title>Node29</title>
<g id="a_node29"><a xlink:href="../../dc/d8d/project_8h.html" target="_top" xlink:title=" ">
<polygon fill="white" stroke="#666666" points="398,-129 344,-129 344,-110 398,-110 398,-129"/>
<text text-anchor="middle" x="371" y="-117" font-family="Helvetica,sans-Serif" font-size="10.00">project.h</text>
</a>
</g>
</g>
<!-- Node2&#45;&gt;Node29 -->
<g id="edge30" class="edge">
<title>Node2&#45;&gt;Node29</title>
<path fill="none" stroke="#63b8ff" d="M371,-164.75C371,-158.27 371,-149.16 371,-140.9"/>
<polygon fill="#63b8ff" stroke="#63b8ff" points="374.5,-140.96 371,-130.96 367.5,-140.96 374.5,-140.96"/>
</g>
<!-- Node30 -->
<g id="node30" class="node">
<title>Node30</title>
<g id="a_node30"><a xlink:href="../../d4/de6/workspace_8h.html" target="_top" xlink:title=" ">
<polygon fill="white" stroke="#666666" points="488,-129 416,-129 416,-110 488,-110 488,-129"/>
<text text-anchor="middle" x="452" y="-117" font-family="Helvetica,sans-Serif" font-size="10.00">workspace.h</text>
</a>
</g>
</g>
<!-- Node2&#45;&gt;Node30 -->
<g id="edge31" class="edge">
<title>Node2&#45;&gt;Node30</title>
<path fill="none" stroke="#63b8ff" d="M384.74,-164.51C396.8,-156.62 414.59,-144.98 428.84,-135.65"/>
<polygon fill="#63b8ff" stroke="#63b8ff" points="430.74,-138.59 437.2,-130.19 426.91,-132.73 430.74,-138.59"/>
</g>
<!-- Node31 -->
<g id="node31" class="node">
<title>Node31</title>
<g id="a_node31"><a xlink:href="../../dc/de3/glview_8h.html" target="_top" xlink:title=" ">
<polygon fill="white" stroke="#666666" points="558,-129 506,-129 506,-110 558,-110 558,-129"/>
<text text-anchor="middle" x="532" y="-117" font-family="Helvetica,sans-Serif" font-size="10.00">glview.h</text>
</a>
</g>
</g>
<!-- Node2&#45;&gt;Node31 -->
<g id="edge32" class="edge">
<title>Node2&#45;&gt;Node31</title>
<path fill="none" stroke="#63b8ff" d="M398.31,-164.51C424.88,-155.76 465.45,-142.41 494.92,-132.71"/>
<polygon fill="#63b8ff" stroke="#63b8ff" points="495.78,-136.11 504.19,-129.66 493.59,-129.46 495.78,-136.11"/>
</g>
<!-- Node32 -->
<g id="node32" class="node">
<title>Node32</title>
<g id="a_node32"><a xlink:href="../../d1/d2a/glwindow_8h.html" target="_top" xlink:title=" ">
<polygon fill="white" stroke="#666666" points="641.5,-129 576.5,-129 576.5,-110 641.5,-110 641.5,-129"/>
<text text-anchor="middle" x="609" y="-117" font-family="Helvetica,sans-Serif" font-size="10.00">glwindow.h</text>
</a>
</g>
</g>
<!-- Node2&#45;&gt;Node32 -->
<g id="edge33" class="edge">
<title>Node2&#45;&gt;Node32</title>
<path fill="none" stroke="#63b8ff" d="M401.63,-166.68C443.15,-157.43 517.56,-140.86 565.04,-130.29"/>
<polygon fill="#63b8ff" stroke="#63b8ff" points="565.72,-133.72 574.72,-128.13 564.2,-126.89 565.72,-133.72"/>
</g>
<!-- Node4 -->
<g id="node4" class="node">
<title>Node4</title>
<g id="a_node4"><a xlink:title=" ">
<polygon fill="#e0e0e0" stroke="#999999" points="40,-74 0,-74 0,-55 40,-55 40,-74"/>
<text text-anchor="middle" x="20" y="-62" font-family="Helvetica,sans-Serif" font-size="10.00">glib.h</text>
</a>
</g>
</g>
<!-- Node3&#45;&gt;Node4 -->
<g id="edge3" class="edge">
<title>Node3&#45;&gt;Node4</title>
<path fill="none" stroke="#63b8ff" d="M659.85,-111.66C656.89,-111.02 653.89,-110.44 651,-110 389.69,-69.88 315.09,-118.62 51.53,-74.03"/>
<polygon fill="#63b8ff" stroke="#63b8ff" points="52.4,-70.62 41.95,-72.37 51.21,-77.52 52.4,-70.62"/>
</g>
<!-- Node5 -->
<g id="node5" class="node">
<title>Node5</title>
<g id="a_node5"><a xlink:title=" ">
<polygon fill="#e0e0e0" stroke="#999999" points="124,-74 58,-74 58,-55 124,-55 124,-74"/>
<text text-anchor="middle" x="91" y="-62" font-family="Helvetica,sans-Serif" font-size="10.00">glib/gi18n.h</text>
</a>
</g>
</g>
<!-- Node3&#45;&gt;Node5 -->
<g id="edge4" class="edge">
<title>Node3&#45;&gt;Node5</title>
<path fill="none" stroke="#63b8ff" d="M659.85,-111.69C656.88,-111.04 653.88,-110.46 651,-110 426.74,-74.46 363.71,-103.97 135.74,-74.18"/>
<polygon fill="#63b8ff" stroke="#63b8ff" points="136.28,-70.72 125.9,-72.87 135.35,-77.66 136.28,-70.72"/>
</g>
<!-- Node6 -->
<g id="node6" class="node">
<title>Node6</title>
<g id="a_node6"><a xlink:title=" ">
<polygon fill="#e0e0e0" stroke="#999999" points="192,-74 142,-74 142,-55 192,-55 192,-74"/>
<text text-anchor="middle" x="167" y="-62" font-family="Helvetica,sans-Serif" font-size="10.00">locale.h</text>
</a>
</g>
</g>
<!-- Node3&#45;&gt;Node6 -->
<g id="edge5" class="edge">
<title>Node3&#45;&gt;Node6</title>
<path fill="none" stroke="#63b8ff" d="M659.85,-111.72C656.88,-111.07 653.88,-110.47 651,-110 456.67,-78.16 401.05,-105.39 203.51,-74.12"/>
<polygon fill="#63b8ff" stroke="#63b8ff" points="204.08,-70.66 193.65,-72.52 202.96,-77.57 204.08,-70.66"/>
</g>
<!-- Node7 -->
<g id="node7" class="node">
<title>Node7</title>
<g id="a_node7"><a xlink:title=" ">
<polygon fill="#e0e0e0" stroke="#999999" points="261.5,-74 210.5,-74 210.5,-55 261.5,-55 261.5,-74"/>
<text text-anchor="middle" x="236" y="-62" font-family="Helvetica,sans-Serif" font-size="10.00">unistd.h</text>
</a>
</g>
</g>
<!-- Node3&#45;&gt;Node7 -->
<g id="edge6" class="edge">
<title>Node3&#45;&gt;Node7</title>
<path fill="none" stroke="#63b8ff" d="M659.84,-111.76C656.87,-111.1 653.88,-110.49 651,-110 486.95,-81.91 439.67,-101.81 273.05,-74.29"/>
<polygon fill="#63b8ff" stroke="#63b8ff" points="273.84,-70.87 263.4,-72.66 272.67,-77.77 273.84,-70.87"/>
</g>
<!-- Node8 -->
<g id="node8" class="node">
<title>Node8</title>
<g id="a_node8"><a xlink:title=" ">
<polygon fill="#e0e0e0" stroke="#999999" points="328.5,-74 279.5,-74 279.5,-55 328.5,-55 328.5,-74"/>
<text text-anchor="middle" x="304" y="-62" font-family="Helvetica,sans-Serif" font-size="10.00">string.h</text>
</a>
</g>
</g>
<!-- Node3&#45;&gt;Node8 -->
<g id="edge7" class="edge">
<title>Node3&#45;&gt;Node8</title>
<path fill="none" stroke="#63b8ff" d="M659.83,-111.82C656.86,-111.15 653.87,-110.52 651,-110 515.42,-85.24 478.94,-96.7 343,-74 341.98,-73.83 340.95,-73.65 339.91,-73.47"/>
<polygon fill="#63b8ff" stroke="#63b8ff" points="340.66,-70.04 330.17,-71.55 339.31,-76.91 340.66,-70.04"/>
</g>
<!-- Node9 -->
<g id="node9" class="node">
<title>Node9</title>
<g id="a_node9"><a xlink:title=" ">
<polygon fill="#e0e0e0" stroke="#999999" points="394,-19 348,-19 348,0 394,0 394,-19"/>
<text text-anchor="middle" x="371" y="-7" font-family="Helvetica,sans-Serif" font-size="10.00">stdio.h</text>
</a>
</g>
</g>
<!-- Node3&#45;&gt;Node9 -->
<g id="edge8" class="edge">
<title>Node3&#45;&gt;Node9</title>
<path fill="none" stroke="#63b8ff" d="M659.82,-111.86C656.86,-111.18 653.87,-110.54 651,-110 590.45,-98.51 418.44,-118.69 376,-74 365.16,-62.59 364.83,-44.24 366.67,-30.2"/>
<polygon fill="#63b8ff" stroke="#63b8ff" points="370.05,-31.19 368.37,-20.73 363.16,-29.96 370.05,-31.19"/>
</g>
<!-- Node10 -->
<g id="node10" class="node">
<title>Node10</title>
<g id="a_node10"><a xlink:title=" ">
<polygon fill="#e0e0e0" stroke="#999999" points="551,-74 503,-74 503,-55 551,-55 551,-74"/>
<text text-anchor="middle" x="527" y="-62" font-family="Helvetica,sans-Serif" font-size="10.00">stdlib.h</text>
</a>
</g>
</g>
<!-- Node3&#45;&gt;Node10 -->
<g id="edge9" class="edge">
<title>Node3&#45;&gt;Node10</title>
<path fill="none" stroke="#63b8ff" d="M659.61,-109.98C633.16,-101.11 591.52,-87.14 561.96,-77.23"/>
<polygon fill="#63b8ff" stroke="#63b8ff" points="563.31,-73.99 552.72,-74.13 561.09,-80.63 563.31,-73.99"/>
</g>
<!-- Node11 -->
<g id="node11" class="node">
<title>Node11</title>
<g id="a_node11"><a xlink:title=" ">
<polygon fill="#e0e0e0" stroke="#999999" points="637,-74 569,-74 569,-55 637,-55 637,-74"/>
<text text-anchor="middle" x="603" y="-62" font-family="Helvetica,sans-Serif" font-size="10.00">sys/types.h</text>
</a>
</g>
</g>
<!-- Node3&#45;&gt;Node11 -->
<g id="edge10" class="edge">
<title>Node3&#45;&gt;Node11</title>
<path fill="none" stroke="#63b8ff" d="M671.09,-109.51C658.76,-101.54 640.53,-89.75 626.03,-80.38"/>
<polygon fill="#63b8ff" stroke="#63b8ff" points="628.27,-77.67 617.98,-75.18 624.47,-83.55 628.27,-77.67"/>
</g>
<!-- Node12 -->
<g id="node12" class="node">
<title>Node12</title>
<g id="a_node12"><a xlink:title=" ">
<polygon fill="#e0e0e0" stroke="#999999" points="715,-74 655,-74 655,-55 715,-55 715,-74"/>
<text text-anchor="middle" x="685" y="-62" font-family="Helvetica,sans-Serif" font-size="10.00">sys/stat.h</text>
</a>
</g>
</g>
<!-- Node3&#45;&gt;Node12 -->
<g id="edge11" class="edge">
<title>Node3&#45;&gt;Node12</title>
<path fill="none" stroke="#63b8ff" d="M685,-109.75C685,-103.27 685,-94.16 685,-85.9"/>
<polygon fill="#63b8ff" stroke="#63b8ff" points="688.5,-85.96 685,-75.96 681.5,-85.96 688.5,-85.96"/>
</g>
<!-- Node13 -->
<g id="node13" class="node">
<title>Node13</title>
<g id="a_node13"><a xlink:title=" ">
<polygon fill="#e0e0e0" stroke="#999999" points="472.5,-19 425.5,-19 425.5,0 472.5,0 472.5,-19"/>
<text text-anchor="middle" x="449" y="-7" font-family="Helvetica,sans-Serif" font-size="10.00">math.h</text>
</a>
</g>
</g>
<!-- Node3&#45;&gt;Node13 -->
<g id="edge12" class="edge">
<title>Node3&#45;&gt;Node13</title>
<path fill="none" stroke="#63b8ff" d="M659.76,-112.13C656.81,-111.4 653.84,-110.68 651,-110 581.38,-93.32 553.49,-113.82 494,-74 477.7,-63.09 465.41,-44.13 457.83,-29.76"/>
<polygon fill="#63b8ff" stroke="#63b8ff" points="460.99,-28.25 453.44,-20.82 454.71,-31.34 460.99,-28.25"/>
</g>
<!-- Node14 -->
<g id="node14" class="node">
<title>Node14</title>
<g id="a_node14"><a xlink:title=" ">
<polygon fill="#e0e0e0" stroke="#999999" points="788.5,-74 733.5,-74 733.5,-55 788.5,-55 788.5,-74"/>
<text text-anchor="middle" x="761" y="-62" font-family="Helvetica,sans-Serif" font-size="10.00">gtk/gtk.h</text>
</a>
</g>
</g>
<!-- Node3&#45;&gt;Node14 -->
<g id="edge13" class="edge">
<title>Node3&#45;&gt;Node14</title>
<path fill="none" stroke="#63b8ff" d="M697.89,-109.51C709.1,-101.7 725.57,-90.21 738.88,-80.93"/>
<polygon fill="#63b8ff" stroke="#63b8ff" points="740.86,-83.81 747.06,-75.22 736.85,-78.07 740.86,-83.81"/>
</g>
<!-- Node15 -->
<g id="node15" class="node">
<title>Node15</title>
<g id="a_node15"><a xlink:title=" ">
<polygon fill="#e0e0e0" stroke="#999999" points="865.5,-74 806.5,-74 806.5,-55 865.5,-55 865.5,-74"/>
<text text-anchor="middle" x="836" y="-62" font-family="Helvetica,sans-Serif" font-size="10.00">gdk/gdk.h</text>
</a>
</g>
</g>
<!-- Node3&#45;&gt;Node15 -->
<g id="edge14" class="edge">
<title>Node3&#45;&gt;Node15</title>
<path fill="none" stroke="#63b8ff" d="M710.27,-109.63C734.7,-101.06 771.96,-87.98 799.58,-78.28"/>
<polygon fill="#63b8ff" stroke="#63b8ff" points="800.69,-81.6 808.96,-74.99 798.37,-75 800.69,-81.6"/>
</g>
<!-- Node16 -->
<g id="node16" class="node">
<title>Node16</title>
<g id="a_node16"><a xlink:title=" ">
<polygon fill="#e0e0e0" stroke="#999999" points="982.5,-74 883.5,-74 883.5,-55 982.5,-55 982.5,-74"/>
<text text-anchor="middle" x="933" y="-62" font-family="Helvetica,sans-Serif" font-size="10.00">gdk/gdkkeysyms.h</text>
</a>
</g>
</g>
<!-- Node3&#45;&gt;Node16 -->
<g id="edge15" class="edge">
<title>Node3&#45;&gt;Node16</title>
<path fill="none" stroke="#63b8ff" d="M710.22,-112.07C713.18,-111.36 716.15,-110.65 719,-110 772.14,-97.84 833.03,-85.31 876.24,-76.66"/>
<polygon fill="#63b8ff" stroke="#63b8ff" points="876.78,-80.12 885.9,-74.73 875.41,-73.26 876.78,-80.12"/>
</g>
<!-- Node17 -->
<g id="node17" class="node">
<title>Node17</title>
<g id="a_node17"><a xlink:title=" ">
<polygon fill="#e0e0e0" stroke="#999999" points="1119,-74 1001,-74 1001,-55 1119,-55 1119,-74"/>
<text text-anchor="middle" x="1060" y="-62" font-family="Helvetica,sans-Serif" font-size="10.00">gdk&#45;pixbuf/gdk&#45;pixbuf.h</text>
</a>
</g>
</g>
<!-- Node3&#45;&gt;Node17 -->
<g id="edge16" class="edge">
<title>Node3&#45;&gt;Node17</title>
<path fill="none" stroke="#63b8ff" d="M710.18,-111.86C713.14,-111.18 716.13,-110.54 719,-110 732.11,-107.52 893.13,-86.81 989.14,-74.54"/>
<polygon fill="#63b8ff" stroke="#63b8ff" points="989.54,-78.01 999.01,-73.27 988.65,-71.07 989.54,-78.01"/>
</g>
<!-- Node18 -->
<g id="node18" class="node">
<title>Node18</title>
<g id="a_node18"><a xlink:title=" ">
<polygon fill="#e0e0e0" stroke="#999999" points="1229,-74 1137,-74 1137,-55 1229,-55 1229,-74"/>
<text text-anchor="middle" x="1183" y="-62" font-family="Helvetica,sans-Serif" font-size="10.00">pango/pangoft2.h</text>
</a>
</g>
</g>
<!-- Node3&#45;&gt;Node18 -->
<g id="edge17" class="edge">
<title>Node3&#45;&gt;Node18</title>
<path fill="none" stroke="#63b8ff" d="M710.16,-111.74C713.12,-111.08 716.12,-110.48 719,-110 895.36,-80.38 944.87,-95.32 1125.3,-74.24"/>
<polygon fill="#63b8ff" stroke="#63b8ff" points="1125.5,-77.74 1135.02,-73.08 1124.67,-70.79 1125.5,-77.74"/>
</g>
<!-- Node19 -->
<g id="node19" class="node">
<title>Node19</title>
<g id="a_node19"><a xlink:title=" ">
<polygon fill="#e0e0e0" stroke="#999999" points="1309,-74 1247,-74 1247,-55 1309,-55 1309,-74"/>
<text text-anchor="middle" x="1278" y="-62" font-family="Helvetica,sans-Serif" font-size="10.00">epoxy/gl.h</text>
</a>
</g>
</g>
<!-- Node3&#45;&gt;Node19 -->
<g id="edge18" class="edge">
<title>Node3&#45;&gt;Node19</title>
<path fill="none" stroke="#63b8ff" d="M710.15,-111.69C713.12,-111.04 716.12,-110.46 719,-110 943.69,-74.4 1006.99,-105.09 1235.28,-74.17"/>
<polygon fill="#63b8ff" stroke="#63b8ff" points="1235.71,-77.64 1245.13,-72.81 1234.75,-70.71 1235.71,-77.64"/>
</g>
<!-- Node20 -->
<g id="node20" class="node">
<title>Node20</title>
<g id="a_node20"><a xlink:title=" ">
<polygon fill="#e0e0e0" stroke="#999999" points="1380.5,-74 1327.5,-74 1327.5,-55 1380.5,-55 1380.5,-74"/>
<text text-anchor="middle" x="1354" y="-62" font-family="Helvetica,sans-Serif" font-size="10.00">GL/glu.h</text>
</a>
</g>
</g>
<!-- Node3&#45;&gt;Node20 -->
<g id="edge19" class="edge">
<title>Node3&#45;&gt;Node20</title>
<path fill="none" stroke="#63b8ff" d="M710.15,-111.66C713.11,-111.02 716.11,-110.44 719,-110 979,-70.04 1052.14,-111.62 1316.27,-73.94"/>
<polygon fill="#63b8ff" stroke="#63b8ff" points="1316.47,-77.45 1325.86,-72.55 1315.46,-70.52 1316.47,-77.45"/>
</g>
<!-- Node21 -->
<g id="node21" class="node">
<title>Node21</title>
<g id="a_node21"><a xlink:title=" ">
<polygon fill="#e0e0e0" stroke="#999999" points="1465.5,-74 1398.5,-74 1398.5,-55 1465.5,-55 1465.5,-74"/>
<text text-anchor="middle" x="1432" y="-62" font-family="Helvetica,sans-Serif" font-size="10.00">epoxy/glx.h</text>
</a>
</g>
</g>
<!-- Node3&#45;&gt;Node21 -->
<g id="edge20" class="edge">
<title>Node3&#45;&gt;Node21</title>
<path fill="none" stroke="#63b8ff" d="M710.14,-111.64C713.11,-111 716.11,-110.43 719,-110 1010.72,-66.12 1091.77,-110.61 1387.1,-74.18"/>
<polygon fill="#63b8ff" stroke="#63b8ff" points="1387.16,-77.7 1396.64,-72.98 1386.28,-70.76 1387.16,-77.7"/>
</g>
<!-- Node22 -->
<g id="node22" class="node">
<title>Node22</title>
<g id="a_node22"><a xlink:href="../../dc/db0/math__3d_8h.html" target="_top" xlink:title=" ">
<polygon fill="white" stroke="#666666" points="447,-74 385,-74 385,-55 447,-55 447,-74"/>
<text text-anchor="middle" x="416" y="-62" font-family="Helvetica,sans-Serif" font-size="10.00">math_3d.h</text>
</a>
</g>
</g>
<!-- Node3&#45;&gt;Node22 -->
<g id="edge21" class="edge">
<title>Node3&#45;&gt;Node22</title>
<path fill="none" stroke="#63b8ff" d="M659.79,-112.02C656.83,-111.32 653.85,-110.63 651,-110 648.64,-109.48 525.36,-86.17 458.33,-73.5"/>
<polygon fill="#63b8ff" stroke="#63b8ff" points="459.26,-70.11 448.78,-71.7 457.96,-76.99 459.26,-70.11"/>
</g>
<!-- Node23 -->
<g id="node23" class="node">
<title>Node23</title>
<g id="a_node23"><a xlink:href="../../da/d7e/glwin_8h.html" target="_top" xlink:title=" ">
<polygon fill="white" stroke="#666666" points="1530.5,-74 1483.5,-74 1483.5,-55 1530.5,-55 1530.5,-74"/>
<text text-anchor="middle" x="1507" y="-62" font-family="Helvetica,sans-Serif" font-size="10.00">glwin.h</text>
</a>
</g>
</g>
<!-- Node3&#45;&gt;Node23 -->
<g id="edge24" class="edge">
<title>Node3&#45;&gt;Node23</title>
<path fill="none" stroke="#63b8ff" d="M710.14,-111.63C713.11,-110.99 716.11,-110.43 719,-110 1048.05,-61.52 1140.51,-124.03 1471.63,-74.2"/>
<polygon fill="#63b8ff" stroke="#63b8ff" points="1472.15,-77.66 1481.51,-72.69 1471.09,-70.74 1472.15,-77.66"/>
</g>
<!-- Node25 -->
<g id="node25" class="node">
<title>Node25</title>
<g id="a_node25"><a xlink:title=" ">
<polygon fill="#e0e0e0" stroke="#999999" points="1609,-74 1549,-74 1549,-55 1609,-55 1609,-74"/>
<text text-anchor="middle" x="1579" y="-62" font-family="Helvetica,sans-Serif" font-size="10.00">gtk/gtkx.h</text>
</a>
</g>
</g>
<!-- Node3&#45;&gt;Node25 -->
<g id="edge26" class="edge">
<title>Node3&#45;&gt;Node25</title>
<path fill="none" stroke="#63b8ff" d="M710.14,-111.62C713.11,-110.98 716.11,-110.42 719,-110 1076.73,-57.98 1175.78,-119.77 1537.53,-74.06"/>
<polygon fill="#63b8ff" stroke="#63b8ff" points="1537.88,-77.54 1547.35,-72.8 1536.99,-70.6 1537.88,-77.54"/>
</g>
<!-- Node22&#45;&gt;Node9 -->
<g id="edge23" class="edge">
<title>Node22&#45;&gt;Node9</title>
<path fill="none" stroke="#63b8ff" d="M408.57,-54.75C402.42,-47.5 393.49,-36.98 385.87,-28.02"/>
<polygon fill="#63b8ff" stroke="#63b8ff" points="388.71,-25.95 379.57,-20.6 383.38,-30.48 388.71,-25.95"/>
</g>
<!-- Node22&#45;&gt;Node13 -->
<g id="edge22" class="edge">
<title>Node22&#45;&gt;Node13</title>
<path fill="none" stroke="#63b8ff" d="M421.45,-54.75C425.77,-47.81 431.96,-37.86 437.38,-29.16"/>
<polygon fill="#63b8ff" stroke="#63b8ff" points="440.32,-31.07 442.63,-20.73 434.38,-27.37 440.32,-31.07"/>
</g>
<!-- Node24 -->
<g id="node24" class="node">
<title>Node24</title>
<g id="a_node24"><a xlink:href="../../d5/d9e/ogl__shading_8h.html" target="_top" xlink:title=" ">
<polygon fill="white" stroke="#666666" points="1545.5,-19 1468.5,-19 1468.5,0 1545.5,0 1545.5,-19"/>
<text text-anchor="middle" x="1507" y="-7" font-family="Helvetica,sans-Serif" font-size="10.00">ogl_shading.h</text>
</a>
</g>
</g>
<!-- Node23&#45;&gt;Node24 -->
<g id="edge25" class="edge">
<title>Node23&#45;&gt;Node24</title>
<path fill="none" stroke="#63b8ff" d="M1507,-54.75C1507,-48.27 1507,-39.16 1507,-30.9"/>
<polygon fill="#63b8ff" stroke="#63b8ff" points="1510.5,-30.96 1507,-20.96 1503.5,-30.96 1510.5,-30.96"/>
</g>
<!-- Node33&#45;&gt;Node3 -->
<g id="edge35" class="edge">
<title>Node33&#45;&gt;Node3</title>
<path fill="none" stroke="#63b8ff" d="M488.22,-166.02C525.33,-157.85 586.59,-144.21 648.59,-129.53"/>
<polygon fill="#63b8ff" stroke="#63b8ff" points="649.37,-132.94 658.29,-127.23 647.75,-126.13 649.37,-132.94"/>
</g>
<!-- Node33&#45;&gt;Node26 -->
<g id="edge36" class="edge">
<title>Node33&#45;&gt;Node26</title>
<path fill="none" stroke="#63b8ff" d="M419.92,-166.77C416.57,-166.15 413.22,-165.55 410,-165 307.65,-147.41 278.04,-150.97 173.03,-129.19"/>
<polygon fill="#63b8ff" stroke="#63b8ff" points="173.92,-125.81 163.42,-127.17 172.48,-132.66 173.92,-125.81"/>
</g>
<!-- Node33&#45;&gt;Node27 -->
<g id="edge37" class="edge">
<title>Node33&#45;&gt;Node27</title>
<path fill="none" stroke="#63b8ff" d="M419.73,-165.96C377.11,-156.59 304.27,-140.57 257.41,-130.27"/>
<polygon fill="#63b8ff" stroke="#63b8ff" points="258.38,-126.9 247.86,-128.17 256.87,-133.73 258.38,-126.9"/>
</g>
<!-- Node33&#45;&gt;Node28 -->
<g id="edge38" class="edge">
<title>Node33&#45;&gt;Node28</title>
<path fill="none" stroke="#63b8ff" d="M427.03,-164.51C401.02,-155.84 361.45,-142.65 332.4,-132.97"/>
<polygon fill="#63b8ff" stroke="#63b8ff" points="333.87,-129.77 323.27,-129.92 331.65,-136.41 333.87,-129.77"/>
</g>
<!-- Node33&#45;&gt;Node29 -->
<g id="edge42" class="edge">
<title>Node33&#45;&gt;Node29</title>
<path fill="none" stroke="#63b8ff" d="M439.92,-164.51C427.44,-156.54 408.98,-144.75 394.31,-135.38"/>
<polygon fill="#63b8ff" stroke="#63b8ff" points="396.46,-132.6 386.15,-130.17 392.69,-138.5 396.46,-132.6"/>
</g>
<!-- Node33&#45;&gt;Node30 -->
<g id="edge43" class="edge">
<title>Node33&#45;&gt;Node30</title>
<path fill="none" stroke="#63b8ff" d="M453.67,-164.75C453.43,-158.27 453.08,-149.16 452.77,-140.9"/>
<polygon fill="#63b8ff" stroke="#63b8ff" points="456.27,-140.82 452.39,-130.95 449.27,-141.08 456.27,-140.82"/>
</g>
<!-- Node33&#45;&gt;Node31 -->
<g id="edge40" class="edge">
<title>Node33&#45;&gt;Node31</title>
<path fill="none" stroke="#63b8ff" d="M467.23,-164.51C478.84,-156.62 495.97,-144.98 509.7,-135.65"/>
<polygon fill="#63b8ff" stroke="#63b8ff" points="511.41,-138.72 517.71,-130.21 507.47,-132.93 511.41,-138.72"/>
</g>
<!-- Node33&#45;&gt;Node32 -->
<g id="edge41" class="edge">
<title>Node33&#45;&gt;Node32</title>
<path fill="none" stroke="#63b8ff" d="M480.29,-164.51C505.53,-155.88 543.89,-142.76 572.16,-133.1"/>
<polygon fill="#63b8ff" stroke="#63b8ff" points="573.07,-136.48 581.4,-129.94 570.81,-129.86 573.07,-136.48"/>
</g>
<!-- Node34 -->
<g id="node34" class="node">
<title>Node34</title>
<g id="a_node34"><a xlink:href="../../d6/d75/initcoord_8h.html" target="_top" xlink:title=" ">
<polygon fill="white" stroke="#666666" points="790,-129 728,-129 728,-110 790,-110 790,-129"/>
<text text-anchor="middle" x="759" y="-117" font-family="Helvetica,sans-Serif" font-size="10.00">initcoord.h</text>
</a>
</g>
</g>
<!-- Node33&#45;&gt;Node34 -->
<g id="edge39" class="edge">
<title>Node33&#45;&gt;Node34</title>
<path fill="none" stroke="#63b8ff" d="M488.25,-166.62C491.21,-166.06 494.15,-165.51 497,-165 591.82,-147.94 618.82,-147.41 716.32,-129.42"/>
<polygon fill="#63b8ff" stroke="#63b8ff" points="716.91,-132.87 726.1,-127.6 715.63,-125.99 716.91,-132.87"/>
</g>
</g>
</svg>
        <g id="navigator" transform="translate(0 0)" fill="#404254">
                <rect fill="#f2f5e9" fill-opacity="0.5" stroke="#606060" stroke-width=".5" x="0" y="0" width="60" height="60"/>
                <use id="zoomplus" xlink:href="#zoomPlus" x="17" y="9" onmousedown="handleZoom(evt,'in')"/>
                <use id="zoomminus" xlink:href="#zoomMin" x="42" y="9" onmousedown="handleZoom(evt,'out')"/>
                <use id="reset" xlink:href="#resetDef" x="30" y="36" onmousedown="handleReset()"/>
                <g id="arrowUp" xlink:href="#dirArrow" transform="translate(30 24)" onmousedown="handlePan(0,-1)">
                  <use xlink:href="#rim" fill="#404040">
                        <set attributeName="fill" to="#808080" begin="arrowUp.mouseover" end="arrowUp.mouseout"/>
                  </use>
                  <path fill="none" stroke="white" stroke-width="1.5" d="M0,-3.0v7 M-2.5,-0.5L0,-3.0L2.5,-0.5"/>
                </g>
                <g id="arrowRight" xlink:href="#dirArrow" transform="rotate(90) translate(36 -43)" onmousedown="handlePan(1,0)">
                  <use xlink:href="#rim" fill="#404040">
                        <set attributeName="fill" to="#808080" begin="arrowRight.mouseover" end="arrowRight.mouseout"/>
                  </use>
                  <path fill="none" stroke="white" stroke-width="1.5" d="M0,-3.0v7 M-2.5,-0.5L0,-3.0L2.5,-0.5"/>
                </g>
                <g id="arrowDown" xlink:href="#dirArrow" transform="rotate(180) translate(-30 -48)" onmousedown="handlePan(0,1)">
                  <use xlink:href="#rim" fill="#404040">
                        <set attributeName="fill" to="#808080" begin="arrowDown.mouseover" end="arrowDown.mouseout"/>
                  </use>
                  <path fill="none" stroke="white" stroke-width="1.5" d="M0,-3.0v7 M-2.5,-0.5L0,-3.0L2.5,-0.5"/>
                </g>
                <g id="arrowLeft" xlink:href="#dirArrow" transform="rotate(270) translate(-36 17)" onmousedown="handlePan(-1,0)">
                  <use xlink:href="#rim" fill="#404040">
                        <set attributeName="fill" to="#808080" begin="arrowLeft.mouseover" end="arrowLeft.mouseout"/>
                  </use>
                  <path fill="none" stroke="white" stroke-width="1.5" d="M0,-3.0v7 M-2.5,-0.5L0,-3.0L2.5,-0.5"/>
                </g>
        </g>
        <svg viewBox="0 0 15 15" width="100%" height="30px" preserveAspectRatio="xMaxYMin meet">
         <g id="arrow_out" transform="scale(0.3 0.3)">
          <a xlink:href="m__tools_8c__incl_org.svg" target="_base">
           <rect id="button" ry="5" rx="5" y="6" x="6" height="38" width="38"
                fill="#f2f5e9" fill-opacity="0.5" stroke="#606060" stroke-width="1.0"/>
           <path id="arrow"
             d="M 11.500037,31.436501 C 11.940474,20.09759 22.043105,11.32322 32.158766,21.979434 L 37.068811,17.246167 C 37.068811,17.246167 37.088388,32 37.088388,32 L 22.160133,31.978069 C 22.160133,31.978069 26.997745,27.140456 26.997745,27.140456 C 18.528582,18.264221 13.291696,25.230495 11.500037,31.436501 z"
             style="fill:#404040;"/>
          </a>
         </g>
        </svg>
</svg>
