<?xml version="1.0" encoding="UTF-8" standalone="no"?>
<!DOCTYPE svg PUBLIC "-//W3C//DTD SVG 1.1//EN"
 "http://www.w3.org/Graphics/SVG/1.1/DTD/svg11.dtd">
<!-- Generated by graphviz version 9.0.0 (20230911.1827)
 -->
<!-- Title: CurveState Pages: 1 -->
<svg width="136pt" height="96pt"
 viewBox="0.00 0.00 136.00 96.00" xmlns="http://www.w3.org/2000/svg" xmlns:xlink="http://www.w3.org/1999/xlink">

<svg id="main" version="1.1" xmlns="http://www.w3.org/2000/svg" xmlns:xlink="http://www.w3.org/1999/xlink" xml:space="preserve" onload="init(evt)">
<style type="text/css"><![CDATA[
.node, .edge {opacity: 0.7;}
.node.selected, .edge.selected {opacity: 1;}
.edge:hover path { stroke: red; }
.edge:hover polygon { stroke: red; fill: red; }
]]></style>
<script type="application/ecmascript" xlink:href="../../svg.min.js"/>
<svg id="graph" class="graph">
<g id="graph0" class="graph" transform="scale(1 1) rotate(0) translate(4 92)">
<title>CurveState</title>
<!-- Node1 -->
<g id="Node000001" class="node">
<title>Node1</title>
<g id="a_Node000001"><a xlink:title=" ">
<polygon fill="#999999" stroke="#666666" points="106,-20 40.5,-20 40.5,0 106,0 106,-20"/>
<text text-anchor="middle" x="73.25" y="-6.5" font-family="Helvetica,sans-Serif" font-size="10.00">CurveState</text>
</a>
</g>
</g>
<!-- Node2 -->
<g id="Node000002" class="node">
<title>Node2</title>
<g id="a_Node000002"><a xlink:href="../../d4/d51/struct_mouse_state.html" target="_top" xlink:title=" ">
<polygon fill="white" stroke="#666666" points="68.5,-88 0,-88 0,-68 68.5,-68 68.5,-88"/>
<text text-anchor="middle" x="34.25" y="-74.5" font-family="Helvetica,sans-Serif" font-size="10.00">MouseState</text>
</a>
</g>
</g>
<!-- Node2&#45;&gt;Node1 -->
<g id="edge1_Node000001_Node000002" class="edge">
<title>Node2&#45;&gt;Node1</title>
<g id="a_edge1_Node000001_Node000002"><a xlink:title=" ">
<path fill="none" stroke="#9a32cd" stroke-dasharray="5,2" d="M31.67,-56.62C31.74,-50.34 32.74,-43.6 35.75,-38 39.7,-30.65 46.62,-24.81 53.46,-20.48"/>
<polygon fill="#9a32cd" stroke="#9a32cd" points="28.16,-56.49 32.32,-66.23 35.14,-56.02 28.16,-56.49"/>
</a>
</g>
<text text-anchor="middle" x="64" y="-40.5" font-family="Helvetica,sans-Serif" font-size="10.00" fill="grey"> mouseState</text>
</g>
<!-- Node3 -->
<g id="Node000003" class="node">
<title>Node3</title>
<g id="a_Node000003"><a xlink:href="../../df/d46/structtint.html" target="_top" xlink:title=" ">
<polygon fill="white" stroke="#666666" points="128,-88 98.5,-88 98.5,-68 128,-68 128,-88"/>
<text text-anchor="middle" x="113.25" y="-74.5" font-family="Helvetica,sans-Serif" font-size="10.00">tint</text>
</a>
</g>
</g>
<!-- Node3&#45;&gt;Node1 -->
<g id="edge2_Node000001_Node000003" class="edge">
<title>Node3&#45;&gt;Node1</title>
<g id="a_edge2_Node000001_Node000003"><a xlink:title=" ">
<path fill="none" stroke="#9a32cd" stroke-dasharray="5,2" d="M102.8,-57.81C99.23,-51.45 95.16,-44.37 91.25,-38 87.59,-32.05 83.26,-25.53 79.76,-20.38"/>
<polygon fill="#9a32cd" stroke="#9a32cd" points="99.57,-59.2 107.47,-66.26 105.7,-55.82 99.57,-59.2"/>
</a>
</g>
<text text-anchor="middle" x="102.5" y="-40.5" font-family="Helvetica,sans-Serif" font-size="10.00" fill="grey"> id</text>
</g>
</g>
</svg>
</svg>

<style type='text/css'>
<![CDATA[
[data-mouse-over-selected='false'] { opacity: 0.7; }
[data-mouse-over-selected='true']  { opacity: 1.0; }
]]>
</style>
<script type="application/ecmascript"><![CDATA[
document.addEventListener('DOMContentLoaded', (event) => {
  highlightEdges();
  highlightAdjacentNodes();
});
]]></script>
</svg>
