<?xml version="1.0" encoding="UTF-8" standalone="no"?>
<!DOCTYPE svg PUBLIC "-//W3C//DTD SVG 1.1//EN"
 "http://www.w3.org/Graphics/SVG/1.1/DTD/svg11.dtd">
<!-- Generated by graphviz version 7.1.0 (0)
 -->
<!-- Title: CurveState Pages: 1 -->
<svg width="137pt" height="93pt"
 viewBox="0.00 0.00 136.50 93.00" xmlns="http://www.w3.org/2000/svg" xmlns:xlink="http://www.w3.org/1999/xlink">
<g id="graph0" class="graph" transform="scale(1 1) rotate(0) translate(4 89)">
<title>CurveState</title>
<!-- Node1 -->
<g id="node1" class="node">
<title>Node1</title>
<g id="a_node1"><a xlink:title="Data structure used for zoom in / out on curve widget.">
<polygon fill="#999999" stroke="#666666" points="106.5,-19 40.5,-19 40.5,0 106.5,0 106.5,-19"/>
<text text-anchor="middle" x="73.5" y="-7" font-family="Helvetica,sans-Serif" font-size="10.00">CurveState</text>
</a>
</g>
</g>
<!-- Node2 -->
<g id="node2" class="node">
<title>Node2</title>
<g id="a_node2"><a xlink:href="../../d4/d51/struct_mouse_state.html" target="_top" xlink:title="Data structure used for zoom in / out on curve widget.">
<polygon fill="white" stroke="#666666" points="69,-85 0,-85 0,-66 69,-66 69,-85"/>
<text text-anchor="middle" x="34.5" y="-73" font-family="Helvetica,sans-Serif" font-size="10.00">MouseState</text>
</a>
</g>
</g>
<!-- Node2&#45;&gt;Node1 -->
<g id="edge1" class="edge">
<title>Node2&#45;&gt;Node1</title>
<path fill="none" stroke="#9a32cd" stroke-dasharray="5,2" d="M31.71,-54.43C31.74,-48.52 32.68,-42.24 35.5,-37 39.54,-29.49 46.75,-23.66 53.82,-19.4"/>
<polygon fill="#9a32cd" stroke="#9a32cd" points="28.19,-54.39 32.47,-64.08 35.17,-53.84 28.19,-54.39"/>
<text text-anchor="middle" x="63.5" y="-40" font-family="Helvetica,sans-Serif" font-size="10.00"> mouseState</text>
</g>
<!-- Node3 -->
<g id="node3" class="node">
<title>Node3</title>
<g id="a_node3"><a xlink:href="../../df/d46/structtint.html" target="_top" xlink:title=" ">
<polygon fill="white" stroke="#666666" points="128.5,-85 98.5,-85 98.5,-66 128.5,-66 128.5,-85"/>
<text text-anchor="middle" x="113.5" y="-73" font-family="Helvetica,sans-Serif" font-size="10.00">tint</text>
</a>
</g>
</g>
<!-- Node3&#45;&gt;Node1 -->
<g id="edge2" class="edge">
<title>Node3&#45;&gt;Node1</title>
<path fill="none" stroke="#9a32cd" stroke-dasharray="5,2" d="M102.89,-55.85C99.35,-49.79 95.33,-43.06 91.5,-37 87.7,-30.98 83.2,-24.36 79.65,-19.24"/>
<polygon fill="#9a32cd" stroke="#9a32cd" points="99.81,-57.53 107.84,-64.45 105.88,-54.04 99.81,-57.53"/>
<text text-anchor="middle" x="103" y="-40" font-family="Helvetica,sans-Serif" font-size="10.00"> id</text>
</g>
</g>
</svg>
