<?xml version="1.0" encoding="UTF-8" standalone="no"?>
<!DOCTYPE svg PUBLIC "-//W3C//DTD SVG 1.1//EN"
 "http://www.w3.org/Graphics/SVG/1.1/DTD/svg11.dtd">
<!-- Generated by graphviz version 2.43.0 (0)
 -->
<!-- Title: CurveState Pages: 1 -->
<svg width="147pt" height="93pt"
 viewBox="0.00 0.00 146.50 93.00" xmlns="http://www.w3.org/2000/svg" xmlns:xlink="http://www.w3.org/1999/xlink">
<g id="graph0" class="graph" transform="scale(1 1) rotate(0) translate(4 89)">
<title>CurveState</title>
<!-- Node1 -->
<g id="Node000001" class="node">
<title>Node1</title>
<g id="a_Node000001"><a xlink:title=" ">
<polygon fill="#999999" stroke="#666666" points="114.5,-19 43.5,-19 43.5,0 114.5,0 114.5,-19"/>
<text text-anchor="middle" x="79" y="-7" font-family="Helvetica,sans-Serif" font-size="10.00">CurveState</text>
</a>
</g>
</g>
<!-- Node2 -->
<g id="Node000002" class="node">
<title>Node2</title>
<g id="a_Node000002"><a xlink:href="../../d4/d51/struct_mouse_state.html" target="_top" xlink:title=" ">
<polygon fill="white" stroke="#666666" points="74,-85 0,-85 0,-66 74,-66 74,-85"/>
<text text-anchor="middle" x="37" y="-73" font-family="Helvetica,sans-Serif" font-size="10.00">MouseState</text>
</a>
</g>
</g>
<!-- Node2&#45;&gt;Node1 -->
<g id="edge1_Node000001_Node000002" class="edge">
<title>Node2&#45;&gt;Node1</title>
<g id="a_edge1_Node000001_Node000002"><a xlink:title=" ">
<path fill="none" stroke="#9a32cd" stroke-dasharray="5,2" d="M34.1,-55.54C34,-49.29 34.89,-42.54 38,-37 42.4,-29.17 50.19,-23.28 57.8,-19.06"/>
<polygon fill="#9a32cd" stroke="#9a32cd" points="30.65,-56.23 35.06,-65.86 37.62,-55.58 30.65,-56.23"/>
</a>
</g>
<text text-anchor="middle" x="69" y="-40" font-family="Helvetica,sans-Serif" font-size="10.00" fill="grey"> mouseState</text>
</g>
<!-- Node3 -->
<g id="Node000003" class="node">
<title>Node3</title>
<g id="a_Node000003"><a xlink:href="../../df/d46/structtint.html" target="_top" xlink:title=" ">
<polygon fill="white" stroke="#666666" points="138.5,-85 105.5,-85 105.5,-66 138.5,-66 138.5,-85"/>
<text text-anchor="middle" x="122" y="-73" font-family="Helvetica,sans-Serif" font-size="10.00">tint</text>
</a>
</g>
</g>
<!-- Node3&#45;&gt;Node1 -->
<g id="edge2_Node000001_Node000003" class="edge">
<title>Node3&#45;&gt;Node1</title>
<g id="a_edge2_Node000001_Node000003"><a xlink:title=" ">
<path fill="none" stroke="#9a32cd" stroke-dasharray="5,2" d="M112.31,-56.84C108.64,-50.46 104.31,-43.29 100,-37 95.76,-30.8 90.51,-24.18 86.32,-19.1"/>
<polygon fill="#9a32cd" stroke="#9a32cd" points="109.49,-58.95 117.43,-65.95 115.59,-55.52 109.49,-58.95"/>
</a>
</g>
<text text-anchor="middle" x="112.5" y="-40" font-family="Helvetica,sans-Serif" font-size="10.00" fill="grey"> id</text>
</g>
</g>
</svg>
