<?xml version="1.0" encoding="UTF-8" standalone="no"?>
<!DOCTYPE svg PUBLIC "-//W3C//DTD SVG 1.1//EN"
 "http://www.w3.org/Graphics/SVG/1.1/DTD/svg11.dtd">
<!-- Generated by graphviz version 12.1.0 (20240811.2233)
 -->
<!-- Title: screen_label Pages: 1 -->
<svg width="180pt" height="168pt"
 viewBox="0.00 0.00 180.38 168.00" xmlns="http://www.w3.org/2000/svg" xmlns:xlink="http://www.w3.org/1999/xlink">

<svg id="main" version="1.1" xmlns="http://www.w3.org/2000/svg" xmlns:xlink="http://www.w3.org/1999/xlink" xml:space="preserve">

<style type="text/css"><![CDATA[
.node, .edge {opacity: 0.7;}
.node.selected, .edge.selected {opacity: 1;}
.edge:hover path { stroke: red; }
.edge:hover polygon { stroke: red; fill: red; }
]]></style>
<script type="application/ecmascript" xlink:href="../../svg.min.js"/>
<svg id="graph" class="graph">
<g id="graph0" class="graph" transform="scale(1 1) rotate(0) translate(4 164)">
<title>screen_label</title>
<!-- Node1 -->
<g id="Node000001" class="node">
<title>Node1</title>
<g id="a_Node000001"><a xlink:title=" ">
<polygon fill="#999999" stroke="#666666" points="70.75,-20 0,-20 0,0 70.75,0 70.75,-20"/>
<text text-anchor="middle" x="35.38" y="-6.5" font-family="Helvetica,sans-Serif" font-size="10.00">screen_label</text>
</a>
</g>
</g>
<!-- Node2 -->
<g id="Node000002" class="node">
<title>Node2</title>
<g id="a_Node000002"><a xlink:href="../../d1/d74/struct_col_r_g_b_a.html" target="_top" xlink:title=" ">
<polygon fill="white" stroke="#666666" points="65.12,-160 5.62,-160 5.62,-140 65.12,-140 65.12,-160"/>
<text text-anchor="middle" x="35.38" y="-146.5" font-family="Helvetica,sans-Serif" font-size="10.00">ColRGBA</text>
</a>
</g>
</g>
<!-- Node2&#45;&gt;Node1 -->
<g id="edge1_Node000001_Node000002" class="edge">
<title>Node2&#45;&gt;Node1</title>
<g id="a_edge1_Node000001_Node000002"><a xlink:title=" ">
<path fill="none" stroke="#9a32cd" stroke-dasharray="5,2" d="M32.25,-128.53C30.75,-117.7 29.12,-104.16 28.38,-92 26.79,-66.08 31.1,-35.57 33.65,-20.47"/>
<polygon fill="#9a32cd" stroke="#9a32cd" points="28.76,-128.86 33.67,-138.25 35.69,-127.85 28.76,-128.86"/>
</a>
</g>
<text text-anchor="middle" x="40.38" y="-76.5" font-family="Helvetica,sans-Serif" font-size="10.00" fill="grey"> color</text>
</g>
<!-- Node3 -->
<g id="Node000003" class="node">
<title>Node3</title>
<g id="a_Node000003"><a xlink:href="../../d0/dc3/structscreen__string.html" target="_top" xlink:title=" ">
<polygon fill="white" stroke="#666666" points="135.62,-90 61.12,-90 61.12,-70 135.62,-70 135.62,-90"/>
<text text-anchor="middle" x="98.38" y="-76.5" font-family="Helvetica,sans-Serif" font-size="10.00">screen_string</text>
</a>
</g>
</g>
<!-- Node2&#45;&gt;Node3 -->
<g id="edge3_Node000003_Node000002" class="edge">
<title>Node2&#45;&gt;Node3</title>
<g id="a_edge3_Node000003_Node000002"><a xlink:title=" ">
<path fill="none" stroke="#9a32cd" stroke-dasharray="5,2" d="M51.78,-131.29C63.91,-118.2 79.94,-100.9 89.69,-90.37"/>
<polygon fill="#9a32cd" stroke="#9a32cd" points="49.39,-128.72 45.16,-138.43 54.53,-133.48 49.39,-128.72"/>
</a>
</g>
<text text-anchor="middle" x="78.52" y="-112.5" font-family="Helvetica,sans-Serif" font-size="10.00" fill="grey"> col</text>
</g>
<!-- Node3&#45;&gt;Node1 -->
<g id="edge2_Node000001_Node000003" class="edge">
<title>Node3&#45;&gt;Node1</title>
<g id="a_edge2_Node000001_Node000003"><a xlink:title=" ">
<path fill="none" stroke="#9a32cd" stroke-dasharray="5,2" d="M81.97,-61.29C69.84,-48.2 53.81,-30.9 44.06,-20.37"/>
<polygon fill="#9a32cd" stroke="#9a32cd" points="79.22,-63.48 88.59,-68.43 84.36,-58.72 79.22,-63.48"/>
</a>
</g>
<text text-anchor="middle" x="78.52" y="-40.5" font-family="Helvetica,sans-Serif" font-size="10.00" fill="grey"> list</text>
</g>
<!-- Node3&#45;&gt;Node3 -->
<g id="edge4_Node000003_Node000003" class="edge">
<title>Node3&#45;&gt;Node3</title>
<g id="a_edge4_Node000003_Node000003"><a xlink:title=" ">
<path fill="none" stroke="#9a32cd" stroke-dasharray="5,2" d="M147.36,-85.13C151.23,-84 153.62,-82.29 153.62,-80 153.62,-75.92 146.06,-73.69 136.08,-73.31"/>
<polygon fill="#9a32cd" stroke="#9a32cd" points="147,-81.64 137.58,-86.48 147.96,-88.58 147,-81.64"/>
</a>
</g>
<text text-anchor="middle" x="163" y="-82.5" font-family="Helvetica,sans-Serif" font-size="10.00" fill="grey"> last</text>
<text text-anchor="middle" x="163" y="-70.5" font-family="Helvetica,sans-Serif" font-size="10.00" fill="grey">prev</text>
</g>
</g>
</svg>
</svg>

<style type='text/css'>
<![CDATA[
[data-mouse-over-selected='false'] { opacity: 0.7; }
[data-mouse-over-selected='true']  { opacity: 1.0; }
]]>
</style>
<script type="application/ecmascript"><![CDATA[
document.addEventListener('DOMContentLoaded', (event) => {
  highlightEdges();
  highlightAdjacentNodes();
});
]]></script>
</svg>
