<?xml version="1.0" encoding="UTF-8" standalone="no"?>
<!DOCTYPE svg PUBLIC "-//W3C//DTD SVG 1.1//EN"
 "http://www.w3.org/Graphics/SVG/1.1/DTD/svg11.dtd">
<!-- Generated by graphviz version 14.1.4 (20260321.0153)
 -->
<!-- Title: screen_label Pages: 1 -->
<svg width="189pt" height="190pt"
 viewBox="0.00 0.00 189.00 190.00" xmlns="http://www.w3.org/2000/svg" xmlns:xlink="http://www.w3.org/1999/xlink">
<g id="graph0" class="graph" transform="scale(1 1) rotate(0) translate(4 186)">
<title>screen_label</title>
<!-- Node1 -->
<g id="Node000001" class="node">
<title>Node1</title>
<g id="a_Node000001"><a xlink:title=" ">
<polygon fill="#999999" stroke="#666666" points="70.75,-20 0,-20 0,0 70.75,0 70.75,-20"/>
<text xml:space="preserve" text-anchor="middle" x="35.38" y="-6.5" font-family="Helvetica,sans-Serif" font-size="10.00">screen_label</text>
</a>
</g>
</g>
<!-- Node2 -->
<g id="Node000002" class="node">
<title>Node2</title>
<g id="a_Node000002"><a xlink:href="../../d1/d74/struct_col_r_g_b_a.html" target="_top" xlink:title=" ">
<polygon fill="white" stroke="#666666" points="65.12,-182 5.62,-182 5.62,-162 65.12,-162 65.12,-182"/>
<text xml:space="preserve" text-anchor="middle" x="35.38" y="-168.5" font-family="Helvetica,sans-Serif" font-size="10.00">ColRGBA</text>
</a>
</g>
</g>
<!-- Node2&#45;&gt;Node1 -->
<g id="edge1_Node000001_Node000002" class="edge">
<title>Node2&#45;&gt;Node1</title>
<g id="a_edge1_Node000001_Node000002"><a xlink:title=" ">
<path fill="none" stroke="#9a32cd" stroke-dasharray="5,2" d="M32.5,-150.37C30.94,-138.1 29.16,-122.19 28.38,-108 27.54,-92.91 27.54,-89.09 28.38,-74 29.43,-54.88 32.29,-32.65 34.01,-20.37"/>
<polygon fill="#9a32cd" stroke="#9a32cd" points="29.01,-150.69 33.81,-160.13 35.95,-149.76 29.01,-150.69"/>
</a>
</g>
<text xml:space="preserve" text-anchor="start" x="31.38" y="-87.25" font-family="Helvetica,sans-Serif" font-size="10.00" fill="grey">color</text>
</g>
<!-- Node3 -->
<g id="Node000003" class="node">
<title>Node3</title>
<g id="a_Node000003"><a xlink:href="../../d0/dc3/structscreen__string.html" target="_top" xlink:title=" ">
<polygon fill="white" stroke="#666666" points="138.62,-101 64.12,-101 64.12,-81 138.62,-81 138.62,-101"/>
<text xml:space="preserve" text-anchor="middle" x="101.38" y="-87.5" font-family="Helvetica,sans-Serif" font-size="10.00">screen_string</text>
</a>
</g>
</g>
<!-- Node2&#45;&gt;Node3 -->
<g id="edge3_Node000003_Node000002" class="edge">
<title>Node2&#45;&gt;Node3</title>
<g id="a_edge3_Node000003_Node000002"><a xlink:title=" ">
<path fill="none" stroke="#9a32cd" stroke-dasharray="5,2" d="M50.34,-153.09C63.76,-137.02 82.94,-114.06 93.55,-101.36"/>
<polygon fill="#9a32cd" stroke="#9a32cd" points="47.9,-150.55 44.18,-160.47 53.27,-155.04 47.9,-150.55"/>
</a>
</g>
<text xml:space="preserve" text-anchor="start" x="75.33" y="-131.25" font-family="Helvetica,sans-Serif" font-size="10.00" fill="grey">col</text>
</g>
<!-- Node3&#45;&gt;Node1 -->
<g id="edge2_Node000001_Node000003" class="edge">
<title>Node3&#45;&gt;Node1</title>
<g id="a_edge2_Node000001_Node000003"><a xlink:title=" ">
<path fill="none" stroke="#9a32cd" stroke-dasharray="5,2" d="M86.41,-72.09C72.99,-56.02 53.81,-33.06 43.2,-20.36"/>
<polygon fill="#9a32cd" stroke="#9a32cd" points="83.48,-74.04 92.57,-79.47 88.85,-69.55 83.48,-74.04"/>
</a>
</g>
<text xml:space="preserve" text-anchor="start" x="75.33" y="-43.25" font-family="Helvetica,sans-Serif" font-size="10.00" fill="grey">list</text>
</g>
<!-- Node3&#45;&gt;Node3 -->
<g id="edge4_Node000003_Node000003" class="edge">
<title>Node3&#45;&gt;Node3</title>
<g id="a_edge4_Node000003_Node000003"><a xlink:title=" ">
<path fill="none" stroke="#9a32cd" stroke-dasharray="5,2" d="M150.36,-97.27C154.23,-95.89 156.62,-93.8 156.62,-91 156.62,-86.02 149.06,-83.29 139.08,-82.82"/>
<polygon fill="#9a32cd" stroke="#9a32cd" points="149.84,-93.8 140.57,-98.92 151.01,-100.71 149.84,-93.8"/>
</a>
</g>
<text xml:space="preserve" text-anchor="start" x="159.62" y="-95.25" font-family="Helvetica,sans-Serif" font-size="10.00" fill="grey">last</text>
<text xml:space="preserve" text-anchor="start" x="159.62" y="-79.25" font-family="Helvetica,sans-Serif" font-size="10.00" fill="grey">prev</text>
</g>
</g>
</svg>
