<?xml version="1.0" encoding="UTF-8" standalone="no"?>
<!DOCTYPE svg PUBLIC "-//W3C//DTD SVG 1.1//EN"
 "http://www.w3.org/Graphics/SVG/1.1/DTD/svg11.dtd">
<!-- Generated by graphviz version 14.1.4 (20260321.0153)
 -->
<!-- Title: curve/legend.c Pages: 1 -->
<svg width="1804pt" height="252pt"
 viewBox="0.00 0.00 1804.00 252.00" xmlns="http://www.w3.org/2000/svg" xmlns:xlink="http://www.w3.org/1999/xlink">
<g id="graph0" class="graph" transform="scale(1 1) rotate(0) translate(4 248)">
<title>curve/legend.c</title>
<!-- Node1 -->
<g id="Node000001" class="node">
<title>Node1</title>
<g id="a_Node000001"><a xlink:title="Function to draw the legend.">
<polygon fill="#999999" stroke="#666666" points="682.62,-244 602.88,-244 602.88,-224 682.62,-224 682.62,-244"/>
<text xml:space="preserve" text-anchor="middle" x="642.75" y="-230.5" font-family="Helvetica,sans-Serif" font-size="10.00">curve/legend.c</text>
</a>
</g>
</g>
<!-- Node2 -->
<g id="Node000002" class="node">
<title>Node2</title>
<g id="a_Node000002"><a xlink:title=" ">
<polygon fill="#e0e0e0" stroke="#999999" points="47.5,-76 0,-76 0,-56 47.5,-56 47.5,-76"/>
<text xml:space="preserve" text-anchor="middle" x="23.75" y="-62.5" font-family="Helvetica,sans-Serif" font-size="10.00">stdlib.h</text>
</a>
</g>
</g>
<!-- Node1&#45;&gt;Node2 -->
<g id="edge1_Node000001_Node000002" class="edge">
<title>Node1&#45;&gt;Node2</title>
<g id="a_edge1_Node000001_Node000002"><a xlink:title=" ">
<path fill="none" stroke="#63b8ff" d="M607.4,-223.59C517.7,-199.69 273.72,-134.62 58.76,-76.53"/>
<polygon fill="#63b8ff" stroke="#63b8ff" points="59.93,-73.22 49.36,-73.99 58.1,-79.98 59.93,-73.22"/>
</a>
</g>
</g>
<!-- Node3 -->
<g id="Node000003" class="node">
<title>Node3</title>
<g id="a_Node000003"><a xlink:title=" ">
<polygon fill="#e0e0e0" stroke="#999999" points="574.38,-188 529.12,-188 529.12,-168 574.38,-168 574.38,-188"/>
<text xml:space="preserve" text-anchor="middle" x="551.75" y="-174.5" font-family="Helvetica,sans-Serif" font-size="10.00">cairo.h</text>
</a>
</g>
</g>
<!-- Node1&#45;&gt;Node3 -->
<g id="edge2_Node000001_Node000003" class="edge">
<title>Node1&#45;&gt;Node3</title>
<g id="a_edge2_Node000001_Node000003"><a xlink:title=" ">
<path fill="none" stroke="#63b8ff" d="M626.9,-223.59C613.28,-215.51 593.39,-203.71 577.49,-194.27"/>
<polygon fill="#63b8ff" stroke="#63b8ff" points="579.41,-191.35 569.03,-189.25 575.84,-197.37 579.41,-191.35"/>
</a>
</g>
</g>
<!-- Node4 -->
<g id="Node000004" class="node">
<title>Node4</title>
<g id="a_Node000004"><a xlink:title=" ">
<polygon fill="#e0e0e0" stroke="#999999" points="693.12,-188 592.38,-188 592.38,-168 693.12,-168 693.12,-188"/>
<text xml:space="preserve" text-anchor="middle" x="642.75" y="-174.5" font-family="Helvetica,sans-Serif" font-size="10.00">pango/pangocairo.h</text>
</a>
</g>
</g>
<!-- Node1&#45;&gt;Node4 -->
<g id="edge3_Node000001_Node000004" class="edge">
<title>Node1&#45;&gt;Node4</title>
<g id="a_edge3_Node000001_Node000004"><a xlink:title=" ">
<path fill="none" stroke="#63b8ff" d="M642.75,-223.59C642.75,-217.01 642.75,-207.96 642.75,-199.73"/>
<polygon fill="#63b8ff" stroke="#63b8ff" points="646.25,-199.81 642.75,-189.81 639.25,-199.81 646.25,-199.81"/>
</a>
</g>
</g>
<!-- Node5 -->
<g id="Node000005" class="node">
<title>Node5</title>
<g id="a_Node000005"><a xlink:href="../../d2/d49/global_8h.html" target="_top" xlink:title="Global variable declarations &#160;&#160;Global convenience function declarations &#160;&#160;Global data structure defin...">
<polygon fill="white" stroke="#666666" points="812.62,-132 762.88,-132 762.88,-112 812.62,-112 812.62,-132"/>
<text xml:space="preserve" text-anchor="middle" x="787.75" y="-118.5" font-family="Helvetica,sans-Serif" font-size="10.00">global.h</text>
</a>
</g>
</g>
<!-- Node1&#45;&gt;Node5 -->
<g id="edge4_Node000001_Node000005" class="edge">
<title>Node1&#45;&gt;Node5</title>
<g id="a_edge4_Node000001_Node000005"><a xlink:title=" ">
<path fill="none" stroke="#63b8ff" d="M682.88,-228.28C710.59,-222.98 746.36,-211.74 768.75,-188 780.1,-175.96 784.72,-157.51 786.57,-143.34"/>
<polygon fill="#63b8ff" stroke="#63b8ff" points="790.02,-144.04 787.45,-133.76 783.05,-143.4 790.02,-144.04"/>
</a>
</g>
</g>
<!-- Node30 -->
<g id="Node000030" class="node">
<title>Node30</title>
<g id="a_Node000030"><a xlink:href="../../df/de9/curve_8h.html" target="_top" xlink:title="Variable declarations for the curve widget &#160;&#160;Functions for interactions with the curve widget.">
<polygon fill="white" stroke="#666666" points="759.88,-188 711.62,-188 711.62,-168 759.88,-168 759.88,-188"/>
<text xml:space="preserve" text-anchor="middle" x="735.75" y="-174.5" font-family="Helvetica,sans-Serif" font-size="10.00">curve.h</text>
</a>
</g>
</g>
<!-- Node1&#45;&gt;Node30 -->
<g id="edge32_Node000001_Node000030" class="edge">
<title>Node1&#45;&gt;Node30</title>
<g id="a_edge32_Node000001_Node000030"><a xlink:title=" ">
<path fill="none" stroke="#63b8ff" d="M658.95,-223.59C673,-215.44 693.58,-203.48 709.91,-194"/>
<polygon fill="#63b8ff" stroke="#63b8ff" points="711.22,-197.29 718.12,-189.24 707.71,-191.23 711.22,-197.29"/>
</a>
</g>
</g>
<!-- Node5&#45;&gt;Node2 -->
<g id="edge13_Node000005_Node000002" class="edge">
<title>Node5&#45;&gt;Node2</title>
<g id="a_edge13_Node000005_Node000002"><a xlink:title=" ">
<path fill="none" stroke="#63b8ff" d="M762.61,-121.31C670.04,-122.05 339.41,-121.29 58.99,-76"/>
<polygon fill="#63b8ff" stroke="#63b8ff" points="59.7,-72.57 49.27,-74.41 58.57,-79.48 59.7,-72.57"/>
</a>
</g>
</g>
<!-- Node6 -->
<g id="Node000006" class="node">
<title>Node6</title>
<g id="a_Node000006"><a xlink:title=" ">
<polygon fill="#e0e0e0" stroke="#999999" points="1796.12,-76 1749.38,-76 1749.38,-56 1796.12,-56 1796.12,-76"/>
<text xml:space="preserve" text-anchor="middle" x="1772.75" y="-62.5" font-family="Helvetica,sans-Serif" font-size="10.00">libintl.h</text>
</a>
</g>
</g>
<!-- Node5&#45;&gt;Node6 -->
<g id="edge5_Node000005_Node000006" class="edge">
<title>Node5&#45;&gt;Node6</title>
<g id="a_edge5_Node000005_Node000006"><a xlink:title=" ">
<path fill="none" stroke="#63b8ff" d="M812.74,-120.56C941.42,-118.18 1530.98,-105.91 1737.78,-75.84"/>
<polygon fill="#63b8ff" stroke="#63b8ff" points="1738.24,-79.31 1747.6,-74.35 1737.18,-72.39 1738.24,-79.31"/>
</a>
</g>
</g>
<!-- Node7 -->
<g id="Node000007" class="node">
<title>Node7</title>
<g id="a_Node000007"><a xlink:title=" ">
<polygon fill="#e0e0e0" stroke="#999999" points="115.62,-76 65.88,-76 65.88,-56 115.62,-56 115.62,-76"/>
<text xml:space="preserve" text-anchor="middle" x="90.75" y="-62.5" font-family="Helvetica,sans-Serif" font-size="10.00">locale.h</text>
</a>
</g>
</g>
<!-- Node5&#45;&gt;Node7 -->
<g id="edge6_Node000005_Node000007" class="edge">
<title>Node5&#45;&gt;Node7</title>
<g id="a_edge6_Node000005_Node000007"><a xlink:title=" ">
<path fill="none" stroke="#63b8ff" d="M762.56,-121.02C675.58,-120.71 379.76,-116.67 127.12,-76.06"/>
<polygon fill="#63b8ff" stroke="#63b8ff" points="127.81,-72.63 117.38,-74.47 126.68,-79.54 127.81,-72.63"/>
</a>
</g>
</g>
<!-- Node8 -->
<g id="Node000008" class="node">
<title>Node8</title>
<g id="a_Node000008"><a xlink:title=" ">
<polygon fill="#e0e0e0" stroke="#999999" points="173.38,-76 134.12,-76 134.12,-56 173.38,-56 173.38,-76"/>
<text xml:space="preserve" text-anchor="middle" x="153.75" y="-62.5" font-family="Helvetica,sans-Serif" font-size="10.00">glib.h</text>
</a>
</g>
</g>
<!-- Node5&#45;&gt;Node8 -->
<g id="edge7_Node000005_Node000008" class="edge">
<title>Node5&#45;&gt;Node8</title>
<g id="a_edge7_Node000005_Node000008"><a xlink:title=" ">
<path fill="none" stroke="#63b8ff" d="M762.65,-121.25C680.56,-121.63 412.68,-119.38 184.94,-76.22"/>
<polygon fill="#63b8ff" stroke="#63b8ff" points="185.76,-72.81 175.27,-74.36 184.43,-79.69 185.76,-72.81"/>
</a>
</g>
</g>
<!-- Node9 -->
<g id="Node000009" class="node">
<title>Node9</title>
<g id="a_Node000009"><a xlink:title=" ">
<polygon fill="#e0e0e0" stroke="#999999" points="256.5,-76 191,-76 191,-56 256.5,-56 256.5,-76"/>
<text xml:space="preserve" text-anchor="middle" x="223.75" y="-62.5" font-family="Helvetica,sans-Serif" font-size="10.00">glib/gi18n.h</text>
</a>
</g>
</g>
<!-- Node5&#45;&gt;Node9 -->
<g id="edge8_Node000005_Node000009" class="edge">
<title>Node5&#45;&gt;Node9</title>
<g id="a_edge8_Node000005_Node000009"><a xlink:title=" ">
<path fill="none" stroke="#63b8ff" d="M762.63,-119.95C688.5,-116.62 464.1,-104.85 267.8,-76.11"/>
<polygon fill="#63b8ff" stroke="#63b8ff" points="268.6,-72.7 258.19,-74.69 267.57,-79.62 268.6,-72.7"/>
</a>
</g>
</g>
<!-- Node10 -->
<g id="Node000010" class="node">
<title>Node10</title>
<g id="a_Node000010"><a xlink:title=" ">
<polygon fill="#e0e0e0" stroke="#999999" points="327.12,-76 274.38,-76 274.38,-56 327.12,-56 327.12,-76"/>
<text xml:space="preserve" text-anchor="middle" x="300.75" y="-62.5" font-family="Helvetica,sans-Serif" font-size="10.00">gio/gio.h</text>
</a>
</g>
</g>
<!-- Node5&#45;&gt;Node10 -->
<g id="edge9_Node000005_Node000010" class="edge">
<title>Node5&#45;&gt;Node10</title>
<g id="a_edge9_Node000005_Node000010"><a xlink:title=" ">
<path fill="none" stroke="#63b8ff" d="M762.64,-119.78C695.51,-116.25 506.18,-104.51 338.65,-76.06"/>
<polygon fill="#63b8ff" stroke="#63b8ff" points="339.34,-72.63 328.89,-74.38 338.14,-79.53 339.34,-72.63"/>
</a>
</g>
</g>
<!-- Node11 -->
<g id="Node000011" class="node">
<title>Node11</title>
<g id="a_Node000011"><a xlink:title=" ">
<polygon fill="#e0e0e0" stroke="#999999" points="396,-76 345.5,-76 345.5,-56 396,-56 396,-76"/>
<text xml:space="preserve" text-anchor="middle" x="370.75" y="-62.5" font-family="Helvetica,sans-Serif" font-size="10.00">unistd.h</text>
</a>
</g>
</g>
<!-- Node5&#45;&gt;Node11 -->
<g id="edge10_Node000005_Node000011" class="edge">
<title>Node5&#45;&gt;Node11</title>
<g id="a_edge10_Node000005_Node000011"><a xlink:title=" ">
<path fill="none" stroke="#63b8ff" d="M762.47,-119.28C702.49,-114.92 546.77,-102.08 407.55,-76.3"/>
<polygon fill="#63b8ff" stroke="#63b8ff" points="408.24,-72.87 397.77,-74.45 406.95,-79.74 408.24,-72.87"/>
</a>
</g>
</g>
<!-- Node12 -->
<g id="Node000012" class="node">
<title>Node12</title>
<g id="a_Node000012"><a xlink:title=" ">
<polygon fill="#e0e0e0" stroke="#999999" points="461.88,-76 413.62,-76 413.62,-56 461.88,-56 461.88,-76"/>
<text xml:space="preserve" text-anchor="middle" x="437.75" y="-62.5" font-family="Helvetica,sans-Serif" font-size="10.00">string.h</text>
</a>
</g>
</g>
<!-- Node5&#45;&gt;Node12 -->
<g id="edge11_Node000005_Node000012" class="edge">
<title>Node5&#45;&gt;Node12</title>
<g id="a_edge11_Node000005_Node000012"><a xlink:title=" ">
<path fill="none" stroke="#63b8ff" d="M762.55,-118.14C709.33,-111.93 581.66,-96.14 475.75,-76 474.93,-75.84 474.09,-75.68 473.25,-75.51"/>
<polygon fill="#63b8ff" stroke="#63b8ff" points="474.2,-72.14 463.69,-73.45 472.73,-78.98 474.2,-72.14"/>
</a>
</g>
</g>
<!-- Node13 -->
<g id="Node000013" class="node">
<title>Node13</title>
<g id="a_Node000013"><a xlink:title=" ">
<polygon fill="#e0e0e0" stroke="#999999" points="662.38,-20 617.12,-20 617.12,0 662.38,0 662.38,-20"/>
<text xml:space="preserve" text-anchor="middle" x="639.75" y="-6.5" font-family="Helvetica,sans-Serif" font-size="10.00">stdio.h</text>
</a>
</g>
</g>
<!-- Node5&#45;&gt;Node13 -->
<g id="edge12_Node000005_Node000013" class="edge">
<title>Node5&#45;&gt;Node13</title>
<g id="a_edge12_Node000005_Node000013"><a xlink:title=" ">
<path fill="none" stroke="#63b8ff" d="M762.83,-120.91C700.65,-120.11 541.36,-114.29 508.75,-76 478.79,-40.82 557.64,-22.81 605.73,-15.34"/>
<polygon fill="#63b8ff" stroke="#63b8ff" points="606.03,-18.83 615.42,-13.92 605.02,-11.9 606.03,-18.83"/>
</a>
</g>
</g>
<!-- Node14 -->
<g id="Node000014" class="node">
<title>Node14</title>
<g id="a_Node000014"><a xlink:title=" ">
<polygon fill="#e0e0e0" stroke="#999999" points="585.25,-76 518.25,-76 518.25,-56 585.25,-56 585.25,-76"/>
<text xml:space="preserve" text-anchor="middle" x="551.75" y="-62.5" font-family="Helvetica,sans-Serif" font-size="10.00">sys/types.h</text>
</a>
</g>
</g>
<!-- Node5&#45;&gt;Node14 -->
<g id="edge14_Node000005_Node000014" class="edge">
<title>Node5&#45;&gt;Node14</title>
<g id="a_edge14_Node000005_Node000014"><a xlink:title=" ">
<path fill="none" stroke="#63b8ff" d="M762.49,-115.22C722.89,-106.16 645.63,-88.48 596.47,-77.23"/>
<polygon fill="#63b8ff" stroke="#63b8ff" points="597.53,-73.88 587,-75.07 595.97,-80.71 597.53,-73.88"/>
</a>
</g>
</g>
<!-- Node15 -->
<g id="Node000015" class="node">
<title>Node15</title>
<g id="a_Node000015"><a xlink:title=" ">
<polygon fill="#e0e0e0" stroke="#999999" points="662.5,-76 603,-76 603,-56 662.5,-56 662.5,-76"/>
<text xml:space="preserve" text-anchor="middle" x="632.75" y="-62.5" font-family="Helvetica,sans-Serif" font-size="10.00">sys/stat.h</text>
</a>
</g>
</g>
<!-- Node5&#45;&gt;Node15 -->
<g id="edge15_Node000005_Node000015" class="edge">
<title>Node5&#45;&gt;Node15</title>
<g id="a_edge15_Node000005_Node000015"><a xlink:title=" ">
<path fill="none" stroke="#63b8ff" d="M762.5,-112.2C737.59,-103.52 699.18,-90.14 670.61,-80.19"/>
<polygon fill="#63b8ff" stroke="#63b8ff" points="671.84,-76.91 661.24,-76.93 669.53,-83.52 671.84,-76.91"/>
</a>
</g>
</g>
<!-- Node16 -->
<g id="Node000016" class="node">
<title>Node16</title>
<g id="a_Node000016"><a xlink:title=" ">
<polygon fill="#e0e0e0" stroke="#999999" points="805.75,-20 759.75,-20 759.75,0 805.75,0 805.75,-20"/>
<text xml:space="preserve" text-anchor="middle" x="782.75" y="-6.5" font-family="Helvetica,sans-Serif" font-size="10.00">math.h</text>
</a>
</g>
</g>
<!-- Node5&#45;&gt;Node16 -->
<g id="edge16_Node000005_Node000016" class="edge">
<title>Node5&#45;&gt;Node16</title>
<g id="a_edge16_Node000005_Node000016"><a xlink:title=" ">
<path fill="none" stroke="#63b8ff" d="M812.94,-120.52C944.43,-117.89 1547,-104.32 1573.75,-76 1579.85,-69.54 1579.85,-62.46 1573.75,-56 1547.4,-28.1 965.68,-14.64 817.07,-11.65"/>
<polygon fill="#63b8ff" stroke="#63b8ff" points="817.55,-8.16 807.48,-11.46 817.41,-15.16 817.55,-8.16"/>
</a>
</g>
</g>
<!-- Node17 -->
<g id="Node000017" class="node">
<title>Node17</title>
<g id="a_Node000017"><a xlink:title=" ">
<polygon fill="#e0e0e0" stroke="#999999" points="814.88,-76 760.62,-76 760.62,-56 814.88,-56 814.88,-76"/>
<text xml:space="preserve" text-anchor="middle" x="787.75" y="-62.5" font-family="Helvetica,sans-Serif" font-size="10.00">gtk/gtk.h</text>
</a>
</g>
</g>
<!-- Node5&#45;&gt;Node17 -->
<g id="edge17_Node000005_Node000017" class="edge">
<title>Node5&#45;&gt;Node17</title>
<g id="a_edge17_Node000005_Node000017"><a xlink:title=" ">
<path fill="none" stroke="#63b8ff" d="M787.75,-111.59C787.75,-105.01 787.75,-95.96 787.75,-87.73"/>
<polygon fill="#63b8ff" stroke="#63b8ff" points="791.25,-87.81 787.75,-77.81 784.25,-87.81 791.25,-87.81"/>
</a>
</g>
</g>
<!-- Node18 -->
<g id="Node000018" class="node">
<title>Node18</title>
<g id="a_Node000018"><a xlink:title=" ">
<polygon fill="#e0e0e0" stroke="#999999" points="892.5,-76 833,-76 833,-56 892.5,-56 892.5,-76"/>
<text xml:space="preserve" text-anchor="middle" x="862.75" y="-62.5" font-family="Helvetica,sans-Serif" font-size="10.00">gtk/gtkx.h</text>
</a>
</g>
</g>
<!-- Node5&#45;&gt;Node18 -->
<g id="edge18_Node000005_Node000018" class="edge">
<title>Node5&#45;&gt;Node18</title>
<g id="a_edge18_Node000005_Node000018"><a xlink:title=" ">
<path fill="none" stroke="#63b8ff" d="M800.81,-111.59C811.72,-103.74 827.5,-92.38 840.41,-83.09"/>
<polygon fill="#63b8ff" stroke="#63b8ff" points="842.29,-86.05 848.36,-77.36 838.2,-80.37 842.29,-86.05"/>
</a>
</g>
</g>
<!-- Node19 -->
<g id="Node000019" class="node">
<title>Node19</title>
<g id="a_Node000019"><a xlink:title=" ">
<polygon fill="#e0e0e0" stroke="#999999" points="969.12,-76 910.38,-76 910.38,-56 969.12,-56 969.12,-76"/>
<text xml:space="preserve" text-anchor="middle" x="939.75" y="-62.5" font-family="Helvetica,sans-Serif" font-size="10.00">gdk/gdk.h</text>
</a>
</g>
</g>
<!-- Node5&#45;&gt;Node19 -->
<g id="edge19_Node000005_Node000019" class="edge">
<title>Node5&#45;&gt;Node19</title>
<g id="a_edge19_Node000005_Node000019"><a xlink:title=" ">
<path fill="none" stroke="#63b8ff" d="M812.85,-112.08C837.27,-103.41 874.65,-90.13 902.53,-80.22"/>
<polygon fill="#63b8ff" stroke="#63b8ff" points="903.4,-83.63 911.65,-76.98 901.06,-77.03 903.4,-83.63"/>
</a>
</g>
</g>
<!-- Node20 -->
<g id="Node000020" class="node">
<title>Node20</title>
<g id="a_Node000020"><a xlink:title=" ">
<polygon fill="#e0e0e0" stroke="#999999" points="1086,-76 987.5,-76 987.5,-56 1086,-56 1086,-76"/>
<text xml:space="preserve" text-anchor="middle" x="1036.75" y="-62.5" font-family="Helvetica,sans-Serif" font-size="10.00">gdk/gdkkeysyms.h</text>
</a>
</g>
</g>
<!-- Node5&#45;&gt;Node20 -->
<g id="edge20_Node000005_Node000020" class="edge">
<title>Node5&#45;&gt;Node20</title>
<g id="a_edge20_Node000005_Node000020"><a xlink:title=" ">
<path fill="none" stroke="#63b8ff" d="M813,-115.53C852.39,-106.98 929.41,-90.28 981.96,-78.88"/>
<polygon fill="#63b8ff" stroke="#63b8ff" points="982.6,-82.32 991.63,-76.78 981.12,-75.48 982.6,-82.32"/>
</a>
</g>
</g>
<!-- Node21 -->
<g id="Node000021" class="node">
<title>Node21</title>
<g id="a_Node000021"><a xlink:title=" ">
<polygon fill="#e0e0e0" stroke="#999999" points="1221.38,-76 1104.12,-76 1104.12,-56 1221.38,-56 1221.38,-76"/>
<text xml:space="preserve" text-anchor="middle" x="1162.75" y="-62.5" font-family="Helvetica,sans-Serif" font-size="10.00">gdk&#45;pixbuf/gdk&#45;pixbuf.h</text>
</a>
</g>
</g>
<!-- Node5&#45;&gt;Node21 -->
<g id="edge21_Node000005_Node000021" class="edge">
<title>Node5&#45;&gt;Node21</title>
<g id="a_edge21_Node000005_Node000021"><a xlink:title=" ">
<path fill="none" stroke="#63b8ff" d="M812.94,-117.37C869.38,-109.25 1007.68,-89.33 1092.5,-77.12"/>
<polygon fill="#63b8ff" stroke="#63b8ff" points="1092.95,-80.59 1102.35,-75.7 1091.95,-73.66 1092.95,-80.59"/>
</a>
</g>
</g>
<!-- Node22 -->
<g id="Node000022" class="node">
<title>Node22</title>
<g id="a_Node000022"><a xlink:title=" ">
<polygon fill="#e0e0e0" stroke="#999999" points="1330.25,-76 1239.25,-76 1239.25,-56 1330.25,-56 1330.25,-76"/>
<text xml:space="preserve" text-anchor="middle" x="1284.75" y="-62.5" font-family="Helvetica,sans-Serif" font-size="10.00">pango/pangoft2.h</text>
</a>
</g>
</g>
<!-- Node5&#45;&gt;Node22 -->
<g id="edge22_Node000005_Node000022" class="edge">
<title>Node5&#45;&gt;Node22</title>
<g id="a_edge22_Node000005_Node000022"><a xlink:title=" ">
<path fill="none" stroke="#63b8ff" d="M812.79,-119.02C878.87,-113.68 1063.59,-97.98 1227.56,-76.36"/>
<polygon fill="#63b8ff" stroke="#63b8ff" points="1227.87,-79.85 1237.32,-75.06 1226.95,-72.91 1227.87,-79.85"/>
</a>
</g>
</g>
<!-- Node23 -->
<g id="Node000023" class="node">
<title>Node23</title>
<g id="a_Node000023"><a xlink:title=" ">
<polygon fill="#e0e0e0" stroke="#999999" points="1409.25,-76 1348.25,-76 1348.25,-56 1409.25,-56 1409.25,-76"/>
<text xml:space="preserve" text-anchor="middle" x="1378.75" y="-62.5" font-family="Helvetica,sans-Serif" font-size="10.00">epoxy/gl.h</text>
</a>
</g>
</g>
<!-- Node5&#45;&gt;Node23 -->
<g id="edge23_Node000005_Node000023" class="edge">
<title>Node5&#45;&gt;Node23</title>
<g id="a_edge23_Node000005_Node000023"><a xlink:title=" ">
<path fill="none" stroke="#63b8ff" d="M812.94,-120.25C889.99,-117.68 1129.46,-107.68 1337.06,-76.21"/>
<polygon fill="#63b8ff" stroke="#63b8ff" points="1337.33,-79.71 1346.68,-74.73 1336.26,-72.79 1337.33,-79.71"/>
</a>
</g>
</g>
<!-- Node24 -->
<g id="Node000024" class="node">
<title>Node24</title>
<g id="a_Node000024"><a xlink:title=" ">
<polygon fill="#e0e0e0" stroke="#999999" points="1480.12,-76 1427.38,-76 1427.38,-56 1480.12,-56 1480.12,-76"/>
<text xml:space="preserve" text-anchor="middle" x="1453.75" y="-62.5" font-family="Helvetica,sans-Serif" font-size="10.00">GL/glu.h</text>
</a>
</g>
</g>
<!-- Node5&#45;&gt;Node24 -->
<g id="edge24_Node000005_Node000024" class="edge">
<title>Node5&#45;&gt;Node24</title>
<g id="a_edge24_Node000005_Node000024"><a xlink:title=" ">
<path fill="none" stroke="#63b8ff" d="M812.89,-120.83C897.03,-119.93 1176.5,-114.18 1415.74,-76.21"/>
<polygon fill="#63b8ff" stroke="#63b8ff" points="1416.29,-79.67 1425.61,-74.62 1415.18,-72.76 1416.29,-79.67"/>
</a>
</g>
</g>
<!-- Node25 -->
<g id="Node000025" class="node">
<title>Node25</title>
<g id="a_Node000025"><a xlink:title=" ">
<polygon fill="#e0e0e0" stroke="#999999" points="1564.88,-76 1498.62,-76 1498.62,-56 1564.88,-56 1564.88,-76"/>
<text xml:space="preserve" text-anchor="middle" x="1531.75" y="-62.5" font-family="Helvetica,sans-Serif" font-size="10.00">epoxy/glx.h</text>
</a>
</g>
</g>
<!-- Node5&#45;&gt;Node25 -->
<g id="edge25_Node000005_Node000025" class="edge">
<title>Node5&#45;&gt;Node25</title>
<g id="a_edge25_Node000005_Node000025"><a xlink:title=" ">
<path fill="none" stroke="#63b8ff" d="M813.03,-120.67C903.18,-119.24 1217.47,-111.92 1487.3,-75.96"/>
<polygon fill="#63b8ff" stroke="#63b8ff" points="1487.56,-79.46 1497,-74.65 1486.62,-72.52 1487.56,-79.46"/>
</a>
</g>
</g>
<!-- Node26 -->
<g id="Node000026" class="node">
<title>Node26</title>
<g id="a_Node000026"><a xlink:href="../../dc/db0/math__3d_8h.html" target="_top" xlink:title="Functions for OpenGL math.">
<polygon fill="white" stroke="#666666" points="742.62,-76 680.88,-76 680.88,-56 742.62,-56 742.62,-76"/>
<text xml:space="preserve" text-anchor="middle" x="711.75" y="-62.5" font-family="Helvetica,sans-Serif" font-size="10.00">math_3d.h</text>
</a>
</g>
</g>
<!-- Node5&#45;&gt;Node26 -->
<g id="edge26_Node000005_Node000026" class="edge">
<title>Node5&#45;&gt;Node26</title>
<g id="a_edge26_Node000005_Node000026"><a xlink:title=" ">
<path fill="none" stroke="#63b8ff" d="M774.51,-111.59C763.46,-103.74 747.47,-92.38 734.39,-83.09"/>
<polygon fill="#63b8ff" stroke="#63b8ff" points="736.5,-80.3 726.33,-77.36 732.45,-86 736.5,-80.3"/>
</a>
</g>
</g>
<!-- Node27 -->
<g id="Node000027" class="node">
<title>Node27</title>
<g id="a_Node000027"><a xlink:href="../../d7/d21/cedit_8h.html" target="_top" xlink:title="Variable declarations for the curve layout edition window.">
<polygon fill="white" stroke="#666666" points="1666.38,-76 1621.12,-76 1621.12,-56 1666.38,-56 1666.38,-76"/>
<text xml:space="preserve" text-anchor="middle" x="1643.75" y="-62.5" font-family="Helvetica,sans-Serif" font-size="10.00">cedit.h</text>
</a>
</g>
</g>
<!-- Node5&#45;&gt;Node27 -->
<g id="edge29_Node000005_Node000027" class="edge">
<title>Node5&#45;&gt;Node27</title>
<g id="a_edge29_Node000005_Node000027"><a xlink:title=" ">
<path fill="none" stroke="#63b8ff" d="M813.05,-121.3C913.87,-122.12 1296.48,-121.86 1606.75,-76 1607.75,-75.85 1608.77,-75.69 1609.79,-75.51"/>
<polygon fill="#63b8ff" stroke="#63b8ff" points="1610.2,-79 1619.3,-73.58 1608.81,-72.14 1610.2,-79"/>
</a>
</g>
</g>
<!-- Node28 -->
<g id="Node000028" class="node">
<title>Node28</title>
<g id="a_Node000028"><a xlink:href="../../da/d7e/glwin_8h.html" target="_top" xlink:title="Variable declarations related the OpenGL window &#160;&#160;Data structure declarations related the OpenGL wind...">
<polygon fill="white" stroke="#666666" points="1731.12,-76 1684.38,-76 1684.38,-56 1731.12,-56 1731.12,-76"/>
<text xml:space="preserve" text-anchor="middle" x="1707.75" y="-62.5" font-family="Helvetica,sans-Serif" font-size="10.00">glwin.h</text>
</a>
</g>
</g>
<!-- Node5&#45;&gt;Node28 -->
<g id="edge30_Node000005_Node000028" class="edge">
<title>Node5&#45;&gt;Node28</title>
<g id="a_edge30_Node000005_Node000028"><a xlink:title=" ">
<path fill="none" stroke="#63b8ff" d="M813.11,-120.48C937.08,-117.82 1480.66,-104.83 1672.79,-76.07"/>
<polygon fill="#63b8ff" stroke="#63b8ff" points="1673.29,-79.53 1682.62,-74.52 1672.2,-72.61 1673.29,-79.53"/>
</a>
</g>
</g>
<!-- Node26&#45;&gt;Node13 -->
<g id="edge28_Node000026_Node000013" class="edge">
<title>Node26&#45;&gt;Node13</title>
<g id="a_edge28_Node000026_Node000013"><a xlink:title=" ">
<path fill="none" stroke="#63b8ff" d="M699.21,-55.59C688.78,-47.77 673.7,-36.46 661.34,-27.19"/>
<polygon fill="#63b8ff" stroke="#63b8ff" points="663.46,-24.41 653.36,-21.21 659.26,-30.01 663.46,-24.41"/>
</a>
</g>
</g>
<!-- Node26&#45;&gt;Node16 -->
<g id="edge27_Node000026_Node000016" class="edge">
<title>Node26&#45;&gt;Node16</title>
<g id="a_edge27_Node000026_Node000016"><a xlink:title=" ">
<path fill="none" stroke="#63b8ff" d="M724.12,-55.59C734.4,-47.77 749.27,-36.46 761.46,-27.19"/>
<polygon fill="#63b8ff" stroke="#63b8ff" points="763.48,-30.05 769.32,-21.21 759.24,-24.48 763.48,-30.05"/>
</a>
</g>
</g>
<!-- Node29 -->
<g id="Node000029" class="node">
<title>Node29</title>
<g id="a_Node000029"><a xlink:href="../../d5/d9e/ogl__shading_8h.html" target="_top" xlink:title="Variable declarations related to GLSL programs &#160;&#160;Data structure declarations related to GLSL programs...">
<polygon fill="white" stroke="#666666" points="1745.75,-20 1669.75,-20 1669.75,0 1745.75,0 1745.75,-20"/>
<text xml:space="preserve" text-anchor="middle" x="1707.75" y="-6.5" font-family="Helvetica,sans-Serif" font-size="10.00">ogl_shading.h</text>
</a>
</g>
</g>
<!-- Node28&#45;&gt;Node29 -->
<g id="edge31_Node000028_Node000029" class="edge">
<title>Node28&#45;&gt;Node29</title>
<g id="a_edge31_Node000028_Node000029"><a xlink:title=" ">
<path fill="none" stroke="#63b8ff" d="M1707.75,-55.59C1707.75,-49.01 1707.75,-39.96 1707.75,-31.73"/>
<polygon fill="#63b8ff" stroke="#63b8ff" points="1711.25,-31.81 1707.75,-21.81 1704.25,-31.81 1711.25,-31.81"/>
</a>
</g>
</g>
<!-- Node30&#45;&gt;Node5 -->
<g id="edge33_Node000030_Node000005" class="edge">
<title>Node30&#45;&gt;Node5</title>
<g id="a_edge33_Node000030_Node000005"><a xlink:title=" ">
<path fill="none" stroke="#63b8ff" d="M744.81,-167.59C751.97,-160.16 762.16,-149.58 770.82,-140.58"/>
<polygon fill="#63b8ff" stroke="#63b8ff" points="773.33,-143.02 777.75,-133.39 768.29,-138.16 773.33,-143.02"/>
</a>
</g>
</g>
</g>
</svg>
