<?xml version="1.0" encoding="UTF-8" standalone="no"?>
<!DOCTYPE svg PUBLIC "-//W3C//DTD SVG 1.1//EN"
 "http://www.w3.org/Graphics/SVG/1.1/DTD/svg11.dtd">
<!-- Generated by graphviz version 2.43.0 (0)
 -->
<!-- Title: curve/legend.c Pages: 1 -->
<!--zoomable 247 -->

<svg id="main" version="1.1" xmlns="http://www.w3.org/2000/svg" xmlns:xlink="http://www.w3.org/1999/xlink" xml:space="preserve" onload="init(evt)">
<style type="text/css"><![CDATA[
.node, .edge {opacity: 0.7;}
.node.selected, .edge.selected {opacity: 1;}
.edge:hover path { stroke: red; }
.edge:hover polygon { stroke: red; fill: red; }
]]></style>

<defs>
  <circle id="rim" cx="0" cy="0" r="7"/>
  <circle id="rim2" cx="0" cy="0" r="3.5"/>
  <g id="zoomPlus">
    <use xlink:href="#rim" fill="#404040"><set attributeName="fill" to="#808080" begin="zoomplus.mouseover" end="zoomplus.mouseout"/></use>
    <path d="M-4,0h8M0,-4v8" fill="none" stroke="white" stroke-width="1.5" pointer-events="none"/>
  </g>
  <g id="zoomMin">
    <use xlink:href="#rim" fill="#404040"><set attributeName="fill" to="#808080" begin="zoomminus.mouseover" end="zoomminus.mouseout"/></use>
    <path d="M-4,0h8" fill="none" stroke="white" stroke-width="1.5" pointer-events="none"/>
  </g>
  <g id="arrowUp" transform="translate(30 24)">
    <use xlink:href="#rim"/>
    <path pointer-events="none" fill="none" stroke="white" stroke-width="1.5" d="M0,-3.0v7 M-2.5,-0.5L0,-3.0L2.5,-0.5"/>
  </g>
  <g id="arrowRight" transform="rotate(90) translate(36 -43)">
    <use xlink:href="#rim"/>
    <path pointer-events="none" fill="none" stroke="white" stroke-width="1.5" d="M0,-3.0v7 M-2.5,-0.5L0,-3.0L2.5,-0.5"/>
  </g>
  <g id="arrowDown" transform="rotate(180) translate(-30 -48)">
    <use xlink:href="#rim"/>
    <path pointer-events="none" fill="none" stroke="white" stroke-width="1.5" d="M0,-3.0v7 M-2.5,-0.5L0,-3.0L2.5,-0.5"/>
  </g>
  <g id="arrowLeft" transform="rotate(270) translate(-36 17)">
    <use xlink:href="#rim"/>
    <path pointer-events="none" fill="none" stroke="white" stroke-width="1.5" d="M0,-3.0v7 M-2.5,-0.5L0,-3.0L2.5,-0.5"/>
  </g>
  <g id="resetDef">
    <use xlink:href="#rim2" fill="#404040"><set attributeName="fill" to="#808080" begin="reset.mouseover" end="reset.mouseout"/></use>
  </g>
</defs>
<script type="application/ecmascript">
var viewWidth = 1735;
var viewHeight = 247;
var sectionId = 'dynsection-0';
</script>
<script type="application/ecmascript" xlink:href="../../svg.min.js"/>
<svg id="graph" class="graph">
<g id="viewport">
<title>curve/legend.c</title>
<!-- Node1 -->
<g id="Node000001" class="node">
<title>Node1</title>
<g id="a_Node000001"><a xlink:title="Function to draw the legend.">
<polygon fill="#999999" stroke="#666666" points="637.5,-239 549.5,-239 549.5,-220 637.5,-220 637.5,-239"/>
<text text-anchor="middle" x="593.5" y="-227" font-family="Helvetica,sans-Serif" font-size="10.00">curve/legend.c</text>
</a>
</g>
</g>
<!-- Node2 -->
<g id="Node000002" class="node">
<title>Node2</title>
<g id="a_Node000002"><a xlink:title=" ">
<polygon fill="#e0e0e0" stroke="#999999" points="53,-74 0,-74 0,-55 53,-55 53,-74"/>
<text text-anchor="middle" x="26.5" y="-62" font-family="Helvetica,sans-Serif" font-size="10.00">stdlib.h</text>
</a>
</g>
</g>
<!-- Node1&#45;&gt;Node2 -->
<g id="edge1_Node000001_Node000002" class="edge">
<title>Node1&#45;&gt;Node2</title>
<g id="a_edge1_Node000001_Node000002"><a xlink:title=" ">
<path fill="none" stroke="#63b8ff" d="M563.81,-219.97C468.11,-192.45 167.84,-106.13 63.03,-76"/>
<polygon fill="#63b8ff" stroke="#63b8ff" points="63.8,-72.58 53.23,-73.18 61.87,-79.31 63.8,-72.58"/>
</a>
</g>
</g>
<!-- Node3 -->
<g id="Node000003" class="node">
<title>Node3</title>
<g id="a_Node000003"><a xlink:title=" ">
<polygon fill="#e0e0e0" stroke="#999999" points="518.5,-184 468.5,-184 468.5,-165 518.5,-165 518.5,-184"/>
<text text-anchor="middle" x="493.5" y="-172" font-family="Helvetica,sans-Serif" font-size="10.00">cairo.h</text>
</a>
</g>
</g>
<!-- Node1&#45;&gt;Node3 -->
<g id="edge2_Node000001_Node000003" class="edge">
<title>Node1&#45;&gt;Node3</title>
<g id="a_edge2_Node000001_Node000003"><a xlink:title=" ">
<path fill="none" stroke="#63b8ff" d="M577.43,-219.98C561.64,-211.61 537.28,-198.7 518.87,-188.95"/>
<polygon fill="#63b8ff" stroke="#63b8ff" points="520.33,-185.76 509.86,-184.17 517.06,-191.95 520.33,-185.76"/>
</a>
</g>
</g>
<!-- Node4 -->
<g id="Node000004" class="node">
<title>Node4</title>
<g id="a_Node000004"><a xlink:title=" ">
<polygon fill="#e0e0e0" stroke="#999999" points="650,-184 537,-184 537,-165 650,-165 650,-184"/>
<text text-anchor="middle" x="593.5" y="-172" font-family="Helvetica,sans-Serif" font-size="10.00">pango/pangocairo.h</text>
</a>
</g>
</g>
<!-- Node1&#45;&gt;Node4 -->
<g id="edge3_Node000001_Node000004" class="edge">
<title>Node1&#45;&gt;Node4</title>
<g id="a_edge3_Node000001_Node000004"><a xlink:title=" ">
<path fill="none" stroke="#63b8ff" d="M593.5,-219.75C593.5,-212.8 593.5,-202.85 593.5,-194.13"/>
<polygon fill="#63b8ff" stroke="#63b8ff" points="597,-194.09 593.5,-184.09 590,-194.09 597,-194.09"/>
</a>
</g>
</g>
<!-- Node5 -->
<g id="Node000005" class="node">
<title>Node5</title>
<g id="a_Node000005"><a xlink:href="../../d2/d49/global_8h.html" target="_top" xlink:title="Global variable declarations &#160;&#160;Global convenience function declarations &#160;&#160;Global data structure defin...">
<polygon fill="white" stroke="#666666" points="777.5,-129 721.5,-129 721.5,-110 777.5,-110 777.5,-129"/>
<text text-anchor="middle" x="749.5" y="-117" font-family="Helvetica,sans-Serif" font-size="10.00">global.h</text>
</a>
</g>
</g>
<!-- Node1&#45;&gt;Node5 -->
<g id="edge4_Node000001_Node000005" class="edge">
<title>Node1&#45;&gt;Node5</title>
<g id="a_edge4_Node000001_Node000005"><a xlink:title=" ">
<path fill="none" stroke="#63b8ff" d="M637.65,-224.74C667.63,-219.93 706.12,-208.95 730.5,-184 742.18,-172.05 746.72,-153.23 748.46,-139.18"/>
<polygon fill="#63b8ff" stroke="#63b8ff" points="751.96,-139.42 749.35,-129.15 744.98,-138.8 751.96,-139.42"/>
</a>
</g>
</g>
<!-- Node27 -->
<g id="Node000027" class="node">
<title>Node27</title>
<g id="a_Node000027"><a xlink:href="../../df/de9/curve_8h.html" target="_top" xlink:title="Variable declarations for the curve widget &#160;&#160;Functions for interactions with the curve widget.">
<polygon fill="white" stroke="#666666" points="721,-184 668,-184 668,-165 721,-165 721,-184"/>
<text text-anchor="middle" x="694.5" y="-172" font-family="Helvetica,sans-Serif" font-size="10.00">curve.h</text>
</a>
</g>
</g>
<!-- Node1&#45;&gt;Node27 -->
<g id="edge29_Node000001_Node000027" class="edge">
<title>Node1&#45;&gt;Node27</title>
<g id="a_edge29_Node000001_Node000027"><a xlink:title=" ">
<path fill="none" stroke="#63b8ff" d="M609.73,-219.98C625.68,-211.61 650.28,-198.7 668.88,-188.95"/>
<polygon fill="#63b8ff" stroke="#63b8ff" points="670.75,-191.92 677.98,-184.17 667.5,-185.72 670.75,-191.92"/>
</a>
</g>
</g>
<!-- Node5&#45;&gt;Node2 -->
<g id="edge11_Node000005_Node000002" class="edge">
<title>Node5&#45;&gt;Node2</title>
<g id="a_edge11_Node000005_Node000002"><a xlink:title=" ">
<path fill="none" stroke="#63b8ff" d="M721.18,-118.36C628.22,-117.53 323.92,-112.02 63.18,-73.8"/>
<polygon fill="#63b8ff" stroke="#63b8ff" points="63.55,-70.32 53.14,-72.31 62.52,-77.24 63.55,-70.32"/>
</a>
</g>
</g>
<!-- Node6 -->
<g id="Node000006" class="node">
<title>Node6</title>
<g id="a_Node000006"><a xlink:title=" ">
<polygon fill="#e0e0e0" stroke="#999999" points="1726.5,-74 1682.5,-74 1682.5,-55 1726.5,-55 1726.5,-74"/>
<text text-anchor="middle" x="1704.5" y="-62" font-family="Helvetica,sans-Serif" font-size="10.00">glib.h</text>
</a>
</g>
</g>
<!-- Node5&#45;&gt;Node6 -->
<g id="edge5_Node000005_Node000006" class="edge">
<title>Node5&#45;&gt;Node6</title>
<g id="a_edge5_Node000005_Node000006"><a xlink:title=" ">
<path fill="none" stroke="#63b8ff" d="M777.66,-117.98C910.35,-115.39 1474.72,-102.94 1672.31,-73.76"/>
<polygon fill="#63b8ff" stroke="#63b8ff" points="1672.93,-77.2 1682.28,-72.22 1671.86,-70.29 1672.93,-77.2"/>
</a>
</g>
</g>
<!-- Node7 -->
<g id="Node000007" class="node">
<title>Node7</title>
<g id="a_Node000007"><a xlink:title=" ">
<polygon fill="#e0e0e0" stroke="#999999" points="145.5,-74 71.5,-74 71.5,-55 145.5,-55 145.5,-74"/>
<text text-anchor="middle" x="108.5" y="-62" font-family="Helvetica,sans-Serif" font-size="10.00">glib/gi18n.h</text>
</a>
</g>
</g>
<!-- Node5&#45;&gt;Node7 -->
<g id="edge6_Node000005_Node000007" class="edge">
<title>Node5&#45;&gt;Node7</title>
<g id="a_edge6_Node000005_Node000007"><a xlink:title=" ">
<path fill="none" stroke="#63b8ff" d="M721.21,-117.47C636.79,-114.17 379.21,-102.43 155.55,-73.99"/>
<polygon fill="#63b8ff" stroke="#63b8ff" points="155.97,-70.52 145.6,-72.71 155.07,-77.46 155.97,-70.52"/>
</a>
</g>
</g>
<!-- Node8 -->
<g id="Node000008" class="node">
<title>Node8</title>
<g id="a_Node000008"><a xlink:title=" ">
<polygon fill="#e0e0e0" stroke="#999999" points="219,-74 164,-74 164,-55 219,-55 219,-74"/>
<text text-anchor="middle" x="191.5" y="-62" font-family="Helvetica,sans-Serif" font-size="10.00">locale.h</text>
</a>
</g>
</g>
<!-- Node5&#45;&gt;Node8 -->
<g id="edge7_Node000005_Node000008" class="edge">
<title>Node5&#45;&gt;Node8</title>
<g id="a_edge7_Node000005_Node000008"><a xlink:title=" ">
<path fill="none" stroke="#63b8ff" d="M721.38,-117.49C644.28,-114.42 423.01,-103.66 229.37,-73.9"/>
<polygon fill="#63b8ff" stroke="#63b8ff" points="229.72,-70.41 219.3,-72.33 228.64,-77.33 229.72,-70.41"/>
</a>
</g>
</g>
<!-- Node9 -->
<g id="Node000009" class="node">
<title>Node9</title>
<g id="a_Node000009"><a xlink:title=" ">
<polygon fill="#e0e0e0" stroke="#999999" points="293.5,-74 237.5,-74 237.5,-55 293.5,-55 293.5,-74"/>
<text text-anchor="middle" x="265.5" y="-62" font-family="Helvetica,sans-Serif" font-size="10.00">unistd.h</text>
</a>
</g>
</g>
<!-- Node5&#45;&gt;Node9 -->
<g id="edge8_Node000005_Node000009" class="edge">
<title>Node5&#45;&gt;Node9</title>
<g id="a_edge8_Node000005_Node000009"><a xlink:title=" ">
<path fill="none" stroke="#63b8ff" d="M721.36,-116.94C652.05,-112.83 467.47,-100.3 303.95,-74.04"/>
<polygon fill="#63b8ff" stroke="#63b8ff" points="304.14,-70.52 293.71,-72.37 303.02,-77.43 304.14,-70.52"/>
</a>
</g>
</g>
<!-- Node10 -->
<g id="Node000010" class="node">
<title>Node10</title>
<g id="a_Node000010"><a xlink:title=" ">
<polygon fill="#e0e0e0" stroke="#999999" points="365,-74 312,-74 312,-55 365,-55 365,-74"/>
<text text-anchor="middle" x="338.5" y="-62" font-family="Helvetica,sans-Serif" font-size="10.00">string.h</text>
</a>
</g>
</g>
<!-- Node5&#45;&gt;Node10 -->
<g id="edge9_Node000005_Node000010" class="edge">
<title>Node5&#45;&gt;Node10</title>
<g id="a_edge9_Node000005_Node000010"><a xlink:title=" ">
<path fill="none" stroke="#63b8ff" d="M721.07,-115.91C658.89,-110.06 506.24,-94.72 379.5,-74 378.21,-73.79 376.9,-73.57 375.57,-73.33"/>
<polygon fill="#63b8ff" stroke="#63b8ff" points="375.82,-69.82 365.35,-71.41 374.52,-76.7 375.82,-69.82"/>
</a>
</g>
</g>
<!-- Node11 -->
<g id="Node000011" class="node">
<title>Node11</title>
<g id="a_Node000011"><a xlink:title=" ">
<polygon fill="#e0e0e0" stroke="#999999" points="576.5,-19 526.5,-19 526.5,0 576.5,0 576.5,-19"/>
<text text-anchor="middle" x="551.5" y="-7" font-family="Helvetica,sans-Serif" font-size="10.00">stdio.h</text>
</a>
</g>
</g>
<!-- Node5&#45;&gt;Node11 -->
<g id="edge10_Node000005_Node000011" class="edge">
<title>Node5&#45;&gt;Node11</title>
<g id="a_edge10_Node000005_Node000011"><a xlink:title=" ">
<path fill="none" stroke="#63b8ff" d="M721.37,-116.88C644.07,-112.14 432.8,-97.16 412.5,-74 380.51,-37.51 465.18,-20.75 516.15,-14.15"/>
<polygon fill="#63b8ff" stroke="#63b8ff" points="516.65,-17.62 526.15,-12.93 515.8,-10.67 516.65,-17.62"/>
</a>
</g>
</g>
<!-- Node12 -->
<g id="Node000012" class="node">
<title>Node12</title>
<g id="a_Node000012"><a xlink:title=" ">
<polygon fill="#e0e0e0" stroke="#999999" points="493.5,-74 421.5,-74 421.5,-55 493.5,-55 493.5,-74"/>
<text text-anchor="middle" x="457.5" y="-62" font-family="Helvetica,sans-Serif" font-size="10.00">sys/types.h</text>
</a>
</g>
</g>
<!-- Node5&#45;&gt;Node12 -->
<g id="edge12_Node000005_Node000012" class="edge">
<title>Node5&#45;&gt;Node12</title>
<g id="a_edge12_Node000005_Node000012"><a xlink:title=" ">
<path fill="none" stroke="#63b8ff" d="M721.33,-113.51C677.21,-105.66 588.84,-89.89 503.91,-74.25"/>
<polygon fill="#63b8ff" stroke="#63b8ff" points="504.31,-70.76 493.84,-72.39 503.04,-77.65 504.31,-70.76"/>
</a>
</g>
</g>
<!-- Node13 -->
<g id="Node000013" class="node">
<title>Node13</title>
<g id="a_Node000013"><a xlink:title=" ">
<polygon fill="#e0e0e0" stroke="#999999" points="575.5,-74 511.5,-74 511.5,-55 575.5,-55 575.5,-74"/>
<text text-anchor="middle" x="543.5" y="-62" font-family="Helvetica,sans-Serif" font-size="10.00">sys/stat.h</text>
</a>
</g>
</g>
<!-- Node5&#45;&gt;Node13 -->
<g id="edge13_Node000005_Node000013" class="edge">
<title>Node5&#45;&gt;Node13</title>
<g id="a_edge13_Node000005_Node000013"><a xlink:title=" ">
<path fill="none" stroke="#63b8ff" d="M721.29,-111.24C686.24,-102.22 626.13,-86.76 585.62,-76.34"/>
<polygon fill="#63b8ff" stroke="#63b8ff" points="586.33,-72.9 575.77,-73.8 584.58,-79.68 586.33,-72.9"/>
</a>
</g>
</g>
<!-- Node14 -->
<g id="Node000014" class="node">
<title>Node14</title>
<g id="a_Node000014"><a xlink:title=" ">
<polygon fill="#e0e0e0" stroke="#999999" points="728,-19 677,-19 677,0 728,0 728,-19"/>
<text text-anchor="middle" x="702.5" y="-7" font-family="Helvetica,sans-Serif" font-size="10.00">math.h</text>
</a>
</g>
</g>
<!-- Node5&#45;&gt;Node14 -->
<g id="edge14_Node000005_Node000014" class="edge">
<title>Node5&#45;&gt;Node14</title>
<g id="a_edge14_Node000005_Node000014"><a xlink:title=" ">
<path fill="none" stroke="#63b8ff" d="M777.58,-117.86C908.89,-114.72 1456.93,-100.11 1481.5,-74 1487.29,-67.85 1487.3,-61.14 1481.5,-55 1455.67,-27.65 887.97,-14.26 738.37,-11.19"/>
<polygon fill="#63b8ff" stroke="#63b8ff" points="738.4,-7.69 728.33,-10.99 738.26,-14.69 738.4,-7.69"/>
</a>
</g>
</g>
<!-- Node15 -->
<g id="Node000015" class="node">
<title>Node15</title>
<g id="a_Node000015"><a xlink:title=" ">
<polygon fill="#e0e0e0" stroke="#999999" points="739.5,-74 679.5,-74 679.5,-55 739.5,-55 739.5,-74"/>
<text text-anchor="middle" x="709.5" y="-62" font-family="Helvetica,sans-Serif" font-size="10.00">gtk/gtk.h</text>
</a>
</g>
</g>
<!-- Node5&#45;&gt;Node15 -->
<g id="edge15_Node000005_Node000015" class="edge">
<title>Node5&#45;&gt;Node15</title>
<g id="a_edge15_Node000005_Node000015"><a xlink:title=" ">
<path fill="none" stroke="#63b8ff" d="M742.89,-109.75C737.24,-102.26 728.96,-91.28 722.05,-82.13"/>
<polygon fill="#63b8ff" stroke="#63b8ff" points="724.8,-79.96 715.98,-74.09 719.21,-84.18 724.8,-79.96"/>
</a>
</g>
</g>
<!-- Node16 -->
<g id="Node000016" class="node">
<title>Node16</title>
<g id="a_Node000016"><a xlink:title=" ">
<polygon fill="#e0e0e0" stroke="#999999" points="823,-74 758,-74 758,-55 823,-55 823,-74"/>
<text text-anchor="middle" x="790.5" y="-62" font-family="Helvetica,sans-Serif" font-size="10.00">gdk/gdk.h</text>
</a>
</g>
</g>
<!-- Node5&#45;&gt;Node16 -->
<g id="edge16_Node000005_Node000016" class="edge">
<title>Node5&#45;&gt;Node16</title>
<g id="a_edge16_Node000005_Node000016"><a xlink:title=" ">
<path fill="none" stroke="#63b8ff" d="M756.27,-109.75C762.06,-102.26 770.56,-91.28 777.64,-82.13"/>
<polygon fill="#63b8ff" stroke="#63b8ff" points="780.51,-84.14 783.86,-74.09 774.97,-79.86 780.51,-84.14"/>
</a>
</g>
</g>
<!-- Node17 -->
<g id="Node000017" class="node">
<title>Node17</title>
<g id="a_Node000017"><a xlink:title=" ">
<polygon fill="#e0e0e0" stroke="#999999" points="949.5,-74 841.5,-74 841.5,-55 949.5,-55 949.5,-74"/>
<text text-anchor="middle" x="895.5" y="-62" font-family="Helvetica,sans-Serif" font-size="10.00">gdk/gdkkeysyms.h</text>
</a>
</g>
</g>
<!-- Node5&#45;&gt;Node17 -->
<g id="edge17_Node000005_Node000017" class="edge">
<title>Node5&#45;&gt;Node17</title>
<g id="a_edge17_Node000005_Node000017"><a xlink:title=" ">
<path fill="none" stroke="#63b8ff" d="M772.96,-109.98C797.08,-101.23 834.87,-87.51 862.1,-77.62"/>
<polygon fill="#63b8ff" stroke="#63b8ff" points="863.41,-80.87 871.62,-74.17 861.02,-74.29 863.41,-80.87"/>
</a>
</g>
</g>
<!-- Node18 -->
<g id="Node000018" class="node">
<title>Node18</title>
<g id="a_Node000018"><a xlink:title=" ">
<polygon fill="#e0e0e0" stroke="#999999" points="1101,-74 968,-74 968,-55 1101,-55 1101,-74"/>
<text text-anchor="middle" x="1034.5" y="-62" font-family="Helvetica,sans-Serif" font-size="10.00">gdk&#45;pixbuf/gdk&#45;pixbuf.h</text>
</a>
</g>
</g>
<!-- Node5&#45;&gt;Node18 -->
<g id="edge18_Node000005_Node000018" class="edge">
<title>Node5&#45;&gt;Node18</title>
<g id="a_edge18_Node000005_Node000018"><a xlink:title=" ">
<path fill="none" stroke="#63b8ff" d="M777.61,-113.27C824.14,-104.62 918.03,-87.16 978.49,-75.92"/>
<polygon fill="#63b8ff" stroke="#63b8ff" points="979.45,-79.3 988.64,-74.03 978.17,-72.42 979.45,-79.3"/>
</a>
</g>
</g>
<!-- Node19 -->
<g id="Node000019" class="node">
<title>Node19</title>
<g id="a_Node000019"><a xlink:title=" ">
<polygon fill="#e0e0e0" stroke="#999999" points="1220,-74 1119,-74 1119,-55 1220,-55 1220,-74"/>
<text text-anchor="middle" x="1169.5" y="-62" font-family="Helvetica,sans-Serif" font-size="10.00">pango/pangoft2.h</text>
</a>
</g>
</g>
<!-- Node5&#45;&gt;Node19 -->
<g id="edge19_Node000005_Node000019" class="edge">
<title>Node5&#45;&gt;Node19</title>
<g id="a_edge19_Node000005_Node000019"><a xlink:title=" ">
<path fill="none" stroke="#63b8ff" d="M777.61,-115.23C836.85,-108.31 979.1,-91.45 1108.86,-74.2"/>
<polygon fill="#63b8ff" stroke="#63b8ff" points="1109.53,-77.64 1118.98,-72.85 1108.6,-70.7 1109.53,-77.64"/>
</a>
</g>
</g>
<!-- Node20 -->
<g id="Node000020" class="node">
<title>Node20</title>
<g id="a_Node000020"><a xlink:title=" ">
<polygon fill="#e0e0e0" stroke="#999999" points="1306.5,-74 1238.5,-74 1238.5,-55 1306.5,-55 1306.5,-74"/>
<text text-anchor="middle" x="1272.5" y="-62" font-family="Helvetica,sans-Serif" font-size="10.00">epoxy/gl.h</text>
</a>
</g>
</g>
<!-- Node5&#45;&gt;Node20 -->
<g id="edge20_Node000005_Node000020" class="edge">
<title>Node5&#45;&gt;Node20</title>
<g id="a_edge20_Node000005_Node000020"><a xlink:title=" ">
<path fill="none" stroke="#63b8ff" d="M777.75,-116.9C850.66,-112.55 1051.25,-99.21 1228.27,-74.03"/>
<polygon fill="#63b8ff" stroke="#63b8ff" points="1228.89,-77.48 1238.29,-72.59 1227.89,-70.55 1228.89,-77.48"/>
</a>
</g>
</g>
<!-- Node21 -->
<g id="Node000021" class="node">
<title>Node21</title>
<g id="a_Node000021"><a xlink:title=" ">
<polygon fill="#e0e0e0" stroke="#999999" points="1380.5,-74 1324.5,-74 1324.5,-55 1380.5,-55 1380.5,-74"/>
<text text-anchor="middle" x="1352.5" y="-62" font-family="Helvetica,sans-Serif" font-size="10.00">GL/glu.h</text>
</a>
</g>
</g>
<!-- Node5&#45;&gt;Node21 -->
<g id="edge21_Node000005_Node000021" class="edge">
<title>Node5&#45;&gt;Node21</title>
<g id="a_edge21_Node000005_Node000021"><a xlink:title=" ">
<path fill="none" stroke="#63b8ff" d="M777.64,-117.75C859.21,-115.28 1102.88,-105.71 1314.26,-73.96"/>
<polygon fill="#63b8ff" stroke="#63b8ff" points="1314.94,-77.39 1324.3,-72.43 1313.89,-70.47 1314.94,-77.39"/>
</a>
</g>
</g>
<!-- Node22 -->
<g id="Node000022" class="node">
<title>Node22</title>
<g id="a_Node000022"><a xlink:title=" ">
<polygon fill="#e0e0e0" stroke="#999999" points="1472.5,-74 1398.5,-74 1398.5,-55 1472.5,-55 1472.5,-74"/>
<text text-anchor="middle" x="1435.5" y="-62" font-family="Helvetica,sans-Serif" font-size="10.00">epoxy/glx.h</text>
</a>
</g>
</g>
<!-- Node5&#45;&gt;Node22 -->
<g id="edge22_Node000005_Node000022" class="edge">
<title>Node5&#45;&gt;Node22</title>
<g id="a_edge22_Node000005_Node000022"><a xlink:title=" ">
<path fill="none" stroke="#63b8ff" d="M777.68,-117.68C866.15,-114.87 1146.34,-104.13 1388.36,-73.99"/>
<polygon fill="#63b8ff" stroke="#63b8ff" points="1388.91,-77.45 1398.4,-72.73 1388.04,-70.51 1388.91,-77.45"/>
</a>
</g>
</g>
<!-- Node23 -->
<g id="Node000023" class="node">
<title>Node23</title>
<g id="a_Node000023"><a xlink:href="../../dc/db0/math__3d_8h.html" target="_top" xlink:title="Functions for OpenGL math.">
<polygon fill="white" stroke="#666666" points="661.5,-74 593.5,-74 593.5,-55 661.5,-55 661.5,-74"/>
<text text-anchor="middle" x="627.5" y="-62" font-family="Helvetica,sans-Serif" font-size="10.00">math_3d.h</text>
</a>
</g>
</g>
<!-- Node5&#45;&gt;Node23 -->
<g id="edge23_Node000005_Node000023" class="edge">
<title>Node5&#45;&gt;Node23</title>
<g id="a_edge23_Node000005_Node000023"><a xlink:title=" ">
<path fill="none" stroke="#63b8ff" d="M729.9,-109.98C710.18,-101.42 679.55,-88.11 656.92,-78.28"/>
<polygon fill="#63b8ff" stroke="#63b8ff" points="658.02,-74.94 647.46,-74.17 655.24,-81.37 658.02,-74.94"/>
</a>
</g>
</g>
<!-- Node24 -->
<g id="Node000024" class="node">
<title>Node24</title>
<g id="a_Node000024"><a xlink:href="../../da/d7e/glwin_8h.html" target="_top" xlink:title="Variable declarations related the OpenGL window &#160;&#160;Data structure declarations related the OpenGL wind...">
<polygon fill="white" stroke="#666666" points="1580.5,-74 1528.5,-74 1528.5,-55 1580.5,-55 1580.5,-74"/>
<text text-anchor="middle" x="1554.5" y="-62" font-family="Helvetica,sans-Serif" font-size="10.00">glwin.h</text>
</a>
</g>
</g>
<!-- Node5&#45;&gt;Node24 -->
<g id="edge26_Node000005_Node000024" class="edge">
<title>Node5&#45;&gt;Node24</title>
<g id="a_edge26_Node000005_Node000024"><a xlink:title=" ">
<path fill="none" stroke="#63b8ff" d="M777.78,-118.39C878.46,-117.69 1228.72,-112.45 1514.5,-74 1515.77,-73.83 1517.05,-73.64 1518.35,-73.44"/>
<polygon fill="#63b8ff" stroke="#63b8ff" points="1519.12,-76.86 1528.35,-71.65 1517.89,-69.96 1519.12,-76.86"/>
</a>
</g>
</g>
<!-- Node26 -->
<g id="Node000026" class="node">
<title>Node26</title>
<g id="a_Node000026"><a xlink:title=" ">
<polygon fill="#e0e0e0" stroke="#999999" points="1664.5,-74 1598.5,-74 1598.5,-55 1664.5,-55 1664.5,-74"/>
<text text-anchor="middle" x="1631.5" y="-62" font-family="Helvetica,sans-Serif" font-size="10.00">gtk/gtkx.h</text>
</a>
</g>
</g>
<!-- Node5&#45;&gt;Node26 -->
<g id="edge28_Node000005_Node000026" class="edge">
<title>Node5&#45;&gt;Node26</title>
<g id="a_edge28_Node000005_Node000026"><a xlink:title=" ">
<path fill="none" stroke="#63b8ff" d="M777.55,-118.5C882.85,-118.21 1264.65,-114.32 1588.07,-73.98"/>
<polygon fill="#63b8ff" stroke="#63b8ff" points="1588.62,-77.44 1598.1,-72.72 1587.74,-70.5 1588.62,-77.44"/>
</a>
</g>
</g>
<!-- Node23&#45;&gt;Node11 -->
<g id="edge25_Node000023_Node000011" class="edge">
<title>Node23&#45;&gt;Node11</title>
<g id="a_edge25_Node000023_Node000011"><a xlink:title=" ">
<path fill="none" stroke="#63b8ff" d="M615.29,-54.98C603.72,-46.92 586.12,-34.65 572.34,-25.03"/>
<polygon fill="#63b8ff" stroke="#63b8ff" points="574.14,-22.02 563.93,-19.17 570.13,-27.76 574.14,-22.02"/>
</a>
</g>
</g>
<!-- Node23&#45;&gt;Node14 -->
<g id="edge24_Node000023_Node000014" class="edge">
<title>Node23&#45;&gt;Node14</title>
<g id="a_edge24_Node000023_Node000014"><a xlink:title=" ">
<path fill="none" stroke="#63b8ff" d="M639.55,-54.98C650.96,-46.92 668.33,-34.65 681.93,-25.03"/>
<polygon fill="#63b8ff" stroke="#63b8ff" points="684.08,-27.8 690.23,-19.17 680.04,-22.08 684.08,-27.8"/>
</a>
</g>
</g>
<!-- Node25 -->
<g id="Node000025" class="node">
<title>Node25</title>
<g id="a_Node000025"><a xlink:href="../../d5/d9e/ogl__shading_8h.html" target="_top" xlink:title="Variable declarations related to GLSL programs &#160;&#160;Data structure declarations related to GLSL programs...">
<polygon fill="white" stroke="#666666" points="1596.5,-19 1512.5,-19 1512.5,0 1596.5,0 1596.5,-19"/>
<text text-anchor="middle" x="1554.5" y="-7" font-family="Helvetica,sans-Serif" font-size="10.00">ogl_shading.h</text>
</a>
</g>
</g>
<!-- Node24&#45;&gt;Node25 -->
<g id="edge27_Node000024_Node000025" class="edge">
<title>Node24&#45;&gt;Node25</title>
<g id="a_edge27_Node000024_Node000025"><a xlink:title=" ">
<path fill="none" stroke="#63b8ff" d="M1554.5,-54.75C1554.5,-47.8 1554.5,-37.85 1554.5,-29.13"/>
<polygon fill="#63b8ff" stroke="#63b8ff" points="1558,-29.09 1554.5,-19.09 1551,-29.09 1558,-29.09"/>
</a>
</g>
</g>
<!-- Node27&#45;&gt;Node5 -->
<g id="edge30_Node000027_Node000005" class="edge">
<title>Node27&#45;&gt;Node5</title>
<g id="a_edge30_Node000027_Node000005"><a xlink:title=" ">
<path fill="none" stroke="#63b8ff" d="M703.58,-164.75C711.59,-157.03 723.46,-145.6 733.12,-136.28"/>
<polygon fill="#63b8ff" stroke="#63b8ff" points="735.81,-138.55 740.59,-129.09 730.96,-133.51 735.81,-138.55"/>
</a>
</g>
</g>
</g>
</svg>

<g id="navigator" transform="translate(0 0)" fill="#404254">
  <rect fill="#f2f5e9" fill-opacity="0.5" stroke="#606060" stroke-width=".5" x="0" y="0" width="60" height="60"/>
  <use id="zoomplus" xlink:href="#zoomPlus" x="17" y="9" onmousedown="handleZoom(evt,'in')"/>
  <use id="zoomminus" xlink:href="#zoomMin" x="42" y="9" onmousedown="handleZoom(evt,'out')"/>
  <use id="reset" xlink:href="#resetDef" x="30" y="36" onmousedown="handleReset()"/>
   <use id="arrowup" xlink:href="#arrowUp" x="0" y="0" onmousedown="handlePan(0,-1)"/>
  <use id="arrowright" xlink:href="#arrowRight" x="0" y="0" onmousedown="handlePan(1,0)"/>
  <use id="arrowdown" xlink:href="#arrowDown" x="0" y="0" onmousedown="handlePan(0,1)"/>
  <use id="arrowleft" xlink:href="#arrowLeft" x="0" y="0" onmousedown="handlePan(-1,0)"/>
</g>
<svg viewBox="0 0 15 15" width="100%" height="30px" preserveAspectRatio="xMaxYMin meet">
 <g id="arrow_out" transform="scale(0.3 0.3)">
  <a xlink:href="legend_8c__incl_org.svg" target="_base">
   <rect id="button" ry="5" rx="5" y="6" x="6" height="38" width="38"
        fill="#f2f5e9" fill-opacity="0.5" stroke="#606060" stroke-width="1.0"/>
   <path id="arrow"
     d="M 11.500037,31.436501 C 11.940474,20.09759 22.043105,11.32322 32.158766,21.979434 L 37.068811,17.246167 C 37.068811,17.246167 37.088388,32 37.088388,32 L 22.160133,31.978069 C 22.160133,31.978069 26.997745,27.140456 26.997745,27.140456 C 18.528582,18.264221 13.291696,25.230495 11.500037,31.436501 z"
     style="fill:#404040;"/>
  </a>
 </g>
</svg>

<style type='text/css'>
<![CDATA[
[data-mouse-over-selected='false'] { opacity: 0.7; }
[data-mouse-over-selected='true']  { opacity: 1.0; }
]]>
</style>
<script type="application/ecmascript"><![CDATA[
document.addEventListener('DOMContentLoaded', (event) => {
  highlightEdges();
  highlightAdjacentNodes();
});
]]></script>
</svg>
