<?xml version="1.0" encoding="UTF-8" standalone="no"?>
<!DOCTYPE svg PUBLIC "-//W3C//DTD SVG 1.1//EN"
 "http://www.w3.org/Graphics/SVG/1.1/DTD/svg11.dtd">
<!-- Generated by graphviz version 9.0.0 (20230911.1827)
 -->
<!-- Title: curve/legend.c Pages: 1 -->
<svg width="1604pt" height="252pt"
 viewBox="0.00 0.00 1604.38 252.00" xmlns="http://www.w3.org/2000/svg" xmlns:xlink="http://www.w3.org/1999/xlink">
<g id="graph0" class="graph" transform="scale(1 1) rotate(0) translate(4 248)">
<title>curve/legend.c</title>
<!-- Node1 -->
<g id="Node000001" class="node">
<title>Node1</title>
<g id="a_Node000001"><a xlink:title="Function to draw the legend.">
<polygon fill="#999999" stroke="#666666" points="591.62,-244 511.88,-244 511.88,-224 591.62,-224 591.62,-244"/>
<text text-anchor="middle" x="551.75" y="-230.5" font-family="Helvetica,sans-Serif" font-size="10.00">curve/legend.c</text>
</a>
</g>
</g>
<!-- Node2 -->
<g id="Node000002" class="node">
<title>Node2</title>
<g id="a_Node000002"><a xlink:title=" ">
<polygon fill="#e0e0e0" stroke="#999999" points="47.5,-76 0,-76 0,-56 47.5,-56 47.5,-76"/>
<text text-anchor="middle" x="23.75" y="-62.5" font-family="Helvetica,sans-Serif" font-size="10.00">stdlib.h</text>
</a>
</g>
</g>
<!-- Node1&#45;&gt;Node2 -->
<g id="edge1_Node000001_Node000002" class="edge">
<title>Node1&#45;&gt;Node2</title>
<g id="a_edge1_Node000001_Node000002"><a xlink:title=" ">
<path fill="none" stroke="#63b8ff" d="M521.85,-223.6C430.57,-194.9 155.81,-108.52 58.43,-77.9"/>
<polygon fill="#63b8ff" stroke="#63b8ff" points="59.75,-74.65 49.16,-74.99 57.65,-81.33 59.75,-74.65"/>
</a>
</g>
</g>
<!-- Node3 -->
<g id="Node000003" class="node">
<title>Node3</title>
<g id="a_Node000003"><a xlink:title=" ">
<polygon fill="#e0e0e0" stroke="#999999" points="483.38,-188 438.12,-188 438.12,-168 483.38,-168 483.38,-188"/>
<text text-anchor="middle" x="460.75" y="-174.5" font-family="Helvetica,sans-Serif" font-size="10.00">cairo.h</text>
</a>
</g>
</g>
<!-- Node1&#45;&gt;Node3 -->
<g id="edge2_Node000001_Node000003" class="edge">
<title>Node1&#45;&gt;Node3</title>
<g id="a_edge2_Node000001_Node000003"><a xlink:title=" ">
<path fill="none" stroke="#63b8ff" d="M535.9,-223.59C522.28,-215.51 502.39,-203.71 486.49,-194.27"/>
<polygon fill="#63b8ff" stroke="#63b8ff" points="488.41,-191.35 478.03,-189.25 484.84,-197.37 488.41,-191.35"/>
</a>
</g>
</g>
<!-- Node4 -->
<g id="Node000004" class="node">
<title>Node4</title>
<g id="a_Node000004"><a xlink:title=" ">
<polygon fill="#e0e0e0" stroke="#999999" points="602.12,-188 501.38,-188 501.38,-168 602.12,-168 602.12,-188"/>
<text text-anchor="middle" x="551.75" y="-174.5" font-family="Helvetica,sans-Serif" font-size="10.00">pango/pangocairo.h</text>
</a>
</g>
</g>
<!-- Node1&#45;&gt;Node4 -->
<g id="edge3_Node000001_Node000004" class="edge">
<title>Node1&#45;&gt;Node4</title>
<g id="a_edge3_Node000001_Node000004"><a xlink:title=" ">
<path fill="none" stroke="#63b8ff" d="M551.75,-223.59C551.75,-217.01 551.75,-207.96 551.75,-199.73"/>
<polygon fill="#63b8ff" stroke="#63b8ff" points="555.25,-199.81 551.75,-189.81 548.25,-199.81 555.25,-199.81"/>
</a>
</g>
</g>
<!-- Node5 -->
<g id="Node000005" class="node">
<title>Node5</title>
<g id="a_Node000005"><a xlink:href="../../d2/d49/global_8h.html" target="_top" xlink:title="Global variable declarations &#160;&#160;Global convenience function declarations &#160;&#160;Global data structure defin...">
<polygon fill="white" stroke="#666666" points="721.62,-132 671.88,-132 671.88,-112 721.62,-112 721.62,-132"/>
<text text-anchor="middle" x="696.75" y="-118.5" font-family="Helvetica,sans-Serif" font-size="10.00">global.h</text>
</a>
</g>
</g>
<!-- Node1&#45;&gt;Node5 -->
<g id="edge4_Node000001_Node000005" class="edge">
<title>Node1&#45;&gt;Node5</title>
<g id="a_edge4_Node000001_Node000005"><a xlink:title=" ">
<path fill="none" stroke="#63b8ff" d="M591.88,-228.28C619.59,-222.98 655.36,-211.74 677.75,-188 689.1,-175.96 693.72,-157.51 695.57,-143.34"/>
<polygon fill="#63b8ff" stroke="#63b8ff" points="699.02,-144.04 696.45,-133.76 692.05,-143.4 699.02,-144.04"/>
</a>
</g>
</g>
<!-- Node27 -->
<g id="Node000027" class="node">
<title>Node27</title>
<g id="a_Node000027"><a xlink:href="../../df/de9/curve_8h.html" target="_top" xlink:title="Variable declarations for the curve widget &#160;&#160;Functions for interactions with the curve widget.">
<polygon fill="white" stroke="#666666" points="668.88,-188 620.62,-188 620.62,-168 668.88,-168 668.88,-188"/>
<text text-anchor="middle" x="644.75" y="-174.5" font-family="Helvetica,sans-Serif" font-size="10.00">curve.h</text>
</a>
</g>
</g>
<!-- Node1&#45;&gt;Node27 -->
<g id="edge29_Node000001_Node000027" class="edge">
<title>Node1&#45;&gt;Node27</title>
<g id="a_edge29_Node000001_Node000027"><a xlink:title=" ">
<path fill="none" stroke="#63b8ff" d="M567.95,-223.59C582,-215.44 602.58,-203.48 618.91,-194"/>
<polygon fill="#63b8ff" stroke="#63b8ff" points="620.22,-197.29 627.12,-189.24 616.71,-191.23 620.22,-197.29"/>
</a>
</g>
</g>
<!-- Node5&#45;&gt;Node2 -->
<g id="edge11_Node000005_Node000002" class="edge">
<title>Node5&#45;&gt;Node2</title>
<g id="a_edge11_Node000005_Node000002"><a xlink:title=" ">
<path fill="none" stroke="#63b8ff" d="M671.53,-121C586.45,-120.61 302.18,-116.32 58.96,-76.02"/>
<polygon fill="#63b8ff" stroke="#63b8ff" points="59.71,-72.6 49.27,-74.39 58.55,-79.5 59.71,-72.6"/>
</a>
</g>
</g>
<!-- Node6 -->
<g id="Node000006" class="node">
<title>Node6</title>
<g id="a_Node000006"><a xlink:title=" ">
<polygon fill="#e0e0e0" stroke="#999999" points="1596.38,-76 1557.12,-76 1557.12,-56 1596.38,-56 1596.38,-76"/>
<text text-anchor="middle" x="1576.75" y="-62.5" font-family="Helvetica,sans-Serif" font-size="10.00">glib.h</text>
</a>
</g>
</g>
<!-- Node5&#45;&gt;Node6 -->
<g id="edge5_Node000005_Node000006" class="edge">
<title>Node5&#45;&gt;Node6</title>
<g id="a_edge5_Node000005_Node000006"><a xlink:title=" ">
<path fill="none" stroke="#63b8ff" d="M721.88,-120.51C842.24,-118.04 1361.09,-105.96 1545.49,-75.86"/>
<polygon fill="#63b8ff" stroke="#63b8ff" points="1545.87,-79.35 1555.14,-74.2 1544.69,-72.45 1545.87,-79.35"/>
</a>
</g>
</g>
<!-- Node7 -->
<g id="Node000007" class="node">
<title>Node7</title>
<g id="a_Node000007"><a xlink:title=" ">
<polygon fill="#e0e0e0" stroke="#999999" points="131.5,-76 66,-76 66,-56 131.5,-56 131.5,-76"/>
<text text-anchor="middle" x="98.75" y="-62.5" font-family="Helvetica,sans-Serif" font-size="10.00">glib/gi18n.h</text>
</a>
</g>
</g>
<!-- Node5&#45;&gt;Node7 -->
<g id="edge6_Node000005_Node000007" class="edge">
<title>Node5&#45;&gt;Node7</title>
<g id="a_edge6_Node000005_Node000007"><a xlink:title=" ">
<path fill="none" stroke="#63b8ff" d="M671.4,-120.13C593.85,-117.2 352.79,-106.28 142.93,-76.12"/>
<polygon fill="#63b8ff" stroke="#63b8ff" points="143.59,-72.68 133.19,-74.7 142.58,-79.61 143.59,-72.68"/>
</a>
</g>
</g>
<!-- Node8 -->
<g id="Node000008" class="node">
<title>Node8</title>
<g id="a_Node000008"><a xlink:title=" ">
<polygon fill="#e0e0e0" stroke="#999999" points="199.62,-76 149.88,-76 149.88,-56 199.62,-56 199.62,-76"/>
<text text-anchor="middle" x="174.75" y="-62.5" font-family="Helvetica,sans-Serif" font-size="10.00">locale.h</text>
</a>
</g>
</g>
<!-- Node5&#45;&gt;Node8 -->
<g id="edge7_Node000005_Node000008" class="edge">
<title>Node5&#45;&gt;Node8</title>
<g id="a_edge7_Node000005_Node000008"><a xlink:title=" ">
<path fill="none" stroke="#63b8ff" d="M671.41,-120.15C600.27,-117.46 392.59,-107.47 210.99,-76.11"/>
<polygon fill="#63b8ff" stroke="#63b8ff" points="211.84,-72.7 201.39,-74.42 210.63,-79.6 211.84,-72.7"/>
</a>
</g>
</g>
<!-- Node9 -->
<g id="Node000009" class="node">
<title>Node9</title>
<g id="a_Node000009"><a xlink:title=" ">
<polygon fill="#e0e0e0" stroke="#999999" points="268,-76 217.5,-76 217.5,-56 268,-56 268,-76"/>
<text text-anchor="middle" x="242.75" y="-62.5" font-family="Helvetica,sans-Serif" font-size="10.00">unistd.h</text>
</a>
</g>
</g>
<!-- Node5&#45;&gt;Node9 -->
<g id="edge8_Node000005_Node000009" class="edge">
<title>Node5&#45;&gt;Node9</title>
<g id="a_edge8_Node000005_Node000009"><a xlink:title=" ">
<path fill="none" stroke="#63b8ff" d="M671.47,-119.63C607.39,-115.89 433.36,-103.97 279.33,-76.23"/>
<polygon fill="#63b8ff" stroke="#63b8ff" points="280.23,-72.83 269.76,-74.47 278.97,-79.72 280.23,-72.83"/>
</a>
</g>
</g>
<!-- Node10 -->
<g id="Node000010" class="node">
<title>Node10</title>
<g id="a_Node000010"><a xlink:title=" ">
<polygon fill="#e0e0e0" stroke="#999999" points="333.88,-76 285.62,-76 285.62,-56 333.88,-56 333.88,-76"/>
<text text-anchor="middle" x="309.75" y="-62.5" font-family="Helvetica,sans-Serif" font-size="10.00">string.h</text>
</a>
</g>
</g>
<!-- Node5&#45;&gt;Node10 -->
<g id="edge9_Node000005_Node000010" class="edge">
<title>Node5&#45;&gt;Node10</title>
<g id="a_edge9_Node000005_Node000010"><a xlink:title=" ">
<path fill="none" stroke="#63b8ff" d="M671.64,-118.67C614.08,-113.13 468.25,-97.98 347.75,-76 346.92,-75.85 346.09,-75.69 345.25,-75.53"/>
<polygon fill="#63b8ff" stroke="#63b8ff" points="346.19,-72.15 335.68,-73.5 344.74,-79 346.19,-72.15"/>
</a>
</g>
</g>
<!-- Node11 -->
<g id="Node000011" class="node">
<title>Node11</title>
<g id="a_Node000011"><a xlink:title=" ">
<polygon fill="#e0e0e0" stroke="#999999" points="534.38,-20 489.12,-20 489.12,0 534.38,0 534.38,-20"/>
<text text-anchor="middle" x="511.75" y="-6.5" font-family="Helvetica,sans-Serif" font-size="10.00">stdio.h</text>
</a>
</g>
</g>
<!-- Node5&#45;&gt;Node11 -->
<g id="edge10_Node000005_Node000011" class="edge">
<title>Node5&#45;&gt;Node11</title>
<g id="a_edge10_Node000005_Node000011"><a xlink:title=" ">
<path fill="none" stroke="#63b8ff" d="M671.57,-121.44C603.52,-122.03 418.52,-119.53 380.75,-76 350.47,-41.1 429.45,-22.97 477.64,-15.41"/>
<polygon fill="#63b8ff" stroke="#63b8ff" points="477.98,-18.89 487.36,-13.97 476.96,-11.97 477.98,-18.89"/>
</a>
</g>
</g>
<!-- Node12 -->
<g id="Node000012" class="node">
<title>Node12</title>
<g id="a_Node000012"><a xlink:title=" ">
<polygon fill="#e0e0e0" stroke="#999999" points="457.25,-76 390.25,-76 390.25,-56 457.25,-56 457.25,-76"/>
<text text-anchor="middle" x="423.75" y="-62.5" font-family="Helvetica,sans-Serif" font-size="10.00">sys/types.h</text>
</a>
</g>
</g>
<!-- Node5&#45;&gt;Node12 -->
<g id="edge12_Node000005_Node000012" class="edge">
<title>Node5&#45;&gt;Node12</title>
<g id="a_edge12_Node000005_Node000012"><a xlink:title=" ">
<path fill="none" stroke="#63b8ff" d="M671.42,-116.23C630.8,-108.54 548.26,-92.77 468.85,-76.61"/>
<polygon fill="#63b8ff" stroke="#63b8ff" points="469.65,-73.2 459.15,-74.63 468.25,-80.06 469.65,-73.2"/>
</a>
</g>
</g>
<!-- Node13 -->
<g id="Node000013" class="node">
<title>Node13</title>
<g id="a_Node000013"><a xlink:title=" ">
<polygon fill="#e0e0e0" stroke="#999999" points="534.5,-76 475,-76 475,-56 534.5,-56 534.5,-76"/>
<text text-anchor="middle" x="504.75" y="-62.5" font-family="Helvetica,sans-Serif" font-size="10.00">sys/stat.h</text>
</a>
</g>
</g>
<!-- Node5&#45;&gt;Node13 -->
<g id="edge13_Node000005_Node000013" class="edge">
<title>Node5&#45;&gt;Node13</title>
<g id="a_edge13_Node000005_Node000013"><a xlink:title=" ">
<path fill="none" stroke="#63b8ff" d="M671.65,-113.94C639.64,-104.94 583.87,-89.25 545.67,-78.51"/>
<polygon fill="#63b8ff" stroke="#63b8ff" points="546.95,-75.23 536.37,-75.89 545.05,-81.97 546.95,-75.23"/>
</a>
</g>
</g>
<!-- Node14 -->
<g id="Node000014" class="node">
<title>Node14</title>
<g id="a_Node000014"><a xlink:title=" ">
<polygon fill="#e0e0e0" stroke="#999999" points="677.75,-20 631.75,-20 631.75,0 677.75,0 677.75,-20"/>
<text text-anchor="middle" x="654.75" y="-6.5" font-family="Helvetica,sans-Serif" font-size="10.00">math.h</text>
</a>
</g>
</g>
<!-- Node5&#45;&gt;Node14 -->
<g id="edge14_Node000005_Node000014" class="edge">
<title>Node5&#45;&gt;Node14</title>
<g id="a_edge14_Node000005_Node000014"><a xlink:title=" ">
<path fill="none" stroke="#63b8ff" d="M722.01,-120.44C849.84,-117.51 1420.38,-102.94 1445.75,-76 1451.84,-69.53 1451.85,-62.46 1445.75,-56 1419.4,-28.1 837.68,-14.64 689.07,-11.65"/>
<polygon fill="#63b8ff" stroke="#63b8ff" points="689.55,-8.16 679.48,-11.46 689.41,-15.16 689.55,-8.16"/>
</a>
</g>
</g>
<!-- Node15 -->
<g id="Node000015" class="node">
<title>Node15</title>
<g id="a_Node000015"><a xlink:title=" ">
<polygon fill="#e0e0e0" stroke="#999999" points="686.88,-76 632.62,-76 632.62,-56 686.88,-56 686.88,-76"/>
<text text-anchor="middle" x="659.75" y="-62.5" font-family="Helvetica,sans-Serif" font-size="10.00">gtk/gtk.h</text>
</a>
</g>
</g>
<!-- Node5&#45;&gt;Node15 -->
<g id="edge15_Node000005_Node000015" class="edge">
<title>Node5&#45;&gt;Node15</title>
<g id="a_edge15_Node000005_Node000015"><a xlink:title=" ">
<path fill="none" stroke="#63b8ff" d="M690.31,-111.59C685.42,-104.47 678.56,-94.45 672.57,-85.72"/>
<polygon fill="#63b8ff" stroke="#63b8ff" points="675.52,-83.82 666.98,-77.55 669.74,-87.77 675.52,-83.82"/>
</a>
</g>
</g>
<!-- Node16 -->
<g id="Node000016" class="node">
<title>Node16</title>
<g id="a_Node000016"><a xlink:title=" ">
<polygon fill="#e0e0e0" stroke="#999999" points="764.5,-76 705,-76 705,-56 764.5,-56 764.5,-76"/>
<text text-anchor="middle" x="734.75" y="-62.5" font-family="Helvetica,sans-Serif" font-size="10.00">gtk/gtkx.h</text>
</a>
</g>
</g>
<!-- Node5&#45;&gt;Node16 -->
<g id="edge16_Node000005_Node000016" class="edge">
<title>Node5&#45;&gt;Node16</title>
<g id="a_edge16_Node000005_Node000016"><a xlink:title=" ">
<path fill="none" stroke="#63b8ff" d="M703.37,-111.59C708.44,-104.39 715.59,-94.23 721.78,-85.43"/>
<polygon fill="#63b8ff" stroke="#63b8ff" points="724.44,-87.73 727.34,-77.54 718.72,-83.7 724.44,-87.73"/>
</a>
</g>
</g>
<!-- Node17 -->
<g id="Node000017" class="node">
<title>Node17</title>
<g id="a_Node000017"><a xlink:title=" ">
<polygon fill="#e0e0e0" stroke="#999999" points="841.12,-76 782.38,-76 782.38,-56 841.12,-56 841.12,-76"/>
<text text-anchor="middle" x="811.75" y="-62.5" font-family="Helvetica,sans-Serif" font-size="10.00">gdk/gdk.h</text>
</a>
</g>
</g>
<!-- Node5&#45;&gt;Node17 -->
<g id="edge17_Node000005_Node000017" class="edge">
<title>Node5&#45;&gt;Node17</title>
<g id="a_edge17_Node000005_Node000017"><a xlink:title=" ">
<path fill="none" stroke="#63b8ff" d="M716.78,-111.59C734.56,-103.24 760.82,-90.92 781.21,-81.34"/>
<polygon fill="#63b8ff" stroke="#63b8ff" points="782.63,-84.54 790.19,-77.12 779.65,-78.21 782.63,-84.54"/>
</a>
</g>
</g>
<!-- Node18 -->
<g id="Node000018" class="node">
<title>Node18</title>
<g id="a_Node000018"><a xlink:title=" ">
<polygon fill="#e0e0e0" stroke="#999999" points="958,-76 859.5,-76 859.5,-56 958,-56 958,-76"/>
<text text-anchor="middle" x="908.75" y="-62.5" font-family="Helvetica,sans-Serif" font-size="10.00">gdk/gdkkeysyms.h</text>
</a>
</g>
</g>
<!-- Node5&#45;&gt;Node18 -->
<g id="edge18_Node000005_Node000018" class="edge">
<title>Node5&#45;&gt;Node18</title>
<g id="a_edge18_Node000005_Node000018"><a xlink:title=" ">
<path fill="none" stroke="#63b8ff" d="M721.9,-114.59C755.93,-105.93 817.34,-90.28 860.44,-79.31"/>
<polygon fill="#63b8ff" stroke="#63b8ff" points="861.23,-82.72 870.06,-76.86 859.5,-75.93 861.23,-82.72"/>
</a>
</g>
</g>
<!-- Node19 -->
<g id="Node000019" class="node">
<title>Node19</title>
<g id="a_Node000019"><a xlink:title=" ">
<polygon fill="#e0e0e0" stroke="#999999" points="1093.38,-76 976.12,-76 976.12,-56 1093.38,-56 1093.38,-76"/>
<text text-anchor="middle" x="1034.75" y="-62.5" font-family="Helvetica,sans-Serif" font-size="10.00">gdk&#45;pixbuf/gdk&#45;pixbuf.h</text>
</a>
</g>
</g>
<!-- Node5&#45;&gt;Node19 -->
<g id="edge19_Node000005_Node000019" class="edge">
<title>Node5&#45;&gt;Node19</title>
<g id="a_edge19_Node000005_Node000019"><a xlink:title=" ">
<path fill="none" stroke="#63b8ff" d="M721.88,-116.99C772.59,-108.88 888.78,-90.32 964.41,-78.24"/>
<polygon fill="#63b8ff" stroke="#63b8ff" points="964.91,-81.7 974.23,-76.67 963.8,-74.79 964.91,-81.7"/>
</a>
</g>
</g>
<!-- Node20 -->
<g id="Node000020" class="node">
<title>Node20</title>
<g id="a_Node000020"><a xlink:title=" ">
<polygon fill="#e0e0e0" stroke="#999999" points="1202.25,-76 1111.25,-76 1111.25,-56 1202.25,-56 1202.25,-76"/>
<text text-anchor="middle" x="1156.75" y="-62.5" font-family="Helvetica,sans-Serif" font-size="10.00">pango/pangoft2.h</text>
</a>
</g>
</g>
<!-- Node5&#45;&gt;Node20 -->
<g id="edge20_Node000005_Node000020" class="edge">
<title>Node5&#45;&gt;Node20</title>
<g id="a_edge20_Node000005_Node000020"><a xlink:title=" ">
<path fill="none" stroke="#63b8ff" d="M721.99,-118.69C784.31,-112.87 950.7,-96.73 1099.67,-76.37"/>
<polygon fill="#63b8ff" stroke="#63b8ff" points="1099.89,-79.87 1109.32,-75.04 1098.94,-72.94 1099.89,-79.87"/>
</a>
</g>
</g>
<!-- Node21 -->
<g id="Node000021" class="node">
<title>Node21</title>
<g id="a_Node000021"><a xlink:title=" ">
<polygon fill="#e0e0e0" stroke="#999999" points="1281.25,-76 1220.25,-76 1220.25,-56 1281.25,-56 1281.25,-76"/>
<text text-anchor="middle" x="1250.75" y="-62.5" font-family="Helvetica,sans-Serif" font-size="10.00">epoxy/gl.h</text>
</a>
</g>
</g>
<!-- Node5&#45;&gt;Node21 -->
<g id="edge21_Node000005_Node000021" class="edge">
<title>Node5&#45;&gt;Node21</title>
<g id="a_edge21_Node000005_Node000021"><a xlink:title=" ">
<path fill="none" stroke="#63b8ff" d="M722.09,-120.04C795.79,-116.98 1016.52,-105.97 1209,-76.23"/>
<polygon fill="#63b8ff" stroke="#63b8ff" points="1209.34,-79.72 1218.68,-74.72 1208.26,-72.81 1209.34,-79.72"/>
</a>
</g>
</g>
<!-- Node22 -->
<g id="Node000022" class="node">
<title>Node22</title>
<g id="a_Node000022"><a xlink:title=" ">
<polygon fill="#e0e0e0" stroke="#999999" points="1352.12,-76 1299.38,-76 1299.38,-56 1352.12,-56 1352.12,-76"/>
<text text-anchor="middle" x="1325.75" y="-62.5" font-family="Helvetica,sans-Serif" font-size="10.00">GL/glu.h</text>
</a>
</g>
</g>
<!-- Node5&#45;&gt;Node22 -->
<g id="edge22_Node000005_Node000022" class="edge">
<title>Node5&#45;&gt;Node22</title>
<g id="a_edge22_Node000005_Node000022"><a xlink:title=" ">
<path fill="none" stroke="#63b8ff" d="M721.84,-120.68C802.65,-119.3 1063.53,-112.3 1287.78,-76.22"/>
<polygon fill="#63b8ff" stroke="#63b8ff" points="1288.3,-79.68 1297.61,-74.61 1287.17,-72.77 1288.3,-79.68"/>
</a>
</g>
</g>
<!-- Node23 -->
<g id="Node000023" class="node">
<title>Node23</title>
<g id="a_Node000023"><a xlink:title=" ">
<polygon fill="#e0e0e0" stroke="#999999" points="1436.88,-76 1370.62,-76 1370.62,-56 1436.88,-56 1436.88,-76"/>
<text text-anchor="middle" x="1403.75" y="-62.5" font-family="Helvetica,sans-Serif" font-size="10.00">epoxy/glx.h</text>
</a>
</g>
</g>
<!-- Node5&#45;&gt;Node23 -->
<g id="edge23_Node000005_Node000023" class="edge">
<title>Node5&#45;&gt;Node23</title>
<g id="a_edge23_Node000005_Node000023"><a xlink:title=" ">
<path fill="none" stroke="#63b8ff" d="M721.9,-120.55C808.79,-118.73 1104.4,-110.37 1359.16,-75.99"/>
<polygon fill="#63b8ff" stroke="#63b8ff" points="1359.56,-79.46 1369,-74.64 1358.61,-72.53 1359.56,-79.46"/>
</a>
</g>
</g>
<!-- Node24 -->
<g id="Node000024" class="node">
<title>Node24</title>
<g id="a_Node000024"><a xlink:href="../../dc/db0/math__3d_8h.html" target="_top" xlink:title="Functions for OpenGL math.">
<polygon fill="white" stroke="#666666" points="614.62,-76 552.88,-76 552.88,-56 614.62,-56 614.62,-76"/>
<text text-anchor="middle" x="583.75" y="-62.5" font-family="Helvetica,sans-Serif" font-size="10.00">math_3d.h</text>
</a>
</g>
</g>
<!-- Node5&#45;&gt;Node24 -->
<g id="edge24_Node000005_Node000024" class="edge">
<title>Node5&#45;&gt;Node24</title>
<g id="a_edge24_Node000005_Node000024"><a xlink:title=" ">
<path fill="none" stroke="#63b8ff" d="M677.07,-111.59C659.59,-103.24 633.8,-90.92 613.75,-81.34"/>
<polygon fill="#63b8ff" stroke="#63b8ff" points="615.48,-78.29 604.95,-77.13 612.47,-84.6 615.48,-78.29"/>
</a>
</g>
</g>
<!-- Node25 -->
<g id="Node000025" class="node">
<title>Node25</title>
<g id="a_Node000025"><a xlink:href="../../da/d7e/glwin_8h.html" target="_top" xlink:title="Variable declarations related the OpenGL window &#160;&#160;Data structure declarations related the OpenGL wind...">
<polygon fill="white" stroke="#666666" points="1539.12,-76 1492.38,-76 1492.38,-56 1539.12,-56 1539.12,-76"/>
<text text-anchor="middle" x="1515.75" y="-62.5" font-family="Helvetica,sans-Serif" font-size="10.00">glwin.h</text>
</a>
</g>
</g>
<!-- Node5&#45;&gt;Node25 -->
<g id="edge27_Node000005_Node000025" class="edge">
<title>Node5&#45;&gt;Node25</title>
<g id="a_edge27_Node000005_Node000025"><a xlink:title=" ">
<path fill="none" stroke="#63b8ff" d="M721.9,-121.2C819.66,-121.64 1183.52,-120.03 1478.75,-76 1479.42,-75.9 1480.1,-75.79 1480.79,-75.68"/>
<polygon fill="#63b8ff" stroke="#63b8ff" points="1481.38,-79.13 1490.51,-73.75 1480.02,-72.26 1481.38,-79.13"/>
</a>
</g>
</g>
<!-- Node24&#45;&gt;Node11 -->
<g id="edge26_Node000024_Node000011" class="edge">
<title>Node24&#45;&gt;Node11</title>
<g id="a_edge26_Node000024_Node000011"><a xlink:title=" ">
<path fill="none" stroke="#63b8ff" d="M571.21,-55.59C560.78,-47.77 545.7,-36.46 533.34,-27.19"/>
<polygon fill="#63b8ff" stroke="#63b8ff" points="535.46,-24.41 525.36,-21.21 531.26,-30.01 535.46,-24.41"/>
</a>
</g>
</g>
<!-- Node24&#45;&gt;Node14 -->
<g id="edge25_Node000024_Node000014" class="edge">
<title>Node24&#45;&gt;Node14</title>
<g id="a_edge25_Node000024_Node000014"><a xlink:title=" ">
<path fill="none" stroke="#63b8ff" d="M596.12,-55.59C606.4,-47.77 621.27,-36.46 633.46,-27.19"/>
<polygon fill="#63b8ff" stroke="#63b8ff" points="635.48,-30.05 641.32,-21.21 631.24,-24.48 635.48,-30.05"/>
</a>
</g>
</g>
<!-- Node26 -->
<g id="Node000026" class="node">
<title>Node26</title>
<g id="a_Node000026"><a xlink:href="../../d5/d9e/ogl__shading_8h.html" target="_top" xlink:title="Variable declarations related to GLSL programs &#160;&#160;Data structure declarations related to GLSL programs...">
<polygon fill="white" stroke="#666666" points="1553.75,-20 1477.75,-20 1477.75,0 1553.75,0 1553.75,-20"/>
<text text-anchor="middle" x="1515.75" y="-6.5" font-family="Helvetica,sans-Serif" font-size="10.00">ogl_shading.h</text>
</a>
</g>
</g>
<!-- Node25&#45;&gt;Node26 -->
<g id="edge28_Node000025_Node000026" class="edge">
<title>Node25&#45;&gt;Node26</title>
<g id="a_edge28_Node000025_Node000026"><a xlink:title=" ">
<path fill="none" stroke="#63b8ff" d="M1515.75,-55.59C1515.75,-49.01 1515.75,-39.96 1515.75,-31.73"/>
<polygon fill="#63b8ff" stroke="#63b8ff" points="1519.25,-31.81 1515.75,-21.81 1512.25,-31.81 1519.25,-31.81"/>
</a>
</g>
</g>
<!-- Node27&#45;&gt;Node5 -->
<g id="edge30_Node000027_Node000005" class="edge">
<title>Node27&#45;&gt;Node5</title>
<g id="a_edge30_Node000027_Node000005"><a xlink:title=" ">
<path fill="none" stroke="#63b8ff" d="M653.81,-167.59C660.97,-160.16 671.16,-149.58 679.82,-140.58"/>
<polygon fill="#63b8ff" stroke="#63b8ff" points="682.33,-143.02 686.75,-133.39 677.29,-138.16 682.33,-143.02"/>
</a>
</g>
</g>
</g>
</svg>
