<?xml version="1.0" encoding="UTF-8" standalone="no"?>
<!DOCTYPE svg PUBLIC "-//W3C//DTD SVG 1.1//EN"
 "http://www.w3.org/Graphics/SVG/1.1/DTD/svg11.dtd">
<!-- Generated by graphviz version 9.0.0 (20230911.1827)
 -->
<!-- Title: atom_selection Pages: 1 -->
<svg width="220pt" height="124pt"
 viewBox="0.00 0.00 219.88 124.00" xmlns="http://www.w3.org/2000/svg" xmlns:xlink="http://www.w3.org/1999/xlink">
<g id="graph0" class="graph" transform="scale(1 1) rotate(0) translate(4 120)">
<title>atom_selection</title>
<!-- Node1 -->
<g id="Node000001" class="node">
<title>Node1</title>
<g id="a_Node000001"><a xlink:title=" ">
<polygon fill="#999999" stroke="#666666" points="115.75,-20 33.75,-20 33.75,0 115.75,0 115.75,-20"/>
<text text-anchor="middle" x="74.75" y="-6.5" font-family="Helvetica,sans-Serif" font-size="10.00">atom_selection</text>
</a>
</g>
</g>
<!-- Node2 -->
<g id="Node000002" class="node">
<title>Node2</title>
<g id="a_Node000002"><a xlink:href="../../d1/d74/struct_col_r_g_b_a.html" target="_top" xlink:title=" ">
<polygon fill="white" stroke="#666666" points="59.5,-114 0,-114 0,-94 59.5,-94 59.5,-114"/>
<text text-anchor="middle" x="29.75" y="-100.5" font-family="Helvetica,sans-Serif" font-size="10.00">ColRGBA</text>
</a>
</g>
</g>
<!-- Node2&#45;&gt;Node1 -->
<g id="edge1_Node000001_Node000002" class="edge">
<title>Node2&#45;&gt;Node1</title>
<g id="a_edge1_Node000001_Node000002"><a xlink:title=" ">
<path fill="none" stroke="#9a32cd" stroke-dasharray="5,2" d="M26.42,-82.85C25.21,-69.29 25.7,-51.48 33.5,-38 37.87,-30.44 45.31,-24.62 52.67,-20.35"/>
<polygon fill="#9a32cd" stroke="#9a32cd" points="22.9,-82.9 27.66,-92.37 29.84,-82 22.9,-82.9"/>
</a>
</g>
<text text-anchor="middle" x="65.38" y="-64.5" font-family="Helvetica,sans-Serif" font-size="10.00" fill="grey"> angle_colors</text>
<text text-anchor="middle" x="65.38" y="-52.5" font-family="Helvetica,sans-Serif" font-size="10.00" fill="grey">bond_colors</text>
<text text-anchor="middle" x="65.38" y="-40.5" font-family="Helvetica,sans-Serif" font-size="10.00" fill="grey">dihedral_colors</text>
</g>
<!-- Node3 -->
<g id="Node000003" class="node">
<title>Node3</title>
<g id="a_Node000003"><a xlink:href="../../df/dab/structatom__in__selection.html" target="_top" xlink:title=" ">
<polygon fill="white" stroke="#666666" points="172.12,-114 77.38,-114 77.38,-94 172.12,-94 172.12,-114"/>
<text text-anchor="middle" x="124.75" y="-100.5" font-family="Helvetica,sans-Serif" font-size="10.00">atom_in_selection</text>
</a>
</g>
</g>
<!-- Node3&#45;&gt;Node1 -->
<g id="edge2_Node000001_Node000003" class="edge">
<title>Node3&#45;&gt;Node1</title>
<g id="a_edge2_Node000001_Node000003"><a xlink:title=" ">
<path fill="none" stroke="#9a32cd" stroke-dasharray="5,2" d="M118.72,-82.89C114.26,-69.6 107.46,-52.09 98.75,-38 94.79,-31.6 89.27,-25.27 84.52,-20.34"/>
<polygon fill="#9a32cd" stroke="#9a32cd" points="115.33,-83.78 121.69,-92.26 122.01,-81.67 115.33,-83.78"/>
</a>
</g>
<text text-anchor="middle" x="124.5" y="-58.5" font-family="Helvetica,sans-Serif" font-size="10.00" fill="grey"> first</text>
<text text-anchor="middle" x="124.5" y="-46.5" font-family="Helvetica,sans-Serif" font-size="10.00" fill="grey">last</text>
</g>
<!-- Node3&#45;&gt;Node3 -->
<g id="edge3_Node000003_Node000003" class="edge">
<title>Node3&#45;&gt;Node3</title>
<g id="a_edge3_Node000003_Node000003"><a xlink:title=" ">
<path fill="none" stroke="#9a32cd" stroke-dasharray="5,2" d="M183.53,-110.55C187.63,-109.06 190.12,-106.87 190.12,-104 190.12,-99.03 182.65,-96.12 172.35,-95.27"/>
<polygon fill="#9a32cd" stroke="#9a32cd" points="182.98,-107.1 173.83,-112.44 184.32,-113.97 182.98,-107.1"/>
</a>
</g>
<text text-anchor="middle" x="201" y="-106.5" font-family="Helvetica,sans-Serif" font-size="10.00" fill="grey"> next</text>
<text text-anchor="middle" x="201" y="-94.5" font-family="Helvetica,sans-Serif" font-size="10.00" fill="grey">prev</text>
</g>
</g>
</svg>
