<?xml version="1.0" encoding="UTF-8" standalone="no"?>
<!DOCTYPE svg PUBLIC "-//W3C//DTD SVG 1.1//EN"
 "http://www.w3.org/Graphics/SVG/1.1/DTD/svg11.dtd">
<!-- Generated by graphviz version 7.1.0 (0)
 -->
<!-- Title: atom_selection Pages: 1 -->
<svg width="222pt" height="118pt"
 viewBox="0.00 0.00 221.50 118.00" xmlns="http://www.w3.org/2000/svg" xmlns:xlink="http://www.w3.org/1999/xlink">
<g id="graph0" class="graph" transform="scale(1 1) rotate(0) translate(4 114)">
<title>atom_selection</title>
<!-- Node1 -->
<g id="node1" class="node">
<title>Node1</title>
<g id="a_node1"><a xlink:title=" ">
<polygon fill="#999999" stroke="#666666" points="115.5,-19 32.5,-19 32.5,0 115.5,0 115.5,-19"/>
<text text-anchor="middle" x="74" y="-7" font-family="Helvetica,sans-Serif" font-size="10.00">atom_selection</text>
</a>
</g>
</g>
<!-- Node2 -->
<g id="node2" class="node">
<title>Node2</title>
<g id="a_node2"><a xlink:href="../../d1/d74/struct_col_r_g_b_a.html" target="_top" xlink:title=" ">
<polygon fill="white" stroke="#666666" points="60,-108.5 0,-108.5 0,-89.5 60,-89.5 60,-108.5"/>
<text text-anchor="middle" x="30" y="-96.5" font-family="Helvetica,sans-Serif" font-size="10.00">ColRGBA</text>
</a>
</g>
</g>
<!-- Node2&#45;&gt;Node1 -->
<g id="edge1" class="edge">
<title>Node2&#45;&gt;Node1</title>
<path fill="none" stroke="#9a32cd" stroke-dasharray="5,2" d="M26.99,-77.88C26.11,-65.32 26.89,-49.26 34,-37 38.43,-29.36 46.05,-23.51 53.46,-19.27"/>
<polygon fill="#9a32cd" stroke="#9a32cd" points="23.48,-77.97 28.08,-87.51 30.43,-77.18 23.48,-77.97"/>
<text text-anchor="middle" x="67" y="-62" font-family="Helvetica,sans-Serif" font-size="10.00"> angle_colors</text>
<text text-anchor="middle" x="67" y="-51" font-family="Helvetica,sans-Serif" font-size="10.00">bond_colors</text>
<text text-anchor="middle" x="67" y="-40" font-family="Helvetica,sans-Serif" font-size="10.00">dihedral_colors</text>
</g>
<!-- Node3 -->
<g id="node3" class="node">
<title>Node3</title>
<g id="a_node3"><a xlink:href="../../df/dab/structatom__in__selection.html" target="_top" xlink:title=" ">
<polygon fill="white" stroke="#666666" points="173.5,-108.5 78.5,-108.5 78.5,-89.5 173.5,-89.5 173.5,-108.5"/>
<text text-anchor="middle" x="126" y="-96.5" font-family="Helvetica,sans-Serif" font-size="10.00">atom_in_selection</text>
</a>
</g>
</g>
<!-- Node3&#45;&gt;Node1 -->
<g id="edge2" class="edge">
<title>Node3&#45;&gt;Node1</title>
<path fill="none" stroke="#9a32cd" stroke-dasharray="5,2" d="M119.84,-78.63C115.39,-66.15 108.63,-49.91 100,-37 95.63,-30.46 89.52,-24.14 84.32,-19.31"/>
<polygon fill="#9a32cd" stroke="#9a32cd" points="116.41,-79.41 122.92,-87.77 123.05,-77.18 116.41,-79.41"/>
<text text-anchor="middle" x="126" y="-56.5" font-family="Helvetica,sans-Serif" font-size="10.00"> first</text>
<text text-anchor="middle" x="126" y="-45.5" font-family="Helvetica,sans-Serif" font-size="10.00">last</text>
</g>
<!-- Node3&#45;&gt;Node3 -->
<g id="edge3" class="edge">
<title>Node3&#45;&gt;Node3</title>
<path fill="none" stroke="#9a32cd" stroke-dasharray="5,2" d="M185.01,-105.17C189.04,-103.75 191.5,-101.7 191.5,-99 191.5,-94.33 184.15,-91.58 173.98,-90.74"/>
<polygon fill="#9a32cd" stroke="#9a32cd" points="184.65,-101.68 175.47,-106.97 185.94,-108.56 184.65,-101.68"/>
<text text-anchor="middle" x="202.5" y="-102" font-family="Helvetica,sans-Serif" font-size="10.00"> next</text>
<text text-anchor="middle" x="202.5" y="-91" font-family="Helvetica,sans-Serif" font-size="10.00">prev</text>
</g>
</g>
</svg>
