<?xml version="1.0" encoding="UTF-8" standalone="no"?>
<!DOCTYPE svg PUBLIC "-//W3C//DTD SVG 1.1//EN"
 "http://www.w3.org/Graphics/SVG/1.1/DTD/svg11.dtd">
<!-- Generated by graphviz version 2.43.0 (0)
 -->
<!-- Title: curve/tab&#45;3.c Pages: 1 -->
<svg width="1747pt" height="247pt"
 viewBox="0.00 0.00 1747.32 247.00" xmlns="http://www.w3.org/2000/svg" xmlns:xlink="http://www.w3.org/1999/xlink">
<g id="graph0" class="graph" transform="scale(1 1) rotate(0) translate(4 243)">
<title>curve/tab&#45;3.c</title>
<!-- Node1 -->
<g id="Node000001" class="node">
<title>Node1</title>
<g id="a_Node000001"><a xlink:title="3rd tab of the curve layout edition dialog">
<polygon fill="#999999" stroke="#666666" points="428,-239 348,-239 348,-220 428,-220 428,-239"/>
<text text-anchor="middle" x="388" y="-227" font-family="Helvetica,sans-Serif" font-size="10.00">curve/tab&#45;3.c</text>
</a>
</g>
</g>
<!-- Node2 -->
<g id="Node000002" class="node">
<title>Node2</title>
<g id="a_Node000002"><a xlink:title=" ">
<polygon fill="#e0e0e0" stroke="#999999" points="60,-74 0,-74 0,-55 60,-55 60,-74"/>
<text text-anchor="middle" x="30" y="-62" font-family="Helvetica,sans-Serif" font-size="10.00">gtk/gtk.h</text>
</a>
</g>
</g>
<!-- Node1&#45;&gt;Node2 -->
<g id="edge1_Node000001_Node000002" class="edge">
<title>Node1&#45;&gt;Node2</title>
<g id="a_edge1_Node000001_Node000002"><a xlink:title=" ">
<path fill="none" stroke="#63b8ff" d="M347.74,-228.99C267.27,-229.09 90.71,-224.54 49,-184 22.32,-158.07 23.62,-110.65 26.84,-84.35"/>
<polygon fill="#63b8ff" stroke="#63b8ff" points="30.34,-84.59 28.31,-74.19 23.41,-83.58 30.34,-84.59"/>
</a>
</g>
</g>
<!-- Node3 -->
<g id="Node000003" class="node">
<title>Node3</title>
<g id="a_Node000003"><a xlink:title=" ">
<polygon fill="#e0e0e0" stroke="#999999" points="108,-184 58,-184 58,-165 108,-165 108,-184"/>
<text text-anchor="middle" x="83" y="-172" font-family="Helvetica,sans-Serif" font-size="10.00">cairo.h</text>
</a>
</g>
</g>
<!-- Node1&#45;&gt;Node3 -->
<g id="edge2_Node000001_Node000003" class="edge">
<title>Node1&#45;&gt;Node3</title>
<g id="a_edge2_Node000001_Node000003"><a xlink:title=" ">
<path fill="none" stroke="#63b8ff" d="M347.86,-222.96C296.71,-215.67 205.38,-201.89 118.01,-184.07"/>
<polygon fill="#63b8ff" stroke="#63b8ff" points="118.7,-180.64 108.2,-182.04 117.29,-187.49 118.7,-180.64"/>
</a>
</g>
</g>
<!-- Node4 -->
<g id="Node000004" class="node">
<title>Node4</title>
<g id="a_Node000004"><a xlink:title=" ">
<polygon fill="#e0e0e0" stroke="#999999" points="194,-184 126,-184 126,-165 194,-165 194,-184"/>
<text text-anchor="middle" x="160" y="-172" font-family="Helvetica,sans-Serif" font-size="10.00">cairo&#45;pdf.h</text>
</a>
</g>
</g>
<!-- Node1&#45;&gt;Node4 -->
<g id="edge3_Node000001_Node000004" class="edge">
<title>Node1&#45;&gt;Node4</title>
<g id="a_edge3_Node000001_Node000004"><a xlink:title=" ">
<path fill="none" stroke="#63b8ff" d="M351.37,-219.98C311.28,-210.67 247.02,-195.73 204.17,-185.77"/>
<polygon fill="#63b8ff" stroke="#63b8ff" points="204.84,-182.33 194.3,-183.47 203.25,-189.15 204.84,-182.33"/>
</a>
</g>
</g>
<!-- Node5 -->
<g id="Node000005" class="node">
<title>Node5</title>
<g id="a_Node000005"><a xlink:title=" ">
<polygon fill="#e0e0e0" stroke="#999999" points="283.5,-184 212.5,-184 212.5,-165 283.5,-165 283.5,-184"/>
<text text-anchor="middle" x="248" y="-172" font-family="Helvetica,sans-Serif" font-size="10.00">cairo&#45;svg.h</text>
</a>
</g>
</g>
<!-- Node1&#45;&gt;Node5 -->
<g id="edge4_Node000001_Node000005" class="edge">
<title>Node1&#45;&gt;Node5</title>
<g id="a_edge4_Node000001_Node000005"><a xlink:title=" ">
<path fill="none" stroke="#63b8ff" d="M365.51,-219.98C342.48,-211.27 306.46,-197.63 280.37,-187.75"/>
<polygon fill="#63b8ff" stroke="#63b8ff" points="281.49,-184.44 270.9,-184.17 279.02,-190.98 281.49,-184.44"/>
</a>
</g>
</g>
<!-- Node6 -->
<g id="Node000006" class="node">
<title>Node6</title>
<g id="a_Node000006"><a xlink:title=" ">
<polygon fill="#e0e0e0" stroke="#999999" points="131.5,-74 78.5,-74 78.5,-55 131.5,-55 131.5,-74"/>
<text text-anchor="middle" x="105" y="-62" font-family="Helvetica,sans-Serif" font-size="10.00">string.h</text>
</a>
</g>
</g>
<!-- Node1&#45;&gt;Node6 -->
<g id="edge5_Node000001_Node000006" class="edge">
<title>Node1&#45;&gt;Node6</title>
<g id="a_edge5_Node000001_Node000006"><a xlink:title=" ">
<path fill="none" stroke="#63b8ff" d="M375.81,-219.9C357.81,-207.31 322.91,-183.39 292,-165 236.01,-131.69 167.95,-96.83 131.35,-78.52"/>
<polygon fill="#63b8ff" stroke="#63b8ff" points="132.83,-75.35 122.32,-74.02 129.71,-81.61 132.83,-75.35"/>
</a>
</g>
</g>
<!-- Node7 -->
<g id="Node000007" class="node">
<title>Node7</title>
<g id="a_Node000007"><a xlink:title=" ">
<polygon fill="#e0e0e0" stroke="#999999" points="202.5,-74 149.5,-74 149.5,-55 202.5,-55 202.5,-74"/>
<text text-anchor="middle" x="176" y="-62" font-family="Helvetica,sans-Serif" font-size="10.00">stdlib.h</text>
</a>
</g>
</g>
<!-- Node1&#45;&gt;Node7 -->
<g id="edge6_Node000001_Node000007" class="edge">
<title>Node1&#45;&gt;Node7</title>
<g id="a_edge6_Node000001_Node000007"><a xlink:title=" ">
<path fill="none" stroke="#63b8ff" d="M385.97,-219.87C380.4,-198.04 362.75,-140.25 326,-110 317.09,-102.66 253.88,-85.45 212.4,-74.71"/>
<polygon fill="#63b8ff" stroke="#63b8ff" points="213.19,-71.3 202.63,-72.2 211.44,-78.08 213.19,-71.3"/>
</a>
</g>
</g>
<!-- Node8 -->
<g id="Node000008" class="node">
<title>Node8</title>
<g id="a_Node000008"><a xlink:title=" ">
<polygon fill="#e0e0e0" stroke="#999999" points="836.5,-19 785.5,-19 785.5,0 836.5,0 836.5,-19"/>
<text text-anchor="middle" x="811" y="-7" font-family="Helvetica,sans-Serif" font-size="10.00">math.h</text>
</a>
</g>
</g>
<!-- Node1&#45;&gt;Node8 -->
<g id="edge7_Node000001_Node000008" class="edge">
<title>Node1&#45;&gt;Node8</title>
<g id="a_edge7_Node000001_Node000008"><a xlink:title=" ">
<path fill="none" stroke="#63b8ff" d="M428.2,-227.01C642.65,-218.68 1645.65,-174.48 1735,-74 1740.61,-67.69 1740.83,-61.11 1735,-55 1703.83,-22.29 1013.33,-12.7 846.87,-10.86"/>
<polygon fill="#63b8ff" stroke="#63b8ff" points="846.71,-7.36 836.67,-10.75 846.63,-14.36 846.71,-7.36"/>
</a>
</g>
</g>
<!-- Node9 -->
<g id="Node000009" class="node">
<title>Node9</title>
<g id="a_Node000009"><a xlink:href="../../d2/d49/global_8h.html" target="_top" xlink:title="Global variable declarations &#160;&#160;Global convenience function declarations &#160;&#160;Global data structure defin...">
<polygon fill="white" stroke="#666666" points="743,-129 687,-129 687,-110 743,-110 743,-129"/>
<text text-anchor="middle" x="715" y="-117" font-family="Helvetica,sans-Serif" font-size="10.00">global.h</text>
</a>
</g>
</g>
<!-- Node1&#45;&gt;Node9 -->
<g id="edge8_Node000001_Node000009" class="edge">
<title>Node1&#45;&gt;Node9</title>
<g id="a_edge8_Node000001_Node000009"><a xlink:title=" ">
<path fill="none" stroke="#63b8ff" d="M387.85,-219.99C388.11,-206.17 390.79,-178.98 407,-165 446.72,-130.73 603.42,-122.85 676.76,-121.04"/>
<polygon fill="#63b8ff" stroke="#63b8ff" points="677.03,-124.53 686.95,-120.81 676.88,-117.53 677.03,-124.53"/>
</a>
</g>
</g>
<!-- Node28 -->
<g id="Node000028" class="node">
<title>Node28</title>
<g id="a_Node000028"><a xlink:href="../../d4/da9/interface_8h.html" target="_top" xlink:title="Messaging function declarations.">
<polygon fill="white" stroke="#666666" points="556.5,-184 487.5,-184 487.5,-165 556.5,-165 556.5,-184"/>
<text text-anchor="middle" x="522" y="-172" font-family="Helvetica,sans-Serif" font-size="10.00">interface.h</text>
</a>
</g>
</g>
<!-- Node1&#45;&gt;Node28 -->
<g id="edge33_Node000001_Node000028" class="edge">
<title>Node1&#45;&gt;Node28</title>
<g id="a_edge33_Node000001_Node000028"><a xlink:title=" ">
<path fill="none" stroke="#63b8ff" d="M409.53,-219.98C431.47,-211.3 465.74,-197.75 490.69,-187.88"/>
<polygon fill="#63b8ff" stroke="#63b8ff" points="492.07,-191.1 500.08,-184.17 489.49,-184.59 492.07,-191.1"/>
</a>
</g>
</g>
<!-- Node29 -->
<g id="Node000029" class="node">
<title>Node29</title>
<g id="a_Node000029"><a xlink:href="../../dd/d49/callbacks_8h.html" target="_top" xlink:title="Callback declarations for main window.">
<polygon fill="white" stroke="#666666" points="645.5,-184 574.5,-184 574.5,-165 645.5,-165 645.5,-184"/>
<text text-anchor="middle" x="610" y="-172" font-family="Helvetica,sans-Serif" font-size="10.00">callbacks.h</text>
</a>
</g>
</g>
<!-- Node1&#45;&gt;Node29 -->
<g id="edge34_Node000001_Node000029" class="edge">
<title>Node1&#45;&gt;Node29</title>
<g id="a_edge34_Node000001_Node000029"><a xlink:title=" ">
<path fill="none" stroke="#63b8ff" d="M423.67,-219.98C461.94,-210.85 522.83,-196.31 564.52,-186.36"/>
<polygon fill="#63b8ff" stroke="#63b8ff" points="565.51,-189.72 574.42,-183.99 563.88,-182.91 565.51,-189.72"/>
</a>
</g>
</g>
<!-- Node30 -->
<g id="Node000030" class="node">
<title>Node30</title>
<g id="a_Node000030"><a xlink:href="../../dc/d8d/project_8h.html" target="_top" xlink:title="Function declarations for reading atomes project file &#160;&#160;Function declarations for saving atomes proje...">
<polygon fill="white" stroke="#666666" points="722.5,-184 663.5,-184 663.5,-165 722.5,-165 722.5,-184"/>
<text text-anchor="middle" x="693" y="-172" font-family="Helvetica,sans-Serif" font-size="10.00">project.h</text>
</a>
</g>
</g>
<!-- Node1&#45;&gt;Node30 -->
<g id="edge35_Node000001_Node000030" class="edge">
<title>Node1&#45;&gt;Node30</title>
<g id="a_edge35_Node000001_Node000030"><a xlink:title=" ">
<path fill="none" stroke="#63b8ff" d="M428.22,-222.4C478.47,-214.64 567.32,-200.46 653.3,-184.05"/>
<polygon fill="#63b8ff" stroke="#63b8ff" points="654.06,-187.47 663.22,-182.15 652.74,-180.6 654.06,-187.47"/>
</a>
</g>
</g>
<!-- Node31 -->
<g id="Node000031" class="node">
<title>Node31</title>
<g id="a_Node000031"><a xlink:href="../../df/de9/curve_8h.html" target="_top" xlink:title="Variable declarations for the curve widget &#160;&#160;Functions for interactions with the curve widget.">
<polygon fill="white" stroke="#666666" points="469.5,-184 416.5,-184 416.5,-165 469.5,-165 469.5,-184"/>
<text text-anchor="middle" x="443" y="-172" font-family="Helvetica,sans-Serif" font-size="10.00">curve.h</text>
</a>
</g>
</g>
<!-- Node1&#45;&gt;Node31 -->
<g id="edge36_Node000001_Node000031" class="edge">
<title>Node1&#45;&gt;Node31</title>
<g id="a_edge36_Node000001_Node000031"><a xlink:title=" ">
<path fill="none" stroke="#63b8ff" d="M397.08,-219.75C405.09,-212.03 416.96,-200.6 426.62,-191.28"/>
<polygon fill="#63b8ff" stroke="#63b8ff" points="429.31,-193.55 434.09,-184.09 424.46,-188.51 429.31,-193.55"/>
</a>
</g>
</g>
<!-- Node32 -->
<g id="Node000032" class="node">
<title>Node32</title>
<g id="a_Node000032"><a xlink:href="../../d7/d21/cedit_8h.html" target="_top" xlink:title="Variable declarations for the curve layout edition window.">
<polygon fill="white" stroke="#666666" points="791,-184 741,-184 741,-165 791,-165 791,-184"/>
<text text-anchor="middle" x="766" y="-172" font-family="Helvetica,sans-Serif" font-size="10.00">cedit.h</text>
</a>
</g>
</g>
<!-- Node1&#45;&gt;Node32 -->
<g id="edge38_Node000001_Node000032" class="edge">
<title>Node1&#45;&gt;Node32</title>
<g id="a_edge38_Node000001_Node000032"><a xlink:title=" ">
<path fill="none" stroke="#63b8ff" d="M428.23,-224.83C490.87,-218.78 615.65,-205.39 730.78,-184.03"/>
<polygon fill="#63b8ff" stroke="#63b8ff" points="731.64,-187.43 740.82,-182.14 730.35,-180.55 731.64,-187.43"/>
</a>
</g>
</g>
<!-- Node9&#45;&gt;Node2 -->
<g id="edge19_Node000009_Node000002" class="edge">
<title>Node9&#45;&gt;Node2</title>
<g id="a_edge19_Node000009_Node000002"><a xlink:title=" ">
<path fill="none" stroke="#63b8ff" d="M686.83,-118.02C597.76,-116.21 314.23,-108.08 70.28,-73.96"/>
<polygon fill="#63b8ff" stroke="#63b8ff" points="70.55,-70.46 60.15,-72.53 69.57,-77.4 70.55,-70.46"/>
</a>
</g>
</g>
<!-- Node9&#45;&gt;Node6 -->
<g id="edge13_Node000009_Node000006" class="edge">
<title>Node9&#45;&gt;Node6</title>
<g id="a_edge13_Node000009_Node000006"><a xlink:title=" ">
<path fill="none" stroke="#63b8ff" d="M686.99,-117.93C604.67,-115.91 356.32,-107.42 141.85,-74.05"/>
<polygon fill="#63b8ff" stroke="#63b8ff" points="142.09,-70.55 131.66,-72.44 141,-77.46 142.09,-70.55"/>
</a>
</g>
</g>
<!-- Node9&#45;&gt;Node7 -->
<g id="edge15_Node000009_Node000007" class="edge">
<title>Node9&#45;&gt;Node7</title>
<g id="a_edge15_Node000009_Node000007"><a xlink:title=" ">
<path fill="none" stroke="#63b8ff" d="M686.74,-117.42C611.33,-114.25 399.01,-103.35 212.63,-73.84"/>
<polygon fill="#63b8ff" stroke="#63b8ff" points="213.08,-70.37 202.65,-72.24 211.97,-77.28 213.08,-70.37"/>
</a>
</g>
</g>
<!-- Node9&#45;&gt;Node8 -->
<g id="edge18_Node000009_Node000008" class="edge">
<title>Node9&#45;&gt;Node8</title>
<g id="a_edge18_Node000009_Node000008"><a xlink:title=" ">
<path fill="none" stroke="#63b8ff" d="M739.48,-109.97C756.51,-102.85 778.5,-91.08 792,-74 802.14,-61.16 806.88,-43 809.09,-29.38"/>
<polygon fill="#63b8ff" stroke="#63b8ff" points="812.59,-29.6 810.41,-19.23 805.65,-28.7 812.59,-29.6"/>
</a>
</g>
</g>
<!-- Node10 -->
<g id="Node000010" class="node">
<title>Node10</title>
<g id="a_Node000010"><a xlink:title=" ">
<polygon fill="#e0e0e0" stroke="#999999" points="419,-74 375,-74 375,-55 419,-55 419,-74"/>
<text text-anchor="middle" x="397" y="-62" font-family="Helvetica,sans-Serif" font-size="10.00">glib.h</text>
</a>
</g>
</g>
<!-- Node9&#45;&gt;Node10 -->
<g id="edge9_Node000009_Node000010" class="edge">
<title>Node9&#45;&gt;Node10</title>
<g id="a_edge9_Node000009_Node000010"><a xlink:title=" ">
<path fill="none" stroke="#63b8ff" d="M686.7,-115.2C636.66,-109.12 529.15,-95.04 429.23,-74.05"/>
<polygon fill="#63b8ff" stroke="#63b8ff" points="429.79,-70.59 419.28,-71.93 428.33,-77.44 429.79,-70.59"/>
</a>
</g>
</g>
<!-- Node11 -->
<g id="Node000011" class="node">
<title>Node11</title>
<g id="a_Node000011"><a xlink:title=" ">
<polygon fill="#e0e0e0" stroke="#999999" points="511,-74 437,-74 437,-55 511,-55 511,-74"/>
<text text-anchor="middle" x="474" y="-62" font-family="Helvetica,sans-Serif" font-size="10.00">glib/gi18n.h</text>
</a>
</g>
</g>
<!-- Node9&#45;&gt;Node11 -->
<g id="edge10_Node000009_Node000011" class="edge">
<title>Node9&#45;&gt;Node11</title>
<g id="a_edge10_Node000009_Node000011"><a xlink:title=" ">
<path fill="none" stroke="#63b8ff" d="M686.88,-112.32C646.23,-103.38 570.5,-86.72 521.19,-75.88"/>
<polygon fill="#63b8ff" stroke="#63b8ff" points="521.92,-72.45 511.4,-73.72 520.41,-79.29 521.92,-72.45"/>
</a>
</g>
</g>
<!-- Node12 -->
<g id="Node000012" class="node">
<title>Node12</title>
<g id="a_Node000012"><a xlink:title=" ">
<polygon fill="#e0e0e0" stroke="#999999" points="584.5,-74 529.5,-74 529.5,-55 584.5,-55 584.5,-74"/>
<text text-anchor="middle" x="557" y="-62" font-family="Helvetica,sans-Serif" font-size="10.00">locale.h</text>
</a>
</g>
</g>
<!-- Node9&#45;&gt;Node12 -->
<g id="edge11_Node000009_Node000012" class="edge">
<title>Node9&#45;&gt;Node12</title>
<g id="a_edge11_Node000009_Node000012"><a xlink:title=" ">
<path fill="none" stroke="#63b8ff" d="M689.61,-109.98C663.2,-101.13 621.65,-87.19 592.11,-77.28"/>
<polygon fill="#63b8ff" stroke="#63b8ff" points="593.18,-73.94 582.58,-74.08 590.95,-80.58 593.18,-73.94"/>
</a>
</g>
</g>
<!-- Node13 -->
<g id="Node000013" class="node">
<title>Node13</title>
<g id="a_Node000013"><a xlink:title=" ">
<polygon fill="#e0e0e0" stroke="#999999" points="783,-74 727,-74 727,-55 783,-55 783,-74"/>
<text text-anchor="middle" x="755" y="-62" font-family="Helvetica,sans-Serif" font-size="10.00">unistd.h</text>
</a>
</g>
</g>
<!-- Node9&#45;&gt;Node13 -->
<g id="edge12_Node000009_Node000013" class="edge">
<title>Node9&#45;&gt;Node13</title>
<g id="a_edge12_Node000009_Node000013"><a xlink:title=" ">
<path fill="none" stroke="#63b8ff" d="M721.61,-109.75C727.26,-102.26 735.54,-91.28 742.45,-82.13"/>
<polygon fill="#63b8ff" stroke="#63b8ff" points="745.29,-84.18 748.52,-74.09 739.7,-79.96 745.29,-84.18"/>
</a>
</g>
</g>
<!-- Node14 -->
<g id="Node000014" class="node">
<title>Node14</title>
<g id="a_Node000014"><a xlink:title=" ">
<polygon fill="#e0e0e0" stroke="#999999" points="669,-19 619,-19 619,0 669,0 669,-19"/>
<text text-anchor="middle" x="644" y="-7" font-family="Helvetica,sans-Serif" font-size="10.00">stdio.h</text>
</a>
</g>
</g>
<!-- Node9&#45;&gt;Node14 -->
<g id="edge14_Node000009_Node000014" class="edge">
<title>Node9&#45;&gt;Node14</title>
<g id="a_edge14_Node000009_Node000014"><a xlink:title=" ">
<path fill="none" stroke="#63b8ff" d="M686.97,-111.6C667.82,-105.27 643.84,-93.78 632,-74 623.74,-60.19 628.5,-41.92 634.29,-28.53"/>
<polygon fill="#63b8ff" stroke="#63b8ff" points="637.5,-29.91 638.71,-19.39 631.2,-26.86 637.5,-29.91"/>
</a>
</g>
</g>
<!-- Node15 -->
<g id="Node000015" class="node">
<title>Node15</title>
<g id="a_Node000015"><a xlink:title=" ">
<polygon fill="#e0e0e0" stroke="#999999" points="911,-74 839,-74 839,-55 911,-55 911,-74"/>
<text text-anchor="middle" x="875" y="-62" font-family="Helvetica,sans-Serif" font-size="10.00">sys/types.h</text>
</a>
</g>
</g>
<!-- Node9&#45;&gt;Node15 -->
<g id="edge16_Node000009_Node000015" class="edge">
<title>Node9&#45;&gt;Node15</title>
<g id="a_edge16_Node000009_Node000015"><a xlink:title=" ">
<path fill="none" stroke="#63b8ff" d="M740.71,-109.98C767.45,-101.13 809.53,-87.19 839.45,-77.28"/>
<polygon fill="#63b8ff" stroke="#63b8ff" points="840.7,-80.55 849.09,-74.08 838.5,-73.9 840.7,-80.55"/>
</a>
</g>
</g>
<!-- Node16 -->
<g id="Node000016" class="node">
<title>Node16</title>
<g id="a_Node000016"><a xlink:title=" ">
<polygon fill="#e0e0e0" stroke="#999999" points="993,-74 929,-74 929,-55 993,-55 993,-74"/>
<text text-anchor="middle" x="961" y="-62" font-family="Helvetica,sans-Serif" font-size="10.00">sys/stat.h</text>
</a>
</g>
</g>
<!-- Node9&#45;&gt;Node16 -->
<g id="edge17_Node000009_Node000016" class="edge">
<title>Node9&#45;&gt;Node16</title>
<g id="a_edge17_Node000009_Node000016"><a xlink:title=" ">
<path fill="none" stroke="#63b8ff" d="M743.22,-112.42C786.31,-103.14 868.8,-85.36 918.96,-74.56"/>
<polygon fill="#63b8ff" stroke="#63b8ff" points="919.81,-77.96 928.84,-72.43 918.33,-71.11 919.81,-77.96"/>
</a>
</g>
</g>
<!-- Node17 -->
<g id="Node000017" class="node">
<title>Node17</title>
<g id="a_Node000017"><a xlink:title=" ">
<polygon fill="#e0e0e0" stroke="#999999" points="1076.5,-74 1011.5,-74 1011.5,-55 1076.5,-55 1076.5,-74"/>
<text text-anchor="middle" x="1044" y="-62" font-family="Helvetica,sans-Serif" font-size="10.00">gdk/gdk.h</text>
</a>
</g>
</g>
<!-- Node9&#45;&gt;Node17 -->
<g id="edge20_Node000009_Node000017" class="edge">
<title>Node9&#45;&gt;Node17</title>
<g id="a_edge20_Node000009_Node000017"><a xlink:title=" ">
<path fill="none" stroke="#63b8ff" d="M743.18,-114.57C793.03,-107.52 900.24,-91.94 1001.39,-74.03"/>
<polygon fill="#63b8ff" stroke="#63b8ff" points="1002.24,-77.44 1011.47,-72.24 1001.01,-70.55 1002.24,-77.44"/>
</a>
</g>
</g>
<!-- Node18 -->
<g id="Node000018" class="node">
<title>Node18</title>
<g id="a_Node000018"><a xlink:title=" ">
<polygon fill="#e0e0e0" stroke="#999999" points="1203,-74 1095,-74 1095,-55 1203,-55 1203,-74"/>
<text text-anchor="middle" x="1149" y="-62" font-family="Helvetica,sans-Serif" font-size="10.00">gdk/gdkkeysyms.h</text>
</a>
</g>
</g>
<!-- Node9&#45;&gt;Node18 -->
<g id="edge21_Node000009_Node000018" class="edge">
<title>Node9&#45;&gt;Node18</title>
<g id="a_edge21_Node000009_Node000018"><a xlink:title=" ">
<path fill="none" stroke="#63b8ff" d="M743.41,-115.24C804.04,-108.24 950.86,-91.14 1084.69,-74.15"/>
<polygon fill="#63b8ff" stroke="#63b8ff" points="1085.23,-77.61 1094.71,-72.88 1084.35,-70.67 1085.23,-77.61"/>
</a>
</g>
</g>
<!-- Node19 -->
<g id="Node000019" class="node">
<title>Node19</title>
<g id="a_Node000019"><a xlink:title=" ">
<polygon fill="#e0e0e0" stroke="#999999" points="1354.5,-74 1221.5,-74 1221.5,-55 1354.5,-55 1354.5,-74"/>
<text text-anchor="middle" x="1288" y="-62" font-family="Helvetica,sans-Serif" font-size="10.00">gdk&#45;pixbuf/gdk&#45;pixbuf.h</text>
</a>
</g>
</g>
<!-- Node9&#45;&gt;Node19 -->
<g id="edge22_Node000009_Node000019" class="edge">
<title>Node9&#45;&gt;Node19</title>
<g id="a_edge22_Node000009_Node000019"><a xlink:title=" ">
<path fill="none" stroke="#63b8ff" d="M743.04,-116.21C817.38,-110.08 1025.86,-92.61 1211.08,-74.07"/>
<polygon fill="#63b8ff" stroke="#63b8ff" points="1211.68,-77.53 1221.28,-73.05 1210.98,-70.56 1211.68,-77.53"/>
</a>
</g>
</g>
<!-- Node20 -->
<g id="Node000020" class="node">
<title>Node20</title>
<g id="a_Node000020"><a xlink:title=" ">
<polygon fill="#e0e0e0" stroke="#999999" points="1473.5,-74 1372.5,-74 1372.5,-55 1473.5,-55 1473.5,-74"/>
<text text-anchor="middle" x="1423" y="-62" font-family="Helvetica,sans-Serif" font-size="10.00">pango/pangoft2.h</text>
</a>
</g>
</g>
<!-- Node9&#45;&gt;Node20 -->
<g id="edge23_Node000009_Node000020" class="edge">
<title>Node9&#45;&gt;Node20</title>
<g id="a_edge23_Node000009_Node000020"><a xlink:title=" ">
<path fill="none" stroke="#63b8ff" d="M743.21,-117.32C832.43,-113.42 1116.59,-99.81 1362,-74.14"/>
<polygon fill="#63b8ff" stroke="#63b8ff" points="1362.6,-77.6 1372.18,-73.07 1361.87,-70.64 1362.6,-77.6"/>
</a>
</g>
</g>
<!-- Node21 -->
<g id="Node000021" class="node">
<title>Node21</title>
<g id="a_Node000021"><a xlink:title=" ">
<polygon fill="#e0e0e0" stroke="#999999" points="1560,-74 1492,-74 1492,-55 1560,-55 1560,-74"/>
<text text-anchor="middle" x="1526" y="-62" font-family="Helvetica,sans-Serif" font-size="10.00">epoxy/gl.h</text>
</a>
</g>
</g>
<!-- Node9&#45;&gt;Node21 -->
<g id="edge24_Node000009_Node000021" class="edge">
<title>Node9&#45;&gt;Node21</title>
<g id="a_edge24_Node000009_Node000021"><a xlink:title=" ">
<path fill="none" stroke="#63b8ff" d="M743.02,-118.26C842.45,-117.13 1187.63,-110.72 1481.8,-73.96"/>
<polygon fill="#63b8ff" stroke="#63b8ff" points="1482.32,-77.43 1491.8,-72.7 1481.44,-70.48 1482.32,-77.43"/>
</a>
</g>
</g>
<!-- Node22 -->
<g id="Node000022" class="node">
<title>Node22</title>
<g id="a_Node000022"><a xlink:title=" ">
<polygon fill="#e0e0e0" stroke="#999999" points="1634,-74 1578,-74 1578,-55 1634,-55 1634,-74"/>
<text text-anchor="middle" x="1606" y="-62" font-family="Helvetica,sans-Serif" font-size="10.00">GL/glu.h</text>
</a>
</g>
</g>
<!-- Node9&#45;&gt;Node22 -->
<g id="edge25_Node000009_Node000022" class="edge">
<title>Node9&#45;&gt;Node22</title>
<g id="a_edge25_Node000009_Node000022"><a xlink:title=" ">
<path fill="none" stroke="#63b8ff" d="M743.18,-118.8C849.84,-119.57 1238.9,-119.04 1567.62,-73.92"/>
<polygon fill="#63b8ff" stroke="#63b8ff" points="1568.39,-77.35 1577.81,-72.51 1567.43,-70.42 1568.39,-77.35"/>
</a>
</g>
</g>
<!-- Node23 -->
<g id="Node000023" class="node">
<title>Node23</title>
<g id="a_Node000023"><a xlink:title=" ">
<polygon fill="#e0e0e0" stroke="#999999" points="1726,-74 1652,-74 1652,-55 1726,-55 1726,-74"/>
<text text-anchor="middle" x="1689" y="-62" font-family="Helvetica,sans-Serif" font-size="10.00">epoxy/glx.h</text>
</a>
</g>
</g>
<!-- Node9&#45;&gt;Node23 -->
<g id="edge26_Node000009_Node000023" class="edge">
<title>Node9&#45;&gt;Node23</title>
<g id="a_edge26_Node000009_Node000023"><a xlink:title=" ">
<path fill="none" stroke="#63b8ff" d="M743.21,-118.53C855.49,-118.37 1281.69,-114.99 1641.81,-73.96"/>
<polygon fill="#63b8ff" stroke="#63b8ff" points="1642.37,-77.42 1651.91,-72.8 1641.57,-70.46 1642.37,-77.42"/>
</a>
</g>
</g>
<!-- Node24 -->
<g id="Node000024" class="node">
<title>Node24</title>
<g id="a_Node000024"><a xlink:href="../../dc/db0/math__3d_8h.html" target="_top" xlink:title="Functions for OpenGL math.">
<polygon fill="white" stroke="#666666" points="709,-74 641,-74 641,-55 709,-55 709,-74"/>
<text text-anchor="middle" x="675" y="-62" font-family="Helvetica,sans-Serif" font-size="10.00">math_3d.h</text>
</a>
</g>
</g>
<!-- Node9&#45;&gt;Node24 -->
<g id="edge27_Node000009_Node000024" class="edge">
<title>Node9&#45;&gt;Node24</title>
<g id="a_edge27_Node000009_Node000024"><a xlink:title=" ">
<path fill="none" stroke="#63b8ff" d="M708.39,-109.75C702.74,-102.26 694.46,-91.28 687.55,-82.13"/>
<polygon fill="#63b8ff" stroke="#63b8ff" points="690.3,-79.96 681.48,-74.09 684.71,-84.18 690.3,-79.96"/>
</a>
</g>
</g>
<!-- Node25 -->
<g id="Node000025" class="node">
<title>Node25</title>
<g id="a_Node000025"><a xlink:href="../../da/d7e/glwin_8h.html" target="_top" xlink:title="Variable declarations related the OpenGL window &#160;&#160;Data structure declarations related the OpenGL wind...">
<polygon fill="white" stroke="#666666" points="273,-74 221,-74 221,-55 273,-55 273,-74"/>
<text text-anchor="middle" x="247" y="-62" font-family="Helvetica,sans-Serif" font-size="10.00">glwin.h</text>
</a>
</g>
</g>
<!-- Node9&#45;&gt;Node25 -->
<g id="edge30_Node000009_Node000025" class="edge">
<title>Node9&#45;&gt;Node25</title>
<g id="a_edge30_Node000009_Node000025"><a xlink:title=" ">
<path fill="none" stroke="#63b8ff" d="M686.96,-116.94C619.19,-112.9 441.07,-100.59 283.18,-73.98"/>
<polygon fill="#63b8ff" stroke="#63b8ff" points="283.74,-70.53 273.29,-72.29 282.56,-77.43 283.74,-70.53"/>
</a>
</g>
</g>
<!-- Node27 -->
<g id="Node000027" class="node">
<title>Node27</title>
<g id="a_Node000027"><a xlink:title=" ">
<polygon fill="#e0e0e0" stroke="#999999" points="357,-74 291,-74 291,-55 357,-55 357,-74"/>
<text text-anchor="middle" x="324" y="-62" font-family="Helvetica,sans-Serif" font-size="10.00">gtk/gtkx.h</text>
</a>
</g>
</g>
<!-- Node9&#45;&gt;Node27 -->
<g id="edge32_Node000009_Node000027" class="edge">
<title>Node9&#45;&gt;Node27</title>
<g id="a_edge32_Node000009_Node000027"><a xlink:title=" ">
<path fill="none" stroke="#63b8ff" d="M686.85,-115.61C628.96,-109.53 492.19,-94.38 367.53,-74.15"/>
<polygon fill="#63b8ff" stroke="#63b8ff" points="367.86,-70.66 357.43,-72.49 366.73,-77.57 367.86,-70.66"/>
</a>
</g>
</g>
<!-- Node24&#45;&gt;Node8 -->
<g id="edge28_Node000024_Node000008" class="edge">
<title>Node24&#45;&gt;Node8</title>
<g id="a_edge28_Node000024_Node000008"><a xlink:title=" ">
<path fill="none" stroke="#63b8ff" d="M696.85,-54.98C719.12,-46.3 753.9,-32.75 779.22,-22.88"/>
<polygon fill="#63b8ff" stroke="#63b8ff" points="780.71,-26.06 788.75,-19.17 778.16,-19.54 780.71,-26.06"/>
</a>
</g>
</g>
<!-- Node24&#45;&gt;Node14 -->
<g id="edge29_Node000024_Node000014" class="edge">
<title>Node24&#45;&gt;Node14</title>
<g id="a_edge29_Node000024_Node000014"><a xlink:title=" ">
<path fill="none" stroke="#63b8ff" d="M669.88,-54.75C665.64,-47.49 659.47,-36.95 654.22,-27.98"/>
<polygon fill="#63b8ff" stroke="#63b8ff" points="657.09,-25.95 649.02,-19.09 651.05,-29.49 657.09,-25.95"/>
</a>
</g>
</g>
<!-- Node26 -->
<g id="Node000026" class="node">
<title>Node26</title>
<g id="a_Node000026"><a xlink:href="../../d5/d9e/ogl__shading_8h.html" target="_top" xlink:title="Variable declarations related to GLSL programs &#160;&#160;Data structure declarations related to GLSL programs...">
<polygon fill="white" stroke="#666666" points="289,-19 205,-19 205,0 289,0 289,-19"/>
<text text-anchor="middle" x="247" y="-7" font-family="Helvetica,sans-Serif" font-size="10.00">ogl_shading.h</text>
</a>
</g>
</g>
<!-- Node25&#45;&gt;Node26 -->
<g id="edge31_Node000025_Node000026" class="edge">
<title>Node25&#45;&gt;Node26</title>
<g id="a_edge31_Node000025_Node000026"><a xlink:title=" ">
<path fill="none" stroke="#63b8ff" d="M247,-54.75C247,-47.8 247,-37.85 247,-29.13"/>
<polygon fill="#63b8ff" stroke="#63b8ff" points="250.5,-29.09 247,-19.09 243.5,-29.09 250.5,-29.09"/>
</a>
</g>
</g>
<!-- Node31&#45;&gt;Node9 -->
<g id="edge37_Node000031_Node000009" class="edge">
<title>Node31&#45;&gt;Node9</title>
<g id="a_edge37_Node000031_Node000009"><a xlink:title=" ">
<path fill="none" stroke="#63b8ff" d="M469.72,-166.86C472.51,-166.21 475.31,-165.58 478,-165 547.82,-149.98 629.83,-135.22 676.78,-127.04"/>
<polygon fill="#63b8ff" stroke="#63b8ff" points="677.56,-130.46 686.81,-125.3 676.36,-123.56 677.56,-130.46"/>
</a>
</g>
</g>
<!-- Node32&#45;&gt;Node9 -->
<g id="edge39_Node000032_Node000009" class="edge">
<title>Node32&#45;&gt;Node9</title>
<g id="a_edge39_Node000032_Node000009"><a xlink:title=" ">
<path fill="none" stroke="#63b8ff" d="M757.58,-164.75C750.23,-157.11 739.37,-145.82 730.46,-136.56"/>
<polygon fill="#63b8ff" stroke="#63b8ff" points="732.72,-133.87 723.26,-129.09 727.68,-138.72 732.72,-133.87"/>
</a>
</g>
</g>
</g>
</svg>
