<?xml version="1.0" encoding="UTF-8" standalone="no"?>
<!DOCTYPE svg PUBLIC "-//W3C//DTD SVG 1.1//EN"
 "http://www.w3.org/Graphics/SVG/1.1/DTD/svg11.dtd">
<!-- Generated by graphviz version 7.1.0 (0)
 -->
<!-- Title: opengl/win/m_coord.c Pages: 1 -->
<svg width="1618pt" height="192pt"
 viewBox="0.00 0.00 1618.00 192.00" xmlns="http://www.w3.org/2000/svg" xmlns:xlink="http://www.w3.org/1999/xlink">
<g id="graph0" class="graph" transform="scale(1 1) rotate(0) translate(4 188)">
<title>opengl/win/m_coord.c</title>
<!-- Node1 -->
<g id="Node000001" class="node">
<title>Node1</title>
<g id="a_Node000001"><a xlink:title="Functions to create the &#39;Chemistry &#45;&gt; Coordination&#39; submenu.">
<polygon fill="#999999" stroke="#666666" points="890,-184 778,-184 778,-165 890,-165 890,-184"/>
<text text-anchor="middle" x="834" y="-172" font-family="Helvetica,sans-Serif" font-size="10.00">opengl/win/m_coord.c</text>
</a>
</g>
</g>
<!-- Node2 -->
<g id="Node000002" class="node">
<title>Node2</title>
<g id="a_Node000002"><a xlink:href="../../d2/d49/global_8h.html" target="_top" xlink:title="Global variable declarations &#160;&#160;Global convenience function declarations &#160;&#160;Global data structure defin...">
<polygon fill="white" stroke="#666666" points="748,-129 698,-129 698,-110 748,-110 748,-129"/>
<text text-anchor="middle" x="723" y="-117" font-family="Helvetica,sans-Serif" font-size="10.00">global.h</text>
</a>
</g>
</g>
<!-- Node1&#45;&gt;Node2 -->
<g id="edge1_Node000001_Node000002" class="edge">
<title>Node1&#45;&gt;Node2</title>
<g id="a_edge1_Node000001_Node000002"><a xlink:title=" ">
<path fill="none" stroke="#63b8ff" d="M815.17,-164.51C797.84,-156.24 771.89,-143.84 751.93,-134.31"/>
<polygon fill="#63b8ff" stroke="#63b8ff" points="753.45,-131.16 742.92,-130.01 750.43,-137.48 753.45,-131.16"/>
</a>
</g>
</g>
<!-- Node25 -->
<g id="Node000025" class="node">
<title>Node25</title>
<g id="a_Node000025"><a xlink:href="../../d4/da9/interface_8h.html" target="_top" xlink:title="Messaging function declarations.">
<polygon fill="white" stroke="#666666" points="828,-129 766,-129 766,-110 828,-110 828,-129"/>
<text text-anchor="middle" x="797" y="-117" font-family="Helvetica,sans-Serif" font-size="10.00">interface.h</text>
</a>
</g>
</g>
<!-- Node1&#45;&gt;Node25 -->
<g id="edge26_Node000001_Node000025" class="edge">
<title>Node1&#45;&gt;Node25</title>
<g id="a_edge26_Node000001_Node000025"><a xlink:title=" ">
<path fill="none" stroke="#63b8ff" d="M827.89,-164.75C822.99,-157.73 815.95,-147.64 809.83,-138.87"/>
<polygon fill="#63b8ff" stroke="#63b8ff" points="812.7,-136.88 804.11,-130.68 806.96,-140.89 812.7,-136.88"/>
</a>
</g>
</g>
<!-- Node26 -->
<g id="Node000026" class="node">
<title>Node26</title>
<g id="a_Node000026"><a xlink:href="../../dc/de3/glview_8h.html" target="_top" xlink:title="Variable declarations related to the OpenGL window &#160;&#160;Function declarations related to the OpenGL wind...">
<polygon fill="white" stroke="#666666" points="898,-129 846,-129 846,-110 898,-110 898,-129"/>
<text text-anchor="middle" x="872" y="-117" font-family="Helvetica,sans-Serif" font-size="10.00">glview.h</text>
</a>
</g>
</g>
<!-- Node1&#45;&gt;Node26 -->
<g id="edge27_Node000001_Node000026" class="edge">
<title>Node1&#45;&gt;Node26</title>
<g id="a_edge27_Node000001_Node000026"><a xlink:title=" ">
<path fill="none" stroke="#63b8ff" d="M840.27,-164.75C845.36,-157.66 852.7,-147.42 859.03,-138.59"/>
<polygon fill="#63b8ff" stroke="#63b8ff" points="861.72,-140.84 864.71,-130.67 856.04,-136.76 861.72,-140.84"/>
</a>
</g>
</g>
<!-- Node27 -->
<g id="Node000027" class="node">
<title>Node27</title>
<g id="a_Node000027"><a xlink:href="../../d1/d2a/glwindow_8h.html" target="_top" xlink:title="Function declarations for the creation of the OpenGL window.">
<polygon fill="white" stroke="#666666" points="981.5,-129 916.5,-129 916.5,-110 981.5,-110 981.5,-129"/>
<text text-anchor="middle" x="949" y="-117" font-family="Helvetica,sans-Serif" font-size="10.00">glwindow.h</text>
</a>
</g>
</g>
<!-- Node1&#45;&gt;Node27 -->
<g id="edge28_Node000001_Node000027" class="edge">
<title>Node1&#45;&gt;Node27</title>
<g id="a_edge28_Node000001_Node000027"><a xlink:title=" ">
<path fill="none" stroke="#63b8ff" d="M853.51,-164.51C871.63,-156.16 898.85,-143.61 919.6,-134.05"/>
<polygon fill="#63b8ff" stroke="#63b8ff" points="920.79,-137.36 928.41,-129.99 917.86,-131 920.79,-137.36"/>
</a>
</g>
</g>
<!-- Node3 -->
<g id="Node000003" class="node">
<title>Node3</title>
<g id="a_Node000003"><a xlink:title=" ">
<polygon fill="#e0e0e0" stroke="#999999" points="40,-74 0,-74 0,-55 40,-55 40,-74"/>
<text text-anchor="middle" x="20" y="-62" font-family="Helvetica,sans-Serif" font-size="10.00">glib.h</text>
</a>
</g>
</g>
<!-- Node2&#45;&gt;Node3 -->
<g id="edge2_Node000002_Node000003" class="edge">
<title>Node2&#45;&gt;Node3</title>
<g id="a_edge2_Node000002_Node000003"><a xlink:title=" ">
<path fill="none" stroke="#63b8ff" d="M697.67,-118.82C609.47,-119.5 307.7,-118.37 51.47,-74.04"/>
<polygon fill="#63b8ff" stroke="#63b8ff" points="52.41,-70.65 41.95,-72.36 51.2,-77.54 52.41,-70.65"/>
</a>
</g>
</g>
<!-- Node4 -->
<g id="Node000004" class="node">
<title>Node4</title>
<g id="a_Node000004"><a xlink:title=" ">
<polygon fill="#e0e0e0" stroke="#999999" points="124,-74 58,-74 58,-55 124,-55 124,-74"/>
<text text-anchor="middle" x="91" y="-62" font-family="Helvetica,sans-Serif" font-size="10.00">glib/gi18n.h</text>
</a>
</g>
</g>
<!-- Node2&#45;&gt;Node4 -->
<g id="edge3_Node000002_Node000004" class="edge">
<title>Node2&#45;&gt;Node4</title>
<g id="a_edge3_Node000002_Node000004"><a xlink:title=" ">
<path fill="none" stroke="#63b8ff" d="M697.58,-117.71C616.86,-114.98 359,-104.42 135.69,-74.2"/>
<polygon fill="#63b8ff" stroke="#63b8ff" points="136.29,-70.75 125.91,-72.86 135.34,-77.68 136.29,-70.75"/>
</a>
</g>
</g>
<!-- Node5 -->
<g id="Node000005" class="node">
<title>Node5</title>
<g id="a_Node000005"><a xlink:title=" ">
<polygon fill="#e0e0e0" stroke="#999999" points="192,-74 142,-74 142,-55 192,-55 192,-74"/>
<text text-anchor="middle" x="167" y="-62" font-family="Helvetica,sans-Serif" font-size="10.00">locale.h</text>
</a>
</g>
</g>
<!-- Node2&#45;&gt;Node5 -->
<g id="edge4_Node000002_Node000005" class="edge">
<title>Node2&#45;&gt;Node5</title>
<g id="a_edge4_Node000002_Node000005"><a xlink:title=" ">
<path fill="none" stroke="#63b8ff" d="M697.56,-117.77C623.06,-115.34 398.84,-105.86 203.5,-74.14"/>
<polygon fill="#63b8ff" stroke="#63b8ff" points="204.09,-70.69 193.65,-72.51 202.95,-77.59 204.09,-70.69"/>
</a>
</g>
</g>
<!-- Node6 -->
<g id="Node000006" class="node">
<title>Node6</title>
<g id="a_Node000006"><a xlink:title=" ">
<polygon fill="#e0e0e0" stroke="#999999" points="261.5,-74 210.5,-74 210.5,-55 261.5,-55 261.5,-74"/>
<text text-anchor="middle" x="236" y="-62" font-family="Helvetica,sans-Serif" font-size="10.00">unistd.h</text>
</a>
</g>
</g>
<!-- Node2&#45;&gt;Node6 -->
<g id="edge5_Node000002_Node000006" class="edge">
<title>Node2&#45;&gt;Node6</title>
<g id="a_edge5_Node000002_Node000006"><a xlink:title=" ">
<path fill="none" stroke="#63b8ff" d="M697.53,-117.31C629.85,-113.88 439.78,-102.45 272.86,-74.27"/>
<polygon fill="#63b8ff" stroke="#63b8ff" points="273.84,-70.89 263.4,-72.65 272.66,-77.79 273.84,-70.89"/>
</a>
</g>
</g>
<!-- Node7 -->
<g id="Node000007" class="node">
<title>Node7</title>
<g id="a_Node000007"><a xlink:title=" ">
<polygon fill="#e0e0e0" stroke="#999999" points="328.5,-74 279.5,-74 279.5,-55 328.5,-55 328.5,-74"/>
<text text-anchor="middle" x="304" y="-62" font-family="Helvetica,sans-Serif" font-size="10.00">string.h</text>
</a>
</g>
</g>
<!-- Node2&#45;&gt;Node7 -->
<g id="edge6_Node000002_Node000007" class="edge">
<title>Node2&#45;&gt;Node7</title>
<g id="a_edge6_Node000002_Node000007"><a xlink:title=" ">
<path fill="none" stroke="#63b8ff" d="M697.53,-116.39C636.22,-111.11 475.67,-96.17 343,-74 341.98,-73.83 340.95,-73.65 339.91,-73.47"/>
<polygon fill="#63b8ff" stroke="#63b8ff" points="340.66,-70.04 330.17,-71.55 339.31,-76.91 340.66,-70.04"/>
</a>
</g>
</g>
<!-- Node8 -->
<g id="Node000008" class="node">
<title>Node8</title>
<g id="a_Node000008"><a xlink:title=" ">
<polygon fill="#e0e0e0" stroke="#999999" points="580,-19 534,-19 534,0 580,0 580,-19"/>
<text text-anchor="middle" x="557" y="-7" font-family="Helvetica,sans-Serif" font-size="10.00">stdio.h</text>
</a>
</g>
</g>
<!-- Node2&#45;&gt;Node8 -->
<g id="edge7_Node000002_Node000008" class="edge">
<title>Node2&#45;&gt;Node8</title>
<g id="a_edge7_Node000002_Node000008"><a xlink:title=" ">
<path fill="none" stroke="#63b8ff" d="M697.66,-117.15C621.28,-112.82 397.27,-98.17 376,-74 333.43,-25.62 458.66,-14.1 522.32,-11.36"/>
<polygon fill="#63b8ff" stroke="#63b8ff" points="522.42,-14.85 532.28,-10.98 522.16,-7.86 522.42,-14.85"/>
</a>
</g>
</g>
<!-- Node9 -->
<g id="Node000009" class="node">
<title>Node9</title>
<g id="a_Node000009"><a xlink:title=" ">
<polygon fill="#e0e0e0" stroke="#999999" points="433,-74 385,-74 385,-55 433,-55 433,-74"/>
<text text-anchor="middle" x="409" y="-62" font-family="Helvetica,sans-Serif" font-size="10.00">stdlib.h</text>
</a>
</g>
</g>
<!-- Node2&#45;&gt;Node9 -->
<g id="edge8_Node000002_Node000009" class="edge">
<title>Node2&#45;&gt;Node9</title>
<g id="a_edge8_Node000002_Node000009"><a xlink:title=" ">
<path fill="none" stroke="#63b8ff" d="M697.67,-115.31C650.02,-109.14 543.64,-94.52 444.56,-74.36"/>
<polygon fill="#63b8ff" stroke="#63b8ff" points="445.43,-70.97 434.93,-72.38 444.02,-77.83 445.43,-70.97"/>
</a>
</g>
</g>
<!-- Node10 -->
<g id="Node000010" class="node">
<title>Node10</title>
<g id="a_Node000010"><a xlink:title=" ">
<polygon fill="#e0e0e0" stroke="#999999" points="519,-74 451,-74 451,-55 519,-55 519,-74"/>
<text text-anchor="middle" x="485" y="-62" font-family="Helvetica,sans-Serif" font-size="10.00">sys/types.h</text>
</a>
</g>
</g>
<!-- Node2&#45;&gt;Node10 -->
<g id="edge9_Node000002_Node000010" class="edge">
<title>Node2&#45;&gt;Node10</title>
<g id="a_edge9_Node000002_Node000010"><a xlink:title=" ">
<path fill="none" stroke="#63b8ff" d="M697.53,-112.83C657.7,-103.96 580.11,-86.68 530.51,-75.64"/>
<polygon fill="#63b8ff" stroke="#63b8ff" points="531.46,-72.26 520.94,-73.5 529.94,-79.09 531.46,-72.26"/>
</a>
</g>
</g>
<!-- Node11 -->
<g id="Node000011" class="node">
<title>Node11</title>
<g id="a_Node000011"><a xlink:title=" ">
<polygon fill="#e0e0e0" stroke="#999999" points="597,-74 537,-74 537,-55 597,-55 597,-74"/>
<text text-anchor="middle" x="567" y="-62" font-family="Helvetica,sans-Serif" font-size="10.00">sys/stat.h</text>
</a>
</g>
</g>
<!-- Node2&#45;&gt;Node11 -->
<g id="edge10_Node000002_Node000011" class="edge">
<title>Node2&#45;&gt;Node11</title>
<g id="a_edge10_Node000002_Node000011"><a xlink:title=" ">
<path fill="none" stroke="#63b8ff" d="M697.59,-109.87C672.28,-101.27 633.16,-87.98 604.33,-78.18"/>
<polygon fill="#63b8ff" stroke="#63b8ff" points="605.47,-74.87 594.88,-74.97 603.22,-81.5 605.47,-74.87"/>
</a>
</g>
</g>
<!-- Node12 -->
<g id="Node000012" class="node">
<title>Node12</title>
<g id="a_Node000012"><a xlink:title=" ">
<polygon fill="#e0e0e0" stroke="#999999" points="757.5,-19 710.5,-19 710.5,0 757.5,0 757.5,-19"/>
<text text-anchor="middle" x="734" y="-7" font-family="Helvetica,sans-Serif" font-size="10.00">math.h</text>
</a>
</g>
</g>
<!-- Node2&#45;&gt;Node12 -->
<g id="edge11_Node000002_Node000012" class="edge">
<title>Node2&#45;&gt;Node12</title>
<g id="a_edge11_Node000002_Node000012"><a xlink:title=" ">
<path fill="none" stroke="#63b8ff" d="M748.14,-111.64C751.11,-111 754.11,-110.43 757,-110 831.82,-98.77 1384.93,-128.9 1437,-74 1442.81,-67.87 1442.78,-61.16 1437,-55 1413.9,-30.39 907.62,-15.13 768.88,-11.4"/>
<polygon fill="#63b8ff" stroke="#63b8ff" points="769.31,-7.91 759.22,-11.14 769.12,-14.9 769.31,-7.91"/>
</a>
</g>
</g>
<!-- Node13 -->
<g id="Node000013" class="node">
<title>Node13</title>
<g id="a_Node000013"><a xlink:title=" ">
<polygon fill="#e0e0e0" stroke="#999999" points="750.5,-74 695.5,-74 695.5,-55 750.5,-55 750.5,-74"/>
<text text-anchor="middle" x="723" y="-62" font-family="Helvetica,sans-Serif" font-size="10.00">gtk/gtk.h</text>
</a>
</g>
</g>
<!-- Node2&#45;&gt;Node13 -->
<g id="edge12_Node000002_Node000013" class="edge">
<title>Node2&#45;&gt;Node13</title>
<g id="a_edge12_Node000002_Node000013"><a xlink:title=" ">
<path fill="none" stroke="#63b8ff" d="M723,-109.75C723,-103.27 723,-94.16 723,-85.9"/>
<polygon fill="#63b8ff" stroke="#63b8ff" points="726.5,-85.96 723,-75.96 719.5,-85.96 726.5,-85.96"/>
</a>
</g>
</g>
<!-- Node14 -->
<g id="Node000014" class="node">
<title>Node14</title>
<g id="a_Node000014"><a xlink:title=" ">
<polygon fill="#e0e0e0" stroke="#999999" points="827.5,-74 768.5,-74 768.5,-55 827.5,-55 827.5,-74"/>
<text text-anchor="middle" x="798" y="-62" font-family="Helvetica,sans-Serif" font-size="10.00">gdk/gdk.h</text>
</a>
</g>
</g>
<!-- Node2&#45;&gt;Node14 -->
<g id="edge13_Node000002_Node000014" class="edge">
<title>Node2&#45;&gt;Node14</title>
<g id="a_edge13_Node000002_Node000014"><a xlink:title=" ">
<path fill="none" stroke="#63b8ff" d="M735.72,-109.51C746.78,-101.7 763.04,-90.21 776.17,-80.93"/>
<polygon fill="#63b8ff" stroke="#63b8ff" points="778.08,-83.86 784.23,-75.23 774.04,-78.14 778.08,-83.86"/>
</a>
</g>
</g>
<!-- Node15 -->
<g id="Node000015" class="node">
<title>Node15</title>
<g id="a_Node000015"><a xlink:title=" ">
<polygon fill="#e0e0e0" stroke="#999999" points="944.5,-74 845.5,-74 845.5,-55 944.5,-55 944.5,-74"/>
<text text-anchor="middle" x="895" y="-62" font-family="Helvetica,sans-Serif" font-size="10.00">gdk/gdkkeysyms.h</text>
</a>
</g>
</g>
<!-- Node2&#45;&gt;Node15 -->
<g id="edge14_Node000002_Node000015" class="edge">
<title>Node2&#45;&gt;Node15</title>
<g id="a_edge14_Node000002_Node000015"><a xlink:title=" ">
<path fill="none" stroke="#63b8ff" d="M748.38,-110.68C776.59,-101.99 822.5,-87.84 855.44,-77.69"/>
<polygon fill="#63b8ff" stroke="#63b8ff" points="856.09,-81.15 864.62,-74.86 854.03,-74.46 856.09,-81.15"/>
</a>
</g>
</g>
<!-- Node16 -->
<g id="Node000016" class="node">
<title>Node16</title>
<g id="a_Node000016"><a xlink:title=" ">
<polygon fill="#e0e0e0" stroke="#999999" points="1081,-74 963,-74 963,-55 1081,-55 1081,-74"/>
<text text-anchor="middle" x="1022" y="-62" font-family="Helvetica,sans-Serif" font-size="10.00">gdk&#45;pixbuf/gdk&#45;pixbuf.h</text>
</a>
</g>
</g>
<!-- Node2&#45;&gt;Node16 -->
<g id="edge15_Node000002_Node000016" class="edge">
<title>Node2&#45;&gt;Node16</title>
<g id="a_edge15_Node000002_Node000016"><a xlink:title=" ">
<path fill="none" stroke="#63b8ff" d="M748.2,-111.97C751.16,-111.27 754.14,-110.6 757,-110 822.55,-96.32 897.91,-83.99 951.46,-75.8"/>
<polygon fill="#63b8ff" stroke="#63b8ff" points="951.69,-79.31 961.05,-74.34 950.64,-72.39 951.69,-79.31"/>
</a>
</g>
</g>
<!-- Node17 -->
<g id="Node000017" class="node">
<title>Node17</title>
<g id="a_Node000017"><a xlink:title=" ">
<polygon fill="#e0e0e0" stroke="#999999" points="1191,-74 1099,-74 1099,-55 1191,-55 1191,-74"/>
<text text-anchor="middle" x="1145" y="-62" font-family="Helvetica,sans-Serif" font-size="10.00">pango/pangoft2.h</text>
</a>
</g>
</g>
<!-- Node2&#45;&gt;Node17 -->
<g id="edge16_Node000002_Node000017" class="edge">
<title>Node2&#45;&gt;Node17</title>
<g id="a_edge16_Node000002_Node000017"><a xlink:title=" ">
<path fill="none" stroke="#63b8ff" d="M748.17,-111.8C751.13,-111.13 754.12,-110.51 757,-110 899.98,-84.52 940.44,-92.93 1087.28,-74.29"/>
<polygon fill="#63b8ff" stroke="#63b8ff" points="1087.54,-77.78 1097.01,-73.03 1086.64,-70.84 1087.54,-77.78"/>
</a>
</g>
</g>
<!-- Node18 -->
<g id="Node000018" class="node">
<title>Node18</title>
<g id="a_Node000018"><a xlink:title=" ">
<polygon fill="#e0e0e0" stroke="#999999" points="1271,-74 1209,-74 1209,-55 1271,-55 1271,-74"/>
<text text-anchor="middle" x="1240" y="-62" font-family="Helvetica,sans-Serif" font-size="10.00">epoxy/gl.h</text>
</a>
</g>
</g>
<!-- Node2&#45;&gt;Node18 -->
<g id="edge17_Node000002_Node000018" class="edge">
<title>Node2&#45;&gt;Node18</title>
<g id="a_edge17_Node000002_Node000018"><a xlink:title=" ">
<path fill="none" stroke="#63b8ff" d="M748.15,-111.72C751.12,-111.07 754.12,-110.47 757,-110 948.3,-78.53 1002.54,-101.69 1197.42,-74.18"/>
<polygon fill="#63b8ff" stroke="#63b8ff" points="1197.73,-77.67 1207.13,-72.78 1196.73,-70.74 1197.73,-77.67"/>
</a>
</g>
</g>
<!-- Node19 -->
<g id="Node000019" class="node">
<title>Node19</title>
<g id="a_Node000019"><a xlink:title=" ">
<polygon fill="#e0e0e0" stroke="#999999" points="1342.5,-74 1289.5,-74 1289.5,-55 1342.5,-55 1342.5,-74"/>
<text text-anchor="middle" x="1316" y="-62" font-family="Helvetica,sans-Serif" font-size="10.00">GL/glu.h</text>
</a>
</g>
</g>
<!-- Node2&#45;&gt;Node19 -->
<g id="edge18_Node000002_Node000019" class="edge">
<title>Node2&#45;&gt;Node19</title>
<g id="a_edge18_Node000002_Node000019"><a xlink:title=" ">
<path fill="none" stroke="#63b8ff" d="M748.15,-111.69C751.12,-111.04 754.12,-110.46 757,-110 983.54,-74.17 1047.64,-107.8 1278.25,-73.96"/>
<polygon fill="#63b8ff" stroke="#63b8ff" points="1278.49,-77.47 1287.86,-72.53 1277.45,-70.54 1278.49,-77.47"/>
</a>
</g>
</g>
<!-- Node20 -->
<g id="Node000020" class="node">
<title>Node20</title>
<g id="a_Node000020"><a xlink:title=" ">
<polygon fill="#e0e0e0" stroke="#999999" points="1427.5,-74 1360.5,-74 1360.5,-55 1427.5,-55 1427.5,-74"/>
<text text-anchor="middle" x="1394" y="-62" font-family="Helvetica,sans-Serif" font-size="10.00">epoxy/glx.h</text>
</a>
</g>
</g>
<!-- Node2&#45;&gt;Node20 -->
<g id="edge19_Node000002_Node000020" class="edge">
<title>Node2&#45;&gt;Node20</title>
<g id="a_edge19_Node000002_Node000020"><a xlink:title=" ">
<path fill="none" stroke="#63b8ff" d="M748.15,-111.66C751.11,-111.02 754.11,-110.44 757,-110 1014.7,-70.33 1086.65,-106.66 1348.85,-74.06"/>
<polygon fill="#63b8ff" stroke="#63b8ff" points="1349.29,-77.53 1358.77,-72.8 1348.41,-70.59 1349.29,-77.53"/>
</a>
</g>
</g>
<!-- Node21 -->
<g id="Node000021" class="node">
<title>Node21</title>
<g id="a_Node000021"><a xlink:href="../../dc/db0/math__3d_8h.html" target="_top" xlink:title="Functions for OpenGL math.">
<polygon fill="white" stroke="#666666" points="677,-74 615,-74 615,-55 677,-55 677,-74"/>
<text text-anchor="middle" x="646" y="-62" font-family="Helvetica,sans-Serif" font-size="10.00">math_3d.h</text>
</a>
</g>
</g>
<!-- Node2&#45;&gt;Node21 -->
<g id="edge20_Node000002_Node000021" class="edge">
<title>Node2&#45;&gt;Node21</title>
<g id="a_edge20_Node000002_Node000021"><a xlink:title=" ">
<path fill="none" stroke="#63b8ff" d="M709.94,-109.51C698.48,-101.62 681.57,-89.98 668.02,-80.65"/>
<polygon fill="#63b8ff" stroke="#63b8ff" points="670.34,-78 660.12,-75.22 666.37,-83.77 670.34,-78"/>
</a>
</g>
</g>
<!-- Node22 -->
<g id="Node000022" class="node">
<title>Node22</title>
<g id="a_Node000022"><a xlink:href="../../da/d7e/glwin_8h.html" target="_top" xlink:title="Variable declarations related the OpenGL window &#160;&#160;Data structure declarations related the OpenGL wind...">
<polygon fill="white" stroke="#666666" points="1531.5,-74 1484.5,-74 1484.5,-55 1531.5,-55 1531.5,-74"/>
<text text-anchor="middle" x="1508" y="-62" font-family="Helvetica,sans-Serif" font-size="10.00">glwin.h</text>
</a>
</g>
</g>
<!-- Node2&#45;&gt;Node22 -->
<g id="edge23_Node000002_Node000022" class="edge">
<title>Node2&#45;&gt;Node22</title>
<g id="a_edge23_Node000002_Node000022"><a xlink:title=" ">
<path fill="none" stroke="#63b8ff" d="M748.14,-111.64C751.11,-111 754.11,-110.43 757,-110 1070.84,-63.3 1155.61,-116.78 1470,-74 1471.03,-73.86 1472.06,-73.71 1473.11,-73.54"/>
<polygon fill="#63b8ff" stroke="#63b8ff" points="1473.72,-76.99 1482.91,-71.71 1472.43,-70.11 1473.72,-76.99"/>
</a>
</g>
</g>
<!-- Node24 -->
<g id="Node000024" class="node">
<title>Node24</title>
<g id="a_Node000024"><a xlink:title=" ">
<polygon fill="#e0e0e0" stroke="#999999" points="1610,-74 1550,-74 1550,-55 1610,-55 1610,-74"/>
<text text-anchor="middle" x="1580" y="-62" font-family="Helvetica,sans-Serif" font-size="10.00">gtk/gtkx.h</text>
</a>
</g>
</g>
<!-- Node2&#45;&gt;Node24 -->
<g id="edge25_Node000002_Node000024" class="edge">
<title>Node2&#45;&gt;Node24</title>
<g id="a_edge25_Node000002_Node000024"><a xlink:title=" ">
<path fill="none" stroke="#63b8ff" d="M748.14,-111.62C751.11,-110.99 754.11,-110.42 757,-110 1098.42,-59.99 1193.12,-118.03 1538.51,-74.06"/>
<polygon fill="#63b8ff" stroke="#63b8ff" points="1538.89,-77.55 1548.35,-72.79 1537.99,-70.6 1538.89,-77.55"/>
</a>
</g>
</g>
<!-- Node21&#45;&gt;Node8 -->
<g id="edge22_Node000021_Node000008" class="edge">
<title>Node21&#45;&gt;Node8</title>
<g id="a_edge22_Node000021_Node000008"><a xlink:title=" ">
<path fill="none" stroke="#63b8ff" d="M630.9,-54.51C617.4,-46.47 597.35,-34.53 581.54,-25.11"/>
<polygon fill="#63b8ff" stroke="#63b8ff" points="583.56,-22.24 573.18,-20.13 579.98,-28.26 583.56,-22.24"/>
</a>
</g>
</g>
<!-- Node21&#45;&gt;Node12 -->
<g id="edge21_Node000021_Node000012" class="edge">
<title>Node21&#45;&gt;Node12</title>
<g id="a_edge21_Node000021_Node000012"><a xlink:title=" ">
<path fill="none" stroke="#63b8ff" d="M660.93,-54.51C674.28,-46.47 694.11,-34.53 709.74,-25.11"/>
<polygon fill="#63b8ff" stroke="#63b8ff" points="711.24,-28.3 718,-20.14 707.62,-22.3 711.24,-28.3"/>
</a>
</g>
</g>
<!-- Node23 -->
<g id="Node000023" class="node">
<title>Node23</title>
<g id="a_Node000023"><a xlink:href="../../d5/d9e/ogl__shading_8h.html" target="_top" xlink:title="Variable declarations related to GLSL programs &#160;&#160;Data structure declarations related to GLSL programs...">
<polygon fill="white" stroke="#666666" points="1546.5,-19 1469.5,-19 1469.5,0 1546.5,0 1546.5,-19"/>
<text text-anchor="middle" x="1508" y="-7" font-family="Helvetica,sans-Serif" font-size="10.00">ogl_shading.h</text>
</a>
</g>
</g>
<!-- Node22&#45;&gt;Node23 -->
<g id="edge24_Node000022_Node000023" class="edge">
<title>Node22&#45;&gt;Node23</title>
<g id="a_edge24_Node000022_Node000023"><a xlink:title=" ">
<path fill="none" stroke="#63b8ff" d="M1508,-54.75C1508,-48.27 1508,-39.16 1508,-30.9"/>
<polygon fill="#63b8ff" stroke="#63b8ff" points="1511.5,-30.96 1508,-20.96 1504.5,-30.96 1511.5,-30.96"/>
</a>
</g>
</g>
</g>
</svg>
