<?xml version="1.0" encoding="UTF-8" standalone="no"?>
<!DOCTYPE svg PUBLIC "-//W3C//DTD SVG 1.1//EN"
 "http://www.w3.org/Graphics/SVG/1.1/DTD/svg11.dtd">
<!-- Generated by graphviz version 7.1.0 (0)
 -->
<!-- Title: ExtraSets Pages: 1 -->
<svg width="133pt" height="239pt"
 viewBox="0.00 0.00 133.00 239.00" xmlns="http://www.w3.org/2000/svg" xmlns:xlink="http://www.w3.org/1999/xlink">
<g id="graph0" class="graph" transform="scale(1 1) rotate(0) translate(4 235)">
<title>ExtraSets</title>
<!-- Node1 -->
<g id="node1" class="node">
<title>Node1</title>
<g id="a_node1"><a xlink:title=" ">
<polygon fill="#999999" stroke="#666666" points="62,-19 2,-19 2,0 62,0 62,-19"/>
<text text-anchor="middle" x="32" y="-7" font-family="Helvetica,sans-Serif" font-size="10.00">ExtraSets</text>
</a>
</g>
</g>
<!-- Node2 -->
<g id="node2" class="node">
<title>Node2</title>
<g id="a_node2"><a xlink:href="../../d5/de2/structcextra.html" target="_top" xlink:title=" ">
<polygon fill="white" stroke="#666666" points="54,-97.5 10,-97.5 10,-78.5 54,-78.5 54,-97.5"/>
<text text-anchor="middle" x="32" y="-85.5" font-family="Helvetica,sans-Serif" font-size="10.00">cextra</text>
</a>
</g>
</g>
<!-- Node2&#45;&gt;Node1 -->
<g id="edge1" class="edge">
<title>Node2&#45;&gt;Node1</title>
<path fill="none" stroke="#9a32cd" stroke-dasharray="5,2" d="M32,-66.72C32,-51.23 32,-30.65 32,-19.17"/>
<polygon fill="#9a32cd" stroke="#9a32cd" points="28.5,-66.71 32,-76.71 35.5,-66.71 28.5,-66.71"/>
<text text-anchor="middle" x="42" y="-51" font-family="Helvetica,sans-Serif" font-size="10.00"> first</text>
<text text-anchor="middle" x="42" y="-40" font-family="Helvetica,sans-Serif" font-size="10.00">last</text>
</g>
<!-- Node2&#45;&gt;Node2 -->
<g id="edge5" class="edge">
<title>Node2&#45;&gt;Node2</title>
<path fill="none" stroke="#9a32cd" stroke-dasharray="5,2" d="M65.43,-93.55C69.4,-92.54 72,-90.69 72,-88 72,-83.22 63.8,-81.09 54.21,-81.61"/>
<polygon fill="#9a32cd" stroke="#9a32cd" points="65.43,-90.04 55.72,-94.28 65.95,-97.02 65.43,-90.04"/>
<text text-anchor="middle" x="83" y="-91" font-family="Helvetica,sans-Serif" font-size="10.00"> next</text>
<text text-anchor="middle" x="83" y="-80" font-family="Helvetica,sans-Serif" font-size="10.00">prev</text>
</g>
<!-- Node3 -->
<g id="node3" class="node">
<title>Node3</title>
<g id="a_node3"><a xlink:href="../../df/d46/structtint.html" target="_top" xlink:title=" ">
<polygon fill="white" stroke="#666666" points="30,-165 0,-165 0,-146 30,-146 30,-165"/>
<text text-anchor="middle" x="15" y="-153" font-family="Helvetica,sans-Serif" font-size="10.00">tint</text>
</a>
</g>
</g>
<!-- Node3&#45;&gt;Node2 -->
<g id="edge2" class="edge">
<title>Node3&#45;&gt;Node2</title>
<path fill="none" stroke="#9a32cd" stroke-dasharray="5,2" d="M20.16,-134.62C23.36,-122.29 27.31,-107.06 29.74,-97.69"/>
<polygon fill="#9a32cd" stroke="#9a32cd" points="16.8,-133.64 17.67,-144.2 23.57,-135.4 16.8,-133.64"/>
<text text-anchor="middle" x="30.5" y="-120" font-family="Helvetica,sans-Serif" font-size="10.00"> id</text>
</g>
<!-- Node4 -->
<g id="node4" class="node">
<title>Node4</title>
<g id="a_node4"><a xlink:href="../../d0/d5d/struct_data_layout.html" target="_top" xlink:title=" ">
<polygon fill="white" stroke="#666666" points="115.5,-165 48.5,-165 48.5,-146 115.5,-146 115.5,-165"/>
<text text-anchor="middle" x="82" y="-153" font-family="Helvetica,sans-Serif" font-size="10.00">DataLayout</text>
</a>
</g>
</g>
<!-- Node4&#45;&gt;Node2 -->
<g id="edge3" class="edge">
<title>Node4&#45;&gt;Node2</title>
<path fill="none" stroke="#9a32cd" stroke-dasharray="5,2" d="M68.28,-136.53C58.64,-123.89 46.16,-107.55 38.64,-97.69"/>
<polygon fill="#9a32cd" stroke="#9a32cd" points="65.49,-138.64 74.34,-144.46 71.05,-134.39 65.49,-138.64"/>
<text text-anchor="middle" x="76" y="-120" font-family="Helvetica,sans-Serif" font-size="10.00"> layout</text>
</g>
<!-- Node5 -->
<g id="node5" class="node">
<title>Node5</title>
<g id="a_node5"><a xlink:href="../../d1/d74/struct_col_r_g_b_a.html" target="_top" xlink:title=" ">
<polygon fill="white" stroke="#666666" points="112,-231 52,-231 52,-212 112,-212 112,-231"/>
<text text-anchor="middle" x="82" y="-219" font-family="Helvetica,sans-Serif" font-size="10.00">ColRGBA</text>
</a>
</g>
</g>
<!-- Node5&#45;&gt;Node4 -->
<g id="edge4" class="edge">
<title>Node5&#45;&gt;Node4</title>
<path fill="none" stroke="#9a32cd" stroke-dasharray="5,2" d="M82,-200.18C82,-188.44 82,-174.27 82,-165.32"/>
<polygon fill="#9a32cd" stroke="#9a32cd" points="78.5,-200.09 82,-210.09 85.5,-200.09 78.5,-200.09"/>
<text text-anchor="middle" x="103.5" y="-186" font-family="Helvetica,sans-Serif" font-size="10.00"> datacolor</text>
</g>
</g>
</svg>
