<?xml version="1.0" encoding="UTF-8" standalone="no"?>
<!DOCTYPE svg PUBLIC "-//W3C//DTD SVG 1.1//EN"
 "http://www.w3.org/Graphics/SVG/1.1/DTD/svg11.dtd">
<!-- Generated by graphviz version 9.0.0 (20230911.1827)
 -->
<!-- Title: ExtraSets Pages: 1 -->
<svg width="133pt" height="248pt"
 viewBox="0.00 0.00 132.50 248.00" xmlns="http://www.w3.org/2000/svg" xmlns:xlink="http://www.w3.org/1999/xlink">

<svg id="main" version="1.1" xmlns="http://www.w3.org/2000/svg" xmlns:xlink="http://www.w3.org/1999/xlink" xml:space="preserve" onload="init(evt)">
<style type="text/css"><![CDATA[
.node, .edge {opacity: 0.7;}
.node.selected, .edge.selected {opacity: 1;}
.edge:hover path { stroke: red; }
.edge:hover polygon { stroke: red; fill: red; }
]]></style>
<script type="application/ecmascript" xlink:href="../../svg.min.js"/>
<svg id="graph" class="graph">
<g id="graph0" class="graph" transform="scale(1 1) rotate(0) translate(4 244)">
<title>ExtraSets</title>
<!-- Node1 -->
<g id="Node000001" class="node">
<title>Node1</title>
<g id="a_Node000001"><a xlink:title=" ">
<polygon fill="#999999" stroke="#666666" points="62.5,-20 3,-20 3,0 62.5,0 62.5,-20"/>
<text text-anchor="middle" x="32.75" y="-6.5" font-family="Helvetica,sans-Serif" font-size="10.00">ExtraSets</text>
</a>
</g>
</g>
<!-- Node2 -->
<g id="Node000002" class="node">
<title>Node2</title>
<g id="a_Node000002"><a xlink:href="../../d8/dea/struct_curve_extra.html" target="_top" xlink:title=" ">
<polygon fill="white" stroke="#666666" points="65.5,-102 0,-102 0,-82 65.5,-82 65.5,-102"/>
<text text-anchor="middle" x="32.75" y="-88.5" font-family="Helvetica,sans-Serif" font-size="10.00">CurveExtra</text>
</a>
</g>
</g>
<!-- Node2&#45;&gt;Node1 -->
<g id="edge1_Node000001_Node000002" class="edge">
<title>Node2&#45;&gt;Node1</title>
<g id="a_edge1_Node000001_Node000002"><a xlink:title=" ">
<path fill="none" stroke="#9a32cd" stroke-dasharray="5,2" d="M32.75,-70.06C32.75,-54.01 32.75,-32.62 32.75,-20.48"/>
<polygon fill="#9a32cd" stroke="#9a32cd" points="29.25,-70 32.75,-80 36.25,-70 29.25,-70"/>
</a>
</g>
<text text-anchor="middle" x="42.5" y="-52.5" font-family="Helvetica,sans-Serif" font-size="10.00" fill="grey"> first</text>
<text text-anchor="middle" x="42.5" y="-40.5" font-family="Helvetica,sans-Serif" font-size="10.00" fill="grey">last</text>
</g>
<!-- Node2&#45;&gt;Node2 -->
<g id="edge5_Node000002_Node000002" class="edge">
<title>Node2&#45;&gt;Node2</title>
<g id="a_edge5_Node000002_Node000002"><a xlink:title=" ">
<path fill="none" stroke="#9a32cd" stroke-dasharray="5,2" d="M77.18,-97.3C81.07,-96.18 83.5,-94.41 83.5,-92 83.5,-87.71 75.82,-85.47 65.94,-85.26"/>
<polygon fill="#9a32cd" stroke="#9a32cd" points="76.92,-93.8 67.44,-98.54 77.81,-100.75 76.92,-93.8"/>
</a>
</g>
<text text-anchor="middle" x="94.38" y="-94.5" font-family="Helvetica,sans-Serif" font-size="10.00" fill="grey"> next</text>
<text text-anchor="middle" x="94.38" y="-82.5" font-family="Helvetica,sans-Serif" font-size="10.00" fill="grey">prev</text>
</g>
<!-- Node3 -->
<g id="Node000003" class="node">
<title>Node3</title>
<g id="a_Node000003"><a xlink:href="../../df/d46/structtint.html" target="_top" xlink:title=" ">
<polygon fill="white" stroke="#666666" points="30.5,-172 1,-172 1,-152 30.5,-152 30.5,-172"/>
<text text-anchor="middle" x="15.75" y="-158.5" font-family="Helvetica,sans-Serif" font-size="10.00">tint</text>
</a>
</g>
</g>
<!-- Node3&#45;&gt;Node2 -->
<g id="edge2_Node000002_Node000003" class="edge">
<title>Node3&#45;&gt;Node2</title>
<g id="a_edge2_Node000002_Node000003"><a xlink:title=" ">
<path fill="none" stroke="#9a32cd" stroke-dasharray="5,2" d="M20.85,-140.6C24.02,-127.9 27.95,-112.19 30.41,-102.37"/>
<polygon fill="#9a32cd" stroke="#9a32cd" points="17.51,-139.53 18.48,-150.08 24.3,-141.22 17.51,-139.53"/>
</a>
</g>
<text text-anchor="middle" x="31" y="-124.5" font-family="Helvetica,sans-Serif" font-size="10.00" fill="grey"> id</text>
</g>
<!-- Node4 -->
<g id="Node000004" class="node">
<title>Node4</title>
<g id="a_Node000004"><a xlink:href="../../d0/d5d/struct_data_layout.html" target="_top" xlink:title=" ">
<polygon fill="white" stroke="#666666" points="114.88,-172 48.62,-172 48.62,-152 114.88,-152 114.88,-172"/>
<text text-anchor="middle" x="81.75" y="-158.5" font-family="Helvetica,sans-Serif" font-size="10.00">DataLayout</text>
</a>
</g>
</g>
<!-- Node4&#45;&gt;Node2 -->
<g id="edge3_Node000002_Node000004" class="edge">
<title>Node4&#45;&gt;Node2</title>
<g id="a_edge3_Node000002_Node000004"><a xlink:title=" ">
<path fill="none" stroke="#9a32cd" stroke-dasharray="5,2" d="M68.44,-142.53C59.08,-129.54 46.94,-112.69 39.51,-102.37"/>
<polygon fill="#9a32cd" stroke="#9a32cd" points="65.37,-144.25 74.05,-150.32 71.05,-140.16 65.37,-144.25"/>
</a>
</g>
<text text-anchor="middle" x="75.38" y="-124.5" font-family="Helvetica,sans-Serif" font-size="10.00" fill="grey"> layout</text>
</g>
<!-- Node5 -->
<g id="Node000005" class="node">
<title>Node5</title>
<g id="a_Node000005"><a xlink:href="../../d1/d74/struct_col_r_g_b_a.html" target="_top" xlink:title=" ">
<polygon fill="white" stroke="#666666" points="111.5,-240 52,-240 52,-220 111.5,-220 111.5,-240"/>
<text text-anchor="middle" x="81.75" y="-226.5" font-family="Helvetica,sans-Serif" font-size="10.00">ColRGBA</text>
</a>
</g>
</g>
<!-- Node5&#45;&gt;Node4 -->
<g id="edge4_Node000004_Node000005" class="edge">
<title>Node5&#45;&gt;Node4</title>
<g id="a_edge4_Node000004_Node000005"><a xlink:title=" ">
<path fill="none" stroke="#9a32cd" stroke-dasharray="5,2" d="M81.75,-208.28C81.75,-196.27 81.75,-181.74 81.75,-172.44"/>
<polygon fill="#9a32cd" stroke="#9a32cd" points="78.25,-208.03 81.75,-218.03 85.25,-208.03 78.25,-208.03"/>
</a>
</g>
<text text-anchor="middle" x="103.12" y="-192.5" font-family="Helvetica,sans-Serif" font-size="10.00" fill="grey"> datacolor</text>
</g>
</g>
</svg>
</svg>

<style type='text/css'>
<![CDATA[
[data-mouse-over-selected='false'] { opacity: 0.7; }
[data-mouse-over-selected='true']  { opacity: 1.0; }
]]>
</style>
<script type="application/ecmascript"><![CDATA[
document.addEventListener('DOMContentLoaded', (event) => {
  highlightEdges();
  highlightAdjacentNodes();
});
]]></script>
</svg>
