<?xml version="1.0" encoding="UTF-8" standalone="no"?>
<!DOCTYPE svg PUBLIC "-//W3C//DTD SVG 1.1//EN"
 "http://www.w3.org/Graphics/SVG/1.1/DTD/svg11.dtd">
<!-- Generated by graphviz version 9.0.0 (20230911.1827)
 -->
<!-- Title: calc/cp2k/cp2k.h Pages: 1 -->
<svg width="782pt" height="84pt"
 viewBox="0.00 0.00 782.00 84.00" xmlns="http://www.w3.org/2000/svg" xmlns:xlink="http://www.w3.org/1999/xlink">
<g id="graph0" class="graph" transform="scale(1 1) rotate(0) translate(4 80)">
<title>calc/cp2k/cp2k.h</title>
<!-- Node1 -->
<g id="Node000001" class="node">
<title>Node1</title>
<g id="a_Node000001"><a xlink:title="Variable declarations for the creation of the CP2K input file(s)">
<polygon fill="#999999" stroke="#666666" points="423.88,-76 333.62,-76 333.62,-56 423.88,-56 423.88,-76"/>
<text text-anchor="middle" x="378.75" y="-62.5" font-family="Helvetica,sans-Serif" font-size="10.00">calc/cp2k/cp2k.h</text>
</a>
</g>
</g>
<!-- Node2 -->
<g id="Node000002" class="node">
<title>Node2</title>
<g id="a_Node000002"><a xlink:href="../../d0/da4/cp2k__files_8c.html" target="_top" xlink:title="Functions to handle CP2K basis sets and pseudopotentials.">
<polygon fill="white" stroke="#666666" points="113.5,-20 0,-20 0,0 113.5,0 113.5,-20"/>
<text text-anchor="middle" x="56.75" y="-6.5" font-family="Helvetica,sans-Serif" font-size="10.00">calc/cp2k/cp2k_files.c</text>
</a>
</g>
</g>
<!-- Node1&#45;&gt;Node2 -->
<g id="edge1_Node000001_Node000002" class="edge">
<title>Node1&#45;&gt;Node2</title>
<g id="a_edge1_Node000001_Node000002"><a xlink:title=" ">
<path fill="none" stroke="#63b8ff" d="M322,-55.48C263.26,-45.63 172.04,-30.33 113.35,-20.49"/>
<polygon fill="#63b8ff" stroke="#63b8ff" points="321.36,-58.93 331.81,-57.13 322.52,-52.02 321.36,-58.93"/>
</a>
</g>
</g>
<!-- Node3 -->
<g id="Node000003" class="node">
<title>Node3</title>
<g id="a_Node000003"><a xlink:href="../../de/d92/cp2k__init_8c.html" target="_top" xlink:title="Initialization of the CP2K input assistant.">
<polygon fill="white" stroke="#666666" points="239.88,-20 131.62,-20 131.62,0 239.88,0 239.88,-20"/>
<text text-anchor="middle" x="185.75" y="-6.5" font-family="Helvetica,sans-Serif" font-size="10.00">calc/cp2k/cp2k_init.c</text>
</a>
</g>
</g>
<!-- Node1&#45;&gt;Node3 -->
<g id="edge2_Node000001_Node000003" class="edge">
<title>Node1&#45;&gt;Node3</title>
<g id="a_edge2_Node000001_Node000003"><a xlink:title=" ">
<path fill="none" stroke="#63b8ff" d="M334.29,-52.56C299.37,-42.79 251.49,-29.39 219.63,-20.48"/>
<polygon fill="#63b8ff" stroke="#63b8ff" points="333.1,-55.86 343.67,-55.19 334.99,-49.12 333.1,-55.86"/>
</a>
</g>
</g>
<!-- Node4 -->
<g id="Node000004" class="node">
<title>Node4</title>
<g id="a_Node000004"><a xlink:href="../../d5/d8d/cp2k__mol_8c.html" target="_top" xlink:title="Functions to fix fragment(s) when creating the CP2K input file.">
<polygon fill="white" stroke="#666666" points="369.38,-20 258.12,-20 258.12,0 369.38,0 369.38,-20"/>
<text text-anchor="middle" x="313.75" y="-6.5" font-family="Helvetica,sans-Serif" font-size="10.00">calc/cp2k/cp2k_mol.c</text>
</a>
</g>
</g>
<!-- Node1&#45;&gt;Node4 -->
<g id="edge3_Node000001_Node000004" class="edge">
<title>Node1&#45;&gt;Node4</title>
<g id="a_edge3_Node000001_Node000004"><a xlink:title=" ">
<path fill="none" stroke="#63b8ff" d="M358.77,-48.4C347.65,-39.17 334.22,-28.01 324.94,-20.3"/>
<polygon fill="#63b8ff" stroke="#63b8ff" points="356.34,-50.93 366.26,-54.63 360.81,-45.54 356.34,-50.93"/>
</a>
</g>
</g>
<!-- Node5 -->
<g id="Node000005" class="node">
<title>Node5</title>
<g id="a_Node000005"><a xlink:href="../../dc/d4a/cp2k__print_8c.html" target="_top" xlink:title="Functions to print the CP2K input file(s)">
<polygon fill="white" stroke="#666666" points="501.88,-20 387.62,-20 387.62,0 501.88,0 501.88,-20"/>
<text text-anchor="middle" x="444.75" y="-6.5" font-family="Helvetica,sans-Serif" font-size="10.00">calc/cp2k/cp2k_print.c</text>
</a>
</g>
</g>
<!-- Node1&#45;&gt;Node5 -->
<g id="edge4_Node000001_Node000005" class="edge">
<title>Node1&#45;&gt;Node5</title>
<g id="a_edge4_Node000001_Node000005"><a xlink:title=" ">
<path fill="none" stroke="#63b8ff" d="M399.04,-48.4C410.33,-39.17 423.96,-28.01 433.39,-20.3"/>
<polygon fill="#63b8ff" stroke="#63b8ff" points="396.94,-45.59 391.42,-54.64 401.37,-51.01 396.94,-45.59"/>
</a>
</g>
</g>
<!-- Node6 -->
<g id="Node000006" class="node">
<title>Node6</title>
<g id="a_Node000006"><a xlink:href="../../dd/dc0/cpmd__init_8c.html" target="_top" xlink:title="Functions to initialize the QM / QM&#45;MM input file creation assistant.">
<polygon fill="white" stroke="#666666" points="633.88,-20 519.62,-20 519.62,0 633.88,0 633.88,-20"/>
<text text-anchor="middle" x="576.75" y="-6.5" font-family="Helvetica,sans-Serif" font-size="10.00">calc/cpmd/cpmd_init.c</text>
</a>
</g>
</g>
<!-- Node1&#45;&gt;Node6 -->
<g id="edge5_Node000001_Node000006" class="edge">
<title>Node1&#45;&gt;Node6</title>
<g id="a_edge5_Node000001_Node000006"><a xlink:title=" ">
<path fill="none" stroke="#63b8ff" d="M423.9,-52.69C459.76,-42.91 509.17,-29.43 541.99,-20.48"/>
<polygon fill="#63b8ff" stroke="#63b8ff" points="423.43,-49.19 414.7,-55.2 425.27,-55.94 423.43,-49.19"/>
</a>
</g>
</g>
<!-- Node7 -->
<g id="Node000007" class="node">
<title>Node7</title>
<g id="a_Node000007"><a xlink:href="../../d6/dc0/cpmd__nose_8c.html" target="_top" xlink:title="Functions to prepare the thermostat(s) configuration widgets for QM / QM&#45;MM input files.">
<polygon fill="white" stroke="#666666" points="774,-20 651.5,-20 651.5,0 774,0 774,-20"/>
<text text-anchor="middle" x="712.75" y="-6.5" font-family="Helvetica,sans-Serif" font-size="10.00">calc/cpmd/cpmd_nose.c</text>
</a>
</g>
</g>
<!-- Node1&#45;&gt;Node7 -->
<g id="edge6_Node000001_Node000007" class="edge">
<title>Node1&#45;&gt;Node7</title>
<g id="a_edge6_Node000001_Node000007"><a xlink:title=" ">
<path fill="none" stroke="#63b8ff" d="M435.46,-55.83C496.36,-45.98 592.66,-30.41 654.25,-20.46"/>
<polygon fill="#63b8ff" stroke="#63b8ff" points="434.95,-52.37 425.64,-57.42 436.07,-59.28 434.95,-52.37"/>
</a>
</g>
</g>
</g>
</svg>
