<?xml version="1.0" encoding="UTF-8" standalone="no"?>
<!DOCTYPE svg PUBLIC "-//W3C//DTD SVG 1.1//EN"
 "http://www.w3.org/Graphics/SVG/1.1/DTD/svg11.dtd">
<!-- Generated by graphviz version 14.1.4 (20260321.0153)
 -->
<!-- Title: curve/m_curve.c Pages: 1 -->
<svg width="1803pt" height="252pt"
 viewBox="0.00 0.00 1803.00 252.00" xmlns="http://www.w3.org/2000/svg" xmlns:xlink="http://www.w3.org/1999/xlink">
<g id="graph0" class="graph" transform="scale(1 1) rotate(0) translate(4 248)">
<title>curve/m_curve.c</title>
<!-- Node1 -->
<g id="Node000001" class="node">
<title>Node1</title>
<g id="a_Node000001"><a xlink:title="Curve context menu (mouse right click).">
<polygon fill="#999999" stroke="#666666" points="1045.5,-244 956.75,-244 956.75,-224 1045.5,-224 1045.5,-244"/>
<text xml:space="preserve" text-anchor="middle" x="1001.12" y="-230.5" font-family="Helvetica,sans-Serif" font-size="10.00">curve/m_curve.c</text>
</a>
</g>
</g>
<!-- Node2 -->
<g id="Node000002" class="node">
<title>Node2</title>
<g id="a_Node000002"><a xlink:title=" ">
<polygon fill="#e0e0e0" stroke="#999999" points="54.25,-76 0,-76 0,-56 54.25,-56 54.25,-76"/>
<text xml:space="preserve" text-anchor="middle" x="27.12" y="-62.5" font-family="Helvetica,sans-Serif" font-size="10.00">gtk/gtk.h</text>
</a>
</g>
</g>
<!-- Node1&#45;&gt;Node2 -->
<g id="edge1_Node000001_Node000002" class="edge">
<title>Node1&#45;&gt;Node2</title>
<g id="a_edge1_Node000001_Node000002"><a xlink:title=" ">
<path fill="none" stroke="#63b8ff" d="M956.26,-229.04C881.71,-222.22 727.66,-207.14 598.12,-188 462.22,-167.92 428.49,-160.64 294.12,-132 212.36,-114.57 117.42,-90.54 65.66,-77.12"/>
<polygon fill="#63b8ff" stroke="#63b8ff" points="66.7,-73.78 56.14,-74.65 64.94,-80.55 66.7,-73.78"/>
</a>
</g>
</g>
<!-- Node3 -->
<g id="Node000003" class="node">
<title>Node3</title>
<g id="a_Node000003"><a xlink:title=" ">
<polygon fill="#e0e0e0" stroke="#999999" points="119.88,-76 72.38,-76 72.38,-56 119.88,-56 119.88,-76"/>
<text xml:space="preserve" text-anchor="middle" x="96.12" y="-62.5" font-family="Helvetica,sans-Serif" font-size="10.00">stdlib.h</text>
</a>
</g>
</g>
<!-- Node1&#45;&gt;Node3 -->
<g id="edge2_Node000001_Node000003" class="edge">
<title>Node1&#45;&gt;Node3</title>
<g id="a_edge2_Node000001_Node000003"><a xlink:title=" ">
<path fill="none" stroke="#63b8ff" d="M956.38,-226.37C828.76,-207.16 452.05,-148.36 131.13,-76.29"/>
<polygon fill="#63b8ff" stroke="#63b8ff" points="132.22,-72.95 121.69,-74.17 130.68,-79.78 132.22,-72.95"/>
</a>
</g>
</g>
<!-- Node4 -->
<g id="Node000004" class="node">
<title>Node4</title>
<g id="a_Node000004"><a xlink:href="../../d2/d49/global_8h.html" target="_top" xlink:title="Global variable declarations &#160;&#160;Global convenience function declarations &#160;&#160;Global data structure defin...">
<polygon fill="white" stroke="#666666" points="1011,-132 961.25,-132 961.25,-112 1011,-112 1011,-132"/>
<text xml:space="preserve" text-anchor="middle" x="986.12" y="-118.5" font-family="Helvetica,sans-Serif" font-size="10.00">global.h</text>
</a>
</g>
</g>
<!-- Node1&#45;&gt;Node4 -->
<g id="edge3_Node000001_Node000004" class="edge">
<title>Node1&#45;&gt;Node4</title>
<g id="a_edge3_Node000001_Node000004"><a xlink:title=" ">
<path fill="none" stroke="#63b8ff" d="M999.85,-223.62C997.44,-206.01 992.21,-167.59 988.94,-143.65"/>
<polygon fill="#63b8ff" stroke="#63b8ff" points="992.42,-143.29 987.61,-133.85 985.49,-144.24 992.42,-143.29"/>
</a>
</g>
</g>
<!-- Node25 -->
<g id="Node000025" class="node">
<title>Node25</title>
<g id="a_Node000025"><a xlink:href="../../d7/d21/cedit_8h.html" target="_top" xlink:title="Variable declarations for the curve layout edition window.">
<polygon fill="white" stroke="#666666" points="1794.75,-76 1749.5,-76 1749.5,-56 1794.75,-56 1794.75,-76"/>
<text xml:space="preserve" text-anchor="middle" x="1772.12" y="-62.5" font-family="Helvetica,sans-Serif" font-size="10.00">cedit.h</text>
</a>
</g>
</g>
<!-- Node1&#45;&gt;Node25 -->
<g id="edge34_Node000001_Node000025" class="edge">
<title>Node1&#45;&gt;Node25</title>
<g id="a_edge34_Node000001_Node000025"><a xlink:title=" ">
<path fill="none" stroke="#63b8ff" d="M1006.35,-223.58C1015.01,-208.95 1033.82,-181.11 1058.12,-168 1319.19,-27.21 1425.99,-121.28 1719.12,-76 1725.29,-75.05 1731.86,-73.98 1738.19,-72.92"/>
<polygon fill="#63b8ff" stroke="#63b8ff" points="1738.43,-76.43 1747.7,-71.3 1737.25,-69.53 1738.43,-76.43"/>
</a>
</g>
</g>
<!-- Node28 -->
<g id="Node000028" class="node">
<title>Node28</title>
<g id="a_Node000028"><a xlink:href="../../dd/d49/callbacks_8h.html" target="_top" xlink:title="Callback declarations for main window.">
<polygon fill="white" stroke="#666666" points="1132.88,-188 1067.38,-188 1067.38,-168 1132.88,-168 1132.88,-188"/>
<text xml:space="preserve" text-anchor="middle" x="1100.12" y="-174.5" font-family="Helvetica,sans-Serif" font-size="10.00">callbacks.h</text>
</a>
</g>
</g>
<!-- Node1&#45;&gt;Node28 -->
<g id="edge31_Node000001_Node000028" class="edge">
<title>Node1&#45;&gt;Node28</title>
<g id="a_edge31_Node000001_Node000028"><a xlink:title=" ">
<path fill="none" stroke="#63b8ff" d="M1018.37,-223.59C1033.47,-215.36 1055.65,-203.26 1073.11,-193.74"/>
<polygon fill="#63b8ff" stroke="#63b8ff" points="1074.31,-197.07 1081.42,-189.2 1070.96,-190.92 1074.31,-197.07"/>
</a>
</g>
</g>
<!-- Node29 -->
<g id="Node000029" class="node">
<title>Node29</title>
<g id="a_Node000029"><a xlink:href="../../df/de9/curve_8h.html" target="_top" xlink:title="Variable declarations for the curve widget &#160;&#160;Functions for interactions with the curve widget.">
<polygon fill="white" stroke="#666666" points="973.25,-188 925,-188 925,-168 973.25,-168 973.25,-188"/>
<text xml:space="preserve" text-anchor="middle" x="949.12" y="-174.5" font-family="Helvetica,sans-Serif" font-size="10.00">curve.h</text>
</a>
</g>
</g>
<!-- Node1&#45;&gt;Node29 -->
<g id="edge32_Node000001_Node000029" class="edge">
<title>Node1&#45;&gt;Node29</title>
<g id="a_edge32_Node000001_Node000029"><a xlink:title=" ">
<path fill="none" stroke="#63b8ff" d="M992.07,-223.59C984.91,-216.16 974.72,-205.58 966.06,-196.58"/>
<polygon fill="#63b8ff" stroke="#63b8ff" points="968.59,-194.16 959.13,-189.39 963.54,-199.02 968.59,-194.16"/>
</a>
</g>
</g>
<!-- Node30 -->
<g id="Node000030" class="node">
<title>Node30</title>
<g id="a_Node000030"><a xlink:href="../../d7/d4f/datab_8h.html" target="_top" xlink:title="Variable declarations for the curve data edition window.">
<polygon fill="white" stroke="#666666" points="1199.25,-188 1151,-188 1151,-168 1199.25,-168 1199.25,-188"/>
<text xml:space="preserve" text-anchor="middle" x="1175.12" y="-174.5" font-family="Helvetica,sans-Serif" font-size="10.00">datab.h</text>
</a>
</g>
</g>
<!-- Node1&#45;&gt;Node30 -->
<g id="edge35_Node000001_Node000030" class="edge">
<title>Node1&#45;&gt;Node30</title>
<g id="a_edge35_Node000001_Node000030"><a xlink:title=" ">
<path fill="none" stroke="#63b8ff" d="M1031.43,-223.59C1061.66,-214.21 1108.05,-199.82 1139.89,-189.93"/>
<polygon fill="#63b8ff" stroke="#63b8ff" points="1140.54,-193.4 1149.06,-187.09 1138.47,-186.71 1140.54,-193.4"/>
</a>
</g>
</g>
<!-- Node4&#45;&gt;Node2 -->
<g id="edge16_Node000004_Node000002" class="edge">
<title>Node4&#45;&gt;Node2</title>
<g id="a_edge16_Node000004_Node000002"><a xlink:title=" ">
<path fill="none" stroke="#63b8ff" d="M961.07,-120.44C834.7,-117.54 265.9,-103.26 65.76,-76.04"/>
<polygon fill="#63b8ff" stroke="#63b8ff" points="66.42,-72.6 56.03,-74.65 65.44,-79.53 66.42,-72.6"/>
</a>
</g>
</g>
<!-- Node4&#45;&gt;Node3 -->
<g id="edge12_Node000004_Node000003" class="edge">
<title>Node4&#45;&gt;Node3</title>
<g id="a_edge12_Node000004_Node000003"><a xlink:title=" ">
<path fill="none" stroke="#63b8ff" d="M960.84,-120.4C839.73,-117.43 317.57,-103.34 131.39,-75.93"/>
<polygon fill="#63b8ff" stroke="#63b8ff" points="132.06,-72.49 121.64,-74.42 130.99,-79.41 132.06,-72.49"/>
</a>
</g>
</g>
<!-- Node5 -->
<g id="Node000005" class="node">
<title>Node5</title>
<g id="a_Node000005"><a xlink:title=" ">
<polygon fill="#e0e0e0" stroke="#999999" points="1199.5,-76 1152.75,-76 1152.75,-56 1199.5,-56 1199.5,-76"/>
<text xml:space="preserve" text-anchor="middle" x="1176.12" y="-62.5" font-family="Helvetica,sans-Serif" font-size="10.00">libintl.h</text>
</a>
</g>
</g>
<!-- Node4&#45;&gt;Node5 -->
<g id="edge4_Node000004_Node000005" class="edge">
<title>Node4&#45;&gt;Node5</title>
<g id="a_edge4_Node000004_Node000005"><a xlink:title=" ">
<path fill="none" stroke="#63b8ff" d="M1011.36,-113.83C1044.75,-104.34 1103.77,-87.57 1141.36,-76.88"/>
<polygon fill="#63b8ff" stroke="#63b8ff" points="1142.17,-80.29 1150.83,-74.19 1140.26,-73.56 1142.17,-80.29"/>
</a>
</g>
</g>
<!-- Node6 -->
<g id="Node000006" class="node">
<title>Node6</title>
<g id="a_Node000006"><a xlink:title=" ">
<polygon fill="#e0e0e0" stroke="#999999" points="1267,-76 1217.25,-76 1217.25,-56 1267,-56 1267,-76"/>
<text xml:space="preserve" text-anchor="middle" x="1242.12" y="-62.5" font-family="Helvetica,sans-Serif" font-size="10.00">locale.h</text>
</a>
</g>
</g>
<!-- Node4&#45;&gt;Node6 -->
<g id="edge5_Node000004_Node000006" class="edge">
<title>Node4&#45;&gt;Node6</title>
<g id="a_edge5_Node000004_Node000006"><a xlink:title=" ">
<path fill="none" stroke="#63b8ff" d="M1011.27,-115.07C1015.88,-114.02 1020.64,-112.96 1025.12,-112 1102.7,-95.42 1125.42,-94.65 1205.74,-76.43"/>
<polygon fill="#63b8ff" stroke="#63b8ff" points="1206.48,-79.85 1215.44,-74.2 1204.91,-73.03 1206.48,-79.85"/>
</a>
</g>
</g>
<!-- Node7 -->
<g id="Node000007" class="node">
<title>Node7</title>
<g id="a_Node000007"><a xlink:title=" ">
<polygon fill="#e0e0e0" stroke="#999999" points="1324.75,-76 1285.5,-76 1285.5,-56 1324.75,-56 1324.75,-76"/>
<text xml:space="preserve" text-anchor="middle" x="1305.12" y="-62.5" font-family="Helvetica,sans-Serif" font-size="10.00">glib.h</text>
</a>
</g>
</g>
<!-- Node4&#45;&gt;Node7 -->
<g id="edge6_Node000004_Node000007" class="edge">
<title>Node4&#45;&gt;Node7</title>
<g id="a_edge6_Node000004_Node000007"><a xlink:title=" ">
<path fill="none" stroke="#63b8ff" d="M1011.23,-114.88C1015.84,-113.85 1020.62,-112.84 1025.12,-112 1132.44,-91.96 1164.21,-100.22 1274.36,-76.06"/>
<polygon fill="#63b8ff" stroke="#63b8ff" points="1274.8,-79.55 1283.79,-73.95 1273.27,-72.72 1274.8,-79.55"/>
</a>
</g>
</g>
<!-- Node8 -->
<g id="Node000008" class="node">
<title>Node8</title>
<g id="a_Node000008"><a xlink:title=" ">
<polygon fill="#e0e0e0" stroke="#999999" points="1407.88,-76 1342.38,-76 1342.38,-56 1407.88,-56 1407.88,-76"/>
<text xml:space="preserve" text-anchor="middle" x="1375.12" y="-62.5" font-family="Helvetica,sans-Serif" font-size="10.00">glib/gi18n.h</text>
</a>
</g>
</g>
<!-- Node4&#45;&gt;Node8 -->
<g id="edge7_Node000004_Node000008" class="edge">
<title>Node4&#45;&gt;Node8</title>
<g id="a_edge7_Node000004_Node000008"><a xlink:title=" ">
<path fill="none" stroke="#63b8ff" d="M1011.22,-114.78C1015.82,-113.76 1020.61,-112.78 1025.12,-112 1157.77,-89.04 1195.78,-98.32 1330.87,-76.41"/>
<polygon fill="#63b8ff" stroke="#63b8ff" points="1331.27,-79.89 1340.57,-74.8 1330.13,-72.98 1331.27,-79.89"/>
</a>
</g>
</g>
<!-- Node9 -->
<g id="Node000009" class="node">
<title>Node9</title>
<g id="a_Node000009"><a xlink:title=" ">
<polygon fill="#e0e0e0" stroke="#999999" points="1478.5,-76 1425.75,-76 1425.75,-56 1478.5,-56 1478.5,-76"/>
<text xml:space="preserve" text-anchor="middle" x="1452.12" y="-62.5" font-family="Helvetica,sans-Serif" font-size="10.00">gio/gio.h</text>
</a>
</g>
</g>
<!-- Node4&#45;&gt;Node9 -->
<g id="edge8_Node000004_Node000009" class="edge">
<title>Node4&#45;&gt;Node9</title>
<g id="a_edge8_Node000004_Node000009"><a xlink:title=" ">
<path fill="none" stroke="#63b8ff" d="M1011.2,-114.69C1015.81,-113.68 1020.6,-112.73 1025.12,-112 1194.24,-84.85 1242.72,-105 1414.26,-76.24"/>
<polygon fill="#63b8ff" stroke="#63b8ff" points="1414.71,-79.72 1423.98,-74.58 1413.53,-72.82 1414.71,-79.72"/>
</a>
</g>
</g>
<!-- Node10 -->
<g id="Node000010" class="node">
<title>Node10</title>
<g id="a_Node000010"><a xlink:title=" ">
<polygon fill="#e0e0e0" stroke="#999999" points="1547.38,-76 1496.88,-76 1496.88,-56 1547.38,-56 1547.38,-76"/>
<text xml:space="preserve" text-anchor="middle" x="1522.12" y="-62.5" font-family="Helvetica,sans-Serif" font-size="10.00">unistd.h</text>
</a>
</g>
</g>
<!-- Node4&#45;&gt;Node10 -->
<g id="edge9_Node000004_Node000010" class="edge">
<title>Node4&#45;&gt;Node10</title>
<g id="a_edge9_Node000004_Node000010"><a xlink:title=" ">
<path fill="none" stroke="#63b8ff" d="M1011.19,-114.64C1015.8,-113.63 1020.59,-112.7 1025.12,-112 1225.12,-81.31 1281.97,-108.77 1485.55,-75.93"/>
<polygon fill="#63b8ff" stroke="#63b8ff" points="1485.83,-79.43 1495.13,-74.35 1484.69,-72.52 1485.83,-79.43"/>
</a>
</g>
</g>
<!-- Node11 -->
<g id="Node000011" class="node">
<title>Node11</title>
<g id="a_Node000011"><a xlink:title=" ">
<polygon fill="#e0e0e0" stroke="#999999" points="1613.25,-76 1565,-76 1565,-56 1613.25,-56 1613.25,-76"/>
<text xml:space="preserve" text-anchor="middle" x="1589.12" y="-62.5" font-family="Helvetica,sans-Serif" font-size="10.00">string.h</text>
</a>
</g>
</g>
<!-- Node4&#45;&gt;Node11 -->
<g id="edge10_Node000004_Node000011" class="edge">
<title>Node4&#45;&gt;Node11</title>
<g id="a_edge10_Node000004_Node000011"><a xlink:title=" ">
<path fill="none" stroke="#63b8ff" d="M1011.19,-114.6C1015.8,-113.6 1020.59,-112.67 1025.12,-112 1255.45,-77.84 1320.84,-114.14 1553.53,-76.1"/>
<polygon fill="#63b8ff" stroke="#63b8ff" points="1553.96,-79.58 1563.24,-74.48 1552.8,-72.67 1553.96,-79.58"/>
</a>
</g>
</g>
<!-- Node12 -->
<g id="Node000012" class="node">
<title>Node12</title>
<g id="a_Node000012"><a xlink:title=" ">
<polygon fill="#e0e0e0" stroke="#999999" points="1713.75,-20 1668.5,-20 1668.5,0 1713.75,0 1713.75,-20"/>
<text xml:space="preserve" text-anchor="middle" x="1691.12" y="-6.5" font-family="Helvetica,sans-Serif" font-size="10.00">stdio.h</text>
</a>
</g>
</g>
<!-- Node4&#45;&gt;Node12 -->
<g id="edge11_Node000004_Node000012" class="edge">
<title>Node4&#45;&gt;Node12</title>
<g id="a_edge11_Node000004_Node000012"><a xlink:title=" ">
<path fill="none" stroke="#63b8ff" d="M1011.18,-114.54C1015.79,-113.55 1020.58,-112.64 1025.12,-112 1099.72,-101.49 1650.29,-130.66 1702.12,-76 1713.55,-63.96 1708.5,-44.7 1701.97,-30.26"/>
<polygon fill="#63b8ff" stroke="#63b8ff" points="1705.28,-29.04 1697.63,-21.71 1699.04,-32.21 1705.28,-29.04"/>
</a>
</g>
</g>
<!-- Node13 -->
<g id="Node000013" class="node">
<title>Node13</title>
<g id="a_Node000013"><a xlink:title=" ">
<polygon fill="#e0e0e0" stroke="#999999" points="269.62,-76 202.62,-76 202.62,-56 269.62,-56 269.62,-76"/>
<text xml:space="preserve" text-anchor="middle" x="236.12" y="-62.5" font-family="Helvetica,sans-Serif" font-size="10.00">sys/types.h</text>
</a>
</g>
</g>
<!-- Node4&#45;&gt;Node13 -->
<g id="edge13_Node000004_Node000013" class="edge">
<title>Node4&#45;&gt;Node13</title>
<g id="a_edge13_Node000004_Node000013"><a xlink:title=" ">
<path fill="none" stroke="#63b8ff" d="M960.91,-120.74C870.26,-119.53 552.34,-112.85 281.22,-76.24"/>
<polygon fill="#63b8ff" stroke="#63b8ff" points="281.86,-72.8 271.47,-74.91 280.91,-79.73 281.86,-72.8"/>
</a>
</g>
</g>
<!-- Node14 -->
<g id="Node000014" class="node">
<title>Node14</title>
<g id="a_Node000014"><a xlink:title=" ">
<polygon fill="#e0e0e0" stroke="#999999" points="346.88,-76 287.38,-76 287.38,-56 346.88,-56 346.88,-76"/>
<text xml:space="preserve" text-anchor="middle" x="317.12" y="-62.5" font-family="Helvetica,sans-Serif" font-size="10.00">sys/stat.h</text>
</a>
</g>
</g>
<!-- Node4&#45;&gt;Node14 -->
<g id="edge14_Node000004_Node000014" class="edge">
<title>Node4&#45;&gt;Node14</title>
<g id="a_edge14_Node000004_Node000014"><a xlink:title=" ">
<path fill="none" stroke="#63b8ff" d="M960.76,-120.6C876.5,-118.98 598.15,-111.26 358.64,-76.14"/>
<polygon fill="#63b8ff" stroke="#63b8ff" points="359.17,-72.68 348.77,-74.67 358.14,-79.6 359.17,-72.68"/>
</a>
</g>
</g>
<!-- Node15 -->
<g id="Node000015" class="node">
<title>Node15</title>
<g id="a_Node000015"><a xlink:title=" ">
<polygon fill="#e0e0e0" stroke="#999999" points="1399.12,-20 1353.12,-20 1353.12,0 1399.12,0 1399.12,-20"/>
<text xml:space="preserve" text-anchor="middle" x="1376.12" y="-6.5" font-family="Helvetica,sans-Serif" font-size="10.00">math.h</text>
</a>
</g>
</g>
<!-- Node4&#45;&gt;Node15 -->
<g id="edge15_Node000004_Node000015" class="edge">
<title>Node4&#45;&gt;Node15</title>
<g id="a_edge15_Node000004_Node000015"><a xlink:title=" ">
<path fill="none" stroke="#63b8ff" d="M1011.32,-112.59C1035.86,-104.16 1074.05,-90.39 1106.12,-76 1123.54,-68.19 1126.12,-62.33 1144.12,-56 1211.81,-32.21 1295.28,-19.92 1341.39,-14.52"/>
<polygon fill="#63b8ff" stroke="#63b8ff" points="1341.76,-18 1351.31,-13.41 1340.98,-11.05 1341.76,-18"/>
</a>
</g>
</g>
<!-- Node16 -->
<g id="Node000016" class="node">
<title>Node16</title>
<g id="a_Node000016"><a xlink:title=" ">
<polygon fill="#e0e0e0" stroke="#999999" points="424.88,-76 365.38,-76 365.38,-56 424.88,-56 424.88,-76"/>
<text xml:space="preserve" text-anchor="middle" x="395.12" y="-62.5" font-family="Helvetica,sans-Serif" font-size="10.00">gtk/gtkx.h</text>
</a>
</g>
</g>
<!-- Node4&#45;&gt;Node16 -->
<g id="edge17_Node000004_Node000016" class="edge">
<title>Node4&#45;&gt;Node16</title>
<g id="a_edge17_Node000004_Node000016"><a xlink:title=" ">
<path fill="none" stroke="#63b8ff" d="M960.94,-120.25C883.88,-117.68 644.41,-107.68 436.41,-76.13"/>
<polygon fill="#63b8ff" stroke="#63b8ff" points="437.19,-72.71 426.77,-74.64 436.12,-79.63 437.19,-72.71"/>
</a>
</g>
</g>
<!-- Node17 -->
<g id="Node000017" class="node">
<title>Node17</title>
<g id="a_Node000017"><a xlink:title=" ">
<polygon fill="#e0e0e0" stroke="#999999" points="501.5,-76 442.75,-76 442.75,-56 501.5,-56 501.5,-76"/>
<text xml:space="preserve" text-anchor="middle" x="472.12" y="-62.5" font-family="Helvetica,sans-Serif" font-size="10.00">gdk/gdk.h</text>
</a>
</g>
</g>
<!-- Node4&#45;&gt;Node17 -->
<g id="edge18_Node000004_Node000017" class="edge">
<title>Node4&#45;&gt;Node17</title>
<g id="a_edge18_Node000004_Node000017"><a xlink:title=" ">
<path fill="none" stroke="#63b8ff" d="M961,-119.79C891.43,-116.21 690.3,-104.16 512.96,-76.07"/>
<polygon fill="#63b8ff" stroke="#63b8ff" points="513.78,-72.66 503.35,-74.53 512.67,-79.57 513.78,-72.66"/>
</a>
</g>
</g>
<!-- Node18 -->
<g id="Node000018" class="node">
<title>Node18</title>
<g id="a_Node000018"><a xlink:title=" ">
<polygon fill="#e0e0e0" stroke="#999999" points="618.38,-76 519.88,-76 519.88,-56 618.38,-56 618.38,-76"/>
<text xml:space="preserve" text-anchor="middle" x="569.12" y="-62.5" font-family="Helvetica,sans-Serif" font-size="10.00">gdk/gdkkeysyms.h</text>
</a>
</g>
</g>
<!-- Node4&#45;&gt;Node18 -->
<g id="edge19_Node000004_Node000018" class="edge">
<title>Node4&#45;&gt;Node18</title>
<g id="a_edge19_Node000004_Node000018"><a xlink:title=" ">
<path fill="none" stroke="#63b8ff" d="M960.85,-118.09C903.82,-111.47 760.58,-94.53 630.15,-76.39"/>
<polygon fill="#63b8ff" stroke="#63b8ff" points="630.67,-72.93 620.28,-75.01 629.7,-79.86 630.67,-72.93"/>
</a>
</g>
</g>
<!-- Node19 -->
<g id="Node000019" class="node">
<title>Node19</title>
<g id="a_Node000019"><a xlink:title=" ">
<polygon fill="#e0e0e0" stroke="#999999" points="753.75,-76 636.5,-76 636.5,-56 753.75,-56 753.75,-76"/>
<text xml:space="preserve" text-anchor="middle" x="695.12" y="-62.5" font-family="Helvetica,sans-Serif" font-size="10.00">gdk&#45;pixbuf/gdk&#45;pixbuf.h</text>
</a>
</g>
</g>
<!-- Node4&#45;&gt;Node19 -->
<g id="edge20_Node000004_Node000019" class="edge">
<title>Node4&#45;&gt;Node19</title>
<g id="a_edge20_Node000004_Node000019"><a xlink:title=" ">
<path fill="none" stroke="#63b8ff" d="M960.81,-116.3C915.81,-107.95 820.66,-90.3 757.31,-78.54"/>
<polygon fill="#63b8ff" stroke="#63b8ff" points="758.22,-75.15 747.75,-76.76 756.94,-82.03 758.22,-75.15"/>
</a>
</g>
</g>
<!-- Node20 -->
<g id="Node000020" class="node">
<title>Node20</title>
<g id="a_Node000020"><a xlink:title=" ">
<polygon fill="#e0e0e0" stroke="#999999" points="862.62,-76 771.62,-76 771.62,-56 862.62,-56 862.62,-76"/>
<text xml:space="preserve" text-anchor="middle" x="817.12" y="-62.5" font-family="Helvetica,sans-Serif" font-size="10.00">pango/pangoft2.h</text>
</a>
</g>
</g>
<!-- Node4&#45;&gt;Node20 -->
<g id="edge21_Node000004_Node000020" class="edge">
<title>Node4&#45;&gt;Node20</title>
<g id="a_edge21_Node000004_Node000020"><a xlink:title=" ">
<path fill="none" stroke="#63b8ff" d="M960.82,-112.92C933.48,-104.18 889.51,-90.13 857.4,-79.87"/>
<polygon fill="#63b8ff" stroke="#63b8ff" points="858.62,-76.58 848.03,-76.87 856.49,-83.25 858.62,-76.58"/>
</a>
</g>
</g>
<!-- Node21 -->
<g id="Node000021" class="node">
<title>Node21</title>
<g id="a_Node000021"><a xlink:title=" ">
<polygon fill="#e0e0e0" stroke="#999999" points="941.62,-76 880.62,-76 880.62,-56 941.62,-56 941.62,-76"/>
<text xml:space="preserve" text-anchor="middle" x="911.12" y="-62.5" font-family="Helvetica,sans-Serif" font-size="10.00">epoxy/gl.h</text>
</a>
</g>
</g>
<!-- Node4&#45;&gt;Node21 -->
<g id="edge22_Node000004_Node000021" class="edge">
<title>Node4&#45;&gt;Node21</title>
<g id="a_edge22_Node000004_Node000021"><a xlink:title=" ">
<path fill="none" stroke="#63b8ff" d="M973.06,-111.59C962.16,-103.74 946.37,-92.38 933.47,-83.09"/>
<polygon fill="#63b8ff" stroke="#63b8ff" points="935.68,-80.37 925.52,-77.36 931.59,-86.05 935.68,-80.37"/>
</a>
</g>
</g>
<!-- Node22 -->
<g id="Node000022" class="node">
<title>Node22</title>
<g id="a_Node000022"><a xlink:title=" ">
<polygon fill="#e0e0e0" stroke="#999999" points="1012.5,-76 959.75,-76 959.75,-56 1012.5,-56 1012.5,-76"/>
<text xml:space="preserve" text-anchor="middle" x="986.12" y="-62.5" font-family="Helvetica,sans-Serif" font-size="10.00">GL/glu.h</text>
</a>
</g>
</g>
<!-- Node4&#45;&gt;Node22 -->
<g id="edge23_Node000004_Node000022" class="edge">
<title>Node4&#45;&gt;Node22</title>
<g id="a_edge23_Node000004_Node000022"><a xlink:title=" ">
<path fill="none" stroke="#63b8ff" d="M986.12,-111.59C986.12,-105.01 986.12,-95.96 986.12,-87.73"/>
<polygon fill="#63b8ff" stroke="#63b8ff" points="989.63,-87.81 986.13,-77.81 982.63,-87.81 989.63,-87.81"/>
</a>
</g>
</g>
<!-- Node23 -->
<g id="Node000023" class="node">
<title>Node23</title>
<g id="a_Node000023"><a xlink:title=" ">
<polygon fill="#e0e0e0" stroke="#999999" points="1097.25,-76 1031,-76 1031,-56 1097.25,-56 1097.25,-76"/>
<text xml:space="preserve" text-anchor="middle" x="1064.12" y="-62.5" font-family="Helvetica,sans-Serif" font-size="10.00">epoxy/glx.h</text>
</a>
</g>
</g>
<!-- Node4&#45;&gt;Node23 -->
<g id="edge24_Node000004_Node000023" class="edge">
<title>Node4&#45;&gt;Node23</title>
<g id="a_edge24_Node000004_Node000023"><a xlink:title=" ">
<path fill="none" stroke="#63b8ff" d="M999.71,-111.59C1011.16,-103.67 1027.79,-92.16 1041.28,-82.82"/>
<polygon fill="#63b8ff" stroke="#63b8ff" points="1042.96,-85.91 1049.19,-77.34 1038.97,-80.16 1042.96,-85.91"/>
</a>
</g>
</g>
<!-- Node24 -->
<g id="Node000024" class="node">
<title>Node24</title>
<g id="a_Node000024"><a xlink:href="../../dc/db0/math__3d_8h.html" target="_top" xlink:title="Functions for OpenGL math.">
<polygon fill="white" stroke="#666666" points="1693,-76 1631.25,-76 1631.25,-56 1693,-56 1693,-76"/>
<text xml:space="preserve" text-anchor="middle" x="1662.12" y="-62.5" font-family="Helvetica,sans-Serif" font-size="10.00">math_3d.h</text>
</a>
</g>
</g>
<!-- Node4&#45;&gt;Node24 -->
<g id="edge25_Node000004_Node000024" class="edge">
<title>Node4&#45;&gt;Node24</title>
<g id="a_edge25_Node000004_Node000024"><a xlink:title=" ">
<path fill="none" stroke="#63b8ff" d="M1011.18,-114.57C1015.8,-113.57 1020.59,-112.66 1025.12,-112 1284.61,-74.5 1356.97,-112.24 1619.73,-76.1"/>
<polygon fill="#63b8ff" stroke="#63b8ff" points="1619.85,-79.62 1629.27,-74.77 1618.88,-72.69 1619.85,-79.62"/>
</a>
</g>
</g>
<!-- Node4&#45;&gt;Node25 -->
<g id="edge28_Node000004_Node000025" class="edge">
<title>Node4&#45;&gt;Node25</title>
<g id="a_edge28_Node000004_Node000025"><a xlink:title=" ">
<path fill="none" stroke="#63b8ff" d="M1011.18,-114.53C1015.79,-113.54 1020.58,-112.63 1025.12,-112 1338.05,-68.31 1422.46,-121.54 1735.12,-76 1736.13,-75.85 1737.14,-75.69 1738.16,-75.52"/>
<polygon fill="#63b8ff" stroke="#63b8ff" points="1738.57,-79.01 1747.68,-73.59 1737.18,-72.15 1738.57,-79.01"/>
</a>
</g>
</g>
<!-- Node26 -->
<g id="Node000026" class="node">
<title>Node26</title>
<g id="a_Node000026"><a xlink:href="../../da/d7e/glwin_8h.html" target="_top" xlink:title="Variable declarations related the OpenGL window &#160;&#160;Data structure declarations related the OpenGL wind...">
<polygon fill="white" stroke="#666666" points="184.5,-76 137.75,-76 137.75,-56 184.5,-56 184.5,-76"/>
<text xml:space="preserve" text-anchor="middle" x="161.12" y="-62.5" font-family="Helvetica,sans-Serif" font-size="10.00">glwin.h</text>
</a>
</g>
</g>
<!-- Node4&#45;&gt;Node26 -->
<g id="edge29_Node000004_Node000026" class="edge">
<title>Node4&#45;&gt;Node26</title>
<g id="a_edge29_Node000004_Node000026"><a xlink:title=" ">
<path fill="none" stroke="#63b8ff" d="M960.79,-120.3C845.35,-117.02 367.78,-102.22 195.88,-76.05"/>
<polygon fill="#63b8ff" stroke="#63b8ff" points="196.68,-72.63 186.26,-74.51 195.58,-79.54 196.68,-72.63"/>
</a>
</g>
</g>
<!-- Node24&#45;&gt;Node12 -->
<g id="edge27_Node000024_Node000012" class="edge">
<title>Node24&#45;&gt;Node12</title>
<g id="a_edge27_Node000024_Node000012"><a xlink:title=" ">
<path fill="none" stroke="#63b8ff" d="M1667.18,-55.59C1670.92,-48.63 1676.15,-38.89 1680.77,-30.29"/>
<polygon fill="#63b8ff" stroke="#63b8ff" points="1683.77,-32.1 1685.42,-21.63 1677.6,-28.79 1683.77,-32.1"/>
</a>
</g>
</g>
<!-- Node24&#45;&gt;Node15 -->
<g id="edge26_Node000024_Node000015" class="edge">
<title>Node24&#45;&gt;Node15</title>
<g id="a_edge26_Node000024_Node000015"><a xlink:title=" ">
<path fill="none" stroke="#63b8ff" d="M1631.14,-57.9C1628.1,-57.24 1625.05,-56.6 1622.12,-56 1547.02,-40.69 1458.52,-25.09 1410.81,-16.89"/>
<polygon fill="#63b8ff" stroke="#63b8ff" points="1411.53,-13.46 1401.08,-15.22 1410.35,-20.36 1411.53,-13.46"/>
</a>
</g>
</g>
<!-- Node27 -->
<g id="Node000027" class="node">
<title>Node27</title>
<g id="a_Node000027"><a xlink:href="../../d5/d9e/ogl__shading_8h.html" target="_top" xlink:title="Variable declarations related to GLSL programs &#160;&#160;Data structure declarations related to GLSL programs...">
<polygon fill="white" stroke="#666666" points="199.12,-20 123.12,-20 123.12,0 199.12,0 199.12,-20"/>
<text xml:space="preserve" text-anchor="middle" x="161.12" y="-6.5" font-family="Helvetica,sans-Serif" font-size="10.00">ogl_shading.h</text>
</a>
</g>
</g>
<!-- Node26&#45;&gt;Node27 -->
<g id="edge30_Node000026_Node000027" class="edge">
<title>Node26&#45;&gt;Node27</title>
<g id="a_edge30_Node000026_Node000027"><a xlink:title=" ">
<path fill="none" stroke="#63b8ff" d="M161.12,-55.59C161.12,-49.01 161.12,-39.96 161.12,-31.73"/>
<polygon fill="#63b8ff" stroke="#63b8ff" points="164.63,-31.81 161.13,-21.81 157.63,-31.81 164.63,-31.81"/>
</a>
</g>
</g>
<!-- Node29&#45;&gt;Node4 -->
<g id="edge33_Node000029_Node000004" class="edge">
<title>Node29&#45;&gt;Node4</title>
<g id="a_edge33_Node000029_Node000004"><a xlink:title=" ">
<path fill="none" stroke="#63b8ff" d="M955.57,-167.59C960.45,-160.47 967.32,-150.45 973.3,-141.72"/>
<polygon fill="#63b8ff" stroke="#63b8ff" points="976.13,-143.77 978.9,-133.55 970.36,-139.82 976.13,-143.77"/>
</a>
</g>
</g>
</g>
</svg>
