<?xml version="1.0" encoding="UTF-8" standalone="no"?>
<!DOCTYPE svg PUBLIC "-//W3C//DTD SVG 1.1//EN"
 "http://www.w3.org/Graphics/SVG/1.1/DTD/svg11.dtd">
<!-- Generated by graphviz version 9.0.0 (20230911.1827)
 -->
<!-- Title: project/readers/readers.h Pages: 1 -->
<svg width="422pt" height="140pt"
 viewBox="0.00 0.00 421.75 140.00" xmlns="http://www.w3.org/2000/svg" xmlns:xlink="http://www.w3.org/1999/xlink">

<svg id="main" version="1.1" xmlns="http://www.w3.org/2000/svg" xmlns:xlink="http://www.w3.org/1999/xlink" xml:space="preserve" onload="init(evt)">
<style type="text/css"><![CDATA[
.node, .edge {opacity: 0.7;}
.node.selected, .edge.selected {opacity: 1;}
.edge:hover path { stroke: red; }
.edge:hover polygon { stroke: red; fill: red; }
]]></style>
<script type="application/ecmascript" xlink:href="../../svg.min.js"/>
<svg id="graph" class="graph">
<g id="graph0" class="graph" transform="scale(1 1) rotate(0) translate(4 136)">
<title>project/readers/readers.h</title>
<!-- Node1 -->
<g id="Node000001" class="node">
<title>Node1</title>
<g id="a_Node000001"><a xlink:title="Functions declaration to read atomic coordinates.">
<polygon fill="#999999" stroke="#666666" points="273.88,-132 149.88,-132 149.88,-112 273.88,-112 273.88,-132"/>
<text text-anchor="middle" x="211.88" y="-118.5" font-family="Helvetica,sans-Serif" font-size="10.00">project/readers/readers.h</text>
</a>
</g>
</g>
<!-- Node2 -->
<g id="Node000002" class="node">
<title>Node2</title>
<g id="a_Node000002"><a xlink:href="../../dc/d50/read__isaacs_8h.html" target="_top" xlink:title="Function declarations to read / write ISAACS XML file.">
<polygon fill="white" stroke="#666666" points="250.25,-76 173.5,-76 173.5,-56 250.25,-56 250.25,-76"/>
<text text-anchor="middle" x="211.88" y="-62.5" font-family="Helvetica,sans-Serif" font-size="10.00">read_isaacs.h</text>
</a>
</g>
</g>
<!-- Node1&#45;&gt;Node2 -->
<g id="edge1_Node000001_Node000002" class="edge">
<title>Node1&#45;&gt;Node2</title>
<g id="a_edge1_Node000001_Node000002"><a xlink:title=" ">
<path fill="none" stroke="#63b8ff" d="M211.88,-111.59C211.88,-105.01 211.88,-95.96 211.88,-87.73"/>
<polygon fill="#63b8ff" stroke="#63b8ff" points="215.38,-87.81 211.88,-77.81 208.38,-87.81 215.38,-87.81"/>
</a>
</g>
</g>
<!-- Node3 -->
<g id="Node000003" class="node">
<title>Node3</title>
<g id="a_Node000003"><a xlink:title=" ">
<polygon fill="#e0e0e0" stroke="#999999" points="91.75,-20 0,-20 0,0 91.75,0 91.75,-20"/>
<text text-anchor="middle" x="45.88" y="-6.5" font-family="Helvetica,sans-Serif" font-size="10.00">libxml/encoding.h</text>
</a>
</g>
</g>
<!-- Node2&#45;&gt;Node3 -->
<g id="edge2_Node000002_Node000003" class="edge">
<title>Node2&#45;&gt;Node3</title>
<g id="a_edge2_Node000002_Node000003"><a xlink:title=" ">
<path fill="none" stroke="#63b8ff" d="M182.96,-55.59C156.11,-46.86 115.88,-33.77 85.94,-24.03"/>
<polygon fill="#63b8ff" stroke="#63b8ff" points="87.05,-20.71 76.45,-20.95 84.88,-27.37 87.05,-20.71"/>
</a>
</g>
</g>
<!-- Node4 -->
<g id="Node000004" class="node">
<title>Node4</title>
<g id="a_Node000004"><a xlink:title=" ">
<polygon fill="#e0e0e0" stroke="#999999" points="202.12,-20 109.62,-20 109.62,0 202.12,0 202.12,-20"/>
<text text-anchor="middle" x="155.88" y="-6.5" font-family="Helvetica,sans-Serif" font-size="10.00">libxml/xmlwriter.h</text>
</a>
</g>
</g>
<!-- Node2&#45;&gt;Node4 -->
<g id="edge3_Node000002_Node000004" class="edge">
<title>Node2&#45;&gt;Node4</title>
<g id="a_edge3_Node000002_Node000004"><a xlink:title=" ">
<path fill="none" stroke="#63b8ff" d="M202.12,-55.59C194.25,-48.01 182.98,-37.13 173.53,-28.02"/>
<polygon fill="#63b8ff" stroke="#63b8ff" points="176.24,-25.77 166.61,-21.35 171.38,-30.81 176.24,-25.77"/>
</a>
</g>
</g>
<!-- Node5 -->
<g id="Node000005" class="node">
<title>Node5</title>
<g id="a_Node000005"><a xlink:title=" ">
<polygon fill="#e0e0e0" stroke="#999999" points="315.62,-20 220.12,-20 220.12,0 315.62,0 315.62,-20"/>
<text text-anchor="middle" x="267.88" y="-6.5" font-family="Helvetica,sans-Serif" font-size="10.00">libxml/xmlreader.h</text>
</a>
</g>
</g>
<!-- Node2&#45;&gt;Node5 -->
<g id="edge4_Node000002_Node000005" class="edge">
<title>Node2&#45;&gt;Node5</title>
<g id="a_edge4_Node000002_Node000005"><a xlink:title=" ">
<path fill="none" stroke="#63b8ff" d="M221.63,-55.59C229.5,-48.01 240.77,-37.13 250.22,-28.02"/>
<polygon fill="#63b8ff" stroke="#63b8ff" points="252.37,-30.81 257.14,-21.35 247.51,-25.77 252.37,-30.81"/>
</a>
</g>
</g>
<!-- Node6 -->
<g id="Node000006" class="node">
<title>Node6</title>
<g id="a_Node000006"><a xlink:title=" ">
<polygon fill="#e0e0e0" stroke="#999999" points="413.75,-20 334,-20 334,0 413.75,0 413.75,-20"/>
<text text-anchor="middle" x="373.88" y="-6.5" font-family="Helvetica,sans-Serif" font-size="10.00">libxml/parser.h</text>
</a>
</g>
</g>
<!-- Node2&#45;&gt;Node6 -->
<g id="edge5_Node000002_Node000006" class="edge">
<title>Node2&#45;&gt;Node6</title>
<g id="a_edge5_Node000002_Node000006"><a xlink:title=" ">
<path fill="none" stroke="#63b8ff" d="M240.09,-55.59C266.3,-46.86 305.56,-33.77 334.78,-24.03"/>
<polygon fill="#63b8ff" stroke="#63b8ff" points="335.62,-27.44 344,-20.96 333.41,-20.8 335.62,-27.44"/>
</a>
</g>
</g>
</g>
</svg>
</svg>

<style type='text/css'>
<![CDATA[
[data-mouse-over-selected='false'] { opacity: 0.7; }
[data-mouse-over-selected='true']  { opacity: 1.0; }
]]>
</style>
<script type="application/ecmascript"><![CDATA[
document.addEventListener('DOMContentLoaded', (event) => {
  highlightEdges();
  highlightAdjacentNodes();
});
]]></script>
</svg>
