<?xml version="1.0" encoding="UTF-8" standalone="no"?>
<!DOCTYPE svg PUBLIC "-//W3C//DTD SVG 1.1//EN"
 "http://www.w3.org/Graphics/SVG/1.1/DTD/svg11.dtd">
<!-- Generated by graphviz version 7.1.0 (0)
 -->
<!-- Title: gui/ringscall.c Pages: 1 -->
<svg width="1619pt" height="247pt"
 viewBox="0.00 0.00 1618.50 247.00" xmlns="http://www.w3.org/2000/svg" xmlns:xlink="http://www.w3.org/1999/xlink">
<g id="graph0" class="graph" transform="scale(1 1) rotate(0) translate(4 243)">
<title>gui/ringscall.c</title>
<!-- Node1 -->
<g id="Node000001" class="node">
<title>Node1</title>
<g id="a_Node000001"><a xlink:title="Callbacks for the ring statistics calculation dialog.">
<polygon fill="#999999" stroke="#666666" points="359,-239 282,-239 282,-220 359,-220 359,-239"/>
<text text-anchor="middle" x="320.5" y="-227" font-family="Helvetica,sans-Serif" font-size="10.00">gui/ringscall.c</text>
</a>
</g>
</g>
<!-- Node2 -->
<g id="Node000002" class="node">
<title>Node2</title>
<g id="a_Node000002"><a xlink:title=" ">
<polygon fill="#e0e0e0" stroke="#999999" points="55,-74 0,-74 0,-55 55,-55 55,-74"/>
<text text-anchor="middle" x="27.5" y="-62" font-family="Helvetica,sans-Serif" font-size="10.00">gtk/gtk.h</text>
</a>
</g>
</g>
<!-- Node1&#45;&gt;Node2 -->
<g id="edge1_Node000001_Node000002" class="edge">
<title>Node1&#45;&gt;Node2</title>
<g id="a_edge1_Node000001_Node000002"><a xlink:title=" ">
<path fill="none" stroke="#63b8ff" d="M281.76,-224.67C244.75,-219.67 188.39,-208.46 145.5,-184 99.86,-157.97 59.78,-109.52 40.2,-83.36"/>
<polygon fill="#63b8ff" stroke="#63b8ff" points="43.15,-81.46 34.42,-75.45 37.49,-85.59 43.15,-81.46"/>
</a>
</g>
</g>
<!-- Node3 -->
<g id="Node000003" class="node">
<title>Node3</title>
<g id="a_Node000003"><a xlink:title=" ">
<polygon fill="#e0e0e0" stroke="#999999" points="122,-74 73,-74 73,-55 122,-55 122,-74"/>
<text text-anchor="middle" x="97.5" y="-62" font-family="Helvetica,sans-Serif" font-size="10.00">string.h</text>
</a>
</g>
</g>
<!-- Node1&#45;&gt;Node3 -->
<g id="edge2_Node000001_Node000003" class="edge">
<title>Node1&#45;&gt;Node3</title>
<g id="a_edge2_Node000001_Node000003"><a xlink:title=" ">
<path fill="none" stroke="#63b8ff" d="M281.67,-225.04C248.64,-220.38 201.46,-209.47 168.5,-184 134.93,-158.06 113.85,-111.38 104.03,-85.02"/>
<polygon fill="#63b8ff" stroke="#63b8ff" points="107.44,-84.17 100.81,-75.91 100.84,-86.5 107.44,-84.17"/>
</a>
</g>
</g>
<!-- Node4 -->
<g id="Node000004" class="node">
<title>Node4</title>
<g id="a_Node000004"><a xlink:title=" ">
<polygon fill="#e0e0e0" stroke="#999999" points="188.5,-74 140.5,-74 140.5,-55 188.5,-55 188.5,-74"/>
<text text-anchor="middle" x="164.5" y="-62" font-family="Helvetica,sans-Serif" font-size="10.00">stdlib.h</text>
</a>
</g>
</g>
<!-- Node1&#45;&gt;Node4 -->
<g id="edge3_Node000001_Node000004" class="edge">
<title>Node1&#45;&gt;Node4</title>
<g id="a_edge3_Node000001_Node000004"><a xlink:title=" ">
<path fill="none" stroke="#63b8ff" d="M281.72,-226.55C250.45,-222.81 207.81,-212.4 183.5,-184 159.86,-156.37 159.62,-111.34 161.86,-85.48"/>
<polygon fill="#63b8ff" stroke="#63b8ff" points="165.33,-86.01 162.95,-75.69 158.37,-85.24 165.33,-86.01"/>
</a>
</g>
</g>
<!-- Node5 -->
<g id="Node000005" class="node">
<title>Node5</title>
<g id="a_Node000005"><a xlink:href="../../d2/d49/global_8h.html" target="_top" xlink:title="Global variable declarations &#160;&#160;Global convenience function declarations &#160;&#160;Global data structure defin...">
<polygon fill="white" stroke="#666666" points="857.5,-129 807.5,-129 807.5,-110 857.5,-110 857.5,-129"/>
<text text-anchor="middle" x="832.5" y="-117" font-family="Helvetica,sans-Serif" font-size="10.00">global.h</text>
</a>
</g>
</g>
<!-- Node1&#45;&gt;Node5 -->
<g id="edge4_Node000001_Node000005" class="edge">
<title>Node1&#45;&gt;Node5</title>
<g id="a_edge4_Node000001_Node000005"><a xlink:title=" ">
<path fill="none" stroke="#63b8ff" d="M310.66,-219.74C296.97,-206.53 275.46,-181.32 290.5,-165 324.67,-127.9 679.44,-121.73 795.78,-120.7"/>
<polygon fill="#63b8ff" stroke="#63b8ff" points="795.72,-124.21 805.69,-120.63 795.67,-117.21 795.72,-124.21"/>
</a>
</g>
</g>
<!-- Node25 -->
<g id="Node000025" class="node">
<title>Node25</title>
<g id="a_Node000025"><a xlink:href="../../da/dc2/bind_8h.html" target="_top" xlink:title="Binding to the Fortran90 subroutines.">
<polygon fill="white" stroke="#666666" points="342,-184 299,-184 299,-165 342,-165 342,-184"/>
<text text-anchor="middle" x="320.5" y="-172" font-family="Helvetica,sans-Serif" font-size="10.00">bind.h</text>
</a>
</g>
</g>
<!-- Node1&#45;&gt;Node25 -->
<g id="edge29_Node000001_Node000025" class="edge">
<title>Node1&#45;&gt;Node25</title>
<g id="a_edge29_Node000001_Node000025"><a xlink:title=" ">
<path fill="none" stroke="#63b8ff" d="M320.5,-219.75C320.5,-213.27 320.5,-204.16 320.5,-195.9"/>
<polygon fill="#63b8ff" stroke="#63b8ff" points="324,-195.96 320.5,-185.96 317,-195.96 324,-195.96"/>
</a>
</g>
</g>
<!-- Node26 -->
<g id="Node000026" class="node">
<title>Node26</title>
<g id="a_Node000026"><a xlink:href="../../d4/da9/interface_8h.html" target="_top" xlink:title="Messaging function declarations.">
<polygon fill="white" stroke="#666666" points="422.5,-184 360.5,-184 360.5,-165 422.5,-165 422.5,-184"/>
<text text-anchor="middle" x="391.5" y="-172" font-family="Helvetica,sans-Serif" font-size="10.00">interface.h</text>
</a>
</g>
</g>
<!-- Node1&#45;&gt;Node26 -->
<g id="edge30_Node000001_Node000026" class="edge">
<title>Node1&#45;&gt;Node26</title>
<g id="a_edge30_Node000001_Node000026"><a xlink:title=" ">
<path fill="none" stroke="#63b8ff" d="M332.54,-219.51C342.91,-211.77 358.1,-200.43 370.47,-191.2"/>
<polygon fill="#63b8ff" stroke="#63b8ff" points="372.5,-194.05 378.42,-185.26 368.31,-188.44 372.5,-194.05"/>
</a>
</g>
</g>
<!-- Node27 -->
<g id="Node000027" class="node">
<title>Node27</title>
<g id="a_Node000027"><a xlink:href="../../dd/d49/callbacks_8h.html" target="_top" xlink:title="Callback declarations for main window.">
<polygon fill="white" stroke="#666666" points="506.5,-184 440.5,-184 440.5,-165 506.5,-165 506.5,-184"/>
<text text-anchor="middle" x="473.5" y="-172" font-family="Helvetica,sans-Serif" font-size="10.00">callbacks.h</text>
</a>
</g>
</g>
<!-- Node1&#45;&gt;Node27 -->
<g id="edge31_Node000001_Node000027" class="edge">
<title>Node1&#45;&gt;Node27</title>
<g id="a_edge31_Node000001_Node000027"><a xlink:title=" ">
<path fill="none" stroke="#63b8ff" d="M346.45,-219.51C371.37,-210.88 409.23,-197.76 437.14,-188.1"/>
<polygon fill="#63b8ff" stroke="#63b8ff" points="437.94,-191.52 446.24,-184.94 435.65,-184.91 437.94,-191.52"/>
</a>
</g>
</g>
<!-- Node28 -->
<g id="Node000028" class="node">
<title>Node28</title>
<g id="a_Node000028"><a xlink:href="../../dc/d8d/project_8h.html" target="_top" xlink:title="Function declarations for reading atomes project file &#160;&#160;Function declarations for saving atomes proje...">
<polygon fill="white" stroke="#666666" points="578.5,-184 524.5,-184 524.5,-165 578.5,-165 578.5,-184"/>
<text text-anchor="middle" x="551.5" y="-172" font-family="Helvetica,sans-Serif" font-size="10.00">project.h</text>
</a>
</g>
</g>
<!-- Node1&#45;&gt;Node28 -->
<g id="edge32_Node000001_Node000028" class="edge">
<title>Node1&#45;&gt;Node28</title>
<g id="a_edge32_Node000001_Node000028"><a xlink:title=" ">
<path fill="none" stroke="#63b8ff" d="M359.37,-219.72C396.43,-211.33 454.12,-198.21 513.31,-184.49"/>
<polygon fill="#63b8ff" stroke="#63b8ff" points="513.95,-187.94 522.9,-182.27 512.37,-181.12 513.95,-187.94"/>
</a>
</g>
</g>
<!-- Node29 -->
<g id="Node000029" class="node">
<title>Node29</title>
<g id="a_Node000029"><a xlink:href="../../dc/de3/glview_8h.html" target="_top" xlink:title="Variable declarations related to the OpenGL window &#160;&#160;Function declaration related to the OpenGL windo...">
<polygon fill="white" stroke="#666666" points="648.5,-184 596.5,-184 596.5,-165 648.5,-165 648.5,-184"/>
<text text-anchor="middle" x="622.5" y="-172" font-family="Helvetica,sans-Serif" font-size="10.00">glview.h</text>
</a>
</g>
</g>
<!-- Node1&#45;&gt;Node29 -->
<g id="edge33_Node000001_Node000029" class="edge">
<title>Node1&#45;&gt;Node29</title>
<g id="a_edge33_Node000001_Node000029"><a xlink:title=" ">
<path fill="none" stroke="#63b8ff" d="M359.13,-222.97C409.06,-215.62 498.94,-201.72 585.14,-184.36"/>
<polygon fill="#63b8ff" stroke="#63b8ff" points="585.59,-187.84 594.69,-182.41 584.19,-180.98 585.59,-187.84"/>
</a>
</g>
</g>
<!-- Node30 -->
<g id="Node000030" class="node">
<title>Node30</title>
<g id="a_Node000030"><a xlink:href="../../df/de9/curve_8h.html" target="_top" xlink:title="Variable declarations for the curve widget \ Functions for interactions with the curve widget.">
<polygon fill="white" stroke="#666666" points="242,-184 193,-184 193,-165 242,-165 242,-184"/>
<text text-anchor="middle" x="217.5" y="-172" font-family="Helvetica,sans-Serif" font-size="10.00">curve.h</text>
</a>
</g>
</g>
<!-- Node1&#45;&gt;Node30 -->
<g id="edge34_Node000001_Node000030" class="edge">
<title>Node1&#45;&gt;Node30</title>
<g id="a_edge34_Node000001_Node000030"><a xlink:title=" ">
<path fill="none" stroke="#63b8ff" d="M303.03,-219.51C287.1,-211.31 263.31,-199.07 244.86,-189.58"/>
<polygon fill="#63b8ff" stroke="#63b8ff" points="246.55,-186.51 236.06,-185.05 243.35,-192.74 246.55,-186.51"/>
</a>
</g>
</g>
<!-- Node31 -->
<g id="Node000031" class="node">
<title>Node31</title>
<g id="a_Node000031"><a xlink:href="../../d6/d75/initcoord_8h.html" target="_top" xlink:title="Function declarations to handle the atomic coordination data.">
<polygon fill="white" stroke="#666666" points="728.5,-184 666.5,-184 666.5,-165 728.5,-165 728.5,-184"/>
<text text-anchor="middle" x="697.5" y="-172" font-family="Helvetica,sans-Serif" font-size="10.00">initcoord.h</text>
</a>
</g>
</g>
<!-- Node1&#45;&gt;Node31 -->
<g id="edge36_Node000001_Node000031" class="edge">
<title>Node1&#45;&gt;Node31</title>
<g id="a_edge36_Node000001_Node000031"><a xlink:title=" ">
<path fill="none" stroke="#63b8ff" d="M359.31,-224.37C420.15,-217.69 541.87,-203.44 654.85,-184.34"/>
<polygon fill="#63b8ff" stroke="#63b8ff" points="655.34,-187.8 664.61,-182.67 654.16,-180.9 655.34,-187.8"/>
</a>
</g>
</g>
<!-- Node5&#45;&gt;Node2 -->
<g id="edge15_Node000005_Node000002" class="edge">
<title>Node5&#45;&gt;Node2</title>
<g id="a_edge15_Node000005_Node000002"><a xlink:title=" ">
<path fill="none" stroke="#63b8ff" d="M807.11,-118.63C711.28,-118.78 362.32,-116.33 66.69,-74.22"/>
<polygon fill="#63b8ff" stroke="#63b8ff" points="67.21,-70.76 56.81,-72.79 66.21,-77.68 67.21,-70.76"/>
</a>
</g>
</g>
<!-- Node5&#45;&gt;Node3 -->
<g id="edge9_Node000005_Node000003" class="edge">
<title>Node5&#45;&gt;Node3</title>
<g id="a_edge9_Node000005_Node000003"><a xlink:title=" ">
<path fill="none" stroke="#63b8ff" d="M807.17,-118.55C716.85,-118.37 402.06,-114.79 133.42,-73.97"/>
<polygon fill="#63b8ff" stroke="#63b8ff" points="134.19,-70.54 123.77,-72.48 133.12,-77.46 134.19,-70.54"/>
</a>
</g>
</g>
<!-- Node5&#45;&gt;Node4 -->
<g id="edge11_Node000005_Node000004" class="edge">
<title>Node5&#45;&gt;Node4</title>
<g id="a_edge11_Node000005_Node000004"><a xlink:title=" ">
<path fill="none" stroke="#63b8ff" d="M807.2,-118.38C722.49,-117.61 441,-112.3 199.99,-74.1"/>
<polygon fill="#63b8ff" stroke="#63b8ff" points="200.83,-70.69 190.4,-72.55 199.71,-77.6 200.83,-70.69"/>
</a>
</g>
</g>
<!-- Node6 -->
<g id="Node000006" class="node">
<title>Node6</title>
<g id="a_Node000006"><a xlink:title=" ">
<polygon fill="#e0e0e0" stroke="#999999" points="1040.5,-74 1000.5,-74 1000.5,-55 1040.5,-55 1040.5,-74"/>
<text text-anchor="middle" x="1020.5" y="-62" font-family="Helvetica,sans-Serif" font-size="10.00">glib.h</text>
</a>
</g>
</g>
<!-- Node5&#45;&gt;Node6 -->
<g id="edge5_Node000005_Node000006" class="edge">
<title>Node5&#45;&gt;Node6</title>
<g id="a_edge5_Node000005_Node000006"><a xlink:title=" ">
<path fill="none" stroke="#63b8ff" d="M857.86,-111.5C887.24,-103.38 937.37,-89.45 989.44,-74.56"/>
<polygon fill="#63b8ff" stroke="#63b8ff" points="990.12,-78.01 998.77,-71.89 988.2,-71.28 990.12,-78.01"/>
</a>
</g>
</g>
<!-- Node7 -->
<g id="Node000007" class="node">
<title>Node7</title>
<g id="a_Node000007"><a xlink:title=" ">
<polygon fill="#e0e0e0" stroke="#999999" points="1124.5,-74 1058.5,-74 1058.5,-55 1124.5,-55 1124.5,-74"/>
<text text-anchor="middle" x="1091.5" y="-62" font-family="Helvetica,sans-Serif" font-size="10.00">glib/gi18n.h</text>
</a>
</g>
</g>
<!-- Node5&#45;&gt;Node7 -->
<g id="edge6_Node000005_Node000007" class="edge">
<title>Node5&#45;&gt;Node7</title>
<g id="a_edge6_Node000005_Node000007"><a xlink:title=" ">
<path fill="none" stroke="#63b8ff" d="M857.81,-113.32C901.77,-104.32 992.79,-85.7 1047.35,-74.53"/>
<polygon fill="#63b8ff" stroke="#63b8ff" points="1047.83,-78.01 1056.93,-72.57 1046.43,-71.15 1047.83,-78.01"/>
</a>
</g>
</g>
<!-- Node8 -->
<g id="Node000008" class="node">
<title>Node8</title>
<g id="a_Node000008"><a xlink:title=" ">
<polygon fill="#e0e0e0" stroke="#999999" points="1192.5,-74 1142.5,-74 1142.5,-55 1192.5,-55 1192.5,-74"/>
<text text-anchor="middle" x="1167.5" y="-62" font-family="Helvetica,sans-Serif" font-size="10.00">locale.h</text>
</a>
</g>
</g>
<!-- Node5&#45;&gt;Node8 -->
<g id="edge7_Node000005_Node000008" class="edge">
<title>Node5&#45;&gt;Node8</title>
<g id="a_edge7_Node000005_Node000008"><a xlink:title=" ">
<path fill="none" stroke="#63b8ff" d="M857.62,-115.63C907.73,-109.73 1023.89,-95.16 1131.28,-74.27"/>
<polygon fill="#63b8ff" stroke="#63b8ff" points="1131.69,-77.75 1140.83,-72.38 1130.34,-70.88 1131.69,-77.75"/>
</a>
</g>
</g>
<!-- Node9 -->
<g id="Node000009" class="node">
<title>Node9</title>
<g id="a_Node000009"><a xlink:title=" ">
<polygon fill="#e0e0e0" stroke="#999999" points="1262,-74 1211,-74 1211,-55 1262,-55 1262,-74"/>
<text text-anchor="middle" x="1236.5" y="-62" font-family="Helvetica,sans-Serif" font-size="10.00">unistd.h</text>
</a>
</g>
</g>
<!-- Node5&#45;&gt;Node9 -->
<g id="edge8_Node000005_Node000009" class="edge">
<title>Node5&#45;&gt;Node9</title>
<g id="a_edge8_Node000005_Node000009"><a xlink:title=" ">
<path fill="none" stroke="#63b8ff" d="M857.71,-116.5C916.01,-111.64 1064.8,-98 1199.27,-74.19"/>
<polygon fill="#63b8ff" stroke="#63b8ff" points="1199.87,-77.64 1209.09,-72.42 1198.63,-70.75 1199.87,-77.64"/>
</a>
</g>
</g>
<!-- Node10 -->
<g id="Node000010" class="node">
<title>Node10</title>
<g id="a_Node000010"><a xlink:title=" ">
<polygon fill="#e0e0e0" stroke="#999999" points="1108.5,-19 1062.5,-19 1062.5,0 1108.5,0 1108.5,-19"/>
<text text-anchor="middle" x="1085.5" y="-7" font-family="Helvetica,sans-Serif" font-size="10.00">stdio.h</text>
</a>
</g>
</g>
<!-- Node5&#45;&gt;Node10 -->
<g id="edge10_Node000005_Node000010" class="edge">
<title>Node5&#45;&gt;Node10</title>
<g id="a_edge10_Node000005_Node000010"><a xlink:title=" ">
<path fill="none" stroke="#63b8ff" d="M841.12,-109.71C855.08,-96 884.03,-69.57 913.5,-55 958.22,-32.9 1015.08,-20.96 1050.89,-15.17"/>
<polygon fill="#63b8ff" stroke="#63b8ff" points="1051.34,-18.64 1060.69,-13.66 1050.27,-11.72 1051.34,-18.64"/>
</a>
</g>
</g>
<!-- Node11 -->
<g id="Node000011" class="node">
<title>Node11</title>
<g id="a_Node000011"><a xlink:title=" ">
<polygon fill="#e0e0e0" stroke="#999999" points="1532.5,-74 1464.5,-74 1464.5,-55 1532.5,-55 1532.5,-74"/>
<text text-anchor="middle" x="1498.5" y="-62" font-family="Helvetica,sans-Serif" font-size="10.00">sys/types.h</text>
</a>
</g>
</g>
<!-- Node5&#45;&gt;Node11 -->
<g id="edge12_Node000005_Node000011" class="edge">
<title>Node5&#45;&gt;Node11</title>
<g id="a_edge12_Node000005_Node000011"><a xlink:title=" ">
<path fill="none" stroke="#63b8ff" d="M857.84,-117.82C941.39,-115.32 1215.94,-105.26 1453.03,-74.15"/>
<polygon fill="#63b8ff" stroke="#63b8ff" points="1453.34,-77.64 1462.8,-72.86 1452.42,-70.71 1453.34,-77.64"/>
</a>
</g>
</g>
<!-- Node12 -->
<g id="Node000012" class="node">
<title>Node12</title>
<g id="a_Node000012"><a xlink:title=" ">
<polygon fill="#e0e0e0" stroke="#999999" points="1610.5,-74 1550.5,-74 1550.5,-55 1610.5,-55 1610.5,-74"/>
<text text-anchor="middle" x="1580.5" y="-62" font-family="Helvetica,sans-Serif" font-size="10.00">sys/stat.h</text>
</a>
</g>
</g>
<!-- Node5&#45;&gt;Node12 -->
<g id="edge13_Node000005_Node000012" class="edge">
<title>Node5&#45;&gt;Node12</title>
<g id="a_edge13_Node000005_Node000012"><a xlink:title=" ">
<path fill="none" stroke="#63b8ff" d="M857.76,-118.3C948.55,-117.29 1266.95,-111.24 1539.06,-74.11"/>
<polygon fill="#63b8ff" stroke="#63b8ff" points="1539.42,-77.59 1548.85,-72.75 1538.46,-70.66 1539.42,-77.59"/>
</a>
</g>
</g>
<!-- Node13 -->
<g id="Node000013" class="node">
<title>Node13</title>
<g id="a_Node000013"><a xlink:title=" ">
<polygon fill="#e0e0e0" stroke="#999999" points="1350,-19 1303,-19 1303,0 1350,0 1350,-19"/>
<text text-anchor="middle" x="1326.5" y="-7" font-family="Helvetica,sans-Serif" font-size="10.00">math.h</text>
</a>
</g>
</g>
<!-- Node5&#45;&gt;Node13 -->
<g id="edge14_Node000005_Node000013" class="edge">
<title>Node5&#45;&gt;Node13</title>
<g id="a_edge14_Node000005_Node000013"><a xlink:title=" ">
<path fill="none" stroke="#63b8ff" d="M857.73,-118.29C957.11,-117.2 1317.79,-110.73 1351.5,-74 1363.35,-61.09 1353.17,-41.91 1342.45,-28.01"/>
<polygon fill="#63b8ff" stroke="#63b8ff" points="1345.29,-25.95 1336.19,-20.53 1339.93,-30.44 1345.29,-25.95"/>
</a>
</g>
</g>
<!-- Node14 -->
<g id="Node000014" class="node">
<title>Node14</title>
<g id="a_Node000014"><a xlink:title=" ">
<polygon fill="#e0e0e0" stroke="#999999" points="266,-74 207,-74 207,-55 266,-55 266,-74"/>
<text text-anchor="middle" x="236.5" y="-62" font-family="Helvetica,sans-Serif" font-size="10.00">gdk/gdk.h</text>
</a>
</g>
</g>
<!-- Node5&#45;&gt;Node14 -->
<g id="edge16_Node000005_Node000014" class="edge">
<title>Node5&#45;&gt;Node14</title>
<g id="a_edge16_Node000005_Node000014"><a xlink:title=" ">
<path fill="none" stroke="#63b8ff" d="M807.1,-117.69C729.39,-114.96 487.87,-104.57 277.5,-74.07"/>
<polygon fill="#63b8ff" stroke="#63b8ff" points="278.13,-70.63 267.73,-72.63 277.12,-77.55 278.13,-70.63"/>
</a>
</g>
</g>
<!-- Node15 -->
<g id="Node000015" class="node">
<title>Node15</title>
<g id="a_Node000015"><a xlink:title=" ">
<polygon fill="#e0e0e0" stroke="#999999" points="383,-74 284,-74 284,-55 383,-55 383,-74"/>
<text text-anchor="middle" x="333.5" y="-62" font-family="Helvetica,sans-Serif" font-size="10.00">gdk/gdkkeysyms.h</text>
</a>
</g>
</g>
<!-- Node5&#45;&gt;Node15 -->
<g id="edge17_Node000005_Node000015" class="edge">
<title>Node5&#45;&gt;Node15</title>
<g id="a_edge17_Node000005_Node000015"><a xlink:title=" ">
<path fill="none" stroke="#63b8ff" d="M807.16,-116.32C741.17,-110.55 558.33,-94.05 394.63,-74.21"/>
<polygon fill="#63b8ff" stroke="#63b8ff" points="395.23,-70.76 384.88,-73.02 394.38,-77.71 395.23,-70.76"/>
</a>
</g>
</g>
<!-- Node16 -->
<g id="Node000016" class="node">
<title>Node16</title>
<g id="a_Node000016"><a xlink:title=" ">
<polygon fill="#e0e0e0" stroke="#999999" points="519.5,-74 401.5,-74 401.5,-55 519.5,-55 519.5,-74"/>
<text text-anchor="middle" x="460.5" y="-62" font-family="Helvetica,sans-Serif" font-size="10.00">gdk&#45;pixbuf/gdk&#45;pixbuf.h</text>
</a>
</g>
</g>
<!-- Node5&#45;&gt;Node16 -->
<g id="edge18_Node000005_Node000016" class="edge">
<title>Node5&#45;&gt;Node16</title>
<g id="a_edge18_Node000005_Node000016"><a xlink:title=" ">
<path fill="none" stroke="#63b8ff" d="M807.22,-114.9C751.25,-106.92 615.17,-87.54 531.1,-75.56"/>
<polygon fill="#63b8ff" stroke="#63b8ff" points="531.74,-72.11 521.34,-74.17 530.75,-79.04 531.74,-72.11"/>
</a>
</g>
</g>
<!-- Node17 -->
<g id="Node000017" class="node">
<title>Node17</title>
<g id="a_Node000017"><a xlink:title=" ">
<polygon fill="#e0e0e0" stroke="#999999" points="629.5,-74 537.5,-74 537.5,-55 629.5,-55 629.5,-74"/>
<text text-anchor="middle" x="583.5" y="-62" font-family="Helvetica,sans-Serif" font-size="10.00">pango/pangoft2.h</text>
</a>
</g>
</g>
<!-- Node5&#45;&gt;Node17 -->
<g id="edge19_Node000005_Node000017" class="edge">
<title>Node5&#45;&gt;Node17</title>
<g id="a_edge19_Node000005_Node000017"><a xlink:title=" ">
<path fill="none" stroke="#63b8ff" d="M807.25,-113.13C767.51,-104.67 689.49,-88.06 636.91,-76.87"/>
<polygon fill="#63b8ff" stroke="#63b8ff" points="637.76,-73.47 627.25,-74.81 636.3,-80.32 637.76,-73.47"/>
</a>
</g>
</g>
<!-- Node18 -->
<g id="Node000018" class="node">
<title>Node18</title>
<g id="a_Node000018"><a xlink:title=" ">
<polygon fill="#e0e0e0" stroke="#999999" points="709.5,-74 647.5,-74 647.5,-55 709.5,-55 709.5,-74"/>
<text text-anchor="middle" x="678.5" y="-62" font-family="Helvetica,sans-Serif" font-size="10.00">epoxy/gl.h</text>
</a>
</g>
</g>
<!-- Node5&#45;&gt;Node18 -->
<g id="edge20_Node000005_Node000018" class="edge">
<title>Node5&#45;&gt;Node18</title>
<g id="a_edge20_Node000005_Node000018"><a xlink:title=" ">
<path fill="none" stroke="#63b8ff" d="M807.07,-109.75C782.03,-101.13 743.53,-87.88 715.18,-78.12"/>
<polygon fill="#63b8ff" stroke="#63b8ff" points="716.51,-74.88 705.91,-74.93 714.23,-81.5 716.51,-74.88"/>
</a>
</g>
</g>
<!-- Node19 -->
<g id="Node000019" class="node">
<title>Node19</title>
<g id="a_Node000019"><a xlink:title=" ">
<polygon fill="#e0e0e0" stroke="#999999" points="781,-74 728,-74 728,-55 781,-55 781,-74"/>
<text text-anchor="middle" x="754.5" y="-62" font-family="Helvetica,sans-Serif" font-size="10.00">GL/glu.h</text>
</a>
</g>
</g>
<!-- Node5&#45;&gt;Node19 -->
<g id="edge21_Node000005_Node000019" class="edge">
<title>Node5&#45;&gt;Node19</title>
<g id="a_edge21_Node000005_Node000019"><a xlink:title=" ">
<path fill="none" stroke="#63b8ff" d="M819.27,-109.51C807.66,-101.62 790.53,-89.98 776.8,-80.65"/>
<polygon fill="#63b8ff" stroke="#63b8ff" points="779.03,-77.93 768.79,-75.21 775.09,-83.72 779.03,-77.93"/>
</a>
</g>
</g>
<!-- Node20 -->
<g id="Node000020" class="node">
<title>Node20</title>
<g id="a_Node000020"><a xlink:title=" ">
<polygon fill="#e0e0e0" stroke="#999999" points="866,-74 799,-74 799,-55 866,-55 866,-74"/>
<text text-anchor="middle" x="832.5" y="-62" font-family="Helvetica,sans-Serif" font-size="10.00">epoxy/glx.h</text>
</a>
</g>
</g>
<!-- Node5&#45;&gt;Node20 -->
<g id="edge22_Node000005_Node000020" class="edge">
<title>Node5&#45;&gt;Node20</title>
<g id="a_edge22_Node000005_Node000020"><a xlink:title=" ">
<path fill="none" stroke="#63b8ff" d="M832.5,-109.75C832.5,-103.27 832.5,-94.16 832.5,-85.9"/>
<polygon fill="#63b8ff" stroke="#63b8ff" points="836,-85.96 832.5,-75.96 829,-85.96 836,-85.96"/>
</a>
</g>
</g>
<!-- Node21 -->
<g id="Node000021" class="node">
<title>Node21</title>
<g id="a_Node000021"><a xlink:href="../../dc/db0/math__3d_8h.html" target="_top" xlink:title="Functions for OpenGL math.">
<polygon fill="white" stroke="#666666" points="1342.5,-74 1280.5,-74 1280.5,-55 1342.5,-55 1342.5,-74"/>
<text text-anchor="middle" x="1311.5" y="-62" font-family="Helvetica,sans-Serif" font-size="10.00">math_3d.h</text>
</a>
</g>
</g>
<!-- Node5&#45;&gt;Node21 -->
<g id="edge23_Node000005_Node000021" class="edge">
<title>Node5&#45;&gt;Node21</title>
<g id="a_edge23_Node000005_Node000021"><a xlink:title=" ">
<path fill="none" stroke="#63b8ff" d="M857.86,-116.89C923.9,-112.51 1106.75,-99.08 1268.97,-74.24"/>
<polygon fill="#63b8ff" stroke="#63b8ff" points="1269.28,-77.73 1278.62,-72.74 1268.2,-70.81 1269.28,-77.73"/>
</a>
</g>
</g>
<!-- Node22 -->
<g id="Node000022" class="node">
<title>Node22</title>
<g id="a_Node000022"><a xlink:href="../../da/d7e/glwin_8h.html" target="_top" xlink:title="Variable declarations related the OpenGL window &#160;&#160;Data structure declarations related the OpenGL wind...">
<polygon fill="white" stroke="#666666" points="1446,-74 1399,-74 1399,-55 1446,-55 1446,-74"/>
<text text-anchor="middle" x="1422.5" y="-62" font-family="Helvetica,sans-Serif" font-size="10.00">glwin.h</text>
</a>
</g>
</g>
<!-- Node5&#45;&gt;Node22 -->
<g id="edge26_Node000005_Node000022" class="edge">
<title>Node5&#45;&gt;Node22</title>
<g id="a_edge26_Node000005_Node000022"><a xlink:title=" ">
<path fill="none" stroke="#63b8ff" d="M857.95,-117.71C936.67,-115.01 1182.97,-104.51 1384.5,-74 1385.52,-73.85 1386.56,-73.68 1387.61,-73.5"/>
<polygon fill="#63b8ff" stroke="#63b8ff" points="1388.24,-76.94 1397.39,-71.61 1386.91,-70.07 1388.24,-76.94"/>
</a>
</g>
</g>
<!-- Node24 -->
<g id="Node000024" class="node">
<title>Node24</title>
<g id="a_Node000024"><a xlink:title=" ">
<polygon fill="#e0e0e0" stroke="#999999" points="982.5,-74 922.5,-74 922.5,-55 982.5,-55 982.5,-74"/>
<text text-anchor="middle" x="952.5" y="-62" font-family="Helvetica,sans-Serif" font-size="10.00">gtk/gtkx.h</text>
</a>
</g>
</g>
<!-- Node5&#45;&gt;Node24 -->
<g id="edge28_Node000005_Node000024" class="edge">
<title>Node5&#45;&gt;Node24</title>
<g id="a_edge28_Node000005_Node000024"><a xlink:title=" ">
<path fill="none" stroke="#63b8ff" d="M852.86,-109.51C871.85,-101.12 900.43,-88.5 922.12,-78.92"/>
<polygon fill="#63b8ff" stroke="#63b8ff" points="923.33,-82.21 931.06,-74.97 920.5,-75.81 923.33,-82.21"/>
</a>
</g>
</g>
<!-- Node21&#45;&gt;Node10 -->
<g id="edge25_Node000021_Node000010" class="edge">
<title>Node21&#45;&gt;Node10</title>
<g id="a_edge25_Node000021_Node000010"><a xlink:title=" ">
<path fill="none" stroke="#63b8ff" d="M1280.08,-56.13C1237.97,-46.26 1163.5,-28.79 1119.92,-18.57"/>
<polygon fill="#63b8ff" stroke="#63b8ff" points="1120.77,-15.18 1110.24,-16.3 1119.17,-21.99 1120.77,-15.18"/>
</a>
</g>
</g>
<!-- Node21&#45;&gt;Node13 -->
<g id="edge24_Node000021_Node000013" class="edge">
<title>Node21&#45;&gt;Node13</title>
<g id="a_edge24_Node000021_Node000013"><a xlink:title=" ">
<path fill="none" stroke="#63b8ff" d="M1313.98,-54.75C1315.85,-48.11 1318.51,-38.73 1320.89,-30.31"/>
<polygon fill="#63b8ff" stroke="#63b8ff" points="1324.2,-31.47 1323.56,-20.9 1317.47,-29.57 1324.2,-31.47"/>
</a>
</g>
</g>
<!-- Node23 -->
<g id="Node000023" class="node">
<title>Node23</title>
<g id="a_Node000023"><a xlink:href="../../d5/d9e/ogl__shading_8h.html" target="_top" xlink:title="Variable declarations related to GLSL programs &#160;&#160;Data structure declarations related to GLSL programs...">
<polygon fill="white" stroke="#666666" points="1461,-19 1384,-19 1384,0 1461,0 1461,-19"/>
<text text-anchor="middle" x="1422.5" y="-7" font-family="Helvetica,sans-Serif" font-size="10.00">ogl_shading.h</text>
</a>
</g>
</g>
<!-- Node22&#45;&gt;Node23 -->
<g id="edge27_Node000022_Node000023" class="edge">
<title>Node22&#45;&gt;Node23</title>
<g id="a_edge27_Node000022_Node000023"><a xlink:title=" ">
<path fill="none" stroke="#63b8ff" d="M1422.5,-54.75C1422.5,-48.27 1422.5,-39.16 1422.5,-30.9"/>
<polygon fill="#63b8ff" stroke="#63b8ff" points="1426,-30.96 1422.5,-20.96 1419,-30.96 1426,-30.96"/>
</a>
</g>
</g>
<!-- Node30&#45;&gt;Node5 -->
<g id="edge35_Node000030_Node000005" class="edge">
<title>Node30&#45;&gt;Node5</title>
<g id="a_edge35_Node000030_Node000005"><a xlink:title=" ">
<path fill="none" stroke="#63b8ff" d="M242.16,-167.59C246.9,-166.61 251.84,-165.68 256.5,-165 458.78,-135.29 704.14,-124.68 795.71,-121.59"/>
<polygon fill="#63b8ff" stroke="#63b8ff" points="795.7,-125.09 805.58,-121.27 795.47,-118.09 795.7,-125.09"/>
</a>
</g>
</g>
</g>
</svg>
