<?xml version="1.0" encoding="UTF-8" standalone="no"?>
<!DOCTYPE svg PUBLIC "-//W3C//DTD SVG 1.1//EN"
 "http://www.w3.org/Graphics/SVG/1.1/DTD/svg11.dtd">
<!-- Generated by graphviz version 2.43.0 (0)
 -->
<!-- Title: gui/ringscall.c Pages: 1 -->
<svg width="1733pt" height="247pt"
 viewBox="0.00 0.00 1733.00 247.00" xmlns="http://www.w3.org/2000/svg" xmlns:xlink="http://www.w3.org/1999/xlink">
<g id="graph0" class="graph" transform="scale(1 1) rotate(0) translate(4 243)">
<title>gui/ringscall.c</title>
<!-- Node1 -->
<g id="Node000001" class="node">
<title>Node1</title>
<g id="a_Node000001"><a xlink:title="Callbacks for the ring statistics calculation dialog.">
<polygon fill="#999999" stroke="#666666" points="380,-239 296,-239 296,-220 380,-220 380,-239"/>
<text text-anchor="middle" x="338" y="-227" font-family="Helvetica,sans-Serif" font-size="10.00">gui/ringscall.c</text>
</a>
</g>
</g>
<!-- Node2 -->
<g id="Node000002" class="node">
<title>Node2</title>
<g id="a_Node000002"><a xlink:title=" ">
<polygon fill="#e0e0e0" stroke="#999999" points="60,-74 0,-74 0,-55 60,-55 60,-74"/>
<text text-anchor="middle" x="30" y="-62" font-family="Helvetica,sans-Serif" font-size="10.00">gtk/gtk.h</text>
</a>
</g>
</g>
<!-- Node1&#45;&gt;Node2 -->
<g id="edge1_Node000001_Node000002" class="edge">
<title>Node1&#45;&gt;Node2</title>
<g id="a_edge1_Node000001_Node000002"><a xlink:title=" ">
<path fill="none" stroke="#63b8ff" d="M295.94,-224.28C257.79,-219.07 200.97,-207.79 157,-184 108.36,-157.69 64.24,-108.27 43.12,-82.34"/>
<polygon fill="#63b8ff" stroke="#63b8ff" points="45.62,-79.86 36.64,-74.23 40.15,-84.23 45.62,-79.86"/>
</a>
</g>
</g>
<!-- Node3 -->
<g id="Node000003" class="node">
<title>Node3</title>
<g id="a_Node000003"><a xlink:title=" ">
<polygon fill="#e0e0e0" stroke="#999999" points="131.5,-74 78.5,-74 78.5,-55 131.5,-55 131.5,-74"/>
<text text-anchor="middle" x="105" y="-62" font-family="Helvetica,sans-Serif" font-size="10.00">string.h</text>
</a>
</g>
</g>
<!-- Node1&#45;&gt;Node3 -->
<g id="edge2_Node000001_Node000003" class="edge">
<title>Node1&#45;&gt;Node3</title>
<g id="a_edge2_Node000001_Node000003"><a xlink:title=" ">
<path fill="none" stroke="#63b8ff" d="M295.77,-224.93C261.66,-220.21 213.93,-209.29 180,-184 144.83,-157.78 122.01,-109.77 111.58,-83.63"/>
<polygon fill="#63b8ff" stroke="#63b8ff" points="114.82,-82.28 107.98,-74.18 108.28,-84.77 114.82,-82.28"/>
</a>
</g>
</g>
<!-- Node4 -->
<g id="Node000004" class="node">
<title>Node4</title>
<g id="a_Node000004"><a xlink:title=" ">
<polygon fill="#e0e0e0" stroke="#999999" points="202.5,-74 149.5,-74 149.5,-55 202.5,-55 202.5,-74"/>
<text text-anchor="middle" x="176" y="-62" font-family="Helvetica,sans-Serif" font-size="10.00">stdlib.h</text>
</a>
</g>
</g>
<!-- Node1&#45;&gt;Node4 -->
<g id="edge3_Node000001_Node000004" class="edge">
<title>Node1&#45;&gt;Node4</title>
<g id="a_edge3_Node000001_Node000004"><a xlink:title=" ">
<path fill="none" stroke="#63b8ff" d="M295.92,-226.88C263.47,-223.27 220.03,-212.88 195,-184 170.86,-156.14 171.01,-110.2 173.41,-84.47"/>
<polygon fill="#63b8ff" stroke="#63b8ff" points="176.92,-84.54 174.59,-74.21 169.97,-83.74 176.92,-84.54"/>
</a>
</g>
</g>
<!-- Node5 -->
<g id="Node000005" class="node">
<title>Node5</title>
<g id="a_Node000005"><a xlink:href="../../d2/d49/global_8h.html" target="_top" xlink:title="Global variable declarations &#160;&#160;Global convenience function declarations &#160;&#160;Global data structure defin...">
<polygon fill="white" stroke="#666666" points="926,-129 870,-129 870,-110 926,-110 926,-129"/>
<text text-anchor="middle" x="898" y="-117" font-family="Helvetica,sans-Serif" font-size="10.00">global.h</text>
</a>
</g>
</g>
<!-- Node1&#45;&gt;Node5 -->
<g id="edge4_Node000001_Node000005" class="edge">
<title>Node1&#45;&gt;Node5</title>
<g id="a_edge4_Node000001_Node000005"><a xlink:title=" ">
<path fill="none" stroke="#63b8ff" d="M327.69,-219.78C313.34,-206.62 290.72,-181.47 306,-165 343.59,-124.48 733.8,-120.62 859.33,-120.43"/>
<polygon fill="#63b8ff" stroke="#63b8ff" points="859.62,-123.93 869.62,-120.43 859.62,-116.93 859.62,-123.93"/>
</a>
</g>
</g>
<!-- Node25 -->
<g id="Node000025" class="node">
<title>Node25</title>
<g id="a_Node000025"><a xlink:href="../../da/dc2/bind_8h.html" target="_top" xlink:title="Binding to the Fortran90 subroutines.">
<polygon fill="white" stroke="#666666" points="361.5,-184 314.5,-184 314.5,-165 361.5,-165 361.5,-184"/>
<text text-anchor="middle" x="338" y="-172" font-family="Helvetica,sans-Serif" font-size="10.00">bind.h</text>
</a>
</g>
</g>
<!-- Node1&#45;&gt;Node25 -->
<g id="edge29_Node000001_Node000025" class="edge">
<title>Node1&#45;&gt;Node25</title>
<g id="a_edge29_Node000001_Node000025"><a xlink:title=" ">
<path fill="none" stroke="#63b8ff" d="M338,-219.75C338,-212.8 338,-202.85 338,-194.13"/>
<polygon fill="#63b8ff" stroke="#63b8ff" points="341.5,-194.09 338,-184.09 334.5,-194.09 341.5,-194.09"/>
</a>
</g>
</g>
<!-- Node26 -->
<g id="Node000026" class="node">
<title>Node26</title>
<g id="a_Node000026"><a xlink:href="../../d4/da9/interface_8h.html" target="_top" xlink:title="Messaging function declarations.">
<polygon fill="white" stroke="#666666" points="448.5,-184 379.5,-184 379.5,-165 448.5,-165 448.5,-184"/>
<text text-anchor="middle" x="414" y="-172" font-family="Helvetica,sans-Serif" font-size="10.00">interface.h</text>
</a>
</g>
</g>
<!-- Node1&#45;&gt;Node26 -->
<g id="edge30_Node000001_Node000026" class="edge">
<title>Node1&#45;&gt;Node26</title>
<g id="a_edge30_Node000001_Node000026"><a xlink:title=" ">
<path fill="none" stroke="#63b8ff" d="M350.21,-219.98C361.78,-211.92 379.38,-199.65 393.16,-190.03"/>
<polygon fill="#63b8ff" stroke="#63b8ff" points="395.37,-192.76 401.57,-184.17 391.36,-187.02 395.37,-192.76"/>
</a>
</g>
</g>
<!-- Node27 -->
<g id="Node000027" class="node">
<title>Node27</title>
<g id="a_Node000027"><a xlink:href="../../dd/d49/callbacks_8h.html" target="_top" xlink:title="Callback declarations for main window.">
<polygon fill="white" stroke="#666666" points="537.5,-184 466.5,-184 466.5,-165 537.5,-165 537.5,-184"/>
<text text-anchor="middle" x="502" y="-172" font-family="Helvetica,sans-Serif" font-size="10.00">callbacks.h</text>
</a>
</g>
</g>
<!-- Node1&#45;&gt;Node27 -->
<g id="edge31_Node000001_Node000027" class="edge">
<title>Node1&#45;&gt;Node27</title>
<g id="a_edge31_Node000001_Node000027"><a xlink:title=" ">
<path fill="none" stroke="#63b8ff" d="M364.35,-219.98C391.76,-211.13 434.89,-197.19 465.56,-187.28"/>
<polygon fill="#63b8ff" stroke="#63b8ff" points="467,-190.49 475.44,-184.08 464.85,-183.83 467,-190.49"/>
</a>
</g>
</g>
<!-- Node28 -->
<g id="Node000028" class="node">
<title>Node28</title>
<g id="a_Node000028"><a xlink:href="../../dc/d8d/project_8h.html" target="_top" xlink:title="Function declarations for reading atomes project file &#160;&#160;Function declarations for saving atomes proje...">
<polygon fill="white" stroke="#666666" points="614.5,-184 555.5,-184 555.5,-165 614.5,-165 614.5,-184"/>
<text text-anchor="middle" x="585" y="-172" font-family="Helvetica,sans-Serif" font-size="10.00">project.h</text>
</a>
</g>
</g>
<!-- Node1&#45;&gt;Node28 -->
<g id="edge32_Node000001_Node000028" class="edge">
<title>Node1&#45;&gt;Node28</title>
<g id="a_edge32_Node000001_Node000028"><a xlink:title=" ">
<path fill="none" stroke="#63b8ff" d="M378.88,-219.93C418.89,-211.51 481.84,-198.18 545,-184.42"/>
<polygon fill="#63b8ff" stroke="#63b8ff" points="546.11,-187.76 555.14,-182.21 544.62,-180.92 546.11,-187.76"/>
</a>
</g>
</g>
<!-- Node29 -->
<g id="Node000029" class="node">
<title>Node29</title>
<g id="a_Node000029"><a xlink:href="../../dc/de3/glview_8h.html" target="_top" xlink:title="Variable declarations related to the OpenGL window &#160;&#160;Function declarations related to the OpenGL wind...">
<polygon fill="white" stroke="#666666" points="689.5,-184 632.5,-184 632.5,-165 689.5,-165 689.5,-184"/>
<text text-anchor="middle" x="661" y="-172" font-family="Helvetica,sans-Serif" font-size="10.00">glview.h</text>
</a>
</g>
</g>
<!-- Node1&#45;&gt;Node29 -->
<g id="edge33_Node000001_Node000029" class="edge">
<title>Node1&#45;&gt;Node29</title>
<g id="a_edge33_Node000001_Node000029"><a xlink:title=" ">
<path fill="none" stroke="#63b8ff" d="M380.32,-222.88C434.32,-215.49 530.81,-201.59 622.37,-184.21"/>
<polygon fill="#63b8ff" stroke="#63b8ff" points="623.2,-187.61 632.36,-182.29 621.88,-180.74 623.2,-187.61"/>
</a>
</g>
</g>
<!-- Node30 -->
<g id="Node000030" class="node">
<title>Node30</title>
<g id="a_Node000030"><a xlink:href="../../df/de9/curve_8h.html" target="_top" xlink:title="Variable declarations for the curve widget &#160;&#160;Functions for interactions with the curve widget.">
<polygon fill="white" stroke="#666666" points="257.5,-184 204.5,-184 204.5,-165 257.5,-165 257.5,-184"/>
<text text-anchor="middle" x="231" y="-172" font-family="Helvetica,sans-Serif" font-size="10.00">curve.h</text>
</a>
</g>
</g>
<!-- Node1&#45;&gt;Node30 -->
<g id="edge34_Node000001_Node000030" class="edge">
<title>Node1&#45;&gt;Node30</title>
<g id="a_edge34_Node000001_Node000030"><a xlink:title=" ">
<path fill="none" stroke="#63b8ff" d="M320.81,-219.98C303.75,-211.54 277.37,-198.47 257.6,-188.68"/>
<polygon fill="#63b8ff" stroke="#63b8ff" points="259.02,-185.47 248.5,-184.17 255.91,-191.75 259.02,-185.47"/>
</a>
</g>
</g>
<!-- Node31 -->
<g id="Node000031" class="node">
<title>Node31</title>
<g id="a_Node000031"><a xlink:href="../../d6/d75/initcoord_8h.html" target="_top" xlink:title="Function declarations to handle the atomic coordination data.">
<polygon fill="white" stroke="#666666" points="776,-184 708,-184 708,-165 776,-165 776,-184"/>
<text text-anchor="middle" x="742" y="-172" font-family="Helvetica,sans-Serif" font-size="10.00">initcoord.h</text>
</a>
</g>
</g>
<!-- Node1&#45;&gt;Node31 -->
<g id="edge36_Node000001_Node000031" class="edge">
<title>Node1&#45;&gt;Node31</title>
<g id="a_edge36_Node000001_Node000031"><a xlink:title=" ">
<path fill="none" stroke="#63b8ff" d="M380.1,-224.31C445.76,-217.56 576.7,-203.22 697.6,-184.12"/>
<polygon fill="#63b8ff" stroke="#63b8ff" points="698.45,-187.53 707.77,-182.5 697.35,-180.62 698.45,-187.53"/>
</a>
</g>
</g>
<!-- Node5&#45;&gt;Node2 -->
<g id="edge15_Node000005_Node000002" class="edge">
<title>Node5&#45;&gt;Node2</title>
<g id="a_edge15_Node000005_Node000002"><a xlink:title=" ">
<path fill="none" stroke="#63b8ff" d="M869.94,-118.63C765.49,-118.75 389.3,-116.16 70.51,-73.96"/>
<polygon fill="#63b8ff" stroke="#63b8ff" points="70.52,-70.43 60.15,-72.57 69.59,-77.37 70.52,-70.43"/>
</a>
</g>
</g>
<!-- Node5&#45;&gt;Node3 -->
<g id="edge9_Node000005_Node000003" class="edge">
<title>Node5&#45;&gt;Node3</title>
<g id="a_edge9_Node000005_Node000003"><a xlink:title=" ">
<path fill="none" stroke="#63b8ff" d="M869.94,-118.66C771.21,-118.86 430.7,-116.32 141.91,-74.02"/>
<polygon fill="#63b8ff" stroke="#63b8ff" points="142.06,-70.5 131.66,-72.5 141.03,-77.43 142.06,-70.5"/>
</a>
</g>
</g>
<!-- Node5&#45;&gt;Node4 -->
<g id="edge11_Node000005_Node000004" class="edge">
<title>Node5&#45;&gt;Node4</title>
<g id="a_edge11_Node000005_Node000004"><a xlink:title=" ">
<path fill="none" stroke="#63b8ff" d="M869.67,-118.42C776.68,-117.79 472.3,-112.81 212.65,-73.99"/>
<polygon fill="#63b8ff" stroke="#63b8ff" points="213.07,-70.52 202.66,-72.48 212.02,-77.44 213.07,-70.52"/>
</a>
</g>
</g>
<!-- Node6 -->
<g id="Node000006" class="node">
<title>Node6</title>
<g id="a_Node000006"><a xlink:title=" ">
<polygon fill="#e0e0e0" stroke="#999999" points="1119,-74 1075,-74 1075,-55 1119,-55 1119,-74"/>
<text text-anchor="middle" x="1097" y="-62" font-family="Helvetica,sans-Serif" font-size="10.00">glib.h</text>
</a>
</g>
</g>
<!-- Node5&#45;&gt;Node6 -->
<g id="edge5_Node000005_Node000006" class="edge">
<title>Node5&#45;&gt;Node6</title>
<g id="a_edge5_Node000005_Node000006"><a xlink:title=" ">
<path fill="none" stroke="#63b8ff" d="M926.26,-111.09C957.77,-102.82 1010.5,-88.92 1065.13,-74.22"/>
<polygon fill="#63b8ff" stroke="#63b8ff" points="1066.25,-77.54 1074.99,-71.56 1064.42,-70.78 1066.25,-77.54"/>
</a>
</g>
</g>
<!-- Node7 -->
<g id="Node000007" class="node">
<title>Node7</title>
<g id="a_Node000007"><a xlink:title=" ">
<polygon fill="#e0e0e0" stroke="#999999" points="1211,-74 1137,-74 1137,-55 1211,-55 1211,-74"/>
<text text-anchor="middle" x="1174" y="-62" font-family="Helvetica,sans-Serif" font-size="10.00">glib/gi18n.h</text>
</a>
</g>
</g>
<!-- Node5&#45;&gt;Node7 -->
<g id="edge6_Node000005_Node000007" class="edge">
<title>Node5&#45;&gt;Node7</title>
<g id="a_edge6_Node000005_Node000007"><a xlink:title=" ">
<path fill="none" stroke="#63b8ff" d="M926.24,-113.08C973.55,-103.99 1069.28,-85.61 1126.91,-74.54"/>
<polygon fill="#63b8ff" stroke="#63b8ff" points="1127.7,-77.96 1136.86,-72.63 1126.38,-71.08 1127.7,-77.96"/>
</a>
</g>
</g>
<!-- Node8 -->
<g id="Node000008" class="node">
<title>Node8</title>
<g id="a_Node000008"><a xlink:title=" ">
<polygon fill="#e0e0e0" stroke="#999999" points="1284.5,-74 1229.5,-74 1229.5,-55 1284.5,-55 1284.5,-74"/>
<text text-anchor="middle" x="1257" y="-62" font-family="Helvetica,sans-Serif" font-size="10.00">locale.h</text>
</a>
</g>
</g>
<!-- Node5&#45;&gt;Node8 -->
<g id="edge7_Node000005_Node000008" class="edge">
<title>Node5&#45;&gt;Node8</title>
<g id="a_edge7_Node000005_Node000008"><a xlink:title=" ">
<path fill="none" stroke="#63b8ff" d="M926.13,-115.46C980.67,-109.39 1104.75,-94.68 1219.19,-73.99"/>
<polygon fill="#63b8ff" stroke="#63b8ff" points="1219.97,-77.41 1229.17,-72.17 1218.71,-70.53 1219.97,-77.41"/>
</a>
</g>
</g>
<!-- Node9 -->
<g id="Node000009" class="node">
<title>Node9</title>
<g id="a_Node000009"><a xlink:title=" ">
<polygon fill="#e0e0e0" stroke="#999999" points="1359,-74 1303,-74 1303,-55 1359,-55 1359,-74"/>
<text text-anchor="middle" x="1331" y="-62" font-family="Helvetica,sans-Serif" font-size="10.00">unistd.h</text>
</a>
</g>
</g>
<!-- Node5&#45;&gt;Node9 -->
<g id="edge8_Node000005_Node000009" class="edge">
<title>Node5&#45;&gt;Node9</title>
<g id="a_edge8_Node000005_Node000009"><a xlink:title=" ">
<path fill="none" stroke="#63b8ff" d="M926.49,-116.42C990.27,-111.52 1149.56,-97.97 1292.52,-74.07"/>
<polygon fill="#63b8ff" stroke="#63b8ff" points="1293.51,-77.45 1302.78,-72.33 1292.34,-70.55 1293.51,-77.45"/>
</a>
</g>
</g>
<!-- Node10 -->
<g id="Node000010" class="node">
<title>Node10</title>
<g id="a_Node000010"><a xlink:title=" ">
<polygon fill="#e0e0e0" stroke="#999999" points="1193,-19 1143,-19 1143,0 1193,0 1193,-19"/>
<text text-anchor="middle" x="1168" y="-7" font-family="Helvetica,sans-Serif" font-size="10.00">stdio.h</text>
</a>
</g>
</g>
<!-- Node5&#45;&gt;Node10 -->
<g id="edge10_Node000005_Node000010" class="edge">
<title>Node5&#45;&gt;Node10</title>
<g id="a_edge10_Node000005_Node000010"><a xlink:title=" ">
<path fill="none" stroke="#63b8ff" d="M906.98,-109.66C921.5,-95.88 951.58,-69.36 982,-55 1031.4,-31.68 1094.13,-19.95 1132.65,-14.55"/>
<polygon fill="#63b8ff" stroke="#63b8ff" points="1133.4,-17.98 1142.84,-13.19 1132.47,-11.05 1133.4,-17.98"/>
</a>
</g>
</g>
<!-- Node11 -->
<g id="Node000011" class="node">
<title>Node11</title>
<g id="a_Node000011"><a xlink:title=" ">
<polygon fill="#e0e0e0" stroke="#999999" points="1643,-74 1571,-74 1571,-55 1643,-55 1643,-74"/>
<text text-anchor="middle" x="1607" y="-62" font-family="Helvetica,sans-Serif" font-size="10.00">sys/types.h</text>
</a>
</g>
</g>
<!-- Node5&#45;&gt;Node11 -->
<g id="edge12_Node000005_Node000011" class="edge">
<title>Node5&#45;&gt;Node11</title>
<g id="a_edge12_Node000005_Node000011"><a xlink:title=" ">
<path fill="none" stroke="#63b8ff" d="M926.27,-117.82C1017.01,-115.37 1309.18,-105.5 1560.65,-74.01"/>
<polygon fill="#63b8ff" stroke="#63b8ff" points="1561.23,-77.47 1570.71,-72.74 1560.35,-70.53 1561.23,-77.47"/>
</a>
</g>
</g>
<!-- Node12 -->
<g id="Node000012" class="node">
<title>Node12</title>
<g id="a_Node000012"><a xlink:title=" ">
<polygon fill="#e0e0e0" stroke="#999999" points="1725,-74 1661,-74 1661,-55 1725,-55 1725,-74"/>
<text text-anchor="middle" x="1693" y="-62" font-family="Helvetica,sans-Serif" font-size="10.00">sys/stat.h</text>
</a>
</g>
</g>
<!-- Node5&#45;&gt;Node12 -->
<g id="edge13_Node000005_Node000012" class="edge">
<title>Node5&#45;&gt;Node12</title>
<g id="a_edge13_Node000005_Node000012"><a xlink:title=" ">
<path fill="none" stroke="#63b8ff" d="M926.21,-118.31C1024.71,-117.34 1362.52,-111.42 1650.62,-73.97"/>
<polygon fill="#63b8ff" stroke="#63b8ff" points="1651.39,-77.4 1660.85,-72.63 1650.48,-70.46 1651.39,-77.4"/>
</a>
</g>
</g>
<!-- Node13 -->
<g id="Node000013" class="node">
<title>Node13</title>
<g id="a_Node000013"><a xlink:title=" ">
<polygon fill="#e0e0e0" stroke="#999999" points="1451.5,-19 1400.5,-19 1400.5,0 1451.5,0 1451.5,-19"/>
<text text-anchor="middle" x="1426" y="-7" font-family="Helvetica,sans-Serif" font-size="10.00">math.h</text>
</a>
</g>
</g>
<!-- Node5&#45;&gt;Node13 -->
<g id="edge14_Node000005_Node000013" class="edge">
<title>Node5&#45;&gt;Node13</title>
<g id="a_edge14_Node000005_Node000013"><a xlink:title=" ">
<path fill="none" stroke="#63b8ff" d="M926.12,-118.43C1034.09,-117.86 1417.91,-113.09 1454,-74 1466.43,-60.53 1454.2,-40.64 1442.23,-26.72"/>
<polygon fill="#63b8ff" stroke="#63b8ff" points="1444.75,-24.29 1435.39,-19.31 1439.6,-29.04 1444.75,-24.29"/>
</a>
</g>
</g>
<!-- Node14 -->
<g id="Node000014" class="node">
<title>Node14</title>
<g id="a_Node000014"><a xlink:title=" ">
<polygon fill="#e0e0e0" stroke="#999999" points="285.5,-74 220.5,-74 220.5,-55 285.5,-55 285.5,-74"/>
<text text-anchor="middle" x="253" y="-62" font-family="Helvetica,sans-Serif" font-size="10.00">gdk/gdk.h</text>
</a>
</g>
</g>
<!-- Node5&#45;&gt;Node14 -->
<g id="edge16_Node000005_Node000014" class="edge">
<title>Node5&#45;&gt;Node14</title>
<g id="a_edge16_Node000005_Node000014"><a xlink:title=" ">
<path fill="none" stroke="#63b8ff" d="M869.92,-117.69C784.95,-114.96 523.03,-104.59 296.05,-73.96"/>
<polygon fill="#63b8ff" stroke="#63b8ff" points="296.33,-70.46 285.95,-72.58 295.38,-77.4 296.33,-70.46"/>
</a>
</g>
</g>
<!-- Node15 -->
<g id="Node000015" class="node">
<title>Node15</title>
<g id="a_Node000015"><a xlink:title=" ">
<polygon fill="#e0e0e0" stroke="#999999" points="412,-74 304,-74 304,-55 412,-55 412,-74"/>
<text text-anchor="middle" x="358" y="-62" font-family="Helvetica,sans-Serif" font-size="10.00">gdk/gdkkeysyms.h</text>
</a>
</g>
</g>
<!-- Node5&#45;&gt;Node15 -->
<g id="edge17_Node000005_Node000015" class="edge">
<title>Node5&#45;&gt;Node15</title>
<g id="a_edge17_Node000005_Node000015"><a xlink:title=" ">
<path fill="none" stroke="#63b8ff" d="M869.79,-116.25C797.46,-110.39 599.23,-93.82 422.12,-73.97"/>
<polygon fill="#63b8ff" stroke="#63b8ff" points="422.43,-70.48 412.1,-72.84 421.65,-77.43 422.43,-70.48"/>
</a>
</g>
</g>
<!-- Node16 -->
<g id="Node000016" class="node">
<title>Node16</title>
<g id="a_Node000016"><a xlink:title=" ">
<polygon fill="#e0e0e0" stroke="#999999" points="563.5,-74 430.5,-74 430.5,-55 563.5,-55 563.5,-74"/>
<text text-anchor="middle" x="497" y="-62" font-family="Helvetica,sans-Serif" font-size="10.00">gdk&#45;pixbuf/gdk&#45;pixbuf.h</text>
</a>
</g>
</g>
<!-- Node5&#45;&gt;Node16 -->
<g id="edge18_Node000005_Node000016" class="edge">
<title>Node5&#45;&gt;Node16</title>
<g id="a_edge18_Node000005_Node000016"><a xlink:title=" ">
<path fill="none" stroke="#63b8ff" d="M869.8,-114.77C808.52,-106.67 661.48,-87.24 571.46,-75.34"/>
<polygon fill="#63b8ff" stroke="#63b8ff" points="571.69,-71.84 561.31,-74 570.77,-78.78 571.69,-71.84"/>
</a>
</g>
</g>
<!-- Node17 -->
<g id="Node000017" class="node">
<title>Node17</title>
<g id="a_Node000017"><a xlink:title=" ">
<polygon fill="#e0e0e0" stroke="#999999" points="682.5,-74 581.5,-74 581.5,-55 682.5,-55 682.5,-74"/>
<text text-anchor="middle" x="632" y="-62" font-family="Helvetica,sans-Serif" font-size="10.00">pango/pangoft2.h</text>
</a>
</g>
</g>
<!-- Node5&#45;&gt;Node17 -->
<g id="edge19_Node000005_Node000017" class="edge">
<title>Node5&#45;&gt;Node17</title>
<g id="a_edge19_Node000005_Node000017"><a xlink:title=" ">
<path fill="none" stroke="#63b8ff" d="M869.53,-112.83C825.5,-104.05 740.17,-87.05 684.67,-75.99"/>
<polygon fill="#63b8ff" stroke="#63b8ff" points="685.16,-72.52 674.67,-74 683.8,-79.39 685.16,-72.52"/>
</a>
</g>
</g>
<!-- Node18 -->
<g id="Node000018" class="node">
<title>Node18</title>
<g id="a_Node000018"><a xlink:title=" ">
<polygon fill="#e0e0e0" stroke="#999999" points="769,-74 701,-74 701,-55 769,-55 769,-74"/>
<text text-anchor="middle" x="735" y="-62" font-family="Helvetica,sans-Serif" font-size="10.00">epoxy/gl.h</text>
</a>
</g>
</g>
<!-- Node5&#45;&gt;Node18 -->
<g id="edge20_Node000005_Node000018" class="edge">
<title>Node5&#45;&gt;Node18</title>
<g id="a_edge20_Node000005_Node000018"><a xlink:title=" ">
<path fill="none" stroke="#63b8ff" d="M871.81,-109.98C844.56,-101.13 801.7,-87.19 771.22,-77.28"/>
<polygon fill="#63b8ff" stroke="#63b8ff" points="771.99,-73.85 761.39,-74.08 769.82,-80.5 771.99,-73.85"/>
</a>
</g>
</g>
<!-- Node19 -->
<g id="Node000019" class="node">
<title>Node19</title>
<g id="a_Node000019"><a xlink:title=" ">
<polygon fill="#e0e0e0" stroke="#999999" points="843,-74 787,-74 787,-55 843,-55 843,-74"/>
<text text-anchor="middle" x="815" y="-62" font-family="Helvetica,sans-Serif" font-size="10.00">GL/glu.h</text>
</a>
</g>
</g>
<!-- Node5&#45;&gt;Node19 -->
<g id="edge21_Node000005_Node000019" class="edge">
<title>Node5&#45;&gt;Node19</title>
<g id="a_edge21_Node000005_Node000019"><a xlink:title=" ">
<path fill="none" stroke="#63b8ff" d="M884.66,-109.98C871.91,-101.84 852.45,-89.41 837.33,-79.76"/>
<polygon fill="#63b8ff" stroke="#63b8ff" points="838.89,-76.6 828.58,-74.17 835.12,-82.5 838.89,-76.6"/>
</a>
</g>
</g>
<!-- Node20 -->
<g id="Node000020" class="node">
<title>Node20</title>
<g id="a_Node000020"><a xlink:title=" ">
<polygon fill="#e0e0e0" stroke="#999999" points="935,-74 861,-74 861,-55 935,-55 935,-74"/>
<text text-anchor="middle" x="898" y="-62" font-family="Helvetica,sans-Serif" font-size="10.00">epoxy/glx.h</text>
</a>
</g>
</g>
<!-- Node5&#45;&gt;Node20 -->
<g id="edge22_Node000005_Node000020" class="edge">
<title>Node5&#45;&gt;Node20</title>
<g id="a_edge22_Node000005_Node000020"><a xlink:title=" ">
<path fill="none" stroke="#63b8ff" d="M898,-109.75C898,-102.8 898,-92.85 898,-84.13"/>
<polygon fill="#63b8ff" stroke="#63b8ff" points="901.5,-84.09 898,-74.09 894.5,-84.09 901.5,-84.09"/>
</a>
</g>
</g>
<!-- Node21 -->
<g id="Node000021" class="node">
<title>Node21</title>
<g id="a_Node000021"><a xlink:href="../../dc/db0/math__3d_8h.html" target="_top" xlink:title="Functions for OpenGL math.">
<polygon fill="white" stroke="#666666" points="1445,-74 1377,-74 1377,-55 1445,-55 1445,-74"/>
<text text-anchor="middle" x="1411" y="-62" font-family="Helvetica,sans-Serif" font-size="10.00">math_3d.h</text>
</a>
</g>
</g>
<!-- Node5&#45;&gt;Node21 -->
<g id="edge23_Node000005_Node000021" class="edge">
<title>Node5&#45;&gt;Node21</title>
<g id="a_edge23_Node000005_Node000021"><a xlink:title=" ">
<path fill="none" stroke="#63b8ff" d="M926.2,-116.83C997.99,-112.35 1193.69,-98.83 1366.73,-74.04"/>
<polygon fill="#63b8ff" stroke="#63b8ff" points="1367.39,-77.48 1376.79,-72.59 1366.39,-70.56 1367.39,-77.48"/>
</a>
</g>
</g>
<!-- Node22 -->
<g id="Node000022" class="node">
<title>Node22</title>
<g id="a_Node000022"><a xlink:href="../../da/d7e/glwin_8h.html" target="_top" xlink:title="Variable declarations related the OpenGL window &#160;&#160;Data structure declarations related the OpenGL wind...">
<polygon fill="white" stroke="#666666" points="1553,-74 1501,-74 1501,-55 1553,-55 1553,-74"/>
<text text-anchor="middle" x="1527" y="-62" font-family="Helvetica,sans-Serif" font-size="10.00">glwin.h</text>
</a>
</g>
</g>
<!-- Node5&#45;&gt;Node22 -->
<g id="edge26_Node000005_Node000022" class="edge">
<title>Node5&#45;&gt;Node22</title>
<g id="a_edge26_Node000005_Node000022"><a xlink:title=" ">
<path fill="none" stroke="#63b8ff" d="M926.04,-117.71C1010.95,-115.05 1272.56,-104.74 1487,-74 1488.26,-73.82 1489.55,-73.62 1490.85,-73.41"/>
<polygon fill="#63b8ff" stroke="#63b8ff" points="1491.63,-76.82 1500.84,-71.58 1490.37,-69.94 1491.63,-76.82"/>
</a>
</g>
</g>
<!-- Node24 -->
<g id="Node000024" class="node">
<title>Node24</title>
<g id="a_Node000024"><a xlink:title=" ">
<polygon fill="#e0e0e0" stroke="#999999" points="1057,-74 991,-74 991,-55 1057,-55 1057,-74"/>
<text text-anchor="middle" x="1024" y="-62" font-family="Helvetica,sans-Serif" font-size="10.00">gtk/gtkx.h</text>
</a>
</g>
</g>
<!-- Node5&#45;&gt;Node24 -->
<g id="edge28_Node000005_Node000024" class="edge">
<title>Node5&#45;&gt;Node24</title>
<g id="a_edge28_Node000005_Node000024"><a xlink:title=" ">
<path fill="none" stroke="#63b8ff" d="M918.24,-109.98C938.7,-101.38 970.53,-87.99 993.93,-78.15"/>
<polygon fill="#63b8ff" stroke="#63b8ff" points="995.53,-81.27 1003.39,-74.17 992.81,-74.82 995.53,-81.27"/>
</a>
</g>
</g>
<!-- Node21&#45;&gt;Node10 -->
<g id="edge25_Node000021_Node000010" class="edge">
<title>Node21&#45;&gt;Node10</title>
<g id="a_edge25_Node000021_Node000010"><a xlink:title=" ">
<path fill="none" stroke="#63b8ff" d="M1376.96,-56.07C1331.05,-46.06 1249.72,-28.32 1203.22,-18.18"/>
<polygon fill="#63b8ff" stroke="#63b8ff" points="1203.82,-14.73 1193.3,-16.02 1202.33,-21.57 1203.82,-14.73"/>
</a>
</g>
</g>
<!-- Node21&#45;&gt;Node13 -->
<g id="edge24_Node000021_Node000013" class="edge">
<title>Node21&#45;&gt;Node13</title>
<g id="a_edge24_Node000021_Node000013"><a xlink:title=" ">
<path fill="none" stroke="#63b8ff" d="M1413.48,-54.75C1415.46,-47.72 1418.32,-37.62 1420.81,-28.84"/>
<polygon fill="#63b8ff" stroke="#63b8ff" points="1424.21,-29.66 1423.57,-19.09 1417.48,-27.76 1424.21,-29.66"/>
</a>
</g>
</g>
<!-- Node23 -->
<g id="Node000023" class="node">
<title>Node23</title>
<g id="a_Node000023"><a xlink:href="../../d5/d9e/ogl__shading_8h.html" target="_top" xlink:title="Variable declarations related to GLSL programs &#160;&#160;Data structure declarations related to GLSL programs...">
<polygon fill="white" stroke="#666666" points="1569,-19 1485,-19 1485,0 1569,0 1569,-19"/>
<text text-anchor="middle" x="1527" y="-7" font-family="Helvetica,sans-Serif" font-size="10.00">ogl_shading.h</text>
</a>
</g>
</g>
<!-- Node22&#45;&gt;Node23 -->
<g id="edge27_Node000022_Node000023" class="edge">
<title>Node22&#45;&gt;Node23</title>
<g id="a_edge27_Node000022_Node000023"><a xlink:title=" ">
<path fill="none" stroke="#63b8ff" d="M1527,-54.75C1527,-47.8 1527,-37.85 1527,-29.13"/>
<polygon fill="#63b8ff" stroke="#63b8ff" points="1530.5,-29.09 1527,-19.09 1523.5,-29.09 1530.5,-29.09"/>
</a>
</g>
</g>
<!-- Node30&#45;&gt;Node5 -->
<g id="edge35_Node000030_Node000005" class="edge">
<title>Node30&#45;&gt;Node5</title>
<g id="a_edge35_Node000030_Node000005"><a xlink:title=" ">
<path fill="none" stroke="#63b8ff" d="M257.82,-167.41C262.52,-166.49 267.39,-165.64 272,-165 493.27,-134.34 761.65,-124.25 859.75,-121.44"/>
<polygon fill="#63b8ff" stroke="#63b8ff" points="859.88,-124.94 869.78,-121.17 859.69,-117.94 859.88,-124.94"/>
</a>
</g>
</g>
</g>
</svg>
