<?xml version="1.0" encoding="UTF-8" standalone="no"?>
<!DOCTYPE svg PUBLIC "-//W3C//DTD SVG 1.1//EN"
 "http://www.w3.org/Graphics/SVG/1.1/DTD/svg11.dtd">
<!-- Generated by graphviz version 7.1.0 (0)
 -->
<!-- Title: project/readers/read_cif.c Pages: 1 -->
<!--zoomable 258 -->

<svg id="main" version="1.1" xmlns="http://www.w3.org/2000/svg" xmlns:xlink="http://www.w3.org/1999/xlink" xml:space="preserve" onload="init(evt)">
<style type="text/css"><![CDATA[
.node, .edge {opacity: 0.7;}
.node.selected, .edge.selected {opacity: 1;}
.edge:hover path { stroke: red; }
.edge:hover polygon { stroke: red; fill: red; }
]]></style>

<defs>
  <circle id="rim" cx="0" cy="0" r="7"/>
  <circle id="rim2" cx="0" cy="0" r="3.5"/>
  <g id="zoomPlus">
    <use xlink:href="#rim" fill="#404040"><set attributeName="fill" to="#808080" begin="zoomplus.mouseover" end="zoomplus.mouseout"/></use>
    <path d="M-4,0h8M0,-4v8" fill="none" stroke="white" stroke-width="1.5" pointer-events="none"/>
  </g>
  <g id="zoomMin">
    <use xlink:href="#rim" fill="#404040"><set attributeName="fill" to="#808080" begin="zoomminus.mouseover" end="zoomminus.mouseout"/></use>
    <path d="M-4,0h8" fill="none" stroke="white" stroke-width="1.5" pointer-events="none"/>
  </g>
  <g id="arrowUp" transform="translate(30 24)">
    <use xlink:href="#rim"/>
    <path pointer-events="none" fill="none" stroke="white" stroke-width="1.5" d="M0,-3.0v7 M-2.5,-0.5L0,-3.0L2.5,-0.5"/>
  </g>
  <g id="arrowRight" transform="rotate(90) translate(36 -43)">
    <use xlink:href="#rim"/>
    <path pointer-events="none" fill="none" stroke="white" stroke-width="1.5" d="M0,-3.0v7 M-2.5,-0.5L0,-3.0L2.5,-0.5"/>
  </g>
  <g id="arrowDown" transform="rotate(180) translate(-30 -48)">
    <use xlink:href="#rim"/>
    <path pointer-events="none" fill="none" stroke="white" stroke-width="1.5" d="M0,-3.0v7 M-2.5,-0.5L0,-3.0L2.5,-0.5"/>
  </g>
  <g id="arrowLeft" transform="rotate(270) translate(-36 17)">
    <use xlink:href="#rim"/>
    <path pointer-events="none" fill="none" stroke="white" stroke-width="1.5" d="M0,-3.0v7 M-2.5,-0.5L0,-3.0L2.5,-0.5"/>
  </g>
  <g id="resetDef">
    <use xlink:href="#rim2" fill="#404040"><set attributeName="fill" to="#808080" begin="reset.mouseover" end="reset.mouseout"/></use>
  </g>
</defs>
<script type="application/ecmascript">
var viewWidth = 2052;
var viewHeight = 258;
var sectionId = 'dynsection-0';
</script>
<script type="application/ecmascript" xlink:href="../../svg.min.js"/>
<svg id="graph" class="graph">
<g id="viewport">
<title>project/readers/read_cif.c</title>
<!-- Node1 -->
<g id="Node000001" class="node">
<title>Node1</title>
<g id="a_Node000001"><a xlink:title="Functions to read CIF files.">
<polygon fill="#999999" stroke="#666666" points="888,-250 785,-250 785,-220 888,-220 888,-250"/>
<text text-anchor="start" x="793" y="-238" font-family="Helvetica,sans-Serif" font-size="10.00">project/readers/read</text>
<text text-anchor="middle" x="836.5" y="-227" font-family="Helvetica,sans-Serif" font-size="10.00">_cif.c</text>
</a>
</g>
</g>
<!-- Node2 -->
<g id="Node000002" class="node">
<title>Node2</title>
<g id="a_Node000002"><a xlink:href="../../d2/d49/global_8h.html" target="_top" xlink:title="Global variable declarations &#160;&#160;Global convenience function declarations &#160;&#160;Global data structure defin...">
<polygon fill="white" stroke="#666666" points="988.5,-129 938.5,-129 938.5,-110 988.5,-110 988.5,-129"/>
<text text-anchor="middle" x="963.5" y="-117" font-family="Helvetica,sans-Serif" font-size="10.00">global.h</text>
</a>
</g>
</g>
<!-- Node1&#45;&gt;Node2 -->
<g id="edge1_Node000001_Node000002" class="edge">
<title>Node1&#45;&gt;Node2</title>
<g id="a_edge1_Node000001_Node000002"><a xlink:title=" ">
<path fill="none" stroke="#63b8ff" d="M836.87,-219.58C838,-204.29 842,-180.26 855.5,-165 865.48,-153.72 900.24,-140.55 927.66,-131.48"/>
<polygon fill="#63b8ff" stroke="#63b8ff" points="928.61,-134.85 937.05,-128.44 926.46,-128.19 928.61,-134.85"/>
</a>
</g>
</g>
<!-- Node25 -->
<g id="Node000025" class="node">
<title>Node25</title>
<g id="a_Node000025"><a xlink:href="../../da/dc2/bind_8h.html" target="_top" xlink:title="Binding to the Fortran90 subroutines.">
<polygon fill="white" stroke="#666666" points="360,-129 317,-129 317,-110 360,-110 360,-129"/>
<text text-anchor="middle" x="338.5" y="-117" font-family="Helvetica,sans-Serif" font-size="10.00">bind.h</text>
</a>
</g>
</g>
<!-- Node1&#45;&gt;Node25 -->
<g id="edge26_Node000001_Node000025" class="edge">
<title>Node1&#45;&gt;Node25</title>
<g id="a_edge26_Node000001_Node000025"><a xlink:title=" ">
<path fill="none" stroke="#63b8ff" d="M784.69,-228.81C721.27,-221.77 610.88,-207.35 518.5,-184 465.45,-170.59 405.94,-148.06 370.39,-133.75"/>
<polygon fill="#63b8ff" stroke="#63b8ff" points="371.7,-130.51 361.12,-129.99 369.07,-137 371.7,-130.51"/>
</a>
</g>
</g>
<!-- Node26 -->
<g id="Node000026" class="node">
<title>Node26</title>
<g id="a_Node000026"><a xlink:href="../../d4/da9/interface_8h.html" target="_top" xlink:title="Messaging function declarations.">
<polygon fill="white" stroke="#666666" points="440.5,-129 378.5,-129 378.5,-110 440.5,-110 440.5,-129"/>
<text text-anchor="middle" x="409.5" y="-117" font-family="Helvetica,sans-Serif" font-size="10.00">interface.h</text>
</a>
</g>
</g>
<!-- Node1&#45;&gt;Node26 -->
<g id="edge27_Node000001_Node000026" class="edge">
<title>Node1&#45;&gt;Node26</title>
<g id="a_edge27_Node000001_Node000026"><a xlink:title=" ">
<path fill="none" stroke="#63b8ff" d="M784.5,-226.56C731.97,-218.42 648.75,-203.85 578.5,-184 529.18,-170.06 473.92,-148.02 440.42,-133.92"/>
<polygon fill="#63b8ff" stroke="#63b8ff" points="441.9,-130.74 431.33,-130.05 439.17,-137.19 441.9,-130.74"/>
</a>
</g>
</g>
<!-- Node27 -->
<g id="Node000027" class="node">
<title>Node27</title>
<g id="a_Node000027"><a xlink:href="../../dc/d8d/project_8h.html" target="_top" xlink:title="Function declarations for reading atomes project file &#160;&#160;Function declarations for saving atomes proje...">
<polygon fill="white" stroke="#666666" points="512.5,-129 458.5,-129 458.5,-110 512.5,-110 512.5,-129"/>
<text text-anchor="middle" x="485.5" y="-117" font-family="Helvetica,sans-Serif" font-size="10.00">project.h</text>
</a>
</g>
</g>
<!-- Node1&#45;&gt;Node27 -->
<g id="edge28_Node000001_Node000027" class="edge">
<title>Node1&#45;&gt;Node27</title>
<g id="a_edge28_Node000001_Node000027"><a xlink:title=" ">
<path fill="none" stroke="#63b8ff" d="M784.84,-223.96C742.96,-215.21 682.71,-201.24 631.5,-184 589.22,-169.77 542.23,-148.24 513.26,-134.28"/>
<polygon fill="#63b8ff" stroke="#63b8ff" points="514.98,-131.22 504.45,-129.99 511.91,-137.51 514.98,-131.22"/>
</a>
</g>
</g>
<!-- Node28 -->
<g id="Node000028" class="node">
<title>Node28</title>
<g id="a_Node000028"><a xlink:href="../../d5/d9c/atom__edit_8h.html" target="_top" xlink:title="Function declarations for the mode edition window.">
<polygon fill="white" stroke="#666666" points="708.5,-184 640.5,-184 640.5,-165 708.5,-165 708.5,-184"/>
<text text-anchor="middle" x="674.5" y="-172" font-family="Helvetica,sans-Serif" font-size="10.00">atom_edit.h</text>
</a>
</g>
</g>
<!-- Node1&#45;&gt;Node28 -->
<g id="edge29_Node000001_Node000028" class="edge">
<title>Node1&#45;&gt;Node28</title>
<g id="a_edge29_Node000001_Node000028"><a xlink:title=" ">
<path fill="none" stroke="#63b8ff" d="M796.46,-219.54C769.85,-209.93 735.24,-197.43 709.69,-188.21"/>
<polygon fill="#63b8ff" stroke="#63b8ff" points="711.01,-184.96 700.42,-184.86 708.64,-191.55 711.01,-184.96"/>
</a>
</g>
</g>
<!-- Node34 -->
<g id="Node000034" class="node">
<title>Node34</title>
<g id="a_Node000034"><a xlink:href="../../de/d8a/cbuild__edit_8h.html" target="_top" xlink:title="Function declarations for the crystal builder.">
<polygon fill="white" stroke="#666666" points="936,-184 865,-184 865,-165 936,-165 936,-184"/>
<text text-anchor="middle" x="900.5" y="-172" font-family="Helvetica,sans-Serif" font-size="10.00">cbuild_edit.h</text>
</a>
</g>
</g>
<!-- Node1&#45;&gt;Node34 -->
<g id="edge39_Node000001_Node000034" class="edge">
<title>Node1&#45;&gt;Node34</title>
<g id="a_edge39_Node000001_Node000034"><a xlink:title=" ">
<path fill="none" stroke="#63b8ff" d="M852.32,-219.54C861.52,-211.13 873.14,-200.51 882.67,-191.8"/>
<polygon fill="#63b8ff" stroke="#63b8ff" points="884.87,-194.53 889.89,-185.2 880.15,-189.36 884.87,-194.53"/>
</a>
</g>
</g>
<!-- Node36 -->
<g id="Node000036" class="node">
<title>Node36</title>
<g id="a_Node000036"><a xlink:href="../../d1/dfb/readers_8h.html" target="_top" xlink:title="Functions declaration to read atomic coordinates.">
<polygon fill="white" stroke="#666666" points="1011,-184 954,-184 954,-165 1011,-165 1011,-184"/>
<text text-anchor="middle" x="982.5" y="-172" font-family="Helvetica,sans-Serif" font-size="10.00">readers.h</text>
</a>
</g>
</g>
<!-- Node1&#45;&gt;Node36 -->
<g id="edge42_Node000001_Node000036" class="edge">
<title>Node1&#45;&gt;Node36</title>
<g id="a_edge42_Node000001_Node000036"><a xlink:title=" ">
<path fill="none" stroke="#63b8ff" d="M872.59,-219.54C896.25,-210.06 926.92,-197.77 949.85,-188.58"/>
<polygon fill="#63b8ff" stroke="#63b8ff" points="951.04,-191.88 959.02,-184.91 948.43,-185.38 951.04,-191.88"/>
</a>
</g>
</g>
<!-- Node41 -->
<g id="Node000041" class="node">
<title>Node41</title>
<g id="a_Node000041"><a xlink:title=" ">
<polygon fill="#e0e0e0" stroke="#999999" points="1078,-184 1029,-184 1029,-165 1078,-165 1078,-184"/>
<text text-anchor="middle" x="1053.5" y="-172" font-family="Helvetica,sans-Serif" font-size="10.00">ctype.h</text>
</a>
</g>
</g>
<!-- Node1&#45;&gt;Node41 -->
<g id="edge48_Node000001_Node000041" class="edge">
<title>Node1&#45;&gt;Node41</title>
<g id="a_edge48_Node000001_Node000041"><a xlink:title=" ">
<path fill="none" stroke="#63b8ff" d="M888.48,-219.99C928.53,-209.19 982.84,-194.55 1018.02,-185.06"/>
<polygon fill="#63b8ff" stroke="#63b8ff" points="1018.53,-188.55 1027.27,-182.57 1016.71,-181.79 1018.53,-188.55"/>
</a>
</g>
</g>
<!-- Node42 -->
<g id="Node000042" class="node">
<title>Node42</title>
<g id="a_Node000042"><a xlink:title=" ">
<polygon fill="#e0e0e0" stroke="#999999" points="1140.5,-184 1096.5,-184 1096.5,-165 1140.5,-165 1140.5,-184"/>
<text text-anchor="middle" x="1118.5" y="-172" font-family="Helvetica,sans-Serif" font-size="10.00">omp.h</text>
</a>
</g>
</g>
<!-- Node1&#45;&gt;Node42 -->
<g id="edge49_Node000001_Node000042" class="edge">
<title>Node1&#45;&gt;Node42</title>
<g id="a_edge49_Node000001_Node000042"><a xlink:title=" ">
<path fill="none" stroke="#63b8ff" d="M888.41,-224.59C936.74,-215.62 1011.02,-201.27 1085.22,-184.17"/>
<polygon fill="#63b8ff" stroke="#63b8ff" points="1085.74,-187.64 1094.69,-181.97 1084.16,-180.82 1085.74,-187.64"/>
</a>
</g>
</g>
<!-- Node3 -->
<g id="Node000003" class="node">
<title>Node3</title>
<g id="a_Node000003"><a xlink:title=" ">
<polygon fill="#e0e0e0" stroke="#999999" points="836.5,-74 796.5,-74 796.5,-55 836.5,-55 836.5,-74"/>
<text text-anchor="middle" x="816.5" y="-62" font-family="Helvetica,sans-Serif" font-size="10.00">glib.h</text>
</a>
</g>
</g>
<!-- Node2&#45;&gt;Node3 -->
<g id="edge2_Node000002_Node000003" class="edge">
<title>Node2&#45;&gt;Node3</title>
<g id="a_edge2_Node000002_Node000003"><a xlink:title=" ">
<path fill="none" stroke="#63b8ff" d="M938.56,-109.51C913.48,-100.46 874.73,-86.49 847.64,-76.73"/>
<polygon fill="#63b8ff" stroke="#63b8ff" points="848.83,-73.44 838.24,-73.34 846.46,-80.02 848.83,-73.44"/>
</a>
</g>
</g>
<!-- Node4 -->
<g id="Node000004" class="node">
<title>Node4</title>
<g id="a_Node000004"><a xlink:title=" ">
<polygon fill="#e0e0e0" stroke="#999999" points="920.5,-74 854.5,-74 854.5,-55 920.5,-55 920.5,-74"/>
<text text-anchor="middle" x="887.5" y="-62" font-family="Helvetica,sans-Serif" font-size="10.00">glib/gi18n.h</text>
</a>
</g>
</g>
<!-- Node2&#45;&gt;Node4 -->
<g id="edge3_Node000002_Node000004" class="edge">
<title>Node2&#45;&gt;Node4</title>
<g id="a_edge3_Node000002_Node000004"><a xlink:title=" ">
<path fill="none" stroke="#63b8ff" d="M950.61,-109.51C939.4,-101.7 922.93,-90.21 909.62,-80.93"/>
<polygon fill="#63b8ff" stroke="#63b8ff" points="911.65,-78.07 901.44,-75.22 907.64,-83.81 911.65,-78.07"/>
</a>
</g>
</g>
<!-- Node5 -->
<g id="Node000005" class="node">
<title>Node5</title>
<g id="a_Node000005"><a xlink:title=" ">
<polygon fill="#e0e0e0" stroke="#999999" points="988.5,-74 938.5,-74 938.5,-55 988.5,-55 988.5,-74"/>
<text text-anchor="middle" x="963.5" y="-62" font-family="Helvetica,sans-Serif" font-size="10.00">locale.h</text>
</a>
</g>
</g>
<!-- Node2&#45;&gt;Node5 -->
<g id="edge4_Node000002_Node000005" class="edge">
<title>Node2&#45;&gt;Node5</title>
<g id="a_edge4_Node000002_Node000005"><a xlink:title=" ">
<path fill="none" stroke="#63b8ff" d="M963.5,-109.75C963.5,-103.27 963.5,-94.16 963.5,-85.9"/>
<polygon fill="#63b8ff" stroke="#63b8ff" points="967,-85.96 963.5,-75.96 960,-85.96 967,-85.96"/>
</a>
</g>
</g>
<!-- Node6 -->
<g id="Node000006" class="node">
<title>Node6</title>
<g id="a_Node000006"><a xlink:title=" ">
<polygon fill="#e0e0e0" stroke="#999999" points="1058,-74 1007,-74 1007,-55 1058,-55 1058,-74"/>
<text text-anchor="middle" x="1032.5" y="-62" font-family="Helvetica,sans-Serif" font-size="10.00">unistd.h</text>
</a>
</g>
</g>
<!-- Node2&#45;&gt;Node6 -->
<g id="edge5_Node000002_Node000006" class="edge">
<title>Node2&#45;&gt;Node6</title>
<g id="a_edge5_Node000002_Node000006"><a xlink:title=" ">
<path fill="none" stroke="#63b8ff" d="M975.2,-109.51C985.28,-101.77 1000.04,-90.43 1012.06,-81.2"/>
<polygon fill="#63b8ff" stroke="#63b8ff" points="1013.97,-84.15 1019.77,-75.28 1009.71,-78.6 1013.97,-84.15"/>
</a>
</g>
</g>
<!-- Node7 -->
<g id="Node000007" class="node">
<title>Node7</title>
<g id="a_Node000007"><a xlink:title=" ">
<polygon fill="#e0e0e0" stroke="#999999" points="1125,-74 1076,-74 1076,-55 1125,-55 1125,-74"/>
<text text-anchor="middle" x="1100.5" y="-62" font-family="Helvetica,sans-Serif" font-size="10.00">string.h</text>
</a>
</g>
</g>
<!-- Node2&#45;&gt;Node7 -->
<g id="edge6_Node000002_Node000007" class="edge">
<title>Node2&#45;&gt;Node7</title>
<g id="a_edge6_Node000002_Node000007"><a xlink:title=" ">
<path fill="none" stroke="#63b8ff" d="M986.74,-109.51C1008.82,-100.97 1042.25,-88.03 1067.17,-78.4"/>
<polygon fill="#63b8ff" stroke="#63b8ff" points="1068.13,-81.78 1076.19,-74.9 1065.6,-75.25 1068.13,-81.78"/>
</a>
</g>
</g>
<!-- Node8 -->
<g id="Node000008" class="node">
<title>Node8</title>
<g id="a_Node000008"><a xlink:title=" ">
<polygon fill="#e0e0e0" stroke="#999999" points="663.5,-19 617.5,-19 617.5,0 663.5,0 663.5,-19"/>
<text text-anchor="middle" x="640.5" y="-7" font-family="Helvetica,sans-Serif" font-size="10.00">stdio.h</text>
</a>
</g>
</g>
<!-- Node2&#45;&gt;Node8 -->
<g id="edge7_Node000002_Node000008" class="edge">
<title>Node2&#45;&gt;Node8</title>
<g id="a_edge7_Node000002_Node000008"><a xlink:title=" ">
<path fill="none" stroke="#63b8ff" d="M938.33,-111.83C935.36,-111.16 932.37,-110.53 929.5,-110 863.47,-97.83 674.06,-124.23 629.5,-74 618.72,-61.85 623.71,-43.06 630.04,-29.06"/>
<polygon fill="#63b8ff" stroke="#63b8ff" points="633.02,-30.93 634.45,-20.44 626.78,-27.75 633.02,-30.93"/>
</a>
</g>
</g>
<!-- Node9 -->
<g id="Node000009" class="node">
<title>Node9</title>
<g id="a_Node000009"><a xlink:title=" ">
<polygon fill="#e0e0e0" stroke="#999999" points="1229.5,-74 1181.5,-74 1181.5,-55 1229.5,-55 1229.5,-74"/>
<text text-anchor="middle" x="1205.5" y="-62" font-family="Helvetica,sans-Serif" font-size="10.00">stdlib.h</text>
</a>
</g>
</g>
<!-- Node2&#45;&gt;Node9 -->
<g id="edge8_Node000002_Node000009" class="edge">
<title>Node2&#45;&gt;Node9</title>
<g id="a_edge8_Node000002_Node000009"><a xlink:title=" ">
<path fill="none" stroke="#63b8ff" d="M988.95,-112.99C1027.57,-104.63 1103.26,-88.19 1167.5,-74 1168.48,-73.78 1169.48,-73.56 1170.48,-73.34"/>
<polygon fill="#63b8ff" stroke="#63b8ff" points="1170.9,-76.83 1179.9,-71.24 1169.38,-70 1170.9,-76.83"/>
</a>
</g>
</g>
<!-- Node10 -->
<g id="Node000010" class="node">
<title>Node10</title>
<g id="a_Node000010"><a xlink:title=" ">
<polygon fill="#e0e0e0" stroke="#999999" points="1315.5,-74 1247.5,-74 1247.5,-55 1315.5,-55 1315.5,-74"/>
<text text-anchor="middle" x="1281.5" y="-62" font-family="Helvetica,sans-Serif" font-size="10.00">sys/types.h</text>
</a>
</g>
</g>
<!-- Node2&#45;&gt;Node10 -->
<g id="edge9_Node000002_Node000010" class="edge">
<title>Node2&#45;&gt;Node10</title>
<g id="a_edge9_Node000002_Node000010"><a xlink:title=" ">
<path fill="none" stroke="#63b8ff" d="M988.95,-114.68C1035.74,-107.6 1138.84,-91.7 1236.04,-74.39"/>
<polygon fill="#63b8ff" stroke="#63b8ff" points="1236.54,-77.86 1245.76,-72.65 1235.3,-70.97 1236.54,-77.86"/>
</a>
</g>
</g>
<!-- Node11 -->
<g id="Node000011" class="node">
<title>Node11</title>
<g id="a_Node000011"><a xlink:title=" ">
<polygon fill="#e0e0e0" stroke="#999999" points="1393.5,-74 1333.5,-74 1333.5,-55 1393.5,-55 1393.5,-74"/>
<text text-anchor="middle" x="1363.5" y="-62" font-family="Helvetica,sans-Serif" font-size="10.00">sys/stat.h</text>
</a>
</g>
</g>
<!-- Node2&#45;&gt;Node11 -->
<g id="edge10_Node000002_Node000011" class="edge">
<title>Node2&#45;&gt;Node11</title>
<g id="a_edge10_Node000002_Node000011"><a xlink:title=" ">
<path fill="none" stroke="#63b8ff" d="M988.56,-116.21C1045.83,-110.81 1190.84,-96.18 1322.27,-74.23"/>
<polygon fill="#63b8ff" stroke="#63b8ff" points="1322.55,-77.74 1331.83,-72.62 1321.38,-70.83 1322.55,-77.74"/>
</a>
</g>
</g>
<!-- Node12 -->
<g id="Node000012" class="node">
<title>Node12</title>
<g id="a_Node000012"><a xlink:title=" ">
<polygon fill="#e0e0e0" stroke="#999999" points="953,-19 906,-19 906,0 953,0 953,-19"/>
<text text-anchor="middle" x="929.5" y="-7" font-family="Helvetica,sans-Serif" font-size="10.00">math.h</text>
</a>
</g>
</g>
<!-- Node2&#45;&gt;Node12 -->
<g id="edge11_Node000002_Node000012" class="edge">
<title>Node2&#45;&gt;Node12</title>
<g id="a_edge11_Node000002_Node000012"><a xlink:title=" ">
<path fill="none" stroke="#63b8ff" d="M988.75,-117.81C1045.13,-115.39 1173.32,-104.44 1133.5,-55 1112.68,-29.15 1017.24,-17.51 964.6,-12.98"/>
<polygon fill="#63b8ff" stroke="#63b8ff" points="965.2,-9.52 954.95,-12.19 964.63,-16.49 965.2,-9.52"/>
</a>
</g>
</g>
<!-- Node13 -->
<g id="Node000013" class="node">
<title>Node13</title>
<g id="a_Node000013"><a xlink:title=" ">
<polygon fill="#e0e0e0" stroke="#999999" points="1532,-74 1477,-74 1477,-55 1532,-55 1532,-74"/>
<text text-anchor="middle" x="1504.5" y="-62" font-family="Helvetica,sans-Serif" font-size="10.00">gtk/gtk.h</text>
</a>
</g>
</g>
<!-- Node2&#45;&gt;Node13 -->
<g id="edge12_Node000002_Node000013" class="edge">
<title>Node2&#45;&gt;Node13</title>
<g id="a_edge12_Node000002_Node000013"><a xlink:title=" ">
<path fill="none" stroke="#63b8ff" d="M988.88,-117.56C1061.65,-114.58 1277.38,-103.85 1465.47,-74.28"/>
<polygon fill="#63b8ff" stroke="#63b8ff" points="1465.85,-77.76 1475.18,-72.73 1464.75,-70.85 1465.85,-77.76"/>
</a>
</g>
</g>
<!-- Node14 -->
<g id="Node000014" class="node">
<title>Node14</title>
<g id="a_Node000014"><a xlink:title=" ">
<polygon fill="#e0e0e0" stroke="#999999" points="1609,-74 1550,-74 1550,-55 1609,-55 1609,-74"/>
<text text-anchor="middle" x="1579.5" y="-62" font-family="Helvetica,sans-Serif" font-size="10.00">gdk/gdk.h</text>
</a>
</g>
</g>
<!-- Node2&#45;&gt;Node14 -->
<g id="edge13_Node000002_Node000014" class="edge">
<title>Node2&#45;&gt;Node14</title>
<g id="a_edge13_Node000002_Node000014"><a xlink:title=" ">
<path fill="none" stroke="#63b8ff" d="M989,-117.84C1068.75,-115.5 1320.67,-106.04 1538.38,-74.27"/>
<polygon fill="#63b8ff" stroke="#63b8ff" points="1538.83,-77.74 1548.21,-72.81 1537.8,-70.81 1538.83,-77.74"/>
</a>
</g>
</g>
<!-- Node15 -->
<g id="Node000015" class="node">
<title>Node15</title>
<g id="a_Node000015"><a xlink:title=" ">
<polygon fill="#e0e0e0" stroke="#999999" points="99,-74 0,-74 0,-55 99,-55 99,-74"/>
<text text-anchor="middle" x="49.5" y="-62" font-family="Helvetica,sans-Serif" font-size="10.00">gdk/gdkkeysyms.h</text>
</a>
</g>
</g>
<!-- Node2&#45;&gt;Node15 -->
<g id="edge14_Node000002_Node000015" class="edge">
<title>Node2&#45;&gt;Node15</title>
<g id="a_edge14_Node000002_Node000015"><a xlink:title=" ">
<path fill="none" stroke="#63b8ff" d="M938.36,-111.62C935.39,-110.98 932.39,-110.42 929.5,-110 571.77,-57.98 474.14,-107.06 110.73,-74.09"/>
<polygon fill="#63b8ff" stroke="#63b8ff" points="111.14,-70.61 100.86,-73.18 110.49,-77.58 111.14,-70.61"/>
</a>
</g>
</g>
<!-- Node16 -->
<g id="Node000016" class="node">
<title>Node16</title>
<g id="a_Node000016"><a xlink:title=" ">
<polygon fill="#e0e0e0" stroke="#999999" points="235.5,-74 117.5,-74 117.5,-55 235.5,-55 235.5,-74"/>
<text text-anchor="middle" x="176.5" y="-62" font-family="Helvetica,sans-Serif" font-size="10.00">gdk&#45;pixbuf/gdk&#45;pixbuf.h</text>
</a>
</g>
</g>
<!-- Node2&#45;&gt;Node16 -->
<g id="edge15_Node000002_Node000016" class="edge">
<title>Node2&#45;&gt;Node16</title>
<g id="a_edge15_Node000002_Node000016"><a xlink:title=" ">
<path fill="none" stroke="#63b8ff" d="M938.36,-111.64C935.39,-111 932.39,-110.43 929.5,-110 631.68,-65.37 550.16,-100.05 247.15,-74.16"/>
<polygon fill="#63b8ff" stroke="#63b8ff" points="247.59,-70.68 237.32,-73.3 246.98,-77.66 247.59,-70.68"/>
</a>
</g>
</g>
<!-- Node17 -->
<g id="Node000017" class="node">
<title>Node17</title>
<g id="a_Node000017"><a xlink:title=" ">
<polygon fill="#e0e0e0" stroke="#999999" points="345.5,-74 253.5,-74 253.5,-55 345.5,-55 345.5,-74"/>
<text text-anchor="middle" x="299.5" y="-62" font-family="Helvetica,sans-Serif" font-size="10.00">pango/pangoft2.h</text>
</a>
</g>
</g>
<!-- Node2&#45;&gt;Node17 -->
<g id="edge16_Node000002_Node000017" class="edge">
<title>Node2&#45;&gt;Node17</title>
<g id="a_edge16_Node000002_Node000017"><a xlink:title=" ">
<path fill="none" stroke="#63b8ff" d="M938.35,-111.67C935.39,-111.03 932.39,-110.45 929.5,-110 680.17,-71.36 611.08,-100.7 357.41,-74.2"/>
<polygon fill="#63b8ff" stroke="#63b8ff" points="357.79,-70.73 347.48,-73.15 357.05,-77.69 357.79,-70.73"/>
</a>
</g>
</g>
<!-- Node18 -->
<g id="Node000018" class="node">
<title>Node18</title>
<g id="a_Node000018"><a xlink:title=" ">
<polygon fill="#e0e0e0" stroke="#999999" points="425.5,-74 363.5,-74 363.5,-55 425.5,-55 425.5,-74"/>
<text text-anchor="middle" x="394.5" y="-62" font-family="Helvetica,sans-Serif" font-size="10.00">epoxy/gl.h</text>
</a>
</g>
</g>
<!-- Node2&#45;&gt;Node18 -->
<g id="edge17_Node000002_Node000018" class="edge">
<title>Node2&#45;&gt;Node18</title>
<g id="a_edge17_Node000002_Node000018"><a xlink:title=" ">
<path fill="none" stroke="#63b8ff" d="M938.35,-111.7C935.38,-111.05 932.38,-110.46 929.5,-110 715.31,-75.7 654.89,-104.02 437.04,-74.15"/>
<polygon fill="#63b8ff" stroke="#63b8ff" points="437.76,-70.72 427.37,-72.8 436.79,-77.65 437.76,-70.72"/>
</a>
</g>
</g>
<!-- Node19 -->
<g id="Node000019" class="node">
<title>Node19</title>
<g id="a_Node000019"><a xlink:title=" ">
<polygon fill="#e0e0e0" stroke="#999999" points="497,-74 444,-74 444,-55 497,-55 497,-74"/>
<text text-anchor="middle" x="470.5" y="-62" font-family="Helvetica,sans-Serif" font-size="10.00">GL/glu.h</text>
</a>
</g>
</g>
<!-- Node2&#45;&gt;Node19 -->
<g id="edge18_Node000002_Node000019" class="edge">
<title>Node2&#45;&gt;Node19</title>
<g id="a_edge18_Node000002_Node000019"><a xlink:title=" ">
<path fill="none" stroke="#63b8ff" d="M938.34,-111.73C935.38,-111.08 932.38,-110.48 929.5,-110 746.58,-79.57 694.2,-103.43 508.43,-74.23"/>
<polygon fill="#63b8ff" stroke="#63b8ff" points="509.09,-70.79 498.66,-72.66 507.98,-77.7 509.09,-70.79"/>
</a>
</g>
</g>
<!-- Node20 -->
<g id="Node000020" class="node">
<title>Node20</title>
<g id="a_Node000020"><a xlink:title=" ">
<polygon fill="#e0e0e0" stroke="#999999" points="582,-74 515,-74 515,-55 582,-55 582,-74"/>
<text text-anchor="middle" x="548.5" y="-62" font-family="Helvetica,sans-Serif" font-size="10.00">epoxy/glx.h</text>
</a>
</g>
</g>
<!-- Node2&#45;&gt;Node20 -->
<g id="edge19_Node000002_Node000020" class="edge">
<title>Node2&#45;&gt;Node20</title>
<g id="a_edge19_Node000002_Node000020"><a xlink:title=" ">
<path fill="none" stroke="#63b8ff" d="M938.33,-111.8C935.37,-111.13 932.38,-110.51 929.5,-110 782.95,-83.89 743.88,-94.99 596.5,-74 595.49,-73.86 594.47,-73.71 593.45,-73.55"/>
<polygon fill="#63b8ff" stroke="#63b8ff" points="594.2,-70.13 583.78,-72.02 593.1,-77.04 594.2,-70.13"/>
</a>
</g>
</g>
<!-- Node21 -->
<g id="Node000021" class="node">
<title>Node21</title>
<g id="a_Node000021"><a xlink:href="../../dc/db0/math__3d_8h.html" target="_top" xlink:title="Functions for OpenGL math.">
<polygon fill="white" stroke="#666666" points="700.5,-74 638.5,-74 638.5,-55 700.5,-55 700.5,-74"/>
<text text-anchor="middle" x="669.5" y="-62" font-family="Helvetica,sans-Serif" font-size="10.00">math_3d.h</text>
</a>
</g>
</g>
<!-- Node2&#45;&gt;Node21 -->
<g id="edge20_Node000002_Node000021" class="edge">
<title>Node2&#45;&gt;Node21</title>
<g id="a_edge20_Node000002_Node000021"><a xlink:title=" ">
<path fill="none" stroke="#63b8ff" d="M938.3,-111.95C935.34,-111.26 932.36,-110.59 929.5,-110 835.97,-90.69 808.82,-92.16 712.09,-74.4"/>
<polygon fill="#63b8ff" stroke="#63b8ff" points="712.87,-70.99 702.4,-72.6 711.59,-77.87 712.87,-70.99"/>
</a>
</g>
</g>
<!-- Node22 -->
<g id="Node000022" class="node">
<title>Node22</title>
<g id="a_Node000022"><a xlink:href="../../da/d7e/glwin_8h.html" target="_top" xlink:title="Variable declarations related the OpenGL window &#160;&#160;Data structure declarations related the OpenGL wind...">
<polygon fill="white" stroke="#666666" points="1459,-74 1412,-74 1412,-55 1459,-55 1459,-74"/>
<text text-anchor="middle" x="1435.5" y="-62" font-family="Helvetica,sans-Serif" font-size="10.00">glwin.h</text>
</a>
</g>
</g>
<!-- Node2&#45;&gt;Node22 -->
<g id="edge23_Node000002_Node000022" class="edge">
<title>Node2&#45;&gt;Node22</title>
<g id="a_edge23_Node000002_Node000022"><a xlink:title=" ">
<path fill="none" stroke="#63b8ff" d="M988.93,-117.27C1055.11,-113.78 1238.29,-102.32 1400.64,-74.04"/>
<polygon fill="#63b8ff" stroke="#63b8ff" points="1401.07,-77.52 1410.31,-72.32 1399.85,-70.62 1401.07,-77.52"/>
</a>
</g>
</g>
<!-- Node24 -->
<g id="Node000024" class="node">
<title>Node24</title>
<g id="a_Node000024"><a xlink:title=" ">
<polygon fill="#e0e0e0" stroke="#999999" points="778.5,-74 718.5,-74 718.5,-55 778.5,-55 778.5,-74"/>
<text text-anchor="middle" x="748.5" y="-62" font-family="Helvetica,sans-Serif" font-size="10.00">gtk/gtkx.h</text>
</a>
</g>
</g>
<!-- Node2&#45;&gt;Node24 -->
<g id="edge25_Node000002_Node000024" class="edge">
<title>Node2&#45;&gt;Node24</title>
<g id="a_edge25_Node000002_Node000024"><a xlink:title=" ">
<path fill="none" stroke="#63b8ff" d="M938.25,-112.18C935.3,-111.44 932.33,-110.7 929.5,-110 881.54,-98.11 826.39,-84.57 789.7,-75.58"/>
<polygon fill="#63b8ff" stroke="#63b8ff" points="790.95,-72.28 780.4,-73.3 789.28,-79.08 790.95,-72.28"/>
</a>
</g>
</g>
<!-- Node21&#45;&gt;Node8 -->
<g id="edge22_Node000021_Node000008" class="edge">
<title>Node21&#45;&gt;Node8</title>
<g id="a_edge22_Node000021_Node000008"><a xlink:title=" ">
<path fill="none" stroke="#63b8ff" d="M664.71,-54.75C660.96,-47.88 655.59,-38.08 650.87,-29.45"/>
<polygon fill="#63b8ff" stroke="#63b8ff" points="653.99,-27.86 646.12,-20.77 647.85,-31.22 653.99,-27.86"/>
</a>
</g>
</g>
<!-- Node21&#45;&gt;Node12 -->
<g id="edge21_Node000021_Node000012" class="edge">
<title>Node21&#45;&gt;Node12</title>
<g id="a_edge21_Node000021_Node000012"><a xlink:title=" ">
<path fill="none" stroke="#63b8ff" d="M700.94,-56.79C703.83,-56.18 706.72,-55.58 709.5,-55 774.86,-41.45 851.25,-26.11 894.65,-17.44"/>
<polygon fill="#63b8ff" stroke="#63b8ff" points="895.11,-20.92 904.23,-15.53 893.74,-14.05 895.11,-20.92"/>
</a>
</g>
</g>
<!-- Node23 -->
<g id="Node000023" class="node">
<title>Node23</title>
<g id="a_Node000023"><a xlink:href="../../d5/d9e/ogl__shading_8h.html" target="_top" xlink:title="Variable declarations related to GLSL programs &#160;&#160;Data structure declarations related to GLSL programs...">
<polygon fill="white" stroke="#666666" points="1474,-19 1397,-19 1397,0 1474,0 1474,-19"/>
<text text-anchor="middle" x="1435.5" y="-7" font-family="Helvetica,sans-Serif" font-size="10.00">ogl_shading.h</text>
</a>
</g>
</g>
<!-- Node22&#45;&gt;Node23 -->
<g id="edge24_Node000022_Node000023" class="edge">
<title>Node22&#45;&gt;Node23</title>
<g id="a_edge24_Node000022_Node000023"><a xlink:title=" ">
<path fill="none" stroke="#63b8ff" d="M1435.5,-54.75C1435.5,-48.27 1435.5,-39.16 1435.5,-30.9"/>
<polygon fill="#63b8ff" stroke="#63b8ff" points="1439,-30.96 1435.5,-20.96 1432,-30.96 1439,-30.96"/>
</a>
</g>
</g>
<!-- Node28&#45;&gt;Node2 -->
<g id="edge30_Node000028_Node000002" class="edge">
<title>Node28&#45;&gt;Node2</title>
<g id="a_edge30_Node000028_Node000002"><a xlink:title=" ">
<path fill="none" stroke="#63b8ff" d="M708.88,-168.31C755.95,-161.03 843.29,-146.89 927.28,-129.34"/>
<polygon fill="#63b8ff" stroke="#63b8ff" points="927.75,-132.82 936.82,-127.33 926.31,-125.97 927.75,-132.82"/>
</a>
</g>
</g>
<!-- Node28&#45;&gt;Node25 -->
<g id="edge31_Node000028_Node000025" class="edge">
<title>Node28&#45;&gt;Node25</title>
<g id="a_edge31_Node000028_Node000025"><a xlink:title=" ">
<path fill="none" stroke="#63b8ff" d="M640.41,-169.91C585.78,-163.86 475.07,-150.38 371.7,-129.22"/>
<polygon fill="#63b8ff" stroke="#63b8ff" points="372.42,-125.79 361.92,-127.18 370.99,-132.64 372.42,-125.79"/>
</a>
</g>
</g>
<!-- Node28&#45;&gt;Node26 -->
<g id="edge33_Node000028_Node000026" class="edge">
<title>Node28&#45;&gt;Node26</title>
<g id="a_edge33_Node000028_Node000026"><a xlink:title=" ">
<path fill="none" stroke="#63b8ff" d="M640.16,-166.87C598.17,-158.72 524.62,-144.34 452.09,-129.51"/>
<polygon fill="#63b8ff" stroke="#63b8ff" points="452.92,-126.11 442.42,-127.53 451.51,-132.96 452.92,-126.11"/>
</a>
</g>
</g>
<!-- Node28&#45;&gt;Node27 -->
<g id="edge37_Node000028_Node000027" class="edge">
<title>Node28&#45;&gt;Node27</title>
<g id="a_edge37_Node000028_Node000027"><a xlink:title=" ">
<path fill="none" stroke="#63b8ff" d="M642.44,-164.51C609.56,-155.29 558.42,-140.95 523.52,-131.16"/>
<polygon fill="#63b8ff" stroke="#63b8ff" points="524.83,-127.9 514.26,-128.56 522.94,-134.64 524.83,-127.9"/>
</a>
</g>
</g>
<!-- Node29 -->
<g id="Node000029" class="node">
<title>Node29</title>
<g id="a_Node000029"><a xlink:href="../../dd/d49/callbacks_8h.html" target="_top" xlink:title="Callback declarations for main window.">
<polygon fill="white" stroke="#666666" points="920.5,-129 854.5,-129 854.5,-110 920.5,-110 920.5,-129"/>
<text text-anchor="middle" x="887.5" y="-117" font-family="Helvetica,sans-Serif" font-size="10.00">callbacks.h</text>
</a>
</g>
</g>
<!-- Node28&#45;&gt;Node29 -->
<g id="edge32_Node000028_Node000029" class="edge">
<title>Node28&#45;&gt;Node29</title>
<g id="a_edge32_Node000028_Node000029"><a xlink:title=" ">
<path fill="none" stroke="#63b8ff" d="M708.72,-164.98C745.19,-155.91 803.07,-141.51 843.04,-131.56"/>
<polygon fill="#63b8ff" stroke="#63b8ff" points="843.74,-135 852.6,-129.18 842.05,-128.2 843.74,-135"/>
</a>
</g>
</g>
<!-- Node30 -->
<g id="Node000030" class="node">
<title>Node30</title>
<g id="a_Node000030"><a xlink:href="../../d6/d75/initcoord_8h.html" target="_top" xlink:title="Function declarations to handle the atomic coordination data.">
<polygon fill="white" stroke="#666666" points="592.5,-129 530.5,-129 530.5,-110 592.5,-110 592.5,-129"/>
<text text-anchor="middle" x="561.5" y="-117" font-family="Helvetica,sans-Serif" font-size="10.00">initcoord.h</text>
</a>
</g>
</g>
<!-- Node28&#45;&gt;Node30 -->
<g id="edge34_Node000028_Node000030" class="edge">
<title>Node28&#45;&gt;Node30</title>
<g id="a_edge34_Node000028_Node000030"><a xlink:title=" ">
<path fill="none" stroke="#63b8ff" d="M655.33,-164.51C637.61,-156.2 611.02,-143.73 590.67,-134.18"/>
<polygon fill="#63b8ff" stroke="#63b8ff" points="592.3,-131.08 581.76,-130 589.32,-137.42 592.3,-131.08"/>
</a>
</g>
</g>
<!-- Node31 -->
<g id="Node000031" class="node">
<title>Node31</title>
<g id="a_Node000031"><a xlink:href="../../dc/de3/glview_8h.html" target="_top" xlink:title="Variable declarations related to the OpenGL window &#160;&#160;Function declarations related to the OpenGL wind...">
<polygon fill="white" stroke="#666666" points="662.5,-129 610.5,-129 610.5,-110 662.5,-110 662.5,-129"/>
<text text-anchor="middle" x="636.5" y="-117" font-family="Helvetica,sans-Serif" font-size="10.00">glview.h</text>
</a>
</g>
</g>
<!-- Node28&#45;&gt;Node31 -->
<g id="edge35_Node000028_Node000031" class="edge">
<title>Node28&#45;&gt;Node31</title>
<g id="a_edge35_Node000028_Node000031"><a xlink:title=" ">
<path fill="none" stroke="#63b8ff" d="M668.23,-164.75C663.14,-157.66 655.8,-147.42 649.47,-138.59"/>
<polygon fill="#63b8ff" stroke="#63b8ff" points="652.46,-136.76 643.79,-130.67 646.78,-140.84 652.46,-136.76"/>
</a>
</g>
</g>
<!-- Node32 -->
<g id="Node000032" class="node">
<title>Node32</title>
<g id="a_Node000032"><a xlink:href="../../d1/d2a/glwindow_8h.html" target="_top" xlink:title="Function declarations for the creation of the OpenGL window.">
<polygon fill="white" stroke="#666666" points="746,-129 681,-129 681,-110 746,-110 746,-129"/>
<text text-anchor="middle" x="713.5" y="-117" font-family="Helvetica,sans-Serif" font-size="10.00">glwindow.h</text>
</a>
</g>
</g>
<!-- Node28&#45;&gt;Node32 -->
<g id="edge36_Node000028_Node000032" class="edge">
<title>Node28&#45;&gt;Node32</title>
<g id="a_edge36_Node000028_Node000032"><a xlink:title=" ">
<path fill="none" stroke="#63b8ff" d="M680.94,-164.75C686.16,-157.66 693.69,-147.42 700.19,-138.59"/>
<polygon fill="#63b8ff" stroke="#63b8ff" points="702.92,-140.79 706.02,-130.66 697.28,-136.64 702.92,-140.79"/>
</a>
</g>
</g>
<!-- Node33 -->
<g id="Node000033" class="node">
<title>Node33</title>
<g id="a_Node000033"><a xlink:href="../../d4/de6/workspace_8h.html" target="_top" xlink:title="Function declarations for workspace managment.">
<polygon fill="white" stroke="#666666" points="836.5,-129 764.5,-129 764.5,-110 836.5,-110 836.5,-129"/>
<text text-anchor="middle" x="800.5" y="-117" font-family="Helvetica,sans-Serif" font-size="10.00">workspace.h</text>
</a>
</g>
</g>
<!-- Node28&#45;&gt;Node33 -->
<g id="edge38_Node000028_Node000033" class="edge">
<title>Node28&#45;&gt;Node33</title>
<g id="a_edge38_Node000028_Node000033"><a xlink:title=" ">
<path fill="none" stroke="#63b8ff" d="M695.87,-164.51C715.91,-156.08 746.1,-143.38 768.91,-133.79"/>
<polygon fill="#63b8ff" stroke="#63b8ff" points="770.19,-137.05 778.05,-129.94 767.47,-130.6 770.19,-137.05"/>
</a>
</g>
</g>
<!-- Node34&#45;&gt;Node2 -->
<g id="edge40_Node000034_Node000002" class="edge">
<title>Node34&#45;&gt;Node2</title>
<g id="a_edge40_Node000034_Node000002"><a xlink:title=" ">
<path fill="none" stroke="#63b8ff" d="M911.19,-164.51C920.2,-156.93 933.33,-145.88 944.18,-136.75"/>
<polygon fill="#63b8ff" stroke="#63b8ff" points="946.41,-139.45 951.81,-130.33 941.91,-134.09 946.41,-139.45"/>
</a>
</g>
</g>
<!-- Node35 -->
<g id="Node000035" class="node">
<title>Node35</title>
<g id="a_Node000035"><a xlink:title=" ">
<polygon fill="#e0e0e0" stroke="#999999" points="1723.5,-74 1627.5,-74 1627.5,-55 1723.5,-55 1723.5,-74"/>
<text text-anchor="middle" x="1675.5" y="-62" font-family="Helvetica,sans-Serif" font-size="10.00">libxml/xmlreader.h</text>
</a>
</g>
</g>
<!-- Node34&#45;&gt;Node35 -->
<g id="edge41_Node000034_Node000035" class="edge">
<title>Node34&#45;&gt;Node35</title>
<g id="a_edge41_Node000034_Node000035"><a xlink:title=" ">
<path fill="none" stroke="#63b8ff" d="M936.49,-166.38C939.2,-165.89 941.89,-165.43 944.5,-165 1239.15,-116.69 1317.33,-116.51 1616.13,-74.32"/>
<polygon fill="#63b8ff" stroke="#63b8ff" points="1616.4,-77.82 1625.81,-72.95 1615.41,-70.88 1616.4,-77.82"/>
</a>
</g>
</g>
<!-- Node37 -->
<g id="Node000037" class="node">
<title>Node37</title>
<g id="a_Node000037"><a xlink:href="../../dc/d50/read__isaacs_8h.html" target="_top" xlink:title="Function declarations to read / write ISAACS XML file.">
<polygon fill="white" stroke="#666666" points="1826,-129 1749,-129 1749,-110 1826,-110 1826,-129"/>
<text text-anchor="middle" x="1787.5" y="-117" font-family="Helvetica,sans-Serif" font-size="10.00">read_isaacs.h</text>
</a>
</g>
</g>
<!-- Node36&#45;&gt;Node37 -->
<g id="edge43_Node000036_Node000037" class="edge">
<title>Node36&#45;&gt;Node37</title>
<g id="a_edge43_Node000036_Node000037"><a xlink:title=" ">
<path fill="none" stroke="#63b8ff" d="M1011.5,-166.35C1014.19,-165.84 1016.89,-165.37 1019.5,-165 1288.16,-126.63 1614.18,-121.14 1737.24,-120.5"/>
<polygon fill="#63b8ff" stroke="#63b8ff" points="1737.01,-124 1747,-120.46 1736.98,-117 1737.01,-124"/>
</a>
</g>
</g>
<!-- Node37&#45;&gt;Node35 -->
<g id="edge46_Node000037_Node000035" class="edge">
<title>Node37&#45;&gt;Node35</title>
<g id="a_edge46_Node000037_Node000035"><a xlink:title=" ">
<path fill="none" stroke="#63b8ff" d="M1768.5,-109.51C1750.94,-101.2 1724.58,-88.73 1704.41,-79.18"/>
<polygon fill="#63b8ff" stroke="#63b8ff" points="1706.12,-76.12 1695.59,-75.01 1703.13,-82.45 1706.12,-76.12"/>
</a>
</g>
</g>
<!-- Node38 -->
<g id="Node000038" class="node">
<title>Node38</title>
<g id="a_Node000038"><a xlink:title=" ">
<polygon fill="#e0e0e0" stroke="#999999" points="1833.5,-74 1741.5,-74 1741.5,-55 1833.5,-55 1833.5,-74"/>
<text text-anchor="middle" x="1787.5" y="-62" font-family="Helvetica,sans-Serif" font-size="10.00">libxml/encoding.h</text>
</a>
</g>
</g>
<!-- Node37&#45;&gt;Node38 -->
<g id="edge44_Node000037_Node000038" class="edge">
<title>Node37&#45;&gt;Node38</title>
<g id="a_edge44_Node000037_Node000038"><a xlink:title=" ">
<path fill="none" stroke="#63b8ff" d="M1787.5,-109.75C1787.5,-103.27 1787.5,-94.16 1787.5,-85.9"/>
<polygon fill="#63b8ff" stroke="#63b8ff" points="1791,-85.96 1787.5,-75.96 1784,-85.96 1791,-85.96"/>
</a>
</g>
</g>
<!-- Node39 -->
<g id="Node000039" class="node">
<title>Node39</title>
<g id="a_Node000039"><a xlink:title=" ">
<polygon fill="#e0e0e0" stroke="#999999" points="1945,-74 1852,-74 1852,-55 1945,-55 1945,-74"/>
<text text-anchor="middle" x="1898.5" y="-62" font-family="Helvetica,sans-Serif" font-size="10.00">libxml/xmlwriter.h</text>
</a>
</g>
</g>
<!-- Node37&#45;&gt;Node39 -->
<g id="edge45_Node000037_Node000039" class="edge">
<title>Node37&#45;&gt;Node39</title>
<g id="a_edge45_Node000037_Node000039"><a xlink:title=" ">
<path fill="none" stroke="#63b8ff" d="M1806.33,-109.51C1823.66,-101.24 1849.61,-88.84 1869.57,-79.31"/>
<polygon fill="#63b8ff" stroke="#63b8ff" points="1871.07,-82.48 1878.58,-75.01 1868.05,-76.16 1871.07,-82.48"/>
</a>
</g>
</g>
<!-- Node40 -->
<g id="Node000040" class="node">
<title>Node40</title>
<g id="a_Node000040"><a xlink:title=" ">
<polygon fill="#e0e0e0" stroke="#999999" points="2043.5,-74 1963.5,-74 1963.5,-55 2043.5,-55 2043.5,-74"/>
<text text-anchor="middle" x="2003.5" y="-62" font-family="Helvetica,sans-Serif" font-size="10.00">libxml/parser.h</text>
</a>
</g>
</g>
<!-- Node37&#45;&gt;Node40 -->
<g id="edge47_Node000037_Node000040" class="edge">
<title>Node37&#45;&gt;Node40</title>
<g id="a_edge47_Node000037_Node000040"><a xlink:title=" ">
<path fill="none" stroke="#63b8ff" d="M1824.14,-109.51C1860.48,-100.59 1916.33,-86.89 1956.04,-77.15"/>
<polygon fill="#63b8ff" stroke="#63b8ff" points="1956.69,-80.59 1965.57,-74.81 1955.02,-73.79 1956.69,-80.59"/>
</a>
</g>
</g>
</g>
</svg>

<g id="navigator" transform="translate(0 0)" fill="#404254">
  <rect fill="#f2f5e9" fill-opacity="0.5" stroke="#606060" stroke-width=".5" x="0" y="0" width="60" height="60"/>
  <use id="zoomplus" xlink:href="#zoomPlus" x="17" y="9" onmousedown="handleZoom(evt,'in')"/>
  <use id="zoomminus" xlink:href="#zoomMin" x="42" y="9" onmousedown="handleZoom(evt,'out')"/>
  <use id="reset" xlink:href="#resetDef" x="30" y="36" onmousedown="handleReset()"/>
   <use id="arrowup" xlink:href="#arrowUp" x="0" y="0" onmousedown="handlePan(0,-1)"/>
  <use id="arrowright" xlink:href="#arrowRight" x="0" y="0" onmousedown="handlePan(1,0)"/>
  <use id="arrowdown" xlink:href="#arrowDown" x="0" y="0" onmousedown="handlePan(0,1)"/>
  <use id="arrowleft" xlink:href="#arrowLeft" x="0" y="0" onmousedown="handlePan(-1,0)"/>
</g>
<svg viewBox="0 0 15 15" width="100%" height="30px" preserveAspectRatio="xMaxYMin meet">
 <g id="arrow_out" transform="scale(0.3 0.3)">
  <a xlink:href="read__cif_8c__incl_org.svg" target="_base">
   <rect id="button" ry="5" rx="5" y="6" x="6" height="38" width="38"
        fill="#f2f5e9" fill-opacity="0.5" stroke="#606060" stroke-width="1.0"/>
   <path id="arrow"
     d="M 11.500037,31.436501 C 11.940474,20.09759 22.043105,11.32322 32.158766,21.979434 L 37.068811,17.246167 C 37.068811,17.246167 37.088388,32 37.088388,32 L 22.160133,31.978069 C 22.160133,31.978069 26.997745,27.140456 26.997745,27.140456 C 18.528582,18.264221 13.291696,25.230495 11.500037,31.436501 z"
     style="fill:#404040;"/>
  </a>
 </g>
</svg>

<style type='text/css'>
<![CDATA[
[data-mouse-over-selected='false'] { opacity: 0.7; }
[data-mouse-over-selected='true']  { opacity: 1.0; }
]]>
</style>
<script type="application/ecmascript"><![CDATA[
document.addEventListener('DOMContentLoaded', (event) => {
  highlightEdges();
  highlightAdjacentNodes();
});
]]></script>
</svg>
