<?xml version="1.0" encoding="UTF-8" standalone="no"?>
<!DOCTYPE svg PUBLIC "-//W3C//DTD SVG 1.1//EN"
 "http://www.w3.org/Graphics/SVG/1.1/DTD/svg11.dtd">
<!-- Generated by graphviz version 2.43.0 (0)
 -->
<!-- Title: project/readers/read_cif.c Pages: 1 -->
<svg width="2216pt" height="258pt"
 viewBox="0.00 0.00 2215.50 258.00" xmlns="http://www.w3.org/2000/svg" xmlns:xlink="http://www.w3.org/1999/xlink">
<g id="graph0" class="graph" transform="scale(1 1) rotate(0) translate(4 254)">
<title>project/readers/read_cif.c</title>
<!-- Node1 -->
<g id="Node000001" class="node">
<title>Node1</title>
<g id="a_Node000001"><a xlink:title="Functions to read CIF files.">
<polygon fill="#999999" stroke="#666666" points="961.5,-250 846.5,-250 846.5,-220 961.5,-220 961.5,-250"/>
<text text-anchor="start" x="854.5" y="-238" font-family="Helvetica,sans-Serif" font-size="10.00">project/readers/read</text>
<text text-anchor="middle" x="904" y="-227" font-family="Helvetica,sans-Serif" font-size="10.00">_cif.c</text>
</a>
</g>
</g>
<!-- Node2 -->
<g id="Node000002" class="node">
<title>Node2</title>
<g id="a_Node000002"><a xlink:href="../../d2/d49/global_8h.html" target="_top" xlink:title="Global variable declarations &#160;&#160;Global convenience function declarations &#160;&#160;Global data structure defin...">
<polygon fill="white" stroke="#666666" points="1067,-129 1011,-129 1011,-110 1067,-110 1067,-129"/>
<text text-anchor="middle" x="1039" y="-117" font-family="Helvetica,sans-Serif" font-size="10.00">global.h</text>
</a>
</g>
</g>
<!-- Node1&#45;&gt;Node2 -->
<g id="edge1_Node000001_Node000002" class="edge">
<title>Node1&#45;&gt;Node2</title>
<g id="a_edge1_Node000001_Node000002"><a xlink:title=" ">
<path fill="none" stroke="#63b8ff" d="M904.27,-219.8C905.32,-204.46 909.23,-180.19 923,-165 933.84,-153.05 971.62,-139.87 1001.15,-130.98"/>
<polygon fill="#63b8ff" stroke="#63b8ff" points="1002.2,-134.32 1010.8,-128.14 1000.22,-127.61 1002.2,-134.32"/>
</a>
</g>
</g>
<!-- Node25 -->
<g id="Node000025" class="node">
<title>Node25</title>
<g id="a_Node000025"><a xlink:href="../../da/dc2/bind_8h.html" target="_top" xlink:title="Binding to the Fortran90 subroutines.">
<polygon fill="white" stroke="#666666" points="391.5,-129 344.5,-129 344.5,-110 391.5,-110 391.5,-129"/>
<text text-anchor="middle" x="368" y="-117" font-family="Helvetica,sans-Serif" font-size="10.00">bind.h</text>
</a>
</g>
</g>
<!-- Node1&#45;&gt;Node25 -->
<g id="edge26_Node000001_Node000025" class="edge">
<title>Node1&#45;&gt;Node25</title>
<g id="a_edge26_Node000001_Node000025"><a xlink:title=" ">
<path fill="none" stroke="#63b8ff" d="M846.25,-228.61C777.8,-221.51 660.58,-207.16 562,-184 503.57,-170.27 437.54,-146.92 399.54,-132.68"/>
<polygon fill="#63b8ff" stroke="#63b8ff" points="400.64,-129.35 390.05,-129.09 398.17,-135.9 400.64,-129.35"/>
</a>
</g>
</g>
<!-- Node26 -->
<g id="Node000026" class="node">
<title>Node26</title>
<g id="a_Node000026"><a xlink:href="../../d4/da9/interface_8h.html" target="_top" xlink:title="Messaging function declarations.">
<polygon fill="white" stroke="#666666" points="478.5,-129 409.5,-129 409.5,-110 478.5,-110 478.5,-129"/>
<text text-anchor="middle" x="444" y="-117" font-family="Helvetica,sans-Serif" font-size="10.00">interface.h</text>
</a>
</g>
</g>
<!-- Node1&#45;&gt;Node26 -->
<g id="edge27_Node000001_Node000026" class="edge">
<title>Node1&#45;&gt;Node26</title>
<g id="a_edge27_Node000001_Node000026"><a xlink:title=" ">
<path fill="none" stroke="#63b8ff" d="M846.4,-226.27C789.98,-218.08 701.81,-203.6 627,-184 572.29,-169.66 510.48,-146.76 474.51,-132.73"/>
<polygon fill="#63b8ff" stroke="#63b8ff" points="475.67,-129.42 465.08,-129.02 473.11,-135.94 475.67,-129.42"/>
</a>
</g>
</g>
<!-- Node27 -->
<g id="Node000027" class="node">
<title>Node27</title>
<g id="a_Node000027"><a xlink:href="../../dc/d8d/project_8h.html" target="_top" xlink:title="Function declarations for reading atomes project file &#160;&#160;Function declarations for saving atomes proje...">
<polygon fill="white" stroke="#666666" points="555.5,-129 496.5,-129 496.5,-110 555.5,-110 555.5,-129"/>
<text text-anchor="middle" x="526" y="-117" font-family="Helvetica,sans-Serif" font-size="10.00">project.h</text>
</a>
</g>
</g>
<!-- Node1&#45;&gt;Node27 -->
<g id="edge28_Node000001_Node000027" class="edge">
<title>Node1&#45;&gt;Node27</title>
<g id="a_edge28_Node000001_Node000027"><a xlink:title=" ">
<path fill="none" stroke="#63b8ff" d="M846.09,-223.56C801.1,-214.82 737.43,-201.04 683,-184 636.67,-169.49 584.78,-147.28 553.79,-133.34"/>
<polygon fill="#63b8ff" stroke="#63b8ff" points="555.05,-130.07 544.49,-129.12 552.15,-136.44 555.05,-130.07"/>
</a>
</g>
</g>
<!-- Node28 -->
<g id="Node000028" class="node">
<title>Node28</title>
<g id="a_Node000028"><a xlink:href="../../d5/d9c/atom__edit_8h.html" target="_top" xlink:title="Function declarations for the mode edition window.">
<polygon fill="white" stroke="#666666" points="767.5,-184 692.5,-184 692.5,-165 767.5,-165 767.5,-184"/>
<text text-anchor="middle" x="730" y="-172" font-family="Helvetica,sans-Serif" font-size="10.00">atom_edit.h</text>
</a>
</g>
</g>
<!-- Node1&#45;&gt;Node28 -->
<g id="edge29_Node000001_Node000028" class="edge">
<title>Node1&#45;&gt;Node28</title>
<g id="a_edge29_Node000001_Node000028"><a xlink:title=" ">
<path fill="none" stroke="#63b8ff" d="M862.32,-219.99C832.68,-210.02 793.31,-196.78 765.23,-187.35"/>
<polygon fill="#63b8ff" stroke="#63b8ff" points="766.04,-183.92 755.44,-184.05 763.8,-190.56 766.04,-183.92"/>
</a>
</g>
</g>
<!-- Node34 -->
<g id="Node000034" class="node">
<title>Node34</title>
<g id="a_Node000034"><a xlink:href="../../de/d8a/cbuild__edit_8h.html" target="_top" xlink:title="Function declarations for the crystal builder.">
<polygon fill="white" stroke="#666666" points="1011.5,-184 932.5,-184 932.5,-165 1011.5,-165 1011.5,-184"/>
<text text-anchor="middle" x="972" y="-172" font-family="Helvetica,sans-Serif" font-size="10.00">cbuild_edit.h</text>
</a>
</g>
</g>
<!-- Node1&#45;&gt;Node34 -->
<g id="edge39_Node000001_Node000034" class="edge">
<title>Node1&#45;&gt;Node34</title>
<g id="a_edge39_Node000001_Node000034"><a xlink:title=" ">
<path fill="none" stroke="#63b8ff" d="M920.46,-219.84C930.63,-211.09 943.69,-199.85 954.12,-190.88"/>
<polygon fill="#63b8ff" stroke="#63b8ff" points="956.51,-193.44 961.81,-184.27 951.95,-188.13 956.51,-193.44"/>
</a>
</g>
</g>
<!-- Node36 -->
<g id="Node000036" class="node">
<title>Node36</title>
<g id="a_Node000036"><a xlink:href="../../d1/dfb/readers_8h.html" target="_top" xlink:title="Functions declaration to read atomic coordinates.">
<polygon fill="white" stroke="#666666" points="1091,-184 1029,-184 1029,-165 1091,-165 1091,-184"/>
<text text-anchor="middle" x="1060" y="-172" font-family="Helvetica,sans-Serif" font-size="10.00">readers.h</text>
</a>
</g>
</g>
<!-- Node1&#45;&gt;Node36 -->
<g id="edge42_Node000001_Node000036" class="edge">
<title>Node1&#45;&gt;Node36</title>
<g id="a_edge42_Node000001_Node000036"><a xlink:title=" ">
<path fill="none" stroke="#63b8ff" d="M941.37,-219.99C967.63,-210.14 1002.41,-197.1 1027.52,-187.68"/>
<polygon fill="#63b8ff" stroke="#63b8ff" points="1028.83,-190.93 1036.96,-184.14 1026.37,-184.37 1028.83,-190.93"/>
</a>
</g>
</g>
<!-- Node41 -->
<g id="Node000041" class="node">
<title>Node41</title>
<g id="a_Node000041"><a xlink:title=" ">
<polygon fill="#e0e0e0" stroke="#999999" points="1162.5,-184 1109.5,-184 1109.5,-165 1162.5,-165 1162.5,-184"/>
<text text-anchor="middle" x="1136" y="-172" font-family="Helvetica,sans-Serif" font-size="10.00">ctype.h</text>
</a>
</g>
</g>
<!-- Node1&#45;&gt;Node41 -->
<g id="edge48_Node000001_Node000041" class="edge">
<title>Node1&#45;&gt;Node41</title>
<g id="a_edge48_Node000001_Node000041"><a xlink:title=" ">
<path fill="none" stroke="#63b8ff" d="M959.57,-219.99C1002.82,-209.08 1061.63,-194.25 1099.21,-184.78"/>
<polygon fill="#63b8ff" stroke="#63b8ff" points="1100.37,-188.09 1109.21,-182.25 1098.66,-181.31 1100.37,-188.09"/>
</a>
</g>
</g>
<!-- Node42 -->
<g id="Node000042" class="node">
<title>Node42</title>
<g id="a_Node000042"><a xlink:title=" ">
<polygon fill="#e0e0e0" stroke="#999999" points="1227.5,-184 1180.5,-184 1180.5,-165 1227.5,-165 1227.5,-184"/>
<text text-anchor="middle" x="1204" y="-172" font-family="Helvetica,sans-Serif" font-size="10.00">omp.h</text>
</a>
</g>
</g>
<!-- Node1&#45;&gt;Node42 -->
<g id="edge49_Node000001_Node000042" class="edge">
<title>Node1&#45;&gt;Node42</title>
<g id="a_edge49_Node000001_Node000042"><a xlink:title=" ">
<path fill="none" stroke="#63b8ff" d="M961.52,-224.38C1013.52,-215.42 1092.39,-201.18 1170.27,-184.04"/>
<polygon fill="#63b8ff" stroke="#63b8ff" points="1171.25,-187.4 1180.25,-181.82 1169.73,-180.57 1171.25,-187.4"/>
</a>
</g>
</g>
<!-- Node3 -->
<g id="Node000003" class="node">
<title>Node3</title>
<g id="a_Node000003"><a xlink:title=" ">
<polygon fill="#e0e0e0" stroke="#999999" points="901,-74 857,-74 857,-55 901,-55 901,-74"/>
<text text-anchor="middle" x="879" y="-62" font-family="Helvetica,sans-Serif" font-size="10.00">glib.h</text>
</a>
</g>
</g>
<!-- Node2&#45;&gt;Node3 -->
<g id="edge2_Node000002_Node000003" class="edge">
<title>Node2&#45;&gt;Node3</title>
<g id="a_edge2_Node000002_Node000003"><a xlink:title=" ">
<path fill="none" stroke="#63b8ff" d="M1013.29,-109.98C985.36,-100.73 940.7,-85.94 910.63,-75.98"/>
<polygon fill="#63b8ff" stroke="#63b8ff" points="911.63,-72.62 901.04,-72.8 909.43,-79.27 911.63,-72.62"/>
</a>
</g>
</g>
<!-- Node4 -->
<g id="Node000004" class="node">
<title>Node4</title>
<g id="a_Node000004"><a xlink:title=" ">
<polygon fill="#e0e0e0" stroke="#999999" points="993,-74 919,-74 919,-55 993,-55 993,-74"/>
<text text-anchor="middle" x="956" y="-62" font-family="Helvetica,sans-Serif" font-size="10.00">glib/gi18n.h</text>
</a>
</g>
</g>
<!-- Node2&#45;&gt;Node4 -->
<g id="edge3_Node000002_Node000004" class="edge">
<title>Node2&#45;&gt;Node4</title>
<g id="a_edge3_Node000002_Node000004"><a xlink:title=" ">
<path fill="none" stroke="#63b8ff" d="M1025.66,-109.98C1012.91,-101.84 993.45,-89.41 978.33,-79.76"/>
<polygon fill="#63b8ff" stroke="#63b8ff" points="979.89,-76.6 969.58,-74.17 976.12,-82.5 979.89,-76.6"/>
</a>
</g>
</g>
<!-- Node5 -->
<g id="Node000005" class="node">
<title>Node5</title>
<g id="a_Node000005"><a xlink:title=" ">
<polygon fill="#e0e0e0" stroke="#999999" points="1066.5,-74 1011.5,-74 1011.5,-55 1066.5,-55 1066.5,-74"/>
<text text-anchor="middle" x="1039" y="-62" font-family="Helvetica,sans-Serif" font-size="10.00">locale.h</text>
</a>
</g>
</g>
<!-- Node2&#45;&gt;Node5 -->
<g id="edge4_Node000002_Node000005" class="edge">
<title>Node2&#45;&gt;Node5</title>
<g id="a_edge4_Node000002_Node000005"><a xlink:title=" ">
<path fill="none" stroke="#63b8ff" d="M1039,-109.75C1039,-102.8 1039,-92.85 1039,-84.13"/>
<polygon fill="#63b8ff" stroke="#63b8ff" points="1042.5,-84.09 1039,-74.09 1035.5,-84.09 1042.5,-84.09"/>
</a>
</g>
</g>
<!-- Node6 -->
<g id="Node000006" class="node">
<title>Node6</title>
<g id="a_Node000006"><a xlink:title=" ">
<polygon fill="#e0e0e0" stroke="#999999" points="1141,-74 1085,-74 1085,-55 1141,-55 1141,-74"/>
<text text-anchor="middle" x="1113" y="-62" font-family="Helvetica,sans-Serif" font-size="10.00">unistd.h</text>
</a>
</g>
</g>
<!-- Node2&#45;&gt;Node6 -->
<g id="edge5_Node000002_Node000006" class="edge">
<title>Node2&#45;&gt;Node6</title>
<g id="a_edge5_Node000002_Node000006"><a xlink:title=" ">
<path fill="none" stroke="#63b8ff" d="M1050.89,-109.98C1062.15,-101.92 1079.29,-89.65 1092.71,-80.03"/>
<polygon fill="#63b8ff" stroke="#63b8ff" points="1094.8,-82.84 1100.89,-74.17 1090.73,-77.15 1094.8,-82.84"/>
</a>
</g>
</g>
<!-- Node7 -->
<g id="Node000007" class="node">
<title>Node7</title>
<g id="a_Node000007"><a xlink:title=" ">
<polygon fill="#e0e0e0" stroke="#999999" points="1212.5,-74 1159.5,-74 1159.5,-55 1212.5,-55 1212.5,-74"/>
<text text-anchor="middle" x="1186" y="-62" font-family="Helvetica,sans-Serif" font-size="10.00">string.h</text>
</a>
</g>
</g>
<!-- Node2&#45;&gt;Node7 -->
<g id="edge6_Node000002_Node000007" class="edge">
<title>Node2&#45;&gt;Node7</title>
<g id="a_edge6_Node000002_Node000007"><a xlink:title=" ">
<path fill="none" stroke="#63b8ff" d="M1062.62,-109.98C1086.9,-101.23 1124.95,-87.51 1152.37,-77.62"/>
<polygon fill="#63b8ff" stroke="#63b8ff" points="1153.73,-80.85 1161.95,-74.17 1151.36,-74.27 1153.73,-80.85"/>
</a>
</g>
</g>
<!-- Node8 -->
<g id="Node000008" class="node">
<title>Node8</title>
<g id="a_Node000008"><a xlink:title=" ">
<polygon fill="#e0e0e0" stroke="#999999" points="715,-19 665,-19 665,0 715,0 715,-19"/>
<text text-anchor="middle" x="690" y="-7" font-family="Helvetica,sans-Serif" font-size="10.00">stdio.h</text>
</a>
</g>
</g>
<!-- Node2&#45;&gt;Node8 -->
<g id="edge7_Node000002_Node000008" class="edge">
<title>Node2&#45;&gt;Node8</title>
<g id="a_edge7_Node000002_Node000008"><a xlink:title=" ">
<path fill="none" stroke="#63b8ff" d="M1010.85,-111.84C1007.54,-111.17 1004.2,-110.53 1001,-110 929.76,-98.1 726.16,-127.82 678,-74 666.92,-61.62 672.67,-42.32 679.49,-28.24"/>
<polygon fill="#63b8ff" stroke="#63b8ff" points="682.76,-29.56 684.42,-19.09 676.6,-26.24 682.76,-29.56"/>
</a>
</g>
</g>
<!-- Node9 -->
<g id="Node000009" class="node">
<title>Node9</title>
<g id="a_Node000009"><a xlink:title=" ">
<polygon fill="#e0e0e0" stroke="#999999" points="1322.5,-74 1269.5,-74 1269.5,-55 1322.5,-55 1322.5,-74"/>
<text text-anchor="middle" x="1296" y="-62" font-family="Helvetica,sans-Serif" font-size="10.00">stdlib.h</text>
</a>
</g>
</g>
<!-- Node2&#45;&gt;Node9 -->
<g id="edge8_Node000002_Node000009" class="edge">
<title>Node2&#45;&gt;Node9</title>
<g id="a_edge8_Node000002_Node000009"><a xlink:title=" ">
<path fill="none" stroke="#63b8ff" d="M1067.31,-112.68C1108.58,-104.19 1187.7,-87.91 1255,-74 1256.28,-73.74 1257.59,-73.47 1258.9,-73.19"/>
<polygon fill="#63b8ff" stroke="#63b8ff" points="1260.01,-76.54 1269.09,-71.08 1258.59,-69.68 1260.01,-76.54"/>
</a>
</g>
</g>
<!-- Node10 -->
<g id="Node000010" class="node">
<title>Node10</title>
<g id="a_Node000010"><a xlink:title=" ">
<polygon fill="#e0e0e0" stroke="#999999" points="1413,-74 1341,-74 1341,-55 1413,-55 1413,-74"/>
<text text-anchor="middle" x="1377" y="-62" font-family="Helvetica,sans-Serif" font-size="10.00">sys/types.h</text>
</a>
</g>
</g>
<!-- Node2&#45;&gt;Node10 -->
<g id="edge9_Node000002_Node000010" class="edge">
<title>Node2&#45;&gt;Node10</title>
<g id="a_edge9_Node000002_Node000010"><a xlink:title=" ">
<path fill="none" stroke="#63b8ff" d="M1067.24,-114.5C1119.41,-107.04 1234.42,-90.28 1331,-74 1331.1,-73.98 1331.2,-73.97 1331.3,-73.95"/>
<polygon fill="#63b8ff" stroke="#63b8ff" points="1331.61,-77.45 1340.86,-72.29 1330.41,-70.55 1331.61,-77.45"/>
</a>
</g>
</g>
<!-- Node11 -->
<g id="Node000011" class="node">
<title>Node11</title>
<g id="a_Node000011"><a xlink:title=" ">
<polygon fill="#e0e0e0" stroke="#999999" points="1495,-74 1431,-74 1431,-55 1495,-55 1495,-74"/>
<text text-anchor="middle" x="1463" y="-62" font-family="Helvetica,sans-Serif" font-size="10.00">sys/stat.h</text>
</a>
</g>
</g>
<!-- Node2&#45;&gt;Node11 -->
<g id="edge10_Node000002_Node000011" class="edge">
<title>Node2&#45;&gt;Node11</title>
<g id="a_edge10_Node000002_Node000011"><a xlink:title=" ">
<path fill="none" stroke="#63b8ff" d="M1067.47,-116.06C1129.71,-110.55 1282.76,-95.99 1420.9,-74.05"/>
<polygon fill="#63b8ff" stroke="#63b8ff" points="1421.5,-77.49 1430.82,-72.45 1420.39,-70.58 1421.5,-77.49"/>
</a>
</g>
</g>
<!-- Node12 -->
<g id="Node000012" class="node">
<title>Node12</title>
<g id="a_Node000012"><a xlink:title=" ">
<polygon fill="#e0e0e0" stroke="#999999" points="1025.5,-19 974.5,-19 974.5,0 1025.5,0 1025.5,-19"/>
<text text-anchor="middle" x="1000" y="-7" font-family="Helvetica,sans-Serif" font-size="10.00">math.h</text>
</a>
</g>
</g>
<!-- Node2&#45;&gt;Node12 -->
<g id="edge11_Node000002_Node000012" class="edge">
<title>Node2&#45;&gt;Node12</title>
<g id="a_edge11_Node000002_Node000012"><a xlink:title=" ">
<path fill="none" stroke="#63b8ff" d="M1067.4,-118.15C1128.47,-116.41 1263.4,-106.79 1221,-55 1198,-26.91 1092.25,-16.16 1035.78,-12.37"/>
<polygon fill="#63b8ff" stroke="#63b8ff" points="1035.71,-8.86 1025.51,-11.72 1035.27,-15.85 1035.71,-8.86"/>
</a>
</g>
</g>
<!-- Node13 -->
<g id="Node000013" class="node">
<title>Node13</title>
<g id="a_Node000013"><a xlink:title=" ">
<polygon fill="#e0e0e0" stroke="#999999" points="1643,-74 1583,-74 1583,-55 1643,-55 1643,-74"/>
<text text-anchor="middle" x="1613" y="-62" font-family="Helvetica,sans-Serif" font-size="10.00">gtk/gtk.h</text>
</a>
</g>
</g>
<!-- Node2&#45;&gt;Node13 -->
<g id="edge12_Node000002_Node000013" class="edge">
<title>Node2&#45;&gt;Node13</title>
<g id="a_edge12_Node000002_Node000013"><a xlink:title=" ">
<path fill="none" stroke="#63b8ff" d="M1067.28,-117.46C1145.91,-114.29 1373.85,-103.22 1572.79,-73.98"/>
<polygon fill="#63b8ff" stroke="#63b8ff" points="1573.46,-77.42 1582.84,-72.48 1572.43,-70.5 1573.46,-77.42"/>
</a>
</g>
</g>
<!-- Node14 -->
<g id="Node000014" class="node">
<title>Node14</title>
<g id="a_Node000014"><a xlink:title=" ">
<polygon fill="#e0e0e0" stroke="#999999" points="1726.5,-74 1661.5,-74 1661.5,-55 1726.5,-55 1726.5,-74"/>
<text text-anchor="middle" x="1694" y="-62" font-family="Helvetica,sans-Serif" font-size="10.00">gdk/gdk.h</text>
</a>
</g>
</g>
<!-- Node2&#45;&gt;Node14 -->
<g id="edge13_Node000002_Node000014" class="edge">
<title>Node2&#45;&gt;Node14</title>
<g id="a_edge13_Node000002_Node000014"><a xlink:title=" ">
<path fill="none" stroke="#63b8ff" d="M1067.24,-117.73C1153.33,-115.1 1420.18,-104.98 1651.12,-73.93"/>
<polygon fill="#63b8ff" stroke="#63b8ff" points="1651.62,-77.4 1661.05,-72.58 1650.67,-70.46 1651.62,-77.4"/>
</a>
</g>
</g>
<!-- Node15 -->
<g id="Node000015" class="node">
<title>Node15</title>
<g id="a_Node000015"><a xlink:title=" ">
<polygon fill="#e0e0e0" stroke="#999999" points="108,-74 0,-74 0,-55 108,-55 108,-74"/>
<text text-anchor="middle" x="54" y="-62" font-family="Helvetica,sans-Serif" font-size="10.00">gdk/gdkkeysyms.h</text>
</a>
</g>
</g>
<!-- Node2&#45;&gt;Node15 -->
<g id="edge14_Node000002_Node000015" class="edge">
<title>Node2&#45;&gt;Node15</title>
<g id="a_edge14_Node000002_Node000015"><a xlink:title=" ">
<path fill="none" stroke="#63b8ff" d="M1010.88,-111.62C1007.56,-110.98 1004.22,-110.42 1001,-110 614.45,-59.31 510.48,-107.49 118.46,-74.03"/>
<polygon fill="#63b8ff" stroke="#63b8ff" points="118.52,-70.52 108.26,-73.15 117.92,-77.5 118.52,-70.52"/>
</a>
</g>
</g>
<!-- Node16 -->
<g id="Node000016" class="node">
<title>Node16</title>
<g id="a_Node000016"><a xlink:title=" ">
<polygon fill="#e0e0e0" stroke="#999999" points="259.5,-74 126.5,-74 126.5,-55 259.5,-55 259.5,-74"/>
<text text-anchor="middle" x="193" y="-62" font-family="Helvetica,sans-Serif" font-size="10.00">gdk&#45;pixbuf/gdk&#45;pixbuf.h</text>
</a>
</g>
</g>
<!-- Node2&#45;&gt;Node16 -->
<g id="edge15_Node000002_Node000016" class="edge">
<title>Node2&#45;&gt;Node16</title>
<g id="a_edge15_Node000002_Node000016"><a xlink:title=" ">
<path fill="none" stroke="#63b8ff" d="M1010.88,-111.65C1007.56,-111.01 1004.22,-110.44 1001,-110 681.09,-66.69 594.86,-99.69 269.81,-74.09"/>
<polygon fill="#63b8ff" stroke="#63b8ff" points="269.88,-70.58 259.63,-73.28 269.32,-77.56 269.88,-70.58"/>
</a>
</g>
</g>
<!-- Node17 -->
<g id="Node000017" class="node">
<title>Node17</title>
<g id="a_Node000017"><a xlink:title=" ">
<polygon fill="#e0e0e0" stroke="#999999" points="378.5,-74 277.5,-74 277.5,-55 378.5,-55 378.5,-74"/>
<text text-anchor="middle" x="328" y="-62" font-family="Helvetica,sans-Serif" font-size="10.00">pango/pangoft2.h</text>
</a>
</g>
</g>
<!-- Node2&#45;&gt;Node17 -->
<g id="edge16_Node000002_Node000017" class="edge">
<title>Node2&#45;&gt;Node17</title>
<g id="a_edge16_Node000002_Node000017"><a xlink:title=" ">
<path fill="none" stroke="#63b8ff" d="M1010.87,-111.68C1007.56,-111.03 1004.21,-110.45 1001,-110 734.03,-72.55 661.33,-100.46 388.9,-73.99"/>
<polygon fill="#63b8ff" stroke="#63b8ff" points="389,-70.48 378.7,-72.98 388.31,-77.45 389,-70.48"/>
</a>
</g>
</g>
<!-- Node18 -->
<g id="Node000018" class="node">
<title>Node18</title>
<g id="a_Node000018"><a xlink:title=" ">
<polygon fill="#e0e0e0" stroke="#999999" points="465,-74 397,-74 397,-55 465,-55 465,-74"/>
<text text-anchor="middle" x="431" y="-62" font-family="Helvetica,sans-Serif" font-size="10.00">epoxy/gl.h</text>
</a>
</g>
</g>
<!-- Node2&#45;&gt;Node18 -->
<g id="edge17_Node000002_Node000018" class="edge">
<title>Node2&#45;&gt;Node18</title>
<g id="a_edge17_Node000002_Node000018"><a xlink:title=" ">
<path fill="none" stroke="#63b8ff" d="M1010.87,-111.71C1007.55,-111.06 1004.21,-110.47 1001,-110 771.96,-76.76 708.52,-104.03 475.36,-74"/>
<polygon fill="#63b8ff" stroke="#63b8ff" points="475.57,-70.5 465.2,-72.67 474.66,-77.44 475.57,-70.5"/>
</a>
</g>
</g>
<!-- Node19 -->
<g id="Node000019" class="node">
<title>Node19</title>
<g id="a_Node000019"><a xlink:title=" ">
<polygon fill="#e0e0e0" stroke="#999999" points="539,-74 483,-74 483,-55 539,-55 539,-74"/>
<text text-anchor="middle" x="511" y="-62" font-family="Helvetica,sans-Serif" font-size="10.00">GL/glu.h</text>
</a>
</g>
</g>
<!-- Node2&#45;&gt;Node19 -->
<g id="edge18_Node000002_Node000019" class="edge">
<title>Node2&#45;&gt;Node19</title>
<g id="a_edge18_Node000002_Node000019"><a xlink:title=" ">
<path fill="none" stroke="#63b8ff" d="M1010.86,-111.74C1007.55,-111.09 1004.21,-110.48 1001,-110 804.51,-80.37 749.39,-103.91 549.16,-73.94"/>
<polygon fill="#63b8ff" stroke="#63b8ff" points="549.61,-70.47 539.2,-72.43 548.56,-77.39 549.61,-70.47"/>
</a>
</g>
</g>
<!-- Node20 -->
<g id="Node000020" class="node">
<title>Node20</title>
<g id="a_Node000020"><a xlink:title=" ">
<polygon fill="#e0e0e0" stroke="#999999" points="631,-74 557,-74 557,-55 631,-55 631,-74"/>
<text text-anchor="middle" x="594" y="-62" font-family="Helvetica,sans-Serif" font-size="10.00">epoxy/glx.h</text>
</a>
</g>
</g>
<!-- Node2&#45;&gt;Node20 -->
<g id="edge19_Node000002_Node000020" class="edge">
<title>Node2&#45;&gt;Node20</title>
<g id="a_edge19_Node000002_Node000020"><a xlink:title=" ">
<path fill="none" stroke="#63b8ff" d="M1010.85,-111.81C1007.54,-111.14 1004.2,-110.52 1001,-110 844.01,-84.6 802.63,-95.08 645,-74 643.72,-73.83 642.43,-73.65 641.13,-73.47"/>
<polygon fill="#63b8ff" stroke="#63b8ff" points="641.41,-69.97 631.01,-71.95 640.38,-76.89 641.41,-69.97"/>
</a>
</g>
</g>
<!-- Node21 -->
<g id="Node000021" class="node">
<title>Node21</title>
<g id="a_Node000021"><a xlink:href="../../dc/db0/math__3d_8h.html" target="_top" xlink:title="Functions for OpenGL math.">
<polygon fill="white" stroke="#666666" points="755,-74 687,-74 687,-55 755,-55 755,-74"/>
<text text-anchor="middle" x="721" y="-62" font-family="Helvetica,sans-Serif" font-size="10.00">math_3d.h</text>
</a>
</g>
</g>
<!-- Node2&#45;&gt;Node21 -->
<g id="edge20_Node000002_Node000021" class="edge">
<title>Node2&#45;&gt;Node21</title>
<g id="a_edge20_Node000002_Node000021"><a xlink:title=" ">
<path fill="none" stroke="#63b8ff" d="M1010.82,-111.97C1007.52,-111.27 1004.19,-110.6 1001,-110 899.45,-90.95 870.68,-92.24 765.34,-74.16"/>
<polygon fill="#63b8ff" stroke="#63b8ff" points="765.69,-70.67 755.24,-72.41 764.5,-77.57 765.69,-70.67"/>
</a>
</g>
</g>
<!-- Node22 -->
<g id="Node000022" class="node">
<title>Node22</title>
<g id="a_Node000022"><a xlink:href="../../da/d7e/glwin_8h.html" target="_top" xlink:title="Variable declarations related the OpenGL window &#160;&#160;Data structure declarations related the OpenGL wind...">
<polygon fill="white" stroke="#666666" points="1565,-74 1513,-74 1513,-55 1565,-55 1565,-74"/>
<text text-anchor="middle" x="1539" y="-62" font-family="Helvetica,sans-Serif" font-size="10.00">glwin.h</text>
</a>
</g>
</g>
<!-- Node2&#45;&gt;Node22 -->
<g id="edge23_Node000002_Node000022" class="edge">
<title>Node2&#45;&gt;Node22</title>
<g id="a_edge23_Node000002_Node000022"><a xlink:title=" ">
<path fill="none" stroke="#63b8ff" d="M1067.23,-117.21C1138.62,-113.63 1332.29,-102.09 1502.81,-73.97"/>
<polygon fill="#63b8ff" stroke="#63b8ff" points="1503.42,-77.41 1512.71,-72.31 1502.27,-70.51 1503.42,-77.41"/>
</a>
</g>
</g>
<!-- Node24 -->
<g id="Node000024" class="node">
<title>Node24</title>
<g id="a_Node000024"><a xlink:title=" ">
<polygon fill="#e0e0e0" stroke="#999999" points="839,-74 773,-74 773,-55 839,-55 839,-74"/>
<text text-anchor="middle" x="806" y="-62" font-family="Helvetica,sans-Serif" font-size="10.00">gtk/gtkx.h</text>
</a>
</g>
</g>
<!-- Node2&#45;&gt;Node24 -->
<g id="edge25_Node000002_Node000024" class="edge">
<title>Node2&#45;&gt;Node24</title>
<g id="a_edge25_Node000002_Node000024"><a xlink:title=" ">
<path fill="none" stroke="#63b8ff" d="M1010.89,-112.11C970.64,-102.95 896.22,-86.02 849.01,-75.28"/>
<polygon fill="#63b8ff" stroke="#63b8ff" points="849.61,-71.83 839.08,-73.03 848.06,-78.66 849.61,-71.83"/>
</a>
</g>
</g>
<!-- Node21&#45;&gt;Node8 -->
<g id="edge22_Node000021_Node000008" class="edge">
<title>Node21&#45;&gt;Node8</title>
<g id="a_edge22_Node000021_Node000008"><a xlink:title=" ">
<path fill="none" stroke="#63b8ff" d="M715.88,-54.75C711.64,-47.49 705.47,-36.95 700.22,-27.98"/>
<polygon fill="#63b8ff" stroke="#63b8ff" points="703.09,-25.95 695.02,-19.09 697.05,-29.49 703.09,-25.95"/>
</a>
</g>
</g>
<!-- Node21&#45;&gt;Node12 -->
<g id="edge21_Node000021_Node000012" class="edge">
<title>Node21&#45;&gt;Node12</title>
<g id="a_edge21_Node000021_Node000012"><a xlink:title=" ">
<path fill="none" stroke="#63b8ff" d="M755.26,-56.7C758.22,-56.12 761.16,-55.55 764,-55 835.02,-41.28 918.17,-25.72 964.39,-17.11"/>
<polygon fill="#63b8ff" stroke="#63b8ff" points="965.3,-20.5 974.49,-15.23 964.02,-13.62 965.3,-20.5"/>
</a>
</g>
</g>
<!-- Node23 -->
<g id="Node000023" class="node">
<title>Node23</title>
<g id="a_Node000023"><a xlink:href="../../d5/d9e/ogl__shading_8h.html" target="_top" xlink:title="Variable declarations related to GLSL programs &#160;&#160;Data structure declarations related to GLSL programs...">
<polygon fill="white" stroke="#666666" points="1581,-19 1497,-19 1497,0 1581,0 1581,-19"/>
<text text-anchor="middle" x="1539" y="-7" font-family="Helvetica,sans-Serif" font-size="10.00">ogl_shading.h</text>
</a>
</g>
</g>
<!-- Node22&#45;&gt;Node23 -->
<g id="edge24_Node000022_Node000023" class="edge">
<title>Node22&#45;&gt;Node23</title>
<g id="a_edge24_Node000022_Node000023"><a xlink:title=" ">
<path fill="none" stroke="#63b8ff" d="M1539,-54.75C1539,-47.8 1539,-37.85 1539,-29.13"/>
<polygon fill="#63b8ff" stroke="#63b8ff" points="1542.5,-29.09 1539,-19.09 1535.5,-29.09 1542.5,-29.09"/>
</a>
</g>
</g>
<!-- Node28&#45;&gt;Node2 -->
<g id="edge30_Node000028_Node000002" class="edge">
<title>Node28&#45;&gt;Node2</title>
<g id="a_edge30_Node000028_Node000002"><a xlink:title=" ">
<path fill="none" stroke="#63b8ff" d="M767.82,-167.99C820.32,-160.18 918.15,-145.05 1001,-129 1001.1,-128.98 1001.2,-128.96 1001.3,-128.94"/>
<polygon fill="#63b8ff" stroke="#63b8ff" points="1001.72,-132.43 1010.82,-126.99 1000.32,-125.57 1001.72,-132.43"/>
</a>
</g>
</g>
<!-- Node28&#45;&gt;Node25 -->
<g id="edge31_Node000028_Node000025" class="edge">
<title>Node28&#45;&gt;Node25</title>
<g id="a_edge31_Node000028_Node000025"><a xlink:title=" ">
<path fill="none" stroke="#63b8ff" d="M692.13,-169.96C632.32,-164.02 512.19,-150.72 401.67,-129.13"/>
<polygon fill="#63b8ff" stroke="#63b8ff" points="402.18,-125.66 391.69,-127.15 400.82,-132.52 402.18,-125.66"/>
</a>
</g>
</g>
<!-- Node28&#45;&gt;Node26 -->
<g id="edge33_Node000028_Node000026" class="edge">
<title>Node28&#45;&gt;Node26</title>
<g id="a_edge33_Node000028_Node000026"><a xlink:title=" ">
<path fill="none" stroke="#63b8ff" d="M692.09,-166.73C646.21,-158.49 566.36,-144.04 488.68,-129.3"/>
<polygon fill="#63b8ff" stroke="#63b8ff" points="489.2,-125.84 478.73,-127.41 487.9,-132.71 489.2,-125.84"/>
</a>
</g>
</g>
<!-- Node28&#45;&gt;Node27 -->
<g id="edge37_Node000028_Node000027" class="edge">
<title>Node28&#45;&gt;Node27</title>
<g id="a_edge37_Node000028_Node000027"><a xlink:title=" ">
<path fill="none" stroke="#63b8ff" d="M697.22,-164.98C661.35,-155.66 603.84,-140.72 565.5,-130.76"/>
<polygon fill="#63b8ff" stroke="#63b8ff" points="566.27,-127.35 555.71,-128.22 564.51,-134.12 566.27,-127.35"/>
</a>
</g>
</g>
<!-- Node29 -->
<g id="Node000029" class="node">
<title>Node29</title>
<g id="a_Node000029"><a xlink:href="../../dd/d49/callbacks_8h.html" target="_top" xlink:title="Callback declarations for main window.">
<polygon fill="white" stroke="#666666" points="992.5,-129 921.5,-129 921.5,-110 992.5,-110 992.5,-129"/>
<text text-anchor="middle" x="957" y="-117" font-family="Helvetica,sans-Serif" font-size="10.00">callbacks.h</text>
</a>
</g>
</g>
<!-- Node28&#45;&gt;Node29 -->
<g id="edge32_Node000028_Node000029" class="edge">
<title>Node28&#45;&gt;Node29</title>
<g id="a_edge32_Node000028_Node000029"><a xlink:title=" ">
<path fill="none" stroke="#63b8ff" d="M766.47,-164.98C805.92,-155.77 868.87,-141.08 911.52,-131.12"/>
<polygon fill="#63b8ff" stroke="#63b8ff" points="912.43,-134.5 921.37,-128.82 910.83,-127.68 912.43,-134.5"/>
</a>
</g>
</g>
<!-- Node30 -->
<g id="Node000030" class="node">
<title>Node30</title>
<g id="a_Node000030"><a xlink:href="../../d6/d75/initcoord_8h.html" target="_top" xlink:title="Function declarations to handle the atomic coordination data.">
<polygon fill="white" stroke="#666666" points="642,-129 574,-129 574,-110 642,-110 642,-129"/>
<text text-anchor="middle" x="608" y="-117" font-family="Helvetica,sans-Serif" font-size="10.00">initcoord.h</text>
</a>
</g>
</g>
<!-- Node28&#45;&gt;Node30 -->
<g id="edge34_Node000028_Node000030" class="edge">
<title>Node28&#45;&gt;Node30</title>
<g id="a_edge34_Node000028_Node000030"><a xlink:title=" ">
<path fill="none" stroke="#63b8ff" d="M710.4,-164.98C690.68,-156.42 660.05,-143.11 637.42,-133.28"/>
<polygon fill="#63b8ff" stroke="#63b8ff" points="638.52,-129.94 627.96,-129.17 635.74,-136.37 638.52,-129.94"/>
</a>
</g>
</g>
<!-- Node31 -->
<g id="Node000031" class="node">
<title>Node31</title>
<g id="a_Node000031"><a xlink:href="../../dc/de3/glview_8h.html" target="_top" xlink:title="Variable declarations related to the OpenGL window &#160;&#160;Function declarations related to the OpenGL wind...">
<polygon fill="white" stroke="#666666" points="717.5,-129 660.5,-129 660.5,-110 717.5,-110 717.5,-129"/>
<text text-anchor="middle" x="689" y="-117" font-family="Helvetica,sans-Serif" font-size="10.00">glview.h</text>
</a>
</g>
</g>
<!-- Node28&#45;&gt;Node31 -->
<g id="edge35_Node000028_Node000031" class="edge">
<title>Node28&#45;&gt;Node31</title>
<g id="a_edge35_Node000028_Node000031"><a xlink:title=" ">
<path fill="none" stroke="#63b8ff" d="M723.23,-164.75C717.44,-157.26 708.94,-146.28 701.86,-137.13"/>
<polygon fill="#63b8ff" stroke="#63b8ff" points="704.53,-134.86 695.64,-129.09 698.99,-139.14 704.53,-134.86"/>
</a>
</g>
</g>
<!-- Node32 -->
<g id="Node000032" class="node">
<title>Node32</title>
<g id="a_Node000032"><a xlink:href="../../d1/d2a/glwindow_8h.html" target="_top" xlink:title="Function declarations for the creation of the OpenGL window.">
<polygon fill="white" stroke="#666666" points="806.5,-129 735.5,-129 735.5,-110 806.5,-110 806.5,-129"/>
<text text-anchor="middle" x="771" y="-117" font-family="Helvetica,sans-Serif" font-size="10.00">glwindow.h</text>
</a>
</g>
</g>
<!-- Node28&#45;&gt;Node32 -->
<g id="edge36_Node000028_Node000032" class="edge">
<title>Node28&#45;&gt;Node32</title>
<g id="a_edge36_Node000028_Node000032"><a xlink:title=" ">
<path fill="none" stroke="#63b8ff" d="M736.77,-164.75C742.56,-157.26 751.06,-146.28 758.14,-137.13"/>
<polygon fill="#63b8ff" stroke="#63b8ff" points="761.01,-139.14 764.36,-129.09 755.47,-134.86 761.01,-139.14"/>
</a>
</g>
</g>
<!-- Node33 -->
<g id="Node000033" class="node">
<title>Node33</title>
<g id="a_Node000033"><a xlink:href="../../d4/de6/workspace_8h.html" target="_top" xlink:title="Function declarations for workspace managment.">
<polygon fill="white" stroke="#666666" points="903,-129 825,-129 825,-110 903,-110 903,-129"/>
<text text-anchor="middle" x="864" y="-117" font-family="Helvetica,sans-Serif" font-size="10.00">workspace.h</text>
</a>
</g>
</g>
<!-- Node28&#45;&gt;Node33 -->
<g id="edge38_Node000028_Node000033" class="edge">
<title>Node28&#45;&gt;Node33</title>
<g id="a_edge38_Node000028_Node000033"><a xlink:title=" ">
<path fill="none" stroke="#63b8ff" d="M751.53,-164.98C773.47,-156.3 807.74,-142.75 832.69,-132.88"/>
<polygon fill="#63b8ff" stroke="#63b8ff" points="834.07,-136.1 842.08,-129.17 831.49,-129.59 834.07,-136.1"/>
</a>
</g>
</g>
<!-- Node34&#45;&gt;Node2 -->
<g id="edge40_Node000034_Node000002" class="edge">
<title>Node34&#45;&gt;Node2</title>
<g id="a_edge40_Node000034_Node000002"><a xlink:title=" ">
<path fill="none" stroke="#63b8ff" d="M982.76,-164.98C992.77,-157.07 1007.89,-145.11 1019.93,-135.58"/>
<polygon fill="#63b8ff" stroke="#63b8ff" points="1022.37,-138.12 1028.04,-129.17 1018.03,-132.63 1022.37,-138.12"/>
</a>
</g>
</g>
<!-- Node35 -->
<g id="Node000035" class="node">
<title>Node35</title>
<g id="a_Node000035"><a xlink:title=" ">
<polygon fill="#e0e0e0" stroke="#999999" points="1853.5,-74 1744.5,-74 1744.5,-55 1853.5,-55 1853.5,-74"/>
<text text-anchor="middle" x="1799" y="-62" font-family="Helvetica,sans-Serif" font-size="10.00">libxml/xmlreader.h</text>
</a>
</g>
</g>
<!-- Node34&#45;&gt;Node35 -->
<g id="edge41_Node000034_Node000035" class="edge">
<title>Node34&#45;&gt;Node35</title>
<g id="a_edge41_Node000034_Node000035"><a xlink:title=" ">
<path fill="none" stroke="#63b8ff" d="M1011.53,-166.34C1014.39,-165.87 1017.24,-165.42 1020,-165 1333.89,-117.29 1416.25,-115.7 1734.4,-74.2"/>
<polygon fill="#63b8ff" stroke="#63b8ff" points="1734.91,-77.66 1744.37,-72.9 1734,-70.72 1734.91,-77.66"/>
</a>
</g>
</g>
<!-- Node37 -->
<g id="Node000037" class="node">
<title>Node37</title>
<g id="a_Node000037"><a xlink:href="../../dc/d50/read__isaacs_8h.html" target="_top" xlink:title="Function declarations to read / write ISAACS XML file.">
<polygon fill="white" stroke="#666666" points="1965.5,-129 1882.5,-129 1882.5,-110 1965.5,-110 1965.5,-129"/>
<text text-anchor="middle" x="1924" y="-117" font-family="Helvetica,sans-Serif" font-size="10.00">read_isaacs.h</text>
</a>
</g>
</g>
<!-- Node36&#45;&gt;Node37 -->
<g id="edge43_Node000036_Node000037" class="edge">
<title>Node36&#45;&gt;Node37</title>
<g id="a_edge43_Node000036_Node000037"><a xlink:title=" ">
<path fill="none" stroke="#63b8ff" d="M1091.36,-166.35C1094.27,-165.84 1097.18,-165.37 1100,-165 1390.04,-126.59 1741.71,-121.14 1872.1,-120.51"/>
<polygon fill="#63b8ff" stroke="#63b8ff" points="1872.22,-124.01 1882.2,-120.47 1872.19,-117.01 1872.22,-124.01"/>
</a>
</g>
</g>
<!-- Node37&#45;&gt;Node35 -->
<g id="edge46_Node000037_Node000035" class="edge">
<title>Node37&#45;&gt;Node35</title>
<g id="a_edge46_Node000037_Node000035"><a xlink:title=" ">
<path fill="none" stroke="#63b8ff" d="M1903.92,-109.98C1883.63,-101.38 1852.04,-87.99 1828.83,-78.15"/>
<polygon fill="#63b8ff" stroke="#63b8ff" points="1830.02,-74.85 1819.45,-74.17 1827.29,-81.3 1830.02,-74.85"/>
</a>
</g>
</g>
<!-- Node38 -->
<g id="Node000038" class="node">
<title>Node38</title>
<g id="a_Node000038"><a xlink:title=" ">
<polygon fill="#e0e0e0" stroke="#999999" points="1976,-74 1872,-74 1872,-55 1976,-55 1976,-74"/>
<text text-anchor="middle" x="1924" y="-62" font-family="Helvetica,sans-Serif" font-size="10.00">libxml/encoding.h</text>
</a>
</g>
</g>
<!-- Node37&#45;&gt;Node38 -->
<g id="edge44_Node000037_Node000038" class="edge">
<title>Node37&#45;&gt;Node38</title>
<g id="a_edge44_Node000037_Node000038"><a xlink:title=" ">
<path fill="none" stroke="#63b8ff" d="M1924,-109.75C1924,-102.8 1924,-92.85 1924,-84.13"/>
<polygon fill="#63b8ff" stroke="#63b8ff" points="1927.5,-84.09 1924,-74.09 1920.5,-84.09 1927.5,-84.09"/>
</a>
</g>
</g>
<!-- Node39 -->
<g id="Node000039" class="node">
<title>Node39</title>
<g id="a_Node000039"><a xlink:title=" ">
<polygon fill="#e0e0e0" stroke="#999999" points="2100,-74 1994,-74 1994,-55 2100,-55 2100,-74"/>
<text text-anchor="middle" x="2047" y="-62" font-family="Helvetica,sans-Serif" font-size="10.00">libxml/xmlwriter.h</text>
</a>
</g>
</g>
<!-- Node37&#45;&gt;Node39 -->
<g id="edge45_Node000037_Node000039" class="edge">
<title>Node37&#45;&gt;Node39</title>
<g id="a_edge45_Node000037_Node000039"><a xlink:title=" ">
<path fill="none" stroke="#63b8ff" d="M1943.76,-109.98C1963.73,-101.38 1994.8,-87.99 2017.65,-78.15"/>
<polygon fill="#63b8ff" stroke="#63b8ff" points="2019.08,-81.34 2026.88,-74.17 2016.31,-74.91 2019.08,-81.34"/>
</a>
</g>
</g>
<!-- Node40 -->
<g id="Node000040" class="node">
<title>Node40</title>
<g id="a_Node000040"><a xlink:title=" ">
<polygon fill="#e0e0e0" stroke="#999999" points="2207.5,-74 2118.5,-74 2118.5,-55 2207.5,-55 2207.5,-74"/>
<text text-anchor="middle" x="2163" y="-62" font-family="Helvetica,sans-Serif" font-size="10.00">libxml/parser.h</text>
</a>
</g>
</g>
<!-- Node37&#45;&gt;Node40 -->
<g id="edge47_Node000037_Node000040" class="edge">
<title>Node37&#45;&gt;Node40</title>
<g id="a_edge47_Node000037_Node000040"><a xlink:title=" ">
<path fill="none" stroke="#63b8ff" d="M1962.4,-109.98C2003.74,-100.82 2069.6,-86.21 2114.49,-76.26"/>
<polygon fill="#63b8ff" stroke="#63b8ff" points="2115.29,-79.66 2124.3,-74.08 2113.78,-72.83 2115.29,-79.66"/>
</a>
</g>
</g>
</g>
</svg>
