<?xml version="1.0" encoding="UTF-8" standalone="no"?>
<!DOCTYPE svg PUBLIC "-//W3C//DTD SVG 1.1//EN"
 "http://www.w3.org/Graphics/SVG/1.1/DTD/svg11.dtd">
<!-- Generated by graphviz version 9.0.0 (20230911.1827)
 -->
<!-- Title: project/readers/read_cif.c Pages: 1 -->
<svg width="2036pt" height="264pt"
 viewBox="0.00 0.00 2036.25 264.00" xmlns="http://www.w3.org/2000/svg" xmlns:xlink="http://www.w3.org/1999/xlink">
<g id="graph0" class="graph" transform="scale(1 1) rotate(0) translate(4 260)">
<title>project/readers/read_cif.c</title>
<!-- Node1 -->
<g id="Node000001" class="node">
<title>Node1</title>
<g id="a_Node000001"><a xlink:title="Functions to read CIF files.">
<polygon fill="#999999" stroke="#666666" points="738.5,-256 636.25,-256 636.25,-224 738.5,-224 738.5,-256"/>
<text text-anchor="start" x="644.25" y="-242.5" font-family="Helvetica,sans-Serif" font-size="10.00">project/readers/read</text>
<text text-anchor="middle" x="687.38" y="-230.5" font-family="Helvetica,sans-Serif" font-size="10.00">_cif.c</text>
</a>
</g>
</g>
<!-- Node2 -->
<g id="Node000002" class="node">
<title>Node2</title>
<g id="a_Node000002"><a xlink:href="../../d2/d49/global_8h.html" target="_top" xlink:title="Global variable declarations &#160;&#160;Global convenience function declarations &#160;&#160;Global data structure defin...">
<polygon fill="white" stroke="#666666" points="981.25,-132 931.5,-132 931.5,-112 981.25,-112 981.25,-132"/>
<text text-anchor="middle" x="956.38" y="-118.5" font-family="Helvetica,sans-Serif" font-size="10.00">global.h</text>
</a>
</g>
</g>
<!-- Node1&#45;&gt;Node2 -->
<g id="edge1_Node000001_Node000002" class="edge">
<title>Node1&#45;&gt;Node2</title>
<g id="a_edge1_Node000001_Node000002"><a xlink:title=" ">
<path fill="none" stroke="#63b8ff" d="M723.1,-223.6C775.82,-200.86 873.69,-158.66 924.26,-136.85"/>
<polygon fill="#63b8ff" stroke="#63b8ff" points="925.41,-140.17 933.2,-132.99 922.63,-133.74 925.41,-140.17"/>
</a>
</g>
</g>
<!-- Node25 -->
<g id="Node000025" class="node">
<title>Node25</title>
<g id="a_Node000025"><a xlink:href="../../da/dc2/bind_8h.html" target="_top" xlink:title="Binding to the Fortran90 subroutines.">
<polygon fill="white" stroke="#666666" points="357.5,-132 315.25,-132 315.25,-112 357.5,-112 357.5,-132"/>
<text text-anchor="middle" x="336.38" y="-118.5" font-family="Helvetica,sans-Serif" font-size="10.00">bind.h</text>
</a>
</g>
</g>
<!-- Node1&#45;&gt;Node25 -->
<g id="edge26_Node000001_Node000025" class="edge">
<title>Node1&#45;&gt;Node25</title>
<g id="a_edge26_Node000001_Node000025"><a xlink:title=" ">
<path fill="none" stroke="#63b8ff" d="M635.78,-224.99C600.77,-215.23 553.55,-201.58 512.38,-188 461.58,-171.24 403.52,-149.23 368.43,-135.61"/>
<polygon fill="#63b8ff" stroke="#63b8ff" points="369.88,-132.42 359.29,-132.05 367.34,-138.94 369.88,-132.42"/>
</a>
</g>
</g>
<!-- Node26 -->
<g id="Node000026" class="node">
<title>Node26</title>
<g id="a_Node000026"><a xlink:href="../../d4/da9/interface_8h.html" target="_top" xlink:title="Messaging function declarations.">
<polygon fill="white" stroke="#666666" points="437.25,-132 375.5,-132 375.5,-112 437.25,-112 437.25,-132"/>
<text text-anchor="middle" x="406.38" y="-118.5" font-family="Helvetica,sans-Serif" font-size="10.00">interface.h</text>
</a>
</g>
</g>
<!-- Node1&#45;&gt;Node26 -->
<g id="edge27_Node000001_Node000026" class="edge">
<title>Node1&#45;&gt;Node26</title>
<g id="a_edge27_Node000001_Node000026"><a xlink:title=" ">
<path fill="none" stroke="#63b8ff" d="M649.65,-223.51C625.07,-213.41 592.32,-199.94 563.38,-188 520.69,-170.38 471.5,-150.01 439.72,-136.83"/>
<polygon fill="#63b8ff" stroke="#63b8ff" points="441.22,-133.67 430.65,-133.07 438.54,-140.13 441.22,-133.67"/>
</a>
</g>
</g>
<!-- Node27 -->
<g id="Node000027" class="node">
<title>Node27</title>
<g id="a_Node000027"><a xlink:href="../../dc/d8d/project_8h.html" target="_top" xlink:title="Function declarations for reading atomes project file &#160;&#160;Function declarations for saving atomes proje...">
<polygon fill="white" stroke="#666666" points="509.12,-132 455.62,-132 455.62,-112 509.12,-112 509.12,-132"/>
<text text-anchor="middle" x="482.38" y="-118.5" font-family="Helvetica,sans-Serif" font-size="10.00">project.h</text>
</a>
</g>
</g>
<!-- Node1&#45;&gt;Node27 -->
<g id="edge28_Node000001_Node000027" class="edge">
<title>Node1&#45;&gt;Node27</title>
<g id="a_edge28_Node000001_Node000027"><a xlink:title=" ">
<path fill="none" stroke="#63b8ff" d="M660.15,-223.6C620.56,-201.19 547.57,-159.89 508.57,-137.82"/>
<polygon fill="#63b8ff" stroke="#63b8ff" points="510.72,-135.02 500.29,-133.14 507.27,-141.11 510.72,-135.02"/>
</a>
</g>
</g>
<!-- Node28 -->
<g id="Node000028" class="node">
<title>Node28</title>
<g id="a_Node000028"><a xlink:href="../../d5/d9c/atom__edit_8h.html" target="_top" xlink:title="Function declarations for the mode edition window.">
<polygon fill="white" stroke="#666666" points="689.88,-188 622.88,-188 622.88,-168 689.88,-168 689.88,-188"/>
<text text-anchor="middle" x="656.38" y="-174.5" font-family="Helvetica,sans-Serif" font-size="10.00">atom_edit.h</text>
</a>
</g>
</g>
<!-- Node1&#45;&gt;Node28 -->
<g id="edge29_Node000001_Node000028" class="edge">
<title>Node1&#45;&gt;Node28</title>
<g id="a_edge29_Node000001_Node000028"><a xlink:title=" ">
<path fill="none" stroke="#63b8ff" d="M679.39,-223.55C675.45,-215.91 670.64,-206.61 666.44,-198.49"/>
<polygon fill="#63b8ff" stroke="#63b8ff" points="669.63,-197.03 661.93,-189.75 663.41,-200.24 669.63,-197.03"/>
</a>
</g>
</g>
<!-- Node34 -->
<g id="Node000034" class="node">
<title>Node34</title>
<g id="a_Node000034"><a xlink:href="../../de/d8a/cbuild__edit_8h.html" target="_top" xlink:title="Function declarations for the crystal builder.">
<polygon fill="white" stroke="#666666" points="966.75,-188 896,-188 896,-168 966.75,-168 966.75,-188"/>
<text text-anchor="middle" x="931.38" y="-174.5" font-family="Helvetica,sans-Serif" font-size="10.00">cbuild_edit.h</text>
</a>
</g>
</g>
<!-- Node1&#45;&gt;Node34 -->
<g id="edge39_Node000001_Node000034" class="edge">
<title>Node1&#45;&gt;Node34</title>
<g id="a_edge39_Node000001_Node000034"><a xlink:title=" ">
<path fill="none" stroke="#63b8ff" d="M738.82,-226.35C781.98,-215.74 843.1,-200.71 884.82,-190.45"/>
<polygon fill="#63b8ff" stroke="#63b8ff" points="885.44,-193.9 894.31,-188.11 883.77,-187.1 885.44,-193.9"/>
</a>
</g>
</g>
<!-- Node36 -->
<g id="Node000036" class="node">
<title>Node36</title>
<g id="a_Node000036"><a xlink:href="../../d1/dfb/readers_8h.html" target="_top" xlink:title="Functions declaration to read atomic coordinates.">
<polygon fill="white" stroke="#666666" points="1041.62,-188 985.12,-188 985.12,-168 1041.62,-168 1041.62,-188"/>
<text text-anchor="middle" x="1013.38" y="-174.5" font-family="Helvetica,sans-Serif" font-size="10.00">readers.h</text>
</a>
</g>
</g>
<!-- Node1&#45;&gt;Node36 -->
<g id="edge42_Node000001_Node000036" class="edge">
<title>Node1&#45;&gt;Node36</title>
<g id="a_edge42_Node000001_Node000036"><a xlink:title=" ">
<path fill="none" stroke="#63b8ff" d="M738.79,-230.81C794.22,-221.77 885.29,-206.34 973.73,-188.24"/>
<polygon fill="#63b8ff" stroke="#63b8ff" points="974.21,-191.71 983.3,-186.26 972.8,-184.86 974.21,-191.71"/>
</a>
</g>
</g>
<!-- Node41 -->
<g id="Node000041" class="node">
<title>Node41</title>
<g id="a_Node000041"><a xlink:title=" ">
<polygon fill="#e0e0e0" stroke="#999999" points="1107.5,-188 1059.25,-188 1059.25,-168 1107.5,-168 1107.5,-188"/>
<text text-anchor="middle" x="1083.38" y="-174.5" font-family="Helvetica,sans-Serif" font-size="10.00">ctype.h</text>
</a>
</g>
</g>
<!-- Node1&#45;&gt;Node41 -->
<g id="edge48_Node000001_Node000041" class="edge">
<title>Node1&#45;&gt;Node41</title>
<g id="a_edge48_Node000001_Node000041"><a xlink:title=" ">
<path fill="none" stroke="#63b8ff" d="M738.82,-233.85C807.28,-226.54 932.24,-211.61 1047.8,-188.31"/>
<polygon fill="#63b8ff" stroke="#63b8ff" points="1048.37,-191.77 1057.47,-186.34 1046.97,-184.91 1048.37,-191.77"/>
</a>
</g>
</g>
<!-- Node3 -->
<g id="Node000003" class="node">
<title>Node3</title>
<g id="a_Node000003"><a xlink:title=" ">
<polygon fill="#e0e0e0" stroke="#999999" points="830,-76 790.75,-76 790.75,-56 830,-56 830,-76"/>
<text text-anchor="middle" x="810.38" y="-62.5" font-family="Helvetica,sans-Serif" font-size="10.00">glib.h</text>
</a>
</g>
</g>
<!-- Node2&#45;&gt;Node3 -->
<g id="edge2_Node000002_Node000003" class="edge">
<title>Node2&#45;&gt;Node3</title>
<g id="a_edge2_Node000002_Node000003"><a xlink:title=" ">
<path fill="none" stroke="#63b8ff" d="M931.28,-111.72C906.31,-102.48 867.95,-88.3 841.16,-78.39"/>
<polygon fill="#63b8ff" stroke="#63b8ff" points="842.47,-75.14 831.88,-74.95 840.04,-81.7 842.47,-75.14"/>
</a>
</g>
</g>
<!-- Node4 -->
<g id="Node000004" class="node">
<title>Node4</title>
<g id="a_Node000004"><a xlink:title=" ">
<polygon fill="#e0e0e0" stroke="#999999" points="913.12,-76 847.62,-76 847.62,-56 913.12,-56 913.12,-76"/>
<text text-anchor="middle" x="880.38" y="-62.5" font-family="Helvetica,sans-Serif" font-size="10.00">glib/gi18n.h</text>
</a>
</g>
</g>
<!-- Node2&#45;&gt;Node4 -->
<g id="edge3_Node000002_Node000004" class="edge">
<title>Node2&#45;&gt;Node4</title>
<g id="a_edge3_Node000002_Node000004"><a xlink:title=" ">
<path fill="none" stroke="#63b8ff" d="M943.14,-111.59C932.09,-103.74 916.09,-92.38 903.02,-83.09"/>
<polygon fill="#63b8ff" stroke="#63b8ff" points="905.13,-80.3 894.95,-77.36 901.07,-86 905.13,-80.3"/>
</a>
</g>
</g>
<!-- Node5 -->
<g id="Node000005" class="node">
<title>Node5</title>
<g id="a_Node000005"><a xlink:title=" ">
<polygon fill="#e0e0e0" stroke="#999999" points="981.25,-76 931.5,-76 931.5,-56 981.25,-56 981.25,-76"/>
<text text-anchor="middle" x="956.38" y="-62.5" font-family="Helvetica,sans-Serif" font-size="10.00">locale.h</text>
</a>
</g>
</g>
<!-- Node2&#45;&gt;Node5 -->
<g id="edge4_Node000002_Node000005" class="edge">
<title>Node2&#45;&gt;Node5</title>
<g id="a_edge4_Node000002_Node000005"><a xlink:title=" ">
<path fill="none" stroke="#63b8ff" d="M956.38,-111.59C956.38,-105.01 956.38,-95.96 956.38,-87.73"/>
<polygon fill="#63b8ff" stroke="#63b8ff" points="959.88,-87.81 956.38,-77.81 952.88,-87.81 959.88,-87.81"/>
</a>
</g>
</g>
<!-- Node6 -->
<g id="Node000006" class="node">
<title>Node6</title>
<g id="a_Node000006"><a xlink:title=" ">
<polygon fill="#e0e0e0" stroke="#999999" points="1049.62,-76 999.12,-76 999.12,-56 1049.62,-56 1049.62,-76"/>
<text text-anchor="middle" x="1024.38" y="-62.5" font-family="Helvetica,sans-Serif" font-size="10.00">unistd.h</text>
</a>
</g>
</g>
<!-- Node2&#45;&gt;Node6 -->
<g id="edge5_Node000002_Node000006" class="edge">
<title>Node2&#45;&gt;Node6</title>
<g id="a_edge5_Node000002_Node000006"><a xlink:title=" ">
<path fill="none" stroke="#63b8ff" d="M968.22,-111.59C978.07,-103.77 992.31,-92.46 1003.98,-83.19"/>
<polygon fill="#63b8ff" stroke="#63b8ff" points="1005.83,-86.2 1011.48,-77.24 1001.47,-80.72 1005.83,-86.2"/>
</a>
</g>
</g>
<!-- Node7 -->
<g id="Node000007" class="node">
<title>Node7</title>
<g id="a_Node000007"><a xlink:title=" ">
<polygon fill="#e0e0e0" stroke="#999999" points="1115.5,-76 1067.25,-76 1067.25,-56 1115.5,-56 1115.5,-76"/>
<text text-anchor="middle" x="1091.38" y="-62.5" font-family="Helvetica,sans-Serif" font-size="10.00">string.h</text>
</a>
</g>
</g>
<!-- Node2&#45;&gt;Node7 -->
<g id="edge6_Node000002_Node000007" class="edge">
<title>Node2&#45;&gt;Node7</title>
<g id="a_edge6_Node000002_Node000007"><a xlink:title=" ">
<path fill="none" stroke="#63b8ff" d="M979.89,-111.59C1001.25,-103.05 1033.01,-90.35 1057.17,-80.68"/>
<polygon fill="#63b8ff" stroke="#63b8ff" points="1058.29,-84.01 1066.27,-77.04 1055.69,-77.51 1058.29,-84.01"/>
</a>
</g>
</g>
<!-- Node8 -->
<g id="Node000008" class="node">
<title>Node8</title>
<g id="a_Node000008"><a xlink:title=" ">
<polygon fill="#e0e0e0" stroke="#999999" points="735,-20 689.75,-20 689.75,0 735,0 735,-20"/>
<text text-anchor="middle" x="712.38" y="-6.5" font-family="Helvetica,sans-Serif" font-size="10.00">stdio.h</text>
</a>
</g>
</g>
<!-- Node2&#45;&gt;Node8 -->
<g id="edge7_Node000002_Node000008" class="edge">
<title>Node2&#45;&gt;Node8</title>
<g id="a_edge7_Node000002_Node000008"><a xlink:title=" ">
<path fill="none" stroke="#63b8ff" d="M931.19,-114.04C928.23,-113.31 925.24,-112.61 922.38,-112 873.71,-101.62 733.61,-113.91 701.38,-76 690.73,-63.48 695.49,-44.55 701.72,-30.34"/>
<polygon fill="#63b8ff" stroke="#63b8ff" points="704.78,-32.04 706.09,-21.53 698.51,-28.93 704.78,-32.04"/>
</a>
</g>
</g>
<!-- Node9 -->
<g id="Node000009" class="node">
<title>Node9</title>
<g id="a_Node000009"><a xlink:title=" ">
<polygon fill="#e0e0e0" stroke="#999999" points="1219.12,-76 1171.62,-76 1171.62,-56 1219.12,-56 1219.12,-76"/>
<text text-anchor="middle" x="1195.38" y="-62.5" font-family="Helvetica,sans-Serif" font-size="10.00">stdlib.h</text>
</a>
</g>
</g>
<!-- Node2&#45;&gt;Node9 -->
<g id="edge8_Node000002_Node000009" class="edge">
<title>Node2&#45;&gt;Node9</title>
<g id="a_edge8_Node000002_Node000009"><a xlink:title=" ">
<path fill="none" stroke="#63b8ff" d="M981.47,-115.49C1019.53,-107.1 1094.13,-90.57 1157.38,-76 1158.36,-75.77 1159.35,-75.54 1160.36,-75.31"/>
<polygon fill="#63b8ff" stroke="#63b8ff" points="1160.85,-78.79 1169.79,-73.1 1159.25,-71.97 1160.85,-78.79"/>
</a>
</g>
</g>
<!-- Node10 -->
<g id="Node000010" class="node">
<title>Node10</title>
<g id="a_Node000010"><a xlink:title=" ">
<polygon fill="#e0e0e0" stroke="#999999" points="1303.88,-76 1236.88,-76 1236.88,-56 1303.88,-56 1303.88,-76"/>
<text text-anchor="middle" x="1270.38" y="-62.5" font-family="Helvetica,sans-Serif" font-size="10.00">sys/types.h</text>
</a>
</g>
</g>
<!-- Node2&#45;&gt;Node10 -->
<g id="edge9_Node000002_Node000010" class="edge">
<title>Node2&#45;&gt;Node10</title>
<g id="a_edge9_Node000002_Node000010"><a xlink:title=" ">
<path fill="none" stroke="#63b8ff" d="M981.57,-117.24C1027.84,-110.24 1129.7,-94.44 1225.17,-76.54"/>
<polygon fill="#63b8ff" stroke="#63b8ff" points="1225.81,-79.98 1234.99,-74.69 1224.51,-73.11 1225.81,-79.98"/>
</a>
</g>
</g>
<!-- Node11 -->
<g id="Node000011" class="node">
<title>Node11</title>
<g id="a_Node000011"><a xlink:title=" ">
<polygon fill="#e0e0e0" stroke="#999999" points="1381.12,-76 1321.62,-76 1321.62,-56 1381.12,-56 1381.12,-76"/>
<text text-anchor="middle" x="1351.38" y="-62.5" font-family="Helvetica,sans-Serif" font-size="10.00">sys/stat.h</text>
</a>
</g>
</g>
<!-- Node2&#45;&gt;Node11 -->
<g id="edge10_Node000002_Node000011" class="edge">
<title>Node2&#45;&gt;Node11</title>
<g id="a_edge10_Node000002_Node000011"><a xlink:title=" ">
<path fill="none" stroke="#63b8ff" d="M981.54,-118.7C1038.29,-113.33 1180.72,-98.81 1309.94,-76.27"/>
<polygon fill="#63b8ff" stroke="#63b8ff" points="1310.47,-79.73 1319.71,-74.54 1309.26,-72.84 1310.47,-79.73"/>
</a>
</g>
</g>
<!-- Node12 -->
<g id="Node000012" class="node">
<title>Node12</title>
<g id="a_Node000012"><a xlink:title=" ">
<polygon fill="#e0e0e0" stroke="#999999" points="983.38,-20 937.38,-20 937.38,0 983.38,0 983.38,-20"/>
<text text-anchor="middle" x="960.38" y="-6.5" font-family="Helvetica,sans-Serif" font-size="10.00">math.h</text>
</a>
</g>
</g>
<!-- Node2&#45;&gt;Node12 -->
<g id="edge11_Node000002_Node000012" class="edge">
<title>Node2&#45;&gt;Node12</title>
<g id="a_edge11_Node000002_Node000012"><a xlink:title=" ">
<path fill="none" stroke="#63b8ff" d="M981.64,-117.97C1024.15,-112.3 1107.05,-98.58 1124.38,-76 1159.7,-29.97 1052.93,-16.47 995.03,-12.56"/>
<polygon fill="#63b8ff" stroke="#63b8ff" points="995.52,-9.09 985.33,-11.97 995.1,-16.07 995.52,-9.09"/>
</a>
</g>
</g>
<!-- Node13 -->
<g id="Node000013" class="node">
<title>Node13</title>
<g id="a_Node000013"><a xlink:title=" ">
<polygon fill="#e0e0e0" stroke="#999999" points="1518.5,-76 1464.25,-76 1464.25,-56 1518.5,-56 1518.5,-76"/>
<text text-anchor="middle" x="1491.38" y="-62.5" font-family="Helvetica,sans-Serif" font-size="10.00">gtk/gtk.h</text>
</a>
</g>
</g>
<!-- Node2&#45;&gt;Node13 -->
<g id="edge12_Node000002_Node000013" class="edge">
<title>Node2&#45;&gt;Node13</title>
<g id="a_edge12_Node000002_Node000013"><a xlink:title=" ">
<path fill="none" stroke="#63b8ff" d="M981.68,-120.04C1053.72,-117.03 1266.22,-106.23 1452.87,-75.97"/>
<polygon fill="#63b8ff" stroke="#63b8ff" points="1453.2,-79.47 1462.5,-74.39 1452.06,-72.56 1453.2,-79.47"/>
</a>
</g>
</g>
<!-- Node14 -->
<g id="Node000014" class="node">
<title>Node14</title>
<g id="a_Node000014"><a xlink:title=" ">
<polygon fill="#e0e0e0" stroke="#999999" points="1596.12,-76 1536.62,-76 1536.62,-56 1596.12,-56 1596.12,-76"/>
<text text-anchor="middle" x="1566.38" y="-62.5" font-family="Helvetica,sans-Serif" font-size="10.00">gtk/gtkx.h</text>
</a>
</g>
</g>
<!-- Node2&#45;&gt;Node14 -->
<g id="edge13_Node000002_Node000014" class="edge">
<title>Node2&#45;&gt;Node14</title>
<g id="a_edge13_Node000002_Node000014"><a xlink:title=" ">
<path fill="none" stroke="#63b8ff" d="M981.57,-120.34C1060.39,-118.02 1309.33,-108.55 1525.01,-76.13"/>
<polygon fill="#63b8ff" stroke="#63b8ff" points="1525.37,-79.62 1534.73,-74.65 1524.32,-72.7 1525.37,-79.62"/>
</a>
</g>
</g>
<!-- Node15 -->
<g id="Node000015" class="node">
<title>Node15</title>
<g id="a_Node000015"><a xlink:title=" ">
<polygon fill="#e0e0e0" stroke="#999999" points="58.75,-76 0,-76 0,-56 58.75,-56 58.75,-76"/>
<text text-anchor="middle" x="29.38" y="-62.5" font-family="Helvetica,sans-Serif" font-size="10.00">gdk/gdk.h</text>
</a>
</g>
</g>
<!-- Node2&#45;&gt;Node15 -->
<g id="edge14_Node000002_Node000015" class="edge">
<title>Node2&#45;&gt;Node15</title>
<g id="a_edge14_Node000002_Node000015"><a xlink:title=" ">
<path fill="none" stroke="#63b8ff" d="M931.25,-113.7C928.28,-113.03 925.27,-112.44 922.38,-112 550.44,-55.62 446.86,-125.54 70.3,-75.95"/>
<polygon fill="#63b8ff" stroke="#63b8ff" points="70.96,-72.51 60.58,-74.65 70.03,-79.45 70.96,-72.51"/>
</a>
</g>
</g>
<!-- Node16 -->
<g id="Node000016" class="node">
<title>Node16</title>
<g id="a_Node000016"><a xlink:title=" ">
<polygon fill="#e0e0e0" stroke="#999999" points="175.62,-76 77.12,-76 77.12,-56 175.62,-56 175.62,-76"/>
<text text-anchor="middle" x="126.38" y="-62.5" font-family="Helvetica,sans-Serif" font-size="10.00">gdk/gdkkeysyms.h</text>
</a>
</g>
</g>
<!-- Node2&#45;&gt;Node16 -->
<g id="edge15_Node000002_Node000016" class="edge">
<title>Node2&#45;&gt;Node16</title>
<g id="a_edge15_Node000002_Node000016"><a xlink:title=" ">
<path fill="none" stroke="#63b8ff" d="M931.25,-113.72C928.28,-113.05 925.27,-112.45 922.38,-112 601.5,-62.27 513.06,-108.17 187.2,-76.17"/>
<polygon fill="#63b8ff" stroke="#63b8ff" points="187.81,-72.72 177.51,-75.2 187.11,-79.68 187.81,-72.72"/>
</a>
</g>
</g>
<!-- Node17 -->
<g id="Node000017" class="node">
<title>Node17</title>
<g id="a_Node000017"><a xlink:title=" ">
<polygon fill="#e0e0e0" stroke="#999999" points="311,-76 193.75,-76 193.75,-56 311,-56 311,-76"/>
<text text-anchor="middle" x="252.38" y="-62.5" font-family="Helvetica,sans-Serif" font-size="10.00">gdk&#45;pixbuf/gdk&#45;pixbuf.h</text>
</a>
</g>
</g>
<!-- Node2&#45;&gt;Node17 -->
<g id="edge16_Node000002_Node000017" class="edge">
<title>Node2&#45;&gt;Node17</title>
<g id="a_edge16_Node000002_Node000017"><a xlink:title=" ">
<path fill="none" stroke="#63b8ff" d="M931.24,-113.75C928.27,-113.07 925.27,-112.46 922.38,-112 660.92,-70.02 588.57,-101.02 322.36,-76.21"/>
<polygon fill="#63b8ff" stroke="#63b8ff" points="322.97,-72.75 312.68,-75.29 322.3,-79.72 322.97,-72.75"/>
</a>
</g>
</g>
<!-- Node18 -->
<g id="Node000018" class="node">
<title>Node18</title>
<g id="a_Node000018"><a xlink:title=" ">
<polygon fill="#e0e0e0" stroke="#999999" points="419.88,-76 328.88,-76 328.88,-56 419.88,-56 419.88,-76"/>
<text text-anchor="middle" x="374.38" y="-62.5" font-family="Helvetica,sans-Serif" font-size="10.00">pango/pangoft2.h</text>
</a>
</g>
</g>
<!-- Node2&#45;&gt;Node18 -->
<g id="edge17_Node000002_Node000018" class="edge">
<title>Node2&#45;&gt;Node18</title>
<g id="a_edge17_Node000002_Node000018"><a xlink:title=" ">
<path fill="none" stroke="#63b8ff" d="M931.24,-113.79C928.27,-113.1 925.27,-112.48 922.38,-112 708.86,-76.28 648.94,-101.26 431.44,-76.26"/>
<polygon fill="#63b8ff" stroke="#63b8ff" points="432.13,-72.82 421.79,-75.13 431.32,-79.77 432.13,-72.82"/>
</a>
</g>
</g>
<!-- Node19 -->
<g id="Node000019" class="node">
<title>Node19</title>
<g id="a_Node000019"><a xlink:title=" ">
<polygon fill="#e0e0e0" stroke="#999999" points="498.88,-76 437.88,-76 437.88,-56 498.88,-56 498.88,-76"/>
<text text-anchor="middle" x="468.38" y="-62.5" font-family="Helvetica,sans-Serif" font-size="10.00">epoxy/gl.h</text>
</a>
</g>
</g>
<!-- Node2&#45;&gt;Node19 -->
<g id="edge18_Node000002_Node000019" class="edge">
<title>Node2&#45;&gt;Node19</title>
<g id="a_edge18_Node000002_Node000019"><a xlink:title=" ">
<path fill="none" stroke="#63b8ff" d="M931.23,-113.83C928.26,-113.14 925.26,-112.5 922.38,-112 744.07,-80.89 692.92,-103.39 510.64,-76.13"/>
<polygon fill="#63b8ff" stroke="#63b8ff" points="511.22,-72.67 500.8,-74.62 510.16,-79.59 511.22,-72.67"/>
</a>
</g>
</g>
<!-- Node20 -->
<g id="Node000020" class="node">
<title>Node20</title>
<g id="a_Node000020"><a xlink:title=" ">
<polygon fill="#e0e0e0" stroke="#999999" points="569.75,-76 517,-76 517,-56 569.75,-56 569.75,-76"/>
<text text-anchor="middle" x="543.38" y="-62.5" font-family="Helvetica,sans-Serif" font-size="10.00">GL/glu.h</text>
</a>
</g>
</g>
<!-- Node2&#45;&gt;Node20 -->
<g id="edge19_Node000002_Node000020" class="edge">
<title>Node2&#45;&gt;Node20</title>
<g id="a_edge19_Node000002_Node000020"><a xlink:title=" ">
<path fill="none" stroke="#63b8ff" d="M931.22,-113.88C928.25,-113.18 925.26,-112.53 922.38,-112 775.15,-84.95 732.32,-101.82 581.1,-76.04"/>
<polygon fill="#63b8ff" stroke="#63b8ff" points="581.97,-72.63 571.51,-74.36 580.76,-79.53 581.97,-72.63"/>
</a>
</g>
</g>
<!-- Node21 -->
<g id="Node000021" class="node">
<title>Node21</title>
<g id="a_Node000021"><a xlink:title=" ">
<polygon fill="#e0e0e0" stroke="#999999" points="654.5,-76 588.25,-76 588.25,-56 654.5,-56 654.5,-76"/>
<text text-anchor="middle" x="621.38" y="-62.5" font-family="Helvetica,sans-Serif" font-size="10.00">epoxy/glx.h</text>
</a>
</g>
</g>
<!-- Node2&#45;&gt;Node21 -->
<g id="edge20_Node000002_Node000021" class="edge">
<title>Node2&#45;&gt;Node21</title>
<g id="a_edge20_Node000002_Node000021"><a xlink:title=" ">
<path fill="none" stroke="#63b8ff" d="M931.2,-113.98C928.24,-113.26 925.25,-112.58 922.38,-112 810.63,-89.37 780.84,-94.73 668.38,-76 667.56,-75.86 666.74,-75.73 665.91,-75.58"/>
<polygon fill="#63b8ff" stroke="#63b8ff" points="666.92,-72.21 656.46,-73.9 665.69,-79.1 666.92,-72.21"/>
</a>
</g>
</g>
<!-- Node22 -->
<g id="Node000022" class="node">
<title>Node22</title>
<g id="a_Node000022"><a xlink:href="../../dc/db0/math__3d_8h.html" target="_top" xlink:title="Functions for OpenGL math.">
<polygon fill="white" stroke="#666666" points="772.25,-76 710.5,-76 710.5,-56 772.25,-56 772.25,-76"/>
<text text-anchor="middle" x="741.38" y="-62.5" font-family="Helvetica,sans-Serif" font-size="10.00">math_3d.h</text>
</a>
</g>
</g>
<!-- Node2&#45;&gt;Node22 -->
<g id="edge21_Node000002_Node000022" class="edge">
<title>Node2&#45;&gt;Node22</title>
<g id="a_edge21_Node000002_Node000022"><a xlink:title=" ">
<path fill="none" stroke="#63b8ff" d="M931.14,-114.27C928.18,-113.5 925.21,-112.73 922.38,-112 874.77,-99.78 819.98,-86.23 783.26,-77.22"/>
<polygon fill="#63b8ff" stroke="#63b8ff" points="784.49,-73.92 773.95,-74.94 782.83,-80.72 784.49,-73.92"/>
</a>
</g>
</g>
<!-- Node23 -->
<g id="Node000023" class="node">
<title>Node23</title>
<g id="a_Node000023"><a xlink:href="../../da/d7e/glwin_8h.html" target="_top" xlink:title="Variable declarations related the OpenGL window &#160;&#160;Data structure declarations related the OpenGL wind...">
<polygon fill="white" stroke="#666666" points="1445.75,-76 1399,-76 1399,-56 1445.75,-56 1445.75,-76"/>
<text text-anchor="middle" x="1422.38" y="-62.5" font-family="Helvetica,sans-Serif" font-size="10.00">glwin.h</text>
</a>
</g>
</g>
<!-- Node2&#45;&gt;Node23 -->
<g id="edge24_Node000002_Node000023" class="edge">
<title>Node2&#45;&gt;Node23</title>
<g id="a_edge24_Node000002_Node000023"><a xlink:title=" ">
<path fill="none" stroke="#63b8ff" d="M981.55,-119.9C1047.06,-116.7 1228.34,-105.85 1387.76,-76.21"/>
<polygon fill="#63b8ff" stroke="#63b8ff" points="1388.05,-79.72 1397.23,-74.42 1386.75,-72.84 1388.05,-79.72"/>
</a>
</g>
</g>
<!-- Node22&#45;&gt;Node8 -->
<g id="edge23_Node000022_Node000008" class="edge">
<title>Node22&#45;&gt;Node8</title>
<g id="a_edge23_Node000022_Node000008"><a xlink:title=" ">
<path fill="none" stroke="#63b8ff" d="M736.32,-55.59C732.58,-48.63 727.35,-38.89 722.73,-30.29"/>
<polygon fill="#63b8ff" stroke="#63b8ff" points="725.9,-28.79 718.08,-21.63 719.73,-32.1 725.9,-28.79"/>
</a>
</g>
</g>
<!-- Node22&#45;&gt;Node12 -->
<g id="edge22_Node000022_Node000012" class="edge">
<title>Node22&#45;&gt;Node12</title>
<g id="a_edge22_Node000022_Node000012"><a xlink:title=" ">
<path fill="none" stroke="#63b8ff" d="M772.29,-57.38C812.81,-47.39 883.68,-29.91 925.9,-19.5"/>
<polygon fill="#63b8ff" stroke="#63b8ff" points="926.66,-22.92 935.53,-17.13 924.98,-16.12 926.66,-22.92"/>
</a>
</g>
</g>
<!-- Node24 -->
<g id="Node000024" class="node">
<title>Node24</title>
<g id="a_Node000024"><a xlink:href="../../d5/d9e/ogl__shading_8h.html" target="_top" xlink:title="Variable declarations related to GLSL programs &#160;&#160;Data structure declarations related to GLSL programs...">
<polygon fill="white" stroke="#666666" points="1460.38,-20 1384.38,-20 1384.38,0 1460.38,0 1460.38,-20"/>
<text text-anchor="middle" x="1422.38" y="-6.5" font-family="Helvetica,sans-Serif" font-size="10.00">ogl_shading.h</text>
</a>
</g>
</g>
<!-- Node23&#45;&gt;Node24 -->
<g id="edge25_Node000023_Node000024" class="edge">
<title>Node23&#45;&gt;Node24</title>
<g id="a_edge25_Node000023_Node000024"><a xlink:title=" ">
<path fill="none" stroke="#63b8ff" d="M1422.38,-55.59C1422.38,-49.01 1422.38,-39.96 1422.38,-31.73"/>
<polygon fill="#63b8ff" stroke="#63b8ff" points="1425.88,-31.81 1422.38,-21.81 1418.88,-31.81 1425.88,-31.81"/>
</a>
</g>
</g>
<!-- Node28&#45;&gt;Node2 -->
<g id="edge30_Node000028_Node000002" class="edge">
<title>Node28&#45;&gt;Node2</title>
<g id="a_edge30_Node000028_Node000002"><a xlink:title=" ">
<path fill="none" stroke="#63b8ff" d="M690.16,-172.29C738.83,-165.3 831.7,-151.13 920.15,-132.32"/>
<polygon fill="#63b8ff" stroke="#63b8ff" points="920.67,-135.79 929.71,-130.26 919.19,-128.94 920.67,-135.79"/>
</a>
</g>
</g>
<!-- Node28&#45;&gt;Node25 -->
<g id="edge31_Node000028_Node000025" class="edge">
<title>Node28&#45;&gt;Node25</title>
<g id="a_edge31_Node000028_Node000025"><a xlink:title=" ">
<path fill="none" stroke="#63b8ff" d="M622.6,-173.29C570.24,-167.21 466.16,-153.81 369.1,-132.36"/>
<polygon fill="#63b8ff" stroke="#63b8ff" points="369.91,-128.96 359.39,-130.18 368.38,-135.79 369.91,-128.96"/>
</a>
</g>
</g>
<!-- Node28&#45;&gt;Node26 -->
<g id="edge33_Node000028_Node000026" class="edge">
<title>Node28&#45;&gt;Node26</title>
<g id="a_edge33_Node000028_Node000026"><a xlink:title=" ">
<path fill="none" stroke="#63b8ff" d="M622.53,-169.86C583.11,-161.52 515.75,-147.19 448.21,-132.39"/>
<polygon fill="#63b8ff" stroke="#63b8ff" points="449.37,-129.06 438.86,-130.33 447.87,-135.9 449.37,-129.06"/>
</a>
</g>
</g>
<!-- Node28&#45;&gt;Node27 -->
<g id="edge37_Node000028_Node000027" class="edge">
<title>Node28&#45;&gt;Node27</title>
<g id="a_edge37_Node000028_Node000027"><a xlink:title=" ">
<path fill="none" stroke="#63b8ff" d="M626.07,-167.59C596.63,-158.46 551.85,-144.56 520.11,-134.71"/>
<polygon fill="#63b8ff" stroke="#63b8ff" points="521.51,-131.48 510.92,-131.86 519.44,-138.17 521.51,-131.48"/>
</a>
</g>
</g>
<!-- Node29 -->
<g id="Node000029" class="node">
<title>Node29</title>
<g id="a_Node000029"><a xlink:href="../../dd/d49/callbacks_8h.html" target="_top" xlink:title="Callback declarations for main window.">
<polygon fill="white" stroke="#666666" points="913.12,-132 847.62,-132 847.62,-112 913.12,-112 913.12,-132"/>
<text text-anchor="middle" x="880.38" y="-118.5" font-family="Helvetica,sans-Serif" font-size="10.00">callbacks.h</text>
</a>
</g>
</g>
<!-- Node28&#45;&gt;Node29 -->
<g id="edge32_Node000028_Node000029" class="edge">
<title>Node28&#45;&gt;Node29</title>
<g id="a_edge32_Node000028_Node000029"><a xlink:title=" ">
<path fill="none" stroke="#63b8ff" d="M689.91,-168.92C728.9,-159.52 793.38,-143.97 836.37,-133.61"/>
<polygon fill="#63b8ff" stroke="#63b8ff" points="836.97,-137.06 845.87,-131.32 835.33,-130.26 836.97,-137.06"/>
</a>
</g>
</g>
<!-- Node30 -->
<g id="Node000030" class="node">
<title>Node30</title>
<g id="a_Node000030"><a xlink:href="../../d6/d75/initcoord_8h.html" target="_top" xlink:title="Function declarations to handle the atomic coordination data.">
<polygon fill="white" stroke="#666666" points="587.88,-132 526.88,-132 526.88,-112 587.88,-112 587.88,-132"/>
<text text-anchor="middle" x="557.38" y="-118.5" font-family="Helvetica,sans-Serif" font-size="10.00">initcoord.h</text>
</a>
</g>
</g>
<!-- Node28&#45;&gt;Node30 -->
<g id="edge34_Node000028_Node000030" class="edge">
<title>Node28&#45;&gt;Node30</title>
<g id="a_edge34_Node000028_Node000030"><a xlink:title=" ">
<path fill="none" stroke="#63b8ff" d="M639.13,-167.59C624.03,-159.36 601.85,-147.26 584.39,-137.74"/>
<polygon fill="#63b8ff" stroke="#63b8ff" points="586.54,-134.92 576.08,-133.2 583.19,-141.07 586.54,-134.92"/>
</a>
</g>
</g>
<!-- Node31 -->
<g id="Node000031" class="node">
<title>Node31</title>
<g id="a_Node000031"><a xlink:href="../../dc/de3/glview_8h.html" target="_top" xlink:title="Variable declarations related to the OpenGL window &#160;&#160;Function declarations related to the OpenGL wind...">
<polygon fill="white" stroke="#666666" points="657,-132 605.75,-132 605.75,-112 657,-112 657,-132"/>
<text text-anchor="middle" x="631.38" y="-118.5" font-family="Helvetica,sans-Serif" font-size="10.00">glview.h</text>
</a>
</g>
</g>
<!-- Node28&#45;&gt;Node31 -->
<g id="edge35_Node000028_Node000031" class="edge">
<title>Node28&#45;&gt;Node31</title>
<g id="a_edge35_Node000028_Node000031"><a xlink:title=" ">
<path fill="none" stroke="#63b8ff" d="M652.02,-167.59C648.83,-160.7 644.39,-151.1 640.44,-142.57"/>
<polygon fill="#63b8ff" stroke="#63b8ff" points="643.69,-141.28 636.32,-133.67 637.34,-144.22 643.69,-141.28"/>
</a>
</g>
</g>
<!-- Node32 -->
<g id="Node000032" class="node">
<title>Node32</title>
<g id="a_Node000032"><a xlink:href="../../d1/d2a/glwindow_8h.html" target="_top" xlink:title="Function declarations for the creation of the OpenGL window.">
<polygon fill="white" stroke="#666666" points="739.38,-132 675.38,-132 675.38,-112 739.38,-112 739.38,-132"/>
<text text-anchor="middle" x="707.38" y="-118.5" font-family="Helvetica,sans-Serif" font-size="10.00">glwindow.h</text>
</a>
</g>
</g>
<!-- Node28&#45;&gt;Node32 -->
<g id="edge36_Node000028_Node000032" class="edge">
<title>Node28&#45;&gt;Node32</title>
<g id="a_edge36_Node000028_Node000032"><a xlink:title=" ">
<path fill="none" stroke="#63b8ff" d="M665.26,-167.59C672.28,-160.16 682.28,-149.58 690.77,-140.58"/>
<polygon fill="#63b8ff" stroke="#63b8ff" points="693.23,-143.07 697.55,-133.4 688.14,-138.27 693.23,-143.07"/>
</a>
</g>
</g>
<!-- Node33 -->
<g id="Node000033" class="node">
<title>Node33</title>
<g id="a_Node000033"><a xlink:href="../../d4/de6/workspace_8h.html" target="_top" xlink:title="Function declarations for workspace managment.">
<polygon fill="white" stroke="#666666" points="829.12,-132 757.62,-132 757.62,-112 829.12,-112 829.12,-132"/>
<text text-anchor="middle" x="793.38" y="-118.5" font-family="Helvetica,sans-Serif" font-size="10.00">workspace.h</text>
</a>
</g>
</g>
<!-- Node28&#45;&gt;Node33 -->
<g id="edge38_Node000028_Node000033" class="edge">
<title>Node28&#45;&gt;Node33</title>
<g id="a_edge38_Node000028_Node000033"><a xlink:title=" ">
<path fill="none" stroke="#63b8ff" d="M680.24,-167.59C701.91,-159.05 734.14,-146.35 758.67,-136.68"/>
<polygon fill="#63b8ff" stroke="#63b8ff" points="759.9,-139.96 767.92,-133.03 757.33,-133.45 759.9,-139.96"/>
</a>
</g>
</g>
<!-- Node34&#45;&gt;Node2 -->
<g id="edge40_Node000034_Node000002" class="edge">
<title>Node34&#45;&gt;Node2</title>
<g id="a_edge40_Node000034_Node000002"><a xlink:title=" ">
<path fill="none" stroke="#63b8ff" d="M935.73,-167.59C938.92,-160.7 943.36,-151.1 947.31,-142.57"/>
<polygon fill="#63b8ff" stroke="#63b8ff" points="950.41,-144.22 951.43,-133.67 944.06,-141.28 950.41,-144.22"/>
</a>
</g>
</g>
<!-- Node35 -->
<g id="Node000035" class="node">
<title>Node35</title>
<g id="a_Node000035"><a xlink:title=" ">
<polygon fill="#e0e0e0" stroke="#999999" points="1710.12,-76 1614.62,-76 1614.62,-56 1710.12,-56 1710.12,-76"/>
<text text-anchor="middle" x="1662.38" y="-62.5" font-family="Helvetica,sans-Serif" font-size="10.00">libxml/xmlreader.h</text>
</a>
</g>
</g>
<!-- Node34&#45;&gt;Node35 -->
<g id="edge41_Node000034_Node000035" class="edge">
<title>Node34&#45;&gt;Node35</title>
<g id="a_edge41_Node000034_Node000035"><a xlink:title=" ">
<path fill="none" stroke="#63b8ff" d="M967.2,-169.66C970.3,-169.08 973.39,-168.52 976.38,-168 1251.1,-120.47 1324.14,-118.52 1602.9,-76.36"/>
<polygon fill="#63b8ff" stroke="#63b8ff" points="1603.32,-79.84 1612.68,-74.88 1602.27,-72.92 1603.32,-79.84"/>
</a>
</g>
</g>
<!-- Node37 -->
<g id="Node000037" class="node">
<title>Node37</title>
<g id="a_Node000037"><a xlink:href="../../dc/d50/read__isaacs_8h.html" target="_top" xlink:title="Function declarations to read / write ISAACS XML file.">
<polygon fill="white" stroke="#666666" points="1812.75,-132 1736,-132 1736,-112 1812.75,-112 1812.75,-132"/>
<text text-anchor="middle" x="1774.38" y="-118.5" font-family="Helvetica,sans-Serif" font-size="10.00">read_isaacs.h</text>
</a>
</g>
</g>
<!-- Node36&#45;&gt;Node37 -->
<g id="edge43_Node000036_Node000037" class="edge">
<title>Node36&#45;&gt;Node37</title>
<g id="a_edge43_Node000036_Node000037"><a xlink:title=" ">
<path fill="none" stroke="#63b8ff" d="M1041.96,-169.52C1044.79,-168.94 1047.63,-168.42 1050.38,-168 1301.37,-129.98 1605.98,-123.93 1724.16,-123.08"/>
<polygon fill="#63b8ff" stroke="#63b8ff" points="1724.17,-126.58 1734.15,-123.02 1724.13,-119.58 1724.17,-126.58"/>
</a>
</g>
</g>
<!-- Node37&#45;&gt;Node35 -->
<g id="edge46_Node000037_Node000035" class="edge">
<title>Node37&#45;&gt;Node35</title>
<g id="a_edge46_Node000037_Node000035"><a xlink:title=" ">
<path fill="none" stroke="#63b8ff" d="M1754.87,-111.59C1737.63,-103.28 1712.22,-91.03 1692.39,-81.47"/>
<polygon fill="#63b8ff" stroke="#63b8ff" points="1693.93,-78.33 1683.4,-77.14 1690.89,-84.63 1693.93,-78.33"/>
</a>
</g>
</g>
<!-- Node38 -->
<g id="Node000038" class="node">
<title>Node38</title>
<g id="a_Node000038"><a xlink:title=" ">
<polygon fill="#e0e0e0" stroke="#999999" points="1820.25,-76 1728.5,-76 1728.5,-56 1820.25,-56 1820.25,-76"/>
<text text-anchor="middle" x="1774.38" y="-62.5" font-family="Helvetica,sans-Serif" font-size="10.00">libxml/encoding.h</text>
</a>
</g>
</g>
<!-- Node37&#45;&gt;Node38 -->
<g id="edge44_Node000037_Node000038" class="edge">
<title>Node37&#45;&gt;Node38</title>
<g id="a_edge44_Node000037_Node000038"><a xlink:title=" ">
<path fill="none" stroke="#63b8ff" d="M1774.38,-111.59C1774.38,-105.01 1774.38,-95.96 1774.38,-87.73"/>
<polygon fill="#63b8ff" stroke="#63b8ff" points="1777.88,-87.81 1774.38,-77.81 1770.88,-87.81 1777.88,-87.81"/>
</a>
</g>
</g>
<!-- Node39 -->
<g id="Node000039" class="node">
<title>Node39</title>
<g id="a_Node000039"><a xlink:title=" ">
<polygon fill="#e0e0e0" stroke="#999999" points="1930.62,-76 1838.12,-76 1838.12,-56 1930.62,-56 1930.62,-76"/>
<text text-anchor="middle" x="1884.38" y="-62.5" font-family="Helvetica,sans-Serif" font-size="10.00">libxml/xmlwriter.h</text>
</a>
</g>
</g>
<!-- Node37&#45;&gt;Node39 -->
<g id="edge45_Node000037_Node000039" class="edge">
<title>Node37&#45;&gt;Node39</title>
<g id="a_edge45_Node000037_Node000039"><a xlink:title=" ">
<path fill="none" stroke="#63b8ff" d="M1793.54,-111.59C1810.47,-103.28 1835.42,-91.03 1854.9,-81.47"/>
<polygon fill="#63b8ff" stroke="#63b8ff" points="1856.27,-84.7 1863.71,-77.15 1853.19,-78.41 1856.27,-84.7"/>
</a>
</g>
</g>
<!-- Node40 -->
<g id="Node000040" class="node">
<title>Node40</title>
<g id="a_Node000040"><a xlink:title=" ">
<polygon fill="#e0e0e0" stroke="#999999" points="2028.25,-76 1948.5,-76 1948.5,-56 2028.25,-56 2028.25,-76"/>
<text text-anchor="middle" x="1988.38" y="-62.5" font-family="Helvetica,sans-Serif" font-size="10.00">libxml/parser.h</text>
</a>
</g>
</g>
<!-- Node37&#45;&gt;Node40 -->
<g id="edge47_Node000037_Node000040" class="edge">
<title>Node37&#45;&gt;Node40</title>
<g id="a_edge47_Node000037_Node000040"><a xlink:title=" ">
<path fill="none" stroke="#63b8ff" d="M1811.65,-111.59C1847.18,-102.63 1900.88,-89.08 1939.76,-79.27"/>
<polygon fill="#63b8ff" stroke="#63b8ff" points="1940.5,-82.69 1949.34,-76.85 1938.79,-75.9 1940.5,-82.69"/>
</a>
</g>
</g>
</g>
</svg>
