<?xml version="1.0" encoding="UTF-8" standalone="no"?>
<!DOCTYPE svg PUBLIC "-//W3C//DTD SVG 1.1//EN"
 "http://www.w3.org/Graphics/SVG/1.1/DTD/svg11.dtd">
<!-- Generated by graphviz version 7.1.0 (0)
 -->
<!-- Title: Curve Pages: 1 -->
<svg width="413pt" height="338pt"
 viewBox="0.00 0.00 413.00 338.00" xmlns="http://www.w3.org/2000/svg" xmlns:xlink="http://www.w3.org/1999/xlink">
<g id="graph0" class="graph" transform="scale(1 1) rotate(0) translate(4 334)">
<title>Curve</title>
<!-- Node1 -->
<g id="node1" class="node">
<title>Node1</title>
<g id="a_node1"><a xlink:title=" ">
<polygon fill="#999999" stroke="#666666" points="185.5,-19 142.5,-19 142.5,0 185.5,0 185.5,-19"/>
<text text-anchor="middle" x="164" y="-7" font-family="Helvetica,sans-Serif" font-size="10.00">Curve</text>
</a>
</g>
</g>
<!-- Node2 -->
<g id="node2" class="node">
<title>Node2</title>
<g id="a_node2"><a xlink:href="../../d0/da3/structqint.html" target="_top" xlink:title=" ">
<polygon fill="white" stroke="#666666" points="32,-85 0,-85 0,-66 32,-66 32,-85"/>
<text text-anchor="middle" x="16" y="-73" font-family="Helvetica,sans-Serif" font-size="10.00">qint</text>
</a>
</g>
</g>
<!-- Node2&#45;&gt;Node1 -->
<g id="edge1" class="edge">
<title>Node2&#45;&gt;Node1</title>
<path fill="none" stroke="#9a32cd" stroke-dasharray="5,2" d="M14.92,-54.23C15.62,-47.98 17.57,-41.55 22,-37 38.36,-20.21 106.59,-13.81 142.18,-11.58"/>
<polygon fill="#9a32cd" stroke="#9a32cd" points="11.42,-53.94 14.79,-63.99 18.42,-54.04 11.42,-53.94"/>
<text text-anchor="middle" x="34" y="-40" font-family="Helvetica,sans-Serif" font-size="10.00"> idcol</text>
</g>
<!-- Node3 -->
<g id="node3" class="node">
<title>Node3</title>
<g id="a_node3"><a xlink:href="../../d1/d74/struct_col_r_g_b_a.html" target="_top" xlink:title=" ">
<polygon fill="white" stroke="#666666" points="106,-330 46,-330 46,-311 106,-311 106,-330"/>
<text text-anchor="middle" x="76" y="-318" font-family="Helvetica,sans-Serif" font-size="10.00">ColRGBA</text>
</a>
</g>
</g>
<!-- Node3&#45;&gt;Node1 -->
<g id="edge2" class="edge">
<title>Node3&#45;&gt;Node1</title>
<path fill="none" stroke="#9a32cd" stroke-dasharray="5,2" d="M68.5,-300.03C64.34,-287.51 60,-270.78 60,-255.5 60,-255.5 60,-255.5 60,-74.5 60,-36.23 111.7,-20.11 142.2,-13.93"/>
<polygon fill="#9a32cd" stroke="#9a32cd" points="65.1,-300.91 71.78,-309.14 71.69,-298.54 65.1,-300.91"/>
<text text-anchor="middle" x="98" y="-190" font-family="Helvetica,sans-Serif" font-size="10.00"> backcolor</text>
<text text-anchor="middle" x="98" y="-179" font-family="Helvetica,sans-Serif" font-size="10.00">frame_color</text>
<text text-anchor="middle" x="98" y="-168" font-family="Helvetica,sans-Serif" font-size="10.00">legend_box_color</text>
<text text-anchor="middle" x="98" y="-157" font-family="Helvetica,sans-Serif" font-size="10.00">legend_color</text>
<text text-anchor="middle" x="98" y="-146" font-family="Helvetica,sans-Serif" font-size="10.00">title_color</text>
</g>
<!-- Node4 -->
<g id="node4" class="node">
<title>Node4</title>
<g id="a_node4"><a xlink:href="../../d0/d5d/struct_data_layout.html" target="_top" xlink:title=" ">
<polygon fill="white" stroke="#666666" points="197.5,-264 130.5,-264 130.5,-245 197.5,-245 197.5,-264"/>
<text text-anchor="middle" x="164" y="-252" font-family="Helvetica,sans-Serif" font-size="10.00">DataLayout</text>
</a>
</g>
</g>
<!-- Node3&#45;&gt;Node4 -->
<g id="edge4" class="edge">
<title>Node3&#45;&gt;Node4</title>
<path fill="none" stroke="#9a32cd" stroke-dasharray="5,2" d="M97.46,-303.89C114.55,-291.46 137.86,-274.51 151.87,-264.32"/>
<polygon fill="#9a32cd" stroke="#9a32cd" points="95.49,-301 89.46,-309.71 99.61,-306.66 95.49,-301"/>
<text text-anchor="middle" x="147.5" y="-285" font-family="Helvetica,sans-Serif" font-size="10.00"> datacolor</text>
</g>
<!-- Node4&#45;&gt;Node1 -->
<g id="edge3" class="edge">
<title>Node4&#45;&gt;Node1</title>
<path fill="none" stroke="#9a32cd" stroke-dasharray="5,2" d="M164,-233.37C164,-183.18 164,-54.08 164,-19.26"/>
<polygon fill="#9a32cd" stroke="#9a32cd" points="160.5,-233.05 164,-243.05 167.5,-233.05 160.5,-233.05"/>
<text text-anchor="middle" x="179" y="-111.5" font-family="Helvetica,sans-Serif" font-size="10.00"> layout</text>
</g>
<!-- Node6 -->
<g id="node6" class="node">
<title>Node6</title>
<g id="a_node6"><a xlink:href="../../d8/dea/struct_curve_extra.html" target="_top" xlink:title=" ">
<polygon fill="white" stroke="#666666" points="258,-180 192,-180 192,-161 258,-161 258,-180"/>
<text text-anchor="middle" x="225" y="-168" font-family="Helvetica,sans-Serif" font-size="10.00">CurveExtra</text>
</a>
</g>
</g>
<!-- Node4&#45;&gt;Node6 -->
<g id="edge8" class="edge">
<title>Node4&#45;&gt;Node6</title>
<path fill="none" stroke="#9a32cd" stroke-dasharray="5,2" d="M177.19,-235.77C189.86,-218.74 208.49,-193.7 218.33,-180.46"/>
<polygon fill="#9a32cd" stroke="#9a32cd" points="174.59,-233.4 171.43,-243.51 180.21,-237.58 174.59,-233.4"/>
<text text-anchor="middle" x="206" y="-219" font-family="Helvetica,sans-Serif" font-size="10.00"> layout</text>
</g>
<!-- Node5 -->
<g id="node5" class="node">
<title>Node5</title>
<g id="a_node5"><a xlink:href="../../dd/d61/struct_extra_sets.html" target="_top" xlink:title=" ">
<polygon fill="white" stroke="#666666" points="253,-85 193,-85 193,-66 253,-66 253,-85"/>
<text text-anchor="middle" x="223" y="-73" font-family="Helvetica,sans-Serif" font-size="10.00">ExtraSets</text>
</a>
</g>
</g>
<!-- Node5&#45;&gt;Node1 -->
<g id="edge5" class="edge">
<title>Node5&#45;&gt;Node1</title>
<path fill="none" stroke="#9a32cd" stroke-dasharray="5,2" d="M207.31,-57.48C195.99,-45.2 181.17,-29.13 172.13,-19.32"/>
<polygon fill="#9a32cd" stroke="#9a32cd" points="204.42,-59.51 213.77,-64.49 209.57,-54.76 204.42,-59.51"/>
<text text-anchor="middle" x="213.5" y="-40" font-family="Helvetica,sans-Serif" font-size="10.00"> extrac</text>
</g>
<!-- Node6&#45;&gt;Node5 -->
<g id="edge6" class="edge">
<title>Node6&#45;&gt;Node5</title>
<path fill="none" stroke="#9a32cd" stroke-dasharray="5,2" d="M224.56,-149.1C224.13,-129.17 223.5,-99.76 223.19,-85.25"/>
<polygon fill="#9a32cd" stroke="#9a32cd" points="221.06,-149.15 224.78,-159.07 228.06,-149 221.06,-149.15"/>
<text text-anchor="middle" x="234" y="-117" font-family="Helvetica,sans-Serif" font-size="10.00"> first</text>
<text text-anchor="middle" x="234" y="-106" font-family="Helvetica,sans-Serif" font-size="10.00">last</text>
</g>
<!-- Node6&#45;&gt;Node6 -->
<g id="edge9" class="edge">
<title>Node6&#45;&gt;Node6</title>
<path fill="none" stroke="#9a32cd" stroke-dasharray="5,2" d="M269.65,-178C273.56,-176.42 276,-173.92 276,-170.5 276,-164.42 268.28,-161.24 258.35,-160.96"/>
<polygon fill="#9a32cd" stroke="#9a32cd" points="269.06,-174.55 259.84,-179.77 270.31,-181.44 269.06,-174.55"/>
<text text-anchor="middle" x="287" y="-173.5" font-family="Helvetica,sans-Serif" font-size="10.00"> next</text>
<text text-anchor="middle" x="287" y="-162.5" font-family="Helvetica,sans-Serif" font-size="10.00">prev</text>
</g>
<!-- Node7 -->
<g id="node7" class="node">
<title>Node7</title>
<g id="a_node7"><a xlink:href="../../df/d46/structtint.html" target="_top" xlink:title=" ">
<polygon fill="white" stroke="#666666" points="288,-264 258,-264 258,-245 288,-245 288,-264"/>
<text text-anchor="middle" x="273" y="-252" font-family="Helvetica,sans-Serif" font-size="10.00">tint</text>
</a>
</g>
</g>
<!-- Node7&#45;&gt;Node6 -->
<g id="edge7" class="edge">
<title>Node7&#45;&gt;Node6</title>
<path fill="none" stroke="#9a32cd" stroke-dasharray="5,2" d="M262.06,-234.81C252.11,-217.81 237.85,-193.45 230.25,-180.46"/>
<polygon fill="#9a32cd" stroke="#9a32cd" points="259.03,-236.56 267.1,-243.42 265.07,-233.02 259.03,-236.56"/>
<text text-anchor="middle" x="263.5" y="-219" font-family="Helvetica,sans-Serif" font-size="10.00"> id</text>
</g>
<!-- Node8 -->
<g id="node8" class="node">
<title>Node8</title>
<g id="a_node8"><a xlink:href="../../dd/d12/struct_curve_state.html" target="_top" xlink:title=" ">
<polygon fill="white" stroke="#666666" points="382,-180 316,-180 316,-161 382,-161 382,-180"/>
<text text-anchor="middle" x="349" y="-168" font-family="Helvetica,sans-Serif" font-size="10.00">CurveState</text>
</a>
</g>
</g>
<!-- Node7&#45;&gt;Node8 -->
<g id="edge12" class="edge">
<title>Node7&#45;&gt;Node8</title>
<path fill="none" stroke="#9a32cd" stroke-dasharray="5,2" d="M288.55,-236.72C304.35,-219.68 328.2,-193.94 340.69,-180.46"/>
<polygon fill="#9a32cd" stroke="#9a32cd" points="286.39,-233.9 282.16,-243.61 291.53,-238.66 286.39,-233.9"/>
<text text-anchor="middle" x="312.5" y="-219" font-family="Helvetica,sans-Serif" font-size="10.00"> id</text>
</g>
<!-- Node8&#45;&gt;Node1 -->
<g id="edge10" class="edge">
<title>Node8&#45;&gt;Node1</title>
<path fill="none" stroke="#9a32cd" stroke-dasharray="5,2" d="M337.69,-151.01C319.27,-122.42 280.06,-67.57 233,-37 218.47,-27.56 200.08,-20.71 185.94,-16.34"/>
<polygon fill="#9a32cd" stroke="#9a32cd" points="334.62,-152.7 342.91,-159.3 340.55,-148.97 334.62,-152.7"/>
<text text-anchor="middle" x="300.5" y="-73" font-family="Helvetica,sans-Serif" font-size="10.00"> state</text>
</g>
<!-- Node9 -->
<g id="node9" class="node">
<title>Node9</title>
<g id="a_node9"><a xlink:href="../../d4/d51/struct_mouse_state.html" target="_top" xlink:title=" ">
<polygon fill="white" stroke="#666666" points="383.5,-264 314.5,-264 314.5,-245 383.5,-245 383.5,-264"/>
<text text-anchor="middle" x="349" y="-252" font-family="Helvetica,sans-Serif" font-size="10.00">MouseState</text>
</a>
</g>
</g>
<!-- Node9&#45;&gt;Node8 -->
<g id="edge11" class="edge">
<title>Node9&#45;&gt;Node8</title>
<path fill="none" stroke="#9a32cd" stroke-dasharray="5,2" d="M349,-233.33C349,-216.42 349,-193.08 349,-180.46"/>
<polygon fill="#9a32cd" stroke="#9a32cd" points="345.5,-233.21 349,-243.21 352.5,-233.21 345.5,-233.21"/>
<text text-anchor="middle" x="377" y="-219" font-family="Helvetica,sans-Serif" font-size="10.00"> mouseState</text>
</g>
</g>
</svg>
