<?xml version="1.0" encoding="UTF-8" standalone="no"?>
<!DOCTYPE svg PUBLIC "-//W3C//DTD SVG 1.1//EN"
 "http://www.w3.org/Graphics/SVG/1.1/DTD/svg11.dtd">
<!-- Generated by graphviz version 2.43.0 (0)
 -->
<!-- Title: Curve Pages: 1 -->
<svg width="444pt" height="338pt"
 viewBox="0.00 0.00 443.50 338.00" xmlns="http://www.w3.org/2000/svg" xmlns:xlink="http://www.w3.org/1999/xlink">

<svg id="main" version="1.1" xmlns="http://www.w3.org/2000/svg" xmlns:xlink="http://www.w3.org/1999/xlink" xml:space="preserve" onload="init(evt)">
<style type="text/css"><![CDATA[
.node, .edge {opacity: 0.7;}
.node.selected, .edge.selected {opacity: 1;}
.edge:hover path { stroke: red; }
.edge:hover polygon { stroke: red; fill: red; }
]]></style>
<script type="application/ecmascript" xlink:href="../../svg.min.js"/>
<svg id="graph" class="graph">
<g id="graph0" class="graph" transform="scale(1 1) rotate(0) translate(4 334)">
<title>Curve</title>
<!-- Node1 -->
<g id="Node000001" class="node">
<title>Node1</title>
<g id="a_Node000001"><a xlink:title=" ">
<polygon fill="#999999" stroke="#666666" points="200,-19 155,-19 155,0 200,0 200,-19"/>
<text text-anchor="middle" x="177.5" y="-7" font-family="Helvetica,sans-Serif" font-size="10.00">Curve</text>
</a>
</g>
</g>
<!-- Node2 -->
<g id="Node000002" class="node">
<title>Node2</title>
<g id="a_Node000002"><a xlink:href="../../d0/da3/structqint.html" target="_top" xlink:title=" ">
<polygon fill="white" stroke="#666666" points="35,-85 0,-85 0,-66 35,-66 35,-85"/>
<text text-anchor="middle" x="17.5" y="-73" font-family="Helvetica,sans-Serif" font-size="10.00">qint</text>
</a>
</g>
</g>
<!-- Node2&#45;&gt;Node1 -->
<g id="edge1_Node000001_Node000002" class="edge">
<title>Node2&#45;&gt;Node1</title>
<g id="a_edge1_Node000001_Node000002"><a xlink:title=" ">
<path fill="none" stroke="#9a32cd" stroke-dasharray="5,2" d="M15.7,-55.45C16.1,-48.82 17.83,-41.85 22.5,-37 40.4,-18.43 116.36,-12.83 154.89,-11.18"/>
<polygon fill="#9a32cd" stroke="#9a32cd" points="12.21,-55.93 16.01,-65.83 19.21,-55.73 12.21,-55.93"/>
</a>
</g>
<text text-anchor="middle" x="36" y="-40" font-family="Helvetica,sans-Serif" font-size="10.00" fill="grey"> idcol</text>
</g>
<!-- Node3 -->
<g id="Node000003" class="node">
<title>Node3</title>
<g id="a_Node000003"><a xlink:href="../../d1/d74/struct_col_r_g_b_a.html" target="_top" xlink:title=" ">
<polygon fill="white" stroke="#666666" points="109.5,-330 49.5,-330 49.5,-311 109.5,-311 109.5,-330"/>
<text text-anchor="middle" x="79.5" y="-318" font-family="Helvetica,sans-Serif" font-size="10.00">ColRGBA</text>
</a>
</g>
</g>
<!-- Node3&#45;&gt;Node1 -->
<g id="edge2_Node000001_Node000003" class="edge">
<title>Node3&#45;&gt;Node1</title>
<g id="a_edge2_Node000001_Node000003"><a xlink:title=" ">
<path fill="none" stroke="#9a32cd" stroke-dasharray="5,2" d="M72.41,-301.23C68.13,-288.59 63.5,-271.27 63.5,-255.5 63.5,-255.5 63.5,-255.5 63.5,-74.5 63.5,-32.96 121.75,-18.11 154.98,-13.01"/>
<polygon fill="#9a32cd" stroke="#9a32cd" points="69.24,-302.77 75.95,-310.97 75.82,-300.38 69.24,-302.77"/>
</a>
</g>
<text text-anchor="middle" x="106.5" y="-190" font-family="Helvetica,sans-Serif" font-size="10.00" fill="grey"> backcolor</text>
<text text-anchor="middle" x="106.5" y="-179" font-family="Helvetica,sans-Serif" font-size="10.00" fill="grey">frame_color</text>
<text text-anchor="middle" x="106.5" y="-168" font-family="Helvetica,sans-Serif" font-size="10.00" fill="grey">legend_box_color</text>
<text text-anchor="middle" x="106.5" y="-157" font-family="Helvetica,sans-Serif" font-size="10.00" fill="grey">legend_color</text>
<text text-anchor="middle" x="106.5" y="-146" font-family="Helvetica,sans-Serif" font-size="10.00" fill="grey">title_color</text>
</g>
<!-- Node4 -->
<g id="Node000004" class="node">
<title>Node4</title>
<g id="a_Node000004"><a xlink:href="../../d0/d5d/struct_data_layout.html" target="_top" xlink:title=" ">
<polygon fill="white" stroke="#666666" points="214,-264 141,-264 141,-245 214,-245 214,-264"/>
<text text-anchor="middle" x="177.5" y="-252" font-family="Helvetica,sans-Serif" font-size="10.00">DataLayout</text>
</a>
</g>
</g>
<!-- Node3&#45;&gt;Node4 -->
<g id="edge4_Node000004_Node000003" class="edge">
<title>Node3&#45;&gt;Node4</title>
<g id="a_edge4_Node000004_Node000003"><a xlink:title=" ">
<path fill="none" stroke="#9a32cd" stroke-dasharray="5,2" d="M101.17,-305.35C120.43,-292.77 147.98,-274.78 164.18,-264.2"/>
<polygon fill="#9a32cd" stroke="#9a32cd" points="99.18,-302.47 92.72,-310.87 103,-308.33 99.18,-302.47"/>
</a>
</g>
<text text-anchor="middle" x="159" y="-285" font-family="Helvetica,sans-Serif" font-size="10.00" fill="grey"> datacolor</text>
</g>
<!-- Node4&#45;&gt;Node1 -->
<g id="edge3_Node000001_Node000004" class="edge">
<title>Node4&#45;&gt;Node1</title>
<g id="a_edge3_Node000001_Node000004"><a xlink:title=" ">
<path fill="none" stroke="#9a32cd" stroke-dasharray="5,2" d="M177.5,-234.67C177.5,-185.35 177.5,-53.84 177.5,-19.04"/>
<polygon fill="#9a32cd" stroke="#9a32cd" points="174,-234.85 177.5,-244.85 181,-234.85 174,-234.85"/>
</a>
</g>
<text text-anchor="middle" x="194.5" y="-111.5" font-family="Helvetica,sans-Serif" font-size="10.00" fill="grey"> layout</text>
</g>
<!-- Node6 -->
<g id="Node000006" class="node">
<title>Node6</title>
<g id="a_Node000006"><a xlink:href="../../d8/dea/struct_curve_extra.html" target="_top" xlink:title=" ">
<polygon fill="white" stroke="#666666" points="277,-180 206,-180 206,-161 277,-161 277,-180"/>
<text text-anchor="middle" x="241.5" y="-168" font-family="Helvetica,sans-Serif" font-size="10.00">CurveExtra</text>
</a>
</g>
</g>
<!-- Node4&#45;&gt;Node6 -->
<g id="edge8_Node000006_Node000004" class="edge">
<title>Node4&#45;&gt;Node6</title>
<g id="a_edge8_Node000006_Node000004"><a xlink:title=" ">
<path fill="none" stroke="#9a32cd" stroke-dasharray="5,2" d="M190.63,-236.67C204.02,-219.53 224.24,-193.61 234.7,-180.21"/>
<polygon fill="#9a32cd" stroke="#9a32cd" points="187.74,-234.69 184.35,-244.72 193.26,-238.99 187.74,-234.69"/>
</a>
</g>
<text text-anchor="middle" x="223.5" y="-219" font-family="Helvetica,sans-Serif" font-size="10.00" fill="grey"> layout</text>
</g>
<!-- Node5 -->
<g id="Node000005" class="node">
<title>Node5</title>
<g id="a_Node000005"><a xlink:href="../../dd/d61/struct_extra_sets.html" target="_top" xlink:title=" ">
<polygon fill="white" stroke="#666666" points="271,-85 208,-85 208,-66 271,-66 271,-85"/>
<text text-anchor="middle" x="239.5" y="-73" font-family="Helvetica,sans-Serif" font-size="10.00">ExtraSets</text>
</a>
</g>
</g>
<!-- Node5&#45;&gt;Node1 -->
<g id="edge5_Node000001_Node000005" class="edge">
<title>Node5&#45;&gt;Node1</title>
<g id="a_edge5_Node000001_Node000005"><a xlink:title=" ">
<path fill="none" stroke="#9a32cd" stroke-dasharray="5,2" d="M223.98,-58.48C212.01,-46.12 195.9,-29.49 186.13,-19.41"/>
<polygon fill="#9a32cd" stroke="#9a32cd" points="221.67,-61.12 231.14,-65.87 226.69,-56.25 221.67,-61.12"/>
</a>
</g>
<text text-anchor="middle" x="229.5" y="-40" font-family="Helvetica,sans-Serif" font-size="10.00" fill="grey"> extrac</text>
</g>
<!-- Node6&#45;&gt;Node5 -->
<g id="edge6_Node000005_Node000006" class="edge">
<title>Node6&#45;&gt;Node5</title>
<g id="a_edge6_Node000005_Node000006"><a xlink:title=" ">
<path fill="none" stroke="#9a32cd" stroke-dasharray="5,2" d="M241.1,-150.84C240.67,-130.83 240,-99.93 239.68,-85.06"/>
<polygon fill="#9a32cd" stroke="#9a32cd" points="237.6,-151 241.32,-160.92 244.6,-150.84 237.6,-151"/>
</a>
</g>
<text text-anchor="middle" x="251.5" y="-117" font-family="Helvetica,sans-Serif" font-size="10.00" fill="grey"> first</text>
<text text-anchor="middle" x="251.5" y="-106" font-family="Helvetica,sans-Serif" font-size="10.00" fill="grey">last</text>
</g>
<!-- Node6&#45;&gt;Node6 -->
<g id="edge9_Node000006_Node000006" class="edge">
<title>Node6&#45;&gt;Node6</title>
<g id="a_edge9_Node000006_Node000006"><a xlink:title=" ">
<path fill="none" stroke="#9a32cd" stroke-dasharray="5,2" d="M287.28,-178.23C291.99,-176.71 295,-174.13 295,-170.5 295,-164.69 287.29,-161.58 277.25,-161.17"/>
<polygon fill="#9a32cd" stroke="#9a32cd" points="286.58,-174.8 277.25,-179.83 287.68,-181.71 286.58,-174.8"/>
</a>
</g>
<text text-anchor="middle" x="307.5" y="-173.5" font-family="Helvetica,sans-Serif" font-size="10.00" fill="grey"> next</text>
<text text-anchor="middle" x="307.5" y="-162.5" font-family="Helvetica,sans-Serif" font-size="10.00" fill="grey">prev</text>
</g>
<!-- Node7 -->
<g id="Node000007" class="node">
<title>Node7</title>
<g id="a_Node000007"><a xlink:href="../../df/d46/structtint.html" target="_top" xlink:title=" ">
<polygon fill="white" stroke="#666666" points="309,-264 276,-264 276,-245 309,-245 309,-264"/>
<text text-anchor="middle" x="292.5" y="-252" font-family="Helvetica,sans-Serif" font-size="10.00">tint</text>
</a>
</g>
</g>
<!-- Node7&#45;&gt;Node6 -->
<g id="edge7_Node000006_Node000007" class="edge">
<title>Node7&#45;&gt;Node6</title>
<g id="a_edge7_Node000006_Node000007"><a xlink:title=" ">
<path fill="none" stroke="#9a32cd" stroke-dasharray="5,2" d="M281.74,-236.2C271.08,-219.05 255.18,-193.49 246.92,-180.21"/>
<polygon fill="#9a32cd" stroke="#9a32cd" points="278.79,-238.08 287.04,-244.72 284.73,-234.38 278.79,-238.08"/>
</a>
</g>
<text text-anchor="middle" x="283" y="-219" font-family="Helvetica,sans-Serif" font-size="10.00" fill="grey"> id</text>
</g>
<!-- Node8 -->
<g id="Node000008" class="node">
<title>Node8</title>
<g id="a_Node000008"><a xlink:href="../../dd/d12/struct_curve_state.html" target="_top" xlink:title=" ">
<polygon fill="white" stroke="#666666" points="409,-180 338,-180 338,-161 409,-161 409,-180"/>
<text text-anchor="middle" x="373.5" y="-168" font-family="Helvetica,sans-Serif" font-size="10.00">CurveState</text>
</a>
</g>
</g>
<!-- Node7&#45;&gt;Node8 -->
<g id="edge12_Node000008_Node000007" class="edge">
<title>Node7&#45;&gt;Node8</title>
<g id="a_edge12_Node000008_Node000007"><a xlink:title=" ">
<path fill="none" stroke="#9a32cd" stroke-dasharray="5,2" d="M308.2,-237.61C325.11,-220.48 351.41,-193.86 364.89,-180.21"/>
<polygon fill="#9a32cd" stroke="#9a32cd" points="305.71,-235.15 301.17,-244.72 310.69,-240.07 305.71,-235.15"/>
</a>
</g>
<text text-anchor="middle" x="335" y="-219" font-family="Helvetica,sans-Serif" font-size="10.00" fill="grey"> id</text>
</g>
<!-- Node8&#45;&gt;Node1 -->
<g id="edge10_Node000001_Node000008" class="edge">
<title>Node8&#45;&gt;Node1</title>
<g id="a_edge10_Node000001_Node000008"><a xlink:title=" ">
<path fill="none" stroke="#9a32cd" stroke-dasharray="5,2" d="M362.26,-152.62C342.77,-124.61 299.98,-68.49 250.5,-37 234.92,-27.08 215.11,-20.19 200.06,-15.93"/>
<polygon fill="#9a32cd" stroke="#9a32cd" points="359.43,-154.68 367.96,-160.97 365.21,-150.74 359.43,-154.68"/>
</a>
</g>
<text text-anchor="middle" x="321.5" y="-73" font-family="Helvetica,sans-Serif" font-size="10.00" fill="grey"> state</text>
</g>
<!-- Node9 -->
<g id="Node000009" class="node">
<title>Node9</title>
<g id="a_Node000009"><a xlink:href="../../d4/d51/struct_mouse_state.html" target="_top" xlink:title=" ">
<polygon fill="white" stroke="#666666" points="410.5,-264 336.5,-264 336.5,-245 410.5,-245 410.5,-264"/>
<text text-anchor="middle" x="373.5" y="-252" font-family="Helvetica,sans-Serif" font-size="10.00">MouseState</text>
</a>
</g>
</g>
<!-- Node9&#45;&gt;Node8 -->
<g id="edge11_Node000008_Node000009" class="edge">
<title>Node9&#45;&gt;Node8</title>
<g id="a_edge11_Node000008_Node000009"><a xlink:title=" ">
<path fill="none" stroke="#9a32cd" stroke-dasharray="5,2" d="M373.5,-234.26C373.5,-217.18 373.5,-193 373.5,-180.21"/>
<polygon fill="#9a32cd" stroke="#9a32cd" points="370,-234.72 373.5,-244.72 377,-234.72 370,-234.72"/>
</a>
</g>
<text text-anchor="middle" x="404.5" y="-219" font-family="Helvetica,sans-Serif" font-size="10.00" fill="grey"> mouseState</text>
</g>
</g>
</svg>
</svg>

<style type='text/css'>
<![CDATA[
[data-mouse-over-selected='false'] { opacity: 0.7; }
[data-mouse-over-selected='true']  { opacity: 1.0; }
]]>
</style>
<script type="application/ecmascript"><![CDATA[
document.addEventListener('DOMContentLoaded', (event) => {
  highlightEdges();
  highlightAdjacentNodes();
});
]]></script>
</svg>
