<?xml version="1.0" encoding="UTF-8" standalone="no"?>
<!DOCTYPE svg PUBLIC "-//W3C//DTD SVG 1.1//EN"
 "http://www.w3.org/Graphics/SVG/1.1/DTD/svg11.dtd">
<!-- Generated by graphviz version 9.0.0 (20230911.1827)
 -->
<!-- Title: Curve Pages: 1 -->
<svg width="411pt" height="352pt"
 viewBox="0.00 0.00 411.38 352.00" xmlns="http://www.w3.org/2000/svg" xmlns:xlink="http://www.w3.org/1999/xlink">
<g id="graph0" class="graph" transform="scale(1 1) rotate(0) translate(4 348)">
<title>Curve</title>
<!-- Node1 -->
<g id="Node000001" class="node">
<title>Node1</title>
<g id="a_Node000001"><a xlink:title=" ">
<polygon fill="#999999" stroke="#666666" points="185,-20 142.75,-20 142.75,0 185,0 185,-20"/>
<text text-anchor="middle" x="163.88" y="-6.5" font-family="Helvetica,sans-Serif" font-size="10.00">Curve</text>
</a>
</g>
</g>
<!-- Node2 -->
<g id="Node000002" class="node">
<title>Node2</title>
<g id="a_Node000002"><a xlink:href="../../d0/da3/structqint.html" target="_top" xlink:title=" ">
<polygon fill="white" stroke="#666666" points="31.75,-88 0,-88 0,-68 31.75,-68 31.75,-88"/>
<text text-anchor="middle" x="15.88" y="-74.5" font-family="Helvetica,sans-Serif" font-size="10.00">qint</text>
</a>
</g>
</g>
<!-- Node2&#45;&gt;Node1 -->
<g id="edge1_Node000001_Node000002" class="edge">
<title>Node2&#45;&gt;Node1</title>
<g id="a_edge1_Node000001_Node000002"><a xlink:title=" ">
<path fill="none" stroke="#9a32cd" stroke-dasharray="5,2" d="M15.03,-56.16C15.83,-49.58 17.93,-42.78 22.62,-38 39.03,-21.31 107.18,-14.58 142.47,-12.18"/>
<polygon fill="#9a32cd" stroke="#9a32cd" points="11.54,-56.04 14.78,-66.12 18.53,-56.21 11.54,-56.04"/>
</a>
</g>
<text text-anchor="middle" x="34.5" y="-40.5" font-family="Helvetica,sans-Serif" font-size="10.00" fill="grey"> idcol</text>
</g>
<!-- Node3 -->
<g id="Node000003" class="node">
<title>Node3</title>
<g id="a_Node000003"><a xlink:href="../../d1/d74/struct_col_r_g_b_a.html" target="_top" xlink:title=" ">
<polygon fill="white" stroke="#666666" points="105.62,-344 46.12,-344 46.12,-324 105.62,-324 105.62,-344"/>
<text text-anchor="middle" x="75.88" y="-330.5" font-family="Helvetica,sans-Serif" font-size="10.00">ColRGBA</text>
</a>
</g>
</g>
<!-- Node3&#45;&gt;Node1 -->
<g id="edge2_Node000001_Node000003" class="edge">
<title>Node3&#45;&gt;Node1</title>
<g id="a_edge2_Node000001_Node000003"><a xlink:title=" ">
<path fill="none" stroke="#9a32cd" stroke-dasharray="5,2" d="M68.38,-312.9C64.22,-299.98 59.88,-282.73 59.88,-267 59.88,-267 59.88,-267 59.88,-77 59.88,-38.29 111.86,-21.33 142.33,-14.71"/>
<polygon fill="#9a32cd" stroke="#9a32cd" points="65.07,-314.05 71.67,-322.34 71.68,-311.75 65.07,-314.05"/>
</a>
</g>
<text text-anchor="middle" x="97.75" y="-198.5" font-family="Helvetica,sans-Serif" font-size="10.00" fill="grey"> backcolor</text>
<text text-anchor="middle" x="97.75" y="-186.5" font-family="Helvetica,sans-Serif" font-size="10.00" fill="grey">frame_color</text>
<text text-anchor="middle" x="97.75" y="-174.5" font-family="Helvetica,sans-Serif" font-size="10.00" fill="grey">legend_box_color</text>
<text text-anchor="middle" x="97.75" y="-162.5" font-family="Helvetica,sans-Serif" font-size="10.00" fill="grey">legend_color</text>
<text text-anchor="middle" x="97.75" y="-150.5" font-family="Helvetica,sans-Serif" font-size="10.00" fill="grey">title_color</text>
</g>
<!-- Node4 -->
<g id="Node000004" class="node">
<title>Node4</title>
<g id="a_Node000004"><a xlink:href="../../d0/d5d/struct_data_layout.html" target="_top" xlink:title=" ">
<polygon fill="white" stroke="#666666" points="197,-276 130.75,-276 130.75,-256 197,-256 197,-276"/>
<text text-anchor="middle" x="163.88" y="-262.5" font-family="Helvetica,sans-Serif" font-size="10.00">DataLayout</text>
</a>
</g>
</g>
<!-- Node3&#45;&gt;Node4 -->
<g id="edge4_Node000004_Node000003" class="edge">
<title>Node3&#45;&gt;Node4</title>
<g id="a_edge4_Node000004_Node000003"><a xlink:title=" ">
<path fill="none" stroke="#9a32cd" stroke-dasharray="5,2" d="M97.63,-316.69C114.51,-304.03 137.32,-286.92 151.29,-276.44"/>
<polygon fill="#9a32cd" stroke="#9a32cd" points="95.59,-313.84 89.69,-322.64 99.79,-319.44 95.59,-313.84"/>
</a>
</g>
<text text-anchor="middle" x="149.25" y="-296.5" font-family="Helvetica,sans-Serif" font-size="10.00" fill="grey"> datacolor</text>
</g>
<!-- Node4&#45;&gt;Node1 -->
<g id="edge3_Node000001_Node000004" class="edge">
<title>Node4&#45;&gt;Node1</title>
<g id="a_edge3_Node000001_Node000004"><a xlink:title=" ">
<path fill="none" stroke="#9a32cd" stroke-dasharray="5,2" d="M163.88,-244.32C163.88,-192.25 163.88,-57.29 163.88,-20.43"/>
<polygon fill="#9a32cd" stroke="#9a32cd" points="160.38,-244.15 163.88,-254.15 167.38,-244.15 160.38,-244.15"/>
</a>
</g>
<text text-anchor="middle" x="178.5" y="-114.5" font-family="Helvetica,sans-Serif" font-size="10.00" fill="grey"> layout</text>
</g>
<!-- Node6 -->
<g id="Node000006" class="node">
<title>Node6</title>
<g id="a_Node000006"><a xlink:href="../../d8/dea/struct_curve_extra.html" target="_top" xlink:title=" ">
<polygon fill="white" stroke="#666666" points="257.62,-188 192.12,-188 192.12,-168 257.62,-168 257.62,-188"/>
<text text-anchor="middle" x="224.88" y="-174.5" font-family="Helvetica,sans-Serif" font-size="10.00">CurveExtra</text>
</a>
</g>
</g>
<!-- Node4&#45;&gt;Node6 -->
<g id="edge8_Node000006_Node000004" class="edge">
<title>Node4&#45;&gt;Node6</title>
<g id="a_edge8_Node000006_Node000004"><a xlink:title=" ">
<path fill="none" stroke="#9a32cd" stroke-dasharray="5,2" d="M177.06,-246.41C189.73,-228.54 208.36,-202.28 218.21,-188.4"/>
<polygon fill="#9a32cd" stroke="#9a32cd" points="174.21,-244.38 171.28,-254.56 179.92,-248.43 174.21,-244.38"/>
</a>
</g>
<text text-anchor="middle" x="205.5" y="-228.5" font-family="Helvetica,sans-Serif" font-size="10.00" fill="grey"> layout</text>
</g>
<!-- Node5 -->
<g id="Node000005" class="node">
<title>Node5</title>
<g id="a_Node000005"><a xlink:href="../../dd/d61/struct_extra_sets.html" target="_top" xlink:title=" ">
<polygon fill="white" stroke="#666666" points="252.62,-88 193.12,-88 193.12,-68 252.62,-68 252.62,-88"/>
<text text-anchor="middle" x="222.88" y="-74.5" font-family="Helvetica,sans-Serif" font-size="10.00">ExtraSets</text>
</a>
</g>
</g>
<!-- Node5&#45;&gt;Node1 -->
<g id="edge5_Node000001_Node000005" class="edge">
<title>Node5&#45;&gt;Node1</title>
<g id="a_edge5_Node000001_Node000005"><a xlink:title=" ">
<path fill="none" stroke="#9a32cd" stroke-dasharray="5,2" d="M207.01,-59.25C195.84,-46.76 181.33,-30.53 172.31,-20.44"/>
<polygon fill="#9a32cd" stroke="#9a32cd" points="204.14,-61.29 213.41,-66.42 209.36,-56.63 204.14,-61.29"/>
</a>
</g>
<text text-anchor="middle" x="213.88" y="-40.5" font-family="Helvetica,sans-Serif" font-size="10.00" fill="grey"> extrac</text>
</g>
<!-- Node6&#45;&gt;Node5 -->
<g id="edge6_Node000005_Node000006" class="edge">
<title>Node6&#45;&gt;Node5</title>
<g id="a_edge6_Node000005_Node000006"><a xlink:title=" ">
<path fill="none" stroke="#9a32cd" stroke-dasharray="5,2" d="M224.45,-156.1C224.02,-135.09 223.38,-103.66 223.06,-88.23"/>
<polygon fill="#9a32cd" stroke="#9a32cd" points="220.95,-156.16 224.65,-166.09 227.95,-156.02 220.95,-156.16"/>
</a>
</g>
<text text-anchor="middle" x="233.62" y="-120.5" font-family="Helvetica,sans-Serif" font-size="10.00" fill="grey"> first</text>
<text text-anchor="middle" x="233.62" y="-108.5" font-family="Helvetica,sans-Serif" font-size="10.00" fill="grey">last</text>
</g>
<!-- Node6&#45;&gt;Node6 -->
<g id="edge9_Node000006_Node000006" class="edge">
<title>Node6&#45;&gt;Node6</title>
<g id="a_edge9_Node000006_Node000006"><a xlink:title=" ">
<path fill="none" stroke="#9a32cd" stroke-dasharray="5,2" d="M269.31,-185.95C273.19,-184.27 275.62,-181.62 275.62,-178 275.62,-171.57 267.94,-168.2 258.07,-167.9"/>
<polygon fill="#9a32cd" stroke="#9a32cd" points="268.71,-182.5 259.55,-187.82 270.03,-189.37 268.71,-182.5"/>
</a>
</g>
<text text-anchor="middle" x="286.5" y="-180.5" font-family="Helvetica,sans-Serif" font-size="10.00" fill="grey"> next</text>
<text text-anchor="middle" x="286.5" y="-168.5" font-family="Helvetica,sans-Serif" font-size="10.00" fill="grey">prev</text>
</g>
<!-- Node7 -->
<g id="Node000007" class="node">
<title>Node7</title>
<g id="a_Node000007"><a xlink:href="../../df/d46/structtint.html" target="_top" xlink:title=" ">
<polygon fill="white" stroke="#666666" points="289.62,-276 260.12,-276 260.12,-256 289.62,-256 289.62,-276"/>
<text text-anchor="middle" x="274.88" y="-262.5" font-family="Helvetica,sans-Serif" font-size="10.00">tint</text>
</a>
</g>
</g>
<!-- Node7&#45;&gt;Node6 -->
<g id="edge7_Node000006_Node000007" class="edge">
<title>Node7&#45;&gt;Node6</title>
<g id="a_edge7_Node000006_Node000007"><a xlink:title=" ">
<path fill="none" stroke="#9a32cd" stroke-dasharray="5,2" d="M263.77,-245.9C253.39,-228.05 238.33,-202.15 230.34,-188.4"/>
<polygon fill="#9a32cd" stroke="#9a32cd" points="260.71,-247.6 268.76,-254.49 266.76,-244.08 260.71,-247.6"/>
</a>
</g>
<text text-anchor="middle" x="264.12" y="-228.5" font-family="Helvetica,sans-Serif" font-size="10.00" fill="grey"> id</text>
</g>
<!-- Node8 -->
<g id="Node000008" class="node">
<title>Node8</title>
<g id="a_Node000008"><a xlink:href="../../dd/d12/struct_curve_state.html" target="_top" xlink:title=" ">
<polygon fill="white" stroke="#666666" points="380.62,-188 315.12,-188 315.12,-168 380.62,-168 380.62,-188"/>
<text text-anchor="middle" x="347.88" y="-174.5" font-family="Helvetica,sans-Serif" font-size="10.00">CurveState</text>
</a>
</g>
</g>
<!-- Node7&#45;&gt;Node8 -->
<g id="edge12_Node000008_Node000007" class="edge">
<title>Node7&#45;&gt;Node8</title>
<g id="a_edge12_Node000008_Node000007"><a xlink:title=" ">
<path fill="none" stroke="#9a32cd" stroke-dasharray="5,2" d="M289.81,-247.4C304.98,-229.53 327.89,-202.54 339.9,-188.4"/>
<polygon fill="#9a32cd" stroke="#9a32cd" points="287.47,-244.75 283.67,-254.64 292.81,-249.28 287.47,-244.75"/>
</a>
</g>
<text text-anchor="middle" x="313.12" y="-228.5" font-family="Helvetica,sans-Serif" font-size="10.00" fill="grey"> id</text>
</g>
<!-- Node8&#45;&gt;Node1 -->
<g id="edge10_Node000001_Node000008" class="edge">
<title>Node8&#45;&gt;Node1</title>
<g id="a_edge10_Node000001_Node000008"><a xlink:title=" ">
<path fill="none" stroke="#9a32cd" stroke-dasharray="5,2" d="M337.19,-157.96C319.41,-128.01 280.93,-70.01 232.88,-38 218.21,-28.23 199.48,-21.18 185.23,-16.74"/>
<polygon fill="#9a32cd" stroke="#9a32cd" points="333.98,-159.41 342.02,-166.31 340.04,-155.9 333.98,-159.41"/>
</a>
</g>
<text text-anchor="middle" x="300.25" y="-74.5" font-family="Helvetica,sans-Serif" font-size="10.00" fill="grey"> state</text>
</g>
<!-- Node9 -->
<g id="Node000009" class="node">
<title>Node9</title>
<g id="a_Node000009"><a xlink:href="../../d4/d51/struct_mouse_state.html" target="_top" xlink:title=" ">
<polygon fill="white" stroke="#666666" points="382.12,-276 313.62,-276 313.62,-256 382.12,-256 382.12,-276"/>
<text text-anchor="middle" x="347.88" y="-262.5" font-family="Helvetica,sans-Serif" font-size="10.00">MouseState</text>
</a>
</g>
</g>
<!-- Node9&#45;&gt;Node8 -->
<g id="edge11_Node000008_Node000009" class="edge">
<title>Node9&#45;&gt;Node8</title>
<g id="a_edge11_Node000008_Node000009"><a xlink:title=" ">
<path fill="none" stroke="#9a32cd" stroke-dasharray="5,2" d="M347.88,-244.37C347.88,-226.6 347.88,-201.76 347.88,-188.4"/>
<polygon fill="#9a32cd" stroke="#9a32cd" points="344.38,-244.28 347.88,-254.28 351.38,-244.28 344.38,-244.28"/>
</a>
</g>
<text text-anchor="middle" x="375.62" y="-228.5" font-family="Helvetica,sans-Serif" font-size="10.00" fill="grey"> mouseState</text>
</g>
</g>
</svg>
