<?xml version="1.0" encoding="UTF-8" standalone="no"?>
<!DOCTYPE svg PUBLIC "-//W3C//DTD SVG 1.1//EN"
 "http://www.w3.org/Graphics/SVG/1.1/DTD/svg11.dtd">
<!-- Generated by graphviz version 14.1.4 (20260321.0153)
 -->
<!-- Title: gui/preferences.c Pages: 1 -->
<svg width="2102pt" height="196pt"
 viewBox="0.00 0.00 2102.00 196.00" xmlns="http://www.w3.org/2000/svg" xmlns:xlink="http://www.w3.org/1999/xlink">
<g id="graph0" class="graph" transform="scale(1 1) rotate(0) translate(4 192)">
<title>gui/preferences.c</title>
<!-- Node1 -->
<g id="Node000001" class="node">
<title>Node1</title>
<g id="a_Node000001"><a xlink:title="Functions to create the &#39;User preferences&#39; window.">
<polygon fill="#999999" stroke="#666666" points="1427.75,-188 1336.75,-188 1336.75,-168 1427.75,-168 1427.75,-188"/>
<text xml:space="preserve" text-anchor="middle" x="1382.25" y="-174.5" font-family="Helvetica,sans-Serif" font-size="10.00">gui/preferences.c</text>
</a>
</g>
</g>
<!-- Node2 -->
<g id="Node000002" class="node">
<title>Node2</title>
<g id="a_Node000002"><a xlink:href="../../d2/d49/global_8h.html" target="_top" xlink:title="Global variable declarations &#160;&#160;Global convenience function declarations &#160;&#160;Global data structure defin...">
<polygon fill="white" stroke="#666666" points="1015.12,-132 965.38,-132 965.38,-112 1015.12,-112 1015.12,-132"/>
<text xml:space="preserve" text-anchor="middle" x="990.25" y="-118.5" font-family="Helvetica,sans-Serif" font-size="10.00">global.h</text>
</a>
</g>
</g>
<!-- Node1&#45;&gt;Node2 -->
<g id="edge1_Node000001_Node000002" class="edge">
<title>Node1&#45;&gt;Node2</title>
<g id="a_edge1_Node000001_Node000002"><a xlink:title=" ">
<path fill="none" stroke="#63b8ff" d="M1336.33,-172.63C1268.77,-165.86 1138.72,-151.56 1029.25,-132 1028.26,-131.82 1027.26,-131.64 1026.25,-131.45"/>
<polygon fill="#63b8ff" stroke="#63b8ff" points="1027.33,-128.1 1016.83,-129.49 1025.91,-134.95 1027.33,-128.1"/>
</a>
</g>
</g>
<!-- Node8 -->
<g id="Node000008" class="node">
<title>Node8</title>
<g id="a_Node000008"><a xlink:title=" ">
<polygon fill="#e0e0e0" stroke="#999999" points="50.5,-76 0,-76 0,-56 50.5,-56 50.5,-76"/>
<text xml:space="preserve" text-anchor="middle" x="25.25" y="-62.5" font-family="Helvetica,sans-Serif" font-size="10.00">unistd.h</text>
</a>
</g>
</g>
<!-- Node1&#45;&gt;Node8 -->
<g id="edge41_Node000001_Node000008" class="edge">
<title>Node1&#45;&gt;Node8</title>
<g id="a_edge41_Node000001_Node000008"><a xlink:title=" ">
<path fill="none" stroke="#63b8ff" d="M1336.26,-176.36C1199.88,-174.14 785.85,-164.96 444.25,-132 275.75,-115.74 230.54,-110.83 61.82,-76.36"/>
<polygon fill="#63b8ff" stroke="#63b8ff" points="62.78,-72.98 52.28,-74.4 61.37,-79.84 62.78,-72.98"/>
</a>
</g>
</g>
<!-- Node12 -->
<g id="Node000012" class="node">
<title>Node12</title>
<g id="a_Node000012"><a xlink:title=" ">
<polygon fill="#e0e0e0" stroke="#999999" points="135.75,-76 68.75,-76 68.75,-56 135.75,-56 135.75,-76"/>
<text xml:space="preserve" text-anchor="middle" x="102.25" y="-62.5" font-family="Helvetica,sans-Serif" font-size="10.00">sys/types.h</text>
</a>
</g>
</g>
<!-- Node1&#45;&gt;Node12 -->
<g id="edge42_Node000001_Node000012" class="edge">
<title>Node1&#45;&gt;Node12</title>
<g id="a_edge42_Node000001_Node000012"><a xlink:title=" ">
<path fill="none" stroke="#63b8ff" d="M1336.48,-175.41C1174.8,-169.34 615.5,-144.51 147.15,-76.27"/>
<polygon fill="#63b8ff" stroke="#63b8ff" points="148.01,-72.86 137.6,-74.87 146.99,-79.78 148.01,-72.86"/>
</a>
</g>
</g>
<!-- Node26 -->
<g id="Node000026" class="node">
<title>Node26</title>
<g id="a_Node000026"><a xlink:href="../../da/d7e/glwin_8h.html" target="_top" xlink:title="Variable declarations related the OpenGL window &#160;&#160;Data structure declarations related the OpenGL wind...">
<polygon fill="white" stroke="#666666" points="1795.62,-76 1748.88,-76 1748.88,-56 1795.62,-56 1795.62,-76"/>
<text xml:space="preserve" text-anchor="middle" x="1772.25" y="-62.5" font-family="Helvetica,sans-Serif" font-size="10.00">glwin.h</text>
</a>
</g>
</g>
<!-- Node1&#45;&gt;Node26 -->
<g id="edge34_Node000001_Node000026" class="edge">
<title>Node1&#45;&gt;Node26</title>
<g id="a_edge34_Node000001_Node000026"><a xlink:title=" ">
<path fill="none" stroke="#63b8ff" d="M1336.38,-177.59C1256.55,-177.53 1097.21,-172.23 1062.25,-132 1056.42,-125.29 1056.13,-118.45 1062.25,-112 1113.77,-57.65 1661.16,-86.9 1735.25,-76 1735.92,-75.9 1736.6,-75.79 1737.29,-75.68"/>
<polygon fill="#63b8ff" stroke="#63b8ff" points="1737.88,-79.13 1747.01,-73.76 1736.52,-72.27 1737.88,-79.13"/>
</a>
</g>
</g>
<!-- Node28 -->
<g id="Node000028" class="node">
<title>Node28</title>
<g id="a_Node000028"><a xlink:href="../../dd/d49/callbacks_8h.html" target="_top" xlink:title="Callback declarations for main window.">
<polygon fill="white" stroke="#666666" points="1137,-132 1071.5,-132 1071.5,-112 1137,-112 1137,-132"/>
<text xml:space="preserve" text-anchor="middle" x="1104.25" y="-118.5" font-family="Helvetica,sans-Serif" font-size="10.00">callbacks.h</text>
</a>
</g>
</g>
<!-- Node1&#45;&gt;Node28 -->
<g id="edge29_Node000001_Node000028" class="edge">
<title>Node1&#45;&gt;Node28</title>
<g id="a_edge29_Node000001_Node000028"><a xlink:title=" ">
<path fill="none" stroke="#63b8ff" d="M1336.51,-168.6C1291.24,-160.21 1219.69,-146.76 1148.25,-132.37"/>
<polygon fill="#63b8ff" stroke="#63b8ff" points="1149.23,-129 1138.73,-130.45 1147.84,-135.86 1149.23,-129"/>
</a>
</g>
</g>
<!-- Node29 -->
<g id="Node000029" class="node">
<title>Node29</title>
<g id="a_Node000029"><a xlink:href="../../d4/da9/interface_8h.html" target="_top" xlink:title="Messaging function declarations.">
<polygon fill="white" stroke="#666666" points="1217.12,-132 1155.38,-132 1155.38,-112 1217.12,-112 1217.12,-132"/>
<text xml:space="preserve" text-anchor="middle" x="1186.25" y="-118.5" font-family="Helvetica,sans-Serif" font-size="10.00">interface.h</text>
</a>
</g>
</g>
<!-- Node1&#45;&gt;Node29 -->
<g id="edge30_Node000001_Node000029" class="edge">
<title>Node1&#45;&gt;Node29</title>
<g id="a_edge30_Node000001_Node000029"><a xlink:title=" ">
<path fill="none" stroke="#63b8ff" d="M1348.11,-167.59C1314.86,-158.43 1264.23,-144.48 1228.46,-134.63"/>
<polygon fill="#63b8ff" stroke="#63b8ff" points="1229.44,-131.27 1218.87,-131.99 1227.59,-138.02 1229.44,-131.27"/>
</a>
</g>
</g>
<!-- Node30 -->
<g id="Node000030" class="node">
<title>Node30</title>
<g id="a_Node000030"><a xlink:href="../../dc/d8d/project_8h.html" target="_top" xlink:title="Function declarations for reading atomes project file &#160;&#160;Function declarations for saving atomes proje...">
<polygon fill="white" stroke="#666666" points="1289,-132 1235.5,-132 1235.5,-112 1289,-112 1289,-132"/>
<text xml:space="preserve" text-anchor="middle" x="1262.25" y="-118.5" font-family="Helvetica,sans-Serif" font-size="10.00">project.h</text>
</a>
</g>
</g>
<!-- Node1&#45;&gt;Node30 -->
<g id="edge31_Node000001_Node000030" class="edge">
<title>Node1&#45;&gt;Node30</title>
<g id="a_edge31_Node000001_Node000030"><a xlink:title=" ">
<path fill="none" stroke="#63b8ff" d="M1361.35,-167.59C1342.62,-159.17 1314.89,-146.69 1293.53,-137.07"/>
<polygon fill="#63b8ff" stroke="#63b8ff" points="1295.25,-134.01 1284.7,-133.1 1292.38,-140.4 1295.25,-134.01"/>
</a>
</g>
</g>
<!-- Node31 -->
<g id="Node000031" class="node">
<title>Node31</title>
<g id="a_Node000031"><a xlink:href="../../d4/de6/workspace_8h.html" target="_top" xlink:title="Function declarations for workspace managment.">
<polygon fill="white" stroke="#666666" points="1379,-132 1307.5,-132 1307.5,-112 1379,-112 1379,-132"/>
<text xml:space="preserve" text-anchor="middle" x="1343.25" y="-118.5" font-family="Helvetica,sans-Serif" font-size="10.00">workspace.h</text>
</a>
</g>
</g>
<!-- Node1&#45;&gt;Node31 -->
<g id="edge32_Node000001_Node000031" class="edge">
<title>Node1&#45;&gt;Node31</title>
<g id="a_edge32_Node000001_Node000031"><a xlink:title=" ">
<path fill="none" stroke="#63b8ff" d="M1375.46,-167.59C1370.26,-160.39 1362.92,-150.23 1356.56,-141.43"/>
<polygon fill="#63b8ff" stroke="#63b8ff" points="1359.54,-139.58 1350.85,-133.53 1353.87,-143.68 1359.54,-139.58"/>
</a>
</g>
</g>
<!-- Node32 -->
<g id="Node000032" class="node">
<title>Node32</title>
<g id="a_Node000032"><a xlink:href="../../dc/de3/glview_8h.html" target="_top" xlink:title="Variable declarations related to the OpenGL window &#160;&#160;Function declarations related to the OpenGL wind...">
<polygon fill="white" stroke="#666666" points="1447.88,-132 1396.62,-132 1396.62,-112 1447.88,-112 1447.88,-132"/>
<text xml:space="preserve" text-anchor="middle" x="1422.25" y="-118.5" font-family="Helvetica,sans-Serif" font-size="10.00">glview.h</text>
</a>
</g>
</g>
<!-- Node1&#45;&gt;Node32 -->
<g id="edge33_Node000001_Node000032" class="edge">
<title>Node1&#45;&gt;Node32</title>
<g id="a_edge33_Node000001_Node000032"><a xlink:title=" ">
<path fill="none" stroke="#63b8ff" d="M1389.22,-167.59C1394.55,-160.39 1402.08,-150.23 1408.6,-141.43"/>
<polygon fill="#63b8ff" stroke="#63b8ff" points="1411.32,-143.63 1414.46,-133.51 1405.7,-139.47 1411.32,-143.63"/>
</a>
</g>
</g>
<!-- Node33 -->
<g id="Node000033" class="node">
<title>Node33</title>
<g id="a_Node000033"><a xlink:href="../../da/dc2/bind_8h.html" target="_top" xlink:title="Binding to the Fortran90 subroutines.">
<polygon fill="white" stroke="#666666" points="1508.38,-132 1466.12,-132 1466.12,-112 1508.38,-112 1508.38,-132"/>
<text xml:space="preserve" text-anchor="middle" x="1487.25" y="-118.5" font-family="Helvetica,sans-Serif" font-size="10.00">bind.h</text>
</a>
</g>
</g>
<!-- Node1&#45;&gt;Node33 -->
<g id="edge35_Node000001_Node000033" class="edge">
<title>Node1&#45;&gt;Node33</title>
<g id="a_edge35_Node000001_Node000033"><a xlink:title=" ">
<path fill="none" stroke="#63b8ff" d="M1400.54,-167.59C1416.55,-159.36 1440.08,-147.26 1458.59,-137.74"/>
<polygon fill="#63b8ff" stroke="#63b8ff" points="1460.18,-140.86 1467.47,-133.17 1456.98,-134.63 1460.18,-140.86"/>
</a>
</g>
</g>
<!-- Node34 -->
<g id="Node000034" class="node">
<title>Node34</title>
<g id="a_Node000034"><a xlink:href="../../dd/d7d/preferences_8h.html" target="_top" xlink:title="Preference variable declarations.">
<polygon fill="white" stroke="#666666" points="1601.88,-132 1526.62,-132 1526.62,-112 1601.88,-112 1601.88,-132"/>
<text xml:space="preserve" text-anchor="middle" x="1564.25" y="-118.5" font-family="Helvetica,sans-Serif" font-size="10.00">preferences.h</text>
</a>
</g>
</g>
<!-- Node1&#45;&gt;Node34 -->
<g id="edge36_Node000001_Node000034" class="edge">
<title>Node1&#45;&gt;Node34</title>
<g id="a_edge36_Node000001_Node000034"><a xlink:title=" ">
<path fill="none" stroke="#63b8ff" d="M1413.95,-167.59C1443.78,-158.74 1488.67,-145.43 1521.62,-135.65"/>
<polygon fill="#63b8ff" stroke="#63b8ff" points="1522.26,-139.11 1530.85,-132.91 1520.27,-132.4 1522.26,-139.11"/>
</a>
</g>
</g>
<!-- Node35 -->
<g id="Node000035" class="node">
<title>Node35</title>
<g id="a_Node000035"><a xlink:title=" ">
<polygon fill="#e0e0e0" stroke="#999999" points="1712.12,-132 1620.38,-132 1620.38,-112 1712.12,-112 1712.12,-132"/>
<text xml:space="preserve" text-anchor="middle" x="1666.25" y="-118.5" font-family="Helvetica,sans-Serif" font-size="10.00">libxml/encoding.h</text>
</a>
</g>
</g>
<!-- Node1&#45;&gt;Node35 -->
<g id="edge37_Node000001_Node000035" class="edge">
<title>Node1&#45;&gt;Node35</title>
<g id="a_edge37_Node000001_Node000035"><a xlink:title=" ">
<path fill="none" stroke="#63b8ff" d="M1428.2,-168.26C1477.34,-158.92 1555.37,-144.08 1608.6,-133.96"/>
<polygon fill="#63b8ff" stroke="#63b8ff" points="1609.24,-137.4 1618.41,-132.1 1607.93,-130.53 1609.24,-137.4"/>
</a>
</g>
</g>
<!-- Node36 -->
<g id="Node000036" class="node">
<title>Node36</title>
<g id="a_Node000036"><a xlink:title=" ">
<polygon fill="#e0e0e0" stroke="#999999" points="1822.5,-132 1730,-132 1730,-112 1822.5,-112 1822.5,-132"/>
<text xml:space="preserve" text-anchor="middle" x="1776.25" y="-118.5" font-family="Helvetica,sans-Serif" font-size="10.00">libxml/xmlwriter.h</text>
</a>
</g>
</g>
<!-- Node1&#45;&gt;Node36 -->
<g id="edge38_Node000001_Node000036" class="edge">
<title>Node1&#45;&gt;Node36</title>
<g id="a_edge38_Node000001_Node000036"><a xlink:title=" ">
<path fill="none" stroke="#63b8ff" d="M1428.1,-171.36C1491.14,-163.51 1608.44,-148.55 1718.45,-132.38"/>
<polygon fill="#63b8ff" stroke="#63b8ff" points="1718.88,-135.85 1728.26,-130.93 1717.85,-128.93 1718.88,-135.85"/>
</a>
</g>
</g>
<!-- Node37 -->
<g id="Node000037" class="node">
<title>Node37</title>
<g id="a_Node000037"><a xlink:title=" ">
<polygon fill="#e0e0e0" stroke="#999999" points="1936,-132 1840.5,-132 1840.5,-112 1936,-112 1936,-132"/>
<text xml:space="preserve" text-anchor="middle" x="1888.25" y="-118.5" font-family="Helvetica,sans-Serif" font-size="10.00">libxml/xmlreader.h</text>
</a>
</g>
</g>
<!-- Node1&#45;&gt;Node37 -->
<g id="edge39_Node000001_Node000037" class="edge">
<title>Node1&#45;&gt;Node37</title>
<g id="a_edge39_Node000001_Node000037"><a xlink:title=" ">
<path fill="none" stroke="#63b8ff" d="M1428.24,-173.26C1507.74,-166.6 1676.26,-151.66 1829.1,-132.21"/>
<polygon fill="#63b8ff" stroke="#63b8ff" points="1829.1,-135.74 1838.57,-131 1828.21,-128.8 1829.1,-135.74"/>
</a>
</g>
</g>
<!-- Node38 -->
<g id="Node000038" class="node">
<title>Node38</title>
<g id="a_Node000038"><a xlink:title=" ">
<polygon fill="#e0e0e0" stroke="#999999" points="2034.12,-132 1954.38,-132 1954.38,-112 2034.12,-112 2034.12,-132"/>
<text xml:space="preserve" text-anchor="middle" x="1994.25" y="-118.5" font-family="Helvetica,sans-Serif" font-size="10.00">libxml/parser.h</text>
</a>
</g>
</g>
<!-- Node1&#45;&gt;Node38 -->
<g id="edge40_Node000001_Node000038" class="edge">
<title>Node1&#45;&gt;Node38</title>
<g id="a_edge40_Node000001_Node000038"><a xlink:title=" ">
<path fill="none" stroke="#63b8ff" d="M1428.03,-174.92C1522.38,-170.31 1745.49,-157.63 1942.76,-132.2"/>
<polygon fill="#63b8ff" stroke="#63b8ff" points="1942.96,-135.7 1952.42,-130.94 1942.06,-128.76 1942.96,-135.7"/>
</a>
</g>
</g>
<!-- Node39 -->
<g id="Node000039" class="node">
<title>Node39</title>
<g id="a_Node000039"><a xlink:title=" ">
<polygon fill="#e0e0e0" stroke="#999999" points="2094.38,-132 2052.12,-132 2052.12,-112 2094.38,-112 2094.38,-132"/>
<text xml:space="preserve" text-anchor="middle" x="2073.25" y="-118.5" font-family="Helvetica,sans-Serif" font-size="10.00">pwd.h</text>
</a>
</g>
</g>
<!-- Node1&#45;&gt;Node39 -->
<g id="edge43_Node000001_Node000039" class="edge">
<title>Node1&#45;&gt;Node39</title>
<g id="a_edge43_Node000001_Node000039"><a xlink:title=" ">
<path fill="none" stroke="#63b8ff" d="M1427.96,-177.38C1534.26,-177.53 1806.25,-173.61 2040.63,-132.08"/>
<polygon fill="#63b8ff" stroke="#63b8ff" points="2041.05,-135.56 2050.27,-130.34 2039.81,-128.67 2041.05,-135.56"/>
</a>
</g>
</g>
<!-- Node3 -->
<g id="Node000003" class="node">
<title>Node3</title>
<g id="a_Node000003"><a xlink:title=" ">
<polygon fill="#e0e0e0" stroke="#999999" points="1229.62,-76 1182.88,-76 1182.88,-56 1229.62,-56 1229.62,-76"/>
<text xml:space="preserve" text-anchor="middle" x="1206.25" y="-62.5" font-family="Helvetica,sans-Serif" font-size="10.00">libintl.h</text>
</a>
</g>
</g>
<!-- Node2&#45;&gt;Node3 -->
<g id="edge2_Node000002_Node000003" class="edge">
<title>Node2&#45;&gt;Node3</title>
<g id="a_edge2_Node000002_Node000003"><a xlink:title=" ">
<path fill="none" stroke="#63b8ff" d="M1015.62,-115.09C1049.16,-107.21 1110.35,-92.61 1171.5,-76.66"/>
<polygon fill="#63b8ff" stroke="#63b8ff" points="1172.26,-80.08 1181.05,-74.16 1170.48,-73.31 1172.26,-80.08"/>
</a>
</g>
</g>
<!-- Node4 -->
<g id="Node000004" class="node">
<title>Node4</title>
<g id="a_Node000004"><a xlink:title=" ">
<polygon fill="#e0e0e0" stroke="#999999" points="1297.12,-76 1247.38,-76 1247.38,-56 1297.12,-56 1297.12,-76"/>
<text xml:space="preserve" text-anchor="middle" x="1272.25" y="-62.5" font-family="Helvetica,sans-Serif" font-size="10.00">locale.h</text>
</a>
</g>
</g>
<!-- Node2&#45;&gt;Node4 -->
<g id="edge3_Node000002_Node000004" class="edge">
<title>Node2&#45;&gt;Node4</title>
<g id="a_edge3_Node000002_Node000004"><a xlink:title=" ">
<path fill="none" stroke="#63b8ff" d="M1015.38,-114.98C1019.98,-113.94 1024.75,-112.91 1029.25,-112 1118.13,-94.1 1144.19,-95.91 1235.85,-76.36"/>
<polygon fill="#63b8ff" stroke="#63b8ff" points="1236.55,-79.79 1245.58,-74.25 1235.07,-72.95 1236.55,-79.79"/>
</a>
</g>
</g>
<!-- Node5 -->
<g id="Node000005" class="node">
<title>Node5</title>
<g id="a_Node000005"><a xlink:title=" ">
<polygon fill="#e0e0e0" stroke="#999999" points="1354.88,-76 1315.62,-76 1315.62,-56 1354.88,-56 1354.88,-76"/>
<text xml:space="preserve" text-anchor="middle" x="1335.25" y="-62.5" font-family="Helvetica,sans-Serif" font-size="10.00">glib.h</text>
</a>
</g>
</g>
<!-- Node2&#45;&gt;Node5 -->
<g id="edge4_Node000002_Node000005" class="edge">
<title>Node2&#45;&gt;Node5</title>
<g id="a_edge4_Node000002_Node000005"><a xlink:title=" ">
<path fill="none" stroke="#63b8ff" d="M1015.35,-114.83C1019.96,-113.8 1024.74,-112.81 1029.25,-112 1147.85,-90.66 1182.92,-101.79 1304.18,-76.08"/>
<polygon fill="#63b8ff" stroke="#63b8ff" points="1304.89,-79.51 1313.92,-73.97 1303.41,-72.67 1304.89,-79.51"/>
</a>
</g>
</g>
<!-- Node6 -->
<g id="Node000006" class="node">
<title>Node6</title>
<g id="a_Node000006"><a xlink:title=" ">
<polygon fill="#e0e0e0" stroke="#999999" points="1438,-76 1372.5,-76 1372.5,-56 1438,-56 1438,-76"/>
<text xml:space="preserve" text-anchor="middle" x="1405.25" y="-62.5" font-family="Helvetica,sans-Serif" font-size="10.00">glib/gi18n.h</text>
</a>
</g>
</g>
<!-- Node2&#45;&gt;Node6 -->
<g id="edge5_Node000002_Node000006" class="edge">
<title>Node2&#45;&gt;Node6</title>
<g id="a_edge5_Node000002_Node000006"><a xlink:title=" ">
<path fill="none" stroke="#63b8ff" d="M1015.34,-114.75C1019.94,-113.73 1024.73,-112.76 1029.25,-112 1173.31,-87.73 1214.46,-99.48 1360.99,-76.38"/>
<polygon fill="#63b8ff" stroke="#63b8ff" points="1361.38,-79.86 1370.7,-74.82 1360.27,-72.95 1361.38,-79.86"/>
</a>
</g>
</g>
<!-- Node7 -->
<g id="Node000007" class="node">
<title>Node7</title>
<g id="a_Node000007"><a xlink:title=" ">
<polygon fill="#e0e0e0" stroke="#999999" points="1508.62,-76 1455.88,-76 1455.88,-56 1508.62,-56 1508.62,-76"/>
<text xml:space="preserve" text-anchor="middle" x="1482.25" y="-62.5" font-family="Helvetica,sans-Serif" font-size="10.00">gio/gio.h</text>
</a>
</g>
</g>
<!-- Node2&#45;&gt;Node7 -->
<g id="edge6_Node000002_Node000007" class="edge">
<title>Node2&#45;&gt;Node7</title>
<g id="a_edge6_Node000002_Node000007"><a xlink:title=" ">
<path fill="none" stroke="#63b8ff" d="M1015.32,-114.67C1019.93,-113.66 1024.72,-112.71 1029.25,-112 1209.84,-83.53 1261.43,-106.4 1444.5,-76.21"/>
<polygon fill="#63b8ff" stroke="#63b8ff" points="1444.82,-79.7 1454.1,-74.59 1443.66,-72.8 1444.82,-79.7"/>
</a>
</g>
</g>
<!-- Node2&#45;&gt;Node8 -->
<g id="edge7_Node000002_Node000008" class="edge">
<title>Node2&#45;&gt;Node8</title>
<g id="a_edge7_Node000002_Node000008"><a xlink:title=" ">
<path fill="none" stroke="#63b8ff" d="M964.97,-120.5C837.47,-117.86 263.6,-104.67 62.06,-76.05"/>
<polygon fill="#63b8ff" stroke="#63b8ff" points="62.65,-72.6 52.24,-74.59 61.62,-79.52 62.65,-72.6"/>
</a>
</g>
</g>
<!-- Node9 -->
<g id="Node000009" class="node">
<title>Node9</title>
<g id="a_Node000009"><a xlink:title=" ">
<polygon fill="#e0e0e0" stroke="#999999" points="1575.38,-76 1527.12,-76 1527.12,-56 1575.38,-56 1575.38,-76"/>
<text xml:space="preserve" text-anchor="middle" x="1551.25" y="-62.5" font-family="Helvetica,sans-Serif" font-size="10.00">string.h</text>
</a>
</g>
</g>
<!-- Node2&#45;&gt;Node9 -->
<g id="edge8_Node000002_Node000009" class="edge">
<title>Node2&#45;&gt;Node9</title>
<g id="a_edge8_Node000002_Node000009"><a xlink:title=" ">
<path fill="none" stroke="#63b8ff" d="M1015.32,-114.62C1019.93,-113.62 1024.72,-112.69 1029.25,-112 1240.6,-80.01 1300.72,-110.89 1515.51,-75.92"/>
<polygon fill="#63b8ff" stroke="#63b8ff" points="1516.07,-79.38 1525.36,-74.28 1514.92,-72.47 1516.07,-79.38"/>
</a>
</g>
</g>
<!-- Node10 -->
<g id="Node000010" class="node">
<title>Node10</title>
<g id="a_Node000010"><a xlink:title=" ">
<polygon fill="#e0e0e0" stroke="#999999" points="1632.88,-20 1587.62,-20 1587.62,0 1632.88,0 1632.88,-20"/>
<text xml:space="preserve" text-anchor="middle" x="1610.25" y="-6.5" font-family="Helvetica,sans-Serif" font-size="10.00">stdio.h</text>
</a>
</g>
</g>
<!-- Node2&#45;&gt;Node10 -->
<g id="edge9_Node000002_Node000010" class="edge">
<title>Node2&#45;&gt;Node10</title>
<g id="a_edge9_Node000002_Node000010"><a xlink:title=" ">
<path fill="none" stroke="#63b8ff" d="M1015.43,-117.03C1027.2,-115.29 1041.42,-113.34 1054.25,-112 1112.96,-105.89 1536.52,-110.73 1584.25,-76 1598.38,-65.72 1604.84,-46.49 1607.79,-31.6"/>
<polygon fill="#63b8ff" stroke="#63b8ff" points="1611.22,-32.33 1609.3,-21.91 1604.3,-31.25 1611.22,-32.33"/>
</a>
</g>
</g>
<!-- Node11 -->
<g id="Node000011" class="node">
<title>Node11</title>
<g id="a_Node000011"><a xlink:title=" ">
<polygon fill="#e0e0e0" stroke="#999999" points="201,-76 153.5,-76 153.5,-56 201,-56 201,-76"/>
<text xml:space="preserve" text-anchor="middle" x="177.25" y="-62.5" font-family="Helvetica,sans-Serif" font-size="10.00">stdlib.h</text>
</a>
</g>
</g>
<!-- Node2&#45;&gt;Node11 -->
<g id="edge10_Node000002_Node000011" class="edge">
<title>Node2&#45;&gt;Node11</title>
<g id="a_edge10_Node000002_Node000011"><a xlink:title=" ">
<path fill="none" stroke="#63b8ff" d="M964.94,-120.25C850.79,-116.76 382.4,-101.29 212.5,-75.94"/>
<polygon fill="#63b8ff" stroke="#63b8ff" points="213.19,-72.5 202.77,-74.41 212.1,-79.42 213.19,-72.5"/>
</a>
</g>
</g>
<!-- Node2&#45;&gt;Node12 -->
<g id="edge11_Node000002_Node000012" class="edge">
<title>Node2&#45;&gt;Node12</title>
<g id="a_edge11_Node000002_Node000012"><a xlink:title=" ">
<path fill="none" stroke="#63b8ff" d="M964.91,-120.19C844.78,-116.29 331.21,-98.66 147.46,-76.19"/>
<polygon fill="#63b8ff" stroke="#63b8ff" points="147.96,-72.72 137.6,-74.92 147.07,-79.66 147.96,-72.72"/>
</a>
</g>
</g>
<!-- Node13 -->
<g id="Node000013" class="node">
<title>Node13</title>
<g id="a_Node000013"><a xlink:title=" ">
<polygon fill="#e0e0e0" stroke="#999999" points="279,-76 219.5,-76 219.5,-56 279,-56 279,-76"/>
<text xml:space="preserve" text-anchor="middle" x="249.25" y="-62.5" font-family="Helvetica,sans-Serif" font-size="10.00">sys/stat.h</text>
</a>
</g>
</g>
<!-- Node2&#45;&gt;Node13 -->
<g id="edge12_Node000002_Node000013" class="edge">
<title>Node2&#45;&gt;Node13</title>
<g id="a_edge12_Node000002_Node000013"><a xlink:title=" ">
<path fill="none" stroke="#63b8ff" d="M964.98,-119.93C858.34,-115.35 443.92,-96.67 290.42,-76.02"/>
<polygon fill="#63b8ff" stroke="#63b8ff" points="291.28,-72.61 280.89,-74.68 290.3,-79.54 291.28,-72.61"/>
</a>
</g>
</g>
<!-- Node14 -->
<g id="Node000014" class="node">
<title>Node14</title>
<g id="a_Node000014"><a xlink:title=" ">
<polygon fill="#e0e0e0" stroke="#999999" points="1710.25,-20 1664.25,-20 1664.25,0 1710.25,0 1710.25,-20"/>
<text xml:space="preserve" text-anchor="middle" x="1687.25" y="-6.5" font-family="Helvetica,sans-Serif" font-size="10.00">math.h</text>
</a>
</g>
</g>
<!-- Node2&#45;&gt;Node14 -->
<g id="edge13_Node000002_Node000014" class="edge">
<title>Node2&#45;&gt;Node14</title>
<g id="a_edge13_Node000002_Node000014"><a xlink:title=" ">
<path fill="none" stroke="#63b8ff" d="M1015.42,-116.96C1027.19,-115.2 1041.41,-113.26 1054.25,-112 1126.02,-104.97 1652.69,-128.39 1702.25,-76 1713.79,-63.8 1707.44,-44.56 1699.77,-30.17"/>
<polygon fill="#63b8ff" stroke="#63b8ff" points="1702.8,-28.43 1694.69,-21.62 1696.78,-32 1702.8,-28.43"/>
</a>
</g>
</g>
<!-- Node15 -->
<g id="Node000015" class="node">
<title>Node15</title>
<g id="a_Node000015"><a xlink:title=" ">
<polygon fill="#e0e0e0" stroke="#999999" points="351.38,-76 297.12,-76 297.12,-56 351.38,-56 351.38,-76"/>
<text xml:space="preserve" text-anchor="middle" x="324.25" y="-62.5" font-family="Helvetica,sans-Serif" font-size="10.00">gtk/gtk.h</text>
</a>
</g>
</g>
<!-- Node2&#45;&gt;Node15 -->
<g id="edge14_Node000002_Node000015" class="edge">
<title>Node2&#45;&gt;Node15</title>
<g id="a_edge14_Node000002_Node000015"><a xlink:title=" ">
<path fill="none" stroke="#63b8ff" d="M965.2,-119.79C866.13,-114.94 500.79,-96.17 362.76,-76.07"/>
<polygon fill="#63b8ff" stroke="#63b8ff" points="363.58,-72.66 353.16,-74.6 362.52,-79.58 363.58,-72.66"/>
</a>
</g>
</g>
<!-- Node16 -->
<g id="Node000016" class="node">
<title>Node16</title>
<g id="a_Node000016"><a xlink:title=" ">
<polygon fill="#e0e0e0" stroke="#999999" points="429,-76 369.5,-76 369.5,-56 429,-56 429,-76"/>
<text xml:space="preserve" text-anchor="middle" x="399.25" y="-62.5" font-family="Helvetica,sans-Serif" font-size="10.00">gtk/gtkx.h</text>
</a>
</g>
</g>
<!-- Node2&#45;&gt;Node16 -->
<g id="edge15_Node000002_Node000016" class="edge">
<title>Node2&#45;&gt;Node16</title>
<g id="a_edge15_Node000002_Node000016"><a xlink:title=" ">
<path fill="none" stroke="#63b8ff" d="M965.06,-120.25C888.01,-117.68 648.54,-107.68 440.53,-76.13"/>
<polygon fill="#63b8ff" stroke="#63b8ff" points="441.31,-72.71 430.9,-74.64 440.25,-79.63 441.31,-72.71"/>
</a>
</g>
</g>
<!-- Node17 -->
<g id="Node000017" class="node">
<title>Node17</title>
<g id="a_Node000017"><a xlink:title=" ">
<polygon fill="#e0e0e0" stroke="#999999" points="505.62,-76 446.88,-76 446.88,-56 505.62,-56 505.62,-76"/>
<text xml:space="preserve" text-anchor="middle" x="476.25" y="-62.5" font-family="Helvetica,sans-Serif" font-size="10.00">gdk/gdk.h</text>
</a>
</g>
</g>
<!-- Node2&#45;&gt;Node17 -->
<g id="edge16_Node000002_Node000017" class="edge">
<title>Node2&#45;&gt;Node17</title>
<g id="a_edge16_Node000002_Node000017"><a xlink:title=" ">
<path fill="none" stroke="#63b8ff" d="M965.12,-119.79C895.56,-116.21 694.42,-104.16 517.09,-76.07"/>
<polygon fill="#63b8ff" stroke="#63b8ff" points="517.9,-72.66 507.47,-74.53 516.79,-79.57 517.9,-72.66"/>
</a>
</g>
</g>
<!-- Node18 -->
<g id="Node000018" class="node">
<title>Node18</title>
<g id="a_Node000018"><a xlink:title=" ">
<polygon fill="#e0e0e0" stroke="#999999" points="622.5,-76 524,-76 524,-56 622.5,-56 622.5,-76"/>
<text xml:space="preserve" text-anchor="middle" x="573.25" y="-62.5" font-family="Helvetica,sans-Serif" font-size="10.00">gdk/gdkkeysyms.h</text>
</a>
</g>
</g>
<!-- Node2&#45;&gt;Node18 -->
<g id="edge17_Node000002_Node000018" class="edge">
<title>Node2&#45;&gt;Node18</title>
<g id="a_edge17_Node000002_Node000018"><a xlink:title=" ">
<path fill="none" stroke="#63b8ff" d="M964.97,-118.09C907.95,-111.47 764.71,-94.53 634.28,-76.39"/>
<polygon fill="#63b8ff" stroke="#63b8ff" points="634.8,-72.93 624.41,-75.01 633.83,-79.86 634.8,-72.93"/>
</a>
</g>
</g>
<!-- Node19 -->
<g id="Node000019" class="node">
<title>Node19</title>
<g id="a_Node000019"><a xlink:title=" ">
<polygon fill="#e0e0e0" stroke="#999999" points="757.88,-76 640.62,-76 640.62,-56 757.88,-56 757.88,-76"/>
<text xml:space="preserve" text-anchor="middle" x="699.25" y="-62.5" font-family="Helvetica,sans-Serif" font-size="10.00">gdk&#45;pixbuf/gdk&#45;pixbuf.h</text>
</a>
</g>
</g>
<!-- Node2&#45;&gt;Node19 -->
<g id="edge18_Node000002_Node000019" class="edge">
<title>Node2&#45;&gt;Node19</title>
<g id="a_edge18_Node000002_Node000019"><a xlink:title=" ">
<path fill="none" stroke="#63b8ff" d="M964.93,-116.3C919.93,-107.95 824.79,-90.3 761.43,-78.54"/>
<polygon fill="#63b8ff" stroke="#63b8ff" points="762.34,-75.15 751.87,-76.76 761.06,-82.03 762.34,-75.15"/>
</a>
</g>
</g>
<!-- Node20 -->
<g id="Node000020" class="node">
<title>Node20</title>
<g id="a_Node000020"><a xlink:title=" ">
<polygon fill="#e0e0e0" stroke="#999999" points="866.75,-76 775.75,-76 775.75,-56 866.75,-56 866.75,-76"/>
<text xml:space="preserve" text-anchor="middle" x="821.25" y="-62.5" font-family="Helvetica,sans-Serif" font-size="10.00">pango/pangoft2.h</text>
</a>
</g>
</g>
<!-- Node2&#45;&gt;Node20 -->
<g id="edge19_Node000002_Node000020" class="edge">
<title>Node2&#45;&gt;Node20</title>
<g id="a_edge19_Node000002_Node000020"><a xlink:title=" ">
<path fill="none" stroke="#63b8ff" d="M964.95,-112.92C937.6,-104.18 893.63,-90.13 861.52,-79.87"/>
<polygon fill="#63b8ff" stroke="#63b8ff" points="862.74,-76.58 852.15,-76.87 860.61,-83.25 862.74,-76.58"/>
</a>
</g>
</g>
<!-- Node21 -->
<g id="Node000021" class="node">
<title>Node21</title>
<g id="a_Node000021"><a xlink:title=" ">
<polygon fill="#e0e0e0" stroke="#999999" points="945.75,-76 884.75,-76 884.75,-56 945.75,-56 945.75,-76"/>
<text xml:space="preserve" text-anchor="middle" x="915.25" y="-62.5" font-family="Helvetica,sans-Serif" font-size="10.00">epoxy/gl.h</text>
</a>
</g>
</g>
<!-- Node2&#45;&gt;Node21 -->
<g id="edge20_Node000002_Node000021" class="edge">
<title>Node2&#45;&gt;Node21</title>
<g id="a_edge20_Node000002_Node000021"><a xlink:title=" ">
<path fill="none" stroke="#63b8ff" d="M977.19,-111.59C966.28,-103.74 950.5,-92.38 937.59,-83.09"/>
<polygon fill="#63b8ff" stroke="#63b8ff" points="939.8,-80.37 929.64,-77.36 935.71,-86.05 939.8,-80.37"/>
</a>
</g>
</g>
<!-- Node22 -->
<g id="Node000022" class="node">
<title>Node22</title>
<g id="a_Node000022"><a xlink:title=" ">
<polygon fill="#e0e0e0" stroke="#999999" points="1016.62,-76 963.88,-76 963.88,-56 1016.62,-56 1016.62,-76"/>
<text xml:space="preserve" text-anchor="middle" x="990.25" y="-62.5" font-family="Helvetica,sans-Serif" font-size="10.00">GL/glu.h</text>
</a>
</g>
</g>
<!-- Node2&#45;&gt;Node22 -->
<g id="edge21_Node000002_Node000022" class="edge">
<title>Node2&#45;&gt;Node22</title>
<g id="a_edge21_Node000002_Node000022"><a xlink:title=" ">
<path fill="none" stroke="#63b8ff" d="M990.25,-111.59C990.25,-105.01 990.25,-95.96 990.25,-87.73"/>
<polygon fill="#63b8ff" stroke="#63b8ff" points="993.75,-87.81 990.25,-77.81 986.75,-87.81 993.75,-87.81"/>
</a>
</g>
</g>
<!-- Node23 -->
<g id="Node000023" class="node">
<title>Node23</title>
<g id="a_Node000023"><a xlink:title=" ">
<polygon fill="#e0e0e0" stroke="#999999" points="1101.38,-76 1035.12,-76 1035.12,-56 1101.38,-56 1101.38,-76"/>
<text xml:space="preserve" text-anchor="middle" x="1068.25" y="-62.5" font-family="Helvetica,sans-Serif" font-size="10.00">epoxy/glx.h</text>
</a>
</g>
</g>
<!-- Node2&#45;&gt;Node23 -->
<g id="edge22_Node000002_Node000023" class="edge">
<title>Node2&#45;&gt;Node23</title>
<g id="a_edge22_Node000002_Node000023"><a xlink:title=" ">
<path fill="none" stroke="#63b8ff" d="M1003.84,-111.59C1015.29,-103.67 1031.91,-92.16 1045.41,-82.82"/>
<polygon fill="#63b8ff" stroke="#63b8ff" points="1047.08,-85.91 1053.31,-77.34 1043.1,-80.16 1047.08,-85.91"/>
</a>
</g>
</g>
<!-- Node24 -->
<g id="Node000024" class="node">
<title>Node24</title>
<g id="a_Node000024"><a xlink:href="../../dc/db0/math__3d_8h.html" target="_top" xlink:title="Functions for OpenGL math.">
<polygon fill="white" stroke="#666666" points="1693.12,-76 1631.38,-76 1631.38,-56 1693.12,-56 1693.12,-76"/>
<text xml:space="preserve" text-anchor="middle" x="1662.25" y="-62.5" font-family="Helvetica,sans-Serif" font-size="10.00">math_3d.h</text>
</a>
</g>
</g>
<!-- Node2&#45;&gt;Node24 -->
<g id="edge23_Node000002_Node000024" class="edge">
<title>Node2&#45;&gt;Node24</title>
<g id="a_edge23_Node000002_Node000024"><a xlink:title=" ">
<path fill="none" stroke="#63b8ff" d="M1015.31,-114.57C1019.92,-113.57 1024.71,-112.66 1029.25,-112 1288.36,-74.43 1357.61,-109.75 1617.25,-76 1618.25,-75.87 1619.27,-75.73 1620.29,-75.58"/>
<polygon fill="#63b8ff" stroke="#63b8ff" points="1620.57,-79.08 1629.86,-74 1619.43,-72.18 1620.57,-79.08"/>
</a>
</g>
</g>
<!-- Node25 -->
<g id="Node000025" class="node">
<title>Node25</title>
<g id="a_Node000025"><a xlink:href="../../d7/d21/cedit_8h.html" target="_top" xlink:title="Variable declarations for the curve layout edition window.">
<polygon fill="white" stroke="#666666" points="1164.88,-76 1119.62,-76 1119.62,-56 1164.88,-56 1164.88,-76"/>
<text xml:space="preserve" text-anchor="middle" x="1142.25" y="-62.5" font-family="Helvetica,sans-Serif" font-size="10.00">cedit.h</text>
</a>
</g>
</g>
<!-- Node2&#45;&gt;Node25 -->
<g id="edge26_Node000002_Node000025" class="edge">
<title>Node2&#45;&gt;Node25</title>
<g id="a_edge26_Node000002_Node000025"><a xlink:title=" ">
<path fill="none" stroke="#63b8ff" d="M1015.35,-112.08C1040.96,-102.99 1080.83,-88.82 1109.04,-78.8"/>
<polygon fill="#63b8ff" stroke="#63b8ff" points="1109.92,-82.2 1118.17,-75.55 1107.58,-75.6 1109.92,-82.2"/>
</a>
</g>
</g>
<!-- Node2&#45;&gt;Node26 -->
<g id="edge27_Node000002_Node000026" class="edge">
<title>Node2&#45;&gt;Node26</title>
<g id="a_edge27_Node000002_Node000026"><a xlink:title=" ">
<path fill="none" stroke="#63b8ff" d="M1015.3,-114.54C1019.92,-113.54 1024.71,-112.63 1029.25,-112 1340.41,-68.51 1424.35,-121.33 1735.25,-76 1735.92,-75.9 1736.6,-75.8 1737.29,-75.69"/>
<polygon fill="#63b8ff" stroke="#63b8ff" points="1737.88,-79.14 1747.01,-73.77 1736.52,-72.27 1737.88,-79.14"/>
</a>
</g>
</g>
<!-- Node24&#45;&gt;Node10 -->
<g id="edge25_Node000024_Node000010" class="edge">
<title>Node24&#45;&gt;Node10</title>
<g id="a_edge25_Node000024_Node000010"><a xlink:title=" ">
<path fill="none" stroke="#63b8ff" d="M1653.19,-55.59C1646.03,-48.16 1635.84,-37.58 1627.18,-28.58"/>
<polygon fill="#63b8ff" stroke="#63b8ff" points="1629.71,-26.16 1620.25,-21.39 1624.67,-31.02 1629.71,-26.16"/>
</a>
</g>
</g>
<!-- Node24&#45;&gt;Node14 -->
<g id="edge24_Node000024_Node000014" class="edge">
<title>Node24&#45;&gt;Node14</title>
<g id="a_edge24_Node000024_Node000014"><a xlink:title=" ">
<path fill="none" stroke="#63b8ff" d="M1666.6,-55.59C1669.8,-48.7 1674.24,-39.1 1678.19,-30.57"/>
<polygon fill="#63b8ff" stroke="#63b8ff" points="1681.28,-32.22 1682.31,-21.67 1674.93,-29.28 1681.28,-32.22"/>
</a>
</g>
</g>
<!-- Node27 -->
<g id="Node000027" class="node">
<title>Node27</title>
<g id="a_Node000027"><a xlink:href="../../d5/d9e/ogl__shading_8h.html" target="_top" xlink:title="Variable declarations related to GLSL programs &#160;&#160;Data structure declarations related to GLSL programs...">
<polygon fill="white" stroke="#666666" points="1810.25,-20 1734.25,-20 1734.25,0 1810.25,0 1810.25,-20"/>
<text xml:space="preserve" text-anchor="middle" x="1772.25" y="-6.5" font-family="Helvetica,sans-Serif" font-size="10.00">ogl_shading.h</text>
</a>
</g>
</g>
<!-- Node26&#45;&gt;Node27 -->
<g id="edge28_Node000026_Node000027" class="edge">
<title>Node26&#45;&gt;Node27</title>
<g id="a_edge28_Node000026_Node000027"><a xlink:title=" ">
<path fill="none" stroke="#63b8ff" d="M1772.25,-55.59C1772.25,-49.01 1772.25,-39.96 1772.25,-31.73"/>
<polygon fill="#63b8ff" stroke="#63b8ff" points="1775.75,-31.81 1772.25,-21.81 1768.75,-31.81 1775.75,-31.81"/>
</a>
</g>
</g>
</g>
</svg>
