<?xml version="1.0" encoding="UTF-8" standalone="no"?>
<!DOCTYPE svg PUBLIC "-//W3C//DTD SVG 1.1//EN"
 "http://www.w3.org/Graphics/SVG/1.1/DTD/svg11.dtd">
<!-- Generated by graphviz version 9.0.0 (20230911.1827)
 -->
<!-- Title: opengl/ogl_shading.c Pages: 1 -->
<svg width="1791pt" height="196pt"
 viewBox="0.00 0.00 1791.38 196.00" xmlns="http://www.w3.org/2000/svg" xmlns:xlink="http://www.w3.org/1999/xlink">
<g id="graph0" class="graph" transform="scale(1 1) rotate(0) translate(4 192)">
<title>opengl/ogl_shading.c</title>
<!-- Node1 -->
<g id="Node000001" class="node">
<title>Node1</title>
<g id="a_Node000001"><a xlink:title="Functions to create GLSL programs &#160;&#160;Functions to manage GLSL programs.">
<polygon fill="#999999" stroke="#666666" points="1706.5,-188 1599,-188 1599,-168 1706.5,-168 1706.5,-188"/>
<text text-anchor="middle" x="1652.75" y="-174.5" font-family="Helvetica,sans-Serif" font-size="10.00">opengl/ogl_shading.c</text>
</a>
</g>
</g>
<!-- Node2 -->
<g id="Node000002" class="node">
<title>Node2</title>
<g id="a_Node000002"><a xlink:href="../../d2/d49/global_8h.html" target="_top" xlink:title="Global variable declarations &#160;&#160;Global convenience function declarations &#160;&#160;Global data structure defin...">
<polygon fill="white" stroke="#666666" points="797.62,-132 747.88,-132 747.88,-112 797.62,-112 797.62,-132"/>
<text text-anchor="middle" x="772.75" y="-118.5" font-family="Helvetica,sans-Serif" font-size="10.00">global.h</text>
</a>
</g>
</g>
<!-- Node1&#45;&gt;Node2 -->
<g id="edge1_Node000001_Node000002" class="edge">
<title>Node1&#45;&gt;Node2</title>
<g id="a_edge1_Node000001_Node000002"><a xlink:title=" ">
<path fill="none" stroke="#63b8ff" d="M1598.7,-173.68C1434.82,-163.63 946.39,-133.66 809.04,-125.23"/>
<polygon fill="#63b8ff" stroke="#63b8ff" points="809.65,-121.76 799.46,-124.64 809.22,-128.74 809.65,-121.76"/>
</a>
</g>
</g>
<!-- Node24 -->
<g id="Node000024" class="node">
<title>Node24</title>
<g id="a_Node000024"><a xlink:href="../../d5/d9e/ogl__shading_8h.html" target="_top" xlink:title="Variable declarations related to GLSL programs &#160;&#160;Data structure declarations related to GLSL programs...">
<polygon fill="white" stroke="#666666" points="1606.75,-20 1530.75,-20 1530.75,0 1606.75,0 1606.75,-20"/>
<text text-anchor="middle" x="1568.75" y="-6.5" font-family="Helvetica,sans-Serif" font-size="10.00">ogl_shading.h</text>
</a>
</g>
</g>
<!-- Node1&#45;&gt;Node24 -->
<g id="edge28_Node000001_Node000024" class="edge">
<title>Node1&#45;&gt;Node24</title>
<g id="a_edge28_Node000001_Node000024"><a xlink:title=" ">
<path fill="none" stroke="#63b8ff" d="M1650.12,-167.77C1643.98,-146.95 1627.45,-95.08 1604.75,-56 1599.25,-46.53 1591.87,-36.93 1585.22,-29.04"/>
<polygon fill="#63b8ff" stroke="#63b8ff" points="1587.87,-26.75 1578.65,-21.53 1582.6,-31.36 1587.87,-26.75"/>
</a>
</g>
</g>
<!-- Node25 -->
<g id="Node000025" class="node">
<title>Node25</title>
<g id="a_Node000025"><a xlink:href="../../d4/da9/interface_8h.html" target="_top" xlink:title="Messaging function declarations.">
<polygon fill="white" stroke="#666666" points="1713.62,-132 1651.88,-132 1651.88,-112 1713.62,-112 1713.62,-132"/>
<text text-anchor="middle" x="1682.75" y="-118.5" font-family="Helvetica,sans-Serif" font-size="10.00">interface.h</text>
</a>
</g>
</g>
<!-- Node1&#45;&gt;Node25 -->
<g id="edge26_Node000001_Node000025" class="edge">
<title>Node1&#45;&gt;Node25</title>
<g id="a_edge26_Node000001_Node000025"><a xlink:title=" ">
<path fill="none" stroke="#63b8ff" d="M1657.98,-167.59C1661.85,-160.63 1667.26,-150.89 1672.03,-142.29"/>
<polygon fill="#63b8ff" stroke="#63b8ff" points="1675.05,-144.06 1676.85,-133.62 1668.93,-140.66 1675.05,-144.06"/>
</a>
</g>
</g>
<!-- Node26 -->
<g id="Node000026" class="node">
<title>Node26</title>
<g id="a_Node000026"><a xlink:href="../../dc/de3/glview_8h.html" target="_top" xlink:title="Variable declarations related to the OpenGL window &#160;&#160;Function declarations related to the OpenGL wind...">
<polygon fill="white" stroke="#666666" points="1783.38,-132 1732.12,-132 1732.12,-112 1783.38,-112 1783.38,-132"/>
<text text-anchor="middle" x="1757.75" y="-118.5" font-family="Helvetica,sans-Serif" font-size="10.00">glview.h</text>
</a>
</g>
</g>
<!-- Node1&#45;&gt;Node26 -->
<g id="edge27_Node000001_Node000026" class="edge">
<title>Node1&#45;&gt;Node26</title>
<g id="a_edge27_Node000001_Node000026"><a xlink:title=" ">
<path fill="none" stroke="#63b8ff" d="M1671.04,-167.59C1687.05,-159.36 1710.58,-147.26 1729.09,-137.74"/>
<polygon fill="#63b8ff" stroke="#63b8ff" points="1730.68,-140.86 1737.97,-133.17 1727.48,-134.63 1730.68,-140.86"/>
</a>
</g>
</g>
<!-- Node3 -->
<g id="Node000003" class="node">
<title>Node3</title>
<g id="a_Node000003"><a xlink:title=" ">
<polygon fill="#e0e0e0" stroke="#999999" points="1595.38,-76 1556.12,-76 1556.12,-56 1595.38,-56 1595.38,-76"/>
<text text-anchor="middle" x="1575.75" y="-62.5" font-family="Helvetica,sans-Serif" font-size="10.00">glib.h</text>
</a>
</g>
</g>
<!-- Node2&#45;&gt;Node3 -->
<g id="edge2_Node000002_Node000003" class="edge">
<title>Node2&#45;&gt;Node3</title>
<g id="a_edge2_Node000002_Node000003"><a xlink:title=" ">
<path fill="none" stroke="#63b8ff" d="M797.88,-120.36C911.24,-117.35 1376.36,-103.64 1544.81,-75.79"/>
<polygon fill="#63b8ff" stroke="#63b8ff" points="1545.2,-79.27 1554.45,-74.1 1544,-72.37 1545.2,-79.27"/>
</a>
</g>
</g>
<!-- Node4 -->
<g id="Node000004" class="node">
<title>Node4</title>
<g id="a_Node000004"><a xlink:title=" ">
<polygon fill="#e0e0e0" stroke="#999999" points="65.5,-76 0,-76 0,-56 65.5,-56 65.5,-76"/>
<text text-anchor="middle" x="32.75" y="-62.5" font-family="Helvetica,sans-Serif" font-size="10.00">glib/gi18n.h</text>
</a>
</g>
</g>
<!-- Node2&#45;&gt;Node4 -->
<g id="edge3_Node000002_Node000004" class="edge">
<title>Node2&#45;&gt;Node4</title>
<g id="a_edge3_Node000002_Node000004"><a xlink:title=" ">
<path fill="none" stroke="#63b8ff" d="M747.58,-120.71C657.79,-119.39 344.78,-112.42 76.8,-76.06"/>
<polygon fill="#63b8ff" stroke="#63b8ff" points="77.57,-72.64 67.18,-74.74 76.61,-79.57 77.57,-72.64"/>
</a>
</g>
</g>
<!-- Node5 -->
<g id="Node000005" class="node">
<title>Node5</title>
<g id="a_Node000005"><a xlink:title=" ">
<polygon fill="#e0e0e0" stroke="#999999" points="133.62,-76 83.88,-76 83.88,-56 133.62,-56 133.62,-76"/>
<text text-anchor="middle" x="108.75" y="-62.5" font-family="Helvetica,sans-Serif" font-size="10.00">locale.h</text>
</a>
</g>
</g>
<!-- Node2&#45;&gt;Node5 -->
<g id="edge4_Node000002_Node000005" class="edge">
<title>Node2&#45;&gt;Node5</title>
<g id="a_edge4_Node000002_Node000005"><a xlink:title=" ">
<path fill="none" stroke="#63b8ff" d="M747.64,-120.89C663.56,-120.17 384.21,-114.94 144.89,-76.03"/>
<polygon fill="#63b8ff" stroke="#63b8ff" points="145.82,-72.64 135.38,-74.46 144.68,-79.55 145.82,-72.64"/>
</a>
</g>
</g>
<!-- Node6 -->
<g id="Node000006" class="node">
<title>Node6</title>
<g id="a_Node000006"><a xlink:title=" ">
<polygon fill="#e0e0e0" stroke="#999999" points="202,-76 151.5,-76 151.5,-56 202,-56 202,-76"/>
<text text-anchor="middle" x="176.75" y="-62.5" font-family="Helvetica,sans-Serif" font-size="10.00">unistd.h</text>
</a>
</g>
</g>
<!-- Node2&#45;&gt;Node6 -->
<g id="edge5_Node000002_Node000006" class="edge">
<title>Node2&#45;&gt;Node6</title>
<g id="a_edge5_Node000002_Node000006"><a xlink:title=" ">
<path fill="none" stroke="#63b8ff" d="M747.62,-120.59C669.65,-118.97 424.83,-111.37 213.57,-76.19"/>
<polygon fill="#63b8ff" stroke="#63b8ff" points="214.2,-72.75 203.75,-74.53 213.03,-79.65 214.2,-72.75"/>
</a>
</g>
</g>
<!-- Node7 -->
<g id="Node000007" class="node">
<title>Node7</title>
<g id="a_Node000007"><a xlink:title=" ">
<polygon fill="#e0e0e0" stroke="#999999" points="267.88,-76 219.62,-76 219.62,-56 267.88,-56 267.88,-76"/>
<text text-anchor="middle" x="243.75" y="-62.5" font-family="Helvetica,sans-Serif" font-size="10.00">string.h</text>
</a>
</g>
</g>
<!-- Node2&#45;&gt;Node7 -->
<g id="edge6_Node000002_Node000007" class="edge">
<title>Node2&#45;&gt;Node7</title>
<g id="a_edge6_Node000002_Node000007"><a xlink:title=" ">
<path fill="none" stroke="#63b8ff" d="M747.55,-119.95C674.87,-116.64 458.74,-104.92 281.75,-76 280.92,-75.86 280.09,-75.72 279.24,-75.57"/>
<polygon fill="#63b8ff" stroke="#63b8ff" points="280.16,-72.19 269.66,-73.62 278.76,-79.05 280.16,-72.19"/>
</a>
</g>
</g>
<!-- Node8 -->
<g id="Node000008" class="node">
<title>Node8</title>
<g id="a_Node000008"><a xlink:title=" ">
<polygon fill="#e0e0e0" stroke="#999999" points="517.38,-20 472.12,-20 472.12,0 517.38,0 517.38,-20"/>
<text text-anchor="middle" x="494.75" y="-6.5" font-family="Helvetica,sans-Serif" font-size="10.00">stdio.h</text>
</a>
</g>
</g>
<!-- Node2&#45;&gt;Node8 -->
<g id="edge7_Node000002_Node000008" class="edge">
<title>Node2&#45;&gt;Node8</title>
<g id="a_edge7_Node000002_Node000008"><a xlink:title=" ">
<path fill="none" stroke="#63b8ff" d="M747.4,-120.45C655.56,-118.21 344,-108.26 314.75,-76 271.46,-28.25 397.15,-15.54 460.57,-12.19"/>
<polygon fill="#63b8ff" stroke="#63b8ff" points="460.66,-15.69 470.48,-11.72 460.33,-8.7 460.66,-15.69"/>
</a>
</g>
</g>
<!-- Node9 -->
<g id="Node000009" class="node">
<title>Node9</title>
<g id="a_Node000009"><a xlink:title=" ">
<polygon fill="#e0e0e0" stroke="#999999" points="371.5,-76 324,-76 324,-56 371.5,-56 371.5,-76"/>
<text text-anchor="middle" x="347.75" y="-62.5" font-family="Helvetica,sans-Serif" font-size="10.00">stdlib.h</text>
</a>
</g>
</g>
<!-- Node2&#45;&gt;Node9 -->
<g id="edge8_Node000002_Node000009" class="edge">
<title>Node2&#45;&gt;Node9</title>
<g id="a_edge8_Node000002_Node000009"><a xlink:title=" ">
<path fill="none" stroke="#63b8ff" d="M747.71,-119.53C686.74,-115.65 525.68,-103.65 382.88,-76.36"/>
<polygon fill="#63b8ff" stroke="#63b8ff" points="383.73,-72.96 373.25,-74.49 382.4,-79.83 383.73,-72.96"/>
</a>
</g>
</g>
<!-- Node10 -->
<g id="Node000010" class="node">
<title>Node10</title>
<g id="a_Node000010"><a xlink:title=" ">
<polygon fill="#e0e0e0" stroke="#999999" points="456.25,-76 389.25,-76 389.25,-56 456.25,-56 456.25,-76"/>
<text text-anchor="middle" x="422.75" y="-62.5" font-family="Helvetica,sans-Serif" font-size="10.00">sys/types.h</text>
</a>
</g>
</g>
<!-- Node2&#45;&gt;Node10 -->
<g id="edge9_Node000002_Node000010" class="edge">
<title>Node2&#45;&gt;Node10</title>
<g id="a_edge9_Node000002_Node000010"><a xlink:title=" ">
<path fill="none" stroke="#63b8ff" d="M747.51,-117.89C696.55,-111.48 577.52,-95.89 467.9,-76.48"/>
<polygon fill="#63b8ff" stroke="#63b8ff" points="468.59,-73.04 458.13,-74.73 467.36,-79.94 468.59,-73.04"/>
</a>
</g>
</g>
<!-- Node11 -->
<g id="Node000011" class="node">
<title>Node11</title>
<g id="a_Node000011"><a xlink:title=" ">
<polygon fill="#e0e0e0" stroke="#999999" points="533.5,-76 474,-76 474,-56 533.5,-56 533.5,-76"/>
<text text-anchor="middle" x="503.75" y="-62.5" font-family="Helvetica,sans-Serif" font-size="10.00">sys/stat.h</text>
</a>
</g>
</g>
<!-- Node2&#45;&gt;Node11 -->
<g id="edge10_Node000002_Node000011" class="edge">
<title>Node2&#45;&gt;Node11</title>
<g id="a_edge10_Node000002_Node000011"><a xlink:title=" ">
<path fill="none" stroke="#63b8ff" d="M747.51,-116.35C707.02,-108.83 624.79,-93.3 545.17,-76.46"/>
<polygon fill="#63b8ff" stroke="#63b8ff" points="545.95,-73.05 535.44,-74.39 544.5,-79.9 545.95,-73.05"/>
</a>
</g>
</g>
<!-- Node12 -->
<g id="Node000012" class="node">
<title>Node12</title>
<g id="a_Node000012"><a xlink:title=" ">
<polygon fill="#e0e0e0" stroke="#999999" points="692.75,-20 646.75,-20 646.75,0 692.75,0 692.75,-20"/>
<text text-anchor="middle" x="669.75" y="-6.5" font-family="Helvetica,sans-Serif" font-size="10.00">math.h</text>
</a>
</g>
</g>
<!-- Node2&#45;&gt;Node12 -->
<g id="edge11_Node000002_Node000012" class="edge">
<title>Node2&#45;&gt;Node12</title>
<g id="a_edge11_Node000002_Node000012"><a xlink:title=" ">
<path fill="none" stroke="#63b8ff" d="M797.95,-121.29C914.77,-122.4 1399.82,-124.04 1444.75,-76 1450.82,-69.51 1450.85,-62.46 1444.75,-56 1419,-28.71 851.36,-14.84 704.3,-11.7"/>
<polygon fill="#63b8ff" stroke="#63b8ff" points="704.5,-8.2 694.42,-11.49 704.35,-15.2 704.5,-8.2"/>
</a>
</g>
</g>
<!-- Node13 -->
<g id="Node000013" class="node">
<title>Node13</title>
<g id="a_Node000013"><a xlink:title=" ">
<polygon fill="#e0e0e0" stroke="#999999" points="685.88,-76 631.62,-76 631.62,-56 685.88,-56 685.88,-76"/>
<text text-anchor="middle" x="658.75" y="-62.5" font-family="Helvetica,sans-Serif" font-size="10.00">gtk/gtk.h</text>
</a>
</g>
</g>
<!-- Node2&#45;&gt;Node13 -->
<g id="edge12_Node000002_Node000013" class="edge">
<title>Node2&#45;&gt;Node13</title>
<g id="a_edge12_Node000002_Node000013"><a xlink:title=" ">
<path fill="none" stroke="#63b8ff" d="M752.89,-111.59C735.26,-103.24 709.24,-90.92 689.02,-81.34"/>
<polygon fill="#63b8ff" stroke="#63b8ff" points="690.67,-78.25 680.13,-77.13 687.67,-84.57 690.67,-78.25"/>
</a>
</g>
</g>
<!-- Node14 -->
<g id="Node000014" class="node">
<title>Node14</title>
<g id="a_Node000014"><a xlink:title=" ">
<polygon fill="#e0e0e0" stroke="#999999" points="763.5,-76 704,-76 704,-56 763.5,-56 763.5,-76"/>
<text text-anchor="middle" x="733.75" y="-62.5" font-family="Helvetica,sans-Serif" font-size="10.00">gtk/gtkx.h</text>
</a>
</g>
</g>
<!-- Node2&#45;&gt;Node14 -->
<g id="edge13_Node000002_Node000014" class="edge">
<title>Node2&#45;&gt;Node14</title>
<g id="a_edge13_Node000002_Node000014"><a xlink:title=" ">
<path fill="none" stroke="#63b8ff" d="M765.96,-111.59C760.76,-104.39 753.42,-94.23 747.06,-85.43"/>
<polygon fill="#63b8ff" stroke="#63b8ff" points="750.04,-83.58 741.35,-77.53 744.37,-87.68 750.04,-83.58"/>
</a>
</g>
</g>
<!-- Node15 -->
<g id="Node000015" class="node">
<title>Node15</title>
<g id="a_Node000015"><a xlink:title=" ">
<polygon fill="#e0e0e0" stroke="#999999" points="840.12,-76 781.38,-76 781.38,-56 840.12,-56 840.12,-76"/>
<text text-anchor="middle" x="810.75" y="-62.5" font-family="Helvetica,sans-Serif" font-size="10.00">gdk/gdk.h</text>
</a>
</g>
</g>
<!-- Node2&#45;&gt;Node15 -->
<g id="edge14_Node000002_Node000015" class="edge">
<title>Node2&#45;&gt;Node15</title>
<g id="a_edge14_Node000002_Node000015"><a xlink:title=" ">
<path fill="none" stroke="#63b8ff" d="M779.37,-111.59C784.44,-104.39 791.59,-94.23 797.78,-85.43"/>
<polygon fill="#63b8ff" stroke="#63b8ff" points="800.44,-87.73 803.34,-77.54 794.72,-83.7 800.44,-87.73"/>
</a>
</g>
</g>
<!-- Node16 -->
<g id="Node000016" class="node">
<title>Node16</title>
<g id="a_Node000016"><a xlink:title=" ">
<polygon fill="#e0e0e0" stroke="#999999" points="957,-76 858.5,-76 858.5,-56 957,-56 957,-76"/>
<text text-anchor="middle" x="907.75" y="-62.5" font-family="Helvetica,sans-Serif" font-size="10.00">gdk/gdkkeysyms.h</text>
</a>
</g>
</g>
<!-- Node2&#45;&gt;Node16 -->
<g id="edge15_Node000002_Node000016" class="edge">
<title>Node2&#45;&gt;Node16</title>
<g id="a_edge15_Node000002_Node000016"><a xlink:title=" ">
<path fill="none" stroke="#63b8ff" d="M796.27,-111.59C817.62,-103.05 849.38,-90.35 873.55,-80.68"/>
<polygon fill="#63b8ff" stroke="#63b8ff" points="874.66,-84.01 882.65,-77.04 872.06,-77.51 874.66,-84.01"/>
</a>
</g>
</g>
<!-- Node17 -->
<g id="Node000017" class="node">
<title>Node17</title>
<g id="a_Node000017"><a xlink:title=" ">
<polygon fill="#e0e0e0" stroke="#999999" points="1092.38,-76 975.12,-76 975.12,-56 1092.38,-56 1092.38,-76"/>
<text text-anchor="middle" x="1033.75" y="-62.5" font-family="Helvetica,sans-Serif" font-size="10.00">gdk&#45;pixbuf/gdk&#45;pixbuf.h</text>
</a>
</g>
</g>
<!-- Node2&#45;&gt;Node17 -->
<g id="edge16_Node000002_Node000017" class="edge">
<title>Node2&#45;&gt;Node17</title>
<g id="a_edge16_Node000002_Node000017"><a xlink:title=" ">
<path fill="none" stroke="#63b8ff" d="M797.78,-115.82C838.72,-107.35 921.03,-90.32 976.78,-78.79"/>
<polygon fill="#63b8ff" stroke="#63b8ff" points="977.33,-82.25 986.42,-76.79 975.91,-75.39 977.33,-82.25"/>
</a>
</g>
</g>
<!-- Node18 -->
<g id="Node000018" class="node">
<title>Node18</title>
<g id="a_Node000018"><a xlink:title=" ">
<polygon fill="#e0e0e0" stroke="#999999" points="1201.25,-76 1110.25,-76 1110.25,-56 1201.25,-56 1201.25,-76"/>
<text text-anchor="middle" x="1155.75" y="-62.5" font-family="Helvetica,sans-Serif" font-size="10.00">pango/pangoft2.h</text>
</a>
</g>
</g>
<!-- Node2&#45;&gt;Node18 -->
<g id="edge17_Node000002_Node000018" class="edge">
<title>Node2&#45;&gt;Node18</title>
<g id="a_edge17_Node000002_Node000018"><a xlink:title=" ">
<path fill="none" stroke="#63b8ff" d="M797.96,-117.81C851.45,-110.98 980.48,-94.22 1098.76,-76.42"/>
<polygon fill="#63b8ff" stroke="#63b8ff" points="1098.95,-79.93 1108.31,-74.98 1097.9,-73.01 1098.95,-79.93"/>
</a>
</g>
</g>
<!-- Node19 -->
<g id="Node000019" class="node">
<title>Node19</title>
<g id="a_Node000019"><a xlink:title=" ">
<polygon fill="#e0e0e0" stroke="#999999" points="1280.25,-76 1219.25,-76 1219.25,-56 1280.25,-56 1280.25,-76"/>
<text text-anchor="middle" x="1249.75" y="-62.5" font-family="Helvetica,sans-Serif" font-size="10.00">epoxy/gl.h</text>
</a>
</g>
</g>
<!-- Node2&#45;&gt;Node19 -->
<g id="edge18_Node000002_Node000019" class="edge">
<title>Node2&#45;&gt;Node19</title>
<g id="a_edge18_Node000002_Node000019"><a xlink:title=" ">
<path fill="none" stroke="#63b8ff" d="M798.01,-119.45C863.79,-115.2 1045.89,-102.01 1207.69,-76.14"/>
<polygon fill="#63b8ff" stroke="#63b8ff" points="1208.01,-79.64 1217.32,-74.58 1206.89,-72.73 1208.01,-79.64"/>
</a>
</g>
</g>
<!-- Node20 -->
<g id="Node000020" class="node">
<title>Node20</title>
<g id="a_Node000020"><a xlink:title=" ">
<polygon fill="#e0e0e0" stroke="#999999" points="1351.12,-76 1298.38,-76 1298.38,-56 1351.12,-56 1351.12,-76"/>
<text text-anchor="middle" x="1324.75" y="-62.5" font-family="Helvetica,sans-Serif" font-size="10.00">GL/glu.h</text>
</a>
</g>
</g>
<!-- Node2&#45;&gt;Node20 -->
<g id="edge19_Node000002_Node000020" class="edge">
<title>Node2&#45;&gt;Node20</title>
<g id="a_edge19_Node000002_Node000020"><a xlink:title=" ">
<path fill="none" stroke="#63b8ff" d="M797.9,-120.21C871.54,-117.62 1093.18,-107.7 1286.87,-76.03"/>
<polygon fill="#63b8ff" stroke="#63b8ff" points="1287.33,-79.5 1296.62,-74.41 1286.18,-72.59 1287.33,-79.5"/>
</a>
</g>
</g>
<!-- Node21 -->
<g id="Node000021" class="node">
<title>Node21</title>
<g id="a_Node000021"><a xlink:title=" ">
<polygon fill="#e0e0e0" stroke="#999999" points="1435.88,-76 1369.62,-76 1369.62,-56 1435.88,-56 1435.88,-76"/>
<text text-anchor="middle" x="1402.75" y="-62.5" font-family="Helvetica,sans-Serif" font-size="10.00">epoxy/glx.h</text>
</a>
</g>
</g>
<!-- Node2&#45;&gt;Node21 -->
<g id="edge20_Node000002_Node000021" class="edge">
<title>Node2&#45;&gt;Node21</title>
<g id="a_edge20_Node000002_Node000021"><a xlink:title=" ">
<path fill="none" stroke="#63b8ff" d="M798.05,-120.23C878.39,-117.56 1135,-107.11 1358.22,-76"/>
<polygon fill="#63b8ff" stroke="#63b8ff" points="1358.58,-79.48 1367.99,-74.62 1357.6,-72.55 1358.58,-79.48"/>
</a>
</g>
</g>
<!-- Node22 -->
<g id="Node000022" class="node">
<title>Node22</title>
<g id="a_Node000022"><a xlink:href="../../dc/db0/math__3d_8h.html" target="_top" xlink:title="Functions for OpenGL math.">
<polygon fill="white" stroke="#666666" points="613.62,-76 551.88,-76 551.88,-56 613.62,-56 613.62,-76"/>
<text text-anchor="middle" x="582.75" y="-62.5" font-family="Helvetica,sans-Serif" font-size="10.00">math_3d.h</text>
</a>
</g>
</g>
<!-- Node2&#45;&gt;Node22 -->
<g id="edge21_Node000002_Node000022" class="edge">
<title>Node2&#45;&gt;Node22</title>
<g id="a_edge21_Node000002_Node000022"><a xlink:title=" ">
<path fill="none" stroke="#63b8ff" d="M747.52,-113.83C716.19,-104.93 662.3,-89.61 624.71,-78.93"/>
<polygon fill="#63b8ff" stroke="#63b8ff" points="626.12,-75.69 615.55,-76.32 624.21,-82.42 626.12,-75.69"/>
</a>
</g>
</g>
<!-- Node23 -->
<g id="Node000023" class="node">
<title>Node23</title>
<g id="a_Node000023"><a xlink:href="../../da/d7e/glwin_8h.html" target="_top" xlink:title="Variable declarations related the OpenGL window &#160;&#160;Data structure declarations related the OpenGL wind...">
<polygon fill="white" stroke="#666666" points="1538.12,-76 1491.38,-76 1491.38,-56 1538.12,-56 1538.12,-76"/>
<text text-anchor="middle" x="1514.75" y="-62.5" font-family="Helvetica,sans-Serif" font-size="10.00">glwin.h</text>
</a>
</g>
</g>
<!-- Node2&#45;&gt;Node23 -->
<g id="edge24_Node000002_Node000023" class="edge">
<title>Node2&#45;&gt;Node23</title>
<g id="a_edge24_Node000002_Node000023"><a xlink:title=" ">
<path fill="none" stroke="#63b8ff" d="M797.9,-120.98C889.54,-120.57 1214.04,-116.17 1477.75,-76 1478.42,-75.9 1479.1,-75.79 1479.79,-75.67"/>
<polygon fill="#63b8ff" stroke="#63b8ff" points="1480.39,-79.12 1489.5,-73.73 1479.01,-72.26 1480.39,-79.12"/>
</a>
</g>
</g>
<!-- Node22&#45;&gt;Node8 -->
<g id="edge23_Node000022_Node000008" class="edge">
<title>Node22&#45;&gt;Node8</title>
<g id="a_edge23_Node000022_Node000008"><a xlink:title=" ">
<path fill="none" stroke="#63b8ff" d="M567.42,-55.59C554.25,-47.51 535.02,-35.71 519.64,-26.27"/>
<polygon fill="#63b8ff" stroke="#63b8ff" points="521.84,-23.52 511.49,-21.27 518.18,-29.48 521.84,-23.52"/>
</a>
</g>
</g>
<!-- Node22&#45;&gt;Node12 -->
<g id="edge22_Node000022_Node000012" class="edge">
<title>Node22&#45;&gt;Node12</title>
<g id="a_edge22_Node000022_Node000012"><a xlink:title=" ">
<path fill="none" stroke="#63b8ff" d="M597.9,-55.59C610.8,-47.59 629.58,-35.93 644.71,-26.54"/>
<polygon fill="#63b8ff" stroke="#63b8ff" points="646.54,-29.53 653.19,-21.28 642.85,-23.58 646.54,-29.53"/>
</a>
</g>
</g>
<!-- Node23&#45;&gt;Node24 -->
<g id="edge25_Node000023_Node000024" class="edge">
<title>Node23&#45;&gt;Node24</title>
<g id="a_edge25_Node000023_Node000024"><a xlink:title=" ">
<path fill="none" stroke="#63b8ff" d="M1524.16,-55.59C1531.67,-48.08 1542.4,-37.35 1551.45,-28.3"/>
<polygon fill="#63b8ff" stroke="#63b8ff" points="1553.79,-30.91 1558.38,-21.37 1548.84,-25.96 1553.79,-30.91"/>
</a>
</g>
</g>
</g>
</svg>
