<?xml version="1.0" encoding="UTF-8" standalone="no"?>
<!DOCTYPE svg PUBLIC "-//W3C//DTD SVG 1.1//EN"
 "http://www.w3.org/Graphics/SVG/1.1/DTD/svg11.dtd">
<!-- Generated by graphviz version 9.0.0 (20230911.1827)
 -->
<!-- Title: calc/dl_poly/dlp_field.h Pages: 1 -->
<!--zoomable 96 -->

<svg id="main" version="1.1" xmlns="http://www.w3.org/2000/svg" xmlns:xlink="http://www.w3.org/1999/xlink" xml:space="preserve" onload="init(evt)">
<style type="text/css"><![CDATA[
.node, .edge {opacity: 0.7;}
.node.selected, .edge.selected {opacity: 1;}
.edge:hover path { stroke: red; }
.edge:hover polygon { stroke: red; fill: red; }
]]></style>

<defs>
  <circle id="rim" cx="0" cy="0" r="7"/>
  <circle id="rim2" cx="0" cy="0" r="3.5"/>
  <g id="zoomPlus">
    <use xlink:href="#rim" fill="#404040"><set attributeName="fill" to="#808080" begin="zoomplus.mouseover" end="zoomplus.mouseout"/></use>
    <path d="M-4,0h8M0,-4v8" fill="none" stroke="white" stroke-width="1.5" pointer-events="none"/>
  </g>
  <g id="zoomMin">
    <use xlink:href="#rim" fill="#404040"><set attributeName="fill" to="#808080" begin="zoomminus.mouseover" end="zoomminus.mouseout"/></use>
    <path d="M-4,0h8" fill="none" stroke="white" stroke-width="1.5" pointer-events="none"/>
  </g>
  <g id="arrowUp" transform="translate(30 24)">
    <use xlink:href="#rim"/>
    <path pointer-events="none" fill="none" stroke="white" stroke-width="1.5" d="M0,-3.0v7 M-2.5,-0.5L0,-3.0L2.5,-0.5"/>
  </g>
  <g id="arrowRight" transform="rotate(90) translate(36 -43)">
    <use xlink:href="#rim"/>
    <path pointer-events="none" fill="none" stroke="white" stroke-width="1.5" d="M0,-3.0v7 M-2.5,-0.5L0,-3.0L2.5,-0.5"/>
  </g>
  <g id="arrowDown" transform="rotate(180) translate(-30 -48)">
    <use xlink:href="#rim"/>
    <path pointer-events="none" fill="none" stroke="white" stroke-width="1.5" d="M0,-3.0v7 M-2.5,-0.5L0,-3.0L2.5,-0.5"/>
  </g>
  <g id="arrowLeft" transform="rotate(270) translate(-36 17)">
    <use xlink:href="#rim"/>
    <path pointer-events="none" fill="none" stroke="white" stroke-width="1.5" d="M0,-3.0v7 M-2.5,-0.5L0,-3.0L2.5,-0.5"/>
  </g>
  <g id="resetDef">
    <use xlink:href="#rim2" fill="#404040"><set attributeName="fill" to="#808080" begin="reset.mouseover" end="reset.mouseout"/></use>
  </g>
</defs>
<script type="application/ecmascript">
var viewWidth = 3057;
var viewHeight = 96;
var sectionId = 'dynsection-1';
</script>
<script type="application/ecmascript" xlink:href="../../svg.min.js"/>
<svg id="graph" class="graph">
<g id="viewport">
<title>calc/dl_poly/dlp_field.h</title>
<!-- Node1 -->
<g id="Node000001" class="node">
<title>Node1</title>
<g id="a_Node000001"><a xlink:title="Variable declarations for the creation of the DL_POLY input file(s)">
<polygon fill="#999999" stroke="#666666" points="1641.12,-88 1526.12,-88 1526.12,-68 1641.12,-68 1641.12,-88"/>
<text text-anchor="middle" x="1583.62" y="-74.5" font-family="Helvetica,sans-Serif" font-size="10.00">calc/dl_poly/dlp_field.h</text>
</a>
</g>
</g>
<!-- Node2 -->
<g id="Node000002" class="node">
<title>Node2</title>
<g id="a_Node000002"><a xlink:href="../../d3/dd7/dlp__active_8c.html" target="_top" xlink:title="Functions to retrieve data in the force field structure.">
<polygon fill="white" stroke="#666666" points="123.25,-26 0,-26 0,-6 123.25,-6 123.25,-26"/>
<text text-anchor="middle" x="61.62" y="-12.5" font-family="Helvetica,sans-Serif" font-size="10.00">calc/dl_poly/dlp_active.c</text>
</a>
</g>
</g>
<!-- Node1&#45;&gt;Node2 -->
<g id="edge1_Node000001_Node000002" class="edge">
<title>Node1&#45;&gt;Node2</title>
<g id="a_edge1_Node000001_Node000002"><a xlink:title=" ">
<path fill="none" stroke="#63b8ff" d="M1514.52,-76.48C1264.17,-74.35 405.12,-64.75 132.62,-32 121.99,-30.72 110.59,-28.64 100.11,-26.43"/>
<polygon fill="#63b8ff" stroke="#63b8ff" points="1514.43,-79.98 1524.46,-76.56 1514.49,-72.98 1514.43,-79.98"/>
</a>
</g>
</g>
<!-- Node3 -->
<g id="Node000003" class="node">
<title>Node3</title>
<g id="a_Node000003"><a xlink:href="../../d2/da2/dlp__atom_8c.html" target="_top" xlink:title="Functions to handle atom selection(s) when creating a force field &#160;&#160;Functions to remove / add field a...">
<polygon fill="white" stroke="#666666" points="260,-26 141.25,-26 141.25,-6 260,-6 260,-26"/>
<text text-anchor="middle" x="200.62" y="-12.5" font-family="Helvetica,sans-Serif" font-size="10.00">calc/dl_poly/dlp_atom.c</text>
</a>
</g>
</g>
<!-- Node1&#45;&gt;Node3 -->
<g id="edge2_Node000001_Node000003" class="edge">
<title>Node1&#45;&gt;Node3</title>
<g id="a_edge2_Node000001_Node000003"><a xlink:title=" ">
<path fill="none" stroke="#63b8ff" d="M1514.4,-76.3C1279.38,-73.67 513.08,-62.88 268.62,-32 258.55,-30.73 247.77,-28.67 237.82,-26.49"/>
<polygon fill="#63b8ff" stroke="#63b8ff" points="1514.29,-79.8 1524.33,-76.41 1514.37,-72.8 1514.29,-79.8"/>
</a>
</g>
</g>
<!-- Node4 -->
<g id="Node000004" class="node">
<title>Node4</title>
<g id="a_Node000004"><a xlink:href="../../d8/ded/dlp__comp_8c.html" target="_top" xlink:title="Functions to compare and adjust field body parameters.">
<polygon fill="white" stroke="#666666" points="399.12,-26 278.12,-26 278.12,-6 399.12,-6 399.12,-26"/>
<text text-anchor="middle" x="338.62" y="-12.5" font-family="Helvetica,sans-Serif" font-size="10.00">calc/dl_poly/dlp_comp.c</text>
</a>
</g>
</g>
<!-- Node1&#45;&gt;Node4 -->
<g id="edge3_Node000001_Node000004" class="edge">
<title>Node1&#45;&gt;Node4</title>
<g id="a_edge3_Node000001_Node000004"><a xlink:title=" ">
<path fill="none" stroke="#63b8ff" d="M1514.52,-75.92C1296.46,-72.27 624.66,-59.08 408.62,-32 398.27,-30.7 387.17,-28.64 376.93,-26.46"/>
<polygon fill="#63b8ff" stroke="#63b8ff" points="1514.21,-79.42 1524.27,-76.08 1514.33,-72.42 1514.21,-79.42"/>
</a>
</g>
</g>
<!-- Node5 -->
<g id="Node000005" class="node">
<title>Node5</title>
<g id="a_Node000005"><a xlink:href="../../dc/d11/dlp__control_8c.html" target="_top" xlink:title="Functions to handle the creation of the DL&#45;POLY CONTROL file.">
<polygon fill="white" stroke="#666666" points="543.75,-26 417.5,-26 417.5,-6 543.75,-6 543.75,-26"/>
<text text-anchor="middle" x="480.62" y="-12.5" font-family="Helvetica,sans-Serif" font-size="10.00">calc/dl_poly/dlp_control.c</text>
</a>
</g>
</g>
<!-- Node1&#45;&gt;Node5 -->
<g id="edge4_Node000001_Node000005" class="edge">
<title>Node1&#45;&gt;Node5</title>
<g id="a_edge4_Node000001_Node000005"><a xlink:title=" ">
<path fill="none" stroke="#63b8ff" d="M1514.34,-75.44C1314.51,-70.7 739.46,-55.38 552.62,-32 542.11,-30.68 530.84,-28.64 520.42,-26.49"/>
<polygon fill="#63b8ff" stroke="#63b8ff" points="1514.24,-78.94 1524.32,-75.67 1514.4,-71.94 1514.24,-78.94"/>
</a>
</g>
</g>
<!-- Node6 -->
<g id="Node000006" class="node">
<title>Node6</title>
<g id="a_Node000006"><a xlink:href="../../da/d88/dlp__copy_8c.html" target="_top" xlink:title="Functions to copy force field and related data structures.">
<polygon fill="white" stroke="#666666" points="679.25,-26 562,-26 562,-6 679.25,-6 679.25,-26"/>
<text text-anchor="middle" x="620.62" y="-12.5" font-family="Helvetica,sans-Serif" font-size="10.00">calc/dl_poly/dlp_copy.c</text>
</a>
</g>
</g>
<!-- Node1&#45;&gt;Node6 -->
<g id="edge5_Node000001_Node000006" class="edge">
<title>Node1&#45;&gt;Node6</title>
<g id="a_edge5_Node000001_Node000006"><a xlink:title=" ">
<path fill="none" stroke="#63b8ff" d="M1514.39,-77.44C1363.6,-77.54 994.44,-73.12 688.62,-32 678.68,-30.66 668.04,-28.62 658.19,-26.46"/>
<polygon fill="#63b8ff" stroke="#63b8ff" points="1514.22,-80.94 1524.22,-77.42 1514.21,-73.94 1514.22,-80.94"/>
</a>
</g>
</g>
<!-- Node7 -->
<g id="Node000007" class="node">
<title>Node7</title>
<g id="a_Node000007"><a xlink:href="../../d4/d28/dlp__edit_8c.html" target="_top" xlink:title="Functions to edit DL&#45;POLY force field parameters.">
<polygon fill="white" stroke="#666666" points="810,-26 697.25,-26 697.25,-6 810,-6 810,-26"/>
<text text-anchor="middle" x="753.62" y="-12.5" font-family="Helvetica,sans-Serif" font-size="10.00">calc/dl_poly/dlp_edit.c</text>
</a>
</g>
</g>
<!-- Node1&#45;&gt;Node7 -->
<g id="edge6_Node000001_Node000007" class="edge">
<title>Node1&#45;&gt;Node7</title>
<g id="a_edge6_Node000001_Node000007"><a xlink:title=" ">
<path fill="none" stroke="#63b8ff" d="M1514.38,-76.81C1379.68,-75.59 1073.26,-68.61 818.62,-32 809.22,-30.65 799.18,-28.62 789.86,-26.5"/>
<polygon fill="#63b8ff" stroke="#63b8ff" points="1514.17,-80.31 1524.2,-76.89 1514.23,-73.31 1514.17,-80.31"/>
</a>
</g>
</g>
<!-- Node8 -->
<g id="Node000008" class="node">
<title>Node8</title>
<g id="a_Node000008"><a xlink:href="../../dc/d79/dlp__ff__match_8c.html" target="_top" xlink:title="Functions the list the available database parameters for the atom database window.">
<polygon fill="white" stroke="#666666" points="921.62,-32 827.62,-32 827.62,0 921.62,0 921.62,-32"/>
<text text-anchor="start" x="835.62" y="-18.5" font-family="Helvetica,sans-Serif" font-size="10.00">calc/dl_poly/dlp_ff</text>
<text text-anchor="middle" x="874.62" y="-6.5" font-family="Helvetica,sans-Serif" font-size="10.00">_match.c</text>
</a>
</g>
</g>
<!-- Node1&#45;&gt;Node8 -->
<g id="edge7_Node000001_Node000008" class="edge">
<title>Node1&#45;&gt;Node8</title>
<g id="a_edge7_Node000001_Node000008"><a xlink:title=" ">
<path fill="none" stroke="#63b8ff" d="M1514.47,-76.6C1394.71,-74.94 1141.34,-67.14 930.62,-32 927.75,-31.52 924.8,-30.96 921.84,-30.33"/>
<polygon fill="#63b8ff" stroke="#63b8ff" points="1514.42,-80.1 1524.47,-76.73 1514.51,-73.1 1514.42,-80.1"/>
</a>
</g>
</g>
<!-- Node9 -->
<g id="Node000009" class="node">
<title>Node9</title>
<g id="a_Node000009"><a xlink:href="../../d3/d43/dlp__field_8c.html" target="_top" xlink:title="Functions to prepare the DL&#45;POLY / LAMMPS input preparation assistant &#160;&#160;Functions to design a classic...">
<polygon fill="white" stroke="#666666" points="1055.12,-26 940.12,-26 940.12,-6 1055.12,-6 1055.12,-26"/>
<text text-anchor="middle" x="997.62" y="-12.5" font-family="Helvetica,sans-Serif" font-size="10.00">calc/dl_poly/dlp_field.c</text>
</a>
</g>
</g>
<!-- Node1&#45;&gt;Node9 -->
<g id="edge8_Node000001_Node000009" class="edge">
<title>Node1&#45;&gt;Node9</title>
<g id="a_edge8_Node000001_Node000009"><a xlink:title=" ">
<path fill="none" stroke="#63b8ff" d="M1514.55,-74.04C1414.6,-69.08 1224.02,-57.05 1063.62,-32 1054.34,-30.55 1044.41,-28.54 1035.15,-26.46"/>
<polygon fill="#63b8ff" stroke="#63b8ff" points="1514.32,-77.53 1524.48,-74.52 1514.66,-70.54 1514.32,-77.53"/>
</a>
</g>
</g>
<!-- Node10 -->
<g id="Node000010" class="node">
<title>Node10</title>
<g id="a_Node000010"><a xlink:href="../../d6/d78/dlp__init_8c.html" target="_top" xlink:title="Functions to initialize the creation of a classical force field.">
<polygon fill="white" stroke="#666666" points="1182.5,-26 1072.75,-26 1072.75,-6 1182.5,-6 1182.5,-26"/>
<text text-anchor="middle" x="1127.62" y="-12.5" font-family="Helvetica,sans-Serif" font-size="10.00">calc/dl_poly/dlp_init.c</text>
</a>
</g>
</g>
<!-- Node1&#45;&gt;Node10 -->
<g id="edge9_Node000001_Node000010" class="edge">
<title>Node1&#45;&gt;Node10</title>
<g id="a_edge9_Node000001_Node000010"><a xlink:title=" ">
<path fill="none" stroke="#63b8ff" d="M1514.67,-71.52C1436.11,-64.71 1304.03,-51.56 1191.62,-32 1182.86,-30.47 1173.49,-28.49 1164.7,-26.46"/>
<polygon fill="#63b8ff" stroke="#63b8ff" points="1514.1,-74.98 1524.36,-72.35 1514.7,-68.01 1514.1,-74.98"/>
</a>
</g>
</g>
<!-- Node11 -->
<g id="Node000011" class="node">
<title>Node11</title>
<g id="a_Node000011"><a xlink:href="../../d7/d6f/dlp__mol_8c.html" target="_top" xlink:title="Functions to add / remove molecule(s) to / from the force field.">
<polygon fill="white" stroke="#666666" points="1313,-26 1200.25,-26 1200.25,-6 1313,-6 1313,-26"/>
<text text-anchor="middle" x="1256.62" y="-12.5" font-family="Helvetica,sans-Serif" font-size="10.00">calc/dl_poly/dlp_mol.c</text>
</a>
</g>
</g>
<!-- Node1&#45;&gt;Node11 -->
<g id="edge10_Node000001_Node000011" class="edge">
<title>Node1&#45;&gt;Node11</title>
<g id="a_edge10_Node000001_Node000011"><a xlink:title=" ">
<path fill="none" stroke="#63b8ff" d="M1514.4,-66.21C1461.47,-57.69 1386.75,-45.1 1321.62,-32 1313.34,-30.33 1304.49,-28.4 1296.08,-26.48"/>
<polygon fill="#63b8ff" stroke="#63b8ff" points="1513.77,-69.65 1524.2,-67.78 1514.88,-62.74 1513.77,-69.65"/>
</a>
</g>
</g>
<!-- Node12 -->
<g id="Node000012" class="node">
<title>Node12</title>
<g id="a_Node000012"><a xlink:href="../../d2/dc7/dlp__print_8c.html" target="_top" xlink:title="Functions to handle the output of the DL&#45;POLY FIELD file &#160;&#160;Functions to handle the output of the DL&#45;P...">
<polygon fill="white" stroke="#666666" points="1446.5,-26 1330.75,-26 1330.75,-6 1446.5,-6 1446.5,-26"/>
<text text-anchor="middle" x="1388.62" y="-12.5" font-family="Helvetica,sans-Serif" font-size="10.00">calc/dl_poly/dlp_print.c</text>
</a>
</g>
</g>
<!-- Node1&#45;&gt;Node12 -->
<g id="edge11_Node000001_Node000012" class="edge">
<title>Node1&#45;&gt;Node12</title>
<g id="a_edge11_Node000001_Node000012"><a xlink:title=" ">
<path fill="none" stroke="#63b8ff" d="M1542.28,-64.28C1505.43,-52.94 1452.35,-36.61 1419.2,-26.41"/>
<polygon fill="#63b8ff" stroke="#63b8ff" points="1541.12,-67.58 1551.71,-67.18 1543.18,-60.89 1541.12,-67.58"/>
</a>
</g>
</g>
<!-- Node13 -->
<g id="Node000013" class="node">
<title>Node13</title>
<g id="a_Node000013"><a xlink:href="../../d1/d1d/dlp__viz_8c.html" target="_top" xlink:title="functions to handle the visualization events when creating a classical force field">
<polygon fill="white" stroke="#666666" points="1574.5,-26 1464.75,-26 1464.75,-6 1574.5,-6 1574.5,-26"/>
<text text-anchor="middle" x="1519.62" y="-12.5" font-family="Helvetica,sans-Serif" font-size="10.00">calc/dl_poly/dlp_viz.c</text>
</a>
</g>
</g>
<!-- Node1&#45;&gt;Node13 -->
<g id="edge12_Node000001_Node000013" class="edge">
<title>Node1&#45;&gt;Node13</title>
<g id="a_edge12_Node000001_Node000013"><a xlink:title=" ">
<path fill="none" stroke="#63b8ff" d="M1565.39,-59.9C1553.66,-48.91 1538.88,-35.05 1529.35,-26.11"/>
<polygon fill="#63b8ff" stroke="#63b8ff" points="1562.83,-62.3 1572.52,-66.59 1567.62,-57.2 1562.83,-62.3"/>
</a>
</g>
</g>
<!-- Node14 -->
<g id="Node000014" class="node">
<title>Node14</title>
<g id="a_Node000014"><a xlink:href="../../d7/d30/force__fields_8c.html" target="_top" xlink:title="Functions to prepare the force field XML files from the sources in atomes &#160;&#160;Functions to read the for...">
<polygon fill="white" stroke="#666666" points="1704.62,-32 1592.62,-32 1592.62,0 1704.62,0 1704.62,-32"/>
<text text-anchor="start" x="1600.62" y="-18.5" font-family="Helvetica,sans-Serif" font-size="10.00">calc/force_fields/force</text>
<text text-anchor="middle" x="1648.62" y="-6.5" font-family="Helvetica,sans-Serif" font-size="10.00">_fields.c</text>
</a>
</g>
</g>
<!-- Node1&#45;&gt;Node14 -->
<g id="edge13_Node000001_Node000014" class="edge">
<title>Node1&#45;&gt;Node14</title>
<g id="a_edge13_Node000001_Node000014"><a xlink:title=" ">
<path fill="none" stroke="#63b8ff" d="M1602.07,-59.98C1611.48,-51.29 1622.83,-40.81 1631.97,-32.37"/>
<polygon fill="#63b8ff" stroke="#63b8ff" points="1599.87,-57.24 1594.89,-66.6 1604.62,-62.39 1599.87,-57.24"/>
</a>
</g>
</g>
<!-- Node15 -->
<g id="Node000015" class="node">
<title>Node15</title>
<g id="a_Node000015"><a xlink:href="../../da/d65/la__print_8c.html" target="_top" xlink:title="Functions to print the LAMMPS input file(s)">
<polygon fill="white" stroke="#666666" points="1836.75,-26 1722.5,-26 1722.5,-6 1836.75,-6 1836.75,-26"/>
<text text-anchor="middle" x="1779.62" y="-12.5" font-family="Helvetica,sans-Serif" font-size="10.00">calc/lammps/la_print.c</text>
</a>
</g>
</g>
<!-- Node1&#45;&gt;Node15 -->
<g id="edge14_Node000001_Node000015" class="edge">
<title>Node1&#45;&gt;Node15</title>
<g id="a_edge14_Node000001_Node000015"><a xlink:title=" ">
<path fill="none" stroke="#63b8ff" d="M1625.18,-64.28C1662.22,-52.94 1715.58,-36.61 1748.89,-26.41"/>
<polygon fill="#63b8ff" stroke="#63b8ff" points="1624.23,-60.91 1615.7,-67.18 1626.28,-67.6 1624.23,-60.91"/>
</a>
</g>
</g>
<!-- Node16 -->
<g id="Node000016" class="node">
<title>Node16</title>
<g id="a_Node000016"><a xlink:href="../../d5/d34/bdcall_8c.html" target="_top" xlink:title="Callbacks for the bond properties calculation dialog.">
<polygon fill="white" stroke="#666666" points="1920.38,-26 1854.88,-26 1854.88,-6 1920.38,-6 1920.38,-26"/>
<text text-anchor="middle" x="1887.62" y="-12.5" font-family="Helvetica,sans-Serif" font-size="10.00">gui/bdcall.c</text>
</a>
</g>
</g>
<!-- Node1&#45;&gt;Node16 -->
<g id="edge15_Node000001_Node000016" class="edge">
<title>Node1&#45;&gt;Node16</title>
<g id="a_edge15_Node000001_Node000016"><a xlink:title=" ">
<path fill="none" stroke="#63b8ff" d="M1652.83,-68.44C1706.06,-61.06 1781.16,-48.91 1845.62,-32 1851.47,-30.47 1857.65,-28.48 1863.42,-26.45"/>
<polygon fill="#63b8ff" stroke="#63b8ff" points="1652.41,-64.97 1642.98,-69.79 1653.36,-71.9 1652.41,-64.97"/>
</a>
</g>
</g>
<!-- Node17 -->
<g id="Node000017" class="node">
<title>Node17</title>
<g id="a_Node000017"><a xlink:href="../../dc/dbd/d__atoms_8c.html" target="_top" xlink:title="nctions to prepare the OpenGL rendering atom(s) and clone(s)">
<polygon fill="white" stroke="#666666" points="2055.25,-26 1938,-26 1938,-6 2055.25,-6 2055.25,-26"/>
<text text-anchor="middle" x="1996.62" y="-12.5" font-family="Helvetica,sans-Serif" font-size="10.00">opengl/draw/d_atoms.c</text>
</a>
</g>
</g>
<!-- Node1&#45;&gt;Node17 -->
<g id="edge16_Node000001_Node000017" class="edge">
<title>Node1&#45;&gt;Node17</title>
<g id="a_edge16_Node000001_Node000017"><a xlink:title=" ">
<path fill="none" stroke="#63b8ff" d="M1652.72,-69.88C1722.76,-62.23 1834.13,-48.86 1929.62,-32 1938.55,-30.42 1948.08,-28.46 1957.07,-26.48"/>
<polygon fill="#63b8ff" stroke="#63b8ff" points="1652.49,-66.39 1642.92,-70.95 1653.24,-73.35 1652.49,-66.39"/>
</a>
</g>
</g>
<!-- Node18 -->
<g id="Node000018" class="node">
<title>Node18</title>
<g id="a_Node000018"><a xlink:href="../../d7/d10/d__bonds_8c.html" target="_top" xlink:title="Functions to prepare the OpenGL rendering of bond(s) and clone bond(s)">
<polygon fill="white" stroke="#666666" points="2189.88,-26 2073.38,-26 2073.38,-6 2189.88,-6 2189.88,-26"/>
<text text-anchor="middle" x="2131.62" y="-12.5" font-family="Helvetica,sans-Serif" font-size="10.00">opengl/draw/d_bonds.c</text>
</a>
</g>
</g>
<!-- Node1&#45;&gt;Node18 -->
<g id="edge17_Node000001_Node000018" class="edge">
<title>Node1&#45;&gt;Node18</title>
<g id="a_edge17_Node000001_Node000018"><a xlink:title=" ">
<path fill="none" stroke="#63b8ff" d="M1652.61,-73.31C1746.32,-67.66 1918.89,-55.03 2064.62,-32 2073.93,-30.53 2083.87,-28.54 2093.17,-26.49"/>
<polygon fill="#63b8ff" stroke="#63b8ff" points="1652.59,-69.8 1642.81,-73.89 1653,-76.79 1652.59,-69.8"/>
</a>
</g>
</g>
<!-- Node19 -->
<g id="Node000019" class="node">
<title>Node19</title>
<g id="a_Node000019"><a xlink:href="../../dc/d5c/d__label_8c.html" target="_top" xlink:title="Functions to prepare the OpenGL rendering of the atomic label(s)">
<polygon fill="white" stroke="#666666" points="2318.88,-26 2208.38,-26 2208.38,-6 2318.88,-6 2318.88,-26"/>
<text text-anchor="middle" x="2263.62" y="-12.5" font-family="Helvetica,sans-Serif" font-size="10.00">opengl/draw/d_label.c</text>
</a>
</g>
</g>
<!-- Node1&#45;&gt;Node19 -->
<g id="edge18_Node000001_Node000019" class="edge">
<title>Node1&#45;&gt;Node19</title>
<g id="a_edge18_Node000001_Node000019"><a xlink:title=" ">
<path fill="none" stroke="#63b8ff" d="M1652.95,-75.4C1767.25,-71.98 2002.13,-61.68 2198.62,-32 2207.9,-30.6 2217.81,-28.58 2227.03,-26.48"/>
<polygon fill="#63b8ff" stroke="#63b8ff" points="1653.02,-71.89 1643.12,-75.68 1653.22,-78.89 1653.02,-71.89"/>
</a>
</g>
</g>
<!-- Node20 -->
<g id="Node000020" class="node">
<title>Node20</title>
<g id="a_Node000020"><a xlink:href="../../da/da8/d__poly_8c.html" target="_top" xlink:title="Functions to prepare the OpenGL rendering of coordination polyhedra.">
<polygon fill="white" stroke="#666666" points="2444.38,-26 2336.88,-26 2336.88,-6 2444.38,-6 2444.38,-26"/>
<text text-anchor="middle" x="2390.62" y="-12.5" font-family="Helvetica,sans-Serif" font-size="10.00">opengl/draw/d_poly.c</text>
</a>
</g>
</g>
<!-- Node1&#45;&gt;Node20 -->
<g id="edge19_Node000001_Node000020" class="edge">
<title>Node1&#45;&gt;Node20</title>
<g id="a_edge19_Node000001_Node000020"><a xlink:title=" ">
<path fill="none" stroke="#63b8ff" d="M1652.88,-76.8C1784.88,-75.55 2081.29,-68.49 2327.62,-32 2336.74,-30.65 2346.49,-28.62 2355.52,-26.5"/>
<polygon fill="#63b8ff" stroke="#63b8ff" points="1652.87,-73.3 1642.9,-76.89 1652.93,-80.3 1652.87,-73.3"/>
</a>
</g>
</g>
<!-- Node21 -->
<g id="Node000021" class="node">
<title>Node21</title>
<g id="a_Node000021"><a xlink:href="../../d9/d09/d__selection_8c.html" target="_top" xlink:title="Functions to prepare the OpenGL rendering of the selected: atom(s), clone(s), bond(s) and clone bond(...">
<polygon fill="white" stroke="#666666" points="2591.25,-26 2462,-26 2462,-6 2591.25,-6 2591.25,-26"/>
<text text-anchor="middle" x="2526.62" y="-12.5" font-family="Helvetica,sans-Serif" font-size="10.00">opengl/draw/d_selection.c</text>
</a>
</g>
</g>
<!-- Node1&#45;&gt;Node21 -->
<g id="edge20_Node000001_Node000021" class="edge">
<title>Node1&#45;&gt;Node21</title>
<g id="a_edge20_Node000001_Node000021"><a xlink:title=" ">
<path fill="none" stroke="#63b8ff" d="M1652.51,-76.96C1800.03,-76.1 2157.18,-69.9 2453.62,-32 2464.28,-30.64 2475.7,-28.58 2486.26,-26.43"/>
<polygon fill="#63b8ff" stroke="#63b8ff" points="1652.91,-73.46 1642.92,-77.01 1652.94,-80.46 1652.91,-73.46"/>
</a>
</g>
</g>
<!-- Node22 -->
<g id="Node000022" class="node">
<title>Node22</title>
<g id="a_Node000022"><a xlink:href="../../d2/db3/ogl__draw_8c.html" target="_top" xlink:title="OpenGL window drawing funcions.">
<polygon fill="white" stroke="#666666" points="2703.62,-26 2609.62,-26 2609.62,-6 2703.62,-6 2703.62,-26"/>
<text text-anchor="middle" x="2656.62" y="-12.5" font-family="Helvetica,sans-Serif" font-size="10.00">opengl/ogl_draw.c</text>
</a>
</g>
</g>
<!-- Node1&#45;&gt;Node22 -->
<g id="edge21_Node000001_Node000022" class="edge">
<title>Node1&#45;&gt;Node22</title>
<g id="a_edge21_Node000001_Node000022"><a xlink:title=" ">
<path fill="none" stroke="#63b8ff" d="M1652.73,-75.9C1850.67,-72.44 2417.27,-60.27 2600.62,-32 2608.98,-30.71 2617.88,-28.65 2626.07,-26.47"/>
<polygon fill="#63b8ff" stroke="#63b8ff" points="1652.8,-72.4 1642.86,-76.07 1652.92,-79.4 1652.8,-72.4"/>
</a>
</g>
</g>
<!-- Node23 -->
<g id="Node000023" class="node">
<title>Node23</title>
<g id="a_Node000023"><a xlink:href="../../d1/db9/ogl__utils_8c.html" target="_top" xlink:title="2D and 3D calculations utilities for distances and angles">
<polygon fill="white" stroke="#666666" points="2813.5,-26 2721.75,-26 2721.75,-6 2813.5,-6 2813.5,-26"/>
<text text-anchor="middle" x="2767.62" y="-12.5" font-family="Helvetica,sans-Serif" font-size="10.00">opengl/ogl_utils.c</text>
</a>
</g>
</g>
<!-- Node1&#45;&gt;Node23 -->
<g id="edge22_Node000001_Node000023" class="edge">
<title>Node1&#45;&gt;Node23</title>
<g id="a_edge22_Node000001_Node000023"><a xlink:title=" ">
<path fill="none" stroke="#63b8ff" d="M1652.6,-76.29C1864.91,-73.8 2506.67,-63.77 2712.62,-32 2720.84,-30.73 2729.59,-28.68 2737.63,-26.5"/>
<polygon fill="#63b8ff" stroke="#63b8ff" points="1652.8,-72.79 1642.84,-76.41 1652.88,-79.79 1652.8,-72.79"/>
</a>
</g>
</g>
<!-- Node24 -->
<g id="Node000024" class="node">
<title>Node24</title>
<g id="a_Node000024"><a xlink:href="../../d3/d1b/read__field_8c.html" target="_top" xlink:title="Functions to read DLPOLY force field data in the atomes project file format.">
<polygon fill="white" stroke="#666666" points="2929.88,-26 2831.38,-26 2831.38,-6 2929.88,-6 2929.88,-26"/>
<text text-anchor="middle" x="2880.62" y="-12.5" font-family="Helvetica,sans-Serif" font-size="10.00">project/read_field.c</text>
</a>
</g>
</g>
<!-- Node1&#45;&gt;Node24 -->
<g id="edge23_Node000001_Node000024" class="edge">
<title>Node1&#45;&gt;Node24</title>
<g id="a_edge23_Node000001_Node000024"><a xlink:title=" ">
<path fill="none" stroke="#63b8ff" d="M1652.68,-76.46C1878.57,-74.39 2594.16,-65.29 2822.62,-32 2831.37,-30.73 2840.71,-28.64 2849.27,-26.43"/>
<polygon fill="#63b8ff" stroke="#63b8ff" points="1652.82,-72.96 1642.86,-76.55 1652.89,-79.96 1652.82,-72.96"/>
</a>
</g>
</g>
<!-- Node25 -->
<g id="Node000025" class="node">
<title>Node25</title>
<g id="a_Node000025"><a xlink:href="../../d9/d5e/save__field_8c.html" target="_top" xlink:title="Functions to save force field information in the atomes project file format.">
<polygon fill="white" stroke="#666666" points="3049,-26 2948.25,-26 2948.25,-6 3049,-6 3049,-26"/>
<text text-anchor="middle" x="2998.62" y="-12.5" font-family="Helvetica,sans-Serif" font-size="10.00">project/save_field.c</text>
</a>
</g>
</g>
<!-- Node1&#45;&gt;Node25 -->
<g id="edge24_Node000001_Node000025" class="edge">
<title>Node1&#45;&gt;Node25</title>
<g id="a_edge24_Node000001_Node000025"><a xlink:title=" ">
<path fill="none" stroke="#63b8ff" d="M1652.57,-76.64C1891.97,-75.08 2686.35,-67.32 2938.62,-32 2947.66,-30.73 2957.31,-28.66 2966.17,-26.44"/>
<polygon fill="#63b8ff" stroke="#63b8ff" points="1652.76,-73.14 1642.78,-76.7 1652.8,-80.14 1652.76,-73.14"/>
</a>
</g>
</g>
</g>
</svg>

<g id="navigator" transform="translate(0 0)" fill="#404254">
  <rect fill="#f2f5e9" fill-opacity="0.5" stroke="#606060" stroke-width=".5" x="0" y="0" width="60" height="60"/>
  <use id="zoomplus" xlink:href="#zoomPlus" x="17" y="9" onmousedown="handleZoom(evt,'in')"/>
  <use id="zoomminus" xlink:href="#zoomMin" x="42" y="9" onmousedown="handleZoom(evt,'out')"/>
  <use id="reset" xlink:href="#resetDef" x="30" y="36" onmousedown="handleReset()"/>
   <use id="arrowup" xlink:href="#arrowUp" x="0" y="0" onmousedown="handlePan(0,-1)"/>
  <use id="arrowright" xlink:href="#arrowRight" x="0" y="0" onmousedown="handlePan(1,0)"/>
  <use id="arrowdown" xlink:href="#arrowDown" x="0" y="0" onmousedown="handlePan(0,1)"/>
  <use id="arrowleft" xlink:href="#arrowLeft" x="0" y="0" onmousedown="handlePan(-1,0)"/>
</g>
<svg viewBox="0 0 15 15" width="100%" height="30px" preserveAspectRatio="xMaxYMin meet">
 <g id="arrow_out" transform="scale(0.3 0.3)">
  <a xlink:href="dlp__field_8h__dep__incl_org.svg" target="_base">
   <rect id="button" ry="5" rx="5" y="6" x="6" height="38" width="38"
        fill="#f2f5e9" fill-opacity="0.5" stroke="#606060" stroke-width="1.0"/>
   <path id="arrow"
     d="M 11.500037,31.436501 C 11.940474,20.09759 22.043105,11.32322 32.158766,21.979434 L 37.068811,17.246167 C 37.068811,17.246167 37.088388,32 37.088388,32 L 22.160133,31.978069 C 22.160133,31.978069 26.997745,27.140456 26.997745,27.140456 C 18.528582,18.264221 13.291696,25.230495 11.500037,31.436501 z"
     style="fill:#404040;"/>
  </a>
 </g>
</svg>

<style type='text/css'>
<![CDATA[
[data-mouse-over-selected='false'] { opacity: 0.7; }
[data-mouse-over-selected='true']  { opacity: 1.0; }
]]>
</style>
<script type="application/ecmascript"><![CDATA[
document.addEventListener('DOMContentLoaded', (event) => {
  highlightEdges();
  highlightAdjacentNodes();
});
]]></script>
</svg>
