<?xml version="1.0" encoding="UTF-8" standalone="no"?>
<!DOCTYPE svg PUBLIC "-//W3C//DTD SVG 1.1//EN"
 "http://www.w3.org/Graphics/SVG/1.1/DTD/svg11.dtd">
<!-- Generated by graphviz version 7.1.0 (0)
 -->
<!-- Title: calc/dl_poly/dlp_field.h Pages: 1 -->
<svg width="3078pt" height="93pt"
 viewBox="0.00 0.00 3077.50 93.00" xmlns="http://www.w3.org/2000/svg" xmlns:xlink="http://www.w3.org/1999/xlink">
<g id="graph0" class="graph" transform="scale(1 1) rotate(0) translate(4 89)">
<title>calc/dl_poly/dlp_field.h</title>
<!-- Node1 -->
<g id="node1" class="node">
<title>Node1</title>
<g id="a_node1"><a xlink:title="Variable declarations for the creation of the DL_POLY input file(s)">
<polygon fill="#999999" stroke="#666666" points="1653,-85 1537,-85 1537,-66 1653,-66 1653,-85"/>
<text text-anchor="middle" x="1595" y="-73" font-family="Helvetica,sans-Serif" font-size="10.00">calc/dl_poly/dlp_field.h</text>
</a>
</g>
</g>
<!-- Node2 -->
<g id="node2" class="node">
<title>Node2</title>
<g id="a_node2"><a xlink:href="../../d3/dd7/dlp__active_8c.html" target="_top" xlink:title="Functions to retrieve data in the force field structure.">
<polygon fill="white" stroke="#666666" points="124,-24.5 0,-24.5 0,-5.5 124,-5.5 124,-24.5"/>
<text text-anchor="middle" x="62" y="-12.5" font-family="Helvetica,sans-Serif" font-size="10.00">calc/dl_poly/dlp_active.c</text>
</a>
</g>
</g>
<!-- Node1&#45;&gt;Node2 -->
<g id="edge1" class="edge">
<title>Node1&#45;&gt;Node2</title>
<path fill="none" stroke="#63b8ff" d="M1525.33,-73.9C1273.07,-71.48 407.76,-61.06 133,-30 122.64,-28.83 111.53,-26.95 101.25,-24.93"/>
<polygon fill="#63b8ff" stroke="#63b8ff" points="1524.98,-77.39 1535.01,-73.99 1525.05,-70.39 1524.98,-77.39"/>
</g>
<!-- Node3 -->
<g id="node3" class="node">
<title>Node3</title>
<g id="a_node3"><a xlink:href="../../d2/da2/dlp__atom_8c.html" target="_top" xlink:title="Functions to handle atom selection(s) when creating a force field &#160;&#160;Functions to remove / add field a...">
<polygon fill="white" stroke="#666666" points="261.5,-24.5 142.5,-24.5 142.5,-5.5 261.5,-5.5 261.5,-24.5"/>
<text text-anchor="middle" x="202" y="-12.5" font-family="Helvetica,sans-Serif" font-size="10.00">calc/dl_poly/dlp_atom.c</text>
</a>
</g>
</g>
<!-- Node1&#45;&gt;Node3 -->
<g id="edge2" class="edge">
<title>Node1&#45;&gt;Node3</title>
<path fill="none" stroke="#63b8ff" d="M1525.67,-73.7C1289.52,-70.72 517.51,-58.95 271,-30 261.05,-28.83 250.39,-26.97 240.5,-24.99"/>
<polygon fill="#63b8ff" stroke="#63b8ff" points="1525.28,-77.19 1535.33,-73.82 1525.37,-70.19 1525.28,-77.19"/>
</g>
<!-- Node4 -->
<g id="node4" class="node">
<title>Node4</title>
<g id="a_node4"><a xlink:href="../../d8/ded/dlp__comp_8c.html" target="_top" xlink:title="Functions to compare and adjust field body parameters.">
<polygon fill="white" stroke="#666666" points="402,-24.5 280,-24.5 280,-5.5 402,-5.5 402,-24.5"/>
<text text-anchor="middle" x="341" y="-12.5" font-family="Helvetica,sans-Serif" font-size="10.00">calc/dl_poly/dlp_comp.c</text>
</a>
</g>
</g>
<!-- Node1&#45;&gt;Node4 -->
<g id="edge3" class="edge">
<title>Node1&#45;&gt;Node4</title>
<path fill="none" stroke="#63b8ff" d="M1525.38,-73.35C1305.7,-69.47 628.88,-55.71 411,-30 400.91,-28.81 390.1,-26.94 380.07,-24.96"/>
<polygon fill="#63b8ff" stroke="#63b8ff" points="1525.15,-76.84 1535.21,-73.52 1525.27,-69.84 1525.15,-76.84"/>
</g>
<!-- Node5 -->
<g id="node5" class="node">
<title>Node5</title>
<g id="a_node5"><a xlink:href="../../dc/d11/dlp__control_8c.html" target="_top" xlink:title="Functions to handle the creation of the DL&#45;POLY CONTROL file.">
<polygon fill="white" stroke="#666666" points="547.5,-24.5 420.5,-24.5 420.5,-5.5 547.5,-5.5 547.5,-24.5"/>
<text text-anchor="middle" x="484" y="-12.5" font-family="Helvetica,sans-Serif" font-size="10.00">calc/dl_poly/dlp_control.c</text>
</a>
</g>
</g>
<!-- Node1&#45;&gt;Node5 -->
<g id="edge4" class="edge">
<title>Node1&#45;&gt;Node5</title>
<path fill="none" stroke="#63b8ff" d="M1525.16,-75.03C1357.56,-75.53 919.57,-72.31 557,-30 546.62,-28.79 535.5,-26.94 525.15,-24.98"/>
<polygon fill="#63b8ff" stroke="#63b8ff" points="1525.02,-78.53 1535.01,-74.99 1524.99,-71.53 1525.02,-78.53"/>
</g>
<!-- Node6 -->
<g id="node6" class="node">
<title>Node6</title>
<g id="a_node6"><a xlink:href="../../da/d88/dlp__copy_8c.html" target="_top" xlink:title="Functions to copy force field and related data structures.">
<polygon fill="white" stroke="#666666" points="684,-24.5 566,-24.5 566,-5.5 684,-5.5 684,-24.5"/>
<text text-anchor="middle" x="625" y="-12.5" font-family="Helvetica,sans-Serif" font-size="10.00">calc/dl_poly/dlp_copy.c</text>
</a>
</g>
</g>
<!-- Node1&#45;&gt;Node6 -->
<g id="edge5" class="edge">
<title>Node1&#45;&gt;Node6</title>
<path fill="none" stroke="#63b8ff" d="M1525.27,-74.7C1373.38,-74.34 1001.49,-69.13 693,-30 683.31,-28.77 672.95,-26.92 663.31,-24.96"/>
<polygon fill="#63b8ff" stroke="#63b8ff" points="1525.17,-78.2 1535.18,-74.72 1525.18,-71.2 1525.17,-78.2"/>
</g>
<!-- Node7 -->
<g id="node7" class="node">
<title>Node7</title>
<g id="a_node7"><a xlink:href="../../d4/d28/dlp__edit_8c.html" target="_top" xlink:title="Functions to edit DL&#45;POLY force field parameters.">
<polygon fill="white" stroke="#666666" points="815.5,-24.5 702.5,-24.5 702.5,-5.5 815.5,-5.5 815.5,-24.5"/>
<text text-anchor="middle" x="759" y="-12.5" font-family="Helvetica,sans-Serif" font-size="10.00">calc/dl_poly/dlp_edit.c</text>
</a>
</g>
</g>
<!-- Node1&#45;&gt;Node7 -->
<g id="edge6" class="edge">
<title>Node1&#45;&gt;Node7</title>
<path fill="none" stroke="#63b8ff" d="M1525.26,-74.07C1389.59,-72.45 1080.9,-64.87 824,-30 814.85,-28.76 805.07,-26.93 795.95,-24.99"/>
<polygon fill="#63b8ff" stroke="#63b8ff" points="1525.12,-77.57 1535.16,-74.18 1525.2,-70.57 1525.12,-77.57"/>
</g>
<!-- Node8 -->
<g id="node8" class="node">
<title>Node8</title>
<g id="a_node8"><a xlink:href="../../dc/d79/dlp__ff__match_8c.html" target="_top" xlink:title="Functions the list the available database parameters for the atom database window.">
<polygon fill="white" stroke="#666666" points="928.5,-30 833.5,-30 833.5,0 928.5,0 928.5,-30"/>
<text text-anchor="start" x="841.5" y="-18" font-family="Helvetica,sans-Serif" font-size="10.00">calc/dl_poly/dlp_ff</text>
<text text-anchor="middle" x="881" y="-7" font-family="Helvetica,sans-Serif" font-size="10.00">_match.c</text>
</a>
</g>
</g>
<!-- Node1&#45;&gt;Node8 -->
<g id="edge7" class="edge">
<title>Node1&#45;&gt;Node8</title>
<path fill="none" stroke="#63b8ff" d="M1525.39,-73.74C1404.98,-71.53 1150.31,-63.01 938,-30 934.98,-29.53 931.88,-28.98 928.77,-28.37"/>
<polygon fill="#63b8ff" stroke="#63b8ff" points="1525.05,-77.23 1535.11,-73.9 1525.17,-70.23 1525.05,-77.23"/>
</g>
<!-- Node9 -->
<g id="node9" class="node">
<title>Node9</title>
<g id="a_node9"><a xlink:href="../../d3/d43/dlp__field_8c.html" target="_top" xlink:title="Functions to prepare the DL&#45;POLY / LAMMPS input preparation assistant &#160;&#160;Functions to design a classic...">
<polygon fill="white" stroke="#666666" points="1063,-24.5 947,-24.5 947,-5.5 1063,-5.5 1063,-24.5"/>
<text text-anchor="middle" x="1005" y="-12.5" font-family="Helvetica,sans-Serif" font-size="10.00">calc/dl_poly/dlp_field.c</text>
</a>
</g>
</g>
<!-- Node1&#45;&gt;Node9 -->
<g id="edge8" class="edge">
<title>Node1&#45;&gt;Node9</title>
<path fill="none" stroke="#63b8ff" d="M1525.49,-71.27C1425,-65.99 1233.48,-53.65 1072,-30 1062.83,-28.66 1053.03,-26.83 1043.83,-24.94"/>
<polygon fill="#63b8ff" stroke="#63b8ff" points="1525.01,-74.75 1535.18,-71.77 1525.37,-67.76 1525.01,-74.75"/>
</g>
<!-- Node10 -->
<g id="node10" class="node">
<title>Node10</title>
<g id="a_node10"><a xlink:href="../../d6/d78/dlp__init_8c.html" target="_top" xlink:title="Functions to initialize the creation of a classical force field.">
<polygon fill="white" stroke="#666666" points="1191,-24.5 1081,-24.5 1081,-5.5 1191,-5.5 1191,-24.5"/>
<text text-anchor="middle" x="1136" y="-12.5" font-family="Helvetica,sans-Serif" font-size="10.00">calc/dl_poly/dlp_init.c</text>
</a>
</g>
</g>
<!-- Node1&#45;&gt;Node10 -->
<g id="edge9" class="edge">
<title>Node1&#45;&gt;Node10</title>
<path fill="none" stroke="#63b8ff" d="M1525.23,-68.83C1446.07,-61.89 1313.24,-48.71 1200,-30 1191.47,-28.59 1182.37,-26.78 1173.78,-24.94"/>
<polygon fill="#63b8ff" stroke="#63b8ff" points="1524.74,-72.3 1535.01,-69.68 1525.35,-65.33 1524.74,-72.3"/>
</g>
<!-- Node11 -->
<g id="node11" class="node">
<title>Node11</title>
<g id="a_node11"><a xlink:href="../../d7/d6f/dlp__mol_8c.html" target="_top" xlink:title="Functions to add / remove molecule(s) to / from the force field.">
<polygon fill="white" stroke="#666666" points="1322.5,-24.5 1209.5,-24.5 1209.5,-5.5 1322.5,-5.5 1322.5,-24.5"/>
<text text-anchor="middle" x="1266" y="-12.5" font-family="Helvetica,sans-Serif" font-size="10.00">calc/dl_poly/dlp_mol.c</text>
</a>
</g>
</g>
<!-- Node1&#45;&gt;Node11 -->
<g id="edge10" class="edge">
<title>Node1&#45;&gt;Node11</title>
<path fill="none" stroke="#63b8ff" d="M1526.35,-63.68C1473.2,-55.11 1397.8,-42.54 1332,-30 1323.83,-28.44 1315.12,-26.67 1306.79,-24.93"/>
<polygon fill="#63b8ff" stroke="#63b8ff" points="1525.75,-67.13 1536.18,-65.26 1526.86,-60.22 1525.75,-67.13"/>
</g>
<!-- Node12 -->
<g id="node12" class="node">
<title>Node12</title>
<g id="a_node12"><a xlink:href="../../d2/dc7/dlp__print_8c.html" target="_top" xlink:title="Functions to handle the output of the DL&#45;POLY FIELD file &#160;&#160;Functions to handle the output of the DL&#45;P...">
<polygon fill="white" stroke="#666666" points="1457,-24.5 1341,-24.5 1341,-5.5 1457,-5.5 1457,-24.5"/>
<text text-anchor="middle" x="1399" y="-12.5" font-family="Helvetica,sans-Serif" font-size="10.00">calc/dl_poly/dlp_print.c</text>
</a>
</g>
</g>
<!-- Node1&#45;&gt;Node12 -->
<g id="edge11" class="edge">
<title>Node1&#45;&gt;Node12</title>
<path fill="none" stroke="#63b8ff" d="M1554.24,-62.33C1516.92,-51.2 1462.55,-34.97 1429.05,-24.97"/>
<polygon fill="#63b8ff" stroke="#63b8ff" points="1553.2,-65.68 1563.78,-65.18 1555.2,-58.97 1553.2,-65.68"/>
</g>
<!-- Node13 -->
<g id="node13" class="node">
<title>Node13</title>
<g id="a_node13"><a xlink:href="../../d1/d1d/dlp__viz_8c.html" target="_top" xlink:title="functions to handle the visualization events when creating a classical force field">
<polygon fill="white" stroke="#666666" points="1585,-24.5 1475,-24.5 1475,-5.5 1585,-5.5 1585,-24.5"/>
<text text-anchor="middle" x="1530" y="-12.5" font-family="Helvetica,sans-Serif" font-size="10.00">calc/dl_poly/dlp_viz.c</text>
</a>
</g>
</g>
<!-- Node1&#45;&gt;Node13 -->
<g id="edge12" class="edge">
<title>Node1&#45;&gt;Node13</title>
<path fill="none" stroke="#63b8ff" d="M1576.78,-58.1C1564.85,-47.37 1549.73,-33.76 1539.97,-24.97"/>
<polygon fill="#63b8ff" stroke="#63b8ff" points="1574.23,-60.51 1584,-64.6 1578.91,-55.31 1574.23,-60.51"/>
</g>
<!-- Node14 -->
<g id="node14" class="node">
<title>Node14</title>
<g id="a_node14"><a xlink:href="../../d7/d30/force__fields_8c.html" target="_top" xlink:title="Functions to prepare the force field XML files from the sources in atomes &#160;&#160;Functions to read the for...">
<polygon fill="white" stroke="#666666" points="1716.5,-30 1603.5,-30 1603.5,0 1716.5,0 1716.5,-30"/>
<text text-anchor="start" x="1611.5" y="-18" font-family="Helvetica,sans-Serif" font-size="10.00">calc/force_fields/force</text>
<text text-anchor="middle" x="1660" y="-7" font-family="Helvetica,sans-Serif" font-size="10.00">_fields.c</text>
</a>
</g>
</g>
<!-- Node1&#45;&gt;Node14 -->
<g id="edge13" class="edge">
<title>Node1&#45;&gt;Node14</title>
<path fill="none" stroke="#63b8ff" d="M1613.33,-58C1622.97,-49.32 1634.68,-38.79 1643.96,-30.44"/>
<polygon fill="#63b8ff" stroke="#63b8ff" points="1611.09,-55.31 1606,-64.6 1615.77,-60.51 1611.09,-55.31"/>
</g>
<!-- Node15 -->
<g id="node15" class="node">
<title>Node15</title>
<g id="a_node15"><a xlink:href="../../da/d65/la__print_8c.html" target="_top" xlink:title="Functions to print the LAMMPS input file(s)">
<polygon fill="white" stroke="#666666" points="1849.5,-24.5 1734.5,-24.5 1734.5,-5.5 1849.5,-5.5 1849.5,-24.5"/>
<text text-anchor="middle" x="1792" y="-12.5" font-family="Helvetica,sans-Serif" font-size="10.00">calc/lammps/la_print.c</text>
</a>
</g>
</g>
<!-- Node1&#45;&gt;Node15 -->
<g id="edge14" class="edge">
<title>Node1&#45;&gt;Node15</title>
<path fill="none" stroke="#63b8ff" d="M1635.48,-62.48C1673.01,-51.34 1727.98,-35.01 1761.8,-24.97"/>
<polygon fill="#63b8ff" stroke="#63b8ff" points="1634.96,-58.98 1626.37,-65.18 1636.95,-65.69 1634.96,-58.98"/>
</g>
<!-- Node16 -->
<g id="node16" class="node">
<title>Node16</title>
<g id="a_node16"><a xlink:href="../../d5/d34/bdcall_8c.html" target="_top" xlink:title="Callbacks for the bond properties calculation dialog.">
<polygon fill="white" stroke="#666666" points="1934,-24.5 1868,-24.5 1868,-5.5 1934,-5.5 1934,-24.5"/>
<text text-anchor="middle" x="1901" y="-12.5" font-family="Helvetica,sans-Serif" font-size="10.00">gui/bdcall.c</text>
</a>
</g>
</g>
<!-- Node1&#45;&gt;Node16 -->
<g id="edge15" class="edge">
<title>Node1&#45;&gt;Node16</title>
<path fill="none" stroke="#63b8ff" d="M1664.56,-65.77C1718.15,-58.33 1793.84,-46.25 1859,-30 1864.67,-28.59 1870.67,-26.78 1876.31,-24.93"/>
<polygon fill="#63b8ff" stroke="#63b8ff" points="1664.4,-62.26 1654.97,-67.08 1665.35,-69.2 1664.4,-62.26"/>
</g>
<!-- Node17 -->
<g id="node17" class="node">
<title>Node17</title>
<g id="a_node17"><a xlink:href="../../dc/dbd/d__atoms_8c.html" target="_top" xlink:title="nctions to prepare the OpenGL rendering atom(s) and clone(s)">
<polygon fill="white" stroke="#666666" points="2070,-24.5 1952,-24.5 1952,-5.5 2070,-5.5 2070,-24.5"/>
<text text-anchor="middle" x="2011" y="-12.5" font-family="Helvetica,sans-Serif" font-size="10.00">opengl/draw/d_atoms.c</text>
</a>
</g>
</g>
<!-- Node1&#45;&gt;Node17 -->
<g id="edge16" class="edge">
<title>Node1&#45;&gt;Node17</title>
<path fill="none" stroke="#63b8ff" d="M1664.75,-67.16C1735.17,-59.37 1846.96,-46 1943,-30 1951.8,-28.53 1961.19,-26.75 1970.1,-24.94"/>
<polygon fill="#63b8ff" stroke="#63b8ff" points="1664.45,-63.67 1654.89,-68.24 1665.21,-70.63 1664.45,-63.67"/>
</g>
<!-- Node18 -->
<g id="node18" class="node">
<title>Node18</title>
<g id="a_node18"><a xlink:href="../../d7/d10/d__bonds_8c.html" target="_top" xlink:title="Functions to prepare the OpenGL rendering of bond(s) and clone bond(s)">
<polygon fill="white" stroke="#666666" points="2205.5,-24.5 2088.5,-24.5 2088.5,-5.5 2205.5,-5.5 2205.5,-24.5"/>
<text text-anchor="middle" x="2147" y="-12.5" font-family="Helvetica,sans-Serif" font-size="10.00">opengl/draw/d_bonds.c</text>
</a>
</g>
</g>
<!-- Node1&#45;&gt;Node18 -->
<g id="edge17" class="edge">
<title>Node1&#45;&gt;Node18</title>
<path fill="none" stroke="#63b8ff" d="M1664.74,-70.53C1759.07,-64.61 1932.37,-51.77 2079,-30 2088.18,-28.64 2097.99,-26.83 2107.22,-24.96"/>
<polygon fill="#63b8ff" stroke="#63b8ff" points="1664.64,-67.03 1654.87,-71.15 1665.07,-74.02 1664.64,-67.03"/>
</g>
<!-- Node19 -->
<g id="node19" class="node">
<title>Node19</title>
<g id="a_node19"><a xlink:href="../../dc/d5c/d__label_8c.html" target="_top" xlink:title="Functions to prepare the OpenGL rendering of the atomic label(s)">
<polygon fill="white" stroke="#666666" points="2334.5,-24.5 2223.5,-24.5 2223.5,-5.5 2334.5,-5.5 2334.5,-24.5"/>
<text text-anchor="middle" x="2279" y="-12.5" font-family="Helvetica,sans-Serif" font-size="10.00">opengl/draw/d_label.c</text>
</a>
</g>
</g>
<!-- Node1&#45;&gt;Node19 -->
<g id="edge18" class="edge">
<title>Node1&#45;&gt;Node19</title>
<path fill="none" stroke="#63b8ff" d="M1664.85,-72.76C1780.02,-69.15 2016.74,-58.65 2215,-30 2223.89,-28.71 2233.39,-26.89 2242.28,-24.98"/>
<polygon fill="#63b8ff" stroke="#63b8ff" points="1664.83,-69.25 1654.94,-73.06 1665.04,-76.25 1664.83,-69.25"/>
</g>
<!-- Node20 -->
<g id="node20" class="node">
<title>Node20</title>
<g id="a_node20"><a xlink:href="../../da/da8/d__poly_8c.html" target="_top" xlink:title="Functions to prepare the OpenGL rendering of coordination polyhedra.">
<polygon fill="white" stroke="#666666" points="2461,-24.5 2353,-24.5 2353,-5.5 2461,-5.5 2461,-24.5"/>
<text text-anchor="middle" x="2407" y="-12.5" font-family="Helvetica,sans-Serif" font-size="10.00">opengl/draw/d_poly.c</text>
</a>
</g>
</g>
<!-- Node1&#45;&gt;Node20 -->
<g id="edge19" class="edge">
<title>Node1&#45;&gt;Node20</title>
<path fill="none" stroke="#63b8ff" d="M1664.27,-74.06C1796.87,-72.41 2095.49,-64.77 2344,-30 2352.88,-28.76 2362.36,-26.93 2371.2,-24.99"/>
<polygon fill="#63b8ff" stroke="#63b8ff" points="1664.58,-70.56 1654.62,-74.17 1664.66,-77.56 1664.58,-70.56"/>
</g>
<!-- Node21 -->
<g id="node21" class="node">
<title>Node21</title>
<g id="a_node21"><a xlink:href="../../d9/d09/d__selection_8c.html" target="_top" xlink:title="Functions to prepare the OpenGL rendering of the selected: atom(s), clone(s), bond(s) and clone bond(...">
<polygon fill="white" stroke="#666666" points="2609,-24.5 2479,-24.5 2479,-5.5 2609,-5.5 2609,-24.5"/>
<text text-anchor="middle" x="2544" y="-12.5" font-family="Helvetica,sans-Serif" font-size="10.00">opengl/draw/d_selection.c</text>
</a>
</g>
</g>
<!-- Node1&#45;&gt;Node21 -->
<g id="edge20" class="edge">
<title>Node1&#45;&gt;Node21</title>
<path fill="none" stroke="#63b8ff" d="M1664.51,-74.17C1812.96,-72.77 2171.74,-65.63 2470,-30 2480.39,-28.76 2491.51,-26.93 2501.89,-24.99"/>
<polygon fill="#63b8ff" stroke="#63b8ff" points="1664.82,-70.67 1654.85,-74.26 1664.88,-77.67 1664.82,-70.67"/>
</g>
<!-- Node22 -->
<g id="node22" class="node">
<title>Node22</title>
<g id="a_node22"><a xlink:href="../../d2/db3/ogl__draw_8c.html" target="_top" xlink:title="OpenGL window drawing funcions.">
<polygon fill="white" stroke="#666666" points="2722.5,-24.5 2627.5,-24.5 2627.5,-5.5 2722.5,-5.5 2722.5,-24.5"/>
<text text-anchor="middle" x="2675" y="-12.5" font-family="Helvetica,sans-Serif" font-size="10.00">opengl/ogl_draw.c</text>
</a>
</g>
</g>
<!-- Node1&#45;&gt;Node22 -->
<g id="edge21" class="edge">
<title>Node1&#45;&gt;Node22</title>
<path fill="none" stroke="#63b8ff" d="M1664.83,-73.26C1864.18,-69.43 2433.38,-56.42 2618,-30 2626.27,-28.82 2635.09,-26.95 2643.26,-24.97"/>
<polygon fill="#63b8ff" stroke="#63b8ff" points="1664.81,-69.76 1654.88,-73.45 1664.94,-76.76 1664.81,-69.76"/>
</g>
<!-- Node23 -->
<g id="node23" class="node">
<title>Node23</title>
<g id="a_node23"><a xlink:href="../../d1/db9/ogl__utils_8c.html" target="_top" xlink:title="2D and 3D calculations utilities for distances and angles">
<polygon fill="white" stroke="#666666" points="2833,-24.5 2741,-24.5 2741,-5.5 2833,-5.5 2833,-24.5"/>
<text text-anchor="middle" x="2787" y="-12.5" font-family="Helvetica,sans-Serif" font-size="10.00">opengl/ogl_utils.c</text>
</a>
</g>
</g>
<!-- Node1&#45;&gt;Node23 -->
<g id="edge22" class="edge">
<title>Node1&#45;&gt;Node23</title>
<path fill="none" stroke="#63b8ff" d="M1664.81,-73.69C1878.94,-70.9 2524.44,-60.14 2732,-30 2740.09,-28.82 2748.72,-26.94 2756.68,-24.93"/>
<polygon fill="#63b8ff" stroke="#63b8ff" points="1664.9,-70.19 1654.95,-73.81 1664.99,-77.19 1664.9,-70.19"/>
</g>
<!-- Node24 -->
<g id="node24" class="node">
<title>Node24</title>
<g id="a_node24"><a xlink:href="../../d3/d1b/read__field_8c.html" target="_top" xlink:title="Functions to read DLPOLY force field data in the atomes project file format.">
<polygon fill="white" stroke="#666666" points="2950.5,-24.5 2851.5,-24.5 2851.5,-5.5 2950.5,-5.5 2950.5,-24.5"/>
<text text-anchor="middle" x="2901" y="-12.5" font-family="Helvetica,sans-Serif" font-size="10.00">project/read_field.c</text>
</a>
</g>
</g>
<!-- Node1&#45;&gt;Node24 -->
<g id="edge23" class="edge">
<title>Node1&#45;&gt;Node24</title>
<path fill="none" stroke="#63b8ff" d="M1664.86,-73.82C1892.57,-71.32 2611.87,-61.1 2842,-30 2850.66,-28.83 2859.91,-26.95 2868.45,-24.94"/>
<polygon fill="#63b8ff" stroke="#63b8ff" points="1664.91,-70.32 1654.95,-73.93 1664.99,-77.32 1664.91,-70.32"/>
</g>
<!-- Node25 -->
<g id="node25" class="node">
<title>Node25</title>
<g id="a_node25"><a xlink:href="../../d9/d5e/save__field_8c.html" target="_top" xlink:title="Functions to save force field information in the atomes project file format.">
<polygon fill="white" stroke="#666666" points="3069.5,-24.5 2968.5,-24.5 2968.5,-5.5 3069.5,-5.5 3069.5,-24.5"/>
<text text-anchor="middle" x="3019" y="-12.5" font-family="Helvetica,sans-Serif" font-size="10.00">project/save_field.c</text>
</a>
</g>
</g>
<!-- Node1&#45;&gt;Node25 -->
<g id="edge24" class="edge">
<title>Node1&#45;&gt;Node25</title>
<path fill="none" stroke="#63b8ff" d="M1664.85,-74.07C1906.47,-72.3 2705.79,-63.95 2960,-30 2968.66,-28.84 2977.91,-26.96 2986.45,-24.95"/>
<polygon fill="#63b8ff" stroke="#63b8ff" points="1664.93,-70.57 1654.95,-74.14 1664.98,-77.57 1664.93,-70.57"/>
</g>
</g>
</svg>
