<?xml version="1.0" encoding="UTF-8" standalone="no"?>
<!DOCTYPE svg PUBLIC "-//W3C//DTD SVG 1.1//EN"
 "http://www.w3.org/Graphics/SVG/1.1/DTD/svg11.dtd">
<!-- Generated by graphviz version 2.43.0 (0)
 -->
<!-- Title: calc/dl_poly/dlp_field.h Pages: 1 -->
<!--zoomable 93 -->

<svg id="main" version="1.1" xmlns="http://www.w3.org/2000/svg" xmlns:xlink="http://www.w3.org/1999/xlink" xml:space="preserve" onload="init(evt)">
<style type="text/css"><![CDATA[
.node, .edge {opacity: 0.7;}
.node.selected, .edge.selected {opacity: 1;}
.edge:hover path { stroke: red; }
.edge:hover polygon { stroke: red; fill: red; }
]]></style>

<defs>
  <circle id="rim" cx="0" cy="0" r="7"/>
  <circle id="rim2" cx="0" cy="0" r="3.5"/>
  <g id="zoomPlus">
    <use xlink:href="#rim" fill="#404040"><set attributeName="fill" to="#808080" begin="zoomplus.mouseover" end="zoomplus.mouseout"/></use>
    <path d="M-4,0h8M0,-4v8" fill="none" stroke="white" stroke-width="1.5" pointer-events="none"/>
  </g>
  <g id="zoomMin">
    <use xlink:href="#rim" fill="#404040"><set attributeName="fill" to="#808080" begin="zoomminus.mouseover" end="zoomminus.mouseout"/></use>
    <path d="M-4,0h8" fill="none" stroke="white" stroke-width="1.5" pointer-events="none"/>
  </g>
  <g id="arrowUp" transform="translate(30 24)">
    <use xlink:href="#rim"/>
    <path pointer-events="none" fill="none" stroke="white" stroke-width="1.5" d="M0,-3.0v7 M-2.5,-0.5L0,-3.0L2.5,-0.5"/>
  </g>
  <g id="arrowRight" transform="rotate(90) translate(36 -43)">
    <use xlink:href="#rim"/>
    <path pointer-events="none" fill="none" stroke="white" stroke-width="1.5" d="M0,-3.0v7 M-2.5,-0.5L0,-3.0L2.5,-0.5"/>
  </g>
  <g id="arrowDown" transform="rotate(180) translate(-30 -48)">
    <use xlink:href="#rim"/>
    <path pointer-events="none" fill="none" stroke="white" stroke-width="1.5" d="M0,-3.0v7 M-2.5,-0.5L0,-3.0L2.5,-0.5"/>
  </g>
  <g id="arrowLeft" transform="rotate(270) translate(-36 17)">
    <use xlink:href="#rim"/>
    <path pointer-events="none" fill="none" stroke="white" stroke-width="1.5" d="M0,-3.0v7 M-2.5,-0.5L0,-3.0L2.5,-0.5"/>
  </g>
  <g id="resetDef">
    <use xlink:href="#rim2" fill="#404040"><set attributeName="fill" to="#808080" begin="reset.mouseover" end="reset.mouseout"/></use>
  </g>
</defs>
<script type="application/ecmascript">
var viewWidth = 3340;
var viewHeight = 93;
var sectionId = 'dynsection-1';
</script>
<script type="application/ecmascript" xlink:href="../../svg.min.js"/>
<svg id="graph" class="graph">
<g id="viewport">
<title>calc/dl_poly/dlp_field.h</title>
<!-- Node1 -->
<g id="Node000001" class="node">
<title>Node1</title>
<g id="a_Node000001"><a xlink:title="Variable declarations for the creation of the DL_POLY input file(s)">
<polygon fill="#999999" stroke="#666666" points="1795,-85 1667,-85 1667,-66 1795,-66 1795,-85"/>
<text text-anchor="middle" x="1731" y="-73" font-family="Helvetica,sans-Serif" font-size="10.00">calc/dl_poly/dlp_field.h</text>
</a>
</g>
</g>
<!-- Node2 -->
<g id="Node000002" class="node">
<title>Node2</title>
<g id="a_Node000002"><a xlink:href="../../d3/dd7/dlp__active_8c.html" target="_top" xlink:title="Functions to retrieve data in the force field structure.">
<polygon fill="white" stroke="#666666" points="136,-24.5 0,-24.5 0,-5.5 136,-5.5 136,-24.5"/>
<text text-anchor="middle" x="68" y="-12.5" font-family="Helvetica,sans-Serif" font-size="10.00">calc/dl_poly/dlp_active.c</text>
</a>
</g>
</g>
<!-- Node1&#45;&gt;Node2 -->
<g id="edge1_Node000001_Node000002" class="edge">
<title>Node1&#45;&gt;Node2</title>
<g id="a_edge1_Node000001_Node000002"><a xlink:title=" ">
<path fill="none" stroke="#63b8ff" d="M1656.54,-73.91C1384.37,-71.53 443.72,-61.17 145,-30 133.11,-28.76 120.29,-26.72 108.59,-24.57"/>
<polygon fill="#63b8ff" stroke="#63b8ff" points="1656.68,-77.41 1666.71,-74 1656.74,-70.41 1656.68,-77.41"/>
</a>
</g>
</g>
<!-- Node3 -->
<g id="Node000003" class="node">
<title>Node3</title>
<g id="a_Node000003"><a xlink:href="../../d2/da2/dlp__atom_8c.html" target="_top" xlink:title="Functions to handle atom selection(s) when creating a force field &#160;&#160;Functions to remove / add field a...">
<polygon fill="white" stroke="#666666" points="285.5,-24.5 154.5,-24.5 154.5,-5.5 285.5,-5.5 285.5,-24.5"/>
<text text-anchor="middle" x="220" y="-12.5" font-family="Helvetica,sans-Serif" font-size="10.00">calc/dl_poly/dlp_atom.c</text>
</a>
</g>
</g>
<!-- Node1&#45;&gt;Node3 -->
<g id="edge2_Node000001_Node000003" class="edge">
<title>Node1&#45;&gt;Node3</title>
<g id="a_edge2_Node000001_Node000003"><a xlink:title=" ">
<path fill="none" stroke="#63b8ff" d="M1656.36,-73.73C1400.81,-70.84 561.98,-59.32 294,-30 282.56,-28.75 270.24,-26.7 259,-24.56"/>
<polygon fill="#63b8ff" stroke="#63b8ff" points="1656.61,-77.23 1666.65,-73.84 1656.69,-70.23 1656.61,-77.23"/>
</a>
</g>
</g>
<!-- Node4 -->
<g id="Node000004" class="node">
<title>Node4</title>
<g id="a_Node000004"><a xlink:href="../../d8/ded/dlp__comp_8c.html" target="_top" xlink:title="Functions to compare and adjust field body parameters.">
<polygon fill="white" stroke="#666666" points="436.5,-24.5 303.5,-24.5 303.5,-5.5 436.5,-5.5 436.5,-24.5"/>
<text text-anchor="middle" x="370" y="-12.5" font-family="Helvetica,sans-Serif" font-size="10.00">calc/dl_poly/dlp_comp.c</text>
</a>
</g>
</g>
<!-- Node1&#45;&gt;Node4 -->
<g id="edge3_Node000001_Node000004" class="edge">
<title>Node1&#45;&gt;Node4</title>
<g id="a_edge3_Node000001_Node000004"><a xlink:title=" ">
<path fill="none" stroke="#63b8ff" d="M1656.76,-73.37C1419.78,-69.54 683.11,-55.8 446,-30 434.26,-28.72 421.61,-26.67 410.07,-24.52"/>
<polygon fill="#63b8ff" stroke="#63b8ff" points="1656.94,-76.87 1666.99,-73.53 1657.05,-69.87 1656.94,-76.87"/>
</a>
</g>
</g>
<!-- Node5 -->
<g id="Node000005" class="node">
<title>Node5</title>
<g id="a_Node000005"><a xlink:href="../../dc/d11/dlp__control_8c.html" target="_top" xlink:title="Functions to handle the creation of the DL&#45;POLY CONTROL file.">
<polygon fill="white" stroke="#666666" points="595,-24.5 455,-24.5 455,-5.5 595,-5.5 595,-24.5"/>
<text text-anchor="middle" x="525" y="-12.5" font-family="Helvetica,sans-Serif" font-size="10.00">calc/dl_poly/dlp_control.c</text>
</a>
</g>
</g>
<!-- Node1&#45;&gt;Node5 -->
<g id="edge4_Node000001_Node000005" class="edge">
<title>Node1&#45;&gt;Node5</title>
<g id="a_edge4_Node000001_Node000005"><a xlink:title=" ">
<path fill="none" stroke="#63b8ff" d="M1656.73,-75.05C1475.99,-75.63 999.08,-72.61 604,-30 591.95,-28.7 578.97,-26.67 567.08,-24.55"/>
<polygon fill="#63b8ff" stroke="#63b8ff" points="1656.93,-78.55 1666.92,-75.01 1656.91,-71.55 1656.93,-78.55"/>
</a>
</g>
</g>
<!-- Node6 -->
<g id="Node000006" class="node">
<title>Node6</title>
<g id="a_Node000006"><a xlink:href="../../da/d88/dlp__copy_8c.html" target="_top" xlink:title="Functions to copy force field and related data structures.">
<polygon fill="white" stroke="#666666" points="741,-24.5 613,-24.5 613,-5.5 741,-5.5 741,-24.5"/>
<text text-anchor="middle" x="677" y="-12.5" font-family="Helvetica,sans-Serif" font-size="10.00">calc/dl_poly/dlp_copy.c</text>
</a>
</g>
</g>
<!-- Node1&#45;&gt;Node6 -->
<g id="edge5_Node000001_Node000006" class="edge">
<title>Node1&#45;&gt;Node6</title>
<g id="a_edge5_Node000001_Node000006"><a xlink:title=" ">
<path fill="none" stroke="#63b8ff" d="M1656.27,-74.77C1491.85,-74.58 1086.53,-69.69 750,-30 738.85,-28.68 726.85,-26.65 715.86,-24.53"/>
<polygon fill="#63b8ff" stroke="#63b8ff" points="1656.75,-78.27 1666.75,-74.78 1656.76,-71.27 1656.75,-78.27"/>
</a>
</g>
</g>
<!-- Node7 -->
<g id="Node000007" class="node">
<title>Node7</title>
<g id="a_Node000007"><a xlink:href="../../d4/d28/dlp__edit_8c.html" target="_top" xlink:title="Functions to edit DL&#45;POLY force field parameters.">
<polygon fill="white" stroke="#666666" points="884.5,-24.5 759.5,-24.5 759.5,-5.5 884.5,-5.5 884.5,-24.5"/>
<text text-anchor="middle" x="822" y="-12.5" font-family="Helvetica,sans-Serif" font-size="10.00">calc/dl_poly/dlp_edit.c</text>
</a>
</g>
</g>
<!-- Node1&#45;&gt;Node7 -->
<g id="edge6_Node000001_Node000007" class="edge">
<title>Node1&#45;&gt;Node7</title>
<g id="a_edge6_Node000001_Node000007"><a xlink:title=" ">
<path fill="none" stroke="#63b8ff" d="M1656.73,-74.01C1510.28,-72.27 1174.14,-64.51 894,-30 883.13,-28.66 871.44,-26.64 860.7,-24.55"/>
<polygon fill="#63b8ff" stroke="#63b8ff" points="1656.91,-77.51 1666.95,-74.12 1656.99,-70.51 1656.91,-77.51"/>
</a>
</g>
</g>
<!-- Node8 -->
<g id="Node000008" class="node">
<title>Node8</title>
<g id="a_Node000008"><a xlink:href="../../dc/d79/dlp__ff__match_8c.html" target="_top" xlink:title="Functions the list the available database parameters for the atom database window.">
<polygon fill="white" stroke="#666666" points="1007,-30 903,-30 903,0 1007,0 1007,-30"/>
<text text-anchor="start" x="911" y="-18" font-family="Helvetica,sans-Serif" font-size="10.00">calc/dl_poly/dlp_ff</text>
<text text-anchor="middle" x="955" y="-7" font-family="Helvetica,sans-Serif" font-size="10.00">_match.c</text>
</a>
</g>
</g>
<!-- Node1&#45;&gt;Node8 -->
<g id="edge7_Node000001_Node000008" class="edge">
<title>Node1&#45;&gt;Node8</title>
<g id="a_edge7_Node000001_Node000008"><a xlink:title=" ">
<path fill="none" stroke="#63b8ff" d="M1656.27,-73.86C1525.71,-71.84 1247.89,-63.6 1016,-30 1013.1,-29.58 1010.13,-29.09 1007.14,-28.56"/>
<polygon fill="#63b8ff" stroke="#63b8ff" points="1656.5,-77.36 1666.55,-74.01 1656.6,-70.36 1656.5,-77.36"/>
</a>
</g>
</g>
<!-- Node9 -->
<g id="Node000009" class="node">
<title>Node9</title>
<g id="a_Node000009"><a xlink:href="../../d3/d43/dlp__field_8c.html" target="_top" xlink:title="Functions to prepare the DL&#45;POLY / LAMMPS input preparation assistant &#160;&#160;Functions to design a classic...">
<polygon fill="white" stroke="#666666" points="1152.5,-24.5 1025.5,-24.5 1025.5,-5.5 1152.5,-5.5 1152.5,-24.5"/>
<text text-anchor="middle" x="1089" y="-12.5" font-family="Helvetica,sans-Serif" font-size="10.00">calc/dl_poly/dlp_field.c</text>
</a>
</g>
</g>
<!-- Node1&#45;&gt;Node9 -->
<g id="edge8_Node000001_Node000009" class="edge">
<title>Node1&#45;&gt;Node9</title>
<g id="a_edge8_Node000001_Node000009"><a xlink:title=" ">
<path fill="none" stroke="#63b8ff" d="M1656.53,-71.33C1547.57,-66.08 1338.47,-53.75 1162,-30 1151.26,-28.55 1139.7,-26.55 1129.03,-24.51"/>
<polygon fill="#63b8ff" stroke="#63b8ff" points="1656.6,-74.83 1666.75,-71.81 1656.93,-67.84 1656.6,-74.83"/>
</a>
</g>
</g>
<!-- Node10 -->
<g id="Node000010" class="node">
<title>Node10</title>
<g id="a_Node000010"><a xlink:href="../../d6/d78/dlp__init_8c.html" target="_top" xlink:title="Functions to initialize the creation of a classical force field.">
<polygon fill="white" stroke="#666666" points="1293,-24.5 1171,-24.5 1171,-5.5 1293,-5.5 1293,-24.5"/>
<text text-anchor="middle" x="1232" y="-12.5" font-family="Helvetica,sans-Serif" font-size="10.00">calc/dl_poly/dlp_init.c</text>
</a>
</g>
</g>
<!-- Node1&#45;&gt;Node10 -->
<g id="edge9_Node000001_Node000010" class="edge">
<title>Node1&#45;&gt;Node10</title>
<g id="a_edge9_Node000001_Node000010"><a xlink:title=" ">
<path fill="none" stroke="#63b8ff" d="M1656.64,-68.92C1570.88,-61.99 1425.79,-48.76 1302,-30 1291.95,-28.48 1281.16,-26.49 1271.13,-24.5"/>
<polygon fill="#63b8ff" stroke="#63b8ff" points="1656.55,-72.43 1666.8,-69.74 1657.11,-65.45 1656.55,-72.43"/>
</a>
</g>
</g>
<!-- Node11 -->
<g id="Node000011" class="node">
<title>Node11</title>
<g id="a_Node000011"><a xlink:href="../../d7/d6f/dlp__mol_8c.html" target="_top" xlink:title="Functions to add / remove molecule(s) to / from the force field.">
<polygon fill="white" stroke="#666666" points="1436.5,-24.5 1311.5,-24.5 1311.5,-5.5 1436.5,-5.5 1436.5,-24.5"/>
<text text-anchor="middle" x="1374" y="-12.5" font-family="Helvetica,sans-Serif" font-size="10.00">calc/dl_poly/dlp_mol.c</text>
</a>
</g>
</g>
<!-- Node1&#45;&gt;Node11 -->
<g id="edge10_Node000001_Node000011" class="edge">
<title>Node1&#45;&gt;Node11</title>
<g id="a_edge10_Node000001_Node000011"><a xlink:title=" ">
<path fill="none" stroke="#63b8ff" d="M1662.11,-64.48C1604.31,-55.89 1519.64,-42.9 1446,-30 1436.47,-28.33 1426.25,-26.42 1416.59,-24.55"/>
<polygon fill="#63b8ff" stroke="#63b8ff" points="1661.81,-67.97 1672.22,-65.97 1662.84,-61.05 1661.81,-67.97"/>
</a>
</g>
</g>
<!-- Node12 -->
<g id="Node000012" class="node">
<title>Node12</title>
<g id="a_Node000012"><a xlink:href="../../d2/dc7/dlp__print_8c.html" target="_top" xlink:title="Functions to handle the output of the DL&#45;POLY FIELD file &#160;&#160;Functions to handle the output of the DL&#45;P...">
<polygon fill="white" stroke="#666666" points="1583,-24.5 1455,-24.5 1455,-5.5 1583,-5.5 1583,-24.5"/>
<text text-anchor="middle" x="1519" y="-12.5" font-family="Helvetica,sans-Serif" font-size="10.00">calc/dl_poly/dlp_print.c</text>
</a>
</g>
</g>
<!-- Node1&#45;&gt;Node12 -->
<g id="edge11_Node000001_Node000012" class="edge">
<title>Node1&#45;&gt;Node12</title>
<g id="a_edge11_Node000001_Node000012"><a xlink:title=" ">
<path fill="none" stroke="#63b8ff" d="M1690.5,-63.32C1649.5,-52.01 1587.01,-34.77 1549.86,-24.52"/>
<polygon fill="#63b8ff" stroke="#63b8ff" points="1689.6,-66.71 1700.17,-65.99 1691.46,-59.96 1689.6,-66.71"/>
</a>
</g>
</g>
<!-- Node13 -->
<g id="Node000013" class="node">
<title>Node13</title>
<g id="a_Node000013"><a xlink:href="../../d1/d1d/dlp__viz_8c.html" target="_top" xlink:title="functions to handle the visualization events when creating a classical force field">
<polygon fill="white" stroke="#666666" points="1721,-24.5 1601,-24.5 1601,-5.5 1721,-5.5 1721,-24.5"/>
<text text-anchor="middle" x="1661" y="-12.5" font-family="Helvetica,sans-Serif" font-size="10.00">calc/dl_poly/dlp_viz.c</text>
</a>
</g>
</g>
<!-- Node1&#45;&gt;Node13 -->
<g id="edge12_Node000001_Node000013" class="edge">
<title>Node1&#45;&gt;Node13</title>
<g id="a_edge12_Node000001_Node000013"><a xlink:title=" ">
<path fill="none" stroke="#63b8ff" d="M1712.72,-59.22C1699.55,-48.21 1682.24,-33.75 1671.37,-24.67"/>
<polygon fill="#63b8ff" stroke="#63b8ff" points="1710.75,-62.14 1720.67,-65.87 1715.24,-56.77 1710.75,-62.14"/>
</a>
</g>
</g>
<!-- Node14 -->
<g id="Node000014" class="node">
<title>Node14</title>
<g id="a_Node000014"><a xlink:href="../../d7/d30/force__fields_8c.html" target="_top" xlink:title="Functions to prepare the force field XML files from the sources in atomes &#160;&#160;Functions to read the for...">
<polygon fill="white" stroke="#666666" points="1862.5,-30 1739.5,-30 1739.5,0 1862.5,0 1862.5,-30"/>
<text text-anchor="start" x="1747.5" y="-18" font-family="Helvetica,sans-Serif" font-size="10.00">calc/force_fields/force</text>
<text text-anchor="middle" x="1801" y="-7" font-family="Helvetica,sans-Serif" font-size="10.00">_fields.c</text>
</a>
</g>
</g>
<!-- Node1&#45;&gt;Node14 -->
<g id="edge13_Node000001_Node000014" class="edge">
<title>Node1&#45;&gt;Node14</title>
<g id="a_edge13_Node000001_Node000014"><a xlink:title=" ">
<path fill="none" stroke="#63b8ff" d="M1749.27,-59.23C1760.04,-50.23 1773.58,-38.91 1784.11,-30.11"/>
<polygon fill="#63b8ff" stroke="#63b8ff" points="1746.76,-56.77 1741.33,-65.87 1751.25,-62.14 1746.76,-56.77"/>
</a>
</g>
</g>
<!-- Node15 -->
<g id="Node000015" class="node">
<title>Node15</title>
<g id="a_Node000015"><a xlink:href="../../da/d65/la__print_8c.html" target="_top" xlink:title="Functions to print the LAMMPS input file(s)">
<polygon fill="white" stroke="#666666" points="2007.5,-24.5 1880.5,-24.5 1880.5,-5.5 2007.5,-5.5 2007.5,-24.5"/>
<text text-anchor="middle" x="1944" y="-12.5" font-family="Helvetica,sans-Serif" font-size="10.00">calc/lammps/la_print.c</text>
</a>
</g>
</g>
<!-- Node1&#45;&gt;Node15 -->
<g id="edge14_Node000001_Node000015" class="edge">
<title>Node1&#45;&gt;Node15</title>
<g id="a_edge14_Node000001_Node000015"><a xlink:title=" ">
<path fill="none" stroke="#63b8ff" d="M1771.69,-63.32C1812.88,-52.01 1875.67,-34.77 1912.99,-24.52"/>
<polygon fill="#63b8ff" stroke="#63b8ff" points="1770.69,-59.97 1761.97,-65.99 1772.54,-66.72 1770.69,-59.97"/>
</a>
</g>
</g>
<!-- Node16 -->
<g id="Node000016" class="node">
<title>Node16</title>
<g id="a_Node000016"><a xlink:href="../../d5/d34/bdcall_8c.html" target="_top" xlink:title="Callbacks for the bond properties calculation dialog.">
<polygon fill="white" stroke="#666666" points="2098,-24.5 2026,-24.5 2026,-5.5 2098,-5.5 2098,-24.5"/>
<text text-anchor="middle" x="2062" y="-12.5" font-family="Helvetica,sans-Serif" font-size="10.00">gui/bdcall.c</text>
</a>
</g>
</g>
<!-- Node1&#45;&gt;Node16 -->
<g id="edge15_Node000001_Node000016" class="edge">
<title>Node1&#45;&gt;Node16</title>
<g id="a_edge15_Node000001_Node000016"><a xlink:title=" ">
<path fill="none" stroke="#63b8ff" d="M1805.31,-65.99C1863.38,-58.6 1945.89,-46.5 2017,-30 2023.54,-28.48 2030.5,-26.5 2036.95,-24.51"/>
<polygon fill="#63b8ff" stroke="#63b8ff" points="1804.61,-62.55 1795.13,-67.27 1805.49,-69.49 1804.61,-62.55"/>
</a>
</g>
</g>
<!-- Node17 -->
<g id="Node000017" class="node">
<title>Node17</title>
<g id="a_Node000017"><a xlink:href="../../dc/dbd/d__atoms_8c.html" target="_top" xlink:title="nctions to prepare the OpenGL rendering atom(s) and clone(s)">
<polygon fill="white" stroke="#666666" points="2246,-24.5 2116,-24.5 2116,-5.5 2246,-5.5 2246,-24.5"/>
<text text-anchor="middle" x="2181" y="-12.5" font-family="Helvetica,sans-Serif" font-size="10.00">opengl/draw/d_atoms.c</text>
</a>
</g>
</g>
<!-- Node1&#45;&gt;Node17 -->
<g id="edge16_Node000001_Node000017" class="edge">
<title>Node1&#45;&gt;Node17</title>
<g id="a_edge16_Node000001_Node000017"><a xlink:title=" ">
<path fill="none" stroke="#63b8ff" d="M1805,-67.27C1880.98,-59.49 2002.54,-46.04 2107,-30 2117.34,-28.41 2128.44,-26.45 2138.82,-24.5"/>
<polygon fill="#63b8ff" stroke="#63b8ff" points="1804.64,-63.79 1795.05,-68.28 1805.35,-70.75 1804.64,-63.79"/>
</a>
</g>
</g>
<!-- Node18 -->
<g id="Node000018" class="node">
<title>Node18</title>
<g id="a_Node000018"><a xlink:href="../../d7/d10/d__bonds_8c.html" target="_top" xlink:title="Functions to prepare the OpenGL rendering of bond(s) and clone bond(s)">
<polygon fill="white" stroke="#666666" points="2392,-24.5 2264,-24.5 2264,-5.5 2392,-5.5 2392,-24.5"/>
<text text-anchor="middle" x="2328" y="-12.5" font-family="Helvetica,sans-Serif" font-size="10.00">opengl/draw/d_bonds.c</text>
</a>
</g>
</g>
<!-- Node1&#45;&gt;Node18 -->
<g id="edge17_Node000001_Node000018" class="edge">
<title>Node1&#45;&gt;Node18</title>
<g id="a_edge17_Node000001_Node000018"><a xlink:title=" ">
<path fill="none" stroke="#63b8ff" d="M1805.55,-70.63C1907.42,-64.79 2095.64,-51.99 2255,-30 2265.61,-28.54 2277.01,-26.55 2287.58,-24.53"/>
<polygon fill="#63b8ff" stroke="#63b8ff" points="1805.15,-67.15 1795.37,-71.21 1805.55,-74.14 1805.15,-67.15"/>
</a>
</g>
</g>
<!-- Node19 -->
<g id="Node000019" class="node">
<title>Node19</title>
<g id="a_Node000019"><a xlink:href="../../dc/d5c/d__label_8c.html" target="_top" xlink:title="Functions to prepare the OpenGL rendering of the atomic label(s)">
<polygon fill="white" stroke="#666666" points="2533.5,-24.5 2410.5,-24.5 2410.5,-5.5 2533.5,-5.5 2533.5,-24.5"/>
<text text-anchor="middle" x="2472" y="-12.5" font-family="Helvetica,sans-Serif" font-size="10.00">opengl/draw/d_label.c</text>
</a>
</g>
</g>
<!-- Node1&#45;&gt;Node19 -->
<g id="edge18_Node000001_Node000019" class="edge">
<title>Node1&#45;&gt;Node19</title>
<g id="a_edge18_Node000001_Node000019"><a xlink:title=" ">
<path fill="none" stroke="#63b8ff" d="M1805.14,-72.68C1929.01,-68.95 2185.71,-58.26 2401,-30 2411.59,-28.61 2422.97,-26.6 2433.46,-24.53"/>
<polygon fill="#63b8ff" stroke="#63b8ff" points="1804.9,-69.19 1795.01,-72.98 1805.11,-76.19 1804.9,-69.19"/>
</a>
</g>
</g>
<!-- Node20 -->
<g id="Node000020" class="node">
<title>Node20</title>
<g id="a_Node000020"><a xlink:href="../../da/da8/d__poly_8c.html" target="_top" xlink:title="Functions to prepare the OpenGL rendering of coordination polyhedra.">
<polygon fill="white" stroke="#666666" points="2670.5,-24.5 2551.5,-24.5 2551.5,-5.5 2670.5,-5.5 2670.5,-24.5"/>
<text text-anchor="middle" x="2611" y="-12.5" font-family="Helvetica,sans-Serif" font-size="10.00">opengl/draw/d_poly.c</text>
</a>
</g>
</g>
<!-- Node1&#45;&gt;Node20 -->
<g id="edge19_Node000001_Node000020" class="edge">
<title>Node1&#45;&gt;Node20</title>
<g id="a_edge19_Node000001_Node000020"><a xlink:title=" ">
<path fill="none" stroke="#63b8ff" d="M1805.67,-74.1C1949.15,-72.52 2273.06,-64.99 2543,-30 2553.28,-28.67 2564.33,-26.65 2574.47,-24.56"/>
<polygon fill="#63b8ff" stroke="#63b8ff" points="1805.21,-70.6 1795.25,-74.21 1805.28,-77.6 1805.21,-70.6"/>
</a>
</g>
</g>
<!-- Node21 -->
<g id="Node000021" class="node">
<title>Node21</title>
<g id="a_Node000021"><a xlink:href="../../d9/d09/d__selection_8c.html" target="_top" xlink:title="Functions to prepare the OpenGL rendering of the selected: atom(s), clone(s), bond(s) and clone bond(...">
<polygon fill="white" stroke="#666666" points="2831.5,-24.5 2688.5,-24.5 2688.5,-5.5 2831.5,-5.5 2831.5,-24.5"/>
<text text-anchor="middle" x="2760" y="-12.5" font-family="Helvetica,sans-Serif" font-size="10.00">opengl/draw/d_selection.c</text>
</a>
</g>
</g>
<!-- Node1&#45;&gt;Node21 -->
<g id="edge20_Node000001_Node000021" class="edge">
<title>Node1&#45;&gt;Node21</title>
<g id="a_edge20_Node000001_Node000021"><a xlink:title=" ">
<path fill="none" stroke="#63b8ff" d="M1805.31,-74.2C1965.59,-72.87 2355.55,-65.85 2680,-30 2692.05,-28.67 2705.04,-26.65 2716.96,-24.56"/>
<polygon fill="#63b8ff" stroke="#63b8ff" points="1805.06,-70.71 1795.09,-74.28 1805.12,-77.71 1805.06,-70.71"/>
</a>
</g>
</g>
<!-- Node22 -->
<g id="Node000022" class="node">
<title>Node22</title>
<g id="a_Node000022"><a xlink:href="../../d2/db3/ogl__draw_8c.html" target="_top" xlink:title="OpenGL window drawing funcions.">
<polygon fill="white" stroke="#666666" points="2954,-24.5 2850,-24.5 2850,-5.5 2954,-5.5 2954,-24.5"/>
<text text-anchor="middle" x="2902" y="-12.5" font-family="Helvetica,sans-Serif" font-size="10.00">opengl/ogl_draw.c</text>
</a>
</g>
</g>
<!-- Node1&#45;&gt;Node22 -->
<g id="edge21_Node000001_Node000022" class="edge">
<title>Node1&#45;&gt;Node22</title>
<g id="a_edge21_Node000001_Node000022"><a xlink:title=" ">
<path fill="none" stroke="#63b8ff" d="M1805.26,-73.32C2020.13,-69.62 2639.99,-56.86 2841,-30 2850.48,-28.73 2860.65,-26.68 2869.91,-24.54"/>
<polygon fill="#63b8ff" stroke="#63b8ff" points="1804.97,-69.82 1795.03,-73.49 1805.09,-76.82 1804.97,-69.82"/>
</a>
</g>
</g>
<!-- Node23 -->
<g id="Node000023" class="node">
<title>Node23</title>
<g id="a_Node000023"><a xlink:href="../../d1/db9/ogl__utils_8c.html" target="_top" xlink:title="2D and 3D calculations utilities for distances and angles">
<polygon fill="white" stroke="#666666" points="3074,-24.5 2972,-24.5 2972,-5.5 3074,-5.5 3074,-24.5"/>
<text text-anchor="middle" x="3023" y="-12.5" font-family="Helvetica,sans-Serif" font-size="10.00">opengl/ogl_utils.c</text>
</a>
</g>
</g>
<!-- Node1&#45;&gt;Node23 -->
<g id="edge22_Node000001_Node000023" class="edge">
<title>Node1&#45;&gt;Node23</title>
<g id="a_edge22_Node000001_Node000023"><a xlink:title=" ">
<path fill="none" stroke="#63b8ff" d="M1805.35,-73.7C2035.99,-70.91 2737.35,-60.11 2963,-30 2972.33,-28.75 2982.34,-26.71 2991.45,-24.57"/>
<polygon fill="#63b8ff" stroke="#63b8ff" points="1805.01,-70.2 1795.05,-73.82 1805.09,-77.2 1805.01,-70.2"/>
</a>
</g>
</g>
<!-- Node24 -->
<g id="Node000024" class="node">
<title>Node24</title>
<g id="a_Node000024"><a xlink:href="../../d3/d1b/read__field_8c.html" target="_top" xlink:title="Functions to read DLPOLY force field data in the atomes project file format.">
<polygon fill="white" stroke="#666666" points="3202,-24.5 3092,-24.5 3092,-5.5 3202,-5.5 3202,-24.5"/>
<text text-anchor="middle" x="3147" y="-12.5" font-family="Helvetica,sans-Serif" font-size="10.00">project/read_field.c</text>
</a>
</g>
</g>
<!-- Node1&#45;&gt;Node24 -->
<g id="edge23_Node000001_Node000024" class="edge">
<title>Node1&#45;&gt;Node24</title>
<g id="a_edge23_Node000001_Node000024"><a xlink:title=" ">
<path fill="none" stroke="#63b8ff" d="M1805.37,-73.84C2050.67,-71.38 2832.72,-61.23 3083,-30 3093.04,-28.75 3103.84,-26.67 3113.65,-24.5"/>
<polygon fill="#63b8ff" stroke="#63b8ff" points="1805.1,-70.34 1795.13,-73.94 1805.17,-77.34 1805.1,-70.34"/>
</a>
</g>
</g>
<!-- Node25 -->
<g id="Node000025" class="node">
<title>Node25</title>
<g id="a_Node000025"><a xlink:href="../../d9/d5e/save__field_8c.html" target="_top" xlink:title="Functions to save force field information in the atomes project file format.">
<polygon fill="white" stroke="#666666" points="3331.5,-24.5 3220.5,-24.5 3220.5,-5.5 3331.5,-5.5 3331.5,-24.5"/>
<text text-anchor="middle" x="3276" y="-12.5" font-family="Helvetica,sans-Serif" font-size="10.00">project/save_field.c</text>
</a>
</g>
</g>
<!-- Node1&#45;&gt;Node25 -->
<g id="edge24_Node000001_Node000025" class="edge">
<title>Node1&#45;&gt;Node25</title>
<g id="a_edge24_Node000001_Node000025"><a xlink:title=" ">
<path fill="none" stroke="#63b8ff" d="M1805.27,-74.06C2065.4,-72.22 2934.48,-63.65 3211,-30 3221.2,-28.76 3232.16,-26.69 3242.13,-24.52"/>
<polygon fill="#63b8ff" stroke="#63b8ff" points="1805.15,-70.56 1795.18,-74.13 1805.2,-77.56 1805.15,-70.56"/>
</a>
</g>
</g>
</g>
</svg>

<g id="navigator" transform="translate(0 0)" fill="#404254">
  <rect fill="#f2f5e9" fill-opacity="0.5" stroke="#606060" stroke-width=".5" x="0" y="0" width="60" height="60"/>
  <use id="zoomplus" xlink:href="#zoomPlus" x="17" y="9" onmousedown="handleZoom(evt,'in')"/>
  <use id="zoomminus" xlink:href="#zoomMin" x="42" y="9" onmousedown="handleZoom(evt,'out')"/>
  <use id="reset" xlink:href="#resetDef" x="30" y="36" onmousedown="handleReset()"/>
   <use id="arrowup" xlink:href="#arrowUp" x="0" y="0" onmousedown="handlePan(0,-1)"/>
  <use id="arrowright" xlink:href="#arrowRight" x="0" y="0" onmousedown="handlePan(1,0)"/>
  <use id="arrowdown" xlink:href="#arrowDown" x="0" y="0" onmousedown="handlePan(0,1)"/>
  <use id="arrowleft" xlink:href="#arrowLeft" x="0" y="0" onmousedown="handlePan(-1,0)"/>
</g>
<svg viewBox="0 0 15 15" width="100%" height="30px" preserveAspectRatio="xMaxYMin meet">
 <g id="arrow_out" transform="scale(0.3 0.3)">
  <a xlink:href="dlp__field_8h__dep__incl_org.svg" target="_base">
   <rect id="button" ry="5" rx="5" y="6" x="6" height="38" width="38"
        fill="#f2f5e9" fill-opacity="0.5" stroke="#606060" stroke-width="1.0"/>
   <path id="arrow"
     d="M 11.500037,31.436501 C 11.940474,20.09759 22.043105,11.32322 32.158766,21.979434 L 37.068811,17.246167 C 37.068811,17.246167 37.088388,32 37.088388,32 L 22.160133,31.978069 C 22.160133,31.978069 26.997745,27.140456 26.997745,27.140456 C 18.528582,18.264221 13.291696,25.230495 11.500037,31.436501 z"
     style="fill:#404040;"/>
  </a>
 </g>
</svg>

<style type='text/css'>
<![CDATA[
[data-mouse-over-selected='false'] { opacity: 0.7; }
[data-mouse-over-selected='true']  { opacity: 1.0; }
]]>
</style>
<script type="application/ecmascript"><![CDATA[
document.addEventListener('DOMContentLoaded', (event) => {
  highlightEdges();
  highlightAdjacentNodes();
});
]]></script>
</svg>
