<?xml version="1.0" encoding="UTF-8" standalone="no"?>
<!DOCTYPE svg PUBLIC "-//W3C//DTD SVG 1.1//EN"
 "http://www.w3.org/Graphics/SVG/1.1/DTD/svg11.dtd">
<!-- Generated by graphviz version 7.1.0 (0)
 -->
<!-- Title: read_isaacs.h Pages: 1 -->
<svg width="424pt" height="82pt"
 viewBox="0.00 0.00 424.00 82.00" xmlns="http://www.w3.org/2000/svg" xmlns:xlink="http://www.w3.org/1999/xlink">
<g id="graph0" class="graph" transform="scale(1 1) rotate(0) translate(4 78)">
<title>read_isaacs.h</title>
<!-- Node1 -->
<g id="node1" class="node">
<title>Node1</title>
<g id="a_node1"><a xlink:title="Function declarations to read / write ISAACS XML file.">
<polygon fill="#999999" stroke="#666666" points="251.5,-74 174.5,-74 174.5,-55 251.5,-55 251.5,-74"/>
<text text-anchor="middle" x="213" y="-62" font-family="Helvetica,sans-Serif" font-size="10.00">read_isaacs.h</text>
</a>
</g>
</g>
<!-- Node2 -->
<g id="node2" class="node">
<title>Node2</title>
<g id="a_node2"><a xlink:title=" ">
<polygon fill="#e0e0e0" stroke="#999999" points="92,-19 0,-19 0,0 92,0 92,-19"/>
<text text-anchor="middle" x="46" y="-7" font-family="Helvetica,sans-Serif" font-size="10.00">libxml/encoding.h</text>
</a>
</g>
</g>
<!-- Node1&#45;&gt;Node2 -->
<g id="edge1" class="edge">
<title>Node1&#45;&gt;Node2</title>
<path fill="none" stroke="#63b8ff" d="M184.67,-54.51C157.24,-45.8 115.42,-32.53 84.88,-22.84"/>
<polygon fill="#63b8ff" stroke="#63b8ff" points="86.22,-19.59 75.63,-19.9 84.1,-26.27 86.22,-19.59"/>
</g>
<!-- Node3 -->
<g id="node3" class="node">
<title>Node3</title>
<g id="a_node3"><a xlink:title=" ">
<polygon fill="#e0e0e0" stroke="#999999" points="203.5,-19 110.5,-19 110.5,0 203.5,0 203.5,-19"/>
<text text-anchor="middle" x="157" y="-7" font-family="Helvetica,sans-Serif" font-size="10.00">libxml/xmlwriter.h</text>
</a>
</g>
</g>
<!-- Node1&#45;&gt;Node3 -->
<g id="edge2" class="edge">
<title>Node1&#45;&gt;Node3</title>
<path fill="none" stroke="#63b8ff" d="M203.5,-54.51C195.57,-47 184.05,-36.1 174.46,-27.03"/>
<polygon fill="#63b8ff" stroke="#63b8ff" points="177.13,-24.73 167.46,-20.4 172.32,-29.81 177.13,-24.73"/>
</g>
<!-- Node4 -->
<g id="node4" class="node">
<title>Node4</title>
<g id="a_node4"><a xlink:title=" ">
<polygon fill="#e0e0e0" stroke="#999999" points="318,-19 222,-19 222,0 318,0 318,-19"/>
<text text-anchor="middle" x="270" y="-7" font-family="Helvetica,sans-Serif" font-size="10.00">libxml/xmlreader.h</text>
</a>
</g>
</g>
<!-- Node1&#45;&gt;Node4 -->
<g id="edge3" class="edge">
<title>Node1&#45;&gt;Node4</title>
<path fill="none" stroke="#63b8ff" d="M222.67,-54.51C230.74,-47 242.47,-36.1 252.22,-27.03"/>
<polygon fill="#63b8ff" stroke="#63b8ff" points="254.43,-29.76 259.37,-20.39 249.66,-24.63 254.43,-29.76"/>
</g>
<!-- Node5 -->
<g id="node5" class="node">
<title>Node5</title>
<g id="a_node5"><a xlink:title=" ">
<polygon fill="#e0e0e0" stroke="#999999" points="416,-19 336,-19 336,0 416,0 416,-19"/>
<text text-anchor="middle" x="376" y="-7" font-family="Helvetica,sans-Serif" font-size="10.00">libxml/parser.h</text>
</a>
</g>
</g>
<!-- Node1&#45;&gt;Node5 -->
<g id="edge4" class="edge">
<title>Node1&#45;&gt;Node5</title>
<path fill="none" stroke="#63b8ff" d="M240.65,-54.51C267.31,-45.84 307.88,-32.65 337.66,-22.97"/>
<polygon fill="#63b8ff" stroke="#63b8ff" points="338.62,-26.33 347.05,-19.91 336.45,-19.68 338.62,-26.33"/>
</g>
</g>
</svg>
