<?xml version="1.0" encoding="UTF-8" standalone="no"?>
<!DOCTYPE svg PUBLIC "-//W3C//DTD SVG 1.1//EN"
 "http://www.w3.org/Graphics/SVG/1.1/DTD/svg11.dtd">
<!-- Generated by graphviz version 2.43.0 (0)
 -->
<!-- Title: opengl/edit/cbuild_sg.c Pages: 1 -->
<svg width="1735pt" height="247pt"
 viewBox="0.00 0.00 1735.00 247.00" xmlns="http://www.w3.org/2000/svg" xmlns:xlink="http://www.w3.org/1999/xlink">
<g id="graph0" class="graph" transform="scale(1 1) rotate(0) translate(4 243)">
<title>opengl/edit/cbuild_sg.c</title>
<!-- Node1 -->
<g id="Node000001" class="node">
<title>Node1</title>
<g id="a_Node000001"><a xlink:title="Functions to read space group data from XML files.">
<polygon fill="#999999" stroke="#666666" points="870,-239 742,-239 742,-220 870,-220 870,-239"/>
<text text-anchor="middle" x="806" y="-227" font-family="Helvetica,sans-Serif" font-size="10.00">opengl/edit/cbuild_sg.c</text>
</a>
</g>
</g>
<!-- Node2 -->
<g id="Node000002" class="node">
<title>Node2</title>
<g id="a_Node000002"><a xlink:href="../../d2/d49/global_8h.html" target="_top" xlink:title="Global variable declarations &#160;&#160;Global convenience function declarations &#160;&#160;Global data structure defin...">
<polygon fill="white" stroke="#666666" points="800,-129 744,-129 744,-110 800,-110 800,-129"/>
<text text-anchor="middle" x="772" y="-117" font-family="Helvetica,sans-Serif" font-size="10.00">global.h</text>
</a>
</g>
</g>
<!-- Node1&#45;&gt;Node2 -->
<g id="edge1_Node000001_Node000002" class="edge">
<title>Node1&#45;&gt;Node2</title>
<g id="a_edge1_Node000001_Node000002"><a xlink:title=" ">
<path fill="none" stroke="#63b8ff" d="M803.22,-219.66C797.69,-202.09 785.21,-162.45 777.81,-138.95"/>
<polygon fill="#63b8ff" stroke="#63b8ff" points="781.07,-137.65 774.73,-129.16 774.39,-139.75 781.07,-137.65"/>
</a>
</g>
</g>
<!-- Node25 -->
<g id="Node000025" class="node">
<title>Node25</title>
<g id="a_Node000025"><a xlink:href="../../de/d8a/cbuild__edit_8h.html" target="_top" xlink:title="Function declarations for the crystal builder.">
<polygon fill="white" stroke="#666666" points="879.5,-184 800.5,-184 800.5,-165 879.5,-165 879.5,-184"/>
<text text-anchor="middle" x="840" y="-172" font-family="Helvetica,sans-Serif" font-size="10.00">cbuild_edit.h</text>
</a>
</g>
</g>
<!-- Node1&#45;&gt;Node25 -->
<g id="edge26_Node000001_Node000025" class="edge">
<title>Node1&#45;&gt;Node25</title>
<g id="a_edge26_Node000001_Node000025"><a xlink:title=" ">
<path fill="none" stroke="#63b8ff" d="M811.61,-219.75C816.32,-212.42 823.17,-201.73 828.97,-192.7"/>
<polygon fill="#63b8ff" stroke="#63b8ff" points="832.04,-194.4 834.49,-184.09 826.14,-190.62 832.04,-194.4"/>
</a>
</g>
</g>
<!-- Node3 -->
<g id="Node000003" class="node">
<title>Node3</title>
<g id="a_Node000003"><a xlink:title=" ">
<polygon fill="#e0e0e0" stroke="#999999" points="44,-74 0,-74 0,-55 44,-55 44,-74"/>
<text text-anchor="middle" x="22" y="-62" font-family="Helvetica,sans-Serif" font-size="10.00">glib.h</text>
</a>
</g>
</g>
<!-- Node2&#45;&gt;Node3 -->
<g id="edge2_Node000002_Node000003" class="edge">
<title>Node2&#45;&gt;Node3</title>
<g id="a_edge2_Node000002_Node000003"><a xlink:title=" ">
<path fill="none" stroke="#63b8ff" d="M743.67,-118.83C647.81,-119.51 326.84,-118.22 54.31,-73.85"/>
<polygon fill="#63b8ff" stroke="#63b8ff" points="54.67,-70.36 44.23,-72.18 53.53,-77.27 54.67,-70.36"/>
</a>
</g>
</g>
<!-- Node4 -->
<g id="Node000004" class="node">
<title>Node4</title>
<g id="a_Node000004"><a xlink:title=" ">
<polygon fill="#e0e0e0" stroke="#999999" points="136,-74 62,-74 62,-55 136,-55 136,-74"/>
<text text-anchor="middle" x="99" y="-62" font-family="Helvetica,sans-Serif" font-size="10.00">glib/gi18n.h</text>
</a>
</g>
</g>
<!-- Node2&#45;&gt;Node4 -->
<g id="edge3_Node000002_Node000004" class="edge">
<title>Node2&#45;&gt;Node4</title>
<g id="a_edge3_Node000002_Node000004"><a xlink:title=" ">
<path fill="none" stroke="#63b8ff" d="M743.77,-117.62C656.45,-114.67 382.93,-103.64 146.28,-74.01"/>
<polygon fill="#63b8ff" stroke="#63b8ff" points="146.46,-70.51 136.1,-72.72 145.58,-77.45 146.46,-70.51"/>
</a>
</g>
</g>
<!-- Node5 -->
<g id="Node000005" class="node">
<title>Node5</title>
<g id="a_Node000005"><a xlink:title=" ">
<polygon fill="#e0e0e0" stroke="#999999" points="209.5,-74 154.5,-74 154.5,-55 209.5,-55 209.5,-74"/>
<text text-anchor="middle" x="182" y="-62" font-family="Helvetica,sans-Serif" font-size="10.00">locale.h</text>
</a>
</g>
</g>
<!-- Node2&#45;&gt;Node5 -->
<g id="edge4_Node000002_Node000005" class="edge">
<title>Node2&#45;&gt;Node5</title>
<g id="a_edge4_Node000002_Node000005"><a xlink:title=" ">
<path fill="none" stroke="#63b8ff" d="M743.92,-117.68C663.69,-115.05 426.48,-105.13 219.92,-73.89"/>
<polygon fill="#63b8ff" stroke="#63b8ff" points="220.21,-70.4 209.8,-72.34 219.15,-77.32 220.21,-70.4"/>
</a>
</g>
</g>
<!-- Node6 -->
<g id="Node000006" class="node">
<title>Node6</title>
<g id="a_Node000006"><a xlink:title=" ">
<polygon fill="#e0e0e0" stroke="#999999" points="284,-74 228,-74 228,-55 284,-55 284,-74"/>
<text text-anchor="middle" x="256" y="-62" font-family="Helvetica,sans-Serif" font-size="10.00">unistd.h</text>
</a>
</g>
</g>
<!-- Node2&#45;&gt;Node6 -->
<g id="edge5_Node000002_Node000006" class="edge">
<title>Node2&#45;&gt;Node6</title>
<g id="a_edge5_Node000002_Node000006"><a xlink:title=" ">
<path fill="none" stroke="#63b8ff" d="M743.76,-117.19C670.9,-113.54 470.49,-101.73 294.18,-73.98"/>
<polygon fill="#63b8ff" stroke="#63b8ff" points="294.63,-70.51 284.21,-72.39 293.53,-77.42 294.63,-70.51"/>
</a>
</g>
</g>
<!-- Node7 -->
<g id="Node000007" class="node">
<title>Node7</title>
<g id="a_Node000007"><a xlink:title=" ">
<polygon fill="#e0e0e0" stroke="#999999" points="355.5,-74 302.5,-74 302.5,-55 355.5,-55 355.5,-74"/>
<text text-anchor="middle" x="329" y="-62" font-family="Helvetica,sans-Serif" font-size="10.00">string.h</text>
</a>
</g>
</g>
<!-- Node2&#45;&gt;Node7 -->
<g id="edge6_Node000002_Node000007" class="edge">
<title>Node2&#45;&gt;Node7</title>
<g id="a_edge6_Node000002_Node000007"><a xlink:title=" ">
<path fill="none" stroke="#63b8ff" d="M743.61,-116.28C677.72,-110.94 509.39,-96.11 370,-74 368.71,-73.79 367.39,-73.58 366.07,-73.35"/>
<polygon fill="#63b8ff" stroke="#63b8ff" points="366.31,-69.83 355.84,-71.44 365.03,-76.71 366.31,-69.83"/>
</a>
</g>
</g>
<!-- Node8 -->
<g id="Node000008" class="node">
<title>Node8</title>
<g id="a_Node000008"><a xlink:title=" ">
<polygon fill="#e0e0e0" stroke="#999999" points="621,-19 571,-19 571,0 621,0 621,-19"/>
<text text-anchor="middle" x="596" y="-7" font-family="Helvetica,sans-Serif" font-size="10.00">stdio.h</text>
</a>
</g>
</g>
<!-- Node2&#45;&gt;Node8 -->
<g id="edge7_Node000002_Node000008" class="edge">
<title>Node2&#45;&gt;Node8</title>
<g id="a_edge7_Node000002_Node000008"><a xlink:title=" ">
<path fill="none" stroke="#63b8ff" d="M743.9,-117.22C661.61,-113.18 425.58,-99.47 403,-74 357.35,-22.52 493.32,-12.62 560.64,-10.83"/>
<polygon fill="#63b8ff" stroke="#63b8ff" points="560.9,-14.32 570.82,-10.61 560.74,-7.33 560.9,-14.32"/>
</a>
</g>
</g>
<!-- Node9 -->
<g id="Node000009" class="node">
<title>Node9</title>
<g id="a_Node000009"><a xlink:title=" ">
<polygon fill="#e0e0e0" stroke="#999999" points="465.5,-74 412.5,-74 412.5,-55 465.5,-55 465.5,-74"/>
<text text-anchor="middle" x="439" y="-62" font-family="Helvetica,sans-Serif" font-size="10.00">stdlib.h</text>
</a>
</g>
</g>
<!-- Node2&#45;&gt;Node9 -->
<g id="edge8_Node000002_Node000009" class="edge">
<title>Node2&#45;&gt;Node9</title>
<g id="a_edge8_Node000002_Node000009"><a xlink:title=" ">
<path fill="none" stroke="#63b8ff" d="M743.61,-115.05C692.25,-108.62 580.33,-93.85 475.78,-74"/>
<polygon fill="#63b8ff" stroke="#63b8ff" points="476.16,-70.51 465.68,-72.06 474.84,-77.38 476.16,-70.51"/>
</a>
</g>
</g>
<!-- Node10 -->
<g id="Node000010" class="node">
<title>Node10</title>
<g id="a_Node000010"><a xlink:title=" ">
<polygon fill="#e0e0e0" stroke="#999999" points="556,-74 484,-74 484,-55 556,-55 556,-74"/>
<text text-anchor="middle" x="520" y="-62" font-family="Helvetica,sans-Serif" font-size="10.00">sys/types.h</text>
</a>
</g>
</g>
<!-- Node2&#45;&gt;Node10 -->
<g id="edge9_Node000002_Node000010" class="edge">
<title>Node2&#45;&gt;Node10</title>
<g id="a_edge9_Node000002_Node000010"><a xlink:title=" ">
<path fill="none" stroke="#63b8ff" d="M743.58,-112.52C700.38,-103.44 617.74,-86.06 565.94,-75.16"/>
<polygon fill="#63b8ff" stroke="#63b8ff" points="566.51,-71.71 556.01,-73.07 565.07,-78.56 566.51,-71.71"/>
</a>
</g>
</g>
<!-- Node11 -->
<g id="Node000011" class="node">
<title>Node11</title>
<g id="a_Node000011"><a xlink:title=" ">
<polygon fill="#e0e0e0" stroke="#999999" points="638,-74 574,-74 574,-55 638,-55 638,-74"/>
<text text-anchor="middle" x="606" y="-62" font-family="Helvetica,sans-Serif" font-size="10.00">sys/stat.h</text>
</a>
</g>
</g>
<!-- Node2&#45;&gt;Node11 -->
<g id="edge10_Node000002_Node000011" class="edge">
<title>Node2&#45;&gt;Node11</title>
<g id="a_edge10_Node000002_Node000011"><a xlink:title=" ">
<path fill="none" stroke="#63b8ff" d="M745.33,-109.98C717.46,-101.09 673.55,-87.07 642.48,-77.15"/>
<polygon fill="#63b8ff" stroke="#63b8ff" points="643.47,-73.79 632.88,-74.08 641.34,-80.46 643.47,-73.79"/>
</a>
</g>
</g>
<!-- Node12 -->
<g id="Node000012" class="node">
<title>Node12</title>
<g id="a_Node000012"><a xlink:title=" ">
<polygon fill="#e0e0e0" stroke="#999999" points="808.5,-19 757.5,-19 757.5,0 808.5,0 808.5,-19"/>
<text text-anchor="middle" x="783" y="-7" font-family="Helvetica,sans-Serif" font-size="10.00">math.h</text>
</a>
</g>
</g>
<!-- Node2&#45;&gt;Node12 -->
<g id="edge11_Node000002_Node000012" class="edge">
<title>Node2&#45;&gt;Node12</title>
<g id="a_edge11_Node000002_Node000012"><a xlink:title=" ">
<path fill="none" stroke="#63b8ff" d="M800.12,-111.65C803.44,-111.01 806.78,-110.44 810,-110 850.46,-104.52 1515.85,-103.57 1544,-74 1549.82,-67.88 1549.79,-61.14 1544,-55 1518.83,-28.32 966.51,-14.48 818.96,-11.25"/>
<polygon fill="#63b8ff" stroke="#63b8ff" points="818.74,-7.74 808.66,-11.02 818.58,-14.74 818.74,-7.74"/>
</a>
</g>
</g>
<!-- Node13 -->
<g id="Node000013" class="node">
<title>Node13</title>
<g id="a_Node000013"><a xlink:title=" ">
<polygon fill="#e0e0e0" stroke="#999999" points="802,-74 742,-74 742,-55 802,-55 802,-74"/>
<text text-anchor="middle" x="772" y="-62" font-family="Helvetica,sans-Serif" font-size="10.00">gtk/gtk.h</text>
</a>
</g>
</g>
<!-- Node2&#45;&gt;Node13 -->
<g id="edge12_Node000002_Node000013" class="edge">
<title>Node2&#45;&gt;Node13</title>
<g id="a_edge12_Node000002_Node000013"><a xlink:title=" ">
<path fill="none" stroke="#63b8ff" d="M772,-109.75C772,-102.8 772,-92.85 772,-84.13"/>
<polygon fill="#63b8ff" stroke="#63b8ff" points="775.5,-84.09 772,-74.09 768.5,-84.09 775.5,-84.09"/>
</a>
</g>
</g>
<!-- Node14 -->
<g id="Node000014" class="node">
<title>Node14</title>
<g id="a_Node000014"><a xlink:title=" ">
<polygon fill="#e0e0e0" stroke="#999999" points="885.5,-74 820.5,-74 820.5,-55 885.5,-55 885.5,-74"/>
<text text-anchor="middle" x="853" y="-62" font-family="Helvetica,sans-Serif" font-size="10.00">gdk/gdk.h</text>
</a>
</g>
</g>
<!-- Node2&#45;&gt;Node14 -->
<g id="edge13_Node000002_Node000014" class="edge">
<title>Node2&#45;&gt;Node14</title>
<g id="a_edge13_Node000002_Node000014"><a xlink:title=" ">
<path fill="none" stroke="#63b8ff" d="M785.01,-109.98C797.46,-101.84 816.46,-89.41 831.21,-79.76"/>
<polygon fill="#63b8ff" stroke="#63b8ff" points="833.3,-82.57 839.75,-74.17 829.46,-76.72 833.3,-82.57"/>
</a>
</g>
</g>
<!-- Node15 -->
<g id="Node000015" class="node">
<title>Node15</title>
<g id="a_Node000015"><a xlink:title=" ">
<polygon fill="#e0e0e0" stroke="#999999" points="1012,-74 904,-74 904,-55 1012,-55 1012,-74"/>
<text text-anchor="middle" x="958" y="-62" font-family="Helvetica,sans-Serif" font-size="10.00">gdk/gdkkeysyms.h</text>
</a>
</g>
</g>
<!-- Node2&#45;&gt;Node15 -->
<g id="edge14_Node000002_Node000015" class="edge">
<title>Node2&#45;&gt;Node15</title>
<g id="a_edge14_Node000002_Node000015"><a xlink:title=" ">
<path fill="none" stroke="#63b8ff" d="M800.25,-110.45C831.61,-101.52 882.46,-87.03 917.92,-76.92"/>
<polygon fill="#63b8ff" stroke="#63b8ff" points="919.28,-80.17 927.94,-74.07 917.36,-73.44 919.28,-80.17"/>
</a>
</g>
</g>
<!-- Node16 -->
<g id="Node000016" class="node">
<title>Node16</title>
<g id="a_Node000016"><a xlink:title=" ">
<polygon fill="#e0e0e0" stroke="#999999" points="1163.5,-74 1030.5,-74 1030.5,-55 1163.5,-55 1163.5,-74"/>
<text text-anchor="middle" x="1097" y="-62" font-family="Helvetica,sans-Serif" font-size="10.00">gdk&#45;pixbuf/gdk&#45;pixbuf.h</text>
</a>
</g>
</g>
<!-- Node2&#45;&gt;Node16 -->
<g id="edge15_Node000002_Node000016" class="edge">
<title>Node2&#45;&gt;Node16</title>
<g id="a_edge15_Node000002_Node000016"><a xlink:title=" ">
<path fill="none" stroke="#63b8ff" d="M800.18,-111.98C803.48,-111.28 806.81,-110.6 810,-110 882.44,-96.3 965.76,-83.73 1023.9,-75.47"/>
<polygon fill="#63b8ff" stroke="#63b8ff" points="1024.68,-78.9 1034.09,-74.03 1023.7,-71.97 1024.68,-78.9"/>
</a>
</g>
</g>
<!-- Node17 -->
<g id="Node000017" class="node">
<title>Node17</title>
<g id="a_Node000017"><a xlink:title=" ">
<polygon fill="#e0e0e0" stroke="#999999" points="1282.5,-74 1181.5,-74 1181.5,-55 1282.5,-55 1282.5,-74"/>
<text text-anchor="middle" x="1232" y="-62" font-family="Helvetica,sans-Serif" font-size="10.00">pango/pangoft2.h</text>
</a>
</g>
</g>
<!-- Node2&#45;&gt;Node17 -->
<g id="edge16_Node000002_Node000017" class="edge">
<title>Node2&#45;&gt;Node17</title>
<g id="a_edge16_Node000002_Node000017"><a xlink:title=" ">
<path fill="none" stroke="#63b8ff" d="M800.15,-111.8C803.46,-111.14 806.8,-110.52 810,-110 966.79,-84.79 1010.29,-93.2 1171.22,-74.16"/>
<polygon fill="#63b8ff" stroke="#63b8ff" points="1171.98,-77.59 1181.49,-72.93 1171.14,-70.64 1171.98,-77.59"/>
</a>
</g>
</g>
<!-- Node18 -->
<g id="Node000018" class="node">
<title>Node18</title>
<g id="a_Node000018"><a xlink:title=" ">
<polygon fill="#e0e0e0" stroke="#999999" points="1369,-74 1301,-74 1301,-55 1369,-55 1369,-74"/>
<text text-anchor="middle" x="1335" y="-62" font-family="Helvetica,sans-Serif" font-size="10.00">epoxy/gl.h</text>
</a>
</g>
</g>
<!-- Node2&#45;&gt;Node18 -->
<g id="edge17_Node000002_Node000018" class="edge">
<title>Node2&#45;&gt;Node18</title>
<g id="a_edge17_Node000002_Node000018"><a xlink:title=" ">
<path fill="none" stroke="#63b8ff" d="M800.14,-111.73C803.45,-111.07 806.79,-110.48 810,-110 1019.28,-78.95 1077.38,-102.16 1290.84,-73.98"/>
<polygon fill="#63b8ff" stroke="#63b8ff" points="1291.35,-77.45 1300.79,-72.65 1290.42,-70.51 1291.35,-77.45"/>
</a>
</g>
</g>
<!-- Node19 -->
<g id="Node000019" class="node">
<title>Node19</title>
<g id="a_Node000019"><a xlink:title=" ">
<polygon fill="#e0e0e0" stroke="#999999" points="1443,-74 1387,-74 1387,-55 1443,-55 1443,-74"/>
<text text-anchor="middle" x="1415" y="-62" font-family="Helvetica,sans-Serif" font-size="10.00">GL/glu.h</text>
</a>
</g>
</g>
<!-- Node2&#45;&gt;Node19 -->
<g id="edge18_Node000002_Node000019" class="edge">
<title>Node2&#45;&gt;Node19</title>
<g id="a_edge18_Node000002_Node000019"><a xlink:title=" ">
<path fill="none" stroke="#63b8ff" d="M800.13,-111.69C803.44,-111.04 806.79,-110.46 810,-110 1057.12,-74.75 1125.88,-109.5 1376.66,-73.94"/>
<polygon fill="#63b8ff" stroke="#63b8ff" points="1377.41,-77.36 1386.81,-72.47 1376.41,-70.44 1377.41,-77.36"/>
</a>
</g>
</g>
<!-- Node20 -->
<g id="Node000020" class="node">
<title>Node20</title>
<g id="a_Node000020"><a xlink:title=" ">
<polygon fill="#e0e0e0" stroke="#999999" points="1535,-74 1461,-74 1461,-55 1535,-55 1535,-74"/>
<text text-anchor="middle" x="1498" y="-62" font-family="Helvetica,sans-Serif" font-size="10.00">epoxy/glx.h</text>
</a>
</g>
</g>
<!-- Node2&#45;&gt;Node20 -->
<g id="edge19_Node000002_Node000020" class="edge">
<title>Node2&#45;&gt;Node20</title>
<g id="a_edge19_Node000002_Node000020"><a xlink:title=" ">
<path fill="none" stroke="#63b8ff" d="M800.13,-111.67C803.44,-111.02 806.79,-110.45 810,-110 1089.75,-71.14 1166.46,-107.17 1450.71,-73.98"/>
<polygon fill="#63b8ff" stroke="#63b8ff" points="1451.39,-77.43 1460.9,-72.77 1450.56,-70.47 1451.39,-77.43"/>
</a>
</g>
</g>
<!-- Node21 -->
<g id="Node000021" class="node">
<title>Node21</title>
<g id="a_Node000021"><a xlink:href="../../dc/db0/math__3d_8h.html" target="_top" xlink:title="Functions for OpenGL math.">
<polygon fill="white" stroke="#666666" points="724,-74 656,-74 656,-55 724,-55 724,-74"/>
<text text-anchor="middle" x="690" y="-62" font-family="Helvetica,sans-Serif" font-size="10.00">math_3d.h</text>
</a>
</g>
</g>
<!-- Node2&#45;&gt;Node21 -->
<g id="edge20_Node000002_Node000021" class="edge">
<title>Node2&#45;&gt;Node21</title>
<g id="a_edge20_Node000002_Node000021"><a xlink:title=" ">
<path fill="none" stroke="#63b8ff" d="M758.83,-109.98C746.23,-101.84 727,-89.41 712.06,-79.76"/>
<polygon fill="#63b8ff" stroke="#63b8ff" points="713.71,-76.66 703.41,-74.17 709.91,-82.54 713.71,-76.66"/>
</a>
</g>
</g>
<!-- Node22 -->
<g id="Node000022" class="node">
<title>Node22</title>
<g id="a_Node000022"><a xlink:href="../../da/d7e/glwin_8h.html" target="_top" xlink:title="Variable declarations related the OpenGL window &#160;&#160;Data structure declarations related the OpenGL wind...">
<polygon fill="white" stroke="#666666" points="1643,-74 1591,-74 1591,-55 1643,-55 1643,-74"/>
<text text-anchor="middle" x="1617" y="-62" font-family="Helvetica,sans-Serif" font-size="10.00">glwin.h</text>
</a>
</g>
</g>
<!-- Node2&#45;&gt;Node22 -->
<g id="edge23_Node000002_Node000022" class="edge">
<title>Node2&#45;&gt;Node22</title>
<g id="a_edge23_Node000002_Node000022"><a xlink:title=" ">
<path fill="none" stroke="#63b8ff" d="M800.12,-111.64C803.44,-111 806.78,-110.43 810,-110 1148.23,-64.58 1238.53,-117.61 1577,-74 1578.27,-73.84 1579.55,-73.65 1580.85,-73.46"/>
<polygon fill="#63b8ff" stroke="#63b8ff" points="1581.61,-76.88 1590.85,-71.69 1580.4,-69.98 1581.61,-76.88"/>
</a>
</g>
</g>
<!-- Node24 -->
<g id="Node000024" class="node">
<title>Node24</title>
<g id="a_Node000024"><a xlink:title=" ">
<polygon fill="#e0e0e0" stroke="#999999" points="1727,-74 1661,-74 1661,-55 1727,-55 1727,-74"/>
<text text-anchor="middle" x="1694" y="-62" font-family="Helvetica,sans-Serif" font-size="10.00">gtk/gtkx.h</text>
</a>
</g>
</g>
<!-- Node2&#45;&gt;Node24 -->
<g id="edge25_Node000002_Node000024" class="edge">
<title>Node2&#45;&gt;Node24</title>
<g id="a_edge25_Node000002_Node000024"><a xlink:title=" ">
<path fill="none" stroke="#63b8ff" d="M800.12,-111.63C803.44,-110.99 806.78,-110.43 810,-110 1178.07,-61.36 1278.43,-118.27 1650.64,-73.95"/>
<polygon fill="#63b8ff" stroke="#63b8ff" points="1651.1,-77.42 1660.61,-72.75 1650.26,-70.47 1651.1,-77.42"/>
</a>
</g>
</g>
<!-- Node21&#45;&gt;Node8 -->
<g id="edge22_Node000021_Node000008" class="edge">
<title>Node21&#45;&gt;Node8</title>
<g id="a_edge22_Node000021_Node000008"><a xlink:title=" ">
<path fill="none" stroke="#63b8ff" d="M674.9,-54.98C660.18,-46.69 637.58,-33.94 620.33,-24.22"/>
<polygon fill="#63b8ff" stroke="#63b8ff" points="621.81,-21.03 611.38,-19.17 618.37,-27.13 621.81,-21.03"/>
</a>
</g>
</g>
<!-- Node21&#45;&gt;Node12 -->
<g id="edge21_Node000021_Node000012" class="edge">
<title>Node21&#45;&gt;Node12</title>
<g id="a_edge21_Node000021_Node000012"><a xlink:title=" ">
<path fill="none" stroke="#63b8ff" d="M704.94,-54.98C719.5,-46.69 741.87,-33.94 758.93,-24.22"/>
<polygon fill="#63b8ff" stroke="#63b8ff" points="760.83,-27.16 767.79,-19.17 757.36,-21.08 760.83,-27.16"/>
</a>
</g>
</g>
<!-- Node23 -->
<g id="Node000023" class="node">
<title>Node23</title>
<g id="a_Node000023"><a xlink:href="../../d5/d9e/ogl__shading_8h.html" target="_top" xlink:title="Variable declarations related to GLSL programs &#160;&#160;Data structure declarations related to GLSL programs...">
<polygon fill="white" stroke="#666666" points="1659,-19 1575,-19 1575,0 1659,0 1659,-19"/>
<text text-anchor="middle" x="1617" y="-7" font-family="Helvetica,sans-Serif" font-size="10.00">ogl_shading.h</text>
</a>
</g>
</g>
<!-- Node22&#45;&gt;Node23 -->
<g id="edge24_Node000022_Node000023" class="edge">
<title>Node22&#45;&gt;Node23</title>
<g id="a_edge24_Node000022_Node000023"><a xlink:title=" ">
<path fill="none" stroke="#63b8ff" d="M1617,-54.75C1617,-47.8 1617,-37.85 1617,-29.13"/>
<polygon fill="#63b8ff" stroke="#63b8ff" points="1620.5,-29.09 1617,-19.09 1613.5,-29.09 1620.5,-29.09"/>
</a>
</g>
</g>
<!-- Node25&#45;&gt;Node2 -->
<g id="edge27_Node000025_Node000002" class="edge">
<title>Node25&#45;&gt;Node2</title>
<g id="a_edge27_Node000025_Node000002"><a xlink:title=" ">
<path fill="none" stroke="#63b8ff" d="M829.07,-164.98C818.92,-157.07 803.58,-145.11 791.35,-135.58"/>
<polygon fill="#63b8ff" stroke="#63b8ff" points="793.16,-132.56 783.12,-129.17 788.86,-138.08 793.16,-132.56"/>
</a>
</g>
</g>
<!-- Node26 -->
<g id="Node000026" class="node">
<title>Node26</title>
<g id="a_Node000026"><a xlink:title=" ">
<polygon fill="#e0e0e0" stroke="#999999" points="927.5,-129 818.5,-129 818.5,-110 927.5,-110 927.5,-129"/>
<text text-anchor="middle" x="873" y="-117" font-family="Helvetica,sans-Serif" font-size="10.00">libxml/xmlreader.h</text>
</a>
</g>
</g>
<!-- Node25&#45;&gt;Node26 -->
<g id="edge28_Node000025_Node000026" class="edge">
<title>Node25&#45;&gt;Node26</title>
<g id="a_edge28_Node000025_Node000026"><a xlink:title=" ">
<path fill="none" stroke="#63b8ff" d="M845.45,-164.75C850.01,-157.42 856.67,-146.73 862.29,-137.7"/>
<polygon fill="#63b8ff" stroke="#63b8ff" points="865.34,-139.43 867.65,-129.09 859.4,-135.73 865.34,-139.43"/>
</a>
</g>
</g>
</g>
</svg>
