<?xml version="1.0" encoding="UTF-8" standalone="no"?>
<!DOCTYPE svg PUBLIC "-//W3C//DTD SVG 1.1//EN"
 "http://www.w3.org/Graphics/SVG/1.1/DTD/svg11.dtd">
<!-- Generated by graphviz version 7.1.0 (0)
 -->
<!-- Title: field_struct Pages: 1 -->
<svg width="113pt" height="110pt"
 viewBox="0.00 0.00 113.00 110.00" xmlns="http://www.w3.org/2000/svg" xmlns:xlink="http://www.w3.org/1999/xlink">
<g id="graph0" class="graph" transform="scale(1 1) rotate(0) translate(4 106)">
<title>field_struct</title>
<!-- Node1 -->
<g id="node1" class="node">
<title>Node1</title>
<g id="a_node1"><a xlink:title=" ">
<polygon fill="#999999" stroke="#666666" points="65,-20.5 0,-20.5 0,-1.5 65,-1.5 65,-20.5"/>
<text text-anchor="middle" x="32.5" y="-8.5" font-family="Helvetica,sans-Serif" font-size="10.00">field_struct</text>
</a>
</g>
</g>
<!-- Node1&#45;&gt;Node1 -->
<g id="edge3" class="edge">
<title>Node1&#45;&gt;Node1</title>
<path fill="none" stroke="#9a32cd" stroke-dasharray="5,2" d="M76.19,-17.05C80.36,-15.82 83,-13.8 83,-11 83,-6.16 75.1,-3.66 65.04,-3.51"/>
<polygon fill="#9a32cd" stroke="#9a32cd" points="76.01,-13.54 66.54,-18.3 76.91,-20.48 76.01,-13.54"/>
<text text-anchor="middle" x="94" y="-14" font-family="Helvetica,sans-Serif" font-size="10.00"> next</text>
<text text-anchor="middle" x="94" y="-3" font-family="Helvetica,sans-Serif" font-size="10.00">prev</text>
</g>
<!-- Node2 -->
<g id="node2" class="node">
<title>Node2</title>
<g id="a_node2"><a xlink:href="../../d0/d48/structfield__prop.html" target="_top" xlink:title=" ">
<polygon fill="white" stroke="#666666" points="62,-100.5 3,-100.5 3,-81.5 62,-81.5 62,-100.5"/>
<text text-anchor="middle" x="32.5" y="-88.5" font-family="Helvetica,sans-Serif" font-size="10.00">field_prop</text>
</a>
</g>
</g>
<!-- Node2&#45;&gt;Node1 -->
<g id="edge1" class="edge">
<title>Node2&#45;&gt;Node1</title>
<path fill="none" stroke="#9a32cd" stroke-dasharray="5,2" d="M32.5,-69.79C32.5,-53.95 32.5,-32.66 32.5,-20.84"/>
<polygon fill="#9a32cd" stroke="#9a32cd" points="29,-69.54 32.5,-79.54 36,-69.54 29,-69.54"/>
<text text-anchor="middle" x="43.5" y="-54" font-family="Helvetica,sans-Serif" font-size="10.00"> def</text>
<text text-anchor="middle" x="43.5" y="-43" font-family="Helvetica,sans-Serif" font-size="10.00">other</text>
</g>
<!-- Node2&#45;&gt;Node2 -->
<g id="edge2" class="edge">
<title>Node2&#45;&gt;Node2</title>
<path fill="none" stroke="#9a32cd" stroke-dasharray="5,2" d="M73.54,-97.06C77.5,-95.83 80,-93.81 80,-91 80,-86 72.08,-83.5 62.19,-83.5"/>
<polygon fill="#9a32cd" stroke="#9a32cd" points="73.17,-93.58 63.69,-98.31 74.05,-100.53 73.17,-93.58"/>
<text text-anchor="middle" x="91" y="-94" font-family="Helvetica,sans-Serif" font-size="10.00"> next</text>
<text text-anchor="middle" x="91" y="-83" font-family="Helvetica,sans-Serif" font-size="10.00">prev</text>
</g>
</g>
</svg>
