<?xml version="1.0" encoding="UTF-8" standalone="no"?>
<!DOCTYPE svg PUBLIC "-//W3C//DTD SVG 1.1//EN"
 "http://www.w3.org/Graphics/SVG/1.1/DTD/svg11.dtd">
<!-- Generated by graphviz version 2.43.0 (0)
 -->
<!-- Title: field_struct Pages: 1 -->
<svg width="122pt" height="110pt"
 viewBox="0.00 0.00 122.00 110.00" xmlns="http://www.w3.org/2000/svg" xmlns:xlink="http://www.w3.org/1999/xlink">
<g id="graph0" class="graph" transform="scale(1 1) rotate(0) translate(4 106)">
<title>field_struct</title>
<!-- Node1 -->
<g id="Node000001" class="node">
<title>Node1</title>
<g id="a_Node000001"><a xlink:title=" ">
<polygon fill="#999999" stroke="#666666" points="71,-20.5 0,-20.5 0,-1.5 71,-1.5 71,-20.5"/>
<text text-anchor="middle" x="35.5" y="-8.5" font-family="Helvetica,sans-Serif" font-size="10.00">field_struct</text>
</a>
</g>
</g>
<!-- Node1&#45;&gt;Node1 -->
<g id="edge3_Node000001_Node000001" class="edge">
<title>Node1&#45;&gt;Node1</title>
<g id="a_edge3_Node000001_Node000001"><a xlink:title=" ">
<path fill="none" stroke="#9a32cd" stroke-dasharray="5,2" d="M81.28,-17.18C85.99,-15.97 89,-13.91 89,-11 89,-6.35 81.29,-3.86 71.25,-3.54"/>
<polygon fill="#9a32cd" stroke="#9a32cd" points="80.73,-13.73 71.25,-18.46 81.62,-20.67 80.73,-13.73"/>
</a>
</g>
<text text-anchor="middle" x="101.5" y="-14" font-family="Helvetica,sans-Serif" font-size="10.00" fill="grey"> next</text>
<text text-anchor="middle" x="101.5" y="-3" font-family="Helvetica,sans-Serif" font-size="10.00" fill="grey">prev</text>
</g>
<!-- Node2 -->
<g id="Node000002" class="node">
<title>Node2</title>
<g id="a_Node000002"><a xlink:href="../../d0/d48/structfield__prop.html" target="_top" xlink:title=" ">
<polygon fill="white" stroke="#666666" points="68,-100.5 3,-100.5 3,-81.5 68,-81.5 68,-100.5"/>
<text text-anchor="middle" x="35.5" y="-88.5" font-family="Helvetica,sans-Serif" font-size="10.00">field_prop</text>
</a>
</g>
</g>
<!-- Node2&#45;&gt;Node1 -->
<g id="edge1_Node000001_Node000002" class="edge">
<title>Node2&#45;&gt;Node1</title>
<g id="a_edge1_Node000001_Node000002"><a xlink:title=" ">
<path fill="none" stroke="#9a32cd" stroke-dasharray="5,2" d="M35.5,-71.07C35.5,-55.14 35.5,-33.08 35.5,-20.92"/>
<polygon fill="#9a32cd" stroke="#9a32cd" points="32,-71.35 35.5,-81.35 39,-71.35 32,-71.35"/>
</a>
</g>
<text text-anchor="middle" x="48.5" y="-54" font-family="Helvetica,sans-Serif" font-size="10.00" fill="grey"> def</text>
<text text-anchor="middle" x="48.5" y="-43" font-family="Helvetica,sans-Serif" font-size="10.00" fill="grey">other</text>
</g>
<!-- Node2&#45;&gt;Node2 -->
<g id="edge2_Node000002_Node000002" class="edge">
<title>Node2&#45;&gt;Node2</title>
<g id="a_edge2_Node000002_Node000002"><a xlink:title=" ">
<path fill="none" stroke="#9a32cd" stroke-dasharray="5,2" d="M78.14,-97.33C82.91,-96.14 86,-94.03 86,-91 86,-86.16 78.1,-83.66 68.04,-83.51"/>
<polygon fill="#9a32cd" stroke="#9a32cd" points="77.58,-93.87 68.04,-98.49 78.38,-100.83 77.58,-93.87"/>
</a>
</g>
<text text-anchor="middle" x="98.5" y="-94" font-family="Helvetica,sans-Serif" font-size="10.00" fill="grey"> next</text>
<text text-anchor="middle" x="98.5" y="-83" font-family="Helvetica,sans-Serif" font-size="10.00" fill="grey">prev</text>
</g>
</g>
</svg>
