<?xml version="1.0" encoding="UTF-8" standalone="no"?>
<!DOCTYPE svg PUBLIC "-//W3C//DTD SVG 1.1//EN"
 "http://www.w3.org/Graphics/SVG/1.1/DTD/svg11.dtd">
<!-- Generated by graphviz version 2.43.0 (0)
 -->
<!-- Title: /home/slookeur/files/codeblocks&#45;files/atomes/src/curve/curve.h Pages: 1 -->
<!--zoomable 126 -->

<svg id="main" version="1.1" xmlns="http://www.w3.org/2000/svg" xmlns:xlink="http://www.w3.org/1999/xlink" xml:space="preserve" onload="init(evt)">
<style type="text/css"><![CDATA[
.node, .edge {opacity: 0.7;}
.node.selected, .edge.selected {opacity: 1;}
.edge:hover path { stroke: red; }
.edge:hover polygon { stroke: red; fill: red; }
]]></style>

<defs>
  <circle id="rim" cx="0" cy="0" r="7"/>
  <circle id="rim2" cx="0" cy="0" r="3.5"/>
  <g id="zoomPlus">
    <use xlink:href="#rim" fill="#404040"><set attributeName="fill" to="#808080" begin="zoomplus.mouseover" end="zoomplus.mouseout"/></use>
    <path d="M-4,0h8M0,-4v8" fill="none" stroke="white" stroke-width="1.5" pointer-events="none"/>
  </g>
  <g id="zoomMin">
    <use xlink:href="#rim" fill="#404040"><set attributeName="fill" to="#808080" begin="zoomminus.mouseover" end="zoomminus.mouseout"/></use>
    <path d="M-4,0h8" fill="none" stroke="white" stroke-width="1.5" pointer-events="none"/>
  </g>
  <g id="arrowUp" transform="translate(30 24)">
    <use xlink:href="#rim"/>
    <path pointer-events="none" fill="none" stroke="white" stroke-width="1.5" d="M0,-3.0v7 M-2.5,-0.5L0,-3.0L2.5,-0.5"/>
  </g>
  <g id="arrowRight" transform="rotate(90) translate(36 -43)">
    <use xlink:href="#rim"/>
    <path pointer-events="none" fill="none" stroke="white" stroke-width="1.5" d="M0,-3.0v7 M-2.5,-0.5L0,-3.0L2.5,-0.5"/>
  </g>
  <g id="arrowDown" transform="rotate(180) translate(-30 -48)">
    <use xlink:href="#rim"/>
    <path pointer-events="none" fill="none" stroke="white" stroke-width="1.5" d="M0,-3.0v7 M-2.5,-0.5L0,-3.0L2.5,-0.5"/>
  </g>
  <g id="arrowLeft" transform="rotate(270) translate(-36 17)">
    <use xlink:href="#rim"/>
    <path pointer-events="none" fill="none" stroke="white" stroke-width="1.5" d="M0,-3.0v7 M-2.5,-0.5L0,-3.0L2.5,-0.5"/>
  </g>
  <g id="resetDef">
    <use xlink:href="#rim2" fill="#404040"><set attributeName="fill" to="#808080" begin="reset.mouseover" end="reset.mouseout"/></use>
  </g>
</defs>
<script type="application/ecmascript">
var viewWidth = 5164;
var viewHeight = 126;
var sectionId = 'dynsection-1';
</script>
<script type="application/ecmascript" xlink:href="../../svg.min.js"/>
<svg id="graph" class="graph">
<g id="viewport">
<title>/home/slookeur/files/codeblocks&#45;files/atomes/src/curve/curve.h</title>
<!-- Node1 -->
<g id="Node000001" class="node">
<title>Node1</title>
<g id="a_Node000001"><a xlink:title="Variable declarations for the curve widget &#160;&#160;Functions for interactions with the curve widget.">
<polygon fill="#999999" stroke="#666666" points="2634,-118 2496,-118 2496,-77 2634,-77 2634,-118"/>
<text text-anchor="start" x="2504" y="-106" font-family="Helvetica,sans-Serif" font-size="10.00">/home/slookeur/files</text>
<text text-anchor="start" x="2504" y="-95" font-family="Helvetica,sans-Serif" font-size="10.00">/codeblocks&#45;files/atomes</text>
<text text-anchor="middle" x="2565" y="-84" font-family="Helvetica,sans-Serif" font-size="10.00">/src/curve/curve.h</text>
</a>
</g>
</g>
<!-- Node2 -->
<g id="Node000002" class="node">
<title>Node2</title>
<g id="a_Node000002"><a xlink:href="../../d3/d0c/cedit_8c.html" target="_top" xlink:title="Initialization of the curve layout edition dialog.">
<polygon fill="white" stroke="#666666" points="138,-41 0,-41 0,0 138,0 138,-41"/>
<text text-anchor="start" x="8" y="-29" font-family="Helvetica,sans-Serif" font-size="10.00">/home/slookeur/files</text>
<text text-anchor="start" x="8" y="-18" font-family="Helvetica,sans-Serif" font-size="10.00">/codeblocks&#45;files/atomes</text>
<text text-anchor="middle" x="69" y="-7" font-family="Helvetica,sans-Serif" font-size="10.00">/src/curve/cedit.c</text>
</a>
</g>
</g>
<!-- Node1&#45;&gt;Node2 -->
<g id="edge1_Node000001_Node000002" class="edge">
<title>Node1&#45;&gt;Node2</title>
<g id="a_edge1_Node000001_Node000002"><a xlink:title=" ">
<path fill="none" stroke="#63b8ff" d="M2485.74,-95.73C2094.95,-91.77 382.7,-72.76 147,-41 144.09,-40.61 141.14,-40.15 138.17,-39.64"/>
<polygon fill="#63b8ff" stroke="#63b8ff" points="2485.79,-99.23 2495.82,-95.83 2485.86,-92.23 2485.79,-99.23"/>
</a>
</g>
</g>
<!-- Node3 -->
<g id="Node000003" class="node">
<title>Node3</title>
<g id="a_Node000003"><a xlink:href="../../dc/d22/curve_8c.html" target="_top" xlink:title="Functions to manage curves.">
<polygon fill="white" stroke="#666666" points="294,-41 156,-41 156,0 294,0 294,-41"/>
<text text-anchor="start" x="164" y="-29" font-family="Helvetica,sans-Serif" font-size="10.00">/home/slookeur/files</text>
<text text-anchor="start" x="164" y="-18" font-family="Helvetica,sans-Serif" font-size="10.00">/codeblocks&#45;files/atomes</text>
<text text-anchor="middle" x="225" y="-7" font-family="Helvetica,sans-Serif" font-size="10.00">/src/curve/curve.c</text>
</a>
</g>
</g>
<!-- Node1&#45;&gt;Node3 -->
<g id="edge2_Node000001_Node000003" class="edge">
<title>Node1&#45;&gt;Node3</title>
<g id="a_edge2_Node000001_Node000003"><a xlink:title=" ">
<path fill="none" stroke="#63b8ff" d="M2485.84,-96.9C2137.36,-98.28 737.97,-99.97 303,-41 300.1,-40.61 297.14,-40.15 294.17,-39.63"/>
<polygon fill="#63b8ff" stroke="#63b8ff" points="2485.86,-100.4 2495.84,-96.85 2485.83,-93.4 2485.86,-100.4"/>
</a>
</g>
</g>
<!-- Node4 -->
<g id="Node000004" class="node">
<title>Node4</title>
<g id="a_Node000004"><a xlink:href="../../d4/d80/cwidget_8c.html" target="_top" xlink:title="Initialization of the curve widget.">
<polygon fill="white" stroke="#666666" points="450,-41 312,-41 312,0 450,0 450,-41"/>
<text text-anchor="start" x="320" y="-29" font-family="Helvetica,sans-Serif" font-size="10.00">/home/slookeur/files</text>
<text text-anchor="start" x="320" y="-18" font-family="Helvetica,sans-Serif" font-size="10.00">/codeblocks&#45;files/atomes</text>
<text text-anchor="middle" x="381" y="-7" font-family="Helvetica,sans-Serif" font-size="10.00">/src/curve/cwidget.c</text>
</a>
</g>
</g>
<!-- Node1&#45;&gt;Node4 -->
<g id="edge3_Node000001_Node000004" class="edge">
<title>Node1&#45;&gt;Node4</title>
<g id="a_edge3_Node000001_Node000004"><a xlink:title=" ">
<path fill="none" stroke="#63b8ff" d="M2485.88,-96.73C2152.61,-97.33 861.73,-95.97 459,-41 456.1,-40.6 453.14,-40.14 450.17,-39.63"/>
<polygon fill="#63b8ff" stroke="#63b8ff" points="2485.94,-100.23 2495.93,-96.71 2485.92,-93.23 2485.94,-100.23"/>
</a>
</g>
</g>
<!-- Node5 -->
<g id="Node000005" class="node">
<title>Node5</title>
<g id="a_Node000005"><a xlink:href="../../da/dae/datab_8c.html" target="_top" xlink:title="Curve data edition window and associated callbacks.">
<polygon fill="white" stroke="#666666" points="606,-41 468,-41 468,0 606,0 606,-41"/>
<text text-anchor="start" x="476" y="-29" font-family="Helvetica,sans-Serif" font-size="10.00">/home/slookeur/files</text>
<text text-anchor="start" x="476" y="-18" font-family="Helvetica,sans-Serif" font-size="10.00">/codeblocks&#45;files/atomes</text>
<text text-anchor="middle" x="537" y="-7" font-family="Helvetica,sans-Serif" font-size="10.00">/src/curve/datab.c</text>
</a>
</g>
</g>
<!-- Node1&#45;&gt;Node5 -->
<g id="edge4_Node000001_Node000005" class="edge">
<title>Node1&#45;&gt;Node5</title>
<g id="a_edge4_Node000001_Node000005"><a xlink:title=" ">
<path fill="none" stroke="#63b8ff" d="M2485.77,-96.53C2168.04,-96.3 985.5,-91.97 615,-41 612.1,-40.6 609.14,-40.14 606.17,-39.62"/>
<polygon fill="#63b8ff" stroke="#63b8ff" points="2485.81,-100.03 2495.81,-96.54 2485.81,-93.03 2485.81,-100.03"/>
</a>
</g>
</g>
<!-- Node6 -->
<g id="Node000006" class="node">
<title>Node6</title>
<g id="a_Node000006"><a xlink:href="../../d6/dd9/draw_8c.html" target="_top" xlink:title="Function to draw a curve.">
<polygon fill="white" stroke="#666666" points="762,-41 624,-41 624,0 762,0 762,-41"/>
<text text-anchor="start" x="632" y="-29" font-family="Helvetica,sans-Serif" font-size="10.00">/home/slookeur/files</text>
<text text-anchor="start" x="632" y="-18" font-family="Helvetica,sans-Serif" font-size="10.00">/codeblocks&#45;files/atomes</text>
<text text-anchor="middle" x="693" y="-7" font-family="Helvetica,sans-Serif" font-size="10.00">/src/curve/draw.c</text>
</a>
</g>
</g>
<!-- Node1&#45;&gt;Node6 -->
<g id="edge5_Node000001_Node000006" class="edge">
<title>Node1&#45;&gt;Node6</title>
<g id="a_edge5_Node000001_Node000006"><a xlink:title=" ">
<path fill="none" stroke="#63b8ff" d="M2485.21,-96.3C2183.07,-95.19 1109.2,-87.95 771,-41 768.1,-40.6 765.14,-40.13 762.17,-39.61"/>
<polygon fill="#63b8ff" stroke="#63b8ff" points="2485.62,-99.8 2495.63,-96.34 2485.65,-92.8 2485.62,-99.8"/>
</a>
</g>
</g>
<!-- Node7 -->
<g id="Node000007" class="node">
<title>Node7</title>
<g id="a_Node000007"><a xlink:href="../../dd/dbe/frame_8c.html" target="_top" xlink:title="Functions to draw the frame.">
<polygon fill="white" stroke="#666666" points="918,-41 780,-41 780,0 918,0 918,-41"/>
<text text-anchor="start" x="788" y="-29" font-family="Helvetica,sans-Serif" font-size="10.00">/home/slookeur/files</text>
<text text-anchor="start" x="788" y="-18" font-family="Helvetica,sans-Serif" font-size="10.00">/codeblocks&#45;files/atomes</text>
<text text-anchor="middle" x="849" y="-7" font-family="Helvetica,sans-Serif" font-size="10.00">/src/curve/frame.c</text>
</a>
</g>
</g>
<!-- Node1&#45;&gt;Node7 -->
<g id="edge6_Node000001_Node000007" class="edge">
<title>Node1&#45;&gt;Node7</title>
<g id="a_edge6_Node000001_Node000007"><a xlink:title=" ">
<path fill="none" stroke="#63b8ff" d="M2485.55,-96.03C2200.98,-93.99 1233.35,-83.99 927,-41 924.1,-40.59 921.15,-40.12 918.17,-39.6"/>
<polygon fill="#63b8ff" stroke="#63b8ff" points="2485.76,-99.53 2495.78,-96.1 2485.81,-92.53 2485.76,-99.53"/>
</a>
</g>
</g>
<!-- Node8 -->
<g id="Node000008" class="node">
<title>Node8</title>
<g id="a_Node000008"><a xlink:href="../../d8/da4/glyph_8c.html" target="_top" xlink:title="Functions to draw the glyphs.">
<polygon fill="white" stroke="#666666" points="1074,-41 936,-41 936,0 1074,0 1074,-41"/>
<text text-anchor="start" x="944" y="-29" font-family="Helvetica,sans-Serif" font-size="10.00">/home/slookeur/files</text>
<text text-anchor="start" x="944" y="-18" font-family="Helvetica,sans-Serif" font-size="10.00">/codeblocks&#45;files/atomes</text>
<text text-anchor="middle" x="1005" y="-7" font-family="Helvetica,sans-Serif" font-size="10.00">/src/curve/glyph.c</text>
</a>
</g>
</g>
<!-- Node1&#45;&gt;Node8 -->
<g id="edge7_Node000001_Node000008" class="edge">
<title>Node1&#45;&gt;Node8</title>
<g id="a_edge7_Node000001_Node000008"><a xlink:title=" ">
<path fill="none" stroke="#63b8ff" d="M2485.61,-95.7C2219.06,-92.67 1357.5,-80.02 1083,-41 1080.1,-40.59 1077.15,-40.11 1074.17,-39.58"/>
<polygon fill="#63b8ff" stroke="#63b8ff" points="2485.93,-99.2 2495.97,-95.81 2486.01,-92.2 2485.93,-99.2"/>
</a>
</g>
</g>
<!-- Node9 -->
<g id="Node000009" class="node">
<title>Node9</title>
<g id="a_Node000009"><a xlink:href="../../de/d87/labels_8c.html" target="_top" xlink:title="Function to draw the axis labels.">
<polygon fill="white" stroke="#666666" points="1230,-41 1092,-41 1092,0 1230,0 1230,-41"/>
<text text-anchor="start" x="1100" y="-29" font-family="Helvetica,sans-Serif" font-size="10.00">/home/slookeur/files</text>
<text text-anchor="start" x="1100" y="-18" font-family="Helvetica,sans-Serif" font-size="10.00">/codeblocks&#45;files/atomes</text>
<text text-anchor="middle" x="1161" y="-7" font-family="Helvetica,sans-Serif" font-size="10.00">/src/curve/labels.c</text>
</a>
</g>
</g>
<!-- Node1&#45;&gt;Node9 -->
<g id="edge8_Node000001_Node000009" class="edge">
<title>Node1&#45;&gt;Node9</title>
<g id="a_edge8_Node000001_Node000009"><a xlink:title=" ">
<path fill="none" stroke="#63b8ff" d="M2485.62,-95.29C2238,-91.19 1481.78,-76.06 1239,-41 1236.1,-40.58 1233.15,-40.1 1230.18,-39.57"/>
<polygon fill="#63b8ff" stroke="#63b8ff" points="2485.57,-98.79 2495.63,-95.46 2485.68,-91.79 2485.57,-98.79"/>
</a>
</g>
</g>
<!-- Node10 -->
<g id="Node000010" class="node">
<title>Node10</title>
<g id="a_Node000010"><a xlink:href="../../d7/d40/legend_8c.html" target="_top" xlink:title="Function to draw the legend.">
<polygon fill="white" stroke="#666666" points="1386,-41 1248,-41 1248,0 1386,0 1386,-41"/>
<text text-anchor="start" x="1256" y="-29" font-family="Helvetica,sans-Serif" font-size="10.00">/home/slookeur/files</text>
<text text-anchor="start" x="1256" y="-18" font-family="Helvetica,sans-Serif" font-size="10.00">/codeblocks&#45;files/atomes</text>
<text text-anchor="middle" x="1317" y="-7" font-family="Helvetica,sans-Serif" font-size="10.00">/src/curve/legend.c</text>
</a>
</g>
</g>
<!-- Node1&#45;&gt;Node10 -->
<g id="edge9_Node000001_Node000010" class="edge">
<title>Node1&#45;&gt;Node10</title>
<g id="a_edge9_Node000001_Node000010"><a xlink:title=" ">
<path fill="none" stroke="#63b8ff" d="M2485.78,-94.78C2258.36,-89.53 1606.27,-72.11 1395,-41 1392.1,-40.57 1389.15,-40.08 1386.18,-39.55"/>
<polygon fill="#63b8ff" stroke="#63b8ff" points="2485.88,-98.29 2495.96,-95.02 2486.04,-91.29 2485.88,-98.29"/>
</a>
</g>
</g>
<!-- Node11 -->
<g id="Node000011" class="node">
<title>Node11</title>
<g id="a_Node000011"><a xlink:href="../../d9/d29/m__curve_8c.html" target="_top" xlink:title="Curve context menu (mouse right click)">
<polygon fill="white" stroke="#666666" points="1542,-41 1404,-41 1404,0 1542,0 1542,-41"/>
<text text-anchor="start" x="1412" y="-29" font-family="Helvetica,sans-Serif" font-size="10.00">/home/slookeur/files</text>
<text text-anchor="start" x="1412" y="-18" font-family="Helvetica,sans-Serif" font-size="10.00">/codeblocks&#45;files/atomes</text>
<text text-anchor="middle" x="1473" y="-7" font-family="Helvetica,sans-Serif" font-size="10.00">/src/curve/m_curve.c</text>
</a>
</g>
</g>
<!-- Node1&#45;&gt;Node11 -->
<g id="edge10_Node000001_Node000011" class="edge">
<title>Node1&#45;&gt;Node11</title>
<g id="a_edge10_Node000001_Node000011"><a xlink:title=" ">
<path fill="none" stroke="#63b8ff" d="M2485.8,-97.27C2314.32,-97.82 1896.31,-93.13 1551,-41 1548.1,-40.56 1545.15,-40.07 1542.18,-39.52"/>
<polygon fill="#63b8ff" stroke="#63b8ff" points="2486.01,-100.77 2495.99,-97.23 2485.98,-93.77 2486.01,-100.77"/>
</a>
</g>
</g>
<!-- Node12 -->
<g id="Node000012" class="node">
<title>Node12</title>
<g id="a_Node000012"><a xlink:href="../../df/dd0/show_8c.html" target="_top" xlink:title="Functions to draw the complete graph.">
<polygon fill="white" stroke="#666666" points="1698,-41 1560,-41 1560,0 1698,0 1698,-41"/>
<text text-anchor="start" x="1568" y="-29" font-family="Helvetica,sans-Serif" font-size="10.00">/home/slookeur/files</text>
<text text-anchor="start" x="1568" y="-18" font-family="Helvetica,sans-Serif" font-size="10.00">/codeblocks&#45;files/atomes</text>
<text text-anchor="middle" x="1629" y="-7" font-family="Helvetica,sans-Serif" font-size="10.00">/src/curve/show.c</text>
</a>
</g>
</g>
<!-- Node1&#45;&gt;Node12 -->
<g id="edge11_Node000001_Node000012" class="edge">
<title>Node1&#45;&gt;Node12</title>
<g id="a_edge11_Node000001_Node000012"><a xlink:title=" ">
<path fill="none" stroke="#63b8ff" d="M2485.69,-96.13C2333.69,-94.38 1991.2,-85.35 1707,-41 1704.1,-40.55 1701.16,-40.04 1698.19,-39.49"/>
<polygon fill="#63b8ff" stroke="#63b8ff" points="2485.83,-99.63 2495.86,-96.24 2485.9,-92.63 2485.83,-99.63"/>
</a>
</g>
</g>
<!-- Node13 -->
<g id="Node000013" class="node">
<title>Node13</title>
<g id="a_Node000013"><a xlink:href="../../df/df7/tab-1_8c.html" target="_top" xlink:title="1st tab of the curve layout edition dialog">
<polygon fill="white" stroke="#666666" points="1854,-41 1716,-41 1716,0 1854,0 1854,-41"/>
<text text-anchor="start" x="1724" y="-29" font-family="Helvetica,sans-Serif" font-size="10.00">/home/slookeur/files</text>
<text text-anchor="start" x="1724" y="-18" font-family="Helvetica,sans-Serif" font-size="10.00">/codeblocks&#45;files/atomes</text>
<text text-anchor="middle" x="1785" y="-7" font-family="Helvetica,sans-Serif" font-size="10.00">/src/curve/tab&#45;1.c</text>
</a>
</g>
</g>
<!-- Node1&#45;&gt;Node13 -->
<g id="edge12_Node000001_Node000013" class="edge">
<title>Node1&#45;&gt;Node13</title>
<g id="a_edge12_Node000001_Node000013"><a xlink:title=" ">
<path fill="none" stroke="#63b8ff" d="M2485.48,-94.51C2354.8,-90.28 2086.79,-77.56 1863,-41 1860.11,-40.53 1857.16,-40 1854.2,-39.43"/>
<polygon fill="#63b8ff" stroke="#63b8ff" points="2485.68,-98.02 2495.79,-94.83 2485.91,-91.02 2485.68,-98.02"/>
</a>
</g>
</g>
<!-- Node14 -->
<g id="Node000014" class="node">
<title>Node14</title>
<g id="a_Node000014"><a xlink:href="../../de/d1f/tab-2_8c.html" target="_top" xlink:title="2nd tab of the curve layout edition dialog">
<polygon fill="white" stroke="#666666" points="2010,-41 1872,-41 1872,0 2010,0 2010,-41"/>
<text text-anchor="start" x="1880" y="-29" font-family="Helvetica,sans-Serif" font-size="10.00">/home/slookeur/files</text>
<text text-anchor="start" x="1880" y="-18" font-family="Helvetica,sans-Serif" font-size="10.00">/codeblocks&#45;files/atomes</text>
<text text-anchor="middle" x="1941" y="-7" font-family="Helvetica,sans-Serif" font-size="10.00">/src/curve/tab&#45;2.c</text>
</a>
</g>
</g>
<!-- Node1&#45;&gt;Node14 -->
<g id="edge13_Node000001_Node000014" class="edge">
<title>Node1&#45;&gt;Node14</title>
<g id="a_edge13_Node000001_Node000014"><a xlink:title=" ">
<path fill="none" stroke="#63b8ff" d="M2485.56,-92.01C2378.85,-85.17 2183.57,-69.78 2019,-41 2016.11,-40.5 2013.17,-39.94 2010.21,-39.35"/>
<polygon fill="#63b8ff" stroke="#63b8ff" points="2485.41,-95.51 2495.61,-92.65 2485.85,-88.53 2485.41,-95.51"/>
</a>
</g>
</g>
<!-- Node15 -->
<g id="Node000015" class="node">
<title>Node15</title>
<g id="a_Node000015"><a xlink:href="../../d1/d6f/tab-3_8c.html" target="_top" xlink:title="3rd tab of the curve layout edition dialog">
<polygon fill="white" stroke="#666666" points="2166,-41 2028,-41 2028,0 2166,0 2166,-41"/>
<text text-anchor="start" x="2036" y="-29" font-family="Helvetica,sans-Serif" font-size="10.00">/home/slookeur/files</text>
<text text-anchor="start" x="2036" y="-18" font-family="Helvetica,sans-Serif" font-size="10.00">/codeblocks&#45;files/atomes</text>
<text text-anchor="middle" x="2097" y="-7" font-family="Helvetica,sans-Serif" font-size="10.00">/src/curve/tab&#45;3.c</text>
</a>
</g>
</g>
<!-- Node1&#45;&gt;Node15 -->
<g id="edge14_Node000001_Node000015" class="edge">
<title>Node1&#45;&gt;Node15</title>
<g id="a_edge14_Node000001_Node000015"><a xlink:title=" ">
<path fill="none" stroke="#63b8ff" d="M2485.58,-87.64C2406.48,-78.25 2281.79,-61.89 2175,-41 2172.12,-40.44 2169.19,-39.84 2166.24,-39.21"/>
<polygon fill="#63b8ff" stroke="#63b8ff" points="2485.61,-91.17 2495.95,-88.87 2486.43,-84.22 2485.61,-91.17"/>
</a>
</g>
</g>
<!-- Node16 -->
<g id="Node000016" class="node">
<title>Node16</title>
<g id="a_Node000016"><a xlink:href="../../d8/d62/tab-4_8c.html" target="_top" xlink:title="4th tab of the curve layout edition dialog">
<polygon fill="white" stroke="#666666" points="2322,-41 2184,-41 2184,0 2322,0 2322,-41"/>
<text text-anchor="start" x="2192" y="-29" font-family="Helvetica,sans-Serif" font-size="10.00">/home/slookeur/files</text>
<text text-anchor="start" x="2192" y="-18" font-family="Helvetica,sans-Serif" font-size="10.00">/codeblocks&#45;files/atomes</text>
<text text-anchor="middle" x="2253" y="-7" font-family="Helvetica,sans-Serif" font-size="10.00">/src/curve/tab&#45;4.c</text>
</a>
</g>
</g>
<!-- Node1&#45;&gt;Node16 -->
<g id="edge15_Node000001_Node000016" class="edge">
<title>Node1&#45;&gt;Node16</title>
<g id="a_edge15_Node000001_Node000016"><a xlink:title=" ">
<path fill="none" stroke="#63b8ff" d="M2486.06,-78.03C2440.67,-67.34 2382.59,-53.57 2331,-41 2328.15,-40.31 2325.25,-39.6 2322.31,-38.87"/>
<polygon fill="#63b8ff" stroke="#63b8ff" points="2485.3,-81.44 2495.83,-80.33 2486.9,-74.63 2485.3,-81.44"/>
</a>
</g>
</g>
<!-- Node17 -->
<g id="Node000017" class="node">
<title>Node17</title>
<g id="a_Node000017"><a xlink:href="../../d9/d0e/title_8c.html" target="_top" xlink:title="Functions to draw the title.">
<polygon fill="white" stroke="#666666" points="2478,-41 2340,-41 2340,0 2478,0 2478,-41"/>
<text text-anchor="start" x="2348" y="-29" font-family="Helvetica,sans-Serif" font-size="10.00">/home/slookeur/files</text>
<text text-anchor="start" x="2348" y="-18" font-family="Helvetica,sans-Serif" font-size="10.00">/codeblocks&#45;files/atomes</text>
<text text-anchor="middle" x="2409" y="-7" font-family="Helvetica,sans-Serif" font-size="10.00">/src/curve/title.c</text>
</a>
</g>
</g>
<!-- Node1&#45;&gt;Node17 -->
<g id="edge16_Node000001_Node000017" class="edge">
<title>Node1&#45;&gt;Node17</title>
<g id="a_edge16_Node000001_Node000017"><a xlink:title=" ">
<path fill="none" stroke="#63b8ff" d="M2515.26,-72.59C2494.09,-62.41 2469.71,-50.69 2449.65,-41.04"/>
<polygon fill="#63b8ff" stroke="#63b8ff" points="2513.89,-75.81 2524.42,-76.99 2516.92,-69.5 2513.89,-75.81"/>
</a>
</g>
</g>
<!-- Node18 -->
<g id="Node000018" class="node">
<title>Node18</title>
<g id="a_Node000018"><a xlink:href="../../d2/d04/w__curve_8c.html" target="_top" xlink:title="Functions to create the graph/curve window.">
<polygon fill="white" stroke="#666666" points="2634,-41 2496,-41 2496,0 2634,0 2634,-41"/>
<text text-anchor="start" x="2504" y="-29" font-family="Helvetica,sans-Serif" font-size="10.00">/home/slookeur/files</text>
<text text-anchor="start" x="2504" y="-18" font-family="Helvetica,sans-Serif" font-size="10.00">/codeblocks&#45;files/atomes</text>
<text text-anchor="middle" x="2565" y="-7" font-family="Helvetica,sans-Serif" font-size="10.00">/src/curve/w_curve.c</text>
</a>
</g>
</g>
<!-- Node1&#45;&gt;Node18 -->
<g id="edge17_Node000001_Node000018" class="edge">
<title>Node1&#45;&gt;Node18</title>
<g id="a_edge17_Node000001_Node000018"><a xlink:title=" ">
<path fill="none" stroke="#63b8ff" d="M2565,-66.69C2565,-58.08 2565,-48.9 2565,-41.07"/>
<polygon fill="#63b8ff" stroke="#63b8ff" points="2561.5,-66.79 2565,-76.79 2568.5,-66.79 2561.5,-66.79"/>
</a>
</g>
</g>
<!-- Node19 -->
<g id="Node000019" class="node">
<title>Node19</title>
<g id="a_Node000019"><a xlink:href="../../df/d15/w__data_8c.html" target="_top" xlink:title="Functions to export curve data.">
<polygon fill="white" stroke="#666666" points="2790,-41 2652,-41 2652,0 2790,0 2790,-41"/>
<text text-anchor="start" x="2660" y="-29" font-family="Helvetica,sans-Serif" font-size="10.00">/home/slookeur/files</text>
<text text-anchor="start" x="2660" y="-18" font-family="Helvetica,sans-Serif" font-size="10.00">/codeblocks&#45;files/atomes</text>
<text text-anchor="middle" x="2721" y="-7" font-family="Helvetica,sans-Serif" font-size="10.00">/src/curve/w_data.c</text>
</a>
</g>
</g>
<!-- Node1&#45;&gt;Node19 -->
<g id="edge18_Node000001_Node000019" class="edge">
<title>Node1&#45;&gt;Node19</title>
<g id="a_edge18_Node000001_Node000019"><a xlink:title=" ">
<path fill="none" stroke="#63b8ff" d="M2614.74,-72.59C2635.91,-62.41 2660.29,-50.69 2680.35,-41.04"/>
<polygon fill="#63b8ff" stroke="#63b8ff" points="2613.08,-69.5 2605.58,-76.99 2616.11,-75.81 2613.08,-69.5"/>
</a>
</g>
</g>
<!-- Node20 -->
<g id="Node000020" class="node">
<title>Node20</title>
<g id="a_Node000020"><a xlink:href="../../dc/dc8/w__img_8c.html" target="_top" xlink:title="Functions to save screenshot from graph / curve(s)">
<polygon fill="white" stroke="#666666" points="2946,-41 2808,-41 2808,0 2946,0 2946,-41"/>
<text text-anchor="start" x="2816" y="-29" font-family="Helvetica,sans-Serif" font-size="10.00">/home/slookeur/files</text>
<text text-anchor="start" x="2816" y="-18" font-family="Helvetica,sans-Serif" font-size="10.00">/codeblocks&#45;files/atomes</text>
<text text-anchor="middle" x="2877" y="-7" font-family="Helvetica,sans-Serif" font-size="10.00">/src/curve/w_img.c</text>
</a>
</g>
</g>
<!-- Node1&#45;&gt;Node20 -->
<g id="edge19_Node000001_Node000020" class="edge">
<title>Node1&#45;&gt;Node20</title>
<g id="a_edge19_Node000001_Node000020"><a xlink:title=" ">
<path fill="none" stroke="#63b8ff" d="M2643.94,-78.03C2689.33,-67.34 2747.41,-53.57 2799,-41 2801.85,-40.31 2804.75,-39.6 2807.69,-38.87"/>
<polygon fill="#63b8ff" stroke="#63b8ff" points="2643.1,-74.63 2634.17,-80.33 2644.7,-81.44 2643.1,-74.63"/>
</a>
</g>
</g>
<!-- Node21 -->
<g id="Node000021" class="node">
<title>Node21</title>
<g id="a_Node000021"><a xlink:href="../../d2/d12/xaxis_8c.html" target="_top" xlink:title="Functions to draw the x axis.">
<polygon fill="white" stroke="#666666" points="3102,-41 2964,-41 2964,0 3102,0 3102,-41"/>
<text text-anchor="start" x="2972" y="-29" font-family="Helvetica,sans-Serif" font-size="10.00">/home/slookeur/files</text>
<text text-anchor="start" x="2972" y="-18" font-family="Helvetica,sans-Serif" font-size="10.00">/codeblocks&#45;files/atomes</text>
<text text-anchor="middle" x="3033" y="-7" font-family="Helvetica,sans-Serif" font-size="10.00">/src/curve/xaxis.c</text>
</a>
</g>
</g>
<!-- Node1&#45;&gt;Node21 -->
<g id="edge20_Node000001_Node000021" class="edge">
<title>Node1&#45;&gt;Node21</title>
<g id="a_edge20_Node000001_Node000021"><a xlink:title=" ">
<path fill="none" stroke="#63b8ff" d="M2644.42,-87.64C2723.52,-78.25 2848.21,-61.89 2955,-41 2957.88,-40.44 2960.81,-39.84 2963.76,-39.21"/>
<polygon fill="#63b8ff" stroke="#63b8ff" points="2643.57,-84.22 2634.05,-88.87 2644.39,-91.17 2643.57,-84.22"/>
</a>
</g>
</g>
<!-- Node22 -->
<g id="Node000022" class="node">
<title>Node22</title>
<g id="a_Node000022"><a xlink:href="../../df/dfb/yaxis_8c.html" target="_top" xlink:title="Functions to draw the y axis.">
<polygon fill="white" stroke="#666666" points="3258,-41 3120,-41 3120,0 3258,0 3258,-41"/>
<text text-anchor="start" x="3128" y="-29" font-family="Helvetica,sans-Serif" font-size="10.00">/home/slookeur/files</text>
<text text-anchor="start" x="3128" y="-18" font-family="Helvetica,sans-Serif" font-size="10.00">/codeblocks&#45;files/atomes</text>
<text text-anchor="middle" x="3189" y="-7" font-family="Helvetica,sans-Serif" font-size="10.00">/src/curve/yaxis.c</text>
</a>
</g>
</g>
<!-- Node1&#45;&gt;Node22 -->
<g id="edge21_Node000001_Node000022" class="edge">
<title>Node1&#45;&gt;Node22</title>
<g id="a_edge21_Node000001_Node000022"><a xlink:title=" ">
<path fill="none" stroke="#63b8ff" d="M2644.44,-92.01C2751.15,-85.17 2946.43,-69.78 3111,-41 3113.89,-40.5 3116.83,-39.94 3119.79,-39.35"/>
<polygon fill="#63b8ff" stroke="#63b8ff" points="2644.15,-88.53 2634.39,-92.65 2644.59,-95.51 2644.15,-88.53"/>
</a>
</g>
</g>
<!-- Node23 -->
<g id="Node000023" class="node">
<title>Node23</title>
<g id="a_Node000023"><a xlink:href="../../d5/d34/bdcall_8c.html" target="_top" xlink:title="Callbacks for the bond properties calculation dialog.">
<polygon fill="white" stroke="#666666" points="3414,-41 3276,-41 3276,0 3414,0 3414,-41"/>
<text text-anchor="start" x="3284" y="-29" font-family="Helvetica,sans-Serif" font-size="10.00">/home/slookeur/files</text>
<text text-anchor="start" x="3284" y="-18" font-family="Helvetica,sans-Serif" font-size="10.00">/codeblocks&#45;files/atomes</text>
<text text-anchor="middle" x="3345" y="-7" font-family="Helvetica,sans-Serif" font-size="10.00">/src/gui/bdcall.c</text>
</a>
</g>
</g>
<!-- Node1&#45;&gt;Node23 -->
<g id="edge22_Node000001_Node000023" class="edge">
<title>Node1&#45;&gt;Node23</title>
<g id="a_edge22_Node000001_Node000023"><a xlink:title=" ">
<path fill="none" stroke="#63b8ff" d="M2644.52,-94.51C2775.2,-90.28 3043.21,-77.56 3267,-41 3269.89,-40.53 3272.84,-40 3275.8,-39.43"/>
<polygon fill="#63b8ff" stroke="#63b8ff" points="2644.09,-91.02 2634.21,-94.83 2644.32,-98.02 2644.09,-91.02"/>
</a>
</g>
</g>
<!-- Node24 -->
<g id="Node000024" class="node">
<title>Node24</title>
<g id="a_Node000024"><a xlink:href="../../d2/d01/chainscall_8c.html" target="_top" xlink:title="Callbacks for the chains statistics calculation dialog.">
<polygon fill="white" stroke="#666666" points="3570,-41 3432,-41 3432,0 3570,0 3570,-41"/>
<text text-anchor="start" x="3440" y="-29" font-family="Helvetica,sans-Serif" font-size="10.00">/home/slookeur/files</text>
<text text-anchor="start" x="3440" y="-18" font-family="Helvetica,sans-Serif" font-size="10.00">/codeblocks&#45;files/atomes</text>
<text text-anchor="middle" x="3501" y="-7" font-family="Helvetica,sans-Serif" font-size="10.00">/src/gui/chainscall.c</text>
</a>
</g>
</g>
<!-- Node1&#45;&gt;Node24 -->
<g id="edge23_Node000001_Node000024" class="edge">
<title>Node1&#45;&gt;Node24</title>
<g id="a_edge23_Node000001_Node000024"><a xlink:title=" ">
<path fill="none" stroke="#63b8ff" d="M2644.31,-96.13C2796.31,-94.38 3138.8,-85.35 3423,-41 3425.9,-40.55 3428.84,-40.04 3431.81,-39.49"/>
<polygon fill="#63b8ff" stroke="#63b8ff" points="2644.1,-92.63 2634.14,-96.24 2644.17,-99.63 2644.1,-92.63"/>
</a>
</g>
</g>
<!-- Node25 -->
<g id="Node000025" class="node">
<title>Node25</title>
<g id="a_Node000025"><a xlink:href="../../dc/d6b/grcall_8c.html" target="_top" xlink:title="Callbacks for the g(r)/g(k) calculation dialog.">
<polygon fill="white" stroke="#666666" points="3726,-41 3588,-41 3588,0 3726,0 3726,-41"/>
<text text-anchor="start" x="3596" y="-29" font-family="Helvetica,sans-Serif" font-size="10.00">/home/slookeur/files</text>
<text text-anchor="start" x="3596" y="-18" font-family="Helvetica,sans-Serif" font-size="10.00">/codeblocks&#45;files/atomes</text>
<text text-anchor="middle" x="3657" y="-7" font-family="Helvetica,sans-Serif" font-size="10.00">/src/gui/grcall.c</text>
</a>
</g>
</g>
<!-- Node1&#45;&gt;Node25 -->
<g id="edge24_Node000001_Node000025" class="edge">
<title>Node1&#45;&gt;Node25</title>
<g id="a_edge24_Node000001_Node000025"><a xlink:title=" ">
<path fill="none" stroke="#63b8ff" d="M2644.2,-97.27C2815.68,-97.82 3233.69,-93.13 3579,-41 3581.9,-40.56 3584.85,-40.07 3587.82,-39.52"/>
<polygon fill="#63b8ff" stroke="#63b8ff" points="2644.02,-93.77 2634.01,-97.23 2643.99,-100.77 2644.02,-93.77"/>
</a>
</g>
</g>
<!-- Node26 -->
<g id="Node000026" class="node">
<title>Node26</title>
<g id="a_Node000026"><a xlink:href="../../dd/dda/interface_8c.html" target="_top" xlink:title="General messaging functions.">
<polygon fill="white" stroke="#666666" points="3882,-41 3744,-41 3744,0 3882,0 3882,-41"/>
<text text-anchor="start" x="3752" y="-29" font-family="Helvetica,sans-Serif" font-size="10.00">/home/slookeur/files</text>
<text text-anchor="start" x="3752" y="-18" font-family="Helvetica,sans-Serif" font-size="10.00">/codeblocks&#45;files/atomes</text>
<text text-anchor="middle" x="3813" y="-7" font-family="Helvetica,sans-Serif" font-size="10.00">/src/gui/interface.c</text>
</a>
</g>
</g>
<!-- Node1&#45;&gt;Node26 -->
<g id="edge25_Node000001_Node000026" class="edge">
<title>Node1&#45;&gt;Node26</title>
<g id="a_edge25_Node000001_Node000026"><a xlink:title=" ">
<path fill="none" stroke="#63b8ff" d="M2644.22,-94.78C2871.64,-89.53 3523.73,-72.11 3735,-41 3737.9,-40.57 3740.85,-40.08 3743.82,-39.55"/>
<polygon fill="#63b8ff" stroke="#63b8ff" points="2643.96,-91.29 2634.04,-95.02 2644.12,-98.29 2643.96,-91.29"/>
</a>
</g>
</g>
<!-- Node27 -->
<g id="Node000027" class="node">
<title>Node27</title>
<g id="a_Node000027"><a xlink:href="../../d8/d2b/msdcall_8c.html" target="_top" xlink:title="Callbacks for the MSD calculation dialog.">
<polygon fill="white" stroke="#666666" points="4038,-41 3900,-41 3900,0 4038,0 4038,-41"/>
<text text-anchor="start" x="3908" y="-29" font-family="Helvetica,sans-Serif" font-size="10.00">/home/slookeur/files</text>
<text text-anchor="start" x="3908" y="-18" font-family="Helvetica,sans-Serif" font-size="10.00">/codeblocks&#45;files/atomes</text>
<text text-anchor="middle" x="3969" y="-7" font-family="Helvetica,sans-Serif" font-size="10.00">/src/gui/msdcall.c</text>
</a>
</g>
</g>
<!-- Node1&#45;&gt;Node27 -->
<g id="edge26_Node000001_Node000027" class="edge">
<title>Node1&#45;&gt;Node27</title>
<g id="a_edge26_Node000001_Node000027"><a xlink:title=" ">
<path fill="none" stroke="#63b8ff" d="M2644.38,-95.29C2892,-91.19 3648.22,-76.06 3891,-41 3893.9,-40.58 3896.85,-40.1 3899.82,-39.57"/>
<polygon fill="#63b8ff" stroke="#63b8ff" points="2644.32,-91.79 2634.37,-95.46 2644.43,-98.79 2644.32,-91.79"/>
</a>
</g>
</g>
<!-- Node28 -->
<g id="Node000028" class="node">
<title>Node28</title>
<g id="a_Node000028"><a xlink:href="../../d9/dc4/ringscall_8c.html" target="_top" xlink:title="Callbacks for the ring statistics calculation dialog.">
<polygon fill="white" stroke="#666666" points="4194,-41 4056,-41 4056,0 4194,0 4194,-41"/>
<text text-anchor="start" x="4064" y="-29" font-family="Helvetica,sans-Serif" font-size="10.00">/home/slookeur/files</text>
<text text-anchor="start" x="4064" y="-18" font-family="Helvetica,sans-Serif" font-size="10.00">/codeblocks&#45;files/atomes</text>
<text text-anchor="middle" x="4125" y="-7" font-family="Helvetica,sans-Serif" font-size="10.00">/src/gui/ringscall.c</text>
</a>
</g>
</g>
<!-- Node1&#45;&gt;Node28 -->
<g id="edge27_Node000001_Node000028" class="edge">
<title>Node1&#45;&gt;Node28</title>
<g id="a_edge27_Node000001_Node000028"><a xlink:title=" ">
<path fill="none" stroke="#63b8ff" d="M2644.39,-95.7C2910.94,-92.67 3772.5,-80.02 4047,-41 4049.9,-40.59 4052.85,-40.11 4055.83,-39.58"/>
<polygon fill="#63b8ff" stroke="#63b8ff" points="2643.99,-92.2 2634.03,-95.81 2644.07,-99.2 2643.99,-92.2"/>
</a>
</g>
</g>
<!-- Node29 -->
<g id="Node000029" class="node">
<title>Node29</title>
<g id="a_Node000029"><a xlink:href="../../d9/dbe/spcall_8c.html" target="_top" xlink:title="Callbacks for the spherical harmonics calculation dialog.">
<polygon fill="white" stroke="#666666" points="4350,-41 4212,-41 4212,0 4350,0 4350,-41"/>
<text text-anchor="start" x="4220" y="-29" font-family="Helvetica,sans-Serif" font-size="10.00">/home/slookeur/files</text>
<text text-anchor="start" x="4220" y="-18" font-family="Helvetica,sans-Serif" font-size="10.00">/codeblocks&#45;files/atomes</text>
<text text-anchor="middle" x="4281" y="-7" font-family="Helvetica,sans-Serif" font-size="10.00">/src/gui/spcall.c</text>
</a>
</g>
</g>
<!-- Node1&#45;&gt;Node29 -->
<g id="edge28_Node000001_Node000029" class="edge">
<title>Node1&#45;&gt;Node29</title>
<g id="a_edge28_Node000001_Node000029"><a xlink:title=" ">
<path fill="none" stroke="#63b8ff" d="M2644.45,-96.03C2929.02,-93.99 3896.65,-83.99 4203,-41 4205.9,-40.59 4208.85,-40.12 4211.83,-39.6"/>
<polygon fill="#63b8ff" stroke="#63b8ff" points="2644.19,-92.53 2634.22,-96.1 2644.24,-99.53 2644.19,-92.53"/>
</a>
</g>
</g>
<!-- Node30 -->
<g id="Node000030" class="node">
<title>Node30</title>
<g id="a_Node000030"><a xlink:href="../../d5/dde/sqcall_8c.html" target="_top" xlink:title="Callbacks for the s(q) / s(k) calculation dialog.">
<polygon fill="white" stroke="#666666" points="4506,-41 4368,-41 4368,0 4506,0 4506,-41"/>
<text text-anchor="start" x="4376" y="-29" font-family="Helvetica,sans-Serif" font-size="10.00">/home/slookeur/files</text>
<text text-anchor="start" x="4376" y="-18" font-family="Helvetica,sans-Serif" font-size="10.00">/codeblocks&#45;files/atomes</text>
<text text-anchor="middle" x="4437" y="-7" font-family="Helvetica,sans-Serif" font-size="10.00">/src/gui/sqcall.c</text>
</a>
</g>
</g>
<!-- Node1&#45;&gt;Node30 -->
<g id="edge29_Node000001_Node000030" class="edge">
<title>Node1&#45;&gt;Node30</title>
<g id="a_edge29_Node000001_Node000030"><a xlink:title=" ">
<path fill="none" stroke="#63b8ff" d="M2644.79,-96.3C2946.93,-95.19 4020.8,-87.95 4359,-41 4361.9,-40.6 4364.86,-40.13 4367.83,-39.61"/>
<polygon fill="#63b8ff" stroke="#63b8ff" points="2644.35,-92.8 2634.37,-96.34 2644.38,-99.8 2644.35,-92.8"/>
</a>
</g>
</g>
<!-- Node31 -->
<g id="Node000031" class="node">
<title>Node31</title>
<g id="a_Node000031"><a xlink:href="../../d8/d15/atom__action_8c.html" target="_top" xlink:title="Functions to apply the edition actions to the model.">
<polygon fill="white" stroke="#666666" points="4688,-41 4524,-41 4524,0 4688,0 4688,-41"/>
<text text-anchor="start" x="4532" y="-29" font-family="Helvetica,sans-Serif" font-size="10.00">/home/slookeur/files</text>
<text text-anchor="start" x="4532" y="-18" font-family="Helvetica,sans-Serif" font-size="10.00">/codeblocks&#45;files/atomes</text>
<text text-anchor="middle" x="4606" y="-7" font-family="Helvetica,sans-Serif" font-size="10.00">/src/opengl/edit/atom_action.c</text>
</a>
</g>
</g>
<!-- Node1&#45;&gt;Node31 -->
<g id="edge30_Node000001_Node000031" class="edge">
<title>Node1&#45;&gt;Node31</title>
<g id="a_edge30_Node000001_Node000031"><a xlink:title=" ">
<path fill="none" stroke="#63b8ff" d="M2644.18,-96.18C2961.74,-94.58 4143.69,-85.69 4515,-41 4517.89,-40.65 4520.82,-40.26 4523.77,-39.82"/>
<polygon fill="#63b8ff" stroke="#63b8ff" points="2644.13,-92.68 2634.15,-96.23 2644.16,-99.68 2644.13,-92.68"/>
</a>
</g>
</g>
<!-- Node32 -->
<g id="Node000032" class="node">
<title>Node32</title>
<g id="a_Node000032"><a xlink:href="../../d3/d50/close__p_8c.html" target="_top" xlink:title="Functions to close an atomes project &#160;&#160;Callbacks to close an atomes project.">
<polygon fill="white" stroke="#666666" points="4844,-41 4706,-41 4706,0 4844,0 4844,-41"/>
<text text-anchor="start" x="4714" y="-29" font-family="Helvetica,sans-Serif" font-size="10.00">/home/slookeur/files</text>
<text text-anchor="start" x="4714" y="-18" font-family="Helvetica,sans-Serif" font-size="10.00">/codeblocks&#45;files/atomes</text>
<text text-anchor="middle" x="4775" y="-7" font-family="Helvetica,sans-Serif" font-size="10.00">/src/project/close_p.c</text>
</a>
</g>
</g>
<!-- Node1&#45;&gt;Node32 -->
<g id="edge31_Node000001_Node000032" class="edge">
<title>Node1&#45;&gt;Node32</title>
<g id="a_edge31_Node000001_Node000032"><a xlink:title=" ">
<path fill="none" stroke="#63b8ff" d="M2644.25,-96.76C2980.3,-97.49 4288.96,-96.63 4697,-41 4699.9,-40.6 4702.86,-40.14 4705.83,-39.63"/>
<polygon fill="#63b8ff" stroke="#63b8ff" points="2644.13,-93.26 2634.12,-96.73 2644.11,-100.26 2644.13,-93.26"/>
</a>
</g>
</g>
<!-- Node33 -->
<g id="Node000033" class="node">
<title>Node33</title>
<g id="a_Node000033"><a xlink:href="../../df/dd5/init__p_8c.html" target="_top" xlink:title="Functions to initialize an atomes project.">
<polygon fill="white" stroke="#666666" points="5000,-41 4862,-41 4862,0 5000,0 5000,-41"/>
<text text-anchor="start" x="4870" y="-29" font-family="Helvetica,sans-Serif" font-size="10.00">/home/slookeur/files</text>
<text text-anchor="start" x="4870" y="-18" font-family="Helvetica,sans-Serif" font-size="10.00">/codeblocks&#45;files/atomes</text>
<text text-anchor="middle" x="4931" y="-7" font-family="Helvetica,sans-Serif" font-size="10.00">/src/project/init_p.c</text>
</a>
</g>
</g>
<!-- Node1&#45;&gt;Node33 -->
<g id="edge32_Node000001_Node000033" class="edge">
<title>Node1&#45;&gt;Node33</title>
<g id="a_edge32_Node000001_Node000033"><a xlink:title=" ">
<path fill="none" stroke="#63b8ff" d="M2644.19,-96.92C2995.2,-98.43 4412.66,-100.64 4853,-41 4855.9,-40.61 4858.86,-40.15 4861.83,-39.63"/>
<polygon fill="#63b8ff" stroke="#63b8ff" points="2644.14,-93.42 2634.12,-96.88 2644.1,-100.42 2644.14,-93.42"/>
</a>
</g>
</g>
<!-- Node34 -->
<g id="Node000034" class="node">
<title>Node34</title>
<g id="a_Node000034"><a xlink:href="../../da/d5e/open__p_8c.html" target="_top" xlink:title="Functions to start the reading of an atomes project file.">
<polygon fill="white" stroke="#666666" points="5156,-41 5018,-41 5018,0 5156,0 5156,-41"/>
<text text-anchor="start" x="5026" y="-29" font-family="Helvetica,sans-Serif" font-size="10.00">/home/slookeur/files</text>
<text text-anchor="start" x="5026" y="-18" font-family="Helvetica,sans-Serif" font-size="10.00">/codeblocks&#45;files/atomes</text>
<text text-anchor="middle" x="5087" y="-7" font-family="Helvetica,sans-Serif" font-size="10.00">/src/project/open_p.c</text>
</a>
</g>
</g>
<!-- Node1&#45;&gt;Node34 -->
<g id="edge33_Node000001_Node000034" class="edge">
<title>Node1&#45;&gt;Node34</title>
<g id="a_edge33_Node000001_Node000034"><a xlink:title=" ">
<path fill="none" stroke="#63b8ff" d="M2644.14,-95.75C3037.26,-91.88 4770.57,-73.1 5009,-41 5011.91,-40.61 5014.86,-40.15 5017.83,-39.64"/>
<polygon fill="#63b8ff" stroke="#63b8ff" points="2643.97,-92.25 2634,-95.85 2644.04,-99.25 2643.97,-92.25"/>
</a>
</g>
</g>
</g>
</svg>

<g id="navigator" transform="translate(0 0)" fill="#404254">
  <rect fill="#f2f5e9" fill-opacity="0.5" stroke="#606060" stroke-width=".5" x="0" y="0" width="60" height="60"/>
  <use id="zoomplus" xlink:href="#zoomPlus" x="17" y="9" onmousedown="handleZoom(evt,'in')"/>
  <use id="zoomminus" xlink:href="#zoomMin" x="42" y="9" onmousedown="handleZoom(evt,'out')"/>
  <use id="reset" xlink:href="#resetDef" x="30" y="36" onmousedown="handleReset()"/>
   <use id="arrowup" xlink:href="#arrowUp" x="0" y="0" onmousedown="handlePan(0,-1)"/>
  <use id="arrowright" xlink:href="#arrowRight" x="0" y="0" onmousedown="handlePan(1,0)"/>
  <use id="arrowdown" xlink:href="#arrowDown" x="0" y="0" onmousedown="handlePan(0,1)"/>
  <use id="arrowleft" xlink:href="#arrowLeft" x="0" y="0" onmousedown="handlePan(-1,0)"/>
</g>
<svg viewBox="0 0 15 15" width="100%" height="30px" preserveAspectRatio="xMaxYMin meet">
 <g id="arrow_out" transform="scale(0.3 0.3)">
  <a xlink:href="curve_8h__dep__incl_org.svg" target="_base">
   <rect id="button" ry="5" rx="5" y="6" x="6" height="38" width="38"
        fill="#f2f5e9" fill-opacity="0.5" stroke="#606060" stroke-width="1.0"/>
   <path id="arrow"
     d="M 11.500037,31.436501 C 11.940474,20.09759 22.043105,11.32322 32.158766,21.979434 L 37.068811,17.246167 C 37.068811,17.246167 37.088388,32 37.088388,32 L 22.160133,31.978069 C 22.160133,31.978069 26.997745,27.140456 26.997745,27.140456 C 18.528582,18.264221 13.291696,25.230495 11.500037,31.436501 z"
     style="fill:#404040;"/>
  </a>
 </g>
</svg>

<style type='text/css'>
<![CDATA[
[data-mouse-over-selected='false'] { opacity: 0.7; }
[data-mouse-over-selected='true']  { opacity: 1.0; }
]]>
</style>
<script type="application/ecmascript"><![CDATA[
document.addEventListener('DOMContentLoaded', (event) => {
  highlightEdges();
  highlightAdjacentNodes();
});
]]></script>
</svg>
