<?xml version="1.0" encoding="UTF-8" standalone="no"?>
<!DOCTYPE svg PUBLIC "-//W3C//DTD SVG 1.1//EN"
 "http://www.w3.org/Graphics/SVG/1.1/DTD/svg11.dtd">
<!-- Generated by graphviz version 14.1.4 (20260321.0153)
 -->
<!-- Title: curve/curve.h Pages: 1 -->
<svg width="3234pt" height="84pt"
 viewBox="0.00 0.00 3234.00 84.00" xmlns="http://www.w3.org/2000/svg" xmlns:xlink="http://www.w3.org/1999/xlink">
<g id="graph0" class="graph" transform="scale(1 1) rotate(0) translate(4 80)">
<title>curve/curve.h</title>
<!-- Node1 -->
<g id="Node000001" class="node">
<title>Node1</title>
<g id="a_Node000001"><a xlink:title="Variable declarations for the curve widget &#160;&#160;Functions for interactions with the curve widget.">
<polygon fill="#999999" stroke="#666666" points="1627.75,-76 1552.5,-76 1552.5,-56 1627.75,-56 1627.75,-76"/>
<text xml:space="preserve" text-anchor="middle" x="1590.12" y="-62.5" font-family="Helvetica,sans-Serif" font-size="10.00">curve/curve.h</text>
</a>
</g>
</g>
<!-- Node2 -->
<g id="Node000002" class="node">
<title>Node2</title>
<g id="a_Node000002"><a xlink:href="../../d3/d0c/cedit_8c.html" target="_top" xlink:title="Initialization of the curve layout edition dialog.">
<polygon fill="white" stroke="#666666" points="72.25,-20 0,-20 0,0 72.25,0 72.25,-20"/>
<text xml:space="preserve" text-anchor="middle" x="36.12" y="-6.5" font-family="Helvetica,sans-Serif" font-size="10.00">curve/cedit.c</text>
</a>
</g>
</g>
<!-- Node1&#45;&gt;Node2 -->
<g id="edge1_Node000001_Node000002" class="edge">
<title>Node1&#45;&gt;Node2</title>
<g id="a_edge1_Node000001_Node000002"><a xlink:title=" ">
<path fill="none" stroke="#63b8ff" d="M1540.8,-64.64C1314.44,-62.82 373.57,-53.37 81.12,-20 78.28,-19.67 75.34,-19.26 72.39,-18.8"/>
<polygon fill="#63b8ff" stroke="#63b8ff" points="1540.72,-68.14 1550.75,-64.72 1540.78,-61.14 1540.72,-68.14"/>
</a>
</g>
</g>
<!-- Node3 -->
<g id="Node000003" class="node">
<title>Node3</title>
<g id="a_Node000003"><a xlink:href="../../dc/d22/curve_8c.html" target="_top" xlink:title="Functions to manage curves.">
<polygon fill="white" stroke="#666666" points="165.75,-20 90.5,-20 90.5,0 165.75,0 165.75,-20"/>
<text xml:space="preserve" text-anchor="middle" x="128.12" y="-6.5" font-family="Helvetica,sans-Serif" font-size="10.00">curve/curve.c</text>
</a>
</g>
</g>
<!-- Node1&#45;&gt;Node3 -->
<g id="edge2_Node000001_Node000003" class="edge">
<title>Node1&#45;&gt;Node3</title>
<g id="a_edge2_Node000001_Node000003"><a xlink:title=" ">
<path fill="none" stroke="#63b8ff" d="M1540.7,-64.5C1322.86,-62.13 447.26,-50.86 174.12,-20 171.54,-19.71 168.88,-19.35 166.21,-18.94"/>
<polygon fill="#63b8ff" stroke="#63b8ff" points="1540.49,-68 1550.53,-64.61 1540.57,-61 1540.49,-68"/>
</a>
</g>
</g>
<!-- Node4 -->
<g id="Node000004" class="node">
<title>Node4</title>
<g id="a_Node000004"><a xlink:href="../../d4/d80/cwidget_8c.html" target="_top" xlink:title="Initialization of the curve widget.">
<polygon fill="white" stroke="#666666" points="268.62,-20 183.62,-20 183.62,0 268.62,0 268.62,-20"/>
<text xml:space="preserve" text-anchor="middle" x="226.12" y="-6.5" font-family="Helvetica,sans-Serif" font-size="10.00">curve/cwidget.c</text>
</a>
</g>
</g>
<!-- Node1&#45;&gt;Node4 -->
<g id="edge3_Node000001_Node000004" class="edge">
<title>Node1&#45;&gt;Node4</title>
<g id="a_edge3_Node000001_Node000004"><a xlink:title=" ">
<path fill="none" stroke="#63b8ff" d="M1540.65,-64.24C1332.75,-60.88 529.13,-46.42 277.12,-20 274.44,-19.72 271.69,-19.38 268.92,-19"/>
<polygon fill="#63b8ff" stroke="#63b8ff" points="1540.5,-67.73 1550.56,-64.39 1540.62,-60.73 1540.5,-67.73"/>
</a>
</g>
</g>
<!-- Node5 -->
<g id="Node000005" class="node">
<title>Node5</title>
<g id="a_Node000005"><a xlink:href="../../da/dae/datab_8c.html" target="_top" xlink:title="Curve data edition window and associated callbacks.">
<polygon fill="white" stroke="#666666" points="361.75,-20 286.5,-20 286.5,0 361.75,0 361.75,-20"/>
<text xml:space="preserve" text-anchor="middle" x="324.12" y="-6.5" font-family="Helvetica,sans-Serif" font-size="10.00">curve/datab.c</text>
</a>
</g>
</g>
<!-- Node1&#45;&gt;Node5 -->
<g id="edge4_Node000001_Node000005" class="edge">
<title>Node1&#45;&gt;Node5</title>
<g id="a_edge4_Node000001_Node000005"><a xlink:title=" ">
<path fill="none" stroke="#63b8ff" d="M1540.63,-64.21C1342.04,-60.87 602.64,-46.87 370.12,-20 367.54,-19.7 364.88,-19.34 362.21,-18.93"/>
<polygon fill="#63b8ff" stroke="#63b8ff" points="1540.54,-67.71 1550.6,-64.37 1540.66,-60.71 1540.54,-67.71"/>
</a>
</g>
</g>
<!-- Node6 -->
<g id="Node000006" class="node">
<title>Node6</title>
<g id="a_Node000006"><a xlink:href="../../d6/dd9/draw_8c.html" target="_top" xlink:title="Function to draw a curve.">
<polygon fill="white" stroke="#666666" points="450.88,-20 379.38,-20 379.38,0 450.88,0 450.88,-20"/>
<text xml:space="preserve" text-anchor="middle" x="415.12" y="-6.5" font-family="Helvetica,sans-Serif" font-size="10.00">curve/draw.c</text>
</a>
</g>
</g>
<!-- Node1&#45;&gt;Node6 -->
<g id="edge5_Node000001_Node000006" class="edge">
<title>Node1&#45;&gt;Node6</title>
<g id="a_edge5_Node000001_Node000006"><a xlink:title=" ">
<path fill="none" stroke="#63b8ff" d="M1540.6,-64.07C1351.38,-60.34 674.01,-45.49 460.12,-20 457.12,-19.64 454.01,-19.19 450.9,-18.68"/>
<polygon fill="#63b8ff" stroke="#63b8ff" points="1540.51,-67.57 1550.58,-64.26 1540.65,-60.57 1540.51,-67.57"/>
</a>
</g>
</g>
<!-- Node7 -->
<g id="Node000007" class="node">
<title>Node7</title>
<g id="a_Node000007"><a xlink:href="../../dd/dbe/frame_8c.html" target="_top" xlink:title="Functions to draw the frame.">
<polygon fill="white" stroke="#666666" points="545.12,-20 469.12,-20 469.12,0 545.12,0 545.12,-20"/>
<text xml:space="preserve" text-anchor="middle" x="507.12" y="-6.5" font-family="Helvetica,sans-Serif" font-size="10.00">curve/frame.c</text>
</a>
</g>
</g>
<!-- Node1&#45;&gt;Node7 -->
<g id="edge6_Node000001_Node000007" class="edge">
<title>Node1&#45;&gt;Node7</title>
<g id="a_edge6_Node000001_Node000007"><a xlink:title=" ">
<path fill="none" stroke="#63b8ff" d="M1540.91,-65.4C1391.77,-66.07 931.92,-64.14 554.12,-20 551.32,-19.67 548.43,-19.27 545.53,-18.83"/>
<polygon fill="#63b8ff" stroke="#63b8ff" points="1540.84,-68.9 1550.82,-65.35 1540.8,-61.9 1540.84,-68.9"/>
</a>
</g>
</g>
<!-- Node8 -->
<g id="Node000008" class="node">
<title>Node8</title>
<g id="a_Node000008"><a xlink:href="../../d8/da4/glyph_8c.html" target="_top" xlink:title="Functions to draw the glyphs.">
<polygon fill="white" stroke="#666666" points="637.38,-20 562.88,-20 562.88,0 637.38,0 637.38,-20"/>
<text xml:space="preserve" text-anchor="middle" x="600.12" y="-6.5" font-family="Helvetica,sans-Serif" font-size="10.00">curve/glyph.c</text>
</a>
</g>
</g>
<!-- Node1&#45;&gt;Node8 -->
<g id="edge7_Node000001_Node000008" class="edge">
<title>Node1&#45;&gt;Node8</title>
<g id="a_edge7_Node000001_Node000008"><a xlink:title=" ">
<path fill="none" stroke="#63b8ff" d="M1541.08,-65.1C1401.03,-64.86 987.48,-60.5 647.12,-20 644.07,-19.64 640.92,-19.19 637.76,-18.69"/>
<polygon fill="#63b8ff" stroke="#63b8ff" points="1540.72,-68.6 1550.72,-65.11 1540.73,-61.6 1540.72,-68.6"/>
</a>
</g>
</g>
<!-- Node9 -->
<g id="Node000009" class="node">
<title>Node9</title>
<g id="a_Node000009"><a xlink:href="../../de/d87/labels_8c.html" target="_top" xlink:title="Function to draw the axis labels.">
<polygon fill="white" stroke="#666666" points="732.5,-20 655.75,-20 655.75,0 732.5,0 732.5,-20"/>
<text xml:space="preserve" text-anchor="middle" x="694.12" y="-6.5" font-family="Helvetica,sans-Serif" font-size="10.00">curve/labels.c</text>
</a>
</g>
</g>
<!-- Node1&#45;&gt;Node9 -->
<g id="edge8_Node000001_Node000009" class="edge">
<title>Node1&#45;&gt;Node9</title>
<g id="a_edge8_Node000001_Node000009"><a xlink:title=" ">
<path fill="none" stroke="#63b8ff" d="M1541.14,-64.73C1410.61,-63.52 1043.72,-56.82 741.12,-20 738.4,-19.67 735.6,-19.27 732.79,-18.84"/>
<polygon fill="#63b8ff" stroke="#63b8ff" points="1540.76,-68.23 1550.79,-64.82 1540.82,-61.23 1540.76,-68.23"/>
</a>
</g>
</g>
<!-- Node10 -->
<g id="Node000010" class="node">
<title>Node10</title>
<g id="a_Node000010"><a xlink:href="../../d7/d40/legend_8c.html" target="_top" xlink:title="Function to draw the legend.">
<polygon fill="white" stroke="#666666" points="830,-20 750.25,-20 750.25,0 830,0 830,-20"/>
<text xml:space="preserve" text-anchor="middle" x="790.12" y="-6.5" font-family="Helvetica,sans-Serif" font-size="10.00">curve/legend.c</text>
</a>
</g>
</g>
<!-- Node1&#45;&gt;Node10 -->
<g id="edge9_Node000001_Node000010" class="edge">
<title>Node1&#45;&gt;Node10</title>
<g id="a_edge9_Node000001_Node000010"><a xlink:title=" ">
<path fill="none" stroke="#63b8ff" d="M1540.71,-64.12C1420.31,-61.52 1102.33,-51.94 839.12,-20 836.29,-19.66 833.37,-19.25 830.44,-18.81"/>
<polygon fill="#63b8ff" stroke="#63b8ff" points="1540.49,-67.61 1550.56,-64.32 1540.64,-60.62 1540.49,-67.61"/>
</a>
</g>
</g>
<!-- Node11 -->
<g id="Node000011" class="node">
<title>Node11</title>
<g id="a_Node000011"><a xlink:href="../../d9/d29/m__curve_8c.html" target="_top" xlink:title="Curve context menu (mouse right click).">
<polygon fill="white" stroke="#666666" points="936.5,-20 847.75,-20 847.75,0 936.5,0 936.5,-20"/>
<text xml:space="preserve" text-anchor="middle" x="892.12" y="-6.5" font-family="Helvetica,sans-Serif" font-size="10.00">curve/m_curve.c</text>
</a>
</g>
</g>
<!-- Node1&#45;&gt;Node11 -->
<g id="edge10_Node000001_Node000011" class="edge">
<title>Node1&#45;&gt;Node11</title>
<g id="a_edge10_Node000001_Node000011"><a xlink:title=" ">
<path fill="none" stroke="#63b8ff" d="M1540.7,-63.21C1432.46,-58.94 1166.43,-46.45 945.12,-20 942.44,-19.68 939.68,-19.31 936.9,-18.92"/>
<polygon fill="#63b8ff" stroke="#63b8ff" points="1540.56,-66.71 1550.69,-63.6 1540.83,-59.72 1540.56,-66.71"/>
</a>
</g>
</g>
<!-- Node12 -->
<g id="Node000012" class="node">
<title>Node12</title>
<g id="a_Node000012"><a xlink:href="../../df/dd0/show_8c.html" target="_top" xlink:title="Functions to draw the complete graph.">
<polygon fill="white" stroke="#666666" points="1028,-20 954.25,-20 954.25,0 1028,0 1028,-20"/>
<text xml:space="preserve" text-anchor="middle" x="991.12" y="-6.5" font-family="Helvetica,sans-Serif" font-size="10.00">curve/show.c</text>
</a>
</g>
</g>
<!-- Node1&#45;&gt;Node12 -->
<g id="edge11_Node000001_Node000012" class="edge">
<title>Node1&#45;&gt;Node12</title>
<g id="a_edge11_Node000001_Node000012"><a xlink:title=" ">
<path fill="none" stroke="#63b8ff" d="M1540.51,-62.91C1443.32,-58.38 1221.21,-45.94 1036.12,-20 1033.6,-19.65 1031,-19.24 1028.39,-18.8"/>
<polygon fill="#63b8ff" stroke="#63b8ff" points="1540.35,-66.4 1550.5,-63.36 1540.67,-59.41 1540.35,-66.4"/>
</a>
</g>
</g>
<!-- Node13 -->
<g id="Node000013" class="node">
<title>Node13</title>
<g id="a_Node000013"><a xlink:href="../../df/df7/tab-1_8c.html" target="_top" xlink:title="1st tab of the curve layout edition dialog">
<polygon fill="white" stroke="#666666" points="1118.62,-20 1045.62,-20 1045.62,0 1118.62,0 1118.62,-20"/>
<text xml:space="preserve" text-anchor="middle" x="1082.12" y="-6.5" font-family="Helvetica,sans-Serif" font-size="10.00">curve/tab&#45;1.c</text>
</a>
</g>
</g>
<!-- Node1&#45;&gt;Node13 -->
<g id="edge12_Node000001_Node000013" class="edge">
<title>Node1&#45;&gt;Node13</title>
<g id="a_edge12_Node000001_Node000013"><a xlink:title=" ">
<path fill="none" stroke="#63b8ff" d="M1540.82,-61.84C1455.99,-56.05 1277.05,-42.22 1127.12,-20 1124.45,-19.6 1121.68,-19.15 1118.91,-18.67"/>
<polygon fill="#63b8ff" stroke="#63b8ff" points="1540.43,-65.32 1550.65,-62.51 1540.91,-58.34 1540.43,-65.32"/>
</a>
</g>
</g>
<!-- Node14 -->
<g id="Node000014" class="node">
<title>Node14</title>
<g id="a_Node000014"><a xlink:href="../../de/d1f/tab-2_8c.html" target="_top" xlink:title="2nd tab of the curve layout edition dialog">
<polygon fill="white" stroke="#666666" points="1209.62,-20 1136.62,-20 1136.62,0 1209.62,0 1209.62,-20"/>
<text xml:space="preserve" text-anchor="middle" x="1173.12" y="-6.5" font-family="Helvetica,sans-Serif" font-size="10.00">curve/tab&#45;2.c</text>
</a>
</g>
</g>
<!-- Node1&#45;&gt;Node14 -->
<g id="edge13_Node000001_Node000014" class="edge">
<title>Node1&#45;&gt;Node14</title>
<g id="a_edge13_Node000001_Node000014"><a xlink:title=" ">
<path fill="none" stroke="#63b8ff" d="M1540.94,-60.27C1469.58,-53.13 1333.28,-38.45 1218.12,-20 1215.45,-19.57 1212.69,-19.1 1209.92,-18.6"/>
<polygon fill="#63b8ff" stroke="#63b8ff" points="1540.43,-63.74 1550.73,-61.24 1541.12,-56.77 1540.43,-63.74"/>
</a>
</g>
</g>
<!-- Node15 -->
<g id="Node000015" class="node">
<title>Node15</title>
<g id="a_Node000015"><a xlink:href="../../d1/d6f/tab-3_8c.html" target="_top" xlink:title="3rd tab of the curve layout edition dialog">
<polygon fill="white" stroke="#666666" points="1300.62,-20 1227.62,-20 1227.62,0 1300.62,0 1300.62,-20"/>
<text xml:space="preserve" text-anchor="middle" x="1264.12" y="-6.5" font-family="Helvetica,sans-Serif" font-size="10.00">curve/tab&#45;3.c</text>
</a>
</g>
</g>
<!-- Node1&#45;&gt;Node15 -->
<g id="edge14_Node000001_Node000015" class="edge">
<title>Node1&#45;&gt;Node15</title>
<g id="a_edge14_Node000001_Node000015"><a xlink:title=" ">
<path fill="none" stroke="#63b8ff" d="M1540.94,-57.71C1484.77,-49.25 1390.16,-34.59 1309.12,-20 1306.46,-19.52 1303.71,-19.01 1300.94,-18.48"/>
<polygon fill="#63b8ff" stroke="#63b8ff" points="1540.42,-61.17 1550.83,-59.2 1541.46,-54.25 1540.42,-61.17"/>
</a>
</g>
</g>
<!-- Node16 -->
<g id="Node000016" class="node">
<title>Node16</title>
<g id="a_Node000016"><a xlink:href="../../d8/d62/tab-4_8c.html" target="_top" xlink:title="4th tab of the curve layout edition dialog">
<polygon fill="white" stroke="#666666" points="1391.62,-20 1318.62,-20 1318.62,0 1391.62,0 1391.62,-20"/>
<text xml:space="preserve" text-anchor="middle" x="1355.12" y="-6.5" font-family="Helvetica,sans-Serif" font-size="10.00">curve/tab&#45;4.c</text>
</a>
</g>
</g>
<!-- Node1&#45;&gt;Node16 -->
<g id="edge15_Node000001_Node000016" class="edge">
<title>Node1&#45;&gt;Node16</title>
<g id="a_edge15_Node000001_Node000016"><a xlink:title=" ">
<path fill="none" stroke="#63b8ff" d="M1540.98,-53.71C1496.53,-43.49 1432.07,-28.68 1391.93,-19.46"/>
<polygon fill="#63b8ff" stroke="#63b8ff" points="1540.1,-57.1 1550.63,-55.92 1541.67,-50.27 1540.1,-57.1"/>
</a>
</g>
</g>
<!-- Node17 -->
<g id="Node000017" class="node">
<title>Node17</title>
<g id="a_Node000017"><a xlink:href="../../d9/d0e/title_8c.html" target="_top" xlink:title="Functions to draw the title.">
<polygon fill="white" stroke="#666666" points="1476.62,-20 1409.62,-20 1409.62,0 1476.62,0 1476.62,-20"/>
<text xml:space="preserve" text-anchor="middle" x="1443.12" y="-6.5" font-family="Helvetica,sans-Serif" font-size="10.00">curve/title.c</text>
</a>
</g>
</g>
<!-- Node1&#45;&gt;Node17 -->
<g id="edge16_Node000001_Node000017" class="edge">
<title>Node1&#45;&gt;Node17</title>
<g id="a_edge16_Node000001_Node000017"><a xlink:title=" ">
<path fill="none" stroke="#63b8ff" d="M1553.82,-51.66C1527.47,-41.98 1492.46,-29.12 1468.93,-20.48"/>
<polygon fill="#63b8ff" stroke="#63b8ff" points="1552.51,-54.91 1563.1,-55.07 1554.92,-48.34 1552.51,-54.91"/>
</a>
</g>
</g>
<!-- Node18 -->
<g id="Node000018" class="node">
<title>Node18</title>
<g id="a_Node000018"><a xlink:href="../../d2/d04/w__curve_8c.html" target="_top" xlink:title="Functions to create the graph/curve window.">
<polygon fill="white" stroke="#666666" points="1583.12,-20 1495.12,-20 1495.12,0 1583.12,0 1583.12,-20"/>
<text xml:space="preserve" text-anchor="middle" x="1539.12" y="-6.5" font-family="Helvetica,sans-Serif" font-size="10.00">curve/w_curve.c</text>
</a>
</g>
</g>
<!-- Node1&#45;&gt;Node18 -->
<g id="edge17_Node000001_Node000018" class="edge">
<title>Node1&#45;&gt;Node18</title>
<g id="a_edge17_Node000001_Node000018"><a xlink:title=" ">
<path fill="none" stroke="#63b8ff" d="M1573.39,-47.29C1564.89,-38.28 1554.9,-27.7 1547.91,-20.3"/>
<polygon fill="#63b8ff" stroke="#63b8ff" points="1570.79,-49.63 1580.2,-54.49 1575.88,-44.82 1570.79,-49.63"/>
</a>
</g>
</g>
<!-- Node19 -->
<g id="Node000019" class="node">
<title>Node19</title>
<g id="a_Node000019"><a xlink:href="../../df/d15/w__data_8c.html" target="_top" xlink:title="Functions to export curve data.">
<polygon fill="white" stroke="#666666" points="1683.5,-20 1600.75,-20 1600.75,0 1683.5,0 1683.5,-20"/>
<text xml:space="preserve" text-anchor="middle" x="1642.12" y="-6.5" font-family="Helvetica,sans-Serif" font-size="10.00">curve/w_data.c</text>
</a>
</g>
</g>
<!-- Node1&#45;&gt;Node19 -->
<g id="edge18_Node000001_Node000019" class="edge">
<title>Node1&#45;&gt;Node19</title>
<g id="a_edge18_Node000001_Node000019"><a xlink:title=" ">
<path fill="none" stroke="#63b8ff" d="M1606.91,-47.57C1615.64,-38.5 1625.97,-27.78 1633.17,-20.3"/>
<polygon fill="#63b8ff" stroke="#63b8ff" points="1604.65,-44.87 1600.23,-54.5 1609.69,-49.73 1604.65,-44.87"/>
</a>
</g>
</g>
<!-- Node20 -->
<g id="Node000020" class="node">
<title>Node20</title>
<g id="a_Node000020"><a xlink:href="../../dc/dc8/w__img_8c.html" target="_top" xlink:title="Functions to save screenshot from graph / curve(s).">
<polygon fill="white" stroke="#666666" points="1781,-20 1701.25,-20 1701.25,0 1781,0 1781,-20"/>
<text xml:space="preserve" text-anchor="middle" x="1741.12" y="-6.5" font-family="Helvetica,sans-Serif" font-size="10.00">curve/w_img.c</text>
</a>
</g>
</g>
<!-- Node1&#45;&gt;Node20 -->
<g id="edge19_Node000001_Node000020" class="edge">
<title>Node1&#45;&gt;Node20</title>
<g id="a_edge19_Node000001_Node000020"><a xlink:title=" ">
<path fill="none" stroke="#63b8ff" d="M1627.06,-51.79C1654.17,-42.1 1690.34,-29.16 1714.62,-20.48"/>
<polygon fill="#63b8ff" stroke="#63b8ff" points="1626.09,-48.42 1617.85,-55.08 1628.45,-55.01 1626.09,-48.42"/>
</a>
</g>
</g>
<!-- Node21 -->
<g id="Node000021" class="node">
<title>Node21</title>
<g id="a_Node000021"><a xlink:href="../../d2/d12/xaxis_8c.html" target="_top" xlink:title="Functions to draw the x axis.">
<polygon fill="white" stroke="#666666" points="1873.38,-20 1798.88,-20 1798.88,0 1873.38,0 1873.38,-20"/>
<text xml:space="preserve" text-anchor="middle" x="1836.12" y="-6.5" font-family="Helvetica,sans-Serif" font-size="10.00">curve/xaxis.c</text>
</a>
</g>
</g>
<!-- Node1&#45;&gt;Node21 -->
<g id="edge20_Node000001_Node000021" class="edge">
<title>Node1&#45;&gt;Node21</title>
<g id="a_edge20_Node000001_Node000021"><a xlink:title=" ">
<path fill="none" stroke="#63b8ff" d="M1639.14,-54.24C1686.08,-43.94 1755.91,-28.61 1798.59,-19.24"/>
<polygon fill="#63b8ff" stroke="#63b8ff" points="1638.52,-50.79 1629.5,-56.36 1640.02,-57.63 1638.52,-50.79"/>
</a>
</g>
</g>
<!-- Node22 -->
<g id="Node000022" class="node">
<title>Node22</title>
<g id="a_Node000022"><a xlink:href="../../df/dfb/yaxis_8c.html" target="_top" xlink:title="Functions to draw the y axis.">
<polygon fill="white" stroke="#666666" points="1966.38,-20 1891.88,-20 1891.88,0 1966.38,0 1966.38,-20"/>
<text xml:space="preserve" text-anchor="middle" x="1929.12" y="-6.5" font-family="Helvetica,sans-Serif" font-size="10.00">curve/yaxis.c</text>
</a>
</g>
</g>
<!-- Node1&#45;&gt;Node22 -->
<g id="edge21_Node000001_Node000022" class="edge">
<title>Node1&#45;&gt;Node22</title>
<g id="a_edge21_Node000001_Node000022"><a xlink:title=" ">
<path fill="none" stroke="#63b8ff" d="M1639.04,-58.02C1697.11,-49.6 1796.83,-34.73 1882.12,-20 1885.15,-19.48 1888.29,-18.92 1891.44,-18.34"/>
<polygon fill="#63b8ff" stroke="#63b8ff" points="1638.89,-54.5 1629.49,-59.4 1639.89,-61.43 1638.89,-54.5"/>
</a>
</g>
</g>
<!-- Node23 -->
<g id="Node000023" class="node">
<title>Node23</title>
<g id="a_Node000023"><a xlink:href="../../d5/d34/bdcall_8c.html" target="_top" xlink:title="Callbacks for the bond properties calculation dialog.">
<polygon fill="white" stroke="#666666" points="2049.88,-20 1984.38,-20 1984.38,0 2049.88,0 2049.88,-20"/>
<text xml:space="preserve" text-anchor="middle" x="2017.12" y="-6.5" font-family="Helvetica,sans-Serif" font-size="10.00">gui/bdcall.c</text>
</a>
</g>
</g>
<!-- Node1&#45;&gt;Node23 -->
<g id="edge22_Node000001_Node000023" class="edge">
<title>Node1&#45;&gt;Node23</title>
<g id="a_edge22_Node000001_Node000023"><a xlink:title=" ">
<path fill="none" stroke="#63b8ff" d="M1639.16,-60.77C1712.52,-54.1 1855.06,-39.83 1975.12,-20 1978.07,-19.51 1981.12,-18.96 1984.17,-18.37"/>
<polygon fill="#63b8ff" stroke="#63b8ff" points="1639.15,-57.26 1629.51,-61.64 1639.78,-64.23 1639.15,-57.26"/>
</a>
</g>
</g>
<!-- Node24 -->
<g id="Node000024" class="node">
<title>Node24</title>
<g id="a_Node000024"><a xlink:href="../../d2/d01/chainscall_8c.html" target="_top" xlink:title="Callbacks for the chains statistics calculation dialog.">
<polygon fill="white" stroke="#666666" points="2151.88,-20 2068.38,-20 2068.38,0 2151.88,0 2151.88,-20"/>
<text xml:space="preserve" text-anchor="middle" x="2110.12" y="-6.5" font-family="Helvetica,sans-Serif" font-size="10.00">gui/chainscall.c</text>
</a>
</g>
</g>
<!-- Node1&#45;&gt;Node24 -->
<g id="edge23_Node000001_Node000024" class="edge">
<title>Node1&#45;&gt;Node24</title>
<g id="a_edge23_Node000001_Node000024"><a xlink:title=" ">
<path fill="none" stroke="#63b8ff" d="M1639.69,-61.54C1725.41,-55.26 1906.82,-40.71 2059.12,-20 2062.06,-19.6 2065.09,-19.15 2068.14,-18.68"/>
<polygon fill="#63b8ff" stroke="#63b8ff" points="1639.47,-58.05 1629.75,-62.26 1639.97,-65.03 1639.47,-58.05"/>
</a>
</g>
</g>
<!-- Node25 -->
<g id="Node000025" class="node">
<title>Node25</title>
<g id="a_Node000025"><a xlink:href="../../dc/d6b/grcall_8c.html" target="_top" xlink:title="Callbacks for the g(r)/g(k) calculation dialog.">
<polygon fill="white" stroke="#666666" points="2232.75,-20 2169.5,-20 2169.5,0 2232.75,0 2232.75,-20"/>
<text xml:space="preserve" text-anchor="middle" x="2201.12" y="-6.5" font-family="Helvetica,sans-Serif" font-size="10.00">gui/grcall.c</text>
</a>
</g>
</g>
<!-- Node1&#45;&gt;Node25 -->
<g id="edge24_Node000001_Node000025" class="edge">
<title>Node1&#45;&gt;Node25</title>
<g id="a_edge24_Node000001_Node000025"><a xlink:title=" ">
<path fill="none" stroke="#63b8ff" d="M1639.54,-63.48C1738.85,-59.9 1969.56,-48.95 2161.12,-20 2163.8,-19.6 2166.56,-19.11 2169.33,-18.58"/>
<polygon fill="#63b8ff" stroke="#63b8ff" points="1639.47,-59.98 1629.6,-63.83 1639.72,-66.97 1639.47,-59.98"/>
</a>
</g>
</g>
<!-- Node26 -->
<g id="Node000026" class="node">
<title>Node26</title>
<g id="a_Node000026"><a xlink:href="../../dd/dda/interface_8c.html" target="_top" xlink:title="General messaging functions.">
<polygon fill="white" stroke="#666666" points="2327.88,-20 2250.38,-20 2250.38,0 2327.88,0 2327.88,-20"/>
<text xml:space="preserve" text-anchor="middle" x="2289.12" y="-6.5" font-family="Helvetica,sans-Serif" font-size="10.00">gui/interface.c</text>
</a>
</g>
</g>
<!-- Node1&#45;&gt;Node26 -->
<g id="edge25_Node000001_Node000026" class="edge">
<title>Node1&#45;&gt;Node26</title>
<g id="a_edge25_Node000001_Node000026"><a xlink:title=" ">
<path fill="none" stroke="#63b8ff" d="M1639.4,-63.62C1748.44,-60.13 2018.21,-49.06 2242.12,-20 2244.68,-19.67 2247.3,-19.29 2249.94,-18.87"/>
<polygon fill="#63b8ff" stroke="#63b8ff" points="1639.53,-60.12 1629.64,-63.93 1639.75,-67.11 1639.53,-60.12"/>
</a>
</g>
</g>
<!-- Node27 -->
<g id="Node000027" class="node">
<title>Node27</title>
<g id="a_Node000027"><a xlink:href="../../d8/d2b/msdcall_8c.html" target="_top" xlink:title="Callbacks for the MSD calculation dialog.">
<polygon fill="white" stroke="#666666" points="2420,-20 2346.25,-20 2346.25,0 2420,0 2420,-20"/>
<text xml:space="preserve" text-anchor="middle" x="2383.12" y="-6.5" font-family="Helvetica,sans-Serif" font-size="10.00">gui/msdcall.c</text>
</a>
</g>
</g>
<!-- Node1&#45;&gt;Node27 -->
<g id="edge26_Node000001_Node000027" class="edge">
<title>Node1&#45;&gt;Node27</title>
<g id="a_edge26_Node000001_Node000027"><a xlink:title=" ">
<path fill="none" stroke="#63b8ff" d="M1639.3,-64.3C1759.11,-62.09 2075.51,-53.32 2337.12,-20 2339.95,-19.64 2342.86,-19.21 2345.79,-18.74"/>
<polygon fill="#63b8ff" stroke="#63b8ff" points="1639.44,-60.79 1629.5,-64.47 1639.56,-67.79 1639.44,-60.79"/>
</a>
</g>
</g>
<!-- Node28 -->
<g id="Node000028" class="node">
<title>Node28</title>
<g id="a_Node000028"><a xlink:href="../../d9/dc4/ringscall_8c.html" target="_top" xlink:title="Callbacks for the ring statistics calculation dialog.">
<polygon fill="white" stroke="#666666" points="2514.12,-20 2438.12,-20 2438.12,0 2514.12,0 2514.12,-20"/>
<text xml:space="preserve" text-anchor="middle" x="2476.12" y="-6.5" font-family="Helvetica,sans-Serif" font-size="10.00">gui/ringscall.c</text>
</a>
</g>
</g>
<!-- Node1&#45;&gt;Node28 -->
<g id="edge27_Node000001_Node000028" class="edge">
<title>Node1&#45;&gt;Node28</title>
<g id="a_edge27_Node000001_Node000028"><a xlink:title=" ">
<path fill="none" stroke="#63b8ff" d="M1639.38,-64.69C1769.1,-63.36 2130.75,-56.4 2429.12,-20 2431.93,-19.66 2434.82,-19.25 2437.72,-18.79"/>
<polygon fill="#63b8ff" stroke="#63b8ff" points="1639.39,-61.19 1629.43,-64.78 1639.46,-68.19 1639.39,-61.19"/>
</a>
</g>
</g>
<!-- Node29 -->
<g id="Node000029" class="node">
<title>Node29</title>
<g id="a_Node000029"><a xlink:href="../../dc/d8c/sktcall_8c.html" target="_top" xlink:title="Callbacks for the dynamic structure factor S(k,t) calculation dialog.">
<polygon fill="white" stroke="#666666" points="2600.38,-20 2531.88,-20 2531.88,0 2600.38,0 2600.38,-20"/>
<text xml:space="preserve" text-anchor="middle" x="2566.12" y="-6.5" font-family="Helvetica,sans-Serif" font-size="10.00">gui/sktcall.c</text>
</a>
</g>
</g>
<!-- Node1&#45;&gt;Node29 -->
<g id="edge28_Node000001_Node000029" class="edge">
<title>Node1&#45;&gt;Node29</title>
<g id="a_edge28_Node000001_Node000029"><a xlink:title=" ">
<path fill="none" stroke="#63b8ff" d="M1639.59,-65.36C1779.12,-65.78 2187.47,-62.95 2523.12,-20 2525.85,-19.65 2528.66,-19.22 2531.47,-18.74"/>
<polygon fill="#63b8ff" stroke="#63b8ff" points="1639.61,-61.86 1629.6,-65.32 1639.58,-68.86 1639.61,-61.86"/>
</a>
</g>
</g>
<!-- Node30 -->
<g id="Node000030" class="node">
<title>Node30</title>
<g id="a_Node000030"><a xlink:href="../../d9/dbe/spcall_8c.html" target="_top" xlink:title="Callbacks for the spherical harmonics calculation dialog.">
<polygon fill="white" stroke="#666666" points="2683.88,-20 2618.38,-20 2618.38,0 2683.88,0 2683.88,-20"/>
<text xml:space="preserve" text-anchor="middle" x="2651.12" y="-6.5" font-family="Helvetica,sans-Serif" font-size="10.00">gui/spcall.c</text>
</a>
</g>
</g>
<!-- Node1&#45;&gt;Node30 -->
<g id="edge29_Node000001_Node000030" class="edge">
<title>Node1&#45;&gt;Node30</title>
<g id="a_edge29_Node000001_Node000030"><a xlink:title=" ">
<path fill="none" stroke="#63b8ff" d="M1639.4,-63.92C1816.18,-59.85 2418.12,-44.51 2609.12,-20 2612.08,-19.62 2615.14,-19.14 2618.2,-18.6"/>
<polygon fill="#63b8ff" stroke="#63b8ff" points="1639.57,-60.41 1629.65,-64.14 1639.73,-67.41 1639.57,-60.41"/>
</a>
</g>
</g>
<!-- Node31 -->
<g id="Node000031" class="node">
<title>Node31</title>
<g id="a_Node000031"><a xlink:href="../../d5/dde/sqcall_8c.html" target="_top" xlink:title="Callbacks for the s(q) / s(k) calculation dialog.">
<polygon fill="white" stroke="#666666" points="2767.88,-20 2702.38,-20 2702.38,0 2767.88,0 2767.88,-20"/>
<text xml:space="preserve" text-anchor="middle" x="2735.12" y="-6.5" font-family="Helvetica,sans-Serif" font-size="10.00">gui/sqcall.c</text>
</a>
</g>
</g>
<!-- Node1&#45;&gt;Node31 -->
<g id="edge30_Node000001_Node000031" class="edge">
<title>Node1&#45;&gt;Node31</title>
<g id="a_edge30_Node000001_Node000031"><a xlink:title=" ">
<path fill="none" stroke="#63b8ff" d="M1639.41,-64.11C1825.42,-60.56 2484.88,-46.36 2693.12,-20 2696.08,-19.63 2699.14,-19.15 2702.2,-18.61"/>
<polygon fill="#63b8ff" stroke="#63b8ff" points="1639.55,-60.6 1629.61,-64.29 1639.68,-67.6 1639.55,-60.6"/>
</a>
</g>
</g>
<!-- Node32 -->
<g id="Node000032" class="node">
<title>Node32</title>
<g id="a_Node000032"><a xlink:href="../../d8/d15/atom__action_8c.html" target="_top" xlink:title="Functions to apply the edition actions to the model.">
<polygon fill="white" stroke="#666666" points="2914,-20 2786.25,-20 2786.25,0 2914,0 2914,-20"/>
<text xml:space="preserve" text-anchor="middle" x="2850.12" y="-6.5" font-family="Helvetica,sans-Serif" font-size="10.00">opengl/edit/atom_action.c</text>
</a>
</g>
</g>
<!-- Node1&#45;&gt;Node32 -->
<g id="edge31_Node000001_Node000032" class="edge">
<title>Node1&#45;&gt;Node32</title>
<g id="a_edge31_Node000001_Node000032"><a xlink:title=" ">
<path fill="none" stroke="#63b8ff" d="M1639.16,-64.63C1801.54,-63.08 2336.5,-55.45 2777.12,-20 2780.05,-19.76 2783.04,-19.5 2786.06,-19.21"/>
<polygon fill="#63b8ff" stroke="#63b8ff" points="1639.6,-61.13 1629.63,-64.72 1639.66,-68.12 1639.6,-61.13"/>
</a>
</g>
</g>
<!-- Node33 -->
<g id="Node000033" class="node">
<title>Node33</title>
<g id="a_Node000033"><a xlink:href="../../d3/d50/close__p_8c.html" target="_top" xlink:title="Functions to close an atomes project &#160;&#160;Callbacks to close an atomes project.">
<polygon fill="white" stroke="#666666" points="3022.25,-20 2932,-20 2932,0 3022.25,0 3022.25,-20"/>
<text xml:space="preserve" text-anchor="middle" x="2977.12" y="-6.5" font-family="Helvetica,sans-Serif" font-size="10.00">project/close_p.c</text>
</a>
</g>
</g>
<!-- Node1&#45;&gt;Node33 -->
<g id="edge32_Node000001_Node000033" class="edge">
<title>Node1&#45;&gt;Node33</title>
<g id="a_edge32_Node000001_Node000033"><a xlink:title=" ">
<path fill="none" stroke="#63b8ff" d="M1639.34,-64.21C1848.77,-60.69 2666.74,-45.58 2923.12,-20 2925.87,-19.73 2928.68,-19.4 2931.52,-19.03"/>
<polygon fill="#63b8ff" stroke="#63b8ff" points="1639.58,-60.7 1629.64,-64.37 1639.69,-67.7 1639.58,-60.7"/>
</a>
</g>
</g>
<!-- Node34 -->
<g id="Node000034" class="node">
<title>Node34</title>
<g id="a_Node000034"><a xlink:href="../../df/dd5/init__p_8c.html" target="_top" xlink:title="Functions to initialize an atomes project.">
<polygon fill="white" stroke="#666666" points="3120,-20 3040.25,-20 3040.25,0 3120,0 3120,-20"/>
<text xml:space="preserve" text-anchor="middle" x="3080.12" y="-6.5" font-family="Helvetica,sans-Serif" font-size="10.00">project/init_p.c</text>
</a>
</g>
</g>
<!-- Node1&#45;&gt;Node34 -->
<g id="edge33_Node000001_Node000034" class="edge">
<title>Node1&#45;&gt;Node34</title>
<g id="a_edge33_Node000001_Node000034"><a xlink:title=" ">
<path fill="none" stroke="#63b8ff" d="M1639.69,-64.45C1860.1,-61.87 2752.68,-49.75 3031.12,-20 3033.96,-19.7 3036.88,-19.32 3039.82,-18.9"/>
<polygon fill="#63b8ff" stroke="#63b8ff" points="1639.69,-60.95 1629.73,-64.57 1639.77,-67.95 1639.69,-60.95"/>
</a>
</g>
</g>
<!-- Node35 -->
<g id="Node000035" class="node">
<title>Node35</title>
<g id="a_Node000035"><a xlink:href="../../da/d5e/open__p_8c.html" target="_top" xlink:title="Functions to start the reading of an atomes project file.">
<polygon fill="white" stroke="#666666" points="3226.12,-20 3138.12,-20 3138.12,0 3226.12,0 3226.12,-20"/>
<text xml:space="preserve" text-anchor="middle" x="3182.12" y="-6.5" font-family="Helvetica,sans-Serif" font-size="10.00">project/open_p.c</text>
</a>
</g>
</g>
<!-- Node1&#45;&gt;Node35 -->
<g id="edge34_Node000001_Node000035" class="edge">
<title>Node1&#45;&gt;Node35</title>
<g id="a_edge34_Node000001_Node000035"><a xlink:title=" ">
<path fill="none" stroke="#63b8ff" d="M1639.31,-64.48C1868.12,-61.94 2829.92,-49.63 3129.12,-20 3131.91,-19.72 3134.77,-19.39 3137.65,-19.01"/>
<polygon fill="#63b8ff" stroke="#63b8ff" points="1639.52,-60.98 1629.56,-64.59 1639.6,-67.98 1639.52,-60.98"/>
</a>
</g>
</g>
</g>
</svg>
