<?xml version="1.0" encoding="UTF-8" standalone="no"?>
<!DOCTYPE svg PUBLIC "-//W3C//DTD SVG 1.1//EN"
 "http://www.w3.org/Graphics/SVG/1.1/DTD/svg11.dtd">
<!-- Generated by graphviz version 7.1.0 (0)
 -->
<!-- Title: curve/curve.h Pages: 1 -->
<svg width="3175pt" height="82pt"
 viewBox="0.00 0.00 3175.00 82.00" xmlns="http://www.w3.org/2000/svg" xmlns:xlink="http://www.w3.org/1999/xlink">
<g id="graph0" class="graph" transform="scale(1 1) rotate(0) translate(4 78)">
<title>curve/curve.h</title>
<!-- Node1 -->
<g id="Node000001" class="node">
<title>Node1</title>
<g id="a_Node000001"><a xlink:title="Variable declarations for the curve widget \ Functions for interactions with the curve widget.">
<polygon fill="#999999" stroke="#666666" points="1592.5,-74 1516.5,-74 1516.5,-55 1592.5,-55 1592.5,-74"/>
<text text-anchor="middle" x="1554.5" y="-62" font-family="Helvetica,sans-Serif" font-size="10.00">curve/curve.h</text>
</a>
</g>
</g>
<!-- Node2 -->
<g id="Node000002" class="node">
<title>Node2</title>
<g id="a_Node000002"><a xlink:href="../../d3/d0c/cedit_8c.html" target="_top" xlink:title="Initialization of the curve layout edition dialog.">
<polygon fill="white" stroke="#666666" points="73,-19 0,-19 0,0 73,0 73,-19"/>
<text text-anchor="middle" x="36.5" y="-7" font-family="Helvetica,sans-Serif" font-size="10.00">curve/cedit.c</text>
</a>
</g>
</g>
<!-- Node1&#45;&gt;Node2 -->
<g id="edge1_Node000001_Node000002" class="edge">
<title>Node1&#45;&gt;Node2</title>
<g id="a_edge1_Node000001_Node000002"><a xlink:title=" ">
<path fill="none" stroke="#63b8ff" d="M1504.94,-63.02C1281.62,-60.69 367.38,-49.45 82.5,-19 79.51,-18.68 76.43,-18.28 73.34,-17.82"/>
<polygon fill="#63b8ff" stroke="#63b8ff" points="1504.71,-66.52 1514.74,-63.12 1504.78,-59.52 1504.71,-66.52"/>
</a>
</g>
</g>
<!-- Node3 -->
<g id="Node000003" class="node">
<title>Node3</title>
<g id="a_Node000003"><a xlink:href="../../dc/d22/curve_8c.html" target="_top" xlink:title="Functions to manage curves.">
<polygon fill="white" stroke="#666666" points="167.5,-19 91.5,-19 91.5,0 167.5,0 167.5,-19"/>
<text text-anchor="middle" x="129.5" y="-7" font-family="Helvetica,sans-Serif" font-size="10.00">curve/curve.c</text>
</a>
</g>
</g>
<!-- Node1&#45;&gt;Node3 -->
<g id="edge2_Node000001_Node000003" class="edge">
<title>Node1&#45;&gt;Node3</title>
<g id="a_edge2_Node000001_Node000003"><a xlink:title=" ">
<path fill="none" stroke="#63b8ff" d="M1504.68,-62.87C1289.88,-60.01 441.79,-47.12 176.5,-19 173.7,-18.7 170.81,-18.33 167.91,-17.92"/>
<polygon fill="#63b8ff" stroke="#63b8ff" points="1504.62,-66.37 1514.66,-63 1504.71,-59.37 1504.62,-66.37"/>
</a>
</g>
</g>
<!-- Node4 -->
<g id="Node000004" class="node">
<title>Node4</title>
<g id="a_Node000004"><a xlink:href="../../d4/d80/cwidget_8c.html" target="_top" xlink:title="Initialization of the curve widget.">
<polygon fill="white" stroke="#666666" points="271.5,-19 185.5,-19 185.5,0 271.5,0 271.5,-19"/>
<text text-anchor="middle" x="228.5" y="-7" font-family="Helvetica,sans-Serif" font-size="10.00">curve/cwidget.c</text>
</a>
</g>
</g>
<!-- Node1&#45;&gt;Node4 -->
<g id="edge3_Node000001_Node000004" class="edge">
<title>Node1&#45;&gt;Node4</title>
<g id="a_edge3_Node000001_Node000004"><a xlink:title=" ">
<path fill="none" stroke="#63b8ff" d="M1504.72,-64.03C1333.79,-65.37 755.26,-65.9 280.5,-19 277.68,-18.72 274.78,-18.39 271.86,-18.01"/>
<polygon fill="#63b8ff" stroke="#63b8ff" points="1504.59,-67.53 1514.56,-63.95 1504.54,-60.53 1504.59,-67.53"/>
</a>
</g>
</g>
<!-- Node5 -->
<g id="Node000005" class="node">
<title>Node5</title>
<g id="a_Node000005"><a xlink:href="../../da/dae/datab_8c.html" target="_top" xlink:title="Curve data edition window and associated callbacks.">
<polygon fill="white" stroke="#666666" points="365.5,-19 289.5,-19 289.5,0 365.5,0 365.5,-19"/>
<text text-anchor="middle" x="327.5" y="-7" font-family="Helvetica,sans-Serif" font-size="10.00">curve/datab.c</text>
</a>
</g>
</g>
<!-- Node1&#45;&gt;Node5 -->
<g id="edge4_Node000001_Node000005" class="edge">
<title>Node1&#45;&gt;Node5</title>
<g id="a_edge4_Node000001_Node000005"><a xlink:title=" ">
<path fill="none" stroke="#63b8ff" d="M1505.02,-62.57C1310.63,-58.76 598.94,-43.4 374.5,-19 371.7,-18.7 368.81,-18.32 365.91,-17.9"/>
<polygon fill="#63b8ff" stroke="#63b8ff" points="1504.7,-66.06 1514.77,-62.76 1504.84,-59.06 1504.7,-66.06"/>
</a>
</g>
</g>
<!-- Node6 -->
<g id="Node000006" class="node">
<title>Node6</title>
<g id="a_Node000006"><a xlink:href="../../d6/dd9/draw_8c.html" target="_top" xlink:title="Function to draw a curve.">
<polygon fill="white" stroke="#666666" points="455.5,-19 383.5,-19 383.5,0 455.5,0 455.5,-19"/>
<text text-anchor="middle" x="419.5" y="-7" font-family="Helvetica,sans-Serif" font-size="10.00">curve/draw.c</text>
</a>
</g>
</g>
<!-- Node1&#45;&gt;Node6 -->
<g id="edge5_Node000001_Node000006" class="edge">
<title>Node1&#45;&gt;Node6</title>
<g id="a_edge5_Node000001_Node000006"><a xlink:title=" ">
<path fill="none" stroke="#63b8ff" d="M1504.81,-64.04C1350.15,-65.18 863.84,-64.62 464.5,-19 461.66,-18.68 458.72,-18.27 455.78,-17.82"/>
<polygon fill="#63b8ff" stroke="#63b8ff" points="1504.73,-67.54 1514.7,-63.96 1504.67,-60.54 1504.73,-67.54"/>
</a>
</g>
</g>
<!-- Node7 -->
<g id="Node000007" class="node">
<title>Node7</title>
<g id="a_Node000007"><a xlink:href="../../dd/dbe/frame_8c.html" target="_top" xlink:title="Functions to draw the frame.">
<polygon fill="white" stroke="#666666" points="551,-19 474,-19 474,0 551,0 551,-19"/>
<text text-anchor="middle" x="512.5" y="-7" font-family="Helvetica,sans-Serif" font-size="10.00">curve/frame.c</text>
</a>
</g>
</g>
<!-- Node1&#45;&gt;Node7 -->
<g id="edge6_Node000001_Node000007" class="edge">
<title>Node1&#45;&gt;Node7</title>
<g id="a_edge6_Node000001_Node000007"><a xlink:title=" ">
<path fill="none" stroke="#63b8ff" d="M1505.25,-63.63C1360,-63.52 920.88,-59.57 559.5,-19 556.86,-18.7 554.15,-18.35 551.42,-17.95"/>
<polygon fill="#63b8ff" stroke="#63b8ff" points="1504.89,-67.13 1514.89,-63.63 1504.89,-60.13 1504.89,-67.13"/>
</a>
</g>
</g>
<!-- Node8 -->
<g id="Node000008" class="node">
<title>Node8</title>
<g id="a_Node000008"><a xlink:href="../../d8/da4/glyph_8c.html" target="_top" xlink:title="Functions to draw the glyphs.">
<polygon fill="white" stroke="#666666" points="644,-19 569,-19 569,0 644,0 644,-19"/>
<text text-anchor="middle" x="606.5" y="-7" font-family="Helvetica,sans-Serif" font-size="10.00">curve/glyph.c</text>
</a>
</g>
</g>
<!-- Node1&#45;&gt;Node8 -->
<g id="edge7_Node000001_Node000008" class="edge">
<title>Node1&#45;&gt;Node8</title>
<g id="a_edge7_Node000001_Node000008"><a xlink:title=" ">
<path fill="none" stroke="#63b8ff" d="M1504.83,-63.37C1368.29,-62.52 975.95,-56.69 652.5,-19 649.84,-18.69 647.1,-18.32 644.34,-17.91"/>
<polygon fill="#63b8ff" stroke="#63b8ff" points="1504.57,-66.87 1514.59,-63.43 1504.61,-59.87 1504.57,-66.87"/>
</a>
</g>
</g>
<!-- Node9 -->
<g id="Node000009" class="node">
<title>Node9</title>
<g id="a_Node000009"><a xlink:href="../../de/d87/labels_8c.html" target="_top" xlink:title="Function to draw the axis labels.">
<polygon fill="white" stroke="#666666" points="739,-19 662,-19 662,0 739,0 739,-19"/>
<text text-anchor="middle" x="700.5" y="-7" font-family="Helvetica,sans-Serif" font-size="10.00">curve/labels.c</text>
</a>
</g>
</g>
<!-- Node1&#45;&gt;Node9 -->
<g id="edge8_Node000001_Node000009" class="edge">
<title>Node1&#45;&gt;Node9</title>
<g id="a_edge8_Node000001_Node000009"><a xlink:title=" ">
<path fill="none" stroke="#63b8ff" d="M1504.99,-62.83C1378.57,-60.68 1033.69,-52 748.5,-19 745.56,-18.66 742.52,-18.25 739.48,-17.81"/>
<polygon fill="#63b8ff" stroke="#63b8ff" points="1504.61,-66.33 1514.67,-62.99 1504.73,-59.33 1504.61,-66.33"/>
</a>
</g>
</g>
<!-- Node10 -->
<g id="Node000010" class="node">
<title>Node10</title>
<g id="a_Node000010"><a xlink:href="../../d7/d40/legend_8c.html" target="_top" xlink:title="Function to draw the legend.">
<polygon fill="white" stroke="#666666" points="837.5,-19 757.5,-19 757.5,0 837.5,0 837.5,-19"/>
<text text-anchor="middle" x="797.5" y="-7" font-family="Helvetica,sans-Serif" font-size="10.00">curve/legend.c</text>
</a>
</g>
</g>
<!-- Node1&#45;&gt;Node10 -->
<g id="edge9_Node000001_Node000010" class="edge">
<title>Node1&#45;&gt;Node10</title>
<g id="a_edge9_Node000001_Node000010"><a xlink:title=" ">
<path fill="none" stroke="#63b8ff" d="M1505.13,-62.25C1389.59,-58.91 1092.76,-48.01 846.5,-19 843.67,-18.67 840.76,-18.28 837.83,-17.85"/>
<polygon fill="#63b8ff" stroke="#63b8ff" points="1504.77,-65.74 1514.87,-62.52 1504.97,-58.74 1504.77,-65.74"/>
</a>
</g>
</g>
<!-- Node11 -->
<g id="Node000011" class="node">
<title>Node11</title>
<g id="a_Node000011"><a xlink:href="../../d9/d29/m__curve_8c.html" target="_top" xlink:title="Curve context menu (mouse right click)">
<polygon fill="white" stroke="#666666" points="945,-19 856,-19 856,0 945,0 945,-19"/>
<text text-anchor="middle" x="900.5" y="-7" font-family="Helvetica,sans-Serif" font-size="10.00">curve/m_curve.c</text>
</a>
</g>
</g>
<!-- Node1&#45;&gt;Node11 -->
<g id="edge10_Node000001_Node000011" class="edge">
<title>Node1&#45;&gt;Node11</title>
<g id="a_edge10_Node000001_Node000011"><a xlink:title=" ">
<path fill="none" stroke="#63b8ff" d="M1504.89,-61.2C1402.01,-56.13 1158.07,-42.53 954.5,-19 951.48,-18.65 948.38,-18.26 945.25,-17.83"/>
<polygon fill="#63b8ff" stroke="#63b8ff" points="1504.47,-64.68 1514.63,-61.68 1504.81,-57.69 1504.47,-64.68"/>
</a>
</g>
</g>
<!-- Node12 -->
<g id="Node000012" class="node">
<title>Node12</title>
<g id="a_Node000012"><a xlink:href="../../df/dd0/show_8c.html" target="_top" xlink:title="Functions to draw the complete graph.">
<polygon fill="white" stroke="#666666" points="1037.5,-19 963.5,-19 963.5,0 1037.5,0 1037.5,-19"/>
<text text-anchor="middle" x="1000.5" y="-7" font-family="Helvetica,sans-Serif" font-size="10.00">curve/show.c</text>
</a>
</g>
</g>
<!-- Node1&#45;&gt;Node12 -->
<g id="edge11_Node000001_Node000012" class="edge">
<title>Node1&#45;&gt;Node12</title>
<g id="a_edge11_Node000001_Node000012"><a xlink:title=" ">
<path fill="none" stroke="#63b8ff" d="M1504.78,-60.72C1413.62,-55.28 1213.74,-41.72 1046.5,-19 1043.68,-18.62 1040.78,-18.18 1037.86,-17.71"/>
<polygon fill="#63b8ff" stroke="#63b8ff" points="1504.43,-64.21 1514.61,-61.3 1504.84,-57.22 1504.43,-64.21"/>
</a>
</g>
</g>
<!-- Node13 -->
<g id="Node000013" class="node">
<title>Node13</title>
<g id="a_Node000013"><a xlink:href="../../df/df7/tab-1_8c.html" target="_top" xlink:title="1st tab of the curve layout edition dialog">
<polygon fill="white" stroke="#666666" points="1129.5,-19 1055.5,-19 1055.5,0 1129.5,0 1129.5,-19"/>
<text text-anchor="middle" x="1092.5" y="-7" font-family="Helvetica,sans-Serif" font-size="10.00">curve/tab&#45;1.c</text>
</a>
</g>
</g>
<!-- Node1&#45;&gt;Node13 -->
<g id="edge12_Node000001_Node000013" class="edge">
<title>Node1&#45;&gt;Node13</title>
<g id="a_edge12_Node000001_Node000013"><a xlink:title=" ">
<path fill="none" stroke="#63b8ff" d="M1504.83,-59.42C1426.67,-52.72 1270.28,-38.19 1138.5,-19 1135.69,-18.59 1132.78,-18.13 1129.87,-17.65"/>
<polygon fill="#63b8ff" stroke="#63b8ff" points="1504.47,-62.9 1514.73,-60.26 1505.06,-55.93 1504.47,-62.9"/>
</a>
</g>
</g>
<!-- Node14 -->
<g id="Node000014" class="node">
<title>Node14</title>
<g id="a_Node000014"><a xlink:href="../../de/d1f/tab-2_8c.html" target="_top" xlink:title="2nd tab of the curve layout edition dialog">
<polygon fill="white" stroke="#666666" points="1221.5,-19 1147.5,-19 1147.5,0 1221.5,0 1221.5,-19"/>
<text text-anchor="middle" x="1184.5" y="-7" font-family="Helvetica,sans-Serif" font-size="10.00">curve/tab&#45;2.c</text>
</a>
</g>
</g>
<!-- Node1&#45;&gt;Node14 -->
<g id="edge13_Node000001_Node000014" class="edge">
<title>Node1&#45;&gt;Node14</title>
<g id="a_edge13_Node000001_Node000014"><a xlink:title=" ">
<path fill="none" stroke="#63b8ff" d="M1504.71,-57.39C1441.02,-49.4 1327.34,-34.59 1230.5,-19 1227.61,-18.54 1224.63,-18.03 1221.63,-17.51"/>
<polygon fill="#63b8ff" stroke="#63b8ff" points="1504.15,-60.85 1514.51,-58.61 1505.02,-53.9 1504.15,-60.85"/>
</a>
</g>
</g>
<!-- Node15 -->
<g id="Node000015" class="node">
<title>Node15</title>
<g id="a_Node000015"><a xlink:href="../../d1/d6f/tab-3_8c.html" target="_top" xlink:title="3rd tab of the curve layout edition dialog">
<polygon fill="white" stroke="#666666" points="1313.5,-19 1239.5,-19 1239.5,0 1313.5,0 1313.5,-19"/>
<text text-anchor="middle" x="1276.5" y="-7" font-family="Helvetica,sans-Serif" font-size="10.00">curve/tab&#45;3.c</text>
</a>
</g>
</g>
<!-- Node1&#45;&gt;Node15 -->
<g id="edge14_Node000001_Node000015" class="edge">
<title>Node1&#45;&gt;Node15</title>
<g id="a_edge14_Node000001_Node000015"><a xlink:title=" ">
<path fill="none" stroke="#63b8ff" d="M1504.94,-54.05C1450.07,-43.59 1362.86,-26.96 1313.58,-17.57"/>
<polygon fill="#63b8ff" stroke="#63b8ff" points="1504.17,-57.47 1514.65,-55.9 1505.48,-50.59 1504.17,-57.47"/>
</a>
</g>
</g>
<!-- Node16 -->
<g id="Node000016" class="node">
<title>Node16</title>
<g id="a_Node000016"><a xlink:href="../../d8/d62/tab-4_8c.html" target="_top" xlink:title="4th tab of the curve layout edition dialog">
<polygon fill="white" stroke="#666666" points="1405.5,-19 1331.5,-19 1331.5,0 1405.5,0 1405.5,-19"/>
<text text-anchor="middle" x="1368.5" y="-7" font-family="Helvetica,sans-Serif" font-size="10.00">curve/tab&#45;4.c</text>
</a>
</g>
</g>
<!-- Node1&#45;&gt;Node16 -->
<g id="edge15_Node000001_Node000016" class="edge">
<title>Node1&#45;&gt;Node16</title>
<g id="a_edge15_Node000001_Node000016"><a xlink:title=" ">
<path fill="none" stroke="#63b8ff" d="M1511.91,-51.36C1477.78,-41.64 1430.66,-28.21 1399.9,-19.45"/>
<polygon fill="#63b8ff" stroke="#63b8ff" points="1510.92,-54.72 1521.49,-54.09 1512.83,-47.99 1510.92,-54.72"/>
</a>
</g>
</g>
<!-- Node17 -->
<g id="Node000017" class="node">
<title>Node17</title>
<g id="a_Node000017"><a xlink:href="../../d9/d0e/title_8c.html" target="_top" xlink:title="Functions to draw the title.">
<polygon fill="white" stroke="#666666" points="1491.5,-19 1423.5,-19 1423.5,0 1491.5,0 1491.5,-19"/>
<text text-anchor="middle" x="1457.5" y="-7" font-family="Helvetica,sans-Serif" font-size="10.00">curve/title.c</text>
</a>
</g>
</g>
<!-- Node1&#45;&gt;Node17 -->
<g id="edge16_Node000001_Node000017" class="edge">
<title>Node1&#45;&gt;Node17</title>
<g id="a_edge16_Node000001_Node000017"><a xlink:title=" ">
<path fill="none" stroke="#63b8ff" d="M1527.96,-49C1510.61,-39.52 1488.49,-27.43 1473.71,-19.36"/>
<polygon fill="#63b8ff" stroke="#63b8ff" points="1526.26,-52.06 1536.72,-53.78 1529.62,-45.92 1526.26,-52.06"/>
</a>
</g>
</g>
<!-- Node18 -->
<g id="Node000018" class="node">
<title>Node18</title>
<g id="a_Node000018"><a xlink:href="../../d2/d04/w__curve_8c.html" target="_top" xlink:title="Functions to create the graph/curve window.">
<polygon fill="white" stroke="#666666" points="1599,-19 1510,-19 1510,0 1599,0 1599,-19"/>
<text text-anchor="middle" x="1554.5" y="-7" font-family="Helvetica,sans-Serif" font-size="10.00">curve/w_curve.c</text>
</a>
</g>
</g>
<!-- Node1&#45;&gt;Node18 -->
<g id="edge17_Node000001_Node000018" class="edge">
<title>Node1&#45;&gt;Node18</title>
<g id="a_edge17_Node000001_Node000018"><a xlink:title=" ">
<path fill="none" stroke="#63b8ff" d="M1554.5,-43.35C1554.5,-35.1 1554.5,-25.97 1554.5,-19.44"/>
<polygon fill="#63b8ff" stroke="#63b8ff" points="1551,-43.23 1554.5,-53.23 1558,-43.23 1551,-43.23"/>
</a>
</g>
</g>
<!-- Node19 -->
<g id="Node000019" class="node">
<title>Node19</title>
<g id="a_Node000019"><a xlink:href="../../df/d15/w__data_8c.html" target="_top" xlink:title="Functions to export curve data.">
<polygon fill="white" stroke="#666666" points="1700,-19 1617,-19 1617,0 1700,0 1700,-19"/>
<text text-anchor="middle" x="1658.5" y="-7" font-family="Helvetica,sans-Serif" font-size="10.00">curve/w_data.c</text>
</a>
</g>
</g>
<!-- Node1&#45;&gt;Node19 -->
<g id="edge18_Node000001_Node000019" class="edge">
<title>Node1&#45;&gt;Node19</title>
<g id="a_edge18_Node000001_Node000019"><a xlink:title=" ">
<path fill="none" stroke="#63b8ff" d="M1582.17,-49.4C1600.89,-39.86 1625.05,-27.55 1641.12,-19.36"/>
<polygon fill="#63b8ff" stroke="#63b8ff" points="1580.81,-46.16 1573.49,-53.82 1583.99,-52.4 1580.81,-46.16"/>
</a>
</g>
</g>
<!-- Node20 -->
<g id="Node000020" class="node">
<title>Node20</title>
<g id="a_Node000020"><a xlink:href="../../dc/dc8/w__img_8c.html" target="_top" xlink:title="Functions to save screenshot from graph / curve(s)">
<polygon fill="white" stroke="#666666" points="1798.5,-19 1718.5,-19 1718.5,0 1798.5,0 1798.5,-19"/>
<text text-anchor="middle" x="1758.5" y="-7" font-family="Helvetica,sans-Serif" font-size="10.00">curve/w_img.c</text>
</a>
</g>
</g>
<!-- Node1&#45;&gt;Node20 -->
<g id="edge19_Node000001_Node000020" class="edge">
<title>Node1&#45;&gt;Node20</title>
<g id="a_edge19_Node000001_Node000020"><a xlink:title=" ">
<path fill="none" stroke="#63b8ff" d="M1600.24,-51.62C1637.74,-41.87 1690.03,-28.29 1724.07,-19.45"/>
<polygon fill="#63b8ff" stroke="#63b8ff" points="1599.37,-48.23 1590.57,-54.13 1601.13,-55 1599.37,-48.23"/>
</a>
</g>
</g>
<!-- Node21 -->
<g id="Node000021" class="node">
<title>Node21</title>
<g id="a_Node000021"><a xlink:href="../../d2/d12/xaxis_8c.html" target="_top" xlink:title="Functions to draw the x axis.">
<polygon fill="white" stroke="#666666" points="1892,-19 1817,-19 1817,0 1892,0 1892,-19"/>
<text text-anchor="middle" x="1854.5" y="-7" font-family="Helvetica,sans-Serif" font-size="10.00">curve/xaxis.c</text>
</a>
</g>
</g>
<!-- Node1&#45;&gt;Node21 -->
<g id="edge20_Node000001_Node000021" class="edge">
<title>Node1&#45;&gt;Node21</title>
<g id="a_edge20_Node000001_Node000021"><a xlink:title=" ">
<path fill="none" stroke="#63b8ff" d="M1604,-54.87C1655.01,-45.95 1736.83,-31.61 1807.5,-19 1810.44,-18.48 1813.48,-17.93 1816.54,-17.38"/>
<polygon fill="#63b8ff" stroke="#63b8ff" points="1603.4,-51.42 1594.15,-56.59 1604.6,-58.31 1603.4,-51.42"/>
</a>
</g>
</g>
<!-- Node22 -->
<g id="Node000022" class="node">
<title>Node22</title>
<g id="a_Node000022"><a xlink:href="../../df/dfb/yaxis_8c.html" target="_top" xlink:title="Functions to draw the y axis.">
<polygon fill="white" stroke="#666666" points="1985,-19 1910,-19 1910,0 1985,0 1985,-19"/>
<text text-anchor="middle" x="1947.5" y="-7" font-family="Helvetica,sans-Serif" font-size="10.00">curve/yaxis.c</text>
</a>
</g>
</g>
<!-- Node1&#45;&gt;Node22 -->
<g id="edge21_Node000001_Node000022" class="edge">
<title>Node1&#45;&gt;Node22</title>
<g id="a_edge21_Node000001_Node000022"><a xlink:title=" ">
<path fill="none" stroke="#63b8ff" d="M1603.97,-58.03C1671.39,-50.37 1795.85,-35.52 1901.5,-19 1904.23,-18.57 1907.04,-18.11 1909.87,-17.63"/>
<polygon fill="#63b8ff" stroke="#63b8ff" points="1603.9,-54.51 1594.36,-59.11 1604.69,-61.47 1603.9,-54.51"/>
</a>
</g>
</g>
<!-- Node23 -->
<g id="Node000023" class="node">
<title>Node23</title>
<g id="a_Node000023"><a xlink:href="../../d5/d34/bdcall_8c.html" target="_top" xlink:title="Callbacks for the bond properties calculation dialog.">
<polygon fill="white" stroke="#666666" points="2069.5,-19 2003.5,-19 2003.5,0 2069.5,0 2069.5,-19"/>
<text text-anchor="middle" x="2036.5" y="-7" font-family="Helvetica,sans-Serif" font-size="10.00">gui/bdcall.c</text>
</a>
</g>
</g>
<!-- Node1&#45;&gt;Node23 -->
<g id="edge22_Node000001_Node000023" class="edge">
<title>Node1&#45;&gt;Node23</title>
<g id="a_edge22_Node000001_Node000023"><a xlink:title=" ">
<path fill="none" stroke="#63b8ff" d="M1604.35,-60.07C1686.13,-54.09 1853.77,-40.3 1994.5,-19 1997.3,-18.58 2000.19,-18.09 2003.08,-17.57"/>
<polygon fill="#63b8ff" stroke="#63b8ff" points="1604.15,-56.58 1594.43,-60.79 1604.65,-63.56 1604.15,-56.58"/>
</a>
</g>
</g>
<!-- Node24 -->
<g id="Node000024" class="node">
<title>Node24</title>
<g id="a_Node000024"><a xlink:href="../../d2/d01/chainscall_8c.html" target="_top" xlink:title="Callbacks for the chains statistics calculation dialog.">
<polygon fill="white" stroke="#666666" points="2171.5,-19 2087.5,-19 2087.5,0 2171.5,0 2171.5,-19"/>
<text text-anchor="middle" x="2129.5" y="-7" font-family="Helvetica,sans-Serif" font-size="10.00">gui/chainscall.c</text>
</a>
</g>
</g>
<!-- Node1&#45;&gt;Node24 -->
<g id="edge23_Node000001_Node000024" class="edge">
<title>Node1&#45;&gt;Node24</title>
<g id="a_edge23_Node000001_Node000024"><a xlink:title=" ">
<path fill="none" stroke="#63b8ff" d="M1604.06,-60.62C1697.23,-54.92 1904.75,-40.82 2078.5,-19 2081.35,-18.64 2084.28,-18.24 2087.24,-17.81"/>
<polygon fill="#63b8ff" stroke="#63b8ff" points="1604.02,-57.12 1594.25,-61.22 1604.45,-64.11 1604.02,-57.12"/>
</a>
</g>
</g>
<!-- Node25 -->
<g id="Node000025" class="node">
<title>Node25</title>
<g id="a_Node000025"><a xlink:href="../../dc/d6b/grcall_8c.html" target="_top" xlink:title="Callbacks for the g(r)/g(k) calculation dialog.">
<polygon fill="white" stroke="#666666" points="2253.5,-19 2189.5,-19 2189.5,0 2253.5,0 2253.5,-19"/>
<text text-anchor="middle" x="2221.5" y="-7" font-family="Helvetica,sans-Serif" font-size="10.00">gui/grcall.c</text>
</a>
</g>
</g>
<!-- Node1&#45;&gt;Node25 -->
<g id="edge24_Node000001_Node000025" class="edge">
<title>Node1&#45;&gt;Node25</title>
<g id="a_edge24_Node000001_Node000025"><a xlink:title=" ">
<path fill="none" stroke="#63b8ff" d="M1604.09,-62.22C1710.26,-58.99 1967.25,-48.55 2180.5,-19 2183.38,-18.6 2186.36,-18.12 2189.34,-17.59"/>
<polygon fill="#63b8ff" stroke="#63b8ff" points="1604.2,-58.72 1594.31,-62.51 1604.4,-65.71 1604.2,-58.72"/>
</a>
</g>
</g>
<!-- Node26 -->
<g id="Node000026" class="node">
<title>Node26</title>
<g id="a_Node000026"><a xlink:href="../../dd/dda/interface_8c.html" target="_top" xlink:title="General messaging functions.">
<polygon fill="white" stroke="#666666" points="2349.5,-19 2271.5,-19 2271.5,0 2349.5,0 2349.5,-19"/>
<text text-anchor="middle" x="2310.5" y="-7" font-family="Helvetica,sans-Serif" font-size="10.00">gui/interface.c</text>
</a>
</g>
</g>
<!-- Node1&#45;&gt;Node26 -->
<g id="edge25_Node000001_Node000026" class="edge">
<title>Node1&#45;&gt;Node26</title>
<g id="a_edge25_Node000001_Node000026"><a xlink:title=" ">
<path fill="none" stroke="#63b8ff" d="M1603.88,-62.31C1719.43,-59.1 2016.29,-48.44 2262.5,-19 2265.36,-18.66 2268.3,-18.26 2271.26,-17.82"/>
<polygon fill="#63b8ff" stroke="#63b8ff" points="1604.04,-58.8 1594.14,-62.57 1604.23,-65.8 1604.04,-58.8"/>
</a>
</g>
</g>
<!-- Node27 -->
<g id="Node000027" class="node">
<title>Node27</title>
<g id="a_Node000027"><a xlink:href="../../d8/d2b/msdcall_8c.html" target="_top" xlink:title="Callbacks for the MSD calculation dialog.">
<polygon fill="white" stroke="#666666" points="2441.5,-19 2367.5,-19 2367.5,0 2441.5,0 2441.5,-19"/>
<text text-anchor="middle" x="2404.5" y="-7" font-family="Helvetica,sans-Serif" font-size="10.00">gui/msdcall.c</text>
</a>
</g>
</g>
<!-- Node1&#45;&gt;Node27 -->
<g id="edge26_Node000001_Node000027" class="edge">
<title>Node1&#45;&gt;Node27</title>
<g id="a_edge26_Node000001_Node000027"><a xlink:title=" ">
<path fill="none" stroke="#63b8ff" d="M1603.9,-62.95C1730.04,-61.08 2074.14,-53 2358.5,-19 2361.32,-18.66 2364.23,-18.26 2367.15,-17.81"/>
<polygon fill="#63b8ff" stroke="#63b8ff" points="1604.2,-59.45 1594.25,-63.09 1604.29,-66.45 1604.2,-59.45"/>
</a>
</g>
</g>
<!-- Node28 -->
<g id="Node000028" class="node">
<title>Node28</title>
<g id="a_Node000028"><a xlink:href="../../d9/dc4/ringscall_8c.html" target="_top" xlink:title="Callbacks for the ring statistics calculation dialog.">
<polygon fill="white" stroke="#666666" points="2537,-19 2460,-19 2460,0 2537,0 2537,-19"/>
<text text-anchor="middle" x="2498.5" y="-7" font-family="Helvetica,sans-Serif" font-size="10.00">gui/ringscall.c</text>
</a>
</g>
</g>
<!-- Node1&#45;&gt;Node28 -->
<g id="edge27_Node000001_Node000028" class="edge">
<title>Node1&#45;&gt;Node28</title>
<g id="a_edge27_Node000001_Node000028"><a xlink:title=" ">
<path fill="none" stroke="#63b8ff" d="M1603.83,-63.22C1739.42,-61.99 2129.06,-55.3 2450.5,-19 2453.44,-18.67 2456.48,-18.27 2459.53,-17.82"/>
<polygon fill="#63b8ff" stroke="#63b8ff" points="1604.11,-59.72 1594.14,-63.3 1604.17,-66.72 1604.11,-59.72"/>
</a>
</g>
</g>
<!-- Node29 -->
<g id="Node000029" class="node">
<title>Node29</title>
<g id="a_Node000029"><a xlink:href="../../d9/dbe/spcall_8c.html" target="_top" xlink:title="Callbacks for the spherical harmonics calculation dialog.">
<polygon fill="white" stroke="#666666" points="2621.5,-19 2555.5,-19 2555.5,0 2621.5,0 2621.5,-19"/>
<text text-anchor="middle" x="2588.5" y="-7" font-family="Helvetica,sans-Serif" font-size="10.00">gui/spcall.c</text>
</a>
</g>
</g>
<!-- Node1&#45;&gt;Node29 -->
<g id="edge28_Node000001_Node000029" class="edge">
<title>Node1&#45;&gt;Node29</title>
<g id="a_edge28_Node000001_Node000029"><a xlink:title=" ">
<path fill="none" stroke="#63b8ff" d="M1604.14,-63.98C1749.58,-64.81 2187.07,-63.16 2546.5,-19 2549.31,-18.66 2552.2,-18.23 2555.11,-17.74"/>
<polygon fill="#63b8ff" stroke="#63b8ff" points="1604.51,-60.48 1594.49,-63.92 1604.47,-67.48 1604.51,-60.48"/>
</a>
</g>
</g>
<!-- Node30 -->
<g id="Node000030" class="node">
<title>Node30</title>
<g id="a_Node000030"><a xlink:href="../../d5/dde/sqcall_8c.html" target="_top" xlink:title="Callbacks for the s(q) / s(k) calculation dialog.">
<polygon fill="white" stroke="#666666" points="2705.5,-19 2639.5,-19 2639.5,0 2705.5,0 2705.5,-19"/>
<text text-anchor="middle" x="2672.5" y="-7" font-family="Helvetica,sans-Serif" font-size="10.00">gui/sqcall.c</text>
</a>
</g>
</g>
<!-- Node1&#45;&gt;Node30 -->
<g id="edge29_Node000001_Node000030" class="edge">
<title>Node1&#45;&gt;Node30</title>
<g id="a_edge29_Node000001_Node000030"><a xlink:title=" ">
<path fill="none" stroke="#63b8ff" d="M1604.37,-62.49C1788.23,-58.59 2427.88,-43.54 2630.5,-19 2633.31,-18.66 2636.21,-18.23 2639.11,-17.75"/>
<polygon fill="#63b8ff" stroke="#63b8ff" points="1604.37,-58.99 1594.44,-62.7 1604.52,-65.98 1604.37,-58.99"/>
</a>
</g>
</g>
<!-- Node31 -->
<g id="Node000031" class="node">
<title>Node31</title>
<g id="a_Node000031"><a xlink:href="../../d8/d15/atom__action_8c.html" target="_top" xlink:title="Functions to apply the edition actions to the model.">
<polygon fill="white" stroke="#666666" points="2851.5,-19 2723.5,-19 2723.5,0 2851.5,0 2851.5,-19"/>
<text text-anchor="middle" x="2787.5" y="-7" font-family="Helvetica,sans-Serif" font-size="10.00">opengl/edit/atom_action.c</text>
</a>
</g>
</g>
<!-- Node1&#45;&gt;Node31 -->
<g id="edge30_Node000001_Node000031" class="edge">
<title>Node1&#45;&gt;Node31</title>
<g id="a_edge30_Node000001_Node000031"><a xlink:title=" ">
<path fill="none" stroke="#63b8ff" d="M1604.26,-62.97C1765.09,-60.96 2285.43,-52.16 2714.5,-19 2717.3,-18.78 2720.16,-18.54 2723.04,-18.28"/>
<polygon fill="#63b8ff" stroke="#63b8ff" points="1604.33,-59.47 1594.38,-63.09 1604.42,-66.47 1604.33,-59.47"/>
</a>
</g>
</g>
<!-- Node32 -->
<g id="Node000032" class="node">
<title>Node32</title>
<g id="a_Node000032"><a xlink:href="../../d3/d50/close__p_8c.html" target="_top" xlink:title="Functions to close an atomes project &#160;&#160;Callbacks to close an atomes project.">
<polygon fill="white" stroke="#666666" points="2961,-19 2870,-19 2870,0 2961,0 2961,-19"/>
<text text-anchor="middle" x="2915.5" y="-7" font-family="Helvetica,sans-Serif" font-size="10.00">project/close_p.c</text>
</a>
</g>
</g>
<!-- Node1&#45;&gt;Node32 -->
<g id="edge31_Node000001_Node000032" class="edge">
<title>Node1&#45;&gt;Node32</title>
<g id="a_edge31_Node000001_Node000032"><a xlink:title=" ">
<path fill="none" stroke="#63b8ff" d="M1604.08,-63.94C1777.4,-65.01 2372.26,-64.88 2860.5,-19 2863.48,-18.72 2866.55,-18.38 2869.63,-18.01"/>
<polygon fill="#63b8ff" stroke="#63b8ff" points="1604.34,-60.44 1594.31,-63.87 1604.29,-67.44 1604.34,-60.44"/>
</a>
</g>
</g>
<!-- Node33 -->
<g id="Node000033" class="node">
<title>Node33</title>
<g id="a_Node000033"><a xlink:href="../../df/dd5/init__p_8c.html" target="_top" xlink:title="Functions to initialize an atomes project.">
<polygon fill="white" stroke="#666666" points="3059.5,-19 2979.5,-19 2979.5,0 3059.5,0 3059.5,-19"/>
<text text-anchor="middle" x="3019.5" y="-7" font-family="Helvetica,sans-Serif" font-size="10.00">project/init_p.c</text>
</a>
</g>
</g>
<!-- Node1&#45;&gt;Node33 -->
<g id="edge32_Node000001_Node000033" class="edge">
<title>Node1&#45;&gt;Node33</title>
<g id="a_edge32_Node000001_Node000033"><a xlink:title=" ">
<path fill="none" stroke="#63b8ff" d="M1604.27,-62.87C1822.64,-59.98 2697.2,-46.86 2970.5,-19 2973.33,-18.71 2976.25,-18.36 2979.19,-17.95"/>
<polygon fill="#63b8ff" stroke="#63b8ff" points="1604.36,-59.37 1594.41,-63 1604.45,-66.37 1604.36,-59.37"/>
</a>
</g>
</g>
<!-- Node34 -->
<g id="Node000034" class="node">
<title>Node34</title>
<g id="a_Node000034"><a xlink:href="../../da/d5e/open__p_8c.html" target="_top" xlink:title="Functions to start the reading of an atomes project file.">
<polygon fill="white" stroke="#666666" points="3167,-19 3078,-19 3078,0 3167,0 3167,-19"/>
<text text-anchor="middle" x="3122.5" y="-7" font-family="Helvetica,sans-Serif" font-size="10.00">project/open_p.c</text>
</a>
</g>
</g>
<!-- Node1&#45;&gt;Node34 -->
<g id="edge33_Node000001_Node000034" class="edge">
<title>Node1&#45;&gt;Node34</title>
<g id="a_edge33_Node000001_Node000034"><a xlink:title=" ">
<path fill="none" stroke="#63b8ff" d="M1603.99,-62.89C1831.04,-59.96 2774.47,-46.35 3068.5,-19 3071.52,-18.72 3074.64,-18.37 3077.77,-17.99"/>
<polygon fill="#63b8ff" stroke="#63b8ff" points="1604.27,-59.39 1594.32,-63.01 1604.36,-66.39 1604.27,-59.39"/>
</a>
</g>
</g>
</g>
</svg>
