<?xml version="1.0" encoding="UTF-8" standalone="no"?>
<!DOCTYPE svg PUBLIC "-//W3C//DTD SVG 1.1//EN"
 "http://www.w3.org/Graphics/SVG/1.1/DTD/svg11.dtd">
<!-- Generated by graphviz version 2.43.0 (0)
 -->
<!-- Title: curve/curve.h Pages: 1 -->
<svg width="3402pt" height="82pt"
 viewBox="0.00 0.00 3402.00 82.00" xmlns="http://www.w3.org/2000/svg" xmlns:xlink="http://www.w3.org/1999/xlink">
<g id="graph0" class="graph" transform="scale(1 1) rotate(0) translate(4 78)">
<title>curve/curve.h</title>
<!-- Node1 -->
<g id="Node000001" class="node">
<title>Node1</title>
<g id="a_Node000001"><a xlink:title="Variable declarations for the curve widget &#160;&#160;Functions for interactions with the curve widget.">
<polygon fill="#999999" stroke="#666666" points="1703,-74 1620,-74 1620,-55 1703,-55 1703,-74"/>
<text text-anchor="middle" x="1661.5" y="-62" font-family="Helvetica,sans-Serif" font-size="10.00">curve/curve.h</text>
</a>
</g>
</g>
<!-- Node2 -->
<g id="Node000002" class="node">
<title>Node2</title>
<g id="a_Node000002"><a xlink:href="../../d3/d0c/cedit_8c.html" target="_top" xlink:title="Initialization of the curve layout edition dialog.">
<polygon fill="white" stroke="#666666" points="79,-19 0,-19 0,0 79,0 79,-19"/>
<text text-anchor="middle" x="39.5" y="-7" font-family="Helvetica,sans-Serif" font-size="10.00">curve/cedit.c</text>
</a>
</g>
</g>
<!-- Node1&#45;&gt;Node2 -->
<g id="edge1_Node000001_Node000002" class="edge">
<title>Node1&#45;&gt;Node2</title>
<g id="a_edge1_Node000001_Node000002"><a xlink:title=" ">
<path fill="none" stroke="#63b8ff" d="M1609.89,-63.04C1373.62,-60.76 393.68,-49.63 88.5,-19 85.41,-18.69 82.22,-18.3 79.01,-17.86"/>
<polygon fill="#63b8ff" stroke="#63b8ff" points="1609.9,-66.54 1619.93,-63.13 1609.96,-59.54 1609.9,-66.54"/>
</a>
</g>
</g>
<!-- Node3 -->
<g id="Node000003" class="node">
<title>Node3</title>
<g id="a_Node000003"><a xlink:href="../../dc/d22/curve_8c.html" target="_top" xlink:title="Functions to manage curves.">
<polygon fill="white" stroke="#666666" points="179.5,-19 97.5,-19 97.5,0 179.5,0 179.5,-19"/>
<text text-anchor="middle" x="138.5" y="-7" font-family="Helvetica,sans-Serif" font-size="10.00">curve/curve.c</text>
</a>
</g>
</g>
<!-- Node1&#45;&gt;Node3 -->
<g id="edge2_Node000001_Node000003" class="edge">
<title>Node1&#45;&gt;Node3</title>
<g id="a_edge2_Node000001_Node000003"><a xlink:title=" ">
<path fill="none" stroke="#63b8ff" d="M1609.54,-62.89C1382.09,-60.1 472.78,-47.32 188.5,-19 185.61,-18.71 182.63,-18.36 179.64,-17.96"/>
<polygon fill="#63b8ff" stroke="#63b8ff" points="1609.81,-66.4 1619.85,-63.02 1609.9,-59.4 1609.81,-66.4"/>
</a>
</g>
</g>
<!-- Node4 -->
<g id="Node000004" class="node">
<title>Node4</title>
<g id="a_Node000004"><a xlink:href="../../d4/d80/cwidget_8c.html" target="_top" xlink:title="Initialization of the curve widget.">
<polygon fill="white" stroke="#666666" points="291,-19 198,-19 198,0 291,0 291,-19"/>
<text text-anchor="middle" x="244.5" y="-7" font-family="Helvetica,sans-Serif" font-size="10.00">curve/cwidget.c</text>
</a>
</g>
</g>
<!-- Node1&#45;&gt;Node4 -->
<g id="edge3_Node000001_Node000004" class="edge">
<title>Node1&#45;&gt;Node4</title>
<g id="a_edge3_Node000001_Node000004"><a xlink:title=" ">
<path fill="none" stroke="#63b8ff" d="M1609.61,-62.64C1393.12,-58.94 560.96,-43.39 299.5,-19 296.81,-18.75 294.04,-18.45 291.26,-18.12"/>
<polygon fill="#63b8ff" stroke="#63b8ff" points="1609.69,-66.15 1619.75,-62.82 1609.81,-59.15 1609.69,-66.15"/>
</a>
</g>
</g>
<!-- Node5 -->
<g id="Node000005" class="node">
<title>Node5</title>
<g id="a_Node000005"><a xlink:href="../../da/dae/datab_8c.html" target="_top" xlink:title="Curve data edition window and associated callbacks.">
<polygon fill="white" stroke="#666666" points="392,-19 309,-19 309,0 392,0 392,-19"/>
<text text-anchor="middle" x="350.5" y="-7" font-family="Helvetica,sans-Serif" font-size="10.00">curve/datab.c</text>
</a>
</g>
</g>
<!-- Node1&#45;&gt;Node5 -->
<g id="edge4_Node000001_Node000005" class="edge">
<title>Node1&#45;&gt;Node5</title>
<g id="a_edge4_Node000001_Node000005"><a xlink:title=" ">
<path fill="none" stroke="#63b8ff" d="M1609.71,-64.07C1437.52,-65.47 868.64,-65.98 401.5,-19 398.46,-18.69 395.33,-18.32 392.19,-17.9"/>
<polygon fill="#63b8ff" stroke="#63b8ff" points="1609.8,-67.57 1619.76,-63.99 1609.73,-60.57 1609.8,-67.57"/>
</a>
</g>
</g>
<!-- Node6 -->
<g id="Node000006" class="node">
<title>Node6</title>
<g id="a_Node000006"><a xlink:href="../../d6/dd9/draw_8c.html" target="_top" xlink:title="Function to draw a curve.">
<polygon fill="white" stroke="#666666" points="488.5,-19 410.5,-19 410.5,0 488.5,0 488.5,-19"/>
<text text-anchor="middle" x="449.5" y="-7" font-family="Helvetica,sans-Serif" font-size="10.00">curve/draw.c</text>
</a>
</g>
</g>
<!-- Node1&#45;&gt;Node6 -->
<g id="edge5_Node000001_Node000006" class="edge">
<title>Node1&#45;&gt;Node6</title>
<g id="a_edge5_Node000001_Node000006"><a xlink:title=" ">
<path fill="none" stroke="#63b8ff" d="M1609.58,-64.04C1445.75,-65.22 925.21,-64.83 497.5,-19 494.64,-18.69 491.69,-18.32 488.73,-17.9"/>
<polygon fill="#63b8ff" stroke="#63b8ff" points="1609.88,-67.54 1619.85,-63.97 1609.83,-60.54 1609.88,-67.54"/>
</a>
</g>
</g>
<!-- Node7 -->
<g id="Node000007" class="node">
<title>Node7</title>
<g id="a_Node000007"><a xlink:href="../../dd/dbe/frame_8c.html" target="_top" xlink:title="Functions to draw the frame.">
<polygon fill="white" stroke="#666666" points="590.5,-19 506.5,-19 506.5,0 590.5,0 590.5,-19"/>
<text text-anchor="middle" x="548.5" y="-7" font-family="Helvetica,sans-Serif" font-size="10.00">curve/frame.c</text>
</a>
</g>
</g>
<!-- Node1&#45;&gt;Node7 -->
<g id="edge6_Node000001_Node000007" class="edge">
<title>Node1&#45;&gt;Node7</title>
<g id="a_edge6_Node000001_Node000007"><a xlink:title=" ">
<path fill="none" stroke="#63b8ff" d="M1609.75,-63.59C1455.59,-63.36 986.16,-59.17 599.5,-19 596.64,-18.7 593.7,-18.35 590.75,-17.95"/>
<polygon fill="#63b8ff" stroke="#63b8ff" points="1609.87,-67.09 1619.87,-63.6 1609.87,-60.09 1609.87,-67.09"/>
</a>
</g>
</g>
<!-- Node8 -->
<g id="Node000008" class="node">
<title>Node8</title>
<g id="a_Node000008"><a xlink:href="../../d8/da4/glyph_8c.html" target="_top" xlink:title="Functions to draw the glyphs.">
<polygon fill="white" stroke="#666666" points="690.5,-19 608.5,-19 608.5,0 690.5,0 690.5,-19"/>
<text text-anchor="middle" x="649.5" y="-7" font-family="Helvetica,sans-Serif" font-size="10.00">curve/glyph.c</text>
</a>
</g>
</g>
<!-- Node1&#45;&gt;Node8 -->
<g id="edge7_Node000001_Node000008" class="edge">
<title>Node1&#45;&gt;Node8</title>
<g id="a_edge7_Node000001_Node000008"><a xlink:title=" ">
<path fill="none" stroke="#63b8ff" d="M1609.28,-63.32C1464.41,-62.35 1045.33,-56.25 699.5,-19 696.61,-18.69 693.64,-18.32 690.65,-17.9"/>
<polygon fill="#63b8ff" stroke="#63b8ff" points="1609.61,-66.82 1619.64,-63.39 1609.66,-59.82 1609.61,-66.82"/>
</a>
</g>
</g>
<!-- Node9 -->
<g id="Node000009" class="node">
<title>Node9</title>
<g id="a_Node000009"><a xlink:href="../../de/d87/labels_8c.html" target="_top" xlink:title="Function to draw the axis labels.">
<polygon fill="white" stroke="#666666" points="792.5,-19 708.5,-19 708.5,0 792.5,0 792.5,-19"/>
<text text-anchor="middle" x="750.5" y="-7" font-family="Helvetica,sans-Serif" font-size="10.00">curve/labels.c</text>
</a>
</g>
</g>
<!-- Node1&#45;&gt;Node9 -->
<g id="edge8_Node000001_Node000009" class="edge">
<title>Node1&#45;&gt;Node9</title>
<g id="a_edge8_Node000001_Node000009"><a xlink:title=" ">
<path fill="none" stroke="#63b8ff" d="M1609.36,-62.86C1475.07,-60.77 1106.47,-52.2 801.5,-19 798.64,-18.69 795.71,-18.32 792.75,-17.92"/>
<polygon fill="#63b8ff" stroke="#63b8ff" points="1609.7,-66.37 1619.75,-63.02 1609.8,-59.37 1609.7,-66.37"/>
</a>
</g>
</g>
<!-- Node10 -->
<g id="Node000010" class="node">
<title>Node10</title>
<g id="a_Node000010"><a xlink:href="../../d7/d40/legend_8c.html" target="_top" xlink:title="Function to draw the legend.">
<polygon fill="white" stroke="#666666" points="898.5,-19 810.5,-19 810.5,0 898.5,0 898.5,-19"/>
<text text-anchor="middle" x="854.5" y="-7" font-family="Helvetica,sans-Serif" font-size="10.00">curve/legend.c</text>
</a>
</g>
</g>
<!-- Node1&#45;&gt;Node10 -->
<g id="edge9_Node000001_Node000010" class="edge">
<title>Node1&#45;&gt;Node10</title>
<g id="a_edge9_Node000001_Node000010"><a xlink:title=" ">
<path fill="none" stroke="#63b8ff" d="M1609.39,-62.28C1486.61,-59 1169.63,-48.18 906.5,-19 903.95,-18.72 901.34,-18.4 898.71,-18.05"/>
<polygon fill="#63b8ff" stroke="#63b8ff" points="1609.54,-65.78 1619.63,-62.55 1609.72,-58.79 1609.54,-65.78"/>
</a>
</g>
</g>
<!-- Node11 -->
<g id="Node000011" class="node">
<title>Node11</title>
<g id="a_Node000011"><a xlink:href="../../d9/d29/m__curve_8c.html" target="_top" xlink:title="Curve context menu (mouse right click)">
<polygon fill="white" stroke="#666666" points="1013,-19 916,-19 916,0 1013,0 1013,-19"/>
<text text-anchor="middle" x="964.5" y="-7" font-family="Helvetica,sans-Serif" font-size="10.00">curve/m_curve.c</text>
</a>
</g>
</g>
<!-- Node1&#45;&gt;Node11 -->
<g id="edge10_Node000001_Node000011" class="edge">
<title>Node1&#45;&gt;Node11</title>
<g id="a_edge10_Node000001_Node000011"><a xlink:title=" ">
<path fill="none" stroke="#63b8ff" d="M1609.86,-61.24C1501.03,-56.17 1240.2,-42.5 1022.5,-19 1019.46,-18.67 1016.34,-18.3 1013.2,-17.91"/>
<polygon fill="#63b8ff" stroke="#63b8ff" points="1609.76,-64.74 1619.91,-61.7 1610.08,-57.74 1609.76,-64.74"/>
</a>
</g>
</g>
<!-- Node12 -->
<g id="Node000012" class="node">
<title>Node12</title>
<g id="a_Node000012"><a xlink:href="../../df/dd0/show_8c.html" target="_top" xlink:title="Functions to draw the complete graph.">
<polygon fill="white" stroke="#666666" points="1111.5,-19 1031.5,-19 1031.5,0 1111.5,0 1111.5,-19"/>
<text text-anchor="middle" x="1071.5" y="-7" font-family="Helvetica,sans-Serif" font-size="10.00">curve/show.c</text>
</a>
</g>
</g>
<!-- Node1&#45;&gt;Node12 -->
<g id="edge11_Node000001_Node000012" class="edge">
<title>Node1&#45;&gt;Node12</title>
<g id="a_edge11_Node000001_Node000012"><a xlink:title=" ">
<path fill="none" stroke="#63b8ff" d="M1609.9,-60.8C1513.49,-55.41 1299.54,-41.85 1120.5,-19 1117.59,-18.63 1114.59,-18.21 1111.57,-17.75"/>
<polygon fill="#63b8ff" stroke="#63b8ff" points="1609.79,-64.3 1619.97,-61.36 1610.17,-57.31 1609.79,-64.3"/>
</a>
</g>
</g>
<!-- Node13 -->
<g id="Node000013" class="node">
<title>Node13</title>
<g id="a_Node000013"><a xlink:href="../../df/df7/tab-1_8c.html" target="_top" xlink:title="1st tab of the curve layout edition dialog">
<polygon fill="white" stroke="#666666" points="1209.5,-19 1129.5,-19 1129.5,0 1209.5,0 1209.5,-19"/>
<text text-anchor="middle" x="1169.5" y="-7" font-family="Helvetica,sans-Serif" font-size="10.00">curve/tab&#45;1.c</text>
</a>
</g>
</g>
<!-- Node1&#45;&gt;Node13 -->
<g id="edge12_Node000001_Node000013" class="edge">
<title>Node1&#45;&gt;Node13</title>
<g id="a_edge12_Node000001_Node000013"><a xlink:title=" ">
<path fill="none" stroke="#63b8ff" d="M1609.69,-59.51C1526.85,-52.85 1359.51,-38.29 1218.5,-19 1215.59,-18.6 1212.59,-18.16 1209.57,-17.69"/>
<polygon fill="#63b8ff" stroke="#63b8ff" points="1609.6,-63.01 1619.85,-60.32 1610.16,-56.03 1609.6,-63.01"/>
</a>
</g>
</g>
<!-- Node14 -->
<g id="Node000014" class="node">
<title>Node14</title>
<g id="a_Node000014"><a xlink:href="../../de/d1f/tab-2_8c.html" target="_top" xlink:title="2nd tab of the curve layout edition dialog">
<polygon fill="white" stroke="#666666" points="1307.5,-19 1227.5,-19 1227.5,0 1307.5,0 1307.5,-19"/>
<text text-anchor="middle" x="1267.5" y="-7" font-family="Helvetica,sans-Serif" font-size="10.00">curve/tab&#45;2.c</text>
</a>
</g>
</g>
<!-- Node1&#45;&gt;Node14 -->
<g id="edge13_Node000001_Node000014" class="edge">
<title>Node1&#45;&gt;Node14</title>
<g id="a_edge13_Node000001_Node000014"><a xlink:title=" ">
<path fill="none" stroke="#63b8ff" d="M1610.04,-57.57C1542.53,-49.63 1420.44,-34.71 1316.5,-19 1313.6,-18.56 1310.6,-18.09 1307.59,-17.6"/>
<polygon fill="#63b8ff" stroke="#63b8ff" points="1609.66,-61.05 1620,-58.74 1610.47,-54.1 1609.66,-61.05"/>
</a>
</g>
</g>
<!-- Node15 -->
<g id="Node000015" class="node">
<title>Node15</title>
<g id="a_Node000015"><a xlink:href="../../d1/d6f/tab-3_8c.html" target="_top" xlink:title="3rd tab of the curve layout edition dialog">
<polygon fill="white" stroke="#666666" points="1405.5,-19 1325.5,-19 1325.5,0 1405.5,0 1405.5,-19"/>
<text text-anchor="middle" x="1365.5" y="-7" font-family="Helvetica,sans-Serif" font-size="10.00">curve/tab&#45;3.c</text>
</a>
</g>
</g>
<!-- Node1&#45;&gt;Node15 -->
<g id="edge14_Node000001_Node000015" class="edge">
<title>Node1&#45;&gt;Node15</title>
<g id="a_edge14_Node000001_Node000015"><a xlink:title=" ">
<path fill="none" stroke="#63b8ff" d="M1609.64,-54.21C1551.51,-43.81 1458.5,-27.15 1405.65,-17.69"/>
<polygon fill="#63b8ff" stroke="#63b8ff" points="1609.26,-57.7 1619.72,-56.02 1610.49,-50.81 1609.26,-57.7"/>
</a>
</g>
</g>
<!-- Node16 -->
<g id="Node000016" class="node">
<title>Node16</title>
<g id="a_Node000016"><a xlink:href="../../d8/d62/tab-4_8c.html" target="_top" xlink:title="4th tab of the curve layout edition dialog">
<polygon fill="white" stroke="#666666" points="1503.5,-19 1423.5,-19 1423.5,0 1503.5,0 1503.5,-19"/>
<text text-anchor="middle" x="1463.5" y="-7" font-family="Helvetica,sans-Serif" font-size="10.00">curve/tab&#45;4.c</text>
</a>
</g>
</g>
<!-- Node1&#45;&gt;Node16 -->
<g id="edge15_Node000001_Node000016" class="edge">
<title>Node1&#45;&gt;Node16</title>
<g id="a_edge15_Node000001_Node000016"><a xlink:title=" ">
<path fill="none" stroke="#63b8ff" d="M1619.7,-52.31C1582.65,-42.39 1529.33,-28.12 1495.56,-19.08"/>
<polygon fill="#63b8ff" stroke="#63b8ff" points="1619.12,-55.78 1629.69,-54.98 1620.93,-49.02 1619.12,-55.78"/>
</a>
</g>
</g>
<!-- Node17 -->
<g id="Node000017" class="node">
<title>Node17</title>
<g id="a_Node000017"><a xlink:href="../../d9/d0e/title_8c.html" target="_top" xlink:title="Functions to draw the title.">
<polygon fill="white" stroke="#666666" points="1595.5,-19 1521.5,-19 1521.5,0 1595.5,0 1595.5,-19"/>
<text text-anchor="middle" x="1558.5" y="-7" font-family="Helvetica,sans-Serif" font-size="10.00">curve/title.c</text>
</a>
</g>
</g>
<!-- Node1&#45;&gt;Node17 -->
<g id="edge16_Node000001_Node000017" class="edge">
<title>Node1&#45;&gt;Node17</title>
<g id="a_edge16_Node000001_Node000017"><a xlink:title=" ">
<path fill="none" stroke="#63b8ff" d="M1635.98,-50.37C1617.06,-40.63 1591.8,-27.64 1575.35,-19.17"/>
<polygon fill="#63b8ff" stroke="#63b8ff" points="1634.46,-53.52 1644.95,-54.98 1637.66,-47.3 1634.46,-53.52"/>
</a>
</g>
</g>
<!-- Node18 -->
<g id="Node000018" class="node">
<title>Node18</title>
<g id="a_Node000018"><a xlink:href="../../d2/d04/w__curve_8c.html" target="_top" xlink:title="Functions to create the graph/curve window.">
<polygon fill="white" stroke="#666666" points="1709,-19 1614,-19 1614,0 1709,0 1709,-19"/>
<text text-anchor="middle" x="1661.5" y="-7" font-family="Helvetica,sans-Serif" font-size="10.00">curve/w_curve.c</text>
</a>
</g>
</g>
<!-- Node1&#45;&gt;Node18 -->
<g id="edge17_Node000001_Node000018" class="edge">
<title>Node1&#45;&gt;Node18</title>
<g id="a_edge17_Node000001_Node000018"><a xlink:title=" ">
<path fill="none" stroke="#63b8ff" d="M1661.5,-44.66C1661.5,-35.93 1661.5,-25.99 1661.5,-19.09"/>
<polygon fill="#63b8ff" stroke="#63b8ff" points="1658,-44.75 1661.5,-54.75 1665,-44.75 1658,-44.75"/>
</a>
</g>
</g>
<!-- Node19 -->
<g id="Node000019" class="node">
<title>Node19</title>
<g id="a_Node000019"><a xlink:href="../../df/d15/w__data_8c.html" target="_top" xlink:title="Functions to export curve data.">
<polygon fill="white" stroke="#666666" points="1817.5,-19 1727.5,-19 1727.5,0 1817.5,0 1817.5,-19"/>
<text text-anchor="middle" x="1772.5" y="-7" font-family="Helvetica,sans-Serif" font-size="10.00">curve/w_data.c</text>
</a>
</g>
</g>
<!-- Node1&#45;&gt;Node19 -->
<g id="edge18_Node000001_Node000019" class="edge">
<title>Node1&#45;&gt;Node19</title>
<g id="a_edge18_Node000001_Node000019"><a xlink:title=" ">
<path fill="none" stroke="#63b8ff" d="M1688.45,-50.63C1708.89,-40.87 1736.45,-27.71 1754.34,-19.17"/>
<polygon fill="#63b8ff" stroke="#63b8ff" points="1686.85,-47.52 1679.33,-54.98 1689.87,-53.83 1686.85,-47.52"/>
</a>
</g>
</g>
<!-- Node20 -->
<g id="Node000020" class="node">
<title>Node20</title>
<g id="a_Node000020"><a xlink:href="../../dc/dc8/w__img_8c.html" target="_top" xlink:title="Functions to save screenshot from graph / curve(s)">
<polygon fill="white" stroke="#666666" points="1923,-19 1836,-19 1836,0 1923,0 1923,-19"/>
<text text-anchor="middle" x="1879.5" y="-7" font-family="Helvetica,sans-Serif" font-size="10.00">curve/w_img.c</text>
</a>
</g>
</g>
<!-- Node1&#45;&gt;Node20 -->
<g id="edge19_Node000001_Node000020" class="edge">
<title>Node1&#45;&gt;Node20</title>
<g id="a_edge19_Node000001_Node000020"><a xlink:title=" ">
<path fill="none" stroke="#63b8ff" d="M1706.48,-52.56C1747.31,-42.64 1806.7,-28.2 1844.2,-19.08"/>
<polygon fill="#63b8ff" stroke="#63b8ff" points="1705.42,-49.22 1696.53,-54.98 1707.07,-56.02 1705.42,-49.22"/>
</a>
</g>
</g>
<!-- Node21 -->
<g id="Node000021" class="node">
<title>Node21</title>
<g id="a_Node000021"><a xlink:href="../../d2/d12/xaxis_8c.html" target="_top" xlink:title="Functions to draw the x axis.">
<polygon fill="white" stroke="#666666" points="2022,-19 1941,-19 1941,0 2022,0 2022,-19"/>
<text text-anchor="middle" x="1981.5" y="-7" font-family="Helvetica,sans-Serif" font-size="10.00">curve/xaxis.c</text>
</a>
</g>
</g>
<!-- Node1&#45;&gt;Node21 -->
<g id="edge20_Node000001_Node000021" class="edge">
<title>Node1&#45;&gt;Node21</title>
<g id="a_edge20_Node000001_Node000021"><a xlink:title=" ">
<path fill="none" stroke="#63b8ff" d="M1713.42,-55.12C1767.99,-46.27 1856.31,-31.86 1932.5,-19 1935.22,-18.54 1938.03,-18.06 1940.86,-17.58"/>
<polygon fill="#63b8ff" stroke="#63b8ff" points="1712.61,-51.7 1703.3,-56.76 1713.73,-58.61 1712.61,-51.7"/>
</a>
</g>
</g>
<!-- Node22 -->
<g id="Node000022" class="node">
<title>Node22</title>
<g id="a_Node000022"><a xlink:href="../../df/dfb/yaxis_8c.html" target="_top" xlink:title="Functions to draw the y axis.">
<polygon fill="white" stroke="#666666" points="2121,-19 2040,-19 2040,0 2121,0 2121,-19"/>
<text text-anchor="middle" x="2080.5" y="-7" font-family="Helvetica,sans-Serif" font-size="10.00">curve/yaxis.c</text>
</a>
</g>
</g>
<!-- Node1&#45;&gt;Node22 -->
<g id="edge21_Node000001_Node000022" class="edge">
<title>Node1&#45;&gt;Node22</title>
<g id="a_edge21_Node000001_Node000022"><a xlink:title=" ">
<path fill="none" stroke="#63b8ff" d="M1713.33,-58.13C1784.99,-50.5 1918.32,-35.61 2031.5,-19 2034.23,-18.6 2037.05,-18.17 2039.88,-17.71"/>
<polygon fill="#63b8ff" stroke="#63b8ff" points="1712.79,-54.67 1703.21,-59.2 1713.52,-61.63 1712.79,-54.67"/>
</a>
</g>
</g>
<!-- Node23 -->
<g id="Node000023" class="node">
<title>Node23</title>
<g id="a_Node000023"><a xlink:href="../../d5/d34/bdcall_8c.html" target="_top" xlink:title="Callbacks for the bond properties calculation dialog.">
<polygon fill="white" stroke="#666666" points="2211.5,-19 2139.5,-19 2139.5,0 2211.5,0 2211.5,-19"/>
<text text-anchor="middle" x="2175.5" y="-7" font-family="Helvetica,sans-Serif" font-size="10.00">gui/bdcall.c</text>
</a>
</g>
</g>
<!-- Node1&#45;&gt;Node23 -->
<g id="edge22_Node000001_Node000023" class="edge">
<title>Node1&#45;&gt;Node23</title>
<g id="a_edge22_Node000001_Node000023"><a xlink:title=" ">
<path fill="none" stroke="#63b8ff" d="M1713.15,-60.16C1799.73,-54.22 1979.53,-40.37 2130.5,-19 2133.33,-18.6 2136.26,-18.14 2139.2,-17.65"/>
<polygon fill="#63b8ff" stroke="#63b8ff" points="1712.8,-56.68 1703.06,-60.85 1713.27,-63.66 1712.8,-56.68"/>
</a>
</g>
</g>
<!-- Node24 -->
<g id="Node000024" class="node">
<title>Node24</title>
<g id="a_Node000024"><a xlink:href="../../d2/d01/chainscall_8c.html" target="_top" xlink:title="Callbacks for the chains statistics calculation dialog.">
<polygon fill="white" stroke="#666666" points="2321.5,-19 2229.5,-19 2229.5,0 2321.5,0 2321.5,-19"/>
<text text-anchor="middle" x="2275.5" y="-7" font-family="Helvetica,sans-Serif" font-size="10.00">gui/chainscall.c</text>
</a>
</g>
</g>
<!-- Node1&#45;&gt;Node24 -->
<g id="edge23_Node000001_Node000024" class="edge">
<title>Node1&#45;&gt;Node24</title>
<g id="a_edge23_Node000001_Node000024"><a xlink:title=" ">
<path fill="none" stroke="#63b8ff" d="M1713.35,-60.66C1812.22,-54.95 2034.42,-40.76 2220.5,-19 2223.38,-18.66 2226.34,-18.29 2229.32,-17.89"/>
<polygon fill="#63b8ff" stroke="#63b8ff" points="1713.11,-57.16 1703.33,-61.23 1713.51,-64.15 1713.11,-57.16"/>
</a>
</g>
</g>
<!-- Node25 -->
<g id="Node000025" class="node">
<title>Node25</title>
<g id="a_Node000025"><a xlink:href="../../dc/d6b/grcall_8c.html" target="_top" xlink:title="Callbacks for the g(r)/g(k) calculation dialog.">
<polygon fill="white" stroke="#666666" points="2409.5,-19 2339.5,-19 2339.5,0 2409.5,0 2409.5,-19"/>
<text text-anchor="middle" x="2374.5" y="-7" font-family="Helvetica,sans-Serif" font-size="10.00">gui/grcall.c</text>
</a>
</g>
</g>
<!-- Node1&#45;&gt;Node25 -->
<g id="edge24_Node000001_Node000025" class="edge">
<title>Node1&#45;&gt;Node25</title>
<g id="a_edge24_Node000001_Node000025"><a xlink:title=" ">
<path fill="none" stroke="#63b8ff" d="M1713.23,-62.25C1825.87,-59.05 2101.57,-48.61 2330.5,-19 2333.43,-18.62 2336.46,-18.17 2339.5,-17.67"/>
<polygon fill="#63b8ff" stroke="#63b8ff" points="1713.07,-58.75 1703.17,-62.53 1713.26,-65.75 1713.07,-58.75"/>
</a>
</g>
</g>
<!-- Node26 -->
<g id="Node000026" class="node">
<title>Node26</title>
<g id="a_Node000026"><a xlink:href="../../dd/dda/interface_8c.html" target="_top" xlink:title="General messaging functions.">
<polygon fill="white" stroke="#666666" points="2513.5,-19 2427.5,-19 2427.5,0 2513.5,0 2513.5,-19"/>
<text text-anchor="middle" x="2470.5" y="-7" font-family="Helvetica,sans-Serif" font-size="10.00">gui/interface.c</text>
</a>
</g>
</g>
<!-- Node1&#45;&gt;Node26 -->
<g id="edge25_Node000001_Node000026" class="edge">
<title>Node1&#45;&gt;Node26</title>
<g id="a_edge25_Node000001_Node000026"><a xlink:title=" ">
<path fill="none" stroke="#63b8ff" d="M1713.3,-62.3C1836.09,-59.05 2154.36,-48.27 2418.5,-19 2421.41,-18.68 2424.4,-18.3 2427.42,-17.89"/>
<polygon fill="#63b8ff" stroke="#63b8ff" points="1712.97,-58.81 1703.07,-62.56 1713.15,-65.8 1712.97,-58.81"/>
</a>
</g>
</g>
<!-- Node27 -->
<g id="Node000027" class="node">
<title>Node27</title>
<g id="a_Node000027"><a xlink:href="../../d8/d2b/msdcall_8c.html" target="_top" xlink:title="Callbacks for the MSD calculation dialog.">
<polygon fill="white" stroke="#666666" points="2613,-19 2532,-19 2532,0 2613,0 2613,-19"/>
<text text-anchor="middle" x="2572.5" y="-7" font-family="Helvetica,sans-Serif" font-size="10.00">gui/msdcall.c</text>
</a>
</g>
</g>
<!-- Node1&#45;&gt;Node27 -->
<g id="edge26_Node000001_Node000027" class="edge">
<title>Node1&#45;&gt;Node27</title>
<g id="a_edge26_Node000001_Node000027"><a xlink:title=" ">
<path fill="none" stroke="#63b8ff" d="M1713.71,-62.92C1848.17,-60.97 2217.23,-52.72 2522.5,-19 2525.56,-18.66 2528.72,-18.26 2531.9,-17.81"/>
<polygon fill="#63b8ff" stroke="#63b8ff" points="1713.25,-59.43 1703.3,-63.07 1713.35,-66.43 1713.25,-59.43"/>
</a>
</g>
</g>
<!-- Node28 -->
<g id="Node000028" class="node">
<title>Node28</title>
<g id="a_Node000028"><a xlink:href="../../d9/dc4/ringscall_8c.html" target="_top" xlink:title="Callbacks for the ring statistics calculation dialog.">
<polygon fill="white" stroke="#666666" points="2715.5,-19 2631.5,-19 2631.5,0 2715.5,0 2715.5,-19"/>
<text text-anchor="middle" x="2673.5" y="-7" font-family="Helvetica,sans-Serif" font-size="10.00">gui/ringscall.c</text>
</a>
</g>
</g>
<!-- Node1&#45;&gt;Node28 -->
<g id="edge27_Node000001_Node000028" class="edge">
<title>Node1&#45;&gt;Node28</title>
<g id="a_edge27_Node000001_Node000028"><a xlink:title=" ">
<path fill="none" stroke="#63b8ff" d="M1713.66,-63.26C1858.37,-62.13 2276.97,-55.66 2622.5,-19 2625.36,-18.7 2628.3,-18.34 2631.25,-17.94"/>
<polygon fill="#63b8ff" stroke="#63b8ff" points="1713.29,-59.76 1703.32,-63.34 1713.34,-66.76 1713.29,-59.76"/>
</a>
</g>
</g>
<!-- Node29 -->
<g id="Node000029" class="node">
<title>Node29</title>
<g id="a_Node000029"><a xlink:href="../../d9/dbe/spcall_8c.html" target="_top" xlink:title="Callbacks for the spherical harmonics calculation dialog.">
<polygon fill="white" stroke="#666666" points="2805,-19 2734,-19 2734,0 2805,0 2805,-19"/>
<text text-anchor="middle" x="2769.5" y="-7" font-family="Helvetica,sans-Serif" font-size="10.00">gui/spcall.c</text>
</a>
</g>
</g>
<!-- Node1&#45;&gt;Node29 -->
<g id="edge28_Node000001_Node000029" class="edge">
<title>Node1&#45;&gt;Node29</title>
<g id="a_edge28_Node000001_Node000029"><a xlink:title=" ">
<path fill="none" stroke="#63b8ff" d="M1713.34,-63.98C1867.76,-64.85 2337.93,-63.36 2724.5,-19 2727.5,-18.66 2730.6,-18.23 2733.71,-17.74"/>
<polygon fill="#63b8ff" stroke="#63b8ff" points="1713.23,-60.48 1703.2,-63.92 1713.18,-67.48 1713.23,-60.48"/>
</a>
</g>
</g>
<!-- Node30 -->
<g id="Node000030" class="node">
<title>Node30</title>
<g id="a_Node000030"><a xlink:href="../../d5/dde/sqcall_8c.html" target="_top" xlink:title="Callbacks for the s(q) / s(k) calculation dialog.">
<polygon fill="white" stroke="#666666" points="2894,-19 2823,-19 2823,0 2894,0 2894,-19"/>
<text text-anchor="middle" x="2858.5" y="-7" font-family="Helvetica,sans-Serif" font-size="10.00">gui/sqcall.c</text>
</a>
</g>
</g>
<!-- Node1&#45;&gt;Node30 -->
<g id="edge29_Node000001_Node000030" class="edge">
<title>Node1&#45;&gt;Node30</title>
<g id="a_edge29_Node000001_Node000030"><a xlink:title=" ">
<path fill="none" stroke="#63b8ff" d="M1713.54,-62.55C1908.67,-58.8 2596.74,-44.09 2814.5,-19 2817.13,-18.7 2819.83,-18.32 2822.55,-17.91"/>
<polygon fill="#63b8ff" stroke="#63b8ff" points="1713.21,-59.05 1703.28,-62.74 1713.34,-66.05 1713.21,-59.05"/>
</a>
</g>
</g>
<!-- Node31 -->
<g id="Node000031" class="node">
<title>Node31</title>
<g id="a_Node000031"><a xlink:href="../../d8/d15/atom__action_8c.html" target="_top" xlink:title="Functions to apply the edition actions to the model.">
<polygon fill="white" stroke="#666666" points="3055,-19 2912,-19 2912,0 3055,0 3055,-19"/>
<text text-anchor="middle" x="2983.5" y="-7" font-family="Helvetica,sans-Serif" font-size="10.00">opengl/edit/atom_action.c</text>
</a>
</g>
</g>
<!-- Node1&#45;&gt;Node31 -->
<g id="edge30_Node000001_Node000031" class="edge">
<title>Node1&#45;&gt;Node31</title>
<g id="a_edge30_Node000001_Node000031"><a xlink:title=" ">
<path fill="none" stroke="#63b8ff" d="M1713.29,-62.94C1883.74,-60.83 2442.62,-51.7 2903.5,-19 2906.29,-18.8 2909.13,-18.58 2911.99,-18.35"/>
<polygon fill="#63b8ff" stroke="#63b8ff" points="1713.06,-59.45 1703.1,-63.07 1713.14,-66.44 1713.06,-59.45"/>
</a>
</g>
</g>
<!-- Node32 -->
<g id="Node000032" class="node">
<title>Node32</title>
<g id="a_Node000032"><a xlink:href="../../d3/d50/close__p_8c.html" target="_top" xlink:title="Functions to close an atomes project &#160;&#160;Callbacks to close an atomes project.">
<polygon fill="white" stroke="#666666" points="3171.5,-19 3073.5,-19 3073.5,0 3171.5,0 3171.5,-19"/>
<text text-anchor="middle" x="3122.5" y="-7" font-family="Helvetica,sans-Serif" font-size="10.00">project/close_p.c</text>
</a>
</g>
</g>
<!-- Node1&#45;&gt;Node32 -->
<g id="edge31_Node000001_Node000032" class="edge">
<title>Node1&#45;&gt;Node32</title>
<g id="a_edge31_Node000001_Node000032"><a xlink:title=" ">
<path fill="none" stroke="#63b8ff" d="M1713.43,-63.98C1897.88,-65.23 2538.55,-65.73 3064.5,-19 3067.44,-18.74 3070.46,-18.43 3073.5,-18.08"/>
<polygon fill="#63b8ff" stroke="#63b8ff" points="1713.23,-60.48 1703.21,-63.91 1713.18,-67.48 1713.23,-60.48"/>
</a>
</g>
</g>
<!-- Node33 -->
<g id="Node000033" class="node">
<title>Node33</title>
<g id="a_Node000033"><a xlink:href="../../df/dd5/init__p_8c.html" target="_top" xlink:title="Functions to initialize an atomes project.">
<polygon fill="white" stroke="#666666" points="3279,-19 3190,-19 3190,0 3279,0 3279,-19"/>
<text text-anchor="middle" x="3234.5" y="-7" font-family="Helvetica,sans-Serif" font-size="10.00">project/init_p.c</text>
</a>
</g>
</g>
<!-- Node1&#45;&gt;Node33 -->
<g id="edge32_Node000001_Node000033" class="edge">
<title>Node1&#45;&gt;Node33</title>
<g id="a_edge32_Node000001_Node000033"><a xlink:title=" ">
<path fill="none" stroke="#63b8ff" d="M1713.18,-62.87C1944.52,-59.9 2886.37,-46.35 3180.5,-19 3183.52,-18.72 3186.64,-18.38 3189.77,-17.99"/>
<polygon fill="#63b8ff" stroke="#63b8ff" points="1712.98,-59.37 1703.03,-63 1713.07,-66.37 1712.98,-59.37"/>
</a>
</g>
</g>
<!-- Node34 -->
<g id="Node000034" class="node">
<title>Node34</title>
<g id="a_Node000034"><a xlink:href="../../da/d5e/open__p_8c.html" target="_top" xlink:title="Functions to start the reading of an atomes project file.">
<polygon fill="white" stroke="#666666" points="3394,-19 3297,-19 3297,0 3394,0 3394,-19"/>
<text text-anchor="middle" x="3345.5" y="-7" font-family="Helvetica,sans-Serif" font-size="10.00">project/open_p.c</text>
</a>
</g>
</g>
<!-- Node1&#45;&gt;Node34 -->
<g id="edge33_Node000001_Node000034" class="edge">
<title>Node1&#45;&gt;Node34</title>
<g id="a_edge33_Node000001_Node000034"><a xlink:title=" ">
<path fill="none" stroke="#63b8ff" d="M1713.27,-62.93C1954.72,-60.12 2971.79,-46.84 3288.5,-19 3291.19,-18.76 3293.95,-18.48 3296.73,-18.17"/>
<polygon fill="#63b8ff" stroke="#63b8ff" points="1712.98,-59.43 1703.02,-63.04 1713.06,-66.43 1712.98,-59.43"/>
</a>
</g>
</g>
</g>
</svg>
