<?xml version="1.0" encoding="UTF-8" standalone="no"?>
<!DOCTYPE svg PUBLIC "-//W3C//DTD SVG 1.1//EN"
 "http://www.w3.org/Graphics/SVG/1.1/DTD/svg11.dtd">
<!-- Generated by graphviz version 7.1.0 (0)
 -->
<!-- Title: curve/title.c Pages: 1 -->
<svg width="1619pt" height="247pt"
 viewBox="0.00 0.00 1618.50 247.00" xmlns="http://www.w3.org/2000/svg" xmlns:xlink="http://www.w3.org/1999/xlink">
<g id="graph0" class="graph" transform="scale(1 1) rotate(0) translate(4 243)">
<title>curve/title.c</title>
<!-- Node1 -->
<g id="Node000001" class="node">
<title>Node1</title>
<g id="a_Node000001"><a xlink:title="Functions to draw the title.">
<polygon fill="#999999" stroke="#666666" points="588.5,-239 520.5,-239 520.5,-220 588.5,-220 588.5,-239"/>
<text text-anchor="middle" x="554.5" y="-227" font-family="Helvetica,sans-Serif" font-size="10.00">curve/title.c</text>
</a>
</g>
</g>
<!-- Node2 -->
<g id="Node000002" class="node">
<title>Node2</title>
<g id="a_Node000002"><a xlink:title=" ">
<polygon fill="#e0e0e0" stroke="#999999" points="55,-74 0,-74 0,-55 55,-55 55,-74"/>
<text text-anchor="middle" x="27.5" y="-62" font-family="Helvetica,sans-Serif" font-size="10.00">gtk/gtk.h</text>
</a>
</g>
</g>
<!-- Node1&#45;&gt;Node2 -->
<g id="edge1_Node000001_Node000002" class="edge">
<title>Node1&#45;&gt;Node2</title>
<g id="a_edge1_Node000001_Node000002"><a xlink:title=" ">
<path fill="none" stroke="#63b8ff" d="M525.42,-219.5C436.28,-191.94 166.87,-108.61 66.09,-77.44"/>
<polygon fill="#63b8ff" stroke="#63b8ff" points="67.25,-74.13 56.66,-74.52 65.18,-80.82 67.25,-74.13"/>
</a>
</g>
</g>
<!-- Node3 -->
<g id="Node000003" class="node">
<title>Node3</title>
<g id="a_Node000003"><a xlink:title=" ">
<polygon fill="#e0e0e0" stroke="#999999" points="485.5,-184 439.5,-184 439.5,-165 485.5,-165 485.5,-184"/>
<text text-anchor="middle" x="462.5" y="-172" font-family="Helvetica,sans-Serif" font-size="10.00">cairo.h</text>
</a>
</g>
</g>
<!-- Node1&#45;&gt;Node3 -->
<g id="edge2_Node000001_Node000003" class="edge">
<title>Node1&#45;&gt;Node3</title>
<g id="a_edge2_Node000001_Node000003"><a xlink:title=" ">
<path fill="none" stroke="#63b8ff" d="M538.89,-219.51C524.8,-211.39 503.81,-199.3 487.4,-189.85"/>
<polygon fill="#63b8ff" stroke="#63b8ff" points="489.6,-187.07 479.19,-185.11 486.11,-193.14 489.6,-187.07"/>
</a>
</g>
</g>
<!-- Node4 -->
<g id="Node000004" class="node">
<title>Node4</title>
<g id="a_Node000004"><a xlink:title=" ">
<polygon fill="#e0e0e0" stroke="#999999" points="605,-184 504,-184 504,-165 605,-165 605,-184"/>
<text text-anchor="middle" x="554.5" y="-172" font-family="Helvetica,sans-Serif" font-size="10.00">pango/pangocairo.h</text>
</a>
</g>
</g>
<!-- Node1&#45;&gt;Node4 -->
<g id="edge3_Node000001_Node000004" class="edge">
<title>Node1&#45;&gt;Node4</title>
<g id="a_edge3_Node000001_Node000004"><a xlink:title=" ">
<path fill="none" stroke="#63b8ff" d="M554.5,-219.75C554.5,-213.27 554.5,-204.16 554.5,-195.9"/>
<polygon fill="#63b8ff" stroke="#63b8ff" points="558,-195.96 554.5,-185.96 551,-195.96 558,-195.96"/>
</a>
</g>
</g>
<!-- Node5 -->
<g id="Node000005" class="node">
<title>Node5</title>
<g id="a_Node000005"><a xlink:href="../../d2/d49/global_8h.html" target="_top" xlink:title="Global variable declarations &#160;&#160;Global convenience function declarations &#160;&#160;Global data structure defin...">
<polygon fill="white" stroke="#666666" points="725.5,-129 675.5,-129 675.5,-110 725.5,-110 725.5,-129"/>
<text text-anchor="middle" x="700.5" y="-117" font-family="Helvetica,sans-Serif" font-size="10.00">global.h</text>
</a>
</g>
</g>
<!-- Node1&#45;&gt;Node5 -->
<g id="edge4_Node000001_Node000005" class="edge">
<title>Node1&#45;&gt;Node5</title>
<g id="a_edge4_Node000001_Node000005"><a xlink:title=" ">
<path fill="none" stroke="#63b8ff" d="M588.77,-225.06C617.33,-220.41 657.14,-209.52 681.5,-184 692.69,-172.28 697.32,-154.23 699.22,-140.36"/>
<polygon fill="#63b8ff" stroke="#63b8ff" points="702.68,-140.91 700.16,-130.62 695.72,-140.23 702.68,-140.91"/>
</a>
</g>
</g>
<!-- Node27 -->
<g id="Node000027" class="node">
<title>Node27</title>
<g id="a_Node000027"><a xlink:href="../../df/de9/curve_8h.html" target="_top" xlink:title="Variable declarations for the curve widget \ Functions for interactions with the curve widget.">
<polygon fill="white" stroke="#666666" points="672,-184 623,-184 623,-165 672,-165 672,-184"/>
<text text-anchor="middle" x="647.5" y="-172" font-family="Helvetica,sans-Serif" font-size="10.00">curve.h</text>
</a>
</g>
</g>
<!-- Node1&#45;&gt;Node27 -->
<g id="edge29_Node000001_Node000027" class="edge">
<title>Node1&#45;&gt;Node27</title>
<g id="a_edge29_Node000001_Node000027"><a xlink:title=" ">
<path fill="none" stroke="#63b8ff" d="M570.28,-219.51C584.52,-211.39 605.74,-199.3 622.33,-189.85"/>
<polygon fill="#63b8ff" stroke="#63b8ff" points="623.69,-193.1 630.64,-185.11 620.22,-187.02 623.69,-193.1"/>
</a>
</g>
</g>
<!-- Node5&#45;&gt;Node2 -->
<g id="edge15_Node000005_Node000002" class="edge">
<title>Node5&#45;&gt;Node2</title>
<g id="a_edge15_Node000005_Node000002"><a xlink:title=" ">
<path fill="none" stroke="#63b8ff" d="M675.2,-118.14C590.46,-116.66 308.86,-109.32 66.44,-74.02"/>
<polygon fill="#63b8ff" stroke="#63b8ff" points="67.19,-70.59 56.79,-72.6 66.17,-77.52 67.19,-70.59"/>
</a>
</g>
</g>
<!-- Node6 -->
<g id="Node000006" class="node">
<title>Node6</title>
<g id="a_Node000006"><a xlink:title=" ">
<polygon fill="#e0e0e0" stroke="#999999" points="1610.5,-74 1570.5,-74 1570.5,-55 1610.5,-55 1610.5,-74"/>
<text text-anchor="middle" x="1590.5" y="-62" font-family="Helvetica,sans-Serif" font-size="10.00">glib.h</text>
</a>
</g>
</g>
<!-- Node5&#45;&gt;Node6 -->
<g id="edge5_Node000005_Node000006" class="edge">
<title>Node5&#45;&gt;Node6</title>
<g id="a_edge5_Node000005_Node000006"><a xlink:title=" ">
<path fill="none" stroke="#63b8ff" d="M725.92,-117.99C847.64,-115.41 1372.42,-102.9 1558.79,-73.98"/>
<polygon fill="#63b8ff" stroke="#63b8ff" points="1559.25,-77.45 1568.55,-72.38 1558.12,-70.54 1559.25,-77.45"/>
</a>
</g>
</g>
<!-- Node7 -->
<g id="Node000007" class="node">
<title>Node7</title>
<g id="a_Node000007"><a xlink:title=" ">
<polygon fill="#e0e0e0" stroke="#999999" points="139.5,-74 73.5,-74 73.5,-55 139.5,-55 139.5,-74"/>
<text text-anchor="middle" x="106.5" y="-62" font-family="Helvetica,sans-Serif" font-size="10.00">glib/gi18n.h</text>
</a>
</g>
</g>
<!-- Node5&#45;&gt;Node7 -->
<g id="edge6_Node000005_Node000007" class="edge">
<title>Node5&#45;&gt;Node7</title>
<g id="a_edge6_Node000005_Node000007"><a xlink:title=" ">
<path fill="none" stroke="#63b8ff" d="M675.07,-117.53C597.82,-114.36 358.93,-102.87 151.04,-74.19"/>
<polygon fill="#63b8ff" stroke="#63b8ff" points="151.8,-70.76 141.41,-72.84 150.83,-77.7 151.8,-70.76"/>
</a>
</g>
</g>
<!-- Node8 -->
<g id="Node000008" class="node">
<title>Node8</title>
<g id="a_Node000008"><a xlink:title=" ">
<polygon fill="#e0e0e0" stroke="#999999" points="207.5,-74 157.5,-74 157.5,-55 207.5,-55 207.5,-74"/>
<text text-anchor="middle" x="182.5" y="-62" font-family="Helvetica,sans-Serif" font-size="10.00">locale.h</text>
</a>
</g>
</g>
<!-- Node5&#45;&gt;Node8 -->
<g id="edge7_Node000005_Node000008" class="edge">
<title>Node5&#45;&gt;Node8</title>
<g id="a_edge7_Node000005_Node000008"><a xlink:title=" ">
<path fill="none" stroke="#63b8ff" d="M675.13,-117.54C604.42,-114.57 399.03,-103.99 218.94,-74.15"/>
<polygon fill="#63b8ff" stroke="#63b8ff" points="219.6,-70.71 209.15,-72.5 218.43,-77.61 219.6,-70.71"/>
</a>
</g>
</g>
<!-- Node9 -->
<g id="Node000009" class="node">
<title>Node9</title>
<g id="a_Node000009"><a xlink:title=" ">
<polygon fill="#e0e0e0" stroke="#999999" points="277,-74 226,-74 226,-55 277,-55 277,-74"/>
<text text-anchor="middle" x="251.5" y="-62" font-family="Helvetica,sans-Serif" font-size="10.00">unistd.h</text>
</a>
</g>
</g>
<!-- Node5&#45;&gt;Node9 -->
<g id="edge8_Node000005_Node000009" class="edge">
<title>Node5&#45;&gt;Node9</title>
<g id="a_edge8_Node000005_Node000009"><a xlink:title=" ">
<path fill="none" stroke="#63b8ff" d="M675.06,-117C611.42,-112.99 440.04,-100.59 288.3,-74.29"/>
<polygon fill="#63b8ff" stroke="#63b8ff" points="289.36,-70.92 278.9,-72.63 288.14,-77.81 289.36,-70.92"/>
</a>
</g>
</g>
<!-- Node10 -->
<g id="Node000010" class="node">
<title>Node10</title>
<g id="a_Node000010"><a xlink:title=" ">
<polygon fill="#e0e0e0" stroke="#999999" points="344,-74 295,-74 295,-55 344,-55 344,-74"/>
<text text-anchor="middle" x="319.5" y="-62" font-family="Helvetica,sans-Serif" font-size="10.00">string.h</text>
</a>
</g>
</g>
<!-- Node5&#45;&gt;Node10 -->
<g id="edge9_Node000005_Node000010" class="edge">
<title>Node5&#45;&gt;Node10</title>
<g id="a_edge9_Node000005_Node000010"><a xlink:title=" ">
<path fill="none" stroke="#63b8ff" d="M675.07,-115.94C618.15,-110.05 476.19,-94.44 358.5,-74 357.48,-73.82 356.46,-73.64 355.42,-73.45"/>
<polygon fill="#63b8ff" stroke="#63b8ff" points="356.17,-70.03 345.68,-71.51 354.8,-76.89 356.17,-70.03"/>
</a>
</g>
</g>
<!-- Node11 -->
<g id="Node000011" class="node">
<title>Node11</title>
<g id="a_Node000011"><a xlink:title=" ">
<polygon fill="#e0e0e0" stroke="#999999" points="595.5,-19 549.5,-19 549.5,0 595.5,0 595.5,-19"/>
<text text-anchor="middle" x="572.5" y="-7" font-family="Helvetica,sans-Serif" font-size="10.00">stdio.h</text>
</a>
</g>
</g>
<!-- Node5&#45;&gt;Node11 -->
<g id="edge10_Node000005_Node000011" class="edge">
<title>Node5&#45;&gt;Node11</title>
<g id="a_edge10_Node000005_Node000011"><a xlink:title=" ">
<path fill="none" stroke="#63b8ff" d="M675.39,-118.89C608.46,-119.34 428.32,-116.5 391.5,-74 349.3,-25.29 474.34,-13.94 537.88,-11.3"/>
<polygon fill="#63b8ff" stroke="#63b8ff" points="537.96,-14.8 547.83,-10.94 537.71,-7.8 537.96,-14.8"/>
</a>
</g>
</g>
<!-- Node12 -->
<g id="Node000012" class="node">
<title>Node12</title>
<g id="a_Node000012"><a xlink:title=" ">
<polygon fill="#e0e0e0" stroke="#999999" points="448.5,-74 400.5,-74 400.5,-55 448.5,-55 448.5,-74"/>
<text text-anchor="middle" x="424.5" y="-62" font-family="Helvetica,sans-Serif" font-size="10.00">stdlib.h</text>
</a>
</g>
</g>
<!-- Node5&#45;&gt;Node12 -->
<g id="edge11_Node000005_Node000012" class="edge">
<title>Node5&#45;&gt;Node12</title>
<g id="a_edge11_Node000005_Node000012"><a xlink:title=" ">
<path fill="none" stroke="#63b8ff" d="M675.19,-114.47C632.75,-107.59 544.3,-92.7 460.02,-74.43"/>
<polygon fill="#63b8ff" stroke="#63b8ff" points="460.96,-71.05 450.44,-72.33 459.46,-77.89 460.96,-71.05"/>
</a>
</g>
</g>
<!-- Node13 -->
<g id="Node000013" class="node">
<title>Node13</title>
<g id="a_Node000013"><a xlink:title=" ">
<polygon fill="#e0e0e0" stroke="#999999" points="534.5,-74 466.5,-74 466.5,-55 534.5,-55 534.5,-74"/>
<text text-anchor="middle" x="500.5" y="-62" font-family="Helvetica,sans-Serif" font-size="10.00">sys/types.h</text>
</a>
</g>
</g>
<!-- Node5&#45;&gt;Node13 -->
<g id="edge12_Node000005_Node000013" class="edge">
<title>Node5&#45;&gt;Node13</title>
<g id="a_edge12_Node000005_Node000013"><a xlink:title=" ">
<path fill="none" stroke="#63b8ff" d="M675.17,-111.79C642.57,-103.15 585.38,-87.99 545.35,-77.39"/>
<polygon fill="#63b8ff" stroke="#63b8ff" points="546.32,-74.02 535.76,-74.84 544.53,-80.79 546.32,-74.02"/>
</a>
</g>
</g>
<!-- Node14 -->
<g id="Node000014" class="node">
<title>Node14</title>
<g id="a_Node000014"><a xlink:title=" ">
<polygon fill="#e0e0e0" stroke="#999999" points="612.5,-74 552.5,-74 552.5,-55 612.5,-55 612.5,-74"/>
<text text-anchor="middle" x="582.5" y="-62" font-family="Helvetica,sans-Serif" font-size="10.00">sys/stat.h</text>
</a>
</g>
</g>
<!-- Node5&#45;&gt;Node14 -->
<g id="edge13_Node000005_Node000014" class="edge">
<title>Node5&#45;&gt;Node14</title>
<g id="a_edge13_Node000005_Node000014"><a xlink:title=" ">
<path fill="none" stroke="#63b8ff" d="M680.48,-109.51C661.89,-101.16 633.96,-88.61 612.67,-79.05"/>
<polygon fill="#63b8ff" stroke="#63b8ff" points="614.16,-75.88 603.6,-74.98 611.29,-82.27 614.16,-75.88"/>
</a>
</g>
</g>
<!-- Node15 -->
<g id="Node000015" class="node">
<title>Node15</title>
<g id="a_Node000015"><a xlink:title=" ">
<polygon fill="#e0e0e0" stroke="#999999" points="773,-19 726,-19 726,0 773,0 773,-19"/>
<text text-anchor="middle" x="749.5" y="-7" font-family="Helvetica,sans-Serif" font-size="10.00">math.h</text>
</a>
</g>
</g>
<!-- Node5&#45;&gt;Node15 -->
<g id="edge14_Node000005_Node000015" class="edge">
<title>Node5&#45;&gt;Node15</title>
<g id="a_edge14_Node000005_Node000015"><a xlink:title=" ">
<path fill="none" stroke="#63b8ff" d="M725.96,-118.83C843.99,-120.12 1334.07,-122.5 1379.5,-74 1385.27,-67.84 1385.26,-61.18 1379.5,-55 1338.81,-11.34 911.63,-9.76 784.81,-10.26"/>
<polygon fill="#63b8ff" stroke="#63b8ff" points="784.99,-6.76 775.01,-10.31 785.02,-13.76 784.99,-6.76"/>
</a>
</g>
</g>
<!-- Node16 -->
<g id="Node000016" class="node">
<title>Node16</title>
<g id="a_Node000016"><a xlink:title=" ">
<polygon fill="#e0e0e0" stroke="#999999" points="770,-74 711,-74 711,-55 770,-55 770,-74"/>
<text text-anchor="middle" x="740.5" y="-62" font-family="Helvetica,sans-Serif" font-size="10.00">gdk/gdk.h</text>
</a>
</g>
</g>
<!-- Node5&#45;&gt;Node16 -->
<g id="edge16_Node000005_Node000016" class="edge">
<title>Node5&#45;&gt;Node16</title>
<g id="a_edge16_Node000005_Node000016"><a xlink:title=" ">
<path fill="none" stroke="#63b8ff" d="M707.11,-109.75C712.46,-102.66 720.18,-92.42 726.85,-83.59"/>
<polygon fill="#63b8ff" stroke="#63b8ff" points="729.61,-85.74 732.84,-75.65 724.02,-81.52 729.61,-85.74"/>
</a>
</g>
</g>
<!-- Node17 -->
<g id="Node000017" class="node">
<title>Node17</title>
<g id="a_Node000017"><a xlink:title=" ">
<polygon fill="#e0e0e0" stroke="#999999" points="887,-74 788,-74 788,-55 887,-55 887,-74"/>
<text text-anchor="middle" x="837.5" y="-62" font-family="Helvetica,sans-Serif" font-size="10.00">gdk/gdkkeysyms.h</text>
</a>
</g>
</g>
<!-- Node5&#45;&gt;Node17 -->
<g id="edge17_Node000005_Node000017" class="edge">
<title>Node5&#45;&gt;Node17</title>
<g id="a_edge17_Node000005_Node000017"><a xlink:title=" ">
<path fill="none" stroke="#63b8ff" d="M723.74,-109.51C745.82,-100.97 779.25,-88.03 804.17,-78.4"/>
<polygon fill="#63b8ff" stroke="#63b8ff" points="805.13,-81.78 813.19,-74.9 802.6,-75.25 805.13,-81.78"/>
</a>
</g>
</g>
<!-- Node18 -->
<g id="Node000018" class="node">
<title>Node18</title>
<g id="a_Node000018"><a xlink:title=" ">
<polygon fill="#e0e0e0" stroke="#999999" points="1023.5,-74 905.5,-74 905.5,-55 1023.5,-55 1023.5,-74"/>
<text text-anchor="middle" x="964.5" y="-62" font-family="Helvetica,sans-Serif" font-size="10.00">gdk&#45;pixbuf/gdk&#45;pixbuf.h</text>
</a>
</g>
</g>
<!-- Node5&#45;&gt;Node18 -->
<g id="edge18_Node000005_Node000018" class="edge">
<title>Node5&#45;&gt;Node18</title>
<g id="a_edge18_Node000005_Node000018"><a xlink:title=" ">
<path fill="none" stroke="#63b8ff" d="M725.81,-113.42C767.71,-105.01 852.43,-88 908.83,-76.68"/>
<polygon fill="#63b8ff" stroke="#63b8ff" points="909.46,-80.12 918.58,-74.72 908.09,-73.26 909.46,-80.12"/>
</a>
</g>
</g>
<!-- Node19 -->
<g id="Node000019" class="node">
<title>Node19</title>
<g id="a_Node000019"><a xlink:title=" ">
<polygon fill="#e0e0e0" stroke="#999999" points="1133.5,-74 1041.5,-74 1041.5,-55 1133.5,-55 1133.5,-74"/>
<text text-anchor="middle" x="1087.5" y="-62" font-family="Helvetica,sans-Serif" font-size="10.00">pango/pangoft2.h</text>
</a>
</g>
</g>
<!-- Node5&#45;&gt;Node19 -->
<g id="edge19_Node000005_Node000019" class="edge">
<title>Node5&#45;&gt;Node19</title>
<g id="a_edge19_Node000005_Node000019"><a xlink:title=" ">
<path fill="none" stroke="#63b8ff" d="M725.93,-115.27C779.88,-108.37 910.05,-91.54 1030.09,-74.32"/>
<polygon fill="#63b8ff" stroke="#63b8ff" points="1030.4,-77.81 1039.8,-72.93 1029.4,-70.89 1030.4,-77.81"/>
</a>
</g>
</g>
<!-- Node20 -->
<g id="Node000020" class="node">
<title>Node20</title>
<g id="a_Node000020"><a xlink:title=" ">
<polygon fill="#e0e0e0" stroke="#999999" points="1213.5,-74 1151.5,-74 1151.5,-55 1213.5,-55 1213.5,-74"/>
<text text-anchor="middle" x="1182.5" y="-62" font-family="Helvetica,sans-Serif" font-size="10.00">epoxy/gl.h</text>
</a>
</g>
</g>
<!-- Node5&#45;&gt;Node20 -->
<g id="edge20_Node000005_Node000020" class="edge">
<title>Node5&#45;&gt;Node20</title>
<g id="a_edge20_Node000005_Node000020"><a xlink:title=" ">
<path fill="none" stroke="#63b8ff" d="M725.54,-116.94C791.61,-112.62 976.22,-99.24 1139.87,-74.25"/>
<polygon fill="#63b8ff" stroke="#63b8ff" points="1140.27,-77.73 1149.62,-72.74 1139.2,-70.81 1140.27,-77.73"/>
</a>
</g>
</g>
<!-- Node21 -->
<g id="Node000021" class="node">
<title>Node21</title>
<g id="a_Node000021"><a xlink:title=" ">
<polygon fill="#e0e0e0" stroke="#999999" points="1285,-74 1232,-74 1232,-55 1285,-55 1285,-74"/>
<text text-anchor="middle" x="1258.5" y="-62" font-family="Helvetica,sans-Serif" font-size="10.00">GL/glu.h</text>
</a>
</g>
</g>
<!-- Node5&#45;&gt;Node21 -->
<g id="edge21_Node000005_Node000021" class="edge">
<title>Node5&#45;&gt;Node21</title>
<g id="a_edge21_Node000005_Node000021"><a xlink:title=" ">
<path fill="none" stroke="#63b8ff" d="M725.92,-117.66C800.4,-114.9 1024.68,-104.64 1220.76,-74.01"/>
<polygon fill="#63b8ff" stroke="#63b8ff" points="1221.03,-77.51 1230.36,-72.49 1219.93,-70.6 1221.03,-77.51"/>
</a>
</g>
</g>
<!-- Node22 -->
<g id="Node000022" class="node">
<title>Node22</title>
<g id="a_Node000022"><a xlink:title=" ">
<polygon fill="#e0e0e0" stroke="#999999" points="1370,-74 1303,-74 1303,-55 1370,-55 1370,-74"/>
<text text-anchor="middle" x="1336.5" y="-62" font-family="Helvetica,sans-Serif" font-size="10.00">epoxy/glx.h</text>
</a>
</g>
</g>
<!-- Node5&#45;&gt;Node22 -->
<g id="edge22_Node000005_Node000022" class="edge">
<title>Node5&#45;&gt;Node22</title>
<g id="a_edge22_Node000005_Node000022"><a xlink:title=" ">
<path fill="none" stroke="#63b8ff" d="M725.8,-117.73C806.74,-115.05 1066.7,-104.59 1291.29,-74.28"/>
<polygon fill="#63b8ff" stroke="#63b8ff" points="1291.7,-77.76 1301.14,-72.94 1290.75,-70.82 1291.7,-77.76"/>
</a>
</g>
</g>
<!-- Node23 -->
<g id="Node000023" class="node">
<title>Node23</title>
<g id="a_Node000023"><a xlink:href="../../dc/db0/math__3d_8h.html" target="_top" xlink:title="Functions for OpenGL math.">
<polygon fill="white" stroke="#666666" points="692.5,-74 630.5,-74 630.5,-55 692.5,-55 692.5,-74"/>
<text text-anchor="middle" x="661.5" y="-62" font-family="Helvetica,sans-Serif" font-size="10.00">math_3d.h</text>
</a>
</g>
</g>
<!-- Node5&#45;&gt;Node23 -->
<g id="edge23_Node000005_Node000023" class="edge">
<title>Node5&#45;&gt;Node23</title>
<g id="a_edge23_Node000005_Node000023"><a xlink:title=" ">
<path fill="none" stroke="#63b8ff" d="M694.06,-109.75C688.84,-102.66 681.31,-92.42 674.81,-83.59"/>
<polygon fill="#63b8ff" stroke="#63b8ff" points="677.72,-81.64 668.98,-75.66 672.08,-85.79 677.72,-81.64"/>
</a>
</g>
</g>
<!-- Node24 -->
<g id="Node000024" class="node">
<title>Node24</title>
<g id="a_Node000024"><a xlink:href="../../da/d7e/glwin_8h.html" target="_top" xlink:title="Variable declarations related the OpenGL window &#160;&#160;Data structure declarations related the OpenGL wind...">
<polygon fill="white" stroke="#666666" points="1474,-74 1427,-74 1427,-55 1474,-55 1474,-74"/>
<text text-anchor="middle" x="1450.5" y="-62" font-family="Helvetica,sans-Serif" font-size="10.00">glwin.h</text>
</a>
</g>
</g>
<!-- Node5&#45;&gt;Node24 -->
<g id="edge26_Node000005_Node000024" class="edge">
<title>Node5&#45;&gt;Node24</title>
<g id="a_edge26_Node000005_Node000024"><a xlink:title=" ">
<path fill="none" stroke="#63b8ff" d="M725.87,-118.36C818.34,-117.53 1145.8,-111.92 1412.5,-74 1413.52,-73.85 1414.56,-73.7 1415.61,-73.53"/>
<polygon fill="#63b8ff" stroke="#63b8ff" points="1416.23,-76.97 1425.4,-71.67 1414.93,-70.09 1416.23,-76.97"/>
</a>
</g>
</g>
<!-- Node26 -->
<g id="Node000026" class="node">
<title>Node26</title>
<g id="a_Node000026"><a xlink:title=" ">
<polygon fill="#e0e0e0" stroke="#999999" points="1552.5,-74 1492.5,-74 1492.5,-55 1552.5,-55 1552.5,-74"/>
<text text-anchor="middle" x="1522.5" y="-62" font-family="Helvetica,sans-Serif" font-size="10.00">gtk/gtkx.h</text>
</a>
</g>
</g>
<!-- Node5&#45;&gt;Node26 -->
<g id="edge28_Node000005_Node000026" class="edge">
<title>Node5&#45;&gt;Node26</title>
<g id="a_edge28_Node000005_Node000026"><a xlink:title=" ">
<path fill="none" stroke="#63b8ff" d="M725.99,-118.51C823.05,-118.24 1178.89,-114.47 1481.17,-74.08"/>
<polygon fill="#63b8ff" stroke="#63b8ff" points="1481.41,-77.58 1490.85,-72.77 1480.47,-70.64 1481.41,-77.58"/>
</a>
</g>
</g>
<!-- Node23&#45;&gt;Node11 -->
<g id="edge25_Node000023_Node000011" class="edge">
<title>Node23&#45;&gt;Node11</title>
<g id="a_edge25_Node000023_Node000011"><a xlink:title=" ">
<path fill="none" stroke="#63b8ff" d="M646.4,-54.51C632.9,-46.47 612.85,-34.53 597.04,-25.11"/>
<polygon fill="#63b8ff" stroke="#63b8ff" points="599.06,-22.24 588.68,-20.13 595.48,-28.26 599.06,-22.24"/>
</a>
</g>
</g>
<!-- Node23&#45;&gt;Node15 -->
<g id="edge24_Node000023_Node000015" class="edge">
<title>Node23&#45;&gt;Node15</title>
<g id="a_edge24_Node000023_Node000015"><a xlink:title=" ">
<path fill="none" stroke="#63b8ff" d="M676.43,-54.51C689.78,-46.47 709.61,-34.53 725.24,-25.11"/>
<polygon fill="#63b8ff" stroke="#63b8ff" points="726.74,-28.3 733.5,-20.14 723.12,-22.3 726.74,-28.3"/>
</a>
</g>
</g>
<!-- Node25 -->
<g id="Node000025" class="node">
<title>Node25</title>
<g id="a_Node000025"><a xlink:href="../../d5/d9e/ogl__shading_8h.html" target="_top" xlink:title="Variable declarations related to GLSL programs &#160;&#160;Data structure declarations related to GLSL programs...">
<polygon fill="white" stroke="#666666" points="1489,-19 1412,-19 1412,0 1489,0 1489,-19"/>
<text text-anchor="middle" x="1450.5" y="-7" font-family="Helvetica,sans-Serif" font-size="10.00">ogl_shading.h</text>
</a>
</g>
</g>
<!-- Node24&#45;&gt;Node25 -->
<g id="edge27_Node000024_Node000025" class="edge">
<title>Node24&#45;&gt;Node25</title>
<g id="a_edge27_Node000024_Node000025"><a xlink:title=" ">
<path fill="none" stroke="#63b8ff" d="M1450.5,-54.75C1450.5,-48.27 1450.5,-39.16 1450.5,-30.9"/>
<polygon fill="#63b8ff" stroke="#63b8ff" points="1454,-30.96 1450.5,-20.96 1447,-30.96 1454,-30.96"/>
</a>
</g>
</g>
<!-- Node27&#45;&gt;Node5 -->
<g id="edge30_Node000027_Node000005" class="edge">
<title>Node27&#45;&gt;Node5</title>
<g id="a_edge30_Node000027_Node000005"><a xlink:title=" ">
<path fill="none" stroke="#63b8ff" d="M656.25,-164.75C663.65,-157.35 674.46,-146.54 683.55,-137.45"/>
<polygon fill="#63b8ff" stroke="#63b8ff" points="685.89,-140.06 690.49,-130.51 680.94,-135.11 685.89,-140.06"/>
</a>
</g>
</g>
</g>
</svg>
