<?xml version="1.0" encoding="UTF-8" standalone="no"?>
<!DOCTYPE svg PUBLIC "-//W3C//DTD SVG 1.1//EN"
 "http://www.w3.org/Graphics/SVG/1.1/DTD/svg11.dtd">
<!-- Generated by graphviz version 9.0.0 (20230911.1827)
 -->
<!-- Title: atom_edition Pages: 1 -->
<svg width="190pt" height="184pt"
 viewBox="0.00 0.00 190.38 184.00" xmlns="http://www.w3.org/2000/svg" xmlns:xlink="http://www.w3.org/1999/xlink">

<svg id="main" version="1.1" xmlns="http://www.w3.org/2000/svg" xmlns:xlink="http://www.w3.org/1999/xlink" xml:space="preserve" onload="init(evt)">
<style type="text/css"><![CDATA[
.node, .edge {opacity: 0.7;}
.node.selected, .edge.selected {opacity: 1;}
.edge:hover path { stroke: red; }
.edge:hover polygon { stroke: red; fill: red; }
]]></style>
<script type="application/ecmascript" xlink:href="../../svg.min.js"/>
<svg id="graph" class="graph">
<g id="graph0" class="graph" transform="scale(1 1) rotate(0) translate(4 180)">
<title>atom_edition</title>
<!-- Node1 -->
<g id="Node000001" class="node">
<title>Node1</title>
<g id="a_Node000001"><a xlink:title=" ">
<polygon fill="#999999" stroke="#666666" points="131.12,-20 59.62,-20 59.62,0 131.12,0 131.12,-20"/>
<text text-anchor="middle" x="95.38" y="-6.5" font-family="Helvetica,sans-Serif" font-size="10.00">atom_edition</text>
</a>
</g>
</g>
<!-- Node2 -->
<g id="Node000002" class="node">
<title>Node2</title>
<g id="a_Node000002"><a xlink:href="../../d0/de8/structatomic__object.html" target="_top" xlink:title=" ">
<polygon fill="white" stroke="#666666" points="76.75,-102 0,-102 0,-82 76.75,-82 76.75,-102"/>
<text text-anchor="middle" x="38.38" y="-88.5" font-family="Helvetica,sans-Serif" font-size="10.00">atomic_object</text>
</a>
</g>
</g>
<!-- Node2&#45;&gt;Node1 -->
<g id="edge1_Node000001_Node000002" class="edge">
<title>Node2&#45;&gt;Node1</title>
<g id="a_edge1_Node000001_Node000002"><a xlink:title=" ">
<path fill="none" stroke="#9a32cd" stroke-dasharray="5,2" d="M49.25,-72.04C55.43,-61.71 63.53,-48.86 71.62,-38 76.25,-31.79 81.97,-25.27 86.64,-20.18"/>
<polygon fill="#9a32cd" stroke="#9a32cd" points="46.39,-70 44.36,-80.4 52.43,-73.54 46.39,-70"/>
</a>
</g>
<text text-anchor="middle" x="105.75" y="-52.5" font-family="Helvetica,sans-Serif" font-size="10.00" fill="grey"> to_be_inserted</text>
<text text-anchor="middle" x="105.75" y="-40.5" font-family="Helvetica,sans-Serif" font-size="10.00" fill="grey">to_be_moved</text>
</g>
<!-- Node2&#45;&gt;Node2 -->
<g id="edge5_Node000002_Node000002" class="edge">
<title>Node2&#45;&gt;Node2</title>
<g id="a_edge5_Node000002_Node000002"><a xlink:title=" ">
<path fill="none" stroke="#9a32cd" stroke-dasharray="5,2" d="M88.46,-97.1C92.35,-95.97 94.75,-94.27 94.75,-92 94.75,-87.96 87.17,-85.73 77.11,-85.32"/>
<polygon fill="#9a32cd" stroke="#9a32cd" points="88.03,-93.62 78.61,-98.47 88.99,-100.56 88.03,-93.62"/>
</a>
</g>
<text text-anchor="middle" x="105.62" y="-94.5" font-family="Helvetica,sans-Serif" font-size="10.00" fill="grey"> next</text>
<text text-anchor="middle" x="105.62" y="-82.5" font-family="Helvetica,sans-Serif" font-size="10.00" fill="grey">prev</text>
</g>
<!-- Node3 -->
<g id="Node000003" class="node">
<title>Node3</title>
<g id="a_Node000003"><a xlink:href="../../da/d81/structatom.html" target="_top" xlink:title=" ">
<polygon fill="white" stroke="#666666" points="57.25,-174 19.5,-174 19.5,-154 57.25,-154 57.25,-174"/>
<text text-anchor="middle" x="38.38" y="-160.5" font-family="Helvetica,sans-Serif" font-size="10.00">atom</text>
</a>
</g>
</g>
<!-- Node3&#45;&gt;Node2 -->
<g id="edge2_Node000002_Node000003" class="edge">
<title>Node3&#45;&gt;Node2</title>
<g id="a_edge2_Node000002_Node000003"><a xlink:title=" ">
<path fill="none" stroke="#9a32cd" stroke-dasharray="5,2" d="M38.38,-142.17C38.38,-128.92 38.38,-112.41 38.38,-102.29"/>
<polygon fill="#9a32cd" stroke="#9a32cd" points="34.88,-142.05 38.38,-152.05 41.88,-142.05 34.88,-142.05"/>
</a>
</g>
<text text-anchor="middle" x="53" y="-124.5" font-family="Helvetica,sans-Serif" font-size="10.00" fill="grey"> at_list</text>
</g>
<!-- Node3&#45;&gt;Node3 -->
<g id="edge3_Node000003_Node000003" class="edge">
<title>Node3&#45;&gt;Node3</title>
<g id="a_edge3_Node000003_Node000003"><a xlink:title=" ">
<path fill="none" stroke="#9a32cd" stroke-dasharray="5,2" d="M69.04,-169.84C72.79,-168.79 75.25,-166.85 75.25,-164 75.25,-158.8 67.03,-156.6 57.73,-157.41"/>
<polygon fill="#9a32cd" stroke="#9a32cd" points="68.98,-166.33 59.24,-170.49 69.45,-173.32 68.98,-166.33"/>
</a>
</g>
<text text-anchor="middle" x="86.12" y="-166.5" font-family="Helvetica,sans-Serif" font-size="10.00" fill="grey"> next</text>
<text text-anchor="middle" x="86.12" y="-154.5" font-family="Helvetica,sans-Serif" font-size="10.00" fill="grey">prev</text>
</g>
<!-- Node4 -->
<g id="Node000004" class="node">
<title>Node4</title>
<g id="a_Node000004"><a xlink:href="../../df/ddc/structcoord__info.html" target="_top" xlink:title=" ">
<polygon fill="white" stroke="#666666" points="179.88,-174 118.88,-174 118.88,-154 179.88,-154 179.88,-174"/>
<text text-anchor="middle" x="149.38" y="-160.5" font-family="Helvetica,sans-Serif" font-size="10.00">coord_info</text>
</a>
</g>
</g>
<!-- Node4&#45;&gt;Node1 -->
<g id="edge6_Node000001_Node000004" class="edge">
<title>Node4&#45;&gt;Node1</title>
<g id="a_edge6_Node000001_Node000004"><a xlink:title=" ">
<path fill="none" stroke="#9a32cd" stroke-dasharray="5,2" d="M152.82,-142.51C156.14,-116.25 158.11,-70.26 138.38,-38 133.78,-30.48 126.21,-24.72 118.69,-20.48"/>
<polygon fill="#9a32cd" stroke="#9a32cd" points="149.39,-141.77 151.4,-152.17 156.32,-142.79 149.39,-141.77"/>
</a>
</g>
<text text-anchor="middle" x="168.88" y="-88.5" font-family="Helvetica,sans-Serif" font-size="10.00" fill="grey"> coord</text>
</g>
<!-- Node4&#45;&gt;Node2 -->
<g id="edge4_Node000002_Node000004" class="edge">
<title>Node4&#45;&gt;Node2</title>
<g id="a_edge4_Node000002_Node000004"><a xlink:title=" ">
<path fill="none" stroke="#9a32cd" stroke-dasharray="5,2" d="M124.77,-147.49C102.82,-133.64 71.39,-113.82 53.11,-102.29"/>
<polygon fill="#9a32cd" stroke="#9a32cd" points="122.8,-150.38 133.12,-152.75 126.53,-144.46 122.8,-150.38"/>
</a>
</g>
<text text-anchor="middle" x="114.88" y="-124.5" font-family="Helvetica,sans-Serif" font-size="10.00" fill="grey"> coord</text>
</g>
</g>
</svg>
</svg>

<style type='text/css'>
<![CDATA[
[data-mouse-over-selected='false'] { opacity: 0.7; }
[data-mouse-over-selected='true']  { opacity: 1.0; }
]]>
</style>
<script type="application/ecmascript"><![CDATA[
document.addEventListener('DOMContentLoaded', (event) => {
  highlightEdges();
  highlightAdjacentNodes();
});
]]></script>
</svg>
