<?xml version="1.0" encoding="UTF-8" standalone="no"?>
<!DOCTYPE svg PUBLIC "-//W3C//DTD SVG 1.1//EN"
 "http://www.w3.org/Graphics/SVG/1.1/DTD/svg11.dtd">
<!-- Generated by graphviz version 7.1.0 (0)
 -->
<!-- Title: atom_edition Pages: 1 -->
<svg width="192pt" height="176pt"
 viewBox="0.00 0.00 191.50 176.00" xmlns="http://www.w3.org/2000/svg" xmlns:xlink="http://www.w3.org/1999/xlink">
<g id="graph0" class="graph" transform="scale(1 1) rotate(0) translate(4 172)">
<title>atom_edition</title>
<!-- Node1 -->
<g id="node1" class="node">
<title>Node1</title>
<g id="a_node1"><a xlink:title=" ">
<polygon fill="#999999" stroke="#666666" points="132.5,-19 60.5,-19 60.5,0 132.5,0 132.5,-19"/>
<text text-anchor="middle" x="96.5" y="-7" font-family="Helvetica,sans-Serif" font-size="10.00">atom_edition</text>
</a>
</g>
</g>
<!-- Node2 -->
<g id="node2" class="node">
<title>Node2</title>
<g id="a_node2"><a xlink:href="../../d0/de8/structatomic__object.html" target="_top" xlink:title=" ">
<polygon fill="white" stroke="#666666" points="77,-97.5 0,-97.5 0,-78.5 77,-78.5 77,-97.5"/>
<text text-anchor="middle" x="38.5" y="-85.5" font-family="Helvetica,sans-Serif" font-size="10.00">atomic_object</text>
</a>
</g>
</g>
<!-- Node2&#45;&gt;Node1 -->
<g id="edge1" class="edge">
<title>Node2&#45;&gt;Node1</title>
<path fill="none" stroke="#9a32cd" stroke-dasharray="5,2" d="M49.97,-68.84C56.31,-59.16 64.49,-47.18 72.5,-37 77.41,-30.76 83.41,-24.13 88.18,-19.07"/>
<polygon fill="#9a32cd" stroke="#9a32cd" points="47.21,-66.67 44.74,-76.98 53.1,-70.46 47.21,-66.67"/>
<text text-anchor="middle" x="106" y="-51" font-family="Helvetica,sans-Serif" font-size="10.00"> to_be_inserted</text>
<text text-anchor="middle" x="106" y="-40" font-family="Helvetica,sans-Serif" font-size="10.00">to_be_moved</text>
</g>
<!-- Node2&#45;&gt;Node2 -->
<g id="edge5" class="edge">
<title>Node2&#45;&gt;Node2</title>
<path fill="none" stroke="#9a32cd" stroke-dasharray="5,2" d="M88.7,-92.89C92.59,-91.81 95,-90.18 95,-88 95,-84.13 87.4,-81.99 77.32,-81.6"/>
<polygon fill="#9a32cd" stroke="#9a32cd" points="88.27,-89.41 78.82,-94.2 89.19,-96.35 88.27,-89.41"/>
<text text-anchor="middle" x="106" y="-91" font-family="Helvetica,sans-Serif" font-size="10.00"> next</text>
<text text-anchor="middle" x="106" y="-80" font-family="Helvetica,sans-Serif" font-size="10.00">prev</text>
</g>
<!-- Node3 -->
<g id="node3" class="node">
<title>Node3</title>
<g id="a_node3"><a xlink:href="../../da/d81/structatom.html" target="_top" xlink:title=" ">
<polygon fill="white" stroke="#666666" points="57.5,-166.5 19.5,-166.5 19.5,-147.5 57.5,-147.5 57.5,-166.5"/>
<text text-anchor="middle" x="38.5" y="-154.5" font-family="Helvetica,sans-Serif" font-size="10.00">atom</text>
</a>
</g>
</g>
<!-- Node3&#45;&gt;Node2 -->
<g id="edge2" class="edge">
<title>Node3&#45;&gt;Node2</title>
<path fill="none" stroke="#9a32cd" stroke-dasharray="5,2" d="M38.5,-135.97C38.5,-123.34 38.5,-107.64 38.5,-97.98"/>
<polygon fill="#9a32cd" stroke="#9a32cd" points="35,-135.73 38.5,-145.73 42,-135.73 35,-135.73"/>
<text text-anchor="middle" x="53.5" y="-120" font-family="Helvetica,sans-Serif" font-size="10.00"> at_list</text>
</g>
<!-- Node3&#45;&gt;Node3 -->
<g id="edge3" class="edge">
<title>Node3&#45;&gt;Node3</title>
<path fill="none" stroke="#9a32cd" stroke-dasharray="5,2" d="M69.27,-162.59C73.03,-161.59 75.5,-159.73 75.5,-157 75.5,-152.01 67.26,-149.91 57.92,-150.69"/>
<polygon fill="#9a32cd" stroke="#9a32cd" points="69.19,-159.09 59.43,-163.22 69.63,-166.08 69.19,-159.09"/>
<text text-anchor="middle" x="86.5" y="-160" font-family="Helvetica,sans-Serif" font-size="10.00"> next</text>
<text text-anchor="middle" x="86.5" y="-149" font-family="Helvetica,sans-Serif" font-size="10.00">prev</text>
</g>
<!-- Node4 -->
<g id="node4" class="node">
<title>Node4</title>
<g id="a_node4"><a xlink:href="../../df/ddc/structcoord__info.html" target="_top" xlink:title=" ">
<polygon fill="white" stroke="#666666" points="181.5,-166.5 119.5,-166.5 119.5,-147.5 181.5,-147.5 181.5,-166.5"/>
<text text-anchor="middle" x="150.5" y="-154.5" font-family="Helvetica,sans-Serif" font-size="10.00">coord_info</text>
</a>
</g>
</g>
<!-- Node4&#45;&gt;Node1 -->
<g id="edge6" class="edge">
<title>Node4&#45;&gt;Node1</title>
<path fill="none" stroke="#9a32cd" stroke-dasharray="5,2" d="M153.8,-135.77C156.81,-110.63 158.32,-67.33 139.5,-37 134.78,-29.4 127,-23.65 119.34,-19.48"/>
<polygon fill="#9a32cd" stroke="#9a32cd" points="150.35,-135.21 152.4,-145.6 157.28,-136.2 150.35,-135.21"/>
<text text-anchor="middle" x="169.5" y="-85.5" font-family="Helvetica,sans-Serif" font-size="10.00"> coord</text>
</g>
<!-- Node4&#45;&gt;Node2 -->
<g id="edge4" class="edge">
<title>Node4&#45;&gt;Node2</title>
<path fill="none" stroke="#9a32cd" stroke-dasharray="5,2" d="M126.18,-141.45C104.06,-128.22 72.11,-109.1 53.5,-97.98"/>
<polygon fill="#9a32cd" stroke="#9a32cd" points="124.18,-144.33 134.56,-146.46 127.77,-138.33 124.18,-144.33"/>
<text text-anchor="middle" x="115.5" y="-120" font-family="Helvetica,sans-Serif" font-size="10.00"> coord</text>
</g>
</g>
</svg>
