<?xml version="1.0" encoding="UTF-8" standalone="no"?>
<!DOCTYPE svg PUBLIC "-//W3C//DTD SVG 1.1//EN"
 "http://www.w3.org/Graphics/SVG/1.1/DTD/svg11.dtd">
<!-- Generated by graphviz version 2.43.0 (0)
 -->
<!-- Title: atom_edition Pages: 1 -->
<svg width="206pt" height="176pt"
 viewBox="0.00 0.00 206.00 176.00" xmlns="http://www.w3.org/2000/svg" xmlns:xlink="http://www.w3.org/1999/xlink">
<g id="graph0" class="graph" transform="scale(1 1) rotate(0) translate(4 172)">
<title>atom_edition</title>
<!-- Node1 -->
<g id="Node000001" class="node">
<title>Node1</title>
<g id="a_Node000001"><a xlink:title=" ">
<polygon fill="#999999" stroke="#666666" points="144.5,-19 63.5,-19 63.5,0 144.5,0 144.5,-19"/>
<text text-anchor="middle" x="104" y="-7" font-family="Helvetica,sans-Serif" font-size="10.00">atom_edition</text>
</a>
</g>
</g>
<!-- Node2 -->
<g id="Node000002" class="node">
<title>Node2</title>
<g id="a_Node000002"><a xlink:href="../../d0/de8/structatomic__object.html" target="_top" xlink:title=" ">
<polygon fill="white" stroke="#666666" points="86,-97.5 0,-97.5 0,-78.5 86,-78.5 86,-97.5"/>
<text text-anchor="middle" x="43" y="-85.5" font-family="Helvetica,sans-Serif" font-size="10.00">atomic_object</text>
</a>
</g>
</g>
<!-- Node2&#45;&gt;Node1 -->
<g id="edge1_Node000001_Node000002" class="edge">
<title>Node2&#45;&gt;Node1</title>
<g id="a_edge1_Node000001_Node000002"><a xlink:title=" ">
<path fill="none" stroke="#9a32cd" stroke-dasharray="5,2" d="M52.7,-69.45C58.57,-59.49 66.54,-47.05 75,-37 80.45,-30.53 87.42,-24.11 93.17,-19.21"/>
<polygon fill="#9a32cd" stroke="#9a32cd" points="49.51,-67.98 47.59,-78.4 55.58,-71.45 49.51,-67.98"/>
</a>
</g>
<text text-anchor="middle" x="113" y="-51" font-family="Helvetica,sans-Serif" font-size="10.00" fill="grey"> to_be_inserted</text>
<text text-anchor="middle" x="113" y="-40" font-family="Helvetica,sans-Serif" font-size="10.00" fill="grey">to_be_moved</text>
</g>
<!-- Node2&#45;&gt;Node2 -->
<g id="edge5_Node000002_Node000002" class="edge">
<title>Node2&#45;&gt;Node2</title>
<g id="a_edge5_Node000002_Node000002"><a xlink:title=" ">
<path fill="none" stroke="#9a32cd" stroke-dasharray="5,2" d="M96.25,-93.04C101.01,-91.98 104,-90.3 104,-88 104,-84.31 96.35,-82.23 86.04,-81.74"/>
<polygon fill="#9a32cd" stroke="#9a32cd" points="95.55,-89.6 86.04,-94.26 96.38,-96.55 95.55,-89.6"/>
</a>
</g>
<text text-anchor="middle" x="116.5" y="-91" font-family="Helvetica,sans-Serif" font-size="10.00" fill="grey"> next</text>
<text text-anchor="middle" x="116.5" y="-80" font-family="Helvetica,sans-Serif" font-size="10.00" fill="grey">prev</text>
</g>
<!-- Node3 -->
<g id="Node000003" class="node">
<title>Node3</title>
<g id="a_Node000003"><a xlink:href="../../da/d81/structatom.html" target="_top" xlink:title=" ">
<polygon fill="white" stroke="#666666" points="64,-166.5 22,-166.5 22,-147.5 64,-147.5 64,-166.5"/>
<text text-anchor="middle" x="43" y="-154.5" font-family="Helvetica,sans-Serif" font-size="10.00">atom</text>
</a>
</g>
</g>
<!-- Node3&#45;&gt;Node2 -->
<g id="edge2_Node000002_Node000003" class="edge">
<title>Node3&#45;&gt;Node2</title>
<g id="a_edge2_Node000002_Node000003"><a xlink:title=" ">
<path fill="none" stroke="#9a32cd" stroke-dasharray="5,2" d="M43,-137.02C43,-124.03 43,-107.44 43,-97.55"/>
<polygon fill="#9a32cd" stroke="#9a32cd" points="39.5,-137.24 43,-147.24 46.5,-137.24 39.5,-137.24"/>
</a>
</g>
<text text-anchor="middle" x="60" y="-120" font-family="Helvetica,sans-Serif" font-size="10.00" fill="grey"> at_list</text>
</g>
<!-- Node3&#45;&gt;Node3 -->
<g id="edge3_Node000003_Node000003" class="edge">
<title>Node3&#45;&gt;Node3</title>
<g id="a_edge3_Node000003_Node000003"><a xlink:title=" ">
<path fill="none" stroke="#9a32cd" stroke-dasharray="5,2" d="M74.41,-162.74C78.95,-161.83 82,-159.91 82,-157 82,-152.22 73.77,-150.13 64.26,-150.72"/>
<polygon fill="#9a32cd" stroke="#9a32cd" points="74.06,-159.26 64.26,-163.28 74.43,-166.25 74.06,-159.26"/>
</a>
</g>
<text text-anchor="middle" x="94.5" y="-160" font-family="Helvetica,sans-Serif" font-size="10.00" fill="grey"> next</text>
<text text-anchor="middle" x="94.5" y="-149" font-family="Helvetica,sans-Serif" font-size="10.00" fill="grey">prev</text>
</g>
<!-- Node4 -->
<g id="Node000004" class="node">
<title>Node4</title>
<g id="a_Node000004"><a xlink:href="../../df/ddc/structcoord__info.html" target="_top" xlink:title=" ">
<polygon fill="white" stroke="#666666" points="196,-166.5 128,-166.5 128,-147.5 196,-147.5 196,-166.5"/>
<text text-anchor="middle" x="162" y="-154.5" font-family="Helvetica,sans-Serif" font-size="10.00">coord_info</text>
</a>
</g>
</g>
<!-- Node4&#45;&gt;Node1 -->
<g id="edge6_Node000001_Node000004" class="edge">
<title>Node4&#45;&gt;Node1</title>
<g id="a_edge6_Node000001_Node000004"><a xlink:title=" ">
<path fill="none" stroke="#9a32cd" stroke-dasharray="5,2" d="M165.26,-137.4C168.61,-112.42 170.86,-67.66 151,-37 145.81,-28.98 137.29,-23.14 128.92,-19.03"/>
<polygon fill="#9a32cd" stroke="#9a32cd" points="161.79,-136.94 163.73,-147.36 168.71,-138.01 161.79,-136.94"/>
</a>
</g>
<text text-anchor="middle" x="182.5" y="-85.5" font-family="Helvetica,sans-Serif" font-size="10.00" fill="grey"> coord</text>
</g>
<!-- Node4&#45;&gt;Node2 -->
<g id="edge4_Node000002_Node000004" class="edge">
<title>Node4&#45;&gt;Node2</title>
<g id="a_edge4_Node000002_Node000004"><a xlink:title=" ">
<path fill="none" stroke="#9a32cd" stroke-dasharray="5,2" d="M137.63,-142.28C113.8,-128.86 78.24,-108.84 58.18,-97.55"/>
<polygon fill="#9a32cd" stroke="#9a32cd" points="136.01,-145.38 146.44,-147.24 139.45,-139.28 136.01,-145.38"/>
</a>
</g>
<text text-anchor="middle" x="124.5" y="-120" font-family="Helvetica,sans-Serif" font-size="10.00" fill="grey"> coord</text>
</g>
</g>
</svg>
