<?xml version="1.0" encoding="UTF-8" standalone="no"?>
<!DOCTYPE svg PUBLIC "-//W3C//DTD SVG 1.1//EN"
 "http://www.w3.org/Graphics/SVG/1.1/DTD/svg11.dtd">
<!-- Generated by graphviz version 7.1.0 (0)
 -->
<!-- Title: atom_edition Pages: 1 -->
<svg width="186pt" height="176pt"
 viewBox="0.00 0.00 186.00 176.00" xmlns="http://www.w3.org/2000/svg" xmlns:xlink="http://www.w3.org/1999/xlink">
<g id="graph0" class="graph" transform="scale(1 1) rotate(0) translate(4 172)">
<title>atom_edition</title>
<!-- Node1 -->
<g id="node1" class="node">
<title>Node1</title>
<g id="a_node1"><a xlink:title=" ">
<polygon fill="#999999" stroke="#666666" points="128,-19 56,-19 56,0 128,0 128,-19"/>
<text text-anchor="middle" x="92" y="-7" font-family="Helvetica,sans-Serif" font-size="10.00">atom_edition</text>
</a>
</g>
</g>
<!-- Node2 -->
<g id="node2" class="node">
<title>Node2</title>
<g id="a_node2"><a xlink:href="../../db/d6a/structinsert__object.html" target="_top" xlink:title="a data structure to describe an object to work on. &#160;the object can be one or more:">
<polygon fill="white" stroke="#666666" points="72,-97.5 0,-97.5 0,-78.5 72,-78.5 72,-97.5"/>
<text text-anchor="middle" x="36" y="-85.5" font-family="Helvetica,sans-Serif" font-size="10.00">insert_object</text>
</a>
</g>
</g>
<!-- Node2&#45;&gt;Node1 -->
<g id="edge1" class="edge">
<title>Node2&#45;&gt;Node1</title>
<path fill="none" stroke="#9a32cd" stroke-dasharray="5,2" d="M46.34,-68.38C52,-58.71 59.4,-46.88 67,-37 71.78,-30.78 77.8,-24.37 82.73,-19.41"/>
<polygon fill="#9a32cd" stroke="#9a32cd" points="43.42,-66.42 41.51,-76.84 49.5,-69.89 43.42,-66.42"/>
<text text-anchor="middle" x="100.5" y="-51" font-family="Helvetica,sans-Serif" font-size="10.00"> to_be_inserted</text>
<text text-anchor="middle" x="100.5" y="-40" font-family="Helvetica,sans-Serif" font-size="10.00">to_be_moved</text>
</g>
<!-- Node2&#45;&gt;Node2 -->
<g id="edge5" class="edge">
<title>Node2&#45;&gt;Node2</title>
<path fill="none" stroke="#9a32cd" stroke-dasharray="5,2" d="M83.68,-92.97C87.58,-91.89 90,-90.24 90,-88 90,-84.02 82.35,-81.88 72.34,-81.57"/>
<polygon fill="#9a32cd" stroke="#9a32cd" points="83.31,-89.49 73.84,-94.24 84.21,-96.43 83.31,-89.49"/>
<text text-anchor="middle" x="101" y="-91" font-family="Helvetica,sans-Serif" font-size="10.00"> next</text>
<text text-anchor="middle" x="101" y="-80" font-family="Helvetica,sans-Serif" font-size="10.00">prev</text>
</g>
<!-- Node3 -->
<g id="node3" class="node">
<title>Node3</title>
<g id="a_node3"><a xlink:href="../../da/d81/structatom.html" target="_top" xlink:title="The data structure for an atom.">
<polygon fill="white" stroke="#666666" points="55,-166.5 17,-166.5 17,-147.5 55,-147.5 55,-166.5"/>
<text text-anchor="middle" x="36" y="-154.5" font-family="Helvetica,sans-Serif" font-size="10.00">atom</text>
</a>
</g>
</g>
<!-- Node3&#45;&gt;Node2 -->
<g id="edge2" class="edge">
<title>Node3&#45;&gt;Node2</title>
<path fill="none" stroke="#9a32cd" stroke-dasharray="5,2" d="M36,-135.97C36,-123.34 36,-107.64 36,-97.98"/>
<polygon fill="#9a32cd" stroke="#9a32cd" points="32.5,-135.73 36,-145.73 39.5,-135.73 32.5,-135.73"/>
<text text-anchor="middle" x="51" y="-120" font-family="Helvetica,sans-Serif" font-size="10.00"> at_list</text>
</g>
<!-- Node3&#45;&gt;Node3 -->
<g id="edge3" class="edge">
<title>Node3&#45;&gt;Node3</title>
<path fill="none" stroke="#9a32cd" stroke-dasharray="5,2" d="M66.77,-162.59C70.53,-161.59 73,-159.73 73,-157 73,-152.01 64.76,-149.91 55.42,-150.69"/>
<polygon fill="#9a32cd" stroke="#9a32cd" points="66.69,-159.09 56.93,-163.22 67.13,-166.08 66.69,-159.09"/>
<text text-anchor="middle" x="84" y="-160" font-family="Helvetica,sans-Serif" font-size="10.00"> next</text>
<text text-anchor="middle" x="84" y="-149" font-family="Helvetica,sans-Serif" font-size="10.00">prev</text>
</g>
<!-- Node4 -->
<g id="node4" class="node">
<title>Node4</title>
<g id="a_node4"><a xlink:href="../../df/ddc/structcoord__info.html" target="_top" xlink:title="Data structure to store coordination information.">
<polygon fill="white" stroke="#666666" points="177,-166.5 115,-166.5 115,-147.5 177,-147.5 177,-166.5"/>
<text text-anchor="middle" x="146" y="-154.5" font-family="Helvetica,sans-Serif" font-size="10.00">coord_info</text>
</a>
</g>
</g>
<!-- Node4&#45;&gt;Node1 -->
<g id="edge6" class="edge">
<title>Node4&#45;&gt;Node1</title>
<path fill="none" stroke="#9a32cd" stroke-dasharray="5,2" d="M149.04,-135.79C151.75,-110.66 152.8,-67.37 134,-37 129.28,-29.38 121.46,-23.57 113.85,-19.37"/>
<polygon fill="#9a32cd" stroke="#9a32cd" points="145.58,-135.24 147.77,-145.61 152.53,-136.14 145.58,-135.24"/>
<text text-anchor="middle" x="164" y="-85.5" font-family="Helvetica,sans-Serif" font-size="10.00"> coord</text>
</g>
<!-- Node4&#45;&gt;Node2 -->
<g id="edge4" class="edge">
<title>Node4&#45;&gt;Node2</title>
<path fill="none" stroke="#9a32cd" stroke-dasharray="5,2" d="M121.82,-141.27C100.1,-128.04 68.92,-109.05 50.74,-97.98"/>
<polygon fill="#9a32cd" stroke="#9a32cd" points="119.97,-144.24 130.33,-146.45 123.61,-138.26 119.97,-144.24"/>
<text text-anchor="middle" x="111" y="-120" font-family="Helvetica,sans-Serif" font-size="10.00"> coord</text>
</g>
</g>
</svg>
