<?xml version="1.0" encoding="UTF-8" standalone="no"?>
<!DOCTYPE svg PUBLIC "-//W3C//DTD SVG 1.1//EN"
 "http://www.w3.org/Graphics/SVG/1.1/DTD/svg11.dtd">
<!-- Generated by graphviz version 7.1.0 (0)
 -->
<!-- Title: screen_string Pages: 1 -->
<svg width="120pt" height="96pt"
 viewBox="0.00 0.00 120.00 96.00" xmlns="http://www.w3.org/2000/svg" xmlns:xlink="http://www.w3.org/1999/xlink">
<g id="graph0" class="graph" transform="scale(1 1) rotate(0) translate(4 92)">
<title>screen_string</title>
<!-- Node1 -->
<g id="node1" class="node">
<title>Node1</title>
<g id="a_node1"><a xlink:title=" ">
<polygon fill="#999999" stroke="#666666" points="75,-20.5 0,-20.5 0,-1.5 75,-1.5 75,-20.5"/>
<text text-anchor="middle" x="37.5" y="-8.5" font-family="Helvetica,sans-Serif" font-size="10.00">screen_string</text>
</a>
</g>
</g>
<!-- Node1&#45;&gt;Node1 -->
<g id="edge2" class="edge">
<title>Node1&#45;&gt;Node1</title>
<path fill="none" stroke="#9a32cd" stroke-dasharray="5,2" d="M86.71,-15.91C90.6,-14.84 93,-13.2 93,-11 93,-7.09 85.4,-4.95 75.37,-4.59"/>
<polygon fill="#9a32cd" stroke="#9a32cd" points="86.33,-12.43 76.87,-17.21 87.25,-19.37 86.33,-12.43"/>
<text text-anchor="middle" x="102.5" y="-14" font-family="Helvetica,sans-Serif" font-size="10.00"> last</text>
<text text-anchor="middle" x="102.5" y="-3" font-family="Helvetica,sans-Serif" font-size="10.00">prev</text>
</g>
<!-- Node2 -->
<g id="node2" class="node">
<title>Node2</title>
<g id="a_node2"><a xlink:href="../../d1/d74/struct_col_r_g_b_a.html" target="_top" xlink:title=" ">
<polygon fill="white" stroke="#666666" points="67.5,-88 7.5,-88 7.5,-69 67.5,-69 67.5,-88"/>
<text text-anchor="middle" x="37.5" y="-76" font-family="Helvetica,sans-Serif" font-size="10.00">ColRGBA</text>
</a>
</g>
</g>
<!-- Node2&#45;&gt;Node1 -->
<g id="edge1" class="edge">
<title>Node2&#45;&gt;Node1</title>
<path fill="none" stroke="#9a32cd" stroke-dasharray="5,2" d="M37.5,-57.24C37.5,-44.98 37.5,-29.97 37.5,-20.69"/>
<polygon fill="#9a32cd" stroke="#9a32cd" points="34,-57.15 37.5,-67.15 41,-57.15 34,-57.15"/>
<text text-anchor="middle" x="45.5" y="-43" font-family="Helvetica,sans-Serif" font-size="10.00"> col</text>
</g>
</g>
</svg>
