<?xml version="1.0" encoding="UTF-8" standalone="no"?>
<!DOCTYPE svg PUBLIC "-//W3C//DTD SVG 1.1//EN"
 "http://www.w3.org/Graphics/SVG/1.1/DTD/svg11.dtd">
<!-- Generated by graphviz version 7.1.0 (0)
 -->
<!-- Title: curve/w_curve.c Pages: 1 -->
<svg width="1656pt" height="247pt"
 viewBox="0.00 0.00 1656.00 247.00" xmlns="http://www.w3.org/2000/svg" xmlns:xlink="http://www.w3.org/1999/xlink">
<g id="graph0" class="graph" transform="scale(1 1) rotate(0) translate(4 243)">
<title>curve/w_curve.c</title>
<!-- Node1 -->
<g id="Node000001" class="node">
<title>Node1</title>
<g id="a_Node000001"><a xlink:title="Functions to create the graph/curve window.">
<polygon fill="#999999" stroke="#666666" points="315.5,-239 226.5,-239 226.5,-220 315.5,-220 315.5,-239"/>
<text text-anchor="middle" x="271" y="-227" font-family="Helvetica,sans-Serif" font-size="10.00">curve/w_curve.c</text>
</a>
</g>
</g>
<!-- Node2 -->
<g id="Node000002" class="node">
<title>Node2</title>
<g id="a_Node000002"><a xlink:title=" ">
<polygon fill="#e0e0e0" stroke="#999999" points="48,-74 0,-74 0,-55 48,-55 48,-74"/>
<text text-anchor="middle" x="24" y="-62" font-family="Helvetica,sans-Serif" font-size="10.00">stdlib.h</text>
</a>
</g>
</g>
<!-- Node1&#45;&gt;Node2 -->
<g id="edge1_Node000001_Node000002" class="edge">
<title>Node1&#45;&gt;Node2</title>
<g id="a_edge1_Node000001_Node000002"><a xlink:title=" ">
<path fill="none" stroke="#63b8ff" d="M226.37,-224.23C172.38,-218.2 85.73,-205.46 62,-184 33.77,-158.47 26.4,-111.96 24.55,-85.44"/>
<polygon fill="#63b8ff" stroke="#63b8ff" points="28.05,-85.53 24.08,-75.71 21.06,-85.86 28.05,-85.53"/>
</a>
</g>
</g>
<!-- Node3 -->
<g id="Node000003" class="node">
<title>Node3</title>
<g id="a_Node000003"><a xlink:title=" ">
<polygon fill="#e0e0e0" stroke="#999999" points="288.5,-19 241.5,-19 241.5,0 288.5,0 288.5,-19"/>
<text text-anchor="middle" x="265" y="-7" font-family="Helvetica,sans-Serif" font-size="10.00">math.h</text>
</a>
</g>
</g>
<!-- Node1&#45;&gt;Node3 -->
<g id="edge2_Node000001_Node000003" class="edge">
<title>Node1&#45;&gt;Node3</title>
<g id="a_edge2_Node000001_Node000003"><a xlink:title=" ">
<path fill="none" stroke="#63b8ff" d="M248.16,-219.59C189.3,-195.35 40.73,-125.31 95,-55 111.34,-33.83 185.04,-20.78 229.87,-14.66"/>
<polygon fill="#63b8ff" stroke="#63b8ff" points="230.17,-18.15 239.63,-13.39 229.26,-11.21 230.17,-18.15"/>
</a>
</g>
</g>
<!-- Node4 -->
<g id="Node000004" class="node">
<title>Node4</title>
<g id="a_Node000004"><a xlink:title=" ">
<polygon fill="#e0e0e0" stroke="#999999" points="159.5,-74 104.5,-74 104.5,-55 159.5,-55 159.5,-74"/>
<text text-anchor="middle" x="132" y="-62" font-family="Helvetica,sans-Serif" font-size="10.00">gtk/gtk.h</text>
</a>
</g>
</g>
<!-- Node1&#45;&gt;Node4 -->
<g id="edge3_Node000001_Node000004" class="edge">
<title>Node1&#45;&gt;Node4</title>
<g id="a_edge3_Node000001_Node000004"><a xlink:title=" ">
<path fill="none" stroke="#63b8ff" d="M263.53,-219.74C241.47,-193.87 176.33,-117.48 146.82,-82.88"/>
<polygon fill="#63b8ff" stroke="#63b8ff" points="149.64,-80.8 140.49,-75.46 144.32,-85.34 149.64,-80.8"/>
</a>
</g>
</g>
<!-- Node5 -->
<g id="Node000005" class="node">
<title>Node5</title>
<g id="a_Node000005"><a xlink:title=" ">
<polygon fill="#e0e0e0" stroke="#999999" points="236.5,-74 177.5,-74 177.5,-55 236.5,-55 236.5,-74"/>
<text text-anchor="middle" x="207" y="-62" font-family="Helvetica,sans-Serif" font-size="10.00">gdk/gdk.h</text>
</a>
</g>
</g>
<!-- Node1&#45;&gt;Node5 -->
<g id="edge4_Node000001_Node000005" class="edge">
<title>Node1&#45;&gt;Node5</title>
<g id="a_edge4_Node000001_Node000005"><a xlink:title=" ">
<path fill="none" stroke="#63b8ff" d="M267.56,-219.74C257.58,-194.31 228.43,-120.08 214.54,-84.69"/>
<polygon fill="#63b8ff" stroke="#63b8ff" points="217.92,-83.74 211.01,-75.72 211.41,-86.3 217.92,-83.74"/>
</a>
</g>
</g>
<!-- Node6 -->
<g id="Node000006" class="node">
<title>Node6</title>
<g id="a_Node000006"><a xlink:title=" ">
<polygon fill="#e0e0e0" stroke="#999999" points="451,-184 405,-184 405,-165 451,-165 451,-184"/>
<text text-anchor="middle" x="428" y="-172" font-family="Helvetica,sans-Serif" font-size="10.00">cairo.h</text>
</a>
</g>
</g>
<!-- Node1&#45;&gt;Node6 -->
<g id="edge5_Node000001_Node000006" class="edge">
<title>Node1&#45;&gt;Node6</title>
<g id="a_edge5_Node000001_Node000006"><a xlink:title=" ">
<path fill="none" stroke="#63b8ff" d="M297.63,-219.51C324.12,-210.57 364.88,-196.81 393.76,-187.06"/>
<polygon fill="#63b8ff" stroke="#63b8ff" points="394.78,-190.41 403.14,-183.89 392.55,-183.77 394.78,-190.41"/>
</a>
</g>
</g>
<!-- Node7 -->
<g id="Node000007" class="node">
<title>Node7</title>
<g id="a_Node000007"><a xlink:href="../../d2/d49/global_8h.html" target="_top" xlink:title="Global variable declarations &#160;&#160;Global convenience function declarations &#160;&#160;Global data structure defin...">
<polygon fill="white" stroke="#666666" points="637,-129 587,-129 587,-110 637,-110 637,-129"/>
<text text-anchor="middle" x="612" y="-117" font-family="Helvetica,sans-Serif" font-size="10.00">global.h</text>
</a>
</g>
</g>
<!-- Node1&#45;&gt;Node7 -->
<g id="edge6_Node000001_Node000007" class="edge">
<title>Node1&#45;&gt;Node7</title>
<g id="a_edge6_Node000001_Node000007"><a xlink:title=" ">
<path fill="none" stroke="#63b8ff" d="M266.45,-219.89C260.03,-206.42 250.52,-180.32 264,-165 284.35,-141.88 489.79,-127.51 575.13,-122.5"/>
<polygon fill="#63b8ff" stroke="#63b8ff" points="575.29,-126 585.07,-121.93 574.89,-119.01 575.29,-126"/>
</a>
</g>
</g>
<!-- Node26 -->
<g id="Node000026" class="node">
<title>Node26</title>
<g id="a_Node000026"><a xlink:href="../../dd/d49/callbacks_8h.html" target="_top" xlink:title="Callback declarations for main window.">
<polygon fill="white" stroke="#666666" points="535,-184 469,-184 469,-165 535,-165 535,-184"/>
<text text-anchor="middle" x="502" y="-172" font-family="Helvetica,sans-Serif" font-size="10.00">callbacks.h</text>
</a>
</g>
</g>
<!-- Node1&#45;&gt;Node26 -->
<g id="edge31_Node000001_Node000026" class="edge">
<title>Node1&#45;&gt;Node26</title>
<g id="a_edge31_Node000001_Node000026"><a xlink:title=" ">
<path fill="none" stroke="#63b8ff" d="M310.19,-219.51C350.98,-210.15 414.77,-195.51 457.46,-185.72"/>
<polygon fill="#63b8ff" stroke="#63b8ff" points="458.19,-189.14 467.16,-183.49 456.63,-182.32 458.19,-189.14"/>
</a>
</g>
</g>
<!-- Node27 -->
<g id="Node000027" class="node">
<title>Node27</title>
<g id="a_Node000027"><a xlink:href="../../df/de9/curve_8h.html" target="_top" xlink:title="Variable declarations for the curve widget \ Functions for interactions with the curve widget.">
<polygon fill="white" stroke="#666666" points="322.5,-184 273.5,-184 273.5,-165 322.5,-165 322.5,-184"/>
<text text-anchor="middle" x="298" y="-172" font-family="Helvetica,sans-Serif" font-size="10.00">curve.h</text>
</a>
</g>
</g>
<!-- Node1&#45;&gt;Node27 -->
<g id="edge32_Node000001_Node000027" class="edge">
<title>Node1&#45;&gt;Node27</title>
<g id="a_edge32_Node000001_Node000027"><a xlink:title=" ">
<path fill="none" stroke="#63b8ff" d="M275.46,-219.75C278.95,-212.88 283.95,-203.08 288.35,-194.45"/>
<polygon fill="#63b8ff" stroke="#63b8ff" points="291.34,-196.29 292.76,-185.79 285.1,-193.11 291.34,-196.29"/>
</a>
</g>
</g>
<!-- Node28 -->
<g id="Node000028" class="node">
<title>Node28</title>
<g id="a_Node000028"><a xlink:href="../../d7/d21/cedit_8h.html" target="_top" xlink:title="Variable declarations for the curve layout edition window.">
<polygon fill="white" stroke="#666666" points="387,-184 341,-184 341,-165 387,-165 387,-184"/>
<text text-anchor="middle" x="364" y="-172" font-family="Helvetica,sans-Serif" font-size="10.00">cedit.h</text>
</a>
</g>
</g>
<!-- Node1&#45;&gt;Node28 -->
<g id="edge34_Node000001_Node000028" class="edge">
<title>Node1&#45;&gt;Node28</title>
<g id="a_edge34_Node000001_Node000028"><a xlink:title=" ">
<path fill="none" stroke="#63b8ff" d="M286.78,-219.51C301.02,-211.39 322.24,-199.3 338.83,-189.85"/>
<polygon fill="#63b8ff" stroke="#63b8ff" points="340.19,-193.1 347.14,-185.11 336.72,-187.02 340.19,-193.1"/>
</a>
</g>
</g>
<!-- Node29 -->
<g id="Node000029" class="node">
<title>Node29</title>
<g id="a_Node000029"><a xlink:href="../../d7/d4f/datab_8h.html" target="_top" xlink:title="Variable declarations for the curve data edition window.">
<polygon fill="white" stroke="#666666" points="602.5,-184 553.5,-184 553.5,-165 602.5,-165 602.5,-184"/>
<text text-anchor="middle" x="578" y="-172" font-family="Helvetica,sans-Serif" font-size="10.00">datab.h</text>
</a>
</g>
</g>
<!-- Node1&#45;&gt;Node29 -->
<g id="edge36_Node000001_Node000029" class="edge">
<title>Node1&#45;&gt;Node29</title>
<g id="a_edge36_Node000001_Node000029"><a xlink:title=" ">
<path fill="none" stroke="#63b8ff" d="M315.66,-222.39C367.62,-215.02 456.21,-201.66 541.92,-184.27"/>
<polygon fill="#63b8ff" stroke="#63b8ff" points="542.6,-187.71 551.69,-182.27 541.19,-180.85 542.6,-187.71"/>
</a>
</g>
</g>
<!-- Node7&#45;&gt;Node2 -->
<g id="edge13_Node000007_Node000002" class="edge">
<title>Node7&#45;&gt;Node2</title>
<g id="a_edge13_Node000007_Node000002"><a xlink:title=" ">
<path fill="none" stroke="#63b8ff" d="M586.69,-116.62C511.61,-110.99 283.64,-93.41 95,-74 83.45,-72.81 70.87,-71.36 59.54,-69.99"/>
<polygon fill="#63b8ff" stroke="#63b8ff" points="60.15,-66.54 49.8,-68.8 59.3,-73.49 60.15,-66.54"/>
</a>
</g>
</g>
<!-- Node7&#45;&gt;Node3 -->
<g id="edge16_Node000007_Node000003" class="edge">
<title>Node7&#45;&gt;Node3</title>
<g id="a_edge16_Node000007_Node000003"><a xlink:title=" ">
<path fill="none" stroke="#63b8ff" d="M586.52,-118.49C517.56,-117.94 329.42,-112.84 284,-74 271.55,-63.36 267.07,-44.92 265.55,-30.65"/>
<polygon fill="#63b8ff" stroke="#63b8ff" points="269.06,-30.75 264.94,-20.99 262.08,-31.19 269.06,-30.75"/>
</a>
</g>
</g>
<!-- Node7&#45;&gt;Node4 -->
<g id="edge17_Node000007_Node000004" class="edge">
<title>Node7&#45;&gt;Node4</title>
<g id="a_edge17_Node000007_Node000004"><a xlink:title=" ">
<path fill="none" stroke="#63b8ff" d="M586.81,-117.14C520.37,-113.32 334.75,-101.05 171.08,-74.32"/>
<polygon fill="#63b8ff" stroke="#63b8ff" points="171.77,-70.89 161.33,-72.7 170.62,-77.79 171.77,-70.89"/>
</a>
</g>
</g>
<!-- Node7&#45;&gt;Node5 -->
<g id="edge18_Node000007_Node000005" class="edge">
<title>Node7&#45;&gt;Node5</title>
<g id="a_edge18_Node000007_Node000005"><a xlink:title=" ">
<path fill="none" stroke="#63b8ff" d="M586.53,-115.96C527.42,-109.95 376.37,-93.81 251,-74 249.99,-73.84 248.97,-73.68 247.94,-73.5"/>
<polygon fill="#63b8ff" stroke="#63b8ff" points="248.72,-70.09 238.26,-71.8 247.5,-76.98 248.72,-70.09"/>
</a>
</g>
</g>
<!-- Node8 -->
<g id="Node000008" class="node">
<title>Node8</title>
<g id="a_Node000008"><a xlink:title=" ">
<polygon fill="#e0e0e0" stroke="#999999" points="451,-74 411,-74 411,-55 451,-55 451,-74"/>
<text text-anchor="middle" x="431" y="-62" font-family="Helvetica,sans-Serif" font-size="10.00">glib.h</text>
</a>
</g>
</g>
<!-- Node7&#45;&gt;Node8 -->
<g id="edge7_Node000007_Node000008" class="edge">
<title>Node7&#45;&gt;Node8</title>
<g id="a_edge7_Node000007_Node000008"><a xlink:title=" ">
<path fill="none" stroke="#63b8ff" d="M586.83,-111.13C554.23,-101.58 497.39,-84.94 462.12,-74.61"/>
<polygon fill="#63b8ff" stroke="#63b8ff" points="463.51,-71.37 452.93,-71.92 461.54,-78.09 463.51,-71.37"/>
</a>
</g>
</g>
<!-- Node9 -->
<g id="Node000009" class="node">
<title>Node9</title>
<g id="a_Node000009"><a xlink:title=" ">
<polygon fill="#e0e0e0" stroke="#999999" points="535,-74 469,-74 469,-55 535,-55 535,-74"/>
<text text-anchor="middle" x="502" y="-62" font-family="Helvetica,sans-Serif" font-size="10.00">glib/gi18n.h</text>
</a>
</g>
</g>
<!-- Node7&#45;&gt;Node9 -->
<g id="edge8_Node000007_Node000009" class="edge">
<title>Node7&#45;&gt;Node9</title>
<g id="a_edge8_Node000007_Node000009"><a xlink:title=" ">
<path fill="none" stroke="#63b8ff" d="M593.34,-109.51C576.17,-101.24 550.45,-88.84 530.67,-79.31"/>
<polygon fill="#63b8ff" stroke="#63b8ff" points="532.28,-76.2 521.75,-75.01 529.24,-82.51 532.28,-76.2"/>
</a>
</g>
</g>
<!-- Node10 -->
<g id="Node000010" class="node">
<title>Node10</title>
<g id="a_Node000010"><a xlink:title=" ">
<polygon fill="#e0e0e0" stroke="#999999" points="603,-74 553,-74 553,-55 603,-55 603,-74"/>
<text text-anchor="middle" x="578" y="-62" font-family="Helvetica,sans-Serif" font-size="10.00">locale.h</text>
</a>
</g>
</g>
<!-- Node7&#45;&gt;Node10 -->
<g id="edge9_Node000007_Node000010" class="edge">
<title>Node7&#45;&gt;Node10</title>
<g id="a_edge9_Node000007_Node000010"><a xlink:title=" ">
<path fill="none" stroke="#63b8ff" d="M606.39,-109.75C601.88,-102.73 595.41,-92.64 589.79,-83.87"/>
<polygon fill="#63b8ff" stroke="#63b8ff" points="592.9,-82.24 584.55,-75.72 587.01,-86.02 592.9,-82.24"/>
</a>
</g>
</g>
<!-- Node11 -->
<g id="Node000011" class="node">
<title>Node11</title>
<g id="a_Node000011"><a xlink:title=" ">
<polygon fill="#e0e0e0" stroke="#999999" points="672.5,-74 621.5,-74 621.5,-55 672.5,-55 672.5,-74"/>
<text text-anchor="middle" x="647" y="-62" font-family="Helvetica,sans-Serif" font-size="10.00">unistd.h</text>
</a>
</g>
</g>
<!-- Node7&#45;&gt;Node11 -->
<g id="edge10_Node000007_Node000011" class="edge">
<title>Node7&#45;&gt;Node11</title>
<g id="a_edge10_Node000007_Node000011"><a xlink:title=" ">
<path fill="none" stroke="#63b8ff" d="M617.78,-109.75C622.41,-102.73 629.07,-92.64 634.87,-83.87"/>
<polygon fill="#63b8ff" stroke="#63b8ff" points="637.67,-85.98 640.26,-75.71 631.83,-82.12 637.67,-85.98"/>
</a>
</g>
</g>
<!-- Node12 -->
<g id="Node000012" class="node">
<title>Node12</title>
<g id="a_Node000012"><a xlink:title=" ">
<polygon fill="#e0e0e0" stroke="#999999" points="739.5,-74 690.5,-74 690.5,-55 739.5,-55 739.5,-74"/>
<text text-anchor="middle" x="715" y="-62" font-family="Helvetica,sans-Serif" font-size="10.00">string.h</text>
</a>
</g>
</g>
<!-- Node7&#45;&gt;Node12 -->
<g id="edge11_Node000007_Node000012" class="edge">
<title>Node7&#45;&gt;Node12</title>
<g id="a_edge11_Node000007_Node000012"><a xlink:title=" ">
<path fill="none" stroke="#63b8ff" d="M629.47,-109.51C645.4,-101.31 669.19,-89.07 687.64,-79.58"/>
<polygon fill="#63b8ff" stroke="#63b8ff" points="689.15,-82.74 696.44,-75.05 685.95,-76.51 689.15,-82.74"/>
</a>
</g>
</g>
<!-- Node13 -->
<g id="Node000013" class="node">
<title>Node13</title>
<g id="a_Node000013"><a xlink:title=" ">
<polygon fill="#e0e0e0" stroke="#999999" points="380,-19 334,-19 334,0 380,0 380,-19"/>
<text text-anchor="middle" x="357" y="-7" font-family="Helvetica,sans-Serif" font-size="10.00">stdio.h</text>
</a>
</g>
</g>
<!-- Node7&#45;&gt;Node13 -->
<g id="edge12_Node000007_Node000013" class="edge">
<title>Node7&#45;&gt;Node13</title>
<g id="a_edge12_Node000007_Node000013"><a xlink:title=" ">
<path fill="none" stroke="#63b8ff" d="M586.81,-118.88C544.99,-118.35 460.08,-112.18 402,-74 385.43,-63.11 373.07,-43.83 365.54,-29.37"/>
<polygon fill="#63b8ff" stroke="#63b8ff" points="368.71,-27.89 361.2,-20.41 362.41,-30.94 368.71,-27.89"/>
</a>
</g>
</g>
<!-- Node14 -->
<g id="Node000014" class="node">
<title>Node14</title>
<g id="a_Node000014"><a xlink:title=" ">
<polygon fill="#e0e0e0" stroke="#999999" points="826,-74 758,-74 758,-55 826,-55 826,-74"/>
<text text-anchor="middle" x="792" y="-62" font-family="Helvetica,sans-Serif" font-size="10.00">sys/types.h</text>
</a>
</g>
</g>
<!-- Node7&#45;&gt;Node14 -->
<g id="edge14_Node000007_Node000014" class="edge">
<title>Node7&#45;&gt;Node14</title>
<g id="a_edge14_Node000007_Node000014"><a xlink:title=" ">
<path fill="none" stroke="#63b8ff" d="M637.41,-111.02C666.88,-102.34 715.87,-87.92 750.81,-77.63"/>
<polygon fill="#63b8ff" stroke="#63b8ff" points="751.55,-81.06 760.16,-74.88 749.58,-74.34 751.55,-81.06"/>
</a>
</g>
</g>
<!-- Node15 -->
<g id="Node000015" class="node">
<title>Node15</title>
<g id="a_Node000015"><a xlink:title=" ">
<polygon fill="#e0e0e0" stroke="#999999" points="904,-74 844,-74 844,-55 904,-55 904,-74"/>
<text text-anchor="middle" x="874" y="-62" font-family="Helvetica,sans-Serif" font-size="10.00">sys/stat.h</text>
</a>
</g>
</g>
<!-- Node7&#45;&gt;Node15 -->
<g id="edge15_Node000007_Node000015" class="edge">
<title>Node7&#45;&gt;Node15</title>
<g id="a_edge15_Node000007_Node000015"><a xlink:title=" ">
<path fill="none" stroke="#63b8ff" d="M637.45,-113.57C677.02,-105.88 755.99,-90.4 832.94,-74.4"/>
<polygon fill="#63b8ff" stroke="#63b8ff" points="833.22,-77.92 842.3,-72.45 831.79,-71.07 833.22,-77.92"/>
</a>
</g>
</g>
<!-- Node16 -->
<g id="Node000016" class="node">
<title>Node16</title>
<g id="a_Node000016"><a xlink:title=" ">
<polygon fill="#e0e0e0" stroke="#999999" points="1021.5,-74 922.5,-74 922.5,-55 1021.5,-55 1021.5,-74"/>
<text text-anchor="middle" x="972" y="-62" font-family="Helvetica,sans-Serif" font-size="10.00">gdk/gdkkeysyms.h</text>
</a>
</g>
</g>
<!-- Node7&#45;&gt;Node16 -->
<g id="edge19_Node000007_Node000016" class="edge">
<title>Node7&#45;&gt;Node16</title>
<g id="a_edge19_Node000007_Node000016"><a xlink:title=" ">
<path fill="none" stroke="#63b8ff" d="M637.31,-114.77C693.72,-106.47 831.05,-86.25 911.17,-74.46"/>
<polygon fill="#63b8ff" stroke="#63b8ff" points="911.2,-77.99 920.58,-73.07 910.18,-71.06 911.2,-77.99"/>
</a>
</g>
</g>
<!-- Node17 -->
<g id="Node000017" class="node">
<title>Node17</title>
<g id="a_Node000017"><a xlink:title=" ">
<polygon fill="#e0e0e0" stroke="#999999" points="1158,-74 1040,-74 1040,-55 1158,-55 1158,-74"/>
<text text-anchor="middle" x="1099" y="-62" font-family="Helvetica,sans-Serif" font-size="10.00">gdk&#45;pixbuf/gdk&#45;pixbuf.h</text>
</a>
</g>
</g>
<!-- Node7&#45;&gt;Node17 -->
<g id="edge20_Node000007_Node000017" class="edge">
<title>Node7&#45;&gt;Node17</title>
<g id="a_edge20_Node000007_Node000017"><a xlink:title=" ">
<path fill="none" stroke="#63b8ff" d="M637.05,-116C700.56,-109.64 873.31,-92.11 1028.53,-74.27"/>
<polygon fill="#63b8ff" stroke="#63b8ff" points="1028.63,-77.78 1038.17,-73.16 1027.83,-70.82 1028.63,-77.78"/>
</a>
</g>
</g>
<!-- Node18 -->
<g id="Node000018" class="node">
<title>Node18</title>
<g id="a_Node000018"><a xlink:title=" ">
<polygon fill="#e0e0e0" stroke="#999999" points="1268,-74 1176,-74 1176,-55 1268,-55 1268,-74"/>
<text text-anchor="middle" x="1222" y="-62" font-family="Helvetica,sans-Serif" font-size="10.00">pango/pangoft2.h</text>
</a>
</g>
</g>
<!-- Node7&#45;&gt;Node18 -->
<g id="edge21_Node000007_Node000018" class="edge">
<title>Node7&#45;&gt;Node18</title>
<g id="a_edge21_Node000007_Node000018"><a xlink:title=" ">
<path fill="none" stroke="#63b8ff" d="M637.23,-117.14C714.46,-112.83 954.58,-98.4 1164.3,-74.23"/>
<polygon fill="#63b8ff" stroke="#63b8ff" points="1164.49,-77.74 1174.02,-73.1 1163.68,-70.78 1164.49,-77.74"/>
</a>
</g>
</g>
<!-- Node19 -->
<g id="Node000019" class="node">
<title>Node19</title>
<g id="a_Node000019"><a xlink:title=" ">
<polygon fill="#e0e0e0" stroke="#999999" points="1348,-74 1286,-74 1286,-55 1348,-55 1348,-74"/>
<text text-anchor="middle" x="1317" y="-62" font-family="Helvetica,sans-Serif" font-size="10.00">epoxy/gl.h</text>
</a>
</g>
</g>
<!-- Node7&#45;&gt;Node19 -->
<g id="edge22_Node000007_Node000019" class="edge">
<title>Node7&#45;&gt;Node19</title>
<g id="a_edge22_Node000007_Node000019"><a xlink:title=" ">
<path fill="none" stroke="#63b8ff" d="M637.19,-118.11C724.22,-116.47 1020.31,-108.68 1274.33,-74.16"/>
<polygon fill="#63b8ff" stroke="#63b8ff" points="1274.7,-77.65 1284.13,-72.81 1273.75,-70.71 1274.7,-77.65"/>
</a>
</g>
</g>
<!-- Node20 -->
<g id="Node000020" class="node">
<title>Node20</title>
<g id="a_Node000020"><a xlink:title=" ">
<polygon fill="#e0e0e0" stroke="#999999" points="1419.5,-74 1366.5,-74 1366.5,-55 1419.5,-55 1419.5,-74"/>
<text text-anchor="middle" x="1393" y="-62" font-family="Helvetica,sans-Serif" font-size="10.00">GL/glu.h</text>
</a>
</g>
</g>
<!-- Node7&#45;&gt;Node20 -->
<g id="edge23_Node000007_Node000020" class="edge">
<title>Node7&#45;&gt;Node20</title>
<g id="a_edge23_Node000007_Node000020"><a xlink:title=" ">
<path fill="none" stroke="#63b8ff" d="M637.24,-118.56C731.01,-118.47 1068.18,-115.21 1355.31,-73.94"/>
<polygon fill="#63b8ff" stroke="#63b8ff" points="1355.47,-77.45 1364.86,-72.55 1354.46,-70.53 1355.47,-77.45"/>
</a>
</g>
</g>
<!-- Node21 -->
<g id="Node000021" class="node">
<title>Node21</title>
<g id="a_Node000021"><a xlink:title=" ">
<polygon fill="#e0e0e0" stroke="#999999" points="1504.5,-74 1437.5,-74 1437.5,-55 1504.5,-55 1504.5,-74"/>
<text text-anchor="middle" x="1471" y="-62" font-family="Helvetica,sans-Serif" font-size="10.00">epoxy/glx.h</text>
</a>
</g>
</g>
<!-- Node7&#45;&gt;Node21 -->
<g id="edge24_Node000007_Node000021" class="edge">
<title>Node7&#45;&gt;Node21</title>
<g id="a_edge24_Node000007_Node000021"><a xlink:title=" ">
<path fill="none" stroke="#63b8ff" d="M637.19,-118.46C736.4,-118.02 1109.76,-113.74 1425.92,-74.21"/>
<polygon fill="#63b8ff" stroke="#63b8ff" points="1426.16,-77.71 1435.64,-72.98 1425.28,-70.77 1426.16,-77.71"/>
</a>
</g>
</g>
<!-- Node22 -->
<g id="Node000022" class="node">
<title>Node22</title>
<g id="a_Node000022"><a xlink:href="../../dc/db0/math__3d_8h.html" target="_top" xlink:title="Functions for OpenGL math.">
<polygon fill="white" stroke="#666666" points="355,-74 293,-74 293,-55 355,-55 355,-74"/>
<text text-anchor="middle" x="324" y="-62" font-family="Helvetica,sans-Serif" font-size="10.00">math_3d.h</text>
</a>
</g>
</g>
<!-- Node7&#45;&gt;Node22 -->
<g id="edge25_Node000007_Node000022" class="edge">
<title>Node7&#45;&gt;Node22</title>
<g id="a_edge25_Node000007_Node000022"><a xlink:title=" ">
<path fill="none" stroke="#63b8ff" d="M586.8,-113.93C542.66,-105.92 448.48,-88.78 369,-74 368.18,-73.85 367.35,-73.69 366.51,-73.54"/>
<polygon fill="#63b8ff" stroke="#63b8ff" points="367.43,-70.15 356.95,-71.75 366.14,-77.03 367.43,-70.15"/>
</a>
</g>
</g>
<!-- Node23 -->
<g id="Node000023" class="node">
<title>Node23</title>
<g id="a_Node000023"><a xlink:href="../../da/d7e/glwin_8h.html" target="_top" xlink:title="Variable declarations related the OpenGL window &#160;&#160;Data structure declarations related the OpenGL wind...">
<polygon fill="white" stroke="#666666" points="1569.5,-74 1522.5,-74 1522.5,-55 1569.5,-55 1569.5,-74"/>
<text text-anchor="middle" x="1546" y="-62" font-family="Helvetica,sans-Serif" font-size="10.00">glwin.h</text>
</a>
</g>
</g>
<!-- Node7&#45;&gt;Node23 -->
<g id="edge28_Node000007_Node000023" class="edge">
<title>Node7&#45;&gt;Node23</title>
<g id="a_edge28_Node000007_Node000023"><a xlink:title=" ">
<path fill="none" stroke="#63b8ff" d="M637.33,-117.97C762.45,-115.25 1315.94,-101.91 1510.79,-74.13"/>
<polygon fill="#63b8ff" stroke="#63b8ff" points="1511.13,-77.62 1520.51,-72.68 1510.1,-70.7 1511.13,-77.62"/>
</a>
</g>
</g>
<!-- Node25 -->
<g id="Node000025" class="node">
<title>Node25</title>
<g id="a_Node000025"><a xlink:title=" ">
<polygon fill="#e0e0e0" stroke="#999999" points="1648,-74 1588,-74 1588,-55 1648,-55 1648,-74"/>
<text text-anchor="middle" x="1618" y="-62" font-family="Helvetica,sans-Serif" font-size="10.00">gtk/gtkx.h</text>
</a>
</g>
</g>
<!-- Node7&#45;&gt;Node25 -->
<g id="edge30_Node000007_Node000025" class="edge">
<title>Node7&#45;&gt;Node25</title>
<g id="a_edge30_Node000007_Node000025"><a xlink:title=" ">
<path fill="none" stroke="#63b8ff" d="M637.16,-118.89C747.32,-120.3 1198.06,-122.7 1576.67,-74.05"/>
<polygon fill="#63b8ff" stroke="#63b8ff" points="1576.89,-77.55 1586.35,-72.79 1575.99,-70.61 1576.89,-77.55"/>
</a>
</g>
</g>
<!-- Node22&#45;&gt;Node3 -->
<g id="edge26_Node000022_Node000003" class="edge">
<title>Node22&#45;&gt;Node3</title>
<g id="a_edge26_Node000022_Node000003"><a xlink:title=" ">
<path fill="none" stroke="#63b8ff" d="M313.99,-54.51C305.63,-47 293.5,-36.1 283.4,-27.03"/>
<polygon fill="#63b8ff" stroke="#63b8ff" points="285.76,-24.45 275.99,-20.37 281.09,-29.66 285.76,-24.45"/>
</a>
</g>
</g>
<!-- Node22&#45;&gt;Node13 -->
<g id="edge27_Node000022_Node000013" class="edge">
<title>Node22&#45;&gt;Node13</title>
<g id="a_edge27_Node000022_Node000013"><a xlink:title=" ">
<path fill="none" stroke="#63b8ff" d="M329.45,-54.75C333.77,-47.81 339.96,-37.86 345.38,-29.16"/>
<polygon fill="#63b8ff" stroke="#63b8ff" points="348.32,-31.07 350.63,-20.73 342.38,-27.37 348.32,-31.07"/>
</a>
</g>
</g>
<!-- Node24 -->
<g id="Node000024" class="node">
<title>Node24</title>
<g id="a_Node000024"><a xlink:href="../../d5/d9e/ogl__shading_8h.html" target="_top" xlink:title="Variable declarations related to GLSL programs &#160;&#160;Data structure declarations related to GLSL programs...">
<polygon fill="white" stroke="#666666" points="1584.5,-19 1507.5,-19 1507.5,0 1584.5,0 1584.5,-19"/>
<text text-anchor="middle" x="1546" y="-7" font-family="Helvetica,sans-Serif" font-size="10.00">ogl_shading.h</text>
</a>
</g>
</g>
<!-- Node23&#45;&gt;Node24 -->
<g id="edge29_Node000023_Node000024" class="edge">
<title>Node23&#45;&gt;Node24</title>
<g id="a_edge29_Node000023_Node000024"><a xlink:title=" ">
<path fill="none" stroke="#63b8ff" d="M1546,-54.75C1546,-48.27 1546,-39.16 1546,-30.9"/>
<polygon fill="#63b8ff" stroke="#63b8ff" points="1549.5,-30.96 1546,-20.96 1542.5,-30.96 1549.5,-30.96"/>
</a>
</g>
</g>
<!-- Node27&#45;&gt;Node7 -->
<g id="edge33_Node000027_Node000007" class="edge">
<title>Node27&#45;&gt;Node7</title>
<g id="a_edge33_Node000027_Node000007"><a xlink:title=" ">
<path fill="none" stroke="#63b8ff" d="M322.83,-167.03C325.91,-166.3 329.02,-165.61 332,-165 418.76,-147.3 521.85,-132.5 575.48,-125.27"/>
<polygon fill="#63b8ff" stroke="#63b8ff" points="575.82,-128.75 585.27,-123.96 574.89,-121.81 575.82,-128.75"/>
</a>
</g>
</g>
<!-- Node28&#45;&gt;Node7 -->
<g id="edge35_Node000028_Node000007" class="edge">
<title>Node28&#45;&gt;Node7</title>
<g id="a_edge35_Node000028_Node000007"><a xlink:title=" ">
<path fill="none" stroke="#63b8ff" d="M387.38,-167.13C390.28,-166.39 393.2,-165.66 396,-165 458.81,-150.2 532.55,-135.6 575.59,-127.35"/>
<polygon fill="#63b8ff" stroke="#63b8ff" points="575.97,-130.84 585.14,-125.53 574.66,-123.96 575.97,-130.84"/>
</a>
</g>
</g>
</g>
</svg>
