<?xml version="1.0" encoding="UTF-8" standalone="no"?>
<!DOCTYPE svg PUBLIC "-//W3C//DTD SVG 1.1//EN"
 "http://www.w3.org/Graphics/SVG/1.1/DTD/svg11.dtd">
<!-- Generated by graphviz version 7.1.0 (0)
 -->
<!-- Title: snapshot Pages: 1 -->
<svg width="633pt" height="344pt"
 viewBox="0.00 0.00 632.65 344.00" xmlns="http://www.w3.org/2000/svg" xmlns:xlink="http://www.w3.org/1999/xlink">
<g id="graph0" class="graph" transform="scale(1 1) rotate(0) translate(4 340)">
<title>snapshot</title>
<!-- Node1 -->
<g id="Node000001" class="node">
<title>Node1</title>
<g id="a_Node000001"><a xlink:title=" ">
<polygon fill="#999999" stroke="#666666" points="393.65,-20.5 337.65,-20.5 337.65,-1.5 393.65,-1.5 393.65,-20.5"/>
<text text-anchor="middle" x="365.65" y="-8.5" font-family="Helvetica,sans-Serif" font-size="10.00">snapshot</text>
</a>
</g>
</g>
<!-- Node1&#45;&gt;Node1 -->
<g id="edge18_Node000001_Node000001" class="edge">
<title>Node1&#45;&gt;Node1</title>
<g id="a_edge18_Node000001_Node000001"><a xlink:title=" ">
<path fill="none" stroke="#9a32cd" stroke-dasharray="5,2" d="M405.22,-16.28C409.15,-15.22 411.65,-13.46 411.65,-11 411.65,-6.62 403.74,-4.46 393.95,-4.53"/>
<polygon fill="#9a32cd" stroke="#9a32cd" points="405.03,-12.78 395.45,-17.31 405.77,-19.74 405.03,-12.78"/>
</a>
</g>
<text text-anchor="middle" x="422.65" y="-14" font-family="Helvetica,sans-Serif" font-size="10.00" fill="grey"> next</text>
<text text-anchor="middle" x="422.65" y="-3" font-family="Helvetica,sans-Serif" font-size="10.00" fill="grey">prev</text>
</g>
<!-- Node2 -->
<g id="Node000002" class="node">
<title>Node2</title>
<g id="a_Node000002"><a xlink:href="../../de/d68/structimage.html" target="_top" xlink:title=" ">
<polygon fill="white" stroke="#666666" points="387.15,-88 344.15,-88 344.15,-69 387.15,-69 387.15,-88"/>
<text text-anchor="middle" x="365.65" y="-76" font-family="Helvetica,sans-Serif" font-size="10.00">image</text>
</a>
</g>
</g>
<!-- Node2&#45;&gt;Node1 -->
<g id="edge1_Node000001_Node000002" class="edge">
<title>Node2&#45;&gt;Node1</title>
<g id="a_edge1_Node000001_Node000002"><a xlink:title=" ">
<path fill="none" stroke="#9a32cd" stroke-dasharray="5,2" d="M365.65,-57.24C365.65,-44.98 365.65,-29.97 365.65,-20.69"/>
<polygon fill="#9a32cd" stroke="#9a32cd" points="362.15,-57.15 365.65,-67.15 369.15,-57.15 362.15,-57.15"/>
</a>
</g>
<text text-anchor="middle" x="375.15" y="-43" font-family="Helvetica,sans-Serif" font-size="10.00" fill="grey"> img</text>
</g>
<!-- Node3 -->
<g id="Node000003" class="node">
<title>Node3</title>
<g id="a_Node000003"><a xlink:href="../../d1/d74/struct_col_r_g_b_a.html" target="_top" xlink:title=" ">
<polygon fill="white" stroke="#666666" points="144.65,-334.5 84.65,-334.5 84.65,-315.5 144.65,-315.5 144.65,-334.5"/>
<text text-anchor="middle" x="114.65" y="-322.5" font-family="Helvetica,sans-Serif" font-size="10.00">ColRGBA</text>
</a>
</g>
</g>
<!-- Node3&#45;&gt;Node2 -->
<g id="edge2_Node000002_Node000003" class="edge">
<title>Node3&#45;&gt;Node2</title>
<g id="a_edge2_Node000002_Node000003"><a xlink:title=" ">
<path fill="none" stroke="#9a32cd" stroke-dasharray="5,2" d="M91.54,-308.8C67.38,-291.38 30.91,-260.36 15.65,-223 0.86,-186.79 -9.56,-164.9 15.65,-135 58.08,-84.67 274.15,-79.7 343.9,-79.43"/>
<polygon fill="#9a32cd" stroke="#9a32cd" points="89.29,-311.5 99.49,-314.34 93.29,-305.75 89.29,-311.5"/>
</a>
</g>
<text text-anchor="middle" x="41.65" y="-215" font-family="Helvetica,sans-Serif" font-size="10.00" fill="grey"> at_color</text>
<text text-anchor="middle" x="41.65" y="-204" font-family="Helvetica,sans-Serif" font-size="10.00" fill="grey">axis_color</text>
<text text-anchor="middle" x="41.65" y="-193" font-family="Helvetica,sans-Serif" font-size="10.00" fill="grey">backcolor</text>
<text text-anchor="middle" x="41.65" y="-182" font-family="Helvetica,sans-Serif" font-size="10.00" fill="grey">box_color</text>
<text text-anchor="middle" x="41.65" y="-171" font-family="Helvetica,sans-Serif" font-size="10.00" fill="grey">fm_vol_col</text>
<text text-anchor="middle" x="41.65" y="-160" font-family="Helvetica,sans-Serif" font-size="10.00" fill="grey">labels_color</text>
<text text-anchor="middle" x="41.65" y="-149" font-family="Helvetica,sans-Serif" font-size="10.00" fill="grey">spcolor</text>
<text text-anchor="middle" x="41.65" y="-138" font-family="Helvetica,sans-Serif" font-size="10.00" fill="grey">vol_col</text>
</g>
<!-- Node4 -->
<g id="Node000004" class="node">
<title>Node4</title>
<g id="a_Node000004"><a xlink:href="../../d0/dc3/structscreen__string.html" target="_top" xlink:title=" ">
<polygon fill="white" stroke="#666666" points="152.15,-188.5 77.15,-188.5 77.15,-169.5 152.15,-169.5 152.15,-188.5"/>
<text text-anchor="middle" x="114.65" y="-176.5" font-family="Helvetica,sans-Serif" font-size="10.00">screen_string</text>
</a>
</g>
</g>
<!-- Node3&#45;&gt;Node4 -->
<g id="edge4_Node000004_Node000003" class="edge">
<title>Node3&#45;&gt;Node4</title>
<g id="a_edge4_Node000004_Node000003"><a xlink:title=" ">
<path fill="none" stroke="#9a32cd" stroke-dasharray="5,2" d="M114.65,-304.12C114.65,-272.33 114.65,-211.33 114.65,-188.71"/>
<polygon fill="#9a32cd" stroke="#9a32cd" points="111.15,-303.91 114.65,-313.91 118.15,-303.91 111.15,-303.91"/>
</a>
</g>
<text text-anchor="middle" x="122.65" y="-266" font-family="Helvetica,sans-Serif" font-size="10.00" fill="grey"> col</text>
</g>
<!-- Node5 -->
<g id="Node000005" class="node">
<title>Node5</title>
<g id="a_Node000005"><a xlink:href="../../d6/d0f/structatom__selection.html" target="_top" xlink:title=" ">
<polygon fill="white" stroke="#666666" points="290.15,-188.5 207.15,-188.5 207.15,-169.5 290.15,-169.5 290.15,-188.5"/>
<text text-anchor="middle" x="248.65" y="-176.5" font-family="Helvetica,sans-Serif" font-size="10.00">atom_selection</text>
</a>
</g>
</g>
<!-- Node3&#45;&gt;Node5 -->
<g id="edge7_Node000005_Node000003" class="edge">
<title>Node3&#45;&gt;Node5</title>
<g id="a_edge7_Node000005_Node000003"><a xlink:title=" ">
<path fill="none" stroke="#9a32cd" stroke-dasharray="5,2" d="M127.83,-306.06C143.26,-285.23 168.04,-252.27 178.65,-241 188.87,-230.15 220.88,-203.12 237.84,-188.97"/>
<polygon fill="#9a32cd" stroke="#9a32cd" points="125.13,-303.83 122.01,-313.95 130.77,-307.98 125.13,-303.83"/>
</a>
</g>
<text text-anchor="middle" x="211.65" y="-277" font-family="Helvetica,sans-Serif" font-size="10.00" fill="grey"> angle_colors</text>
<text text-anchor="middle" x="211.65" y="-266" font-family="Helvetica,sans-Serif" font-size="10.00" fill="grey">bond_colors</text>
<text text-anchor="middle" x="211.65" y="-255" font-family="Helvetica,sans-Serif" font-size="10.00" fill="grey">dihedral_colors</text>
</g>
<!-- Node4&#45;&gt;Node2 -->
<g id="edge3_Node000002_Node000004" class="edge">
<title>Node4&#45;&gt;Node2</title>
<g id="a_edge3_Node000002_Node000004"><a xlink:title=" ">
<path fill="none" stroke="#9a32cd" stroke-dasharray="5,2" d="M130.87,-161.31C148.23,-144.51 177.38,-119.24 207.65,-106 253.26,-86.04 312.33,-81.04 343.75,-79.83"/>
<polygon fill="#9a32cd" stroke="#9a32cd" points="128.61,-158.61 123.99,-168.14 133.55,-163.57 128.61,-158.61"/>
</a>
</g>
<text text-anchor="middle" x="231.15" y="-109" font-family="Helvetica,sans-Serif" font-size="10.00" fill="grey"> labels_list</text>
</g>
<!-- Node4&#45;&gt;Node4 -->
<g id="edge5_Node000004_Node000004" class="edge">
<title>Node4&#45;&gt;Node4</title>
<g id="a_edge5_Node000004_Node000004"><a xlink:title=" ">
<path fill="none" stroke="#9a32cd" stroke-dasharray="5,2" d="M143.49,-191.32C157.61,-192.93 170.15,-188.82 170.15,-179 170.15,-166.67 150.41,-163.35 132.55,-169.03"/>
<polygon fill="#9a32cd" stroke="#9a32cd" points="144.55,-187.96 134.03,-189.29 143.08,-194.81 144.55,-187.96"/>
</a>
</g>
<text text-anchor="middle" x="179.65" y="-182" font-family="Helvetica,sans-Serif" font-size="10.00" fill="grey"> last</text>
<text text-anchor="middle" x="179.65" y="-171" font-family="Helvetica,sans-Serif" font-size="10.00" fill="grey">prev</text>
</g>
<!-- Node5&#45;&gt;Node2 -->
<g id="edge6_Node000002_Node000005" class="edge">
<title>Node5&#45;&gt;Node2</title>
<g id="a_edge6_Node000002_Node000005"><a xlink:title=" ">
<path fill="none" stroke="#9a32cd" stroke-dasharray="5,2" d="M247.77,-157.77C248.2,-141.69 251.47,-119.68 264.65,-106 285.27,-84.58 320.92,-79.73 343.88,-79.01"/>
<polygon fill="#9a32cd" stroke="#9a32cd" points="244.27,-157.66 247.88,-167.62 251.27,-157.58 244.27,-157.66"/>
</a>
</g>
<text text-anchor="middle" x="284.65" y="-109" font-family="Helvetica,sans-Serif" font-size="10.00" fill="grey"> selected</text>
</g>
<!-- Node6 -->
<g id="Node000006" class="node">
<title>Node6</title>
<g id="a_Node000006"><a xlink:href="../../df/dab/structatom__in__selection.html" target="_top" xlink:title=" ">
<polygon fill="white" stroke="#666666" points="296.15,-334.5 201.15,-334.5 201.15,-315.5 296.15,-315.5 296.15,-334.5"/>
<text text-anchor="middle" x="248.65" y="-322.5" font-family="Helvetica,sans-Serif" font-size="10.00">atom_in_selection</text>
</a>
</g>
</g>
<!-- Node6&#45;&gt;Node5 -->
<g id="edge8_Node000005_Node000006" class="edge">
<title>Node6&#45;&gt;Node5</title>
<g id="a_edge8_Node000005_Node000006"><a xlink:title=" ">
<path fill="none" stroke="#9a32cd" stroke-dasharray="5,2" d="M248.65,-304.12C248.65,-272.33 248.65,-211.33 248.65,-188.71"/>
<polygon fill="#9a32cd" stroke="#9a32cd" points="245.15,-303.91 248.65,-313.91 252.15,-303.91 245.15,-303.91"/>
</a>
</g>
<text text-anchor="middle" x="258.65" y="-271.5" font-family="Helvetica,sans-Serif" font-size="10.00" fill="grey"> first</text>
<text text-anchor="middle" x="258.65" y="-260.5" font-family="Helvetica,sans-Serif" font-size="10.00" fill="grey">last</text>
</g>
<!-- Node6&#45;&gt;Node6 -->
<g id="edge9_Node000006_Node000006" class="edge">
<title>Node6&#45;&gt;Node6</title>
<g id="a_edge9_Node000006_Node000006"><a xlink:title=" ">
<path fill="none" stroke="#9a32cd" stroke-dasharray="5,2" d="M290.79,-335.58C303.87,-335.38 314.15,-331.85 314.15,-325 314.15,-316.23 297.3,-312.9 279.31,-315.03"/>
<polygon fill="#9a32cd" stroke="#9a32cd" points="290.99,-332.09 280.82,-335.05 290.62,-339.08 290.99,-332.09"/>
</a>
</g>
<text text-anchor="middle" x="325.15" y="-328" font-family="Helvetica,sans-Serif" font-size="10.00" fill="grey"> next</text>
<text text-anchor="middle" x="325.15" y="-317" font-family="Helvetica,sans-Serif" font-size="10.00" fill="grey">prev</text>
</g>
<!-- Node7 -->
<g id="Node000007" class="node">
<title>Node7</title>
<g id="a_Node000007"><a xlink:href="../../d7/d36/structvec4__t.html" target="_top" xlink:title=" ">
<polygon fill="white" stroke="#666666" points="354.65,-188.5 308.65,-188.5 308.65,-169.5 354.65,-169.5 354.65,-188.5"/>
<text text-anchor="middle" x="331.65" y="-176.5" font-family="Helvetica,sans-Serif" font-size="10.00">vec4_t</text>
</a>
</g>
</g>
<!-- Node7&#45;&gt;Node2 -->
<g id="edge10_Node000002_Node000007" class="edge">
<title>Node7&#45;&gt;Node2</title>
<g id="a_edge10_Node000002_Node000007"><a xlink:title=" ">
<path fill="none" stroke="#9a32cd" stroke-dasharray="5,2" d="M319.52,-160.02C310.86,-144.71 302.38,-122.62 312.65,-106 319.46,-94.97 332.41,-88.38 343.8,-84.53"/>
<polygon fill="#9a32cd" stroke="#9a32cd" points="316.29,-161.44 324.53,-168.1 322.24,-157.75 316.29,-161.44"/>
</a>
</g>
<text text-anchor="middle" x="355.65" y="-109" font-family="Helvetica,sans-Serif" font-size="10.00" fill="grey"> rotation_quaternion</text>
</g>
<!-- Node8 -->
<g id="Node000008" class="node">
<title>Node8</title>
<g id="a_Node000008"><a xlink:href="../../db/d99/structatom__data.html" target="_top" xlink:title=" ">
<polygon fill="white" stroke="#666666" points="442.65,-188.5 380.65,-188.5 380.65,-169.5 442.65,-169.5 442.65,-188.5"/>
<text text-anchor="middle" x="411.65" y="-176.5" font-family="Helvetica,sans-Serif" font-size="10.00">atom_data</text>
</a>
</g>
</g>
<!-- Node8&#45;&gt;Node2 -->
<g id="edge11_Node000002_Node000008" class="edge">
<title>Node8&#45;&gt;Node2</title>
<g id="a_edge11_Node000002_Node000008"><a xlink:title=" ">
<path fill="none" stroke="#9a32cd" stroke-dasharray="5,2" d="M411.75,-158.16C411,-142.92 408.08,-121.87 398.65,-106 394.37,-98.8 387.36,-92.76 380.89,-88.27"/>
<polygon fill="#9a32cd" stroke="#9a32cd" points="408.24,-157.91 411.94,-167.84 415.24,-157.77 408.24,-157.91"/>
</a>
</g>
<text text-anchor="middle" x="422.65" y="-109" font-family="Helvetica,sans-Serif" font-size="10.00" fill="grey"> at_data</text>
</g>
<!-- Node9 -->
<g id="Node000009" class="node">
<title>Node9</title>
<g id="a_Node000009"><a xlink:href="../../d7/d61/struct_light.html" target="_top" xlink:title=" ">
<polygon fill="white" stroke="#666666" points="498.65,-188.5 460.65,-188.5 460.65,-169.5 498.65,-169.5 498.65,-188.5"/>
<text text-anchor="middle" x="479.65" y="-176.5" font-family="Helvetica,sans-Serif" font-size="10.00">Light</text>
</a>
</g>
</g>
<!-- Node9&#45;&gt;Node2 -->
<g id="edge12_Node000002_Node000009" class="edge">
<title>Node9&#45;&gt;Node2</title>
<g id="a_edge12_Node000002_Node000009"><a xlink:title=" ">
<path fill="none" stroke="#9a32cd" stroke-dasharray="5,2" d="M474.65,-158.21C469.61,-142.06 460.29,-119.75 444.65,-106 428.57,-91.87 404.68,-85.22 387.38,-82.12"/>
<polygon fill="#9a32cd" stroke="#9a32cd" points="471.23,-158.97 477.3,-167.65 477.97,-157.08 471.23,-158.97"/>
</a>
</g>
<text text-anchor="middle" x="466.15" y="-109" font-family="Helvetica,sans-Serif" font-size="10.00" fill="grey"> l_ght</text>
</g>
<!-- Node10 -->
<g id="Node000010" class="node">
<title>Node10</title>
<g id="a_Node000010"><a xlink:href="../../d3/d7c/structvec3__t.html" target="_top" xlink:title=" ">
<polygon fill="white" stroke="#666666" points="570.65,-334.5 524.65,-334.5 524.65,-315.5 570.65,-315.5 570.65,-334.5"/>
<text text-anchor="middle" x="547.65" y="-322.5" font-family="Helvetica,sans-Serif" font-size="10.00">vec3_t</text>
</a>
</g>
</g>
<!-- Node10&#45;&gt;Node9 -->
<g id="edge13_Node000009_Node000010" class="edge">
<title>Node10&#45;&gt;Node9</title>
<g id="a_edge13_Node000009_Node000010"><a xlink:title=" ">
<path fill="none" stroke="#9a32cd" stroke-dasharray="5,2" d="M513.49,-314.48C504.34,-310.28 495.4,-304.34 489.65,-296 466.48,-262.38 473.65,-209.59 477.7,-188.82"/>
<polygon fill="#9a32cd" stroke="#9a32cd" points="512.16,-317.72 522.75,-318.09 514.71,-311.2 512.16,-317.72"/>
</a>
</g>
<text text-anchor="middle" x="515.65" y="-288" font-family="Helvetica,sans-Serif" font-size="10.00" fill="grey"> attenuation</text>
<text text-anchor="middle" x="515.65" y="-277" font-family="Helvetica,sans-Serif" font-size="10.00" fill="grey">direction</text>
<text text-anchor="middle" x="515.65" y="-266" font-family="Helvetica,sans-Serif" font-size="10.00" fill="grey">intensity</text>
<text text-anchor="middle" x="515.65" y="-255" font-family="Helvetica,sans-Serif" font-size="10.00" fill="grey">position</text>
<text text-anchor="middle" x="515.65" y="-244" font-family="Helvetica,sans-Serif" font-size="10.00" fill="grey">spot_data</text>
</g>
<!-- Node11 -->
<g id="Node000011" class="node">
<title>Node11</title>
<g id="a_Node000011"><a xlink:href="../../d3/d0a/struct_material.html" target="_top" xlink:title=" ">
<polygon fill="white" stroke="#666666" points="568.15,-188.5 517.15,-188.5 517.15,-169.5 568.15,-169.5 568.15,-188.5"/>
<text text-anchor="middle" x="542.65" y="-176.5" font-family="Helvetica,sans-Serif" font-size="10.00">Material</text>
</a>
</g>
</g>
<!-- Node10&#45;&gt;Node11 -->
<g id="edge15_Node000011_Node000010" class="edge">
<title>Node10&#45;&gt;Node11</title>
<g id="a_edge15_Node000011_Node000010"><a xlink:title=" ">
<path fill="none" stroke="#9a32cd" stroke-dasharray="5,2" d="M546.96,-304.12C545.86,-272.33 543.74,-211.33 542.95,-188.71"/>
<polygon fill="#9a32cd" stroke="#9a32cd" points="543.45,-304.04 547.3,-313.91 550.45,-303.8 543.45,-304.04"/>
</a>
</g>
<text text-anchor="middle" x="562.65" y="-266" font-family="Helvetica,sans-Serif" font-size="10.00" fill="grey"> albedo</text>
</g>
<!-- Node12 -->
<g id="Node000012" class="node">
<title>Node12</title>
<g id="a_Node000012"><a xlink:href="../../d8/df7/struct_fog.html" target="_top" xlink:title=" ">
<polygon fill="white" stroke="#666666" points="619.15,-188.5 586.15,-188.5 586.15,-169.5 619.15,-169.5 619.15,-188.5"/>
<text text-anchor="middle" x="602.65" y="-176.5" font-family="Helvetica,sans-Serif" font-size="10.00">Fog</text>
</a>
</g>
</g>
<!-- Node10&#45;&gt;Node12 -->
<g id="edge17_Node000012_Node000010" class="edge">
<title>Node10&#45;&gt;Node12</title>
<g id="a_edge17_Node000012_Node000010"><a xlink:title=" ">
<path fill="none" stroke="#9a32cd" stroke-dasharray="5,2" d="M571.01,-307.76C574.71,-304.27 578.14,-300.31 580.65,-296 601.38,-260.4 603.12,-209.19 602.91,-188.83"/>
<polygon fill="#9a32cd" stroke="#9a32cd" points="568.85,-305.02 563.36,-314.08 573.3,-310.42 568.85,-305.02"/>
</a>
</g>
<text text-anchor="middle" x="612.15" y="-266" font-family="Helvetica,sans-Serif" font-size="10.00" fill="grey"> color</text>
</g>
<!-- Node11&#45;&gt;Node2 -->
<g id="edge14_Node000002_Node000011" class="edge">
<title>Node11&#45;&gt;Node2</title>
<g id="a_edge14_Node000002_Node000011"><a xlink:title=" ">
<path fill="none" stroke="#9a32cd" stroke-dasharray="5,2" d="M532.27,-159.56C521.9,-142.91 504.39,-119.06 482.65,-106 452.84,-88.09 412.13,-82.27 387.43,-80.39"/>
<polygon fill="#9a32cd" stroke="#9a32cd" points="529.15,-161.16 537.25,-167.98 535.17,-157.6 529.15,-161.16"/>
</a>
</g>
<text text-anchor="middle" x="516.65" y="-109" font-family="Helvetica,sans-Serif" font-size="10.00" fill="grey"> m_terial</text>
</g>
<!-- Node12&#45;&gt;Node2 -->
<g id="edge16_Node000002_Node000012" class="edge">
<title>Node12&#45;&gt;Node2</title>
<g id="a_edge16_Node000002_Node000012"><a xlink:title=" ">
<path fill="none" stroke="#9a32cd" stroke-dasharray="5,2" d="M593.15,-159.03C588.72,-151.15 583.02,-142.19 576.65,-135 562.8,-119.36 558.83,-114.29 539.65,-106 488.32,-83.82 421.46,-79.81 387.5,-79.32"/>
<polygon fill="#9a32cd" stroke="#9a32cd" points="590.02,-160.6 597.79,-167.81 596.21,-157.33 590.02,-160.6"/>
</a>
</g>
<text text-anchor="middle" x="568.15" y="-109" font-family="Helvetica,sans-Serif" font-size="10.00" fill="grey"> f_g</text>
</g>
</g>
</svg>
