<?xml version="1.0" encoding="UTF-8" standalone="no"?>
<!DOCTYPE svg PUBLIC "-//W3C//DTD SVG 1.1//EN"
 "http://www.w3.org/Graphics/SVG/1.1/DTD/svg11.dtd">
<!-- Generated by graphviz version 9.0.0 (20230911.1827)
 -->
<!-- Title: snapshot Pages: 1 -->
<svg width="629pt" height="364pt"
 viewBox="0.00 0.00 628.54 364.00" xmlns="http://www.w3.org/2000/svg" xmlns:xlink="http://www.w3.org/1999/xlink">
<g id="graph0" class="graph" transform="scale(1 1) rotate(0) translate(4 360)">
<title>snapshot</title>
<!-- Node1 -->
<g id="Node000001" class="node">
<title>Node1</title>
<g id="a_Node000001"><a xlink:title=" ">
<polygon fill="#999999" stroke="#666666" points="392.41,-22 336.66,-22 336.66,-2 392.41,-2 392.41,-22"/>
<text text-anchor="middle" x="364.54" y="-8.5" font-family="Helvetica,sans-Serif" font-size="10.00">snapshot</text>
</a>
</g>
</g>
<!-- Node1&#45;&gt;Node1 -->
<g id="edge18_Node000001_Node000001" class="edge">
<title>Node1&#45;&gt;Node1</title>
<g id="a_edge18_Node000001_Node000001"><a xlink:title=" ">
<path fill="none" stroke="#9a32cd" stroke-dasharray="5,2" d="M404,-17.51C407.92,-16.41 410.41,-14.57 410.41,-12 410.41,-7.43 402.53,-5.18 392.76,-5.25"/>
<polygon fill="#9a32cd" stroke="#9a32cd" points="403.82,-14.01 394.27,-18.58 404.59,-20.97 403.82,-14.01"/>
</a>
</g>
<text text-anchor="middle" x="421.29" y="-14.5" font-family="Helvetica,sans-Serif" font-size="10.00" fill="grey"> next</text>
<text text-anchor="middle" x="421.29" y="-2.5" font-family="Helvetica,sans-Serif" font-size="10.00" fill="grey">prev</text>
</g>
<!-- Node2 -->
<g id="Node000002" class="node">
<title>Node2</title>
<g id="a_Node000002"><a xlink:href="../../de/d68/structimage.html" target="_top" xlink:title=" ">
<polygon fill="white" stroke="#666666" points="385.66,-92 343.41,-92 343.41,-72 385.66,-72 385.66,-92"/>
<text text-anchor="middle" x="364.54" y="-78.5" font-family="Helvetica,sans-Serif" font-size="10.00">image</text>
</a>
</g>
</g>
<!-- Node2&#45;&gt;Node1 -->
<g id="edge1_Node000001_Node000002" class="edge">
<title>Node2&#45;&gt;Node1</title>
<g id="a_edge1_Node000001_Node000002"><a xlink:title=" ">
<path fill="none" stroke="#9a32cd" stroke-dasharray="5,2" d="M364.54,-60.2C364.54,-47.58 364.54,-32.09 364.54,-22.37"/>
<polygon fill="#9a32cd" stroke="#9a32cd" points="361.04,-60.03 364.54,-70.03 368.04,-60.03 361.04,-60.03"/>
</a>
</g>
<text text-anchor="middle" x="373.91" y="-44.5" font-family="Helvetica,sans-Serif" font-size="10.00" fill="grey"> img</text>
</g>
<!-- Node3 -->
<g id="Node000003" class="node">
<title>Node3</title>
<g id="a_Node000003"><a xlink:href="../../d1/d74/struct_col_r_g_b_a.html" target="_top" xlink:title=" ">
<polygon fill="white" stroke="#666666" points="144.29,-354 84.79,-354 84.79,-334 144.29,-334 144.29,-354"/>
<text text-anchor="middle" x="114.54" y="-340.5" font-family="Helvetica,sans-Serif" font-size="10.00">ColRGBA</text>
</a>
</g>
</g>
<!-- Node3&#45;&gt;Node2 -->
<g id="edge2_Node000002_Node000003" class="edge">
<title>Node3&#45;&gt;Node2</title>
<g id="a_edge2_Node000002_Node000003"><a xlink:title=" ">
<path fill="none" stroke="#9a32cd" stroke-dasharray="5,2" d="M92.06,-326.8C68.18,-308.06 31.83,-274.76 16.79,-236 1.36,-196.22 -10.56,-172.75 16.79,-140 58.75,-89.76 273.56,-83.68 342.92,-83.04"/>
<polygon fill="#9a32cd" stroke="#9a32cd" points="89.85,-329.52 99.93,-332.78 94.08,-323.94 89.85,-329.52"/>
</a>
</g>
<text text-anchor="middle" x="43.41" y="-226.5" font-family="Helvetica,sans-Serif" font-size="10.00" fill="grey"> at_color</text>
<text text-anchor="middle" x="43.41" y="-214.5" font-family="Helvetica,sans-Serif" font-size="10.00" fill="grey">axis_color</text>
<text text-anchor="middle" x="43.41" y="-202.5" font-family="Helvetica,sans-Serif" font-size="10.00" fill="grey">backcolor</text>
<text text-anchor="middle" x="43.41" y="-190.5" font-family="Helvetica,sans-Serif" font-size="10.00" fill="grey">box_color</text>
<text text-anchor="middle" x="43.41" y="-178.5" font-family="Helvetica,sans-Serif" font-size="10.00" fill="grey">fm_vol_col</text>
<text text-anchor="middle" x="43.41" y="-166.5" font-family="Helvetica,sans-Serif" font-size="10.00" fill="grey">labels_color</text>
<text text-anchor="middle" x="43.41" y="-154.5" font-family="Helvetica,sans-Serif" font-size="10.00" fill="grey">spcolor</text>
<text text-anchor="middle" x="43.41" y="-142.5" font-family="Helvetica,sans-Serif" font-size="10.00" fill="grey">vol_col</text>
</g>
<!-- Node4 -->
<g id="Node000004" class="node">
<title>Node4</title>
<g id="a_Node000004"><a xlink:href="../../d0/dc3/structscreen__string.html" target="_top" xlink:title=" ">
<polygon fill="white" stroke="#666666" points="151.79,-198 77.29,-198 77.29,-178 151.79,-178 151.79,-198"/>
<text text-anchor="middle" x="114.54" y="-184.5" font-family="Helvetica,sans-Serif" font-size="10.00">screen_string</text>
</a>
</g>
</g>
<!-- Node3&#45;&gt;Node4 -->
<g id="edge4_Node000004_Node000003" class="edge">
<title>Node3&#45;&gt;Node4</title>
<g id="a_edge4_Node000004_Node000003"><a xlink:title=" ">
<path fill="none" stroke="#9a32cd" stroke-dasharray="5,2" d="M114.54,-322.64C114.54,-288.91 114.54,-222.72 114.54,-198.32"/>
<polygon fill="#9a32cd" stroke="#9a32cd" points="111.04,-322.31 114.54,-332.31 118.04,-322.31 111.04,-322.31"/>
</a>
</g>
<text text-anchor="middle" x="122.41" y="-280.5" font-family="Helvetica,sans-Serif" font-size="10.00" fill="grey"> col</text>
</g>
<!-- Node5 -->
<g id="Node000005" class="node">
<title>Node5</title>
<g id="a_Node000005"><a xlink:href="../../d6/d0f/structatom__selection.html" target="_top" xlink:title=" ">
<polygon fill="white" stroke="#666666" points="288.54,-198 206.54,-198 206.54,-178 288.54,-178 288.54,-198"/>
<text text-anchor="middle" x="247.54" y="-184.5" font-family="Helvetica,sans-Serif" font-size="10.00">atom_selection</text>
</a>
</g>
</g>
<!-- Node3&#45;&gt;Node5 -->
<g id="edge7_Node000005_Node000003" class="edge">
<title>Node3&#45;&gt;Node5</title>
<g id="a_edge7_Node000005_Node000003"><a xlink:title=" ">
<path fill="none" stroke="#9a32cd" stroke-dasharray="5,2" d="M127.49,-324.51C144.47,-300.33 172.75,-260.31 178.29,-254 186.02,-245.2 188.99,-244.01 197.54,-236 211.45,-222.96 227.5,-207.86 237.59,-198.37"/>
<polygon fill="#9a32cd" stroke="#9a32cd" points="124.75,-322.32 121.88,-332.51 130.48,-326.34 124.75,-322.32"/>
</a>
</g>
<text text-anchor="middle" x="211.16" y="-292.5" font-family="Helvetica,sans-Serif" font-size="10.00" fill="grey"> angle_colors</text>
<text text-anchor="middle" x="211.16" y="-280.5" font-family="Helvetica,sans-Serif" font-size="10.00" fill="grey">bond_colors</text>
<text text-anchor="middle" x="211.16" y="-268.5" font-family="Helvetica,sans-Serif" font-size="10.00" fill="grey">dihedral_colors</text>
</g>
<!-- Node4&#45;&gt;Node2 -->
<g id="edge3_Node000002_Node000004" class="edge">
<title>Node4&#45;&gt;Node2</title>
<g id="a_edge3_Node000002_Node000004"><a xlink:title=" ">
<path fill="none" stroke="#9a32cd" stroke-dasharray="5,2" d="M130.21,-169.13C147.06,-151.16 175.56,-124.13 206.04,-110 251.62,-88.87 311.46,-84.1 342.98,-83.14"/>
<polygon fill="#9a32cd" stroke="#9a32cd" points="127.67,-166.72 123.53,-176.47 132.85,-171.43 127.67,-166.72"/>
</a>
</g>
<text text-anchor="middle" x="229.79" y="-112.5" font-family="Helvetica,sans-Serif" font-size="10.00" fill="grey"> labels_list</text>
</g>
<!-- Node4&#45;&gt;Node4 -->
<g id="edge5_Node000004_Node000004" class="edge">
<title>Node4&#45;&gt;Node4</title>
<g id="a_edge5_Node000004_Node000004"><a xlink:title=" ">
<path fill="none" stroke="#9a32cd" stroke-dasharray="5,2" d="M142.79,-201.08C157.04,-202.95 169.79,-198.59 169.79,-188 169.79,-174.71 149.71,-171.23 131.79,-177.57"/>
<polygon fill="#9a32cd" stroke="#9a32cd" points="143.81,-197.72 133.26,-198.79 142.17,-204.53 143.81,-197.72"/>
</a>
</g>
<text text-anchor="middle" x="179.16" y="-190.5" font-family="Helvetica,sans-Serif" font-size="10.00" fill="grey"> last</text>
<text text-anchor="middle" x="179.16" y="-178.5" font-family="Helvetica,sans-Serif" font-size="10.00" fill="grey">prev</text>
</g>
<!-- Node5&#45;&gt;Node2 -->
<g id="edge6_Node000002_Node000005" class="edge">
<title>Node5&#45;&gt;Node2</title>
<g id="a_edge6_Node000002_Node000005"><a xlink:title=" ">
<path fill="none" stroke="#9a32cd" stroke-dasharray="5,2" d="M246.65,-166.15C247.08,-148.9 250.53,-124.9 264.79,-110 285.13,-88.74 320.35,-83.64 343.03,-82.72"/>
<polygon fill="#9a32cd" stroke="#9a32cd" points="243.15,-166.05 246.76,-176.01 250.15,-165.97 243.15,-166.05"/>
</a>
</g>
<text text-anchor="middle" x="285.41" y="-112.5" font-family="Helvetica,sans-Serif" font-size="10.00" fill="grey"> selected</text>
</g>
<!-- Node6 -->
<g id="Node000006" class="node">
<title>Node6</title>
<g id="a_Node000006"><a xlink:href="../../df/dab/structatom__in__selection.html" target="_top" xlink:title=" ">
<polygon fill="white" stroke="#666666" points="294.91,-354 200.16,-354 200.16,-334 294.91,-334 294.91,-354"/>
<text text-anchor="middle" x="247.54" y="-340.5" font-family="Helvetica,sans-Serif" font-size="10.00">atom_in_selection</text>
</a>
</g>
</g>
<!-- Node6&#45;&gt;Node5 -->
<g id="edge8_Node000005_Node000006" class="edge">
<title>Node6&#45;&gt;Node5</title>
<g id="a_edge8_Node000005_Node000006"><a xlink:title=" ">
<path fill="none" stroke="#9a32cd" stroke-dasharray="5,2" d="M247.54,-322.64C247.54,-288.91 247.54,-222.72 247.54,-198.32"/>
<polygon fill="#9a32cd" stroke="#9a32cd" points="244.04,-322.31 247.54,-332.31 251.04,-322.31 244.04,-322.31"/>
</a>
</g>
<text text-anchor="middle" x="257.29" y="-286.5" font-family="Helvetica,sans-Serif" font-size="10.00" fill="grey"> first</text>
<text text-anchor="middle" x="257.29" y="-274.5" font-family="Helvetica,sans-Serif" font-size="10.00" fill="grey">last</text>
</g>
<!-- Node6&#45;&gt;Node6 -->
<g id="edge9_Node000006_Node000006" class="edge">
<title>Node6&#45;&gt;Node6</title>
<g id="a_edge9_Node000006_Node000006"><a xlink:title=" ">
<path fill="none" stroke="#9a32cd" stroke-dasharray="5,2" d="M288.45,-355.25C302.05,-355.24 312.91,-351.49 312.91,-344 312.91,-334.51 295.46,-331.02 277.12,-333.54"/>
<polygon fill="#9a32cd" stroke="#9a32cd" points="288.85,-351.77 278.63,-354.56 288.36,-358.75 288.85,-351.77"/>
</a>
</g>
<text text-anchor="middle" x="323.79" y="-346.5" font-family="Helvetica,sans-Serif" font-size="10.00" fill="grey"> next</text>
<text text-anchor="middle" x="323.79" y="-334.5" font-family="Helvetica,sans-Serif" font-size="10.00" fill="grey">prev</text>
</g>
<!-- Node7 -->
<g id="Node000007" class="node">
<title>Node7</title>
<g id="a_Node000007"><a xlink:href="../../d7/d36/structvec4__t.html" target="_top" xlink:title=" ">
<polygon fill="white" stroke="#666666" points="352.16,-198 306.91,-198 306.91,-178 352.16,-178 352.16,-198"/>
<text text-anchor="middle" x="329.54" y="-184.5" font-family="Helvetica,sans-Serif" font-size="10.00">vec4_t</text>
</a>
</g>
</g>
<!-- Node7&#45;&gt;Node2 -->
<g id="edge10_Node000002_Node000007" class="edge">
<title>Node7&#45;&gt;Node2</title>
<g id="a_edge10_Node000002_Node000007"><a xlink:title=" ">
<path fill="none" stroke="#9a32cd" stroke-dasharray="5,2" d="M317.94,-168.2C309.45,-151.78 301.14,-127.86 312.04,-110 318.82,-98.89 331.79,-92.16 343.15,-88.19"/>
<polygon fill="#9a32cd" stroke="#9a32cd" points="314.64,-169.46 322.61,-176.44 320.73,-166.01 314.64,-169.46"/>
</a>
</g>
<text text-anchor="middle" x="355.29" y="-112.5" font-family="Helvetica,sans-Serif" font-size="10.00" fill="grey"> rotation_quaternion</text>
</g>
<!-- Node8 -->
<g id="Node000008" class="node">
<title>Node8</title>
<g id="a_Node000008"><a xlink:href="../../db/d99/structatom__data.html" target="_top" xlink:title=" ">
<polygon fill="white" stroke="#666666" points="441.41,-198 379.66,-198 379.66,-178 441.41,-178 441.41,-198"/>
<text text-anchor="middle" x="410.54" y="-184.5" font-family="Helvetica,sans-Serif" font-size="10.00">atom_data</text>
</a>
</g>
</g>
<!-- Node8&#45;&gt;Node2 -->
<g id="edge11_Node000002_Node000008" class="edge">
<title>Node8&#45;&gt;Node2</title>
<g id="a_edge11_Node000002_Node000008"><a xlink:title=" ">
<path fill="none" stroke="#9a32cd" stroke-dasharray="5,2" d="M410.92,-166.3C410.34,-149.99 407.53,-127.21 397.54,-110 393.45,-102.96 386.78,-96.98 380.51,-92.46"/>
<polygon fill="#9a32cd" stroke="#9a32cd" points="407.42,-166.28 410.99,-176.25 414.42,-166.23 407.42,-166.28"/>
</a>
</g>
<text text-anchor="middle" x="421.16" y="-112.5" font-family="Helvetica,sans-Serif" font-size="10.00" fill="grey"> at_data</text>
</g>
<!-- Node9 -->
<g id="Node000009" class="node">
<title>Node9</title>
<g id="a_Node000009"><a xlink:href="../../d7/d61/struct_light.html" target="_top" xlink:title=" ">
<polygon fill="white" stroke="#666666" points="496.04,-198 459.04,-198 459.04,-178 496.04,-178 496.04,-198"/>
<text text-anchor="middle" x="477.54" y="-184.5" font-family="Helvetica,sans-Serif" font-size="10.00">Light</text>
</a>
</g>
</g>
<!-- Node9&#45;&gt;Node2 -->
<g id="edge12_Node000002_Node000009" class="edge">
<title>Node9&#45;&gt;Node2</title>
<g id="a_edge12_Node000002_Node000009"><a xlink:title=" ">
<path fill="none" stroke="#9a32cd" stroke-dasharray="5,2" d="M473.01,-166.4C468.2,-149.13 458.96,-124.96 442.54,-110 426.86,-95.72 403.24,-88.93 386.1,-85.74"/>
<polygon fill="#9a32cd" stroke="#9a32cd" points="469.6,-167.19 475.4,-176.05 476.39,-165.5 469.6,-167.19"/>
</a>
</g>
<text text-anchor="middle" x="465.54" y="-112.5" font-family="Helvetica,sans-Serif" font-size="10.00" fill="grey"> l_ght</text>
</g>
<!-- Node10 -->
<g id="Node000010" class="node">
<title>Node10</title>
<g id="a_Node000010"><a xlink:href="../../d3/d7c/structvec3__t.html" target="_top" xlink:title=" ">
<polygon fill="white" stroke="#666666" points="567.16,-354 521.91,-354 521.91,-334 567.16,-334 567.16,-354"/>
<text text-anchor="middle" x="544.54" y="-340.5" font-family="Helvetica,sans-Serif" font-size="10.00">vec3_t</text>
</a>
</g>
</g>
<!-- Node10&#45;&gt;Node9 -->
<g id="edge13_Node000009_Node000010" class="edge">
<title>Node10&#45;&gt;Node9</title>
<g id="a_edge13_Node000009_Node000010"><a xlink:title=" ">
<path fill="none" stroke="#9a32cd" stroke-dasharray="5,2" d="M511.12,-332.89C502.04,-328.52 493.18,-322.42 487.54,-314 463.07,-277.46 470.99,-220.76 475.42,-198.46"/>
<polygon fill="#9a32cd" stroke="#9a32cd" points="509.7,-336.1 520.28,-336.68 512.38,-329.63 509.7,-336.1"/>
</a>
</g>
<text text-anchor="middle" x="513.04" y="-304.5" font-family="Helvetica,sans-Serif" font-size="10.00" fill="grey"> attenuation</text>
<text text-anchor="middle" x="513.04" y="-292.5" font-family="Helvetica,sans-Serif" font-size="10.00" fill="grey">direction</text>
<text text-anchor="middle" x="513.04" y="-280.5" font-family="Helvetica,sans-Serif" font-size="10.00" fill="grey">intensity</text>
<text text-anchor="middle" x="513.04" y="-268.5" font-family="Helvetica,sans-Serif" font-size="10.00" fill="grey">position</text>
<text text-anchor="middle" x="513.04" y="-256.5" font-family="Helvetica,sans-Serif" font-size="10.00" fill="grey">spot_data</text>
</g>
<!-- Node11 -->
<g id="Node000011" class="node">
<title>Node11</title>
<g id="a_Node000011"><a xlink:href="../../d3/d0a/struct_material.html" target="_top" xlink:title=" ">
<polygon fill="white" stroke="#666666" points="564.79,-198 514.29,-198 514.29,-178 564.79,-178 564.79,-198"/>
<text text-anchor="middle" x="539.54" y="-184.5" font-family="Helvetica,sans-Serif" font-size="10.00">Material</text>
</a>
</g>
</g>
<!-- Node10&#45;&gt;Node11 -->
<g id="edge15_Node000011_Node000010" class="edge">
<title>Node10&#45;&gt;Node11</title>
<g id="a_edge15_Node000011_Node000010"><a xlink:title=" ">
<path fill="none" stroke="#9a32cd" stroke-dasharray="5,2" d="M543.88,-322.64C542.78,-288.91 540.63,-222.72 539.84,-198.32"/>
<polygon fill="#9a32cd" stroke="#9a32cd" points="540.37,-322.43 544.19,-332.32 547.37,-322.21 540.37,-322.43"/>
</a>
</g>
<text text-anchor="middle" x="560.29" y="-280.5" font-family="Helvetica,sans-Serif" font-size="10.00" fill="grey"> albedo</text>
</g>
<!-- Node12 -->
<g id="Node000012" class="node">
<title>Node12</title>
<g id="a_Node000012"><a xlink:href="../../d8/df7/struct_fog.html" target="_top" xlink:title=" ">
<polygon fill="white" stroke="#666666" points="615.79,-198 583.29,-198 583.29,-178 615.79,-178 615.79,-198"/>
<text text-anchor="middle" x="599.54" y="-184.5" font-family="Helvetica,sans-Serif" font-size="10.00">Fog</text>
</a>
</g>
</g>
<!-- Node10&#45;&gt;Node12 -->
<g id="edge17_Node000012_Node000010" class="edge">
<title>Node10&#45;&gt;Node12</title>
<g id="a_edge17_Node000012_Node000010"><a xlink:title=" ">
<path fill="none" stroke="#9a32cd" stroke-dasharray="5,2" d="M567.64,-326.4C571.46,-322.71 574.99,-318.54 577.54,-314 599.24,-275.39 600.43,-220.35 599.93,-198.48"/>
<polygon fill="#9a32cd" stroke="#9a32cd" points="565.63,-323.52 560.28,-332.66 570.16,-328.85 565.63,-323.52"/>
</a>
</g>
<text text-anchor="middle" x="608.54" y="-280.5" font-family="Helvetica,sans-Serif" font-size="10.00" fill="grey"> color</text>
</g>
<!-- Node11&#45;&gt;Node2 -->
<g id="edge14_Node000002_Node000011" class="edge">
<title>Node11&#45;&gt;Node2</title>
<g id="a_edge14_Node000002_Node000011"><a xlink:title=" ">
<path fill="none" stroke="#9a32cd" stroke-dasharray="5,2" d="M530.07,-167.6C520.36,-149.83 503.58,-124.18 481.54,-110 452.09,-91.05 410.9,-85.34 386.07,-83.66"/>
<polygon fill="#9a32cd" stroke="#9a32cd" points="526.9,-169.1 534.6,-176.37 533.12,-165.88 526.9,-169.1"/>
</a>
</g>
<text text-anchor="middle" x="515.29" y="-112.5" font-family="Helvetica,sans-Serif" font-size="10.00" fill="grey"> m_terial</text>
</g>
<!-- Node12&#45;&gt;Node2 -->
<g id="edge16_Node000002_Node000012" class="edge">
<title>Node12&#45;&gt;Node2</title>
<g id="a_edge16_Node000002_Node000012"><a xlink:title=" ">
<path fill="none" stroke="#9a32cd" stroke-dasharray="5,2" d="M590.82,-167.53C586.34,-158.65 580.39,-148.29 573.54,-140 560.27,-123.95 556.52,-118.58 537.54,-110 486.72,-87.01 419.87,-83.11 386.08,-82.74"/>
<polygon fill="#9a32cd" stroke="#9a32cd" points="587.56,-168.82 595.01,-176.35 593.88,-165.82 587.56,-168.82"/>
</a>
</g>
<text text-anchor="middle" x="565.79" y="-112.5" font-family="Helvetica,sans-Serif" font-size="10.00" fill="grey"> f_g</text>
</g>
</g>
</svg>
