<?xml version="1.0" encoding="UTF-8" standalone="no"?>
<!DOCTYPE svg PUBLIC "-//W3C//DTD SVG 1.1//EN"
 "http://www.w3.org/Graphics/SVG/1.1/DTD/svg11.dtd">
<!-- Generated by graphviz version 2.43.0 (0)
 -->
<!-- Title: snapshot Pages: 1 -->
<svg width="688pt" height="344pt"
 viewBox="0.00 0.00 688.00 344.00" xmlns="http://www.w3.org/2000/svg" xmlns:xlink="http://www.w3.org/1999/xlink">
<g id="graph0" class="graph" transform="scale(1 1) rotate(0) translate(4 340)">
<title>snapshot</title>
<!-- Node1 -->
<g id="Node000001" class="node">
<title>Node1</title>
<g id="a_Node000001"><a xlink:title=" ">
<polygon fill="#999999" stroke="#666666" points="429.5,-20.5 368.5,-20.5 368.5,-1.5 429.5,-1.5 429.5,-20.5"/>
<text text-anchor="middle" x="399" y="-8.5" font-family="Helvetica,sans-Serif" font-size="10.00">snapshot</text>
</a>
</g>
</g>
<!-- Node1&#45;&gt;Node1 -->
<g id="edge18_Node000001_Node000001" class="edge">
<title>Node1&#45;&gt;Node1</title>
<g id="a_edge18_Node000001_Node000001"><a xlink:title=" ">
<path fill="none" stroke="#9a32cd" stroke-dasharray="5,2" d="M440.08,-16.35C444.59,-15.33 447.5,-13.55 447.5,-11 447.5,-6.82 439.67,-4.69 429.78,-4.63"/>
<polygon fill="#9a32cd" stroke="#9a32cd" points="439.39,-12.91 429.78,-17.37 440.08,-19.87 439.39,-12.91"/>
</a>
</g>
<text text-anchor="middle" x="460" y="-14" font-family="Helvetica,sans-Serif" font-size="10.00" fill="grey"> next</text>
<text text-anchor="middle" x="460" y="-3" font-family="Helvetica,sans-Serif" font-size="10.00" fill="grey">prev</text>
</g>
<!-- Node2 -->
<g id="Node000002" class="node">
<title>Node2</title>
<g id="a_Node000002"><a xlink:href="../../de/d68/structimage.html" target="_top" xlink:title=" ">
<polygon fill="white" stroke="#666666" points="422.5,-88 375.5,-88 375.5,-69 422.5,-69 422.5,-88"/>
<text text-anchor="middle" x="399" y="-76" font-family="Helvetica,sans-Serif" font-size="10.00">image</text>
</a>
</g>
</g>
<!-- Node2&#45;&gt;Node1 -->
<g id="edge1_Node000001_Node000002" class="edge">
<title>Node2&#45;&gt;Node1</title>
<g id="a_edge1_Node000001_Node000002"><a xlink:title=" ">
<path fill="none" stroke="#9a32cd" stroke-dasharray="5,2" d="M399,-58.68C399,-46.21 399,-30.42 399,-20.77"/>
<polygon fill="#9a32cd" stroke="#9a32cd" points="395.5,-58.94 399,-68.94 402.5,-58.94 395.5,-58.94"/>
</a>
</g>
<text text-anchor="middle" x="410" y="-43" font-family="Helvetica,sans-Serif" font-size="10.00" fill="grey"> img</text>
</g>
<!-- Node3 -->
<g id="Node000003" class="node">
<title>Node3</title>
<g id="a_Node000003"><a xlink:href="../../d1/d74/struct_col_r_g_b_a.html" target="_top" xlink:title=" ">
<polygon fill="white" stroke="#666666" points="155,-334.5 95,-334.5 95,-315.5 155,-315.5 155,-334.5"/>
<text text-anchor="middle" x="125" y="-322.5" font-family="Helvetica,sans-Serif" font-size="10.00">ColRGBA</text>
</a>
</g>
</g>
<!-- Node3&#45;&gt;Node2 -->
<g id="edge2_Node000002_Node000003" class="edge">
<title>Node3&#45;&gt;Node2</title>
<g id="a_edge2_Node000002_Node000003"><a xlink:title=" ">
<path fill="none" stroke="#9a32cd" stroke-dasharray="5,2" d="M100.59,-310C74.07,-293.2 33.18,-262.34 16,-223 0.35,-187.16 -9.39,-164.75 16,-135 62.72,-80.25 299.5,-78.27 375.49,-79.08"/>
<polygon fill="#9a32cd" stroke="#9a32cd" points="98.96,-313.1 109.31,-315.34 102.61,-307.13 98.96,-313.1"/>
</a>
</g>
<text text-anchor="middle" x="45.5" y="-215" font-family="Helvetica,sans-Serif" font-size="10.00" fill="grey"> at_color</text>
<text text-anchor="middle" x="45.5" y="-204" font-family="Helvetica,sans-Serif" font-size="10.00" fill="grey">axis_color</text>
<text text-anchor="middle" x="45.5" y="-193" font-family="Helvetica,sans-Serif" font-size="10.00" fill="grey">backcolor</text>
<text text-anchor="middle" x="45.5" y="-182" font-family="Helvetica,sans-Serif" font-size="10.00" fill="grey">box_color</text>
<text text-anchor="middle" x="45.5" y="-171" font-family="Helvetica,sans-Serif" font-size="10.00" fill="grey">fm_vol_col</text>
<text text-anchor="middle" x="45.5" y="-160" font-family="Helvetica,sans-Serif" font-size="10.00" fill="grey">labels_color</text>
<text text-anchor="middle" x="45.5" y="-149" font-family="Helvetica,sans-Serif" font-size="10.00" fill="grey">spcolor</text>
<text text-anchor="middle" x="45.5" y="-138" font-family="Helvetica,sans-Serif" font-size="10.00" fill="grey">vol_col</text>
</g>
<!-- Node4 -->
<g id="Node000004" class="node">
<title>Node4</title>
<g id="a_Node000004"><a xlink:href="../../d0/dc3/structscreen__string.html" target="_top" xlink:title=" ">
<polygon fill="white" stroke="#666666" points="166,-188.5 84,-188.5 84,-169.5 166,-169.5 166,-188.5"/>
<text text-anchor="middle" x="125" y="-176.5" font-family="Helvetica,sans-Serif" font-size="10.00">screen_string</text>
</a>
</g>
</g>
<!-- Node3&#45;&gt;Node4 -->
<g id="edge4_Node000004_Node000003" class="edge">
<title>Node3&#45;&gt;Node4</title>
<g id="a_edge4_Node000004_Node000003"><a xlink:title=" ">
<path fill="none" stroke="#9a32cd" stroke-dasharray="5,2" d="M125,-305.38C125,-273.97 125,-211.63 125,-188.71"/>
<polygon fill="#9a32cd" stroke="#9a32cd" points="121.5,-305.42 125,-315.42 128.5,-305.42 121.5,-305.42"/>
</a>
</g>
<text text-anchor="middle" x="134" y="-266" font-family="Helvetica,sans-Serif" font-size="10.00" fill="grey"> col</text>
</g>
<!-- Node5 -->
<g id="Node000005" class="node">
<title>Node5</title>
<g id="a_Node000005"><a xlink:href="../../d6/d0f/structatom__selection.html" target="_top" xlink:title=" ">
<polygon fill="white" stroke="#666666" points="316,-188.5 224,-188.5 224,-169.5 316,-169.5 316,-188.5"/>
<text text-anchor="middle" x="270" y="-176.5" font-family="Helvetica,sans-Serif" font-size="10.00">atom_selection</text>
</a>
</g>
</g>
<!-- Node3&#45;&gt;Node5 -->
<g id="edge7_Node000005_Node000003" class="edge">
<title>Node3&#45;&gt;Node5</title>
<g id="a_edge7_Node000005_Node000003"><a xlink:title=" ">
<path fill="none" stroke="#9a32cd" stroke-dasharray="5,2" d="M138.21,-307.16C156.6,-283.75 188.03,-243.89 191,-241 200.56,-231.71 204.41,-231.11 215,-223 230.39,-211.21 248.03,-197.36 259.09,-188.63"/>
<polygon fill="#9a32cd" stroke="#9a32cd" points="135.31,-305.19 131.88,-315.22 140.81,-309.52 135.31,-305.19"/>
</a>
</g>
<text text-anchor="middle" x="228.5" y="-277" font-family="Helvetica,sans-Serif" font-size="10.00" fill="grey"> angle_colors</text>
<text text-anchor="middle" x="228.5" y="-266" font-family="Helvetica,sans-Serif" font-size="10.00" fill="grey">bond_colors</text>
<text text-anchor="middle" x="228.5" y="-255" font-family="Helvetica,sans-Serif" font-size="10.00" fill="grey">dihedral_colors</text>
</g>
<!-- Node4&#45;&gt;Node2 -->
<g id="edge3_Node000002_Node000004" class="edge">
<title>Node4&#45;&gt;Node2</title>
<g id="a_edge3_Node000002_Node000004"><a xlink:title=" ">
<path fill="none" stroke="#9a32cd" stroke-dasharray="5,2" d="M140.73,-162.4C158.74,-145.55 189.92,-119.32 222,-106 273.79,-84.49 340.54,-80.14 375.41,-79.44"/>
<polygon fill="#9a32cd" stroke="#9a32cd" points="138.22,-159.96 133.43,-169.4 143.07,-165.01 138.22,-159.96"/>
</a>
</g>
<text text-anchor="middle" x="248.5" y="-109" font-family="Helvetica,sans-Serif" font-size="10.00" fill="grey"> labels_list</text>
</g>
<!-- Node4&#45;&gt;Node4 -->
<g id="edge5_Node000004_Node000004" class="edge">
<title>Node4&#45;&gt;Node4</title>
<g id="a_edge5_Node000004_Node000004"><a xlink:title=" ">
<path fill="none" stroke="#9a32cd" stroke-dasharray="5,2" d="M153.37,-190.76C169.3,-193.01 184,-189.09 184,-179 184,-166.82 162.56,-163.63 143.42,-169.44"/>
<polygon fill="#9a32cd" stroke="#9a32cd" points="153.94,-187.3 143.42,-188.56 152.43,-194.14 153.94,-187.3"/>
</a>
</g>
<text text-anchor="middle" x="195" y="-182" font-family="Helvetica,sans-Serif" font-size="10.00" fill="grey"> last</text>
<text text-anchor="middle" x="195" y="-171" font-family="Helvetica,sans-Serif" font-size="10.00" fill="grey">prev</text>
</g>
<!-- Node5&#45;&gt;Node2 -->
<g id="edge6_Node000002_Node000005" class="edge">
<title>Node5&#45;&gt;Node2</title>
<g id="a_edge6_Node000002_Node000005"><a xlink:title=" ">
<path fill="none" stroke="#9a32cd" stroke-dasharray="5,2" d="M269,-158.63C269.27,-142.41 272.38,-119.78 286,-106 298.32,-93.53 346.1,-85.77 375.44,-82.08"/>
<polygon fill="#9a32cd" stroke="#9a32cd" points="265.51,-159.15 269.2,-169.08 272.51,-159.02 265.51,-159.15"/>
</a>
</g>
<text text-anchor="middle" x="308.5" y="-109" font-family="Helvetica,sans-Serif" font-size="10.00" fill="grey"> selected</text>
</g>
<!-- Node6 -->
<g id="Node000006" class="node">
<title>Node6</title>
<g id="a_Node000006"><a xlink:href="../../df/dab/structatom__in__selection.html" target="_top" xlink:title=" ">
<polygon fill="white" stroke="#666666" points="323,-334.5 217,-334.5 217,-315.5 323,-315.5 323,-334.5"/>
<text text-anchor="middle" x="270" y="-322.5" font-family="Helvetica,sans-Serif" font-size="10.00">atom_in_selection</text>
</a>
</g>
</g>
<!-- Node6&#45;&gt;Node5 -->
<g id="edge8_Node000005_Node000006" class="edge">
<title>Node6&#45;&gt;Node5</title>
<g id="a_edge8_Node000005_Node000006"><a xlink:title=" ">
<path fill="none" stroke="#9a32cd" stroke-dasharray="5,2" d="M270,-305.38C270,-273.97 270,-211.63 270,-188.71"/>
<polygon fill="#9a32cd" stroke="#9a32cd" points="266.5,-305.42 270,-315.42 273.5,-305.42 266.5,-305.42"/>
</a>
</g>
<text text-anchor="middle" x="281" y="-271.5" font-family="Helvetica,sans-Serif" font-size="10.00" fill="grey"> first</text>
<text text-anchor="middle" x="281" y="-260.5" font-family="Helvetica,sans-Serif" font-size="10.00" fill="grey">last</text>
</g>
<!-- Node6&#45;&gt;Node6 -->
<g id="edge9_Node000006_Node000006" class="edge">
<title>Node6&#45;&gt;Node6</title>
<g id="a_edge9_Node000006_Node000006"><a xlink:title=" ">
<path fill="none" stroke="#9a32cd" stroke-dasharray="5,2" d="M310.28,-335.41C326.92,-336.11 341,-332.63 341,-325 341,-315.87 320.86,-312.69 300.28,-315.47"/>
<polygon fill="#9a32cd" stroke="#9a32cd" points="310.55,-331.92 300.28,-334.53 309.93,-338.9 310.55,-331.92"/>
</a>
</g>
<text text-anchor="middle" x="353.5" y="-328" font-family="Helvetica,sans-Serif" font-size="10.00" fill="grey"> next</text>
<text text-anchor="middle" x="353.5" y="-317" font-family="Helvetica,sans-Serif" font-size="10.00" fill="grey">prev</text>
</g>
<!-- Node7 -->
<g id="Node000007" class="node">
<title>Node7</title>
<g id="a_Node000007"><a xlink:href="../../d7/d36/structvec4__t.html" target="_top" xlink:title=" ">
<polygon fill="white" stroke="#666666" points="383.5,-188.5 334.5,-188.5 334.5,-169.5 383.5,-169.5 383.5,-188.5"/>
<text text-anchor="middle" x="359" y="-176.5" font-family="Helvetica,sans-Serif" font-size="10.00">vec4_t</text>
</a>
</g>
</g>
<!-- Node7&#45;&gt;Node2 -->
<g id="edge10_Node000002_Node000007" class="edge">
<title>Node7&#45;&gt;Node2</title>
<g id="a_edge10_Node000002_Node000007"><a xlink:title=" ">
<path fill="none" stroke="#9a32cd" stroke-dasharray="5,2" d="M346.81,-160.8C337.55,-145.4 328.09,-122.74 339,-106 347.02,-93.69 362.19,-87.06 375.27,-83.51"/>
<polygon fill="#9a32cd" stroke="#9a32cd" points="343.98,-162.86 352.38,-169.33 349.85,-159.04 343.98,-162.86"/>
</a>
</g>
<text text-anchor="middle" x="389" y="-109" font-family="Helvetica,sans-Serif" font-size="10.00" fill="grey"> rotation_quaternion</text>
</g>
<!-- Node8 -->
<g id="Node000008" class="node">
<title>Node8</title>
<g id="a_Node000008"><a xlink:href="../../db/d99/structatom__data.html" target="_top" xlink:title=" ">
<polygon fill="white" stroke="#666666" points="485.5,-188.5 416.5,-188.5 416.5,-169.5 485.5,-169.5 485.5,-188.5"/>
<text text-anchor="middle" x="451" y="-176.5" font-family="Helvetica,sans-Serif" font-size="10.00">atom_data</text>
</a>
</g>
</g>
<!-- Node8&#45;&gt;Node2 -->
<g id="edge11_Node000002_Node000008" class="edge">
<title>Node8&#45;&gt;Node2</title>
<g id="a_edge11_Node000002_Node000008"><a xlink:title=" ">
<path fill="none" stroke="#9a32cd" stroke-dasharray="5,2" d="M451.84,-158.84C451.63,-143.4 449.22,-121.76 439,-106 434.01,-98.31 425.93,-92.34 418.32,-88.03"/>
<polygon fill="#9a32cd" stroke="#9a32cd" points="448.34,-159.17 451.67,-169.23 455.34,-159.29 448.34,-159.17"/>
</a>
</g>
<text text-anchor="middle" x="465" y="-109" font-family="Helvetica,sans-Serif" font-size="10.00" fill="grey"> at_data</text>
</g>
<!-- Node9 -->
<g id="Node000009" class="node">
<title>Node9</title>
<g id="a_Node000009"><a xlink:href="../../d7/d61/struct_light.html" target="_top" xlink:title=" ">
<polygon fill="white" stroke="#666666" points="544.5,-188.5 503.5,-188.5 503.5,-169.5 544.5,-169.5 544.5,-188.5"/>
<text text-anchor="middle" x="524" y="-176.5" font-family="Helvetica,sans-Serif" font-size="10.00">Light</text>
</a>
</g>
</g>
<!-- Node9&#45;&gt;Node2 -->
<g id="edge12_Node000002_Node000009" class="edge">
<title>Node9&#45;&gt;Node2</title>
<g id="a_edge12_Node000002_Node000009"><a xlink:title=" ">
<path fill="none" stroke="#9a32cd" stroke-dasharray="5,2" d="M519.42,-159C514.53,-142.7 505.2,-119.71 489,-106 470.22,-90.11 442.28,-83.75 422.52,-81.2"/>
<polygon fill="#9a32cd" stroke="#9a32cd" points="516.14,-160.29 522.12,-169.03 522.9,-158.47 516.14,-160.29"/>
</a>
</g>
<text text-anchor="middle" x="514" y="-109" font-family="Helvetica,sans-Serif" font-size="10.00" fill="grey"> l_ght</text>
</g>
<!-- Node10 -->
<g id="Node000010" class="node">
<title>Node10</title>
<g id="a_Node000010"><a xlink:href="../../d3/d7c/structvec3__t.html" target="_top" xlink:title=" ">
<polygon fill="white" stroke="#666666" points="619.5,-334.5 570.5,-334.5 570.5,-315.5 619.5,-315.5 619.5,-334.5"/>
<text text-anchor="middle" x="595" y="-322.5" font-family="Helvetica,sans-Serif" font-size="10.00">vec3_t</text>
</a>
</g>
</g>
<!-- Node10&#45;&gt;Node9 -->
<g id="edge13_Node000009_Node000010" class="edge">
<title>Node10&#45;&gt;Node9</title>
<g id="a_edge13_Node000009_Node000010"><a xlink:title=" ">
<path fill="none" stroke="#9a32cd" stroke-dasharray="5,2" d="M560.59,-317.35C548.63,-313.24 536.37,-306.63 529,-296 505.68,-262.37 516.2,-209.14 521.55,-188.53"/>
<polygon fill="#9a32cd" stroke="#9a32cd" points="559.88,-320.79 570.46,-320.24 561.85,-314.07 559.88,-320.79"/>
</a>
</g>
<text text-anchor="middle" x="559" y="-288" font-family="Helvetica,sans-Serif" font-size="10.00" fill="grey"> attenuation</text>
<text text-anchor="middle" x="559" y="-277" font-family="Helvetica,sans-Serif" font-size="10.00" fill="grey">direction</text>
<text text-anchor="middle" x="559" y="-266" font-family="Helvetica,sans-Serif" font-size="10.00" fill="grey">intensity</text>
<text text-anchor="middle" x="559" y="-255" font-family="Helvetica,sans-Serif" font-size="10.00" fill="grey">position</text>
<text text-anchor="middle" x="559" y="-244" font-family="Helvetica,sans-Serif" font-size="10.00" fill="grey">spot_data</text>
</g>
<!-- Node11 -->
<g id="Node000011" class="node">
<title>Node11</title>
<g id="a_Node000011"><a xlink:href="../../d3/d0a/struct_material.html" target="_top" xlink:title=" ">
<polygon fill="white" stroke="#666666" points="619.5,-188.5 562.5,-188.5 562.5,-169.5 619.5,-169.5 619.5,-188.5"/>
<text text-anchor="middle" x="591" y="-176.5" font-family="Helvetica,sans-Serif" font-size="10.00">Material</text>
</a>
</g>
</g>
<!-- Node10&#45;&gt;Node11 -->
<g id="edge15_Node000011_Node000010" class="edge">
<title>Node10&#45;&gt;Node11</title>
<g id="a_edge15_Node000011_Node000010"><a xlink:title=" ">
<path fill="none" stroke="#9a32cd" stroke-dasharray="5,2" d="M594.48,-305.38C593.61,-273.97 591.88,-211.63 591.24,-188.71"/>
<polygon fill="#9a32cd" stroke="#9a32cd" points="590.98,-305.52 594.76,-315.42 597.98,-305.33 590.98,-305.52"/>
</a>
</g>
<text text-anchor="middle" x="613.5" y="-266" font-family="Helvetica,sans-Serif" font-size="10.00" fill="grey"> albedo</text>
</g>
<!-- Node12 -->
<g id="Node000012" class="node">
<title>Node12</title>
<g id="a_Node000012"><a xlink:href="../../d8/df7/struct_fog.html" target="_top" xlink:title=" ">
<polygon fill="white" stroke="#666666" points="672,-188.5 638,-188.5 638,-169.5 672,-169.5 672,-188.5"/>
<text text-anchor="middle" x="655" y="-176.5" font-family="Helvetica,sans-Serif" font-size="10.00">Fog</text>
</a>
</g>
</g>
<!-- Node10&#45;&gt;Node12 -->
<g id="edge17_Node000012_Node000010" class="edge">
<title>Node10&#45;&gt;Node12</title>
<g id="a_edge17_Node000012_Node000010"><a xlink:title=" ">
<path fill="none" stroke="#9a32cd" stroke-dasharray="5,2" d="M620.1,-309.69C625.04,-305.83 629.7,-301.24 633,-296 655.05,-260.95 656,-208.99 655.42,-188.63"/>
<polygon fill="#9a32cd" stroke="#9a32cd" points="617.95,-306.92 611.73,-315.5 621.94,-312.68 617.95,-306.92"/>
</a>
</g>
<text text-anchor="middle" x="666" y="-266" font-family="Helvetica,sans-Serif" font-size="10.00" fill="grey"> color</text>
</g>
<!-- Node11&#45;&gt;Node2 -->
<g id="edge14_Node000002_Node000011" class="edge">
<title>Node11&#45;&gt;Node2</title>
<g id="a_edge14_Node000002_Node000011"><a xlink:title=" ">
<path fill="none" stroke="#9a32cd" stroke-dasharray="5,2" d="M581.46,-160.46C571.42,-143.74 554.01,-119.21 532,-106 497.88,-85.53 450.85,-80.54 422.82,-79.51"/>
<polygon fill="#9a32cd" stroke="#9a32cd" points="578.5,-162.33 586.51,-169.26 584.57,-158.84 578.5,-162.33"/>
</a>
</g>
<text text-anchor="middle" x="569" y="-109" font-family="Helvetica,sans-Serif" font-size="10.00" fill="grey"> m_terial</text>
</g>
<!-- Node12&#45;&gt;Node2 -->
<g id="edge16_Node000002_Node000012" class="edge">
<title>Node12&#45;&gt;Node2</title>
<g id="a_edge16_Node000002_Node000012"><a xlink:title=" ">
<path fill="none" stroke="#9a32cd" stroke-dasharray="5,2" d="M646.1,-159.94C636.31,-142.38 618.76,-116.83 595,-106 564.69,-92.19 467.76,-84.09 422.59,-80.98"/>
<polygon fill="#9a32cd" stroke="#9a32cd" points="643.2,-161.95 650.95,-169.18 649.4,-158.7 643.2,-161.95"/>
</a>
</g>
<text text-anchor="middle" x="621.5" y="-109" font-family="Helvetica,sans-Serif" font-size="10.00" fill="grey"> f_g</text>
</g>
</g>
</svg>
