<?xml version="1.0" encoding="UTF-8" standalone="no"?>
<!DOCTYPE svg PUBLIC "-//W3C//DTD SVG 1.1//EN"
 "http://www.w3.org/Graphics/SVG/1.1/DTD/svg11.dtd">
<!-- Generated by graphviz version 7.1.0 (0)
 -->
<!-- Title: curve/datab.c Pages: 1 -->
<!--zoomable 247 -->
<svg id="main" version="1.1" xmlns="http://www.w3.org/2000/svg" xmlns:xlink="http://www.w3.org/1999/xlink" xml:space="preserve" onload="init(evt)">
<style type="text/css"><![CDATA[
.edge:hover path { stroke: red; }
.edge:hover polygon { stroke: red; fill: red; }
]]></style>
<script type="text/javascript"><![CDATA[
var edges = document.getElementsByTagName('g');
if (edges && edges.length) {
  for (var i=0;i<edges.length;i++) {
    if (edges[i].id.substr(0,4)=='edge') {
      edges[i].setAttribute('class','edge');
    }
  }
}
]]></script>
        <defs>
                <circle id="rim" cx="0" cy="0" r="7"/>
                <circle id="rim2" cx="0" cy="0" r="3.5"/>
                <g id="zoomPlus">
                        <use xlink:href="#rim" fill="#404040">
                                <set attributeName="fill" to="#808080" begin="zoomplus.mouseover" end="zoomplus.mouseout"/>
                        </use>
                        <path d="M-4,0h8M0,-4v8" fill="none" stroke="white" stroke-width="1.5" pointer-events="none"/>
                </g>
                <g id="zoomMin">
                        <use xlink:href="#rim" fill="#404040">
                                <set attributeName="fill" to="#808080" begin="zoomminus.mouseover" end="zoomminus.mouseout"/>
                        </use>
                        <path d="M-4,0h8" fill="none" stroke="white" stroke-width="1.5" pointer-events="none"/>
                </g>
                <g id="dirArrow">
                        <path fill="none" stroke="white" stroke-width="1.5" d="M0,-3.0v7 M-2.5,-0.5L0,-3.0L2.5,-0.5"/>
                </g>
               <g id="resetDef">
                       <use xlink:href="#rim2" fill="#404040">
                               <set attributeName="fill" to="#808080" begin="reset.mouseover" end="reset.mouseout"/>
                       </use>
               </g>
        </defs>

<script type="text/javascript">
var viewWidth = 1632;
var viewHeight = 247;
var sectionId = 'dynsection-0';
</script>
<script xlink:href="../../svgpan.js"/>
<svg id="graph" class="graph">
<g id="viewport">
<title>curve/datab.c</title>
<!-- Node1 -->
<g id="node1" class="node">
<title>Node1</title>
<g id="a_node1"><a xlink:title="Curve data edition window and associated callbacks.">
<polygon fill="#999999" stroke="#666666" points="551.5,-239 475.5,-239 475.5,-220 551.5,-220 551.5,-239"/>
<text text-anchor="middle" x="513.5" y="-227" font-family="Helvetica,sans-Serif" font-size="10.00">curve/datab.c</text>
</a>
</g>
</g>
<!-- Node2 -->
<g id="node2" class="node">
<title>Node2</title>
<g id="a_node2"><a xlink:title=" ">
<polygon fill="#e0e0e0" stroke="#999999" points="55,-74 0,-74 0,-55 55,-55 55,-74"/>
<text text-anchor="middle" x="27.5" y="-62" font-family="Helvetica,sans-Serif" font-size="10.00">gtk/gtk.h</text>
</a>
</g>
</g>
<!-- Node1&#45;&gt;Node2 -->
<g id="edge1" class="edge">
<title>Node1&#45;&gt;Node2</title>
<path fill="none" stroke="#63b8ff" d="M475.01,-221.99C434.35,-214.64 368.62,-201.41 313.5,-184 216.57,-153.39 106.77,-103.33 56.01,-79.27"/>
<polygon fill="#63b8ff" stroke="#63b8ff" points="57.72,-76.21 47.19,-75.06 54.71,-82.52 57.72,-76.21"/>
</g>
<!-- Node3 -->
<g id="node3" class="node">
<title>Node3</title>
<g id="a_node3"><a xlink:title=" ">
<polygon fill="#e0e0e0" stroke="#999999" points="368.5,-184 322.5,-184 322.5,-165 368.5,-165 368.5,-184"/>
<text text-anchor="middle" x="345.5" y="-172" font-family="Helvetica,sans-Serif" font-size="10.00">cairo.h</text>
</a>
</g>
</g>
<!-- Node1&#45;&gt;Node3 -->
<g id="edge2" class="edge">
<title>Node1&#45;&gt;Node3</title>
<path fill="none" stroke="#63b8ff" d="M485,-219.51C455.9,-210.33 410.72,-196.08 379.71,-186.29"/>
<polygon fill="#63b8ff" stroke="#63b8ff" points="381.01,-183.03 370.42,-183.36 378.91,-189.71 381.01,-183.03"/>
</g>
<!-- Node4 -->
<g id="node4" class="node">
<title>Node4</title>
<g id="a_node4"><a xlink:title=" ">
<polygon fill="#e0e0e0" stroke="#999999" points="122,-74 73,-74 73,-55 122,-55 122,-74"/>
<text text-anchor="middle" x="97.5" y="-62" font-family="Helvetica,sans-Serif" font-size="10.00">string.h</text>
</a>
</g>
</g>
<!-- Node1&#45;&gt;Node4 -->
<g id="edge3" class="edge">
<title>Node1&#45;&gt;Node4</title>
<path fill="none" stroke="#63b8ff" d="M495.7,-219.52C469.95,-206.69 420.66,-182.7 377.5,-165 291.01,-129.53 186.67,-94.42 133.09,-76.94"/>
<polygon fill="#63b8ff" stroke="#63b8ff" points="134.17,-73.61 123.58,-73.84 132.01,-80.26 134.17,-73.61"/>
</g>
<!-- Node5 -->
<g id="node5" class="node">
<title>Node5</title>
<g id="a_node5"><a xlink:title=" ">
<polygon fill="#e0e0e0" stroke="#999999" points="188.5,-74 140.5,-74 140.5,-55 188.5,-55 188.5,-74"/>
<text text-anchor="middle" x="164.5" y="-62" font-family="Helvetica,sans-Serif" font-size="10.00">stdlib.h</text>
</a>
</g>
</g>
<!-- Node1&#45;&gt;Node5 -->
<g id="edge4" class="edge">
<title>Node1&#45;&gt;Node5</title>
<path fill="none" stroke="#63b8ff" d="M498.09,-219.55C485.08,-211.46 466.55,-198.6 453.5,-184 428.15,-155.64 441.77,-131.66 410.5,-110 334.51,-57.35 294.44,-91.25 200.11,-74.25"/>
<polygon fill="#63b8ff" stroke="#63b8ff" points="200.93,-70.84 190.44,-72.34 199.57,-77.71 200.93,-70.84"/>
</g>
<!-- Node6 -->
<g id="node6" class="node">
<title>Node6</title>
<g id="a_node6"><a xlink:title=" ">
<polygon fill="#e0e0e0" stroke="#999999" points="782,-19 735,-19 735,0 782,0 782,-19"/>
<text text-anchor="middle" x="758.5" y="-7" font-family="Helvetica,sans-Serif" font-size="10.00">math.h</text>
</a>
</g>
</g>
<!-- Node1&#45;&gt;Node6 -->
<g id="edge5" class="edge">
<title>Node1&#45;&gt;Node6</title>
<path fill="none" stroke="#63b8ff" d="M551.92,-226.08C738.89,-213.91 1547.52,-156.73 1619.5,-74 1625.04,-67.63 1625.31,-61.12 1619.5,-55 1590.62,-24.59 952.17,-13.32 793.8,-10.98"/>
<polygon fill="#63b8ff" stroke="#63b8ff" points="793.99,-7.48 783.94,-10.84 793.88,-14.48 793.99,-7.48"/>
</g>
<!-- Node7 -->
<g id="node7" class="node">
<title>Node7</title>
<g id="a_node7"><a xlink:href="../../d2/d49/global_8h.html" target="_top" xlink:title="Global variable declarations &#160;&#160;Global convenience function declarations &#160;&#160;Global data structure defin...">
<polygon fill="white" stroke="#666666" points="654.5,-129 604.5,-129 604.5,-110 654.5,-110 654.5,-129"/>
<text text-anchor="middle" x="629.5" y="-117" font-family="Helvetica,sans-Serif" font-size="10.00">global.h</text>
</a>
</g>
</g>
<!-- Node1&#45;&gt;Node7 -->
<g id="edge6" class="edge">
<title>Node1&#45;&gt;Node7</title>
<path fill="none" stroke="#63b8ff" d="M518.29,-219.91C525.82,-206.91 541.46,-181.98 559.5,-165 572.04,-153.2 588.13,-142.72 601.72,-134.9"/>
<polygon fill="#63b8ff" stroke="#63b8ff" points="603.16,-138.1 610.2,-130.19 599.76,-131.98 603.16,-138.1"/>
</g>
<!-- Node26 -->
<g id="node26" class="node">
<title>Node26</title>
<g id="a_node26"><a xlink:href="../../d4/da9/interface_8h.html" target="_top" xlink:title="Messaging function declarations.">
<polygon fill="white" stroke="#666666" points="630.5,-184 568.5,-184 568.5,-165 630.5,-165 630.5,-184"/>
<text text-anchor="middle" x="599.5" y="-172" font-family="Helvetica,sans-Serif" font-size="10.00">interface.h</text>
</a>
</g>
</g>
<!-- Node1&#45;&gt;Node26 -->
<g id="edge31" class="edge">
<title>Node1&#45;&gt;Node26</title>
<path fill="none" stroke="#63b8ff" d="M528.09,-219.51C541.02,-211.54 560.14,-199.75 575.35,-190.38"/>
<polygon fill="#63b8ff" stroke="#63b8ff" points="577.16,-193.38 583.84,-185.15 573.49,-187.42 577.16,-193.38"/>
</g>
<!-- Node27 -->
<g id="node27" class="node">
<title>Node27</title>
<g id="a_node27"><a xlink:href="../../dd/d49/callbacks_8h.html" target="_top" xlink:title="Callback declarations for main window.">
<polygon fill="white" stroke="#666666" points="714.5,-184 648.5,-184 648.5,-165 714.5,-165 714.5,-184"/>
<text text-anchor="middle" x="681.5" y="-172" font-family="Helvetica,sans-Serif" font-size="10.00">callbacks.h</text>
</a>
</g>
</g>
<!-- Node1&#45;&gt;Node27 -->
<g id="edge32" class="edge">
<title>Node1&#45;&gt;Node27</title>
<path fill="none" stroke="#63b8ff" d="M542,-219.51C569.6,-210.8 611.66,-197.53 642.38,-187.84"/>
<polygon fill="#63b8ff" stroke="#63b8ff" points="643.22,-191.25 651.7,-184.9 641.11,-184.57 643.22,-191.25"/>
</g>
<!-- Node28 -->
<g id="node28" class="node">
<title>Node28</title>
<g id="a_node28"><a xlink:href="../../dc/d8d/project_8h.html" target="_top" xlink:title="Function declarations for reading atomes project file &#160;&#160;Function declarations for saving atomes proje...">
<polygon fill="white" stroke="#666666" points="786.5,-184 732.5,-184 732.5,-165 786.5,-165 786.5,-184"/>
<text text-anchor="middle" x="759.5" y="-172" font-family="Helvetica,sans-Serif" font-size="10.00">project.h</text>
</a>
</g>
</g>
<!-- Node1&#45;&gt;Node28 -->
<g id="edge33" class="edge">
<title>Node1&#45;&gt;Node28</title>
<path fill="none" stroke="#63b8ff" d="M551.88,-220.64C591.8,-212.41 656.41,-198.92 721.51,-184.4"/>
<polygon fill="#63b8ff" stroke="#63b8ff" points="721.92,-187.9 730.91,-182.3 720.39,-181.07 721.92,-187.9"/>
</g>
<!-- Node29 -->
<g id="node29" class="node">
<title>Node29</title>
<g id="a_node29"><a xlink:href="../../df/de9/curve_8h.html" target="_top" xlink:title="Variable declarations for the curve widget \ Functions for interactions with the curve widget.">
<polygon fill="white" stroke="#666666" points="512,-184 463,-184 463,-165 512,-165 512,-184"/>
<text text-anchor="middle" x="487.5" y="-172" font-family="Helvetica,sans-Serif" font-size="10.00">curve.h</text>
</a>
</g>
</g>
<!-- Node1&#45;&gt;Node29 -->
<g id="edge34" class="edge">
<title>Node1&#45;&gt;Node29</title>
<path fill="none" stroke="#63b8ff" d="M509.21,-219.75C505.88,-212.96 501.14,-203.3 496.94,-194.73"/>
<polygon fill="#63b8ff" stroke="#63b8ff" points="500.1,-193.24 492.55,-185.8 493.82,-196.32 500.1,-193.24"/>
</g>
<!-- Node7&#45;&gt;Node2 -->
<g id="edge17" class="edge">
<title>Node7&#45;&gt;Node2</title>
<path fill="none" stroke="#63b8ff" d="M604.23,-117.89C525.78,-115.72 279.3,-106.72 66.4,-74.23"/>
<polygon fill="#63b8ff" stroke="#63b8ff" points="67.24,-70.82 56.82,-72.75 66.17,-77.74 67.24,-70.82"/>
</g>
<!-- Node7&#45;&gt;Node4 -->
<g id="edge11" class="edge">
<title>Node7&#45;&gt;Node4</title>
<path fill="none" stroke="#63b8ff" d="M604.19,-117.63C532.12,-114.87 319.56,-104.68 133.38,-74.03"/>
<polygon fill="#63b8ff" stroke="#63b8ff" points="134.22,-70.62 123.78,-72.42 133.07,-77.52 134.22,-70.62"/>
</g>
<!-- Node7&#45;&gt;Node5 -->
<g id="edge13" class="edge">
<title>Node7&#45;&gt;Node5</title>
<path fill="none" stroke="#63b8ff" d="M604.48,-117.23C539.35,-113.66 359.1,-102.01 199.86,-74.17"/>
<polygon fill="#63b8ff" stroke="#63b8ff" points="200.87,-70.79 190.41,-72.49 199.64,-77.68 200.87,-70.79"/>
</g>
<!-- Node7&#45;&gt;Node6 -->
<g id="edge16" class="edge">
<title>Node7&#45;&gt;Node6</title>
<path fill="none" stroke="#63b8ff" d="M654.94,-114.7C679.89,-109.66 717.31,-98.37 739.5,-74 750.29,-62.14 754.97,-44.38 756.98,-30.65"/>
<polygon fill="#63b8ff" stroke="#63b8ff" points="760.44,-31.29 758.03,-20.97 753.48,-30.54 760.44,-31.29"/>
</g>
<!-- Node8 -->
<g id="node8" class="node">
<title>Node8</title>
<g id="a_node8"><a xlink:title=" ">
<polygon fill="#e0e0e0" stroke="#999999" points="390.5,-74 350.5,-74 350.5,-55 390.5,-55 390.5,-74"/>
<text text-anchor="middle" x="370.5" y="-62" font-family="Helvetica,sans-Serif" font-size="10.00">glib.h</text>
</a>
</g>
</g>
<!-- Node7&#45;&gt;Node8 -->
<g id="edge7" class="edge">
<title>Node7&#45;&gt;Node8</title>
<path fill="none" stroke="#63b8ff" d="M604.15,-114.4C563.5,-107.65 481.06,-93.26 401.86,-74.38"/>
<polygon fill="#63b8ff" stroke="#63b8ff" points="402.73,-70.99 392.19,-72.04 401.09,-77.79 402.73,-70.99"/>
</g>
<!-- Node9 -->
<g id="node9" class="node">
<title>Node9</title>
<g id="a_node9"><a xlink:title=" ">
<polygon fill="#e0e0e0" stroke="#999999" points="474.5,-74 408.5,-74 408.5,-55 474.5,-55 474.5,-74"/>
<text text-anchor="middle" x="441.5" y="-62" font-family="Helvetica,sans-Serif" font-size="10.00">glib/gi18n.h</text>
</a>
</g>
</g>
<!-- Node7&#45;&gt;Node9 -->
<g id="edge8" class="edge">
<title>Node7&#45;&gt;Node9</title>
<path fill="none" stroke="#63b8ff" d="M604.15,-111.35C573.44,-102.7 521.26,-87.99 484.29,-77.56"/>
<polygon fill="#63b8ff" stroke="#63b8ff" points="485.38,-74.23 474.81,-74.89 483.48,-80.97 485.38,-74.23"/>
</g>
<!-- Node10 -->
<g id="node10" class="node">
<title>Node10</title>
<g id="a_node10"><a xlink:title=" ">
<polygon fill="#e0e0e0" stroke="#999999" points="542.5,-74 492.5,-74 492.5,-55 542.5,-55 542.5,-74"/>
<text text-anchor="middle" x="517.5" y="-62" font-family="Helvetica,sans-Serif" font-size="10.00">locale.h</text>
</a>
</g>
</g>
<!-- Node7&#45;&gt;Node10 -->
<g id="edge9" class="edge">
<title>Node7&#45;&gt;Node10</title>
<path fill="none" stroke="#63b8ff" d="M610.5,-109.51C592.94,-101.2 566.58,-88.73 546.41,-79.18"/>
<polygon fill="#63b8ff" stroke="#63b8ff" points="548.12,-76.12 537.59,-75.01 545.13,-82.45 548.12,-76.12"/>
</g>
<!-- Node11 -->
<g id="node11" class="node">
<title>Node11</title>
<g id="a_node11"><a xlink:title=" ">
<polygon fill="#e0e0e0" stroke="#999999" points="730,-74 679,-74 679,-55 730,-55 730,-74"/>
<text text-anchor="middle" x="704.5" y="-62" font-family="Helvetica,sans-Serif" font-size="10.00">unistd.h</text>
</a>
</g>
</g>
<!-- Node7&#45;&gt;Node11 -->
<g id="edge10" class="edge">
<title>Node7&#45;&gt;Node11</title>
<path fill="none" stroke="#63b8ff" d="M642.22,-109.51C653.28,-101.7 669.54,-90.21 682.67,-80.93"/>
<polygon fill="#63b8ff" stroke="#63b8ff" points="684.58,-83.86 690.73,-75.23 680.54,-78.14 684.58,-83.86"/>
</g>
<!-- Node12 -->
<g id="node12" class="node">
<title>Node12</title>
<g id="a_node12"><a xlink:title=" ">
<polygon fill="#e0e0e0" stroke="#999999" points="622.5,-19 576.5,-19 576.5,0 622.5,0 622.5,-19"/>
<text text-anchor="middle" x="599.5" y="-7" font-family="Helvetica,sans-Serif" font-size="10.00">stdio.h</text>
</a>
</g>
</g>
<!-- Node7&#45;&gt;Node12 -->
<g id="edge12" class="edge">
<title>Node7&#45;&gt;Node12</title>
<path fill="none" stroke="#63b8ff" d="M617.86,-109.73C608.19,-101.67 595.15,-88.74 589.5,-74 584.06,-59.8 587.24,-42.72 591.41,-29.86"/>
<polygon fill="#63b8ff" stroke="#63b8ff" points="594.56,-31.44 594.77,-20.85 588,-28.99 594.56,-31.44"/>
</g>
<!-- Node13 -->
<g id="node13" class="node">
<title>Node13</title>
<g id="a_node13"><a xlink:title=" ">
<polygon fill="#e0e0e0" stroke="#999999" points="854.5,-74 786.5,-74 786.5,-55 854.5,-55 854.5,-74"/>
<text text-anchor="middle" x="820.5" y="-62" font-family="Helvetica,sans-Serif" font-size="10.00">sys/types.h</text>
</a>
</g>
</g>
<!-- Node7&#45;&gt;Node13 -->
<g id="edge14" class="edge">
<title>Node7&#45;&gt;Node13</title>
<path fill="none" stroke="#63b8ff" d="M654.86,-111.46C686.17,-102.77 739.9,-87.87 777.65,-77.39"/>
<polygon fill="#63b8ff" stroke="#63b8ff" points="778.17,-80.88 786.87,-74.83 776.3,-74.13 778.17,-80.88"/>
</g>
<!-- Node14 -->
<g id="node14" class="node">
<title>Node14</title>
<g id="a_node14"><a xlink:title=" ">
<polygon fill="#e0e0e0" stroke="#999999" points="932.5,-74 872.5,-74 872.5,-55 932.5,-55 932.5,-74"/>
<text text-anchor="middle" x="902.5" y="-62" font-family="Helvetica,sans-Serif" font-size="10.00">sys/stat.h</text>
</a>
</g>
</g>
<!-- Node7&#45;&gt;Node14 -->
<g id="edge15" class="edge">
<title>Node7&#45;&gt;Node14</title>
<path fill="none" stroke="#63b8ff" d="M654.82,-113.91C695.95,-106.41 780.09,-90.87 861.36,-74.39"/>
<polygon fill="#63b8ff" stroke="#63b8ff" points="861.7,-77.9 870.8,-72.47 860.3,-71.04 861.7,-77.9"/>
</g>
<!-- Node15 -->
<g id="node15" class="node">
<title>Node15</title>
<g id="a_node15"><a xlink:title=" ">
<polygon fill="#e0e0e0" stroke="#999999" points="1010,-74 951,-74 951,-55 1010,-55 1010,-74"/>
<text text-anchor="middle" x="980.5" y="-62" font-family="Helvetica,sans-Serif" font-size="10.00">gdk/gdk.h</text>
</a>
</g>
</g>
<!-- Node7&#45;&gt;Node15 -->
<g id="edge18" class="edge">
<title>Node7&#45;&gt;Node15</title>
<path fill="none" stroke="#63b8ff" d="M654.67,-115.54C706.13,-109.36 827.27,-94.12 939.55,-74.22"/>
<polygon fill="#63b8ff" stroke="#63b8ff" points="940.02,-77.7 949.24,-72.49 938.78,-70.81 940.02,-77.7"/>
</g>
<!-- Node16 -->
<g id="node16" class="node">
<title>Node16</title>
<g id="a_node16"><a xlink:title=" ">
<polygon fill="#e0e0e0" stroke="#999999" points="1127,-74 1028,-74 1028,-55 1127,-55 1127,-74"/>
<text text-anchor="middle" x="1077.5" y="-62" font-family="Helvetica,sans-Serif" font-size="10.00">gdk/gdkkeysyms.h</text>
</a>
</g>
</g>
<!-- Node7&#45;&gt;Node16 -->
<g id="edge19" class="edge">
<title>Node7&#45;&gt;Node16</title>
<path fill="none" stroke="#63b8ff" d="M654.63,-115.91C715.08,-109.63 873.65,-92.8 1016.4,-74.37"/>
<polygon fill="#63b8ff" stroke="#63b8ff" points="1016.56,-77.88 1026.03,-73.12 1015.66,-70.94 1016.56,-77.88"/>
</g>
<!-- Node17 -->
<g id="node17" class="node">
<title>Node17</title>
<g id="a_node17"><a xlink:title=" ">
<polygon fill="#e0e0e0" stroke="#999999" points="1263.5,-74 1145.5,-74 1145.5,-55 1263.5,-55 1263.5,-74"/>
<text text-anchor="middle" x="1204.5" y="-62" font-family="Helvetica,sans-Serif" font-size="10.00">gdk&#45;pixbuf/gdk&#45;pixbuf.h</text>
</a>
</g>
</g>
<!-- Node7&#45;&gt;Node17 -->
<g id="edge20" class="edge">
<title>Node7&#45;&gt;Node17</title>
<path fill="none" stroke="#63b8ff" d="M654.85,-116.61C727.58,-111.11 943.33,-94.3 1133.82,-74.25"/>
<polygon fill="#63b8ff" stroke="#63b8ff" points="1134.1,-77.74 1143.67,-73.21 1133.36,-70.78 1134.1,-77.74"/>
</g>
<!-- Node18 -->
<g id="node18" class="node">
<title>Node18</title>
<g id="a_node18"><a xlink:title=" ">
<polygon fill="#e0e0e0" stroke="#999999" points="1373.5,-74 1281.5,-74 1281.5,-55 1373.5,-55 1373.5,-74"/>
<text text-anchor="middle" x="1327.5" y="-62" font-family="Helvetica,sans-Serif" font-size="10.00">pango/pangoft2.h</text>
</a>
</g>
</g>
<!-- Node7&#45;&gt;Node18 -->
<g id="edge21" class="edge">
<title>Node7&#45;&gt;Node18</title>
<path fill="none" stroke="#63b8ff" d="M654.99,-117.51C740.39,-114.02 1024.35,-101.13 1269.74,-74.21"/>
<polygon fill="#63b8ff" stroke="#63b8ff" points="1269.97,-77.71 1279.52,-73.13 1269.2,-70.75 1269.97,-77.71"/>
</g>
<!-- Node19 -->
<g id="node19" class="node">
<title>Node19</title>
<g id="a_node19"><a xlink:title=" ">
<polygon fill="#e0e0e0" stroke="#999999" points="1453.5,-74 1391.5,-74 1391.5,-55 1453.5,-55 1453.5,-74"/>
<text text-anchor="middle" x="1422.5" y="-62" font-family="Helvetica,sans-Serif" font-size="10.00">epoxy/gl.h</text>
</a>
</g>
</g>
<!-- Node7&#45;&gt;Node19 -->
<g id="edge22" class="edge">
<title>Node7&#45;&gt;Node19</title>
<path fill="none" stroke="#63b8ff" d="M654.99,-118.38C749.65,-117.64 1090.13,-112.42 1379.98,-74.12"/>
<polygon fill="#63b8ff" stroke="#63b8ff" points="1380.19,-77.63 1389.63,-72.83 1379.26,-70.69 1380.19,-77.63"/>
</g>
<!-- Node20 -->
<g id="node20" class="node">
<title>Node20</title>
<g id="a_node20"><a xlink:title=" ">
<polygon fill="#e0e0e0" stroke="#999999" points="1525,-74 1472,-74 1472,-55 1525,-55 1525,-74"/>
<text text-anchor="middle" x="1498.5" y="-62" font-family="Helvetica,sans-Serif" font-size="10.00">GL/glu.h</text>
</a>
</g>
</g>
<!-- Node7&#45;&gt;Node20 -->
<g id="edge23" class="edge">
<title>Node7&#45;&gt;Node20</title>
<path fill="none" stroke="#63b8ff" d="M654.88,-118.79C755.7,-119.59 1137.69,-119.39 1460.88,-73.92"/>
<polygon fill="#63b8ff" stroke="#63b8ff" points="1460.96,-77.44 1470.37,-72.56 1459.97,-70.51 1460.96,-77.44"/>
</g>
<!-- Node21 -->
<g id="node21" class="node">
<title>Node21</title>
<g id="a_node21"><a xlink:title=" ">
<polygon fill="#e0e0e0" stroke="#999999" points="1610,-74 1543,-74 1543,-55 1610,-55 1610,-74"/>
<text text-anchor="middle" x="1576.5" y="-62" font-family="Helvetica,sans-Serif" font-size="10.00">epoxy/glx.h</text>
</a>
</g>
</g>
<!-- Node7&#45;&gt;Node21 -->
<g id="edge24" class="edge">
<title>Node7&#45;&gt;Node21</title>
<path fill="none" stroke="#63b8ff" d="M654.81,-118.65C760.76,-118.97 1179.06,-117.37 1531.45,-74.19"/>
<polygon fill="#63b8ff" stroke="#63b8ff" points="1531.65,-77.7 1541.14,-72.99 1530.79,-70.75 1531.65,-77.7"/>
</g>
<!-- Node22 -->
<g id="node22" class="node">
<title>Node22</title>
<g id="a_node22"><a xlink:href="../../dc/db0/math__3d_8h.html" target="_top" xlink:title="Functions for OpenGL math.">
<polygon fill="white" stroke="#666666" points="660.5,-74 598.5,-74 598.5,-55 660.5,-55 660.5,-74"/>
<text text-anchor="middle" x="629.5" y="-62" font-family="Helvetica,sans-Serif" font-size="10.00">math_3d.h</text>
</a>
</g>
</g>
<!-- Node7&#45;&gt;Node22 -->
<g id="edge25" class="edge">
<title>Node7&#45;&gt;Node22</title>
<path fill="none" stroke="#63b8ff" d="M629.5,-109.75C629.5,-103.27 629.5,-94.16 629.5,-85.9"/>
<polygon fill="#63b8ff" stroke="#63b8ff" points="633,-85.96 629.5,-75.96 626,-85.96 633,-85.96"/>
</g>
<!-- Node23 -->
<g id="node23" class="node">
<title>Node23</title>
<g id="a_node23"><a xlink:href="../../da/d7e/glwin_8h.html" target="_top" xlink:title="Variable declarations related the OpenGL window &#160;&#160;Data structure declarations related the OpenGL wind...">
<polygon fill="white" stroke="#666666" points="254,-74 207,-74 207,-55 254,-55 254,-74"/>
<text text-anchor="middle" x="230.5" y="-62" font-family="Helvetica,sans-Serif" font-size="10.00">glwin.h</text>
</a>
</g>
</g>
<!-- Node7&#45;&gt;Node23 -->
<g id="edge28" class="edge">
<title>Node7&#45;&gt;Node23</title>
<path fill="none" stroke="#63b8ff" d="M604.03,-116.56C545.85,-111.89 398.59,-98.67 265.41,-74.1"/>
<polygon fill="#63b8ff" stroke="#63b8ff" points="266.17,-70.68 255.7,-72.28 264.88,-77.56 266.17,-70.68"/>
</g>
<!-- Node25 -->
<g id="node25" class="node">
<title>Node25</title>
<g id="a_node25"><a xlink:title=" ">
<polygon fill="#e0e0e0" stroke="#999999" points="332.5,-74 272.5,-74 272.5,-55 332.5,-55 332.5,-74"/>
<text text-anchor="middle" x="302.5" y="-62" font-family="Helvetica,sans-Serif" font-size="10.00">gtk/gtkx.h</text>
</a>
</g>
</g>
<!-- Node7&#45;&gt;Node25 -->
<g id="edge30" class="edge">
<title>Node7&#45;&gt;Node25</title>
<path fill="none" stroke="#63b8ff" d="M604.37,-115.15C555.99,-108.57 446.32,-93.14 343.86,-74.34"/>
<polygon fill="#63b8ff" stroke="#63b8ff" points="344.65,-70.93 334.18,-72.55 343.38,-77.81 344.65,-70.93"/>
</g>
<!-- Node22&#45;&gt;Node6 -->
<g id="edge26" class="edge">
<title>Node22&#45;&gt;Node6</title>
<path fill="none" stroke="#63b8ff" d="M651.38,-54.51C671.99,-46.04 703.09,-33.27 726.48,-23.66"/>
<polygon fill="#63b8ff" stroke="#63b8ff" points="727.62,-26.97 735.54,-19.93 724.96,-20.5 727.62,-26.97"/>
</g>
<!-- Node22&#45;&gt;Node12 -->
<g id="edge27" class="edge">
<title>Node22&#45;&gt;Node12</title>
<path fill="none" stroke="#63b8ff" d="M624.55,-54.75C620.66,-47.88 615.11,-38.08 610.22,-29.45"/>
<polygon fill="#63b8ff" stroke="#63b8ff" points="613.28,-27.74 605.31,-20.76 607.19,-31.19 613.28,-27.74"/>
</g>
<!-- Node24 -->
<g id="node24" class="node">
<title>Node24</title>
<g id="a_node24"><a xlink:href="../../d5/d9e/ogl__shading_8h.html" target="_top" xlink:title="Variable declarations related to GLSL programs &#160;&#160;Data structure declarations related to GLSL programs...">
<polygon fill="white" stroke="#666666" points="269,-19 192,-19 192,0 269,0 269,-19"/>
<text text-anchor="middle" x="230.5" y="-7" font-family="Helvetica,sans-Serif" font-size="10.00">ogl_shading.h</text>
</a>
</g>
</g>
<!-- Node23&#45;&gt;Node24 -->
<g id="edge29" class="edge">
<title>Node23&#45;&gt;Node24</title>
<path fill="none" stroke="#63b8ff" d="M230.5,-54.75C230.5,-48.27 230.5,-39.16 230.5,-30.9"/>
<polygon fill="#63b8ff" stroke="#63b8ff" points="234,-30.96 230.5,-20.96 227,-30.96 234,-30.96"/>
</g>
<!-- Node29&#45;&gt;Node7 -->
<g id="edge35" class="edge">
<title>Node29&#45;&gt;Node7</title>
<path fill="none" stroke="#63b8ff" d="M511.59,-164.51C534.57,-155.93 569.44,-142.92 595.3,-133.27"/>
<polygon fill="#63b8ff" stroke="#63b8ff" points="596.2,-136.66 604.35,-129.89 593.76,-130.1 596.2,-136.66"/>
</g>
</g>
</svg>
        <g id="navigator" transform="translate(0 0)" fill="#404254">
                <rect fill="#f2f5e9" fill-opacity="0.5" stroke="#606060" stroke-width=".5" x="0" y="0" width="60" height="60"/>
                <use id="zoomplus" xlink:href="#zoomPlus" x="17" y="9" onmousedown="handleZoom(evt,'in')"/>
                <use id="zoomminus" xlink:href="#zoomMin" x="42" y="9" onmousedown="handleZoom(evt,'out')"/>
                <use id="reset" xlink:href="#resetDef" x="30" y="36" onmousedown="handleReset()"/>
                <g id="arrowUp" xlink:href="#dirArrow" transform="translate(30 24)" onmousedown="handlePan(0,-1)">
                  <use xlink:href="#rim" fill="#404040">
                        <set attributeName="fill" to="#808080" begin="arrowUp.mouseover" end="arrowUp.mouseout"/>
                  </use>
                  <path fill="none" stroke="white" stroke-width="1.5" d="M0,-3.0v7 M-2.5,-0.5L0,-3.0L2.5,-0.5"/>
                </g>
                <g id="arrowRight" xlink:href="#dirArrow" transform="rotate(90) translate(36 -43)" onmousedown="handlePan(1,0)">
                  <use xlink:href="#rim" fill="#404040">
                        <set attributeName="fill" to="#808080" begin="arrowRight.mouseover" end="arrowRight.mouseout"/>
                  </use>
                  <path fill="none" stroke="white" stroke-width="1.5" d="M0,-3.0v7 M-2.5,-0.5L0,-3.0L2.5,-0.5"/>
                </g>
                <g id="arrowDown" xlink:href="#dirArrow" transform="rotate(180) translate(-30 -48)" onmousedown="handlePan(0,1)">
                  <use xlink:href="#rim" fill="#404040">
                        <set attributeName="fill" to="#808080" begin="arrowDown.mouseover" end="arrowDown.mouseout"/>
                  </use>
                  <path fill="none" stroke="white" stroke-width="1.5" d="M0,-3.0v7 M-2.5,-0.5L0,-3.0L2.5,-0.5"/>
                </g>
                <g id="arrowLeft" xlink:href="#dirArrow" transform="rotate(270) translate(-36 17)" onmousedown="handlePan(-1,0)">
                  <use xlink:href="#rim" fill="#404040">
                        <set attributeName="fill" to="#808080" begin="arrowLeft.mouseover" end="arrowLeft.mouseout"/>
                  </use>
                  <path fill="none" stroke="white" stroke-width="1.5" d="M0,-3.0v7 M-2.5,-0.5L0,-3.0L2.5,-0.5"/>
                </g>
        </g>
        <svg viewBox="0 0 15 15" width="100%" height="30px" preserveAspectRatio="xMaxYMin meet">
         <g id="arrow_out" transform="scale(0.3 0.3)">
          <a xlink:href="datab_8c__incl_org.svg" target="_base">
           <rect id="button" ry="5" rx="5" y="6" x="6" height="38" width="38"
                fill="#f2f5e9" fill-opacity="0.5" stroke="#606060" stroke-width="1.0"/>
           <path id="arrow"
             d="M 11.500037,31.436501 C 11.940474,20.09759 22.043105,11.32322 32.158766,21.979434 L 37.068811,17.246167 C 37.068811,17.246167 37.088388,32 37.088388,32 L 22.160133,31.978069 C 22.160133,31.978069 26.997745,27.140456 26.997745,27.140456 C 18.528582,18.264221 13.291696,25.230495 11.500037,31.436501 z"
             style="fill:#404040;"/>
          </a>
         </g>
        </svg>
</svg>
