<?xml version="1.0" encoding="UTF-8" standalone="no"?>
<!DOCTYPE svg PUBLIC "-//W3C//DTD SVG 1.1//EN"
 "http://www.w3.org/Graphics/SVG/1.1/DTD/svg11.dtd">
<!-- Generated by graphviz version 14.1.4 (20260321.0153)
 -->
<!-- Title: curve/datab.c Pages: 1 -->
<!--zoomable 252 -->

<svg id="main" version="1.1" xmlns="http://www.w3.org/2000/svg" xmlns:xlink="http://www.w3.org/1999/xlink" xml:space="preserve" onload="init(evt)">

<style type="text/css"><![CDATA[
.node, .edge {opacity: 0.7;}
.node.selected, .edge.selected {opacity: 1;}
.edge:hover path { stroke: red; }
.edge:hover polygon { stroke: red; fill: red; }
]]></style>

<defs>
  <circle id="rim" cx="0" cy="0" r="7"/>
  <circle id="rim2" cx="0" cy="0" r="3.5"/>
  <g id="zoomPlus">
    <use xlink:href="#rim" fill="#404040"><set attributeName="fill" to="#808080" begin="zoomplus.mouseover" end="zoomplus.mouseout"/></use>
    <path d="M-4,0h8M0,-4v8" fill="none" stroke="white" stroke-width="1.5" pointer-events="none"/>
  </g>
  <g id="zoomMin">
    <use xlink:href="#rim" fill="#404040"><set attributeName="fill" to="#808080" begin="zoomminus.mouseover" end="zoomminus.mouseout"/></use>
    <path d="M-4,0h8" fill="none" stroke="white" stroke-width="1.5" pointer-events="none"/>
  </g>
  <g id="arrowUp" transform="translate(30 24)">
    <use xlink:href="#rim"/>
    <path pointer-events="none" fill="none" stroke="white" stroke-width="1.5" d="M0,-3.0v7 M-2.5,-0.5L0,-3.0L2.5,-0.5"/>
  </g>
  <g id="arrowRight" transform="rotate(90) translate(36 -43)">
    <use xlink:href="#rim"/>
    <path pointer-events="none" fill="none" stroke="white" stroke-width="1.5" d="M0,-3.0v7 M-2.5,-0.5L0,-3.0L2.5,-0.5"/>
  </g>
  <g id="arrowDown" transform="rotate(180) translate(-30 -48)">
    <use xlink:href="#rim"/>
    <path pointer-events="none" fill="none" stroke="white" stroke-width="1.5" d="M0,-3.0v7 M-2.5,-0.5L0,-3.0L2.5,-0.5"/>
  </g>
  <g id="arrowLeft" transform="rotate(270) translate(-36 17)">
    <use xlink:href="#rim"/>
    <path pointer-events="none" fill="none" stroke="white" stroke-width="1.5" d="M0,-3.0v7 M-2.5,-0.5L0,-3.0L2.5,-0.5"/>
  </g>
  <g id="resetDef">
    <use xlink:href="#rim2" fill="#404040"><set attributeName="fill" to="#808080" begin="reset.mouseover" end="reset.mouseout"/></use>
  </g>
</defs>
<script type="application/ecmascript">
var viewWidth = 1819;
var viewHeight = 252;
var sectionId = 'dynsection-0';
</script>
<script type="application/ecmascript" xlink:href="../../svg.min.js"/>
<svg id="graph" class="graph">
<g id="viewport">
<title>curve/datab.c</title>
<!-- Node1 -->
<g id="Node000001" class="node">
<title>Node1</title>
<g id="a_Node000001"><a xlink:title="Curve data edition window and associated callbacks.">
<polygon fill="#999999" stroke="#666666" points="768.75,-244 693.5,-244 693.5,-224 768.75,-224 768.75,-244"/>
<text xml:space="preserve" text-anchor="middle" x="731.12" y="-230.5" font-family="Helvetica,sans-Serif" font-size="10.00">curve/datab.c</text>
</a>
</g>
</g>
<!-- Node2 -->
<g id="Node000002" class="node">
<title>Node2</title>
<g id="a_Node000002"><a xlink:title=" ">
<polygon fill="#e0e0e0" stroke="#999999" points="54.25,-76 0,-76 0,-56 54.25,-56 54.25,-76"/>
<text xml:space="preserve" text-anchor="middle" x="27.12" y="-62.5" font-family="Helvetica,sans-Serif" font-size="10.00">gtk/gtk.h</text>
</a>
</g>
</g>
<!-- Node1&#45;&gt;Node2 -->
<g id="edge1_Node000001_Node000002" class="edge">
<title>Node1&#45;&gt;Node2</title>
<g id="a_edge1_Node000001_Node000002"><a xlink:title=" ">
<path fill="none" stroke="#63b8ff" d="M693.31,-224.59C653.26,-215.65 588.19,-201.03 532.12,-188 326.95,-140.31 273.13,-127.32 65.6,-76.59"/>
<polygon fill="#63b8ff" stroke="#63b8ff" points="66.65,-73.24 56.11,-74.27 64.99,-80.04 66.65,-73.24"/>
</a>
</g>
</g>
<!-- Node3 -->
<g id="Node000003" class="node">
<title>Node3</title>
<g id="a_Node000003"><a xlink:title=" ">
<polygon fill="#e0e0e0" stroke="#999999" points="586.75,-188 541.5,-188 541.5,-168 586.75,-168 586.75,-188"/>
<text xml:space="preserve" text-anchor="middle" x="564.12" y="-174.5" font-family="Helvetica,sans-Serif" font-size="10.00">cairo.h</text>
</a>
</g>
</g>
<!-- Node1&#45;&gt;Node3 -->
<g id="edge2_Node000001_Node000003" class="edge">
<title>Node1&#45;&gt;Node3</title>
<g id="a_edge2_Node000001_Node000003"><a xlink:title=" ">
<path fill="none" stroke="#63b8ff" d="M702.04,-223.59C672.99,-214.2 628.38,-199.78 597.81,-189.89"/>
<polygon fill="#63b8ff" stroke="#63b8ff" points="599.27,-186.69 588.68,-186.94 597.12,-193.35 599.27,-186.69"/>
</a>
</g>
</g>
<!-- Node4 -->
<g id="Node000004" class="node">
<title>Node4</title>
<g id="a_Node000004"><a xlink:title=" ">
<polygon fill="#e0e0e0" stroke="#999999" points="120.25,-76 72,-76 72,-56 120.25,-56 120.25,-76"/>
<text xml:space="preserve" text-anchor="middle" x="96.12" y="-62.5" font-family="Helvetica,sans-Serif" font-size="10.00">string.h</text>
</a>
</g>
</g>
<!-- Node1&#45;&gt;Node4 -->
<g id="edge3_Node000001_Node000004" class="edge">
<title>Node1&#45;&gt;Node4</title>
<g id="a_edge3_Node000001_Node000004"><a xlink:title=" ">
<path fill="none" stroke="#63b8ff" d="M715.06,-223.6C690.33,-209.5 641.04,-182.97 596.12,-168 398.95,-102.31 337.25,-123.52 131.75,-76.47"/>
<polygon fill="#63b8ff" stroke="#63b8ff" points="132.59,-73.07 122.06,-74.22 131.01,-79.89 132.59,-73.07"/>
</a>
</g>
</g>
<!-- Node5 -->
<g id="Node000005" class="node">
<title>Node5</title>
<g id="a_Node000005"><a xlink:title=" ">
<polygon fill="#e0e0e0" stroke="#999999" points="185.88,-76 138.38,-76 138.38,-56 185.88,-56 185.88,-76"/>
<text xml:space="preserve" text-anchor="middle" x="162.12" y="-62.5" font-family="Helvetica,sans-Serif" font-size="10.00">stdlib.h</text>
</a>
</g>
</g>
<!-- Node1&#45;&gt;Node5 -->
<g id="edge4_Node000001_Node000005" class="edge">
<title>Node1&#45;&gt;Node5</title>
<g id="a_edge4_Node000001_Node000005"><a xlink:title=" ">
<path fill="none" stroke="#63b8ff" d="M715.43,-223.57C702.66,-215.34 684.74,-202.47 672.12,-188 646.62,-158.75 661.81,-132.92 629.12,-112 550.4,-61.61 307.81,-90.65 197.37,-75.84"/>
<polygon fill="#63b8ff" stroke="#63b8ff" points="198.07,-72.41 187.66,-74.34 197,-79.33 198.07,-72.41"/>
</a>
</g>
</g>
<!-- Node6 -->
<g id="Node000006" class="node">
<title>Node6</title>
<g id="a_Node000006"><a xlink:title=" ">
<polygon fill="#e0e0e0" stroke="#999999" points="1504.12,-20 1458.12,-20 1458.12,0 1504.12,0 1504.12,-20"/>
<text xml:space="preserve" text-anchor="middle" x="1481.12" y="-6.5" font-family="Helvetica,sans-Serif" font-size="10.00">math.h</text>
</a>
</g>
</g>
<!-- Node1&#45;&gt;Node6 -->
<g id="edge5_Node000001_Node000006" class="edge">
<title>Node1&#45;&gt;Node6</title>
<g id="a_edge5_Node000001_Node000006"><a xlink:title=" ">
<path fill="none" stroke="#63b8ff" d="M769.05,-230.36C951.78,-217.24 1735.5,-156.55 1805.12,-76 1810.94,-69.28 1810.96,-62.7 1805.12,-56 1767.87,-13.21 1591.39,-9.8 1515.72,-10.37"/>
<polygon fill="#63b8ff" stroke="#63b8ff" points="1515.95,-6.87 1505.99,-10.47 1516.02,-13.86 1515.95,-6.87"/>
</a>
</g>
</g>
<!-- Node7 -->
<g id="Node000007" class="node">
<title>Node7</title>
<g id="a_Node000007"><a xlink:href="../../d2/d49/global_8h.html" target="_top" xlink:title="Global variable declarations &#160;&#160;Global convenience function declarations &#160;&#160;Global data structure defin...">
<polygon fill="white" stroke="#666666" points="936,-132 886.25,-132 886.25,-112 936,-112 936,-132"/>
<text xml:space="preserve" text-anchor="middle" x="911.12" y="-118.5" font-family="Helvetica,sans-Serif" font-size="10.00">global.h</text>
</a>
</g>
</g>
<!-- Node1&#45;&gt;Node7 -->
<g id="edge6_Node000001_Node000007" class="edge">
<title>Node1&#45;&gt;Node7</title>
<g id="a_edge6_Node000001_Node000007"><a xlink:title=" ">
<path fill="none" stroke="#63b8ff" d="M735.22,-223.6C741.83,-209.52 756.14,-182.99 776.12,-168 805.31,-146.11 845.74,-134.5 874.73,-128.6"/>
<polygon fill="#63b8ff" stroke="#63b8ff" points="875.34,-132.04 884.52,-126.75 874.04,-125.17 875.34,-132.04"/>
</a>
</g>
</g>
<!-- Node29 -->
<g id="Node000029" class="node">
<title>Node29</title>
<g id="a_Node000029"><a xlink:href="../../d4/da9/interface_8h.html" target="_top" xlink:title="Messaging function declarations.">
<polygon fill="white" stroke="#666666" points="847,-188 785.25,-188 785.25,-168 847,-168 847,-188"/>
<text xml:space="preserve" text-anchor="middle" x="816.12" y="-174.5" font-family="Helvetica,sans-Serif" font-size="10.00">interface.h</text>
</a>
</g>
</g>
<!-- Node1&#45;&gt;Node29 -->
<g id="edge34_Node000001_Node000029" class="edge">
<title>Node1&#45;&gt;Node29</title>
<g id="a_edge34_Node000001_Node000029"><a xlink:title=" ">
<path fill="none" stroke="#63b8ff" d="M745.93,-223.59C758.53,-215.59 776.88,-203.93 791.66,-194.54"/>
<polygon fill="#63b8ff" stroke="#63b8ff" points="793.36,-197.61 799.93,-189.29 789.61,-191.7 793.36,-197.61"/>
</a>
</g>
</g>
<!-- Node30 -->
<g id="Node000030" class="node">
<title>Node30</title>
<g id="a_Node000030"><a xlink:href="../../dd/d49/callbacks_8h.html" target="_top" xlink:title="Callback declarations for main window.">
<polygon fill="white" stroke="#666666" points="930.88,-188 865.38,-188 865.38,-168 930.88,-168 930.88,-188"/>
<text xml:space="preserve" text-anchor="middle" x="898.12" y="-174.5" font-family="Helvetica,sans-Serif" font-size="10.00">callbacks.h</text>
</a>
</g>
</g>
<!-- Node1&#45;&gt;Node30 -->
<g id="edge35_Node000001_Node000030" class="edge">
<title>Node1&#45;&gt;Node30</title>
<g id="a_edge35_Node000001_Node000030"><a xlink:title=" ">
<path fill="none" stroke="#63b8ff" d="M760.21,-223.59C787.35,-214.82 828.06,-201.66 858.22,-191.9"/>
<polygon fill="#63b8ff" stroke="#63b8ff" points="858.93,-195.35 867.37,-188.95 856.78,-188.69 858.93,-195.35"/>
</a>
</g>
</g>
<!-- Node31 -->
<g id="Node000031" class="node">
<title>Node31</title>
<g id="a_Node000031"><a xlink:href="../../dc/d8d/project_8h.html" target="_top" xlink:title="Function declarations for reading atomes project file &#160;&#160;Function declarations for saving atomes proje...">
<polygon fill="white" stroke="#666666" points="1002.88,-188 949.38,-188 949.38,-168 1002.88,-168 1002.88,-188"/>
<text xml:space="preserve" text-anchor="middle" x="976.12" y="-174.5" font-family="Helvetica,sans-Serif" font-size="10.00">project.h</text>
</a>
</g>
</g>
<!-- Node1&#45;&gt;Node31 -->
<g id="edge36_Node000001_Node000031" class="edge">
<title>Node1&#45;&gt;Node31</title>
<g id="a_edge36_Node000001_Node000031"><a xlink:title=" ">
<path fill="none" stroke="#63b8ff" d="M768.96,-225.24C808.68,-217.02 873.21,-203.41 938.17,-188.4"/>
<polygon fill="#63b8ff" stroke="#63b8ff" points="938.6,-191.89 947.55,-186.22 937.01,-185.07 938.6,-191.89"/>
</a>
</g>
</g>
<!-- Node32 -->
<g id="Node000032" class="node">
<title>Node32</title>
<g id="a_Node000032"><a xlink:href="../../df/de9/curve_8h.html" target="_top" xlink:title="Variable declarations for the curve widget &#160;&#160;Functions for interactions with the curve widget.">
<polygon fill="white" stroke="#666666" points="729.25,-188 681,-188 681,-168 729.25,-168 729.25,-188"/>
<text xml:space="preserve" text-anchor="middle" x="705.12" y="-174.5" font-family="Helvetica,sans-Serif" font-size="10.00">curve.h</text>
</a>
</g>
</g>
<!-- Node1&#45;&gt;Node32 -->
<g id="edge37_Node000001_Node000032" class="edge">
<title>Node1&#45;&gt;Node32</title>
<g id="a_edge37_Node000001_Node000032"><a xlink:title=" ">
<path fill="none" stroke="#63b8ff" d="M726.6,-223.59C723.28,-216.7 718.66,-207.1 714.55,-198.57"/>
<polygon fill="#63b8ff" stroke="#63b8ff" points="717.75,-197.15 710.26,-189.66 711.44,-200.19 717.75,-197.15"/>
</a>
</g>
</g>
<!-- Node7&#45;&gt;Node2 -->
<g id="edge19_Node000007_Node000002" class="edge">
<title>Node7&#45;&gt;Node2</title>
<g id="a_edge19_Node000007_Node000002"><a xlink:title=" ">
<path fill="none" stroke="#63b8ff" d="M885.97,-121.42C784.36,-122.75 394.23,-124.33 65.7,-76.09"/>
<polygon fill="#63b8ff" stroke="#63b8ff" points="66.44,-72.66 56.03,-74.65 65.41,-79.59 66.44,-72.66"/>
</a>
</g>
</g>
<!-- Node7&#45;&gt;Node4 -->
<g id="edge13_Node000007_Node000004" class="edge">
<title>Node7&#45;&gt;Node4</title>
<g id="a_edge13_Node000007_Node000004"><a xlink:title=" ">
<path fill="none" stroke="#63b8ff" d="M885.75,-120.25C771.31,-116.78 301.71,-101.34 131.74,-76.02"/>
<polygon fill="#63b8ff" stroke="#63b8ff" points="132.42,-72.59 122,-74.49 131.34,-79.5 132.42,-72.59"/>
</a>
</g>
</g>
<!-- Node7&#45;&gt;Node5 -->
<g id="edge15_Node000007_Node000005" class="edge">
<title>Node7&#45;&gt;Node5</title>
<g id="a_edge15_Node000007_Node000005"><a xlink:title=" ">
<path fill="none" stroke="#63b8ff" d="M886.07,-120.11C778.42,-116.19 353.88,-99.63 197.39,-75.95"/>
<polygon fill="#63b8ff" stroke="#63b8ff" points="198.07,-72.52 187.64,-74.4 196.97,-79.43 198.07,-72.52"/>
</a>
</g>
</g>
<!-- Node7&#45;&gt;Node6 -->
<g id="edge18_Node000007_Node000006" class="edge">
<title>Node7&#45;&gt;Node6</title>
<g id="a_edge18_Node000007_Node000006"><a xlink:title=" ">
<path fill="none" stroke="#63b8ff" d="M936.2,-120.6C1038.53,-118.74 1420.93,-109.58 1462.12,-76 1475.22,-65.32 1479.6,-46.14 1480.93,-31.37"/>
<polygon fill="#63b8ff" stroke="#63b8ff" points="1484.4,-31.95 1481.37,-21.8 1477.41,-31.63 1484.4,-31.95"/>
</a>
</g>
</g>
<!-- Node8 -->
<g id="Node000008" class="node">
<title>Node8</title>
<g id="a_Node000008"><a xlink:title=" ">
<polygon fill="#e0e0e0" stroke="#999999" points="1024.5,-76 977.75,-76 977.75,-56 1024.5,-56 1024.5,-76"/>
<text xml:space="preserve" text-anchor="middle" x="1001.12" y="-62.5" font-family="Helvetica,sans-Serif" font-size="10.00">libintl.h</text>
</a>
</g>
</g>
<!-- Node7&#45;&gt;Node8 -->
<g id="edge7_Node000007_Node000008" class="edge">
<title>Node7&#45;&gt;Node8</title>
<g id="a_edge7_Node000007_Node000008"><a xlink:title=" ">
<path fill="none" stroke="#63b8ff" d="M926.8,-111.59C940.27,-103.51 959.94,-91.71 975.67,-82.27"/>
<polygon fill="#63b8ff" stroke="#63b8ff" points="977.25,-85.4 984.03,-77.26 973.65,-79.4 977.25,-85.4"/>
</a>
</g>
</g>
<!-- Node9 -->
<g id="Node000009" class="node">
<title>Node9</title>
<g id="a_Node000009"><a xlink:title=" ">
<polygon fill="#e0e0e0" stroke="#999999" points="1092,-76 1042.25,-76 1042.25,-56 1092,-56 1092,-76"/>
<text xml:space="preserve" text-anchor="middle" x="1067.12" y="-62.5" font-family="Helvetica,sans-Serif" font-size="10.00">locale.h</text>
</a>
</g>
</g>
<!-- Node7&#45;&gt;Node9 -->
<g id="edge8_Node000007_Node000009" class="edge">
<title>Node7&#45;&gt;Node9</title>
<g id="a_edge8_Node000007_Node000009"><a xlink:title=" ">
<path fill="none" stroke="#63b8ff" d="M936.19,-112.32C961.93,-103.41 1002.22,-89.47 1031.32,-79.4"/>
<polygon fill="#63b8ff" stroke="#63b8ff" points="1032.13,-82.82 1040.43,-76.24 1029.84,-76.2 1032.13,-82.82"/>
</a>
</g>
</g>
<!-- Node10 -->
<g id="Node000010" class="node">
<title>Node10</title>
<g id="a_Node000010"><a xlink:title=" ">
<polygon fill="#e0e0e0" stroke="#999999" points="1149.75,-76 1110.5,-76 1110.5,-56 1149.75,-56 1149.75,-76"/>
<text xml:space="preserve" text-anchor="middle" x="1130.12" y="-62.5" font-family="Helvetica,sans-Serif" font-size="10.00">glib.h</text>
</a>
</g>
</g>
<!-- Node7&#45;&gt;Node10 -->
<g id="edge9_Node000007_Node000010" class="edge">
<title>Node7&#45;&gt;Node10</title>
<g id="a_edge9_Node000007_Node000010"><a xlink:title=" ">
<path fill="none" stroke="#63b8ff" d="M936.47,-115.58C971.02,-108.06 1035.08,-93.68 1099.1,-76.4"/>
<polygon fill="#63b8ff" stroke="#63b8ff" points="1100.02,-79.78 1108.75,-73.78 1098.18,-73.03 1100.02,-79.78"/>
</a>
</g>
</g>
<!-- Node11 -->
<g id="Node000011" class="node">
<title>Node11</title>
<g id="a_Node000011"><a xlink:title=" ">
<polygon fill="#e0e0e0" stroke="#999999" points="1313.88,-76 1248.38,-76 1248.38,-56 1313.88,-56 1313.88,-76"/>
<text xml:space="preserve" text-anchor="middle" x="1281.12" y="-62.5" font-family="Helvetica,sans-Serif" font-size="10.00">glib/gi18n.h</text>
</a>
</g>
</g>
<!-- Node7&#45;&gt;Node11 -->
<g id="edge10_Node000007_Node000011" class="edge">
<title>Node7&#45;&gt;Node11</title>
<g id="a_edge10_Node000007_Node000011"><a xlink:title=" ">
<path fill="none" stroke="#63b8ff" d="M936.33,-118.19C989.77,-112.1 1118.63,-96.69 1237.09,-76.24"/>
<polygon fill="#63b8ff" stroke="#63b8ff" points="1237.41,-79.74 1246.66,-74.57 1236.21,-72.84 1237.41,-79.74"/>
</a>
</g>
</g>
<!-- Node12 -->
<g id="Node000012" class="node">
<title>Node12</title>
<g id="a_Node000012"><a xlink:title=" ">
<polygon fill="#e0e0e0" stroke="#999999" points="1384.5,-76 1331.75,-76 1331.75,-56 1384.5,-56 1384.5,-76"/>
<text xml:space="preserve" text-anchor="middle" x="1358.12" y="-62.5" font-family="Helvetica,sans-Serif" font-size="10.00">gio/gio.h</text>
</a>
</g>
</g>
<!-- Node7&#45;&gt;Node12 -->
<g id="edge11_Node000007_Node000012" class="edge">
<title>Node7&#45;&gt;Node12</title>
<g id="a_edge11_Node000007_Node000012"><a xlink:title=" ">
<path fill="none" stroke="#63b8ff" d="M936.39,-119.5C999.53,-115.49 1169.44,-103.07 1320.18,-76.31"/>
<polygon fill="#63b8ff" stroke="#63b8ff" points="1320.75,-79.77 1329.97,-74.54 1319.51,-72.88 1320.75,-79.77"/>
</a>
</g>
</g>
<!-- Node13 -->
<g id="Node000013" class="node">
<title>Node13</title>
<g id="a_Node000013"><a xlink:title=" ">
<polygon fill="#e0e0e0" stroke="#999999" points="1453.38,-76 1402.88,-76 1402.88,-56 1453.38,-56 1453.38,-76"/>
<text xml:space="preserve" text-anchor="middle" x="1428.12" y="-62.5" font-family="Helvetica,sans-Serif" font-size="10.00">unistd.h</text>
</a>
</g>
</g>
<!-- Node7&#45;&gt;Node13 -->
<g id="edge12_Node000007_Node000013" class="edge">
<title>Node7&#45;&gt;Node13</title>
<g id="a_edge12_Node000007_Node000013"><a xlink:title=" ">
<path fill="none" stroke="#63b8ff" d="M936.4,-120.05C1006.85,-117.12 1211.45,-106.58 1391.35,-76.01"/>
<polygon fill="#63b8ff" stroke="#63b8ff" points="1391.86,-79.47 1401.12,-74.32 1390.67,-72.57 1391.86,-79.47"/>
</a>
</g>
</g>
<!-- Node14 -->
<g id="Node000014" class="node">
<title>Node14</title>
<g id="a_Node000014"><a xlink:title=" ">
<polygon fill="#e0e0e0" stroke="#999999" points="1065.75,-20 1020.5,-20 1020.5,0 1065.75,0 1065.75,-20"/>
<text xml:space="preserve" text-anchor="middle" x="1043.12" y="-6.5" font-family="Helvetica,sans-Serif" font-size="10.00">stdio.h</text>
</a>
</g>
</g>
<!-- Node7&#45;&gt;Node14 -->
<g id="edge14_Node000007_Node000014" class="edge">
<title>Node7&#45;&gt;Node14</title>
<g id="a_edge14_Node000007_Node000014"><a xlink:title=" ">
<path fill="none" stroke="#63b8ff" d="M906.68,-111.58C900.98,-97.94 893.14,-72.51 905.12,-56 928.66,-23.58 976.18,-14.07 1008.82,-11.52"/>
<polygon fill="#63b8ff" stroke="#63b8ff" points="1008.81,-15.03 1018.59,-10.95 1008.41,-8.04 1008.81,-15.03"/>
</a>
</g>
</g>
<!-- Node15 -->
<g id="Node000015" class="node">
<title>Node15</title>
<g id="a_Node000015"><a xlink:title=" ">
<polygon fill="#e0e0e0" stroke="#999999" points="1576.62,-76 1509.62,-76 1509.62,-56 1576.62,-56 1576.62,-76"/>
<text xml:space="preserve" text-anchor="middle" x="1543.12" y="-62.5" font-family="Helvetica,sans-Serif" font-size="10.00">sys/types.h</text>
</a>
</g>
</g>
<!-- Node7&#45;&gt;Node15 -->
<g id="edge16_Node000007_Node000015" class="edge">
<title>Node7&#45;&gt;Node15</title>
<g id="a_edge16_Node000007_Node000015"><a xlink:title=" ">
<path fill="none" stroke="#63b8ff" d="M936.27,-120.04C1017.47,-116.72 1279.88,-104.39 1495.12,-76 1496.14,-75.87 1497.16,-75.73 1498.19,-75.58"/>
<polygon fill="#63b8ff" stroke="#63b8ff" points="1498.55,-79.07 1507.88,-74.04 1497.45,-72.15 1498.55,-79.07"/>
</a>
</g>
</g>
<!-- Node16 -->
<g id="Node000016" class="node">
<title>Node16</title>
<g id="a_Node000016"><a xlink:title=" ">
<polygon fill="#e0e0e0" stroke="#999999" points="1653.88,-76 1594.38,-76 1594.38,-56 1653.88,-56 1653.88,-76"/>
<text xml:space="preserve" text-anchor="middle" x="1624.12" y="-62.5" font-family="Helvetica,sans-Serif" font-size="10.00">sys/stat.h</text>
</a>
</g>
</g>
<!-- Node7&#45;&gt;Node16 -->
<g id="edge17_Node000007_Node000016" class="edge">
<title>Node7&#45;&gt;Node16</title>
<g id="a_edge17_Node000007_Node000016"><a xlink:title=" ">
<path fill="none" stroke="#63b8ff" d="M936.42,-120.82C1024.5,-119.89 1325.98,-114.06 1582.89,-76.28"/>
<polygon fill="#63b8ff" stroke="#63b8ff" points="1583.06,-79.79 1592.43,-74.85 1582.03,-72.87 1583.06,-79.79"/>
</a>
</g>
</g>
<!-- Node17 -->
<g id="Node000017" class="node">
<title>Node17</title>
<g id="a_Node000017"><a xlink:title=" ">
<polygon fill="#e0e0e0" stroke="#999999" points="1731.88,-76 1672.38,-76 1672.38,-56 1731.88,-56 1731.88,-76"/>
<text xml:space="preserve" text-anchor="middle" x="1702.12" y="-62.5" font-family="Helvetica,sans-Serif" font-size="10.00">gtk/gtkx.h</text>
</a>
</g>
</g>
<!-- Node7&#45;&gt;Node17 -->
<g id="edge20_Node000007_Node000017" class="edge">
<title>Node7&#45;&gt;Node17</title>
<g id="a_edge20_Node000007_Node000017"><a xlink:title=" ">
<path fill="none" stroke="#63b8ff" d="M936.27,-121.01C1030.43,-120.75 1371.15,-116.95 1660.84,-76.07"/>
<polygon fill="#63b8ff" stroke="#63b8ff" points="1661.08,-79.57 1670.49,-74.69 1660.09,-72.65 1661.08,-79.57"/>
</a>
</g>
</g>
<!-- Node18 -->
<g id="Node000018" class="node">
<title>Node18</title>
<g id="a_Node000018"><a xlink:title=" ">
<polygon fill="#e0e0e0" stroke="#999999" points="262.5,-76 203.75,-76 203.75,-56 262.5,-56 262.5,-76"/>
<text xml:space="preserve" text-anchor="middle" x="233.12" y="-62.5" font-family="Helvetica,sans-Serif" font-size="10.00">gdk/gdk.h</text>
</a>
</g>
</g>
<!-- Node7&#45;&gt;Node18 -->
<g id="edge21_Node000007_Node000018" class="edge">
<title>Node7&#45;&gt;Node18</title>
<g id="a_edge21_Node000007_Node000018"><a xlink:title=" ">
<path fill="none" stroke="#63b8ff" d="M886.07,-119.76C786.14,-114.74 415.02,-95.33 274.17,-75.99"/>
<polygon fill="#63b8ff" stroke="#63b8ff" points="274.74,-72.54 264.34,-74.58 273.74,-79.47 274.74,-72.54"/>
</a>
</g>
</g>
<!-- Node19 -->
<g id="Node000019" class="node">
<title>Node19</title>
<g id="a_Node000019"><a xlink:title=" ">
<polygon fill="#e0e0e0" stroke="#999999" points="379.38,-76 280.88,-76 280.88,-56 379.38,-56 379.38,-76"/>
<text xml:space="preserve" text-anchor="middle" x="330.12" y="-62.5" font-family="Helvetica,sans-Serif" font-size="10.00">gdk/gdkkeysyms.h</text>
</a>
</g>
</g>
<!-- Node7&#45;&gt;Node19 -->
<g id="edge22_Node000007_Node000019" class="edge">
<title>Node7&#45;&gt;Node19</title>
<g id="a_edge22_Node000007_Node000019"><a xlink:title=" ">
<path fill="none" stroke="#63b8ff" d="M885.75,-119.43C811.43,-114.71 587.56,-99.56 391.17,-76.3"/>
<polygon fill="#63b8ff" stroke="#63b8ff" points="391.62,-72.82 381.27,-75.11 390.78,-79.77 391.62,-72.82"/>
</a>
</g>
</g>
<!-- Node20 -->
<g id="Node000020" class="node">
<title>Node20</title>
<g id="a_Node000020"><a xlink:title=" ">
<polygon fill="#e0e0e0" stroke="#999999" points="514.75,-76 397.5,-76 397.5,-56 514.75,-56 514.75,-76"/>
<text xml:space="preserve" text-anchor="middle" x="456.12" y="-62.5" font-family="Helvetica,sans-Serif" font-size="10.00">gdk&#45;pixbuf/gdk&#45;pixbuf.h</text>
</a>
</g>
</g>
<!-- Node7&#45;&gt;Node20 -->
<g id="edge23_Node000007_Node000020" class="edge">
<title>Node7&#45;&gt;Node20</title>
<g id="a_edge23_Node000007_Node000020"><a xlink:title=" ">
<path fill="none" stroke="#63b8ff" d="M886.14,-118.26C826.03,-111.64 668.34,-94.06 526.03,-76.35"/>
<polygon fill="#63b8ff" stroke="#63b8ff" points="526.8,-72.92 516.45,-75.15 525.93,-79.86 526.8,-72.92"/>
</a>
</g>
</g>
<!-- Node21 -->
<g id="Node000021" class="node">
<title>Node21</title>
<g id="a_Node000021"><a xlink:title=" ">
<polygon fill="#e0e0e0" stroke="#999999" points="623.62,-76 532.62,-76 532.62,-56 623.62,-56 623.62,-76"/>
<text xml:space="preserve" text-anchor="middle" x="578.12" y="-62.5" font-family="Helvetica,sans-Serif" font-size="10.00">pango/pangoft2.h</text>
</a>
</g>
</g>
<!-- Node7&#45;&gt;Node21 -->
<g id="edge24_Node000007_Node000021" class="edge">
<title>Node7&#45;&gt;Node21</title>
<g id="a_edge24_Node000007_Node000021"><a xlink:title=" ">
<path fill="none" stroke="#63b8ff" d="M885.82,-116.92C838.74,-109.32 734.18,-92.44 635.15,-76.33"/>
<polygon fill="#63b8ff" stroke="#63b8ff" points="635.97,-72.91 625.53,-74.76 634.84,-79.82 635.97,-72.91"/>
</a>
</g>
</g>
<!-- Node22 -->
<g id="Node000022" class="node">
<title>Node22</title>
<g id="a_Node000022"><a xlink:title=" ">
<polygon fill="#e0e0e0" stroke="#999999" points="702.62,-76 641.62,-76 641.62,-56 702.62,-56 702.62,-76"/>
<text xml:space="preserve" text-anchor="middle" x="672.12" y="-62.5" font-family="Helvetica,sans-Serif" font-size="10.00">epoxy/gl.h</text>
</a>
</g>
</g>
<!-- Node7&#45;&gt;Node22 -->
<g id="edge25_Node000007_Node000022" class="edge">
<title>Node7&#45;&gt;Node22</title>
<g id="a_edge25_Node000007_Node000022"><a xlink:title=" ">
<path fill="none" stroke="#63b8ff" d="M886,-115.32C845.08,-106.08 763.64,-87.68 713.91,-76.44"/>
<polygon fill="#63b8ff" stroke="#63b8ff" points="714.9,-73.08 704.37,-74.29 713.36,-79.9 714.9,-73.08"/>
</a>
</g>
</g>
<!-- Node23 -->
<g id="Node000023" class="node">
<title>Node23</title>
<g id="a_Node000023"><a xlink:title=" ">
<polygon fill="#e0e0e0" stroke="#999999" points="773.5,-76 720.75,-76 720.75,-56 773.5,-56 773.5,-76"/>
<text xml:space="preserve" text-anchor="middle" x="747.12" y="-62.5" font-family="Helvetica,sans-Serif" font-size="10.00">GL/glu.h</text>
</a>
</g>
</g>
<!-- Node7&#45;&gt;Node23 -->
<g id="edge26_Node000007_Node000023" class="edge">
<title>Node7&#45;&gt;Node23</title>
<g id="a_edge26_Node000007_Node000023"><a xlink:title=" ">
<path fill="none" stroke="#63b8ff" d="M885.86,-112.68C858.81,-103.77 815.61,-89.55 784.6,-79.34"/>
<polygon fill="#63b8ff" stroke="#63b8ff" points="785.81,-76.05 775.22,-76.25 783.62,-82.7 785.81,-76.05"/>
</a>
</g>
</g>
<!-- Node24 -->
<g id="Node000024" class="node">
<title>Node24</title>
<g id="a_Node000024"><a xlink:title=" ">
<polygon fill="#e0e0e0" stroke="#999999" points="858.25,-76 792,-76 792,-56 858.25,-56 858.25,-76"/>
<text xml:space="preserve" text-anchor="middle" x="825.12" y="-62.5" font-family="Helvetica,sans-Serif" font-size="10.00">epoxy/glx.h</text>
</a>
</g>
</g>
<!-- Node7&#45;&gt;Node24 -->
<g id="edge27_Node000007_Node000024" class="edge">
<title>Node7&#45;&gt;Node24</title>
<g id="a_edge27_Node000007_Node000024"><a xlink:title=" ">
<path fill="none" stroke="#63b8ff" d="M896.14,-111.59C883.4,-103.59 864.83,-91.93 849.88,-82.54"/>
<polygon fill="#63b8ff" stroke="#63b8ff" points="851.83,-79.64 841.5,-77.28 848.11,-85.57 851.83,-79.64"/>
</a>
</g>
</g>
<!-- Node25 -->
<g id="Node000025" class="node">
<title>Node25</title>
<g id="a_Node000025"><a xlink:href="../../dc/db0/math__3d_8h.html" target="_top" xlink:title="Functions for OpenGL math.">
<polygon fill="white" stroke="#666666" points="1230,-76 1168.25,-76 1168.25,-56 1230,-56 1230,-76"/>
<text xml:space="preserve" text-anchor="middle" x="1199.12" y="-62.5" font-family="Helvetica,sans-Serif" font-size="10.00">math_3d.h</text>
</a>
</g>
</g>
<!-- Node7&#45;&gt;Node25 -->
<g id="edge28_Node000007_Node000025" class="edge">
<title>Node7&#45;&gt;Node25</title>
<g id="a_edge28_Node000007_Node000025"><a xlink:title=" ">
<path fill="none" stroke="#63b8ff" d="M936.18,-116.81C979.18,-109.54 1070.01,-93.86 1157.01,-76.36"/>
<polygon fill="#63b8ff" stroke="#63b8ff" points="1157.55,-79.82 1166.66,-74.41 1156.16,-72.96 1157.55,-79.82"/>
</a>
</g>
</g>
<!-- Node26 -->
<g id="Node000026" class="node">
<title>Node26</title>
<g id="a_Node000026"><a xlink:href="../../d7/d21/cedit_8h.html" target="_top" xlink:title="Variable declarations for the curve layout edition window.">
<polygon fill="white" stroke="#666666" points="959.75,-76 914.5,-76 914.5,-56 959.75,-56 959.75,-76"/>
<text xml:space="preserve" text-anchor="middle" x="937.12" y="-62.5" font-family="Helvetica,sans-Serif" font-size="10.00">cedit.h</text>
</a>
</g>
</g>
<!-- Node7&#45;&gt;Node26 -->
<g id="edge31_Node000007_Node000026" class="edge">
<title>Node7&#45;&gt;Node26</title>
<g id="a_edge31_Node000007_Node000026"><a xlink:title=" ">
<path fill="none" stroke="#63b8ff" d="M915.65,-111.59C918.97,-104.7 923.59,-95.1 927.7,-86.57"/>
<polygon fill="#63b8ff" stroke="#63b8ff" points="930.81,-88.19 931.99,-77.66 924.5,-85.15 930.81,-88.19"/>
</a>
</g>
</g>
<!-- Node27 -->
<g id="Node000027" class="node">
<title>Node27</title>
<g id="a_Node000027"><a xlink:href="../../da/d7e/glwin_8h.html" target="_top" xlink:title="Variable declarations related the OpenGL window &#160;&#160;Data structure declarations related the OpenGL wind...">
<polygon fill="white" stroke="#666666" points="1796.5,-76 1749.75,-76 1749.75,-56 1796.5,-56 1796.5,-76"/>
<text xml:space="preserve" text-anchor="middle" x="1773.12" y="-62.5" font-family="Helvetica,sans-Serif" font-size="10.00">glwin.h</text>
</a>
</g>
</g>
<!-- Node7&#45;&gt;Node27 -->
<g id="edge32_Node000007_Node000027" class="edge">
<title>Node7&#45;&gt;Node27</title>
<g id="a_edge32_Node000007_Node000027"><a xlink:title=" ">
<path fill="none" stroke="#63b8ff" d="M936.42,-120.38C1055.16,-117.35 1558.65,-103.23 1738.38,-76.04"/>
<polygon fill="#63b8ff" stroke="#63b8ff" points="1738.67,-79.54 1748,-74.51 1737.57,-72.63 1738.67,-79.54"/>
</a>
</g>
</g>
<!-- Node25&#45;&gt;Node6 -->
<g id="edge29_Node000025_Node000006" class="edge">
<title>Node25&#45;&gt;Node6</title>
<g id="a_edge29_Node000025_Node000006"><a xlink:title=" ">
<path fill="none" stroke="#63b8ff" d="M1230.11,-57.91C1233.15,-57.25 1236.2,-56.6 1239.12,-56 1312.83,-40.86 1399.63,-25.26 1446.64,-16.99"/>
<polygon fill="#63b8ff" stroke="#63b8ff" points="1446.97,-20.49 1456.22,-15.32 1445.76,-13.59 1446.97,-20.49"/>
</a>
</g>
</g>
<!-- Node25&#45;&gt;Node14 -->
<g id="edge30_Node000025_Node000014" class="edge">
<title>Node25&#45;&gt;Node14</title>
<g id="a_edge30_Node000025_Node000014"><a xlink:title=" ">
<path fill="none" stroke="#63b8ff" d="M1171.95,-55.59C1145.44,-46.42 1105.06,-32.44 1076.58,-22.58"/>
<polygon fill="#63b8ff" stroke="#63b8ff" points="1077.96,-19.35 1067.36,-19.39 1075.67,-25.97 1077.96,-19.35"/>
</a>
</g>
</g>
<!-- Node28 -->
<g id="Node000028" class="node">
<title>Node28</title>
<g id="a_Node000028"><a xlink:href="../../d5/d9e/ogl__shading_8h.html" target="_top" xlink:title="Variable declarations related to GLSL programs &#160;&#160;Data structure declarations related to GLSL programs...">
<polygon fill="white" stroke="#666666" points="1811.12,-20 1735.12,-20 1735.12,0 1811.12,0 1811.12,-20"/>
<text xml:space="preserve" text-anchor="middle" x="1773.12" y="-6.5" font-family="Helvetica,sans-Serif" font-size="10.00">ogl_shading.h</text>
</a>
</g>
</g>
<!-- Node27&#45;&gt;Node28 -->
<g id="edge33_Node000027_Node000028" class="edge">
<title>Node27&#45;&gt;Node28</title>
<g id="a_edge33_Node000027_Node000028"><a xlink:title=" ">
<path fill="none" stroke="#63b8ff" d="M1773.12,-55.59C1773.12,-49.01 1773.12,-39.96 1773.12,-31.73"/>
<polygon fill="#63b8ff" stroke="#63b8ff" points="1776.63,-31.81 1773.13,-21.81 1769.63,-31.81 1776.63,-31.81"/>
</a>
</g>
</g>
<!-- Node32&#45;&gt;Node7 -->
<g id="edge38_Node000032_Node000007" class="edge">
<title>Node32&#45;&gt;Node7</title>
<g id="a_edge38_Node000032_Node000007"><a xlink:title=" ">
<path fill="none" stroke="#63b8ff" d="M729.56,-170.59C765.51,-161.17 832.89,-143.51 874.69,-132.55"/>
<polygon fill="#63b8ff" stroke="#63b8ff" points="875.5,-135.96 884.29,-130.04 873.73,-129.19 875.5,-135.96"/>
</a>
</g>
</g>
</g>
</svg>

<g id="navigator" transform="translate(0 0)" fill="#404254">
  <rect fill="#f2f5e9" fill-opacity="0.5" stroke="#606060" stroke-width=".5" x="0" y="0" width="60" height="60"/>
  <use id="zoomplus" xlink:href="#zoomPlus" x="17" y="9" onmousedown="handleZoom(evt,'in')"/>
  <use id="zoomminus" xlink:href="#zoomMin" x="42" y="9" onmousedown="handleZoom(evt,'out')"/>
  <use id="reset" xlink:href="#resetDef" x="30" y="36" onmousedown="handleReset()"/>
   <use id="arrowup" xlink:href="#arrowUp" x="0" y="0" onmousedown="handlePan(0,-1)"/>
  <use id="arrowright" xlink:href="#arrowRight" x="0" y="0" onmousedown="handlePan(1,0)"/>
  <use id="arrowdown" xlink:href="#arrowDown" x="0" y="0" onmousedown="handlePan(0,1)"/>
  <use id="arrowleft" xlink:href="#arrowLeft" x="0" y="0" onmousedown="handlePan(-1,0)"/>
</g>
<svg viewBox="0 0 15 15" width="100%" height="30px" preserveAspectRatio="xMaxYMin meet">
 <g id="arrow_out" transform="scale(0.3 0.3)">
  <a xlink:href="datab_8c__incl_org.svg" target="_base">
   <rect id="button" ry="5" rx="5" y="6" x="6" height="38" width="38"
        fill="#f2f5e9" fill-opacity="0.5" stroke="#606060" stroke-width="1.0"/>
   <path id="arrow"
     d="M 11.500037,31.436501 C 11.940474,20.09759 22.043105,11.32322 32.158766,21.979434 L 37.068811,17.246167 C 37.068811,17.246167 37.088388,32 37.088388,32 L 22.160133,31.978069 C 22.160133,31.978069 26.997745,27.140456 26.997745,27.140456 C 18.528582,18.264221 13.291696,25.230495 11.500037,31.436501 z"
     style="fill:#404040;"/>
  </a>
 </g>
</svg>

<style type='text/css'>
<![CDATA[
[data-mouse-over-selected='false'] { opacity: 0.7; }
[data-mouse-over-selected='true']  { opacity: 1.0; }
]]>
</style>
<script type="application/ecmascript"><![CDATA[
document.addEventListener('DOMContentLoaded', (event) => {
  highlightEdges();
  highlightAdjacentNodes();
});
]]></script>
</svg>
