<?xml version="1.0" encoding="UTF-8" standalone="no"?>
<!DOCTYPE svg PUBLIC "-//W3C//DTD SVG 1.1//EN"
 "http://www.w3.org/Graphics/SVG/1.1/DTD/svg11.dtd">
<!-- Generated by graphviz version 9.0.0 (20230911.1827)
 -->
<!-- Title: curve/datab.c Pages: 1 -->
<svg width="1618pt" height="252pt"
 viewBox="0.00 0.00 1617.64 252.00" xmlns="http://www.w3.org/2000/svg" xmlns:xlink="http://www.w3.org/1999/xlink">
<g id="graph0" class="graph" transform="scale(1 1) rotate(0) translate(4 248)">
<title>curve/datab.c</title>
<!-- Node1 -->
<g id="Node000001" class="node">
<title>Node1</title>
<g id="a_Node000001"><a xlink:title="Curve data edition window and associated callbacks.">
<polygon fill="#999999" stroke="#666666" points="552.75,-244 477.5,-244 477.5,-224 552.75,-224 552.75,-244"/>
<text text-anchor="middle" x="515.12" y="-230.5" font-family="Helvetica,sans-Serif" font-size="10.00">curve/datab.c</text>
</a>
</g>
</g>
<!-- Node2 -->
<g id="Node000002" class="node">
<title>Node2</title>
<g id="a_Node000002"><a xlink:title=" ">
<polygon fill="#e0e0e0" stroke="#999999" points="54.25,-76 0,-76 0,-56 54.25,-56 54.25,-76"/>
<text text-anchor="middle" x="27.12" y="-62.5" font-family="Helvetica,sans-Serif" font-size="10.00">gtk/gtk.h</text>
</a>
</g>
</g>
<!-- Node1&#45;&gt;Node2 -->
<g id="edge1_Node000001_Node000002" class="edge">
<title>Node1&#45;&gt;Node2</title>
<g id="a_edge1_Node000001_Node000002"><a xlink:title=" ">
<path fill="none" stroke="#63b8ff" d="M477.19,-226.46C436.76,-219.02 371.12,-205.58 316.12,-188 218.42,-156.76 107.83,-105.88 56.37,-81.25"/>
<polygon fill="#63b8ff" stroke="#63b8ff" points="58.2,-78.25 47.67,-77.07 55.16,-84.56 58.2,-78.25"/>
</a>
</g>
</g>
<!-- Node3 -->
<g id="Node000003" class="node">
<title>Node3</title>
<g id="a_Node000003"><a xlink:title=" ">
<polygon fill="#e0e0e0" stroke="#999999" points="370.75,-188 325.5,-188 325.5,-168 370.75,-168 370.75,-188"/>
<text text-anchor="middle" x="348.12" y="-174.5" font-family="Helvetica,sans-Serif" font-size="10.00">cairo.h</text>
</a>
</g>
</g>
<!-- Node1&#45;&gt;Node3 -->
<g id="edge2_Node000001_Node000003" class="edge">
<title>Node1&#45;&gt;Node3</title>
<g id="a_edge2_Node000001_Node000003"><a xlink:title=" ">
<path fill="none" stroke="#63b8ff" d="M486.04,-223.59C456.99,-214.2 412.38,-199.78 381.81,-189.89"/>
<polygon fill="#63b8ff" stroke="#63b8ff" points="383.27,-186.69 372.68,-186.94 381.12,-193.35 383.27,-186.69"/>
</a>
</g>
</g>
<!-- Node4 -->
<g id="Node000004" class="node">
<title>Node4</title>
<g id="a_Node000004"><a xlink:title=" ">
<polygon fill="#e0e0e0" stroke="#999999" points="120.25,-76 72,-76 72,-56 120.25,-56 120.25,-76"/>
<text text-anchor="middle" x="96.12" y="-62.5" font-family="Helvetica,sans-Serif" font-size="10.00">string.h</text>
</a>
</g>
</g>
<!-- Node1&#45;&gt;Node4 -->
<g id="edge3_Node000001_Node000004" class="edge">
<title>Node1&#45;&gt;Node4</title>
<g id="a_edge3_Node000001_Node000004"><a xlink:title=" ">
<path fill="none" stroke="#63b8ff" d="M497.07,-223.54C471.43,-210.29 422.86,-185.83 380.12,-168 291.97,-131.23 185.16,-95.55 131.1,-78.1"/>
<polygon fill="#63b8ff" stroke="#63b8ff" points="132.42,-74.85 121.83,-75.12 130.28,-81.51 132.42,-74.85"/>
</a>
</g>
</g>
<!-- Node5 -->
<g id="Node000005" class="node">
<title>Node5</title>
<g id="a_Node000005"><a xlink:title=" ">
<polygon fill="#e0e0e0" stroke="#999999" points="185.88,-76 138.38,-76 138.38,-56 185.88,-56 185.88,-76"/>
<text text-anchor="middle" x="162.12" y="-62.5" font-family="Helvetica,sans-Serif" font-size="10.00">stdlib.h</text>
</a>
</g>
</g>
<!-- Node1&#45;&gt;Node5 -->
<g id="edge4_Node000001_Node000005" class="edge">
<title>Node1&#45;&gt;Node5</title>
<g id="a_edge4_Node000001_Node000005"><a xlink:title=" ">
<path fill="none" stroke="#63b8ff" d="M499.43,-223.57C486.66,-215.34 468.74,-202.47 456.12,-188 430.62,-158.75 444.94,-134.23 413.12,-112 335.53,-57.79 294.12,-94.1 197.33,-76.13"/>
<polygon fill="#63b8ff" stroke="#63b8ff" points="198.18,-72.73 187.69,-74.17 196.79,-79.59 198.18,-72.73"/>
</a>
</g>
</g>
<!-- Node6 -->
<g id="Node000006" class="node">
<title>Node6</title>
<g id="a_Node000006"><a xlink:title=" ">
<polygon fill="#e0e0e0" stroke="#999999" points="781.12,-20 735.12,-20 735.12,0 781.12,0 781.12,-20"/>
<text text-anchor="middle" x="758.12" y="-6.5" font-family="Helvetica,sans-Serif" font-size="10.00">math.h</text>
</a>
</g>
</g>
<!-- Node1&#45;&gt;Node6 -->
<g id="edge5_Node000001_Node000006" class="edge">
<title>Node1&#45;&gt;Node6</title>
<g id="a_edge5_Node000001_Node000006"><a xlink:title=" ">
<path fill="none" stroke="#63b8ff" d="M553,-230.44C737.29,-217.63 1534.32,-157.74 1605.12,-76 1610.95,-69.28 1611.24,-62.45 1605.12,-56 1576.7,-26.03 947.28,-14.02 792.35,-11.52"/>
<polygon fill="#63b8ff" stroke="#63b8ff" points="792.79,-8.02 782.74,-11.36 792.68,-15.02 792.79,-8.02"/>
</a>
</g>
</g>
<!-- Node7 -->
<g id="Node000007" class="node">
<title>Node7</title>
<g id="a_Node000007"><a xlink:href="../../d2/d49/global_8h.html" target="_top" xlink:title="Global variable declarations &#160;&#160;Global convenience function declarations &#160;&#160;Global data structure defin...">
<polygon fill="white" stroke="#666666" points="656,-132 606.25,-132 606.25,-112 656,-112 656,-132"/>
<text text-anchor="middle" x="631.12" y="-118.5" font-family="Helvetica,sans-Serif" font-size="10.00">global.h</text>
</a>
</g>
</g>
<!-- Node1&#45;&gt;Node7 -->
<g id="edge6_Node000001_Node000007" class="edge">
<title>Node1&#45;&gt;Node7</title>
<g id="a_edge6_Node000001_Node000007"><a xlink:title=" ">
<path fill="none" stroke="#63b8ff" d="M519.96,-223.74C527.3,-210.29 542.3,-185.11 560.12,-168 572.46,-156.16 588.37,-145.73 602,-137.91"/>
<polygon fill="#63b8ff" stroke="#63b8ff" points="603.5,-141.08 610.56,-133.18 600.12,-134.95 603.5,-141.08"/>
</a>
</g>
</g>
<!-- Node26 -->
<g id="Node000026" class="node">
<title>Node26</title>
<g id="a_Node000026"><a xlink:href="../../d4/da9/interface_8h.html" target="_top" xlink:title="Messaging function declarations.">
<polygon fill="white" stroke="#666666" points="631,-188 569.25,-188 569.25,-168 631,-168 631,-188"/>
<text text-anchor="middle" x="600.12" y="-174.5" font-family="Helvetica,sans-Serif" font-size="10.00">interface.h</text>
</a>
</g>
</g>
<!-- Node1&#45;&gt;Node26 -->
<g id="edge31_Node000001_Node000026" class="edge">
<title>Node1&#45;&gt;Node26</title>
<g id="a_edge31_Node000001_Node000026"><a xlink:title=" ">
<path fill="none" stroke="#63b8ff" d="M529.93,-223.59C542.53,-215.59 560.88,-203.93 575.66,-194.54"/>
<polygon fill="#63b8ff" stroke="#63b8ff" points="577.36,-197.61 583.93,-189.29 573.61,-191.7 577.36,-197.61"/>
</a>
</g>
</g>
<!-- Node27 -->
<g id="Node000027" class="node">
<title>Node27</title>
<g id="a_Node000027"><a xlink:href="../../dd/d49/callbacks_8h.html" target="_top" xlink:title="Callback declarations for main window.">
<polygon fill="white" stroke="#666666" points="714.88,-188 649.38,-188 649.38,-168 714.88,-168 714.88,-188"/>
<text text-anchor="middle" x="682.12" y="-174.5" font-family="Helvetica,sans-Serif" font-size="10.00">callbacks.h</text>
</a>
</g>
</g>
<!-- Node1&#45;&gt;Node27 -->
<g id="edge32_Node000001_Node000027" class="edge">
<title>Node1&#45;&gt;Node27</title>
<g id="a_edge32_Node000001_Node000027"><a xlink:title=" ">
<path fill="none" stroke="#63b8ff" d="M544.21,-223.59C571.35,-214.82 612.06,-201.66 642.22,-191.9"/>
<polygon fill="#63b8ff" stroke="#63b8ff" points="642.93,-195.35 651.37,-188.95 640.78,-188.69 642.93,-195.35"/>
</a>
</g>
</g>
<!-- Node28 -->
<g id="Node000028" class="node">
<title>Node28</title>
<g id="a_Node000028"><a xlink:href="../../dc/d8d/project_8h.html" target="_top" xlink:title="Function declarations for reading atomes project file &#160;&#160;Function declarations for saving atomes proje...">
<polygon fill="white" stroke="#666666" points="786.88,-188 733.38,-188 733.38,-168 786.88,-168 786.88,-188"/>
<text text-anchor="middle" x="760.12" y="-174.5" font-family="Helvetica,sans-Serif" font-size="10.00">project.h</text>
</a>
</g>
</g>
<!-- Node1&#45;&gt;Node28 -->
<g id="edge33_Node000001_Node000028" class="edge">
<title>Node1&#45;&gt;Node28</title>
<g id="a_edge33_Node000001_Node000028"><a xlink:title=" ">
<path fill="none" stroke="#63b8ff" d="M552.96,-225.24C592.68,-217.02 657.21,-203.41 722.17,-188.4"/>
<polygon fill="#63b8ff" stroke="#63b8ff" points="722.6,-191.89 731.55,-186.22 721.01,-185.07 722.6,-191.89"/>
</a>
</g>
</g>
<!-- Node29 -->
<g id="Node000029" class="node">
<title>Node29</title>
<g id="a_Node000029"><a xlink:href="../../df/de9/curve_8h.html" target="_top" xlink:title="Variable declarations for the curve widget &#160;&#160;Functions for interactions with the curve widget.">
<polygon fill="white" stroke="#666666" points="513.25,-188 465,-188 465,-168 513.25,-168 513.25,-188"/>
<text text-anchor="middle" x="489.12" y="-174.5" font-family="Helvetica,sans-Serif" font-size="10.00">curve.h</text>
</a>
</g>
</g>
<!-- Node1&#45;&gt;Node29 -->
<g id="edge34_Node000001_Node000029" class="edge">
<title>Node1&#45;&gt;Node29</title>
<g id="a_edge34_Node000001_Node000029"><a xlink:title=" ">
<path fill="none" stroke="#63b8ff" d="M510.6,-223.59C507.28,-216.7 502.66,-207.1 498.55,-198.57"/>
<polygon fill="#63b8ff" stroke="#63b8ff" points="501.75,-197.15 494.26,-189.66 495.44,-200.19 501.75,-197.15"/>
</a>
</g>
</g>
<!-- Node7&#45;&gt;Node2 -->
<g id="edge17_Node000007_Node000002" class="edge">
<title>Node7&#45;&gt;Node2</title>
<g id="a_edge17_Node000007_Node000002"><a xlink:title=" ">
<path fill="none" stroke="#63b8ff" d="M605.75,-120.49C526.96,-118.58 279.48,-110.24 65.67,-76.15"/>
<polygon fill="#63b8ff" stroke="#63b8ff" points="66.47,-72.74 56.04,-74.6 65.35,-79.65 66.47,-72.74"/>
</a>
</g>
</g>
<!-- Node7&#45;&gt;Node4 -->
<g id="edge11_Node000007_Node000004" class="edge">
<title>Node7&#45;&gt;Node4</title>
<g id="a_edge11_Node000007_Node000004"><a xlink:title=" ">
<path fill="none" stroke="#63b8ff" d="M605.84,-120.31C533.37,-118.01 318.6,-108.87 131.66,-76.15"/>
<polygon fill="#63b8ff" stroke="#63b8ff" points="132.47,-72.74 122.01,-74.44 131.24,-79.64 132.47,-72.74"/>
</a>
</g>
</g>
<!-- Node7&#45;&gt;Node5 -->
<g id="edge13_Node000007_Node000005" class="edge">
<title>Node7&#45;&gt;Node5</title>
<g id="a_edge13_Node000007_Node000005"><a xlink:title=" ">
<path fill="none" stroke="#63b8ff" d="M605.85,-119.84C540.07,-116.51 358.02,-105.35 197.22,-76.09"/>
<polygon fill="#63b8ff" stroke="#63b8ff" points="198.13,-72.7 187.66,-74.32 196.85,-79.58 198.13,-72.7"/>
</a>
</g>
</g>
<!-- Node7&#45;&gt;Node6 -->
<g id="edge16_Node000007_Node000006" class="edge">
<title>Node7&#45;&gt;Node6</title>
<g id="a_edge16_Node000007_Node000006"><a xlink:title=" ">
<path fill="none" stroke="#63b8ff" d="M656.15,-116.98C680.68,-111.74 717.45,-100.21 739.12,-76 750.05,-63.79 754.71,-45.62 756.69,-31.59"/>
<polygon fill="#63b8ff" stroke="#63b8ff" points="760.17,-31.97 757.7,-21.66 753.21,-31.26 760.17,-31.97"/>
</a>
</g>
</g>
<!-- Node8 -->
<g id="Node000008" class="node">
<title>Node8</title>
<g id="a_Node000008"><a xlink:title=" ">
<polygon fill="#e0e0e0" stroke="#999999" points="392.75,-76 353.5,-76 353.5,-56 392.75,-56 392.75,-76"/>
<text text-anchor="middle" x="373.12" y="-62.5" font-family="Helvetica,sans-Serif" font-size="10.00">glib.h</text>
</a>
</g>
</g>
<!-- Node7&#45;&gt;Node8 -->
<g id="edge7_Node000007_Node000008" class="edge">
<title>Node7&#45;&gt;Node8</title>
<g id="a_edge7_Node000007_Node000008"><a xlink:title=" ">
<path fill="none" stroke="#63b8ff" d="M606.06,-117.09C565.48,-110.55 482.69,-96.33 404.26,-76.6"/>
<polygon fill="#63b8ff" stroke="#63b8ff" points="405.25,-73.24 394.7,-74.15 403.52,-80.02 405.25,-73.24"/>
</a>
</g>
</g>
<!-- Node9 -->
<g id="Node000009" class="node">
<title>Node9</title>
<g id="a_Node000009"><a xlink:title=" ">
<polygon fill="#e0e0e0" stroke="#999999" points="475.88,-76 410.38,-76 410.38,-56 475.88,-56 475.88,-76"/>
<text text-anchor="middle" x="443.12" y="-62.5" font-family="Helvetica,sans-Serif" font-size="10.00">glib/gi18n.h</text>
</a>
</g>
</g>
<!-- Node7&#45;&gt;Node9 -->
<g id="edge8_Node000007_Node000009" class="edge">
<title>Node7&#45;&gt;Node9</title>
<g id="a_edge8_Node000007_Node000009"><a xlink:title=" ">
<path fill="none" stroke="#63b8ff" d="M605.77,-113.72C575.34,-104.98 523.81,-90.18 486.91,-79.58"/>
<polygon fill="#63b8ff" stroke="#63b8ff" points="487.99,-76.25 477.42,-76.85 486.06,-82.97 487.99,-76.25"/>
</a>
</g>
</g>
<!-- Node10 -->
<g id="Node000010" class="node">
<title>Node10</title>
<g id="a_Node000010"><a xlink:title=" ">
<polygon fill="#e0e0e0" stroke="#999999" points="544,-76 494.25,-76 494.25,-56 544,-56 544,-76"/>
<text text-anchor="middle" x="519.12" y="-62.5" font-family="Helvetica,sans-Serif" font-size="10.00">locale.h</text>
</a>
</g>
</g>
<!-- Node7&#45;&gt;Node10 -->
<g id="edge9_Node000007_Node000010" class="edge">
<title>Node7&#45;&gt;Node10</title>
<g id="a_edge9_Node000007_Node000010"><a xlink:title=" ">
<path fill="none" stroke="#63b8ff" d="M611.62,-111.59C594.38,-103.28 568.97,-91.03 549.14,-81.47"/>
<polygon fill="#63b8ff" stroke="#63b8ff" points="550.68,-78.33 540.15,-77.14 547.64,-84.63 550.68,-78.33"/>
</a>
</g>
</g>
<!-- Node11 -->
<g id="Node000011" class="node">
<title>Node11</title>
<g id="a_Node000011"><a xlink:title=" ">
<polygon fill="#e0e0e0" stroke="#999999" points="730.38,-76 679.88,-76 679.88,-56 730.38,-56 730.38,-76"/>
<text text-anchor="middle" x="705.12" y="-62.5" font-family="Helvetica,sans-Serif" font-size="10.00">unistd.h</text>
</a>
</g>
</g>
<!-- Node7&#45;&gt;Node11 -->
<g id="edge10_Node000007_Node000011" class="edge">
<title>Node7&#45;&gt;Node11</title>
<g id="a_edge10_Node000007_Node000011"><a xlink:title=" ">
<path fill="none" stroke="#63b8ff" d="M644.01,-111.59C654.84,-103.7 670.54,-92.24 683.31,-82.92"/>
<polygon fill="#63b8ff" stroke="#63b8ff" points="685.15,-85.91 691.16,-77.19 681.02,-80.26 685.15,-85.91"/>
</a>
</g>
</g>
<!-- Node12 -->
<g id="Node000012" class="node">
<title>Node12</title>
<g id="a_Node000012"><a xlink:title=" ">
<polygon fill="#e0e0e0" stroke="#999999" points="623.75,-20 578.5,-20 578.5,0 623.75,0 623.75,-20"/>
<text text-anchor="middle" x="601.12" y="-6.5" font-family="Helvetica,sans-Serif" font-size="10.00">stdio.h</text>
</a>
</g>
</g>
<!-- Node7&#45;&gt;Node12 -->
<g id="edge12_Node000007_Node000012" class="edge">
<title>Node7&#45;&gt;Node12</title>
<g id="a_edge12_Node000007_Node000012"><a xlink:title=" ">
<path fill="none" stroke="#63b8ff" d="M619.1,-111.78C609.47,-103.59 596.7,-90.66 591.12,-76 585.6,-61.46 588.79,-43.98 592.98,-30.81"/>
<polygon fill="#63b8ff" stroke="#63b8ff" points="596.22,-32.15 596.37,-21.56 589.65,-29.74 596.22,-32.15"/>
</a>
</g>
</g>
<!-- Node13 -->
<g id="Node000013" class="node">
<title>Node13</title>
<g id="a_Node000013"><a xlink:title=" ">
<polygon fill="#e0e0e0" stroke="#999999" points="853.62,-76 786.62,-76 786.62,-56 853.62,-56 853.62,-76"/>
<text text-anchor="middle" x="820.12" y="-62.5" font-family="Helvetica,sans-Serif" font-size="10.00">sys/types.h</text>
</a>
</g>
</g>
<!-- Node7&#45;&gt;Node13 -->
<g id="edge14_Node000007_Node000013" class="edge">
<title>Node7&#45;&gt;Node13</title>
<g id="a_edge14_Node000007_Node000013"><a xlink:title=" ">
<path fill="none" stroke="#63b8ff" d="M656.22,-113.83C686.71,-105.12 738.67,-90.27 775.92,-79.63"/>
<polygon fill="#63b8ff" stroke="#63b8ff" points="776.86,-83 785.51,-76.89 774.93,-76.27 776.86,-83"/>
</a>
</g>
</g>
<!-- Node14 -->
<g id="Node000014" class="node">
<title>Node14</title>
<g id="a_Node000014"><a xlink:title=" ">
<polygon fill="#e0e0e0" stroke="#999999" points="930.88,-76 871.38,-76 871.38,-56 930.88,-56 930.88,-76"/>
<text text-anchor="middle" x="901.12" y="-62.5" font-family="Helvetica,sans-Serif" font-size="10.00">sys/stat.h</text>
</a>
</g>
</g>
<!-- Node7&#45;&gt;Node14 -->
<g id="edge15_Node000007_Node000014" class="edge">
<title>Node7&#45;&gt;Node14</title>
<g id="a_edge15_Node000007_Node000014"><a xlink:title=" ">
<path fill="none" stroke="#63b8ff" d="M656.26,-116.47C696.99,-109.07 780.2,-93.62 860.04,-76.6"/>
<polygon fill="#63b8ff" stroke="#63b8ff" points="860.76,-80.03 869.8,-74.51 859.29,-73.18 860.76,-80.03"/>
</a>
</g>
</g>
<!-- Node15 -->
<g id="Node000015" class="node">
<title>Node15</title>
<g id="a_Node000015"><a xlink:title=" ">
<polygon fill="#e0e0e0" stroke="#999999" points="1008.88,-76 949.38,-76 949.38,-56 1008.88,-56 1008.88,-76"/>
<text text-anchor="middle" x="979.12" y="-62.5" font-family="Helvetica,sans-Serif" font-size="10.00">gtk/gtkx.h</text>
</a>
</g>
</g>
<!-- Node7&#45;&gt;Node15 -->
<g id="edge18_Node000007_Node000015" class="edge">
<title>Node7&#45;&gt;Node15</title>
<g id="a_edge18_Node000007_Node000015"><a xlink:title=" ">
<path fill="none" stroke="#63b8ff" d="M656.48,-118.02C707.7,-111.86 827.38,-96.69 937.93,-76.28"/>
<polygon fill="#63b8ff" stroke="#63b8ff" points="938.27,-79.78 947.46,-74.5 936.98,-72.9 938.27,-79.78"/>
</a>
</g>
</g>
<!-- Node16 -->
<g id="Node000016" class="node">
<title>Node16</title>
<g id="a_Node000016"><a xlink:title=" ">
<polygon fill="#e0e0e0" stroke="#999999" points="1085.5,-76 1026.75,-76 1026.75,-56 1085.5,-56 1085.5,-76"/>
<text text-anchor="middle" x="1056.12" y="-62.5" font-family="Helvetica,sans-Serif" font-size="10.00">gdk/gdk.h</text>
</a>
</g>
</g>
<!-- Node7&#45;&gt;Node16 -->
<g id="edge19_Node000007_Node000016" class="edge">
<title>Node7&#45;&gt;Node16</title>
<g id="a_edge19_Node000007_Node000016"><a xlink:title=" ">
<path fill="none" stroke="#63b8ff" d="M656.17,-119.11C716.41,-114.34 874.27,-100.57 1015.33,-76.32"/>
<polygon fill="#63b8ff" stroke="#63b8ff" points="1015.58,-79.83 1024.83,-74.67 1014.38,-72.94 1015.58,-79.83"/>
</a>
</g>
</g>
<!-- Node17 -->
<g id="Node000017" class="node">
<title>Node17</title>
<g id="a_Node000017"><a xlink:title=" ">
<polygon fill="#e0e0e0" stroke="#999999" points="1202.38,-76 1103.88,-76 1103.88,-56 1202.38,-56 1202.38,-76"/>
<text text-anchor="middle" x="1153.12" y="-62.5" font-family="Helvetica,sans-Serif" font-size="10.00">gdk/gdkkeysyms.h</text>
</a>
</g>
</g>
<!-- Node7&#45;&gt;Node17 -->
<g id="edge20_Node000007_Node000017" class="edge">
<title>Node7&#45;&gt;Node17</title>
<g id="a_edge20_Node000007_Node000017"><a xlink:title=" ">
<path fill="none" stroke="#63b8ff" d="M656.27,-119.04C724.47,-113.63 918.84,-97.51 1092.19,-76.17"/>
<polygon fill="#63b8ff" stroke="#63b8ff" points="1092.58,-79.65 1102.08,-74.94 1091.72,-72.7 1092.58,-79.65"/>
</a>
</g>
</g>
<!-- Node18 -->
<g id="Node000018" class="node">
<title>Node18</title>
<g id="a_Node000018"><a xlink:title=" ">
<polygon fill="#e0e0e0" stroke="#999999" points="1337.75,-76 1220.5,-76 1220.5,-56 1337.75,-56 1337.75,-76"/>
<text text-anchor="middle" x="1279.12" y="-62.5" font-family="Helvetica,sans-Serif" font-size="10.00">gdk&#45;pixbuf/gdk&#45;pixbuf.h</text>
</a>
</g>
</g>
<!-- Node7&#45;&gt;Node18 -->
<g id="edge21_Node000007_Node000018" class="edge">
<title>Node7&#45;&gt;Node18</title>
<g id="a_edge21_Node000007_Node000018"><a xlink:title=" ">
<path fill="none" stroke="#63b8ff" d="M656.33,-119.53C735.78,-114.81 988.35,-99 1209.03,-76.16"/>
<polygon fill="#63b8ff" stroke="#63b8ff" points="1209.09,-79.68 1218.67,-75.16 1208.36,-72.71 1209.09,-79.68"/>
</a>
</g>
</g>
<!-- Node19 -->
<g id="Node000019" class="node">
<title>Node19</title>
<g id="a_Node000019"><a xlink:title=" ">
<polygon fill="#e0e0e0" stroke="#999999" points="1446.62,-76 1355.62,-76 1355.62,-56 1446.62,-56 1446.62,-76"/>
<text text-anchor="middle" x="1401.12" y="-62.5" font-family="Helvetica,sans-Serif" font-size="10.00">pango/pangoft2.h</text>
</a>
</g>
</g>
<!-- Node7&#45;&gt;Node19 -->
<g id="edge22_Node000007_Node000019" class="edge">
<title>Node7&#45;&gt;Node19</title>
<g id="a_edge22_Node000007_Node000019"><a xlink:title=" ">
<path fill="none" stroke="#63b8ff" d="M656.26,-120.35C747.32,-117.81 1068.72,-107.14 1343.8,-76.28"/>
<polygon fill="#63b8ff" stroke="#63b8ff" points="1344.17,-79.76 1353.71,-75.15 1343.38,-72.8 1344.17,-79.76"/>
</a>
</g>
</g>
<!-- Node20 -->
<g id="Node000020" class="node">
<title>Node20</title>
<g id="a_Node000020"><a xlink:title=" ">
<polygon fill="#e0e0e0" stroke="#999999" points="1525.62,-76 1464.62,-76 1464.62,-56 1525.62,-56 1525.62,-76"/>
<text text-anchor="middle" x="1495.12" y="-62.5" font-family="Helvetica,sans-Serif" font-size="10.00">epoxy/gl.h</text>
</a>
</g>
</g>
<!-- Node7&#45;&gt;Node20 -->
<g id="edge23_Node000007_Node000020" class="edge">
<title>Node7&#45;&gt;Node20</title>
<g id="a_edge23_Node000007_Node000020"><a xlink:title=" ">
<path fill="none" stroke="#63b8ff" d="M656.25,-121.2C756.03,-121.68 1133.96,-120.37 1452.82,-76.25"/>
<polygon fill="#63b8ff" stroke="#63b8ff" points="1453.22,-79.72 1462.64,-74.87 1452.25,-72.79 1453.22,-79.72"/>
</a>
</g>
</g>
<!-- Node21 -->
<g id="Node000021" class="node">
<title>Node21</title>
<g id="a_Node000021"><a xlink:title=" ">
<polygon fill="#e0e0e0" stroke="#999999" points="1596.5,-76 1543.75,-76 1543.75,-56 1596.5,-56 1596.5,-76"/>
<text text-anchor="middle" x="1570.12" y="-62.5" font-family="Helvetica,sans-Serif" font-size="10.00">GL/glu.h</text>
</a>
</g>
</g>
<!-- Node7&#45;&gt;Node21 -->
<g id="edge24_Node000007_Node000021" class="edge">
<title>Node7&#45;&gt;Node21</title>
<g id="a_edge24_Node000007_Node000021"><a xlink:title=" ">
<path fill="none" stroke="#63b8ff" d="M656.09,-120.44C780.64,-117.54 1336.29,-103.38 1532.21,-76.09"/>
<polygon fill="#63b8ff" stroke="#63b8ff" points="1532.6,-79.57 1541.99,-74.66 1531.59,-72.64 1532.6,-79.57"/>
</a>
</g>
</g>
<!-- Node22 -->
<g id="Node000022" class="node">
<title>Node22</title>
<g id="a_Node000022"><a xlink:title=" ">
<polygon fill="#e0e0e0" stroke="#999999" points="270.25,-76 204,-76 204,-56 270.25,-56 270.25,-76"/>
<text text-anchor="middle" x="237.12" y="-62.5" font-family="Helvetica,sans-Serif" font-size="10.00">epoxy/glx.h</text>
</a>
</g>
</g>
<!-- Node7&#45;&gt;Node22 -->
<g id="edge25_Node000007_Node000022" class="edge">
<title>Node7&#45;&gt;Node22</title>
<g id="a_edge25_Node000007_Node000022"><a xlink:title=" ">
<path fill="none" stroke="#63b8ff" d="M605.91,-118.46C549.74,-112.65 409.82,-97.36 281.59,-76.11"/>
<polygon fill="#63b8ff" stroke="#63b8ff" points="282.34,-72.69 271.9,-74.49 281.19,-79.59 282.34,-72.69"/>
</a>
</g>
</g>
<!-- Node23 -->
<g id="Node000023" class="node">
<title>Node23</title>
<g id="a_Node000023"><a xlink:href="../../dc/db0/math__3d_8h.html" target="_top" xlink:title="Functions for OpenGL math.">
<polygon fill="white" stroke="#666666" points="662,-76 600.25,-76 600.25,-56 662,-56 662,-76"/>
<text text-anchor="middle" x="631.12" y="-62.5" font-family="Helvetica,sans-Serif" font-size="10.00">math_3d.h</text>
</a>
</g>
</g>
<!-- Node7&#45;&gt;Node23 -->
<g id="edge26_Node000007_Node000023" class="edge">
<title>Node7&#45;&gt;Node23</title>
<g id="a_edge26_Node000007_Node000023"><a xlink:title=" ">
<path fill="none" stroke="#63b8ff" d="M631.12,-111.59C631.12,-105.01 631.12,-95.96 631.12,-87.73"/>
<polygon fill="#63b8ff" stroke="#63b8ff" points="634.63,-87.81 631.13,-77.81 627.63,-87.81 634.63,-87.81"/>
</a>
</g>
</g>
<!-- Node24 -->
<g id="Node000024" class="node">
<title>Node24</title>
<g id="a_Node000024"><a xlink:href="../../da/d7e/glwin_8h.html" target="_top" xlink:title="Variable declarations related the OpenGL window &#160;&#160;Data structure declarations related the OpenGL wind...">
<polygon fill="white" stroke="#666666" points="335.5,-76 288.75,-76 288.75,-56 335.5,-56 335.5,-76"/>
<text text-anchor="middle" x="312.12" y="-62.5" font-family="Helvetica,sans-Serif" font-size="10.00">glwin.h</text>
</a>
</g>
</g>
<!-- Node7&#45;&gt;Node24 -->
<g id="edge29_Node000007_Node000024" class="edge">
<title>Node7&#45;&gt;Node24</title>
<g id="a_edge29_Node000007_Node000024"><a xlink:title=" ">
<path fill="none" stroke="#63b8ff" d="M605.99,-118.08C557.61,-112.24 448.03,-97.97 346.84,-76.39"/>
<polygon fill="#63b8ff" stroke="#63b8ff" points="347.81,-73.02 337.29,-74.32 346.32,-79.86 347.81,-73.02"/>
</a>
</g>
</g>
<!-- Node23&#45;&gt;Node6 -->
<g id="edge27_Node000023_Node000006" class="edge">
<title>Node23&#45;&gt;Node6</title>
<g id="a_edge27_Node000023_Node000006"><a xlink:title=" ">
<path fill="none" stroke="#63b8ff" d="M653.25,-55.59C673.16,-47.13 702.68,-34.58 725.33,-24.94"/>
<polygon fill="#63b8ff" stroke="#63b8ff" points="726.6,-28.21 734.44,-21.07 723.87,-21.76 726.6,-28.21"/>
</a>
</g>
</g>
<!-- Node23&#45;&gt;Node12 -->
<g id="edge28_Node000023_Node000012" class="edge">
<title>Node23&#45;&gt;Node12</title>
<g id="a_edge28_Node000023_Node000012"><a xlink:title=" ">
<path fill="none" stroke="#63b8ff" d="M625.9,-55.59C622.03,-48.63 616.62,-38.89 611.84,-30.29"/>
<polygon fill="#63b8ff" stroke="#63b8ff" points="614.94,-28.66 607.03,-21.62 608.82,-32.06 614.94,-28.66"/>
</a>
</g>
</g>
<!-- Node25 -->
<g id="Node000025" class="node">
<title>Node25</title>
<g id="a_Node000025"><a xlink:href="../../d5/d9e/ogl__shading_8h.html" target="_top" xlink:title="Variable declarations related to GLSL programs &#160;&#160;Data structure declarations related to GLSL programs...">
<polygon fill="white" stroke="#666666" points="350.12,-20 274.12,-20 274.12,0 350.12,0 350.12,-20"/>
<text text-anchor="middle" x="312.12" y="-6.5" font-family="Helvetica,sans-Serif" font-size="10.00">ogl_shading.h</text>
</a>
</g>
</g>
<!-- Node24&#45;&gt;Node25 -->
<g id="edge30_Node000024_Node000025" class="edge">
<title>Node24&#45;&gt;Node25</title>
<g id="a_edge30_Node000024_Node000025"><a xlink:title=" ">
<path fill="none" stroke="#63b8ff" d="M312.12,-55.59C312.12,-49.01 312.12,-39.96 312.12,-31.73"/>
<polygon fill="#63b8ff" stroke="#63b8ff" points="315.63,-31.81 312.13,-21.81 308.63,-31.81 315.63,-31.81"/>
</a>
</g>
</g>
<!-- Node29&#45;&gt;Node7 -->
<g id="edge35_Node000029_Node000007" class="edge">
<title>Node29&#45;&gt;Node7</title>
<g id="a_edge35_Node000029_Node000007"><a xlink:title=" ">
<path fill="none" stroke="#63b8ff" d="M513.54,-167.72C536.19,-159.1 570.18,-146.18 595.8,-136.43"/>
<polygon fill="#63b8ff" stroke="#63b8ff" points="597.04,-139.71 605.14,-132.88 594.55,-133.16 597.04,-139.71"/>
</a>
</g>
</g>
</g>
</svg>
