<?xml version="1.0" encoding="UTF-8" standalone="no"?>
<!DOCTYPE svg PUBLIC "-//W3C//DTD SVG 1.1//EN"
 "http://www.w3.org/Graphics/SVG/1.1/DTD/svg11.dtd">
<!-- Generated by graphviz version 14.1.4 (20260321.0153)
 -->
<!-- Title: curve/datab.c Pages: 1 -->
<!--zoomable 252 -->

<svg id="main" version="1.1" xmlns="http://www.w3.org/2000/svg" xmlns:xlink="http://www.w3.org/1999/xlink" xml:space="preserve" onload="init(evt)">

<style type="text/css"><![CDATA[
.node, .edge {opacity: 0.7;}
.node.selected, .edge.selected {opacity: 1;}
.edge:hover path { stroke: red; }
.edge:hover polygon { stroke: red; fill: red; }
]]></style>

<defs>
  <circle id="rim" cx="0" cy="0" r="7"/>
  <circle id="rim2" cx="0" cy="0" r="3.5"/>
  <g id="zoomPlus">
    <use xlink:href="#rim" fill="#404040"><set attributeName="fill" to="#808080" begin="zoomplus.mouseover" end="zoomplus.mouseout"/></use>
    <path d="M-4,0h8M0,-4v8" fill="none" stroke="white" stroke-width="1.5" pointer-events="none"/>
  </g>
  <g id="zoomMin">
    <use xlink:href="#rim" fill="#404040"><set attributeName="fill" to="#808080" begin="zoomminus.mouseover" end="zoomminus.mouseout"/></use>
    <path d="M-4,0h8" fill="none" stroke="white" stroke-width="1.5" pointer-events="none"/>
  </g>
  <g id="arrowUp" transform="translate(30 24)">
    <use xlink:href="#rim"/>
    <path pointer-events="none" fill="none" stroke="white" stroke-width="1.5" d="M0,-3.0v7 M-2.5,-0.5L0,-3.0L2.5,-0.5"/>
  </g>
  <g id="arrowRight" transform="rotate(90) translate(36 -43)">
    <use xlink:href="#rim"/>
    <path pointer-events="none" fill="none" stroke="white" stroke-width="1.5" d="M0,-3.0v7 M-2.5,-0.5L0,-3.0L2.5,-0.5"/>
  </g>
  <g id="arrowDown" transform="rotate(180) translate(-30 -48)">
    <use xlink:href="#rim"/>
    <path pointer-events="none" fill="none" stroke="white" stroke-width="1.5" d="M0,-3.0v7 M-2.5,-0.5L0,-3.0L2.5,-0.5"/>
  </g>
  <g id="arrowLeft" transform="rotate(270) translate(-36 17)">
    <use xlink:href="#rim"/>
    <path pointer-events="none" fill="none" stroke="white" stroke-width="1.5" d="M0,-3.0v7 M-2.5,-0.5L0,-3.0L2.5,-0.5"/>
  </g>
  <g id="resetDef">
    <use xlink:href="#rim2" fill="#404040"><set attributeName="fill" to="#808080" begin="reset.mouseover" end="reset.mouseout"/></use>
  </g>
</defs>
<script type="application/ecmascript">
var viewWidth = 1748;
var viewHeight = 252;
var sectionId = 'dynsection-0';
</script>
<script type="application/ecmascript" xlink:href="../../svg.min.js"/>
<svg id="graph" class="graph">
<g id="viewport">
<title>curve/datab.c</title>
<!-- Node1 -->
<g id="Node000001" class="node">
<title>Node1</title>
<g id="a_Node000001"><a xlink:title="Curve data edition window and associated callbacks.">
<polygon fill="#999999" stroke="#666666" points="595.75,-244 520.5,-244 520.5,-224 595.75,-224 595.75,-244"/>
<text xml:space="preserve" text-anchor="middle" x="558.12" y="-230.5" font-family="Helvetica,sans-Serif" font-size="10.00">curve/datab.c</text>
</a>
</g>
</g>
<!-- Node2 -->
<g id="Node000002" class="node">
<title>Node2</title>
<g id="a_Node000002"><a xlink:title=" ">
<polygon fill="#e0e0e0" stroke="#999999" points="54.25,-76 0,-76 0,-56 54.25,-56 54.25,-76"/>
<text xml:space="preserve" text-anchor="middle" x="27.12" y="-62.5" font-family="Helvetica,sans-Serif" font-size="10.00">gtk/gtk.h</text>
</a>
</g>
</g>
<!-- Node1&#45;&gt;Node2 -->
<g id="edge1_Node000001_Node000002" class="edge">
<title>Node1&#45;&gt;Node2</title>
<g id="a_edge1_Node000001_Node000002"><a xlink:title=" ">
<path fill="none" stroke="#63b8ff" d="M520.35,-225.95C480.05,-218.08 414.52,-204.29 359.12,-188 247.71,-155.24 119.53,-104.77 60.3,-80.69"/>
<polygon fill="#63b8ff" stroke="#63b8ff" points="61.72,-77.49 51.14,-76.95 59.07,-83.97 61.72,-77.49"/>
</a>
</g>
</g>
<!-- Node3 -->
<g id="Node000003" class="node">
<title>Node3</title>
<g id="a_Node000003"><a xlink:title=" ">
<polygon fill="#e0e0e0" stroke="#999999" points="413.75,-188 368.5,-188 368.5,-168 413.75,-168 413.75,-188"/>
<text xml:space="preserve" text-anchor="middle" x="391.12" y="-174.5" font-family="Helvetica,sans-Serif" font-size="10.00">cairo.h</text>
</a>
</g>
</g>
<!-- Node1&#45;&gt;Node3 -->
<g id="edge2_Node000001_Node000003" class="edge">
<title>Node1&#45;&gt;Node3</title>
<g id="a_edge2_Node000001_Node000003"><a xlink:title=" ">
<path fill="none" stroke="#63b8ff" d="M529.04,-223.59C499.99,-214.2 455.38,-199.78 424.81,-189.89"/>
<polygon fill="#63b8ff" stroke="#63b8ff" points="426.27,-186.69 415.68,-186.94 424.12,-193.35 426.27,-186.69"/>
</a>
</g>
</g>
<!-- Node4 -->
<g id="Node000004" class="node">
<title>Node4</title>
<g id="a_Node000004"><a xlink:title=" ">
<polygon fill="#e0e0e0" stroke="#999999" points="120.25,-76 72,-76 72,-56 120.25,-56 120.25,-76"/>
<text xml:space="preserve" text-anchor="middle" x="96.12" y="-62.5" font-family="Helvetica,sans-Serif" font-size="10.00">string.h</text>
</a>
</g>
</g>
<!-- Node1&#45;&gt;Node4 -->
<g id="edge3_Node000001_Node000004" class="edge">
<title>Node1&#45;&gt;Node4</title>
<g id="a_edge3_Node000001_Node000004"><a xlink:title=" ">
<path fill="none" stroke="#63b8ff" d="M540.6,-223.51C515.2,-210.02 466.47,-185.02 423.12,-168 368.66,-146.61 204.43,-98.35 131.59,-77.22"/>
<polygon fill="#63b8ff" stroke="#63b8ff" points="132.74,-73.92 122.16,-74.5 130.8,-80.64 132.74,-73.92"/>
</a>
</g>
</g>
<!-- Node5 -->
<g id="Node000005" class="node">
<title>Node5</title>
<g id="a_Node000005"><a xlink:title=" ">
<polygon fill="#e0e0e0" stroke="#999999" points="185.88,-76 138.38,-76 138.38,-56 185.88,-56 185.88,-76"/>
<text xml:space="preserve" text-anchor="middle" x="162.12" y="-62.5" font-family="Helvetica,sans-Serif" font-size="10.00">stdlib.h</text>
</a>
</g>
</g>
<!-- Node1&#45;&gt;Node5 -->
<g id="edge4_Node000001_Node000005" class="edge">
<title>Node1&#45;&gt;Node5</title>
<g id="a_edge4_Node000001_Node000005"><a xlink:title=" ">
<path fill="none" stroke="#63b8ff" d="M542.43,-223.57C529.66,-215.34 511.74,-202.47 499.12,-188 473.62,-158.75 488.23,-133.8 456.12,-112 362.18,-48.21 312.88,-96.34 197.22,-76.05"/>
<polygon fill="#63b8ff" stroke="#63b8ff" points="198.15,-72.67 187.68,-74.23 196.84,-79.55 198.15,-72.67"/>
</a>
</g>
</g>
<!-- Node6 -->
<g id="Node000006" class="node">
<title>Node6</title>
<g id="a_Node000006"><a xlink:title=" ">
<polygon fill="#e0e0e0" stroke="#999999" points="981.12,-20 935.12,-20 935.12,0 981.12,0 981.12,-20"/>
<text xml:space="preserve" text-anchor="middle" x="958.12" y="-6.5" font-family="Helvetica,sans-Serif" font-size="10.00">math.h</text>
</a>
</g>
</g>
<!-- Node1&#45;&gt;Node6 -->
<g id="edge5_Node000001_Node000006" class="edge">
<title>Node1&#45;&gt;Node6</title>
<g id="a_edge5_Node000001_Node000006"><a xlink:title=" ">
<path fill="none" stroke="#63b8ff" d="M596.09,-230.86C789.36,-219.57 1657.94,-164.17 1735.12,-76 1740.98,-69.31 1741.23,-62.46 1735.12,-56 1709.3,-28.64 1140.21,-14.82 992.76,-11.7"/>
<polygon fill="#63b8ff" stroke="#63b8ff" points="992.93,-8.2 982.86,-11.49 992.78,-15.2 992.93,-8.2"/>
</a>
</g>
</g>
<!-- Node7 -->
<g id="Node000007" class="node">
<title>Node7</title>
<g id="a_Node000007"><a xlink:href="../../d2/d49/global_8h.html" target="_top" xlink:title="Global variable declarations &#160;&#160;Global convenience function declarations &#160;&#160;Global data structure defin...">
<polygon fill="white" stroke="#666666" points="713,-132 663.25,-132 663.25,-112 713,-112 713,-132"/>
<text xml:space="preserve" text-anchor="middle" x="688.12" y="-118.5" font-family="Helvetica,sans-Serif" font-size="10.00">global.h</text>
</a>
</g>
</g>
<!-- Node1&#45;&gt;Node7 -->
<g id="edge6_Node000001_Node000007" class="edge">
<title>Node1&#45;&gt;Node7</title>
<g id="a_edge6_Node000001_Node000007"><a xlink:title=" ">
<path fill="none" stroke="#63b8ff" d="M562.78,-223.55C569.91,-209.87 584.65,-184.4 603.12,-168 617.67,-155.09 636.58,-144.61 652.86,-137.02"/>
<polygon fill="#63b8ff" stroke="#63b8ff" points="654.02,-140.34 661.73,-133.07 651.18,-133.94 654.02,-140.34"/>
</a>
</g>
</g>
<!-- Node28 -->
<g id="Node000028" class="node">
<title>Node28</title>
<g id="a_Node000028"><a xlink:href="../../d4/da9/interface_8h.html" target="_top" xlink:title="Messaging function declarations.">
<polygon fill="white" stroke="#666666" points="674,-188 612.25,-188 612.25,-168 674,-168 674,-188"/>
<text xml:space="preserve" text-anchor="middle" x="643.12" y="-174.5" font-family="Helvetica,sans-Serif" font-size="10.00">interface.h</text>
</a>
</g>
</g>
<!-- Node1&#45;&gt;Node28 -->
<g id="edge33_Node000001_Node000028" class="edge">
<title>Node1&#45;&gt;Node28</title>
<g id="a_edge33_Node000001_Node000028"><a xlink:title=" ">
<path fill="none" stroke="#63b8ff" d="M572.93,-223.59C585.53,-215.59 603.88,-203.93 618.66,-194.54"/>
<polygon fill="#63b8ff" stroke="#63b8ff" points="620.36,-197.61 626.93,-189.29 616.61,-191.7 620.36,-197.61"/>
</a>
</g>
</g>
<!-- Node29 -->
<g id="Node000029" class="node">
<title>Node29</title>
<g id="a_Node000029"><a xlink:href="../../dd/d49/callbacks_8h.html" target="_top" xlink:title="Callback declarations for main window.">
<polygon fill="white" stroke="#666666" points="757.88,-188 692.38,-188 692.38,-168 757.88,-168 757.88,-188"/>
<text xml:space="preserve" text-anchor="middle" x="725.12" y="-174.5" font-family="Helvetica,sans-Serif" font-size="10.00">callbacks.h</text>
</a>
</g>
</g>
<!-- Node1&#45;&gt;Node29 -->
<g id="edge34_Node000001_Node000029" class="edge">
<title>Node1&#45;&gt;Node29</title>
<g id="a_edge34_Node000001_Node000029"><a xlink:title=" ">
<path fill="none" stroke="#63b8ff" d="M587.21,-223.59C614.35,-214.82 655.06,-201.66 685.22,-191.9"/>
<polygon fill="#63b8ff" stroke="#63b8ff" points="685.93,-195.35 694.37,-188.95 683.78,-188.69 685.93,-195.35"/>
</a>
</g>
</g>
<!-- Node30 -->
<g id="Node000030" class="node">
<title>Node30</title>
<g id="a_Node000030"><a xlink:href="../../dc/d8d/project_8h.html" target="_top" xlink:title="Function declarations for reading atomes project file &#160;&#160;Function declarations for saving atomes proje...">
<polygon fill="white" stroke="#666666" points="829.88,-188 776.38,-188 776.38,-168 829.88,-168 829.88,-188"/>
<text xml:space="preserve" text-anchor="middle" x="803.12" y="-174.5" font-family="Helvetica,sans-Serif" font-size="10.00">project.h</text>
</a>
</g>
</g>
<!-- Node1&#45;&gt;Node30 -->
<g id="edge35_Node000001_Node000030" class="edge">
<title>Node1&#45;&gt;Node30</title>
<g id="a_edge35_Node000001_Node000030"><a xlink:title=" ">
<path fill="none" stroke="#63b8ff" d="M595.96,-225.24C635.68,-217.02 700.21,-203.41 765.17,-188.4"/>
<polygon fill="#63b8ff" stroke="#63b8ff" points="765.6,-191.89 774.55,-186.22 764.01,-185.07 765.6,-191.89"/>
</a>
</g>
</g>
<!-- Node31 -->
<g id="Node000031" class="node">
<title>Node31</title>
<g id="a_Node000031"><a xlink:href="../../df/de9/curve_8h.html" target="_top" xlink:title="Variable declarations for the curve widget &#160;&#160;Functions for interactions with the curve widget.">
<polygon fill="white" stroke="#666666" points="556.25,-188 508,-188 508,-168 556.25,-168 556.25,-188"/>
<text xml:space="preserve" text-anchor="middle" x="532.12" y="-174.5" font-family="Helvetica,sans-Serif" font-size="10.00">curve.h</text>
</a>
</g>
</g>
<!-- Node1&#45;&gt;Node31 -->
<g id="edge36_Node000001_Node000031" class="edge">
<title>Node1&#45;&gt;Node31</title>
<g id="a_edge36_Node000001_Node000031"><a xlink:title=" ">
<path fill="none" stroke="#63b8ff" d="M553.6,-223.59C550.28,-216.7 545.66,-207.1 541.55,-198.57"/>
<polygon fill="#63b8ff" stroke="#63b8ff" points="544.75,-197.15 537.26,-189.66 538.44,-200.19 544.75,-197.15"/>
</a>
</g>
</g>
<!-- Node7&#45;&gt;Node2 -->
<g id="edge18_Node000007_Node000002" class="edge">
<title>Node7&#45;&gt;Node2</title>
<g id="a_edge18_Node000007_Node000002"><a xlink:title=" ">
<path fill="none" stroke="#63b8ff" d="M662.94,-120.75C579.27,-119.58 302.91,-113.11 65.8,-76.16"/>
<polygon fill="#63b8ff" stroke="#63b8ff" points="66.46,-72.72 56.04,-74.61 65.37,-79.63 66.46,-72.72"/>
</a>
</g>
</g>
<!-- Node7&#45;&gt;Node4 -->
<g id="edge12_Node000007_Node000004" class="edge">
<title>Node7&#45;&gt;Node4</title>
<g id="a_edge12_Node000007_Node000004"><a xlink:title=" ">
<path fill="none" stroke="#63b8ff" d="M663.05,-119.6C571.52,-114.41 254.81,-95.61 131.8,-76.09"/>
<polygon fill="#63b8ff" stroke="#63b8ff" points="132.45,-72.65 122.01,-74.45 131.3,-79.55 132.45,-72.65"/>
</a>
</g>
</g>
<!-- Node7&#45;&gt;Node5 -->
<g id="edge14_Node000007_Node000005" class="edge">
<title>Node7&#45;&gt;Node5</title>
<g id="a_edge14_Node000007_Node000005"><a xlink:title=" ">
<path fill="none" stroke="#63b8ff" d="M662.78,-120.25C591.13,-117.81 380.96,-108.38 197.38,-76.09"/>
<polygon fill="#63b8ff" stroke="#63b8ff" points="198.11,-72.66 187.65,-74.35 196.88,-79.55 198.11,-72.66"/>
</a>
</g>
</g>
<!-- Node7&#45;&gt;Node6 -->
<g id="edge17_Node000007_Node000006" class="edge">
<title>Node7&#45;&gt;Node6</title>
<g id="a_edge17_Node000007_Node000006"><a xlink:title=" ">
<path fill="none" stroke="#63b8ff" d="M713.32,-119.78C770.17,-116.52 906.03,-105.73 939.12,-76 951.57,-64.82 956.05,-45.98 957.58,-31.46"/>
<polygon fill="#63b8ff" stroke="#63b8ff" points="961.06,-31.81 958.19,-21.61 954.07,-31.38 961.06,-31.81"/>
</a>
</g>
</g>
<!-- Node8 -->
<g id="Node000008" class="node">
<title>Node8</title>
<g id="a_Node000008"><a xlink:title=" ">
<polygon fill="#e0e0e0" stroke="#999999" points="534.5,-76 487.75,-76 487.75,-56 534.5,-56 534.5,-76"/>
<text xml:space="preserve" text-anchor="middle" x="511.12" y="-62.5" font-family="Helvetica,sans-Serif" font-size="10.00">libintl.h</text>
</a>
</g>
</g>
<!-- Node7&#45;&gt;Node8 -->
<g id="edge7_Node000007_Node000008" class="edge">
<title>Node7&#45;&gt;Node8</title>
<g id="a_edge7_Node000007_Node000008"><a xlink:title=" ">
<path fill="none" stroke="#63b8ff" d="M662.77,-113.26C632.02,-103.88 580.06,-88.03 545.67,-77.54"/>
<polygon fill="#63b8ff" stroke="#63b8ff" points="546.77,-74.22 536.19,-74.65 544.73,-80.91 546.77,-74.22"/>
</a>
</g>
</g>
<!-- Node9 -->
<g id="Node000009" class="node">
<title>Node9</title>
<g id="a_Node000009"><a xlink:title=" ">
<polygon fill="#e0e0e0" stroke="#999999" points="602,-76 552.25,-76 552.25,-56 602,-56 602,-76"/>
<text xml:space="preserve" text-anchor="middle" x="577.12" y="-62.5" font-family="Helvetica,sans-Serif" font-size="10.00">locale.h</text>
</a>
</g>
</g>
<!-- Node7&#45;&gt;Node9 -->
<g id="edge8_Node000007_Node000009" class="edge">
<title>Node7&#45;&gt;Node9</title>
<g id="a_edge8_Node000007_Node000009"><a xlink:title=" ">
<path fill="none" stroke="#63b8ff" d="M668.79,-111.59C651.71,-103.28 626.52,-91.03 606.87,-81.47"/>
<polygon fill="#63b8ff" stroke="#63b8ff" points="608.5,-78.37 597.97,-77.14 605.43,-84.66 608.5,-78.37"/>
</a>
</g>
</g>
<!-- Node10 -->
<g id="Node000010" class="node">
<title>Node10</title>
<g id="a_Node000010"><a xlink:title=" ">
<polygon fill="#e0e0e0" stroke="#999999" points="659.75,-76 620.5,-76 620.5,-56 659.75,-56 659.75,-76"/>
<text xml:space="preserve" text-anchor="middle" x="640.12" y="-62.5" font-family="Helvetica,sans-Serif" font-size="10.00">glib.h</text>
</a>
</g>
</g>
<!-- Node7&#45;&gt;Node10 -->
<g id="edge9_Node000007_Node000010" class="edge">
<title>Node7&#45;&gt;Node10</title>
<g id="a_edge9_Node000007_Node000010"><a xlink:title=" ">
<path fill="none" stroke="#63b8ff" d="M679.76,-111.59C673.23,-104.24 663.94,-93.8 656.01,-84.87"/>
<polygon fill="#63b8ff" stroke="#63b8ff" points="658.66,-82.58 649.4,-77.43 653.42,-87.23 658.66,-82.58"/>
</a>
</g>
</g>
<!-- Node11 -->
<g id="Node000011" class="node">
<title>Node11</title>
<g id="a_Node000011"><a xlink:title=" ">
<polygon fill="#e0e0e0" stroke="#999999" points="861.88,-76 796.38,-76 796.38,-56 861.88,-56 861.88,-76"/>
<text xml:space="preserve" text-anchor="middle" x="829.12" y="-62.5" font-family="Helvetica,sans-Serif" font-size="10.00">glib/gi18n.h</text>
</a>
</g>
</g>
<!-- Node7&#45;&gt;Node11 -->
<g id="edge10_Node000007_Node000011" class="edge">
<title>Node7&#45;&gt;Node11</title>
<g id="a_edge10_Node000007_Node000011"><a xlink:title=" ">
<path fill="none" stroke="#63b8ff" d="M712.69,-111.59C735.09,-103.01 768.46,-90.23 793.74,-80.55"/>
<polygon fill="#63b8ff" stroke="#63b8ff" points="794.87,-83.87 802.96,-77.02 792.37,-77.33 794.87,-83.87"/>
</a>
</g>
</g>
<!-- Node12 -->
<g id="Node000012" class="node">
<title>Node12</title>
<g id="a_Node000012"><a xlink:title=" ">
<polygon fill="#e0e0e0" stroke="#999999" points="930.38,-76 879.88,-76 879.88,-56 930.38,-56 930.38,-76"/>
<text xml:space="preserve" text-anchor="middle" x="905.12" y="-62.5" font-family="Helvetica,sans-Serif" font-size="10.00">unistd.h</text>
</a>
</g>
</g>
<!-- Node7&#45;&gt;Node12 -->
<g id="edge11_Node000007_Node000012" class="edge">
<title>Node7&#45;&gt;Node12</title>
<g id="a_edge11_Node000007_Node000012"><a xlink:title=" ">
<path fill="none" stroke="#63b8ff" d="M713.32,-114.95C746.64,-106.93 807.45,-92.16 868.52,-76.63"/>
<polygon fill="#63b8ff" stroke="#63b8ff" points="869.23,-80.07 878.05,-74.2 867.5,-73.28 869.23,-80.07"/>
</a>
</g>
</g>
<!-- Node13 -->
<g id="Node000013" class="node">
<title>Node13</title>
<g id="a_Node000013"><a xlink:title=" ">
<polygon fill="#e0e0e0" stroke="#999999" points="739.75,-20 694.5,-20 694.5,0 739.75,0 739.75,-20"/>
<text xml:space="preserve" text-anchor="middle" x="717.12" y="-6.5" font-family="Helvetica,sans-Serif" font-size="10.00">stdio.h</text>
</a>
</g>
</g>
<!-- Node7&#45;&gt;Node13 -->
<g id="edge13_Node000007_Node000013" class="edge">
<title>Node7&#45;&gt;Node13</title>
<g id="a_edge13_Node000007_Node000013"><a xlink:title=" ">
<path fill="none" stroke="#63b8ff" d="M690.6,-111.62C695.26,-93.92 705.46,-55.24 711.77,-31.32"/>
<polygon fill="#63b8ff" stroke="#63b8ff" points="715.11,-32.38 714.27,-21.82 708.34,-30.6 715.11,-32.38"/>
</a>
</g>
</g>
<!-- Node14 -->
<g id="Node000014" class="node">
<title>Node14</title>
<g id="a_Node000014"><a xlink:title=" ">
<polygon fill="#e0e0e0" stroke="#999999" points="1053.62,-76 986.62,-76 986.62,-56 1053.62,-56 1053.62,-76"/>
<text xml:space="preserve" text-anchor="middle" x="1020.12" y="-62.5" font-family="Helvetica,sans-Serif" font-size="10.00">sys/types.h</text>
</a>
</g>
</g>
<!-- Node7&#45;&gt;Node14 -->
<g id="edge15_Node000007_Node000014" class="edge">
<title>Node7&#45;&gt;Node14</title>
<g id="a_edge15_Node000007_Node000014"><a xlink:title=" ">
<path fill="none" stroke="#63b8ff" d="M713.24,-117.26C762.81,-109.84 876.7,-92.5 972.12,-76 973.13,-75.83 974.15,-75.65 975.17,-75.47"/>
<polygon fill="#63b8ff" stroke="#63b8ff" points="975.61,-78.95 984.83,-73.73 974.37,-72.06 975.61,-78.95"/>
</a>
</g>
</g>
<!-- Node15 -->
<g id="Node000015" class="node">
<title>Node15</title>
<g id="a_Node000015"><a xlink:title=" ">
<polygon fill="#e0e0e0" stroke="#999999" points="1130.88,-76 1071.38,-76 1071.38,-56 1130.88,-56 1130.88,-76"/>
<text xml:space="preserve" text-anchor="middle" x="1101.12" y="-62.5" font-family="Helvetica,sans-Serif" font-size="10.00">sys/stat.h</text>
</a>
</g>
</g>
<!-- Node7&#45;&gt;Node15 -->
<g id="edge16_Node000007_Node000015" class="edge">
<title>Node7&#45;&gt;Node15</title>
<g id="a_edge16_Node000007_Node000015"><a xlink:title=" ">
<path fill="none" stroke="#63b8ff" d="M713.28,-118.97C772.25,-114.01 924.1,-100.01 1059.91,-76.42"/>
<polygon fill="#63b8ff" stroke="#63b8ff" points="1060.18,-79.93 1069.42,-74.75 1058.96,-73.03 1060.18,-79.93"/>
</a>
</g>
</g>
<!-- Node16 -->
<g id="Node000016" class="node">
<title>Node16</title>
<g id="a_Node000016"><a xlink:title=" ">
<polygon fill="#e0e0e0" stroke="#999999" points="1208.88,-76 1149.38,-76 1149.38,-56 1208.88,-56 1208.88,-76"/>
<text xml:space="preserve" text-anchor="middle" x="1179.12" y="-62.5" font-family="Helvetica,sans-Serif" font-size="10.00">gtk/gtkx.h</text>
</a>
</g>
</g>
<!-- Node7&#45;&gt;Node16 -->
<g id="edge19_Node000007_Node000016" class="edge">
<title>Node7&#45;&gt;Node16</title>
<g id="a_edge19_Node000007_Node000016"><a xlink:title=" ">
<path fill="none" stroke="#63b8ff" d="M713.26,-119.63C780.48,-115.71 970.08,-103.13 1137.7,-76.2"/>
<polygon fill="#63b8ff" stroke="#63b8ff" points="1138.17,-79.67 1147.47,-74.6 1137.04,-72.76 1138.17,-79.67"/>
</a>
</g>
</g>
<!-- Node17 -->
<g id="Node000017" class="node">
<title>Node17</title>
<g id="a_Node000017"><a xlink:title=" ">
<polygon fill="#e0e0e0" stroke="#999999" points="1285.5,-76 1226.75,-76 1226.75,-56 1285.5,-56 1285.5,-76"/>
<text xml:space="preserve" text-anchor="middle" x="1256.12" y="-62.5" font-family="Helvetica,sans-Serif" font-size="10.00">gdk/gdk.h</text>
</a>
</g>
</g>
<!-- Node7&#45;&gt;Node17 -->
<g id="edge20_Node000007_Node000017" class="edge">
<title>Node7&#45;&gt;Node17</title>
<g id="a_edge20_Node000007_Node000017"><a xlink:title=" ">
<path fill="none" stroke="#63b8ff" d="M713.39,-120.18C788.46,-117.47 1016.81,-107.21 1215.12,-76.27"/>
<polygon fill="#63b8ff" stroke="#63b8ff" points="1215.51,-79.75 1224.84,-74.73 1214.42,-72.84 1215.51,-79.75"/>
</a>
</g>
</g>
<!-- Node18 -->
<g id="Node000018" class="node">
<title>Node18</title>
<g id="a_Node000018"><a xlink:title=" ">
<polygon fill="#e0e0e0" stroke="#999999" points="1402.38,-76 1303.88,-76 1303.88,-56 1402.38,-56 1402.38,-76"/>
<text xml:space="preserve" text-anchor="middle" x="1353.12" y="-62.5" font-family="Helvetica,sans-Serif" font-size="10.00">gdk/gdkkeysyms.h</text>
</a>
</g>
</g>
<!-- Node7&#45;&gt;Node18 -->
<g id="edge21_Node000007_Node000018" class="edge">
<title>Node7&#45;&gt;Node18</title>
<g id="a_edge21_Node000007_Node000018"><a xlink:title=" ">
<path fill="none" stroke="#63b8ff" d="M713.3,-119.83C795.07,-115.88 1060.78,-101.89 1292.24,-76.12"/>
<polygon fill="#63b8ff" stroke="#63b8ff" points="1292.54,-79.61 1302.08,-75.01 1291.75,-72.65 1292.54,-79.61"/>
</a>
</g>
</g>
<!-- Node19 -->
<g id="Node000019" class="node">
<title>Node19</title>
<g id="a_Node000019"><a xlink:title=" ">
<polygon fill="#e0e0e0" stroke="#999999" points="1537.75,-76 1420.5,-76 1420.5,-56 1537.75,-56 1537.75,-76"/>
<text xml:space="preserve" text-anchor="middle" x="1479.12" y="-62.5" font-family="Helvetica,sans-Serif" font-size="10.00">gdk&#45;pixbuf/gdk&#45;pixbuf.h</text>
</a>
</g>
</g>
<!-- Node7&#45;&gt;Node19 -->
<g id="edge22_Node000007_Node000019" class="edge">
<title>Node7&#45;&gt;Node19</title>
<g id="a_edge22_Node000007_Node000019"><a xlink:title=" ">
<path fill="none" stroke="#63b8ff" d="M713.47,-120.06C805.36,-116.52 1129.85,-102.85 1409.02,-76.13"/>
<polygon fill="#63b8ff" stroke="#63b8ff" points="1409.06,-79.65 1418.68,-75.2 1408.39,-72.68 1409.06,-79.65"/>
</a>
</g>
</g>
<!-- Node20 -->
<g id="Node000020" class="node">
<title>Node20</title>
<g id="a_Node000020"><a xlink:title=" ">
<polygon fill="#e0e0e0" stroke="#999999" points="1646.62,-76 1555.62,-76 1555.62,-56 1646.62,-56 1646.62,-76"/>
<text xml:space="preserve" text-anchor="middle" x="1601.12" y="-62.5" font-family="Helvetica,sans-Serif" font-size="10.00">pango/pangoft2.h</text>
</a>
</g>
</g>
<!-- Node7&#45;&gt;Node20 -->
<g id="edge23_Node000007_Node000020" class="edge">
<title>Node7&#45;&gt;Node20</title>
<g id="a_edge23_Node000007_Node000020"><a xlink:title=" ">
<path fill="none" stroke="#63b8ff" d="M713.16,-120.72C815.17,-119.36 1209.67,-112.03 1543.85,-76.24"/>
<polygon fill="#63b8ff" stroke="#63b8ff" points="1544.15,-79.73 1553.71,-75.18 1543.39,-72.77 1544.15,-79.73"/>
</a>
</g>
</g>
<!-- Node21 -->
<g id="Node000021" class="node">
<title>Node21</title>
<g id="a_Node000021"><a xlink:title=" ">
<polygon fill="#e0e0e0" stroke="#999999" points="1725.62,-76 1664.62,-76 1664.62,-56 1725.62,-56 1725.62,-76"/>
<text xml:space="preserve" text-anchor="middle" x="1695.12" y="-62.5" font-family="Helvetica,sans-Serif" font-size="10.00">epoxy/gl.h</text>
</a>
</g>
</g>
<!-- Node7&#45;&gt;Node21 -->
<g id="edge24_Node000007_Node000021" class="edge">
<title>Node7&#45;&gt;Node21</title>
<g id="a_edge24_Node000007_Node000021"><a xlink:title=" ">
<path fill="none" stroke="#63b8ff" d="M713.08,-120.45C842.98,-117.5 1443.65,-102.7 1652.99,-76.16"/>
<polygon fill="#63b8ff" stroke="#63b8ff" points="1653.18,-79.66 1662.64,-74.88 1652.27,-72.72 1653.18,-79.66"/>
</a>
</g>
</g>
<!-- Node22 -->
<g id="Node000022" class="node">
<title>Node22</title>
<g id="a_Node000022"><a xlink:title=" ">
<polygon fill="#e0e0e0" stroke="#999999" points="256.5,-76 203.75,-76 203.75,-56 256.5,-56 256.5,-76"/>
<text xml:space="preserve" text-anchor="middle" x="230.12" y="-62.5" font-family="Helvetica,sans-Serif" font-size="10.00">GL/glu.h</text>
</a>
</g>
</g>
<!-- Node7&#45;&gt;Node22 -->
<g id="edge25_Node000007_Node000022" class="edge">
<title>Node7&#45;&gt;Node22</title>
<g id="a_edge25_Node000007_Node000022"><a xlink:title=" ">
<path fill="none" stroke="#63b8ff" d="M663.22,-119.56C599.29,-115.59 424.05,-103.12 267.97,-76.07"/>
<polygon fill="#63b8ff" stroke="#63b8ff" points="268.72,-72.65 258.26,-74.36 267.5,-79.54 268.72,-72.65"/>
</a>
</g>
</g>
<!-- Node23 -->
<g id="Node000023" class="node">
<title>Node23</title>
<g id="a_Node000023"><a xlink:title=" ">
<polygon fill="#e0e0e0" stroke="#999999" points="341.25,-76 275,-76 275,-56 341.25,-56 341.25,-76"/>
<text xml:space="preserve" text-anchor="middle" x="308.12" y="-62.5" font-family="Helvetica,sans-Serif" font-size="10.00">epoxy/glx.h</text>
</a>
</g>
</g>
<!-- Node7&#45;&gt;Node23 -->
<g id="edge26_Node000007_Node000023" class="edge">
<title>Node7&#45;&gt;Node23</title>
<g id="a_edge26_Node000007_Node000023"><a xlink:title=" ">
<path fill="none" stroke="#63b8ff" d="M663,-118.34C608.41,-112.42 474.64,-97.11 352.57,-76.31"/>
<polygon fill="#63b8ff" stroke="#63b8ff" points="353.49,-72.92 343.04,-74.67 352.3,-79.81 353.49,-72.92"/>
</a>
</g>
</g>
<!-- Node24 -->
<g id="Node000024" class="node">
<title>Node24</title>
<g id="a_Node000024"><a xlink:href="../../dc/db0/math__3d_8h.html" target="_top" xlink:title="Functions for OpenGL math.">
<polygon fill="white" stroke="#666666" points="778,-76 716.25,-76 716.25,-56 778,-56 778,-76"/>
<text xml:space="preserve" text-anchor="middle" x="747.12" y="-62.5" font-family="Helvetica,sans-Serif" font-size="10.00">math_3d.h</text>
</a>
</g>
</g>
<!-- Node7&#45;&gt;Node24 -->
<g id="edge27_Node000007_Node000024" class="edge">
<title>Node7&#45;&gt;Node24</title>
<g id="a_edge27_Node000007_Node000024"><a xlink:title=" ">
<path fill="none" stroke="#63b8ff" d="M698.4,-111.59C706.69,-104.01 718.57,-93.13 728.53,-84.02"/>
<polygon fill="#63b8ff" stroke="#63b8ff" points="730.84,-86.65 735.85,-77.32 726.11,-81.49 730.84,-86.65"/>
</a>
</g>
</g>
<!-- Node25 -->
<g id="Node000025" class="node">
<title>Node25</title>
<g id="a_Node000025"><a xlink:href="../../d7/d21/cedit_8h.html" target="_top" xlink:title="Variable declarations for the curve layout edition window.">
<polygon fill="white" stroke="#666666" points="404.75,-76 359.5,-76 359.5,-56 404.75,-56 404.75,-76"/>
<text xml:space="preserve" text-anchor="middle" x="382.12" y="-62.5" font-family="Helvetica,sans-Serif" font-size="10.00">cedit.h</text>
</a>
</g>
</g>
<!-- Node7&#45;&gt;Node25 -->
<g id="edge30_Node000007_Node000025" class="edge">
<title>Node7&#45;&gt;Node25</title>
<g id="a_edge30_Node000007_Node000025"><a xlink:title=" ">
<path fill="none" stroke="#63b8ff" d="M663.01,-117.83C616.36,-111.74 513,-97.29 416.27,-76.26"/>
<polygon fill="#63b8ff" stroke="#63b8ff" points="417.12,-72.86 406.6,-74.12 415.61,-79.7 417.12,-72.86"/>
</a>
</g>
</g>
<!-- Node26 -->
<g id="Node000026" class="node">
<title>Node26</title>
<g id="a_Node000026"><a xlink:href="../../da/d7e/glwin_8h.html" target="_top" xlink:title="Variable declarations related the OpenGL window &#160;&#160;Data structure declarations related the OpenGL wind...">
<polygon fill="white" stroke="#666666" points="469.5,-76 422.75,-76 422.75,-56 469.5,-56 469.5,-76"/>
<text xml:space="preserve" text-anchor="middle" x="446.12" y="-62.5" font-family="Helvetica,sans-Serif" font-size="10.00">glwin.h</text>
</a>
</g>
</g>
<!-- Node7&#45;&gt;Node26 -->
<g id="edge31_Node000007_Node000026" class="edge">
<title>Node7&#45;&gt;Node26</title>
<g id="a_edge31_Node000007_Node000026"><a xlink:title=" ">
<path fill="none" stroke="#63b8ff" d="M662.93,-116.03C625.48,-108.56 552.68,-93.64 480.92,-76.33"/>
<polygon fill="#63b8ff" stroke="#63b8ff" points="481.89,-72.96 471.35,-74 480.24,-79.76 481.89,-72.96"/>
</a>
</g>
</g>
<!-- Node24&#45;&gt;Node6 -->
<g id="edge28_Node000024_Node000006" class="edge">
<title>Node24&#45;&gt;Node6</title>
<g id="a_edge28_Node000024_Node000006"><a xlink:title=" ">
<path fill="none" stroke="#63b8ff" d="M778.26,-57.03C817.07,-47.1 883.21,-30.17 923.56,-19.85"/>
<polygon fill="#63b8ff" stroke="#63b8ff" points="924.41,-23.24 933.23,-17.37 922.68,-16.46 924.41,-23.24"/>
</a>
</g>
</g>
<!-- Node24&#45;&gt;Node13 -->
<g id="edge29_Node000024_Node000013" class="edge">
<title>Node24&#45;&gt;Node13</title>
<g id="a_edge29_Node000024_Node000013"><a xlink:title=" ">
<path fill="none" stroke="#63b8ff" d="M741.9,-55.59C738.03,-48.63 732.62,-38.89 727.84,-30.29"/>
<polygon fill="#63b8ff" stroke="#63b8ff" points="730.94,-28.66 723.03,-21.62 724.82,-32.06 730.94,-28.66"/>
</a>
</g>
</g>
<!-- Node27 -->
<g id="Node000027" class="node">
<title>Node27</title>
<g id="a_Node000027"><a xlink:href="../../d5/d9e/ogl__shading_8h.html" target="_top" xlink:title="Variable declarations related to GLSL programs &#160;&#160;Data structure declarations related to GLSL programs...">
<polygon fill="white" stroke="#666666" points="484.12,-20 408.12,-20 408.12,0 484.12,0 484.12,-20"/>
<text xml:space="preserve" text-anchor="middle" x="446.12" y="-6.5" font-family="Helvetica,sans-Serif" font-size="10.00">ogl_shading.h</text>
</a>
</g>
</g>
<!-- Node26&#45;&gt;Node27 -->
<g id="edge32_Node000026_Node000027" class="edge">
<title>Node26&#45;&gt;Node27</title>
<g id="a_edge32_Node000026_Node000027"><a xlink:title=" ">
<path fill="none" stroke="#63b8ff" d="M446.12,-55.59C446.12,-49.01 446.12,-39.96 446.12,-31.73"/>
<polygon fill="#63b8ff" stroke="#63b8ff" points="449.63,-31.81 446.13,-21.81 442.63,-31.81 449.63,-31.81"/>
</a>
</g>
</g>
<!-- Node31&#45;&gt;Node7 -->
<g id="edge37_Node000031_Node000007" class="edge">
<title>Node31&#45;&gt;Node7</title>
<g id="a_edge37_Node000031_Node000007"><a xlink:title=" ">
<path fill="none" stroke="#63b8ff" d="M556.5,-168.56C582.18,-159.67 622.9,-145.58 652.25,-135.42"/>
<polygon fill="#63b8ff" stroke="#63b8ff" points="653.15,-138.81 661.46,-132.23 650.86,-132.19 653.15,-138.81"/>
</a>
</g>
</g>
</g>
</svg>

<g id="navigator" transform="translate(0 0)" fill="#404254">
  <rect fill="#f2f5e9" fill-opacity="0.5" stroke="#606060" stroke-width=".5" x="0" y="0" width="60" height="60"/>
  <use id="zoomplus" xlink:href="#zoomPlus" x="17" y="9" onmousedown="handleZoom(evt,'in')"/>
  <use id="zoomminus" xlink:href="#zoomMin" x="42" y="9" onmousedown="handleZoom(evt,'out')"/>
  <use id="reset" xlink:href="#resetDef" x="30" y="36" onmousedown="handleReset()"/>
   <use id="arrowup" xlink:href="#arrowUp" x="0" y="0" onmousedown="handlePan(0,-1)"/>
  <use id="arrowright" xlink:href="#arrowRight" x="0" y="0" onmousedown="handlePan(1,0)"/>
  <use id="arrowdown" xlink:href="#arrowDown" x="0" y="0" onmousedown="handlePan(0,1)"/>
  <use id="arrowleft" xlink:href="#arrowLeft" x="0" y="0" onmousedown="handlePan(-1,0)"/>
</g>
<svg viewBox="0 0 15 15" width="100%" height="30px" preserveAspectRatio="xMaxYMin meet">
 <g id="arrow_out" transform="scale(0.3 0.3)">
  <a xlink:href="datab_8c__incl_org.svg" target="_base">
   <rect id="button" ry="5" rx="5" y="6" x="6" height="38" width="38"
        fill="#f2f5e9" fill-opacity="0.5" stroke="#606060" stroke-width="1.0"/>
   <path id="arrow"
     d="M 11.500037,31.436501 C 11.940474,20.09759 22.043105,11.32322 32.158766,21.979434 L 37.068811,17.246167 C 37.068811,17.246167 37.088388,32 37.088388,32 L 22.160133,31.978069 C 22.160133,31.978069 26.997745,27.140456 26.997745,27.140456 C 18.528582,18.264221 13.291696,25.230495 11.500037,31.436501 z"
     style="fill:#404040;"/>
  </a>
 </g>
</svg>

<style type='text/css'>
<![CDATA[
[data-mouse-over-selected='false'] { opacity: 0.7; }
[data-mouse-over-selected='true']  { opacity: 1.0; }
]]>
</style>
<script type="application/ecmascript"><![CDATA[
document.addEventListener('DOMContentLoaded', (event) => {
  highlightEdges();
  highlightAdjacentNodes();
});
]]></script>
</svg>
