<?xml version="1.0" encoding="UTF-8" standalone="no"?>
<!DOCTYPE svg PUBLIC "-//W3C//DTD SVG 1.1//EN"
 "http://www.w3.org/Graphics/SVG/1.1/DTD/svg11.dtd">
<!-- Generated by graphviz version 7.1.0 (0)
 -->
<!-- Title: cpmd.h Pages: 1 -->
<svg width="541pt" height="82pt"
 viewBox="0.00 0.00 541.00 82.00" xmlns="http://www.w3.org/2000/svg" xmlns:xlink="http://www.w3.org/1999/xlink">
<g id="graph0" class="graph" transform="scale(1 1) rotate(0) translate(4 78)">
<title>cpmd.h</title>
<!-- Node1 -->
<g id="node1" class="node">
<title>Node1</title>
<g id="a_node1"><a xlink:title=" ">
<polygon fill="#999999" stroke="#666666" points="283.5,-74 234.5,-74 234.5,-55 283.5,-55 283.5,-74"/>
<text text-anchor="middle" x="259" y="-62" font-family="Helvetica,sans-Serif" font-size="10.00">cpmd.h</text>
</a>
</g>
</g>
<!-- Node2 -->
<g id="node2" class="node">
<title>Node2</title>
<g id="a_node2"><a xlink:href="../../de/d92/cp2k__init_8c.html" target="_top" xlink:title=" ">
<polygon fill="white" stroke="#666666" points="64,-19 0,-19 0,0 64,0 64,-19"/>
<text text-anchor="middle" x="32" y="-7" font-family="Helvetica,sans-Serif" font-size="10.00">cp2k_init.c</text>
</a>
</g>
</g>
<!-- Node1&#45;&gt;Node2 -->
<g id="edge1" class="edge">
<title>Node1&#45;&gt;Node2</title>
<path fill="none" stroke="#63b8ff" d="M223.33,-55.17C179.68,-44.98 106.41,-27.87 64.34,-18.05"/>
<polygon fill="#63b8ff" stroke="#63b8ff" points="222.27,-58.52 232.8,-57.38 223.86,-51.7 222.27,-58.52"/>
</g>
<!-- Node3 -->
<g id="node3" class="node">
<title>Node3</title>
<g id="a_node3"><a xlink:href="../../d6/d03/cpmd__atoms_8c.html" target="_top" xlink:title=" ">
<polygon fill="white" stroke="#666666" points="163.5,-19 82.5,-19 82.5,0 163.5,0 163.5,-19"/>
<text text-anchor="middle" x="123" y="-7" font-family="Helvetica,sans-Serif" font-size="10.00">cpmd_atoms.c</text>
</a>
</g>
</g>
<!-- Node1&#45;&gt;Node3 -->
<g id="edge2" class="edge">
<title>Node1&#45;&gt;Node3</title>
<path fill="none" stroke="#63b8ff" d="M225.52,-50.45C200.7,-40.78 167.53,-27.85 145.73,-19.36"/>
<polygon fill="#63b8ff" stroke="#63b8ff" points="223.93,-53.59 234.52,-53.96 226.47,-47.07 223.93,-53.59"/>
</g>
<!-- Node4 -->
<g id="node4" class="node">
<title>Node4</title>
<g id="a_node4"><a xlink:href="../../dd/dc0/cpmd__init_8c.html" target="_top" xlink:title=" ">
<polygon fill="white" stroke="#666666" points="248.5,-19 181.5,-19 181.5,0 248.5,0 248.5,-19"/>
<text text-anchor="middle" x="215" y="-7" font-family="Helvetica,sans-Serif" font-size="10.00">cpmd_init.c</text>
</a>
</g>
</g>
<!-- Node1&#45;&gt;Node4 -->
<g id="edge3" class="edge">
<title>Node1&#45;&gt;Node4</title>
<path fill="none" stroke="#63b8ff" d="M244.42,-45.93C237.05,-37.06 228.42,-26.67 222.42,-19.44"/>
<polygon fill="#63b8ff" stroke="#63b8ff" points="241.69,-48.13 250.77,-53.58 247.07,-43.65 241.69,-48.13"/>
</g>
<!-- Node5 -->
<g id="node5" class="node">
<title>Node5</title>
<g id="a_node5"><a xlink:href="../../d6/dc0/cpmd__nose_8c.html" target="_top" xlink:title=" ">
<polygon fill="white" stroke="#666666" points="341.5,-19 266.5,-19 266.5,0 341.5,0 341.5,-19"/>
<text text-anchor="middle" x="304" y="-7" font-family="Helvetica,sans-Serif" font-size="10.00">cpmd_nose.c</text>
</a>
</g>
</g>
<!-- Node1&#45;&gt;Node5 -->
<g id="edge4" class="edge">
<title>Node1&#45;&gt;Node5</title>
<path fill="none" stroke="#63b8ff" d="M273.68,-46.22C281.26,-37.28 290.21,-26.74 296.41,-19.44"/>
<polygon fill="#63b8ff" stroke="#63b8ff" points="271.21,-43.71 267.41,-53.59 276.55,-48.24 271.21,-43.71"/>
</g>
<!-- Node6 -->
<g id="node6" class="node">
<title>Node6</title>
<g id="a_node6"><a xlink:href="../../d1/dcc/cpmd__print_8c.html" target="_top" xlink:title=" ">
<polygon fill="white" stroke="#666666" points="432.5,-19 359.5,-19 359.5,0 432.5,0 432.5,-19"/>
<text text-anchor="middle" x="396" y="-7" font-family="Helvetica,sans-Serif" font-size="10.00">cpmd_print.c</text>
</a>
</g>
</g>
<!-- Node1&#45;&gt;Node6 -->
<g id="edge5" class="edge">
<title>Node1&#45;&gt;Node6</title>
<path fill="none" stroke="#63b8ff" d="M292.72,-50.45C317.73,-40.78 351.14,-27.85 373.1,-19.36"/>
<polygon fill="#63b8ff" stroke="#63b8ff" points="291.72,-47.09 283.65,-53.96 294.24,-53.62 291.72,-47.09"/>
</g>
<!-- Node7 -->
<g id="node7" class="node">
<title>Node7</title>
<g id="a_node7"><a xlink:href="../../db/d6f/cpmd__restart_8c.html" target="_top" xlink:title=" ">
<polygon fill="white" stroke="#666666" points="533,-19 451,-19 451,0 533,0 533,-19"/>
<text text-anchor="middle" x="492" y="-7" font-family="Helvetica,sans-Serif" font-size="10.00">cpmd_restart.c</text>
</a>
</g>
</g>
<!-- Node1&#45;&gt;Node7 -->
<g id="edge6" class="edge">
<title>Node1&#45;&gt;Node7</title>
<path fill="none" stroke="#63b8ff" d="M294.91,-55.33C337.54,-45.63 408.41,-29.51 452.54,-19.48"/>
<polygon fill="#63b8ff" stroke="#63b8ff" points="294.39,-51.86 285.41,-57.49 295.94,-58.69 294.39,-51.86"/>
</g>
</g>
</svg>
