<?xml version="1.0" encoding="UTF-8" standalone="no"?>
<!DOCTYPE svg PUBLIC "-//W3C//DTD SVG 1.1//EN"
 "http://www.w3.org/Graphics/SVG/1.1/DTD/svg11.dtd">
<!-- Generated by graphviz version 7.1.0 (0)
 -->
<!-- Title: calc/cpmd/cpmd.h Pages: 1 -->
<svg width="826pt" height="82pt"
 viewBox="0.00 0.00 825.50 82.00" xmlns="http://www.w3.org/2000/svg" xmlns:xlink="http://www.w3.org/1999/xlink">
<g id="graph0" class="graph" transform="scale(1 1) rotate(0) translate(4 78)">
<title>calc/cpmd/cpmd.h</title>
<!-- Node1 -->
<g id="node1" class="node">
<title>Node1</title>
<g id="a_node1"><a xlink:title="Variable declarations for the creation of the CPMD input file.">
<polygon fill="#999999" stroke="#666666" points="448,-74 351,-74 351,-55 448,-55 448,-74"/>
<text text-anchor="middle" x="399.5" y="-62" font-family="Helvetica,sans-Serif" font-size="10.00">calc/cpmd/cpmd.h</text>
</a>
</g>
</g>
<!-- Node2 -->
<g id="node2" class="node">
<title>Node2</title>
<g id="a_node2"><a xlink:href="../../de/d92/cp2k__init_8c.html" target="_top" xlink:title="Initialization of the CP2K input assistant.">
<polygon fill="white" stroke="#666666" points="109,-19 0,-19 0,0 109,0 109,-19"/>
<text text-anchor="middle" x="54.5" y="-7" font-family="Helvetica,sans-Serif" font-size="10.00">calc/cp2k/cp2k_init.c</text>
</a>
</g>
</g>
<!-- Node1&#45;&gt;Node2 -->
<g id="edge1" class="edge">
<title>Node1&#45;&gt;Node2</title>
<path fill="none" stroke="#63b8ff" d="M339.53,-54.29C274.62,-44.32 172,-28.55 109.21,-18.91"/>
<polygon fill="#63b8ff" stroke="#63b8ff" points="338.89,-57.73 349.31,-55.79 339.95,-50.81 338.89,-57.73"/>
</g>
<!-- Node3 -->
<g id="node3" class="node">
<title>Node3</title>
<g id="a_node3"><a xlink:href="../../d6/d03/cpmd__atoms_8c.html" target="_top" xlink:title="Functions to handle dummy atom(s) for the CPMD input file.">
<polygon fill="white" stroke="#666666" points="256,-19 127,-19 127,0 256,0 256,-19"/>
<text text-anchor="middle" x="191.5" y="-7" font-family="Helvetica,sans-Serif" font-size="10.00">calc/cpmd/cpmd_atoms.c</text>
</a>
</g>
</g>
<!-- Node1&#45;&gt;Node3 -->
<g id="edge2" class="edge">
<title>Node1&#45;&gt;Node3</title>
<path fill="none" stroke="#63b8ff" d="M353.36,-51.74C315.08,-41.99 261.46,-28.33 226.61,-19.45"/>
<polygon fill="#63b8ff" stroke="#63b8ff" points="352.19,-55.06 362.75,-54.14 353.92,-48.27 352.19,-55.06"/>
</g>
<!-- Node4 -->
<g id="node4" class="node">
<title>Node4</title>
<g id="a_node4"><a xlink:href="../../dd/dc0/cpmd__init_8c.html" target="_top" xlink:title="Functions to initialize the QM / QM&#45;MM input file creation assistant.">
<polygon fill="white" stroke="#666666" points="389,-19 274,-19 274,0 389,0 389,-19"/>
<text text-anchor="middle" x="331.5" y="-7" font-family="Helvetica,sans-Serif" font-size="10.00">calc/cpmd/cpmd_init.c</text>
</a>
</g>
</g>
<!-- Node1&#45;&gt;Node4 -->
<g id="edge3" class="edge">
<title>Node1&#45;&gt;Node4</title>
<path fill="none" stroke="#63b8ff" d="M379.15,-47.64C367.28,-38.39 352.74,-27.05 342.86,-19.36"/>
<polygon fill="#63b8ff" stroke="#63b8ff" points="376.73,-50.19 386.77,-53.58 381.04,-44.67 376.73,-50.19"/>
</g>
<!-- Node5 -->
<g id="node5" class="node">
<title>Node5</title>
<g id="a_node5"><a xlink:href="../../d6/dc0/cpmd__nose_8c.html" target="_top" xlink:title="Functions to prepare the thermostat(s) configuration widgets for QM / QM&#45;MM input files.">
<polygon fill="white" stroke="#666666" points="530,-19 407,-19 407,0 530,0 530,-19"/>
<text text-anchor="middle" x="468.5" y="-7" font-family="Helvetica,sans-Serif" font-size="10.00">calc/cpmd/cpmd_nose.c</text>
</a>
</g>
</g>
<!-- Node1&#45;&gt;Node5 -->
<g id="edge4" class="edge">
<title>Node1&#45;&gt;Node5</title>
<path fill="none" stroke="#63b8ff" d="M420.15,-47.64C432.2,-38.39 446.95,-27.05 456.97,-19.36"/>
<polygon fill="#63b8ff" stroke="#63b8ff" points="418.2,-44.72 412.41,-53.59 422.47,-50.27 418.2,-44.72"/>
</g>
<!-- Node6 -->
<g id="node6" class="node">
<title>Node6</title>
<g id="a_node6"><a xlink:href="../../d1/dcc/cpmd__print_8c.html" target="_top" xlink:title="Functions to print the CPMD input file(s)">
<polygon fill="white" stroke="#666666" points="669,-19 548,-19 548,0 669,0 669,-19"/>
<text text-anchor="middle" x="608.5" y="-7" font-family="Helvetica,sans-Serif" font-size="10.00">calc/cpmd/cpmd_print.c</text>
</a>
</g>
</g>
<!-- Node1&#45;&gt;Node6 -->
<g id="edge5" class="edge">
<title>Node1&#45;&gt;Node6</title>
<path fill="none" stroke="#63b8ff" d="M445.86,-51.74C484.32,-41.99 538.2,-28.33 573.22,-19.45"/>
<polygon fill="#63b8ff" stroke="#63b8ff" points="445.25,-48.29 436.42,-54.14 446.97,-55.07 445.25,-48.29"/>
</g>
<!-- Node7 -->
<g id="node7" class="node">
<title>Node7</title>
<g id="a_node7"><a xlink:href="../../db/d6f/cpmd__restart_8c.html" target="_top" xlink:title="Functions to configure the restart section for the CPMD input file creation assistant.">
<polygon fill="white" stroke="#666666" points="817.5,-19 687.5,-19 687.5,0 817.5,0 817.5,-19"/>
<text text-anchor="middle" x="752.5" y="-7" font-family="Helvetica,sans-Serif" font-size="10.00">calc/cpmd/cpmd_restart.c</text>
</a>
</g>
</g>
<!-- Node1&#45;&gt;Node7 -->
<g id="edge6" class="edge">
<title>Node1&#45;&gt;Node7</title>
<path fill="none" stroke="#63b8ff" d="M459.51,-54.49C524.58,-44.72 627.84,-29.22 692.8,-19.46"/>
<polygon fill="#63b8ff" stroke="#63b8ff" points="459.08,-51.02 449.71,-55.96 460.12,-57.94 459.08,-51.02"/>
</g>
</g>
</svg>
