<?xml version="1.0" encoding="UTF-8" standalone="no"?>
<!DOCTYPE svg PUBLIC "-//W3C//DTD SVG 1.1//EN"
 "http://www.w3.org/Graphics/SVG/1.1/DTD/svg11.dtd">
<!-- Generated by graphviz version 2.43.0 (0)
 -->
<!-- Title: /home/slookeur/files/codeblocks&#45;files/atomes/src/calc/cpmd/cpmd.h Pages: 1 -->
<!--zoomable 126 -->

<svg id="main" version="1.1" xmlns="http://www.w3.org/2000/svg" xmlns:xlink="http://www.w3.org/1999/xlink" xml:space="preserve" onload="init(evt)">
<style type="text/css"><![CDATA[
.node, .edge {opacity: 0.7;}
.node.selected, .edge.selected {opacity: 1;}
.edge:hover path { stroke: red; }
.edge:hover polygon { stroke: red; fill: red; }
]]></style>

<defs>
  <circle id="rim" cx="0" cy="0" r="7"/>
  <circle id="rim2" cx="0" cy="0" r="3.5"/>
  <g id="zoomPlus">
    <use xlink:href="#rim" fill="#404040"><set attributeName="fill" to="#808080" begin="zoomplus.mouseover" end="zoomplus.mouseout"/></use>
    <path d="M-4,0h8M0,-4v8" fill="none" stroke="white" stroke-width="1.5" pointer-events="none"/>
  </g>
  <g id="zoomMin">
    <use xlink:href="#rim" fill="#404040"><set attributeName="fill" to="#808080" begin="zoomminus.mouseover" end="zoomminus.mouseout"/></use>
    <path d="M-4,0h8" fill="none" stroke="white" stroke-width="1.5" pointer-events="none"/>
  </g>
  <g id="arrowUp" transform="translate(30 24)">
    <use xlink:href="#rim"/>
    <path pointer-events="none" fill="none" stroke="white" stroke-width="1.5" d="M0,-3.0v7 M-2.5,-0.5L0,-3.0L2.5,-0.5"/>
  </g>
  <g id="arrowRight" transform="rotate(90) translate(36 -43)">
    <use xlink:href="#rim"/>
    <path pointer-events="none" fill="none" stroke="white" stroke-width="1.5" d="M0,-3.0v7 M-2.5,-0.5L0,-3.0L2.5,-0.5"/>
  </g>
  <g id="arrowDown" transform="rotate(180) translate(-30 -48)">
    <use xlink:href="#rim"/>
    <path pointer-events="none" fill="none" stroke="white" stroke-width="1.5" d="M0,-3.0v7 M-2.5,-0.5L0,-3.0L2.5,-0.5"/>
  </g>
  <g id="arrowLeft" transform="rotate(270) translate(-36 17)">
    <use xlink:href="#rim"/>
    <path pointer-events="none" fill="none" stroke="white" stroke-width="1.5" d="M0,-3.0v7 M-2.5,-0.5L0,-3.0L2.5,-0.5"/>
  </g>
  <g id="resetDef">
    <use xlink:href="#rim2" fill="#404040"><set attributeName="fill" to="#808080" begin="reset.mouseover" end="reset.mouseout"/></use>
  </g>
</defs>
<script type="application/ecmascript">
var viewWidth = 1012;
var viewHeight = 126;
var sectionId = 'dynsection-0';
</script>
<script type="application/ecmascript" xlink:href="../../svg.min.js"/>
<svg id="graph" class="graph">
<g id="viewport">
<title>/home/slookeur/files/codeblocks&#45;files/atomes/src/calc/cpmd/cpmd.h</title>
<!-- Node1 -->
<g id="Node000001" class="node">
<title>Node1</title>
<g id="a_Node000001"><a xlink:title="Variable declarations for the creation of the CPMD input file.">
<polygon fill="#999999" stroke="#666666" points="562,-118 424,-118 424,-77 562,-77 562,-118"/>
<text text-anchor="start" x="432" y="-106" font-family="Helvetica,sans-Serif" font-size="10.00">/home/slookeur/files</text>
<text text-anchor="start" x="432" y="-95" font-family="Helvetica,sans-Serif" font-size="10.00">/codeblocks&#45;files/atomes</text>
<text text-anchor="middle" x="493" y="-84" font-family="Helvetica,sans-Serif" font-size="10.00">/src/calc/cpmd/cpmd.h</text>
</a>
</g>
</g>
<!-- Node2 -->
<g id="Node000002" class="node">
<title>Node2</title>
<g id="a_Node000002"><a xlink:href="../../de/d92/cp2k__init_8c.html" target="_top" xlink:title="Initialization of the CP2K input assistant.">
<polygon fill="white" stroke="#666666" points="138,-41 0,-41 0,0 138,0 138,-41"/>
<text text-anchor="start" x="8" y="-29" font-family="Helvetica,sans-Serif" font-size="10.00">/home/slookeur/files</text>
<text text-anchor="start" x="8" y="-18" font-family="Helvetica,sans-Serif" font-size="10.00">/codeblocks&#45;files/atomes</text>
<text text-anchor="middle" x="69" y="-7" font-family="Helvetica,sans-Serif" font-size="10.00">/src/calc/cp2k/cp2k_init.c</text>
</a>
</g>
</g>
<!-- Node1&#45;&gt;Node2 -->
<g id="edge1_Node000001_Node000002" class="edge">
<title>Node1&#45;&gt;Node2</title>
<g id="a_edge1_Node000001_Node000002"><a xlink:title=" ">
<path fill="none" stroke="#63b8ff" d="M413.63,-85.75C343.28,-75.75 237.89,-59.62 147,-41 144.13,-40.41 141.2,-39.79 138.25,-39.14"/>
<polygon fill="#63b8ff" stroke="#63b8ff" points="413.36,-89.24 423.75,-87.18 414.34,-82.31 413.36,-89.24"/>
</a>
</g>
</g>
<!-- Node3 -->
<g id="Node000003" class="node">
<title>Node3</title>
<g id="a_Node000003"><a xlink:href="../../d6/d03/cpmd__atoms_8c.html" target="_top" xlink:title="Functions to handle dummy atom(s) for the CPMD input file.">
<polygon fill="white" stroke="#666666" points="317.5,-41 156.5,-41 156.5,0 317.5,0 317.5,-41"/>
<text text-anchor="start" x="164.5" y="-29" font-family="Helvetica,sans-Serif" font-size="10.00">/home/slookeur/files</text>
<text text-anchor="start" x="164.5" y="-18" font-family="Helvetica,sans-Serif" font-size="10.00">/codeblocks&#45;files/atomes</text>
<text text-anchor="middle" x="237" y="-7" font-family="Helvetica,sans-Serif" font-size="10.00">/src/calc/cpmd/cpmd_atoms.c</text>
</a>
</g>
</g>
<!-- Node1&#45;&gt;Node3 -->
<g id="edge2_Node000001_Node000003" class="edge">
<title>Node1&#45;&gt;Node3</title>
<g id="a_edge2_Node000001_Node000003"><a xlink:title=" ">
<path fill="none" stroke="#63b8ff" d="M416.47,-74.08C380.6,-63.57 338.25,-51.16 303.7,-41.04"/>
<polygon fill="#63b8ff" stroke="#63b8ff" points="415.83,-77.54 426.41,-76.99 417.79,-70.82 415.83,-77.54"/>
</a>
</g>
</g>
<!-- Node4 -->
<g id="Node000004" class="node">
<title>Node4</title>
<g id="a_Node000004"><a xlink:href="../../dd/dc0/cpmd__init_8c.html" target="_top" xlink:title="Functions to initialize the QM / QM&#45;MM input file creation assistant.">
<polygon fill="white" stroke="#666666" points="482,-41 336,-41 336,0 482,0 482,-41"/>
<text text-anchor="start" x="344" y="-29" font-family="Helvetica,sans-Serif" font-size="10.00">/home/slookeur/files</text>
<text text-anchor="start" x="344" y="-18" font-family="Helvetica,sans-Serif" font-size="10.00">/codeblocks&#45;files/atomes</text>
<text text-anchor="middle" x="409" y="-7" font-family="Helvetica,sans-Serif" font-size="10.00">/src/calc/cpmd/cpmd_init.c</text>
</a>
</g>
</g>
<!-- Node1&#45;&gt;Node4 -->
<g id="edge3_Node000001_Node000004" class="edge">
<title>Node1&#45;&gt;Node4</title>
<g id="a_edge3_Node000001_Node000004"><a xlink:title=" ">
<path fill="none" stroke="#63b8ff" d="M463.4,-70.07C452.71,-60.52 440.84,-49.93 430.92,-41.07"/>
<polygon fill="#63b8ff" stroke="#63b8ff" points="461.14,-72.75 470.93,-76.79 465.8,-67.52 461.14,-72.75"/>
</a>
</g>
</g>
<!-- Node5 -->
<g id="Node000005" class="node">
<title>Node5</title>
<g id="a_Node000005"><a xlink:href="../../d6/dc0/cpmd__nose_8c.html" target="_top" xlink:title="Functions to prepare the thermostat(s) configuration widgets for QM / QM&#45;MM input files.">
<polygon fill="white" stroke="#666666" points="653.5,-41 500.5,-41 500.5,0 653.5,0 653.5,-41"/>
<text text-anchor="start" x="508.5" y="-29" font-family="Helvetica,sans-Serif" font-size="10.00">/home/slookeur/files</text>
<text text-anchor="start" x="508.5" y="-18" font-family="Helvetica,sans-Serif" font-size="10.00">/codeblocks&#45;files/atomes</text>
<text text-anchor="middle" x="577" y="-7" font-family="Helvetica,sans-Serif" font-size="10.00">/src/calc/cpmd/cpmd_nose.c</text>
</a>
</g>
</g>
<!-- Node1&#45;&gt;Node5 -->
<g id="edge4_Node000001_Node000005" class="edge">
<title>Node1&#45;&gt;Node5</title>
<g id="a_edge4_Node000001_Node000005"><a xlink:title=" ">
<path fill="none" stroke="#63b8ff" d="M522.6,-70.07C533.29,-60.52 545.16,-49.93 555.08,-41.07"/>
<polygon fill="#63b8ff" stroke="#63b8ff" points="520.2,-67.52 515.07,-76.79 524.86,-72.75 520.2,-67.52"/>
</a>
</g>
</g>
<!-- Node6 -->
<g id="Node000006" class="node">
<title>Node6</title>
<g id="a_Node000006"><a xlink:href="../../d1/dcc/cpmd__print_8c.html" target="_top" xlink:title="Functions to print the CPMD input file(s)">
<polygon fill="white" stroke="#666666" points="824,-41 672,-41 672,0 824,0 824,-41"/>
<text text-anchor="start" x="680" y="-29" font-family="Helvetica,sans-Serif" font-size="10.00">/home/slookeur/files</text>
<text text-anchor="start" x="680" y="-18" font-family="Helvetica,sans-Serif" font-size="10.00">/codeblocks&#45;files/atomes</text>
<text text-anchor="middle" x="748" y="-7" font-family="Helvetica,sans-Serif" font-size="10.00">/src/calc/cpmd/cpmd_print.c</text>
</a>
</g>
</g>
<!-- Node1&#45;&gt;Node6 -->
<g id="edge5_Node000001_Node000006" class="edge">
<title>Node1&#45;&gt;Node6</title>
<g id="a_edge5_Node000001_Node000006"><a xlink:title=" ">
<path fill="none" stroke="#63b8ff" d="M569.23,-74.08C604.96,-63.57 647.14,-51.16 681.56,-41.04"/>
<polygon fill="#63b8ff" stroke="#63b8ff" points="567.94,-70.81 559.33,-76.99 569.91,-77.53 567.94,-70.81"/>
</a>
</g>
</g>
<!-- Node7 -->
<g id="Node000007" class="node">
<title>Node7</title>
<g id="a_Node000007"><a xlink:href="../../db/d6f/cpmd__restart_8c.html" target="_top" xlink:title="Functions to configure the restart section for the CPMD input file creation assistant.">
<polygon fill="white" stroke="#666666" points="1004,-41 842,-41 842,0 1004,0 1004,-41"/>
<text text-anchor="start" x="850" y="-29" font-family="Helvetica,sans-Serif" font-size="10.00">/home/slookeur/files</text>
<text text-anchor="start" x="850" y="-18" font-family="Helvetica,sans-Serif" font-size="10.00">/codeblocks&#45;files/atomes</text>
<text text-anchor="middle" x="923" y="-7" font-family="Helvetica,sans-Serif" font-size="10.00">/src/calc/cpmd/cpmd_restart.c</text>
</a>
</g>
</g>
<!-- Node1&#45;&gt;Node7 -->
<g id="edge6_Node000001_Node000007" class="edge">
<title>Node1&#45;&gt;Node7</title>
<g id="a_edge6_Node000001_Node000007"><a xlink:title=" ">
<path fill="none" stroke="#63b8ff" d="M572.14,-84.76C641.18,-74.24 743.95,-57.9 833,-41 835.83,-40.46 838.7,-39.91 841.6,-39.33"/>
<polygon fill="#63b8ff" stroke="#63b8ff" points="571.57,-81.31 562.21,-86.27 572.62,-88.23 571.57,-81.31"/>
</a>
</g>
</g>
</g>
</svg>

<g id="navigator" transform="translate(0 0)" fill="#404254">
  <rect fill="#f2f5e9" fill-opacity="0.5" stroke="#606060" stroke-width=".5" x="0" y="0" width="60" height="60"/>
  <use id="zoomplus" xlink:href="#zoomPlus" x="17" y="9" onmousedown="handleZoom(evt,'in')"/>
  <use id="zoomminus" xlink:href="#zoomMin" x="42" y="9" onmousedown="handleZoom(evt,'out')"/>
  <use id="reset" xlink:href="#resetDef" x="30" y="36" onmousedown="handleReset()"/>
   <use id="arrowup" xlink:href="#arrowUp" x="0" y="0" onmousedown="handlePan(0,-1)"/>
  <use id="arrowright" xlink:href="#arrowRight" x="0" y="0" onmousedown="handlePan(1,0)"/>
  <use id="arrowdown" xlink:href="#arrowDown" x="0" y="0" onmousedown="handlePan(0,1)"/>
  <use id="arrowleft" xlink:href="#arrowLeft" x="0" y="0" onmousedown="handlePan(-1,0)"/>
</g>
<svg viewBox="0 0 15 15" width="100%" height="30px" preserveAspectRatio="xMaxYMin meet">
 <g id="arrow_out" transform="scale(0.3 0.3)">
  <a xlink:href="cpmd_8h__dep__incl_org.svg" target="_base">
   <rect id="button" ry="5" rx="5" y="6" x="6" height="38" width="38"
        fill="#f2f5e9" fill-opacity="0.5" stroke="#606060" stroke-width="1.0"/>
   <path id="arrow"
     d="M 11.500037,31.436501 C 11.940474,20.09759 22.043105,11.32322 32.158766,21.979434 L 37.068811,17.246167 C 37.068811,17.246167 37.088388,32 37.088388,32 L 22.160133,31.978069 C 22.160133,31.978069 26.997745,27.140456 26.997745,27.140456 C 18.528582,18.264221 13.291696,25.230495 11.500037,31.436501 z"
     style="fill:#404040;"/>
  </a>
 </g>
</svg>

<style type='text/css'>
<![CDATA[
[data-mouse-over-selected='false'] { opacity: 0.7; }
[data-mouse-over-selected='true']  { opacity: 1.0; }
]]>
</style>
<script type="application/ecmascript"><![CDATA[
document.addEventListener('DOMContentLoaded', (event) => {
  highlightEdges();
  highlightAdjacentNodes();
});
]]></script>
</svg>
