<?xml version="1.0" encoding="UTF-8" standalone="no"?>
<!DOCTYPE svg PUBLIC "-//W3C//DTD SVG 1.1//EN"
 "http://www.w3.org/Graphics/SVG/1.1/DTD/svg11.dtd">
<!-- Generated by graphviz version 2.43.0 (0)
 -->
<!-- Title: /home/slookeur/files/codeblocks&#45;files/atomes/src/opengl/win/w_volumes.c Pages: 1 -->
<svg width="1735pt" height="269pt"
 viewBox="0.00 0.00 1735.00 269.00" xmlns="http://www.w3.org/2000/svg" xmlns:xlink="http://www.w3.org/1999/xlink">
<g id="graph0" class="graph" transform="scale(1 1) rotate(0) translate(4 265)">
<title>/home/slookeur/files/codeblocks&#45;files/atomes/src/opengl/win/w_volumes.c</title>
<!-- Node1 -->
<g id="Node000001" class="node">
<title>Node1</title>
<g id="a_Node000001"><a xlink:title="Functions to create the &#39;Volumes&#39; window &#160;&#160;Functions to compute system / fragment / molecular volumes...">
<polygon fill="#999999" stroke="#666666" points="1042.5,-261 885.5,-261 885.5,-220 1042.5,-220 1042.5,-261"/>
<text text-anchor="start" x="893.5" y="-249" font-family="Helvetica,sans-Serif" font-size="10.00">/home/slookeur/files</text>
<text text-anchor="start" x="893.5" y="-238" font-family="Helvetica,sans-Serif" font-size="10.00">/codeblocks&#45;files/atomes</text>
<text text-anchor="middle" x="964" y="-227" font-family="Helvetica,sans-Serif" font-size="10.00">/src/opengl/win/w_volumes.c</text>
</a>
</g>
</g>
<!-- Node2 -->
<g id="Node000002" class="node">
<title>Node2</title>
<g id="a_Node000002"><a xlink:href="../../d2/d49/global_8h.html" target="_top" xlink:title="Global variable declarations &#160;&#160;Global convenience function declarations &#160;&#160;Global data structure defin...">
<polygon fill="white" stroke="#666666" points="758,-129 702,-129 702,-110 758,-110 758,-129"/>
<text text-anchor="middle" x="730" y="-117" font-family="Helvetica,sans-Serif" font-size="10.00">global.h</text>
</a>
</g>
</g>
<!-- Node1&#45;&gt;Node2 -->
<g id="edge1_Node000001_Node000002" class="edge">
<title>Node1&#45;&gt;Node2</title>
<g id="a_edge1_Node000001_Node000002"><a xlink:title=" ">
<path fill="none" stroke="#63b8ff" d="M925.62,-219.98C877.73,-195.63 797.12,-154.63 755.93,-133.69"/>
<polygon fill="#63b8ff" stroke="#63b8ff" points="757.32,-130.47 746.82,-129.05 754.15,-136.71 757.32,-130.47"/>
</a>
</g>
</g>
<!-- Node25 -->
<g id="Node000025" class="node">
<title>Node25</title>
<g id="a_Node000025"><a xlink:href="../../da/dc2/bind_8h.html" target="_top" xlink:title="Binding to the Fortran90 subroutines.">
<polygon fill="white" stroke="#666666" points="823.5,-129 776.5,-129 776.5,-110 823.5,-110 823.5,-129"/>
<text text-anchor="middle" x="800" y="-117" font-family="Helvetica,sans-Serif" font-size="10.00">bind.h</text>
</a>
</g>
</g>
<!-- Node1&#45;&gt;Node25 -->
<g id="edge26_Node000001_Node000025" class="edge">
<title>Node1&#45;&gt;Node25</title>
<g id="a_edge26_Node000001_Node000025"><a xlink:title=" ">
<path fill="none" stroke="#63b8ff" d="M936.92,-219.85C904.1,-196.04 849.57,-156.47 820.21,-135.16"/>
<polygon fill="#63b8ff" stroke="#63b8ff" points="822.1,-132.22 811.96,-129.18 817.99,-137.88 822.1,-132.22"/>
</a>
</g>
</g>
<!-- Node26 -->
<g id="Node000026" class="node">
<title>Node26</title>
<g id="a_Node000026"><a xlink:href="../../d4/da9/interface_8h.html" target="_top" xlink:title="Messaging function declarations.">
<polygon fill="white" stroke="#666666" points="910.5,-129 841.5,-129 841.5,-110 910.5,-110 910.5,-129"/>
<text text-anchor="middle" x="876" y="-117" font-family="Helvetica,sans-Serif" font-size="10.00">interface.h</text>
</a>
</g>
</g>
<!-- Node1&#45;&gt;Node26 -->
<g id="edge27_Node000001_Node000026" class="edge">
<title>Node1&#45;&gt;Node26</title>
<g id="a_edge27_Node000001_Node000026"><a xlink:title=" ">
<path fill="none" stroke="#63b8ff" d="M949.47,-219.85C932.47,-196.86 904.6,-159.18 888.52,-137.43"/>
<polygon fill="#63b8ff" stroke="#63b8ff" points="891.18,-135.13 882.42,-129.18 885.55,-139.3 891.18,-135.13"/>
</a>
</g>
</g>
<!-- Node27 -->
<g id="Node000027" class="node">
<title>Node27</title>
<g id="a_Node000027"><a xlink:href="../../dd/d49/callbacks_8h.html" target="_top" xlink:title="Callback declarations for main window.">
<polygon fill="white" stroke="#666666" points="999.5,-129 928.5,-129 928.5,-110 999.5,-110 999.5,-129"/>
<text text-anchor="middle" x="964" y="-117" font-family="Helvetica,sans-Serif" font-size="10.00">callbacks.h</text>
</a>
</g>
</g>
<!-- Node1&#45;&gt;Node27 -->
<g id="edge28_Node000001_Node000027" class="edge">
<title>Node1&#45;&gt;Node27</title>
<g id="a_edge28_Node000001_Node000027"><a xlink:title=" ">
<path fill="none" stroke="#63b8ff" d="M964,-219.85C964,-197.48 964,-161.19 964,-139.21"/>
<polygon fill="#63b8ff" stroke="#63b8ff" points="967.5,-139.18 964,-129.18 960.5,-139.18 967.5,-139.18"/>
</a>
</g>
</g>
<!-- Node28 -->
<g id="Node000028" class="node">
<title>Node28</title>
<g id="a_Node000028"><a xlink:href="../../dc/d8d/project_8h.html" target="_top" xlink:title="Function declarations for reading atomes project file &#160;&#160;Function declarations for saving atomes proje...">
<polygon fill="white" stroke="#666666" points="1349.5,-129 1290.5,-129 1290.5,-110 1349.5,-110 1349.5,-129"/>
<text text-anchor="middle" x="1320" y="-117" font-family="Helvetica,sans-Serif" font-size="10.00">project.h</text>
</a>
</g>
</g>
<!-- Node1&#45;&gt;Node28 -->
<g id="edge29_Node000001_Node000028" class="edge">
<title>Node1&#45;&gt;Node28</title>
<g id="a_edge29_Node000001_Node000028"><a xlink:title=" ">
<path fill="none" stroke="#63b8ff" d="M1022.39,-219.98C1096.94,-195.06 1223.61,-152.72 1284.82,-132.26"/>
<polygon fill="#63b8ff" stroke="#63b8ff" points="1286.04,-135.54 1294.41,-129.05 1283.82,-128.9 1286.04,-135.54"/>
</a>
</g>
</g>
<!-- Node29 -->
<g id="Node000029" class="node">
<title>Node29</title>
<g id="a_Node000029"><a xlink:href="../../dc/de3/glview_8h.html" target="_top" xlink:title="Variable declarations related to the OpenGL window &#160;&#160;Function declarations related to the OpenGL wind...">
<polygon fill="white" stroke="#666666" points="1424.5,-129 1367.5,-129 1367.5,-110 1424.5,-110 1424.5,-129"/>
<text text-anchor="middle" x="1396" y="-117" font-family="Helvetica,sans-Serif" font-size="10.00">glview.h</text>
</a>
</g>
</g>
<!-- Node1&#45;&gt;Node29 -->
<g id="edge30_Node000001_Node000029" class="edge">
<title>Node1&#45;&gt;Node29</title>
<g id="a_edge30_Node000001_Node000029"><a xlink:title=" ">
<path fill="none" stroke="#63b8ff" d="M1038.2,-220C1077.93,-209.48 1127.68,-196.2 1172,-184 1237.26,-166.04 1312.99,-144.41 1357.57,-131.59"/>
<polygon fill="#63b8ff" stroke="#63b8ff" points="1358.76,-134.89 1367.4,-128.76 1356.82,-128.16 1358.76,-134.89"/>
</a>
</g>
</g>
<!-- Node30 -->
<g id="Node000030" class="node">
<title>Node30</title>
<g id="a_Node000030"><a xlink:href="../../d5/d9c/atom__edit_8h.html" target="_top" xlink:title="Function declarations for the mode edition window.">
<polygon fill="white" stroke="#666666" points="1078.5,-184 1003.5,-184 1003.5,-165 1078.5,-165 1078.5,-184"/>
<text text-anchor="middle" x="1041" y="-172" font-family="Helvetica,sans-Serif" font-size="10.00">atom_edit.h</text>
</a>
</g>
</g>
<!-- Node1&#45;&gt;Node30 -->
<g id="edge31_Node000001_Node000030" class="edge">
<title>Node1&#45;&gt;Node30</title>
<g id="a_edge31_Node000001_Node000030"><a xlink:title=" ">
<path fill="none" stroke="#63b8ff" d="M987.52,-219.95C998.83,-210.55 1012.18,-199.46 1022.71,-190.7"/>
<polygon fill="#63b8ff" stroke="#63b8ff" points="1025.01,-193.34 1030.46,-184.26 1020.53,-187.96 1025.01,-193.34"/>
</a>
</g>
</g>
<!-- Node3 -->
<g id="Node000003" class="node">
<title>Node3</title>
<g id="a_Node000003"><a xlink:title=" ">
<polygon fill="#e0e0e0" stroke="#999999" points="44,-74 0,-74 0,-55 44,-55 44,-74"/>
<text text-anchor="middle" x="22" y="-62" font-family="Helvetica,sans-Serif" font-size="10.00">glib.h</text>
</a>
</g>
</g>
<!-- Node2&#45;&gt;Node3 -->
<g id="edge2_Node000002_Node000003" class="edge">
<title>Node2&#45;&gt;Node3</title>
<g id="a_edge2_Node000002_Node000003"><a xlink:title=" ">
<path fill="none" stroke="#63b8ff" d="M701.71,-118.68C609.59,-118.82 309.91,-115.93 54.45,-73.88"/>
<polygon fill="#63b8ff" stroke="#63b8ff" points="54.67,-70.37 44.23,-72.17 53.52,-77.27 54.67,-70.37"/>
</a>
</g>
</g>
<!-- Node4 -->
<g id="Node000004" class="node">
<title>Node4</title>
<g id="a_Node000004"><a xlink:title=" ">
<polygon fill="#e0e0e0" stroke="#999999" points="136,-74 62,-74 62,-55 136,-55 136,-74"/>
<text text-anchor="middle" x="99" y="-62" font-family="Helvetica,sans-Serif" font-size="10.00">glib/gi18n.h</text>
</a>
</g>
</g>
<!-- Node2&#45;&gt;Node4 -->
<g id="edge3_Node000002_Node000004" class="edge">
<title>Node2&#45;&gt;Node4</title>
<g id="a_edge3_Node000002_Node000004"><a xlink:title=" ">
<path fill="none" stroke="#63b8ff" d="M701.88,-117.43C618.62,-114.03 365.93,-102.09 146.21,-74.01"/>
<polygon fill="#63b8ff" stroke="#63b8ff" points="146.47,-70.52 136.1,-72.71 145.57,-77.46 146.47,-70.52"/>
</a>
</g>
</g>
<!-- Node5 -->
<g id="Node000005" class="node">
<title>Node5</title>
<g id="a_Node000005"><a xlink:title=" ">
<polygon fill="#e0e0e0" stroke="#999999" points="209.5,-74 154.5,-74 154.5,-55 209.5,-55 209.5,-74"/>
<text text-anchor="middle" x="182" y="-62" font-family="Helvetica,sans-Serif" font-size="10.00">locale.h</text>
</a>
</g>
</g>
<!-- Node2&#45;&gt;Node5 -->
<g id="edge4_Node000002_Node000005" class="edge">
<title>Node2&#45;&gt;Node5</title>
<g id="a_edge4_Node000002_Node000005"><a xlink:title=" ">
<path fill="none" stroke="#63b8ff" d="M701.86,-117.42C625.78,-114.22 409.53,-103.2 219.95,-73.91"/>
<polygon fill="#63b8ff" stroke="#63b8ff" points="220.22,-70.41 209.8,-72.32 219.14,-77.33 220.22,-70.41"/>
</a>
</g>
</g>
<!-- Node6 -->
<g id="Node000006" class="node">
<title>Node6</title>
<g id="a_Node000006"><a xlink:title=" ">
<polygon fill="#e0e0e0" stroke="#999999" points="284,-74 228,-74 228,-55 284,-55 284,-74"/>
<text text-anchor="middle" x="256" y="-62" font-family="Helvetica,sans-Serif" font-size="10.00">unistd.h</text>
</a>
</g>
</g>
<!-- Node2&#45;&gt;Node6 -->
<g id="edge5_Node000002_Node000006" class="edge">
<title>Node2&#45;&gt;Node6</title>
<g id="a_edge5_Node000002_Node000006"><a xlink:title=" ">
<path fill="none" stroke="#63b8ff" d="M701.98,-116.86C633.83,-112.61 453.89,-99.85 294.21,-74"/>
<polygon fill="#63b8ff" stroke="#63b8ff" points="294.64,-70.53 284.21,-72.36 293.51,-77.43 294.64,-70.53"/>
</a>
</g>
</g>
<!-- Node7 -->
<g id="Node000007" class="node">
<title>Node7</title>
<g id="a_Node000007"><a xlink:title=" ">
<polygon fill="#e0e0e0" stroke="#999999" points="355.5,-74 302.5,-74 302.5,-55 355.5,-55 355.5,-74"/>
<text text-anchor="middle" x="329" y="-62" font-family="Helvetica,sans-Serif" font-size="10.00">string.h</text>
</a>
</g>
</g>
<!-- Node2&#45;&gt;Node7 -->
<g id="edge6_Node000002_Node000007" class="edge">
<title>Node2&#45;&gt;Node7</title>
<g id="a_edge6_Node000002_Node000007"><a xlink:title=" ">
<path fill="none" stroke="#63b8ff" d="M701.88,-115.81C641.1,-109.83 493.02,-94.32 370,-74 368.71,-73.79 367.4,-73.56 366.07,-73.33"/>
<polygon fill="#63b8ff" stroke="#63b8ff" points="366.32,-69.81 355.85,-71.39 365.02,-76.69 366.32,-69.81"/>
</a>
</g>
</g>
<!-- Node8 -->
<g id="Node000008" class="node">
<title>Node8</title>
<g id="a_Node000008"><a xlink:title=" ">
<polygon fill="#e0e0e0" stroke="#999999" points="423,-19 373,-19 373,0 423,0 423,-19"/>
<text text-anchor="middle" x="398" y="-7" font-family="Helvetica,sans-Serif" font-size="10.00">stdio.h</text>
</a>
</g>
</g>
<!-- Node2&#45;&gt;Node8 -->
<g id="edge7_Node000002_Node000008" class="edge">
<title>Node2&#45;&gt;Node8</title>
<g id="a_edge7_Node000002_Node000008"><a xlink:title=" ">
<path fill="none" stroke="#63b8ff" d="M701.83,-118.98C630.12,-119.56 443.48,-116.84 403,-74 391.97,-62.33 391.85,-43.47 393.8,-29.33"/>
<polygon fill="#63b8ff" stroke="#63b8ff" points="397.29,-29.7 395.65,-19.23 390.41,-28.44 397.29,-29.7"/>
</a>
</g>
</g>
<!-- Node9 -->
<g id="Node000009" class="node">
<title>Node9</title>
<g id="a_Node000009"><a xlink:title=" ">
<polygon fill="#e0e0e0" stroke="#999999" points="589.5,-74 536.5,-74 536.5,-55 589.5,-55 589.5,-74"/>
<text text-anchor="middle" x="563" y="-62" font-family="Helvetica,sans-Serif" font-size="10.00">stdlib.h</text>
</a>
</g>
</g>
<!-- Node2&#45;&gt;Node9 -->
<g id="edge8_Node000002_Node000009" class="edge">
<title>Node2&#45;&gt;Node9</title>
<g id="a_edge8_Node000002_Node000009"><a xlink:title=" ">
<path fill="none" stroke="#63b8ff" d="M703.17,-109.98C675.05,-101.06 630.69,-86.98 599.42,-77.06"/>
<polygon fill="#63b8ff" stroke="#63b8ff" points="600.36,-73.68 589.76,-73.99 598.24,-80.36 600.36,-73.68"/>
</a>
</g>
</g>
<!-- Node10 -->
<g id="Node000010" class="node">
<title>Node10</title>
<g id="a_Node000010"><a xlink:title=" ">
<polygon fill="#e0e0e0" stroke="#999999" points="680,-74 608,-74 608,-55 680,-55 680,-74"/>
<text text-anchor="middle" x="644" y="-62" font-family="Helvetica,sans-Serif" font-size="10.00">sys/types.h</text>
</a>
</g>
</g>
<!-- Node2&#45;&gt;Node10 -->
<g id="edge9_Node000002_Node000010" class="edge">
<title>Node2&#45;&gt;Node10</title>
<g id="a_edge9_Node000002_Node000010"><a xlink:title=" ">
<path fill="none" stroke="#63b8ff" d="M716.18,-109.98C702.85,-101.77 682.42,-89.18 666.69,-79.49"/>
<polygon fill="#63b8ff" stroke="#63b8ff" points="668.42,-76.44 658.07,-74.17 664.75,-82.4 668.42,-76.44"/>
</a>
</g>
</g>
<!-- Node11 -->
<g id="Node000011" class="node">
<title>Node11</title>
<g id="a_Node000011"><a xlink:title=" ">
<polygon fill="#e0e0e0" stroke="#999999" points="762,-74 698,-74 698,-55 762,-55 762,-74"/>
<text text-anchor="middle" x="730" y="-62" font-family="Helvetica,sans-Serif" font-size="10.00">sys/stat.h</text>
</a>
</g>
</g>
<!-- Node2&#45;&gt;Node11 -->
<g id="edge10_Node000002_Node000011" class="edge">
<title>Node2&#45;&gt;Node11</title>
<g id="a_edge10_Node000002_Node000011"><a xlink:title=" ">
<path fill="none" stroke="#63b8ff" d="M730,-109.75C730,-102.8 730,-92.85 730,-84.13"/>
<polygon fill="#63b8ff" stroke="#63b8ff" points="733.5,-84.09 730,-74.09 726.5,-84.09 733.5,-84.09"/>
</a>
</g>
</g>
<!-- Node12 -->
<g id="Node000012" class="node">
<title>Node12</title>
<g id="a_Node000012"><a xlink:title=" ">
<polygon fill="#e0e0e0" stroke="#999999" points="506.5,-19 455.5,-19 455.5,0 506.5,0 506.5,-19"/>
<text text-anchor="middle" x="481" y="-7" font-family="Helvetica,sans-Serif" font-size="10.00">math.h</text>
</a>
</g>
</g>
<!-- Node2&#45;&gt;Node12 -->
<g id="edge11_Node000002_Node000012" class="edge">
<title>Node2&#45;&gt;Node12</title>
<g id="a_edge11_Node000002_Node000012"><a xlink:title=" ">
<path fill="none" stroke="#63b8ff" d="M701.66,-118.48C660.05,-117.17 581.48,-109.68 527,-74 509.79,-62.73 496.87,-42.64 489.17,-28.06"/>
<polygon fill="#63b8ff" stroke="#63b8ff" points="492.27,-26.43 484.69,-19.04 486,-29.55 492.27,-26.43"/>
</a>
</g>
</g>
<!-- Node13 -->
<g id="Node000013" class="node">
<title>Node13</title>
<g id="a_Node000013"><a xlink:title=" ">
<polygon fill="#e0e0e0" stroke="#999999" points="840,-74 780,-74 780,-55 840,-55 840,-74"/>
<text text-anchor="middle" x="810" y="-62" font-family="Helvetica,sans-Serif" font-size="10.00">gtk/gtk.h</text>
</a>
</g>
</g>
<!-- Node2&#45;&gt;Node13 -->
<g id="edge12_Node000002_Node000013" class="edge">
<title>Node2&#45;&gt;Node13</title>
<g id="a_edge12_Node000002_Node000013"><a xlink:title=" ">
<path fill="none" stroke="#63b8ff" d="M742.85,-109.98C755.14,-101.84 773.91,-89.41 788.48,-79.76"/>
<polygon fill="#63b8ff" stroke="#63b8ff" points="790.51,-82.61 796.91,-74.17 786.64,-76.78 790.51,-82.61"/>
</a>
</g>
</g>
<!-- Node14 -->
<g id="Node000014" class="node">
<title>Node14</title>
<g id="a_Node000014"><a xlink:title=" ">
<polygon fill="#e0e0e0" stroke="#999999" points="923.5,-74 858.5,-74 858.5,-55 923.5,-55 923.5,-74"/>
<text text-anchor="middle" x="891" y="-62" font-family="Helvetica,sans-Serif" font-size="10.00">gdk/gdk.h</text>
</a>
</g>
</g>
<!-- Node2&#45;&gt;Node14 -->
<g id="edge13_Node000002_Node000014" class="edge">
<title>Node2&#45;&gt;Node14</title>
<g id="a_edge13_Node000002_Node000014"><a xlink:title=" ">
<path fill="none" stroke="#63b8ff" d="M755.87,-109.98C782.78,-101.13 825.12,-87.19 855.23,-77.28"/>
<polygon fill="#63b8ff" stroke="#63b8ff" points="856.53,-80.53 864.93,-74.08 854.34,-73.88 856.53,-80.53"/>
</a>
</g>
</g>
<!-- Node15 -->
<g id="Node000015" class="node">
<title>Node15</title>
<g id="a_Node000015"><a xlink:title=" ">
<polygon fill="#e0e0e0" stroke="#999999" points="1050,-74 942,-74 942,-55 1050,-55 1050,-74"/>
<text text-anchor="middle" x="996" y="-62" font-family="Helvetica,sans-Serif" font-size="10.00">gdk/gdkkeysyms.h</text>
</a>
</g>
</g>
<!-- Node2&#45;&gt;Node15 -->
<g id="edge14_Node000002_Node000015" class="edge">
<title>Node2&#45;&gt;Node15</title>
<g id="a_edge14_Node000002_Node000015"><a xlink:title=" ">
<path fill="none" stroke="#63b8ff" d="M758.26,-111.9C761.21,-111.25 764.16,-110.6 767,-110 825.69,-97.56 893.13,-84.62 939.55,-75.92"/>
<polygon fill="#63b8ff" stroke="#63b8ff" points="940.23,-79.35 949.42,-74.07 938.94,-72.47 940.23,-79.35"/>
</a>
</g>
</g>
<!-- Node16 -->
<g id="Node000016" class="node">
<title>Node16</title>
<g id="a_Node000016"><a xlink:title=" ">
<polygon fill="#e0e0e0" stroke="#999999" points="1201.5,-74 1068.5,-74 1068.5,-55 1201.5,-55 1201.5,-74"/>
<text text-anchor="middle" x="1135" y="-62" font-family="Helvetica,sans-Serif" font-size="10.00">gdk&#45;pixbuf/gdk&#45;pixbuf.h</text>
</a>
</g>
</g>
<!-- Node2&#45;&gt;Node16 -->
<g id="edge15_Node000002_Node000016" class="edge">
<title>Node2&#45;&gt;Node16</title>
<g id="a_edge15_Node000002_Node000016"><a xlink:title=" ">
<path fill="none" stroke="#63b8ff" d="M758.22,-111.69C761.18,-111.08 764.14,-110.5 767,-110 794.92,-105.12 958.74,-85.88 1058.16,-74.35"/>
<polygon fill="#63b8ff" stroke="#63b8ff" points="1058.63,-77.82 1068.16,-73.19 1057.83,-70.87 1058.63,-77.82"/>
</a>
</g>
</g>
<!-- Node17 -->
<g id="Node000017" class="node">
<title>Node17</title>
<g id="a_Node000017"><a xlink:title=" ">
<polygon fill="#e0e0e0" stroke="#999999" points="1320.5,-74 1219.5,-74 1219.5,-55 1320.5,-55 1320.5,-74"/>
<text text-anchor="middle" x="1270" y="-62" font-family="Helvetica,sans-Serif" font-size="10.00">pango/pangoft2.h</text>
</a>
</g>
</g>
<!-- Node2&#45;&gt;Node17 -->
<g id="edge16_Node000002_Node000017" class="edge">
<title>Node2&#45;&gt;Node17</title>
<g id="a_edge16_Node000002_Node000017"><a xlink:title=" ">
<path fill="none" stroke="#63b8ff" d="M758.2,-111.58C761.16,-110.99 764.13,-110.44 767,-110 958.98,-80.31 1011.93,-95.34 1209.17,-74.01"/>
<polygon fill="#63b8ff" stroke="#63b8ff" points="1209.73,-77.47 1219.29,-72.9 1208.97,-70.51 1209.73,-77.47"/>
</a>
</g>
</g>
<!-- Node18 -->
<g id="Node000018" class="node">
<title>Node18</title>
<g id="a_Node000018"><a xlink:title=" ">
<polygon fill="#e0e0e0" stroke="#999999" points="1407,-74 1339,-74 1339,-55 1407,-55 1407,-74"/>
<text text-anchor="middle" x="1373" y="-62" font-family="Helvetica,sans-Serif" font-size="10.00">epoxy/gl.h</text>
</a>
</g>
</g>
<!-- Node2&#45;&gt;Node18 -->
<g id="edge17_Node000002_Node000018" class="edge">
<title>Node2&#45;&gt;Node18</title>
<g id="a_edge17_Node000002_Node000018"><a xlink:title=" ">
<path fill="none" stroke="#63b8ff" d="M758.19,-111.53C761.15,-110.94 764.13,-110.42 767,-110 1011.84,-74.29 1079.59,-105.53 1328.72,-73.98"/>
<polygon fill="#63b8ff" stroke="#63b8ff" points="1329.33,-77.43 1338.8,-72.68 1328.43,-70.49 1329.33,-77.43"/>
</a>
</g>
</g>
<!-- Node19 -->
<g id="Node000019" class="node">
<title>Node19</title>
<g id="a_Node000019"><a xlink:title=" ">
<polygon fill="#e0e0e0" stroke="#999999" points="1481,-74 1425,-74 1425,-55 1481,-55 1481,-74"/>
<text text-anchor="middle" x="1453" y="-62" font-family="Helvetica,sans-Serif" font-size="10.00">GL/glu.h</text>
</a>
</g>
</g>
<!-- Node2&#45;&gt;Node19 -->
<g id="edge18_Node000002_Node000019" class="edge">
<title>Node2&#45;&gt;Node19</title>
<g id="a_edge18_Node000002_Node000019"><a xlink:title=" ">
<path fill="none" stroke="#63b8ff" d="M758.19,-111.5C761.15,-110.92 764.13,-110.41 767,-110 1049.68,-69.99 1128.13,-113.45 1414.53,-73.94"/>
<polygon fill="#63b8ff" stroke="#63b8ff" points="1415.39,-77.35 1424.81,-72.5 1414.42,-70.42 1415.39,-77.35"/>
</a>
</g>
</g>
<!-- Node20 -->
<g id="Node000020" class="node">
<title>Node20</title>
<g id="a_Node000020"><a xlink:title=" ">
<polygon fill="#e0e0e0" stroke="#999999" points="1573,-74 1499,-74 1499,-55 1573,-55 1573,-74"/>
<text text-anchor="middle" x="1536" y="-62" font-family="Helvetica,sans-Serif" font-size="10.00">epoxy/glx.h</text>
</a>
</g>
</g>
<!-- Node2&#45;&gt;Node20 -->
<g id="edge19_Node000002_Node000020" class="edge">
<title>Node2&#45;&gt;Node20</title>
<g id="a_edge19_Node000002_Node000020"><a xlink:title=" ">
<path fill="none" stroke="#63b8ff" d="M758.19,-111.49C761.15,-110.91 764.13,-110.4 767,-110 1082.41,-66.26 1168.68,-110.39 1488.88,-73.95"/>
<polygon fill="#63b8ff" stroke="#63b8ff" points="1489.37,-77.42 1498.91,-72.79 1488.57,-70.46 1489.37,-77.42"/>
</a>
</g>
</g>
<!-- Node21 -->
<g id="Node000021" class="node">
<title>Node21</title>
<g id="a_Node000021"><a xlink:href="../../dc/db0/math__3d_8h.html" target="_top" xlink:title="Functions for OpenGL math.">
<polygon fill="white" stroke="#666666" points="480,-74 412,-74 412,-55 480,-55 480,-74"/>
<text text-anchor="middle" x="446" y="-62" font-family="Helvetica,sans-Serif" font-size="10.00">math_3d.h</text>
</a>
</g>
</g>
<!-- Node2&#45;&gt;Node21 -->
<g id="edge20_Node000002_Node000021" class="edge">
<title>Node2&#45;&gt;Node21</title>
<g id="a_edge20_Node000002_Node000021"><a xlink:title=" ">
<path fill="none" stroke="#63b8ff" d="M701.99,-113.27C652.62,-104.06 549.73,-84.86 490.53,-73.81"/>
<polygon fill="#63b8ff" stroke="#63b8ff" points="490.83,-70.31 480.36,-71.91 489.55,-77.19 490.83,-70.31"/>
</a>
</g>
</g>
<!-- Node22 -->
<g id="Node000022" class="node">
<title>Node22</title>
<g id="a_Node000022"><a xlink:href="../../da/d7e/glwin_8h.html" target="_top" xlink:title="Variable declarations related the OpenGL window &#160;&#160;Data structure declarations related the OpenGL wind...">
<polygon fill="white" stroke="#666666" points="1643,-74 1591,-74 1591,-55 1643,-55 1643,-74"/>
<text text-anchor="middle" x="1617" y="-62" font-family="Helvetica,sans-Serif" font-size="10.00">glwin.h</text>
</a>
</g>
</g>
<!-- Node2&#45;&gt;Node22 -->
<g id="edge23_Node000002_Node000022" class="edge">
<title>Node2&#45;&gt;Node22</title>
<g id="a_edge23_Node000002_Node000022"><a xlink:title=" ">
<path fill="none" stroke="#63b8ff" d="M758.18,-111.47C761.15,-110.9 764.13,-110.39 767,-110 1122.94,-61.66 1221.21,-123.85 1580.57,-73.89"/>
<polygon fill="#63b8ff" stroke="#63b8ff" points="1581.32,-77.32 1590.73,-72.46 1580.34,-70.39 1581.32,-77.32"/>
</a>
</g>
</g>
<!-- Node24 -->
<g id="Node000024" class="node">
<title>Node24</title>
<g id="a_Node000024"><a xlink:title=" ">
<polygon fill="#e0e0e0" stroke="#999999" points="1727,-74 1661,-74 1661,-55 1727,-55 1727,-74"/>
<text text-anchor="middle" x="1694" y="-62" font-family="Helvetica,sans-Serif" font-size="10.00">gtk/gtkx.h</text>
</a>
</g>
</g>
<!-- Node2&#45;&gt;Node24 -->
<g id="edge25_Node000002_Node000024" class="edge">
<title>Node2&#45;&gt;Node24</title>
<g id="a_edge25_Node000002_Node000024"><a xlink:title=" ">
<path fill="none" stroke="#63b8ff" d="M758.18,-111.46C761.15,-110.89 764.13,-110.39 767,-110 1153.84,-58.15 1259.38,-120.12 1650.43,-73.97"/>
<polygon fill="#63b8ff" stroke="#63b8ff" points="1651.09,-77.42 1660.61,-72.76 1650.26,-70.47 1651.09,-77.42"/>
</a>
</g>
</g>
<!-- Node21&#45;&gt;Node8 -->
<g id="edge22_Node000021_Node000008" class="edge">
<title>Node21&#45;&gt;Node8</title>
<g id="a_edge22_Node000021_Node000008"><a xlink:title=" ">
<path fill="none" stroke="#63b8ff" d="M438.07,-54.75C431.15,-47.11 420.93,-35.82 412.55,-26.56"/>
<polygon fill="#63b8ff" stroke="#63b8ff" points="415.09,-24.15 405.78,-19.09 409.9,-28.85 415.09,-24.15"/>
</a>
</g>
</g>
<!-- Node21&#45;&gt;Node12 -->
<g id="edge21_Node000021_Node000012" class="edge">
<title>Node21&#45;&gt;Node12</title>
<g id="a_edge21_Node000021_Node000012"><a xlink:title=" ">
<path fill="none" stroke="#63b8ff" d="M451.78,-54.75C456.62,-47.42 463.68,-36.73 469.64,-27.7"/>
<polygon fill="#63b8ff" stroke="#63b8ff" points="472.74,-29.36 475.33,-19.09 466.9,-25.5 472.74,-29.36"/>
</a>
</g>
</g>
<!-- Node23 -->
<g id="Node000023" class="node">
<title>Node23</title>
<g id="a_Node000023"><a xlink:href="../../d5/d9e/ogl__shading_8h.html" target="_top" xlink:title="Variable declarations related to GLSL programs &#160;&#160;Data structure declarations related to GLSL programs...">
<polygon fill="white" stroke="#666666" points="1659,-19 1575,-19 1575,0 1659,0 1659,-19"/>
<text text-anchor="middle" x="1617" y="-7" font-family="Helvetica,sans-Serif" font-size="10.00">ogl_shading.h</text>
</a>
</g>
</g>
<!-- Node22&#45;&gt;Node23 -->
<g id="edge24_Node000022_Node000023" class="edge">
<title>Node22&#45;&gt;Node23</title>
<g id="a_edge24_Node000022_Node000023"><a xlink:title=" ">
<path fill="none" stroke="#63b8ff" d="M1617,-54.75C1617,-47.8 1617,-37.85 1617,-29.13"/>
<polygon fill="#63b8ff" stroke="#63b8ff" points="1620.5,-29.09 1617,-19.09 1613.5,-29.09 1620.5,-29.09"/>
</a>
</g>
</g>
<!-- Node30&#45;&gt;Node2 -->
<g id="edge32_Node000030_Node000002" class="edge">
<title>Node30&#45;&gt;Node2</title>
<g id="a_edge32_Node000030_Node000002"><a xlink:title=" ">
<path fill="none" stroke="#63b8ff" d="M1003.19,-168.15C952.12,-160.75 858.06,-146.52 768.31,-129.15"/>
<polygon fill="#63b8ff" stroke="#63b8ff" points="768.73,-125.67 758.24,-127.19 767.39,-132.54 768.73,-125.67"/>
</a>
</g>
</g>
<!-- Node30&#45;&gt;Node25 -->
<g id="edge33_Node000030_Node000025" class="edge">
<title>Node30&#45;&gt;Node25</title>
<g id="a_edge33_Node000030_Node000025"><a xlink:title=" ">
<path fill="none" stroke="#63b8ff" d="M1003.5,-166.1C963.62,-158.1 898.47,-144.67 833.7,-129.32"/>
<polygon fill="#63b8ff" stroke="#63b8ff" points="834.27,-125.86 823.73,-126.94 832.65,-132.67 834.27,-125.86"/>
</a>
</g>
</g>
<!-- Node30&#45;&gt;Node26 -->
<g id="edge35_Node000030_Node000026" class="edge">
<title>Node30&#45;&gt;Node26</title>
<g id="a_edge35_Node000030_Node000026"><a xlink:title=" ">
<path fill="none" stroke="#63b8ff" d="M1014.49,-164.98C986.79,-156.09 943.14,-142.07 912.26,-132.15"/>
<polygon fill="#63b8ff" stroke="#63b8ff" points="913.31,-128.81 902.72,-129.08 911.17,-135.47 913.31,-128.81"/>
</a>
</g>
</g>
<!-- Node30&#45;&gt;Node27 -->
<g id="edge34_Node000030_Node000027" class="edge">
<title>Node30&#45;&gt;Node27</title>
<g id="a_edge34_Node000030_Node000027"><a xlink:title=" ">
<path fill="none" stroke="#63b8ff" d="M1028.63,-164.98C1016.91,-156.92 999.08,-144.65 985.11,-135.03"/>
<polygon fill="#63b8ff" stroke="#63b8ff" points="986.82,-131.96 976.6,-129.17 982.85,-137.72 986.82,-131.96"/>
</a>
</g>
</g>
<!-- Node30&#45;&gt;Node28 -->
<g id="edge39_Node000030_Node000028" class="edge">
<title>Node30&#45;&gt;Node28</title>
<g id="a_edge39_Node000030_Node000028"><a xlink:title=" ">
<path fill="none" stroke="#63b8ff" d="M1078.9,-166.85C1124.32,-158.8 1202.97,-144.59 1280.3,-129.09"/>
<polygon fill="#63b8ff" stroke="#63b8ff" points="1281.1,-132.5 1290.21,-127.09 1279.72,-125.64 1281.1,-132.5"/>
</a>
</g>
</g>
<!-- Node30&#45;&gt;Node29 -->
<g id="edge37_Node000030_Node000029" class="edge">
<title>Node30&#45;&gt;Node29</title>
<g id="a_edge37_Node000030_Node000029"><a xlink:title=" ">
<path fill="none" stroke="#63b8ff" d="M1078.86,-169.28C1136.82,-162.58 1251.21,-148.45 1357.44,-129.16"/>
<polygon fill="#63b8ff" stroke="#63b8ff" points="1358.16,-132.58 1367.37,-127.34 1356.9,-125.7 1358.16,-132.58"/>
</a>
</g>
</g>
<!-- Node31 -->
<g id="Node000031" class="node">
<title>Node31</title>
<g id="a_Node000031"><a xlink:href="../../d6/d75/initcoord_8h.html" target="_top" xlink:title="Function declarations to handle the atomic coordination data.">
<polygon fill="white" stroke="#666666" points="1086,-129 1018,-129 1018,-110 1086,-110 1086,-129"/>
<text text-anchor="middle" x="1052" y="-117" font-family="Helvetica,sans-Serif" font-size="10.00">initcoord.h</text>
</a>
</g>
</g>
<!-- Node30&#45;&gt;Node31 -->
<g id="edge36_Node000030_Node000031" class="edge">
<title>Node30&#45;&gt;Node31</title>
<g id="a_edge36_Node000030_Node000031"><a xlink:title=" ">
<path fill="none" stroke="#63b8ff" d="M1042.82,-164.75C1044.26,-157.8 1046.32,-147.85 1048.13,-139.13"/>
<polygon fill="#63b8ff" stroke="#63b8ff" points="1051.61,-139.59 1050.22,-129.09 1044.76,-138.17 1051.61,-139.59"/>
</a>
</g>
</g>
<!-- Node32 -->
<g id="Node000032" class="node">
<title>Node32</title>
<g id="a_Node000032"><a xlink:href="../../d1/d2a/glwindow_8h.html" target="_top" xlink:title="Function declarations for the creation of the OpenGL window.">
<polygon fill="white" stroke="#666666" points="1175.5,-129 1104.5,-129 1104.5,-110 1175.5,-110 1175.5,-129"/>
<text text-anchor="middle" x="1140" y="-117" font-family="Helvetica,sans-Serif" font-size="10.00">glwindow.h</text>
</a>
</g>
</g>
<!-- Node30&#45;&gt;Node32 -->
<g id="edge38_Node000030_Node000032" class="edge">
<title>Node30&#45;&gt;Node32</title>
<g id="a_edge38_Node000030_Node000032"><a xlink:title=" ">
<path fill="none" stroke="#63b8ff" d="M1056.91,-164.98C1072.55,-156.61 1096.66,-143.7 1114.88,-133.95"/>
<polygon fill="#63b8ff" stroke="#63b8ff" points="1116.64,-136.98 1123.8,-129.17 1113.34,-130.8 1116.64,-136.98"/>
</a>
</g>
</g>
<!-- Node33 -->
<g id="Node000033" class="node">
<title>Node33</title>
<g id="a_Node000033"><a xlink:href="../../d4/de6/workspace_8h.html" target="_top" xlink:title="Function declarations for workspace managment.">
<polygon fill="white" stroke="#666666" points="1272,-129 1194,-129 1194,-110 1272,-110 1272,-129"/>
<text text-anchor="middle" x="1233" y="-117" font-family="Helvetica,sans-Serif" font-size="10.00">workspace.h</text>
</a>
</g>
</g>
<!-- Node30&#45;&gt;Node33 -->
<g id="edge40_Node000030_Node000033" class="edge">
<title>Node30&#45;&gt;Node33</title>
<g id="a_edge40_Node000030_Node000033"><a xlink:title=" ">
<path fill="none" stroke="#63b8ff" d="M1071.85,-164.98C1104.5,-155.97 1156.2,-141.7 1192.2,-131.76"/>
<polygon fill="#63b8ff" stroke="#63b8ff" points="1193.2,-135.12 1201.91,-129.08 1191.34,-128.37 1193.2,-135.12"/>
</a>
</g>
</g>
</g>
</svg>
