<?xml version="1.0" encoding="UTF-8" standalone="no"?>
<!DOCTYPE svg PUBLIC "-//W3C//DTD SVG 1.1//EN"
 "http://www.w3.org/Graphics/SVG/1.1/DTD/svg11.dtd">
<!-- Generated by graphviz version 2.43.0 (0)
 -->
<!-- Title: /home/slookeur/files/codeblocks&#45;files/atomes/src/opengl/edit/cbuild_edit.c Pages: 1 -->
<!--zoomable 269 -->

<svg id="main" version="1.1" xmlns="http://www.w3.org/2000/svg" xmlns:xlink="http://www.w3.org/1999/xlink" xml:space="preserve" onload="init(evt)">
<style type="text/css"><![CDATA[
.node, .edge {opacity: 0.7;}
.node.selected, .edge.selected {opacity: 1;}
.edge:hover path { stroke: red; }
.edge:hover polygon { stroke: red; fill: red; }
]]></style>

<defs>
  <circle id="rim" cx="0" cy="0" r="7"/>
  <circle id="rim2" cx="0" cy="0" r="3.5"/>
  <g id="zoomPlus">
    <use xlink:href="#rim" fill="#404040"><set attributeName="fill" to="#808080" begin="zoomplus.mouseover" end="zoomplus.mouseout"/></use>
    <path d="M-4,0h8M0,-4v8" fill="none" stroke="white" stroke-width="1.5" pointer-events="none"/>
  </g>
  <g id="zoomMin">
    <use xlink:href="#rim" fill="#404040"><set attributeName="fill" to="#808080" begin="zoomminus.mouseover" end="zoomminus.mouseout"/></use>
    <path d="M-4,0h8" fill="none" stroke="white" stroke-width="1.5" pointer-events="none"/>
  </g>
  <g id="arrowUp" transform="translate(30 24)">
    <use xlink:href="#rim"/>
    <path pointer-events="none" fill="none" stroke="white" stroke-width="1.5" d="M0,-3.0v7 M-2.5,-0.5L0,-3.0L2.5,-0.5"/>
  </g>
  <g id="arrowRight" transform="rotate(90) translate(36 -43)">
    <use xlink:href="#rim"/>
    <path pointer-events="none" fill="none" stroke="white" stroke-width="1.5" d="M0,-3.0v7 M-2.5,-0.5L0,-3.0L2.5,-0.5"/>
  </g>
  <g id="arrowDown" transform="rotate(180) translate(-30 -48)">
    <use xlink:href="#rim"/>
    <path pointer-events="none" fill="none" stroke="white" stroke-width="1.5" d="M0,-3.0v7 M-2.5,-0.5L0,-3.0L2.5,-0.5"/>
  </g>
  <g id="arrowLeft" transform="rotate(270) translate(-36 17)">
    <use xlink:href="#rim"/>
    <path pointer-events="none" fill="none" stroke="white" stroke-width="1.5" d="M0,-3.0v7 M-2.5,-0.5L0,-3.0L2.5,-0.5"/>
  </g>
  <g id="resetDef">
    <use xlink:href="#rim2" fill="#404040"><set attributeName="fill" to="#808080" begin="reset.mouseover" end="reset.mouseout"/></use>
  </g>
</defs>
<script type="application/ecmascript">
var viewWidth = 2217;
var viewHeight = 269;
var sectionId = 'dynsection-0';
</script>
<script type="application/ecmascript" xlink:href="../../svg.min.js"/>
<svg id="graph" class="graph">
<g id="viewport">
<title>/home/slookeur/files/codeblocks&#45;files/atomes/src/opengl/edit/cbuild_edit.c</title>
<!-- Node1 -->
<g id="Node000001" class="node">
<title>Node1</title>
<g id="a_Node000001"><a xlink:title="Functions to create the crystal builder window.">
<polygon fill="#999999" stroke="#666666" points="1590.5,-261 1434.5,-261 1434.5,-220 1590.5,-220 1590.5,-261"/>
<text text-anchor="start" x="1442.5" y="-249" font-family="Helvetica,sans-Serif" font-size="10.00">/home/slookeur/files</text>
<text text-anchor="start" x="1442.5" y="-238" font-family="Helvetica,sans-Serif" font-size="10.00">/codeblocks&#45;files/atomes</text>
<text text-anchor="middle" x="1512.5" y="-227" font-family="Helvetica,sans-Serif" font-size="10.00">/src/opengl/edit/cbuild_edit.c</text>
</a>
</g>
</g>
<!-- Node2 -->
<g id="Node000002" class="node">
<title>Node2</title>
<g id="a_Node000002"><a xlink:href="../../d2/d49/global_8h.html" target="_top" xlink:title="Global variable declarations &#160;&#160;Global convenience function declarations &#160;&#160;Global data structure defin...">
<polygon fill="white" stroke="#666666" points="1060.5,-129 1004.5,-129 1004.5,-110 1060.5,-110 1060.5,-129"/>
<text text-anchor="middle" x="1032.5" y="-117" font-family="Helvetica,sans-Serif" font-size="10.00">global.h</text>
</a>
</g>
</g>
<!-- Node1&#45;&gt;Node2 -->
<g id="edge1_Node000001_Node000002" class="edge">
<title>Node1&#45;&gt;Node2</title>
<g id="a_edge1_Node000001_Node000002"><a xlink:title=" ">
<path fill="none" stroke="#63b8ff" d="M1434.24,-223.31C1384.6,-212.76 1319.1,-198.34 1261.5,-184 1193.76,-167.13 1115.53,-144.82 1070.26,-131.63"/>
<polygon fill="#63b8ff" stroke="#63b8ff" points="1071.16,-128.25 1060.58,-128.8 1069.19,-134.97 1071.16,-128.25"/>
</a>
</g>
</g>
<!-- Node25 -->
<g id="Node000025" class="node">
<title>Node25</title>
<g id="a_Node000025"><a xlink:href="../../d4/da9/interface_8h.html" target="_top" xlink:title="Messaging function declarations.">
<polygon fill="white" stroke="#666666" points="1340,-184 1271,-184 1271,-165 1340,-165 1340,-184"/>
<text text-anchor="middle" x="1305.5" y="-172" font-family="Helvetica,sans-Serif" font-size="10.00">interface.h</text>
</a>
</g>
</g>
<!-- Node1&#45;&gt;Node25 -->
<g id="edge26_Node000001_Node000025" class="edge">
<title>Node1&#45;&gt;Node25</title>
<g id="a_edge26_Node000001_Node000025"><a xlink:title=" ">
<path fill="none" stroke="#63b8ff" d="M1449.27,-219.95C1414.49,-209.2 1372.52,-196.22 1342.94,-187.07"/>
<polygon fill="#63b8ff" stroke="#63b8ff" points="1343.61,-183.62 1333.02,-184.01 1341.54,-190.31 1343.61,-183.62"/>
</a>
</g>
</g>
<!-- Node26 -->
<g id="Node000026" class="node">
<title>Node26</title>
<g id="a_Node000026"><a xlink:href="../../dc/de3/glview_8h.html" target="_top" xlink:title="Variable declarations related to the OpenGL window &#160;&#160;Function declarations related to the OpenGL wind...">
<polygon fill="white" stroke="#666666" points="1415,-184 1358,-184 1358,-165 1415,-165 1415,-184"/>
<text text-anchor="middle" x="1386.5" y="-172" font-family="Helvetica,sans-Serif" font-size="10.00">glview.h</text>
</a>
</g>
</g>
<!-- Node1&#45;&gt;Node26 -->
<g id="edge27_Node000001_Node000026" class="edge">
<title>Node1&#45;&gt;Node26</title>
<g id="a_edge27_Node000001_Node000026"><a xlink:title=" ">
<path fill="none" stroke="#63b8ff" d="M1474.01,-219.95C1454.1,-209.84 1430.33,-197.76 1412.59,-188.75"/>
<polygon fill="#63b8ff" stroke="#63b8ff" points="1413.92,-185.5 1403.42,-184.09 1410.75,-191.74 1413.92,-185.5"/>
</a>
</g>
</g>
<!-- Node27 -->
<g id="Node000027" class="node">
<title>Node27</title>
<g id="a_Node000027"><a xlink:href="../../de/d8a/cbuild__edit_8h.html" target="_top" xlink:title="Function declarations for the crystal builder.">
<polygon fill="white" stroke="#666666" points="1512,-184 1433,-184 1433,-165 1512,-165 1512,-184"/>
<text text-anchor="middle" x="1472.5" y="-172" font-family="Helvetica,sans-Serif" font-size="10.00">cbuild_edit.h</text>
</a>
</g>
</g>
<!-- Node1&#45;&gt;Node27 -->
<g id="edge28_Node000001_Node000027" class="edge">
<title>Node1&#45;&gt;Node27</title>
<g id="a_edge28_Node000001_Node000027"><a xlink:title=" ">
<path fill="none" stroke="#63b8ff" d="M1500.28,-219.95C1494.87,-211.3 1488.56,-201.2 1483.33,-192.82"/>
<polygon fill="#63b8ff" stroke="#63b8ff" points="1486.24,-190.89 1477.98,-184.26 1480.31,-194.6 1486.24,-190.89"/>
</a>
</g>
</g>
<!-- Node29 -->
<g id="Node000029" class="node">
<title>Node29</title>
<g id="a_Node000029"><a xlink:href="../../da/dc2/bind_8h.html" target="_top" xlink:title="Binding to the Fortran90 subroutines.">
<polygon fill="white" stroke="#666666" points="1577,-184 1530,-184 1530,-165 1577,-165 1577,-184"/>
<text text-anchor="middle" x="1553.5" y="-172" font-family="Helvetica,sans-Serif" font-size="10.00">bind.h</text>
</a>
</g>
</g>
<!-- Node1&#45;&gt;Node29 -->
<g id="edge31_Node000001_Node000029" class="edge">
<title>Node1&#45;&gt;Node29</title>
<g id="a_edge31_Node000001_Node000029"><a xlink:title=" ">
<path fill="none" stroke="#63b8ff" d="M1525.02,-219.95C1530.57,-211.3 1537.03,-201.2 1542.4,-192.82"/>
<polygon fill="#63b8ff" stroke="#63b8ff" points="1545.44,-194.57 1547.89,-184.26 1539.55,-190.79 1545.44,-194.57"/>
</a>
</g>
</g>
<!-- Node30 -->
<g id="Node000030" class="node">
<title>Node30</title>
<g id="a_Node000030"><a xlink:href="../../dc/d8d/project_8h.html" target="_top" xlink:title="Function declarations for reading atomes project file &#160;&#160;Function declarations for saving atomes proje...">
<polygon fill="white" stroke="#666666" points="1654,-184 1595,-184 1595,-165 1654,-165 1654,-184"/>
<text text-anchor="middle" x="1624.5" y="-172" font-family="Helvetica,sans-Serif" font-size="10.00">project.h</text>
</a>
</g>
</g>
<!-- Node1&#45;&gt;Node30 -->
<g id="edge32_Node000001_Node000030" class="edge">
<title>Node1&#45;&gt;Node30</title>
<g id="a_edge32_Node000001_Node000030"><a xlink:title=" ">
<path fill="none" stroke="#63b8ff" d="M1546.71,-219.95C1564.08,-210.03 1584.76,-198.21 1600.43,-189.25"/>
<polygon fill="#63b8ff" stroke="#63b8ff" points="1602.52,-192.09 1609.46,-184.09 1599.05,-186.01 1602.52,-192.09"/>
</a>
</g>
</g>
<!-- Node31 -->
<g id="Node000031" class="node">
<title>Node31</title>
<g id="a_Node000031"><a xlink:href="../../d4/de6/workspace_8h.html" target="_top" xlink:title="Function declarations for workspace managment.">
<polygon fill="white" stroke="#666666" points="1750.5,-184 1672.5,-184 1672.5,-165 1750.5,-165 1750.5,-184"/>
<text text-anchor="middle" x="1711.5" y="-172" font-family="Helvetica,sans-Serif" font-size="10.00">workspace.h</text>
</a>
</g>
</g>
<!-- Node1&#45;&gt;Node31 -->
<g id="edge33_Node000001_Node000031" class="edge">
<title>Node1&#45;&gt;Node31</title>
<g id="a_edge33_Node000001_Node000031"><a xlink:title=" ">
<path fill="none" stroke="#63b8ff" d="M1573.29,-219.95C1606.72,-209.2 1647.07,-196.22 1675.51,-187.07"/>
<polygon fill="#63b8ff" stroke="#63b8ff" points="1676.6,-190.4 1685.05,-184.01 1674.45,-183.74 1676.6,-190.4"/>
</a>
</g>
</g>
<!-- Node32 -->
<g id="Node000032" class="node">
<title>Node32</title>
<g id="a_Node000032"><a xlink:href="../../d1/dfb/readers_8h.html" target="_top" xlink:title="Functions declaration to read atomic coordinates.">
<polygon fill="white" stroke="#666666" points="1914.5,-184 1852.5,-184 1852.5,-165 1914.5,-165 1914.5,-184"/>
<text text-anchor="middle" x="1883.5" y="-172" font-family="Helvetica,sans-Serif" font-size="10.00">readers.h</text>
</a>
</g>
</g>
<!-- Node1&#45;&gt;Node32 -->
<g id="edge34_Node000001_Node000032" class="edge">
<title>Node1&#45;&gt;Node32</title>
<g id="a_edge34_Node000001_Node000032"><a xlink:title=" ">
<path fill="none" stroke="#63b8ff" d="M1590.73,-226.01C1667.5,-212.76 1781.61,-193.08 1842.21,-182.62"/>
<polygon fill="#63b8ff" stroke="#63b8ff" points="1842.91,-186.05 1852.17,-180.91 1841.72,-179.16 1842.91,-186.05"/>
</a>
</g>
</g>
<!-- Node3 -->
<g id="Node000003" class="node">
<title>Node3</title>
<g id="a_Node000003"><a xlink:title=" ">
<polygon fill="#e0e0e0" stroke="#999999" points="1486.5,-74 1442.5,-74 1442.5,-55 1486.5,-55 1486.5,-74"/>
<text text-anchor="middle" x="1464.5" y="-62" font-family="Helvetica,sans-Serif" font-size="10.00">glib.h</text>
</a>
</g>
</g>
<!-- Node2&#45;&gt;Node3 -->
<g id="edge2_Node000002_Node000003" class="edge">
<title>Node2&#45;&gt;Node3</title>
<g id="a_edge2_Node000002_Node000003"><a xlink:title=" ">
<path fill="none" stroke="#63b8ff" d="M1060.93,-116.88C1125.4,-112.89 1287.71,-101.01 1432.31,-73.94"/>
<polygon fill="#63b8ff" stroke="#63b8ff" points="1433.08,-77.36 1442.25,-72.05 1431.77,-70.48 1433.08,-77.36"/>
</a>
</g>
</g>
<!-- Node4 -->
<g id="Node000004" class="node">
<title>Node4</title>
<g id="a_Node000004"><a xlink:title=" ">
<polygon fill="#e0e0e0" stroke="#999999" points="1578.5,-74 1504.5,-74 1504.5,-55 1578.5,-55 1578.5,-74"/>
<text text-anchor="middle" x="1541.5" y="-62" font-family="Helvetica,sans-Serif" font-size="10.00">glib/gi18n.h</text>
</a>
</g>
</g>
<!-- Node2&#45;&gt;Node4 -->
<g id="edge3_Node000002_Node000004" class="edge">
<title>Node2&#45;&gt;Node4</title>
<g id="a_edge3_Node000002_Node000004"><a xlink:title=" ">
<path fill="none" stroke="#63b8ff" d="M1060.52,-116.66C1131.42,-111.82 1323.84,-97.57 1494.48,-74.03"/>
<polygon fill="#63b8ff" stroke="#63b8ff" points="1494.97,-77.49 1504.39,-72.64 1494,-70.56 1494.97,-77.49"/>
</a>
</g>
</g>
<!-- Node5 -->
<g id="Node000005" class="node">
<title>Node5</title>
<g id="a_Node000005"><a xlink:title=" ">
<polygon fill="#e0e0e0" stroke="#999999" points="1652,-74 1597,-74 1597,-55 1652,-55 1652,-74"/>
<text text-anchor="middle" x="1624.5" y="-62" font-family="Helvetica,sans-Serif" font-size="10.00">locale.h</text>
</a>
</g>
</g>
<!-- Node2&#45;&gt;Node5 -->
<g id="edge4_Node000002_Node000005" class="edge">
<title>Node2&#45;&gt;Node5</title>
<g id="a_edge4_Node000002_Node000005"><a xlink:title=" ">
<path fill="none" stroke="#63b8ff" d="M1060.68,-117.69C1141.2,-115.07 1379.27,-105.21 1586.55,-73.9"/>
<polygon fill="#63b8ff" stroke="#63b8ff" points="1587.35,-77.32 1596.7,-72.34 1586.29,-70.4 1587.35,-77.32"/>
</a>
</g>
</g>
<!-- Node6 -->
<g id="Node000006" class="node">
<title>Node6</title>
<g id="a_Node000006"><a xlink:title=" ">
<polygon fill="#e0e0e0" stroke="#999999" points="1726.5,-74 1670.5,-74 1670.5,-55 1726.5,-55 1726.5,-74"/>
<text text-anchor="middle" x="1698.5" y="-62" font-family="Helvetica,sans-Serif" font-size="10.00">unistd.h</text>
</a>
</g>
</g>
<!-- Node2&#45;&gt;Node6 -->
<g id="edge5_Node000002_Node000006" class="edge">
<title>Node2&#45;&gt;Node6</title>
<g id="a_edge5_Node000002_Node000006"><a xlink:title=" ">
<path fill="none" stroke="#63b8ff" d="M1060.52,-118C1149.03,-116.12 1430.42,-107.69 1660.5,-74 1660.6,-73.99 1660.7,-73.97 1660.8,-73.96"/>
<polygon fill="#63b8ff" stroke="#63b8ff" points="1661.12,-77.45 1670.37,-72.28 1659.91,-70.56 1661.12,-77.45"/>
</a>
</g>
</g>
<!-- Node7 -->
<g id="Node000007" class="node">
<title>Node7</title>
<g id="a_Node000007"><a xlink:title=" ">
<polygon fill="#e0e0e0" stroke="#999999" points="53,-74 0,-74 0,-55 53,-55 53,-74"/>
<text text-anchor="middle" x="26.5" y="-62" font-family="Helvetica,sans-Serif" font-size="10.00">string.h</text>
</a>
</g>
</g>
<!-- Node2&#45;&gt;Node7 -->
<g id="edge6_Node000002_Node000007" class="edge">
<title>Node2&#45;&gt;Node7</title>
<g id="a_edge6_Node000002_Node000007"><a xlink:title=" ">
<path fill="none" stroke="#63b8ff" d="M1004.34,-118.83C888.25,-119.82 435.66,-120.35 67.5,-74 66.2,-73.84 64.88,-73.65 63.55,-73.46"/>
<polygon fill="#63b8ff" stroke="#63b8ff" points="63.75,-69.94 53.3,-71.69 62.57,-76.84 63.75,-69.94"/>
</a>
</g>
</g>
<!-- Node8 -->
<g id="Node000008" class="node">
<title>Node8</title>
<g id="a_Node000008"><a xlink:title=" ">
<polygon fill="#e0e0e0" stroke="#999999" points="318.5,-19 268.5,-19 268.5,0 318.5,0 318.5,-19"/>
<text text-anchor="middle" x="293.5" y="-7" font-family="Helvetica,sans-Serif" font-size="10.00">stdio.h</text>
</a>
</g>
</g>
<!-- Node2&#45;&gt;Node8 -->
<g id="edge7_Node000002_Node000008" class="edge">
<title>Node2&#45;&gt;Node8</title>
<g id="a_edge7_Node000002_Node000008"><a xlink:title=" ">
<path fill="none" stroke="#63b8ff" d="M1004.4,-118.24C852.24,-116.68 132.48,-107.54 100.5,-74 53.02,-24.2 189.95,-13.42 257.83,-11.12"/>
<polygon fill="#63b8ff" stroke="#63b8ff" points="258.2,-14.61 268.09,-10.81 257.99,-7.61 258.2,-14.61"/>
</a>
</g>
</g>
<!-- Node9 -->
<g id="Node000009" class="node">
<title>Node9</title>
<g id="a_Node000009"><a xlink:title=" ">
<polygon fill="#e0e0e0" stroke="#999999" points="163,-74 110,-74 110,-55 163,-55 163,-74"/>
<text text-anchor="middle" x="136.5" y="-62" font-family="Helvetica,sans-Serif" font-size="10.00">stdlib.h</text>
</a>
</g>
</g>
<!-- Node2&#45;&gt;Node9 -->
<g id="edge8_Node000002_Node000009" class="edge">
<title>Node2&#45;&gt;Node9</title>
<g id="a_edge8_Node000002_Node000009"><a xlink:title=" ">
<path fill="none" stroke="#63b8ff" d="M1004.48,-118.88C897.58,-119.93 505.16,-120.31 173.42,-73.81"/>
<polygon fill="#63b8ff" stroke="#63b8ff" points="173.53,-70.29 163.13,-72.35 172.54,-77.22 173.53,-70.29"/>
</a>
</g>
</g>
<!-- Node10 -->
<g id="Node000010" class="node">
<title>Node10</title>
<g id="a_Node000010"><a xlink:title=" ">
<polygon fill="#e0e0e0" stroke="#999999" points="253.5,-74 181.5,-74 181.5,-55 253.5,-55 253.5,-74"/>
<text text-anchor="middle" x="217.5" y="-62" font-family="Helvetica,sans-Serif" font-size="10.00">sys/types.h</text>
</a>
</g>
</g>
<!-- Node2&#45;&gt;Node10 -->
<g id="edge9_Node000002_Node000010" class="edge">
<title>Node2&#45;&gt;Node10</title>
<g id="a_edge9_Node000002_Node000010"><a xlink:title=" ">
<path fill="none" stroke="#63b8ff" d="M1004.41,-118.18C904.77,-116.78 558.79,-109.59 263.82,-73.99"/>
<polygon fill="#63b8ff" stroke="#63b8ff" points="264.14,-70.51 253.79,-72.77 263.29,-77.46 264.14,-70.51"/>
</a>
</g>
</g>
<!-- Node11 -->
<g id="Node000011" class="node">
<title>Node11</title>
<g id="a_Node000011"><a xlink:title=" ">
<polygon fill="#e0e0e0" stroke="#999999" points="335.5,-74 271.5,-74 271.5,-55 335.5,-55 335.5,-74"/>
<text text-anchor="middle" x="303.5" y="-62" font-family="Helvetica,sans-Serif" font-size="10.00">sys/stat.h</text>
</a>
</g>
</g>
<!-- Node2&#45;&gt;Node11 -->
<g id="edge10_Node000002_Node000011" class="edge">
<title>Node2&#45;&gt;Node11</title>
<g id="a_edge10_Node000002_Node000011"><a xlink:title=" ">
<path fill="none" stroke="#63b8ff" d="M1004.18,-118.09C911.2,-116.43 606.79,-108.63 345.71,-73.96"/>
<polygon fill="#63b8ff" stroke="#63b8ff" points="346.03,-70.47 335.66,-72.61 345.1,-77.41 346.03,-70.47"/>
</a>
</g>
</g>
<!-- Node12 -->
<g id="Node000012" class="node">
<title>Node12</title>
<g id="a_Node000012"><a xlink:title=" ">
<polygon fill="#e0e0e0" stroke="#999999" points="506,-19 455,-19 455,0 506,0 506,-19"/>
<text text-anchor="middle" x="480.5" y="-7" font-family="Helvetica,sans-Serif" font-size="10.00">math.h</text>
</a>
</g>
</g>
<!-- Node2&#45;&gt;Node12 -->
<g id="edge11_Node000002_Node000012" class="edge">
<title>Node2&#45;&gt;Node12</title>
<g id="a_edge11_Node000002_Node000012"><a xlink:title=" ">
<path fill="none" stroke="#63b8ff" d="M1060.68,-118.68C1129.14,-118.24 1294.78,-111.48 1241.5,-55 1216.33,-28.32 664.01,-14.48 516.46,-11.25"/>
<polygon fill="#63b8ff" stroke="#63b8ff" points="516.24,-7.74 506.16,-11.02 516.08,-14.74 516.24,-7.74"/>
</a>
</g>
</g>
<!-- Node13 -->
<g id="Node000013" class="node">
<title>Node13</title>
<g id="a_Node000013"><a xlink:title=" ">
<polygon fill="#e0e0e0" stroke="#999999" points="499.5,-74 439.5,-74 439.5,-55 499.5,-55 499.5,-74"/>
<text text-anchor="middle" x="469.5" y="-62" font-family="Helvetica,sans-Serif" font-size="10.00">gtk/gtk.h</text>
</a>
</g>
</g>
<!-- Node2&#45;&gt;Node13 -->
<g id="edge12_Node000002_Node000013" class="edge">
<title>Node2&#45;&gt;Node13</title>
<g id="a_edge12_Node000002_Node000013"><a xlink:title=" ">
<path fill="none" stroke="#63b8ff" d="M1004.23,-117.39C926.74,-114.08 704.29,-102.74 509.78,-73.99"/>
<polygon fill="#63b8ff" stroke="#63b8ff" points="510.07,-70.5 499.66,-72.48 509.03,-77.42 510.07,-70.5"/>
</a>
</g>
</g>
<!-- Node14 -->
<g id="Node000014" class="node">
<title>Node14</title>
<g id="a_Node000014"><a xlink:title=" ">
<polygon fill="#e0e0e0" stroke="#999999" points="583,-74 518,-74 518,-55 583,-55 583,-74"/>
<text text-anchor="middle" x="550.5" y="-62" font-family="Helvetica,sans-Serif" font-size="10.00">gdk/gdk.h</text>
</a>
</g>
</g>
<!-- Node2&#45;&gt;Node14 -->
<g id="edge13_Node000002_Node000014" class="edge">
<title>Node2&#45;&gt;Node14</title>
<g id="a_edge13_Node000002_Node000014"><a xlink:title=" ">
<path fill="none" stroke="#63b8ff" d="M1004.32,-116.62C935.79,-111.85 754.8,-98 593.13,-73.93"/>
<polygon fill="#63b8ff" stroke="#63b8ff" points="593.41,-70.44 583,-72.41 592.37,-77.36 593.41,-70.44"/>
</a>
</g>
</g>
<!-- Node15 -->
<g id="Node000015" class="node">
<title>Node15</title>
<g id="a_Node000015"><a xlink:title=" ">
<polygon fill="#e0e0e0" stroke="#999999" points="709.5,-74 601.5,-74 601.5,-55 709.5,-55 709.5,-74"/>
<text text-anchor="middle" x="655.5" y="-62" font-family="Helvetica,sans-Serif" font-size="10.00">gdk/gdkkeysyms.h</text>
</a>
</g>
</g>
<!-- Node2&#45;&gt;Node15 -->
<g id="edge14_Node000002_Node000015" class="edge">
<title>Node2&#45;&gt;Node15</title>
<g id="a_edge14_Node000002_Node000015"><a xlink:title=" ">
<path fill="none" stroke="#63b8ff" d="M1004.47,-114.56C944.6,-106.14 802.9,-86.22 719.65,-74.52"/>
<polygon fill="#63b8ff" stroke="#63b8ff" points="719.93,-71.02 709.54,-73.1 718.96,-77.96 719.93,-71.02"/>
</a>
</g>
</g>
<!-- Node16 -->
<g id="Node000016" class="node">
<title>Node16</title>
<g id="a_Node000016"><a xlink:title=" ">
<polygon fill="#e0e0e0" stroke="#999999" points="861,-74 728,-74 728,-55 861,-55 861,-74"/>
<text text-anchor="middle" x="794.5" y="-62" font-family="Helvetica,sans-Serif" font-size="10.00">gdk&#45;pixbuf/gdk&#45;pixbuf.h</text>
</a>
</g>
</g>
<!-- Node2&#45;&gt;Node16 -->
<g id="edge15_Node000002_Node000016" class="edge">
<title>Node2&#45;&gt;Node16</title>
<g id="a_edge15_Node000002_Node000016"><a xlink:title=" ">
<path fill="none" stroke="#63b8ff" d="M1004.26,-112.21C964.49,-103.35 891.41,-87.08 842.88,-76.27"/>
<polygon fill="#63b8ff" stroke="#63b8ff" points="843.44,-72.81 832.92,-74.05 841.92,-79.64 843.44,-72.81"/>
</a>
</g>
</g>
<!-- Node17 -->
<g id="Node000017" class="node">
<title>Node17</title>
<g id="a_Node000017"><a xlink:title=" ">
<polygon fill="#e0e0e0" stroke="#999999" points="980,-74 879,-74 879,-55 980,-55 980,-74"/>
<text text-anchor="middle" x="929.5" y="-62" font-family="Helvetica,sans-Serif" font-size="10.00">pango/pangoft2.h</text>
</a>
</g>
</g>
<!-- Node2&#45;&gt;Node17 -->
<g id="edge16_Node000002_Node000017" class="edge">
<title>Node2&#45;&gt;Node17</title>
<g id="a_edge16_Node000002_Node000017"><a xlink:title=" ">
<path fill="none" stroke="#63b8ff" d="M1015.95,-109.98C999.61,-101.57 974.37,-88.59 955.37,-78.81"/>
<polygon fill="#63b8ff" stroke="#63b8ff" points="956.84,-75.63 946.35,-74.17 953.64,-81.86 956.84,-75.63"/>
</a>
</g>
</g>
<!-- Node18 -->
<g id="Node000018" class="node">
<title>Node18</title>
<g id="a_Node000018"><a xlink:title=" ">
<polygon fill="#e0e0e0" stroke="#999999" points="1066.5,-74 998.5,-74 998.5,-55 1066.5,-55 1066.5,-74"/>
<text text-anchor="middle" x="1032.5" y="-62" font-family="Helvetica,sans-Serif" font-size="10.00">epoxy/gl.h</text>
</a>
</g>
</g>
<!-- Node2&#45;&gt;Node18 -->
<g id="edge17_Node000002_Node000018" class="edge">
<title>Node2&#45;&gt;Node18</title>
<g id="a_edge17_Node000002_Node000018"><a xlink:title=" ">
<path fill="none" stroke="#63b8ff" d="M1032.5,-109.75C1032.5,-102.8 1032.5,-92.85 1032.5,-84.13"/>
<polygon fill="#63b8ff" stroke="#63b8ff" points="1036,-84.09 1032.5,-74.09 1029,-84.09 1036,-84.09"/>
</a>
</g>
</g>
<!-- Node19 -->
<g id="Node000019" class="node">
<title>Node19</title>
<g id="a_Node000019"><a xlink:title=" ">
<polygon fill="#e0e0e0" stroke="#999999" points="1140.5,-74 1084.5,-74 1084.5,-55 1140.5,-55 1140.5,-74"/>
<text text-anchor="middle" x="1112.5" y="-62" font-family="Helvetica,sans-Serif" font-size="10.00">GL/glu.h</text>
</a>
</g>
</g>
<!-- Node2&#45;&gt;Node19 -->
<g id="edge18_Node000002_Node000019" class="edge">
<title>Node2&#45;&gt;Node19</title>
<g id="a_edge18_Node000002_Node000019"><a xlink:title=" ">
<path fill="none" stroke="#63b8ff" d="M1045.35,-109.98C1057.64,-101.84 1076.41,-89.41 1090.98,-79.76"/>
<polygon fill="#63b8ff" stroke="#63b8ff" points="1093.01,-82.61 1099.41,-74.17 1089.14,-76.78 1093.01,-82.61"/>
</a>
</g>
</g>
<!-- Node20 -->
<g id="Node000020" class="node">
<title>Node20</title>
<g id="a_Node000020"><a xlink:title=" ">
<polygon fill="#e0e0e0" stroke="#999999" points="1232.5,-74 1158.5,-74 1158.5,-55 1232.5,-55 1232.5,-74"/>
<text text-anchor="middle" x="1195.5" y="-62" font-family="Helvetica,sans-Serif" font-size="10.00">epoxy/glx.h</text>
</a>
</g>
</g>
<!-- Node2&#45;&gt;Node20 -->
<g id="edge19_Node000002_Node000020" class="edge">
<title>Node2&#45;&gt;Node20</title>
<g id="a_edge19_Node000002_Node000020"><a xlink:title=" ">
<path fill="none" stroke="#63b8ff" d="M1058.69,-109.98C1085.94,-101.13 1128.8,-87.19 1159.28,-77.28"/>
<polygon fill="#63b8ff" stroke="#63b8ff" points="1160.68,-80.5 1169.11,-74.08 1158.51,-73.85 1160.68,-80.5"/>
</a>
</g>
</g>
<!-- Node21 -->
<g id="Node000021" class="node">
<title>Node21</title>
<g id="a_Node000021"><a xlink:href="../../dc/db0/math__3d_8h.html" target="_top" xlink:title="Functions for OpenGL math.">
<polygon fill="white" stroke="#666666" points="421.5,-74 353.5,-74 353.5,-55 421.5,-55 421.5,-74"/>
<text text-anchor="middle" x="387.5" y="-62" font-family="Helvetica,sans-Serif" font-size="10.00">math_3d.h</text>
</a>
</g>
</g>
<!-- Node2&#45;&gt;Node21 -->
<g id="edge20_Node000002_Node000021" class="edge">
<title>Node2&#45;&gt;Node21</title>
<g id="a_edge20_Node000002_Node000021"><a xlink:title=" ">
<path fill="none" stroke="#63b8ff" d="M1004.47,-117.64C919.66,-114.77 658.22,-104.07 431.78,-74"/>
<polygon fill="#63b8ff" stroke="#63b8ff" points="432.08,-70.51 421.7,-72.65 431.15,-77.45 432.08,-70.51"/>
</a>
</g>
</g>
<!-- Node22 -->
<g id="Node000022" class="node">
<title>Node22</title>
<g id="a_Node000022"><a xlink:href="../../da/d7e/glwin_8h.html" target="_top" xlink:title="Variable declarations related the OpenGL window &#160;&#160;Data structure declarations related the OpenGL wind...">
<polygon fill="white" stroke="#666666" points="1340.5,-74 1288.5,-74 1288.5,-55 1340.5,-55 1340.5,-74"/>
<text text-anchor="middle" x="1314.5" y="-62" font-family="Helvetica,sans-Serif" font-size="10.00">glwin.h</text>
</a>
</g>
</g>
<!-- Node2&#45;&gt;Node22 -->
<g id="edge23_Node000002_Node000022" class="edge">
<title>Node2&#45;&gt;Node22</title>
<g id="a_edge23_Node000002_Node000022"><a xlink:title=" ">
<path fill="none" stroke="#63b8ff" d="M1060.86,-113.55C1106.11,-105.58 1197.4,-89.28 1274.5,-74 1275.75,-73.75 1277.03,-73.5 1278.32,-73.24"/>
<polygon fill="#63b8ff" stroke="#63b8ff" points="1279.18,-76.63 1288.27,-71.18 1277.77,-69.77 1279.18,-76.63"/>
</a>
</g>
</g>
<!-- Node24 -->
<g id="Node000024" class="node">
<title>Node24</title>
<g id="a_Node000024"><a xlink:title=" ">
<polygon fill="#e0e0e0" stroke="#999999" points="1424.5,-74 1358.5,-74 1358.5,-55 1424.5,-55 1424.5,-74"/>
<text text-anchor="middle" x="1391.5" y="-62" font-family="Helvetica,sans-Serif" font-size="10.00">gtk/gtkx.h</text>
</a>
</g>
</g>
<!-- Node2&#45;&gt;Node24 -->
<g id="edge25_Node000002_Node000024" class="edge">
<title>Node2&#45;&gt;Node24</title>
<g id="a_edge25_Node000002_Node000024"><a xlink:title=" ">
<path fill="none" stroke="#63b8ff" d="M1060.58,-115.14C1114.36,-108.57 1235.84,-93.13 1347.94,-74.18"/>
<polygon fill="#63b8ff" stroke="#63b8ff" points="1348.79,-77.59 1358.06,-72.46 1347.62,-70.69 1348.79,-77.59"/>
</a>
</g>
</g>
<!-- Node21&#45;&gt;Node8 -->
<g id="edge22_Node000021_Node000008" class="edge">
<title>Node21&#45;&gt;Node8</title>
<g id="a_edge22_Node000021_Node000008"><a xlink:title=" ">
<path fill="none" stroke="#63b8ff" d="M372.4,-54.98C357.68,-46.69 335.08,-33.94 317.83,-24.22"/>
<polygon fill="#63b8ff" stroke="#63b8ff" points="319.31,-21.03 308.88,-19.17 315.87,-27.13 319.31,-21.03"/>
</a>
</g>
</g>
<!-- Node21&#45;&gt;Node12 -->
<g id="edge21_Node000021_Node000012" class="edge">
<title>Node21&#45;&gt;Node12</title>
<g id="a_edge21_Node000021_Node000012"><a xlink:title=" ">
<path fill="none" stroke="#63b8ff" d="M402.44,-54.98C417,-46.69 439.37,-33.94 456.43,-24.22"/>
<polygon fill="#63b8ff" stroke="#63b8ff" points="458.33,-27.16 465.29,-19.17 454.86,-21.08 458.33,-27.16"/>
</a>
</g>
</g>
<!-- Node23 -->
<g id="Node000023" class="node">
<title>Node23</title>
<g id="a_Node000023"><a xlink:href="../../d5/d9e/ogl__shading_8h.html" target="_top" xlink:title="Variable declarations related to GLSL programs &#160;&#160;Data structure declarations related to GLSL programs...">
<polygon fill="white" stroke="#666666" points="1356.5,-19 1272.5,-19 1272.5,0 1356.5,0 1356.5,-19"/>
<text text-anchor="middle" x="1314.5" y="-7" font-family="Helvetica,sans-Serif" font-size="10.00">ogl_shading.h</text>
</a>
</g>
</g>
<!-- Node22&#45;&gt;Node23 -->
<g id="edge24_Node000022_Node000023" class="edge">
<title>Node22&#45;&gt;Node23</title>
<g id="a_edge24_Node000022_Node000023"><a xlink:title=" ">
<path fill="none" stroke="#63b8ff" d="M1314.5,-54.75C1314.5,-47.8 1314.5,-37.85 1314.5,-29.13"/>
<polygon fill="#63b8ff" stroke="#63b8ff" points="1318,-29.09 1314.5,-19.09 1311,-29.09 1318,-29.09"/>
</a>
</g>
</g>
<!-- Node27&#45;&gt;Node2 -->
<g id="edge29_Node000027_Node000002" class="edge">
<title>Node27&#45;&gt;Node2</title>
<g id="a_edge29_Node000027_Node000002"><a xlink:title=" ">
<path fill="none" stroke="#63b8ff" d="M1432.95,-166.44C1429.76,-165.93 1426.58,-165.44 1423.5,-165 1294.53,-146.49 1140.72,-130.86 1070.66,-124.1"/>
<polygon fill="#63b8ff" stroke="#63b8ff" points="1070.83,-120.6 1060.54,-123.12 1070.16,-127.56 1070.83,-120.6"/>
</a>
</g>
</g>
<!-- Node28 -->
<g id="Node000028" class="node">
<title>Node28</title>
<g id="a_Node000028"><a xlink:title=" ">
<polygon fill="#e0e0e0" stroke="#999999" points="1854,-74 1745,-74 1745,-55 1854,-55 1854,-74"/>
<text text-anchor="middle" x="1799.5" y="-62" font-family="Helvetica,sans-Serif" font-size="10.00">libxml/xmlreader.h</text>
</a>
</g>
</g>
<!-- Node27&#45;&gt;Node28 -->
<g id="edge30_Node000027_Node000028" class="edge">
<title>Node27&#45;&gt;Node28</title>
<g id="a_edge30_Node000027_Node000028"><a xlink:title=" ">
<path fill="none" stroke="#63b8ff" d="M1498.43,-164.94C1556.62,-145.72 1697.68,-99.13 1763.97,-77.24"/>
<polygon fill="#63b8ff" stroke="#63b8ff" points="1765.17,-80.53 1773.56,-74.07 1762.97,-73.88 1765.17,-80.53"/>
</a>
</g>
</g>
<!-- Node33 -->
<g id="Node000033" class="node">
<title>Node33</title>
<g id="a_Node000033"><a xlink:href="../../dc/d50/read__isaacs_8h.html" target="_top" xlink:title="Function declarations to read / write ISAACS XML file.">
<polygon fill="white" stroke="#666666" points="1967,-129 1884,-129 1884,-110 1967,-110 1967,-129"/>
<text text-anchor="middle" x="1925.5" y="-117" font-family="Helvetica,sans-Serif" font-size="10.00">read_isaacs.h</text>
</a>
</g>
</g>
<!-- Node32&#45;&gt;Node33 -->
<g id="edge35_Node000032_Node000033" class="edge">
<title>Node32&#45;&gt;Node33</title>
<g id="a_edge35_Node000032_Node000033"><a xlink:title=" ">
<path fill="none" stroke="#63b8ff" d="M1890.44,-164.75C1896.37,-157.26 1905.07,-146.28 1912.32,-137.13"/>
<polygon fill="#63b8ff" stroke="#63b8ff" points="1915.23,-139.1 1918.69,-129.09 1909.74,-134.75 1915.23,-139.1"/>
</a>
</g>
</g>
<!-- Node33&#45;&gt;Node28 -->
<g id="edge38_Node000033_Node000028" class="edge">
<title>Node33&#45;&gt;Node28</title>
<g id="a_edge38_Node000033_Node000028"><a xlink:title=" ">
<path fill="none" stroke="#63b8ff" d="M1905.26,-109.98C1884.8,-101.38 1852.97,-87.99 1829.57,-78.15"/>
<polygon fill="#63b8ff" stroke="#63b8ff" points="1830.69,-74.82 1820.11,-74.17 1827.97,-81.27 1830.69,-74.82"/>
</a>
</g>
</g>
<!-- Node34 -->
<g id="Node000034" class="node">
<title>Node34</title>
<g id="a_Node000034"><a xlink:title=" ">
<polygon fill="#e0e0e0" stroke="#999999" points="2208.5,-74 2104.5,-74 2104.5,-55 2208.5,-55 2208.5,-74"/>
<text text-anchor="middle" x="2156.5" y="-62" font-family="Helvetica,sans-Serif" font-size="10.00">libxml/encoding.h</text>
</a>
</g>
</g>
<!-- Node33&#45;&gt;Node34 -->
<g id="edge36_Node000033_Node000034" class="edge">
<title>Node33&#45;&gt;Node34</title>
<g id="a_edge36_Node000033_Node000034"><a xlink:title=" ">
<path fill="none" stroke="#63b8ff" d="M1962.61,-109.98C2002.49,-100.84 2065.96,-86.27 2109.34,-76.32"/>
<polygon fill="#63b8ff" stroke="#63b8ff" points="2110.13,-79.73 2119.09,-74.08 2108.57,-72.91 2110.13,-79.73"/>
</a>
</g>
</g>
<!-- Node35 -->
<g id="Node000035" class="node">
<title>Node35</title>
<g id="a_Node000035"><a xlink:title=" ">
<polygon fill="#e0e0e0" stroke="#999999" points="1978.5,-74 1872.5,-74 1872.5,-55 1978.5,-55 1978.5,-74"/>
<text text-anchor="middle" x="1925.5" y="-62" font-family="Helvetica,sans-Serif" font-size="10.00">libxml/xmlwriter.h</text>
</a>
</g>
</g>
<!-- Node33&#45;&gt;Node35 -->
<g id="edge37_Node000033_Node000035" class="edge">
<title>Node33&#45;&gt;Node35</title>
<g id="a_edge37_Node000033_Node000035"><a xlink:title=" ">
<path fill="none" stroke="#63b8ff" d="M1925.5,-109.75C1925.5,-102.8 1925.5,-92.85 1925.5,-84.13"/>
<polygon fill="#63b8ff" stroke="#63b8ff" points="1929,-84.09 1925.5,-74.09 1922,-84.09 1929,-84.09"/>
</a>
</g>
</g>
<!-- Node36 -->
<g id="Node000036" class="node">
<title>Node36</title>
<g id="a_Node000036"><a xlink:title=" ">
<polygon fill="#e0e0e0" stroke="#999999" points="2086,-74 1997,-74 1997,-55 2086,-55 2086,-74"/>
<text text-anchor="middle" x="2041.5" y="-62" font-family="Helvetica,sans-Serif" font-size="10.00">libxml/parser.h</text>
</a>
</g>
</g>
<!-- Node33&#45;&gt;Node36 -->
<g id="edge39_Node000033_Node000036" class="edge">
<title>Node33&#45;&gt;Node36</title>
<g id="a_edge39_Node000033_Node000036"><a xlink:title=" ">
<path fill="none" stroke="#63b8ff" d="M1944.14,-109.98C1962.8,-101.46 1991.75,-88.23 2013.24,-78.41"/>
<polygon fill="#63b8ff" stroke="#63b8ff" points="2014.88,-81.51 2022.52,-74.17 2011.97,-75.14 2014.88,-81.51"/>
</a>
</g>
</g>
</g>
</svg>

<g id="navigator" transform="translate(0 0)" fill="#404254">
  <rect fill="#f2f5e9" fill-opacity="0.5" stroke="#606060" stroke-width=".5" x="0" y="0" width="60" height="60"/>
  <use id="zoomplus" xlink:href="#zoomPlus" x="17" y="9" onmousedown="handleZoom(evt,'in')"/>
  <use id="zoomminus" xlink:href="#zoomMin" x="42" y="9" onmousedown="handleZoom(evt,'out')"/>
  <use id="reset" xlink:href="#resetDef" x="30" y="36" onmousedown="handleReset()"/>
   <use id="arrowup" xlink:href="#arrowUp" x="0" y="0" onmousedown="handlePan(0,-1)"/>
  <use id="arrowright" xlink:href="#arrowRight" x="0" y="0" onmousedown="handlePan(1,0)"/>
  <use id="arrowdown" xlink:href="#arrowDown" x="0" y="0" onmousedown="handlePan(0,1)"/>
  <use id="arrowleft" xlink:href="#arrowLeft" x="0" y="0" onmousedown="handlePan(-1,0)"/>
</g>
<svg viewBox="0 0 15 15" width="100%" height="30px" preserveAspectRatio="xMaxYMin meet">
 <g id="arrow_out" transform="scale(0.3 0.3)">
  <a xlink:href="cbuild__edit_8c__incl_org.svg" target="_base">
   <rect id="button" ry="5" rx="5" y="6" x="6" height="38" width="38"
        fill="#f2f5e9" fill-opacity="0.5" stroke="#606060" stroke-width="1.0"/>
   <path id="arrow"
     d="M 11.500037,31.436501 C 11.940474,20.09759 22.043105,11.32322 32.158766,21.979434 L 37.068811,17.246167 C 37.068811,17.246167 37.088388,32 37.088388,32 L 22.160133,31.978069 C 22.160133,31.978069 26.997745,27.140456 26.997745,27.140456 C 18.528582,18.264221 13.291696,25.230495 11.500037,31.436501 z"
     style="fill:#404040;"/>
  </a>
 </g>
</svg>

<style type='text/css'>
<![CDATA[
[data-mouse-over-selected='false'] { opacity: 0.7; }
[data-mouse-over-selected='true']  { opacity: 1.0; }
]]>
</style>
<script type="application/ecmascript"><![CDATA[
document.addEventListener('DOMContentLoaded', (event) => {
  highlightEdges();
  highlightAdjacentNodes();
});
]]></script>
</svg>
