<?xml version="1.0" encoding="UTF-8" standalone="no"?>
<!DOCTYPE svg PUBLIC "-//W3C//DTD SVG 1.1//EN"
 "http://www.w3.org/Graphics/SVG/1.1/DTD/svg11.dtd">
<!-- Generated by graphviz version 2.43.0 (0)
 -->
<!-- Title: classical_field Pages: 1 -->
<svg width="621pt" height="603pt"
 viewBox="0.00 0.00 621.00 603.00" xmlns="http://www.w3.org/2000/svg" xmlns:xlink="http://www.w3.org/1999/xlink">
<g id="graph0" class="graph" transform="scale(1 1) rotate(0) translate(4 599)">
<title>classical_field</title>
<!-- Node1 -->
<g id="Node000001" class="node">
<title>Node1</title>
<g id="a_Node000001"><a xlink:title=" ">
<polygon fill="#999999" stroke="#666666" points="613,-250 528,-250 528,-231 613,-231 613,-250"/>
<text text-anchor="middle" x="570.5" y="-238" font-family="Helvetica,sans-Serif" font-size="10.00">classical_field</text>
</a>
</g>
</g>
<!-- Node2 -->
<g id="Node000002" class="node">
<title>Node2</title>
<g id="a_Node000002"><a xlink:href="../../db/d0d/structfield__molecule.html" target="_top" xlink:title=" ">
<polygon fill="white" stroke="#666666" points="419,-327 331,-327 331,-308 419,-308 419,-327"/>
<text text-anchor="middle" x="375" y="-315" font-family="Helvetica,sans-Serif" font-size="10.00">field_molecule</text>
</a>
</g>
</g>
<!-- Node2&#45;&gt;Node1 -->
<g id="edge1_Node000001_Node000002" class="edge">
<title>Node2&#45;&gt;Node1</title>
<g id="a_edge1_Node000001_Node000002"><a xlink:title=" ">
<path fill="none" stroke="#9a32cd" stroke-dasharray="5,2" d="M409.42,-304.2C448.17,-288.78 511.11,-263.74 545.39,-250.1"/>
<polygon fill="#9a32cd" stroke="#9a32cd" points="408.11,-300.95 400.12,-307.9 410.7,-307.46 408.11,-300.95"/>
</a>
</g>
<text text-anchor="middle" x="473.5" y="-295.5" font-family="Helvetica,sans-Serif" font-size="10.00" fill="grey"> first_molecule</text>
</g>
<!-- Node2&#45;&gt;Node2 -->
<g id="edge20_Node000002_Node000002" class="edge">
<title>Node2&#45;&gt;Node2</title>
<g id="a_edge20_Node000002_Node000002"><a xlink:title=" ">
<path fill="none" stroke="#9a32cd" stroke-dasharray="5,2" d="M356.95,-336.91C358.37,-341.56 364.39,-345 375,-345 392.42,-345 397.45,-335.73 390.1,-327.08"/>
<polygon fill="#9a32cd" stroke="#9a32cd" points="360.38,-337.67 359.9,-327.08 353.67,-335.66 360.38,-337.67"/>
</a>
</g>
<text text-anchor="middle" x="375" y="-359" font-family="Helvetica,sans-Serif" font-size="10.00" fill="grey"> next</text>
<text text-anchor="middle" x="375" y="-348" font-family="Helvetica,sans-Serif" font-size="10.00" fill="grey">prev</text>
</g>
<!-- Node3 -->
<g id="Node000003" class="node">
<title>Node3</title>
<g id="a_Node000003"><a xlink:href="../../dc/d7f/structmolecule.html" target="_top" xlink:title=" ">
<polygon fill="white" stroke="#666666" points="204,-595 142,-595 142,-576 204,-576 204,-595"/>
<text text-anchor="middle" x="173" y="-583" font-family="Helvetica,sans-Serif" font-size="10.00">molecule</text>
</a>
</g>
</g>
<!-- Node3&#45;&gt;Node2 -->
<g id="edge2_Node000002_Node000003" class="edge">
<title>Node3&#45;&gt;Node2</title>
<g id="a_edge2_Node000002_Node000003"><a xlink:title=" ">
<path fill="none" stroke="#9a32cd" stroke-dasharray="5,2" d="M214.26,-580.39C245.38,-574.36 287.37,-561.35 313,-533.5 370,-471.57 374.24,-360.37 374.17,-327.14"/>
<polygon fill="#9a32cd" stroke="#9a32cd" points="213.39,-576.99 204.15,-582.18 214.61,-583.88 213.39,-576.99"/>
</a>
</g>
<text text-anchor="middle" x="275" y="-577.5" font-family="Helvetica,sans-Serif" font-size="10.00" fill="grey"> mol</text>
</g>
<!-- Node4 -->
<g id="Node000004" class="node">
<title>Node4</title>
<g id="a_Node000004"><a xlink:href="../../d0/dbe/structdint.html" target="_top" xlink:title=" ">
<polygon fill="white" stroke="#666666" points="190.5,-558 155.5,-558 155.5,-539 190.5,-539 190.5,-558"/>
<text text-anchor="middle" x="173" y="-546" font-family="Helvetica,sans-Serif" font-size="10.00">dint</text>
</a>
</g>
</g>
<!-- Node4&#45;&gt;Node2 -->
<g id="edge3_Node000002_Node000004" class="edge">
<title>Node4&#45;&gt;Node2</title>
<g id="a_edge3_Node000002_Node000004"><a xlink:title=" ">
<path fill="none" stroke="#9a32cd" stroke-dasharray="5,2" d="M200.28,-539.45C206.58,-536.89 213.17,-533.87 219,-530.5 265.04,-503.91 280.45,-498.55 313,-456.5 345.91,-413.99 365.1,-350.96 371.55,-327.11"/>
<polygon fill="#9a32cd" stroke="#9a32cd" points="198.87,-536.25 190.77,-543.09 201.36,-542.79 198.87,-536.25"/>
</a>
</g>
<text text-anchor="middle" x="275" y="-521.5" font-family="Helvetica,sans-Serif" font-size="10.00" fill="grey"> atoms_id</text>
</g>
<!-- Node5 -->
<g id="Node000005" class="node">
<title>Node5</title>
<g id="a_Node000005"><a xlink:href="../../d2/da4/structfield__atom.html" target="_top" xlink:title=" ">
<polygon fill="white" stroke="#666666" points="207,-481 139,-481 139,-462 207,-462 207,-481"/>
<text text-anchor="middle" x="173" y="-469" font-family="Helvetica,sans-Serif" font-size="10.00">field_atom</text>
</a>
</g>
</g>
<!-- Node5&#45;&gt;Node2 -->
<g id="edge4_Node000002_Node000005" class="edge">
<title>Node5&#45;&gt;Node2</title>
<g id="a_edge4_Node000002_Node000005"><a xlink:title=" ">
<path fill="none" stroke="#9a32cd" stroke-dasharray="5,2" d="M210.52,-457.82C213.43,-456.45 216.29,-455 219,-453.5 264.31,-428.34 274.48,-419.17 313,-384.5 333.81,-365.77 355.17,-340.69 366.26,-327.15"/>
<polygon fill="#9a32cd" stroke="#9a32cd" points="208.92,-454.7 201.16,-461.92 211.73,-461.11 208.92,-454.7"/>
</a>
</g>
<text text-anchor="middle" x="275" y="-444.5" font-family="Helvetica,sans-Serif" font-size="10.00" fill="grey"> first_atom</text>
</g>
<!-- Node5&#45;&gt;Node5 -->
<g id="edge5_Node000005_Node000005" class="edge">
<title>Node5&#45;&gt;Node5</title>
<g id="a_edge5_Node000005_Node000005"><a xlink:title=" ">
<path fill="none" stroke="#9a32cd" stroke-dasharray="5,2" d="M159,-490.91C160.1,-495.56 164.77,-499 173,-499 186.51,-499 190.41,-489.73 184.71,-481.08"/>
<polygon fill="#9a32cd" stroke="#9a32cd" points="162.43,-491.62 161.29,-481.08 155.62,-490.03 162.43,-491.62"/>
</a>
</g>
<text text-anchor="middle" x="173" y="-513" font-family="Helvetica,sans-Serif" font-size="10.00" fill="grey"> next</text>
<text text-anchor="middle" x="173" y="-502" font-family="Helvetica,sans-Serif" font-size="10.00" fill="grey">prev</text>
</g>
<!-- Node6 -->
<g id="Node000006" class="node">
<title>Node6</title>
<g id="a_Node000006"><a xlink:href="../../dc/df4/structfield__shell.html" target="_top" xlink:title=" ">
<polygon fill="white" stroke="#666666" points="206,-404 140,-404 140,-385 206,-385 206,-404"/>
<text text-anchor="middle" x="173" y="-392" font-family="Helvetica,sans-Serif" font-size="10.00">field_shell</text>
</a>
</g>
</g>
<!-- Node6&#45;&gt;Node2 -->
<g id="edge6_Node000002_Node000006" class="edge">
<title>Node6&#45;&gt;Node2</title>
<g id="a_edge6_Node000002_Node000006"><a xlink:title=" ">
<path fill="none" stroke="#9a32cd" stroke-dasharray="5,2" d="M208.28,-381.3C248.32,-365.89 313.57,-340.76 349.08,-327.1"/>
<polygon fill="#9a32cd" stroke="#9a32cd" points="207,-378.04 198.93,-384.9 209.52,-384.58 207,-378.04"/>
</a>
</g>
<text text-anchor="middle" x="275" y="-372.5" font-family="Helvetica,sans-Serif" font-size="10.00" fill="grey"> first_shell</text>
</g>
<!-- Node6&#45;&gt;Node6 -->
<g id="edge7_Node000006_Node000006" class="edge">
<title>Node6&#45;&gt;Node6</title>
<g id="a_edge7_Node000006_Node000006"><a xlink:title=" ">
<path fill="none" stroke="#9a32cd" stroke-dasharray="5,2" d="M159,-413.91C160.1,-418.56 164.77,-422 173,-422 186.51,-422 190.41,-412.73 184.71,-404.08"/>
<polygon fill="#9a32cd" stroke="#9a32cd" points="162.43,-414.62 161.29,-404.08 155.62,-413.03 162.43,-414.62"/>
</a>
</g>
<text text-anchor="middle" x="173" y="-436" font-family="Helvetica,sans-Serif" font-size="10.00" fill="grey"> next</text>
<text text-anchor="middle" x="173" y="-425" font-family="Helvetica,sans-Serif" font-size="10.00" fill="grey">prev</text>
</g>
<!-- Node7 -->
<g id="Node000007" class="node">
<title>Node7</title>
<g id="a_Node000007"><a xlink:href="../../df/df0/structfield__constraint.html" target="_top" xlink:title=" ">
<polygon fill="white" stroke="#666666" points="219,-327 127,-327 127,-308 219,-308 219,-327"/>
<text text-anchor="middle" x="173" y="-315" font-family="Helvetica,sans-Serif" font-size="10.00">field_constraint</text>
</a>
</g>
</g>
<!-- Node7&#45;&gt;Node2 -->
<g id="edge8_Node000002_Node000007" class="edge">
<title>Node7&#45;&gt;Node2</title>
<g id="a_edge8_Node000002_Node000007"><a xlink:title=" ">
<path fill="none" stroke="#9a32cd" stroke-dasharray="5,2" d="M229.49,-317.5C261.51,-317.5 301.18,-317.5 330.85,-317.5"/>
<polygon fill="#9a32cd" stroke="#9a32cd" points="229.38,-314 219.38,-317.5 229.38,-321 229.38,-314"/>
</a>
</g>
<text text-anchor="middle" x="275" y="-320.5" font-family="Helvetica,sans-Serif" font-size="10.00" fill="grey"> first_constraint</text>
</g>
<!-- Node7&#45;&gt;Node7 -->
<g id="edge9_Node000007_Node000007" class="edge">
<title>Node7&#45;&gt;Node7</title>
<g id="a_edge9_Node000007_Node000007"><a xlink:title=" ">
<path fill="none" stroke="#9a32cd" stroke-dasharray="5,2" d="M159,-336.91C160.1,-341.56 164.77,-345 173,-345 186.51,-345 190.41,-335.73 184.71,-327.08"/>
<polygon fill="#9a32cd" stroke="#9a32cd" points="162.43,-337.62 161.29,-327.08 155.62,-336.03 162.43,-337.62"/>
</a>
</g>
<text text-anchor="middle" x="173" y="-359" font-family="Helvetica,sans-Serif" font-size="10.00" fill="grey"> next</text>
<text text-anchor="middle" x="173" y="-348" font-family="Helvetica,sans-Serif" font-size="10.00" fill="grey">prev</text>
</g>
<!-- Node8 -->
<g id="Node000008" class="node">
<title>Node8</title>
<g id="a_Node000008"><a xlink:href="../../df/de6/structfield__pmf.html" target="_top" xlink:title=" ">
<polygon fill="white" stroke="#666666" points="204,-250 142,-250 142,-231 204,-231 204,-250"/>
<text text-anchor="middle" x="173" y="-238" font-family="Helvetica,sans-Serif" font-size="10.00">field_pmf</text>
</a>
</g>
</g>
<!-- Node8&#45;&gt;Node2 -->
<g id="edge10_Node000002_Node000008" class="edge">
<title>Node8&#45;&gt;Node2</title>
<g id="a_edge10_Node000002_Node000008"><a xlink:title=" ">
<path fill="none" stroke="#9a32cd" stroke-dasharray="5,2" d="M208.28,-253.7C248.32,-269.11 313.57,-294.24 349.08,-307.9"/>
<polygon fill="#9a32cd" stroke="#9a32cd" points="209.52,-250.42 198.93,-250.1 207,-256.96 209.52,-250.42"/>
</a>
</g>
<text text-anchor="middle" x="275" y="-295.5" font-family="Helvetica,sans-Serif" font-size="10.00" fill="grey"> first_pmf</text>
</g>
<!-- Node8&#45;&gt;Node8 -->
<g id="edge11_Node000008_Node000008" class="edge">
<title>Node8&#45;&gt;Node8</title>
<g id="a_edge11_Node000008_Node000008"><a xlink:title=" ">
<path fill="none" stroke="#9a32cd" stroke-dasharray="5,2" d="M159,-259.91C160.1,-264.56 164.77,-268 173,-268 186.51,-268 190.41,-258.73 184.71,-250.08"/>
<polygon fill="#9a32cd" stroke="#9a32cd" points="162.43,-260.62 161.29,-250.08 155.62,-259.03 162.43,-260.62"/>
</a>
</g>
<text text-anchor="middle" x="173" y="-282" font-family="Helvetica,sans-Serif" font-size="10.00" fill="grey"> next</text>
<text text-anchor="middle" x="173" y="-271" font-family="Helvetica,sans-Serif" font-size="10.00" fill="grey">prev</text>
</g>
<!-- Node9 -->
<g id="Node000009" class="node">
<title>Node9</title>
<g id="a_Node000009"><a xlink:href="../../d6/d38/structfield__rigid.html" target="_top" xlink:title=" ">
<polygon fill="white" stroke="#666666" points="205.5,-173 140.5,-173 140.5,-154 205.5,-154 205.5,-173"/>
<text text-anchor="middle" x="173" y="-161" font-family="Helvetica,sans-Serif" font-size="10.00">field_rigid</text>
</a>
</g>
</g>
<!-- Node9&#45;&gt;Node2 -->
<g id="edge12_Node000002_Node000009" class="edge">
<title>Node9&#45;&gt;Node2</title>
<g id="a_edge12_Node000002_Node000009"><a xlink:title=" ">
<path fill="none" stroke="#9a32cd" stroke-dasharray="5,2" d="M208.65,-177.03C239.94,-190.88 285.23,-215.24 313,-249.5 327.87,-267.85 314.73,-282.38 331,-299.5 334.23,-302.9 338.21,-305.69 342.42,-307.96"/>
<polygon fill="#9a32cd" stroke="#9a32cd" points="209.99,-173.79 199.42,-173.07 207.23,-180.23 209.99,-173.79"/>
</a>
</g>
<text text-anchor="middle" x="275" y="-252.5" font-family="Helvetica,sans-Serif" font-size="10.00" fill="grey"> first_rigid</text>
</g>
<!-- Node9&#45;&gt;Node9 -->
<g id="edge13_Node000009_Node000009" class="edge">
<title>Node9&#45;&gt;Node9</title>
<g id="a_edge13_Node000009_Node000009"><a xlink:title=" ">
<path fill="none" stroke="#9a32cd" stroke-dasharray="5,2" d="M159,-182.91C160.1,-187.56 164.77,-191 173,-191 186.51,-191 190.41,-181.73 184.71,-173.08"/>
<polygon fill="#9a32cd" stroke="#9a32cd" points="162.43,-183.62 161.29,-173.08 155.62,-182.03 162.43,-183.62"/>
</a>
</g>
<text text-anchor="middle" x="173" y="-205" font-family="Helvetica,sans-Serif" font-size="10.00" fill="grey"> next</text>
<text text-anchor="middle" x="173" y="-194" font-family="Helvetica,sans-Serif" font-size="10.00" fill="grey">prev</text>
</g>
<!-- Node10 -->
<g id="Node000010" class="node">
<title>Node10</title>
<g id="a_Node000010"><a xlink:href="../../d2/dc9/structfield__tethered.html" target="_top" xlink:title=" ">
<polygon fill="white" stroke="#666666" points="215,-96 131,-96 131,-77 215,-77 215,-96"/>
<text text-anchor="middle" x="173" y="-84" font-family="Helvetica,sans-Serif" font-size="10.00">field_tethered</text>
</a>
</g>
</g>
<!-- Node10&#45;&gt;Node2 -->
<g id="edge14_Node000002_Node000010" class="edge">
<title>Node10&#45;&gt;Node2</title>
<g id="a_edge14_Node000002_Node000010"><a xlink:title=" ">
<path fill="none" stroke="#9a32cd" stroke-dasharray="5,2" d="M211.19,-99.95C243.61,-113.72 289.08,-138.4 313,-175.5 343.18,-222.3 296.89,-255.48 331,-299.5 333.58,-302.83 336.88,-305.54 340.51,-307.76"/>
<polygon fill="#9a32cd" stroke="#9a32cd" points="212.16,-96.57 201.58,-96.02 209.52,-103.05 212.16,-96.57"/>
</a>
</g>
<text text-anchor="middle" x="275" y="-178.5" font-family="Helvetica,sans-Serif" font-size="10.00" fill="grey"> first_tethered</text>
</g>
<!-- Node10&#45;&gt;Node10 -->
<g id="edge15_Node000010_Node000010" class="edge">
<title>Node10&#45;&gt;Node10</title>
<g id="a_edge15_Node000010_Node000010"><a xlink:title=" ">
<path fill="none" stroke="#9a32cd" stroke-dasharray="5,2" d="M159,-105.91C160.1,-110.56 164.77,-114 173,-114 186.51,-114 190.41,-104.73 184.71,-96.08"/>
<polygon fill="#9a32cd" stroke="#9a32cd" points="162.43,-106.62 161.29,-96.08 155.62,-105.03 162.43,-106.62"/>
</a>
</g>
<text text-anchor="middle" x="173" y="-128" font-family="Helvetica,sans-Serif" font-size="10.00" fill="grey"> next</text>
<text text-anchor="middle" x="173" y="-117" font-family="Helvetica,sans-Serif" font-size="10.00" fill="grey">prev</text>
</g>
<!-- Node11 -->
<g id="Node000011" class="node">
<title>Node11</title>
<g id="a_Node000011"><a xlink:href="../../df/d8b/structfield__struct.html" target="_top" xlink:title=" ">
<polygon fill="white" stroke="#666666" points="208.5,-19 137.5,-19 137.5,0 208.5,0 208.5,-19"/>
<text text-anchor="middle" x="173" y="-7" font-family="Helvetica,sans-Serif" font-size="10.00">field_struct</text>
</a>
</g>
</g>
<!-- Node11&#45;&gt;Node2 -->
<g id="edge16_Node000002_Node000011" class="edge">
<title>Node11&#45;&gt;Node2</title>
<g id="a_edge16_Node000002_Node000011"><a xlink:title=" ">
<path fill="none" stroke="#9a32cd" stroke-dasharray="5,2" d="M212.25,-22.88C244.96,-36.5 290.24,-60.98 313,-98.5 336.26,-136.84 304.51,-263.31 331,-299.5 333.49,-302.9 336.74,-305.65 340.34,-307.9"/>
<polygon fill="#9a32cd" stroke="#9a32cd" points="213.13,-19.46 202.55,-19 210.53,-25.97 213.13,-19.46"/>
</a>
</g>
<text text-anchor="middle" x="275" y="-101.5" font-family="Helvetica,sans-Serif" font-size="10.00" fill="grey"> first_struct</text>
</g>
<!-- Node11&#45;&gt;Node11 -->
<g id="edge19_Node000011_Node000011" class="edge">
<title>Node11&#45;&gt;Node11</title>
<g id="a_edge19_Node000011_Node000011"><a xlink:title=" ">
<path fill="none" stroke="#9a32cd" stroke-dasharray="5,2" d="M159,-28.91C160.1,-33.56 164.77,-37 173,-37 186.51,-37 190.41,-27.73 184.71,-19.08"/>
<polygon fill="#9a32cd" stroke="#9a32cd" points="162.43,-29.62 161.29,-19.08 155.62,-28.03 162.43,-29.62"/>
</a>
</g>
<text text-anchor="middle" x="173" y="-51" font-family="Helvetica,sans-Serif" font-size="10.00" fill="grey"> next</text>
<text text-anchor="middle" x="173" y="-40" font-family="Helvetica,sans-Serif" font-size="10.00" fill="grey">prev</text>
</g>
<!-- Node12 -->
<g id="Node000012" class="node">
<title>Node12</title>
<g id="a_Node000012"><a xlink:href="../../d0/d48/structfield__prop.html" target="_top" xlink:title=" ">
<polygon fill="white" stroke="#666666" points="65,-19 0,-19 0,0 65,0 65,-19"/>
<text text-anchor="middle" x="32.5" y="-7" font-family="Helvetica,sans-Serif" font-size="10.00">field_prop</text>
</a>
</g>
</g>
<!-- Node12&#45;&gt;Node11 -->
<g id="edge17_Node000011_Node000012" class="edge">
<title>Node12&#45;&gt;Node11</title>
<g id="a_edge17_Node000011_Node000012"><a xlink:title=" ">
<path fill="none" stroke="#9a32cd" stroke-dasharray="5,2" d="M75.29,-9.5C95.16,-9.5 118.62,-9.5 137.46,-9.5"/>
<polygon fill="#9a32cd" stroke="#9a32cd" points="75.27,-6 65.27,-9.5 75.27,-13 75.27,-6"/>
</a>
</g>
<text text-anchor="middle" x="96" y="-23.5" font-family="Helvetica,sans-Serif" font-size="10.00" fill="grey"> def</text>
<text text-anchor="middle" x="96" y="-12.5" font-family="Helvetica,sans-Serif" font-size="10.00" fill="grey">other</text>
</g>
<!-- Node12&#45;&gt;Node12 -->
<g id="edge18_Node000012_Node000012" class="edge">
<title>Node12&#45;&gt;Node12</title>
<g id="a_edge18_Node000012_Node000012"><a xlink:title=" ">
<path fill="none" stroke="#9a32cd" stroke-dasharray="5,2" d="M21.08,-28.91C21.98,-33.56 25.78,-37 32.5,-37 43.52,-37 46.7,-27.73 42.06,-19.08"/>
<polygon fill="#9a32cd" stroke="#9a32cd" points="24.52,-29.56 22.94,-19.08 17.64,-28.26 24.52,-29.56"/>
</a>
</g>
<text text-anchor="middle" x="32.5" y="-51" font-family="Helvetica,sans-Serif" font-size="10.00" fill="grey"> next</text>
<text text-anchor="middle" x="32.5" y="-40" font-family="Helvetica,sans-Serif" font-size="10.00" fill="grey">prev</text>
</g>
<!-- Node13 -->
<g id="Node000013" class="node">
<title>Node13</title>
<g id="a_Node000013"><a xlink:href="../../d3/d62/structfield__nth__body.html" target="_top" xlink:title=" ">
<polygon fill="white" stroke="#666666" points="419,-250 331,-250 331,-231 419,-231 419,-250"/>
<text text-anchor="middle" x="375" y="-238" font-family="Helvetica,sans-Serif" font-size="10.00">field_nth_body</text>
</a>
</g>
</g>
<!-- Node13&#45;&gt;Node1 -->
<g id="edge21_Node000001_Node000013" class="edge">
<title>Node13&#45;&gt;Node1</title>
<g id="a_edge21_Node000001_Node000013"><a xlink:title=" ">
<path fill="none" stroke="#9a32cd" stroke-dasharray="5,2" d="M429.64,-240.5C460.67,-240.5 499.14,-240.5 527.88,-240.5"/>
<polygon fill="#9a32cd" stroke="#9a32cd" points="429.43,-237 419.43,-240.5 429.43,-244 429.43,-237"/>
</a>
</g>
<text text-anchor="middle" x="473.5" y="-243.5" font-family="Helvetica,sans-Serif" font-size="10.00" fill="grey"> first_body</text>
</g>
<!-- Node13&#45;&gt;Node13 -->
<g id="edge22_Node000013_Node000013" class="edge">
<title>Node13&#45;&gt;Node13</title>
<g id="a_edge22_Node000013_Node000013"><a xlink:title=" ">
<path fill="none" stroke="#9a32cd" stroke-dasharray="5,2" d="M356.95,-259.91C358.37,-264.56 364.39,-268 375,-268 392.42,-268 397.45,-258.73 390.1,-250.08"/>
<polygon fill="#9a32cd" stroke="#9a32cd" points="360.38,-260.67 359.9,-250.08 353.67,-258.66 360.38,-260.67"/>
</a>
</g>
<text text-anchor="middle" x="375" y="-282" font-family="Helvetica,sans-Serif" font-size="10.00" fill="grey"> next</text>
<text text-anchor="middle" x="375" y="-271" font-family="Helvetica,sans-Serif" font-size="10.00" fill="grey">prev</text>
</g>
<!-- Node14 -->
<g id="Node000014" class="node">
<title>Node14</title>
<g id="a_Node000014"><a xlink:href="../../df/def/structfield__external.html" target="_top" xlink:title=" ">
<polygon fill="white" stroke="#666666" points="416.5,-173 333.5,-173 333.5,-154 416.5,-154 416.5,-173"/>
<text text-anchor="middle" x="375" y="-161" font-family="Helvetica,sans-Serif" font-size="10.00">field_external</text>
</a>
</g>
</g>
<!-- Node14&#45;&gt;Node1 -->
<g id="edge23_Node000001_Node000014" class="edge">
<title>Node14&#45;&gt;Node1</title>
<g id="a_edge23_Node000001_Node000014"><a xlink:title=" ">
<path fill="none" stroke="#9a32cd" stroke-dasharray="5,2" d="M409.42,-176.8C448.17,-192.22 511.11,-217.26 545.39,-230.9"/>
<polygon fill="#9a32cd" stroke="#9a32cd" points="410.7,-173.54 400.12,-173.1 408.11,-180.05 410.7,-173.54"/>
</a>
</g>
<text text-anchor="middle" x="473.5" y="-218.5" font-family="Helvetica,sans-Serif" font-size="10.00" fill="grey"> first_external</text>
</g>
<!-- Node14&#45;&gt;Node14 -->
<g id="edge24_Node000014_Node000014" class="edge">
<title>Node14&#45;&gt;Node14</title>
<g id="a_edge24_Node000014_Node000014"><a xlink:title=" ">
<path fill="none" stroke="#9a32cd" stroke-dasharray="5,2" d="M356.95,-182.91C358.37,-187.56 364.39,-191 375,-191 392.42,-191 397.45,-181.73 390.1,-173.08"/>
<polygon fill="#9a32cd" stroke="#9a32cd" points="360.38,-183.67 359.9,-173.08 353.67,-181.66 360.38,-183.67"/>
</a>
</g>
<text text-anchor="middle" x="375" y="-205" font-family="Helvetica,sans-Serif" font-size="10.00" fill="grey"> next</text>
<text text-anchor="middle" x="375" y="-194" font-family="Helvetica,sans-Serif" font-size="10.00" fill="grey">prev</text>
</g>
</g>
</svg>
