<?xml version="1.0" encoding="UTF-8" standalone="no"?>
<!DOCTYPE svg PUBLIC "-//W3C//DTD SVG 1.1//EN"
 "http://www.w3.org/Graphics/SVG/1.1/DTD/svg11.dtd">
<!-- Generated by graphviz version 7.1.0 (0)
 -->
<!-- Title: classical_field Pages: 1 -->
<svg width="570pt" height="603pt"
 viewBox="0.00 0.00 570.00 603.00" xmlns="http://www.w3.org/2000/svg" xmlns:xlink="http://www.w3.org/1999/xlink">
<g id="graph0" class="graph" transform="scale(1 1) rotate(0) translate(4 599)">
<title>classical_field</title>
<!-- Node1 -->
<g id="node1" class="node">
<title>Node1</title>
<g id="a_node1"><a xlink:title=" ">
<polygon fill="#999999" stroke="#666666" points="562,-250 484,-250 484,-231 562,-231 562,-250"/>
<text text-anchor="middle" x="523" y="-238" font-family="Helvetica,sans-Serif" font-size="10.00">classical_field</text>
</a>
</g>
</g>
<!-- Node2 -->
<g id="node2" class="node">
<title>Node2</title>
<g id="a_node2"><a xlink:href="../../db/d0d/structfield__molecule.html" target="_top" xlink:title=" ">
<polygon fill="white" stroke="#666666" points="383.5,-327 304.5,-327 304.5,-308 383.5,-308 383.5,-327"/>
<text text-anchor="middle" x="344" y="-315" font-family="Helvetica,sans-Serif" font-size="10.00">field_molecule</text>
</a>
</g>
</g>
<!-- Node2&#45;&gt;Node1 -->
<g id="edge1" class="edge">
<title>Node2&#45;&gt;Node1</title>
<path fill="none" stroke="#9a32cd" stroke-dasharray="5,2" d="M378.04,-303.13C413.29,-287.79 468.21,-263.9 499.03,-250.49"/>
<polygon fill="#9a32cd" stroke="#9a32cd" points="376.94,-299.79 369.17,-306.99 379.73,-306.21 376.94,-299.79"/>
<text text-anchor="middle" x="434" y="-295.5" font-family="Helvetica,sans-Serif" font-size="10.00"> first_molecule</text>
</g>
<!-- Node2&#45;&gt;Node2 -->
<g id="edge20" class="edge">
<title>Node2&#45;&gt;Node2</title>
<path fill="none" stroke="#9a32cd" stroke-dasharray="5,2" d="M328.03,-338.43C330.02,-342.29 335.35,-345 344,-345 359.82,-345 364.52,-335.94 358.09,-327.37"/>
<polygon fill="#9a32cd" stroke="#9a32cd" points="331.43,-339.31 329.66,-328.86 324.53,-338.13 331.43,-339.31"/>
<text text-anchor="middle" x="344" y="-359" font-family="Helvetica,sans-Serif" font-size="10.00"> next</text>
<text text-anchor="middle" x="344" y="-348" font-family="Helvetica,sans-Serif" font-size="10.00">prev</text>
</g>
<!-- Node3 -->
<g id="node3" class="node">
<title>Node3</title>
<g id="a_node3"><a xlink:href="../../dc/d7f/structmolecule.html" target="_top" xlink:title=" ">
<polygon fill="white" stroke="#666666" points="186.5,-595 130.5,-595 130.5,-576 186.5,-576 186.5,-595"/>
<text text-anchor="middle" x="158.5" y="-583" font-family="Helvetica,sans-Serif" font-size="10.00">molecule</text>
</a>
</g>
</g>
<!-- Node3&#45;&gt;Node2 -->
<g id="edge2" class="edge">
<title>Node3&#45;&gt;Node2</title>
<path fill="none" stroke="#9a32cd" stroke-dasharray="5,2" d="M197.93,-579.14C226.19,-572.48 263.45,-559.24 286,-533.5 341.2,-470.49 343.83,-360.03 343.3,-327.06"/>
<polygon fill="#9a32cd" stroke="#9a32cd" points="197.35,-575.68 188.31,-581.21 198.82,-582.53 197.35,-575.68"/>
<text text-anchor="middle" x="252" y="-575.5" font-family="Helvetica,sans-Serif" font-size="10.00"> mol</text>
</g>
<!-- Node4 -->
<g id="node4" class="node">
<title>Node4</title>
<g id="a_node4"><a xlink:href="../../d0/dbe/structdint.html" target="_top" xlink:title=" ">
<polygon fill="white" stroke="#666666" points="174.5,-558 142.5,-558 142.5,-539 174.5,-539 174.5,-558"/>
<text text-anchor="middle" x="158.5" y="-546" font-family="Helvetica,sans-Serif" font-size="10.00">dint</text>
</a>
</g>
</g>
<!-- Node4&#45;&gt;Node2 -->
<g id="edge3" class="edge">
<title>Node4&#45;&gt;Node2</title>
<path fill="none" stroke="#9a32cd" stroke-dasharray="5,2" d="M184.86,-538.63C190.02,-536.24 195.3,-533.5 200,-530.5 242.76,-503.23 256.42,-496.7 286,-455.5 316.69,-412.75 334.55,-351.03 340.63,-327.3"/>
<polygon fill="#9a32cd" stroke="#9a32cd" points="183.86,-535.25 176.06,-542.42 186.63,-541.68 183.86,-535.25"/>
<text text-anchor="middle" x="252" y="-521.5" font-family="Helvetica,sans-Serif" font-size="10.00"> atoms_id</text>
</g>
<!-- Node5 -->
<g id="node5" class="node">
<title>Node5</title>
<g id="a_node5"><a xlink:href="../../d2/da4/structfield__atom.html" target="_top" xlink:title=" ">
<polygon fill="white" stroke="#666666" points="189.5,-481 127.5,-481 127.5,-462 189.5,-462 189.5,-481"/>
<text text-anchor="middle" x="158.5" y="-469" font-family="Helvetica,sans-Serif" font-size="10.00">field_atom</text>
</a>
</g>
</g>
<!-- Node5&#45;&gt;Node2 -->
<g id="edge4" class="edge">
<title>Node5&#45;&gt;Node2</title>
<path fill="none" stroke="#9a32cd" stroke-dasharray="5,2" d="M194.33,-456.74C196.27,-455.69 198.18,-454.61 200,-453.5 241.85,-428 250.85,-418.65 286,-384.5 305.5,-365.56 325.44,-340.56 335.78,-327.09"/>
<polygon fill="#9a32cd" stroke="#9a32cd" points="193.2,-453.39 185.79,-460.96 196.3,-459.67 193.2,-453.39"/>
<text text-anchor="middle" x="252" y="-443.5" font-family="Helvetica,sans-Serif" font-size="10.00"> first_atom</text>
</g>
<!-- Node5&#45;&gt;Node5 -->
<g id="edge5" class="edge">
<title>Node5&#45;&gt;Node5</title>
<path fill="none" stroke="#9a32cd" stroke-dasharray="5,2" d="M146.13,-492.76C147.79,-496.44 151.92,-499 158.5,-499 170.89,-499 174.57,-489.94 169.54,-481.37"/>
<polygon fill="#9a32cd" stroke="#9a32cd" points="149.6,-493.21 147.29,-482.87 142.65,-492.4 149.6,-493.21"/>
<text text-anchor="middle" x="158.5" y="-513" font-family="Helvetica,sans-Serif" font-size="10.00"> next</text>
<text text-anchor="middle" x="158.5" y="-502" font-family="Helvetica,sans-Serif" font-size="10.00">prev</text>
</g>
<!-- Node6 -->
<g id="node6" class="node">
<title>Node6</title>
<g id="a_node6"><a xlink:href="../../dc/df4/structfield__shell.html" target="_top" xlink:title=" ">
<polygon fill="white" stroke="#666666" points="188.5,-404 128.5,-404 128.5,-385 188.5,-385 188.5,-404"/>
<text text-anchor="middle" x="158.5" y="-392" font-family="Helvetica,sans-Serif" font-size="10.00">field_shell</text>
</a>
</g>
</g>
<!-- Node6&#45;&gt;Node2 -->
<g id="edge6" class="edge">
<title>Node6&#45;&gt;Node2</title>
<path fill="none" stroke="#9a32cd" stroke-dasharray="5,2" d="M193.28,-380.33C229.81,-365 287.1,-340.96 319.19,-327.49"/>
<polygon fill="#9a32cd" stroke="#9a32cd" points="192.38,-376.91 184.51,-384.01 195.08,-383.36 192.38,-376.91"/>
<text text-anchor="middle" x="252" y="-372.5" font-family="Helvetica,sans-Serif" font-size="10.00"> first_shell</text>
</g>
<!-- Node6&#45;&gt;Node6 -->
<g id="edge7" class="edge">
<title>Node6&#45;&gt;Node6</title>
<path fill="none" stroke="#9a32cd" stroke-dasharray="5,2" d="M146.13,-415.76C147.79,-419.44 151.92,-422 158.5,-422 170.89,-422 174.57,-412.94 169.54,-404.37"/>
<polygon fill="#9a32cd" stroke="#9a32cd" points="149.6,-416.21 147.29,-405.87 142.65,-415.4 149.6,-416.21"/>
<text text-anchor="middle" x="158.5" y="-436" font-family="Helvetica,sans-Serif" font-size="10.00"> next</text>
<text text-anchor="middle" x="158.5" y="-425" font-family="Helvetica,sans-Serif" font-size="10.00">prev</text>
</g>
<!-- Node7 -->
<g id="node7" class="node">
<title>Node7</title>
<g id="a_node7"><a xlink:href="../../df/df0/structfield__constraint.html" target="_top" xlink:title=" ">
<polygon fill="white" stroke="#666666" points="200,-327 117,-327 117,-308 200,-308 200,-327"/>
<text text-anchor="middle" x="158.5" y="-315" font-family="Helvetica,sans-Serif" font-size="10.00">field_constraint</text>
</a>
</g>
</g>
<!-- Node7&#45;&gt;Node2 -->
<g id="edge8" class="edge">
<title>Node7&#45;&gt;Node2</title>
<path fill="none" stroke="#9a32cd" stroke-dasharray="5,2" d="M211.57,-317.5C241.06,-317.5 277.31,-317.5 304.27,-317.5"/>
<polygon fill="#9a32cd" stroke="#9a32cd" points="211.74,-314 201.74,-317.5 211.74,-321 211.74,-314"/>
<text text-anchor="middle" x="252" y="-320.5" font-family="Helvetica,sans-Serif" font-size="10.00"> first_constraint</text>
</g>
<!-- Node7&#45;&gt;Node7 -->
<g id="edge9" class="edge">
<title>Node7&#45;&gt;Node7</title>
<path fill="none" stroke="#9a32cd" stroke-dasharray="5,2" d="M146.13,-338.76C147.79,-342.44 151.92,-345 158.5,-345 170.89,-345 174.57,-335.94 169.54,-327.37"/>
<polygon fill="#9a32cd" stroke="#9a32cd" points="149.6,-339.21 147.29,-328.87 142.65,-338.4 149.6,-339.21"/>
<text text-anchor="middle" x="158.5" y="-359" font-family="Helvetica,sans-Serif" font-size="10.00"> next</text>
<text text-anchor="middle" x="158.5" y="-348" font-family="Helvetica,sans-Serif" font-size="10.00">prev</text>
</g>
<!-- Node8 -->
<g id="node8" class="node">
<title>Node8</title>
<g id="a_node8"><a xlink:href="../../df/de6/structfield__pmf.html" target="_top" xlink:title=" ">
<polygon fill="white" stroke="#666666" points="186.5,-250 130.5,-250 130.5,-231 186.5,-231 186.5,-250"/>
<text text-anchor="middle" x="158.5" y="-238" font-family="Helvetica,sans-Serif" font-size="10.00">field_pmf</text>
</a>
</g>
</g>
<!-- Node8&#45;&gt;Node2 -->
<g id="edge10" class="edge">
<title>Node8&#45;&gt;Node2</title>
<path fill="none" stroke="#9a32cd" stroke-dasharray="5,2" d="M193.28,-254.67C229.81,-270 287.1,-294.04 319.19,-307.51"/>
<polygon fill="#9a32cd" stroke="#9a32cd" points="195.08,-251.64 184.51,-250.99 192.38,-258.09 195.08,-251.64"/>
<text text-anchor="middle" x="252" y="-295.5" font-family="Helvetica,sans-Serif" font-size="10.00"> first_pmf</text>
</g>
<!-- Node8&#45;&gt;Node8 -->
<g id="edge11" class="edge">
<title>Node8&#45;&gt;Node8</title>
<path fill="none" stroke="#9a32cd" stroke-dasharray="5,2" d="M146.13,-261.76C147.79,-265.44 151.92,-268 158.5,-268 170.89,-268 174.57,-258.94 169.54,-250.37"/>
<polygon fill="#9a32cd" stroke="#9a32cd" points="149.6,-262.21 147.29,-251.87 142.65,-261.4 149.6,-262.21"/>
<text text-anchor="middle" x="158.5" y="-282" font-family="Helvetica,sans-Serif" font-size="10.00"> next</text>
<text text-anchor="middle" x="158.5" y="-271" font-family="Helvetica,sans-Serif" font-size="10.00">prev</text>
</g>
<!-- Node9 -->
<g id="node9" class="node">
<title>Node9</title>
<g id="a_node9"><a xlink:href="../../d6/d38/structfield__rigid.html" target="_top" xlink:title=" ">
<polygon fill="white" stroke="#666666" points="187.5,-173 129.5,-173 129.5,-154 187.5,-154 187.5,-173"/>
<text text-anchor="middle" x="158.5" y="-161" font-family="Helvetica,sans-Serif" font-size="10.00">field_rigid</text>
</a>
</g>
</g>
<!-- Node9&#45;&gt;Node2 -->
<g id="edge12" class="edge">
<title>Node9&#45;&gt;Node2</title>
<path fill="none" stroke="#9a32cd" stroke-dasharray="5,2" d="M192.14,-178.36C220.57,-192.82 261.03,-217.31 286,-249.5 300.47,-268.16 288.04,-282.09 304,-299.5 306.92,-302.69 310.52,-305.36 314.34,-307.57"/>
<polygon fill="#9a32cd" stroke="#9a32cd" points="193.77,-175.26 183.25,-173.98 190.67,-181.54 193.77,-175.26"/>
<text text-anchor="middle" x="252" y="-252.5" font-family="Helvetica,sans-Serif" font-size="10.00"> first_rigid</text>
</g>
<!-- Node9&#45;&gt;Node9 -->
<g id="edge13" class="edge">
<title>Node9&#45;&gt;Node9</title>
<path fill="none" stroke="#9a32cd" stroke-dasharray="5,2" d="M146.13,-184.76C147.79,-188.44 151.92,-191 158.5,-191 170.89,-191 174.57,-181.94 169.54,-173.37"/>
<polygon fill="#9a32cd" stroke="#9a32cd" points="149.6,-185.21 147.29,-174.87 142.65,-184.4 149.6,-185.21"/>
<text text-anchor="middle" x="158.5" y="-205" font-family="Helvetica,sans-Serif" font-size="10.00"> next</text>
<text text-anchor="middle" x="158.5" y="-194" font-family="Helvetica,sans-Serif" font-size="10.00">prev</text>
</g>
<!-- Node10 -->
<g id="node10" class="node">
<title>Node10</title>
<g id="a_node10"><a xlink:href="../../d2/dc9/structfield__tethered.html" target="_top" xlink:title=" ">
<polygon fill="white" stroke="#666666" points="196,-96 121,-96 121,-77 196,-77 196,-96"/>
<text text-anchor="middle" x="158.5" y="-84" font-family="Helvetica,sans-Serif" font-size="10.00">field_tethered</text>
</a>
</g>
</g>
<!-- Node10&#45;&gt;Node2 -->
<g id="edge14" class="edge">
<title>Node10&#45;&gt;Node2</title>
<path fill="none" stroke="#9a32cd" stroke-dasharray="5,2" d="M193.12,-101.49C222.67,-116.53 264.25,-142.61 286,-178.5 314.18,-225 271.4,-255.99 304,-299.5 306.41,-302.72 309.55,-305.39 312.98,-307.58"/>
<polygon fill="#9a32cd" stroke="#9a32cd" points="194.72,-98.38 184.2,-97.12 191.64,-104.66 194.72,-98.38"/>
<text text-anchor="middle" x="252" y="-181.5" font-family="Helvetica,sans-Serif" font-size="10.00"> first_tethered</text>
</g>
<!-- Node10&#45;&gt;Node10 -->
<g id="edge15" class="edge">
<title>Node10&#45;&gt;Node10</title>
<path fill="none" stroke="#9a32cd" stroke-dasharray="5,2" d="M146.13,-107.76C147.79,-111.44 151.92,-114 158.5,-114 170.89,-114 174.57,-104.94 169.54,-96.37"/>
<polygon fill="#9a32cd" stroke="#9a32cd" points="149.6,-108.21 147.29,-97.87 142.65,-107.4 149.6,-108.21"/>
<text text-anchor="middle" x="158.5" y="-128" font-family="Helvetica,sans-Serif" font-size="10.00"> next</text>
<text text-anchor="middle" x="158.5" y="-117" font-family="Helvetica,sans-Serif" font-size="10.00">prev</text>
</g>
<!-- Node11 -->
<g id="node11" class="node">
<title>Node11</title>
<g id="a_node11"><a xlink:href="../../df/d8b/structfield__struct.html" target="_top" xlink:title=" ">
<polygon fill="white" stroke="#666666" points="191,-19 126,-19 126,0 191,0 191,-19"/>
<text text-anchor="middle" x="158.5" y="-7" font-family="Helvetica,sans-Serif" font-size="10.00">field_struct</text>
</a>
</g>
</g>
<!-- Node11&#45;&gt;Node2 -->
<g id="edge16" class="edge">
<title>Node11&#45;&gt;Node2</title>
<path fill="none" stroke="#9a32cd" stroke-dasharray="5,2" d="M193.73,-24.27C223.6,-39.12 265.31,-65.06 286,-101.5 307.81,-139.92 278.53,-263.4 304,-299.5 306.32,-302.79 309.4,-305.49 312.81,-307.71"/>
<polygon fill="#9a32cd" stroke="#9a32cd" points="195.61,-21.29 185.08,-20.13 192.59,-27.6 195.61,-21.29"/>
<text text-anchor="middle" x="252" y="-104.5" font-family="Helvetica,sans-Serif" font-size="10.00"> first_struct</text>
</g>
<!-- Node11&#45;&gt;Node11 -->
<g id="edge19" class="edge">
<title>Node11&#45;&gt;Node11</title>
<path fill="none" stroke="#9a32cd" stroke-dasharray="5,2" d="M146.13,-30.76C147.79,-34.44 151.92,-37 158.5,-37 170.89,-37 174.57,-27.94 169.54,-19.37"/>
<polygon fill="#9a32cd" stroke="#9a32cd" points="149.6,-31.21 147.29,-20.87 142.65,-30.4 149.6,-31.21"/>
<text text-anchor="middle" x="158.5" y="-51" font-family="Helvetica,sans-Serif" font-size="10.00"> next</text>
<text text-anchor="middle" x="158.5" y="-40" font-family="Helvetica,sans-Serif" font-size="10.00">prev</text>
</g>
<!-- Node12 -->
<g id="node12" class="node">
<title>Node12</title>
<g id="a_node12"><a xlink:href="../../d0/d48/structfield__prop.html" target="_top" xlink:title=" ">
<polygon fill="white" stroke="#666666" points="59,-19 0,-19 0,0 59,0 59,-19"/>
<text text-anchor="middle" x="29.5" y="-7" font-family="Helvetica,sans-Serif" font-size="10.00">field_prop</text>
</a>
</g>
</g>
<!-- Node12&#45;&gt;Node11 -->
<g id="edge17" class="edge">
<title>Node12&#45;&gt;Node11</title>
<path fill="none" stroke="#9a32cd" stroke-dasharray="5,2" d="M70.78,-9.5C88.51,-9.5 109.04,-9.5 125.68,-9.5"/>
<polygon fill="#9a32cd" stroke="#9a32cd" points="70.83,-6 60.83,-9.5 70.83,-13 70.83,-6"/>
<text text-anchor="middle" x="88" y="-23.5" font-family="Helvetica,sans-Serif" font-size="10.00"> def</text>
<text text-anchor="middle" x="88" y="-12.5" font-family="Helvetica,sans-Serif" font-size="10.00">other</text>
</g>
<!-- Node12&#45;&gt;Node12 -->
<g id="edge18" class="edge">
<title>Node12&#45;&gt;Node12</title>
<path fill="none" stroke="#9a32cd" stroke-dasharray="5,2" d="M19.23,-30.76C20.61,-34.44 24.04,-37 29.5,-37 39.78,-37 42.84,-27.94 38.66,-19.37"/>
<polygon fill="#9a32cd" stroke="#9a32cd" points="22.71,-31.17 20.19,-20.87 15.74,-30.49 22.71,-31.17"/>
<text text-anchor="middle" x="29.5" y="-51" font-family="Helvetica,sans-Serif" font-size="10.00"> next</text>
<text text-anchor="middle" x="29.5" y="-40" font-family="Helvetica,sans-Serif" font-size="10.00">prev</text>
</g>
<!-- Node13 -->
<g id="node13" class="node">
<title>Node13</title>
<g id="a_node13"><a xlink:href="../../d3/d62/structfield__nth__body.html" target="_top" xlink:title=" ">
<polygon fill="white" stroke="#666666" points="384,-250 304,-250 304,-231 384,-231 384,-250"/>
<text text-anchor="middle" x="344" y="-238" font-family="Helvetica,sans-Serif" font-size="10.00">field_nth_body</text>
</a>
</g>
</g>
<!-- Node13&#45;&gt;Node1 -->
<g id="edge21" class="edge">
<title>Node13&#45;&gt;Node1</title>
<path fill="none" stroke="#9a32cd" stroke-dasharray="5,2" d="M395.48,-240.5C423.55,-240.5 457.91,-240.5 483.74,-240.5"/>
<polygon fill="#9a32cd" stroke="#9a32cd" points="395.8,-237 385.8,-240.5 395.8,-244 395.8,-237"/>
<text text-anchor="middle" x="434" y="-243.5" font-family="Helvetica,sans-Serif" font-size="10.00"> first_body</text>
</g>
<!-- Node13&#45;&gt;Node13 -->
<g id="edge22" class="edge">
<title>Node13&#45;&gt;Node13</title>
<path fill="none" stroke="#9a32cd" stroke-dasharray="5,2" d="M328.03,-261.43C330.02,-265.29 335.35,-268 344,-268 359.82,-268 364.52,-258.94 358.09,-250.37"/>
<polygon fill="#9a32cd" stroke="#9a32cd" points="331.43,-262.31 329.66,-251.86 324.53,-261.13 331.43,-262.31"/>
<text text-anchor="middle" x="344" y="-282" font-family="Helvetica,sans-Serif" font-size="10.00"> next</text>
<text text-anchor="middle" x="344" y="-271" font-family="Helvetica,sans-Serif" font-size="10.00">prev</text>
</g>
<!-- Node14 -->
<g id="node14" class="node">
<title>Node14</title>
<g id="a_node14"><a xlink:href="../../df/def/structfield__external.html" target="_top" xlink:title=" ">
<polygon fill="white" stroke="#666666" points="381,-173 307,-173 307,-154 381,-154 381,-173"/>
<text text-anchor="middle" x="344" y="-161" font-family="Helvetica,sans-Serif" font-size="10.00">field_external</text>
</a>
</g>
</g>
<!-- Node14&#45;&gt;Node1 -->
<g id="edge23" class="edge">
<title>Node14&#45;&gt;Node1</title>
<path fill="none" stroke="#9a32cd" stroke-dasharray="5,2" d="M378.04,-177.87C413.29,-193.21 468.21,-217.1 499.03,-230.51"/>
<polygon fill="#9a32cd" stroke="#9a32cd" points="379.73,-174.79 369.17,-174.01 376.94,-181.21 379.73,-174.79"/>
<text text-anchor="middle" x="434" y="-218.5" font-family="Helvetica,sans-Serif" font-size="10.00"> first_external</text>
</g>
<!-- Node14&#45;&gt;Node14 -->
<g id="edge24" class="edge">
<title>Node14&#45;&gt;Node14</title>
<path fill="none" stroke="#9a32cd" stroke-dasharray="5,2" d="M328.03,-184.43C330.02,-188.29 335.35,-191 344,-191 359.82,-191 364.52,-181.94 358.09,-173.37"/>
<polygon fill="#9a32cd" stroke="#9a32cd" points="331.43,-185.31 329.66,-174.86 324.53,-184.13 331.43,-185.31"/>
<text text-anchor="middle" x="344" y="-205" font-family="Helvetica,sans-Serif" font-size="10.00"> next</text>
<text text-anchor="middle" x="344" y="-194" font-family="Helvetica,sans-Serif" font-size="10.00">prev</text>
</g>
</g>
</svg>
