<?xml version="1.0" encoding="UTF-8" standalone="no"?>
<!DOCTYPE svg PUBLIC "-//W3C//DTD SVG 1.1//EN"
 "http://www.w3.org/Graphics/SVG/1.1/DTD/svg11.dtd">
<!-- Generated by graphviz version 9.0.0 (20230911.1827)
 -->
<!-- Title: builder_edition Pages: 1 -->
<svg width="308pt" height="244pt"
 viewBox="0.00 0.00 307.77 244.00" xmlns="http://www.w3.org/2000/svg" xmlns:xlink="http://www.w3.org/1999/xlink">

<svg id="main" version="1.1" xmlns="http://www.w3.org/2000/svg" xmlns:xlink="http://www.w3.org/1999/xlink" xml:space="preserve" onload="init(evt)">
<style type="text/css"><![CDATA[
.node, .edge {opacity: 0.7;}
.node.selected, .edge.selected {opacity: 1;}
.edge:hover path { stroke: red; }
.edge:hover polygon { stroke: red; fill: red; }
]]></style>
<script type="application/ecmascript" xlink:href="../../svg.min.js"/>
<svg id="graph" class="graph">
<g id="graph0" class="graph" transform="scale(1 1) rotate(0) translate(4 240)">
<title>builder_edition</title>
<!-- Node1 -->
<g id="Node000001" class="node">
<title>Node1</title>
<g id="a_Node000001"><a xlink:title=" ">
<polygon fill="#999999" stroke="#666666" points="148.52,-20 70.27,-20 70.27,0 148.52,0 148.52,-20"/>
<text text-anchor="middle" x="109.39" y="-6.5" font-family="Helvetica,sans-Serif" font-size="10.00">builder_edition</text>
</a>
</g>
</g>
<!-- Node2 -->
<g id="Node000002" class="node">
<title>Node2</title>
<g id="a_Node000002"><a xlink:href="../../de/df1/structcell__info.html" target="_top" xlink:title=" ">
<polygon fill="white" stroke="#666666" points="106.39,-88 54.39,-88 54.39,-68 106.39,-68 106.39,-88"/>
<text text-anchor="middle" x="80.39" y="-74.5" font-family="Helvetica,sans-Serif" font-size="10.00">cell_info</text>
</a>
</g>
</g>
<!-- Node2&#45;&gt;Node1 -->
<g id="edge1_Node000001_Node000002" class="edge">
<title>Node2&#45;&gt;Node1</title>
<g id="a_edge1_Node000001_Node000002"><a xlink:title=" ">
<path fill="none" stroke="#9a32cd" stroke-dasharray="5,2" d="M89.17,-57.03C94.5,-44.89 101.07,-29.94 105.25,-20.44"/>
<polygon fill="#9a32cd" stroke="#9a32cd" points="85.98,-55.59 85.16,-66.16 92.38,-58.41 85.98,-55.59"/>
</a>
</g>
<text text-anchor="middle" x="106.39" y="-40.5" font-family="Helvetica,sans-Serif" font-size="10.00" fill="grey"> cell</text>
</g>
<!-- Node3 -->
<g id="Node000003" class="node">
<title>Node3</title>
<g id="a_Node000003"><a xlink:href="../../d7/d81/structbox__info.html" target="_top" xlink:title=" ">
<polygon fill="white" stroke="#666666" points="66.77,-156 14.02,-156 14.02,-136 66.77,-136 66.77,-156"/>
<text text-anchor="middle" x="40.39" y="-142.5" font-family="Helvetica,sans-Serif" font-size="10.00">box_info</text>
</a>
</g>
</g>
<!-- Node3&#45;&gt;Node2 -->
<g id="edge2_Node000002_Node000003" class="edge">
<title>Node3&#45;&gt;Node2</title>
<g id="a_edge2_Node000002_Node000003"><a xlink:title=" ">
<path fill="none" stroke="#9a32cd" stroke-dasharray="5,2" d="M52.04,-125.78C59.48,-113.51 68.8,-98.14 74.67,-88.44"/>
<polygon fill="#9a32cd" stroke="#9a32cd" points="49.1,-123.88 46.91,-134.25 55.09,-127.51 49.1,-123.88"/>
</a>
</g>
<text text-anchor="middle" x="73.77" y="-108.5" font-family="Helvetica,sans-Serif" font-size="10.00" fill="grey"> box</text>
</g>
<!-- Node4 -->
<g id="Node000004" class="node">
<title>Node4</title>
<g id="a_Node000004"><a xlink:href="../../d6/d41/unionmat4__t.html" target="_top" xlink:title=" ">
<polygon fill="white" stroke="#666666" points="64.39,-236 18.39,-236 18.39,-216 64.39,-216 64.39,-236"/>
<text text-anchor="middle" x="41.39" y="-222.5" font-family="Helvetica,sans-Serif" font-size="10.00">mat4_t</text>
</a>
</g>
</g>
<!-- Node4&#45;&gt;Node3 -->
<g id="edge3_Node000003_Node000004" class="edge">
<title>Node4&#45;&gt;Node3</title>
<g id="a_edge3_Node000003_Node000004"><a xlink:title=" ">
<path fill="none" stroke="#9a32cd" stroke-dasharray="5,2" d="M12.21,-208.8C8.77,-205.67 5.74,-202.08 3.64,-198 -1.23,-188.51 -1.17,-183.52 3.64,-174 7.36,-166.65 14.12,-160.82 20.84,-156.48"/>
<polygon fill="#9a32cd" stroke="#9a32cd" points="10.01,-211.53 20.11,-214.72 14.21,-205.93 10.01,-211.53"/>
</a>
</g>
<text text-anchor="middle" x="31.77" y="-188.5" font-family="Helvetica,sans-Serif" font-size="10.00" fill="grey"> cart_to_frac</text>
<text text-anchor="middle" x="31.77" y="-176.5" font-family="Helvetica,sans-Serif" font-size="10.00" fill="grey">frac_to_cart</text>
</g>
<!-- Node5 -->
<g id="Node000005" class="node">
<title>Node5</title>
<g id="a_Node000005"><a xlink:href="../../de/df2/structspace__group.html" target="_top" xlink:title=" ">
<polygon fill="white" stroke="#666666" points="175.14,-156 103.64,-156 103.64,-136 175.14,-136 175.14,-156"/>
<text text-anchor="middle" x="139.39" y="-142.5" font-family="Helvetica,sans-Serif" font-size="10.00">space_group</text>
</a>
</g>
</g>
<!-- Node4&#45;&gt;Node5 -->
<g id="edge7_Node000005_Node000004" class="edge">
<title>Node4&#45;&gt;Node5</title>
<g id="a_edge7_Node000005_Node000004"><a xlink:title=" ">
<path fill="none" stroke="#9a32cd" stroke-dasharray="5,2" d="M54.97,-206.67C63.36,-196.21 74.8,-183.36 86.89,-174 95.89,-167.04 106.96,-161.04 116.6,-156.47"/>
<polygon fill="#9a32cd" stroke="#9a32cd" points="52.21,-204.53 48.87,-214.58 57.75,-208.8 52.21,-204.53"/>
</a>
</g>
<text text-anchor="middle" x="115.14" y="-188.5" font-family="Helvetica,sans-Serif" font-size="10.00" fill="grey"> coord_origin</text>
<text text-anchor="middle" x="115.14" y="-176.5" font-family="Helvetica,sans-Serif" font-size="10.00" fill="grey">wyck_origin</text>
</g>
<!-- Node5&#45;&gt;Node2 -->
<g id="edge4_Node000002_Node000005" class="edge">
<title>Node5&#45;&gt;Node2</title>
<g id="a_edge4_Node000002_Node000005"><a xlink:title=" ">
<path fill="none" stroke="#9a32cd" stroke-dasharray="5,2" d="M123.53,-127.25C112.36,-114.76 97.85,-98.53 88.83,-88.44"/>
<polygon fill="#9a32cd" stroke="#9a32cd" points="120.66,-129.29 129.93,-134.42 125.88,-124.63 120.66,-129.29"/>
</a>
</g>
<text text-anchor="middle" x="135.77" y="-108.5" font-family="Helvetica,sans-Serif" font-size="10.00" fill="grey"> sp_group</text>
</g>
<!-- Node6 -->
<g id="Node000006" class="node">
<title>Node6</title>
<g id="a_Node000006"><a xlink:href="../../dc/de2/structspg__setting.html" target="_top" xlink:title=" ">
<polygon fill="white" stroke="#666666" points="192.52,-236 126.27,-236 126.27,-216 192.52,-216 192.52,-236"/>
<text text-anchor="middle" x="159.39" y="-222.5" font-family="Helvetica,sans-Serif" font-size="10.00">spg_setting</text>
</a>
</g>
</g>
<!-- Node6&#45;&gt;Node5 -->
<g id="edge5_Node000005_Node000006" class="edge">
<title>Node6&#45;&gt;Node5</title>
<g id="a_edge5_Node000005_Node000006"><a xlink:title=" ">
<path fill="none" stroke="#9a32cd" stroke-dasharray="5,2" d="M154.28,-205.05C150.25,-189.35 144.83,-168.2 141.76,-156.24"/>
<polygon fill="#9a32cd" stroke="#9a32cd" points="150.77,-205.46 156.64,-214.28 157.55,-203.72 150.77,-205.46"/>
</a>
</g>
<text text-anchor="middle" x="170.14" y="-182.5" font-family="Helvetica,sans-Serif" font-size="10.00" fill="grey"> settings</text>
</g>
<!-- Node7 -->
<g id="Node000007" class="node">
<title>Node7</title>
<g id="a_Node000007"><a xlink:href="../../d9/d4f/structwyckoff__position.html" target="_top" xlink:title=" ">
<polygon fill="white" stroke="#666666" points="299.77,-236 211.02,-236 211.02,-216 299.77,-216 299.77,-236"/>
<text text-anchor="middle" x="255.39" y="-222.5" font-family="Helvetica,sans-Serif" font-size="10.00">wyckoff_position</text>
</a>
</g>
</g>
<!-- Node7&#45;&gt;Node5 -->
<g id="edge6_Node000005_Node000007" class="edge">
<title>Node7&#45;&gt;Node5</title>
<g id="a_edge6_Node000005_Node000007"><a xlink:title=" ">
<path fill="none" stroke="#9a32cd" stroke-dasharray="5,2" d="M236.86,-207.88C224.96,-197.38 208.89,-184.06 193.39,-174 183.2,-167.38 171.15,-161.21 161.03,-156.45"/>
<polygon fill="#9a32cd" stroke="#9a32cd" points="234.51,-210.48 244.29,-214.57 239.2,-205.28 234.51,-210.48"/>
</a>
</g>
<text text-anchor="middle" x="242.77" y="-182.5" font-family="Helvetica,sans-Serif" font-size="10.00" fill="grey"> wyckoff</text>
</g>
<!-- Node8 -->
<g id="Node000008" class="node">
<title>Node8</title>
<g id="a_Node000008"><a xlink:href="../../df/d46/structtint.html" target="_top" xlink:title=" ">
<polygon fill="white" stroke="#666666" points="154.14,-88 124.64,-88 124.64,-68 154.14,-68 154.14,-88"/>
<text text-anchor="middle" x="139.39" y="-74.5" font-family="Helvetica,sans-Serif" font-size="10.00">tint</text>
</a>
</g>
</g>
<!-- Node8&#45;&gt;Node1 -->
<g id="edge8_Node000001_Node000008" class="edge">
<title>Node8&#45;&gt;Node1</title>
<g id="a_edge8_Node000001_Node000008"><a xlink:title=" ">
<path fill="none" stroke="#9a32cd" stroke-dasharray="5,2" d="M130.49,-57.4C124.94,-45.2 118.05,-30.04 113.68,-20.44"/>
<polygon fill="#9a32cd" stroke="#9a32cd" points="127.14,-58.51 134.47,-66.17 133.52,-55.61 127.14,-58.51"/>
</a>
</g>
<text text-anchor="middle" x="145.14" y="-40.5" font-family="Helvetica,sans-Serif" font-size="10.00" fill="grey"> pointers</text>
</g>
</g>
</svg>
</svg>

<style type='text/css'>
<![CDATA[
[data-mouse-over-selected='false'] { opacity: 0.7; }
[data-mouse-over-selected='true']  { opacity: 1.0; }
]]>
</style>
<script type="application/ecmascript"><![CDATA[
document.addEventListener('DOMContentLoaded', (event) => {
  highlightEdges();
  highlightAdjacentNodes();
});
]]></script>
</svg>
