<?xml version="1.0" encoding="UTF-8" standalone="no"?>
<!DOCTYPE svg PUBLIC "-//W3C//DTD SVG 1.1//EN"
 "http://www.w3.org/Graphics/SVG/1.1/DTD/svg11.dtd">
<!-- Generated by graphviz version 9.0.0 (20230911.1827)
 -->
<!-- Title: gui/msdcall.c Pages: 1 -->
<!--zoomable 252 -->

<svg id="main" version="1.1" xmlns="http://www.w3.org/2000/svg" xmlns:xlink="http://www.w3.org/1999/xlink" xml:space="preserve" onload="init(evt)">
<style type="text/css"><![CDATA[
.node, .edge {opacity: 0.7;}
.node.selected, .edge.selected {opacity: 1;}
.edge:hover path { stroke: red; }
.edge:hover polygon { stroke: red; fill: red; }
]]></style>

<defs>
  <circle id="rim" cx="0" cy="0" r="7"/>
  <circle id="rim2" cx="0" cy="0" r="3.5"/>
  <g id="zoomPlus">
    <use xlink:href="#rim" fill="#404040"><set attributeName="fill" to="#808080" begin="zoomplus.mouseover" end="zoomplus.mouseout"/></use>
    <path d="M-4,0h8M0,-4v8" fill="none" stroke="white" stroke-width="1.5" pointer-events="none"/>
  </g>
  <g id="zoomMin">
    <use xlink:href="#rim" fill="#404040"><set attributeName="fill" to="#808080" begin="zoomminus.mouseover" end="zoomminus.mouseout"/></use>
    <path d="M-4,0h8" fill="none" stroke="white" stroke-width="1.5" pointer-events="none"/>
  </g>
  <g id="arrowUp" transform="translate(30 24)">
    <use xlink:href="#rim"/>
    <path pointer-events="none" fill="none" stroke="white" stroke-width="1.5" d="M0,-3.0v7 M-2.5,-0.5L0,-3.0L2.5,-0.5"/>
  </g>
  <g id="arrowRight" transform="rotate(90) translate(36 -43)">
    <use xlink:href="#rim"/>
    <path pointer-events="none" fill="none" stroke="white" stroke-width="1.5" d="M0,-3.0v7 M-2.5,-0.5L0,-3.0L2.5,-0.5"/>
  </g>
  <g id="arrowDown" transform="rotate(180) translate(-30 -48)">
    <use xlink:href="#rim"/>
    <path pointer-events="none" fill="none" stroke="white" stroke-width="1.5" d="M0,-3.0v7 M-2.5,-0.5L0,-3.0L2.5,-0.5"/>
  </g>
  <g id="arrowLeft" transform="rotate(270) translate(-36 17)">
    <use xlink:href="#rim"/>
    <path pointer-events="none" fill="none" stroke="white" stroke-width="1.5" d="M0,-3.0v7 M-2.5,-0.5L0,-3.0L2.5,-0.5"/>
  </g>
  <g id="resetDef">
    <use xlink:href="#rim2" fill="#404040"><set attributeName="fill" to="#808080" begin="reset.mouseover" end="reset.mouseout"/></use>
  </g>
</defs>
<script type="application/ecmascript">
var viewWidth = 1604;
var viewHeight = 252;
var sectionId = 'dynsection-0';
</script>
<script type="application/ecmascript" xlink:href="../../svg.min.js"/>
<svg id="graph" class="graph">
<g id="viewport">
<title>gui/msdcall.c</title>
<!-- Node1 -->
<g id="Node000001" class="node">
<title>Node1</title>
<g id="a_Node000001"><a xlink:title="Callbacks for the MSD calculation dialog.">
<polygon fill="#999999" stroke="#666666" points="303,-244 229.25,-244 229.25,-224 303,-224 303,-244"/>
<text text-anchor="middle" x="266.12" y="-230.5" font-family="Helvetica,sans-Serif" font-size="10.00">gui/msdcall.c</text>
</a>
</g>
</g>
<!-- Node2 -->
<g id="Node000002" class="node">
<title>Node2</title>
<g id="a_Node000002"><a xlink:title=" ">
<polygon fill="#e0e0e0" stroke="#999999" points="54.25,-76 0,-76 0,-56 54.25,-56 54.25,-76"/>
<text text-anchor="middle" x="27.12" y="-62.5" font-family="Helvetica,sans-Serif" font-size="10.00">gtk/gtk.h</text>
</a>
</g>
</g>
<!-- Node1&#45;&gt;Node2 -->
<g id="edge1_Node000001_Node000002" class="edge">
<title>Node1&#45;&gt;Node2</title>
<g id="a_edge1_Node000001_Node000002"><a xlink:title=" ">
<path fill="none" stroke="#63b8ff" d="M228.95,-223.81C203.94,-216.55 170.95,-204.81 145.12,-188 101.05,-159.31 60.86,-111.49 40.71,-85.39"/>
<polygon fill="#63b8ff" stroke="#63b8ff" points="43.52,-83.3 34.7,-77.44 37.94,-87.53 43.52,-83.3"/>
</a>
</g>
</g>
<!-- Node3 -->
<g id="Node000003" class="node">
<title>Node3</title>
<g id="a_Node000003"><a xlink:title=" ">
<polygon fill="#e0e0e0" stroke="#999999" points="120.25,-76 72,-76 72,-56 120.25,-56 120.25,-76"/>
<text text-anchor="middle" x="96.12" y="-62.5" font-family="Helvetica,sans-Serif" font-size="10.00">string.h</text>
</a>
</g>
</g>
<!-- Node1&#45;&gt;Node3 -->
<g id="edge2_Node000001_Node000003" class="edge">
<title>Node1&#45;&gt;Node3</title>
<g id="a_edge2_Node000001_Node000003"><a xlink:title=" ">
<path fill="none" stroke="#63b8ff" d="M232.91,-223.62C212.16,-216.47 185.92,-204.93 167.12,-188 135.43,-159.44 113.87,-113.31 103.41,-87.03"/>
<polygon fill="#63b8ff" stroke="#63b8ff" points="106.76,-86 99.93,-77.9 100.22,-88.49 106.76,-86"/>
</a>
</g>
</g>
<!-- Node4 -->
<g id="Node000004" class="node">
<title>Node4</title>
<g id="a_Node000004"><a xlink:title=" ">
<polygon fill="#e0e0e0" stroke="#999999" points="185.88,-76 138.38,-76 138.38,-56 185.88,-56 185.88,-76"/>
<text text-anchor="middle" x="162.12" y="-62.5" font-family="Helvetica,sans-Serif" font-size="10.00">stdlib.h</text>
</a>
</g>
</g>
<!-- Node1&#45;&gt;Node4 -->
<g id="edge3_Node000001_Node000004" class="edge">
<title>Node1&#45;&gt;Node4</title>
<g id="a_edge3_Node000001_Node000004"><a xlink:title=" ">
<path fill="none" stroke="#63b8ff" d="M232.94,-223.55C214.79,-216.65 193.54,-205.4 181.12,-188 159.78,-158.09 158.59,-113.43 160.08,-87.55"/>
<polygon fill="#63b8ff" stroke="#63b8ff" points="163.56,-87.97 160.85,-77.72 156.58,-87.42 163.56,-87.97"/>
</a>
</g>
</g>
<!-- Node5 -->
<g id="Node000005" class="node">
<title>Node5</title>
<g id="a_Node000005"><a xlink:href="../../d2/d49/global_8h.html" target="_top" xlink:title="Global variable declarations &#160;&#160;Global convenience function declarations &#160;&#160;Global data structure defin...">
<polygon fill="white" stroke="#666666" points="850,-132 800.25,-132 800.25,-112 850,-112 850,-132"/>
<text text-anchor="middle" x="825.12" y="-118.5" font-family="Helvetica,sans-Serif" font-size="10.00">global.h</text>
</a>
</g>
</g>
<!-- Node1&#45;&gt;Node5 -->
<g id="edge4_Node000001_Node000005" class="edge">
<title>Node1&#45;&gt;Node5</title>
<g id="a_edge4_Node000001_Node000005"><a xlink:title=" ">
<path fill="none" stroke="#63b8ff" d="M265.81,-223.71C265.88,-209.28 268.37,-181.68 285.12,-168 324.01,-136.25 673.45,-126.16 788.55,-123.68"/>
<polygon fill="#63b8ff" stroke="#63b8ff" points="788.42,-127.19 798.35,-123.48 788.28,-120.19 788.42,-127.19"/>
</a>
</g>
</g>
<!-- Node25 -->
<g id="Node000025" class="node">
<title>Node25</title>
<g id="a_Node000025"><a xlink:href="../../da/dc2/bind_8h.html" target="_top" xlink:title="Binding to the Fortran90 subroutines.">
<polygon fill="white" stroke="#666666" points="336.25,-188 294,-188 294,-168 336.25,-168 336.25,-188"/>
<text text-anchor="middle" x="315.12" y="-174.5" font-family="Helvetica,sans-Serif" font-size="10.00">bind.h</text>
</a>
</g>
</g>
<!-- Node1&#45;&gt;Node25 -->
<g id="edge29_Node000001_Node000025" class="edge">
<title>Node1&#45;&gt;Node25</title>
<g id="a_edge29_Node000001_Node000025"><a xlink:title=" ">
<path fill="none" stroke="#63b8ff" d="M274.66,-223.59C281.41,-216.16 291.01,-205.58 299.17,-196.58"/>
<polygon fill="#63b8ff" stroke="#63b8ff" points="301.54,-199.18 305.67,-189.42 296.36,-194.47 301.54,-199.18"/>
</a>
</g>
</g>
<!-- Node26 -->
<g id="Node000026" class="node">
<title>Node26</title>
<g id="a_Node000026"><a xlink:href="../../d4/da9/interface_8h.html" target="_top" xlink:title="Messaging function declarations.">
<polygon fill="white" stroke="#666666" points="416,-188 354.25,-188 354.25,-168 416,-168 416,-188"/>
<text text-anchor="middle" x="385.12" y="-174.5" font-family="Helvetica,sans-Serif" font-size="10.00">interface.h</text>
</a>
</g>
</g>
<!-- Node1&#45;&gt;Node26 -->
<g id="edge30_Node000001_Node000026" class="edge">
<title>Node1&#45;&gt;Node26</title>
<g id="a_edge30_Node000001_Node000026"><a xlink:title=" ">
<path fill="none" stroke="#63b8ff" d="M286.85,-223.59C305.34,-215.21 332.67,-202.8 353.82,-193.21"/>
<polygon fill="#63b8ff" stroke="#63b8ff" points="355.2,-196.42 362.86,-189.1 352.3,-190.05 355.2,-196.42"/>
</a>
</g>
</g>
<!-- Node27 -->
<g id="Node000027" class="node">
<title>Node27</title>
<g id="a_Node000027"><a xlink:href="../../dd/d49/callbacks_8h.html" target="_top" xlink:title="Callback declarations for main window.">
<polygon fill="white" stroke="#666666" points="499.88,-188 434.38,-188 434.38,-168 499.88,-168 499.88,-188"/>
<text text-anchor="middle" x="467.12" y="-174.5" font-family="Helvetica,sans-Serif" font-size="10.00">callbacks.h</text>
</a>
</g>
</g>
<!-- Node1&#45;&gt;Node27 -->
<g id="edge31_Node000001_Node000027" class="edge">
<title>Node1&#45;&gt;Node27</title>
<g id="a_edge31_Node000001_Node000027"><a xlink:title=" ">
<path fill="none" stroke="#63b8ff" d="M301.14,-223.59C335.08,-214.47 386.68,-200.61 423.32,-190.77"/>
<polygon fill="#63b8ff" stroke="#63b8ff" points="423.97,-194.22 432.72,-188.24 422.15,-187.46 423.97,-194.22"/>
</a>
</g>
</g>
<!-- Node28 -->
<g id="Node000028" class="node">
<title>Node28</title>
<g id="a_Node000028"><a xlink:href="../../df/de9/curve_8h.html" target="_top" xlink:title="Variable declarations for the curve widget &#160;&#160;Functions for interactions with the curve widget.">
<polygon fill="white" stroke="#666666" points="238.25,-188 190,-188 190,-168 238.25,-168 238.25,-188"/>
<text text-anchor="middle" x="214.12" y="-174.5" font-family="Helvetica,sans-Serif" font-size="10.00">curve.h</text>
</a>
</g>
</g>
<!-- Node1&#45;&gt;Node28 -->
<g id="edge32_Node000001_Node000028" class="edge">
<title>Node1&#45;&gt;Node28</title>
<g id="a_edge32_Node000001_Node000028"><a xlink:title=" ">
<path fill="none" stroke="#63b8ff" d="M257.07,-223.59C249.91,-216.16 239.72,-205.58 231.06,-196.58"/>
<polygon fill="#63b8ff" stroke="#63b8ff" points="233.59,-194.16 224.13,-189.39 228.54,-199.02 233.59,-194.16"/>
</a>
</g>
</g>
<!-- Node29 -->
<g id="Node000029" class="node">
<title>Node29</title>
<g id="a_Node000029"><a xlink:href="../../dc/d8d/project_8h.html" target="_top" xlink:title="Function declarations for reading atomes project file &#160;&#160;Function declarations for saving atomes proje...">
<polygon fill="white" stroke="#666666" points="571.88,-188 518.38,-188 518.38,-168 571.88,-168 571.88,-188"/>
<text text-anchor="middle" x="545.12" y="-174.5" font-family="Helvetica,sans-Serif" font-size="10.00">project.h</text>
</a>
</g>
</g>
<!-- Node1&#45;&gt;Node29 -->
<g id="edge34_Node000001_Node000029" class="edge">
<title>Node1&#45;&gt;Node29</title>
<g id="a_edge34_Node000001_Node000029"><a xlink:title=" ">
<path fill="none" stroke="#63b8ff" d="M303.32,-226.85C348.97,-219.14 428.99,-205.1 507.04,-188.34"/>
<polygon fill="#63b8ff" stroke="#63b8ff" points="507.53,-191.82 516.56,-186.28 506.05,-184.98 507.53,-191.82"/>
</a>
</g>
</g>
<!-- Node5&#45;&gt;Node2 -->
<g id="edge15_Node000005_Node000002" class="edge">
<title>Node5&#45;&gt;Node2</title>
<g id="a_edge15_Node000005_Node000002"><a xlink:title=" ">
<path fill="none" stroke="#63b8ff" d="M799.95,-121.21C704.92,-121.63 358.94,-119.98 65.82,-76.12"/>
<polygon fill="#63b8ff" stroke="#63b8ff" points="66.44,-72.68 56.03,-74.64 65.39,-79.6 66.44,-72.68"/>
</a>
</g>
</g>
<!-- Node5&#45;&gt;Node3 -->
<g id="edge9_Node000005_Node000003" class="edge">
<title>Node5&#45;&gt;Node3</title>
<g id="a_edge9_Node000005_Node000003"><a xlink:title=" ">
<path fill="none" stroke="#63b8ff" d="M799.95,-121.2C710.16,-121.52 397.31,-119.37 131.54,-76.06"/>
<polygon fill="#63b8ff" stroke="#63b8ff" points="132.44,-72.67 122,-74.49 131.3,-79.57 132.44,-72.67"/>
</a>
</g>
</g>
<!-- Node5&#45;&gt;Node4 -->
<g id="edge11_Node000005_Node000004" class="edge">
<title>Node5&#45;&gt;Node4</title>
<g id="a_edge11_Node000005_Node000004"><a xlink:title=" ">
<path fill="none" stroke="#63b8ff" d="M800,-120.96C715.89,-120.44 436.44,-115.79 197.16,-76"/>
<polygon fill="#63b8ff" stroke="#63b8ff" points="198.09,-72.6 187.65,-74.39 196.92,-79.51 198.09,-72.6"/>
</a>
</g>
</g>
<!-- Node6 -->
<g id="Node000006" class="node">
<title>Node6</title>
<g id="a_Node000006"><a xlink:title=" ">
<polygon fill="#e0e0e0" stroke="#999999" points="1031.75,-76 992.5,-76 992.5,-56 1031.75,-56 1031.75,-76"/>
<text text-anchor="middle" x="1012.12" y="-62.5" font-family="Helvetica,sans-Serif" font-size="10.00">glib.h</text>
</a>
</g>
</g>
<!-- Node5&#45;&gt;Node6 -->
<g id="edge5_Node000005_Node000006" class="edge">
<title>Node5&#45;&gt;Node6</title>
<g id="a_edge5_Node000005_Node000006"><a xlink:title=" ">
<path fill="none" stroke="#63b8ff" d="M850.34,-113.72C884.26,-103.92 944.53,-86.52 981.15,-75.94"/>
<polygon fill="#63b8ff" stroke="#63b8ff" points="982.06,-79.32 990.7,-73.19 980.12,-72.6 982.06,-79.32"/>
</a>
</g>
</g>
<!-- Node7 -->
<g id="Node000007" class="node">
<title>Node7</title>
<g id="a_Node000007"><a xlink:title=" ">
<polygon fill="#e0e0e0" stroke="#999999" points="1114.88,-76 1049.38,-76 1049.38,-56 1114.88,-56 1114.88,-76"/>
<text text-anchor="middle" x="1082.12" y="-62.5" font-family="Helvetica,sans-Serif" font-size="10.00">glib/gi18n.h</text>
</a>
</g>
</g>
<!-- Node5&#45;&gt;Node7 -->
<g id="edge6_Node000005_Node000007" class="edge">
<title>Node5&#45;&gt;Node7</title>
<g id="a_edge6_Node000005_Node000007"><a xlink:title=" ">
<path fill="none" stroke="#63b8ff" d="M850.42,-115.82C888.88,-107.93 964.66,-92.3 1038.19,-76.61"/>
<polygon fill="#63b8ff" stroke="#63b8ff" points="1038.49,-80.13 1047.53,-74.62 1037.02,-73.28 1038.49,-80.13"/>
</a>
</g>
</g>
<!-- Node8 -->
<g id="Node000008" class="node">
<title>Node8</title>
<g id="a_Node000008"><a xlink:title=" ">
<polygon fill="#e0e0e0" stroke="#999999" points="1183,-76 1133.25,-76 1133.25,-56 1183,-56 1183,-76"/>
<text text-anchor="middle" x="1158.12" y="-62.5" font-family="Helvetica,sans-Serif" font-size="10.00">locale.h</text>
</a>
</g>
</g>
<!-- Node5&#45;&gt;Node8 -->
<g id="edge7_Node000005_Node000008" class="edge">
<title>Node5&#45;&gt;Node8</title>
<g id="a_edge7_Node000005_Node000008"><a xlink:title=" ">
<path fill="none" stroke="#63b8ff" d="M850.49,-118.13C900.48,-112.28 1015.41,-97.83 1121.7,-76.31"/>
<polygon fill="#63b8ff" stroke="#63b8ff" points="1122.37,-79.74 1131.46,-74.3 1120.96,-72.88 1122.37,-79.74"/>
</a>
</g>
</g>
<!-- Node9 -->
<g id="Node000009" class="node">
<title>Node9</title>
<g id="a_Node000009"><a xlink:title=" ">
<polygon fill="#e0e0e0" stroke="#999999" points="1251.38,-76 1200.88,-76 1200.88,-56 1251.38,-56 1251.38,-76"/>
<text text-anchor="middle" x="1226.12" y="-62.5" font-family="Helvetica,sans-Serif" font-size="10.00">unistd.h</text>
</a>
</g>
</g>
<!-- Node5&#45;&gt;Node9 -->
<g id="edge8_Node000005_Node000009" class="edge">
<title>Node5&#45;&gt;Node9</title>
<g id="a_edge8_Node000005_Node000009"><a xlink:title=" ">
<path fill="none" stroke="#63b8ff" d="M850.23,-119.11C908.28,-114.5 1056.4,-101.29 1189.41,-76.3"/>
<polygon fill="#63b8ff" stroke="#63b8ff" points="1189.94,-79.76 1199.1,-74.44 1188.63,-72.88 1189.94,-79.76"/>
</a>
</g>
</g>
<!-- Node10 -->
<g id="Node000010" class="node">
<title>Node10</title>
<g id="a_Node000010"><a xlink:title=" ">
<polygon fill="#e0e0e0" stroke="#999999" points="1137.75,-20 1092.5,-20 1092.5,0 1137.75,0 1137.75,-20"/>
<text text-anchor="middle" x="1115.12" y="-6.5" font-family="Helvetica,sans-Serif" font-size="10.00">stdio.h</text>
</a>
</g>
</g>
<!-- Node5&#45;&gt;Node10 -->
<g id="edge10_Node000005_Node000010" class="edge">
<title>Node5&#45;&gt;Node10</title>
<g id="a_edge10_Node000005_Node000010"><a xlink:title=" ">
<path fill="none" stroke="#63b8ff" d="M850.32,-112.59C874.86,-104.16 913.05,-90.39 945.12,-76 962.54,-68.19 965.6,-63.55 983.12,-56 1015.82,-41.93 1054.49,-29.18 1081.49,-20.87"/>
<polygon fill="#63b8ff" stroke="#63b8ff" points="1082.3,-24.29 1090.85,-18.03 1080.27,-17.59 1082.3,-24.29"/>
</a>
</g>
</g>
<!-- Node11 -->
<g id="Node000011" class="node">
<title>Node11</title>
<g id="a_Node000011"><a xlink:title=" ">
<polygon fill="#e0e0e0" stroke="#999999" points="1518.62,-76 1451.62,-76 1451.62,-56 1518.62,-56 1518.62,-76"/>
<text text-anchor="middle" x="1485.12" y="-62.5" font-family="Helvetica,sans-Serif" font-size="10.00">sys/types.h</text>
</a>
</g>
</g>
<!-- Node5&#45;&gt;Node11 -->
<g id="edge12_Node000005_Node000011" class="edge">
<title>Node5&#45;&gt;Node11</title>
<g id="a_edge12_Node000005_Node000011"><a xlink:title=" ">
<path fill="none" stroke="#63b8ff" d="M850.23,-120.37C933.02,-118.04 1205.04,-108.39 1440.23,-76.06"/>
<polygon fill="#63b8ff" stroke="#63b8ff" points="1440.48,-79.56 1449.9,-74.71 1439.51,-72.63 1440.48,-79.56"/>
</a>
</g>
</g>
<!-- Node12 -->
<g id="Node000012" class="node">
<title>Node12</title>
<g id="a_Node000012"><a xlink:title=" ">
<polygon fill="#e0e0e0" stroke="#999999" points="1595.88,-76 1536.38,-76 1536.38,-56 1595.88,-56 1595.88,-76"/>
<text text-anchor="middle" x="1566.12" y="-62.5" font-family="Helvetica,sans-Serif" font-size="10.00">sys/stat.h</text>
</a>
</g>
</g>
<!-- Node5&#45;&gt;Node12 -->
<g id="edge13_Node000005_Node000012" class="edge">
<title>Node5&#45;&gt;Node12</title>
<g id="a_edge13_Node000005_Node000012"><a xlink:title=" ">
<path fill="none" stroke="#63b8ff" d="M850.19,-120.92C940.3,-120.31 1256.24,-115.42 1524.79,-76.28"/>
<polygon fill="#63b8ff" stroke="#63b8ff" points="1525.05,-79.78 1534.43,-74.86 1524.03,-72.86 1525.05,-79.78"/>
</a>
</g>
</g>
<!-- Node13 -->
<g id="Node000013" class="node">
<title>Node13</title>
<g id="a_Node000013"><a xlink:title=" ">
<polygon fill="#e0e0e0" stroke="#999999" points="1338.12,-20 1292.12,-20 1292.12,0 1338.12,0 1338.12,-20"/>
<text text-anchor="middle" x="1315.12" y="-6.5" font-family="Helvetica,sans-Serif" font-size="10.00">math.h</text>
</a>
</g>
</g>
<!-- Node5&#45;&gt;Node13 -->
<g id="edge14_Node000005_Node000013" class="edge">
<title>Node5&#45;&gt;Node13</title>
<g id="a_edge14_Node000005_Node000013"><a xlink:title=" ">
<path fill="none" stroke="#63b8ff" d="M850.5,-120.74C949.59,-119.48 1306.74,-112.43 1340.12,-76 1352.2,-62.82 1341.99,-43.18 1331.2,-28.94"/>
<polygon fill="#63b8ff" stroke="#63b8ff" points="1333.93,-26.75 1324.87,-21.26 1328.53,-31.2 1333.93,-26.75"/>
</a>
</g>
</g>
<!-- Node14 -->
<g id="Node000014" class="node">
<title>Node14</title>
<g id="a_Node000014"><a xlink:title=" ">
<polygon fill="#e0e0e0" stroke="#999999" points="263.88,-76 204.38,-76 204.38,-56 263.88,-56 263.88,-76"/>
<text text-anchor="middle" x="234.12" y="-62.5" font-family="Helvetica,sans-Serif" font-size="10.00">gtk/gtkx.h</text>
</a>
</g>
</g>
<!-- Node5&#45;&gt;Node14 -->
<g id="edge16_Node000005_Node000014" class="edge">
<title>Node5&#45;&gt;Node14</title>
<g id="a_edge16_Node000005_Node000014"><a xlink:title=" ">
<path fill="none" stroke="#63b8ff" d="M799.94,-120.25C722.88,-117.68 483.41,-107.68 275.41,-76.13"/>
<polygon fill="#63b8ff" stroke="#63b8ff" points="276.19,-72.71 265.77,-74.64 275.12,-79.63 276.19,-72.71"/>
</a>
</g>
</g>
<!-- Node15 -->
<g id="Node000015" class="node">
<title>Node15</title>
<g id="a_Node000015"><a xlink:title=" ">
<polygon fill="#e0e0e0" stroke="#999999" points="340.5,-76 281.75,-76 281.75,-56 340.5,-56 340.5,-76"/>
<text text-anchor="middle" x="311.12" y="-62.5" font-family="Helvetica,sans-Serif" font-size="10.00">gdk/gdk.h</text>
</a>
</g>
</g>
<!-- Node5&#45;&gt;Node15 -->
<g id="edge17_Node000005_Node000015" class="edge">
<title>Node5&#45;&gt;Node15</title>
<g id="a_edge17_Node000005_Node000015"><a xlink:title=" ">
<path fill="none" stroke="#63b8ff" d="M800,-119.79C730.43,-116.21 529.3,-104.16 351.96,-76.07"/>
<polygon fill="#63b8ff" stroke="#63b8ff" points="352.78,-72.66 342.35,-74.53 351.67,-79.57 352.78,-72.66"/>
</a>
</g>
</g>
<!-- Node16 -->
<g id="Node000016" class="node">
<title>Node16</title>
<g id="a_Node000016"><a xlink:title=" ">
<polygon fill="#e0e0e0" stroke="#999999" points="457.38,-76 358.88,-76 358.88,-56 457.38,-56 457.38,-76"/>
<text text-anchor="middle" x="408.12" y="-62.5" font-family="Helvetica,sans-Serif" font-size="10.00">gdk/gdkkeysyms.h</text>
</a>
</g>
</g>
<!-- Node5&#45;&gt;Node16 -->
<g id="edge18_Node000005_Node000016" class="edge">
<title>Node5&#45;&gt;Node16</title>
<g id="a_edge18_Node000005_Node000016"><a xlink:title=" ">
<path fill="none" stroke="#63b8ff" d="M799.85,-118.09C742.82,-111.47 599.58,-94.53 469.15,-76.39"/>
<polygon fill="#63b8ff" stroke="#63b8ff" points="469.67,-72.93 459.28,-75.01 468.7,-79.86 469.67,-72.93"/>
</a>
</g>
</g>
<!-- Node17 -->
<g id="Node000017" class="node">
<title>Node17</title>
<g id="a_Node000017"><a xlink:title=" ">
<polygon fill="#e0e0e0" stroke="#999999" points="592.75,-76 475.5,-76 475.5,-56 592.75,-56 592.75,-76"/>
<text text-anchor="middle" x="534.12" y="-62.5" font-family="Helvetica,sans-Serif" font-size="10.00">gdk&#45;pixbuf/gdk&#45;pixbuf.h</text>
</a>
</g>
</g>
<!-- Node5&#45;&gt;Node17 -->
<g id="edge19_Node000005_Node000017" class="edge">
<title>Node5&#45;&gt;Node17</title>
<g id="a_edge19_Node000005_Node000017"><a xlink:title=" ">
<path fill="none" stroke="#63b8ff" d="M799.81,-116.3C754.81,-107.95 659.66,-90.3 596.31,-78.54"/>
<polygon fill="#63b8ff" stroke="#63b8ff" points="597.22,-75.15 586.75,-76.76 595.94,-82.03 597.22,-75.15"/>
</a>
</g>
</g>
<!-- Node18 -->
<g id="Node000018" class="node">
<title>Node18</title>
<g id="a_Node000018"><a xlink:title=" ">
<polygon fill="#e0e0e0" stroke="#999999" points="701.62,-76 610.62,-76 610.62,-56 701.62,-56 701.62,-76"/>
<text text-anchor="middle" x="656.12" y="-62.5" font-family="Helvetica,sans-Serif" font-size="10.00">pango/pangoft2.h</text>
</a>
</g>
</g>
<!-- Node5&#45;&gt;Node18 -->
<g id="edge20_Node000005_Node000018" class="edge">
<title>Node5&#45;&gt;Node18</title>
<g id="a_edge20_Node000005_Node000018"><a xlink:title=" ">
<path fill="none" stroke="#63b8ff" d="M799.82,-112.92C772.48,-104.18 728.51,-90.13 696.4,-79.87"/>
<polygon fill="#63b8ff" stroke="#63b8ff" points="697.62,-76.58 687.03,-76.87 695.49,-83.25 697.62,-76.58"/>
</a>
</g>
</g>
<!-- Node19 -->
<g id="Node000019" class="node">
<title>Node19</title>
<g id="a_Node000019"><a xlink:title=" ">
<polygon fill="#e0e0e0" stroke="#999999" points="780.62,-76 719.62,-76 719.62,-56 780.62,-56 780.62,-76"/>
<text text-anchor="middle" x="750.12" y="-62.5" font-family="Helvetica,sans-Serif" font-size="10.00">epoxy/gl.h</text>
</a>
</g>
</g>
<!-- Node5&#45;&gt;Node19 -->
<g id="edge21_Node000005_Node000019" class="edge">
<title>Node5&#45;&gt;Node19</title>
<g id="a_edge21_Node000005_Node000019"><a xlink:title=" ">
<path fill="none" stroke="#63b8ff" d="M812.06,-111.59C801.16,-103.74 785.37,-92.38 772.47,-83.09"/>
<polygon fill="#63b8ff" stroke="#63b8ff" points="774.68,-80.37 764.52,-77.36 770.59,-86.05 774.68,-80.37"/>
</a>
</g>
</g>
<!-- Node20 -->
<g id="Node000020" class="node">
<title>Node20</title>
<g id="a_Node000020"><a xlink:title=" ">
<polygon fill="#e0e0e0" stroke="#999999" points="851.5,-76 798.75,-76 798.75,-56 851.5,-56 851.5,-76"/>
<text text-anchor="middle" x="825.12" y="-62.5" font-family="Helvetica,sans-Serif" font-size="10.00">GL/glu.h</text>
</a>
</g>
</g>
<!-- Node5&#45;&gt;Node20 -->
<g id="edge22_Node000005_Node000020" class="edge">
<title>Node5&#45;&gt;Node20</title>
<g id="a_edge22_Node000005_Node000020"><a xlink:title=" ">
<path fill="none" stroke="#63b8ff" d="M825.12,-111.59C825.12,-105.01 825.12,-95.96 825.12,-87.73"/>
<polygon fill="#63b8ff" stroke="#63b8ff" points="828.63,-87.81 825.13,-77.81 821.63,-87.81 828.63,-87.81"/>
</a>
</g>
</g>
<!-- Node21 -->
<g id="Node000021" class="node">
<title>Node21</title>
<g id="a_Node000021"><a xlink:title=" ">
<polygon fill="#e0e0e0" stroke="#999999" points="936.25,-76 870,-76 870,-56 936.25,-56 936.25,-76"/>
<text text-anchor="middle" x="903.12" y="-62.5" font-family="Helvetica,sans-Serif" font-size="10.00">epoxy/glx.h</text>
</a>
</g>
</g>
<!-- Node5&#45;&gt;Node21 -->
<g id="edge23_Node000005_Node000021" class="edge">
<title>Node5&#45;&gt;Node21</title>
<g id="a_edge23_Node000005_Node000021"><a xlink:title=" ">
<path fill="none" stroke="#63b8ff" d="M838.71,-111.59C850.16,-103.67 866.79,-92.16 880.28,-82.82"/>
<polygon fill="#63b8ff" stroke="#63b8ff" points="881.96,-85.91 888.19,-77.34 877.97,-80.16 881.96,-85.91"/>
</a>
</g>
</g>
<!-- Node22 -->
<g id="Node000022" class="node">
<title>Node22</title>
<g id="a_Node000022"><a xlink:href="../../dc/db0/math__3d_8h.html" target="_top" xlink:title="Functions for OpenGL math.">
<polygon fill="white" stroke="#666666" points="1331,-76 1269.25,-76 1269.25,-56 1331,-56 1331,-76"/>
<text text-anchor="middle" x="1300.12" y="-62.5" font-family="Helvetica,sans-Serif" font-size="10.00">math_3d.h</text>
</a>
</g>
</g>
<!-- Node5&#45;&gt;Node22 -->
<g id="edge24_Node000005_Node000022" class="edge">
<title>Node5&#45;&gt;Node22</title>
<g id="a_edge24_Node000005_Node000022"><a xlink:title=" ">
<path fill="none" stroke="#63b8ff" d="M850.27,-119.44C915.74,-115.17 1097.01,-101.93 1257.71,-76.22"/>
<polygon fill="#63b8ff" stroke="#63b8ff" points="1257.95,-79.73 1267.26,-74.67 1256.83,-72.82 1257.95,-79.73"/>
</a>
</g>
</g>
<!-- Node23 -->
<g id="Node000023" class="node">
<title>Node23</title>
<g id="a_Node000023"><a xlink:href="../../da/d7e/glwin_8h.html" target="_top" xlink:title="Variable declarations related the OpenGL window &#160;&#160;Data structure declarations related the OpenGL wind...">
<polygon fill="white" stroke="#666666" points="1433.5,-76 1386.75,-76 1386.75,-56 1433.5,-56 1433.5,-76"/>
<text text-anchor="middle" x="1410.12" y="-62.5" font-family="Helvetica,sans-Serif" font-size="10.00">glwin.h</text>
</a>
</g>
</g>
<!-- Node5&#45;&gt;Node23 -->
<g id="edge27_Node000005_Node000023" class="edge">
<title>Node5&#45;&gt;Node23</title>
<g id="a_edge27_Node000005_Node000023"><a xlink:title=" ">
<path fill="none" stroke="#63b8ff" d="M850.42,-120.33C928.64,-117.96 1173.35,-108.3 1373.12,-76 1373.8,-75.89 1374.48,-75.78 1375.16,-75.66"/>
<polygon fill="#63b8ff" stroke="#63b8ff" points="1375.78,-79.1 1384.87,-73.67 1374.37,-72.25 1375.78,-79.1"/>
</a>
</g>
</g>
<!-- Node22&#45;&gt;Node10 -->
<g id="edge26_Node000022_Node000010" class="edge">
<title>Node22&#45;&gt;Node10</title>
<g id="a_edge26_Node000022_Node000010"><a xlink:title=" ">
<path fill="none" stroke="#63b8ff" d="M1269.16,-55.96C1235.89,-46.25 1183.19,-30.87 1148.88,-20.85"/>
<polygon fill="#63b8ff" stroke="#63b8ff" points="1150.03,-17.54 1139.45,-18.1 1148.07,-24.26 1150.03,-17.54"/>
</a>
</g>
</g>
<!-- Node22&#45;&gt;Node13 -->
<g id="edge25_Node000022_Node000013" class="edge">
<title>Node22&#45;&gt;Node13</title>
<g id="a_edge25_Node000022_Node000013"><a xlink:title=" ">
<path fill="none" stroke="#63b8ff" d="M1302.74,-55.59C1304.61,-48.86 1307.2,-39.53 1309.53,-31.15"/>
<polygon fill="#63b8ff" stroke="#63b8ff" points="1312.83,-32.33 1312.14,-21.76 1306.09,-30.46 1312.83,-32.33"/>
</a>
</g>
</g>
<!-- Node24 -->
<g id="Node000024" class="node">
<title>Node24</title>
<g id="a_Node000024"><a xlink:href="../../d5/d9e/ogl__shading_8h.html" target="_top" xlink:title="Variable declarations related to GLSL programs &#160;&#160;Data structure declarations related to GLSL programs...">
<polygon fill="white" stroke="#666666" points="1448.12,-20 1372.12,-20 1372.12,0 1448.12,0 1448.12,-20"/>
<text text-anchor="middle" x="1410.12" y="-6.5" font-family="Helvetica,sans-Serif" font-size="10.00">ogl_shading.h</text>
</a>
</g>
</g>
<!-- Node23&#45;&gt;Node24 -->
<g id="edge28_Node000023_Node000024" class="edge">
<title>Node23&#45;&gt;Node24</title>
<g id="a_edge28_Node000023_Node000024"><a xlink:title=" ">
<path fill="none" stroke="#63b8ff" d="M1410.12,-55.59C1410.12,-49.01 1410.12,-39.96 1410.12,-31.73"/>
<polygon fill="#63b8ff" stroke="#63b8ff" points="1413.63,-31.81 1410.13,-21.81 1406.63,-31.81 1413.63,-31.81"/>
</a>
</g>
</g>
<!-- Node28&#45;&gt;Node5 -->
<g id="edge33_Node000028_Node000005" class="edge">
<title>Node28&#45;&gt;Node5</title>
<g id="a_edge33_Node000028_Node000005"><a xlink:title=" ">
<path fill="none" stroke="#63b8ff" d="M238.54,-170.63C243.04,-169.63 247.7,-168.69 252.12,-168 453.08,-136.5 697.32,-126.63 788.49,-123.92"/>
<polygon fill="#63b8ff" stroke="#63b8ff" points="788.42,-127.42 798.32,-123.64 788.22,-120.43 788.42,-127.42"/>
</a>
</g>
</g>
</g>
</svg>

<g id="navigator" transform="translate(0 0)" fill="#404254">
  <rect fill="#f2f5e9" fill-opacity="0.5" stroke="#606060" stroke-width=".5" x="0" y="0" width="60" height="60"/>
  <use id="zoomplus" xlink:href="#zoomPlus" x="17" y="9" onmousedown="handleZoom(evt,'in')"/>
  <use id="zoomminus" xlink:href="#zoomMin" x="42" y="9" onmousedown="handleZoom(evt,'out')"/>
  <use id="reset" xlink:href="#resetDef" x="30" y="36" onmousedown="handleReset()"/>
   <use id="arrowup" xlink:href="#arrowUp" x="0" y="0" onmousedown="handlePan(0,-1)"/>
  <use id="arrowright" xlink:href="#arrowRight" x="0" y="0" onmousedown="handlePan(1,0)"/>
  <use id="arrowdown" xlink:href="#arrowDown" x="0" y="0" onmousedown="handlePan(0,1)"/>
  <use id="arrowleft" xlink:href="#arrowLeft" x="0" y="0" onmousedown="handlePan(-1,0)"/>
</g>
<svg viewBox="0 0 15 15" width="100%" height="30px" preserveAspectRatio="xMaxYMin meet">
 <g id="arrow_out" transform="scale(0.3 0.3)">
  <a xlink:href="msdcall_8c__incl_org.svg" target="_base">
   <rect id="button" ry="5" rx="5" y="6" x="6" height="38" width="38"
        fill="#f2f5e9" fill-opacity="0.5" stroke="#606060" stroke-width="1.0"/>
   <path id="arrow"
     d="M 11.500037,31.436501 C 11.940474,20.09759 22.043105,11.32322 32.158766,21.979434 L 37.068811,17.246167 C 37.068811,17.246167 37.088388,32 37.088388,32 L 22.160133,31.978069 C 22.160133,31.978069 26.997745,27.140456 26.997745,27.140456 C 18.528582,18.264221 13.291696,25.230495 11.500037,31.436501 z"
     style="fill:#404040;"/>
  </a>
 </g>
</svg>

<style type='text/css'>
<![CDATA[
[data-mouse-over-selected='false'] { opacity: 0.7; }
[data-mouse-over-selected='true']  { opacity: 1.0; }
]]>
</style>
<script type="application/ecmascript"><![CDATA[
document.addEventListener('DOMContentLoaded', (event) => {
  highlightEdges();
  highlightAdjacentNodes();
});
]]></script>
</svg>
