<?xml version="1.0" encoding="UTF-8" standalone="no"?>
<!DOCTYPE svg PUBLIC "-//W3C//DTD SVG 1.1//EN"
 "http://www.w3.org/Graphics/SVG/1.1/DTD/svg11.dtd">
<!-- Generated by graphviz version 2.43.0 (0)
 -->
<!-- Title: cp2k Pages: 1 -->
<svg width="127pt" height="96pt"
 viewBox="0.00 0.00 126.50 96.00" xmlns="http://www.w3.org/2000/svg" xmlns:xlink="http://www.w3.org/1999/xlink">
<g id="graph0" class="graph" transform="scale(1 1) rotate(0) translate(4 92)">
<title>cp2k</title>
<!-- Node1 -->
<g id="Node000001" class="node">
<title>Node1</title>
<g id="a_Node000001"><a xlink:title=" ">
<polygon fill="#999999" stroke="#666666" points="55.5,-19 15.5,-19 15.5,0 55.5,0 55.5,-19"/>
<text text-anchor="middle" x="35.5" y="-7" font-family="Helvetica,sans-Serif" font-size="10.00">cp2k</text>
</a>
</g>
</g>
<!-- Node2 -->
<g id="Node000002" class="node">
<title>Node2</title>
<g id="a_Node000002"><a xlink:href="../../df/d6b/structthermostat.html" target="_top" xlink:title=" ">
<polygon fill="white" stroke="#666666" points="71,-86.5 0,-86.5 0,-67.5 71,-67.5 71,-86.5"/>
<text text-anchor="middle" x="35.5" y="-74.5" font-family="Helvetica,sans-Serif" font-size="10.00">thermostat</text>
</a>
</g>
</g>
<!-- Node2&#45;&gt;Node1 -->
<g id="edge1_Node000001_Node000002" class="edge">
<title>Node2&#45;&gt;Node1</title>
<g id="a_edge1_Node000001_Node000002"><a xlink:title=" ">
<path fill="none" stroke="#9a32cd" stroke-dasharray="5,2" d="M35.5,-57.18C35.5,-44.71 35.5,-28.92 35.5,-19.27"/>
<polygon fill="#9a32cd" stroke="#9a32cd" points="32,-57.44 35.5,-67.44 39,-57.44 32,-57.44"/>
</a>
</g>
<text text-anchor="middle" x="77" y="-40" font-family="Helvetica,sans-Serif" font-size="10.00" fill="grey"> ions_thermostat</text>
</g>
<!-- Node2&#45;&gt;Node2 -->
<g id="edge2_Node000002_Node000002" class="edge">
<title>Node2&#45;&gt;Node2</title>
<g id="a_edge2_Node000002_Node000002"><a xlink:title=" ">
<path fill="none" stroke="#9a32cd" stroke-dasharray="5,2" d="M81.28,-82.26C85.99,-81.22 89,-79.47 89,-77 89,-73.05 81.29,-70.93 71.25,-70.66"/>
<polygon fill="#9a32cd" stroke="#9a32cd" points="80.82,-78.79 71.25,-83.34 81.57,-85.74 80.82,-78.79"/>
</a>
</g>
<text text-anchor="middle" x="101.5" y="-80" font-family="Helvetica,sans-Serif" font-size="10.00" fill="grey"> next</text>
<text text-anchor="middle" x="101.5" y="-69" font-family="Helvetica,sans-Serif" font-size="10.00" fill="grey">prev</text>
</g>
</g>
</svg>
