<?xml version="1.0" encoding="UTF-8" standalone="no"?>
<!DOCTYPE svg PUBLIC "-//W3C//DTD SVG 1.1//EN"
 "http://www.w3.org/Graphics/SVG/1.1/DTD/svg11.dtd">
<!-- Generated by graphviz version 9.0.0 (20230911.1827)
 -->
<!-- Title: curve/curve.c Pages: 1 -->
<!--zoomable 252 -->

<svg id="main" version="1.1" xmlns="http://www.w3.org/2000/svg" xmlns:xlink="http://www.w3.org/1999/xlink" xml:space="preserve" onload="init(evt)">
<style type="text/css"><![CDATA[
.node, .edge {opacity: 0.7;}
.node.selected, .edge.selected {opacity: 1;}
.edge:hover path { stroke: red; }
.edge:hover polygon { stroke: red; fill: red; }
]]></style>

<defs>
  <circle id="rim" cx="0" cy="0" r="7"/>
  <circle id="rim2" cx="0" cy="0" r="3.5"/>
  <g id="zoomPlus">
    <use xlink:href="#rim" fill="#404040"><set attributeName="fill" to="#808080" begin="zoomplus.mouseover" end="zoomplus.mouseout"/></use>
    <path d="M-4,0h8M0,-4v8" fill="none" stroke="white" stroke-width="1.5" pointer-events="none"/>
  </g>
  <g id="zoomMin">
    <use xlink:href="#rim" fill="#404040"><set attributeName="fill" to="#808080" begin="zoomminus.mouseover" end="zoomminus.mouseout"/></use>
    <path d="M-4,0h8" fill="none" stroke="white" stroke-width="1.5" pointer-events="none"/>
  </g>
  <g id="arrowUp" transform="translate(30 24)">
    <use xlink:href="#rim"/>
    <path pointer-events="none" fill="none" stroke="white" stroke-width="1.5" d="M0,-3.0v7 M-2.5,-0.5L0,-3.0L2.5,-0.5"/>
  </g>
  <g id="arrowRight" transform="rotate(90) translate(36 -43)">
    <use xlink:href="#rim"/>
    <path pointer-events="none" fill="none" stroke="white" stroke-width="1.5" d="M0,-3.0v7 M-2.5,-0.5L0,-3.0L2.5,-0.5"/>
  </g>
  <g id="arrowDown" transform="rotate(180) translate(-30 -48)">
    <use xlink:href="#rim"/>
    <path pointer-events="none" fill="none" stroke="white" stroke-width="1.5" d="M0,-3.0v7 M-2.5,-0.5L0,-3.0L2.5,-0.5"/>
  </g>
  <g id="arrowLeft" transform="rotate(270) translate(-36 17)">
    <use xlink:href="#rim"/>
    <path pointer-events="none" fill="none" stroke="white" stroke-width="1.5" d="M0,-3.0v7 M-2.5,-0.5L0,-3.0L2.5,-0.5"/>
  </g>
  <g id="resetDef">
    <use xlink:href="#rim2" fill="#404040"><set attributeName="fill" to="#808080" begin="reset.mouseover" end="reset.mouseout"/></use>
  </g>
</defs>
<script type="application/ecmascript">
var viewWidth = 1618;
var viewHeight = 252;
var sectionId = 'dynsection-0';
</script>
<script type="application/ecmascript" xlink:href="../../svg.min.js"/>
<svg id="graph" class="graph">
<g id="viewport">
<title>curve/curve.c</title>
<!-- Node1 -->
<g id="Node000001" class="node">
<title>Node1</title>
<g id="a_Node000001"><a xlink:title="Functions to manage curves.">
<polygon fill="#999999" stroke="#666666" points="403.75,-244 328.5,-244 328.5,-224 403.75,-224 403.75,-244"/>
<text text-anchor="middle" x="366.12" y="-230.5" font-family="Helvetica,sans-Serif" font-size="10.00">curve/curve.c</text>
</a>
</g>
</g>
<!-- Node2 -->
<g id="Node000002" class="node">
<title>Node2</title>
<g id="a_Node000002"><a xlink:title=" ">
<polygon fill="#e0e0e0" stroke="#999999" points="54.25,-76 0,-76 0,-56 54.25,-56 54.25,-76"/>
<text text-anchor="middle" x="27.12" y="-62.5" font-family="Helvetica,sans-Serif" font-size="10.00">gtk/gtk.h</text>
</a>
</g>
</g>
<!-- Node1&#45;&gt;Node2 -->
<g id="edge1_Node000001_Node000002" class="edge">
<title>Node1&#45;&gt;Node2</title>
<g id="a_edge1_Node000001_Node000002"><a xlink:title=" ">
<path fill="none" stroke="#63b8ff" d="M329.54,-223.52C301.22,-215.6 261.36,-203.18 228.12,-188 159.72,-156.75 85.43,-107.63 49.33,-82.68"/>
<polygon fill="#63b8ff" stroke="#63b8ff" points="51.64,-80.03 41.43,-77.18 47.64,-85.77 51.64,-80.03"/>
</a>
</g>
</g>
<!-- Node3 -->
<g id="Node000003" class="node">
<title>Node3</title>
<g id="a_Node000003"><a xlink:title=" ">
<polygon fill="#e0e0e0" stroke="#999999" points="120.25,-76 72,-76 72,-56 120.25,-56 120.25,-76"/>
<text text-anchor="middle" x="96.12" y="-62.5" font-family="Helvetica,sans-Serif" font-size="10.00">string.h</text>
</a>
</g>
</g>
<!-- Node1&#45;&gt;Node3 -->
<g id="edge2_Node000001_Node000003" class="edge">
<title>Node1&#45;&gt;Node3</title>
<g id="a_edge2_Node000001_Node000003"><a xlink:title=" ">
<path fill="none" stroke="#63b8ff" d="M340.15,-223.61C318.63,-215.4 287.58,-202.54 262.12,-188 205.96,-155.91 146.06,-108.55 115.9,-83.67"/>
<polygon fill="#63b8ff" stroke="#63b8ff" points="118.29,-81.1 108.36,-77.4 113.81,-86.49 118.29,-81.1"/>
</a>
</g>
</g>
<!-- Node4 -->
<g id="Node000004" class="node">
<title>Node4</title>
<g id="a_Node000004"><a xlink:title=" ">
<polygon fill="#e0e0e0" stroke="#999999" points="185.88,-76 138.38,-76 138.38,-56 185.88,-56 185.88,-76"/>
<text text-anchor="middle" x="162.12" y="-62.5" font-family="Helvetica,sans-Serif" font-size="10.00">stdlib.h</text>
</a>
</g>
</g>
<!-- Node1&#45;&gt;Node4 -->
<g id="edge3_Node000001_Node000004" class="edge">
<title>Node1&#45;&gt;Node4</title>
<g id="a_edge3_Node000001_Node000004"><a xlink:title=" ">
<path fill="none" stroke="#63b8ff" d="M347.59,-223.53C331.73,-215.09 308.61,-201.94 290.12,-188 246.6,-155.19 201.64,-109.42 178.34,-84.63"/>
<polygon fill="#63b8ff" stroke="#63b8ff" points="180.92,-82.27 171.55,-77.34 175.8,-87.04 180.92,-82.27"/>
</a>
</g>
</g>
<!-- Node5 -->
<g id="Node000005" class="node">
<title>Node5</title>
<g id="a_Node000005"><a xlink:title=" ">
<polygon fill="#e0e0e0" stroke="#999999" points="781.12,-20 735.12,-20 735.12,0 781.12,0 781.12,-20"/>
<text text-anchor="middle" x="758.12" y="-6.5" font-family="Helvetica,sans-Serif" font-size="10.00">math.h</text>
</a>
</g>
</g>
<!-- Node1&#45;&gt;Node5 -->
<g id="edge4_Node000001_Node000005" class="edge">
<title>Node1&#45;&gt;Node5</title>
<g id="a_edge4_Node000001_Node000005"><a xlink:title=" ">
<path fill="none" stroke="#63b8ff" d="M404.09,-231.12C603.45,-220.87 1523.37,-168.77 1605.12,-76 1611,-69.33 1611.24,-62.45 1605.12,-56 1576.7,-26.03 947.28,-14.02 792.35,-11.52"/>
<polygon fill="#63b8ff" stroke="#63b8ff" points="792.79,-8.02 782.74,-11.36 792.68,-15.02 792.79,-8.02"/>
</a>
</g>
</g>
<!-- Node6 -->
<g id="Node000006" class="node">
<title>Node6</title>
<g id="a_Node000006"><a xlink:href="../../d2/d49/global_8h.html" target="_top" xlink:title="Global variable declarations &#160;&#160;Global convenience function declarations &#160;&#160;Global data structure defin...">
<polygon fill="white" stroke="#666666" points="656,-132 606.25,-132 606.25,-112 656,-112 656,-132"/>
<text text-anchor="middle" x="631.12" y="-118.5" font-family="Helvetica,sans-Serif" font-size="10.00">global.h</text>
</a>
</g>
</g>
<!-- Node1&#45;&gt;Node6 -->
<g id="edge5_Node000001_Node000006" class="edge">
<title>Node1&#45;&gt;Node6</title>
<g id="a_edge5_Node000001_Node000006"><a xlink:title=" ">
<path fill="none" stroke="#63b8ff" d="M343.45,-223.64C317.12,-211.48 279.53,-189.27 298.12,-168 336.33,-124.29 516.41,-121.34 594.67,-122.2"/>
<polygon fill="#63b8ff" stroke="#63b8ff" points="594.32,-125.69 604.37,-122.33 594.42,-118.7 594.32,-125.69"/>
</a>
</g>
</g>
<!-- Node25 -->
<g id="Node000025" class="node">
<title>Node25</title>
<g id="a_Node000025"><a xlink:href="../../d4/da9/interface_8h.html" target="_top" xlink:title="Messaging function declarations.">
<polygon fill="white" stroke="#666666" points="433,-188 371.25,-188 371.25,-168 433,-168 433,-188"/>
<text text-anchor="middle" x="402.12" y="-174.5" font-family="Helvetica,sans-Serif" font-size="10.00">interface.h</text>
</a>
</g>
</g>
<!-- Node1&#45;&gt;Node25 -->
<g id="edge30_Node000001_Node000025" class="edge">
<title>Node1&#45;&gt;Node25</title>
<g id="a_edge30_Node000001_Node000025"><a xlink:title=" ">
<path fill="none" stroke="#63b8ff" d="M372.4,-223.59C377.14,-216.47 383.82,-206.45 389.65,-197.72"/>
<polygon fill="#63b8ff" stroke="#63b8ff" points="392.45,-199.82 395.09,-189.56 386.63,-195.94 392.45,-199.82"/>
</a>
</g>
</g>
<!-- Node26 -->
<g id="Node000026" class="node">
<title>Node26</title>
<g id="a_Node000026"><a xlink:href="../../dd/d49/callbacks_8h.html" target="_top" xlink:title="Callback declarations for main window.">
<polygon fill="white" stroke="#666666" points="516.88,-188 451.38,-188 451.38,-168 516.88,-168 516.88,-188"/>
<text text-anchor="middle" x="484.12" y="-174.5" font-family="Helvetica,sans-Serif" font-size="10.00">callbacks.h</text>
</a>
</g>
</g>
<!-- Node1&#45;&gt;Node26 -->
<g id="edge31_Node000001_Node000026" class="edge">
<title>Node1&#45;&gt;Node26</title>
<g id="a_edge31_Node000001_Node000026"><a xlink:title=" ">
<path fill="none" stroke="#63b8ff" d="M386.68,-223.59C405.01,-215.21 432.11,-202.8 453.08,-193.21"/>
<polygon fill="#63b8ff" stroke="#63b8ff" points="454.4,-196.45 462.03,-189.11 451.48,-190.09 454.4,-196.45"/>
</a>
</g>
</g>
<!-- Node27 -->
<g id="Node000027" class="node">
<title>Node27</title>
<g id="a_Node000027"><a xlink:href="../../dc/d8d/project_8h.html" target="_top" xlink:title="Function declarations for reading atomes project file &#160;&#160;Function declarations for saving atomes proje...">
<polygon fill="white" stroke="#666666" points="588.88,-188 535.38,-188 535.38,-168 588.88,-168 588.88,-188"/>
<text text-anchor="middle" x="562.12" y="-174.5" font-family="Helvetica,sans-Serif" font-size="10.00">project.h</text>
</a>
</g>
</g>
<!-- Node1&#45;&gt;Node27 -->
<g id="edge32_Node000001_Node000027" class="edge">
<title>Node1&#45;&gt;Node27</title>
<g id="a_edge32_Node000001_Node000027"><a xlink:title=" ">
<path fill="none" stroke="#63b8ff" d="M400.27,-223.59C434.81,-214.08 488.09,-199.4 523.99,-189.51"/>
<polygon fill="#63b8ff" stroke="#63b8ff" points="524.82,-192.91 533.54,-186.88 522.96,-186.16 524.82,-192.91"/>
</a>
</g>
</g>
<!-- Node28 -->
<g id="Node000028" class="node">
<title>Node28</title>
<g id="a_Node000028"><a xlink:href="../../d7/d21/cedit_8h.html" target="_top" xlink:title="Variable declarations for the curve layout edition window.">
<polygon fill="white" stroke="#666666" points="352.75,-188 307.5,-188 307.5,-168 352.75,-168 352.75,-188"/>
<text text-anchor="middle" x="330.12" y="-174.5" font-family="Helvetica,sans-Serif" font-size="10.00">cedit.h</text>
</a>
</g>
</g>
<!-- Node1&#45;&gt;Node28 -->
<g id="edge33_Node000001_Node000028" class="edge">
<title>Node1&#45;&gt;Node28</title>
<g id="a_edge33_Node000001_Node000028"><a xlink:title=" ">
<path fill="none" stroke="#63b8ff" d="M359.85,-223.59C355.11,-216.47 348.43,-206.45 342.6,-197.72"/>
<polygon fill="#63b8ff" stroke="#63b8ff" points="345.62,-195.94 337.16,-189.56 339.8,-199.82 345.62,-195.94"/>
</a>
</g>
</g>
<!-- Node29 -->
<g id="Node000029" class="node">
<title>Node29</title>
<g id="a_Node000029"><a xlink:href="../../df/de9/curve_8h.html" target="_top" xlink:title="Variable declarations for the curve widget &#160;&#160;Functions for interactions with the curve widget.">
<polygon fill="white" stroke="#666666" points="655.25,-188 607,-188 607,-168 655.25,-168 655.25,-188"/>
<text text-anchor="middle" x="631.12" y="-174.5" font-family="Helvetica,sans-Serif" font-size="10.00">curve.h</text>
</a>
</g>
</g>
<!-- Node1&#45;&gt;Node29 -->
<g id="edge35_Node000001_Node000029" class="edge">
<title>Node1&#45;&gt;Node29</title>
<g id="a_edge35_Node000001_Node000029"><a xlink:title=" ">
<path fill="none" stroke="#63b8ff" d="M404.08,-226.54C448.02,-218.86 522.77,-205.19 595.89,-188.39"/>
<polygon fill="#63b8ff" stroke="#63b8ff" points="596.24,-191.9 605.19,-186.23 594.66,-185.08 596.24,-191.9"/>
</a>
</g>
</g>
<!-- Node6&#45;&gt;Node2 -->
<g id="edge16_Node000006_Node000002" class="edge">
<title>Node6&#45;&gt;Node2</title>
<g id="a_edge16_Node000006_Node000002"><a xlink:title=" ">
<path fill="none" stroke="#63b8ff" d="M605.75,-120.49C526.96,-118.58 279.48,-110.24 65.67,-76.15"/>
<polygon fill="#63b8ff" stroke="#63b8ff" points="66.47,-72.74 56.04,-74.6 65.35,-79.65 66.47,-72.74"/>
</a>
</g>
</g>
<!-- Node6&#45;&gt;Node3 -->
<g id="edge10_Node000006_Node000003" class="edge">
<title>Node6&#45;&gt;Node3</title>
<g id="a_edge10_Node000006_Node000003"><a xlink:title=" ">
<path fill="none" stroke="#63b8ff" d="M605.84,-120.31C533.37,-118.01 318.6,-108.87 131.66,-76.15"/>
<polygon fill="#63b8ff" stroke="#63b8ff" points="132.47,-72.74 122.01,-74.44 131.24,-79.64 132.47,-72.74"/>
</a>
</g>
</g>
<!-- Node6&#45;&gt;Node4 -->
<g id="edge12_Node000006_Node000004" class="edge">
<title>Node6&#45;&gt;Node4</title>
<g id="a_edge12_Node000006_Node000004"><a xlink:title=" ">
<path fill="none" stroke="#63b8ff" d="M605.85,-119.84C540.07,-116.51 358.02,-105.35 197.22,-76.09"/>
<polygon fill="#63b8ff" stroke="#63b8ff" points="198.13,-72.7 187.66,-74.32 196.85,-79.58 198.13,-72.7"/>
</a>
</g>
</g>
<!-- Node6&#45;&gt;Node5 -->
<g id="edge15_Node000006_Node000005" class="edge">
<title>Node6&#45;&gt;Node5</title>
<g id="a_edge15_Node000006_Node000005"><a xlink:title=" ">
<path fill="none" stroke="#63b8ff" d="M656.15,-116.98C680.68,-111.74 717.45,-100.21 739.12,-76 750.05,-63.79 754.71,-45.62 756.69,-31.59"/>
<polygon fill="#63b8ff" stroke="#63b8ff" points="760.17,-31.97 757.7,-21.66 753.21,-31.26 760.17,-31.97"/>
</a>
</g>
</g>
<!-- Node7 -->
<g id="Node000007" class="node">
<title>Node7</title>
<g id="a_Node000007"><a xlink:title=" ">
<polygon fill="#e0e0e0" stroke="#999999" points="392.75,-76 353.5,-76 353.5,-56 392.75,-56 392.75,-76"/>
<text text-anchor="middle" x="373.12" y="-62.5" font-family="Helvetica,sans-Serif" font-size="10.00">glib.h</text>
</a>
</g>
</g>
<!-- Node6&#45;&gt;Node7 -->
<g id="edge6_Node000006_Node000007" class="edge">
<title>Node6&#45;&gt;Node7</title>
<g id="a_edge6_Node000006_Node000007"><a xlink:title=" ">
<path fill="none" stroke="#63b8ff" d="M606.06,-117.09C565.48,-110.55 482.69,-96.33 404.26,-76.6"/>
<polygon fill="#63b8ff" stroke="#63b8ff" points="405.25,-73.24 394.7,-74.15 403.52,-80.02 405.25,-73.24"/>
</a>
</g>
</g>
<!-- Node8 -->
<g id="Node000008" class="node">
<title>Node8</title>
<g id="a_Node000008"><a xlink:title=" ">
<polygon fill="#e0e0e0" stroke="#999999" points="475.88,-76 410.38,-76 410.38,-56 475.88,-56 475.88,-76"/>
<text text-anchor="middle" x="443.12" y="-62.5" font-family="Helvetica,sans-Serif" font-size="10.00">glib/gi18n.h</text>
</a>
</g>
</g>
<!-- Node6&#45;&gt;Node8 -->
<g id="edge7_Node000006_Node000008" class="edge">
<title>Node6&#45;&gt;Node8</title>
<g id="a_edge7_Node000006_Node000008"><a xlink:title=" ">
<path fill="none" stroke="#63b8ff" d="M605.77,-113.72C575.34,-104.98 523.81,-90.18 486.91,-79.58"/>
<polygon fill="#63b8ff" stroke="#63b8ff" points="487.99,-76.25 477.42,-76.85 486.06,-82.97 487.99,-76.25"/>
</a>
</g>
</g>
<!-- Node9 -->
<g id="Node000009" class="node">
<title>Node9</title>
<g id="a_Node000009"><a xlink:title=" ">
<polygon fill="#e0e0e0" stroke="#999999" points="544,-76 494.25,-76 494.25,-56 544,-56 544,-76"/>
<text text-anchor="middle" x="519.12" y="-62.5" font-family="Helvetica,sans-Serif" font-size="10.00">locale.h</text>
</a>
</g>
</g>
<!-- Node6&#45;&gt;Node9 -->
<g id="edge8_Node000006_Node000009" class="edge">
<title>Node6&#45;&gt;Node9</title>
<g id="a_edge8_Node000006_Node000009"><a xlink:title=" ">
<path fill="none" stroke="#63b8ff" d="M611.62,-111.59C594.38,-103.28 568.97,-91.03 549.14,-81.47"/>
<polygon fill="#63b8ff" stroke="#63b8ff" points="550.68,-78.33 540.15,-77.14 547.64,-84.63 550.68,-78.33"/>
</a>
</g>
</g>
<!-- Node10 -->
<g id="Node000010" class="node">
<title>Node10</title>
<g id="a_Node000010"><a xlink:title=" ">
<polygon fill="#e0e0e0" stroke="#999999" points="730.38,-76 679.88,-76 679.88,-56 730.38,-56 730.38,-76"/>
<text text-anchor="middle" x="705.12" y="-62.5" font-family="Helvetica,sans-Serif" font-size="10.00">unistd.h</text>
</a>
</g>
</g>
<!-- Node6&#45;&gt;Node10 -->
<g id="edge9_Node000006_Node000010" class="edge">
<title>Node6&#45;&gt;Node10</title>
<g id="a_edge9_Node000006_Node000010"><a xlink:title=" ">
<path fill="none" stroke="#63b8ff" d="M644.01,-111.59C654.84,-103.7 670.54,-92.24 683.31,-82.92"/>
<polygon fill="#63b8ff" stroke="#63b8ff" points="685.15,-85.91 691.16,-77.19 681.02,-80.26 685.15,-85.91"/>
</a>
</g>
</g>
<!-- Node11 -->
<g id="Node000011" class="node">
<title>Node11</title>
<g id="a_Node000011"><a xlink:title=" ">
<polygon fill="#e0e0e0" stroke="#999999" points="623.75,-20 578.5,-20 578.5,0 623.75,0 623.75,-20"/>
<text text-anchor="middle" x="601.12" y="-6.5" font-family="Helvetica,sans-Serif" font-size="10.00">stdio.h</text>
</a>
</g>
</g>
<!-- Node6&#45;&gt;Node11 -->
<g id="edge11_Node000006_Node000011" class="edge">
<title>Node6&#45;&gt;Node11</title>
<g id="a_edge11_Node000006_Node000011"><a xlink:title=" ">
<path fill="none" stroke="#63b8ff" d="M619.1,-111.78C609.47,-103.59 596.7,-90.66 591.12,-76 585.6,-61.46 588.79,-43.98 592.98,-30.81"/>
<polygon fill="#63b8ff" stroke="#63b8ff" points="596.22,-32.15 596.37,-21.56 589.65,-29.74 596.22,-32.15"/>
</a>
</g>
</g>
<!-- Node12 -->
<g id="Node000012" class="node">
<title>Node12</title>
<g id="a_Node000012"><a xlink:title=" ">
<polygon fill="#e0e0e0" stroke="#999999" points="853.62,-76 786.62,-76 786.62,-56 853.62,-56 853.62,-76"/>
<text text-anchor="middle" x="820.12" y="-62.5" font-family="Helvetica,sans-Serif" font-size="10.00">sys/types.h</text>
</a>
</g>
</g>
<!-- Node6&#45;&gt;Node12 -->
<g id="edge13_Node000006_Node000012" class="edge">
<title>Node6&#45;&gt;Node12</title>
<g id="a_edge13_Node000006_Node000012"><a xlink:title=" ">
<path fill="none" stroke="#63b8ff" d="M656.22,-113.83C686.71,-105.12 738.67,-90.27 775.92,-79.63"/>
<polygon fill="#63b8ff" stroke="#63b8ff" points="776.86,-83 785.51,-76.89 774.93,-76.27 776.86,-83"/>
</a>
</g>
</g>
<!-- Node13 -->
<g id="Node000013" class="node">
<title>Node13</title>
<g id="a_Node000013"><a xlink:title=" ">
<polygon fill="#e0e0e0" stroke="#999999" points="930.88,-76 871.38,-76 871.38,-56 930.88,-56 930.88,-76"/>
<text text-anchor="middle" x="901.12" y="-62.5" font-family="Helvetica,sans-Serif" font-size="10.00">sys/stat.h</text>
</a>
</g>
</g>
<!-- Node6&#45;&gt;Node13 -->
<g id="edge14_Node000006_Node000013" class="edge">
<title>Node6&#45;&gt;Node13</title>
<g id="a_edge14_Node000006_Node000013"><a xlink:title=" ">
<path fill="none" stroke="#63b8ff" d="M656.26,-116.47C696.99,-109.07 780.2,-93.62 860.04,-76.6"/>
<polygon fill="#63b8ff" stroke="#63b8ff" points="860.76,-80.03 869.8,-74.51 859.29,-73.18 860.76,-80.03"/>
</a>
</g>
</g>
<!-- Node14 -->
<g id="Node000014" class="node">
<title>Node14</title>
<g id="a_Node000014"><a xlink:title=" ">
<polygon fill="#e0e0e0" stroke="#999999" points="1008.88,-76 949.38,-76 949.38,-56 1008.88,-56 1008.88,-76"/>
<text text-anchor="middle" x="979.12" y="-62.5" font-family="Helvetica,sans-Serif" font-size="10.00">gtk/gtkx.h</text>
</a>
</g>
</g>
<!-- Node6&#45;&gt;Node14 -->
<g id="edge17_Node000006_Node000014" class="edge">
<title>Node6&#45;&gt;Node14</title>
<g id="a_edge17_Node000006_Node000014"><a xlink:title=" ">
<path fill="none" stroke="#63b8ff" d="M656.48,-118.02C707.7,-111.86 827.38,-96.69 937.93,-76.28"/>
<polygon fill="#63b8ff" stroke="#63b8ff" points="938.27,-79.78 947.46,-74.5 936.98,-72.9 938.27,-79.78"/>
</a>
</g>
</g>
<!-- Node15 -->
<g id="Node000015" class="node">
<title>Node15</title>
<g id="a_Node000015"><a xlink:title=" ">
<polygon fill="#e0e0e0" stroke="#999999" points="1085.5,-76 1026.75,-76 1026.75,-56 1085.5,-56 1085.5,-76"/>
<text text-anchor="middle" x="1056.12" y="-62.5" font-family="Helvetica,sans-Serif" font-size="10.00">gdk/gdk.h</text>
</a>
</g>
</g>
<!-- Node6&#45;&gt;Node15 -->
<g id="edge18_Node000006_Node000015" class="edge">
<title>Node6&#45;&gt;Node15</title>
<g id="a_edge18_Node000006_Node000015"><a xlink:title=" ">
<path fill="none" stroke="#63b8ff" d="M656.17,-119.11C716.41,-114.34 874.27,-100.57 1015.33,-76.32"/>
<polygon fill="#63b8ff" stroke="#63b8ff" points="1015.58,-79.83 1024.83,-74.67 1014.38,-72.94 1015.58,-79.83"/>
</a>
</g>
</g>
<!-- Node16 -->
<g id="Node000016" class="node">
<title>Node16</title>
<g id="a_Node000016"><a xlink:title=" ">
<polygon fill="#e0e0e0" stroke="#999999" points="1202.38,-76 1103.88,-76 1103.88,-56 1202.38,-56 1202.38,-76"/>
<text text-anchor="middle" x="1153.12" y="-62.5" font-family="Helvetica,sans-Serif" font-size="10.00">gdk/gdkkeysyms.h</text>
</a>
</g>
</g>
<!-- Node6&#45;&gt;Node16 -->
<g id="edge19_Node000006_Node000016" class="edge">
<title>Node6&#45;&gt;Node16</title>
<g id="a_edge19_Node000006_Node000016"><a xlink:title=" ">
<path fill="none" stroke="#63b8ff" d="M656.27,-119.04C724.47,-113.63 918.84,-97.51 1092.19,-76.17"/>
<polygon fill="#63b8ff" stroke="#63b8ff" points="1092.58,-79.65 1102.08,-74.94 1091.72,-72.7 1092.58,-79.65"/>
</a>
</g>
</g>
<!-- Node17 -->
<g id="Node000017" class="node">
<title>Node17</title>
<g id="a_Node000017"><a xlink:title=" ">
<polygon fill="#e0e0e0" stroke="#999999" points="1337.75,-76 1220.5,-76 1220.5,-56 1337.75,-56 1337.75,-76"/>
<text text-anchor="middle" x="1279.12" y="-62.5" font-family="Helvetica,sans-Serif" font-size="10.00">gdk&#45;pixbuf/gdk&#45;pixbuf.h</text>
</a>
</g>
</g>
<!-- Node6&#45;&gt;Node17 -->
<g id="edge20_Node000006_Node000017" class="edge">
<title>Node6&#45;&gt;Node17</title>
<g id="a_edge20_Node000006_Node000017"><a xlink:title=" ">
<path fill="none" stroke="#63b8ff" d="M656.33,-119.53C735.78,-114.81 988.35,-99 1209.03,-76.16"/>
<polygon fill="#63b8ff" stroke="#63b8ff" points="1209.09,-79.68 1218.67,-75.16 1208.36,-72.71 1209.09,-79.68"/>
</a>
</g>
</g>
<!-- Node18 -->
<g id="Node000018" class="node">
<title>Node18</title>
<g id="a_Node000018"><a xlink:title=" ">
<polygon fill="#e0e0e0" stroke="#999999" points="1446.62,-76 1355.62,-76 1355.62,-56 1446.62,-56 1446.62,-76"/>
<text text-anchor="middle" x="1401.12" y="-62.5" font-family="Helvetica,sans-Serif" font-size="10.00">pango/pangoft2.h</text>
</a>
</g>
</g>
<!-- Node6&#45;&gt;Node18 -->
<g id="edge21_Node000006_Node000018" class="edge">
<title>Node6&#45;&gt;Node18</title>
<g id="a_edge21_Node000006_Node000018"><a xlink:title=" ">
<path fill="none" stroke="#63b8ff" d="M656.26,-120.35C747.32,-117.81 1068.72,-107.14 1343.8,-76.28"/>
<polygon fill="#63b8ff" stroke="#63b8ff" points="1344.17,-79.76 1353.71,-75.15 1343.38,-72.8 1344.17,-79.76"/>
</a>
</g>
</g>
<!-- Node19 -->
<g id="Node000019" class="node">
<title>Node19</title>
<g id="a_Node000019"><a xlink:title=" ">
<polygon fill="#e0e0e0" stroke="#999999" points="1525.62,-76 1464.62,-76 1464.62,-56 1525.62,-56 1525.62,-76"/>
<text text-anchor="middle" x="1495.12" y="-62.5" font-family="Helvetica,sans-Serif" font-size="10.00">epoxy/gl.h</text>
</a>
</g>
</g>
<!-- Node6&#45;&gt;Node19 -->
<g id="edge22_Node000006_Node000019" class="edge">
<title>Node6&#45;&gt;Node19</title>
<g id="a_edge22_Node000006_Node000019"><a xlink:title=" ">
<path fill="none" stroke="#63b8ff" d="M656.25,-121.2C756.03,-121.68 1133.96,-120.37 1452.82,-76.25"/>
<polygon fill="#63b8ff" stroke="#63b8ff" points="1453.22,-79.72 1462.64,-74.87 1452.25,-72.79 1453.22,-79.72"/>
</a>
</g>
</g>
<!-- Node20 -->
<g id="Node000020" class="node">
<title>Node20</title>
<g id="a_Node000020"><a xlink:title=" ">
<polygon fill="#e0e0e0" stroke="#999999" points="1596.5,-76 1543.75,-76 1543.75,-56 1596.5,-56 1596.5,-76"/>
<text text-anchor="middle" x="1570.12" y="-62.5" font-family="Helvetica,sans-Serif" font-size="10.00">GL/glu.h</text>
</a>
</g>
</g>
<!-- Node6&#45;&gt;Node20 -->
<g id="edge23_Node000006_Node000020" class="edge">
<title>Node6&#45;&gt;Node20</title>
<g id="a_edge23_Node000006_Node000020"><a xlink:title=" ">
<path fill="none" stroke="#63b8ff" d="M656.09,-120.44C780.64,-117.54 1336.29,-103.38 1532.21,-76.09"/>
<polygon fill="#63b8ff" stroke="#63b8ff" points="1532.6,-79.57 1541.99,-74.66 1531.59,-72.64 1532.6,-79.57"/>
</a>
</g>
</g>
<!-- Node21 -->
<g id="Node000021" class="node">
<title>Node21</title>
<g id="a_Node000021"><a xlink:title=" ">
<polygon fill="#e0e0e0" stroke="#999999" points="270.25,-76 204,-76 204,-56 270.25,-56 270.25,-76"/>
<text text-anchor="middle" x="237.12" y="-62.5" font-family="Helvetica,sans-Serif" font-size="10.00">epoxy/glx.h</text>
</a>
</g>
</g>
<!-- Node6&#45;&gt;Node21 -->
<g id="edge24_Node000006_Node000021" class="edge">
<title>Node6&#45;&gt;Node21</title>
<g id="a_edge24_Node000006_Node000021"><a xlink:title=" ">
<path fill="none" stroke="#63b8ff" d="M605.91,-118.46C549.74,-112.65 409.82,-97.36 281.59,-76.11"/>
<polygon fill="#63b8ff" stroke="#63b8ff" points="282.34,-72.69 271.9,-74.49 281.19,-79.59 282.34,-72.69"/>
</a>
</g>
</g>
<!-- Node22 -->
<g id="Node000022" class="node">
<title>Node22</title>
<g id="a_Node000022"><a xlink:href="../../dc/db0/math__3d_8h.html" target="_top" xlink:title="Functions for OpenGL math.">
<polygon fill="white" stroke="#666666" points="662,-76 600.25,-76 600.25,-56 662,-56 662,-76"/>
<text text-anchor="middle" x="631.12" y="-62.5" font-family="Helvetica,sans-Serif" font-size="10.00">math_3d.h</text>
</a>
</g>
</g>
<!-- Node6&#45;&gt;Node22 -->
<g id="edge25_Node000006_Node000022" class="edge">
<title>Node6&#45;&gt;Node22</title>
<g id="a_edge25_Node000006_Node000022"><a xlink:title=" ">
<path fill="none" stroke="#63b8ff" d="M631.12,-111.59C631.12,-105.01 631.12,-95.96 631.12,-87.73"/>
<polygon fill="#63b8ff" stroke="#63b8ff" points="634.63,-87.81 631.13,-77.81 627.63,-87.81 634.63,-87.81"/>
</a>
</g>
</g>
<!-- Node23 -->
<g id="Node000023" class="node">
<title>Node23</title>
<g id="a_Node000023"><a xlink:href="../../da/d7e/glwin_8h.html" target="_top" xlink:title="Variable declarations related the OpenGL window &#160;&#160;Data structure declarations related the OpenGL wind...">
<polygon fill="white" stroke="#666666" points="335.5,-76 288.75,-76 288.75,-56 335.5,-56 335.5,-76"/>
<text text-anchor="middle" x="312.12" y="-62.5" font-family="Helvetica,sans-Serif" font-size="10.00">glwin.h</text>
</a>
</g>
</g>
<!-- Node6&#45;&gt;Node23 -->
<g id="edge28_Node000006_Node000023" class="edge">
<title>Node6&#45;&gt;Node23</title>
<g id="a_edge28_Node000006_Node000023"><a xlink:title=" ">
<path fill="none" stroke="#63b8ff" d="M605.99,-118.08C557.61,-112.24 448.03,-97.97 346.84,-76.39"/>
<polygon fill="#63b8ff" stroke="#63b8ff" points="347.81,-73.02 337.29,-74.32 346.32,-79.86 347.81,-73.02"/>
</a>
</g>
</g>
<!-- Node22&#45;&gt;Node5 -->
<g id="edge26_Node000022_Node000005" class="edge">
<title>Node22&#45;&gt;Node5</title>
<g id="a_edge26_Node000022_Node000005"><a xlink:title=" ">
<path fill="none" stroke="#63b8ff" d="M653.25,-55.59C673.16,-47.13 702.68,-34.58 725.33,-24.94"/>
<polygon fill="#63b8ff" stroke="#63b8ff" points="726.6,-28.21 734.44,-21.07 723.87,-21.76 726.6,-28.21"/>
</a>
</g>
</g>
<!-- Node22&#45;&gt;Node11 -->
<g id="edge27_Node000022_Node000011" class="edge">
<title>Node22&#45;&gt;Node11</title>
<g id="a_edge27_Node000022_Node000011"><a xlink:title=" ">
<path fill="none" stroke="#63b8ff" d="M625.9,-55.59C622.03,-48.63 616.62,-38.89 611.84,-30.29"/>
<polygon fill="#63b8ff" stroke="#63b8ff" points="614.94,-28.66 607.03,-21.62 608.82,-32.06 614.94,-28.66"/>
</a>
</g>
</g>
<!-- Node24 -->
<g id="Node000024" class="node">
<title>Node24</title>
<g id="a_Node000024"><a xlink:href="../../d5/d9e/ogl__shading_8h.html" target="_top" xlink:title="Variable declarations related to GLSL programs &#160;&#160;Data structure declarations related to GLSL programs...">
<polygon fill="white" stroke="#666666" points="350.12,-20 274.12,-20 274.12,0 350.12,0 350.12,-20"/>
<text text-anchor="middle" x="312.12" y="-6.5" font-family="Helvetica,sans-Serif" font-size="10.00">ogl_shading.h</text>
</a>
</g>
</g>
<!-- Node23&#45;&gt;Node24 -->
<g id="edge29_Node000023_Node000024" class="edge">
<title>Node23&#45;&gt;Node24</title>
<g id="a_edge29_Node000023_Node000024"><a xlink:title=" ">
<path fill="none" stroke="#63b8ff" d="M312.12,-55.59C312.12,-49.01 312.12,-39.96 312.12,-31.73"/>
<polygon fill="#63b8ff" stroke="#63b8ff" points="315.63,-31.81 312.13,-21.81 308.63,-31.81 315.63,-31.81"/>
</a>
</g>
</g>
<!-- Node28&#45;&gt;Node6 -->
<g id="edge34_Node000028_Node000006" class="edge">
<title>Node28&#45;&gt;Node6</title>
<g id="a_edge34_Node000028_Node000006"><a xlink:title=" ">
<path fill="none" stroke="#63b8ff" d="M353.12,-170.21C356.14,-169.41 359.2,-168.65 362.12,-168 444.65,-149.55 542.95,-134.94 594.85,-127.79"/>
<polygon fill="#63b8ff" stroke="#63b8ff" points="595.17,-131.28 604.6,-126.47 594.22,-124.35 595.17,-131.28"/>
</a>
</g>
</g>
<!-- Node29&#45;&gt;Node6 -->
<g id="edge36_Node000029_Node000006" class="edge">
<title>Node29&#45;&gt;Node6</title>
<g id="a_edge36_Node000029_Node000006"><a xlink:title=" ">
<path fill="none" stroke="#63b8ff" d="M631.12,-167.59C631.12,-161.01 631.12,-151.96 631.12,-143.73"/>
<polygon fill="#63b8ff" stroke="#63b8ff" points="634.63,-143.81 631.13,-133.81 627.63,-143.81 634.63,-143.81"/>
</a>
</g>
</g>
</g>
</svg>

<g id="navigator" transform="translate(0 0)" fill="#404254">
  <rect fill="#f2f5e9" fill-opacity="0.5" stroke="#606060" stroke-width=".5" x="0" y="0" width="60" height="60"/>
  <use id="zoomplus" xlink:href="#zoomPlus" x="17" y="9" onmousedown="handleZoom(evt,'in')"/>
  <use id="zoomminus" xlink:href="#zoomMin" x="42" y="9" onmousedown="handleZoom(evt,'out')"/>
  <use id="reset" xlink:href="#resetDef" x="30" y="36" onmousedown="handleReset()"/>
   <use id="arrowup" xlink:href="#arrowUp" x="0" y="0" onmousedown="handlePan(0,-1)"/>
  <use id="arrowright" xlink:href="#arrowRight" x="0" y="0" onmousedown="handlePan(1,0)"/>
  <use id="arrowdown" xlink:href="#arrowDown" x="0" y="0" onmousedown="handlePan(0,1)"/>
  <use id="arrowleft" xlink:href="#arrowLeft" x="0" y="0" onmousedown="handlePan(-1,0)"/>
</g>
<svg viewBox="0 0 15 15" width="100%" height="30px" preserveAspectRatio="xMaxYMin meet">
 <g id="arrow_out" transform="scale(0.3 0.3)">
  <a xlink:href="curve_8c__incl_org.svg" target="_base">
   <rect id="button" ry="5" rx="5" y="6" x="6" height="38" width="38"
        fill="#f2f5e9" fill-opacity="0.5" stroke="#606060" stroke-width="1.0"/>
   <path id="arrow"
     d="M 11.500037,31.436501 C 11.940474,20.09759 22.043105,11.32322 32.158766,21.979434 L 37.068811,17.246167 C 37.068811,17.246167 37.088388,32 37.088388,32 L 22.160133,31.978069 C 22.160133,31.978069 26.997745,27.140456 26.997745,27.140456 C 18.528582,18.264221 13.291696,25.230495 11.500037,31.436501 z"
     style="fill:#404040;"/>
  </a>
 </g>
</svg>

<style type='text/css'>
<![CDATA[
[data-mouse-over-selected='false'] { opacity: 0.7; }
[data-mouse-over-selected='true']  { opacity: 1.0; }
]]>
</style>
<script type="application/ecmascript"><![CDATA[
document.addEventListener('DOMContentLoaded', (event) => {
  highlightEdges();
  highlightAdjacentNodes();
});
]]></script>
</svg>
