<?xml version="1.0" encoding="UTF-8" standalone="no"?>
<!DOCTYPE svg PUBLIC "-//W3C//DTD SVG 1.1//EN"
 "http://www.w3.org/Graphics/SVG/1.1/DTD/svg11.dtd">
<!-- Generated by graphviz version 2.43.0 (0)
 -->
<!-- Title: opengl/win/color_box.h Pages: 1 -->
<!--zoomable 82 -->

<svg id="main" version="1.1" xmlns="http://www.w3.org/2000/svg" xmlns:xlink="http://www.w3.org/1999/xlink" xml:space="preserve" onload="init(evt)">
<style type="text/css"><![CDATA[
.node, .edge {opacity: 0.7;}
.node.selected, .edge.selected {opacity: 1;}
.edge:hover path { stroke: red; }
.edge:hover polygon { stroke: red; fill: red; }
]]></style>

<defs>
  <circle id="rim" cx="0" cy="0" r="7"/>
  <circle id="rim2" cx="0" cy="0" r="3.5"/>
  <g id="zoomPlus">
    <use xlink:href="#rim" fill="#404040"><set attributeName="fill" to="#808080" begin="zoomplus.mouseover" end="zoomplus.mouseout"/></use>
    <path d="M-4,0h8M0,-4v8" fill="none" stroke="white" stroke-width="1.5" pointer-events="none"/>
  </g>
  <g id="zoomMin">
    <use xlink:href="#rim" fill="#404040"><set attributeName="fill" to="#808080" begin="zoomminus.mouseover" end="zoomminus.mouseout"/></use>
    <path d="M-4,0h8" fill="none" stroke="white" stroke-width="1.5" pointer-events="none"/>
  </g>
  <g id="arrowUp" transform="translate(30 24)">
    <use xlink:href="#rim"/>
    <path pointer-events="none" fill="none" stroke="white" stroke-width="1.5" d="M0,-3.0v7 M-2.5,-0.5L0,-3.0L2.5,-0.5"/>
  </g>
  <g id="arrowRight" transform="rotate(90) translate(36 -43)">
    <use xlink:href="#rim"/>
    <path pointer-events="none" fill="none" stroke="white" stroke-width="1.5" d="M0,-3.0v7 M-2.5,-0.5L0,-3.0L2.5,-0.5"/>
  </g>
  <g id="arrowDown" transform="rotate(180) translate(-30 -48)">
    <use xlink:href="#rim"/>
    <path pointer-events="none" fill="none" stroke="white" stroke-width="1.5" d="M0,-3.0v7 M-2.5,-0.5L0,-3.0L2.5,-0.5"/>
  </g>
  <g id="arrowLeft" transform="rotate(270) translate(-36 17)">
    <use xlink:href="#rim"/>
    <path pointer-events="none" fill="none" stroke="white" stroke-width="1.5" d="M0,-3.0v7 M-2.5,-0.5L0,-3.0L2.5,-0.5"/>
  </g>
  <g id="resetDef">
    <use xlink:href="#rim2" fill="#404040"><set attributeName="fill" to="#808080" begin="reset.mouseover" end="reset.mouseout"/></use>
  </g>
</defs>
<script type="application/ecmascript">
var viewWidth = 2097;
var viewHeight = 82;
var sectionId = 'dynsection-0';
</script>
<script type="application/ecmascript" xlink:href="../../svg.min.js"/>
<svg id="graph" class="graph">
<g id="viewport">
<title>opengl/win/color_box.h</title>
<!-- Node1 -->
<g id="Node000001" class="node">
<title>Node1</title>
<g id="a_Node000001"><a xlink:title="Structure definitions for color management &#160;&#160;Function declarations for color management.">
<polygon fill="#999999" stroke="#666666" points="1116,-74 987,-74 987,-55 1116,-55 1116,-74"/>
<text text-anchor="middle" x="1051.5" y="-62" font-family="Helvetica,sans-Serif" font-size="10.00">opengl/win/color_box.h</text>
</a>
</g>
</g>
<!-- Node2 -->
<g id="Node000002" class="node">
<title>Node2</title>
<g id="a_Node000002"><a xlink:href="../../da/da8/d__poly_8c.html" target="_top" xlink:title="Functions to prepare the OpenGL rendering of coordination polyhedra.">
<polygon fill="white" stroke="#666666" points="119,-19 0,-19 0,0 119,0 119,-19"/>
<text text-anchor="middle" x="59.5" y="-7" font-family="Helvetica,sans-Serif" font-size="10.00">opengl/draw/d_poly.c</text>
</a>
</g>
</g>
<!-- Node1&#45;&gt;Node2 -->
<g id="edge1_Node000001_Node000002" class="edge">
<title>Node1&#45;&gt;Node2</title>
<g id="a_edge1_Node000001_Node000002"><a xlink:title=" ">
<path fill="none" stroke="#63b8ff" d="M976.94,-61.84C819.68,-57.9 442.59,-46.24 127.5,-19 124.77,-18.76 121.99,-18.5 119.18,-18.22"/>
<polygon fill="#63b8ff" stroke="#63b8ff" points="976.89,-65.34 986.97,-62.08 977.06,-58.34 976.89,-65.34"/>
</a>
</g>
</g>
<!-- Node3 -->
<g id="Node000003" class="node">
<title>Node3</title>
<g id="a_Node000003"><a xlink:href="../../df/d03/d__rings_8c.html" target="_top" xlink:title="Functions to prepare the OpenGL rendering of rings polyhedra.">
<polygon fill="white" stroke="#666666" points="260,-19 137,-19 137,0 260,0 260,-19"/>
<text text-anchor="middle" x="198.5" y="-7" font-family="Helvetica,sans-Serif" font-size="10.00">opengl/draw/d_rings.c</text>
</a>
</g>
</g>
<!-- Node1&#45;&gt;Node3 -->
<g id="edge2_Node000001_Node000003" class="edge">
<title>Node1&#45;&gt;Node3</title>
<g id="a_edge2_Node000001_Node000003"><a xlink:title=" ">
<path fill="none" stroke="#63b8ff" d="M976.63,-60.79C837.27,-55.41 528.68,-41.87 269.5,-19 266.41,-18.73 263.24,-18.43 260.05,-18.11"/>
<polygon fill="#63b8ff" stroke="#63b8ff" points="976.65,-64.3 986.78,-61.18 976.92,-57.3 976.65,-64.3"/>
</a>
</g>
</g>
<!-- Node4 -->
<g id="Node000004" class="node">
<title>Node4</title>
<g id="a_Node000004"><a xlink:href="../../dc/d16/color__box_8c.html" target="_top" xlink:title="Functions to create the color palettes for the menus of the OpenGL window &#160;&#160;Callbacks to set the colo...">
<polygon fill="white" stroke="#666666" points="406.5,-19 278.5,-19 278.5,0 406.5,0 406.5,-19"/>
<text text-anchor="middle" x="342.5" y="-7" font-family="Helvetica,sans-Serif" font-size="10.00">opengl/win/color_box.c</text>
</a>
</g>
</g>
<!-- Node1&#45;&gt;Node4 -->
<g id="edge3_Node000001_Node000004" class="edge">
<title>Node1&#45;&gt;Node4</title>
<g id="a_edge3_Node000001_Node000004"><a xlink:title=" ">
<path fill="none" stroke="#63b8ff" d="M976.78,-59.39C857.84,-52.6 618.16,-37.88 415.5,-19 412.58,-18.73 409.59,-18.44 406.58,-18.13"/>
<polygon fill="#63b8ff" stroke="#63b8ff" points="976.69,-62.89 986.87,-59.96 977.09,-55.9 976.69,-62.89"/>
</a>
</g>
</g>
<!-- Node5 -->
<g id="Node000005" class="node">
<title>Node5</title>
<g id="a_Node000005"><a xlink:href="../../d7/dc8/glwindow_8c.html" target="_top" xlink:title="Functions to create a project OpenGL window.">
<polygon fill="white" stroke="#666666" points="552,-19 425,-19 425,0 552,0 552,-19"/>
<text text-anchor="middle" x="488.5" y="-7" font-family="Helvetica,sans-Serif" font-size="10.00">opengl/win/glwindow.c</text>
</a>
</g>
</g>
<!-- Node1&#45;&gt;Node5 -->
<g id="edge4_Node000001_Node000005" class="edge">
<title>Node1&#45;&gt;Node5</title>
<g id="a_edge4_Node000001_Node000005"><a xlink:title=" ">
<path fill="none" stroke="#63b8ff" d="M976.49,-57.34C880.13,-49.28 707.73,-34.36 560.5,-19 557.75,-18.71 554.93,-18.41 552.09,-18.1"/>
<polygon fill="#63b8ff" stroke="#63b8ff" points="976.46,-60.85 986.71,-58.19 977.04,-53.87 976.46,-60.85"/>
</a>
</g>
</g>
<!-- Node6 -->
<g id="Node000006" class="node">
<title>Node6</title>
<g id="a_Node000006"><a xlink:href="../../da/d13/initchain_8c.html" target="_top" xlink:title="Functions collecting chain(s) data from Fortran90 &#160;&#160;Functions allocating chain(s) data from Fortran90...">
<polygon fill="white" stroke="#666666" points="693,-19 570,-19 570,0 693,0 693,-19"/>
<text text-anchor="middle" x="631.5" y="-7" font-family="Helvetica,sans-Serif" font-size="10.00">opengl/win/initchain.c</text>
</a>
</g>
</g>
<!-- Node1&#45;&gt;Node6 -->
<g id="edge5_Node000001_Node000006" class="edge">
<title>Node1&#45;&gt;Node6</title>
<g id="a_edge5_Node000001_Node000006"><a xlink:title=" ">
<path fill="none" stroke="#63b8ff" d="M976.69,-54.06C895.85,-43.86 768.53,-27.79 693.2,-18.29"/>
<polygon fill="#63b8ff" stroke="#63b8ff" points="976.44,-57.56 986.8,-55.33 977.31,-50.61 976.44,-57.56"/>
</a>
</g>
</g>
<!-- Node7 -->
<g id="Node000007" class="node">
<title>Node7</title>
<g id="a_Node000007"><a xlink:href="../../d6/d35/initcoord_8c.html" target="_top" xlink:title="Coordinations and polyhedra menus initialization &#160;&#160;Coordinations and polyhedra GTK3 menus and menu it...">
<polygon fill="white" stroke="#666666" points="835.5,-19 711.5,-19 711.5,0 835.5,0 835.5,-19"/>
<text text-anchor="middle" x="773.5" y="-7" font-family="Helvetica,sans-Serif" font-size="10.00">opengl/win/initcoord.c</text>
</a>
</g>
</g>
<!-- Node1&#45;&gt;Node7 -->
<g id="edge6_Node000001_Node000007" class="edge">
<title>Node1&#45;&gt;Node7</title>
<g id="a_edge6_Node000001_Node000007"><a xlink:title=" ">
<path fill="none" stroke="#63b8ff" d="M996.77,-53.07C944.65,-43.13 867.15,-28.35 818.52,-19.08"/>
<polygon fill="#63b8ff" stroke="#63b8ff" points="996.36,-56.55 1006.83,-54.98 997.67,-49.67 996.36,-56.55"/>
</a>
</g>
</g>
<!-- Node8 -->
<g id="Node000008" class="node">
<title>Node8</title>
<g id="a_Node000008"><a xlink:href="../../d2/def/initmol_8c.html" target="_top" xlink:title="Functions to retrieve fragments data from Fortran90 &#160;&#160;Functions to retrieve molecules data from Fortr...">
<polygon fill="white" stroke="#666666" points="969.5,-19 853.5,-19 853.5,0 969.5,0 969.5,-19"/>
<text text-anchor="middle" x="911.5" y="-7" font-family="Helvetica,sans-Serif" font-size="10.00">opengl/win/initmol.c</text>
</a>
</g>
</g>
<!-- Node1&#45;&gt;Node8 -->
<g id="edge7_Node000001_Node000008" class="edge">
<title>Node1&#45;&gt;Node8</title>
<g id="a_edge7_Node000001_Node000008"><a xlink:title=" ">
<path fill="none" stroke="#63b8ff" d="M1019.59,-51.42C993.62,-41.59 957.58,-27.95 934.4,-19.17"/>
<polygon fill="#63b8ff" stroke="#63b8ff" points="1018.42,-54.72 1029.01,-54.98 1020.89,-48.17 1018.42,-54.72"/>
</a>
</g>
</g>
<!-- Node9 -->
<g id="Node000009" class="node">
<title>Node9</title>
<g id="a_Node000009"><a xlink:href="../../db/db4/m__atoms_8c.html" target="_top" xlink:title="Functions to create the &#39;Model &#45;&gt; Atom(s)&#39; submenu.">
<polygon fill="white" stroke="#666666" points="1115,-19 988,-19 988,0 1115,0 1115,-19"/>
<text text-anchor="middle" x="1051.5" y="-7" font-family="Helvetica,sans-Serif" font-size="10.00">opengl/win/m_atoms.c</text>
</a>
</g>
</g>
<!-- Node1&#45;&gt;Node9 -->
<g id="edge8_Node000001_Node000009" class="edge">
<title>Node1&#45;&gt;Node9</title>
<g id="a_edge8_Node000001_Node000009"><a xlink:title=" ">
<path fill="none" stroke="#63b8ff" d="M1051.5,-44.66C1051.5,-35.93 1051.5,-25.99 1051.5,-19.09"/>
<polygon fill="#63b8ff" stroke="#63b8ff" points="1048,-44.75 1051.5,-54.75 1055,-44.75 1048,-44.75"/>
</a>
</g>
</g>
<!-- Node10 -->
<g id="Node000010" class="node">
<title>Node10</title>
<g id="a_Node000010"><a xlink:href="../../d8/db0/m__back_8c.html" target="_top" xlink:title="Function to create the background color menu item.">
<polygon fill="white" stroke="#666666" points="1252,-19 1133,-19 1133,0 1252,0 1252,-19"/>
<text text-anchor="middle" x="1192.5" y="-7" font-family="Helvetica,sans-Serif" font-size="10.00">opengl/win/m_back.c</text>
</a>
</g>
</g>
<!-- Node1&#45;&gt;Node10 -->
<g id="edge9_Node000001_Node000010" class="edge">
<title>Node1&#45;&gt;Node10</title>
<g id="a_edge9_Node000001_Node000010"><a xlink:title=" ">
<path fill="none" stroke="#63b8ff" d="M1083.64,-51.42C1109.79,-41.59 1146.09,-27.95 1169.43,-19.17"/>
<polygon fill="#63b8ff" stroke="#63b8ff" points="1082.28,-48.19 1074.15,-54.98 1084.75,-54.74 1082.28,-48.19"/>
</a>
</g>
</g>
<!-- Node11 -->
<g id="Node000011" class="node">
<title>Node11</title>
<g id="a_Node000011"><a xlink:href="../../d6/d35/m__box_8c.html" target="_top" xlink:title="Functions to create the &#39;Model &#45;&gt; Box&#39; submenu.">
<polygon fill="white" stroke="#666666" points="1384.5,-19 1270.5,-19 1270.5,0 1384.5,0 1384.5,-19"/>
<text text-anchor="middle" x="1327.5" y="-7" font-family="Helvetica,sans-Serif" font-size="10.00">opengl/win/m_box.c</text>
</a>
</g>
</g>
<!-- Node1&#45;&gt;Node11 -->
<g id="edge10_Node000001_Node000011" class="edge">
<title>Node1&#45;&gt;Node11</title>
<g id="a_edge10_Node000001_Node000011"><a xlink:title=" ">
<path fill="none" stroke="#63b8ff" d="M1105.84,-53.07C1157.58,-43.13 1234.53,-28.35 1282.81,-19.08"/>
<polygon fill="#63b8ff" stroke="#63b8ff" points="1105,-49.66 1095.84,-54.98 1106.32,-56.54 1105,-49.66"/>
</a>
</g>
</g>
<!-- Node12 -->
<g id="Node000012" class="node">
<title>Node12</title>
<g id="a_Node000012"><a xlink:href="../../d5/dbe/menu__bar_8c.html" target="_top" xlink:title="Functions to create the menu bar of the OpenGL window &#160;&#160;Functions to create the menu items for the me...">
<polygon fill="white" stroke="#666666" points="1532,-19 1403,-19 1403,0 1532,0 1532,-19"/>
<text text-anchor="middle" x="1467.5" y="-7" font-family="Helvetica,sans-Serif" font-size="10.00">opengl/win/menu_bar.c</text>
</a>
</g>
</g>
<!-- Node1&#45;&gt;Node12 -->
<g id="edge11_Node000001_Node000012" class="edge">
<title>Node1&#45;&gt;Node12</title>
<g id="a_edge11_Node000001_Node000012"><a xlink:title=" ">
<path fill="none" stroke="#63b8ff" d="M1126.39,-53.96C1205.22,-43.92 1328.04,-28.27 1402.81,-18.74"/>
<polygon fill="#63b8ff" stroke="#63b8ff" points="1125.52,-50.54 1116.04,-55.28 1126.41,-57.48 1125.52,-50.54"/>
</a>
</g>
</g>
<!-- Node13 -->
<g id="Node000013" class="node">
<title>Node13</title>
<g id="a_Node000013"><a xlink:href="../../d5/da4/popup_8c.html" target="_top" xlink:title="Functions to create the OpenGL window popup menus:">
<polygon fill="white" stroke="#666666" points="1661,-19 1550,-19 1550,0 1661,0 1661,-19"/>
<text text-anchor="middle" x="1605.5" y="-7" font-family="Helvetica,sans-Serif" font-size="10.00">opengl/win/popup.c</text>
</a>
</g>
</g>
<!-- Node1&#45;&gt;Node13 -->
<g id="edge12_Node000001_Node000013" class="edge">
<title>Node1&#45;&gt;Node13</title>
<g id="a_edge12_Node000001_Node000013"><a xlink:title=" ">
<path fill="none" stroke="#63b8ff" d="M1126.4,-57.67C1222.6,-49.96 1394.68,-35.41 1541.5,-19 1544.17,-18.7 1546.91,-18.38 1549.67,-18.05"/>
<polygon fill="#63b8ff" stroke="#63b8ff" points="1125.88,-54.2 1116.19,-58.48 1126.43,-61.18 1125.88,-54.2"/>
</a>
</g>
</g>
<!-- Node14 -->
<g id="Node000014" class="node">
<title>Node14</title>
<g id="a_Node000014"><a xlink:href="../../dd/d61/w__atoms_8c.html" target="_top" xlink:title="Functions to create the atom(s) / clone(s) advanced configuration window.">
<polygon fill="white" stroke="#666666" points="1804,-19 1679,-19 1679,0 1804,0 1804,-19"/>
<text text-anchor="middle" x="1741.5" y="-7" font-family="Helvetica,sans-Serif" font-size="10.00">opengl/win/w_atoms.c</text>
</a>
</g>
</g>
<!-- Node1&#45;&gt;Node14 -->
<g id="edge13_Node000001_Node000014" class="edge">
<title>Node1&#45;&gt;Node14</title>
<g id="a_edge13_Node000001_Node000014"><a xlink:title=" ">
<path fill="none" stroke="#63b8ff" d="M1126.42,-59.26C1242.93,-52.41 1474.51,-37.77 1670.5,-19 1673.22,-18.74 1675.99,-18.46 1678.8,-18.17"/>
<polygon fill="#63b8ff" stroke="#63b8ff" points="1125.97,-55.78 1116.19,-59.86 1126.38,-62.77 1125.97,-55.78"/>
</a>
</g>
</g>
<!-- Node15 -->
<g id="Node000015" class="node">
<title>Node15</title>
<g id="a_Node000015"><a xlink:href="../../d9/d11/w__bonds_8c.html" target="_top" xlink:title="Functions to create the bond (legnth/radius) edition window(s)">
<polygon fill="white" stroke="#666666" points="1946.5,-19 1822.5,-19 1822.5,0 1946.5,0 1946.5,-19"/>
<text text-anchor="middle" x="1884.5" y="-7" font-family="Helvetica,sans-Serif" font-size="10.00">opengl/win/w_bonds.c</text>
</a>
</g>
</g>
<!-- Node1&#45;&gt;Node15 -->
<g id="edge14_Node000001_Node000015" class="edge">
<title>Node1&#45;&gt;Node15</title>
<g id="a_edge14_Node000001_Node000015"><a xlink:title=" ">
<path fill="none" stroke="#63b8ff" d="M1126.43,-60.64C1263.14,-55.08 1562.16,-41.36 1813.5,-19 1816.34,-18.75 1819.25,-18.47 1822.18,-18.18"/>
<polygon fill="#63b8ff" stroke="#63b8ff" points="1125.93,-57.15 1116.07,-61.06 1126.21,-64.15 1125.93,-57.15"/>
</a>
</g>
</g>
<!-- Node16 -->
<g id="Node000016" class="node">
<title>Node16</title>
<g id="a_Node000016"><a xlink:href="../../d2/d92/w__colors_8c.html" target="_top" xlink:title="Functions to create the color selection dialogs.">
<polygon fill="white" stroke="#666666" points="2088.5,-19 1964.5,-19 1964.5,0 2088.5,0 2088.5,-19"/>
<text text-anchor="middle" x="2026.5" y="-7" font-family="Helvetica,sans-Serif" font-size="10.00">opengl/win/w_colors.c</text>
</a>
</g>
</g>
<!-- Node1&#45;&gt;Node16 -->
<g id="edge15_Node000001_Node000016" class="edge">
<title>Node1&#45;&gt;Node16</title>
<g id="a_edge15_Node000001_Node000016"><a xlink:title=" ">
<path fill="none" stroke="#63b8ff" d="M1126.63,-61.58C1281.75,-57.22 1648.61,-44.89 1955.5,-19 1958.35,-18.76 1961.25,-18.49 1964.19,-18.21"/>
<polygon fill="#63b8ff" stroke="#63b8ff" points="1126.18,-58.09 1116.28,-61.87 1126.37,-65.09 1126.18,-58.09"/>
</a>
</g>
</g>
</g>
</svg>

<g id="navigator" transform="translate(0 0)" fill="#404254">
  <rect fill="#f2f5e9" fill-opacity="0.5" stroke="#606060" stroke-width=".5" x="0" y="0" width="60" height="60"/>
  <use id="zoomplus" xlink:href="#zoomPlus" x="17" y="9" onmousedown="handleZoom(evt,'in')"/>
  <use id="zoomminus" xlink:href="#zoomMin" x="42" y="9" onmousedown="handleZoom(evt,'out')"/>
  <use id="reset" xlink:href="#resetDef" x="30" y="36" onmousedown="handleReset()"/>
   <use id="arrowup" xlink:href="#arrowUp" x="0" y="0" onmousedown="handlePan(0,-1)"/>
  <use id="arrowright" xlink:href="#arrowRight" x="0" y="0" onmousedown="handlePan(1,0)"/>
  <use id="arrowdown" xlink:href="#arrowDown" x="0" y="0" onmousedown="handlePan(0,1)"/>
  <use id="arrowleft" xlink:href="#arrowLeft" x="0" y="0" onmousedown="handlePan(-1,0)"/>
</g>
<svg viewBox="0 0 15 15" width="100%" height="30px" preserveAspectRatio="xMaxYMin meet">
 <g id="arrow_out" transform="scale(0.3 0.3)">
  <a xlink:href="color__box_8h__dep__incl_org.svg" target="_base">
   <rect id="button" ry="5" rx="5" y="6" x="6" height="38" width="38"
        fill="#f2f5e9" fill-opacity="0.5" stroke="#606060" stroke-width="1.0"/>
   <path id="arrow"
     d="M 11.500037,31.436501 C 11.940474,20.09759 22.043105,11.32322 32.158766,21.979434 L 37.068811,17.246167 C 37.068811,17.246167 37.088388,32 37.088388,32 L 22.160133,31.978069 C 22.160133,31.978069 26.997745,27.140456 26.997745,27.140456 C 18.528582,18.264221 13.291696,25.230495 11.500037,31.436501 z"
     style="fill:#404040;"/>
  </a>
 </g>
</svg>

<style type='text/css'>
<![CDATA[
[data-mouse-over-selected='false'] { opacity: 0.7; }
[data-mouse-over-selected='true']  { opacity: 1.0; }
]]>
</style>
<script type="application/ecmascript"><![CDATA[
document.addEventListener('DOMContentLoaded', (event) => {
  highlightEdges();
  highlightAdjacentNodes();
});
]]></script>
</svg>
