<?xml version="1.0" encoding="UTF-8" standalone="no"?>
<!DOCTYPE svg PUBLIC "-//W3C//DTD SVG 1.1//EN"
 "http://www.w3.org/Graphics/SVG/1.1/DTD/svg11.dtd">
<!-- Generated by graphviz version 9.0.0 (20230911.1827)
 -->
<!-- Title: opengl/win/color_box.h Pages: 1 -->
<!--zoomable 84 -->

<svg id="main" version="1.1" xmlns="http://www.w3.org/2000/svg" xmlns:xlink="http://www.w3.org/1999/xlink" xml:space="preserve" onload="init(evt)">
<style type="text/css"><![CDATA[
.node, .edge {opacity: 0.7;}
.node.selected, .edge.selected {opacity: 1;}
.edge:hover path { stroke: red; }
.edge:hover polygon { stroke: red; fill: red; }
]]></style>

<defs>
  <circle id="rim" cx="0" cy="0" r="7"/>
  <circle id="rim2" cx="0" cy="0" r="3.5"/>
  <g id="zoomPlus">
    <use xlink:href="#rim" fill="#404040"><set attributeName="fill" to="#808080" begin="zoomplus.mouseover" end="zoomplus.mouseout"/></use>
    <path d="M-4,0h8M0,-4v8" fill="none" stroke="white" stroke-width="1.5" pointer-events="none"/>
  </g>
  <g id="zoomMin">
    <use xlink:href="#rim" fill="#404040"><set attributeName="fill" to="#808080" begin="zoomminus.mouseover" end="zoomminus.mouseout"/></use>
    <path d="M-4,0h8" fill="none" stroke="white" stroke-width="1.5" pointer-events="none"/>
  </g>
  <g id="arrowUp" transform="translate(30 24)">
    <use xlink:href="#rim"/>
    <path pointer-events="none" fill="none" stroke="white" stroke-width="1.5" d="M0,-3.0v7 M-2.5,-0.5L0,-3.0L2.5,-0.5"/>
  </g>
  <g id="arrowRight" transform="rotate(90) translate(36 -43)">
    <use xlink:href="#rim"/>
    <path pointer-events="none" fill="none" stroke="white" stroke-width="1.5" d="M0,-3.0v7 M-2.5,-0.5L0,-3.0L2.5,-0.5"/>
  </g>
  <g id="arrowDown" transform="rotate(180) translate(-30 -48)">
    <use xlink:href="#rim"/>
    <path pointer-events="none" fill="none" stroke="white" stroke-width="1.5" d="M0,-3.0v7 M-2.5,-0.5L0,-3.0L2.5,-0.5"/>
  </g>
  <g id="arrowLeft" transform="rotate(270) translate(-36 17)">
    <use xlink:href="#rim"/>
    <path pointer-events="none" fill="none" stroke="white" stroke-width="1.5" d="M0,-3.0v7 M-2.5,-0.5L0,-3.0L2.5,-0.5"/>
  </g>
  <g id="resetDef">
    <use xlink:href="#rim2" fill="#404040"><set attributeName="fill" to="#808080" begin="reset.mouseover" end="reset.mouseout"/></use>
  </g>
</defs>
<script type="application/ecmascript">
var viewWidth = 1912;
var viewHeight = 84;
var sectionId = 'dynsection-0';
</script>
<script type="application/ecmascript" xlink:href="../../svg.min.js"/>
<svg id="graph" class="graph">
<g id="viewport">
<title>opengl/win/color_box.h</title>
<!-- Node1 -->
<g id="Node000001" class="node">
<title>Node1</title>
<g id="a_Node000001"><a xlink:title="Structure definitions for color management &#160;&#160;Function declarations for color management.">
<polygon fill="#999999" stroke="#666666" points="1011.62,-76 895.88,-76 895.88,-56 1011.62,-56 1011.62,-76"/>
<text text-anchor="middle" x="953.75" y="-62.5" font-family="Helvetica,sans-Serif" font-size="10.00">opengl/win/color_box.h</text>
</a>
</g>
</g>
<!-- Node2 -->
<g id="Node000002" class="node">
<title>Node2</title>
<g id="a_Node000002"><a xlink:href="../../da/da8/d__poly_8c.html" target="_top" xlink:title="Functions to prepare the OpenGL rendering of coordination polyhedra.">
<polygon fill="white" stroke="#666666" points="107.5,-20 0,-20 0,0 107.5,0 107.5,-20"/>
<text text-anchor="middle" x="53.75" y="-6.5" font-family="Helvetica,sans-Serif" font-size="10.00">opengl/draw/d_poly.c</text>
</a>
</g>
</g>
<!-- Node1&#45;&gt;Node2 -->
<g id="edge1_Node000001_Node000002" class="edge">
<title>Node1&#45;&gt;Node2</title>
<g id="a_edge1_Node000001_Node000002"><a xlink:title=" ">
<path fill="none" stroke="#63b8ff" d="M884.2,-63.39C740.4,-59.6 400.01,-48.21 115.75,-20 113.15,-19.74 110.5,-19.45 107.82,-19.14"/>
<polygon fill="#63b8ff" stroke="#63b8ff" points="883.85,-66.89 893.94,-63.65 884.03,-59.89 883.85,-66.89"/>
</a>
</g>
</g>
<!-- Node3 -->
<g id="Node000003" class="node">
<title>Node3</title>
<g id="a_Node000003"><a xlink:href="../../df/d03/d__rings_8c.html" target="_top" xlink:title="Functions to prepare the OpenGL rendering of rings polyhedra.">
<polygon fill="white" stroke="#666666" points="236.38,-20 125.12,-20 125.12,0 236.38,0 236.38,-20"/>
<text text-anchor="middle" x="180.75" y="-6.5" font-family="Helvetica,sans-Serif" font-size="10.00">opengl/draw/d_rings.c</text>
</a>
</g>
</g>
<!-- Node1&#45;&gt;Node3 -->
<g id="edge2_Node000001_Node000003" class="edge">
<title>Node1&#45;&gt;Node3</title>
<g id="a_edge2_Node000001_Node000003"><a xlink:title=" ">
<path fill="none" stroke="#63b8ff" d="M884.37,-62.3C757.41,-56.98 479.26,-43.55 245.75,-20 242.8,-19.7 239.78,-19.37 236.74,-19.02"/>
<polygon fill="#63b8ff" stroke="#63b8ff" points="884.16,-65.79 894.3,-62.71 884.46,-58.8 884.16,-65.79"/>
</a>
</g>
</g>
<!-- Node4 -->
<g id="Node000004" class="node">
<title>Node4</title>
<g id="a_Node000004"><a xlink:href="../../dc/d16/color__box_8c.html" target="_top" xlink:title="Functions to create the color palettes for the menus of the OpenGL window &#160;&#160;Callbacks to set the colo...">
<polygon fill="white" stroke="#666666" points="370.62,-20 254.88,-20 254.88,0 370.62,0 370.62,-20"/>
<text text-anchor="middle" x="312.75" y="-6.5" font-family="Helvetica,sans-Serif" font-size="10.00">opengl/win/color_box.c</text>
</a>
</g>
</g>
<!-- Node1&#45;&gt;Node4 -->
<g id="edge3_Node000001_Node000004" class="edge">
<title>Node1&#45;&gt;Node4</title>
<g id="a_edge3_Node000001_Node000004"><a xlink:title=" ">
<path fill="none" stroke="#63b8ff" d="M884,-60.78C775.86,-53.96 561.25,-39.29 379.75,-20 376.83,-19.69 373.85,-19.35 370.83,-19"/>
<polygon fill="#63b8ff" stroke="#63b8ff" points="883.68,-64.27 893.88,-61.4 884.12,-57.28 883.68,-64.27"/>
</a>
</g>
</g>
<!-- Node5 -->
<g id="Node000005" class="node">
<title>Node5</title>
<g id="a_Node000005"><a xlink:href="../../d7/dc8/glwindow_8c.html" target="_top" xlink:title="Functions to create a project OpenGL window.">
<polygon fill="white" stroke="#666666" points="502.5,-20 389,-20 389,0 502.5,0 502.5,-20"/>
<text text-anchor="middle" x="445.75" y="-6.5" font-family="Helvetica,sans-Serif" font-size="10.00">opengl/win/glwindow.c</text>
</a>
</g>
</g>
<!-- Node1&#45;&gt;Node5 -->
<g id="edge4_Node000001_Node000005" class="edge">
<title>Node1&#45;&gt;Node5</title>
<g id="a_edge4_Node000001_Node000005"><a xlink:title=" ">
<path fill="none" stroke="#63b8ff" d="M884.08,-58.65C796.92,-50.53 643.14,-35.64 511.75,-20 508.88,-19.66 505.94,-19.3 502.97,-18.92"/>
<polygon fill="#63b8ff" stroke="#63b8ff" points="883.62,-62.12 893.9,-59.56 884.27,-55.15 883.62,-62.12"/>
</a>
</g>
</g>
<!-- Node6 -->
<g id="Node000006" class="node">
<title>Node6</title>
<g id="a_Node000006"><a xlink:href="../../da/d13/initchain_8c.html" target="_top" xlink:title="Functions collecting chain(s) data from Fortran90 &#160;&#160;Functions allocating chain(s) data from Fortran90...">
<polygon fill="white" stroke="#666666" points="630.62,-20 520.88,-20 520.88,0 630.62,0 630.62,-20"/>
<text text-anchor="middle" x="575.75" y="-6.5" font-family="Helvetica,sans-Serif" font-size="10.00">opengl/win/initchain.c</text>
</a>
</g>
</g>
<!-- Node1&#45;&gt;Node6 -->
<g id="edge5_Node000001_Node000006" class="edge">
<title>Node1&#45;&gt;Node6</title>
<g id="a_edge5_Node000001_Node000006"><a xlink:title=" ">
<path fill="none" stroke="#63b8ff" d="M884.16,-55.06C811.21,-44.64 698.04,-28.47 630.97,-18.89"/>
<polygon fill="#63b8ff" stroke="#63b8ff" points="883.62,-58.52 894.02,-56.47 884.61,-51.59 883.62,-58.52"/>
</a>
</g>
</g>
<!-- Node7 -->
<g id="Node000007" class="node">
<title>Node7</title>
<g id="a_Node000007"><a xlink:href="../../d6/d35/initcoord_8c.html" target="_top" xlink:title="Coordinations and polyhedra menus initialization &#160;&#160;Coordinations and polyhedra GTK3 menus and menu it...">
<polygon fill="white" stroke="#666666" points="759,-20 648.5,-20 648.5,0 759,0 759,-20"/>
<text text-anchor="middle" x="703.75" y="-6.5" font-family="Helvetica,sans-Serif" font-size="10.00">opengl/win/initcoord.c</text>
</a>
</g>
</g>
<!-- Node1&#45;&gt;Node7 -->
<g id="edge6_Node000001_Node000007" class="edge">
<title>Node1&#45;&gt;Node7</title>
<g id="a_edge6_Node000001_Node000007"><a xlink:title=" ">
<path fill="none" stroke="#63b8ff" d="M898.78,-53.13C853.31,-43.31 789.6,-29.54 747.53,-20.46"/>
<polygon fill="#63b8ff" stroke="#63b8ff" points="897.92,-56.52 908.44,-55.21 899.4,-49.68 897.92,-56.52"/>
</a>
</g>
</g>
<!-- Node8 -->
<g id="Node000008" class="node">
<title>Node8</title>
<g id="a_Node000008"><a xlink:href="../../d2/def/initmol_8c.html" target="_top" xlink:title="Functions to retrieve fragments data from Fortran90 &#160;&#160;Functions to retrieve molecules data from Fortr...">
<polygon fill="white" stroke="#666666" points="878.88,-20 776.62,-20 776.62,0 878.88,0 878.88,-20"/>
<text text-anchor="middle" x="827.75" y="-6.5" font-family="Helvetica,sans-Serif" font-size="10.00">opengl/win/initmol.c</text>
</a>
</g>
</g>
<!-- Node1&#45;&gt;Node8 -->
<g id="edge7_Node000001_Node000008" class="edge">
<title>Node1&#45;&gt;Node8</title>
<g id="a_edge7_Node000001_Node000008"><a xlink:title=" ">
<path fill="none" stroke="#63b8ff" d="M921.41,-51.14C898.97,-41.52 869.68,-28.97 849.87,-20.48"/>
<polygon fill="#63b8ff" stroke="#63b8ff" points="919.84,-54.28 930.41,-55 922.6,-47.84 919.84,-54.28"/>
</a>
</g>
</g>
<!-- Node9 -->
<g id="Node000009" class="node">
<title>Node9</title>
<g id="a_Node000009"><a xlink:href="../../db/db4/m__atoms_8c.html" target="_top" xlink:title="Functions to create the &#39;Model &#45;&gt; Atom(s)&#39; submenu.">
<polygon fill="white" stroke="#666666" points="1010.88,-20 896.62,-20 896.62,0 1010.88,0 1010.88,-20"/>
<text text-anchor="middle" x="953.75" y="-6.5" font-family="Helvetica,sans-Serif" font-size="10.00">opengl/win/m_atoms.c</text>
</a>
</g>
</g>
<!-- Node1&#45;&gt;Node9 -->
<g id="edge8_Node000001_Node000009" class="edge">
<title>Node1&#45;&gt;Node9</title>
<g id="a_edge8_Node000001_Node000009"><a xlink:title=" ">
<path fill="none" stroke="#63b8ff" d="M953.75,-44.13C953.75,-35.9 953.75,-26.85 953.75,-20.3"/>
<polygon fill="#63b8ff" stroke="#63b8ff" points="950.25,-44.08 953.75,-54.08 957.25,-44.08 950.25,-44.08"/>
</a>
</g>
</g>
<!-- Node10 -->
<g id="Node000010" class="node">
<title>Node10</title>
<g id="a_Node000010"><a xlink:href="../../d8/db0/m__back_8c.html" target="_top" xlink:title="Function to create the background color menu item.">
<polygon fill="white" stroke="#666666" points="1136.88,-20 1028.62,-20 1028.62,0 1136.88,0 1136.88,-20"/>
<text text-anchor="middle" x="1082.75" y="-6.5" font-family="Helvetica,sans-Serif" font-size="10.00">opengl/win/m_back.c</text>
</a>
</g>
</g>
<!-- Node1&#45;&gt;Node10 -->
<g id="edge9_Node000001_Node000010" class="edge">
<title>Node1&#45;&gt;Node10</title>
<g id="a_edge9_Node000001_Node000010"><a xlink:title=" ">
<path fill="none" stroke="#63b8ff" d="M986.55,-51.27C1009.56,-41.64 1039.73,-29.01 1060.1,-20.48"/>
<polygon fill="#63b8ff" stroke="#63b8ff" points="985.49,-47.92 977.62,-55.01 988.19,-54.38 985.49,-47.92"/>
</a>
</g>
</g>
<!-- Node11 -->
<g id="Node000011" class="node">
<title>Node11</title>
<g id="a_Node000011"><a xlink:href="../../d6/d35/m__box_8c.html" target="_top" xlink:title="Functions to create the &#39;Model &#45;&gt; Box&#39; submenu.">
<polygon fill="white" stroke="#666666" points="1258.25,-20 1155.25,-20 1155.25,0 1258.25,0 1258.25,-20"/>
<text text-anchor="middle" x="1206.75" y="-6.5" font-family="Helvetica,sans-Serif" font-size="10.00">opengl/win/m_box.c</text>
</a>
</g>
</g>
<!-- Node1&#45;&gt;Node11 -->
<g id="edge10_Node000001_Node000011" class="edge">
<title>Node1&#45;&gt;Node11</title>
<g id="a_edge10_Node000001_Node000011"><a xlink:title=" ">
<path fill="none" stroke="#63b8ff" d="M1009.09,-53.19C1055.12,-43.36 1119.78,-29.56 1162.44,-20.46"/>
<polygon fill="#63b8ff" stroke="#63b8ff" points="1008.64,-49.71 999.59,-55.22 1010.1,-56.55 1008.64,-49.71"/>
</a>
</g>
</g>
<!-- Node12 -->
<g id="Node000012" class="node">
<title>Node12</title>
<g id="a_Node000012"><a xlink:href="../../d5/dbe/menu__bar_8c.html" target="_top" xlink:title="Functions to create the menu bar of the OpenGL window &#160;&#160;Functions to create the menu items for the me...">
<polygon fill="white" stroke="#666666" points="1393,-20 1276.5,-20 1276.5,0 1393,0 1393,-20"/>
<text text-anchor="middle" x="1334.75" y="-6.5" font-family="Helvetica,sans-Serif" font-size="10.00">opengl/win/menu_bar.c</text>
</a>
</g>
</g>
<!-- Node1&#45;&gt;Node12 -->
<g id="edge11_Node000001_Node000012" class="edge">
<title>Node1&#45;&gt;Node12</title>
<g id="a_edge11_Node000001_Node000012"><a xlink:title=" ">
<path fill="none" stroke="#63b8ff" d="M1023.31,-55.14C1095.78,-44.87 1208.06,-28.96 1276.16,-19.3"/>
<polygon fill="#63b8ff" stroke="#63b8ff" points="1022.94,-51.66 1013.53,-56.53 1023.92,-58.59 1022.94,-51.66"/>
</a>
</g>
</g>
<!-- Node13 -->
<g id="Node000013" class="node">
<title>Node13</title>
<g id="a_Node000013"><a xlink:href="../../d5/da4/popup_8c.html" target="_top" xlink:title="Functions to create the OpenGL window popup menus:">
<polygon fill="white" stroke="#666666" points="1510.75,-20 1410.75,-20 1410.75,0 1510.75,0 1510.75,-20"/>
<text text-anchor="middle" x="1460.75" y="-6.5" font-family="Helvetica,sans-Serif" font-size="10.00">opengl/win/popup.c</text>
</a>
</g>
</g>
<!-- Node1&#45;&gt;Node13 -->
<g id="edge12_Node000001_Node000013" class="edge">
<title>Node1&#45;&gt;Node13</title>
<g id="a_edge12_Node000001_Node000013"><a xlink:title=" ">
<path fill="none" stroke="#63b8ff" d="M1023.31,-59.13C1111.5,-51.42 1268.15,-36.89 1401.75,-20 1404.63,-19.64 1407.58,-19.24 1410.56,-18.83"/>
<polygon fill="#63b8ff" stroke="#63b8ff" points="1023.02,-55.64 1013.36,-59.99 1023.62,-62.61 1023.02,-55.64"/>
</a>
</g>
</g>
<!-- Node14 -->
<g id="Node000014" class="node">
<title>Node14</title>
<g id="a_Node000014"><a xlink:href="../../dd/d61/w__atoms_8c.html" target="_top" xlink:title="Functions to create the atom(s) / clone(s) advanced configuration window.">
<polygon fill="white" stroke="#666666" points="1642.5,-20 1529,-20 1529,0 1642.5,0 1642.5,-20"/>
<text text-anchor="middle" x="1585.75" y="-6.5" font-family="Helvetica,sans-Serif" font-size="10.00">opengl/win/w_atoms.c</text>
</a>
</g>
</g>
<!-- Node1&#45;&gt;Node14 -->
<g id="edge13_Node000001_Node000014" class="edge">
<title>Node1&#45;&gt;Node14</title>
<g id="a_edge13_Node000001_Node000014"><a xlink:title=" ">
<path fill="none" stroke="#63b8ff" d="M1023.37,-60.73C1130.29,-53.88 1341.27,-39.25 1519.75,-20 1522.62,-19.69 1525.57,-19.35 1528.54,-19"/>
<polygon fill="#63b8ff" stroke="#63b8ff" points="1023.38,-57.22 1013.62,-61.35 1023.82,-64.21 1023.38,-57.22"/>
</a>
</g>
</g>
<!-- Node15 -->
<g id="Node000015" class="node">
<title>Node15</title>
<g id="a_Node000015"><a xlink:href="../../d9/d11/w__bonds_8c.html" target="_top" xlink:title="Functions to create the bond (legnth/radius) edition window(s)">
<polygon fill="white" stroke="#666666" points="1773.12,-20 1660.38,-20 1660.38,0 1773.12,0 1773.12,-20"/>
<text text-anchor="middle" x="1716.75" y="-6.5" font-family="Helvetica,sans-Serif" font-size="10.00">opengl/win/w_bonds.c</text>
</a>
</g>
</g>
<!-- Node1&#45;&gt;Node15 -->
<g id="edge14_Node000001_Node000015" class="edge">
<title>Node1&#45;&gt;Node15</title>
<g id="a_edge14_Node000001_Node000015"><a xlink:title=" ">
<path fill="none" stroke="#63b8ff" d="M1023.11,-62.21C1148.71,-56.79 1422.12,-43.27 1651.75,-20 1654.47,-19.72 1657.25,-19.42 1660.06,-19.1"/>
<polygon fill="#63b8ff" stroke="#63b8ff" points="1023.13,-58.71 1013.29,-62.63 1023.43,-65.7 1023.13,-58.71"/>
</a>
</g>
</g>
<!-- Node16 -->
<g id="Node000016" class="node">
<title>Node16</title>
<g id="a_Node000016"><a xlink:href="../../d2/d92/w__colors_8c.html" target="_top" xlink:title="Functions to create the color selection dialogs.">
<polygon fill="white" stroke="#666666" points="1904.12,-20 1791.38,-20 1791.38,0 1904.12,0 1904.12,-20"/>
<text text-anchor="middle" x="1847.75" y="-6.5" font-family="Helvetica,sans-Serif" font-size="10.00">opengl/win/w_colors.c</text>
</a>
</g>
</g>
<!-- Node1&#45;&gt;Node16 -->
<g id="edge15_Node000001_Node000016" class="edge">
<title>Node1&#45;&gt;Node16</title>
<g id="a_edge15_Node000001_Node000016"><a xlink:title=" ">
<path fill="none" stroke="#63b8ff" d="M1023.24,-63.13C1165.75,-58.88 1501.28,-46.7 1781.75,-20 1784.74,-19.72 1787.81,-19.4 1790.9,-19.05"/>
<polygon fill="#63b8ff" stroke="#63b8ff" points="1023.5,-59.62 1013.61,-63.41 1023.71,-66.62 1023.5,-59.62"/>
</a>
</g>
</g>
</g>
</svg>

<g id="navigator" transform="translate(0 0)" fill="#404254">
  <rect fill="#f2f5e9" fill-opacity="0.5" stroke="#606060" stroke-width=".5" x="0" y="0" width="60" height="60"/>
  <use id="zoomplus" xlink:href="#zoomPlus" x="17" y="9" onmousedown="handleZoom(evt,'in')"/>
  <use id="zoomminus" xlink:href="#zoomMin" x="42" y="9" onmousedown="handleZoom(evt,'out')"/>
  <use id="reset" xlink:href="#resetDef" x="30" y="36" onmousedown="handleReset()"/>
   <use id="arrowup" xlink:href="#arrowUp" x="0" y="0" onmousedown="handlePan(0,-1)"/>
  <use id="arrowright" xlink:href="#arrowRight" x="0" y="0" onmousedown="handlePan(1,0)"/>
  <use id="arrowdown" xlink:href="#arrowDown" x="0" y="0" onmousedown="handlePan(0,1)"/>
  <use id="arrowleft" xlink:href="#arrowLeft" x="0" y="0" onmousedown="handlePan(-1,0)"/>
</g>
<svg viewBox="0 0 15 15" width="100%" height="30px" preserveAspectRatio="xMaxYMin meet">
 <g id="arrow_out" transform="scale(0.3 0.3)">
  <a xlink:href="color__box_8h__dep__incl_org.svg" target="_base">
   <rect id="button" ry="5" rx="5" y="6" x="6" height="38" width="38"
        fill="#f2f5e9" fill-opacity="0.5" stroke="#606060" stroke-width="1.0"/>
   <path id="arrow"
     d="M 11.500037,31.436501 C 11.940474,20.09759 22.043105,11.32322 32.158766,21.979434 L 37.068811,17.246167 C 37.068811,17.246167 37.088388,32 37.088388,32 L 22.160133,31.978069 C 22.160133,31.978069 26.997745,27.140456 26.997745,27.140456 C 18.528582,18.264221 13.291696,25.230495 11.500037,31.436501 z"
     style="fill:#404040;"/>
  </a>
 </g>
</svg>

<style type='text/css'>
<![CDATA[
[data-mouse-over-selected='false'] { opacity: 0.7; }
[data-mouse-over-selected='true']  { opacity: 1.0; }
]]>
</style>
<script type="application/ecmascript"><![CDATA[
document.addEventListener('DOMContentLoaded', (event) => {
  highlightEdges();
  highlightAdjacentNodes();
});
]]></script>
</svg>
