<?xml version="1.0" encoding="UTF-8" standalone="no"?>
<!DOCTYPE svg PUBLIC "-//W3C//DTD SVG 1.1//EN"
 "http://www.w3.org/Graphics/SVG/1.1/DTD/svg11.dtd">
<!-- Generated by graphviz version 7.1.0 (0)
 -->
<!-- Title: opengl/win/color_box.h Pages: 1 -->
<!--zoomable 82 -->
<svg id="main" version="1.1" xmlns="http://www.w3.org/2000/svg" xmlns:xlink="http://www.w3.org/1999/xlink" xml:space="preserve" onload="init(evt)">
<style type="text/css"><![CDATA[
.edge:hover path { stroke: red; }
.edge:hover polygon { stroke: red; fill: red; }
]]></style>
<script type="text/javascript"><![CDATA[
var edges = document.getElementsByTagName('g');
if (edges && edges.length) {
  for (var i=0;i<edges.length;i++) {
    if (edges[i].id.substr(0,4)=='edge') {
      edges[i].setAttribute('class','edge');
    }
  }
}
]]></script>
        <defs>
                <circle id="rim" cx="0" cy="0" r="7"/>
                <circle id="rim2" cx="0" cy="0" r="3.5"/>
                <g id="zoomPlus">
                        <use xlink:href="#rim" fill="#404040">
                                <set attributeName="fill" to="#808080" begin="zoomplus.mouseover" end="zoomplus.mouseout"/>
                        </use>
                        <path d="M-4,0h8M0,-4v8" fill="none" stroke="white" stroke-width="1.5" pointer-events="none"/>
                </g>
                <g id="zoomMin">
                        <use xlink:href="#rim" fill="#404040">
                                <set attributeName="fill" to="#808080" begin="zoomminus.mouseover" end="zoomminus.mouseout"/>
                        </use>
                        <path d="M-4,0h8" fill="none" stroke="white" stroke-width="1.5" pointer-events="none"/>
                </g>
                <g id="dirArrow">
                        <path fill="none" stroke="white" stroke-width="1.5" d="M0,-3.0v7 M-2.5,-0.5L0,-3.0L2.5,-0.5"/>
                </g>
               <g id="resetDef">
                       <use xlink:href="#rim2" fill="#404040">
                               <set attributeName="fill" to="#808080" begin="reset.mouseover" end="reset.mouseout"/>
                       </use>
               </g>
        </defs>

<script type="text/javascript">
var viewWidth = 1923;
var viewHeight = 82;
var sectionId = 'dynsection-0';
</script>
<script xlink:href="../../svgpan.js"/>
<svg id="graph" class="graph">
<g id="viewport">
<title>opengl/win/color_box.h</title>
<!-- Node1 -->
<g id="node1" class="node">
<title>Node1</title>
<g id="a_node1"><a xlink:title="Structure definitions for color management &#160;&#160;Function declarations for color management.">
<polygon fill="#999999" stroke="#666666" points="1016,-74 900,-74 900,-55 1016,-55 1016,-74"/>
<text text-anchor="middle" x="958" y="-62" font-family="Helvetica,sans-Serif" font-size="10.00">opengl/win/color_box.h</text>
</a>
</g>
</g>
<!-- Node2 -->
<g id="node2" class="node">
<title>Node2</title>
<g id="a_node2"><a xlink:href="../../da/da8/d__poly_8c.html" target="_top" xlink:title="Functions to prepare the OpenGL rendering of coordination polyhedra.">
<polygon fill="white" stroke="#666666" points="108,-19 0,-19 0,0 108,0 108,-19"/>
<text text-anchor="middle" x="54" y="-7" font-family="Helvetica,sans-Serif" font-size="10.00">opengl/draw/d_poly.c</text>
</a>
</g>
</g>
<!-- Node1&#45;&gt;Node2 -->
<g id="edge1" class="edge">
<title>Node1&#45;&gt;Node2</title>
<path fill="none" stroke="#63b8ff" d="M888.23,-61.73C743.95,-57.63 402.42,-45.76 117,-19 114.14,-18.73 111.22,-18.43 108.26,-18.11"/>
<polygon fill="#63b8ff" stroke="#63b8ff" points="887.9,-65.22 898,-62 888.1,-58.22 887.9,-65.22"/>
</g>
<!-- Node3 -->
<g id="node3" class="node">
<title>Node3</title>
<g id="a_node3"><a xlink:href="../../df/d03/d__rings_8c.html" target="_top" xlink:title="Functions to prepare the OpenGL rendering of rings polyhedra.">
<polygon fill="white" stroke="#666666" points="238,-19 126,-19 126,0 238,0 238,-19"/>
<text text-anchor="middle" x="182" y="-7" font-family="Helvetica,sans-Serif" font-size="10.00">opengl/draw/d_rings.c</text>
</a>
</g>
</g>
<!-- Node1&#45;&gt;Node3 -->
<g id="edge2" class="edge">
<title>Node1&#45;&gt;Node3</title>
<path fill="none" stroke="#63b8ff" d="M888.34,-60.7C760.87,-55.24 481.58,-41.65 247,-19 244.17,-18.73 241.27,-18.43 238.34,-18.1"/>
<polygon fill="#63b8ff" stroke="#63b8ff" points="888.18,-64.2 898.32,-61.13 888.48,-57.21 888.18,-64.2"/>
</g>
<!-- Node4 -->
<g id="node4" class="node">
<title>Node4</title>
<g id="a_node4"><a xlink:href="../../dc/d16/color__box_8c.html" target="_top" xlink:title="Functions to create the color palettes for the menus of the OpenGL window &#160;&#160;Callbacks to set the colo...">
<polygon fill="white" stroke="#666666" points="372,-19 256,-19 256,0 372,0 372,-19"/>
<text text-anchor="middle" x="314" y="-7" font-family="Helvetica,sans-Serif" font-size="10.00">opengl/win/color_box.c</text>
</a>
</g>
</g>
<!-- Node1&#45;&gt;Node4 -->
<g id="edge3" class="edge">
<title>Node1&#45;&gt;Node4</title>
<path fill="none" stroke="#63b8ff" d="M888.34,-59.24C779.78,-52.35 563.75,-37.63 381,-19 378.2,-18.71 375.34,-18.41 372.45,-18.09"/>
<polygon fill="#63b8ff" stroke="#63b8ff" points="888.06,-62.73 898.26,-59.86 888.5,-55.74 888.06,-62.73"/>
</g>
<!-- Node5 -->
<g id="node5" class="node">
<title>Node5</title>
<g id="a_node5"><a xlink:href="../../d7/dc8/glwindow_8c.html" target="_top" xlink:title="Functions to create a project OpenGL window.">
<polygon fill="white" stroke="#666666" points="504,-19 390,-19 390,0 504,0 504,-19"/>
<text text-anchor="middle" x="447" y="-7" font-family="Helvetica,sans-Serif" font-size="10.00">opengl/win/glwindow.c</text>
</a>
</g>
</g>
<!-- Node1&#45;&gt;Node5 -->
<g id="edge4" class="edge">
<title>Node1&#45;&gt;Node5</title>
<path fill="none" stroke="#63b8ff" d="M888.24,-57.14C800.57,-49.01 645.52,-34.16 513,-19 510.13,-18.67 507.19,-18.33 504.23,-17.97"/>
<polygon fill="#63b8ff" stroke="#63b8ff" points="887.84,-60.62 898.12,-58.06 888.49,-53.65 887.84,-60.62"/>
</g>
<!-- Node6 -->
<g id="node6" class="node">
<title>Node6</title>
<g id="a_node6"><a xlink:href="../../da/d13/initchain_8c.html" target="_top" xlink:title="Functions collecting chain(s) data from Fortran90 &#160;&#160;Functions allocating chain(s) data from Fortran90...">
<polygon fill="white" stroke="#666666" points="632,-19 522,-19 522,0 632,0 632,-19"/>
<text text-anchor="middle" x="577" y="-7" font-family="Helvetica,sans-Serif" font-size="10.00">opengl/win/initchain.c</text>
</a>
</g>
</g>
<!-- Node1&#45;&gt;Node6 -->
<g id="edge5" class="edge">
<title>Node1&#45;&gt;Node6</title>
<path fill="none" stroke="#63b8ff" d="M888.73,-53.86C815.16,-43.63 700.32,-27.66 632.49,-18.22"/>
<polygon fill="#63b8ff" stroke="#63b8ff" points="887.83,-57.27 898.22,-55.18 888.8,-50.34 887.83,-57.27"/>
</g>
<!-- Node7 -->
<g id="node7" class="node">
<title>Node7</title>
<g id="a_node7"><a xlink:href="../../d6/d35/initcoord_8c.html" target="_top" xlink:title="Coordinations and polyhedra menus initialization &#160;&#160;Coordinations and polyhedra GTK3 menus and menu it...">
<polygon fill="white" stroke="#666666" points="761.5,-19 650.5,-19 650.5,0 761.5,0 761.5,-19"/>
<text text-anchor="middle" x="706" y="-7" font-family="Helvetica,sans-Serif" font-size="10.00">opengl/win/initcoord.c</text>
</a>
</g>
</g>
<!-- Node1&#45;&gt;Node7 -->
<g id="edge6" class="edge">
<title>Node1&#45;&gt;Node7</title>
<path fill="none" stroke="#63b8ff" d="M904.18,-52.18C857.68,-42.4 791.4,-28.46 748.54,-19.45"/>
<polygon fill="#63b8ff" stroke="#63b8ff" points="903.26,-55.56 913.77,-54.2 904.7,-48.71 903.26,-55.56"/>
</g>
<!-- Node8 -->
<g id="node8" class="node">
<title>Node8</title>
<g id="a_node8"><a xlink:href="../../d2/def/initmol_8c.html" target="_top" xlink:title="Functions to retrieve fragments data from Fortran90 &#160;&#160;Functions to retrieve molecules data from Fortr...">
<polygon fill="white" stroke="#666666" points="882.5,-19 779.5,-19 779.5,0 882.5,0 882.5,-19"/>
<text text-anchor="middle" x="831" y="-7" font-family="Helvetica,sans-Serif" font-size="10.00">opengl/win/initmol.c</text>
</a>
</g>
</g>
<!-- Node1&#45;&gt;Node8 -->
<g id="edge7" class="edge">
<title>Node1&#45;&gt;Node8</title>
<path fill="none" stroke="#63b8ff" d="M926.11,-50.19C903.01,-40.55 872.4,-27.78 852.23,-19.36"/>
<polygon fill="#63b8ff" stroke="#63b8ff" points="924.48,-53.31 935.06,-53.93 927.18,-46.84 924.48,-53.31"/>
</g>
<!-- Node9 -->
<g id="node9" class="node">
<title>Node9</title>
<g id="a_node9"><a xlink:href="../../db/db4/m__atoms_8c.html" target="_top" xlink:title="Functions to create the &#39;Model &#45;&gt; Atom(s)&#39; submenu.">
<polygon fill="white" stroke="#666666" points="1015.5,-19 900.5,-19 900.5,0 1015.5,0 1015.5,-19"/>
<text text-anchor="middle" x="958" y="-7" font-family="Helvetica,sans-Serif" font-size="10.00">opengl/win/m_atoms.c</text>
</a>
</g>
</g>
<!-- Node1&#45;&gt;Node9 -->
<g id="edge8" class="edge">
<title>Node1&#45;&gt;Node9</title>
<path fill="none" stroke="#63b8ff" d="M958,-43.35C958,-35.1 958,-25.97 958,-19.44"/>
<polygon fill="#63b8ff" stroke="#63b8ff" points="954.5,-43.23 958,-53.23 961.5,-43.23 954.5,-43.23"/>
</g>
<!-- Node10 -->
<g id="node10" class="node">
<title>Node10</title>
<g id="a_node10"><a xlink:href="../../d8/db0/m__back_8c.html" target="_top" xlink:title="Function to create the background color menu item.">
<polygon fill="white" stroke="#666666" points="1142.5,-19 1033.5,-19 1033.5,0 1142.5,0 1142.5,-19"/>
<text text-anchor="middle" x="1088" y="-7" font-family="Helvetica,sans-Serif" font-size="10.00">opengl/win/m_back.c</text>
</a>
</g>
</g>
<!-- Node1&#45;&gt;Node10 -->
<g id="edge9" class="edge">
<title>Node1&#45;&gt;Node10</title>
<path fill="none" stroke="#63b8ff" d="M990.64,-50.19C1014.29,-40.55 1045.62,-27.78 1066.27,-19.36"/>
<polygon fill="#63b8ff" stroke="#63b8ff" points="989.39,-46.92 981.45,-53.94 992.04,-53.4 989.39,-46.92"/>
</g>
<!-- Node11 -->
<g id="node11" class="node">
<title>Node11</title>
<g id="a_node11"><a xlink:href="../../d6/d35/m__box_8c.html" target="_top" xlink:title="Functions to create the &#39;Model &#45;&gt; Box&#39; submenu.">
<polygon fill="white" stroke="#666666" points="1265,-19 1161,-19 1161,0 1265,0 1265,-19"/>
<text text-anchor="middle" x="1213" y="-7" font-family="Helvetica,sans-Serif" font-size="10.00">opengl/win/m_box.c</text>
</a>
</g>
</g>
<!-- Node1&#45;&gt;Node11 -->
<g id="edge10" class="edge">
<title>Node1&#45;&gt;Node11</title>
<path fill="none" stroke="#63b8ff" d="M1012.46,-52.18C1059.51,-42.4 1126.58,-28.46 1169.96,-19.45"/>
<polygon fill="#63b8ff" stroke="#63b8ff" points="1011.82,-48.74 1002.74,-54.2 1013.24,-55.59 1011.82,-48.74"/>
</g>
<!-- Node12 -->
<g id="node12" class="node">
<title>Node12</title>
<g id="a_node12"><a xlink:href="../../d5/dbe/menu__bar_8c.html" target="_top" xlink:title="Functions to create the menu bar of the OpenGL window &#160;&#160;Functions to create the menu items for the me...">
<polygon fill="white" stroke="#666666" points="1400.5,-19 1283.5,-19 1283.5,0 1400.5,0 1400.5,-19"/>
<text text-anchor="middle" x="1342" y="-7" font-family="Helvetica,sans-Serif" font-size="10.00">opengl/win/menu_bar.c</text>
</a>
</g>
</g>
<!-- Node1&#45;&gt;Node12 -->
<g id="edge11" class="edge">
<title>Node1&#45;&gt;Node12</title>
<path fill="none" stroke="#63b8ff" d="M1027.69,-53.88C1100.78,-43.79 1214.38,-28.11 1283.13,-18.63"/>
<polygon fill="#63b8ff" stroke="#63b8ff" points="1027.25,-50.41 1017.82,-55.24 1028.21,-57.34 1027.25,-50.41"/>
</g>
<!-- Node13 -->
<g id="node13" class="node">
<title>Node13</title>
<g id="a_node13"><a xlink:href="../../d5/da4/popup_8c.html" target="_top" xlink:title="Functions to create the OpenGL window popup menus:">
<polygon fill="white" stroke="#666666" points="1519.5,-19 1418.5,-19 1418.5,0 1519.5,0 1519.5,-19"/>
<text text-anchor="middle" x="1469" y="-7" font-family="Helvetica,sans-Serif" font-size="10.00">opengl/win/popup.c</text>
</a>
</g>
</g>
<!-- Node1&#45;&gt;Node13 -->
<g id="edge12" class="edge">
<title>Node1&#45;&gt;Node13</title>
<path fill="none" stroke="#63b8ff" d="M1027.52,-57.63C1116.35,-49.91 1274.83,-35.38 1410,-19 1412.67,-18.68 1415.41,-18.33 1418.17,-17.97"/>
<polygon fill="#63b8ff" stroke="#63b8ff" points="1027.41,-54.13 1017.75,-58.48 1028.02,-61.1 1027.41,-54.13"/>
</g>
<!-- Node14 -->
<g id="node14" class="node">
<title>Node14</title>
<g id="a_node14"><a xlink:href="../../dd/d61/w__atoms_8c.html" target="_top" xlink:title="Functions to create the atom(s) / clone(s) advanced configuration window.">
<polygon fill="white" stroke="#666666" points="1652,-19 1538,-19 1538,0 1652,0 1652,-19"/>
<text text-anchor="middle" x="1595" y="-7" font-family="Helvetica,sans-Serif" font-size="10.00">opengl/win/w_atoms.c</text>
</a>
</g>
</g>
<!-- Node1&#45;&gt;Node14 -->
<g id="edge13" class="edge">
<title>Node1&#45;&gt;Node14</title>
<path fill="none" stroke="#63b8ff" d="M1027.8,-59.2C1135.5,-52.3 1348.64,-37.63 1529,-19 1531.87,-18.7 1534.81,-18.38 1537.78,-18.05"/>
<polygon fill="#63b8ff" stroke="#63b8ff" points="1027.72,-55.69 1017.96,-59.82 1028.16,-62.68 1027.72,-55.69"/>
</g>
<!-- Node15 -->
<g id="node15" class="node">
<title>Node15</title>
<g id="a_node15"><a xlink:href="../../d9/d11/w__bonds_8c.html" target="_top" xlink:title="Functions to create the bond (legnth/radius) edition window(s)">
<polygon fill="white" stroke="#666666" points="1783.5,-19 1670.5,-19 1670.5,0 1783.5,0 1783.5,-19"/>
<text text-anchor="middle" x="1727" y="-7" font-family="Helvetica,sans-Serif" font-size="10.00">opengl/win/w_bonds.c</text>
</a>
</g>
</g>
<!-- Node1&#45;&gt;Node15 -->
<g id="edge14" class="edge">
<title>Node1&#45;&gt;Node15</title>
<path fill="none" stroke="#63b8ff" d="M1027.83,-60.58C1154.3,-54.96 1429.62,-41.2 1661,-19 1663.99,-18.71 1667.05,-18.4 1670.14,-18.06"/>
<polygon fill="#63b8ff" stroke="#63b8ff" points="1027.78,-57.08 1017.94,-61.02 1028.09,-64.07 1027.78,-57.08"/>
</g>
<!-- Node16 -->
<g id="node16" class="node">
<title>Node16</title>
<g id="a_node16"><a xlink:href="../../d2/d92/w__colors_8c.html" target="_top" xlink:title="Functions to create the color selection dialogs.">
<polygon fill="white" stroke="#666666" points="1914.5,-19 1801.5,-19 1801.5,0 1914.5,0 1914.5,-19"/>
<text text-anchor="middle" x="1858" y="-7" font-family="Helvetica,sans-Serif" font-size="10.00">opengl/win/w_colors.c</text>
</a>
</g>
</g>
<!-- Node1&#45;&gt;Node16 -->
<g id="edge15" class="edge">
<title>Node1&#45;&gt;Node16</title>
<path fill="none" stroke="#63b8ff" d="M1027.53,-61.6C1170.92,-57.28 1509.74,-45.03 1793,-19 1795.72,-18.75 1798.5,-18.47 1801.31,-18.17"/>
<polygon fill="#63b8ff" stroke="#63b8ff" points="1027.72,-58.09 1017.83,-61.89 1027.93,-65.09 1027.72,-58.09"/>
</g>
</g>
</svg>
        <g id="navigator" transform="translate(0 0)" fill="#404254">
                <rect fill="#f2f5e9" fill-opacity="0.5" stroke="#606060" stroke-width=".5" x="0" y="0" width="60" height="60"/>
                <use id="zoomplus" xlink:href="#zoomPlus" x="17" y="9" onmousedown="handleZoom(evt,'in')"/>
                <use id="zoomminus" xlink:href="#zoomMin" x="42" y="9" onmousedown="handleZoom(evt,'out')"/>
                <use id="reset" xlink:href="#resetDef" x="30" y="36" onmousedown="handleReset()"/>
                <g id="arrowUp" xlink:href="#dirArrow" transform="translate(30 24)" onmousedown="handlePan(0,-1)">
                  <use xlink:href="#rim" fill="#404040">
                        <set attributeName="fill" to="#808080" begin="arrowUp.mouseover" end="arrowUp.mouseout"/>
                  </use>
                  <path fill="none" stroke="white" stroke-width="1.5" d="M0,-3.0v7 M-2.5,-0.5L0,-3.0L2.5,-0.5"/>
                </g>
                <g id="arrowRight" xlink:href="#dirArrow" transform="rotate(90) translate(36 -43)" onmousedown="handlePan(1,0)">
                  <use xlink:href="#rim" fill="#404040">
                        <set attributeName="fill" to="#808080" begin="arrowRight.mouseover" end="arrowRight.mouseout"/>
                  </use>
                  <path fill="none" stroke="white" stroke-width="1.5" d="M0,-3.0v7 M-2.5,-0.5L0,-3.0L2.5,-0.5"/>
                </g>
                <g id="arrowDown" xlink:href="#dirArrow" transform="rotate(180) translate(-30 -48)" onmousedown="handlePan(0,1)">
                  <use xlink:href="#rim" fill="#404040">
                        <set attributeName="fill" to="#808080" begin="arrowDown.mouseover" end="arrowDown.mouseout"/>
                  </use>
                  <path fill="none" stroke="white" stroke-width="1.5" d="M0,-3.0v7 M-2.5,-0.5L0,-3.0L2.5,-0.5"/>
                </g>
                <g id="arrowLeft" xlink:href="#dirArrow" transform="rotate(270) translate(-36 17)" onmousedown="handlePan(-1,0)">
                  <use xlink:href="#rim" fill="#404040">
                        <set attributeName="fill" to="#808080" begin="arrowLeft.mouseover" end="arrowLeft.mouseout"/>
                  </use>
                  <path fill="none" stroke="white" stroke-width="1.5" d="M0,-3.0v7 M-2.5,-0.5L0,-3.0L2.5,-0.5"/>
                </g>
        </g>
        <svg viewBox="0 0 15 15" width="100%" height="30px" preserveAspectRatio="xMaxYMin meet">
         <g id="arrow_out" transform="scale(0.3 0.3)">
          <a xlink:href="color__box_8h__dep__incl_org.svg" target="_base">
           <rect id="button" ry="5" rx="5" y="6" x="6" height="38" width="38"
                fill="#f2f5e9" fill-opacity="0.5" stroke="#606060" stroke-width="1.0"/>
           <path id="arrow"
             d="M 11.500037,31.436501 C 11.940474,20.09759 22.043105,11.32322 32.158766,21.979434 L 37.068811,17.246167 C 37.068811,17.246167 37.088388,32 37.088388,32 L 22.160133,31.978069 C 22.160133,31.978069 26.997745,27.140456 26.997745,27.140456 C 18.528582,18.264221 13.291696,25.230495 11.500037,31.436501 z"
             style="fill:#404040;"/>
          </a>
         </g>
        </svg>
</svg>
