<?xml version="1.0" encoding="UTF-8" standalone="no"?>
<!DOCTYPE svg PUBLIC "-//W3C//DTD SVG 1.1//EN"
 "http://www.w3.org/Graphics/SVG/1.1/DTD/svg11.dtd">
<!-- Generated by graphviz version 7.1.0 (0)
 -->
<!-- Title: gui/callbacks.c Pages: 1 -->
<!--zoomable 247 -->

<svg id="main" version="1.1" xmlns="http://www.w3.org/2000/svg" xmlns:xlink="http://www.w3.org/1999/xlink" xml:space="preserve" onload="init(evt)">
<style type="text/css"><![CDATA[
.node, .edge {opacity: 0.7;}
.node.selected, .edge.selected {opacity: 1;}
.edge:hover path { stroke: red; }
.edge:hover polygon { stroke: red; fill: red; }
]]></style>

<defs>
  <circle id="rim" cx="0" cy="0" r="7"/>
  <circle id="rim2" cx="0" cy="0" r="3.5"/>
  <g id="zoomPlus">
    <use xlink:href="#rim" fill="#404040"><set attributeName="fill" to="#808080" begin="zoomplus.mouseover" end="zoomplus.mouseout"/></use>
    <path d="M-4,0h8M0,-4v8" fill="none" stroke="white" stroke-width="1.5" pointer-events="none"/>
  </g>
  <g id="zoomMin">
    <use xlink:href="#rim" fill="#404040"><set attributeName="fill" to="#808080" begin="zoomminus.mouseover" end="zoomminus.mouseout"/></use>
    <path d="M-4,0h8" fill="none" stroke="white" stroke-width="1.5" pointer-events="none"/>
  </g>
  <g id="arrowUp" transform="translate(30 24)">
    <use xlink:href="#rim"/>
    <path pointer-events="none" fill="none" stroke="white" stroke-width="1.5" d="M0,-3.0v7 M-2.5,-0.5L0,-3.0L2.5,-0.5"/>
  </g>
  <g id="arrowRight" transform="rotate(90) translate(36 -43)">
    <use xlink:href="#rim"/>
    <path pointer-events="none" fill="none" stroke="white" stroke-width="1.5" d="M0,-3.0v7 M-2.5,-0.5L0,-3.0L2.5,-0.5"/>
  </g>
  <g id="arrowDown" transform="rotate(180) translate(-30 -48)">
    <use xlink:href="#rim"/>
    <path pointer-events="none" fill="none" stroke="white" stroke-width="1.5" d="M0,-3.0v7 M-2.5,-0.5L0,-3.0L2.5,-0.5"/>
  </g>
  <g id="arrowLeft" transform="rotate(270) translate(-36 17)">
    <use xlink:href="#rim"/>
    <path pointer-events="none" fill="none" stroke="white" stroke-width="1.5" d="M0,-3.0v7 M-2.5,-0.5L0,-3.0L2.5,-0.5"/>
  </g>
  <g id="resetDef">
    <use xlink:href="#rim2" fill="#404040"><set attributeName="fill" to="#808080" begin="reset.mouseover" end="reset.mouseout"/></use>
  </g>
</defs>
<script type="application/ecmascript">
var viewWidth = 2052;
var viewHeight = 247;
var sectionId = 'dynsection-0';
</script>
<script type="application/ecmascript" xlink:href="../../svg.min.js"/>
<svg id="graph" class="graph">
<g id="viewport">
<title>gui/callbacks.c</title>
<!-- Node1 -->
<g id="Node000001" class="node">
<title>Node1</title>
<g id="a_Node000001"><a xlink:title="General callbacks &#160;&#160;Functions to open and close files.">
<polygon fill="#999999" stroke="#666666" points="1140.5,-239 1058.5,-239 1058.5,-220 1140.5,-220 1140.5,-239"/>
<text text-anchor="middle" x="1099.5" y="-227" font-family="Helvetica,sans-Serif" font-size="10.00">gui/callbacks.c</text>
</a>
</g>
</g>
<!-- Node2 -->
<g id="Node000002" class="node">
<title>Node2</title>
<g id="a_Node000002"><a xlink:href="../../d2/d49/global_8h.html" target="_top" xlink:title="Global variable declarations &#160;&#160;Global convenience function declarations &#160;&#160;Global data structure defin...">
<polygon fill="white" stroke="#666666" points="974.5,-129 924.5,-129 924.5,-110 974.5,-110 974.5,-129"/>
<text text-anchor="middle" x="949.5" y="-117" font-family="Helvetica,sans-Serif" font-size="10.00">global.h</text>
</a>
</g>
</g>
<!-- Node1&#45;&gt;Node2 -->
<g id="edge1_Node000001_Node000002" class="edge">
<title>Node1&#45;&gt;Node2</title>
<g id="a_edge1_Node000001_Node000002"><a xlink:title=" ">
<path fill="none" stroke="#63b8ff" d="M1065.36,-219.6C1043.18,-212.58 1014.59,-201.09 993.5,-184 978.54,-171.87 966.52,-153.37 958.84,-139.46"/>
<polygon fill="#63b8ff" stroke="#63b8ff" points="962.08,-138.09 954.35,-130.84 955.87,-141.32 962.08,-138.09"/>
</a>
</g>
</g>
<!-- Node25 -->
<g id="Node000025" class="node">
<title>Node25</title>
<g id="a_Node000025"><a xlink:href="../../d4/da9/interface_8h.html" target="_top" xlink:title="Messaging function declarations.">
<polygon fill="white" stroke="#666666" points="844.5,-129 782.5,-129 782.5,-110 844.5,-110 844.5,-129"/>
<text text-anchor="middle" x="813.5" y="-117" font-family="Helvetica,sans-Serif" font-size="10.00">interface.h</text>
</a>
</g>
</g>
<!-- Node1&#45;&gt;Node25 -->
<g id="edge26_Node000001_Node000025" class="edge">
<title>Node1&#45;&gt;Node25</title>
<g id="a_edge26_Node000001_Node000025"><a xlink:title=" ">
<path fill="none" stroke="#63b8ff" d="M1058.41,-219.55C1025.43,-211.79 978.25,-199.41 938.5,-184 902.52,-170.05 863.16,-149.03 838.41,-135.04"/>
<polygon fill="#63b8ff" stroke="#63b8ff" points="840.17,-132.01 829.76,-130.09 836.7,-138.09 840.17,-132.01"/>
</a>
</g>
</g>
<!-- Node26 -->
<g id="Node000026" class="node">
<title>Node26</title>
<g id="a_Node000026"><a xlink:href="../../dd/d49/callbacks_8h.html" target="_top" xlink:title="Callback declarations for main window.">
<polygon fill="white" stroke="#666666" points="1058.5,-129 992.5,-129 992.5,-110 1058.5,-110 1058.5,-129"/>
<text text-anchor="middle" x="1025.5" y="-117" font-family="Helvetica,sans-Serif" font-size="10.00">callbacks.h</text>
</a>
</g>
</g>
<!-- Node1&#45;&gt;Node26 -->
<g id="edge27_Node000001_Node000026" class="edge">
<title>Node1&#45;&gt;Node26</title>
<g id="a_edge27_Node000001_Node000026"><a xlink:title=" ">
<path fill="none" stroke="#63b8ff" d="M1058.06,-220.93C1037.01,-214.76 1013.24,-203.7 1000.5,-184 991.18,-169.59 1000.41,-151.16 1010.18,-137.87"/>
<polygon fill="#63b8ff" stroke="#63b8ff" points="1012.64,-140.4 1016.19,-130.41 1007.19,-136.01 1012.64,-140.4"/>
</a>
</g>
</g>
<!-- Node27 -->
<g id="Node000027" class="node">
<title>Node27</title>
<g id="a_Node000027"><a xlink:href="../../da/dc2/bind_8h.html" target="_top" xlink:title="Binding to the Fortran90 subroutines.">
<polygon fill="white" stroke="#666666" points="906,-129 863,-129 863,-110 906,-110 906,-129"/>
<text text-anchor="middle" x="884.5" y="-117" font-family="Helvetica,sans-Serif" font-size="10.00">bind.h</text>
</a>
</g>
</g>
<!-- Node1&#45;&gt;Node27 -->
<g id="edge28_Node000001_Node000027" class="edge">
<title>Node1&#45;&gt;Node27</title>
<g id="a_edge28_Node000001_Node000027"><a xlink:title=" ">
<path fill="none" stroke="#63b8ff" d="M1065.79,-219.58C1039.54,-211.95 1002.64,-199.73 972.5,-184 946.85,-170.61 920.31,-150.44 903.17,-136.44"/>
<polygon fill="#63b8ff" stroke="#63b8ff" points="905.78,-134.05 895.85,-130.34 901.3,-139.43 905.78,-134.05"/>
</a>
</g>
</g>
<!-- Node28 -->
<g id="Node000028" class="node">
<title>Node28</title>
<g id="a_Node000028"><a xlink:href="../../dc/d8d/project_8h.html" target="_top" xlink:title="Function declarations for reading atomes project file &#160;&#160;Function declarations for saving atomes proje...">
<polygon fill="white" stroke="#666666" points="1130.5,-129 1076.5,-129 1076.5,-110 1130.5,-110 1130.5,-129"/>
<text text-anchor="middle" x="1103.5" y="-117" font-family="Helvetica,sans-Serif" font-size="10.00">project.h</text>
</a>
</g>
</g>
<!-- Node1&#45;&gt;Node28 -->
<g id="edge29_Node000001_Node000028" class="edge">
<title>Node1&#45;&gt;Node28</title>
<g id="a_edge29_Node000001_Node000028"><a xlink:title=" ">
<path fill="none" stroke="#63b8ff" d="M1099.83,-219.66C1100.46,-202.57 1101.87,-164.61 1102.74,-140.92"/>
<polygon fill="#63b8ff" stroke="#63b8ff" points="1106.24,-141.1 1103.11,-130.97 1099.24,-140.84 1106.24,-141.1"/>
</a>
</g>
</g>
<!-- Node29 -->
<g id="Node000029" class="node">
<title>Node29</title>
<g id="a_Node000029"><a xlink:href="../../d4/de6/workspace_8h.html" target="_top" xlink:title="Function declarations for workspace managment.">
<polygon fill="white" stroke="#666666" points="1374.5,-129 1302.5,-129 1302.5,-110 1374.5,-110 1374.5,-129"/>
<text text-anchor="middle" x="1338.5" y="-117" font-family="Helvetica,sans-Serif" font-size="10.00">workspace.h</text>
</a>
</g>
</g>
<!-- Node1&#45;&gt;Node29 -->
<g id="edge30_Node000001_Node000029" class="edge">
<title>Node1&#45;&gt;Node29</title>
<g id="a_edge30_Node000001_Node000029"><a xlink:title=" ">
<path fill="none" stroke="#63b8ff" d="M1139.16,-219.55C1168.74,-212.09 1209.72,-200.09 1243.5,-184 1271.13,-170.84 1299.96,-150.48 1318.51,-136.38"/>
<polygon fill="#63b8ff" stroke="#63b8ff" points="1320.48,-139.27 1326.25,-130.39 1316.2,-133.74 1320.48,-139.27"/>
</a>
</g>
</g>
<!-- Node30 -->
<g id="Node000030" class="node">
<title>Node30</title>
<g id="a_Node000030"><a xlink:href="../../d1/d2a/glwindow_8h.html" target="_top" xlink:title="Function declarations for the creation of the OpenGL window.">
<polygon fill="white" stroke="#666666" points="1214,-129 1149,-129 1149,-110 1214,-110 1214,-129"/>
<text text-anchor="middle" x="1181.5" y="-117" font-family="Helvetica,sans-Serif" font-size="10.00">glwindow.h</text>
</a>
</g>
</g>
<!-- Node1&#45;&gt;Node30 -->
<g id="edge31_Node000001_Node000030" class="edge">
<title>Node1&#45;&gt;Node30</title>
<g id="a_edge31_Node000001_Node000030"><a xlink:title=" ">
<path fill="none" stroke="#63b8ff" d="M1140.97,-222.23C1163.85,-216.43 1190.4,-205.29 1204.5,-184 1213.79,-169.98 1205.45,-151.73 1196.32,-138.4"/>
<polygon fill="#63b8ff" stroke="#63b8ff" points="1199.19,-136.4 1190.37,-130.52 1193.6,-140.61 1199.19,-136.4"/>
</a>
</g>
</g>
<!-- Node31 -->
<g id="Node000031" class="node">
<title>Node31</title>
<g id="a_Node000031"><a xlink:href="../../dc/de3/glview_8h.html" target="_top" xlink:title="Variable declarations related to the OpenGL window &#160;&#160;Function declarations related to the OpenGL wind...">
<polygon fill="white" stroke="#666666" points="1284.5,-129 1232.5,-129 1232.5,-110 1284.5,-110 1284.5,-129"/>
<text text-anchor="middle" x="1258.5" y="-117" font-family="Helvetica,sans-Serif" font-size="10.00">glview.h</text>
</a>
</g>
</g>
<!-- Node1&#45;&gt;Node31 -->
<g id="edge32_Node000001_Node000031" class="edge">
<title>Node1&#45;&gt;Node31</title>
<g id="a_edge32_Node000001_Node000031"><a xlink:title=" ">
<path fill="none" stroke="#63b8ff" d="M1141,-220.88C1166.47,-214.5 1198.5,-203.24 1221.5,-184 1235.57,-172.23 1245.5,-153.66 1251.51,-139.63"/>
<polygon fill="#63b8ff" stroke="#63b8ff" points="1254.67,-141.16 1255.08,-130.58 1248.16,-138.6 1254.67,-141.16"/>
</a>
</g>
</g>
<!-- Node32 -->
<g id="Node000032" class="node">
<title>Node32</title>
<g id="a_Node000032"><a xlink:href="../../d5/d9c/atom__edit_8h.html" target="_top" xlink:title="Function declarations for the mode edition window.">
<polygon fill="white" stroke="#666666" points="1195.5,-184 1127.5,-184 1127.5,-165 1195.5,-165 1195.5,-184"/>
<text text-anchor="middle" x="1161.5" y="-172" font-family="Helvetica,sans-Serif" font-size="10.00">atom_edit.h</text>
</a>
</g>
</g>
<!-- Node1&#45;&gt;Node32 -->
<g id="edge33_Node000001_Node000032" class="edge">
<title>Node1&#45;&gt;Node32</title>
<g id="a_edge33_Node000001_Node000032"><a xlink:title=" ">
<path fill="none" stroke="#63b8ff" d="M1110.02,-219.51C1118.89,-211.93 1131.81,-200.88 1142.49,-191.75"/>
<polygon fill="#63b8ff" stroke="#63b8ff" points="1144.66,-194.5 1149.99,-185.34 1140.11,-189.18 1144.66,-194.5"/>
</a>
</g>
</g>
<!-- Node34 -->
<g id="Node000034" class="node">
<title>Node34</title>
<g id="a_Node000034"><a xlink:href="../../d9/d97/cell__edit_8h.html" target="_top" xlink:title="Function declarations for the cell edition window.">
<polygon fill="white" stroke="#666666" points="1071,-184 1010,-184 1010,-165 1071,-165 1071,-184"/>
<text text-anchor="middle" x="1040.5" y="-172" font-family="Helvetica,sans-Serif" font-size="10.00">cell_edit.h</text>
</a>
</g>
</g>
<!-- Node1&#45;&gt;Node34 -->
<g id="edge43_Node000001_Node000034" class="edge">
<title>Node1&#45;&gt;Node34</title>
<g id="a_edge43_Node000001_Node000034"><a xlink:title=" ">
<path fill="none" stroke="#63b8ff" d="M1089.49,-219.51C1081.13,-212 1069,-201.1 1058.9,-192.03"/>
<polygon fill="#63b8ff" stroke="#63b8ff" points="1061.26,-189.45 1051.49,-185.37 1056.59,-194.66 1061.26,-189.45"/>
</a>
</g>
</g>
<!-- Node35 -->
<g id="Node000035" class="node">
<title>Node35</title>
<g id="a_Node000035"><a xlink:href="../../d1/dfb/readers_8h.html" target="_top" xlink:title="Functions declaration to read atomic coordinates.">
<polygon fill="white" stroke="#666666" points="1623,-184 1566,-184 1566,-165 1623,-165 1623,-184"/>
<text text-anchor="middle" x="1594.5" y="-172" font-family="Helvetica,sans-Serif" font-size="10.00">readers.h</text>
</a>
</g>
</g>
<!-- Node1&#45;&gt;Node35 -->
<g id="edge52_Node000001_Node000035" class="edge">
<title>Node1&#45;&gt;Node35</title>
<g id="a_edge52_Node000001_Node000035"><a xlink:title=" ">
<path fill="none" stroke="#63b8ff" d="M1140.85,-224.07C1234.46,-214.05 1461.6,-189.73 1554.2,-179.82"/>
<polygon fill="#63b8ff" stroke="#63b8ff" points="1554.5,-183.3 1564.07,-178.76 1553.75,-176.34 1554.5,-183.3"/>
</a>
</g>
</g>
<!-- Node3 -->
<g id="Node000003" class="node">
<title>Node3</title>
<g id="a_Node000003"><a xlink:title=" ">
<polygon fill="#e0e0e0" stroke="#999999" points="860.5,-74 820.5,-74 820.5,-55 860.5,-55 860.5,-74"/>
<text text-anchor="middle" x="840.5" y="-62" font-family="Helvetica,sans-Serif" font-size="10.00">glib.h</text>
</a>
</g>
</g>
<!-- Node2&#45;&gt;Node3 -->
<g id="edge2_Node000002_Node000003" class="edge">
<title>Node2&#45;&gt;Node3</title>
<g id="a_edge2_Node000002_Node000003"><a xlink:title=" ">
<path fill="none" stroke="#63b8ff" d="M931.01,-109.51C914,-101.24 888.51,-88.84 868.91,-79.31"/>
<polygon fill="#63b8ff" stroke="#63b8ff" points="870.6,-76.25 860.08,-75.02 867.54,-82.54 870.6,-76.25"/>
</a>
</g>
</g>
<!-- Node4 -->
<g id="Node000004" class="node">
<title>Node4</title>
<g id="a_Node000004"><a xlink:title=" ">
<polygon fill="#e0e0e0" stroke="#999999" points="944.5,-74 878.5,-74 878.5,-55 944.5,-55 944.5,-74"/>
<text text-anchor="middle" x="911.5" y="-62" font-family="Helvetica,sans-Serif" font-size="10.00">glib/gi18n.h</text>
</a>
</g>
</g>
<!-- Node2&#45;&gt;Node4 -->
<g id="edge3_Node000002_Node000004" class="edge">
<title>Node2&#45;&gt;Node4</title>
<g id="a_edge3_Node000002_Node000004"><a xlink:title=" ">
<path fill="none" stroke="#63b8ff" d="M943.23,-109.75C938.14,-102.66 930.8,-92.42 924.47,-83.59"/>
<polygon fill="#63b8ff" stroke="#63b8ff" points="927.46,-81.76 918.79,-75.67 921.78,-85.84 927.46,-81.76"/>
</a>
</g>
</g>
<!-- Node5 -->
<g id="Node000005" class="node">
<title>Node5</title>
<g id="a_Node000005"><a xlink:title=" ">
<polygon fill="#e0e0e0" stroke="#999999" points="1012.5,-74 962.5,-74 962.5,-55 1012.5,-55 1012.5,-74"/>
<text text-anchor="middle" x="987.5" y="-62" font-family="Helvetica,sans-Serif" font-size="10.00">locale.h</text>
</a>
</g>
</g>
<!-- Node2&#45;&gt;Node5 -->
<g id="edge4_Node000002_Node000005" class="edge">
<title>Node2&#45;&gt;Node5</title>
<g id="a_edge4_Node000002_Node000005"><a xlink:title=" ">
<path fill="none" stroke="#63b8ff" d="M955.77,-109.75C960.86,-102.66 968.2,-92.42 974.53,-83.59"/>
<polygon fill="#63b8ff" stroke="#63b8ff" points="977.22,-85.84 980.21,-75.67 971.54,-81.76 977.22,-85.84"/>
</a>
</g>
</g>
<!-- Node6 -->
<g id="Node000006" class="node">
<title>Node6</title>
<g id="a_Node000006"><a xlink:title=" ">
<polygon fill="#e0e0e0" stroke="#999999" points="1082,-74 1031,-74 1031,-55 1082,-55 1082,-74"/>
<text text-anchor="middle" x="1056.5" y="-62" font-family="Helvetica,sans-Serif" font-size="10.00">unistd.h</text>
</a>
</g>
</g>
<!-- Node2&#45;&gt;Node6 -->
<g id="edge5_Node000002_Node000006" class="edge">
<title>Node2&#45;&gt;Node6</title>
<g id="a_edge5_Node000002_Node000006"><a xlink:title=" ">
<path fill="none" stroke="#63b8ff" d="M967.65,-109.51C984.28,-101.27 1009.14,-88.96 1028.35,-79.45"/>
<polygon fill="#63b8ff" stroke="#63b8ff" points="1029.85,-82.6 1037.26,-75.03 1026.75,-76.33 1029.85,-82.6"/>
</a>
</g>
</g>
<!-- Node7 -->
<g id="Node000007" class="node">
<title>Node7</title>
<g id="a_Node000007"><a xlink:title=" ">
<polygon fill="#e0e0e0" stroke="#999999" points="1149,-74 1100,-74 1100,-55 1149,-55 1149,-74"/>
<text text-anchor="middle" x="1124.5" y="-62" font-family="Helvetica,sans-Serif" font-size="10.00">string.h</text>
</a>
</g>
</g>
<!-- Node2&#45;&gt;Node7 -->
<g id="edge6_Node000002_Node000007" class="edge">
<title>Node2&#45;&gt;Node7</title>
<g id="a_edge6_Node000002_Node000007"><a xlink:title=" ">
<path fill="none" stroke="#63b8ff" d="M974.95,-110.79C1004.93,-101.71 1054.93,-86.57 1088.78,-76.32"/>
<polygon fill="#63b8ff" stroke="#63b8ff" points="1089.58,-79.73 1098.14,-73.48 1087.56,-73.03 1089.58,-79.73"/>
</a>
</g>
</g>
<!-- Node8 -->
<g id="Node000008" class="node">
<title>Node8</title>
<g id="a_Node000008"><a xlink:title=" ">
<polygon fill="#e0e0e0" stroke="#999999" points="1213.5,-19 1167.5,-19 1167.5,0 1213.5,0 1213.5,-19"/>
<text text-anchor="middle" x="1190.5" y="-7" font-family="Helvetica,sans-Serif" font-size="10.00">stdio.h</text>
</a>
</g>
</g>
<!-- Node2&#45;&gt;Node8 -->
<g id="edge7_Node000002_Node000008" class="edge">
<title>Node2&#45;&gt;Node8</title>
<g id="a_edge7_Node000002_Node000008"><a xlink:title=" ">
<path fill="none" stroke="#63b8ff" d="M974.72,-112.07C977.68,-111.36 980.65,-110.65 983.5,-110 1060.49,-92.42 1094.53,-121.65 1157.5,-74 1171.74,-63.22 1180.39,-44.53 1185.24,-30.2"/>
<polygon fill="#63b8ff" stroke="#63b8ff" points="1188.51,-31.5 1188.03,-20.92 1181.8,-29.49 1188.51,-31.5"/>
</a>
</g>
</g>
<!-- Node9 -->
<g id="Node000009" class="node">
<title>Node9</title>
<g id="a_Node000009"><a xlink:title=" ">
<polygon fill="#e0e0e0" stroke="#999999" points="1371.5,-74 1323.5,-74 1323.5,-55 1371.5,-55 1371.5,-74"/>
<text text-anchor="middle" x="1347.5" y="-62" font-family="Helvetica,sans-Serif" font-size="10.00">stdlib.h</text>
</a>
</g>
</g>
<!-- Node2&#45;&gt;Node9 -->
<g id="edge8_Node000002_Node000009" class="edge">
<title>Node2&#45;&gt;Node9</title>
<g id="a_edge8_Node000002_Node000009"><a xlink:title=" ">
<path fill="none" stroke="#63b8ff" d="M974.67,-111.81C977.63,-111.14 980.63,-110.52 983.5,-110 1126.98,-84.26 1165.71,-97.95 1309.5,-74 1310.33,-73.86 1311.16,-73.72 1312,-73.57"/>
<polygon fill="#63b8ff" stroke="#63b8ff" points="1312.43,-77.05 1321.56,-71.68 1311.07,-70.18 1312.43,-77.05"/>
</a>
</g>
</g>
<!-- Node10 -->
<g id="Node000010" class="node">
<title>Node10</title>
<g id="a_Node000010"><a xlink:title=" ">
<polygon fill="#e0e0e0" stroke="#999999" points="1457.5,-74 1389.5,-74 1389.5,-55 1457.5,-55 1457.5,-74"/>
<text text-anchor="middle" x="1423.5" y="-62" font-family="Helvetica,sans-Serif" font-size="10.00">sys/types.h</text>
</a>
</g>
</g>
<!-- Node2&#45;&gt;Node10 -->
<g id="edge9_Node000002_Node000010" class="edge">
<title>Node2&#45;&gt;Node10</title>
<g id="a_edge9_Node000002_Node000010"><a xlink:title=" ">
<path fill="none" stroke="#63b8ff" d="M974.66,-111.75C977.63,-111.09 980.62,-110.49 983.5,-110 1154.6,-81.03 1203.16,-98.46 1378.13,-74.18"/>
<polygon fill="#63b8ff" stroke="#63b8ff" points="1378.38,-77.68 1387.79,-72.81 1377.4,-70.75 1378.38,-77.68"/>
</a>
</g>
</g>
<!-- Node11 -->
<g id="Node000011" class="node">
<title>Node11</title>
<g id="a_Node000011"><a xlink:title=" ">
<polygon fill="#e0e0e0" stroke="#999999" points="1535.5,-74 1475.5,-74 1475.5,-55 1535.5,-55 1535.5,-74"/>
<text text-anchor="middle" x="1505.5" y="-62" font-family="Helvetica,sans-Serif" font-size="10.00">sys/stat.h</text>
</a>
</g>
</g>
<!-- Node2&#45;&gt;Node11 -->
<g id="edge10_Node000002_Node000011" class="edge">
<title>Node2&#45;&gt;Node11</title>
<g id="a_edge10_Node000002_Node000011"><a xlink:title=" ">
<path fill="none" stroke="#63b8ff" d="M974.65,-111.7C977.62,-111.05 980.62,-110.46 983.5,-110 1192.39,-76.36 1251.47,-104.02 1464.11,-74.12"/>
<polygon fill="#63b8ff" stroke="#63b8ff" points="1464.44,-77.61 1473.84,-72.73 1463.45,-70.68 1464.44,-77.61"/>
</a>
</g>
</g>
<!-- Node12 -->
<g id="Node000012" class="node">
<title>Node12</title>
<g id="a_Node000012"><a xlink:title=" ">
<polygon fill="#e0e0e0" stroke="#999999" points="1305,-19 1258,-19 1258,0 1305,0 1305,-19"/>
<text text-anchor="middle" x="1281.5" y="-7" font-family="Helvetica,sans-Serif" font-size="10.00">math.h</text>
</a>
</g>
</g>
<!-- Node2&#45;&gt;Node12 -->
<g id="edge11_Node000002_Node000012" class="edge">
<title>Node2&#45;&gt;Node12</title>
<g id="a_edge11_Node000002_Node000012"><a xlink:title=" ">
<path fill="none" stroke="#63b8ff" d="M974.68,-111.84C977.64,-111.17 980.63,-110.53 983.5,-110 1048,-98.02 1231.14,-121.39 1276.5,-74 1287.38,-62.63 1287.71,-44.28 1285.86,-30.22"/>
<polygon fill="#63b8ff" stroke="#63b8ff" points="1289.37,-29.96 1284.14,-20.74 1282.48,-31.21 1289.37,-29.96"/>
</a>
</g>
</g>
<!-- Node13 -->
<g id="Node000013" class="node">
<title>Node13</title>
<g id="a_Node000013"><a xlink:title=" ">
<polygon fill="#e0e0e0" stroke="#999999" points="1609,-74 1554,-74 1554,-55 1609,-55 1609,-74"/>
<text text-anchor="middle" x="1581.5" y="-62" font-family="Helvetica,sans-Serif" font-size="10.00">gtk/gtk.h</text>
</a>
</g>
</g>
<!-- Node2&#45;&gt;Node13 -->
<g id="edge12_Node000002_Node000013" class="edge">
<title>Node2&#45;&gt;Node13</title>
<g id="a_edge12_Node000002_Node000013"><a xlink:title=" ">
<path fill="none" stroke="#63b8ff" d="M974.65,-111.67C977.62,-111.03 980.61,-110.45 983.5,-110 1226.75,-72.11 1295.28,-108.98 1542.56,-74"/>
<polygon fill="#63b8ff" stroke="#63b8ff" points="1542.81,-77.5 1552.21,-72.61 1541.82,-70.57 1542.81,-77.5"/>
</a>
</g>
</g>
<!-- Node14 -->
<g id="Node000014" class="node">
<title>Node14</title>
<g id="a_Node000014"><a xlink:title=" ">
<polygon fill="#e0e0e0" stroke="#999999" points="59,-74 0,-74 0,-55 59,-55 59,-74"/>
<text text-anchor="middle" x="29.5" y="-62" font-family="Helvetica,sans-Serif" font-size="10.00">gdk/gdk.h</text>
</a>
</g>
</g>
<!-- Node2&#45;&gt;Node14 -->
<g id="edge13_Node000002_Node000014" class="edge">
<title>Node2&#45;&gt;Node14</title>
<g id="a_edge13_Node000002_Node000014"><a xlink:title=" ">
<path fill="none" stroke="#63b8ff" d="M924.38,-111.78C921.08,-111.08 917.72,-110.45 914.5,-110 545.16,-57.82 443.08,-122.01 70.66,-74.17"/>
<polygon fill="#63b8ff" stroke="#63b8ff" points="71.15,-70.71 60.78,-72.88 70.24,-77.65 71.15,-70.71"/>
</a>
</g>
</g>
<!-- Node15 -->
<g id="Node000015" class="node">
<title>Node15</title>
<g id="a_Node000015"><a xlink:title=" ">
<polygon fill="#e0e0e0" stroke="#999999" points="176,-74 77,-74 77,-55 176,-55 176,-74"/>
<text text-anchor="middle" x="126.5" y="-62" font-family="Helvetica,sans-Serif" font-size="10.00">gdk/gdkkeysyms.h</text>
</a>
</g>
</g>
<!-- Node2&#45;&gt;Node15 -->
<g id="edge14_Node000002_Node000015" class="edge">
<title>Node2&#45;&gt;Node15</title>
<g id="a_edge14_Node000002_Node000015"><a xlink:title=" ">
<path fill="none" stroke="#63b8ff" d="M924.38,-111.8C921.07,-111.09 917.72,-110.47 914.5,-110 597.06,-64.04 510.33,-104.24 187.45,-74.07"/>
<polygon fill="#63b8ff" stroke="#63b8ff" points="188.15,-70.62 177.86,-73.16 187.48,-77.59 188.15,-70.62"/>
</a>
</g>
</g>
<!-- Node16 -->
<g id="Node000016" class="node">
<title>Node16</title>
<g id="a_Node000016"><a xlink:title=" ">
<polygon fill="#e0e0e0" stroke="#999999" points="312.5,-74 194.5,-74 194.5,-55 312.5,-55 312.5,-74"/>
<text text-anchor="middle" x="253.5" y="-62" font-family="Helvetica,sans-Serif" font-size="10.00">gdk&#45;pixbuf/gdk&#45;pixbuf.h</text>
</a>
</g>
</g>
<!-- Node2&#45;&gt;Node16 -->
<g id="edge15_Node000002_Node000016" class="edge">
<title>Node2&#45;&gt;Node16</title>
<g id="a_edge15_Node000002_Node000016"><a xlink:title=" ">
<path fill="none" stroke="#63b8ff" d="M924.37,-111.83C921.07,-111.12 917.72,-110.48 914.5,-110 657.1,-71.25 586.4,-97.62 324.23,-74.18"/>
<polygon fill="#63b8ff" stroke="#63b8ff" points="324.6,-70.7 314.32,-73.28 323.96,-77.67 324.6,-70.7"/>
</a>
</g>
</g>
<!-- Node17 -->
<g id="Node000017" class="node">
<title>Node17</title>
<g id="a_Node000017"><a xlink:title=" ">
<polygon fill="#e0e0e0" stroke="#999999" points="422.5,-74 330.5,-74 330.5,-55 422.5,-55 422.5,-74"/>
<text text-anchor="middle" x="376.5" y="-62" font-family="Helvetica,sans-Serif" font-size="10.00">pango/pangoft2.h</text>
</a>
</g>
</g>
<!-- Node2&#45;&gt;Node17 -->
<g id="edge16_Node000002_Node000017" class="edge">
<title>Node2&#45;&gt;Node17</title>
<g id="a_edge16_Node000002_Node000017"><a xlink:title=" ">
<path fill="none" stroke="#63b8ff" d="M924.36,-111.87C921.06,-111.16 917.71,-110.51 914.5,-110 705.5,-77.06 647.34,-97.72 434.23,-74.21"/>
<polygon fill="#63b8ff" stroke="#63b8ff" points="434.81,-70.76 424.48,-73.12 434.03,-77.71 434.81,-70.76"/>
</a>
</g>
</g>
<!-- Node18 -->
<g id="Node000018" class="node">
<title>Node18</title>
<g id="a_Node000018"><a xlink:title=" ">
<polygon fill="#e0e0e0" stroke="#999999" points="502.5,-74 440.5,-74 440.5,-55 502.5,-55 502.5,-74"/>
<text text-anchor="middle" x="471.5" y="-62" font-family="Helvetica,sans-Serif" font-size="10.00">epoxy/gl.h</text>
</a>
</g>
</g>
<!-- Node2&#45;&gt;Node18 -->
<g id="edge17_Node000002_Node000018" class="edge">
<title>Node2&#45;&gt;Node18</title>
<g id="a_edge17_Node000002_Node000018"><a xlink:title=" ">
<path fill="none" stroke="#63b8ff" d="M924.36,-111.92C921.06,-111.2 917.71,-110.53 914.5,-110 740.72,-81.3 691.34,-99.94 514.18,-74.22"/>
<polygon fill="#63b8ff" stroke="#63b8ff" points="514.78,-70.77 504.38,-72.76 513.75,-77.69 514.78,-70.77"/>
</a>
</g>
</g>
<!-- Node19 -->
<g id="Node000019" class="node">
<title>Node19</title>
<g id="a_Node000019"><a xlink:title=" ">
<polygon fill="#e0e0e0" stroke="#999999" points="574,-74 521,-74 521,-55 574,-55 574,-74"/>
<text text-anchor="middle" x="547.5" y="-62" font-family="Helvetica,sans-Serif" font-size="10.00">GL/glu.h</text>
</a>
</g>
</g>
<!-- Node2&#45;&gt;Node19 -->
<g id="edge18_Node000002_Node000019" class="edge">
<title>Node2&#45;&gt;Node19</title>
<g id="a_edge18_Node000002_Node000019"><a xlink:title=" ">
<path fill="none" stroke="#63b8ff" d="M924.35,-111.98C921.05,-111.24 917.7,-110.56 914.5,-110 771.87,-85.06 730.7,-98.85 585.29,-74.28"/>
<polygon fill="#63b8ff" stroke="#63b8ff" points="586.12,-70.87 575.67,-72.62 584.93,-77.77 586.12,-70.87"/>
</a>
</g>
</g>
<!-- Node20 -->
<g id="Node000020" class="node">
<title>Node20</title>
<g id="a_Node000020"><a xlink:title=" ">
<polygon fill="#e0e0e0" stroke="#999999" points="659,-74 592,-74 592,-55 659,-55 659,-74"/>
<text text-anchor="middle" x="625.5" y="-62" font-family="Helvetica,sans-Serif" font-size="10.00">epoxy/glx.h</text>
</a>
</g>
</g>
<!-- Node2&#45;&gt;Node20 -->
<g id="edge19_Node000002_Node000020" class="edge">
<title>Node2&#45;&gt;Node20</title>
<g id="a_edge19_Node000002_Node000020"><a xlink:title=" ">
<path fill="none" stroke="#63b8ff" d="M924.33,-112.09C921.03,-111.34 917.69,-110.62 914.5,-110 809.1,-89.57 778.74,-92.77 670.48,-74.43"/>
<polygon fill="#63b8ff" stroke="#63b8ff" points="671.34,-71.03 660.89,-72.78 670.15,-77.93 671.34,-71.03"/>
</a>
</g>
</g>
<!-- Node21 -->
<g id="Node000021" class="node">
<title>Node21</title>
<g id="a_Node000021"><a xlink:href="../../dc/db0/math__3d_8h.html" target="_top" xlink:title="Functions for OpenGL math.">
<polygon fill="white" stroke="#666666" points="1267.5,-74 1205.5,-74 1205.5,-55 1267.5,-55 1267.5,-74"/>
<text text-anchor="middle" x="1236.5" y="-62" font-family="Helvetica,sans-Serif" font-size="10.00">math_3d.h</text>
</a>
</g>
</g>
<!-- Node2&#45;&gt;Node21 -->
<g id="edge20_Node000002_Node000021" class="edge">
<title>Node2&#45;&gt;Node21</title>
<g id="a_edge20_Node000002_Node000021"><a xlink:title=" ">
<path fill="none" stroke="#63b8ff" d="M974.7,-111.98C977.66,-111.28 980.64,-110.6 983.5,-110 1075.29,-90.61 1099.18,-90.71 1191.5,-74 1192.32,-73.85 1193.15,-73.7 1193.99,-73.55"/>
<polygon fill="#63b8ff" stroke="#63b8ff" points="1194.35,-77.04 1203.55,-71.78 1193.08,-70.16 1194.35,-77.04"/>
</a>
</g>
</g>
<!-- Node22 -->
<g id="Node000022" class="node">
<title>Node22</title>
<g id="a_Node000022"><a xlink:href="../../da/d7e/glwin_8h.html" target="_top" xlink:title="Variable declarations related the OpenGL window &#160;&#160;Data structure declarations related the OpenGL wind...">
<polygon fill="white" stroke="#666666" points="724,-74 677,-74 677,-55 724,-55 724,-74"/>
<text text-anchor="middle" x="700.5" y="-62" font-family="Helvetica,sans-Serif" font-size="10.00">glwin.h</text>
</a>
</g>
</g>
<!-- Node2&#45;&gt;Node22 -->
<g id="edge23_Node000002_Node000022" class="edge">
<title>Node2&#45;&gt;Node22</title>
<g id="a_edge23_Node000002_Node000022"><a xlink:title=" ">
<path fill="none" stroke="#63b8ff" d="M924.29,-112.25C921,-111.47 917.68,-110.7 914.5,-110 837.85,-93.08 815.38,-92.28 735.39,-74.31"/>
<polygon fill="#63b8ff" stroke="#63b8ff" points="736.26,-70.92 725.73,-72.12 734.71,-77.75 736.26,-70.92"/>
</a>
</g>
</g>
<!-- Node24 -->
<g id="Node000024" class="node">
<title>Node24</title>
<g id="a_Node000024"><a xlink:title=" ">
<polygon fill="#e0e0e0" stroke="#999999" points="802.5,-74 742.5,-74 742.5,-55 802.5,-55 802.5,-74"/>
<text text-anchor="middle" x="772.5" y="-62" font-family="Helvetica,sans-Serif" font-size="10.00">gtk/gtkx.h</text>
</a>
</g>
</g>
<!-- Node2&#45;&gt;Node24 -->
<g id="edge25_Node000002_Node000024" class="edge">
<title>Node2&#45;&gt;Node24</title>
<g id="a_edge25_Node000002_Node000024"><a xlink:title=" ">
<path fill="none" stroke="#63b8ff" d="M924.14,-110.91C895.28,-102.27 847.74,-88.03 813.58,-77.8"/>
<polygon fill="#63b8ff" stroke="#63b8ff" points="814.58,-74.45 804,-74.93 812.58,-81.15 814.58,-74.45"/>
</a>
</g>
</g>
<!-- Node21&#45;&gt;Node8 -->
<g id="edge22_Node000021_Node000008" class="edge">
<title>Node21&#45;&gt;Node8</title>
<g id="a_edge22_Node000021_Node000008"><a xlink:title=" ">
<path fill="none" stroke="#63b8ff" d="M1228.9,-54.75C1222.62,-47.5 1213.49,-36.98 1205.7,-28.02"/>
<polygon fill="#63b8ff" stroke="#63b8ff" points="1208.45,-25.84 1199.25,-20.59 1203.16,-30.43 1208.45,-25.84"/>
</a>
</g>
</g>
<!-- Node21&#45;&gt;Node12 -->
<g id="edge21_Node000021_Node000012" class="edge">
<title>Node21&#45;&gt;Node12</title>
<g id="a_edge21_Node000021_Node000012"><a xlink:title=" ">
<path fill="none" stroke="#63b8ff" d="M1243.93,-54.75C1250.08,-47.5 1259.01,-36.98 1266.63,-28.02"/>
<polygon fill="#63b8ff" stroke="#63b8ff" points="1269.12,-30.48 1272.93,-20.6 1263.79,-25.95 1269.12,-30.48"/>
</a>
</g>
</g>
<!-- Node23 -->
<g id="Node000023" class="node">
<title>Node23</title>
<g id="a_Node000023"><a xlink:href="../../d5/d9e/ogl__shading_8h.html" target="_top" xlink:title="Variable declarations related to GLSL programs &#160;&#160;Data structure declarations related to GLSL programs...">
<polygon fill="white" stroke="#666666" points="739,-19 662,-19 662,0 739,0 739,-19"/>
<text text-anchor="middle" x="700.5" y="-7" font-family="Helvetica,sans-Serif" font-size="10.00">ogl_shading.h</text>
</a>
</g>
</g>
<!-- Node22&#45;&gt;Node23 -->
<g id="edge24_Node000022_Node000023" class="edge">
<title>Node22&#45;&gt;Node23</title>
<g id="a_edge24_Node000022_Node000023"><a xlink:title=" ">
<path fill="none" stroke="#63b8ff" d="M700.5,-54.75C700.5,-48.27 700.5,-39.16 700.5,-30.9"/>
<polygon fill="#63b8ff" stroke="#63b8ff" points="704,-30.96 700.5,-20.96 697,-30.96 704,-30.96"/>
</a>
</g>
</g>
<!-- Node32&#45;&gt;Node2 -->
<g id="edge34_Node000032_Node000002" class="edge">
<title>Node32&#45;&gt;Node2</title>
<g id="a_edge34_Node000032_Node000002"><a xlink:title=" ">
<path fill="none" stroke="#63b8ff" d="M1127.44,-164.98C1088.66,-155.29 1025.57,-139.52 985.86,-129.59"/>
<polygon fill="#63b8ff" stroke="#63b8ff" points="986.85,-126.23 976.3,-127.2 985.15,-133.02 986.85,-126.23"/>
</a>
</g>
</g>
<!-- Node32&#45;&gt;Node25 -->
<g id="edge37_Node000032_Node000025" class="edge">
<title>Node32&#45;&gt;Node25</title>
<g id="a_edge37_Node000032_Node000025"><a xlink:title=" ">
<path fill="none" stroke="#63b8ff" d="M1127.2,-169.29C1072.14,-162.38 960.41,-147.69 855.96,-129.34"/>
<polygon fill="#63b8ff" stroke="#63b8ff" points="856.85,-125.94 846.39,-127.64 855.63,-132.83 856.85,-125.94"/>
</a>
</g>
</g>
<!-- Node32&#45;&gt;Node26 -->
<g id="edge36_Node000032_Node000026" class="edge">
<title>Node32&#45;&gt;Node26</title>
<g id="a_edge36_Node000032_Node000026"><a xlink:title=" ">
<path fill="none" stroke="#63b8ff" d="M1138.43,-164.51C1116.61,-156.01 1083.62,-143.15 1058.92,-133.53"/>
<polygon fill="#63b8ff" stroke="#63b8ff" points="1060.23,-130.28 1049.64,-129.91 1057.69,-136.8 1060.23,-130.28"/>
</a>
</g>
</g>
<!-- Node32&#45;&gt;Node27 -->
<g id="edge35_Node000032_Node000027" class="edge">
<title>Node32&#45;&gt;Node27</title>
<g id="a_edge35_Node000032_Node000027"><a xlink:title=" ">
<path fill="none" stroke="#63b8ff" d="M1127.08,-168.26C1081.39,-161.09 997.98,-147.27 917.3,-129.23"/>
<polygon fill="#63b8ff" stroke="#63b8ff" points="918.46,-125.91 907.93,-127.11 916.91,-132.73 918.46,-125.91"/>
</a>
</g>
</g>
<!-- Node32&#45;&gt;Node28 -->
<g id="edge41_Node000032_Node000028" class="edge">
<title>Node32&#45;&gt;Node28</title>
<g id="a_edge41_Node000032_Node000028"><a xlink:title=" ">
<path fill="none" stroke="#63b8ff" d="M1151.66,-164.51C1143.45,-157 1131.52,-146.1 1121.59,-137.03"/>
<polygon fill="#63b8ff" stroke="#63b8ff" points="1124.05,-134.54 1114.31,-130.38 1119.33,-139.71 1124.05,-134.54"/>
</a>
</g>
</g>
<!-- Node32&#45;&gt;Node29 -->
<g id="edge42_Node000032_Node000029" class="edge">
<title>Node32&#45;&gt;Node29</title>
<g id="a_edge42_Node000032_Node000029"><a xlink:title=" ">
<path fill="none" stroke="#63b8ff" d="M1191.53,-164.51C1220.73,-155.76 1265.31,-142.42 1297.71,-132.71"/>
<polygon fill="#63b8ff" stroke="#63b8ff" points="1298.6,-136.1 1307.17,-129.88 1296.59,-129.4 1298.6,-136.1"/>
</a>
</g>
</g>
<!-- Node32&#45;&gt;Node30 -->
<g id="edge40_Node000032_Node000030" class="edge">
<title>Node32&#45;&gt;Node30</title>
<g id="a_edge40_Node000032_Node000030"><a xlink:title=" ">
<path fill="none" stroke="#63b8ff" d="M1164.8,-164.75C1167.33,-158.04 1170.93,-148.52 1174.13,-140.02"/>
<polygon fill="#63b8ff" stroke="#63b8ff" points="1177.34,-141.45 1177.59,-130.86 1170.79,-138.98 1177.34,-141.45"/>
</a>
</g>
</g>
<!-- Node32&#45;&gt;Node31 -->
<g id="edge39_Node000032_Node000031" class="edge">
<title>Node32&#45;&gt;Node31</title>
<g id="a_edge39_Node000032_Node000031"><a xlink:title=" ">
<path fill="none" stroke="#63b8ff" d="M1177.95,-164.51C1192.82,-156.39 1214.94,-144.3 1232.25,-134.85"/>
<polygon fill="#63b8ff" stroke="#63b8ff" points="1233.86,-137.95 1240.96,-130.08 1230.51,-131.81 1233.86,-137.95"/>
</a>
</g>
</g>
<!-- Node33 -->
<g id="Node000033" class="node">
<title>Node33</title>
<g id="a_Node000033"><a xlink:href="../../d6/d75/initcoord_8h.html" target="_top" xlink:title="Function declarations to handle the atomic coordination data.">
<polygon fill="white" stroke="#666666" points="1454.5,-129 1392.5,-129 1392.5,-110 1454.5,-110 1454.5,-129"/>
<text text-anchor="middle" x="1423.5" y="-117" font-family="Helvetica,sans-Serif" font-size="10.00">initcoord.h</text>
</a>
</g>
</g>
<!-- Node32&#45;&gt;Node33 -->
<g id="edge38_Node000032_Node000033" class="edge">
<title>Node32&#45;&gt;Node33</title>
<g id="a_edge38_Node000032_Node000033"><a xlink:title=" ">
<path fill="none" stroke="#63b8ff" d="M1195.75,-166.76C1237.25,-158.57 1309.59,-144.2 1381.07,-129.48"/>
<polygon fill="#63b8ff" stroke="#63b8ff" points="1381.5,-132.97 1390.58,-127.52 1380.08,-126.11 1381.5,-132.97"/>
</a>
</g>
</g>
<!-- Node34&#45;&gt;Node2 -->
<g id="edge44_Node000034_Node000002" class="edge">
<title>Node34&#45;&gt;Node2</title>
<g id="a_edge44_Node000034_Node000002"><a xlink:title=" ">
<path fill="none" stroke="#63b8ff" d="M1025.06,-164.51C1011.25,-156.47 990.75,-144.53 974.59,-135.11"/>
<polygon fill="#63b8ff" stroke="#63b8ff" points="976.42,-132.13 966.02,-130.12 972.9,-138.18 976.42,-132.13"/>
</a>
</g>
</g>
<!-- Node34&#45;&gt;Node25 -->
<g id="edge47_Node000034_Node000025" class="edge">
<title>Node34&#45;&gt;Node25</title>
<g id="a_edge47_Node000034_Node000025"><a xlink:title=" ">
<path fill="none" stroke="#63b8ff" d="M1009.89,-166.35C970.14,-157.07 900.58,-140.83 855.81,-130.38"/>
<polygon fill="#63b8ff" stroke="#63b8ff" points="856.73,-127 846.19,-128.13 855.14,-133.82 856.73,-127"/>
</a>
</g>
</g>
<!-- Node34&#45;&gt;Node26 -->
<g id="edge46_Node000034_Node000026" class="edge">
<title>Node34&#45;&gt;Node26</title>
<g id="a_edge46_Node000034_Node000026"><a xlink:title=" ">
<path fill="none" stroke="#63b8ff" d="M1038.02,-164.75C1036.15,-158.11 1033.49,-148.73 1031.11,-140.31"/>
<polygon fill="#63b8ff" stroke="#63b8ff" points="1034.53,-139.57 1028.44,-130.9 1027.8,-141.47 1034.53,-139.57"/>
</a>
</g>
</g>
<!-- Node34&#45;&gt;Node27 -->
<g id="edge45_Node000034_Node000027" class="edge">
<title>Node34&#45;&gt;Node27</title>
<g id="a_edge45_Node000034_Node000027"><a xlink:title=" ">
<path fill="none" stroke="#63b8ff" d="M1014.04,-164.51C987.18,-155.38 945.56,-141.24 916.78,-131.47"/>
<polygon fill="#63b8ff" stroke="#63b8ff" points="918.09,-128.21 907.49,-128.31 915.84,-134.84 918.09,-128.21"/>
</a>
</g>
</g>
<!-- Node34&#45;&gt;Node28 -->
<g id="edge48_Node000034_Node000028" class="edge">
<title>Node34&#45;&gt;Node28</title>
<g id="a_edge48_Node000034_Node000028"><a xlink:title=" ">
<path fill="none" stroke="#63b8ff" d="M1051.19,-164.51C1060.2,-156.93 1073.33,-145.88 1084.18,-136.75"/>
<polygon fill="#63b8ff" stroke="#63b8ff" points="1086.41,-139.45 1091.81,-130.33 1081.91,-134.09 1086.41,-139.45"/>
</a>
</g>
</g>
<!-- Node34&#45;&gt;Node29 -->
<g id="edge49_Node000034_Node000029" class="edge">
<title>Node34&#45;&gt;Node29</title>
<g id="a_edge49_Node000034_Node000029"><a xlink:title=" ">
<path fill="none" stroke="#63b8ff" d="M1071.29,-168.21C1116.94,-160.35 1205.58,-144.97 1290.95,-129.45"/>
<polygon fill="#63b8ff" stroke="#63b8ff" points="1291.46,-132.91 1300.67,-127.68 1290.2,-126.03 1291.46,-132.91"/>
</a>
</g>
</g>
<!-- Node34&#45;&gt;Node30 -->
<g id="edge51_Node000034_Node000030" class="edge">
<title>Node34&#45;&gt;Node30</title>
<g id="a_edge51_Node000034_Node000030"><a xlink:title=" ">
<path fill="none" stroke="#63b8ff" d="M1064.42,-164.51C1087.14,-155.97 1121.55,-143.03 1147.19,-133.4"/>
<polygon fill="#63b8ff" stroke="#63b8ff" points="1148.39,-136.69 1156.52,-129.89 1145.93,-130.13 1148.39,-136.69"/>
</a>
</g>
</g>
<!-- Node34&#45;&gt;Node31 -->
<g id="edge50_Node000034_Node000031" class="edge">
<title>Node34&#45;&gt;Node31</title>
<g id="a_edge50_Node000034_Node000031"><a xlink:title=" ">
<path fill="none" stroke="#63b8ff" d="M1071.27,-166.02C1110.73,-156.43 1179.09,-139.81 1221.39,-129.52"/>
<polygon fill="#63b8ff" stroke="#63b8ff" points="1221.96,-132.99 1230.85,-127.22 1220.31,-126.18 1221.96,-132.99"/>
</a>
</g>
</g>
<!-- Node36 -->
<g id="Node000036" class="node">
<title>Node36</title>
<g id="a_Node000036"><a xlink:href="../../dc/d50/read__isaacs_8h.html" target="_top" xlink:title="Function declarations to read / write ISAACS XML file.">
<polygon fill="white" stroke="#666666" points="1810,-129 1733,-129 1733,-110 1810,-110 1810,-129"/>
<text text-anchor="middle" x="1771.5" y="-117" font-family="Helvetica,sans-Serif" font-size="10.00">read_isaacs.h</text>
</a>
</g>
</g>
<!-- Node35&#45;&gt;Node36 -->
<g id="edge53_Node000035_Node000036" class="edge">
<title>Node35&#45;&gt;Node36</title>
<g id="a_edge53_Node000035_Node000036"><a xlink:title=" ">
<path fill="none" stroke="#63b8ff" d="M1623.33,-164.87C1652.55,-156.12 1698.01,-142.5 1730.88,-132.66"/>
<polygon fill="#63b8ff" stroke="#63b8ff" points="1731.47,-136.14 1740.05,-129.92 1729.46,-129.43 1731.47,-136.14"/>
</a>
</g>
</g>
<!-- Node37 -->
<g id="Node000037" class="node">
<title>Node37</title>
<g id="a_Node000037"><a xlink:title=" ">
<polygon fill="#e0e0e0" stroke="#999999" points="1817.5,-74 1725.5,-74 1725.5,-55 1817.5,-55 1817.5,-74"/>
<text text-anchor="middle" x="1771.5" y="-62" font-family="Helvetica,sans-Serif" font-size="10.00">libxml/encoding.h</text>
</a>
</g>
</g>
<!-- Node36&#45;&gt;Node37 -->
<g id="edge54_Node000036_Node000037" class="edge">
<title>Node36&#45;&gt;Node37</title>
<g id="a_edge54_Node000036_Node000037"><a xlink:title=" ">
<path fill="none" stroke="#63b8ff" d="M1771.5,-109.75C1771.5,-103.27 1771.5,-94.16 1771.5,-85.9"/>
<polygon fill="#63b8ff" stroke="#63b8ff" points="1775,-85.96 1771.5,-75.96 1768,-85.96 1775,-85.96"/>
</a>
</g>
</g>
<!-- Node38 -->
<g id="Node000038" class="node">
<title>Node38</title>
<g id="a_Node000038"><a xlink:title=" ">
<polygon fill="#e0e0e0" stroke="#999999" points="1929,-74 1836,-74 1836,-55 1929,-55 1929,-74"/>
<text text-anchor="middle" x="1882.5" y="-62" font-family="Helvetica,sans-Serif" font-size="10.00">libxml/xmlwriter.h</text>
</a>
</g>
</g>
<!-- Node36&#45;&gt;Node38 -->
<g id="edge55_Node000036_Node000038" class="edge">
<title>Node36&#45;&gt;Node38</title>
<g id="a_edge55_Node000036_Node000038"><a xlink:title=" ">
<path fill="none" stroke="#63b8ff" d="M1790.33,-109.51C1807.66,-101.24 1833.61,-88.84 1853.57,-79.31"/>
<polygon fill="#63b8ff" stroke="#63b8ff" points="1855.07,-82.48 1862.58,-75.01 1852.05,-76.16 1855.07,-82.48"/>
</a>
</g>
</g>
<!-- Node39 -->
<g id="Node000039" class="node">
<title>Node39</title>
<g id="a_Node000039"><a xlink:title=" ">
<polygon fill="#e0e0e0" stroke="#999999" points="2043.5,-74 1947.5,-74 1947.5,-55 2043.5,-55 2043.5,-74"/>
<text text-anchor="middle" x="1995.5" y="-62" font-family="Helvetica,sans-Serif" font-size="10.00">libxml/xmlreader.h</text>
</a>
</g>
</g>
<!-- Node36&#45;&gt;Node39 -->
<g id="edge56_Node000036_Node000039" class="edge">
<title>Node36&#45;&gt;Node39</title>
<g id="a_edge56_Node000036_Node000039"><a xlink:title=" ">
<path fill="none" stroke="#63b8ff" d="M1809.5,-109.51C1847.26,-100.57 1905.35,-86.83 1946.55,-77.08"/>
<polygon fill="#63b8ff" stroke="#63b8ff" points="1947.29,-80.5 1956.22,-74.79 1945.68,-73.69 1947.29,-80.5"/>
</a>
</g>
</g>
<!-- Node40 -->
<g id="Node000040" class="node">
<title>Node40</title>
<g id="a_Node000040"><a xlink:title=" ">
<polygon fill="#e0e0e0" stroke="#999999" points="1707.5,-74 1627.5,-74 1627.5,-55 1707.5,-55 1707.5,-74"/>
<text text-anchor="middle" x="1667.5" y="-62" font-family="Helvetica,sans-Serif" font-size="10.00">libxml/parser.h</text>
</a>
</g>
</g>
<!-- Node36&#45;&gt;Node40 -->
<g id="edge57_Node000036_Node000040" class="edge">
<title>Node36&#45;&gt;Node40</title>
<g id="a_edge57_Node000036_Node000040"><a xlink:title=" ">
<path fill="none" stroke="#63b8ff" d="M1753.86,-109.51C1737.77,-101.31 1713.75,-89.07 1695.13,-79.58"/>
<polygon fill="#63b8ff" stroke="#63b8ff" points="1696.73,-76.47 1686.23,-75.05 1693.55,-82.7 1696.73,-76.47"/>
</a>
</g>
</g>
</g>
</svg>

<g id="navigator" transform="translate(0 0)" fill="#404254">
  <rect fill="#f2f5e9" fill-opacity="0.5" stroke="#606060" stroke-width=".5" x="0" y="0" width="60" height="60"/>
  <use id="zoomplus" xlink:href="#zoomPlus" x="17" y="9" onmousedown="handleZoom(evt,'in')"/>
  <use id="zoomminus" xlink:href="#zoomMin" x="42" y="9" onmousedown="handleZoom(evt,'out')"/>
  <use id="reset" xlink:href="#resetDef" x="30" y="36" onmousedown="handleReset()"/>
   <use id="arrowup" xlink:href="#arrowUp" x="0" y="0" onmousedown="handlePan(0,-1)"/>
  <use id="arrowright" xlink:href="#arrowRight" x="0" y="0" onmousedown="handlePan(1,0)"/>
  <use id="arrowdown" xlink:href="#arrowDown" x="0" y="0" onmousedown="handlePan(0,1)"/>
  <use id="arrowleft" xlink:href="#arrowLeft" x="0" y="0" onmousedown="handlePan(-1,0)"/>
</g>
<svg viewBox="0 0 15 15" width="100%" height="30px" preserveAspectRatio="xMaxYMin meet">
 <g id="arrow_out" transform="scale(0.3 0.3)">
  <a xlink:href="callbacks_8c__incl_org.svg" target="_base">
   <rect id="button" ry="5" rx="5" y="6" x="6" height="38" width="38"
        fill="#f2f5e9" fill-opacity="0.5" stroke="#606060" stroke-width="1.0"/>
   <path id="arrow"
     d="M 11.500037,31.436501 C 11.940474,20.09759 22.043105,11.32322 32.158766,21.979434 L 37.068811,17.246167 C 37.068811,17.246167 37.088388,32 37.088388,32 L 22.160133,31.978069 C 22.160133,31.978069 26.997745,27.140456 26.997745,27.140456 C 18.528582,18.264221 13.291696,25.230495 11.500037,31.436501 z"
     style="fill:#404040;"/>
  </a>
 </g>
</svg>

<style type='text/css'>
<![CDATA[
[data-mouse-over-selected='false'] { opacity: 0.7; }
[data-mouse-over-selected='true']  { opacity: 1.0; }
]]>
</style>
<script type="application/ecmascript"><![CDATA[
document.addEventListener('DOMContentLoaded', (event) => {
  highlightEdges();
  highlightAdjacentNodes();
});
]]></script>
</svg>
