<?xml version="1.0" encoding="UTF-8" standalone="no"?>
<!DOCTYPE svg PUBLIC "-//W3C//DTD SVG 1.1//EN"
 "http://www.w3.org/Graphics/SVG/1.1/DTD/svg11.dtd">
<!-- Generated by graphviz version 2.43.0 (0)
 -->
<!-- Title: /home/slookeur/files/codeblocks&#45;files/atomes/src/gui/callbacks.c Pages: 1 -->
<!--zoomable 269 -->

<svg id="main" version="1.1" xmlns="http://www.w3.org/2000/svg" xmlns:xlink="http://www.w3.org/1999/xlink" xml:space="preserve" onload="init(evt)">
<style type="text/css"><![CDATA[
.node, .edge {opacity: 0.7;}
.node.selected, .edge.selected {opacity: 1;}
.edge:hover path { stroke: red; }
.edge:hover polygon { stroke: red; fill: red; }
]]></style>

<defs>
  <circle id="rim" cx="0" cy="0" r="7"/>
  <circle id="rim2" cx="0" cy="0" r="3.5"/>
  <g id="zoomPlus">
    <use xlink:href="#rim" fill="#404040"><set attributeName="fill" to="#808080" begin="zoomplus.mouseover" end="zoomplus.mouseout"/></use>
    <path d="M-4,0h8M0,-4v8" fill="none" stroke="white" stroke-width="1.5" pointer-events="none"/>
  </g>
  <g id="zoomMin">
    <use xlink:href="#rim" fill="#404040"><set attributeName="fill" to="#808080" begin="zoomminus.mouseover" end="zoomminus.mouseout"/></use>
    <path d="M-4,0h8" fill="none" stroke="white" stroke-width="1.5" pointer-events="none"/>
  </g>
  <g id="arrowUp" transform="translate(30 24)">
    <use xlink:href="#rim"/>
    <path pointer-events="none" fill="none" stroke="white" stroke-width="1.5" d="M0,-3.0v7 M-2.5,-0.5L0,-3.0L2.5,-0.5"/>
  </g>
  <g id="arrowRight" transform="rotate(90) translate(36 -43)">
    <use xlink:href="#rim"/>
    <path pointer-events="none" fill="none" stroke="white" stroke-width="1.5" d="M0,-3.0v7 M-2.5,-0.5L0,-3.0L2.5,-0.5"/>
  </g>
  <g id="arrowDown" transform="rotate(180) translate(-30 -48)">
    <use xlink:href="#rim"/>
    <path pointer-events="none" fill="none" stroke="white" stroke-width="1.5" d="M0,-3.0v7 M-2.5,-0.5L0,-3.0L2.5,-0.5"/>
  </g>
  <g id="arrowLeft" transform="rotate(270) translate(-36 17)">
    <use xlink:href="#rim"/>
    <path pointer-events="none" fill="none" stroke="white" stroke-width="1.5" d="M0,-3.0v7 M-2.5,-0.5L0,-3.0L2.5,-0.5"/>
  </g>
  <g id="resetDef">
    <use xlink:href="#rim2" fill="#404040"><set attributeName="fill" to="#808080" begin="reset.mouseover" end="reset.mouseout"/></use>
  </g>
</defs>
<script type="application/ecmascript">
var viewWidth = 2216;
var viewHeight = 269;
var sectionId = 'dynsection-0';
</script>
<script type="application/ecmascript" xlink:href="../../svg.min.js"/>
<svg id="graph" class="graph">
<g id="viewport">
<title>/home/slookeur/files/codeblocks&#45;files/atomes/src/gui/callbacks.c</title>
<!-- Node1 -->
<g id="Node000001" class="node">
<title>Node1</title>
<g id="a_Node000001"><a xlink:title="General callbacks &#160;&#160;Functions to open and close files.">
<polygon fill="#999999" stroke="#666666" points="1256.5,-261 1118.5,-261 1118.5,-220 1256.5,-220 1256.5,-261"/>
<text text-anchor="start" x="1126.5" y="-249" font-family="Helvetica,sans-Serif" font-size="10.00">/home/slookeur/files</text>
<text text-anchor="start" x="1126.5" y="-238" font-family="Helvetica,sans-Serif" font-size="10.00">/codeblocks&#45;files/atomes</text>
<text text-anchor="middle" x="1187.5" y="-227" font-family="Helvetica,sans-Serif" font-size="10.00">/src/gui/callbacks.c</text>
</a>
</g>
</g>
<!-- Node2 -->
<g id="Node000002" class="node">
<title>Node2</title>
<g id="a_Node000002"><a xlink:href="../../d2/d49/global_8h.html" target="_top" xlink:title="Global variable declarations &#160;&#160;Global convenience function declarations &#160;&#160;Global data structure defin...">
<polygon fill="white" stroke="#666666" points="1054.5,-129 998.5,-129 998.5,-110 1054.5,-110 1054.5,-129"/>
<text text-anchor="middle" x="1026.5" y="-117" font-family="Helvetica,sans-Serif" font-size="10.00">global.h</text>
</a>
</g>
</g>
<!-- Node1&#45;&gt;Node2 -->
<g id="edge1_Node000001_Node000002" class="edge">
<title>Node1&#45;&gt;Node2</title>
<g id="a_edge1_Node000001_Node000002"><a xlink:title=" ">
<path fill="none" stroke="#63b8ff" d="M1136.09,-219.95C1115.97,-210.83 1093.46,-198.72 1075.5,-184 1059.58,-170.94 1045.7,-151.78 1036.82,-137.93"/>
<polygon fill="#63b8ff" stroke="#63b8ff" points="1039.74,-135.99 1031.5,-129.32 1033.78,-139.67 1039.74,-135.99"/>
</a>
</g>
</g>
<!-- Node25 -->
<g id="Node000025" class="node">
<title>Node25</title>
<g id="a_Node000025"><a xlink:href="../../d4/da9/interface_8h.html" target="_top" xlink:title="Messaging function declarations.">
<polygon fill="white" stroke="#666666" points="915,-129 846,-129 846,-110 915,-110 915,-129"/>
<text text-anchor="middle" x="880.5" y="-117" font-family="Helvetica,sans-Serif" font-size="10.00">interface.h</text>
</a>
</g>
</g>
<!-- Node1&#45;&gt;Node25 -->
<g id="edge26_Node000001_Node000025" class="edge">
<title>Node1&#45;&gt;Node25</title>
<g id="a_edge26_Node000001_Node000025"><a xlink:title=" ">
<path fill="none" stroke="#63b8ff" d="M1122.69,-219.92C1091.25,-209.95 1053.1,-197.18 1019.5,-184 979.51,-168.31 934.5,-147.07 906.82,-133.57"/>
<polygon fill="#63b8ff" stroke="#63b8ff" points="908.31,-130.4 897.79,-129.14 905.23,-136.69 908.31,-130.4"/>
</a>
</g>
</g>
<!-- Node26 -->
<g id="Node000026" class="node">
<title>Node26</title>
<g id="a_Node000026"><a xlink:href="../../dd/d49/callbacks_8h.html" target="_top" xlink:title="Callback declarations for main window.">
<polygon fill="white" stroke="#666666" points="1144,-129 1073,-129 1073,-110 1144,-110 1144,-129"/>
<text text-anchor="middle" x="1108.5" y="-117" font-family="Helvetica,sans-Serif" font-size="10.00">callbacks.h</text>
</a>
</g>
</g>
<!-- Node1&#45;&gt;Node26 -->
<g id="edge27_Node000001_Node000026" class="edge">
<title>Node1&#45;&gt;Node26</title>
<g id="a_edge27_Node000001_Node000026"><a xlink:title=" ">
<path fill="none" stroke="#63b8ff" d="M1124.66,-219.94C1108.07,-211.6 1092.13,-199.98 1082.5,-184 1073.42,-168.93 1083.47,-150.12 1093.59,-136.9"/>
<polygon fill="#63b8ff" stroke="#63b8ff" points="1096.36,-139.04 1100.06,-129.11 1090.98,-134.57 1096.36,-139.04"/>
</a>
</g>
</g>
<!-- Node27 -->
<g id="Node000027" class="node">
<title>Node27</title>
<g id="a_Node000027"><a xlink:href="../../da/dc2/bind_8h.html" target="_top" xlink:title="Binding to the Fortran90 subroutines.">
<polygon fill="white" stroke="#666666" points="980,-129 933,-129 933,-110 980,-110 980,-129"/>
<text text-anchor="middle" x="956.5" y="-117" font-family="Helvetica,sans-Serif" font-size="10.00">bind.h</text>
</a>
</g>
</g>
<!-- Node1&#45;&gt;Node27 -->
<g id="edge28_Node000001_Node000027" class="edge">
<title>Node1&#45;&gt;Node27</title>
<g id="a_edge28_Node000001_Node000027"><a xlink:title=" ">
<path fill="none" stroke="#63b8ff" d="M1133.95,-219.98C1109,-210.21 1079.21,-197.59 1053.5,-184 1025.54,-169.22 995.36,-148.67 976.22,-134.99"/>
<polygon fill="#63b8ff" stroke="#63b8ff" points="978.17,-132.08 968.01,-129.06 974.07,-137.75 978.17,-132.08"/>
</a>
</g>
</g>
<!-- Node28 -->
<g id="Node000028" class="node">
<title>Node28</title>
<g id="a_Node000028"><a xlink:href="../../dc/d8d/project_8h.html" target="_top" xlink:title="Function declarations for reading atomes project file &#160;&#160;Function declarations for saving atomes proje...">
<polygon fill="white" stroke="#666666" points="1221,-129 1162,-129 1162,-110 1221,-110 1221,-129"/>
<text text-anchor="middle" x="1191.5" y="-117" font-family="Helvetica,sans-Serif" font-size="10.00">project.h</text>
</a>
</g>
</g>
<!-- Node1&#45;&gt;Node28 -->
<g id="edge29_Node000001_Node000028" class="edge">
<title>Node1&#45;&gt;Node28</title>
<g id="a_edge29_Node000001_Node000028"><a xlink:title=" ">
<path fill="none" stroke="#63b8ff" d="M1188.16,-219.85C1188.91,-197.48 1190.13,-161.19 1190.87,-139.21"/>
<polygon fill="#63b8ff" stroke="#63b8ff" points="1194.37,-139.29 1191.21,-129.18 1187.37,-139.05 1194.37,-139.29"/>
</a>
</g>
</g>
<!-- Node29 -->
<g id="Node000029" class="node">
<title>Node29</title>
<g id="a_Node000029"><a xlink:href="../../d4/de6/workspace_8h.html" target="_top" xlink:title="Function declarations for workspace managment.">
<polygon fill="white" stroke="#666666" points="1481.5,-129 1403.5,-129 1403.5,-110 1481.5,-110 1481.5,-129"/>
<text text-anchor="middle" x="1442.5" y="-117" font-family="Helvetica,sans-Serif" font-size="10.00">workspace.h</text>
</a>
</g>
</g>
<!-- Node1&#45;&gt;Node29 -->
<g id="edge30_Node000001_Node000029" class="edge">
<title>Node1&#45;&gt;Node29</title>
<g id="a_edge30_Node000001_Node000029"><a xlink:title=" ">
<path fill="none" stroke="#63b8ff" d="M1249.24,-219.88C1277.04,-210.27 1309.96,-197.79 1338.5,-184 1368.56,-169.47 1401.09,-148.72 1421.61,-134.94"/>
<polygon fill="#63b8ff" stroke="#63b8ff" points="1423.84,-137.66 1430.14,-129.15 1419.9,-131.87 1423.84,-137.66"/>
</a>
</g>
</g>
<!-- Node30 -->
<g id="Node000030" class="node">
<title>Node30</title>
<g id="a_Node000030"><a xlink:href="../../d1/d2a/glwindow_8h.html" target="_top" xlink:title="Function declarations for the creation of the OpenGL window.">
<polygon fill="white" stroke="#666666" points="1310,-129 1239,-129 1239,-110 1310,-110 1310,-129"/>
<text text-anchor="middle" x="1274.5" y="-117" font-family="Helvetica,sans-Serif" font-size="10.00">glwindow.h</text>
</a>
</g>
</g>
<!-- Node1&#45;&gt;Node30 -->
<g id="edge31_Node000001_Node000030" class="edge">
<title>Node1&#45;&gt;Node30</title>
<g id="a_edge31_Node000001_Node000030"><a xlink:title=" ">
<path fill="none" stroke="#63b8ff" d="M1256.18,-219.99C1273.24,-211.72 1289.49,-200.13 1299.5,-184 1308.72,-169.14 1298.99,-150.29 1289.1,-137.01"/>
<polygon fill="#63b8ff" stroke="#63b8ff" points="1291.78,-134.76 1282.77,-129.18 1286.34,-139.15 1291.78,-134.76"/>
</a>
</g>
</g>
<!-- Node31 -->
<g id="Node000031" class="node">
<title>Node31</title>
<g id="a_Node000031"><a xlink:href="../../dc/de3/glview_8h.html" target="_top" xlink:title="Variable declarations related to the OpenGL window &#160;&#160;Function declarations related to the OpenGL wind...">
<polygon fill="white" stroke="#666666" points="1385,-129 1328,-129 1328,-110 1385,-110 1385,-129"/>
<text text-anchor="middle" x="1356.5" y="-117" font-family="Helvetica,sans-Serif" font-size="10.00">glview.h</text>
</a>
</g>
</g>
<!-- Node1&#45;&gt;Node31 -->
<g id="edge32_Node000001_Node000031" class="edge">
<title>Node1&#45;&gt;Node31</title>
<g id="a_edge32_Node000001_Node000031"><a xlink:title=" ">
<path fill="none" stroke="#63b8ff" d="M1252.24,-219.98C1273.92,-211.32 1297.21,-199.51 1315.5,-184 1330.32,-171.43 1341.71,-152.16 1348.68,-138.14"/>
<polygon fill="#63b8ff" stroke="#63b8ff" points="1351.88,-139.58 1352.97,-129.04 1345.54,-136.6 1351.88,-139.58"/>
</a>
</g>
</g>
<!-- Node32 -->
<g id="Node000032" class="node">
<title>Node32</title>
<g id="a_Node000032"><a xlink:href="../../d5/d9c/atom__edit_8h.html" target="_top" xlink:title="Function declarations for the mode edition window.">
<polygon fill="white" stroke="#666666" points="1291,-184 1216,-184 1216,-165 1291,-165 1291,-184"/>
<text text-anchor="middle" x="1253.5" y="-172" font-family="Helvetica,sans-Serif" font-size="10.00">atom_edit.h</text>
</a>
</g>
</g>
<!-- Node1&#45;&gt;Node32 -->
<g id="edge33_Node000001_Node000032" class="edge">
<title>Node1&#45;&gt;Node32</title>
<g id="a_edge33_Node000001_Node000032"><a xlink:title=" ">
<path fill="none" stroke="#63b8ff" d="M1207.66,-219.95C1217.16,-210.74 1228.34,-199.9 1237.28,-191.23"/>
<polygon fill="#63b8ff" stroke="#63b8ff" points="1239.72,-193.73 1244.47,-184.26 1234.85,-188.71 1239.72,-193.73"/>
</a>
</g>
</g>
<!-- Node34 -->
<g id="Node000034" class="node">
<title>Node34</title>
<g id="a_Node000034"><a xlink:href="../../d9/d97/cell__edit_8h.html" target="_top" xlink:title="Function declarations for the cell edition window.">
<polygon fill="white" stroke="#666666" points="1159,-184 1092,-184 1092,-165 1159,-165 1159,-184"/>
<text text-anchor="middle" x="1125.5" y="-172" font-family="Helvetica,sans-Serif" font-size="10.00">cell_edit.h</text>
</a>
</g>
</g>
<!-- Node1&#45;&gt;Node34 -->
<g id="edge43_Node000001_Node000034" class="edge">
<title>Node1&#45;&gt;Node34</title>
<g id="a_edge43_Node000001_Node000034"><a xlink:title=" ">
<path fill="none" stroke="#63b8ff" d="M1168.56,-219.95C1159.73,-210.83 1149.35,-200.11 1140.99,-191.49"/>
<polygon fill="#63b8ff" stroke="#63b8ff" points="1143.46,-189.01 1133.99,-184.26 1138.43,-193.88 1143.46,-189.01"/>
</a>
</g>
</g>
<!-- Node35 -->
<g id="Node000035" class="node">
<title>Node35</title>
<g id="a_Node000035"><a xlink:href="../../d1/dfb/readers_8h.html" target="_top" xlink:title="Functions declaration to read atomic coordinates.">
<polygon fill="white" stroke="#666666" points="1743.5,-184 1681.5,-184 1681.5,-165 1743.5,-165 1743.5,-184"/>
<text text-anchor="middle" x="1712.5" y="-172" font-family="Helvetica,sans-Serif" font-size="10.00">readers.h</text>
</a>
</g>
</g>
<!-- Node1&#45;&gt;Node35 -->
<g id="edge52_Node000001_Node000035" class="edge">
<title>Node1&#45;&gt;Node35</title>
<g id="a_edge52_Node000001_Node000035"><a xlink:title=" ">
<path fill="none" stroke="#63b8ff" d="M1256.67,-231.07C1367.56,-217.55 1581.71,-191.44 1671.41,-180.51"/>
<polygon fill="#63b8ff" stroke="#63b8ff" points="1671.96,-183.97 1681.46,-179.28 1671.11,-177.02 1671.96,-183.97"/>
</a>
</g>
</g>
<!-- Node3 -->
<g id="Node000003" class="node">
<title>Node3</title>
<g id="a_Node000003"><a xlink:title=" ">
<polygon fill="#e0e0e0" stroke="#999999" points="930.5,-74 886.5,-74 886.5,-55 930.5,-55 930.5,-74"/>
<text text-anchor="middle" x="908.5" y="-62" font-family="Helvetica,sans-Serif" font-size="10.00">glib.h</text>
</a>
</g>
</g>
<!-- Node2&#45;&gt;Node3 -->
<g id="edge2_Node000002_Node000003" class="edge">
<title>Node2&#45;&gt;Node3</title>
<g id="a_edge2_Node000002_Node000003"><a xlink:title=" ">
<path fill="none" stroke="#63b8ff" d="M1007.54,-109.98C988.47,-101.42 958.84,-88.11 936.95,-78.28"/>
<polygon fill="#63b8ff" stroke="#63b8ff" points="938.36,-75.07 927.8,-74.17 935.49,-81.46 938.36,-75.07"/>
</a>
</g>
</g>
<!-- Node4 -->
<g id="Node000004" class="node">
<title>Node4</title>
<g id="a_Node000004"><a xlink:title=" ">
<polygon fill="#e0e0e0" stroke="#999999" points="1022.5,-74 948.5,-74 948.5,-55 1022.5,-55 1022.5,-74"/>
<text text-anchor="middle" x="985.5" y="-62" font-family="Helvetica,sans-Serif" font-size="10.00">glib/gi18n.h</text>
</a>
</g>
</g>
<!-- Node2&#45;&gt;Node4 -->
<g id="edge3_Node000002_Node000004" class="edge">
<title>Node2&#45;&gt;Node4</title>
<g id="a_edge3_Node000002_Node000004"><a xlink:title=" ">
<path fill="none" stroke="#63b8ff" d="M1019.73,-109.75C1013.94,-102.26 1005.44,-91.28 998.36,-82.13"/>
<polygon fill="#63b8ff" stroke="#63b8ff" points="1001.03,-79.86 992.14,-74.09 995.49,-84.14 1001.03,-79.86"/>
</a>
</g>
</g>
<!-- Node5 -->
<g id="Node000005" class="node">
<title>Node5</title>
<g id="a_Node000005"><a xlink:title=" ">
<polygon fill="#e0e0e0" stroke="#999999" points="1096,-74 1041,-74 1041,-55 1096,-55 1096,-74"/>
<text text-anchor="middle" x="1068.5" y="-62" font-family="Helvetica,sans-Serif" font-size="10.00">locale.h</text>
</a>
</g>
</g>
<!-- Node2&#45;&gt;Node5 -->
<g id="edge4_Node000002_Node000005" class="edge">
<title>Node2&#45;&gt;Node5</title>
<g id="a_edge4_Node000002_Node000005"><a xlink:title=" ">
<path fill="none" stroke="#63b8ff" d="M1033.44,-109.75C1039.37,-102.26 1048.07,-91.28 1055.32,-82.13"/>
<polygon fill="#63b8ff" stroke="#63b8ff" points="1058.23,-84.1 1061.69,-74.09 1052.74,-79.75 1058.23,-84.1"/>
</a>
</g>
</g>
<!-- Node6 -->
<g id="Node000006" class="node">
<title>Node6</title>
<g id="a_Node000006"><a xlink:title=" ">
<polygon fill="#e0e0e0" stroke="#999999" points="1170.5,-74 1114.5,-74 1114.5,-55 1170.5,-55 1170.5,-74"/>
<text text-anchor="middle" x="1142.5" y="-62" font-family="Helvetica,sans-Serif" font-size="10.00">unistd.h</text>
</a>
</g>
</g>
<!-- Node2&#45;&gt;Node6 -->
<g id="edge5_Node000002_Node000006" class="edge">
<title>Node2&#45;&gt;Node6</title>
<g id="a_edge5_Node000002_Node000006"><a xlink:title=" ">
<path fill="none" stroke="#63b8ff" d="M1045.14,-109.98C1063.8,-101.46 1092.75,-88.23 1114.24,-78.41"/>
<polygon fill="#63b8ff" stroke="#63b8ff" points="1115.88,-81.51 1123.52,-74.17 1112.97,-75.14 1115.88,-81.51"/>
</a>
</g>
</g>
<!-- Node7 -->
<g id="Node000007" class="node">
<title>Node7</title>
<g id="a_Node000007"><a xlink:title=" ">
<polygon fill="#e0e0e0" stroke="#999999" points="1242,-74 1189,-74 1189,-55 1242,-55 1242,-74"/>
<text text-anchor="middle" x="1215.5" y="-62" font-family="Helvetica,sans-Serif" font-size="10.00">string.h</text>
</a>
</g>
</g>
<!-- Node2&#45;&gt;Node7 -->
<g id="edge6_Node000002_Node000007" class="edge">
<title>Node2&#45;&gt;Node7</title>
<g id="a_edge6_Node000002_Node000007"><a xlink:title=" ">
<path fill="none" stroke="#63b8ff" d="M1054.8,-110.57C1087.93,-101.27 1142.88,-85.86 1179.15,-75.69"/>
<polygon fill="#63b8ff" stroke="#63b8ff" points="1180.16,-79.04 1188.85,-72.97 1178.27,-72.3 1180.16,-79.04"/>
</a>
</g>
</g>
<!-- Node8 -->
<g id="Node000008" class="node">
<title>Node8</title>
<g id="a_Node000008"><a xlink:title=" ">
<polygon fill="#e0e0e0" stroke="#999999" points="1309.5,-19 1259.5,-19 1259.5,0 1309.5,0 1309.5,-19"/>
<text text-anchor="middle" x="1284.5" y="-7" font-family="Helvetica,sans-Serif" font-size="10.00">stdio.h</text>
</a>
</g>
</g>
<!-- Node2&#45;&gt;Node8 -->
<g id="edge7_Node000002_Node000008" class="edge">
<title>Node2&#45;&gt;Node8</title>
<g id="a_edge7_Node000002_Node000008"><a xlink:title=" ">
<path fill="none" stroke="#63b8ff" d="M1054.76,-111.9C1057.71,-111.24 1060.66,-110.6 1063.5,-110 1146.31,-92.52 1182.35,-124.18 1250.5,-74 1265.43,-63.01 1274.47,-43.46 1279.43,-28.95"/>
<polygon fill="#63b8ff" stroke="#63b8ff" points="1282.88,-29.64 1282.47,-19.05 1276.19,-27.59 1282.88,-29.64"/>
</a>
</g>
</g>
<!-- Node9 -->
<g id="Node000009" class="node">
<title>Node9</title>
<g id="a_Node000009"><a xlink:title=" ">
<polygon fill="#e0e0e0" stroke="#999999" points="1476,-74 1423,-74 1423,-55 1476,-55 1476,-74"/>
<text text-anchor="middle" x="1449.5" y="-62" font-family="Helvetica,sans-Serif" font-size="10.00">stdlib.h</text>
</a>
</g>
</g>
<!-- Node2&#45;&gt;Node9 -->
<g id="edge8_Node000002_Node000009" class="edge">
<title>Node2&#45;&gt;Node9</title>
<g id="a_edge8_Node000002_Node000009"><a xlink:title=" ">
<path fill="none" stroke="#63b8ff" d="M1054.71,-111.65C1057.67,-111.04 1060.64,-110.48 1063.5,-110 1215.57,-84.69 1256.16,-97.68 1408.5,-74 1409.79,-73.8 1411.11,-73.58 1412.43,-73.36"/>
<polygon fill="#63b8ff" stroke="#63b8ff" points="1413.47,-76.73 1422.66,-71.47 1412.19,-69.84 1413.47,-76.73"/>
</a>
</g>
</g>
<!-- Node10 -->
<g id="Node000010" class="node">
<title>Node10</title>
<g id="a_Node000010"><a xlink:title=" ">
<polygon fill="#e0e0e0" stroke="#999999" points="1566.5,-74 1494.5,-74 1494.5,-55 1566.5,-55 1566.5,-74"/>
<text text-anchor="middle" x="1530.5" y="-62" font-family="Helvetica,sans-Serif" font-size="10.00">sys/types.h</text>
</a>
</g>
</g>
<!-- Node2&#45;&gt;Node10 -->
<g id="edge9_Node000002_Node000010" class="edge">
<title>Node2&#45;&gt;Node10</title>
<g id="a_edge9_Node000002_Node000010"><a xlink:title=" ">
<path fill="none" stroke="#63b8ff" d="M1054.7,-111.59C1057.66,-111 1060.64,-110.45 1063.5,-110 1249.03,-80.9 1298.39,-99.09 1484.5,-74 1484.6,-73.99 1484.7,-73.97 1484.8,-73.96"/>
<polygon fill="#63b8ff" stroke="#63b8ff" points="1485.03,-77.46 1494.39,-72.52 1483.98,-70.54 1485.03,-77.46"/>
</a>
</g>
</g>
<!-- Node11 -->
<g id="Node000011" class="node">
<title>Node11</title>
<g id="a_Node000011"><a xlink:title=" ">
<polygon fill="#e0e0e0" stroke="#999999" points="1648.5,-74 1584.5,-74 1584.5,-55 1648.5,-55 1648.5,-74"/>
<text text-anchor="middle" x="1616.5" y="-62" font-family="Helvetica,sans-Serif" font-size="10.00">sys/stat.h</text>
</a>
</g>
</g>
<!-- Node2&#45;&gt;Node11 -->
<g id="edge10_Node000002_Node000011" class="edge">
<title>Node2&#45;&gt;Node11</title>
<g id="a_edge10_Node000002_Node000011"><a xlink:title=" ">
<path fill="none" stroke="#63b8ff" d="M1054.7,-111.55C1057.66,-110.96 1060.63,-110.43 1063.5,-110 1285.82,-76.85 1347.72,-104.39 1574.13,-73.99"/>
<polygon fill="#63b8ff" stroke="#63b8ff" points="1574.91,-77.41 1584.34,-72.59 1573.96,-70.48 1574.91,-77.41"/>
</a>
</g>
</g>
<!-- Node12 -->
<g id="Node000012" class="node">
<title>Node12</title>
<g id="a_Node000012"><a xlink:title=" ">
<polygon fill="#e0e0e0" stroke="#999999" points="1406,-19 1355,-19 1355,0 1406,0 1406,-19"/>
<text text-anchor="middle" x="1380.5" y="-7" font-family="Helvetica,sans-Serif" font-size="10.00">math.h</text>
</a>
</g>
</g>
<!-- Node2&#45;&gt;Node12 -->
<g id="edge11_Node000002_Node000012" class="edge">
<title>Node2&#45;&gt;Node12</title>
<g id="a_edge11_Node000002_Node000012"><a xlink:title=" ">
<path fill="none" stroke="#63b8ff" d="M1054.72,-111.68C1057.67,-111.07 1060.64,-110.49 1063.5,-110 1132.28,-98.17 1327.05,-124.24 1375.5,-74 1386.65,-62.44 1386.76,-43.57 1384.77,-29.4"/>
<polygon fill="#63b8ff" stroke="#63b8ff" points="1388.15,-28.46 1382.89,-19.27 1381.27,-29.74 1388.15,-28.46"/>
</a>
</g>
</g>
<!-- Node13 -->
<g id="Node000013" class="node">
<title>Node13</title>
<g id="a_Node000013"><a xlink:title=" ">
<polygon fill="#e0e0e0" stroke="#999999" points="1726.5,-74 1666.5,-74 1666.5,-55 1726.5,-55 1726.5,-74"/>
<text text-anchor="middle" x="1696.5" y="-62" font-family="Helvetica,sans-Serif" font-size="10.00">gtk/gtk.h</text>
</a>
</g>
</g>
<!-- Node2&#45;&gt;Node13 -->
<g id="edge12_Node000002_Node000013" class="edge">
<title>Node2&#45;&gt;Node13</title>
<g id="a_edge12_Node000002_Node000013"><a xlink:title=" ">
<path fill="none" stroke="#63b8ff" d="M1054.69,-111.52C1057.65,-110.94 1060.63,-110.41 1063.5,-110 1321.95,-72.74 1393.7,-109.32 1656.13,-73.95"/>
<polygon fill="#63b8ff" stroke="#63b8ff" points="1656.92,-77.38 1666.35,-72.55 1655.97,-70.44 1656.92,-77.38"/>
</a>
</g>
</g>
<!-- Node14 -->
<g id="Node000014" class="node">
<title>Node14</title>
<g id="a_Node000014"><a xlink:title=" ">
<polygon fill="#e0e0e0" stroke="#999999" points="65,-74 0,-74 0,-55 65,-55 65,-74"/>
<text text-anchor="middle" x="32.5" y="-62" font-family="Helvetica,sans-Serif" font-size="10.00">gdk/gdk.h</text>
</a>
</g>
</g>
<!-- Node2&#45;&gt;Node14 -->
<g id="edge13_Node000002_Node000014" class="edge">
<title>Node2&#45;&gt;Node14</title>
<g id="a_edge13_Node000002_Node000014"><a xlink:title=" ">
<path fill="none" stroke="#63b8ff" d="M998.38,-111.62C995.06,-110.98 991.72,-110.42 988.5,-110 588.72,-57.85 479.94,-121.4 75.65,-73.9"/>
<polygon fill="#63b8ff" stroke="#63b8ff" points="75.78,-70.39 65.43,-72.68 74.95,-77.34 75.78,-70.39"/>
</a>
</g>
</g>
<!-- Node15 -->
<g id="Node000015" class="node">
<title>Node15</title>
<g id="a_Node000015"><a xlink:title=" ">
<polygon fill="#e0e0e0" stroke="#999999" points="191.5,-74 83.5,-74 83.5,-55 191.5,-55 191.5,-74"/>
<text text-anchor="middle" x="137.5" y="-62" font-family="Helvetica,sans-Serif" font-size="10.00">gdk/gdkkeysyms.h</text>
</a>
</g>
</g>
<!-- Node2&#45;&gt;Node15 -->
<g id="edge14_Node000002_Node000015" class="edge">
<title>Node2&#45;&gt;Node15</title>
<g id="a_edge14_Node000002_Node000015"><a xlink:title=" ">
<path fill="none" stroke="#63b8ff" d="M998.38,-111.64C995.06,-111 991.72,-110.43 988.5,-110 644.31,-64 551.43,-104.68 201.91,-74.03"/>
<polygon fill="#63b8ff" stroke="#63b8ff" points="202.03,-70.53 191.76,-73.13 201.41,-77.5 202.03,-70.53"/>
</a>
</g>
</g>
<!-- Node16 -->
<g id="Node000016" class="node">
<title>Node16</title>
<g id="a_Node000016"><a xlink:title=" ">
<polygon fill="#e0e0e0" stroke="#999999" points="343,-74 210,-74 210,-55 343,-55 343,-74"/>
<text text-anchor="middle" x="276.5" y="-62" font-family="Helvetica,sans-Serif" font-size="10.00">gdk&#45;pixbuf/gdk&#45;pixbuf.h</text>
</a>
</g>
</g>
<!-- Node2&#45;&gt;Node16 -->
<g id="edge15_Node000002_Node000016" class="edge">
<title>Node2&#45;&gt;Node16</title>
<g id="a_edge15_Node000002_Node000016"><a xlink:title=" ">
<path fill="none" stroke="#63b8ff" d="M998.37,-111.67C995.06,-111.03 991.71,-110.45 988.5,-110 710.93,-71.38 635.8,-97.35 353.28,-74.1"/>
<polygon fill="#63b8ff" stroke="#63b8ff" points="353.39,-70.6 343.14,-73.25 352.81,-77.57 353.39,-70.6"/>
</a>
</g>
</g>
<!-- Node17 -->
<g id="Node000017" class="node">
<title>Node17</title>
<g id="a_Node000017"><a xlink:title=" ">
<polygon fill="#e0e0e0" stroke="#999999" points="462,-74 361,-74 361,-55 462,-55 462,-74"/>
<text text-anchor="middle" x="411.5" y="-62" font-family="Helvetica,sans-Serif" font-size="10.00">pango/pangoft2.h</text>
</a>
</g>
</g>
<!-- Node2&#45;&gt;Node17 -->
<g id="edge16_Node000002_Node000017" class="edge">
<title>Node2&#45;&gt;Node17</title>
<g id="a_edge16_Node000002_Node000017"><a xlink:title=" ">
<path fill="none" stroke="#63b8ff" d="M998.37,-111.71C995.05,-111.06 991.71,-110.47 988.5,-110 763.8,-77.24 702.3,-97.57 472.23,-73.99"/>
<polygon fill="#63b8ff" stroke="#63b8ff" points="472.52,-70.5 462.21,-72.94 471.79,-77.46 472.52,-70.5"/>
</a>
</g>
</g>
<!-- Node18 -->
<g id="Node000018" class="node">
<title>Node18</title>
<g id="a_Node000018"><a xlink:title=" ">
<polygon fill="#e0e0e0" stroke="#999999" points="548.5,-74 480.5,-74 480.5,-55 548.5,-55 548.5,-74"/>
<text text-anchor="middle" x="514.5" y="-62" font-family="Helvetica,sans-Serif" font-size="10.00">epoxy/gl.h</text>
</a>
</g>
</g>
<!-- Node2&#45;&gt;Node18 -->
<g id="edge17_Node000002_Node000018" class="edge">
<title>Node2&#45;&gt;Node18</title>
<g id="a_edge17_Node000002_Node000018"><a xlink:title=" ">
<path fill="none" stroke="#63b8ff" d="M998.36,-111.76C995.05,-111.1 991.71,-110.49 988.5,-110 801.73,-81.45 749.63,-100.02 558.79,-74.02"/>
<polygon fill="#63b8ff" stroke="#63b8ff" points="559.09,-70.53 548.71,-72.62 558.13,-77.46 559.09,-70.53"/>
</a>
</g>
</g>
<!-- Node19 -->
<g id="Node000019" class="node">
<title>Node19</title>
<g id="a_Node000019"><a xlink:title=" ">
<polygon fill="#e0e0e0" stroke="#999999" points="622.5,-74 566.5,-74 566.5,-55 622.5,-55 622.5,-74"/>
<text text-anchor="middle" x="594.5" y="-62" font-family="Helvetica,sans-Serif" font-size="10.00">GL/glu.h</text>
</a>
</g>
</g>
<!-- Node2&#45;&gt;Node19 -->
<g id="edge18_Node000002_Node000019" class="edge">
<title>Node2&#45;&gt;Node19</title>
<g id="a_edge18_Node000002_Node000019"><a xlink:title=" ">
<path fill="none" stroke="#63b8ff" d="M998.35,-111.81C995.04,-111.14 991.7,-110.52 988.5,-110 834.3,-85.07 790.63,-99.29 632.78,-74"/>
<polygon fill="#63b8ff" stroke="#63b8ff" points="633.14,-70.52 622.71,-72.36 632.02,-77.43 633.14,-70.52"/>
</a>
</g>
</g>
<!-- Node20 -->
<g id="Node000020" class="node">
<title>Node20</title>
<g id="a_Node000020"><a xlink:title=" ">
<polygon fill="#e0e0e0" stroke="#999999" points="714.5,-74 640.5,-74 640.5,-55 714.5,-55 714.5,-74"/>
<text text-anchor="middle" x="677.5" y="-62" font-family="Helvetica,sans-Serif" font-size="10.00">epoxy/glx.h</text>
</a>
</g>
</g>
<!-- Node2&#45;&gt;Node20 -->
<g id="edge19_Node000002_Node000020" class="edge">
<title>Node2&#45;&gt;Node20</title>
<g id="a_edge19_Node000002_Node000020"><a xlink:title=" ">
<path fill="none" stroke="#63b8ff" d="M998.33,-111.92C995.03,-111.23 991.69,-110.57 988.5,-110 874.71,-89.58 842.6,-92.62 724.78,-74.13"/>
<polygon fill="#63b8ff" stroke="#63b8ff" points="725.06,-70.63 714.63,-72.52 723.96,-77.54 725.06,-70.63"/>
</a>
</g>
</g>
<!-- Node21 -->
<g id="Node000021" class="node">
<title>Node21</title>
<g id="a_Node000021"><a xlink:href="../../dc/db0/math__3d_8h.html" target="_top" xlink:title="Functions for OpenGL math.">
<polygon fill="white" stroke="#666666" points="1366.5,-74 1298.5,-74 1298.5,-55 1366.5,-55 1366.5,-74"/>
<text text-anchor="middle" x="1332.5" y="-62" font-family="Helvetica,sans-Serif" font-size="10.00">math_3d.h</text>
</a>
</g>
</g>
<!-- Node2&#45;&gt;Node21 -->
<g id="edge20_Node000002_Node000021" class="edge">
<title>Node2&#45;&gt;Node21</title>
<g id="a_edge20_Node000002_Node000021"><a xlink:title=" ">
<path fill="none" stroke="#63b8ff" d="M1054.74,-111.82C1057.69,-111.18 1060.65,-110.56 1063.5,-110 1161.16,-90.85 1186.39,-90.68 1284.5,-74 1285.77,-73.78 1287.05,-73.56 1288.35,-73.34"/>
<polygon fill="#63b8ff" stroke="#63b8ff" points="1289.17,-76.75 1298.42,-71.59 1287.97,-69.86 1289.17,-76.75"/>
</a>
</g>
</g>
<!-- Node22 -->
<g id="Node000022" class="node">
<title>Node22</title>
<g id="a_Node000022"><a xlink:href="../../da/d7e/glwin_8h.html" target="_top" xlink:title="Variable declarations related the OpenGL window &#160;&#160;Data structure declarations related the OpenGL wind...">
<polygon fill="white" stroke="#666666" points="784.5,-74 732.5,-74 732.5,-55 784.5,-55 784.5,-74"/>
<text text-anchor="middle" x="758.5" y="-62" font-family="Helvetica,sans-Serif" font-size="10.00">glwin.h</text>
</a>
</g>
</g>
<!-- Node2&#45;&gt;Node22 -->
<g id="edge23_Node000002_Node000022" class="edge">
<title>Node2&#45;&gt;Node22</title>
<g id="a_edge23_Node000002_Node000022"><a xlink:title=" ">
<path fill="none" stroke="#63b8ff" d="M998.3,-112.07C995,-111.35 991.68,-110.65 988.5,-110 905.27,-93.01 881.39,-92.43 794.84,-74.19"/>
<polygon fill="#63b8ff" stroke="#63b8ff" points="795.35,-70.72 784.84,-72.06 793.89,-77.57 795.35,-70.72"/>
</a>
</g>
</g>
<!-- Node24 -->
<g id="Node000024" class="node">
<title>Node24</title>
<g id="a_Node000024"><a xlink:title=" ">
<polygon fill="#e0e0e0" stroke="#999999" points="868.5,-74 802.5,-74 802.5,-55 868.5,-55 868.5,-74"/>
<text text-anchor="middle" x="835.5" y="-62" font-family="Helvetica,sans-Serif" font-size="10.00">gtk/gtkx.h</text>
</a>
</g>
</g>
<!-- Node2&#45;&gt;Node24 -->
<g id="edge25_Node000002_Node000024" class="edge">
<title>Node2&#45;&gt;Node24</title>
<g id="a_edge25_Node000002_Node000024"><a xlink:title=" ">
<path fill="none" stroke="#63b8ff" d="M998.32,-110.68C966.07,-101.73 912.98,-87 876.23,-76.8"/>
<polygon fill="#63b8ff" stroke="#63b8ff" points="876.91,-73.36 866.33,-74.06 875.03,-80.1 876.91,-73.36"/>
</a>
</g>
</g>
<!-- Node21&#45;&gt;Node8 -->
<g id="edge22_Node000021_Node000008" class="edge">
<title>Node21&#45;&gt;Node8</title>
<g id="a_edge22_Node000021_Node000008"><a xlink:title=" ">
<path fill="none" stroke="#63b8ff" d="M1324.57,-54.75C1317.65,-47.11 1307.43,-35.82 1299.05,-26.56"/>
<polygon fill="#63b8ff" stroke="#63b8ff" points="1301.59,-24.15 1292.28,-19.09 1296.4,-28.85 1301.59,-24.15"/>
</a>
</g>
</g>
<!-- Node21&#45;&gt;Node12 -->
<g id="edge21_Node000021_Node000012" class="edge">
<title>Node21&#45;&gt;Node12</title>
<g id="a_edge21_Node000021_Node000012"><a xlink:title=" ">
<path fill="none" stroke="#63b8ff" d="M1340.43,-54.75C1347.35,-47.11 1357.57,-35.82 1365.95,-26.56"/>
<polygon fill="#63b8ff" stroke="#63b8ff" points="1368.6,-28.85 1372.72,-19.09 1363.41,-24.15 1368.6,-28.85"/>
</a>
</g>
</g>
<!-- Node23 -->
<g id="Node000023" class="node">
<title>Node23</title>
<g id="a_Node000023"><a xlink:href="../../d5/d9e/ogl__shading_8h.html" target="_top" xlink:title="Variable declarations related to GLSL programs &#160;&#160;Data structure declarations related to GLSL programs...">
<polygon fill="white" stroke="#666666" points="800.5,-19 716.5,-19 716.5,0 800.5,0 800.5,-19"/>
<text text-anchor="middle" x="758.5" y="-7" font-family="Helvetica,sans-Serif" font-size="10.00">ogl_shading.h</text>
</a>
</g>
</g>
<!-- Node22&#45;&gt;Node23 -->
<g id="edge24_Node000022_Node000023" class="edge">
<title>Node22&#45;&gt;Node23</title>
<g id="a_edge24_Node000022_Node000023"><a xlink:title=" ">
<path fill="none" stroke="#63b8ff" d="M758.5,-54.75C758.5,-47.8 758.5,-37.85 758.5,-29.13"/>
<polygon fill="#63b8ff" stroke="#63b8ff" points="762,-29.09 758.5,-19.09 755,-29.09 762,-29.09"/>
</a>
</g>
</g>
<!-- Node32&#45;&gt;Node2 -->
<g id="edge34_Node000032_Node000002" class="edge">
<title>Node32&#45;&gt;Node2</title>
<g id="a_edge34_Node000032_Node000002"><a xlink:title=" ">
<path fill="none" stroke="#63b8ff" d="M1217.03,-164.98C1175.23,-155.23 1107.05,-139.31 1064.58,-129.39"/>
<polygon fill="#63b8ff" stroke="#63b8ff" points="1065.17,-125.93 1054.64,-127.07 1063.58,-132.75 1065.17,-125.93"/>
</a>
</g>
</g>
<!-- Node32&#45;&gt;Node25 -->
<g id="edge37_Node000032_Node000025" class="edge">
<title>Node32&#45;&gt;Node25</title>
<g id="a_edge37_Node000032_Node000025"><a xlink:title=" ">
<path fill="none" stroke="#63b8ff" d="M1215.78,-169.17C1156.16,-162.17 1036.29,-147.42 925.23,-129.21"/>
<polygon fill="#63b8ff" stroke="#63b8ff" points="925.64,-125.73 915.2,-127.55 924.5,-132.63 925.64,-125.73"/>
</a>
</g>
</g>
<!-- Node32&#45;&gt;Node26 -->
<g id="edge36_Node000032_Node000026" class="edge">
<title>Node32&#45;&gt;Node26</title>
<g id="a_edge36_Node000032_Node000026"><a xlink:title=" ">
<path fill="none" stroke="#63b8ff" d="M1230.2,-164.98C1206.25,-156.23 1168.72,-142.51 1141.67,-132.62"/>
<polygon fill="#63b8ff" stroke="#63b8ff" points="1142.81,-129.32 1132.22,-129.17 1140.41,-135.89 1142.81,-129.32"/>
</a>
</g>
</g>
<!-- Node32&#45;&gt;Node27 -->
<g id="edge35_Node000032_Node000027" class="edge">
<title>Node32&#45;&gt;Node27</title>
<g id="a_edge35_Node000032_Node000027"><a xlink:title=" ">
<path fill="none" stroke="#63b8ff" d="M1215.71,-168.16C1166.2,-160.95 1076.49,-147.09 990.2,-128.98"/>
<polygon fill="#63b8ff" stroke="#63b8ff" points="990.74,-125.52 980.24,-126.87 989.29,-132.37 990.74,-125.52"/>
</a>
</g>
</g>
<!-- Node32&#45;&gt;Node28 -->
<g id="edge41_Node000032_Node000028" class="edge">
<title>Node32&#45;&gt;Node28</title>
<g id="a_edge41_Node000032_Node000028"><a xlink:title=" ">
<path fill="none" stroke="#63b8ff" d="M1243.54,-164.98C1234.37,-157.15 1220.56,-145.34 1209.47,-135.86"/>
<polygon fill="#63b8ff" stroke="#63b8ff" points="1211.52,-133.01 1201.64,-129.17 1206.97,-138.33 1211.52,-133.01"/>
</a>
</g>
</g>
<!-- Node32&#45;&gt;Node29 -->
<g id="edge42_Node000032_Node000029" class="edge">
<title>Node32&#45;&gt;Node29</title>
<g id="a_edge42_Node000032_Node000029"><a xlink:title=" ">
<path fill="none" stroke="#63b8ff" d="M1283.87,-164.98C1315.87,-156.01 1366.46,-141.82 1401.88,-131.89"/>
<polygon fill="#63b8ff" stroke="#63b8ff" points="1403.21,-135.15 1411.9,-129.08 1401.32,-128.41 1403.21,-135.15"/>
</a>
</g>
</g>
<!-- Node32&#45;&gt;Node30 -->
<g id="edge40_Node000032_Node000030" class="edge">
<title>Node32&#45;&gt;Node30</title>
<g id="a_edge40_Node000032_Node000030"><a xlink:title=" ">
<path fill="none" stroke="#63b8ff" d="M1256.97,-164.75C1259.78,-157.65 1263.84,-147.4 1267.35,-138.56"/>
<polygon fill="#63b8ff" stroke="#63b8ff" points="1270.67,-139.68 1271.1,-129.09 1264.16,-137.1 1270.67,-139.68"/>
</a>
</g>
</g>
<!-- Node32&#45;&gt;Node31 -->
<g id="edge39_Node000032_Node000031" class="edge">
<title>Node32&#45;&gt;Node31</title>
<g id="a_edge39_Node000032_Node000031"><a xlink:title=" ">
<path fill="none" stroke="#63b8ff" d="M1270.05,-164.98C1286.39,-156.57 1311.63,-143.59 1330.63,-133.81"/>
<polygon fill="#63b8ff" stroke="#63b8ff" points="1332.36,-136.86 1339.65,-129.17 1329.16,-130.63 1332.36,-136.86"/>
</a>
</g>
</g>
<!-- Node33 -->
<g id="Node000033" class="node">
<title>Node33</title>
<g id="a_Node000033"><a xlink:href="../../d6/d75/initcoord_8h.html" target="_top" xlink:title="Function declarations to handle the atomic coordination data.">
<polygon fill="white" stroke="#666666" points="1567.5,-129 1499.5,-129 1499.5,-110 1567.5,-110 1567.5,-129"/>
<text text-anchor="middle" x="1533.5" y="-117" font-family="Helvetica,sans-Serif" font-size="10.00">initcoord.h</text>
</a>
</g>
</g>
<!-- Node32&#45;&gt;Node33 -->
<g id="edge38_Node000032_Node000033" class="edge">
<title>Node32&#45;&gt;Node33</title>
<g id="a_edge38_Node000032_Node000033"><a xlink:title=" ">
<path fill="none" stroke="#63b8ff" d="M1291.28,-166.52C1336.06,-158.22 1413.21,-143.85 1489.04,-129.27"/>
<polygon fill="#63b8ff" stroke="#63b8ff" points="1490.08,-132.63 1499.24,-127.3 1488.76,-125.76 1490.08,-132.63"/>
</a>
</g>
</g>
<!-- Node34&#45;&gt;Node2 -->
<g id="edge44_Node000034_Node000002" class="edge">
<title>Node34&#45;&gt;Node2</title>
<g id="a_edge44_Node000034_Node000002"><a xlink:title=" ">
<path fill="none" stroke="#63b8ff" d="M1109.59,-164.98C1093.95,-156.61 1069.84,-143.7 1051.62,-133.95"/>
<polygon fill="#63b8ff" stroke="#63b8ff" points="1053.16,-130.8 1042.7,-129.17 1049.86,-136.98 1053.16,-130.8"/>
</a>
</g>
</g>
<!-- Node34&#45;&gt;Node25 -->
<g id="edge47_Node000034_Node000025" class="edge">
<title>Node34&#45;&gt;Node25</title>
<g id="a_edge47_Node000034_Node000025"><a xlink:title=" ">
<path fill="none" stroke="#63b8ff" d="M1091.95,-166.24C1048.64,-156.87 973.14,-140.54 925.05,-130.14"/>
<polygon fill="#63b8ff" stroke="#63b8ff" points="925.74,-126.71 915.23,-128.01 924.26,-133.55 925.74,-126.71"/>
</a>
</g>
</g>
<!-- Node34&#45;&gt;Node26 -->
<g id="edge46_Node000034_Node000026" class="edge">
<title>Node34&#45;&gt;Node26</title>
<g id="a_edge46_Node000034_Node000026"><a xlink:title=" ">
<path fill="none" stroke="#63b8ff" d="M1122.69,-164.75C1120.44,-157.72 1117.2,-147.62 1114.38,-138.84"/>
<polygon fill="#63b8ff" stroke="#63b8ff" points="1117.64,-137.54 1111.25,-129.09 1110.98,-139.68 1117.64,-137.54"/>
</a>
</g>
</g>
<!-- Node34&#45;&gt;Node27 -->
<g id="edge45_Node000034_Node000027" class="edge">
<title>Node34&#45;&gt;Node27</title>
<g id="a_edge45_Node000034_Node000027"><a xlink:title=" ">
<path fill="none" stroke="#63b8ff" d="M1098.35,-164.98C1068.8,-155.72 1021.53,-140.89 989.77,-130.93"/>
<polygon fill="#63b8ff" stroke="#63b8ff" points="990.63,-127.54 980.04,-127.88 988.54,-134.22 990.63,-127.54"/>
</a>
</g>
</g>
<!-- Node34&#45;&gt;Node28 -->
<g id="edge48_Node000034_Node000028" class="edge">
<title>Node34&#45;&gt;Node28</title>
<g id="a_edge48_Node000034_Node000028"><a xlink:title=" ">
<path fill="none" stroke="#63b8ff" d="M1136.1,-164.98C1145.96,-157.07 1160.85,-145.11 1172.72,-135.58"/>
<polygon fill="#63b8ff" stroke="#63b8ff" points="1175.1,-138.16 1180.7,-129.17 1170.71,-132.7 1175.1,-138.16"/>
</a>
</g>
</g>
<!-- Node34&#45;&gt;Node29 -->
<g id="edge49_Node000034_Node000029" class="edge">
<title>Node34&#45;&gt;Node29</title>
<g id="a_edge49_Node000034_Node000029"><a xlink:title=" ">
<path fill="none" stroke="#63b8ff" d="M1159.36,-167.96C1210.21,-159.62 1309.34,-143.29 1393.5,-129 1393.6,-128.98 1393.7,-128.97 1393.8,-128.95"/>
<polygon fill="#63b8ff" stroke="#63b8ff" points="1394.19,-132.43 1403.46,-127.3 1393.01,-125.53 1394.19,-132.43"/>
</a>
</g>
</g>
<!-- Node34&#45;&gt;Node30 -->
<g id="edge51_Node000034_Node000030" class="edge">
<title>Node34&#45;&gt;Node30</title>
<g id="a_edge51_Node000034_Node000030"><a xlink:title=" ">
<path fill="none" stroke="#63b8ff" d="M1149.44,-164.98C1174.06,-156.23 1212.62,-142.51 1240.42,-132.62"/>
<polygon fill="#63b8ff" stroke="#63b8ff" points="1241.88,-135.82 1250.12,-129.17 1239.53,-129.22 1241.88,-135.82"/>
</a>
</g>
</g>
<!-- Node34&#45;&gt;Node31 -->
<g id="edge50_Node000034_Node000031" class="edge">
<title>Node34&#45;&gt;Node31</title>
<g id="a_edge50_Node000034_Node000031"><a xlink:title=" ">
<path fill="none" stroke="#63b8ff" d="M1159.09,-165.79C1201.35,-156.1 1273.74,-139.49 1318.13,-129.3"/>
<polygon fill="#63b8ff" stroke="#63b8ff" points="1319,-132.69 1327.97,-127.05 1317.44,-125.87 1319,-132.69"/>
</a>
</g>
</g>
<!-- Node36 -->
<g id="Node000036" class="node">
<title>Node36</title>
<g id="a_Node000036"><a xlink:href="../../dc/d50/read__isaacs_8h.html" target="_top" xlink:title="Function declarations to read / write ISAACS XML file.">
<polygon fill="white" stroke="#666666" points="1946,-129 1863,-129 1863,-110 1946,-110 1946,-129"/>
<text text-anchor="middle" x="1904.5" y="-117" font-family="Helvetica,sans-Serif" font-size="10.00">read_isaacs.h</text>
</a>
</g>
</g>
<!-- Node35&#45;&gt;Node36 -->
<g id="edge53_Node000035_Node000036" class="edge">
<title>Node35&#45;&gt;Node36</title>
<g id="a_edge53_Node000035_Node000036"><a xlink:title=" ">
<path fill="none" stroke="#63b8ff" d="M1743.35,-164.98C1776,-155.97 1827.7,-141.7 1863.7,-131.76"/>
<polygon fill="#63b8ff" stroke="#63b8ff" points="1864.7,-135.12 1873.41,-129.08 1862.84,-128.37 1864.7,-135.12"/>
</a>
</g>
</g>
<!-- Node37 -->
<g id="Node000037" class="node">
<title>Node37</title>
<g id="a_Node000037"><a xlink:title=" ">
<polygon fill="#e0e0e0" stroke="#999999" points="1956.5,-74 1852.5,-74 1852.5,-55 1956.5,-55 1956.5,-74"/>
<text text-anchor="middle" x="1904.5" y="-62" font-family="Helvetica,sans-Serif" font-size="10.00">libxml/encoding.h</text>
</a>
</g>
</g>
<!-- Node36&#45;&gt;Node37 -->
<g id="edge54_Node000036_Node000037" class="edge">
<title>Node36&#45;&gt;Node37</title>
<g id="a_edge54_Node000036_Node000037"><a xlink:title=" ">
<path fill="none" stroke="#63b8ff" d="M1904.5,-109.75C1904.5,-102.8 1904.5,-92.85 1904.5,-84.13"/>
<polygon fill="#63b8ff" stroke="#63b8ff" points="1908,-84.09 1904.5,-74.09 1901,-84.09 1908,-84.09"/>
</a>
</g>
</g>
<!-- Node38 -->
<g id="Node000038" class="node">
<title>Node38</title>
<g id="a_Node000038"><a xlink:title=" ">
<polygon fill="#e0e0e0" stroke="#999999" points="2080.5,-74 1974.5,-74 1974.5,-55 2080.5,-55 2080.5,-74"/>
<text text-anchor="middle" x="2027.5" y="-62" font-family="Helvetica,sans-Serif" font-size="10.00">libxml/xmlwriter.h</text>
</a>
</g>
</g>
<!-- Node36&#45;&gt;Node38 -->
<g id="edge55_Node000036_Node000038" class="edge">
<title>Node36&#45;&gt;Node38</title>
<g id="a_edge55_Node000036_Node000038"><a xlink:title=" ">
<path fill="none" stroke="#63b8ff" d="M1924.26,-109.98C1944.23,-101.38 1975.3,-87.99 1998.15,-78.15"/>
<polygon fill="#63b8ff" stroke="#63b8ff" points="1999.58,-81.34 2007.38,-74.17 1996.81,-74.91 1999.58,-81.34"/>
</a>
</g>
</g>
<!-- Node39 -->
<g id="Node000039" class="node">
<title>Node39</title>
<g id="a_Node000039"><a xlink:title=" ">
<polygon fill="#e0e0e0" stroke="#999999" points="2208,-74 2099,-74 2099,-55 2208,-55 2208,-74"/>
<text text-anchor="middle" x="2153.5" y="-62" font-family="Helvetica,sans-Serif" font-size="10.00">libxml/xmlreader.h</text>
</a>
</g>
</g>
<!-- Node36&#45;&gt;Node39 -->
<g id="edge56_Node000036_Node000039" class="edge">
<title>Node36&#45;&gt;Node39</title>
<g id="a_edge56_Node000036_Node000039"><a xlink:title=" ">
<path fill="none" stroke="#63b8ff" d="M1944.51,-109.98C1987.67,-100.8 2056.48,-86.15 2103.26,-76.19"/>
<polygon fill="#63b8ff" stroke="#63b8ff" points="2104.13,-79.59 2113.18,-74.08 2102.67,-72.74 2104.13,-79.59"/>
</a>
</g>
</g>
<!-- Node40 -->
<g id="Node000040" class="node">
<title>Node40</title>
<g id="a_Node000040"><a xlink:title=" ">
<polygon fill="#e0e0e0" stroke="#999999" points="1834,-74 1745,-74 1745,-55 1834,-55 1834,-74"/>
<text text-anchor="middle" x="1789.5" y="-62" font-family="Helvetica,sans-Serif" font-size="10.00">libxml/parser.h</text>
</a>
</g>
</g>
<!-- Node36&#45;&gt;Node40 -->
<g id="edge57_Node000036_Node000040" class="edge">
<title>Node36&#45;&gt;Node40</title>
<g id="a_edge57_Node000036_Node000040"><a xlink:title=" ">
<path fill="none" stroke="#63b8ff" d="M1886.02,-109.98C1867.52,-101.46 1838.82,-88.23 1817.52,-78.41"/>
<polygon fill="#63b8ff" stroke="#63b8ff" points="1818.86,-75.18 1808.31,-74.17 1815.93,-81.53 1818.86,-75.18"/>
</a>
</g>
</g>
</g>
</svg>

<g id="navigator" transform="translate(0 0)" fill="#404254">
  <rect fill="#f2f5e9" fill-opacity="0.5" stroke="#606060" stroke-width=".5" x="0" y="0" width="60" height="60"/>
  <use id="zoomplus" xlink:href="#zoomPlus" x="17" y="9" onmousedown="handleZoom(evt,'in')"/>
  <use id="zoomminus" xlink:href="#zoomMin" x="42" y="9" onmousedown="handleZoom(evt,'out')"/>
  <use id="reset" xlink:href="#resetDef" x="30" y="36" onmousedown="handleReset()"/>
   <use id="arrowup" xlink:href="#arrowUp" x="0" y="0" onmousedown="handlePan(0,-1)"/>
  <use id="arrowright" xlink:href="#arrowRight" x="0" y="0" onmousedown="handlePan(1,0)"/>
  <use id="arrowdown" xlink:href="#arrowDown" x="0" y="0" onmousedown="handlePan(0,1)"/>
  <use id="arrowleft" xlink:href="#arrowLeft" x="0" y="0" onmousedown="handlePan(-1,0)"/>
</g>
<svg viewBox="0 0 15 15" width="100%" height="30px" preserveAspectRatio="xMaxYMin meet">
 <g id="arrow_out" transform="scale(0.3 0.3)">
  <a xlink:href="callbacks_8c__incl_org.svg" target="_base">
   <rect id="button" ry="5" rx="5" y="6" x="6" height="38" width="38"
        fill="#f2f5e9" fill-opacity="0.5" stroke="#606060" stroke-width="1.0"/>
   <path id="arrow"
     d="M 11.500037,31.436501 C 11.940474,20.09759 22.043105,11.32322 32.158766,21.979434 L 37.068811,17.246167 C 37.068811,17.246167 37.088388,32 37.088388,32 L 22.160133,31.978069 C 22.160133,31.978069 26.997745,27.140456 26.997745,27.140456 C 18.528582,18.264221 13.291696,25.230495 11.500037,31.436501 z"
     style="fill:#404040;"/>
  </a>
 </g>
</svg>

<style type='text/css'>
<![CDATA[
[data-mouse-over-selected='false'] { opacity: 0.7; }
[data-mouse-over-selected='true']  { opacity: 1.0; }
]]>
</style>
<script type="application/ecmascript"><![CDATA[
document.addEventListener('DOMContentLoaded', (event) => {
  highlightEdges();
  highlightAdjacentNodes();
});
]]></script>
</svg>
