<?xml version="1.0" encoding="UTF-8" standalone="no"?>
<!DOCTYPE svg PUBLIC "-//W3C//DTD SVG 1.1//EN"
 "http://www.w3.org/Graphics/SVG/1.1/DTD/svg11.dtd">
<!-- Generated by graphviz version 14.1.4 (20260321.0153)
 -->
<!-- Title: gui/callbacks.c Pages: 1 -->
<!--zoomable 252 -->

<svg id="main" version="1.1" xmlns="http://www.w3.org/2000/svg" xmlns:xlink="http://www.w3.org/1999/xlink" xml:space="preserve" onload="init(evt)">

<style type="text/css"><![CDATA[
.node, .edge {opacity: 0.7;}
.node.selected, .edge.selected {opacity: 1;}
.edge:hover path { stroke: red; }
.edge:hover polygon { stroke: red; fill: red; }
]]></style>

<defs>
  <circle id="rim" cx="0" cy="0" r="7"/>
  <circle id="rim2" cx="0" cy="0" r="3.5"/>
  <g id="zoomPlus">
    <use xlink:href="#rim" fill="#404040"><set attributeName="fill" to="#808080" begin="zoomplus.mouseover" end="zoomplus.mouseout"/></use>
    <path d="M-4,0h8M0,-4v8" fill="none" stroke="white" stroke-width="1.5" pointer-events="none"/>
  </g>
  <g id="zoomMin">
    <use xlink:href="#rim" fill="#404040"><set attributeName="fill" to="#808080" begin="zoomminus.mouseover" end="zoomminus.mouseout"/></use>
    <path d="M-4,0h8" fill="none" stroke="white" stroke-width="1.5" pointer-events="none"/>
  </g>
  <g id="arrowUp" transform="translate(30 24)">
    <use xlink:href="#rim"/>
    <path pointer-events="none" fill="none" stroke="white" stroke-width="1.5" d="M0,-3.0v7 M-2.5,-0.5L0,-3.0L2.5,-0.5"/>
  </g>
  <g id="arrowRight" transform="rotate(90) translate(36 -43)">
    <use xlink:href="#rim"/>
    <path pointer-events="none" fill="none" stroke="white" stroke-width="1.5" d="M0,-3.0v7 M-2.5,-0.5L0,-3.0L2.5,-0.5"/>
  </g>
  <g id="arrowDown" transform="rotate(180) translate(-30 -48)">
    <use xlink:href="#rim"/>
    <path pointer-events="none" fill="none" stroke="white" stroke-width="1.5" d="M0,-3.0v7 M-2.5,-0.5L0,-3.0L2.5,-0.5"/>
  </g>
  <g id="arrowLeft" transform="rotate(270) translate(-36 17)">
    <use xlink:href="#rim"/>
    <path pointer-events="none" fill="none" stroke="white" stroke-width="1.5" d="M0,-3.0v7 M-2.5,-0.5L0,-3.0L2.5,-0.5"/>
  </g>
  <g id="resetDef">
    <use xlink:href="#rim2" fill="#404040"><set attributeName="fill" to="#808080" begin="reset.mouseover" end="reset.mouseout"/></use>
  </g>
</defs>
<script type="application/ecmascript">
var viewWidth = 2234;
var viewHeight = 252;
var sectionId = 'dynsection-0';
</script>
<script type="application/ecmascript" xlink:href="../../svg.min.js"/>
<svg id="graph" class="graph">
<g id="viewport">
<title>gui/callbacks.c</title>
<!-- Node1 -->
<g id="Node000001" class="node">
<title>Node1</title>
<g id="a_Node000001"><a xlink:title="General callbacks &#160;&#160;Functions to open and close files.">
<polygon fill="#999999" stroke="#666666" points="1214.38,-244 1133.12,-244 1133.12,-224 1214.38,-224 1214.38,-244"/>
<text xml:space="preserve" text-anchor="middle" x="1173.75" y="-230.5" font-family="Helvetica,sans-Serif" font-size="10.00">gui/callbacks.c</text>
</a>
</g>
</g>
<!-- Node2 -->
<g id="Node000002" class="node">
<title>Node2</title>
<g id="a_Node000002"><a xlink:href="../../d2/d49/global_8h.html" target="_top" xlink:title="Global variable declarations &#160;&#160;Global convenience function declarations &#160;&#160;Global data structure defin...">
<polygon fill="white" stroke="#666666" points="1049.62,-132 999.88,-132 999.88,-112 1049.62,-112 1049.62,-132"/>
<text xml:space="preserve" text-anchor="middle" x="1024.75" y="-118.5" font-family="Helvetica,sans-Serif" font-size="10.00">global.h</text>
</a>
</g>
</g>
<!-- Node1&#45;&gt;Node2 -->
<g id="edge1_Node000001_Node000002" class="edge">
<title>Node1&#45;&gt;Node2</title>
<g id="a_edge1_Node000001_Node000002"><a xlink:title=" ">
<path fill="none" stroke="#63b8ff" d="M1138.9,-223.61C1117.05,-216.46 1089.24,-204.92 1068.75,-188 1053.66,-175.54 1041.65,-156.6 1034.02,-142.38"/>
<polygon fill="#63b8ff" stroke="#63b8ff" points="1037.19,-140.88 1029.54,-133.55 1030.94,-144.05 1037.19,-140.88"/>
</a>
</g>
</g>
<!-- Node28 -->
<g id="Node000028" class="node">
<title>Node28</title>
<g id="a_Node000028"><a xlink:href="../../d4/da9/interface_8h.html" target="_top" xlink:title="Messaging function declarations.">
<polygon fill="white" stroke="#666666" points="921.62,-132 859.88,-132 859.88,-112 921.62,-112 921.62,-132"/>
<text xml:space="preserve" text-anchor="middle" x="890.75" y="-118.5" font-family="Helvetica,sans-Serif" font-size="10.00">interface.h</text>
</a>
</g>
</g>
<!-- Node1&#45;&gt;Node28 -->
<g id="edge29_Node000001_Node000028" class="edge">
<title>Node1&#45;&gt;Node28</title>
<g id="a_edge29_Node000001_Node000028"><a xlink:title=" ">
<path fill="none" stroke="#63b8ff" d="M1132.92,-224.18C1099.88,-216.43 1052.49,-203.92 1012.75,-188 977.62,-173.93 939.49,-152.53 915.37,-138.17"/>
<polygon fill="#63b8ff" stroke="#63b8ff" points="917.31,-135.26 906.94,-133.09 913.7,-141.25 917.31,-135.26"/>
</a>
</g>
</g>
<!-- Node29 -->
<g id="Node000029" class="node">
<title>Node29</title>
<g id="a_Node000029"><a xlink:href="../../dd/d49/callbacks_8h.html" target="_top" xlink:title="Callback declarations for main window.">
<polygon fill="white" stroke="#666666" points="1133.5,-132 1068,-132 1068,-112 1133.5,-112 1133.5,-132"/>
<text xml:space="preserve" text-anchor="middle" x="1100.75" y="-118.5" font-family="Helvetica,sans-Serif" font-size="10.00">callbacks.h</text>
</a>
</g>
</g>
<!-- Node1&#45;&gt;Node29 -->
<g id="edge30_Node000001_Node000029" class="edge">
<title>Node1&#45;&gt;Node29</title>
<g id="a_edge30_Node000001_Node000029"><a xlink:title=" ">
<path fill="none" stroke="#63b8ff" d="M1132.86,-224.92C1112.28,-218.57 1089.14,-207.4 1076.75,-188 1067.48,-173.48 1076.09,-154.86 1085.48,-141.27"/>
<polygon fill="#63b8ff" stroke="#63b8ff" points="1088.05,-143.69 1091.3,-133.61 1082.47,-139.46 1088.05,-143.69"/>
</a>
</g>
</g>
<!-- Node30 -->
<g id="Node000030" class="node">
<title>Node30</title>
<g id="a_Node000030"><a xlink:href="../../da/dc2/bind_8h.html" target="_top" xlink:title="Binding to the Fortran90 subroutines.">
<polygon fill="white" stroke="#666666" points="981.88,-132 939.62,-132 939.62,-112 981.88,-112 981.88,-132"/>
<text xml:space="preserve" text-anchor="middle" x="960.75" y="-118.5" font-family="Helvetica,sans-Serif" font-size="10.00">bind.h</text>
</a>
</g>
</g>
<!-- Node1&#45;&gt;Node30 -->
<g id="edge31_Node000001_Node000030" class="edge">
<title>Node1&#45;&gt;Node30</title>
<g id="a_edge31_Node000001_Node000030"><a xlink:title=" ">
<path fill="none" stroke="#63b8ff" d="M1138.03,-223.54C1111.87,-215.87 1076,-203.75 1046.75,-188 1021.58,-174.45 995.84,-153.94 979.16,-139.59"/>
<polygon fill="#63b8ff" stroke="#63b8ff" points="981.85,-137.29 972.03,-133.33 977.24,-142.56 981.85,-137.29"/>
</a>
</g>
</g>
<!-- Node31 -->
<g id="Node000031" class="node">
<title>Node31</title>
<g id="a_Node000031"><a xlink:href="../../dc/d8d/project_8h.html" target="_top" xlink:title="Function declarations for reading atomes project file &#160;&#160;Function declarations for saving atomes proje...">
<polygon fill="white" stroke="#666666" points="1205.5,-132 1152,-132 1152,-112 1205.5,-112 1205.5,-132"/>
<text xml:space="preserve" text-anchor="middle" x="1178.75" y="-118.5" font-family="Helvetica,sans-Serif" font-size="10.00">project.h</text>
</a>
</g>
</g>
<!-- Node1&#45;&gt;Node31 -->
<g id="edge32_Node000001_Node000031" class="edge">
<title>Node1&#45;&gt;Node31</title>
<g id="a_edge32_Node000001_Node000031"><a xlink:title=" ">
<path fill="none" stroke="#63b8ff" d="M1174.18,-223.62C1174.98,-206.01 1176.72,-167.59 1177.81,-143.65"/>
<polygon fill="#63b8ff" stroke="#63b8ff" points="1181.3,-144.02 1178.26,-133.87 1174.31,-143.7 1181.3,-144.02"/>
</a>
</g>
</g>
<!-- Node32 -->
<g id="Node000032" class="node">
<title>Node32</title>
<g id="a_Node000032"><a xlink:href="../../d4/de6/workspace_8h.html" target="_top" xlink:title="Function declarations for workspace managment.">
<polygon fill="white" stroke="#666666" points="1446.5,-132 1375,-132 1375,-112 1446.5,-112 1446.5,-132"/>
<text xml:space="preserve" text-anchor="middle" x="1410.75" y="-118.5" font-family="Helvetica,sans-Serif" font-size="10.00">workspace.h</text>
</a>
</g>
</g>
<!-- Node1&#45;&gt;Node32 -->
<g id="edge33_Node000001_Node000032" class="edge">
<title>Node1&#45;&gt;Node32</title>
<g id="a_edge33_Node000001_Node000032"><a xlink:title=" ">
<path fill="none" stroke="#63b8ff" d="M1214.75,-223.6C1244.04,-216.05 1283.9,-204.07 1316.75,-188 1344.1,-174.62 1372.43,-153.93 1390.74,-139.5"/>
<polygon fill="#63b8ff" stroke="#63b8ff" points="1392.79,-142.34 1398.4,-133.35 1388.41,-136.88 1392.79,-142.34"/>
</a>
</g>
</g>
<!-- Node33 -->
<g id="Node000033" class="node">
<title>Node33</title>
<g id="a_Node000033"><a xlink:href="../../d1/d2a/glwindow_8h.html" target="_top" xlink:title="Function declarations for the creation of the OpenGL window.">
<polygon fill="white" stroke="#666666" points="1287.75,-132 1223.75,-132 1223.75,-112 1287.75,-112 1287.75,-132"/>
<text xml:space="preserve" text-anchor="middle" x="1255.75" y="-118.5" font-family="Helvetica,sans-Serif" font-size="10.00">glwindow.h</text>
</a>
</g>
</g>
<!-- Node1&#45;&gt;Node33 -->
<g id="edge34_Node000001_Node000033" class="edge">
<title>Node1&#45;&gt;Node33</title>
<g id="a_edge34_Node000001_Node000033"><a xlink:title=" ">
<path fill="none" stroke="#63b8ff" d="M1214.7,-226.67C1237.7,-220.79 1264.56,-209.52 1278.75,-188 1288.19,-173.69 1279.87,-155.04 1270.7,-141.39"/>
<polygon fill="#63b8ff" stroke="#63b8ff" points="1273.77,-139.66 1265.02,-133.69 1268.14,-143.82 1273.77,-139.66"/>
</a>
</g>
</g>
<!-- Node34 -->
<g id="Node000034" class="node">
<title>Node34</title>
<g id="a_Node000034"><a xlink:href="../../dc/de3/glview_8h.html" target="_top" xlink:title="Variable declarations related to the OpenGL window &#160;&#160;Function declarations related to the OpenGL wind...">
<polygon fill="white" stroke="#666666" points="1357.38,-132 1306.12,-132 1306.12,-112 1357.38,-112 1357.38,-132"/>
<text xml:space="preserve" text-anchor="middle" x="1331.75" y="-118.5" font-family="Helvetica,sans-Serif" font-size="10.00">glview.h</text>
</a>
</g>
</g>
<!-- Node1&#45;&gt;Node34 -->
<g id="edge35_Node000001_Node000034" class="edge">
<title>Node1&#45;&gt;Node34</title>
<g id="a_edge35_Node000001_Node000034"><a xlink:title=" ">
<path fill="none" stroke="#63b8ff" d="M1214.69,-225.26C1240.03,-218.79 1271.96,-207.38 1294.75,-188 1308.82,-176.04 1318.67,-157.31 1324.65,-143.03"/>
<polygon fill="#63b8ff" stroke="#63b8ff" points="1327.91,-144.32 1328.23,-133.73 1321.37,-141.8 1327.91,-144.32"/>
</a>
</g>
</g>
<!-- Node35 -->
<g id="Node000035" class="node">
<title>Node35</title>
<g id="a_Node000035"><a xlink:href="../../d5/d9c/atom__edit_8h.html" target="_top" xlink:title="Function declarations for the mode edition window.">
<polygon fill="white" stroke="#666666" points="1269.25,-188 1202.25,-188 1202.25,-168 1269.25,-168 1269.25,-188"/>
<text xml:space="preserve" text-anchor="middle" x="1235.75" y="-174.5" font-family="Helvetica,sans-Serif" font-size="10.00">atom_edit.h</text>
</a>
</g>
</g>
<!-- Node1&#45;&gt;Node35 -->
<g id="edge36_Node000001_Node000035" class="edge">
<title>Node1&#45;&gt;Node35</title>
<g id="a_edge36_Node000001_Node000035"><a xlink:title=" ">
<path fill="none" stroke="#63b8ff" d="M1184.55,-223.59C1193.35,-215.93 1206,-204.91 1216.52,-195.75"/>
<polygon fill="#63b8ff" stroke="#63b8ff" points="1218.69,-198.5 1223.93,-189.29 1214.09,-193.22 1218.69,-198.5"/>
</a>
</g>
</g>
<!-- Node37 -->
<g id="Node000037" class="node">
<title>Node37</title>
<g id="a_Node000037"><a xlink:href="../../d9/d97/cell__edit_8h.html" target="_top" xlink:title="Function declarations for the cell edition window.">
<polygon fill="white" stroke="#666666" points="1145.88,-188 1085.62,-188 1085.62,-168 1145.88,-168 1145.88,-188"/>
<text xml:space="preserve" text-anchor="middle" x="1115.75" y="-174.5" font-family="Helvetica,sans-Serif" font-size="10.00">cell_edit.h</text>
</a>
</g>
</g>
<!-- Node1&#45;&gt;Node37 -->
<g id="edge46_Node000001_Node000037" class="edge">
<title>Node1&#45;&gt;Node37</title>
<g id="a_edge46_Node000001_Node000037"><a xlink:title=" ">
<path fill="none" stroke="#63b8ff" d="M1163.65,-223.59C1155.5,-216.01 1143.82,-205.13 1134.03,-196.02"/>
<polygon fill="#63b8ff" stroke="#63b8ff" points="1136.55,-193.58 1126.84,-189.33 1131.78,-198.71 1136.55,-193.58"/>
</a>
</g>
</g>
<!-- Node38 -->
<g id="Node000038" class="node">
<title>Node38</title>
<g id="a_Node000038"><a xlink:href="../../d1/dfb/readers_8h.html" target="_top" xlink:title="Functions declaration to read atomic coordinates.">
<polygon fill="white" stroke="#666666" points="1739,-188 1682.5,-188 1682.5,-168 1739,-168 1739,-188"/>
<text xml:space="preserve" text-anchor="middle" x="1710.75" y="-174.5" font-family="Helvetica,sans-Serif" font-size="10.00">readers.h</text>
</a>
</g>
</g>
<!-- Node1&#45;&gt;Node38 -->
<g id="edge55_Node000001_Node000038" class="edge">
<title>Node1&#45;&gt;Node38</title>
<g id="a_edge55_Node000001_Node000038"><a xlink:title=" ">
<path fill="none" stroke="#63b8ff" d="M1214.55,-228.9C1314.75,-218.82 1571.92,-192.96 1671,-183"/>
<polygon fill="#63b8ff" stroke="#63b8ff" points="1671.17,-186.5 1680.77,-182.01 1670.47,-179.53 1671.17,-186.5"/>
</a>
</g>
</g>
<!-- Node3 -->
<g id="Node000003" class="node">
<title>Node3</title>
<g id="a_Node000003"><a xlink:title=" ">
<polygon fill="#e0e0e0" stroke="#999999" points="1048.12,-76 1001.38,-76 1001.38,-56 1048.12,-56 1048.12,-76"/>
<text xml:space="preserve" text-anchor="middle" x="1024.75" y="-62.5" font-family="Helvetica,sans-Serif" font-size="10.00">libintl.h</text>
</a>
</g>
</g>
<!-- Node2&#45;&gt;Node3 -->
<g id="edge2_Node000002_Node000003" class="edge">
<title>Node2&#45;&gt;Node3</title>
<g id="a_edge2_Node000002_Node000003"><a xlink:title=" ">
<path fill="none" stroke="#63b8ff" d="M1024.75,-111.59C1024.75,-105.01 1024.75,-95.96 1024.75,-87.73"/>
<polygon fill="#63b8ff" stroke="#63b8ff" points="1028.25,-87.81 1024.75,-77.81 1021.25,-87.81 1028.25,-87.81"/>
</a>
</g>
</g>
<!-- Node4 -->
<g id="Node000004" class="node">
<title>Node4</title>
<g id="a_Node000004"><a xlink:title=" ">
<polygon fill="#e0e0e0" stroke="#999999" points="1115.62,-76 1065.88,-76 1065.88,-56 1115.62,-56 1115.62,-76"/>
<text xml:space="preserve" text-anchor="middle" x="1090.75" y="-62.5" font-family="Helvetica,sans-Serif" font-size="10.00">locale.h</text>
</a>
</g>
</g>
<!-- Node2&#45;&gt;Node4 -->
<g id="edge3_Node000002_Node000004" class="edge">
<title>Node2&#45;&gt;Node4</title>
<g id="a_edge3_Node000002_Node000004"><a xlink:title=" ">
<path fill="none" stroke="#63b8ff" d="M1036.25,-111.59C1045.71,-103.85 1059.35,-92.69 1070.62,-83.47"/>
<polygon fill="#63b8ff" stroke="#63b8ff" points="1072.69,-86.3 1078.21,-77.26 1068.26,-80.88 1072.69,-86.3"/>
</a>
</g>
</g>
<!-- Node5 -->
<g id="Node000005" class="node">
<title>Node5</title>
<g id="a_Node000005"><a xlink:title=" ">
<polygon fill="#e0e0e0" stroke="#999999" points="1173.38,-76 1134.12,-76 1134.12,-56 1173.38,-56 1173.38,-76"/>
<text xml:space="preserve" text-anchor="middle" x="1153.75" y="-62.5" font-family="Helvetica,sans-Serif" font-size="10.00">glib.h</text>
</a>
</g>
</g>
<!-- Node2&#45;&gt;Node5 -->
<g id="edge4_Node000002_Node000005" class="edge">
<title>Node2&#45;&gt;Node5</title>
<g id="a_edge4_Node000002_Node000005"><a xlink:title=" ">
<path fill="none" stroke="#63b8ff" d="M1047.22,-111.59C1068.28,-102.78 1099.94,-89.53 1123.27,-79.76"/>
<polygon fill="#63b8ff" stroke="#63b8ff" points="1124.39,-83.09 1132.26,-76 1121.68,-76.63 1124.39,-83.09"/>
</a>
</g>
</g>
<!-- Node6 -->
<g id="Node000006" class="node">
<title>Node6</title>
<g id="a_Node000006"><a xlink:title=" ">
<polygon fill="#e0e0e0" stroke="#999999" points="1256.5,-76 1191,-76 1191,-56 1256.5,-56 1256.5,-76"/>
<text xml:space="preserve" text-anchor="middle" x="1223.75" y="-62.5" font-family="Helvetica,sans-Serif" font-size="10.00">glib/gi18n.h</text>
</a>
</g>
</g>
<!-- Node2&#45;&gt;Node6 -->
<g id="edge5_Node000002_Node000006" class="edge">
<title>Node2&#45;&gt;Node6</title>
<g id="a_edge5_Node000002_Node000006"><a xlink:title=" ">
<path fill="none" stroke="#63b8ff" d="M1049.95,-114.16C1082.58,-105.31 1139.96,-89.74 1179.83,-78.92"/>
<polygon fill="#63b8ff" stroke="#63b8ff" points="1180.63,-82.33 1189.36,-76.33 1178.79,-75.57 1180.63,-82.33"/>
</a>
</g>
</g>
<!-- Node7 -->
<g id="Node000007" class="node">
<title>Node7</title>
<g id="a_Node000007"><a xlink:title=" ">
<polygon fill="#e0e0e0" stroke="#999999" points="1327.12,-76 1274.38,-76 1274.38,-56 1327.12,-56 1327.12,-76"/>
<text xml:space="preserve" text-anchor="middle" x="1300.75" y="-62.5" font-family="Helvetica,sans-Serif" font-size="10.00">gio/gio.h</text>
</a>
</g>
</g>
<!-- Node2&#45;&gt;Node7 -->
<g id="edge6_Node000002_Node000007" class="edge">
<title>Node2&#45;&gt;Node7</title>
<g id="a_edge6_Node000002_Node000007"><a xlink:title=" ">
<path fill="none" stroke="#63b8ff" d="M1049.94,-114.07C1052.9,-113.33 1055.89,-112.63 1058.75,-112 1146.5,-92.79 1172.5,-95.4 1262.99,-76.45"/>
<polygon fill="#63b8ff" stroke="#63b8ff" points="1263.52,-79.92 1272.57,-74.41 1262.06,-73.07 1263.52,-79.92"/>
</a>
</g>
</g>
<!-- Node8 -->
<g id="Node000008" class="node">
<title>Node8</title>
<g id="a_Node000008"><a xlink:title=" ">
<polygon fill="#e0e0e0" stroke="#999999" points="1396,-76 1345.5,-76 1345.5,-56 1396,-56 1396,-76"/>
<text xml:space="preserve" text-anchor="middle" x="1370.75" y="-62.5" font-family="Helvetica,sans-Serif" font-size="10.00">unistd.h</text>
</a>
</g>
</g>
<!-- Node2&#45;&gt;Node8 -->
<g id="edge7_Node000002_Node000008" class="edge">
<title>Node2&#45;&gt;Node8</title>
<g id="a_edge7_Node000002_Node000008"><a xlink:title=" ">
<path fill="none" stroke="#63b8ff" d="M1049.92,-113.95C1052.88,-113.23 1055.87,-112.57 1058.75,-112 1177,-88.77 1211.82,-98.86 1333.92,-76.1"/>
<polygon fill="#63b8ff" stroke="#63b8ff" points="1334.56,-79.54 1343.73,-74.23 1333.25,-72.67 1334.56,-79.54"/>
</a>
</g>
</g>
<!-- Node9 -->
<g id="Node000009" class="node">
<title>Node9</title>
<g id="a_Node000009"><a xlink:title=" ">
<polygon fill="#e0e0e0" stroke="#999999" points="1461.88,-76 1413.62,-76 1413.62,-56 1461.88,-56 1461.88,-76"/>
<text xml:space="preserve" text-anchor="middle" x="1437.75" y="-62.5" font-family="Helvetica,sans-Serif" font-size="10.00">string.h</text>
</a>
</g>
</g>
<!-- Node2&#45;&gt;Node9 -->
<g id="edge8_Node000002_Node000009" class="edge">
<title>Node2&#45;&gt;Node9</title>
<g id="a_edge8_Node000002_Node000009"><a xlink:title=" ">
<path fill="none" stroke="#63b8ff" d="M1049.9,-113.88C1052.87,-113.17 1055.87,-112.53 1058.75,-112 1207.26,-84.79 1250.75,-103.51 1402.25,-76.18"/>
<polygon fill="#63b8ff" stroke="#63b8ff" points="1402.66,-79.66 1411.86,-74.41 1401.39,-72.78 1402.66,-79.66"/>
</a>
</g>
</g>
<!-- Node10 -->
<g id="Node000010" class="node">
<title>Node10</title>
<g id="a_Node000010"><a xlink:title=" ">
<polygon fill="#e0e0e0" stroke="#999999" points="1248.38,-20 1203.12,-20 1203.12,0 1248.38,0 1248.38,-20"/>
<text xml:space="preserve" text-anchor="middle" x="1225.75" y="-6.5" font-family="Helvetica,sans-Serif" font-size="10.00">stdio.h</text>
</a>
</g>
</g>
<!-- Node2&#45;&gt;Node10 -->
<g id="edge9_Node000002_Node000010" class="edge">
<title>Node2&#45;&gt;Node10</title>
<g id="a_edge9_Node000002_Node000010"><a xlink:title=" ">
<path fill="none" stroke="#63b8ff" d="M1014.15,-111.83C1000.01,-98.5 978.34,-73.46 992.75,-56 1017.59,-25.9 1133.27,-15.71 1191.73,-12.44"/>
<polygon fill="#63b8ff" stroke="#63b8ff" points="1191.64,-15.95 1201.44,-11.94 1191.27,-8.96 1191.64,-15.95"/>
</a>
</g>
</g>
<!-- Node11 -->
<g id="Node000011" class="node">
<title>Node11</title>
<g id="a_Node000011"><a xlink:title=" ">
<polygon fill="#e0e0e0" stroke="#999999" points="1709.5,-76 1662,-76 1662,-56 1709.5,-56 1709.5,-76"/>
<text xml:space="preserve" text-anchor="middle" x="1685.75" y="-62.5" font-family="Helvetica,sans-Serif" font-size="10.00">stdlib.h</text>
</a>
</g>
</g>
<!-- Node2&#45;&gt;Node11 -->
<g id="edge10_Node000002_Node000011" class="edge">
<title>Node2&#45;&gt;Node11</title>
<g id="a_edge10_Node000002_Node000011"><a xlink:title=" ">
<path fill="none" stroke="#63b8ff" d="M1049.88,-113.75C1052.85,-113.07 1055.86,-112.47 1058.75,-112 1316.17,-70.55 1389.71,-117.65 1650.38,-76.02"/>
<polygon fill="#63b8ff" stroke="#63b8ff" points="1650.93,-79.47 1660.23,-74.41 1649.8,-72.56 1650.93,-79.47"/>
</a>
</g>
</g>
<!-- Node12 -->
<g id="Node000012" class="node">
<title>Node12</title>
<g id="a_Node000012"><a xlink:title=" ">
<polygon fill="#e0e0e0" stroke="#999999" points="1794.25,-76 1727.25,-76 1727.25,-56 1794.25,-56 1794.25,-76"/>
<text xml:space="preserve" text-anchor="middle" x="1760.75" y="-62.5" font-family="Helvetica,sans-Serif" font-size="10.00">sys/types.h</text>
</a>
</g>
</g>
<!-- Node2&#45;&gt;Node12 -->
<g id="edge11_Node000002_Node000012" class="edge">
<title>Node2&#45;&gt;Node12</title>
<g id="a_edge11_Node000002_Node000012"><a xlink:title=" ">
<path fill="none" stroke="#63b8ff" d="M1049.88,-113.74C1052.85,-113.06 1055.85,-112.46 1058.75,-112 1345.24,-66.76 1425.54,-113.67 1715.61,-76.22"/>
<polygon fill="#63b8ff" stroke="#63b8ff" points="1715.95,-79.7 1725.4,-74.93 1715.03,-72.76 1715.95,-79.7"/>
</a>
</g>
</g>
<!-- Node13 -->
<g id="Node000013" class="node">
<title>Node13</title>
<g id="a_Node000013"><a xlink:title=" ">
<polygon fill="#e0e0e0" stroke="#999999" points="59.5,-76 0,-76 0,-56 59.5,-56 59.5,-76"/>
<text xml:space="preserve" text-anchor="middle" x="29.75" y="-62.5" font-family="Helvetica,sans-Serif" font-size="10.00">sys/stat.h</text>
</a>
</g>
</g>
<!-- Node2&#45;&gt;Node13 -->
<g id="edge12_Node000002_Node000013" class="edge">
<title>Node2&#45;&gt;Node13</title>
<g id="a_edge12_Node000002_Node000013"><a xlink:title=" ">
<path fill="none" stroke="#63b8ff" d="M999.63,-113.69C996.66,-113.02 993.65,-112.43 990.75,-112 588.86,-51.71 477.23,-128.93 71.06,-76.02"/>
<polygon fill="#63b8ff" stroke="#63b8ff" points="71.75,-72.58 61.38,-74.74 70.84,-79.52 71.75,-72.58"/>
</a>
</g>
</g>
<!-- Node14 -->
<g id="Node000014" class="node">
<title>Node14</title>
<g id="a_Node000014"><a xlink:title=" ">
<polygon fill="#e0e0e0" stroke="#999999" points="1548.75,-20 1502.75,-20 1502.75,0 1548.75,0 1548.75,-20"/>
<text xml:space="preserve" text-anchor="middle" x="1525.75" y="-6.5" font-family="Helvetica,sans-Serif" font-size="10.00">math.h</text>
</a>
</g>
</g>
<!-- Node2&#45;&gt;Node14 -->
<g id="edge13_Node000002_Node000014" class="edge">
<title>Node2&#45;&gt;Node14</title>
<g id="a_edge13_Node000002_Node000014"><a xlink:title=" ">
<path fill="none" stroke="#63b8ff" d="M1049.89,-113.79C1052.86,-113.1 1055.86,-112.48 1058.75,-112 1112.81,-102.95 1513.43,-116.15 1550.75,-76 1562.92,-62.9 1552.69,-43.25 1541.88,-28.98"/>
<polygon fill="#63b8ff" stroke="#63b8ff" points="1544.59,-26.77 1535.53,-21.28 1539.19,-31.22 1544.59,-26.77"/>
</a>
</g>
</g>
<!-- Node15 -->
<g id="Node000015" class="node">
<title>Node15</title>
<g id="a_Node000015"><a xlink:title=" ">
<polygon fill="#e0e0e0" stroke="#999999" points="131.88,-76 77.62,-76 77.62,-56 131.88,-56 131.88,-76"/>
<text xml:space="preserve" text-anchor="middle" x="104.75" y="-62.5" font-family="Helvetica,sans-Serif" font-size="10.00">gtk/gtk.h</text>
</a>
</g>
</g>
<!-- Node2&#45;&gt;Node15 -->
<g id="edge14_Node000002_Node000015" class="edge">
<title>Node2&#45;&gt;Node15</title>
<g id="a_edge14_Node000002_Node000015"><a xlink:title=" ">
<path fill="none" stroke="#63b8ff" d="M999.63,-113.7C996.65,-113.03 993.65,-112.44 990.75,-112 620.56,-55.84 516.99,-128.68 143.29,-76.05"/>
<polygon fill="#63b8ff" stroke="#63b8ff" points="144.05,-72.63 133.65,-74.67 143.05,-79.56 144.05,-72.63"/>
</a>
</g>
</g>
<!-- Node16 -->
<g id="Node000016" class="node">
<title>Node16</title>
<g id="a_Node000016"><a xlink:title=" ">
<polygon fill="#e0e0e0" stroke="#999999" points="209.5,-76 150,-76 150,-56 209.5,-56 209.5,-76"/>
<text xml:space="preserve" text-anchor="middle" x="179.75" y="-62.5" font-family="Helvetica,sans-Serif" font-size="10.00">gtk/gtkx.h</text>
</a>
</g>
</g>
<!-- Node2&#45;&gt;Node16 -->
<g id="edge15_Node000002_Node000016" class="edge">
<title>Node2&#45;&gt;Node16</title>
<g id="a_edge15_Node000002_Node000016"><a xlink:title=" ">
<path fill="none" stroke="#63b8ff" d="M999.62,-113.71C996.65,-113.04 993.65,-112.45 990.75,-112 654.91,-60.32 561.04,-121.47 221.05,-76.04"/>
<polygon fill="#63b8ff" stroke="#63b8ff" points="221.76,-72.6 211.38,-74.72 220.82,-79.54 221.76,-72.6"/>
</a>
</g>
</g>
<!-- Node17 -->
<g id="Node000017" class="node">
<title>Node17</title>
<g id="a_Node000017"><a xlink:title=" ">
<polygon fill="#e0e0e0" stroke="#999999" points="286.12,-76 227.38,-76 227.38,-56 286.12,-56 286.12,-76"/>
<text xml:space="preserve" text-anchor="middle" x="256.75" y="-62.5" font-family="Helvetica,sans-Serif" font-size="10.00">gdk/gdk.h</text>
</a>
</g>
</g>
<!-- Node2&#45;&gt;Node17 -->
<g id="edge16_Node000002_Node000017" class="edge">
<title>Node2&#45;&gt;Node17</title>
<g id="a_edge16_Node000002_Node000017"><a xlink:title=" ">
<path fill="none" stroke="#63b8ff" d="M999.62,-113.73C996.65,-113.05 993.65,-112.45 990.75,-112 688.75,-64.73 604.04,-117.67 297.46,-75.95"/>
<polygon fill="#63b8ff" stroke="#63b8ff" points="298.35,-72.53 287.96,-74.63 297.38,-79.47 298.35,-72.53"/>
</a>
</g>
</g>
<!-- Node18 -->
<g id="Node000018" class="node">
<title>Node18</title>
<g id="a_Node000018"><a xlink:title=" ">
<polygon fill="#e0e0e0" stroke="#999999" points="403,-76 304.5,-76 304.5,-56 403,-56 403,-76"/>
<text xml:space="preserve" text-anchor="middle" x="353.75" y="-62.5" font-family="Helvetica,sans-Serif" font-size="10.00">gdk/gdkkeysyms.h</text>
</a>
</g>
</g>
<!-- Node2&#45;&gt;Node18 -->
<g id="edge17_Node000002_Node000018" class="edge">
<title>Node2&#45;&gt;Node18</title>
<g id="a_edge17_Node000002_Node000018"><a xlink:title=" ">
<path fill="none" stroke="#63b8ff" d="M999.62,-113.76C996.65,-113.08 993.64,-112.47 990.75,-112 739.83,-71.4 670.04,-102.88 414.51,-76.19"/>
<polygon fill="#63b8ff" stroke="#63b8ff" points="415.2,-72.75 404.89,-75.17 414.46,-79.71 415.2,-72.75"/>
</a>
</g>
</g>
<!-- Node19 -->
<g id="Node000019" class="node">
<title>Node19</title>
<g id="a_Node000019"><a xlink:title=" ">
<polygon fill="#e0e0e0" stroke="#999999" points="538.38,-76 421.12,-76 421.12,-56 538.38,-56 538.38,-76"/>
<text xml:space="preserve" text-anchor="middle" x="479.75" y="-62.5" font-family="Helvetica,sans-Serif" font-size="10.00">gdk&#45;pixbuf/gdk&#45;pixbuf.h</text>
</a>
</g>
</g>
<!-- Node2&#45;&gt;Node19 -->
<g id="edge18_Node000002_Node000019" class="edge">
<title>Node2&#45;&gt;Node19</title>
<g id="a_edge18_Node000002_Node000019"><a xlink:title=" ">
<path fill="none" stroke="#63b8ff" d="M999.61,-113.81C996.64,-113.12 993.64,-112.5 990.75,-112 799.24,-79.16 745.57,-96.51 549.81,-76.27"/>
<polygon fill="#63b8ff" stroke="#63b8ff" points="550.37,-72.81 540.06,-75.24 549.64,-79.77 550.37,-72.81"/>
</a>
</g>
</g>
<!-- Node20 -->
<g id="Node000020" class="node">
<title>Node20</title>
<g id="a_Node000020"><a xlink:title=" ">
<polygon fill="#e0e0e0" stroke="#999999" points="647.25,-76 556.25,-76 556.25,-56 647.25,-56 647.25,-76"/>
<text xml:space="preserve" text-anchor="middle" x="601.75" y="-62.5" font-family="Helvetica,sans-Serif" font-size="10.00">pango/pangoft2.h</text>
</a>
</g>
</g>
<!-- Node2&#45;&gt;Node20 -->
<g id="edge19_Node000002_Node000020" class="edge">
<title>Node2&#45;&gt;Node20</title>
<g id="a_edge19_Node000002_Node000020"><a xlink:title=" ">
<path fill="none" stroke="#63b8ff" d="M999.6,-113.89C996.63,-113.18 993.63,-112.53 990.75,-112 847.1,-85.43 806.1,-95.78 658.93,-76.36"/>
<polygon fill="#63b8ff" stroke="#63b8ff" points="659.56,-72.91 649.18,-75.04 658.62,-79.85 659.56,-72.91"/>
</a>
</g>
</g>
<!-- Node21 -->
<g id="Node000021" class="node">
<title>Node21</title>
<g id="a_Node000021"><a xlink:title=" ">
<polygon fill="#e0e0e0" stroke="#999999" points="726.25,-76 665.25,-76 665.25,-56 726.25,-56 726.25,-76"/>
<text xml:space="preserve" text-anchor="middle" x="695.75" y="-62.5" font-family="Helvetica,sans-Serif" font-size="10.00">epoxy/gl.h</text>
</a>
</g>
</g>
<!-- Node2&#45;&gt;Node21 -->
<g id="edge20_Node000002_Node000021" class="edge">
<title>Node2&#45;&gt;Node21</title>
<g id="a_edge20_Node000002_Node000021"><a xlink:title=" ">
<path fill="none" stroke="#63b8ff" d="M999.58,-113.98C996.61,-113.26 993.62,-112.58 990.75,-112 882.07,-90.02 850.31,-96.15 737.85,-76.24"/>
<polygon fill="#63b8ff" stroke="#63b8ff" points="738.66,-72.83 728.2,-74.49 737.42,-79.72 738.66,-72.83"/>
</a>
</g>
</g>
<!-- Node22 -->
<g id="Node000022" class="node">
<title>Node22</title>
<g id="a_Node000022"><a xlink:title=" ">
<polygon fill="#e0e0e0" stroke="#999999" points="797.12,-76 744.38,-76 744.38,-56 797.12,-56 797.12,-76"/>
<text xml:space="preserve" text-anchor="middle" x="770.75" y="-62.5" font-family="Helvetica,sans-Serif" font-size="10.00">GL/glu.h</text>
</a>
</g>
</g>
<!-- Node2&#45;&gt;Node22 -->
<g id="edge21_Node000002_Node000022" class="edge">
<title>Node2&#45;&gt;Node22</title>
<g id="a_edge21_Node000002_Node000022"><a xlink:title=" ">
<path fill="none" stroke="#63b8ff" d="M999.54,-114.13C996.59,-113.38 993.61,-112.66 990.75,-112 912.87,-94.09 889.95,-94.08 808.26,-76.23"/>
<polygon fill="#63b8ff" stroke="#63b8ff" points="809.45,-72.91 798.93,-74.17 807.94,-79.74 809.45,-72.91"/>
</a>
</g>
</g>
<!-- Node23 -->
<g id="Node000023" class="node">
<title>Node23</title>
<g id="a_Node000023"><a xlink:title=" ">
<polygon fill="#e0e0e0" stroke="#999999" points="881.88,-76 815.62,-76 815.62,-56 881.88,-56 881.88,-76"/>
<text xml:space="preserve" text-anchor="middle" x="848.75" y="-62.5" font-family="Helvetica,sans-Serif" font-size="10.00">epoxy/glx.h</text>
</a>
</g>
</g>
<!-- Node2&#45;&gt;Node23 -->
<g id="edge22_Node000002_Node000023" class="edge">
<title>Node2&#45;&gt;Node23</title>
<g id="a_edge22_Node000002_Node000023"><a xlink:title=" ">
<path fill="none" stroke="#63b8ff" d="M999.53,-113.26C971.1,-104.54 924.41,-90.21 890.51,-79.81"/>
<polygon fill="#63b8ff" stroke="#63b8ff" points="891.58,-76.48 880.99,-76.89 889.53,-83.17 891.58,-76.48"/>
</a>
</g>
</g>
<!-- Node24 -->
<g id="Node000024" class="node">
<title>Node24</title>
<g id="a_Node000024"><a xlink:href="../../dc/db0/math__3d_8h.html" target="_top" xlink:title="Functions for OpenGL math.">
<polygon fill="white" stroke="#666666" points="1541.62,-76 1479.88,-76 1479.88,-56 1541.62,-56 1541.62,-76"/>
<text xml:space="preserve" text-anchor="middle" x="1510.75" y="-62.5" font-family="Helvetica,sans-Serif" font-size="10.00">math_3d.h</text>
</a>
</g>
</g>
<!-- Node2&#45;&gt;Node24 -->
<g id="edge23_Node000002_Node000024" class="edge">
<title>Node2&#45;&gt;Node24</title>
<g id="a_edge23_Node000002_Node000024"><a xlink:title=" ">
<path fill="none" stroke="#63b8ff" d="M1049.89,-113.83C1052.86,-113.14 1055.86,-112.5 1058.75,-112 1236.19,-81 1287.1,-103.3 1468.12,-76.2"/>
<polygon fill="#63b8ff" stroke="#63b8ff" points="1468.53,-79.68 1477.89,-74.7 1467.47,-72.76 1468.53,-79.68"/>
</a>
</g>
</g>
<!-- Node25 -->
<g id="Node000025" class="node">
<title>Node25</title>
<g id="a_Node000025"><a xlink:href="../../d7/d21/cedit_8h.html" target="_top" xlink:title="Variable declarations for the curve layout edition window.">
<polygon fill="white" stroke="#666666" points="945.38,-76 900.12,-76 900.12,-56 945.38,-56 945.38,-76"/>
<text xml:space="preserve" text-anchor="middle" x="922.75" y="-62.5" font-family="Helvetica,sans-Serif" font-size="10.00">cedit.h</text>
</a>
</g>
</g>
<!-- Node2&#45;&gt;Node25 -->
<g id="edge26_Node000002_Node000025" class="edge">
<title>Node2&#45;&gt;Node25</title>
<g id="a_edge26_Node000002_Node000025"><a xlink:title=" ">
<path fill="none" stroke="#63b8ff" d="M1006.98,-111.59C991.43,-103.36 968.57,-91.26 950.59,-81.74"/>
<polygon fill="#63b8ff" stroke="#63b8ff" points="952.47,-78.77 941.99,-77.19 949.19,-84.96 952.47,-78.77"/>
</a>
</g>
</g>
<!-- Node26 -->
<g id="Node000026" class="node">
<title>Node26</title>
<g id="a_Node000026"><a xlink:href="../../da/d7e/glwin_8h.html" target="_top" xlink:title="Variable declarations related the OpenGL window &#160;&#160;Data structure declarations related the OpenGL wind...">
<polygon fill="white" stroke="#666666" points="1644.12,-76 1597.38,-76 1597.38,-56 1644.12,-56 1644.12,-76"/>
<text xml:space="preserve" text-anchor="middle" x="1620.75" y="-62.5" font-family="Helvetica,sans-Serif" font-size="10.00">glwin.h</text>
</a>
</g>
</g>
<!-- Node2&#45;&gt;Node26 -->
<g id="edge27_Node000002_Node000026" class="edge">
<title>Node2&#45;&gt;Node26</title>
<g id="a_edge27_Node000002_Node000026"><a xlink:title=" ">
<path fill="none" stroke="#63b8ff" d="M1049.89,-113.78C1052.86,-113.09 1055.86,-112.48 1058.75,-112 1289.51,-73.9 1352.62,-111.77 1583.75,-76 1584.42,-75.9 1585.1,-75.79 1585.79,-75.67"/>
<polygon fill="#63b8ff" stroke="#63b8ff" points="1586.39,-79.12 1595.5,-73.71 1585.01,-72.26 1586.39,-79.12"/>
</a>
</g>
</g>
<!-- Node24&#45;&gt;Node10 -->
<g id="edge25_Node000024_Node000010" class="edge">
<title>Node24&#45;&gt;Node10</title>
<g id="a_edge25_Node000024_Node000010"><a xlink:title=" ">
<path fill="none" stroke="#63b8ff" d="M1479.77,-57.9C1476.72,-57.24 1473.68,-56.6 1470.75,-56 1395.75,-40.68 1307.34,-25.03 1259.92,-16.83"/>
<polygon fill="#63b8ff" stroke="#63b8ff" points="1260.72,-13.42 1250.27,-15.17 1259.53,-20.32 1260.72,-13.42"/>
</a>
</g>
</g>
<!-- Node24&#45;&gt;Node14 -->
<g id="edge24_Node000024_Node000014" class="edge">
<title>Node24&#45;&gt;Node14</title>
<g id="a_edge24_Node000024_Node000014"><a xlink:title=" ">
<path fill="none" stroke="#63b8ff" d="M1513.36,-55.59C1515.23,-48.86 1517.82,-39.53 1520.15,-31.15"/>
<polygon fill="#63b8ff" stroke="#63b8ff" points="1523.46,-32.33 1522.76,-21.76 1516.71,-30.46 1523.46,-32.33"/>
</a>
</g>
</g>
<!-- Node27 -->
<g id="Node000027" class="node">
<title>Node27</title>
<g id="a_Node000027"><a xlink:href="../../d5/d9e/ogl__shading_8h.html" target="_top" xlink:title="Variable declarations related to GLSL programs &#160;&#160;Data structure declarations related to GLSL programs...">
<polygon fill="white" stroke="#666666" points="1658.75,-20 1582.75,-20 1582.75,0 1658.75,0 1658.75,-20"/>
<text xml:space="preserve" text-anchor="middle" x="1620.75" y="-6.5" font-family="Helvetica,sans-Serif" font-size="10.00">ogl_shading.h</text>
</a>
</g>
</g>
<!-- Node26&#45;&gt;Node27 -->
<g id="edge28_Node000026_Node000027" class="edge">
<title>Node26&#45;&gt;Node27</title>
<g id="a_edge28_Node000026_Node000027"><a xlink:title=" ">
<path fill="none" stroke="#63b8ff" d="M1620.75,-55.59C1620.75,-49.01 1620.75,-39.96 1620.75,-31.73"/>
<polygon fill="#63b8ff" stroke="#63b8ff" points="1624.25,-31.81 1620.75,-21.81 1617.25,-31.81 1624.25,-31.81"/>
</a>
</g>
</g>
<!-- Node35&#45;&gt;Node2 -->
<g id="edge37_Node000035_Node000002" class="edge">
<title>Node35&#45;&gt;Node2</title>
<g id="a_edge37_Node000035_Node000002"><a xlink:title=" ">
<path fill="none" stroke="#63b8ff" d="M1201.79,-168.47C1168.37,-160.06 1115.59,-146.7 1060.94,-132.55"/>
<polygon fill="#63b8ff" stroke="#63b8ff" points="1062.02,-129.21 1051.46,-130.09 1060.26,-135.99 1062.02,-129.21"/>
</a>
</g>
</g>
<!-- Node35&#45;&gt;Node28 -->
<g id="edge40_Node000035_Node000028" class="edge">
<title>Node35&#45;&gt;Node28</title>
<g id="a_edge40_Node000035_Node000028"><a xlink:title=" ">
<path fill="none" stroke="#63b8ff" d="M1201.76,-172.83C1147.27,-165.96 1036.76,-151.29 933.02,-132.3"/>
<polygon fill="#63b8ff" stroke="#63b8ff" points="933.67,-128.86 923.2,-130.48 932.4,-135.74 933.67,-128.86"/>
</a>
</g>
</g>
<!-- Node35&#45;&gt;Node29 -->
<g id="edge39_Node000035_Node000029" class="edge">
<title>Node35&#45;&gt;Node29</title>
<g id="a_edge39_Node000035_Node000029"><a xlink:title=" ">
<path fill="none" stroke="#63b8ff" d="M1212.23,-167.59C1190.88,-159.05 1159.12,-146.35 1134.95,-136.68"/>
<polygon fill="#63b8ff" stroke="#63b8ff" points="1136.44,-133.51 1125.85,-133.04 1133.84,-140.01 1136.44,-133.51"/>
</a>
</g>
</g>
<!-- Node35&#45;&gt;Node30 -->
<g id="edge38_Node000035_Node000030" class="edge">
<title>Node35&#45;&gt;Node30</title>
<g id="a_edge38_Node000035_Node000030"><a xlink:title=" ">
<path fill="none" stroke="#63b8ff" d="M1201.82,-171.98C1156.34,-164.98 1072.94,-151.24 993.04,-132.35"/>
<polygon fill="#63b8ff" stroke="#63b8ff" points="994.32,-129.06 983.77,-130.13 992.68,-135.86 994.32,-129.06"/>
</a>
</g>
</g>
<!-- Node35&#45;&gt;Node31 -->
<g id="edge44_Node000035_Node000031" class="edge">
<title>Node35&#45;&gt;Node31</title>
<g id="a_edge44_Node000035_Node000031"><a xlink:title=" ">
<path fill="none" stroke="#63b8ff" d="M1225.82,-167.59C1217.81,-160.01 1206.33,-149.13 1196.72,-140.02"/>
<polygon fill="#63b8ff" stroke="#63b8ff" points="1199.33,-137.68 1189.66,-133.34 1194.52,-142.76 1199.33,-137.68"/>
</a>
</g>
</g>
<!-- Node35&#45;&gt;Node32 -->
<g id="edge45_Node000035_Node000032" class="edge">
<title>Node35&#45;&gt;Node32</title>
<g id="a_edge45_Node000035_Node000032"><a xlink:title=" ">
<path fill="none" stroke="#63b8ff" d="M1266.23,-167.59C1294.79,-158.78 1337.7,-145.54 1369.35,-135.78"/>
<polygon fill="#63b8ff" stroke="#63b8ff" points="1370.06,-139.22 1378.58,-132.93 1368,-132.53 1370.06,-139.22"/>
</a>
</g>
</g>
<!-- Node35&#45;&gt;Node33 -->
<g id="edge43_Node000035_Node000033" class="edge">
<title>Node35&#45;&gt;Node33</title>
<g id="a_edge43_Node000035_Node000033"><a xlink:title=" ">
<path fill="none" stroke="#63b8ff" d="M1239.23,-167.59C1241.76,-160.78 1245.26,-151.32 1248.39,-142.86"/>
<polygon fill="#63b8ff" stroke="#63b8ff" points="1251.59,-144.31 1251.78,-133.72 1245.03,-141.88 1251.59,-144.31"/>
</a>
</g>
</g>
<!-- Node35&#45;&gt;Node34 -->
<g id="edge42_Node000035_Node000034" class="edge">
<title>Node35&#45;&gt;Node34</title>
<g id="a_edge42_Node000035_Node000034"><a xlink:title=" ">
<path fill="none" stroke="#63b8ff" d="M1252.47,-167.59C1266.97,-159.44 1288.22,-147.48 1305.07,-138"/>
<polygon fill="#63b8ff" stroke="#63b8ff" points="1306.58,-141.17 1313.58,-133.22 1303.15,-135.07 1306.58,-141.17"/>
</a>
</g>
</g>
<!-- Node36 -->
<g id="Node000036" class="node">
<title>Node36</title>
<g id="a_Node000036"><a xlink:href="../../d6/d75/initcoord_8h.html" target="_top" xlink:title="Function declarations to handle the atomic coordination data.">
<polygon fill="white" stroke="#666666" points="1525.25,-132 1464.25,-132 1464.25,-112 1525.25,-112 1525.25,-132"/>
<text xml:space="preserve" text-anchor="middle" x="1494.75" y="-118.5" font-family="Helvetica,sans-Serif" font-size="10.00">initcoord.h</text>
</a>
</g>
</g>
<!-- Node35&#45;&gt;Node36 -->
<g id="edge41_Node000035_Node000036" class="edge">
<title>Node35&#45;&gt;Node36</title>
<g id="a_edge41_Node000035_Node000036"><a xlink:title=" ">
<path fill="none" stroke="#63b8ff" d="M1269.73,-170.32C1310.88,-162.18 1382.6,-147.79 1453.24,-132.51"/>
<polygon fill="#63b8ff" stroke="#63b8ff" points="1453.6,-136.01 1462.63,-130.47 1452.12,-129.17 1453.6,-136.01"/>
</a>
</g>
</g>
<!-- Node37&#45;&gt;Node2 -->
<g id="edge47_Node000037_Node000002" class="edge">
<title>Node37&#45;&gt;Node2</title>
<g id="a_edge47_Node000037_Node000002"><a xlink:title=" ">
<path fill="none" stroke="#63b8ff" d="M1099.9,-167.59C1086.28,-159.51 1066.39,-147.71 1050.49,-138.27"/>
<polygon fill="#63b8ff" stroke="#63b8ff" points="1052.41,-135.35 1042.03,-133.25 1048.84,-141.37 1052.41,-135.35"/>
</a>
</g>
</g>
<!-- Node37&#45;&gt;Node28 -->
<g id="edge50_Node000037_Node000028" class="edge">
<title>Node37&#45;&gt;Node28</title>
<g id="a_edge50_Node000037_Node000028"><a xlink:title=" ">
<path fill="none" stroke="#63b8ff" d="M1085.41,-169.72C1046.12,-160.29 977.45,-143.81 933.06,-133.16"/>
<polygon fill="#63b8ff" stroke="#63b8ff" points="934.07,-129.8 923.53,-130.87 932.44,-136.6 934.07,-129.8"/>
</a>
</g>
</g>
<!-- Node37&#45;&gt;Node29 -->
<g id="edge49_Node000037_Node000029" class="edge">
<title>Node37&#45;&gt;Node29</title>
<g id="a_edge49_Node000037_Node000029"><a xlink:title=" ">
<path fill="none" stroke="#63b8ff" d="M1113.14,-167.59C1111.27,-160.86 1108.68,-151.53 1106.35,-143.15"/>
<polygon fill="#63b8ff" stroke="#63b8ff" points="1109.79,-142.46 1103.74,-133.76 1103.04,-144.33 1109.79,-142.46"/>
</a>
</g>
</g>
<!-- Node37&#45;&gt;Node30 -->
<g id="edge48_Node000037_Node000030" class="edge">
<title>Node37&#45;&gt;Node30</title>
<g id="a_edge48_Node000037_Node000030"><a xlink:title=" ">
<path fill="none" stroke="#63b8ff" d="M1088.75,-167.59C1061.95,-158.26 1020.88,-143.95 992.52,-134.07"/>
<polygon fill="#63b8ff" stroke="#63b8ff" points="993.99,-130.87 983.4,-130.89 991.69,-137.48 993.99,-130.87"/>
</a>
</g>
</g>
<!-- Node37&#45;&gt;Node31 -->
<g id="edge51_Node000037_Node000031" class="edge">
<title>Node37&#45;&gt;Node31</title>
<g id="a_edge51_Node000037_Node000031"><a xlink:title=" ">
<path fill="none" stroke="#63b8ff" d="M1126.72,-167.59C1135.67,-159.93 1148.52,-148.91 1159.21,-139.75"/>
<polygon fill="#63b8ff" stroke="#63b8ff" points="1161.44,-142.45 1166.75,-133.28 1156.88,-137.13 1161.44,-142.45"/>
</a>
</g>
</g>
<!-- Node37&#45;&gt;Node32 -->
<g id="edge52_Node000037_Node000032" class="edge">
<title>Node37&#45;&gt;Node32</title>
<g id="a_edge52_Node000037_Node000032"><a xlink:title=" ">
<path fill="none" stroke="#63b8ff" d="M1146.32,-171.77C1191.59,-163.96 1279.43,-148.62 1363.46,-132.6"/>
<polygon fill="#63b8ff" stroke="#63b8ff" points="1364.1,-136.04 1373.26,-130.72 1362.78,-129.17 1364.1,-136.04"/>
</a>
</g>
</g>
<!-- Node37&#45;&gt;Node33 -->
<g id="edge54_Node000037_Node000033" class="edge">
<title>Node37&#45;&gt;Node33</title>
<g id="a_edge54_Node000037_Node000033"><a xlink:title=" ">
<path fill="none" stroke="#63b8ff" d="M1140.14,-167.59C1162.38,-159.01 1195.52,-146.23 1220.62,-136.55"/>
<polygon fill="#63b8ff" stroke="#63b8ff" points="1221.69,-139.89 1229.76,-133.02 1219.17,-133.36 1221.69,-139.89"/>
</a>
</g>
</g>
<!-- Node37&#45;&gt;Node34 -->
<g id="edge53_Node000037_Node000034" class="edge">
<title>Node37&#45;&gt;Node34</title>
<g id="a_edge53_Node000037_Node000034"><a xlink:title=" ">
<path fill="none" stroke="#63b8ff" d="M1146.19,-169.51C1180.07,-161.16 1236.71,-147.14 1294.89,-132.46"/>
<polygon fill="#63b8ff" stroke="#63b8ff" points="1295.46,-135.92 1304.29,-130.08 1293.74,-129.14 1295.46,-135.92"/>
</a>
</g>
</g>
<!-- Node39 -->
<g id="Node000039" class="node">
<title>Node39</title>
<g id="a_Node000039"><a xlink:href="../../dc/d50/read__isaacs_8h.html" target="_top" xlink:title="Function declarations to read / write ISAACS XML file.">
<polygon fill="white" stroke="#666666" points="2006.12,-132 1929.38,-132 1929.38,-112 2006.12,-112 2006.12,-132"/>
<text xml:space="preserve" text-anchor="middle" x="1967.75" y="-118.5" font-family="Helvetica,sans-Serif" font-size="10.00">read_isaacs.h</text>
</a>
</g>
</g>
<!-- Node38&#45;&gt;Node39 -->
<g id="edge56_Node000038_Node000039" class="edge">
<title>Node38&#45;&gt;Node39</title>
<g id="a_edge56_Node000038_Node000039"><a xlink:title=" ">
<path fill="none" stroke="#63b8ff" d="M1739.24,-171.01C1782.34,-161.96 1864.73,-144.65 1917.91,-133.47"/>
<polygon fill="#63b8ff" stroke="#63b8ff" points="1918.57,-136.91 1927.63,-131.43 1917.13,-130.06 1918.57,-136.91"/>
</a>
</g>
</g>
<!-- Node40 -->
<g id="Node000040" class="node">
<title>Node40</title>
<g id="a_Node000040"><a xlink:title=" ">
<polygon fill="#e0e0e0" stroke="#999999" points="1903.62,-76 1811.88,-76 1811.88,-56 1903.62,-56 1903.62,-76"/>
<text xml:space="preserve" text-anchor="middle" x="1857.75" y="-62.5" font-family="Helvetica,sans-Serif" font-size="10.00">libxml/encoding.h</text>
</a>
</g>
</g>
<!-- Node39&#45;&gt;Node40 -->
<g id="edge57_Node000039_Node000040" class="edge">
<title>Node39&#45;&gt;Node40</title>
<g id="a_edge57_Node000039_Node000040"><a xlink:title=" ">
<path fill="none" stroke="#63b8ff" d="M1948.59,-111.59C1931.66,-103.28 1906.7,-91.03 1887.23,-81.47"/>
<polygon fill="#63b8ff" stroke="#63b8ff" points="1888.94,-78.41 1878.42,-77.15 1885.85,-84.7 1888.94,-78.41"/>
</a>
</g>
</g>
<!-- Node41 -->
<g id="Node000041" class="node">
<title>Node41</title>
<g id="a_Node000041"><a xlink:title=" ">
<polygon fill="#e0e0e0" stroke="#999999" points="2014,-76 1921.5,-76 1921.5,-56 2014,-56 2014,-76"/>
<text xml:space="preserve" text-anchor="middle" x="1967.75" y="-62.5" font-family="Helvetica,sans-Serif" font-size="10.00">libxml/xmlwriter.h</text>
</a>
</g>
</g>
<!-- Node39&#45;&gt;Node41 -->
<g id="edge58_Node000039_Node000041" class="edge">
<title>Node39&#45;&gt;Node41</title>
<g id="a_edge58_Node000039_Node000041"><a xlink:title=" ">
<path fill="none" stroke="#63b8ff" d="M1967.75,-111.59C1967.75,-105.01 1967.75,-95.96 1967.75,-87.73"/>
<polygon fill="#63b8ff" stroke="#63b8ff" points="1971.25,-87.81 1967.75,-77.81 1964.25,-87.81 1971.25,-87.81"/>
</a>
</g>
</g>
<!-- Node42 -->
<g id="Node000042" class="node">
<title>Node42</title>
<g id="a_Node000042"><a xlink:title=" ">
<polygon fill="#e0e0e0" stroke="#999999" points="2127.5,-76 2032,-76 2032,-56 2127.5,-56 2127.5,-76"/>
<text xml:space="preserve" text-anchor="middle" x="2079.75" y="-62.5" font-family="Helvetica,sans-Serif" font-size="10.00">libxml/xmlreader.h</text>
</a>
</g>
</g>
<!-- Node39&#45;&gt;Node42 -->
<g id="edge59_Node000039_Node000042" class="edge">
<title>Node39&#45;&gt;Node42</title>
<g id="a_edge59_Node000039_Node000042"><a xlink:title=" ">
<path fill="none" stroke="#63b8ff" d="M1987.26,-111.59C2004.5,-103.28 2029.91,-91.03 2049.74,-81.47"/>
<polygon fill="#63b8ff" stroke="#63b8ff" points="2051.24,-84.63 2058.73,-77.14 2048.2,-78.33 2051.24,-84.63"/>
</a>
</g>
</g>
<!-- Node43 -->
<g id="Node000043" class="node">
<title>Node43</title>
<g id="a_Node000043"><a xlink:title=" ">
<polygon fill="#e0e0e0" stroke="#999999" points="2225.62,-76 2145.88,-76 2145.88,-56 2225.62,-56 2225.62,-76"/>
<text xml:space="preserve" text-anchor="middle" x="2185.75" y="-62.5" font-family="Helvetica,sans-Serif" font-size="10.00">libxml/parser.h</text>
</a>
</g>
</g>
<!-- Node39&#45;&gt;Node43 -->
<g id="edge60_Node000039_Node000043" class="edge">
<title>Node39&#45;&gt;Node43</title>
<g id="a_edge60_Node000039_Node000043"><a xlink:title=" ">
<path fill="none" stroke="#63b8ff" d="M2005.97,-111.53C2042.28,-102.54 2097.05,-88.97 2136.6,-79.18"/>
<polygon fill="#63b8ff" stroke="#63b8ff" points="2137.24,-82.62 2146.1,-76.82 2135.55,-75.83 2137.24,-82.62"/>
</a>
</g>
</g>
</g>
</svg>

<g id="navigator" transform="translate(0 0)" fill="#404254">
  <rect fill="#f2f5e9" fill-opacity="0.5" stroke="#606060" stroke-width=".5" x="0" y="0" width="60" height="60"/>
  <use id="zoomplus" xlink:href="#zoomPlus" x="17" y="9" onmousedown="handleZoom(evt,'in')"/>
  <use id="zoomminus" xlink:href="#zoomMin" x="42" y="9" onmousedown="handleZoom(evt,'out')"/>
  <use id="reset" xlink:href="#resetDef" x="30" y="36" onmousedown="handleReset()"/>
   <use id="arrowup" xlink:href="#arrowUp" x="0" y="0" onmousedown="handlePan(0,-1)"/>
  <use id="arrowright" xlink:href="#arrowRight" x="0" y="0" onmousedown="handlePan(1,0)"/>
  <use id="arrowdown" xlink:href="#arrowDown" x="0" y="0" onmousedown="handlePan(0,1)"/>
  <use id="arrowleft" xlink:href="#arrowLeft" x="0" y="0" onmousedown="handlePan(-1,0)"/>
</g>
<svg viewBox="0 0 15 15" width="100%" height="30px" preserveAspectRatio="xMaxYMin meet">
 <g id="arrow_out" transform="scale(0.3 0.3)">
  <a xlink:href="callbacks_8c__incl_org.svg" target="_base">
   <rect id="button" ry="5" rx="5" y="6" x="6" height="38" width="38"
        fill="#f2f5e9" fill-opacity="0.5" stroke="#606060" stroke-width="1.0"/>
   <path id="arrow"
     d="M 11.500037,31.436501 C 11.940474,20.09759 22.043105,11.32322 32.158766,21.979434 L 37.068811,17.246167 C 37.068811,17.246167 37.088388,32 37.088388,32 L 22.160133,31.978069 C 22.160133,31.978069 26.997745,27.140456 26.997745,27.140456 C 18.528582,18.264221 13.291696,25.230495 11.500037,31.436501 z"
     style="fill:#404040;"/>
  </a>
 </g>
</svg>

<style type='text/css'>
<![CDATA[
[data-mouse-over-selected='false'] { opacity: 0.7; }
[data-mouse-over-selected='true']  { opacity: 1.0; }
]]>
</style>
<script type="application/ecmascript"><![CDATA[
document.addEventListener('DOMContentLoaded', (event) => {
  highlightEdges();
  highlightAdjacentNodes();
});
]]></script>
</svg>
