<?xml version="1.0" encoding="UTF-8" standalone="no"?>
<!DOCTYPE svg PUBLIC "-//W3C//DTD SVG 1.1//EN"
 "http://www.w3.org/Graphics/SVG/1.1/DTD/svg11.dtd">
<!-- Generated by graphviz version 7.1.0 (0)
 -->
<!-- Title: opengl/draw/movie.h Pages: 1 -->
<svg width="377pt" height="82pt"
 viewBox="0.00 0.00 377.00 82.00" xmlns="http://www.w3.org/2000/svg" xmlns:xlink="http://www.w3.org/1999/xlink">
<g id="graph0" class="graph" transform="scale(1 1) rotate(0) translate(4 78)">
<title>opengl/draw/movie.h</title>
<!-- Node1 -->
<g id="Node000001" class="node">
<title>Node1</title>
<g id="a_Node000001"><a xlink:title="Data structure declarations for movie encoding &#160;&#160;Function declarations for movie encoding.">
<polygon fill="#999999" stroke="#666666" points="232,-74 125,-74 125,-55 232,-55 232,-74"/>
<text text-anchor="middle" x="178.5" y="-62" font-family="Helvetica,sans-Serif" font-size="10.00">opengl/draw/movie.h</text>
</a>
</g>
</g>
<!-- Node2 -->
<g id="Node000002" class="node">
<title>Node2</title>
<g id="a_Node000002"><a xlink:href="../../d3/d10/image_8c.html" target="_top" xlink:title="Functions to render an image from the OpenGL window.">
<polygon fill="white" stroke="#666666" points="107,-19 0,-19 0,0 107,0 107,-19"/>
<text text-anchor="middle" x="53.5" y="-7" font-family="Helvetica,sans-Serif" font-size="10.00">opengl/draw/image.c</text>
</a>
</g>
</g>
<!-- Node1&#45;&gt;Node2 -->
<g id="edge1_Node000001_Node000002" class="edge">
<title>Node1&#45;&gt;Node2</title>
<g id="a_edge1_Node000001_Node000002"><a xlink:title=" ">
<path fill="none" stroke="#63b8ff" d="M146.81,-50.06C124.1,-40.43 94.16,-27.74 74.39,-19.36"/>
<polygon fill="#63b8ff" stroke="#63b8ff" points="145.33,-53.24 155.9,-53.92 148.06,-46.79 145.33,-53.24"/>
</a>
</g>
</g>
<!-- Node3 -->
<g id="Node000003" class="node">
<title>Node3</title>
<g id="a_Node000003"><a xlink:href="../../d8/dee/movie_8c.html" target="_top" xlink:title="Functions to encode a movie / render an image from the OpenGL rendering.">
<polygon fill="white" stroke="#666666" points="232,-19 125,-19 125,0 232,0 232,-19"/>
<text text-anchor="middle" x="178.5" y="-7" font-family="Helvetica,sans-Serif" font-size="10.00">opengl/draw/movie.c</text>
</a>
</g>
</g>
<!-- Node1&#45;&gt;Node3 -->
<g id="edge2_Node000001_Node000003" class="edge">
<title>Node1&#45;&gt;Node3</title>
<g id="a_edge2_Node000001_Node000003"><a xlink:title=" ">
<path fill="none" stroke="#63b8ff" d="M178.5,-43.35C178.5,-35.1 178.5,-25.97 178.5,-19.44"/>
<polygon fill="#63b8ff" stroke="#63b8ff" points="175,-43.23 178.5,-53.23 182,-43.23 175,-43.23"/>
</a>
</g>
</g>
<!-- Node4 -->
<g id="Node000004" class="node">
<title>Node4</title>
<g id="a_Node000004"><a xlink:href="../../da/daf/w__encode_8c.html" target="_top" xlink:title="Functions to create the encoding (image/video) window.">
<polygon fill="white" stroke="#666666" points="369,-19 250,-19 250,0 369,0 369,-19"/>
<text text-anchor="middle" x="309.5" y="-7" font-family="Helvetica,sans-Serif" font-size="10.00">opengl/win/w_encode.c</text>
</a>
</g>
</g>
<!-- Node1&#45;&gt;Node4 -->
<g id="edge3_Node000001_Node000004" class="edge">
<title>Node1&#45;&gt;Node4</title>
<g id="a_edge3_Node000001_Node000004"><a xlink:title=" ">
<path fill="none" stroke="#63b8ff" d="M211.39,-50.19C235.23,-40.55 266.8,-27.78 287.61,-19.36"/>
<polygon fill="#63b8ff" stroke="#63b8ff" points="210.08,-46.95 202.13,-53.94 212.71,-53.44 210.08,-46.95"/>
</a>
</g>
</g>
</g>
</svg>
