<?xml version="1.0" encoding="UTF-8" standalone="no"?>
<!DOCTYPE svg PUBLIC "-//W3C//DTD SVG 1.1//EN"
 "http://www.w3.org/Graphics/SVG/1.1/DTD/svg11.dtd">
<!-- Generated by graphviz version 2.43.0 (0)
 -->
<!-- Title: opengl/draw/movie.h Pages: 1 -->
<svg width="413pt" height="82pt"
 viewBox="0.00 0.00 412.50 82.00" xmlns="http://www.w3.org/2000/svg" xmlns:xlink="http://www.w3.org/1999/xlink">
<g id="graph0" class="graph" transform="scale(1 1) rotate(0) translate(4 78)">
<title>opengl/draw/movie.h</title>
<!-- Node1 -->
<g id="Node000001" class="node">
<title>Node1</title>
<g id="a_Node000001"><a xlink:title="Data structure declarations for movie encoding &#160;&#160;Function declarations for movie encoding.">
<polygon fill="#999999" stroke="#666666" points="256,-74 137,-74 137,-55 256,-55 256,-74"/>
<text text-anchor="middle" x="196.5" y="-62" font-family="Helvetica,sans-Serif" font-size="10.00">opengl/draw/movie.h</text>
</a>
</g>
</g>
<!-- Node2 -->
<g id="Node000002" class="node">
<title>Node2</title>
<g id="a_Node000002"><a xlink:href="../../d3/d10/image_8c.html" target="_top" xlink:title="Functions to render an image from the OpenGL window.">
<polygon fill="white" stroke="#666666" points="119,-19 0,-19 0,0 119,0 119,-19"/>
<text text-anchor="middle" x="59.5" y="-7" font-family="Helvetica,sans-Serif" font-size="10.00">opengl/draw/image.c</text>
</a>
</g>
</g>
<!-- Node1&#45;&gt;Node2 -->
<g id="edge1_Node000001_Node000002" class="edge">
<title>Node1&#45;&gt;Node2</title>
<g id="a_edge1_Node000001_Node000002"><a xlink:title=" ">
<path fill="none" stroke="#63b8ff" d="M164.94,-51.29C139.55,-41.47 104.5,-27.91 81.91,-19.17"/>
<polygon fill="#63b8ff" stroke="#63b8ff" points="163.9,-54.64 174.49,-54.98 166.42,-48.11 163.9,-54.64"/>
</a>
</g>
</g>
<!-- Node3 -->
<g id="Node000003" class="node">
<title>Node3</title>
<g id="a_Node000003"><a xlink:href="../../d8/dee/movie_8c.html" target="_top" xlink:title="Functions to encode a movie / render an image from the OpenGL rendering.">
<polygon fill="white" stroke="#666666" points="256,-19 137,-19 137,0 256,0 256,-19"/>
<text text-anchor="middle" x="196.5" y="-7" font-family="Helvetica,sans-Serif" font-size="10.00">opengl/draw/movie.c</text>
</a>
</g>
</g>
<!-- Node1&#45;&gt;Node3 -->
<g id="edge2_Node000001_Node000003" class="edge">
<title>Node1&#45;&gt;Node3</title>
<g id="a_edge2_Node000001_Node000003"><a xlink:title=" ">
<path fill="none" stroke="#63b8ff" d="M196.5,-44.66C196.5,-35.93 196.5,-25.99 196.5,-19.09"/>
<polygon fill="#63b8ff" stroke="#63b8ff" points="193,-44.75 196.5,-54.75 200,-44.75 193,-44.75"/>
</a>
</g>
</g>
<!-- Node4 -->
<g id="Node000004" class="node">
<title>Node4</title>
<g id="a_Node000004"><a xlink:href="../../da/daf/w__encode_8c.html" target="_top" xlink:title="Functions to create the encoding (image/video) window.">
<polygon fill="white" stroke="#666666" points="404.5,-19 274.5,-19 274.5,0 404.5,0 404.5,-19"/>
<text text-anchor="middle" x="339.5" y="-7" font-family="Helvetica,sans-Serif" font-size="10.00">opengl/win/w_encode.c</text>
</a>
</g>
</g>
<!-- Node1&#45;&gt;Node4 -->
<g id="edge3_Node000001_Node000004" class="edge">
<title>Node1&#45;&gt;Node4</title>
<g id="a_edge3_Node000001_Node000004"><a xlink:title=" ">
<path fill="none" stroke="#63b8ff" d="M229.09,-51.42C255.62,-41.59 292.43,-27.95 316.11,-19.17"/>
<polygon fill="#63b8ff" stroke="#63b8ff" points="227.64,-48.23 219.48,-54.98 230.07,-54.79 227.64,-48.23"/>
</a>
</g>
</g>
</g>
</svg>
