<?xml version="1.0" encoding="UTF-8" standalone="no"?>
<!DOCTYPE svg PUBLIC "-//W3C//DTD SVG 1.1//EN"
 "http://www.w3.org/Graphics/SVG/1.1/DTD/svg11.dtd">
<!-- Generated by graphviz version 2.43.0 (0)
 -->
<!-- Title: /home/slookeur/files/codeblocks&#45;files/atomes/src/opengl/draw/movie.h Pages: 1 -->
<svg width="473pt" height="126pt"
 viewBox="0.00 0.00 472.50 126.00" xmlns="http://www.w3.org/2000/svg" xmlns:xlink="http://www.w3.org/1999/xlink">
<g id="graph0" class="graph" transform="scale(1 1) rotate(0) translate(4 122)">
<title>/home/slookeur/files/codeblocks&#45;files/atomes/src/opengl/draw/movie.h</title>
<!-- Node1 -->
<g id="Node000001" class="node">
<title>Node1</title>
<g id="a_Node000001"><a xlink:title="Data structure declarations for movie encoding &#160;&#160;Function declarations for movie encoding.">
<polygon fill="#999999" stroke="#666666" points="296.5,-118 156.5,-118 156.5,-77 296.5,-77 296.5,-118"/>
<text text-anchor="start" x="164.5" y="-106" font-family="Helvetica,sans-Serif" font-size="10.00">/home/slookeur/files</text>
<text text-anchor="start" x="164.5" y="-95" font-family="Helvetica,sans-Serif" font-size="10.00">/codeblocks&#45;files/atomes</text>
<text text-anchor="middle" x="226.5" y="-84" font-family="Helvetica,sans-Serif" font-size="10.00">/src/opengl/draw/movie.h</text>
</a>
</g>
</g>
<!-- Node2 -->
<g id="Node000002" class="node">
<title>Node2</title>
<g id="a_Node000002"><a xlink:href="../../d3/d10/image_8c.html" target="_top" xlink:title="Functions to render an image from the OpenGL window.">
<polygon fill="white" stroke="#666666" points="139,-41 0,-41 0,0 139,0 139,-41"/>
<text text-anchor="start" x="8" y="-29" font-family="Helvetica,sans-Serif" font-size="10.00">/home/slookeur/files</text>
<text text-anchor="start" x="8" y="-18" font-family="Helvetica,sans-Serif" font-size="10.00">/codeblocks&#45;files/atomes</text>
<text text-anchor="middle" x="69.5" y="-7" font-family="Helvetica,sans-Serif" font-size="10.00">/src/opengl/draw/image.c</text>
</a>
</g>
</g>
<!-- Node1&#45;&gt;Node2 -->
<g id="edge1_Node000001_Node000002" class="edge">
<title>Node1&#45;&gt;Node2</title>
<g id="a_edge1_Node000001_Node000002"><a xlink:title=" ">
<path fill="none" stroke="#63b8ff" d="M176.44,-72.59C155.13,-62.41 130.6,-50.69 110.41,-41.04"/>
<polygon fill="#63b8ff" stroke="#63b8ff" points="175.13,-75.84 185.66,-76.99 178.15,-69.52 175.13,-75.84"/>
</a>
</g>
</g>
<!-- Node3 -->
<g id="Node000003" class="node">
<title>Node3</title>
<g id="a_Node000003"><a xlink:href="../../d8/dee/movie_8c.html" target="_top" xlink:title="Functions to encode a movie / render an image from the OpenGL rendering.">
<polygon fill="white" stroke="#666666" points="296,-41 157,-41 157,0 296,0 296,-41"/>
<text text-anchor="start" x="165" y="-29" font-family="Helvetica,sans-Serif" font-size="10.00">/home/slookeur/files</text>
<text text-anchor="start" x="165" y="-18" font-family="Helvetica,sans-Serif" font-size="10.00">/codeblocks&#45;files/atomes</text>
<text text-anchor="middle" x="226.5" y="-7" font-family="Helvetica,sans-Serif" font-size="10.00">/src/opengl/draw/movie.c</text>
</a>
</g>
</g>
<!-- Node1&#45;&gt;Node3 -->
<g id="edge2_Node000001_Node000003" class="edge">
<title>Node1&#45;&gt;Node3</title>
<g id="a_edge2_Node000001_Node000003"><a xlink:title=" ">
<path fill="none" stroke="#63b8ff" d="M226.5,-66.69C226.5,-58.08 226.5,-48.9 226.5,-41.07"/>
<polygon fill="#63b8ff" stroke="#63b8ff" points="223,-66.79 226.5,-76.79 230,-66.79 223,-66.79"/>
</a>
</g>
</g>
<!-- Node4 -->
<g id="Node000004" class="node">
<title>Node4</title>
<g id="a_Node000004"><a xlink:href="../../da/daf/w__encode_8c.html" target="_top" xlink:title="Functions to create the encoding (image/video) window.">
<polygon fill="white" stroke="#666666" points="464.5,-41 314.5,-41 314.5,0 464.5,0 464.5,-41"/>
<text text-anchor="start" x="322.5" y="-29" font-family="Helvetica,sans-Serif" font-size="10.00">/home/slookeur/files</text>
<text text-anchor="start" x="322.5" y="-18" font-family="Helvetica,sans-Serif" font-size="10.00">/codeblocks&#45;files/atomes</text>
<text text-anchor="middle" x="389.5" y="-7" font-family="Helvetica,sans-Serif" font-size="10.00">/src/opengl/win/w_encode.c</text>
</a>
</g>
</g>
<!-- Node1&#45;&gt;Node4 -->
<g id="edge3_Node000001_Node000004" class="edge">
<title>Node1&#45;&gt;Node4</title>
<g id="a_edge3_Node000001_Node000004"><a xlink:title=" ">
<path fill="none" stroke="#63b8ff" d="M278.18,-72.72C300.36,-62.51 325.97,-50.73 347.03,-41.04"/>
<polygon fill="#63b8ff" stroke="#63b8ff" points="276.52,-69.63 268.9,-76.99 279.45,-75.99 276.52,-69.63"/>
</a>
</g>
</g>
</g>
</svg>
