<?xml version="1.0" encoding="UTF-8" standalone="no"?>
<!DOCTYPE svg PUBLIC "-//W3C//DTD SVG 1.1//EN"
 "http://www.w3.org/Graphics/SVG/1.1/DTD/svg11.dtd">
<!-- Generated by graphviz version 7.1.0 (0)
 -->
<!-- Title: movie.h Pages: 1 -->
<svg width="215pt" height="82pt"
 viewBox="0.00 0.00 215.00 82.00" xmlns="http://www.w3.org/2000/svg" xmlns:xlink="http://www.w3.org/1999/xlink">
<g id="graph0" class="graph" transform="scale(1 1) rotate(0) translate(4 78)">
<title>movie.h</title>
<!-- Node1 -->
<g id="node1" class="node">
<title>Node1</title>
<g id="a_node1"><a xlink:title=" ">
<polygon fill="#999999" stroke="#666666" points="120,-74 69,-74 69,-55 120,-55 120,-74"/>
<text text-anchor="middle" x="94.5" y="-62" font-family="Helvetica,sans-Serif" font-size="10.00">movie.h</text>
</a>
</g>
</g>
<!-- Node2 -->
<g id="node2" class="node">
<title>Node2</title>
<g id="a_node2"><a xlink:href="../../d3/d10/image_8c.html" target="_top" xlink:title=" ">
<polygon fill="white" stroke="#666666" points="51,-19 0,-19 0,0 51,0 51,-19"/>
<text text-anchor="middle" x="25.5" y="-7" font-family="Helvetica,sans-Serif" font-size="10.00">image.c</text>
</a>
</g>
</g>
<!-- Node1&#45;&gt;Node2 -->
<g id="edge1" class="edge">
<title>Node1&#45;&gt;Node2</title>
<path fill="none" stroke="#63b8ff" d="M73.85,-47.64C61.8,-38.39 47.05,-27.05 37.03,-19.36"/>
<polygon fill="#63b8ff" stroke="#63b8ff" points="71.53,-50.27 81.59,-53.59 75.8,-44.72 71.53,-50.27"/>
</g>
<!-- Node3 -->
<g id="node3" class="node">
<title>Node3</title>
<g id="a_node3"><a xlink:href="../../d8/dee/movie_8c.html" target="_top" xlink:title=" ">
<polygon fill="white" stroke="#666666" points="120,-19 69,-19 69,0 120,0 120,-19"/>
<text text-anchor="middle" x="94.5" y="-7" font-family="Helvetica,sans-Serif" font-size="10.00">movie.c</text>
</a>
</g>
</g>
<!-- Node1&#45;&gt;Node3 -->
<g id="edge2" class="edge">
<title>Node1&#45;&gt;Node3</title>
<path fill="none" stroke="#63b8ff" d="M94.5,-43.35C94.5,-35.1 94.5,-25.97 94.5,-19.44"/>
<polygon fill="#63b8ff" stroke="#63b8ff" points="91,-43.23 94.5,-53.23 98,-43.23 91,-43.23"/>
</g>
<!-- Node4 -->
<g id="node4" class="node">
<title>Node4</title>
<g id="a_node4"><a xlink:href="../../da/daf/w__encode_8c.html" target="_top" xlink:title=" ">
<polygon fill="white" stroke="#666666" points="207,-19 138,-19 138,0 207,0 207,-19"/>
<text text-anchor="middle" x="172.5" y="-7" font-family="Helvetica,sans-Serif" font-size="10.00">w_encode.c</text>
</a>
</g>
</g>
<!-- Node1&#45;&gt;Node4 -->
<g id="edge3" class="edge">
<title>Node1&#45;&gt;Node4</title>
<path fill="none" stroke="#63b8ff" d="M117.03,-48.19C130.8,-38.84 147.91,-27.21 159.46,-19.36"/>
<polygon fill="#63b8ff" stroke="#63b8ff" points="115.29,-45.14 108.98,-53.66 119.22,-50.93 115.29,-45.14"/>
</g>
</g>
</svg>
