<?xml version="1.0" encoding="UTF-8" standalone="no"?>
<!DOCTYPE svg PUBLIC "-//W3C//DTD SVG 1.1//EN"
 "http://www.w3.org/Graphics/SVG/1.1/DTD/svg11.dtd">
<!-- Generated by graphviz version 7.1.0 (0)
 -->
<!-- Title: opengl/draw/movie.c Pages: 1 -->
<!--zoomable 192 -->

<svg id="main" version="1.1" xmlns="http://www.w3.org/2000/svg" xmlns:xlink="http://www.w3.org/1999/xlink" xml:space="preserve" onload="init(evt)">
<style type="text/css"><![CDATA[
.node, .edge {opacity: 0.7;}
.node.selected, .edge.selected {opacity: 1;}
.edge:hover path { stroke: red; }
.edge:hover polygon { stroke: red; fill: red; }
]]></style>

<defs>
  <circle id="rim" cx="0" cy="0" r="7"/>
  <circle id="rim2" cx="0" cy="0" r="3.5"/>
  <g id="zoomPlus">
    <use xlink:href="#rim" fill="#404040"><set attributeName="fill" to="#808080" begin="zoomplus.mouseover" end="zoomplus.mouseout"/></use>
    <path d="M-4,0h8M0,-4v8" fill="none" stroke="white" stroke-width="1.5" pointer-events="none"/>
  </g>
  <g id="zoomMin">
    <use xlink:href="#rim" fill="#404040"><set attributeName="fill" to="#808080" begin="zoomminus.mouseover" end="zoomminus.mouseout"/></use>
    <path d="M-4,0h8" fill="none" stroke="white" stroke-width="1.5" pointer-events="none"/>
  </g>
  <g id="arrowUp" transform="translate(30 24)">
    <use xlink:href="#rim"/>
    <path pointer-events="none" fill="none" stroke="white" stroke-width="1.5" d="M0,-3.0v7 M-2.5,-0.5L0,-3.0L2.5,-0.5"/>
  </g>
  <g id="arrowRight" transform="rotate(90) translate(36 -43)">
    <use xlink:href="#rim"/>
    <path pointer-events="none" fill="none" stroke="white" stroke-width="1.5" d="M0,-3.0v7 M-2.5,-0.5L0,-3.0L2.5,-0.5"/>
  </g>
  <g id="arrowDown" transform="rotate(180) translate(-30 -48)">
    <use xlink:href="#rim"/>
    <path pointer-events="none" fill="none" stroke="white" stroke-width="1.5" d="M0,-3.0v7 M-2.5,-0.5L0,-3.0L2.5,-0.5"/>
  </g>
  <g id="arrowLeft" transform="rotate(270) translate(-36 17)">
    <use xlink:href="#rim"/>
    <path pointer-events="none" fill="none" stroke="white" stroke-width="1.5" d="M0,-3.0v7 M-2.5,-0.5L0,-3.0L2.5,-0.5"/>
  </g>
  <g id="resetDef">
    <use xlink:href="#rim2" fill="#404040"><set attributeName="fill" to="#808080" begin="reset.mouseover" end="reset.mouseout"/></use>
  </g>
</defs>
<script type="application/ecmascript">
var viewWidth = 2317;
var viewHeight = 192;
var sectionId = 'dynsection-0';
</script>
<script type="application/ecmascript" xlink:href="../../svg.min.js"/>
<svg id="graph" class="graph">
<g id="viewport">
<title>opengl/draw/movie.c</title>
<!-- Node1 -->
<g id="Node000001" class="node">
<title>Node1</title>
<g id="a_Node000001"><a xlink:title="Functions to encode a movie / render an image from the OpenGL rendering.">
<polygon fill="#999999" stroke="#666666" points="1471.5,-184 1364.5,-184 1364.5,-165 1471.5,-165 1471.5,-184"/>
<text text-anchor="middle" x="1418" y="-172" font-family="Helvetica,sans-Serif" font-size="10.00">opengl/draw/movie.c</text>
</a>
</g>
</g>
<!-- Node2 -->
<g id="Node000002" class="node">
<title>Node2</title>
<g id="a_Node000002"><a xlink:href="../../d2/d49/global_8h.html" target="_top" xlink:title="Global variable declarations &#160;&#160;Global convenience function declarations &#160;&#160;Global data structure defin...">
<polygon fill="white" stroke="#666666" points="953,-129 903,-129 903,-110 953,-110 953,-129"/>
<text text-anchor="middle" x="928" y="-117" font-family="Helvetica,sans-Serif" font-size="10.00">global.h</text>
</a>
</g>
</g>
<!-- Node1&#45;&gt;Node2 -->
<g id="edge1_Node000001_Node000002" class="edge">
<title>Node1&#45;&gt;Node2</title>
<g id="a_edge1_Node000001_Node000002"><a xlink:title=" ">
<path fill="none" stroke="#63b8ff" d="M1364.16,-167.68C1263.72,-156.81 1050.23,-133.72 964.63,-124.46"/>
<polygon fill="#63b8ff" stroke="#63b8ff" points="965.25,-121.01 954.93,-123.41 964.49,-127.97 965.25,-121.01"/>
</a>
</g>
</g>
<!-- Node25 -->
<g id="Node000025" class="node">
<title>Node25</title>
<g id="a_Node000025"><a xlink:href="../../d4/da9/interface_8h.html" target="_top" xlink:title="Messaging function declarations.">
<polygon fill="white" stroke="#666666" points="1334,-129 1272,-129 1272,-110 1334,-110 1334,-129"/>
<text text-anchor="middle" x="1303" y="-117" font-family="Helvetica,sans-Serif" font-size="10.00">interface.h</text>
</a>
</g>
</g>
<!-- Node1&#45;&gt;Node25 -->
<g id="edge26_Node000001_Node000025" class="edge">
<title>Node1&#45;&gt;Node25</title>
<g id="a_edge26_Node000001_Node000025"><a xlink:title=" ">
<path fill="none" stroke="#63b8ff" d="M1398.49,-164.51C1380.37,-156.16 1353.15,-143.61 1332.4,-134.05"/>
<polygon fill="#63b8ff" stroke="#63b8ff" points="1334.14,-131 1323.59,-129.99 1331.21,-137.36 1334.14,-131"/>
</a>
</g>
</g>
<!-- Node26 -->
<g id="Node000026" class="node">
<title>Node26</title>
<g id="a_Node000026"><a xlink:href="../../dc/d8d/project_8h.html" target="_top" xlink:title="Function declarations for reading atomes project file &#160;&#160;Function declarations for saving atomes proje...">
<polygon fill="white" stroke="#666666" points="1406,-129 1352,-129 1352,-110 1406,-110 1406,-129"/>
<text text-anchor="middle" x="1379" y="-117" font-family="Helvetica,sans-Serif" font-size="10.00">project.h</text>
</a>
</g>
</g>
<!-- Node1&#45;&gt;Node26 -->
<g id="edge27_Node000001_Node000026" class="edge">
<title>Node1&#45;&gt;Node26</title>
<g id="a_edge27_Node000001_Node000026"><a xlink:title=" ">
<path fill="none" stroke="#63b8ff" d="M1411.56,-164.75C1406.34,-157.66 1398.81,-147.42 1392.31,-138.59"/>
<polygon fill="#63b8ff" stroke="#63b8ff" points="1395.22,-136.64 1386.48,-130.66 1389.58,-140.79 1395.22,-136.64"/>
</a>
</g>
</g>
<!-- Node27 -->
<g id="Node000027" class="node">
<title>Node27</title>
<g id="a_Node000027"><a xlink:href="../../d1/d2a/glwindow_8h.html" target="_top" xlink:title="Function declarations for the creation of the OpenGL window.">
<polygon fill="white" stroke="#666666" points="1489.5,-129 1424.5,-129 1424.5,-110 1489.5,-110 1489.5,-129"/>
<text text-anchor="middle" x="1457" y="-117" font-family="Helvetica,sans-Serif" font-size="10.00">glwindow.h</text>
</a>
</g>
</g>
<!-- Node1&#45;&gt;Node27 -->
<g id="edge28_Node000001_Node000027" class="edge">
<title>Node1&#45;&gt;Node27</title>
<g id="a_edge28_Node000001_Node000027"><a xlink:title=" ">
<path fill="none" stroke="#63b8ff" d="M1424.44,-164.75C1429.66,-157.66 1437.19,-147.42 1443.69,-138.59"/>
<polygon fill="#63b8ff" stroke="#63b8ff" points="1446.42,-140.79 1449.52,-130.66 1440.78,-136.64 1446.42,-140.79"/>
</a>
</g>
</g>
<!-- Node28 -->
<g id="Node000028" class="node">
<title>Node28</title>
<g id="a_Node000028"><a xlink:href="../../dc/de3/glview_8h.html" target="_top" xlink:title="Variable declarations related to the OpenGL window &#160;&#160;Function declarations related to the OpenGL wind...">
<polygon fill="white" stroke="#666666" points="1560,-129 1508,-129 1508,-110 1560,-110 1560,-129"/>
<text text-anchor="middle" x="1534" y="-117" font-family="Helvetica,sans-Serif" font-size="10.00">glview.h</text>
</a>
</g>
</g>
<!-- Node1&#45;&gt;Node28 -->
<g id="edge29_Node000001_Node000028" class="edge">
<title>Node1&#45;&gt;Node28</title>
<g id="a_edge29_Node000001_Node000028"><a xlink:title=" ">
<path fill="none" stroke="#63b8ff" d="M1437.68,-164.51C1455.95,-156.16 1483.41,-143.61 1504.35,-134.05"/>
<polygon fill="#63b8ff" stroke="#63b8ff" points="1505.6,-137.33 1513.24,-129.99 1502.69,-130.96 1505.6,-137.33"/>
</a>
</g>
</g>
<!-- Node29 -->
<g id="Node000029" class="node">
<title>Node29</title>
<g id="a_Node000029"><a xlink:href="../../da/ddd/movie_8h.html" target="_top" xlink:title="Data structure declarations for movie encoding &#160;&#160;Function declarations for movie encoding.">
<polygon fill="white" stroke="#666666" points="1931.5,-129 1880.5,-129 1880.5,-110 1931.5,-110 1931.5,-129"/>
<text text-anchor="middle" x="1906" y="-117" font-family="Helvetica,sans-Serif" font-size="10.00">movie.h</text>
</a>
</g>
</g>
<!-- Node1&#45;&gt;Node29 -->
<g id="edge30_Node000001_Node000029" class="edge">
<title>Node1&#45;&gt;Node29</title>
<g id="a_edge30_Node000001_Node000029"><a xlink:title=" ">
<path fill="none" stroke="#63b8ff" d="M1471.62,-167.68C1571.41,-156.84 1783.27,-133.83 1868.92,-124.53"/>
<polygon fill="#63b8ff" stroke="#63b8ff" points="1869.07,-128.03 1878.63,-123.47 1868.31,-121.07 1869.07,-128.03"/>
</a>
</g>
</g>
<!-- Node3 -->
<g id="Node000003" class="node">
<title>Node3</title>
<g id="a_Node000003"><a xlink:title=" ">
<polygon fill="#e0e0e0" stroke="#999999" points="1255,-74 1215,-74 1215,-55 1255,-55 1255,-74"/>
<text text-anchor="middle" x="1235" y="-62" font-family="Helvetica,sans-Serif" font-size="10.00">glib.h</text>
</a>
</g>
</g>
<!-- Node2&#45;&gt;Node3 -->
<g id="edge2_Node000002_Node000003" class="edge">
<title>Node2&#45;&gt;Node3</title>
<g id="a_edge2_Node000002_Node000003"><a xlink:title=" ">
<path fill="none" stroke="#63b8ff" d="M953.12,-115.56C1000.35,-109.8 1105.76,-95.87 1203.81,-74.24"/>
<polygon fill="#63b8ff" stroke="#63b8ff" points="1204.34,-77.71 1213.33,-72.1 1202.8,-70.88 1204.34,-77.71"/>
</a>
</g>
</g>
<!-- Node4 -->
<g id="Node000004" class="node">
<title>Node4</title>
<g id="a_Node000004"><a xlink:title=" ">
<polygon fill="#e0e0e0" stroke="#999999" points="1339,-74 1273,-74 1273,-55 1339,-55 1339,-74"/>
<text text-anchor="middle" x="1306" y="-62" font-family="Helvetica,sans-Serif" font-size="10.00">glib/gi18n.h</text>
</a>
</g>
</g>
<!-- Node2&#45;&gt;Node4 -->
<g id="edge3_Node000002_Node000004" class="edge">
<title>Node2&#45;&gt;Node4</title>
<g id="a_edge3_Node000002_Node000004"><a xlink:title=" ">
<path fill="none" stroke="#63b8ff" d="M953.38,-115.74C1007.84,-109.68 1140.17,-94.28 1261.26,-74.36"/>
<polygon fill="#63b8ff" stroke="#63b8ff" points="1261.78,-77.82 1271.07,-72.73 1260.64,-70.91 1261.78,-77.82"/>
</a>
</g>
</g>
<!-- Node5 -->
<g id="Node000005" class="node">
<title>Node5</title>
<g id="a_Node000005"><a xlink:title=" ">
<polygon fill="#e0e0e0" stroke="#999999" points="1407,-74 1357,-74 1357,-55 1407,-55 1407,-74"/>
<text text-anchor="middle" x="1382" y="-62" font-family="Helvetica,sans-Serif" font-size="10.00">locale.h</text>
</a>
</g>
</g>
<!-- Node2&#45;&gt;Node5 -->
<g id="edge4_Node000002_Node000005" class="edge">
<title>Node2&#45;&gt;Node5</title>
<g id="a_edge4_Node000002_Node000005"><a xlink:title=" ">
<path fill="none" stroke="#63b8ff" d="M953.26,-117.06C1017.28,-113.14 1191.21,-100.87 1345.74,-74.16"/>
<polygon fill="#63b8ff" stroke="#63b8ff" points="1346.1,-77.65 1355.34,-72.47 1344.89,-70.75 1346.1,-77.65"/>
</a>
</g>
</g>
<!-- Node6 -->
<g id="Node000006" class="node">
<title>Node6</title>
<g id="a_Node000006"><a xlink:title=" ">
<polygon fill="#e0e0e0" stroke="#999999" points="1476.5,-74 1425.5,-74 1425.5,-55 1476.5,-55 1476.5,-74"/>
<text text-anchor="middle" x="1451" y="-62" font-family="Helvetica,sans-Serif" font-size="10.00">unistd.h</text>
</a>
</g>
</g>
<!-- Node2&#45;&gt;Node6 -->
<g id="edge5_Node000002_Node000006" class="edge">
<title>Node2&#45;&gt;Node6</title>
<g id="a_edge5_Node000002_Node000006"><a xlink:title=" ">
<path fill="none" stroke="#63b8ff" d="M953.31,-117.51C1024.37,-114.45 1231.85,-103.61 1413.97,-74.08"/>
<polygon fill="#63b8ff" stroke="#63b8ff" points="1414.3,-77.57 1423.6,-72.49 1413.16,-70.66 1414.3,-77.57"/>
</a>
</g>
</g>
<!-- Node7 -->
<g id="Node000007" class="node">
<title>Node7</title>
<g id="a_Node000007"><a xlink:title=" ">
<polygon fill="#e0e0e0" stroke="#999999" points="1543.5,-74 1494.5,-74 1494.5,-55 1543.5,-55 1543.5,-74"/>
<text text-anchor="middle" x="1519" y="-62" font-family="Helvetica,sans-Serif" font-size="10.00">string.h</text>
</a>
</g>
</g>
<!-- Node2&#45;&gt;Node7 -->
<g id="edge6_Node000002_Node000007" class="edge">
<title>Node2&#45;&gt;Node7</title>
<g id="a_edge6_Node000002_Node000007"><a xlink:title=" ">
<path fill="none" stroke="#63b8ff" d="M953.44,-117.96C1031.27,-116 1273.1,-107.59 1482.98,-74.02"/>
<polygon fill="#63b8ff" stroke="#63b8ff" points="1483.41,-77.5 1492.72,-72.44 1482.29,-70.59 1483.41,-77.5"/>
</a>
</g>
</g>
<!-- Node8 -->
<g id="Node000008" class="node">
<title>Node8</title>
<g id="a_Node000008"><a xlink:title=" ">
<polygon fill="#e0e0e0" stroke="#999999" points="1102,-19 1056,-19 1056,0 1102,0 1102,-19"/>
<text text-anchor="middle" x="1079" y="-7" font-family="Helvetica,sans-Serif" font-size="10.00">stdio.h</text>
</a>
</g>
</g>
<!-- Node2&#45;&gt;Node8 -->
<g id="edge7_Node000002_Node000008" class="edge">
<title>Node2&#45;&gt;Node8</title>
<g id="a_edge7_Node000002_Node000008"><a xlink:title=" ">
<path fill="none" stroke="#63b8ff" d="M953.36,-115.27C994.65,-109.44 1073.47,-95.69 1090,-74 1099.64,-61.35 1095.18,-43.16 1089.31,-29.49"/>
<polygon fill="#63b8ff" stroke="#63b8ff" points="1092.52,-28.1 1084.99,-20.65 1086.23,-31.17 1092.52,-28.1"/>
</a>
</g>
</g>
<!-- Node9 -->
<g id="Node000009" class="node">
<title>Node9</title>
<g id="a_Node000009"><a xlink:title=" ">
<polygon fill="#e0e0e0" stroke="#999999" points="48,-74 0,-74 0,-55 48,-55 48,-74"/>
<text text-anchor="middle" x="24" y="-62" font-family="Helvetica,sans-Serif" font-size="10.00">stdlib.h</text>
</a>
</g>
</g>
<!-- Node2&#45;&gt;Node9 -->
<g id="edge8_Node000002_Node000009" class="edge">
<title>Node2&#45;&gt;Node9</title>
<g id="a_edge8_Node000002_Node000009"><a xlink:title=" ">
<path fill="none" stroke="#63b8ff" d="M902.72,-117.89C780.39,-114.86 248.41,-100.48 59.53,-74"/>
<polygon fill="#63b8ff" stroke="#63b8ff" points="60.3,-70.58 49.89,-72.59 59.28,-77.5 60.3,-70.58"/>
</a>
</g>
</g>
<!-- Node10 -->
<g id="Node000010" class="node">
<title>Node10</title>
<g id="a_Node000010"><a xlink:title=" ">
<polygon fill="#e0e0e0" stroke="#999999" points="134,-74 66,-74 66,-55 134,-55 134,-74"/>
<text text-anchor="middle" x="100" y="-62" font-family="Helvetica,sans-Serif" font-size="10.00">sys/types.h</text>
</a>
</g>
</g>
<!-- Node2&#45;&gt;Node10 -->
<g id="edge9_Node000002_Node000010" class="edge">
<title>Node2&#45;&gt;Node10</title>
<g id="a_edge9_Node000002_Node000010"><a xlink:title=" ">
<path fill="none" stroke="#63b8ff" d="M902.81,-118.34C806.07,-117.45 449.12,-111.76 145.43,-74.11"/>
<polygon fill="#63b8ff" stroke="#63b8ff" points="146.06,-70.67 135.7,-72.89 145.19,-77.61 146.06,-70.67"/>
</a>
</g>
</g>
<!-- Node11 -->
<g id="Node000011" class="node">
<title>Node11</title>
<g id="a_Node000011"><a xlink:title=" ">
<polygon fill="#e0e0e0" stroke="#999999" points="212,-74 152,-74 152,-55 212,-55 212,-74"/>
<text text-anchor="middle" x="182" y="-62" font-family="Helvetica,sans-Serif" font-size="10.00">sys/stat.h</text>
</a>
</g>
</g>
<!-- Node2&#45;&gt;Node11 -->
<g id="edge10_Node000002_Node000011" class="edge">
<title>Node2&#45;&gt;Node11</title>
<g id="a_edge10_Node000002_Node000011"><a xlink:title=" ">
<path fill="none" stroke="#63b8ff" d="M902.71,-118.06C811.23,-116.23 489.17,-107.62 226,-74 225.16,-73.89 224.31,-73.78 223.46,-73.66"/>
<polygon fill="#63b8ff" stroke="#63b8ff" points="224.14,-70.22 213.71,-72.1 223.03,-77.14 224.14,-70.22"/>
</a>
</g>
</g>
<!-- Node12 -->
<g id="Node000012" class="node">
<title>Node12</title>
<g id="a_Node000012"><a xlink:title=" ">
<polygon fill="#e0e0e0" stroke="#999999" points="665.5,-19 618.5,-19 618.5,0 665.5,0 665.5,-19"/>
<text text-anchor="middle" x="642" y="-7" font-family="Helvetica,sans-Serif" font-size="10.00">math.h</text>
</a>
</g>
</g>
<!-- Node2&#45;&gt;Node12 -->
<g id="edge11_Node000002_Node000012" class="edge">
<title>Node2&#45;&gt;Node12</title>
<g id="a_edge11_Node000002_Node000012"><a xlink:title=" ">
<path fill="none" stroke="#63b8ff" d="M902.52,-118.81C785.55,-119.96 303.69,-121.76 259,-74 210.33,-21.98 503.16,-12.57 606.72,-10.87"/>
<polygon fill="#63b8ff" stroke="#63b8ff" points="606.63,-14.38 616.58,-10.73 606.53,-7.38 606.63,-14.38"/>
</a>
</g>
</g>
<!-- Node13 -->
<g id="Node000013" class="node">
<title>Node13</title>
<g id="a_Node000013"><a xlink:title=" ">
<polygon fill="#e0e0e0" stroke="#999999" points="323.5,-74 268.5,-74 268.5,-55 323.5,-55 323.5,-74"/>
<text text-anchor="middle" x="296" y="-62" font-family="Helvetica,sans-Serif" font-size="10.00">gtk/gtk.h</text>
</a>
</g>
</g>
<!-- Node2&#45;&gt;Node13 -->
<g id="edge12_Node000002_Node000013" class="edge">
<title>Node2&#45;&gt;Node13</title>
<g id="a_edge12_Node000002_Node000013"><a xlink:title=" ">
<path fill="none" stroke="#63b8ff" d="M902.57,-118.03C821.23,-116.23 560.06,-108.12 335.18,-74.26"/>
<polygon fill="#63b8ff" stroke="#63b8ff" points="335.73,-70.81 325.32,-72.75 334.68,-77.73 335.73,-70.81"/>
</a>
</g>
</g>
<!-- Node14 -->
<g id="Node000014" class="node">
<title>Node14</title>
<g id="a_Node000014"><a xlink:title=" ">
<polygon fill="#e0e0e0" stroke="#999999" points="400.5,-74 341.5,-74 341.5,-55 400.5,-55 400.5,-74"/>
<text text-anchor="middle" x="371" y="-62" font-family="Helvetica,sans-Serif" font-size="10.00">gdk/gdk.h</text>
</a>
</g>
</g>
<!-- Node2&#45;&gt;Node14 -->
<g id="edge13_Node000002_Node000014" class="edge">
<title>Node2&#45;&gt;Node14</title>
<g id="a_edge13_Node000002_Node000014"><a xlink:title=" ">
<path fill="none" stroke="#63b8ff" d="M902.74,-117.54C828.77,-114.47 606.07,-103.44 412.06,-74.28"/>
<polygon fill="#63b8ff" stroke="#63b8ff" points="412.71,-70.84 402.29,-72.79 411.65,-77.76 412.71,-70.84"/>
</a>
</g>
</g>
<!-- Node15 -->
<g id="Node000015" class="node">
<title>Node15</title>
<g id="a_Node000015"><a xlink:title=" ">
<polygon fill="#e0e0e0" stroke="#999999" points="517.5,-74 418.5,-74 418.5,-55 517.5,-55 517.5,-74"/>
<text text-anchor="middle" x="468" y="-62" font-family="Helvetica,sans-Serif" font-size="10.00">gdk/gdkkeysyms.h</text>
</a>
</g>
</g>
<!-- Node2&#45;&gt;Node15 -->
<g id="edge14_Node000002_Node000015" class="edge">
<title>Node2&#45;&gt;Node15</title>
<g id="a_edge14_Node000002_Node000015"><a xlink:title=" ">
<path fill="none" stroke="#63b8ff" d="M902.63,-115.97C840.77,-109.75 677.01,-92.92 528.96,-74.21"/>
<polygon fill="#63b8ff" stroke="#63b8ff" points="529.74,-70.78 519.38,-72.99 528.86,-77.73 529.74,-70.78"/>
</a>
</g>
</g>
<!-- Node16 -->
<g id="Node000016" class="node">
<title>Node16</title>
<g id="a_Node000016"><a xlink:title=" ">
<polygon fill="#e0e0e0" stroke="#999999" points="654,-74 536,-74 536,-55 654,-55 654,-74"/>
<text text-anchor="middle" x="595" y="-62" font-family="Helvetica,sans-Serif" font-size="10.00">gdk&#45;pixbuf/gdk&#45;pixbuf.h</text>
</a>
</g>
</g>
<!-- Node2&#45;&gt;Node16 -->
<g id="edge15_Node000002_Node000016" class="edge">
<title>Node2&#45;&gt;Node16</title>
<g id="a_edge15_Node000002_Node000016"><a xlink:title=" ">
<path fill="none" stroke="#63b8ff" d="M902.7,-114.47C852.02,-106.41 736.6,-88.04 662.42,-76.23"/>
<polygon fill="#63b8ff" stroke="#63b8ff" points="663.26,-72.82 652.83,-74.7 662.16,-79.73 663.26,-72.82"/>
</a>
</g>
</g>
<!-- Node17 -->
<g id="Node000017" class="node">
<title>Node17</title>
<g id="a_Node000017"><a xlink:title=" ">
<polygon fill="#e0e0e0" stroke="#999999" points="764,-74 672,-74 672,-55 764,-55 764,-74"/>
<text text-anchor="middle" x="718" y="-62" font-family="Helvetica,sans-Serif" font-size="10.00">pango/pangoft2.h</text>
</a>
</g>
</g>
<!-- Node2&#45;&gt;Node17 -->
<g id="edge16_Node000002_Node000017" class="edge">
<title>Node2&#45;&gt;Node17</title>
<g id="a_edge16_Node000002_Node000017"><a xlink:title=" ">
<path fill="none" stroke="#63b8ff" d="M902.67,-112.11C868.52,-103.49 807.1,-87.99 764.52,-77.24"/>
<polygon fill="#63b8ff" stroke="#63b8ff" points="765.61,-73.91 755.06,-74.85 763.9,-80.69 765.61,-73.91"/>
</a>
</g>
</g>
<!-- Node18 -->
<g id="Node000018" class="node">
<title>Node18</title>
<g id="a_Node000018"><a xlink:title=" ">
<polygon fill="#e0e0e0" stroke="#999999" points="844,-74 782,-74 782,-55 844,-55 844,-74"/>
<text text-anchor="middle" x="813" y="-62" font-family="Helvetica,sans-Serif" font-size="10.00">epoxy/gl.h</text>
</a>
</g>
</g>
<!-- Node2&#45;&gt;Node18 -->
<g id="edge17_Node000002_Node000018" class="edge">
<title>Node2&#45;&gt;Node18</title>
<g id="a_edge17_Node000002_Node000018"><a xlink:title=" ">
<path fill="none" stroke="#63b8ff" d="M908.49,-109.51C890.37,-101.16 863.15,-88.61 842.4,-79.05"/>
<polygon fill="#63b8ff" stroke="#63b8ff" points="844.14,-76 833.59,-74.99 841.21,-82.36 844.14,-76"/>
</a>
</g>
</g>
<!-- Node19 -->
<g id="Node000019" class="node">
<title>Node19</title>
<g id="a_Node000019"><a xlink:title=" ">
<polygon fill="#e0e0e0" stroke="#999999" points="915.5,-74 862.5,-74 862.5,-55 915.5,-55 915.5,-74"/>
<text text-anchor="middle" x="889" y="-62" font-family="Helvetica,sans-Serif" font-size="10.00">GL/glu.h</text>
</a>
</g>
</g>
<!-- Node2&#45;&gt;Node19 -->
<g id="edge18_Node000002_Node000019" class="edge">
<title>Node2&#45;&gt;Node19</title>
<g id="a_edge18_Node000002_Node000019"><a xlink:title=" ">
<path fill="none" stroke="#63b8ff" d="M921.56,-109.75C916.34,-102.66 908.81,-92.42 902.31,-83.59"/>
<polygon fill="#63b8ff" stroke="#63b8ff" points="905.22,-81.64 896.48,-75.66 899.58,-85.79 905.22,-81.64"/>
</a>
</g>
</g>
<!-- Node20 -->
<g id="Node000020" class="node">
<title>Node20</title>
<g id="a_Node000020"><a xlink:title=" ">
<polygon fill="#e0e0e0" stroke="#999999" points="1000.5,-74 933.5,-74 933.5,-55 1000.5,-55 1000.5,-74"/>
<text text-anchor="middle" x="967" y="-62" font-family="Helvetica,sans-Serif" font-size="10.00">epoxy/glx.h</text>
</a>
</g>
</g>
<!-- Node2&#45;&gt;Node20 -->
<g id="edge19_Node000002_Node000020" class="edge">
<title>Node2&#45;&gt;Node20</title>
<g id="a_edge19_Node000002_Node000020"><a xlink:title=" ">
<path fill="none" stroke="#63b8ff" d="M934.44,-109.75C939.66,-102.66 947.19,-92.42 953.69,-83.59"/>
<polygon fill="#63b8ff" stroke="#63b8ff" points="956.42,-85.79 959.52,-75.66 950.78,-81.64 956.42,-85.79"/>
</a>
</g>
</g>
<!-- Node21 -->
<g id="Node000021" class="node">
<title>Node21</title>
<g id="a_Node000021"><a xlink:href="../../dc/db0/math__3d_8h.html" target="_top" xlink:title="Functions for OpenGL math.">
<polygon fill="white" stroke="#666666" points="1081,-74 1019,-74 1019,-55 1081,-55 1081,-74"/>
<text text-anchor="middle" x="1050" y="-62" font-family="Helvetica,sans-Serif" font-size="10.00">math_3d.h</text>
</a>
</g>
</g>
<!-- Node2&#45;&gt;Node21 -->
<g id="edge20_Node000002_Node000021" class="edge">
<title>Node2&#45;&gt;Node21</title>
<g id="a_edge20_Node000002_Node000021"><a xlink:title=" ">
<path fill="none" stroke="#63b8ff" d="M948.7,-109.51C968,-101.12 997.06,-88.5 1019.11,-78.92"/>
<polygon fill="#63b8ff" stroke="#63b8ff" points="1020.44,-82.16 1028.22,-74.96 1017.66,-75.74 1020.44,-82.16"/>
</a>
</g>
</g>
<!-- Node22 -->
<g id="Node000022" class="node">
<title>Node22</title>
<g id="a_Node000022"><a xlink:href="../../da/d7e/glwin_8h.html" target="_top" xlink:title="Variable declarations related the OpenGL window &#160;&#160;Data structure declarations related the OpenGL wind...">
<polygon fill="white" stroke="#666666" points="1608.5,-74 1561.5,-74 1561.5,-55 1608.5,-55 1608.5,-74"/>
<text text-anchor="middle" x="1585" y="-62" font-family="Helvetica,sans-Serif" font-size="10.00">glwin.h</text>
</a>
</g>
</g>
<!-- Node2&#45;&gt;Node22 -->
<g id="edge23_Node000002_Node000022" class="edge">
<title>Node2&#45;&gt;Node22</title>
<g id="a_edge23_Node000002_Node000022"><a xlink:title=" ">
<path fill="none" stroke="#63b8ff" d="M953.45,-118.33C1037.38,-117.43 1313.01,-111.72 1550.06,-73.97"/>
<polygon fill="#63b8ff" stroke="#63b8ff" points="1550.51,-77.44 1559.82,-72.39 1549.39,-70.53 1550.51,-77.44"/>
</a>
</g>
</g>
<!-- Node24 -->
<g id="Node000024" class="node">
<title>Node24</title>
<g id="a_Node000024"><a xlink:title=" ">
<polygon fill="#e0e0e0" stroke="#999999" points="1197,-74 1137,-74 1137,-55 1197,-55 1197,-74"/>
<text text-anchor="middle" x="1167" y="-62" font-family="Helvetica,sans-Serif" font-size="10.00">gtk/gtkx.h</text>
</a>
</g>
</g>
<!-- Node2&#45;&gt;Node24 -->
<g id="edge25_Node000002_Node000024" class="edge">
<title>Node2&#45;&gt;Node24</title>
<g id="a_edge25_Node000002_Node000024"><a xlink:title=" ">
<path fill="none" stroke="#63b8ff" d="M953.13,-112.93C994.15,-103.83 1075.93,-85.7 1125.62,-74.68"/>
<polygon fill="#63b8ff" stroke="#63b8ff" points="1126.14,-78.15 1135.14,-72.57 1124.62,-71.31 1126.14,-78.15"/>
</a>
</g>
</g>
<!-- Node21&#45;&gt;Node8 -->
<g id="edge22_Node000021_Node000008" class="edge">
<title>Node21&#45;&gt;Node8</title>
<g id="a_edge22_Node000021_Node000008"><a xlink:title=" ">
<path fill="none" stroke="#63b8ff" d="M1054.79,-54.75C1058.54,-47.88 1063.91,-38.08 1068.63,-29.45"/>
<polygon fill="#63b8ff" stroke="#63b8ff" points="1071.65,-31.22 1073.38,-20.77 1065.51,-27.86 1071.65,-31.22"/>
</a>
</g>
</g>
<!-- Node21&#45;&gt;Node12 -->
<g id="edge21_Node000021_Node000012" class="edge">
<title>Node21&#45;&gt;Node12</title>
<g id="a_edge21_Node000021_Node000012"><a xlink:title=" ">
<path fill="none" stroke="#63b8ff" d="M1018.71,-56.73C1015.44,-56.11 1012.16,-55.52 1009,-55 887.66,-35.1 742.4,-20.06 676.98,-13.76"/>
<polygon fill="#63b8ff" stroke="#63b8ff" points="677.51,-10.29 667.22,-12.82 676.84,-17.26 677.51,-10.29"/>
</a>
</g>
</g>
<!-- Node23 -->
<g id="Node000023" class="node">
<title>Node23</title>
<g id="a_Node000023"><a xlink:href="../../d5/d9e/ogl__shading_8h.html" target="_top" xlink:title="Variable declarations related to GLSL programs &#160;&#160;Data structure declarations related to GLSL programs...">
<polygon fill="white" stroke="#666666" points="1623.5,-19 1546.5,-19 1546.5,0 1623.5,0 1623.5,-19"/>
<text text-anchor="middle" x="1585" y="-7" font-family="Helvetica,sans-Serif" font-size="10.00">ogl_shading.h</text>
</a>
</g>
</g>
<!-- Node22&#45;&gt;Node23 -->
<g id="edge24_Node000022_Node000023" class="edge">
<title>Node22&#45;&gt;Node23</title>
<g id="a_edge24_Node000022_Node000023"><a xlink:title=" ">
<path fill="none" stroke="#63b8ff" d="M1585,-54.75C1585,-48.27 1585,-39.16 1585,-30.9"/>
<polygon fill="#63b8ff" stroke="#63b8ff" points="1588.5,-30.96 1585,-20.96 1581.5,-30.96 1588.5,-30.96"/>
</a>
</g>
</g>
<!-- Node30 -->
<g id="Node000030" class="node">
<title>Node30</title>
<g id="a_Node000030"><a xlink:title=" ">
<polygon fill="#e0e0e0" stroke="#999999" points="2077,-74 1979,-74 1979,-55 2077,-55 2077,-74"/>
<text text-anchor="middle" x="2028" y="-62" font-family="Helvetica,sans-Serif" font-size="10.00">libavutil/avassert.h</text>
</a>
</g>
</g>
<!-- Node29&#45;&gt;Node30 -->
<g id="edge31_Node000029_Node000030" class="edge">
<title>Node29&#45;&gt;Node30</title>
<g id="a_edge31_Node000029_Node000030"><a xlink:title=" ">
<path fill="none" stroke="#63b8ff" d="M1926.7,-109.51C1946,-101.12 1975.06,-88.5 1997.11,-78.92"/>
<polygon fill="#63b8ff" stroke="#63b8ff" points="1998.44,-82.16 2006.22,-74.96 1995.66,-75.74 1998.44,-82.16"/>
</a>
</g>
</g>
<!-- Node31 -->
<g id="Node000031" class="node">
<title>Node31</title>
<g id="a_Node000031"><a xlink:title=" ">
<polygon fill="#e0e0e0" stroke="#999999" points="2206.5,-74 2095.5,-74 2095.5,-55 2206.5,-55 2206.5,-74"/>
<text text-anchor="middle" x="2151" y="-62" font-family="Helvetica,sans-Serif" font-size="10.00">libavcodec/avcodec.h</text>
</a>
</g>
</g>
<!-- Node29&#45;&gt;Node31 -->
<g id="edge32_Node000029_Node000031" class="edge">
<title>Node29&#45;&gt;Node31</title>
<g id="a_edge32_Node000029_Node000031"><a xlink:title=" ">
<path fill="none" stroke="#63b8ff" d="M1931.76,-112.93C1971.16,-104.4 2047.24,-87.95 2098.57,-76.84"/>
<polygon fill="#63b8ff" stroke="#63b8ff" points="2099.26,-80.27 2108.29,-74.74 2097.78,-73.43 2099.26,-80.27"/>
</a>
</g>
</g>
<!-- Node32 -->
<g id="Node000032" class="node">
<title>Node32</title>
<g id="a_Node000032"><a xlink:title=" ">
<polygon fill="#e0e0e0" stroke="#999999" points="2309,-74 2225,-74 2225,-55 2309,-55 2309,-74"/>
<text text-anchor="middle" x="2267" y="-62" font-family="Helvetica,sans-Serif" font-size="10.00">libavutil/avutil.h</text>
</a>
</g>
</g>
<!-- Node29&#45;&gt;Node32 -->
<g id="edge33_Node000029_Node000032" class="edge">
<title>Node29&#45;&gt;Node32</title>
<g id="a_edge33_Node000029_Node000032"><a xlink:title=" ">
<path fill="none" stroke="#63b8ff" d="M1931.75,-115C1983.21,-107.97 2102.66,-91.44 2213.65,-74.33"/>
<polygon fill="#63b8ff" stroke="#63b8ff" points="2213.87,-77.84 2223.22,-72.86 2212.8,-70.93 2213.87,-77.84"/>
</a>
</g>
</g>
<!-- Node33 -->
<g id="Node000033" class="node">
<title>Node33</title>
<g id="a_Node000033"><a xlink:title=" ">
<polygon fill="#e0e0e0" stroke="#999999" points="1741,-74 1627,-74 1627,-55 1741,-55 1741,-74"/>
<text text-anchor="middle" x="1684" y="-62" font-family="Helvetica,sans-Serif" font-size="10.00">libavformat/avformat.h</text>
</a>
</g>
</g>
<!-- Node29&#45;&gt;Node33 -->
<g id="edge34_Node000029_Node000033" class="edge">
<title>Node29&#45;&gt;Node33</title>
<g id="a_edge34_Node000029_Node000033"><a xlink:title=" ">
<path fill="none" stroke="#63b8ff" d="M1880.1,-112.32C1844.04,-103.71 1778.03,-87.95 1732.63,-77.11"/>
<polygon fill="#63b8ff" stroke="#63b8ff" points="1733.57,-73.74 1723.04,-74.82 1731.95,-80.55 1733.57,-73.74"/>
</a>
</g>
</g>
<!-- Node34 -->
<g id="Node000034" class="node">
<title>Node34</title>
<g id="a_Node000034"><a xlink:title=" ">
<polygon fill="#e0e0e0" stroke="#999999" points="1833,-74 1759,-74 1759,-55 1833,-55 1833,-74"/>
<text text-anchor="middle" x="1796" y="-62" font-family="Helvetica,sans-Serif" font-size="10.00">libavutil/opt.h</text>
</a>
</g>
</g>
<!-- Node29&#45;&gt;Node34 -->
<g id="edge35_Node000029_Node000034" class="edge">
<title>Node29&#45;&gt;Node34</title>
<g id="a_edge35_Node000029_Node000034"><a xlink:title=" ">
<path fill="none" stroke="#63b8ff" d="M1887.34,-109.51C1870.17,-101.24 1844.45,-88.84 1824.67,-79.31"/>
<polygon fill="#63b8ff" stroke="#63b8ff" points="1826.28,-76.2 1815.75,-75.01 1823.24,-82.51 1826.28,-76.2"/>
</a>
</g>
</g>
<!-- Node35 -->
<g id="Node000035" class="node">
<title>Node35</title>
<g id="a_Node000035"><a xlink:title=" ">
<polygon fill="#e0e0e0" stroke="#999999" points="1961,-74 1851,-74 1851,-55 1961,-55 1961,-74"/>
<text text-anchor="middle" x="1906" y="-62" font-family="Helvetica,sans-Serif" font-size="10.00">libswscale/swscale.h</text>
</a>
</g>
</g>
<!-- Node29&#45;&gt;Node35 -->
<g id="edge36_Node000029_Node000035" class="edge">
<title>Node29&#45;&gt;Node35</title>
<g id="a_edge36_Node000029_Node000035"><a xlink:title=" ">
<path fill="none" stroke="#63b8ff" d="M1906,-109.75C1906,-103.27 1906,-94.16 1906,-85.9"/>
<polygon fill="#63b8ff" stroke="#63b8ff" points="1909.5,-85.96 1906,-75.96 1902.5,-85.96 1909.5,-85.96"/>
</a>
</g>
</g>
</g>
</svg>

<g id="navigator" transform="translate(0 0)" fill="#404254">
  <rect fill="#f2f5e9" fill-opacity="0.5" stroke="#606060" stroke-width=".5" x="0" y="0" width="60" height="60"/>
  <use id="zoomplus" xlink:href="#zoomPlus" x="17" y="9" onmousedown="handleZoom(evt,'in')"/>
  <use id="zoomminus" xlink:href="#zoomMin" x="42" y="9" onmousedown="handleZoom(evt,'out')"/>
  <use id="reset" xlink:href="#resetDef" x="30" y="36" onmousedown="handleReset()"/>
   <use id="arrowup" xlink:href="#arrowUp" x="0" y="0" onmousedown="handlePan(0,-1)"/>
  <use id="arrowright" xlink:href="#arrowRight" x="0" y="0" onmousedown="handlePan(1,0)"/>
  <use id="arrowdown" xlink:href="#arrowDown" x="0" y="0" onmousedown="handlePan(0,1)"/>
  <use id="arrowleft" xlink:href="#arrowLeft" x="0" y="0" onmousedown="handlePan(-1,0)"/>
</g>
<svg viewBox="0 0 15 15" width="100%" height="30px" preserveAspectRatio="xMaxYMin meet">
 <g id="arrow_out" transform="scale(0.3 0.3)">
  <a xlink:href="movie_8c__incl_org.svg" target="_base">
   <rect id="button" ry="5" rx="5" y="6" x="6" height="38" width="38"
        fill="#f2f5e9" fill-opacity="0.5" stroke="#606060" stroke-width="1.0"/>
   <path id="arrow"
     d="M 11.500037,31.436501 C 11.940474,20.09759 22.043105,11.32322 32.158766,21.979434 L 37.068811,17.246167 C 37.068811,17.246167 37.088388,32 37.088388,32 L 22.160133,31.978069 C 22.160133,31.978069 26.997745,27.140456 26.997745,27.140456 C 18.528582,18.264221 13.291696,25.230495 11.500037,31.436501 z"
     style="fill:#404040;"/>
  </a>
 </g>
</svg>

<style type='text/css'>
<![CDATA[
[data-mouse-over-selected='false'] { opacity: 0.7; }
[data-mouse-over-selected='true']  { opacity: 1.0; }
]]>
</style>
<script type="application/ecmascript"><![CDATA[
document.addEventListener('DOMContentLoaded', (event) => {
  highlightEdges();
  highlightAdjacentNodes();
});
]]></script>
</svg>
