<?xml version="1.0" encoding="UTF-8" standalone="no"?>
<!DOCTYPE svg PUBLIC "-//W3C//DTD SVG 1.1//EN"
 "http://www.w3.org/Graphics/SVG/1.1/DTD/svg11.dtd">
<!-- Generated by graphviz version 9.0.0 (20230911.1827)
 -->
<!-- Title: opengl/win/initcoord.h Pages: 1 -->
<!--zoomable 152 -->

<svg id="main" version="1.1" xmlns="http://www.w3.org/2000/svg" xmlns:xlink="http://www.w3.org/1999/xlink" xml:space="preserve" onload="init(evt)">
<style type="text/css"><![CDATA[
.node, .edge {opacity: 0.7;}
.node.selected, .edge.selected {opacity: 1;}
.edge:hover path { stroke: red; }
.edge:hover polygon { stroke: red; fill: red; }
]]></style>

<defs>
  <circle id="rim" cx="0" cy="0" r="7"/>
  <circle id="rim2" cx="0" cy="0" r="3.5"/>
  <g id="zoomPlus">
    <use xlink:href="#rim" fill="#404040"><set attributeName="fill" to="#808080" begin="zoomplus.mouseover" end="zoomplus.mouseout"/></use>
    <path d="M-4,0h8M0,-4v8" fill="none" stroke="white" stroke-width="1.5" pointer-events="none"/>
  </g>
  <g id="zoomMin">
    <use xlink:href="#rim" fill="#404040"><set attributeName="fill" to="#808080" begin="zoomminus.mouseover" end="zoomminus.mouseout"/></use>
    <path d="M-4,0h8" fill="none" stroke="white" stroke-width="1.5" pointer-events="none"/>
  </g>
  <g id="arrowUp" transform="translate(30 24)">
    <use xlink:href="#rim"/>
    <path pointer-events="none" fill="none" stroke="white" stroke-width="1.5" d="M0,-3.0v7 M-2.5,-0.5L0,-3.0L2.5,-0.5"/>
  </g>
  <g id="arrowRight" transform="rotate(90) translate(36 -43)">
    <use xlink:href="#rim"/>
    <path pointer-events="none" fill="none" stroke="white" stroke-width="1.5" d="M0,-3.0v7 M-2.5,-0.5L0,-3.0L2.5,-0.5"/>
  </g>
  <g id="arrowDown" transform="rotate(180) translate(-30 -48)">
    <use xlink:href="#rim"/>
    <path pointer-events="none" fill="none" stroke="white" stroke-width="1.5" d="M0,-3.0v7 M-2.5,-0.5L0,-3.0L2.5,-0.5"/>
  </g>
  <g id="arrowLeft" transform="rotate(270) translate(-36 17)">
    <use xlink:href="#rim"/>
    <path pointer-events="none" fill="none" stroke="white" stroke-width="1.5" d="M0,-3.0v7 M-2.5,-0.5L0,-3.0L2.5,-0.5"/>
  </g>
  <g id="resetDef">
    <use xlink:href="#rim2" fill="#404040"><set attributeName="fill" to="#808080" begin="reset.mouseover" end="reset.mouseout"/></use>
  </g>
</defs>
<script type="application/ecmascript">
var viewWidth = 2785;
var viewHeight = 152;
var sectionId = 'dynsection-0';
</script>
<script type="application/ecmascript" xlink:href="../../svg.min.js"/>
<svg id="graph" class="graph">
<g id="viewport">
<title>opengl/win/initcoord.h</title>
<!-- Node1 -->
<g id="Node000001" class="node">
<title>Node1</title>
<g id="a_Node000001"><a xlink:title="Function declarations to handle the atomic coordination data.">
<polygon fill="#999999" stroke="#666666" points="1749.88,-144 1639.38,-144 1639.38,-124 1749.88,-124 1749.88,-144"/>
<text text-anchor="middle" x="1694.62" y="-130.5" font-family="Helvetica,sans-Serif" font-size="10.00">opengl/win/initcoord.h</text>
</a>
</g>
</g>
<!-- Node2 -->
<g id="Node000002" class="node">
<title>Node2</title>
<g id="a_Node000002"><a xlink:href="../../d5/d34/bdcall_8c.html" target="_top" xlink:title="Callbacks for the bond properties calculation dialog.">
<polygon fill="white" stroke="#666666" points="1187.38,-88 1121.88,-88 1121.88,-68 1187.38,-68 1187.38,-88"/>
<text text-anchor="middle" x="1154.62" y="-74.5" font-family="Helvetica,sans-Serif" font-size="10.00">gui/bdcall.c</text>
</a>
</g>
</g>
<!-- Node1&#45;&gt;Node2 -->
<g id="edge1_Node000001_Node000002" class="edge">
<title>Node1&#45;&gt;Node2</title>
<g id="a_edge1_Node000001_Node000002"><a xlink:title=" ">
<path fill="none" stroke="#63b8ff" d="M1627.84,-129.54C1531.98,-123.99 1350.03,-111.28 1196.62,-88 1193.68,-87.55 1190.62,-87.03 1187.57,-86.45"/>
<polygon fill="#63b8ff" stroke="#63b8ff" points="1627.4,-133.02 1637.58,-130.09 1627.8,-126.03 1627.4,-133.02"/>
</a>
</g>
</g>
<!-- Node3 -->
<g id="Node000003" class="node">
<title>Node3</title>
<g id="a_Node000003"><a xlink:href="../../d2/d01/chainscall_8c.html" target="_top" xlink:title="Callbacks for the chains statistics calculation dialog.">
<polygon fill="white" stroke="#666666" points="1289.38,-88 1205.88,-88 1205.88,-68 1289.38,-68 1289.38,-88"/>
<text text-anchor="middle" x="1247.62" y="-74.5" font-family="Helvetica,sans-Serif" font-size="10.00">gui/chainscall.c</text>
</a>
</g>
</g>
<!-- Node1&#45;&gt;Node3 -->
<g id="edge2_Node000001_Node000003" class="edge">
<title>Node1&#45;&gt;Node3</title>
<g id="a_edge2_Node000001_Node000003"><a xlink:title=" ">
<path fill="none" stroke="#63b8ff" d="M1627.85,-126.68C1549,-118.92 1413.99,-104.72 1298.62,-88 1295.69,-87.57 1292.66,-87.11 1289.62,-86.62"/>
<polygon fill="#63b8ff" stroke="#63b8ff" points="1627.27,-130.14 1637.56,-127.63 1627.95,-123.17 1627.27,-130.14"/>
</a>
</g>
</g>
<!-- Node4 -->
<g id="Node000004" class="node">
<title>Node4</title>
<g id="a_Node000004"><a xlink:href="../../d9/dc4/ringscall_8c.html" target="_top" xlink:title="Callbacks for the ring statistics calculation dialog.">
<polygon fill="white" stroke="#666666" points="1383.62,-88 1307.62,-88 1307.62,-68 1383.62,-68 1383.62,-88"/>
<text text-anchor="middle" x="1345.62" y="-74.5" font-family="Helvetica,sans-Serif" font-size="10.00">gui/ringscall.c</text>
</a>
</g>
</g>
<!-- Node1&#45;&gt;Node4 -->
<g id="edge3_Node000001_Node000004" class="edge">
<title>Node1&#45;&gt;Node4</title>
<g id="a_edge3_Node000001_Node000004"><a xlink:title=" ">
<path fill="none" stroke="#63b8ff" d="M1628.07,-123.89C1566.8,-115.31 1473.43,-101.75 1392.62,-88 1389.84,-87.53 1386.97,-87.02 1384.08,-86.5"/>
<polygon fill="#63b8ff" stroke="#63b8ff" points="1627.24,-127.31 1637.63,-125.22 1628.21,-120.37 1627.24,-127.31"/>
</a>
</g>
</g>
<!-- Node5 -->
<g id="Node000005" class="node">
<title>Node5</title>
<g id="a_Node000005"><a xlink:href="../../d5/d9c/atom__edit_8h.html" target="_top" xlink:title="Function declarations for the mode edition window.">
<polygon fill="white" stroke="#666666" points="1519.25,-88 1402,-88 1402,-68 1519.25,-68 1519.25,-88"/>
<text text-anchor="middle" x="1460.62" y="-74.5" font-family="Helvetica,sans-Serif" font-size="10.00">opengl/edit/atom_edit.h</text>
</a>
</g>
</g>
<!-- Node1&#45;&gt;Node5 -->
<g id="edge4_Node000001_Node000005" class="edge">
<title>Node1&#45;&gt;Node5</title>
<g id="a_edge4_Node000001_Node000005"><a xlink:title=" ">
<path fill="none" stroke="#63b8ff" d="M1642.63,-121C1600.11,-111.19 1540.81,-97.51 1501.61,-88.46"/>
<polygon fill="#63b8ff" stroke="#63b8ff" points="1641.59,-124.35 1652.12,-123.19 1643.17,-117.53 1641.59,-124.35"/>
</a>
</g>
</g>
<!-- Node27 -->
<g id="Node000027" class="node">
<title>Node27</title>
<g id="a_Node000027"><a xlink:href="../../dc/d21/glview_8c.html" target="_top" xlink:title="Callbacks of the OpenGL window.">
<polygon fill="white" stroke="#666666" points="1620,-88 1537.25,-88 1537.25,-68 1620,-68 1620,-88"/>
<text text-anchor="middle" x="1578.62" y="-74.5" font-family="Helvetica,sans-Serif" font-size="10.00">opengl/glview.c</text>
</a>
</g>
</g>
<!-- Node1&#45;&gt;Node27 -->
<g id="edge26_Node000001_Node000027" class="edge">
<title>Node1&#45;&gt;Node27</title>
<g id="a_edge26_Node000001_Node000027"><a xlink:title=" ">
<path fill="none" stroke="#63b8ff" d="M1664,-118.75C1643.46,-109.18 1616.98,-96.85 1598.99,-88.48"/>
<polygon fill="#63b8ff" stroke="#63b8ff" points="1662.5,-121.91 1673.05,-122.96 1665.46,-115.56 1662.5,-121.91"/>
</a>
</g>
</g>
<!-- Node28 -->
<g id="Node000028" class="node">
<title>Node28</title>
<g id="a_Node000028"><a xlink:href="../../d7/dc8/glwindow_8c.html" target="_top" xlink:title="Functions to create a project OpenGL window.">
<polygon fill="white" stroke="#666666" points="1751.38,-88 1637.88,-88 1637.88,-68 1751.38,-68 1751.38,-88"/>
<text text-anchor="middle" x="1694.62" y="-74.5" font-family="Helvetica,sans-Serif" font-size="10.00">opengl/win/glwindow.c</text>
</a>
</g>
</g>
<!-- Node1&#45;&gt;Node28 -->
<g id="edge27_Node000001_Node000028" class="edge">
<title>Node1&#45;&gt;Node28</title>
<g id="a_edge27_Node000001_Node000028"><a xlink:title=" ">
<path fill="none" stroke="#63b8ff" d="M1694.62,-112.13C1694.62,-103.9 1694.62,-94.85 1694.62,-88.3"/>
<polygon fill="#63b8ff" stroke="#63b8ff" points="1691.13,-112.08 1694.63,-122.08 1698.13,-112.08 1691.13,-112.08"/>
</a>
</g>
</g>
<!-- Node29 -->
<g id="Node000029" class="node">
<title>Node29</title>
<g id="a_Node000029"><a xlink:href="../../d2/def/initmol_8c.html" target="_top" xlink:title="Functions to retrieve fragments data from Fortran90 &#160;&#160;Functions to retrieve molecules data from Fortr...">
<polygon fill="white" stroke="#666666" points="1871.75,-88 1769.5,-88 1769.5,-68 1871.75,-68 1871.75,-88"/>
<text text-anchor="middle" x="1820.62" y="-74.5" font-family="Helvetica,sans-Serif" font-size="10.00">opengl/win/initmol.c</text>
</a>
</g>
</g>
<!-- Node1&#45;&gt;Node29 -->
<g id="edge28_Node000001_Node000029" class="edge">
<title>Node1&#45;&gt;Node29</title>
<g id="a_edge28_Node000001_Node000029"><a xlink:title=" ">
<path fill="none" stroke="#63b8ff" d="M1726.96,-119.14C1749.4,-109.52 1778.7,-96.97 1798.51,-88.48"/>
<polygon fill="#63b8ff" stroke="#63b8ff" points="1725.78,-115.84 1717.96,-123 1728.53,-122.28 1725.78,-115.84"/>
</a>
</g>
</g>
<!-- Node30 -->
<g id="Node000030" class="node">
<title>Node30</title>
<g id="a_Node000030"><a xlink:href="../../d5/dbe/menu__bar_8c.html" target="_top" xlink:title="Functions to create the menu bar of the OpenGL window &#160;&#160;Functions to create the menu items for the me...">
<polygon fill="white" stroke="#666666" points="2005.88,-88 1889.38,-88 1889.38,-68 2005.88,-68 2005.88,-88"/>
<text text-anchor="middle" x="1947.62" y="-74.5" font-family="Helvetica,sans-Serif" font-size="10.00">opengl/win/menu_bar.c</text>
</a>
</g>
</g>
<!-- Node1&#45;&gt;Node30 -->
<g id="edge29_Node000001_Node000030" class="edge">
<title>Node1&#45;&gt;Node30</title>
<g id="a_edge29_Node000001_Node000030"><a xlink:title=" ">
<path fill="none" stroke="#63b8ff" d="M1749.97,-121.19C1796,-111.36 1860.65,-97.56 1903.32,-88.46"/>
<polygon fill="#63b8ff" stroke="#63b8ff" points="1749.51,-117.71 1740.46,-123.22 1750.97,-124.55 1749.51,-117.71"/>
</a>
</g>
</g>
<!-- Node31 -->
<g id="Node000031" class="node">
<title>Node31</title>
<g id="a_Node000031"><a xlink:href="../../d4/db6/read__mol_8c.html" target="_top" xlink:title="Functions to read molecule(s) data in the atomes project file format.">
<polygon fill="white" stroke="#666666" points="2119.75,-88 2023.5,-88 2023.5,-68 2119.75,-68 2119.75,-88"/>
<text text-anchor="middle" x="2071.62" y="-74.5" font-family="Helvetica,sans-Serif" font-size="10.00">project/read_mol.c</text>
</a>
</g>
</g>
<!-- Node1&#45;&gt;Node31 -->
<g id="edge30_Node000001_Node000031" class="edge">
<title>Node1&#45;&gt;Node31</title>
<g id="a_edge30_Node000001_Node000031"><a xlink:title=" ">
<path fill="none" stroke="#63b8ff" d="M1761.43,-123.94C1826.2,-115.08 1927.21,-101.05 2014.62,-88 2017.4,-87.59 2020.25,-87.15 2023.12,-86.72"/>
<polygon fill="#63b8ff" stroke="#63b8ff" points="1761.1,-120.45 1751.66,-125.27 1762.04,-127.39 1761.1,-120.45"/>
</a>
</g>
</g>
<!-- Node32 -->
<g id="Node000032" class="node">
<title>Node32</title>
<g id="a_Node000032"><a xlink:href="../../db/dd4/read__opengl_8c.html" target="_top" xlink:title="Functions to read the OpenGL window data in the atomes project file format.">
<polygon fill="white" stroke="#666666" points="2247.12,-88 2138.12,-88 2138.12,-68 2247.12,-68 2247.12,-88"/>
<text text-anchor="middle" x="2192.62" y="-74.5" font-family="Helvetica,sans-Serif" font-size="10.00">project/read_opengl.c</text>
</a>
</g>
</g>
<!-- Node1&#45;&gt;Node32 -->
<g id="edge31_Node000001_Node000032" class="edge">
<title>Node1&#45;&gt;Node32</title>
<g id="a_edge31_Node000001_Node000032"><a xlink:title=" ">
<path fill="none" stroke="#63b8ff" d="M1761.52,-126.83C1846.84,-118.78 1998.87,-103.85 2128.62,-88 2131.63,-87.63 2134.72,-87.24 2137.83,-86.84"/>
<polygon fill="#63b8ff" stroke="#63b8ff" points="1761.33,-123.33 1751.7,-127.75 1761.98,-130.3 1761.33,-123.33"/>
</a>
</g>
</g>
<!-- Node33 -->
<g id="Node000033" class="node">
<title>Node33</title>
<g id="a_Node000033"><a xlink:href="../../dd/d70/save__bond_8c.html" target="_top" xlink:title="Functions to save bonding information in the atomes project file format.">
<polygon fill="white" stroke="#666666" points="2368.5,-88 2264.75,-88 2264.75,-68 2368.5,-68 2368.5,-88"/>
<text text-anchor="middle" x="2316.62" y="-74.5" font-family="Helvetica,sans-Serif" font-size="10.00">project/save_bond.c</text>
</a>
</g>
</g>
<!-- Node1&#45;&gt;Node33 -->
<g id="edge32_Node000001_Node000033" class="edge">
<title>Node1&#45;&gt;Node33</title>
<g id="a_edge32_Node000001_Node000033"><a xlink:title=" ">
<path fill="none" stroke="#63b8ff" d="M1761.6,-129.14C1867.09,-122.71 2078.31,-108.49 2256.62,-88 2259.14,-87.71 2261.7,-87.4 2264.3,-87.07"/>
<polygon fill="#63b8ff" stroke="#63b8ff" points="1761.47,-125.64 1751.7,-129.73 1761.89,-132.63 1761.47,-125.64"/>
</a>
</g>
</g>
<!-- Node6 -->
<g id="Node000006" class="node">
<title>Node6</title>
<g id="a_Node000006"><a xlink:href="../../d3/d3a/callbacks_8c.html" target="_top" xlink:title="General callbacks &#160;&#160;Functions to open and close files.">
<polygon fill="white" stroke="#666666" points="81.25,-26 0,-26 0,-6 81.25,-6 81.25,-26"/>
<text text-anchor="middle" x="40.62" y="-12.5" font-family="Helvetica,sans-Serif" font-size="10.00">gui/callbacks.c</text>
</a>
</g>
</g>
<!-- Node5&#45;&gt;Node6 -->
<g id="edge5_Node000005_Node000006" class="edge">
<title>Node5&#45;&gt;Node6</title>
<g id="a_edge5_Node000005_Node000006"><a xlink:title=" ">
<path fill="none" stroke="#63b8ff" d="M1390.6,-67.97C1086.4,-45.77 372.9,-77.42 90.62,-32 83.02,-30.78 74.95,-28.71 67.57,-26.5"/>
<polygon fill="#63b8ff" stroke="#63b8ff" points="1389.95,-71.43 1400.18,-68.7 1390.48,-64.45 1389.95,-71.43"/>
</a>
</g>
</g>
<!-- Node7 -->
<g id="Node000007" class="node">
<title>Node7</title>
<g id="a_Node000007"><a xlink:href="../../d8/d15/atom__action_8c.html" target="_top" xlink:title="Functions to apply the edition actions to the model.">
<polygon fill="white" stroke="#666666" points="227.5,-26 99.75,-26 99.75,-6 227.5,-6 227.5,-26"/>
<text text-anchor="middle" x="163.62" y="-12.5" font-family="Helvetica,sans-Serif" font-size="10.00">opengl/edit/atom_action.c</text>
</a>
</g>
</g>
<!-- Node5&#45;&gt;Node7 -->
<g id="edge6_Node000005_Node000007" class="edge">
<title>Node5&#45;&gt;Node7</title>
<g id="a_edge6_Node000005_Node000007"><a xlink:title=" ">
<path fill="none" stroke="#63b8ff" d="M1390.3,-67.91C878.33,-27.18 743.4,-91.51 236.62,-32 225.83,-30.73 214.26,-28.68 203.59,-26.5"/>
<polygon fill="#63b8ff" stroke="#63b8ff" points="1389.93,-71.39 1400.18,-68.71 1390.5,-64.42 1389.93,-71.39"/>
</a>
</g>
</g>
<!-- Node8 -->
<g id="Node000008" class="node">
<title>Node8</title>
<g id="a_Node000008"><a xlink:href="../../d9/dbe/atom__coord_8c.html" target="_top" xlink:title="Functions to correct the coordination menus and the corresponding data pointers after edition.">
<polygon fill="white" stroke="#666666" points="371.38,-26 245.88,-26 245.88,-6 371.38,-6 371.38,-26"/>
<text text-anchor="middle" x="308.62" y="-12.5" font-family="Helvetica,sans-Serif" font-size="10.00">opengl/edit/atom_coord.c</text>
</a>
</g>
</g>
<!-- Node5&#45;&gt;Node8 -->
<g id="edge7_Node000005_Node000008" class="edge">
<title>Node5&#45;&gt;Node8</title>
<g id="a_edge7_Node000005_Node000008"><a xlink:title=" ">
<path fill="none" stroke="#63b8ff" d="M1390.36,-67.91C941.73,-31.33 823.08,-86.31 379.62,-32 369.12,-30.71 357.87,-28.66 347.48,-26.47"/>
<polygon fill="#63b8ff" stroke="#63b8ff" points="1389.93,-71.39 1400.18,-68.72 1390.5,-64.41 1389.93,-71.39"/>
</a>
</g>
</g>
<!-- Node9 -->
<g id="Node000009" class="node">
<title>Node9</title>
<g id="a_Node000009"><a xlink:href="../../dc/d6c/atom__edit_8c.html" target="_top" xlink:title="Functions to create the model edition window.">
<polygon fill="white" stroke="#666666" points="506.25,-26 389,-26 389,-6 506.25,-6 506.25,-26"/>
<text text-anchor="middle" x="447.62" y="-12.5" font-family="Helvetica,sans-Serif" font-size="10.00">opengl/edit/atom_edit.c</text>
</a>
</g>
</g>
<!-- Node5&#45;&gt;Node9 -->
<g id="edge8_Node000005_Node000009" class="edge">
<title>Node5&#45;&gt;Node9</title>
<g id="a_edge8_Node000005_Node000009"><a xlink:title=" ">
<path fill="none" stroke="#63b8ff" d="M1390.4,-67.9C1001.57,-35.26 898.16,-82.38 514.62,-32 504.7,-30.7 494.07,-28.63 484.27,-26.45"/>
<polygon fill="#63b8ff" stroke="#63b8ff" points="1389.92,-71.38 1400.18,-68.74 1390.51,-64.4 1389.92,-71.38"/>
</a>
</g>
</g>
<!-- Node10 -->
<g id="Node000010" class="node">
<title>Node10</title>
<g id="a_Node000010"><a xlink:href="../../d2/d4a/atom__geo_8c.html" target="_top" xlink:title="Functions to check for the appropriate atomic coordinations.">
<polygon fill="white" stroke="#666666" points="641.25,-26 524,-26 524,-6 641.25,-6 641.25,-26"/>
<text text-anchor="middle" x="582.62" y="-12.5" font-family="Helvetica,sans-Serif" font-size="10.00">opengl/edit/atom_geo.c</text>
</a>
</g>
</g>
<!-- Node5&#45;&gt;Node10 -->
<g id="edge9_Node000005_Node000010" class="edge">
<title>Node5&#45;&gt;Node10</title>
<g id="a_edge9_Node000005_Node000010"><a xlink:title=" ">
<path fill="none" stroke="#63b8ff" d="M1390.38,-67.89C1061.39,-39.13 973.58,-75.78 649.62,-32 639.82,-30.67 629.33,-28.63 619.63,-26.48"/>
<polygon fill="#63b8ff" stroke="#63b8ff" points="1389.91,-71.36 1400.18,-68.76 1390.53,-64.39 1389.91,-71.36"/>
</a>
</g>
</g>
<!-- Node11 -->
<g id="Node000011" class="node">
<title>Node11</title>
<g id="a_Node000011"><a xlink:href="../../dd/d0b/atom__insert_8c.html" target="_top" xlink:title="Functions to insert bond(s) in a project.">
<polygon fill="white" stroke="#666666" points="784.38,-26 658.88,-26 658.88,-6 784.38,-6 784.38,-26"/>
<text text-anchor="middle" x="721.62" y="-12.5" font-family="Helvetica,sans-Serif" font-size="10.00">opengl/edit/atom_insert.c</text>
</a>
</g>
</g>
<!-- Node5&#45;&gt;Node11 -->
<g id="edge10_Node000005_Node000011" class="edge">
<title>Node5&#45;&gt;Node11</title>
<g id="a_edge10_Node000005_Node000011"><a xlink:title=" ">
<path fill="none" stroke="#63b8ff" d="M1390.54,-67.88C1125.22,-43.15 1054.37,-66.81 793.62,-32 783.25,-30.61 772.13,-28.58 761.81,-26.45"/>
<polygon fill="#63b8ff" stroke="#63b8ff" points="1389.89,-71.33 1400.18,-68.79 1390.55,-64.37 1389.89,-71.33"/>
</a>
</g>
</g>
<!-- Node12 -->
<g id="Node000012" class="node">
<title>Node12</title>
<g id="a_Node000012"><a xlink:href="../../d7/d27/atom__move_8c.html" target="_top" xlink:title="Functions to move atom(s) and group of atom(s) &#160;&#160;Functions to move randomly atom(s) and group of atom...">
<polygon fill="white" stroke="#666666" points="928.38,-26 802.88,-26 802.88,-6 928.38,-6 928.38,-26"/>
<text text-anchor="middle" x="865.62" y="-12.5" font-family="Helvetica,sans-Serif" font-size="10.00">opengl/edit/atom_move.c</text>
</a>
</g>
</g>
<!-- Node5&#45;&gt;Node12 -->
<g id="edge11_Node000005_Node000012" class="edge">
<title>Node5&#45;&gt;Node12</title>
<g id="a_edge11_Node000005_Node000012"><a xlink:title=" ">
<path fill="none" stroke="#63b8ff" d="M1390.4,-67.83C1188.95,-47.18 1134.8,-60.22 937.62,-32 927.51,-30.55 916.69,-28.54 906.59,-26.47"/>
<polygon fill="#63b8ff" stroke="#63b8ff" points="1389.86,-71.29 1400.17,-68.85 1390.59,-64.33 1389.86,-71.29"/>
</a>
</g>
</g>
<!-- Node13 -->
<g id="Node000013" class="node">
<title>Node13</title>
<g id="a_Node000013"><a xlink:href="../../d7/d6a/atom__object_8c.html" target="_top" xlink:title="Functions to create atomic objects.">
<polygon fill="white" stroke="#666666" points="1074.5,-26 946.75,-26 946.75,-6 1074.5,-6 1074.5,-26"/>
<text text-anchor="middle" x="1010.62" y="-12.5" font-family="Helvetica,sans-Serif" font-size="10.00">opengl/edit/atom_object.c</text>
</a>
</g>
</g>
<!-- Node5&#45;&gt;Node13 -->
<g id="edge12_Node000005_Node000013" class="edge">
<title>Node5&#45;&gt;Node13</title>
<g id="a_edge12_Node000005_Node000013"><a xlink:title=" ">
<path fill="none" stroke="#63b8ff" d="M1390.32,-67.74C1253.49,-51.07 1216.54,-53.36 1083.62,-32 1073.79,-30.42 1063.27,-28.43 1053.36,-26.43"/>
<polygon fill="#63b8ff" stroke="#63b8ff" points="1389.81,-71.2 1400.16,-68.95 1390.66,-64.26 1389.81,-71.2"/>
</a>
</g>
</g>
<!-- Node14 -->
<g id="Node000014" class="node">
<title>Node14</title>
<g id="a_Node000014"><a xlink:href="../../d3/ded/atom__remove_8c.html" target="_top" xlink:title="Functions to remove bond(s) from a project &#160;&#160;Function to prepare the passivation (removal followed by...">
<polygon fill="white" stroke="#666666" points="1226.5,-26 1092.75,-26 1092.75,-6 1226.5,-6 1226.5,-26"/>
<text text-anchor="middle" x="1159.62" y="-12.5" font-family="Helvetica,sans-Serif" font-size="10.00">opengl/edit/atom_remove.c</text>
</a>
</g>
</g>
<!-- Node5&#45;&gt;Node14 -->
<g id="edge13_Node000005_Node000014" class="edge">
<title>Node5&#45;&gt;Node14</title>
<g id="a_edge13_Node000005_Node000014"><a xlink:title=" ">
<path fill="none" stroke="#63b8ff" d="M1402.29,-65.37C1345.45,-54.04 1260.07,-37.02 1207.21,-26.48"/>
<polygon fill="#63b8ff" stroke="#63b8ff" points="1401.29,-68.74 1411.78,-67.26 1402.66,-61.88 1401.29,-68.74"/>
</a>
</g>
</g>
<!-- Node15 -->
<g id="Node000015" class="node">
<title>Node15</title>
<g id="a_Node000015"><a xlink:href="../../d9/d33/atom__search_8c.html" target="_top" xlink:title="Functions to prepare the model edition &#39;search&#39; tabs and the associated widgets.">
<polygon fill="white" stroke="#666666" points="1375,-26 1244.25,-26 1244.25,-6 1375,-6 1375,-26"/>
<text text-anchor="middle" x="1309.62" y="-12.5" font-family="Helvetica,sans-Serif" font-size="10.00">opengl/edit/atom_search.c</text>
</a>
</g>
</g>
<!-- Node5&#45;&gt;Node15 -->
<g id="edge14_Node000005_Node000015" class="edge">
<title>Node5&#45;&gt;Node15</title>
<g id="a_edge14_Node000005_Node000015"><a xlink:title=" ">
<path fill="none" stroke="#63b8ff" d="M1426.34,-63.38C1397.83,-52.05 1358.03,-36.23 1333.05,-26.31"/>
<polygon fill="#63b8ff" stroke="#63b8ff" points="1425.04,-66.63 1435.62,-67.07 1427.62,-60.12 1425.04,-66.63"/>
</a>
</g>
</g>
<!-- Node16 -->
<g id="Node000016" class="node">
<title>Node16</title>
<g id="a_Node000016"><a xlink:href="../../dd/d37/atom__species_8c.html" target="_top" xlink:title="Functions to look for new chemical species and modify the chemical information accordingly.">
<polygon fill="white" stroke="#666666" points="1528.25,-26 1393,-26 1393,-6 1528.25,-6 1528.25,-26"/>
<text text-anchor="middle" x="1460.62" y="-12.5" font-family="Helvetica,sans-Serif" font-size="10.00">opengl/edit/atom_species.c</text>
</a>
</g>
</g>
<!-- Node5&#45;&gt;Node16 -->
<g id="edge15_Node000005_Node000016" class="edge">
<title>Node5&#45;&gt;Node16</title>
<g id="a_edge15_Node000005_Node000016"><a xlink:title=" ">
<path fill="none" stroke="#63b8ff" d="M1460.62,-56.25C1460.62,-45.97 1460.62,-34.09 1460.62,-26.11"/>
<polygon fill="#63b8ff" stroke="#63b8ff" points="1457.13,-56.11 1460.63,-66.11 1464.13,-56.11 1457.13,-56.11"/>
</a>
</g>
</g>
<!-- Node17 -->
<g id="Node000017" class="node">
<title>Node17</title>
<g id="a_Node000017"><a xlink:href="../../d0/dd3/cbuild__action_8c.html" target="_top" xlink:title="Functions to build a crystal using space group, crystallographic position(s) and object(s) to insert.">
<polygon fill="white" stroke="#666666" points="1638.5,-32 1546.75,-32 1546.75,0 1638.5,0 1638.5,-32"/>
<text text-anchor="start" x="1554.75" y="-18.5" font-family="Helvetica,sans-Serif" font-size="10.00">opengl/edit/cbuild</text>
<text text-anchor="middle" x="1592.62" y="-6.5" font-family="Helvetica,sans-Serif" font-size="10.00">_action.c</text>
</a>
</g>
</g>
<!-- Node5&#45;&gt;Node17 -->
<g id="edge16_Node000005_Node000017" class="edge">
<title>Node5&#45;&gt;Node17</title>
<g id="a_edge16_Node000005_Node000017"><a xlink:title=" ">
<path fill="none" stroke="#63b8ff" d="M1491.71,-62.87C1511.78,-53.75 1537.91,-41.87 1558.55,-32.49"/>
<polygon fill="#63b8ff" stroke="#63b8ff" points="1490.28,-59.67 1482.63,-67 1493.18,-66.05 1490.28,-59.67"/>
</a>
</g>
</g>
<!-- Node18 -->
<g id="Node000018" class="node">
<title>Node18</title>
<g id="a_Node000018"><a xlink:href="../../d2/d17/cell__cut_8c.html" target="_top" xlink:title="Functions to create the &#39;slab cutting&#39; tab of the cell edition window.">
<polygon fill="white" stroke="#666666" points="1764.75,-26 1656.5,-26 1656.5,-6 1764.75,-6 1764.75,-26"/>
<text text-anchor="middle" x="1710.62" y="-12.5" font-family="Helvetica,sans-Serif" font-size="10.00">opengl/edit/cell_cut.c</text>
</a>
</g>
</g>
<!-- Node5&#45;&gt;Node18 -->
<g id="edge17_Node000005_Node000018" class="edge">
<title>Node5&#45;&gt;Node18</title>
<g id="a_edge17_Node000005_Node000018"><a xlink:title=" ">
<path fill="none" stroke="#63b8ff" d="M1511.16,-64.87C1558.35,-53.55 1627.84,-36.87 1671.1,-26.48"/>
<polygon fill="#63b8ff" stroke="#63b8ff" points="1510.34,-61.47 1501.43,-67.21 1511.97,-68.28 1510.34,-61.47"/>
</a>
</g>
</g>
<!-- Node19 -->
<g id="Node000019" class="node">
<title>Node19</title>
<g id="a_Node000019"><a xlink:href="../../d8/d1c/cell__super_8c.html" target="_top" xlink:title="Functions to create a super&#45;cell using the extra cell(s)">
<polygon fill="white" stroke="#666666" points="1902,-26 1783.25,-26 1783.25,-6 1902,-6 1902,-26"/>
<text text-anchor="middle" x="1842.62" y="-12.5" font-family="Helvetica,sans-Serif" font-size="10.00">opengl/edit/cell_super.c</text>
</a>
</g>
</g>
<!-- Node5&#45;&gt;Node19 -->
<g id="edge18_Node000005_Node000019" class="edge">
<title>Node5&#45;&gt;Node19</title>
<g id="a_edge18_Node000005_Node000019"><a xlink:title=" ">
<path fill="none" stroke="#63b8ff" d="M1530.74,-67.51C1608.33,-56.91 1728.37,-40.16 1773.62,-32 1782.67,-30.37 1792.34,-28.41 1801.49,-26.44"/>
<polygon fill="#63b8ff" stroke="#63b8ff" points="1530.55,-64.01 1521.12,-68.83 1531.5,-70.94 1530.55,-64.01"/>
</a>
</g>
</g>
<!-- Node20 -->
<g id="Node000020" class="node">
<title>Node20</title>
<g id="a_Node000020"><a xlink:href="../../dc/d50/selection_8c.html" target="_top" xlink:title="Functions handling the atom and bond selection process in the OpenGL window.">
<polygon fill="white" stroke="#666666" points="2015,-26 1920.25,-26 1920.25,-6 2015,-6 2015,-26"/>
<text text-anchor="middle" x="1967.62" y="-12.5" font-family="Helvetica,sans-Serif" font-size="10.00">opengl/selection.c</text>
</a>
</g>
</g>
<!-- Node5&#45;&gt;Node20 -->
<g id="edge19_Node000005_Node000020" class="edge">
<title>Node5&#45;&gt;Node20</title>
<g id="a_edge19_Node000005_Node000020"><a xlink:title=" ">
<path fill="none" stroke="#63b8ff" d="M1530.9,-67.8C1700.05,-49.35 1746.33,-61.16 1910.62,-32 1918.69,-30.57 1927.27,-28.57 1935.27,-26.49"/>
<polygon fill="#63b8ff" stroke="#63b8ff" points="1530.64,-64.31 1521.08,-68.89 1531.41,-71.26 1530.64,-64.31"/>
</a>
</g>
</g>
<!-- Node21 -->
<g id="Node000021" class="node">
<title>Node21</title>
<g id="a_Node000021"><a xlink:href="../../db/d42/m__edit_8c.html" target="_top" xlink:title="Functions to create the &#39;Tools &#45;&gt; Edit&#39; submenu.">
<polygon fill="white" stroke="#666666" points="2136.12,-26 2033.12,-26 2033.12,-6 2136.12,-6 2136.12,-26"/>
<text text-anchor="middle" x="2084.62" y="-12.5" font-family="Helvetica,sans-Serif" font-size="10.00">opengl/win/m_edit.c</text>
</a>
</g>
</g>
<!-- Node5&#45;&gt;Node21 -->
<g id="edge20_Node000005_Node000021" class="edge">
<title>Node5&#45;&gt;Node21</title>
<g id="a_edge20_Node000005_Node000021"><a xlink:title=" ">
<path fill="none" stroke="#63b8ff" d="M1530.81,-67.85C1750.02,-46.2 1809.37,-65.89 2023.62,-32 2032.46,-30.6 2041.89,-28.56 2050.63,-26.43"/>
<polygon fill="#63b8ff" stroke="#63b8ff" points="1530.68,-64.35 1521.08,-68.83 1531.38,-71.31 1530.68,-64.35"/>
</a>
</g>
</g>
<!-- Node22 -->
<g id="Node000022" class="node">
<title>Node22</title>
<g id="a_Node000022"><a xlink:href="../../d3/d51/m__tools_8c.html" target="_top" xlink:title="Functions to create the &#39;Tools&#39; submenu.">
<polygon fill="white" stroke="#666666" points="2262.75,-26 2154.5,-26 2154.5,-6 2262.75,-6 2262.75,-26"/>
<text text-anchor="middle" x="2208.62" y="-12.5" font-family="Helvetica,sans-Serif" font-size="10.00">opengl/win/m_tools.c</text>
</a>
</g>
</g>
<!-- Node5&#45;&gt;Node22 -->
<g id="edge21_Node000005_Node000022" class="edge">
<title>Node5&#45;&gt;Node22</title>
<g id="a_edge21_Node000005_Node000022"><a xlink:title=" ">
<path fill="none" stroke="#63b8ff" d="M1530.63,-67.89C1804,-42.74 1877.44,-71.44 2145.62,-32 2154.86,-30.64 2164.73,-28.59 2173.85,-26.43"/>
<polygon fill="#63b8ff" stroke="#63b8ff" points="1530.7,-64.37 1521.07,-68.79 1531.36,-71.34 1530.7,-64.37"/>
</a>
</g>
</g>
<!-- Node23 -->
<g id="Node000023" class="node">
<title>Node23</title>
<g id="a_Node000023"><a xlink:href="../../d5/da4/popup_8c.html" target="_top" xlink:title="Functions to create the OpenGL window popup menus:">
<polygon fill="white" stroke="#666666" points="2380.62,-26 2280.62,-26 2280.62,-6 2380.62,-6 2380.62,-26"/>
<text text-anchor="middle" x="2330.62" y="-12.5" font-family="Helvetica,sans-Serif" font-size="10.00">opengl/win/popup.c</text>
</a>
</g>
</g>
<!-- Node5&#45;&gt;Node23 -->
<g id="edge22_Node000005_Node000023" class="edge">
<title>Node5&#45;&gt;Node23</title>
<g id="a_edge22_Node000005_Node000023"><a xlink:title=" ">
<path fill="none" stroke="#63b8ff" d="M1530.87,-67.89C1859.88,-39.23 1948.34,-80.43 2271.62,-32 2280.4,-30.68 2289.78,-28.62 2298.4,-26.43"/>
<polygon fill="#63b8ff" stroke="#63b8ff" points="1530.72,-64.39 1521.07,-68.76 1531.34,-71.36 1530.72,-64.39"/>
</a>
</g>
</g>
<!-- Node24 -->
<g id="Node000024" class="node">
<title>Node24</title>
<g id="a_Node000024"><a xlink:href="../../de/dc7/w__search_8c.html" target="_top" xlink:title="Functions to create the object search widgets, for:">
<polygon fill="white" stroke="#666666" points="2514.5,-26 2398.75,-26 2398.75,-6 2514.5,-6 2514.5,-26"/>
<text text-anchor="middle" x="2456.62" y="-12.5" font-family="Helvetica,sans-Serif" font-size="10.00">opengl/win/w_search.c</text>
</a>
</g>
</g>
<!-- Node5&#45;&gt;Node24 -->
<g id="edge23_Node000005_Node000024" class="edge">
<title>Node5&#45;&gt;Node24</title>
<g id="a_edge23_Node000005_Node000024"><a xlink:title=" ">
<path fill="none" stroke="#63b8ff" d="M1530.92,-67.9C1912.16,-35.75 2013.61,-81.55 2389.62,-32 2399.55,-30.69 2410.18,-28.63 2419.98,-26.44"/>
<polygon fill="#63b8ff" stroke="#63b8ff" points="1530.73,-64.4 1521.07,-68.74 1531.33,-71.37 1530.73,-64.4"/>
</a>
</g>
</g>
<!-- Node25 -->
<g id="Node000025" class="node">
<title>Node25</title>
<g id="a_Node000025"><a xlink:href="../../d8/de9/w__volumes_8c.html" target="_top" xlink:title="Functions to create the &#39;Volumes&#39; window &#160;&#160;Functions to compute system / fragment / molecular volumes...">
<polygon fill="white" stroke="#666666" points="2656.25,-26 2533,-26 2533,-6 2656.25,-6 2656.25,-26"/>
<text text-anchor="middle" x="2594.62" y="-12.5" font-family="Helvetica,sans-Serif" font-size="10.00">opengl/win/w_volumes.c</text>
</a>
</g>
</g>
<!-- Node5&#45;&gt;Node25 -->
<g id="edge24_Node000005_Node000025" class="edge">
<title>Node5&#45;&gt;Node25</title>
<g id="a_edge24_Node000005_Node000025"><a xlink:title=" ">
<path fill="none" stroke="#63b8ff" d="M1531.02,-67.9C1971.57,-31.86 2088.17,-85.47 2523.62,-32 2534.13,-30.71 2545.38,-28.65 2555.77,-26.47"/>
<polygon fill="#63b8ff" stroke="#63b8ff" points="1530.74,-64.41 1521.07,-68.72 1531.32,-71.39 1530.74,-64.41"/>
</a>
</g>
</g>
<!-- Node26 -->
<g id="Node000026" class="node">
<title>Node26</title>
<g id="a_Node000026"><a xlink:href="../../d8/d50/read__cif_8c.html" target="_top" xlink:title="Functions to read CIF files.">
<polygon fill="white" stroke="#666666" points="2776.75,-32 2674.5,-32 2674.5,0 2776.75,0 2776.75,-32"/>
<text text-anchor="start" x="2682.5" y="-18.5" font-family="Helvetica,sans-Serif" font-size="10.00">project/readers/read</text>
<text text-anchor="middle" x="2725.62" y="-6.5" font-family="Helvetica,sans-Serif" font-size="10.00">_cif.c</text>
</a>
</g>
</g>
<!-- Node5&#45;&gt;Node26 -->
<g id="edge25_Node000005_Node000026" class="edge">
<title>Node5&#45;&gt;Node26</title>
<g id="a_edge25_Node000005_Node000026"><a xlink:title=" ">
<path fill="none" stroke="#63b8ff" d="M1530.77,-67.93C2034.49,-27.87 2168.53,-101.2 2665.62,-32 2668.39,-31.62 2671.21,-31.15 2674.05,-30.64"/>
<polygon fill="#63b8ff" stroke="#63b8ff" points="1530.75,-64.42 1521.07,-68.71 1531.32,-71.4 1530.75,-64.42"/>
</a>
</g>
</g>
</g>
</svg>

<g id="navigator" transform="translate(0 0)" fill="#404254">
  <rect fill="#f2f5e9" fill-opacity="0.5" stroke="#606060" stroke-width=".5" x="0" y="0" width="60" height="60"/>
  <use id="zoomplus" xlink:href="#zoomPlus" x="17" y="9" onmousedown="handleZoom(evt,'in')"/>
  <use id="zoomminus" xlink:href="#zoomMin" x="42" y="9" onmousedown="handleZoom(evt,'out')"/>
  <use id="reset" xlink:href="#resetDef" x="30" y="36" onmousedown="handleReset()"/>
   <use id="arrowup" xlink:href="#arrowUp" x="0" y="0" onmousedown="handlePan(0,-1)"/>
  <use id="arrowright" xlink:href="#arrowRight" x="0" y="0" onmousedown="handlePan(1,0)"/>
  <use id="arrowdown" xlink:href="#arrowDown" x="0" y="0" onmousedown="handlePan(0,1)"/>
  <use id="arrowleft" xlink:href="#arrowLeft" x="0" y="0" onmousedown="handlePan(-1,0)"/>
</g>
<svg viewBox="0 0 15 15" width="100%" height="30px" preserveAspectRatio="xMaxYMin meet">
 <g id="arrow_out" transform="scale(0.3 0.3)">
  <a xlink:href="initcoord_8h__dep__incl_org.svg" target="_base">
   <rect id="button" ry="5" rx="5" y="6" x="6" height="38" width="38"
        fill="#f2f5e9" fill-opacity="0.5" stroke="#606060" stroke-width="1.0"/>
   <path id="arrow"
     d="M 11.500037,31.436501 C 11.940474,20.09759 22.043105,11.32322 32.158766,21.979434 L 37.068811,17.246167 C 37.068811,17.246167 37.088388,32 37.088388,32 L 22.160133,31.978069 C 22.160133,31.978069 26.997745,27.140456 26.997745,27.140456 C 18.528582,18.264221 13.291696,25.230495 11.500037,31.436501 z"
     style="fill:#404040;"/>
  </a>
 </g>
</svg>

<style type='text/css'>
<![CDATA[
[data-mouse-over-selected='false'] { opacity: 0.7; }
[data-mouse-over-selected='true']  { opacity: 1.0; }
]]>
</style>
<script type="application/ecmascript"><![CDATA[
document.addEventListener('DOMContentLoaded', (event) => {
  highlightEdges();
  highlightAdjacentNodes();
});
]]></script>
</svg>
