<?xml version="1.0" encoding="UTF-8" standalone="no"?>
<!DOCTYPE svg PUBLIC "-//W3C//DTD SVG 1.1//EN"
 "http://www.w3.org/Graphics/SVG/1.1/DTD/svg11.dtd">
<!-- Generated by graphviz version 7.1.0 (0)
 -->
<!-- Title: opengl/win/initcoord.h Pages: 1 -->
<svg width="2797pt" height="148pt"
 viewBox="0.00 0.00 2796.50 148.00" xmlns="http://www.w3.org/2000/svg" xmlns:xlink="http://www.w3.org/1999/xlink">
<g id="graph0" class="graph" transform="scale(1 1) rotate(0) translate(4 144)">
<title>opengl/win/initcoord.h</title>
<!-- Node1 -->
<g id="Node000001" class="node">
<title>Node1</title>
<g id="a_Node000001"><a xlink:title="Function declarations to handle the atomic coordination data.">
<polygon fill="#999999" stroke="#666666" points="1757.5,-140 1646.5,-140 1646.5,-121 1757.5,-121 1757.5,-140"/>
<text text-anchor="middle" x="1702" y="-128" font-family="Helvetica,sans-Serif" font-size="10.00">opengl/win/initcoord.h</text>
</a>
</g>
</g>
<!-- Node2 -->
<g id="Node000002" class="node">
<title>Node2</title>
<g id="a_Node000002"><a xlink:href="../../d5/d34/bdcall_8c.html" target="_top" xlink:title="Callbacks for the bond properties calculation dialog.">
<polygon fill="white" stroke="#666666" points="1191,-85 1125,-85 1125,-66 1191,-66 1191,-85"/>
<text text-anchor="middle" x="1158" y="-73" font-family="Helvetica,sans-Serif" font-size="10.00">gui/bdcall.c</text>
</a>
</g>
</g>
<!-- Node1&#45;&gt;Node2 -->
<g id="edge1_Node000001_Node000002" class="edge">
<title>Node1&#45;&gt;Node2</title>
<g id="a_edge1_Node000001_Node000002"><a xlink:title=" ">
<path fill="none" stroke="#63b8ff" d="M1634.71,-125.92C1538.12,-120.24 1354.76,-107.45 1200,-85 1197.2,-84.59 1194.31,-84.12 1191.41,-83.61"/>
<polygon fill="#63b8ff" stroke="#63b8ff" points="1634.35,-129.41 1644.54,-126.49 1634.76,-122.42 1634.35,-129.41"/>
</a>
</g>
</g>
<!-- Node3 -->
<g id="Node000003" class="node">
<title>Node3</title>
<g id="a_Node000003"><a xlink:href="../../d2/d01/chainscall_8c.html" target="_top" xlink:title="Callbacks for the chains statistics calculation dialog.">
<polygon fill="white" stroke="#666666" points="1293,-85 1209,-85 1209,-66 1293,-66 1293,-85"/>
<text text-anchor="middle" x="1251" y="-73" font-family="Helvetica,sans-Serif" font-size="10.00">gui/chainscall.c</text>
</a>
</g>
</g>
<!-- Node1&#45;&gt;Node3 -->
<g id="edge2_Node000001_Node000003" class="edge">
<title>Node1&#45;&gt;Node3</title>
<g id="a_edge2_Node000001_Node000003"><a xlink:title=" ">
<path fill="none" stroke="#63b8ff" d="M1634.91,-123.16C1555.34,-115.38 1418.76,-101.21 1302,-85 1299.15,-84.6 1296.22,-84.18 1293.27,-83.73"/>
<polygon fill="#63b8ff" stroke="#63b8ff" points="1634.43,-126.63 1644.72,-124.12 1635.11,-119.66 1634.43,-126.63"/>
</a>
</g>
</g>
<!-- Node4 -->
<g id="Node000004" class="node">
<title>Node4</title>
<g id="a_Node000004"><a xlink:href="../../d9/dc4/ringscall_8c.html" target="_top" xlink:title="Callbacks for the ring statistics calculation dialog.">
<polygon fill="white" stroke="#666666" points="1388.5,-85 1311.5,-85 1311.5,-66 1388.5,-66 1388.5,-85"/>
<text text-anchor="middle" x="1350" y="-73" font-family="Helvetica,sans-Serif" font-size="10.00">gui/ringscall.c</text>
</a>
</g>
</g>
<!-- Node1&#45;&gt;Node4 -->
<g id="edge3_Node000001_Node000004" class="edge">
<title>Node1&#45;&gt;Node4</title>
<g id="a_edge3_Node000001_Node000004"><a xlink:title=" ">
<path fill="none" stroke="#63b8ff" d="M1635.05,-120.29C1573.39,-111.66 1479.42,-98.17 1398,-85 1394.99,-84.51 1391.88,-84 1388.76,-83.47"/>
<polygon fill="#63b8ff" stroke="#63b8ff" points="1634.29,-123.71 1644.67,-121.63 1635.25,-116.78 1634.29,-123.71"/>
</a>
</g>
</g>
<!-- Node5 -->
<g id="Node000005" class="node">
<title>Node5</title>
<g id="a_Node000005"><a xlink:href="../../d5/d9c/atom__edit_8h.html" target="_top" xlink:title="Function declarations for the mode edition window.">
<polygon fill="white" stroke="#666666" points="1525,-85 1407,-85 1407,-66 1525,-66 1525,-85"/>
<text text-anchor="middle" x="1466" y="-73" font-family="Helvetica,sans-Serif" font-size="10.00">opengl/edit/atom_edit.h</text>
</a>
</g>
</g>
<!-- Node1&#45;&gt;Node5 -->
<g id="edge4_Node000001_Node000005" class="edge">
<title>Node1&#45;&gt;Node5</title>
<g id="a_edge4_Node000001_Node000005"><a xlink:title=" ">
<path fill="none" stroke="#63b8ff" d="M1650.76,-117.99C1607.26,-108.22 1545.72,-94.4 1505.84,-85.45"/>
<polygon fill="#63b8ff" stroke="#63b8ff" points="1649.97,-121.4 1660.49,-120.18 1651.5,-114.57 1649.97,-121.4"/>
</a>
</g>
</g>
<!-- Node27 -->
<g id="Node000027" class="node">
<title>Node27</title>
<g id="a_Node000027"><a xlink:href="../../dc/d21/glview_8c.html" target="_top" xlink:title="Callbacks of the OpenGL window.">
<polygon fill="white" stroke="#666666" points="1626.5,-85 1543.5,-85 1543.5,-66 1626.5,-66 1626.5,-85"/>
<text text-anchor="middle" x="1585" y="-73" font-family="Helvetica,sans-Serif" font-size="10.00">opengl/glview.c</text>
</a>
</g>
</g>
<!-- Node1&#45;&gt;Node27 -->
<g id="edge26_Node000001_Node000027" class="edge">
<title>Node1&#45;&gt;Node27</title>
<g id="a_edge26_Node000001_Node000027"><a xlink:title=" ">
<path fill="none" stroke="#63b8ff" d="M1671.75,-115.8C1650.57,-106.2 1622.89,-93.66 1604.55,-85.36"/>
<polygon fill="#63b8ff" stroke="#63b8ff" points="1670.22,-118.95 1680.77,-119.88 1673.11,-112.57 1670.22,-118.95"/>
</a>
</g>
</g>
<!-- Node28 -->
<g id="Node000028" class="node">
<title>Node28</title>
<g id="a_Node000028"><a xlink:href="../../d7/dc8/glwindow_8c.html" target="_top" xlink:title="Functions to create a project OpenGL window.">
<polygon fill="white" stroke="#666666" points="1759,-85 1645,-85 1645,-66 1759,-66 1759,-85"/>
<text text-anchor="middle" x="1702" y="-73" font-family="Helvetica,sans-Serif" font-size="10.00">opengl/win/glwindow.c</text>
</a>
</g>
</g>
<!-- Node1&#45;&gt;Node28 -->
<g id="edge27_Node000001_Node000028" class="edge">
<title>Node1&#45;&gt;Node28</title>
<g id="a_edge27_Node000001_Node000028"><a xlink:title=" ">
<path fill="none" stroke="#63b8ff" d="M1702,-109.35C1702,-101.1 1702,-91.97 1702,-85.44"/>
<polygon fill="#63b8ff" stroke="#63b8ff" points="1698.5,-109.23 1702,-119.23 1705.5,-109.23 1698.5,-109.23"/>
</a>
</g>
</g>
<!-- Node29 -->
<g id="Node000029" class="node">
<title>Node29</title>
<g id="a_Node000029"><a xlink:href="../../d2/def/initmol_8c.html" target="_top" xlink:title="Functions to retrieve fragments data from Fortran90 &#160;&#160;Functions to retrieve molecules data from Fortr...">
<polygon fill="white" stroke="#666666" points="1880.5,-85 1777.5,-85 1777.5,-66 1880.5,-66 1880.5,-85"/>
<text text-anchor="middle" x="1829" y="-73" font-family="Helvetica,sans-Serif" font-size="10.00">opengl/win/initmol.c</text>
</a>
</g>
</g>
<!-- Node1&#45;&gt;Node29 -->
<g id="edge28_Node000001_Node000029" class="edge">
<title>Node1&#45;&gt;Node29</title>
<g id="a_edge28_Node000001_Node000029"><a xlink:title=" ">
<path fill="none" stroke="#63b8ff" d="M1733.89,-116.19C1756.99,-106.55 1787.6,-93.78 1807.77,-85.36"/>
<polygon fill="#63b8ff" stroke="#63b8ff" points="1732.82,-112.84 1724.94,-119.93 1735.52,-119.31 1732.82,-112.84"/>
</a>
</g>
</g>
<!-- Node30 -->
<g id="Node000030" class="node">
<title>Node30</title>
<g id="a_Node000030"><a xlink:href="../../d5/dbe/menu__bar_8c.html" target="_top" xlink:title="Functions to create the menu bar of the OpenGL window &#160;&#160;Functions to create the menu items for the me...">
<polygon fill="white" stroke="#666666" points="2015.5,-85 1898.5,-85 1898.5,-66 2015.5,-66 2015.5,-85"/>
<text text-anchor="middle" x="1957" y="-73" font-family="Helvetica,sans-Serif" font-size="10.00">opengl/win/menu_bar.c</text>
</a>
</g>
</g>
<!-- Node1&#45;&gt;Node30 -->
<g id="edge29_Node000001_Node000030" class="edge">
<title>Node1&#45;&gt;Node30</title>
<g id="a_edge29_Node000001_Node000030"><a xlink:title=" ">
<path fill="none" stroke="#63b8ff" d="M1756.46,-118.18C1803.51,-108.4 1870.58,-94.46 1913.96,-85.45"/>
<polygon fill="#63b8ff" stroke="#63b8ff" points="1755.82,-114.74 1746.74,-120.2 1757.24,-121.59 1755.82,-114.74"/>
</a>
</g>
</g>
<!-- Node31 -->
<g id="Node000031" class="node">
<title>Node31</title>
<g id="a_Node000031"><a xlink:href="../../d4/db6/read__mol_8c.html" target="_top" xlink:title="Functions to read molecule(s) data in the atomes project file format.">
<polygon fill="white" stroke="#666666" points="2130.5,-85 2033.5,-85 2033.5,-66 2130.5,-66 2130.5,-85"/>
<text text-anchor="middle" x="2082" y="-73" font-family="Helvetica,sans-Serif" font-size="10.00">project/read_mol.c</text>
</a>
</g>
</g>
<!-- Node1&#45;&gt;Node31 -->
<g id="edge30_Node000001_Node000031" class="edge">
<title>Node1&#45;&gt;Node31</title>
<g id="a_edge30_Node000001_Node000031"><a xlink:title=" ">
<path fill="none" stroke="#63b8ff" d="M1769.12,-120.47C1834.47,-111.63 1936.59,-97.68 2025,-85 2027.67,-84.62 2030.42,-84.22 2033.19,-83.82"/>
<polygon fill="#63b8ff" stroke="#63b8ff" points="1768.7,-117 1759.25,-121.81 1769.63,-123.94 1768.7,-117"/>
</a>
</g>
</g>
<!-- Node32 -->
<g id="Node000032" class="node">
<title>Node32</title>
<g id="a_Node000032"><a xlink:href="../../db/dd4/read__opengl_8c.html" target="_top" xlink:title="Functions to read the OpenGL window data in the atomes project file format.">
<polygon fill="white" stroke="#666666" points="2259,-85 2149,-85 2149,-66 2259,-66 2259,-85"/>
<text text-anchor="middle" x="2204" y="-73" font-family="Helvetica,sans-Serif" font-size="10.00">project/read_opengl.c</text>
</a>
</g>
</g>
<!-- Node1&#45;&gt;Node32 -->
<g id="edge31_Node000001_Node000032" class="edge">
<title>Node1&#45;&gt;Node32</title>
<g id="a_edge31_Node000001_Node000032"><a xlink:title=" ">
<path fill="none" stroke="#63b8ff" d="M1769.14,-123.33C1855.16,-115.27 2008.82,-100.37 2140,-85 2142.78,-84.67 2145.63,-84.33 2148.51,-83.98"/>
<polygon fill="#63b8ff" stroke="#63b8ff" points="1768.86,-119.84 1759.23,-124.25 1769.51,-126.81 1768.86,-119.84"/>
</a>
</g>
</g>
<!-- Node33 -->
<g id="Node000033" class="node">
<title>Node33</title>
<g id="a_Node000033"><a xlink:href="../../dd/d70/save__bond_8c.html" target="_top" xlink:title="Functions to save bonding information in the atomes project file format.">
<polygon fill="white" stroke="#666666" points="2381,-85 2277,-85 2277,-66 2381,-66 2381,-85"/>
<text text-anchor="middle" x="2329" y="-73" font-family="Helvetica,sans-Serif" font-size="10.00">project/save_bond.c</text>
</a>
</g>
</g>
<!-- Node1&#45;&gt;Node33 -->
<g id="edge32_Node000001_Node000033" class="edge">
<title>Node1&#45;&gt;Node33</title>
<g id="a_edge32_Node000001_Node000033"><a xlink:title=" ">
<path fill="none" stroke="#63b8ff" d="M1769.43,-125.51C1875.63,-118.93 2088.31,-104.56 2268,-85 2270.87,-84.69 2273.81,-84.35 2276.78,-83.99"/>
<polygon fill="#63b8ff" stroke="#63b8ff" points="1769.21,-122.02 1759.45,-126.13 1769.64,-129 1769.21,-122.02"/>
</a>
</g>
</g>
<!-- Node6 -->
<g id="Node000006" class="node">
<title>Node6</title>
<g id="a_Node000006"><a xlink:href="../../d3/d3a/callbacks_8c.html" target="_top" xlink:title="General callbacks &#160;&#160;Functions to open and close files.">
<polygon fill="white" stroke="#666666" points="82,-24.5 0,-24.5 0,-5.5 82,-5.5 82,-24.5"/>
<text text-anchor="middle" x="41" y="-12.5" font-family="Helvetica,sans-Serif" font-size="10.00">gui/callbacks.c</text>
</a>
</g>
</g>
<!-- Node5&#45;&gt;Node6 -->
<g id="edge5_Node000005_Node000006" class="edge">
<title>Node5&#45;&gt;Node6</title>
<g id="a_edge5_Node000005_Node000006"><a xlink:title=" ">
<path fill="none" stroke="#63b8ff" d="M1395.42,-66.01C1089.74,-44.93 374.56,-72.94 91,-30 83.51,-28.87 75.56,-26.97 68.24,-24.93"/>
<polygon fill="#63b8ff" stroke="#63b8ff" points="1394.83,-69.48 1405.06,-66.71 1395.34,-62.5 1394.83,-69.48"/>
</a>
</g>
</g>
<!-- Node7 -->
<g id="Node000007" class="node">
<title>Node7</title>
<g id="a_Node000007"><a xlink:href="../../d8/d15/atom__action_8c.html" target="_top" xlink:title="Functions to apply the edition actions to the model.">
<polygon fill="white" stroke="#666666" points="228,-24.5 100,-24.5 100,-5.5 228,-5.5 228,-24.5"/>
<text text-anchor="middle" x="164" y="-12.5" font-family="Helvetica,sans-Serif" font-size="10.00">opengl/edit/atom_action.c</text>
</a>
</g>
</g>
<!-- Node5&#45;&gt;Node7 -->
<g id="edge6_Node000005_Node000007" class="edge">
<title>Node5&#45;&gt;Node7</title>
<g id="a_edge6_Node000005_Node000007"><a xlink:title=" ">
<path fill="none" stroke="#63b8ff" d="M1395.12,-65.96C880.75,-27.3 745.92,-86.34 237,-30 226.48,-28.84 215.21,-26.98 204.75,-25"/>
<polygon fill="#63b8ff" stroke="#63b8ff" points="1394.82,-69.44 1405.06,-66.71 1395.35,-62.46 1394.82,-69.44"/>
</a>
</g>
</g>
<!-- Node8 -->
<g id="Node000008" class="node">
<title>Node8</title>
<g id="a_Node000008"><a xlink:href="../../d9/dbe/atom__coord_8c.html" target="_top" xlink:title="Functions to correct the coordination menus and the corresponding data pointers after edition.">
<polygon fill="white" stroke="#666666" points="372,-24.5 246,-24.5 246,-5.5 372,-5.5 372,-24.5"/>
<text text-anchor="middle" x="309" y="-12.5" font-family="Helvetica,sans-Serif" font-size="10.00">opengl/edit/atom_coord.c</text>
</a>
</g>
</g>
<!-- Node5&#45;&gt;Node8 -->
<g id="edge7_Node000005_Node000008" class="edge">
<title>Node5&#45;&gt;Node8</title>
<g id="a_edge7_Node000005_Node000008"><a xlink:title=" ">
<path fill="none" stroke="#63b8ff" d="M1395.18,-65.95C944.61,-31.18 826.19,-80.85 381,-30 370.63,-28.81 359.51,-26.95 349.19,-24.97"/>
<polygon fill="#63b8ff" stroke="#63b8ff" points="1394.81,-69.44 1405.06,-66.73 1395.36,-62.46 1394.81,-69.44"/>
</a>
</g>
</g>
<!-- Node9 -->
<g id="Node000009" class="node">
<title>Node9</title>
<g id="a_Node000009"><a xlink:href="../../dc/d6c/atom__edit_8c.html" target="_top" xlink:title="Functions to create the model edition window.">
<polygon fill="white" stroke="#666666" points="508,-24.5 390,-24.5 390,-5.5 508,-5.5 508,-24.5"/>
<text text-anchor="middle" x="449" y="-12.5" font-family="Helvetica,sans-Serif" font-size="10.00">opengl/edit/atom_edit.c</text>
</a>
</g>
</g>
<!-- Node5&#45;&gt;Node9 -->
<g id="edge8_Node000005_Node000009" class="edge">
<title>Node5&#45;&gt;Node9</title>
<g id="a_edge8_Node000005_Node000009"><a xlink:title=" ">
<path fill="none" stroke="#63b8ff" d="M1395.23,-65.95C1004.91,-34.87 901.83,-77.17 517,-30 507.19,-28.8 496.69,-26.93 486.94,-24.94"/>
<polygon fill="#63b8ff" stroke="#63b8ff" points="1394.81,-69.43 1405.06,-66.74 1395.37,-62.45 1394.81,-69.43"/>
</a>
</g>
</g>
<!-- Node10 -->
<g id="Node000010" class="node">
<title>Node10</title>
<g id="a_Node000010"><a xlink:href="../../d2/d4a/atom__geo_8c.html" target="_top" xlink:title="Functions to check for the appropriate atomic coordinations.">
<polygon fill="white" stroke="#666666" points="644,-24.5 526,-24.5 526,-5.5 644,-5.5 644,-24.5"/>
<text text-anchor="middle" x="585" y="-12.5" font-family="Helvetica,sans-Serif" font-size="10.00">opengl/edit/atom_geo.c</text>
</a>
</g>
</g>
<!-- Node5&#45;&gt;Node10 -->
<g id="edge9_Node000005_Node000010" class="edge">
<title>Node5&#45;&gt;Node10</title>
<g id="a_edge9_Node000005_Node000010"><a xlink:title=" ">
<path fill="none" stroke="#63b8ff" d="M1395.22,-65.94C1065.2,-38.49 977.75,-71.04 653,-30 643.31,-28.78 632.95,-26.93 623.31,-24.97"/>
<polygon fill="#63b8ff" stroke="#63b8ff" points="1394.79,-69.41 1405.05,-66.77 1395.38,-62.44 1394.79,-69.41"/>
</a>
</g>
</g>
<!-- Node11 -->
<g id="Node000011" class="node">
<title>Node11</title>
<g id="a_Node000011"><a xlink:href="../../dd/d0b/atom__insert_8c.html" target="_top" xlink:title="Functions to insert bond(s) in a project.">
<polygon fill="white" stroke="#666666" points="788,-24.5 662,-24.5 662,-5.5 788,-5.5 788,-24.5"/>
<text text-anchor="middle" x="725" y="-12.5" font-family="Helvetica,sans-Serif" font-size="10.00">opengl/edit/atom_insert.c</text>
</a>
</g>
</g>
<!-- Node5&#45;&gt;Node11 -->
<g id="edge10_Node000005_Node000011" class="edge">
<title>Node5&#45;&gt;Node11</title>
<g id="a_edge10_Node000005_Node000011"><a xlink:title=" ">
<path fill="none" stroke="#63b8ff" d="M1395.37,-65.93C1129.04,-42.25 1058.41,-63.11 797,-30 786.89,-28.72 776.07,-26.87 765.97,-24.94"/>
<polygon fill="#63b8ff" stroke="#63b8ff" points="1394.78,-69.39 1405.05,-66.8 1395.41,-62.42 1394.78,-69.39"/>
</a>
</g>
</g>
<!-- Node12 -->
<g id="Node000012" class="node">
<title>Node12</title>
<g id="a_Node000012"><a xlink:href="../../d7/d27/atom__move_8c.html" target="_top" xlink:title="Functions to move atom(s) and group of atom(s) &#160;&#160;Functions to move randomly atom(s) and group of atom...">
<polygon fill="white" stroke="#666666" points="932,-24.5 806,-24.5 806,-5.5 932,-5.5 932,-24.5"/>
<text text-anchor="middle" x="869" y="-12.5" font-family="Helvetica,sans-Serif" font-size="10.00">opengl/edit/atom_move.c</text>
</a>
</g>
</g>
<!-- Node5&#45;&gt;Node12 -->
<g id="edge11_Node000005_Node000012" class="edge">
<title>Node5&#45;&gt;Node12</title>
<g id="a_edge11_Node000005_Node000012"><a xlink:title=" ">
<path fill="none" stroke="#63b8ff" d="M1395.23,-65.88C1192.79,-45.98 1138.8,-56.95 941,-30 931.16,-28.66 920.63,-26.84 910.75,-24.95"/>
<polygon fill="#63b8ff" stroke="#63b8ff" points="1394.75,-69.35 1405.05,-66.86 1395.44,-62.38 1394.75,-69.35"/>
</a>
</g>
</g>
<!-- Node13 -->
<g id="Node000013" class="node">
<title>Node13</title>
<g id="a_Node000013"><a xlink:href="../../d7/d6a/atom__object_8c.html" target="_top" xlink:title="Functions to create atomic objects.">
<polygon fill="white" stroke="#666666" points="1078,-24.5 950,-24.5 950,-5.5 1078,-5.5 1078,-24.5"/>
<text text-anchor="middle" x="1014" y="-12.5" font-family="Helvetica,sans-Serif" font-size="10.00">opengl/edit/atom_object.c</text>
</a>
</g>
</g>
<!-- Node5&#45;&gt;Node13 -->
<g id="edge12_Node000005_Node000013" class="edge">
<title>Node5&#45;&gt;Node13</title>
<g id="a_edge12_Node000005_Node000013"><a xlink:title=" ">
<path fill="none" stroke="#63b8ff" d="M1395.12,-65.79C1257.35,-49.59 1220.48,-50.52 1087,-30 1077.56,-28.55 1067.48,-26.77 1057.92,-24.97"/>
<polygon fill="#63b8ff" stroke="#63b8ff" points="1394.69,-69.27 1405.03,-66.97 1395.52,-62.32 1394.69,-69.27"/>
</a>
</g>
</g>
<!-- Node14 -->
<g id="Node000014" class="node">
<title>Node14</title>
<g id="a_Node000014"><a xlink:href="../../d3/ded/atom__remove_8c.html" target="_top" xlink:title="Functions to remove bond(s) from a project &#160;&#160;Function to prepare the passivation (removal followed by...">
<polygon fill="white" stroke="#666666" points="1230,-24.5 1096,-24.5 1096,-5.5 1230,-5.5 1230,-24.5"/>
<text text-anchor="middle" x="1163" y="-12.5" font-family="Helvetica,sans-Serif" font-size="10.00">opengl/edit/atom_remove.c</text>
</a>
</g>
</g>
<!-- Node5&#45;&gt;Node14 -->
<g id="edge13_Node000005_Node000014" class="edge">
<title>Node5&#45;&gt;Node14</title>
<g id="a_edge13_Node000005_Node000014"><a xlink:title=" ">
<path fill="none" stroke="#63b8ff" d="M1408.53,-63.41C1350.85,-52.27 1263.08,-35.32 1209.59,-25"/>
<polygon fill="#63b8ff" stroke="#63b8ff" points="1407.68,-66.81 1418.16,-65.26 1409.01,-59.93 1407.68,-66.81"/>
</a>
</g>
</g>
<!-- Node15 -->
<g id="Node000015" class="node">
<title>Node15</title>
<g id="a_Node000015"><a xlink:href="../../d9/d33/atom__search_8c.html" target="_top" xlink:title="Functions to prepare the model edition &#39;search&#39; tabs and the associated widgets.">
<polygon fill="white" stroke="#666666" points="1379.5,-24.5 1248.5,-24.5 1248.5,-5.5 1379.5,-5.5 1379.5,-24.5"/>
<text text-anchor="middle" x="1314" y="-12.5" font-family="Helvetica,sans-Serif" font-size="10.00">opengl/edit/atom_search.c</text>
</a>
</g>
</g>
<!-- Node5&#45;&gt;Node15 -->
<g id="edge14_Node000005_Node000015" class="edge">
<title>Node5&#45;&gt;Node15</title>
<g id="a_edge14_Node000005_Node000015"><a xlink:title=" ">
<path fill="none" stroke="#63b8ff" d="M1432.5,-61.61C1403.64,-50.5 1362.72,-34.75 1337.3,-24.97"/>
<polygon fill="#63b8ff" stroke="#63b8ff" points="1430.91,-64.75 1441.5,-65.07 1433.43,-58.21 1430.91,-64.75"/>
</a>
</g>
</g>
<!-- Node16 -->
<g id="Node000016" class="node">
<title>Node16</title>
<g id="a_Node000016"><a xlink:href="../../dd/d37/atom__species_8c.html" target="_top" xlink:title="Functions to look for new chemical species and modify the chemical information accordingly.">
<polygon fill="white" stroke="#666666" points="1534,-24.5 1398,-24.5 1398,-5.5 1534,-5.5 1534,-24.5"/>
<text text-anchor="middle" x="1466" y="-12.5" font-family="Helvetica,sans-Serif" font-size="10.00">opengl/edit/atom_species.c</text>
</a>
</g>
</g>
<!-- Node5&#45;&gt;Node16 -->
<g id="edge15_Node000005_Node000016" class="edge">
<title>Node5&#45;&gt;Node16</title>
<g id="a_edge15_Node000005_Node000016"><a xlink:title=" ">
<path fill="none" stroke="#63b8ff" d="M1466,-54.66C1466,-44.45 1466,-32.54 1466,-24.67"/>
<polygon fill="#63b8ff" stroke="#63b8ff" points="1462.5,-54.35 1466,-64.35 1469.5,-54.35 1462.5,-54.35"/>
</a>
</g>
</g>
<!-- Node17 -->
<g id="Node000017" class="node">
<title>Node17</title>
<g id="a_Node000017"><a xlink:href="../../d0/dd3/cbuild__action_8c.html" target="_top" xlink:title="Functions to build a crystal using space group, crystallographic position(s) and object(s) to insert.">
<polygon fill="white" stroke="#666666" points="1644,-30 1552,-30 1552,0 1644,0 1644,-30"/>
<text text-anchor="start" x="1560" y="-18" font-family="Helvetica,sans-Serif" font-size="10.00">opengl/edit/cbuild</text>
<text text-anchor="middle" x="1598" y="-7" font-family="Helvetica,sans-Serif" font-size="10.00">_action.c</text>
</a>
</g>
</g>
<!-- Node5&#45;&gt;Node17 -->
<g id="edge16_Node000005_Node000017" class="edge">
<title>Node5&#45;&gt;Node17</title>
<g id="a_edge16_Node000005_Node000017"><a xlink:title=" ">
<path fill="none" stroke="#63b8ff" d="M1496.46,-61C1517.1,-51.85 1544.35,-39.78 1565.42,-30.44"/>
<polygon fill="#63b8ff" stroke="#63b8ff" points="1495.16,-57.75 1487.43,-65 1497.99,-64.15 1495.16,-57.75"/>
</a>
</g>
</g>
<!-- Node18 -->
<g id="Node000018" class="node">
<title>Node18</title>
<g id="a_Node000018"><a xlink:href="../../d2/d17/cell__cut_8c.html" target="_top" xlink:title="Functions to create the &#39;slab cutting&#39; tab of the cell edition window.">
<polygon fill="white" stroke="#666666" points="1771.5,-24.5 1662.5,-24.5 1662.5,-5.5 1771.5,-5.5 1771.5,-24.5"/>
<text text-anchor="middle" x="1717" y="-12.5" font-family="Helvetica,sans-Serif" font-size="10.00">opengl/edit/cell_cut.c</text>
</a>
</g>
</g>
<!-- Node5&#45;&gt;Node18 -->
<g id="edge17_Node000005_Node000018" class="edge">
<title>Node5&#45;&gt;Node18</title>
<g id="a_edge17_Node000005_Node000018"><a xlink:title=" ">
<path fill="none" stroke="#63b8ff" d="M1515.42,-62.98C1563.29,-51.82 1634.88,-35.14 1678.61,-24.95"/>
<polygon fill="#63b8ff" stroke="#63b8ff" points="1514.81,-59.53 1505.87,-65.21 1516.4,-66.35 1514.81,-59.53"/>
</a>
</g>
</g>
<!-- Node19 -->
<g id="Node000019" class="node">
<title>Node19</title>
<g id="a_Node000019"><a xlink:href="../../d8/d1c/cell__super_8c.html" target="_top" xlink:title="Functions to create a super&#45;cell using the extra cell(s)">
<polygon fill="white" stroke="#666666" points="1908.5,-24.5 1789.5,-24.5 1789.5,-5.5 1908.5,-5.5 1908.5,-24.5"/>
<text text-anchor="middle" x="1849" y="-12.5" font-family="Helvetica,sans-Serif" font-size="10.00">opengl/edit/cell_super.c</text>
</a>
</g>
</g>
<!-- Node5&#45;&gt;Node19 -->
<g id="edge18_Node000005_Node000019" class="edge">
<title>Node5&#45;&gt;Node19</title>
<g id="a_edge18_Node000005_Node000019"><a xlink:title=" ">
<path fill="none" stroke="#63b8ff" d="M1536.55,-65.06C1614.62,-54.52 1735.42,-37.9 1781,-30 1789.67,-28.5 1798.92,-26.71 1807.72,-24.93"/>
<polygon fill="#63b8ff" stroke="#63b8ff" points="1536.3,-61.56 1526.86,-66.37 1537.24,-68.5 1536.3,-61.56"/>
</a>
</g>
</g>
<!-- Node20 -->
<g id="Node000020" class="node">
<title>Node20</title>
<g id="a_Node000020"><a xlink:href="../../dc/d50/selection_8c.html" target="_top" xlink:title="Functions handling the atom and bond selection process in the OpenGL window.">
<polygon fill="white" stroke="#666666" points="2021.5,-24.5 1926.5,-24.5 1926.5,-5.5 2021.5,-5.5 2021.5,-24.5"/>
<text text-anchor="middle" x="1974" y="-12.5" font-family="Helvetica,sans-Serif" font-size="10.00">opengl/selection.c</text>
</a>
</g>
</g>
<!-- Node5&#45;&gt;Node20 -->
<g id="edge19_Node000005_Node000020" class="edge">
<title>Node5&#45;&gt;Node20</title>
<g id="a_edge19_Node000005_Node000020"><a xlink:title=" ">
<path fill="none" stroke="#63b8ff" d="M1536.84,-65.85C1706.94,-48.01 1753.09,-58.2 1918,-30 1925.7,-28.68 1933.91,-26.87 1941.6,-24.98"/>
<polygon fill="#63b8ff" stroke="#63b8ff" points="1536.53,-62.36 1526.96,-66.9 1537.27,-69.32 1536.53,-62.36"/>
</a>
</g>
</g>
<!-- Node21 -->
<g id="Node000021" class="node">
<title>Node21</title>
<g id="a_Node000021"><a xlink:href="../../db/d42/m__edit_8c.html" target="_top" xlink:title="Functions to create the &#39;Tools &#45;&gt; Edit&#39; submenu.">
<polygon fill="white" stroke="#666666" points="2144,-24.5 2040,-24.5 2040,-5.5 2144,-5.5 2144,-24.5"/>
<text text-anchor="middle" x="2092" y="-12.5" font-family="Helvetica,sans-Serif" font-size="10.00">opengl/win/m_edit.c</text>
</a>
</g>
</g>
<!-- Node5&#45;&gt;Node21 -->
<g id="edge20_Node000005_Node000021" class="edge">
<title>Node5&#45;&gt;Node21</title>
<g id="a_edge20_Node000005_Node000021"><a xlink:title=" ">
<path fill="none" stroke="#63b8ff" d="M1536.74,-65.9C1756.93,-45.08 1816.05,-62.27 2031,-30 2039.49,-28.73 2048.55,-26.9 2057.02,-25"/>
<polygon fill="#63b8ff" stroke="#63b8ff" points="1536.57,-62.4 1526.95,-66.84 1537.24,-69.37 1536.57,-62.4"/>
</a>
</g>
</g>
<!-- Node22 -->
<g id="Node000022" class="node">
<title>Node22</title>
<g id="a_Node000022"><a xlink:href="../../d3/d51/m__tools_8c.html" target="_top" xlink:title="Functions to create the &#39;Tools&#39; submenu.">
<polygon fill="white" stroke="#666666" points="2271.5,-24.5 2162.5,-24.5 2162.5,-5.5 2271.5,-5.5 2271.5,-24.5"/>
<text text-anchor="middle" x="2217" y="-12.5" font-family="Helvetica,sans-Serif" font-size="10.00">opengl/win/m_tools.c</text>
</a>
</g>
</g>
<!-- Node5&#45;&gt;Node22 -->
<g id="edge21_Node000005_Node000022" class="edge">
<title>Node5&#45;&gt;Node22</title>
<g id="a_edge21_Node000005_Node000022"><a xlink:title=" ">
<path fill="none" stroke="#63b8ff" d="M1536.55,-65.94C1810.93,-41.85 1884.03,-67.02 2153,-30 2162.01,-28.76 2171.64,-26.93 2180.63,-24.99"/>
<polygon fill="#63b8ff" stroke="#63b8ff" points="1536.6,-62.42 1526.95,-66.8 1537.22,-69.39 1536.6,-62.42"/>
</a>
</g>
</g>
<!-- Node23 -->
<g id="Node000023" class="node">
<title>Node23</title>
<g id="a_Node000023"><a xlink:href="../../d5/da4/popup_8c.html" target="_top" xlink:title="Functions to create the OpenGL window popup menus:">
<polygon fill="white" stroke="#666666" points="2390.5,-24.5 2289.5,-24.5 2289.5,-5.5 2390.5,-5.5 2390.5,-24.5"/>
<text text-anchor="middle" x="2340" y="-12.5" font-family="Helvetica,sans-Serif" font-size="10.00">opengl/win/popup.c</text>
</a>
</g>
</g>
<!-- Node5&#45;&gt;Node23 -->
<g id="edge22_Node000005_Node000023" class="edge">
<title>Node5&#45;&gt;Node23</title>
<g id="a_edge22_Node000005_Node000023"><a xlink:title=" ">
<path fill="none" stroke="#63b8ff" d="M1536.81,-65.93C1867.71,-38.55 1956.03,-75.99 2281,-30 2289.55,-28.79 2298.67,-26.92 2307.13,-24.93"/>
<polygon fill="#63b8ff" stroke="#63b8ff" points="1536.62,-62.44 1526.95,-66.77 1537.2,-69.41 1536.62,-62.44"/>
</a>
</g>
</g>
<!-- Node24 -->
<g id="Node000024" class="node">
<title>Node24</title>
<g id="a_Node000024"><a xlink:href="../../de/dc7/w__search_8c.html" target="_top" xlink:title="Functions to create the object search widgets, for:">
<polygon fill="white" stroke="#666666" points="2525,-24.5 2409,-24.5 2409,-5.5 2525,-5.5 2525,-24.5"/>
<text text-anchor="middle" x="2467" y="-12.5" font-family="Helvetica,sans-Serif" font-size="10.00">opengl/win/w_search.c</text>
</a>
</g>
</g>
<!-- Node5&#45;&gt;Node24 -->
<g id="edge23_Node000005_Node000024" class="edge">
<title>Node5&#45;&gt;Node24</title>
<g id="a_edge23_Node000005_Node000024"><a xlink:title=" ">
<path fill="none" stroke="#63b8ff" d="M1536.87,-65.94C1920.46,-35.28 2021.9,-77.05 2400,-30 2409.67,-28.8 2420.02,-26.93 2429.62,-24.94"/>
<polygon fill="#63b8ff" stroke="#63b8ff" points="1536.63,-62.45 1526.94,-66.75 1537.19,-69.42 1536.63,-62.45"/>
</a>
</g>
</g>
<!-- Node25 -->
<g id="Node000025" class="node">
<title>Node25</title>
<g id="a_Node000025"><a xlink:href="../../d8/de9/w__volumes_8c.html" target="_top" xlink:title="Functions to create the &#39;Volumes&#39; window &#160;&#160;Functions to compute system / fragment / molecular volumes...">
<polygon fill="white" stroke="#666666" points="2667,-24.5 2543,-24.5 2543,-5.5 2667,-5.5 2667,-24.5"/>
<text text-anchor="middle" x="2605" y="-12.5" font-family="Helvetica,sans-Serif" font-size="10.00">opengl/win/w_volumes.c</text>
</a>
</g>
</g>
<!-- Node5&#45;&gt;Node25 -->
<g id="edge24_Node000005_Node000025" class="edge">
<title>Node5&#45;&gt;Node25</title>
<g id="a_edge24_Node000005_Node000025"><a xlink:title=" ">
<path fill="none" stroke="#63b8ff" d="M1536.63,-65.97C1979.82,-31.64 2096.33,-80.71 2534,-30 2544.23,-28.81 2555.2,-26.95 2565.37,-24.97"/>
<polygon fill="#63b8ff" stroke="#63b8ff" points="1536.64,-62.46 1526.94,-66.73 1537.19,-69.43 1536.64,-62.46"/>
</a>
</g>
</g>
<!-- Node26 -->
<g id="Node000026" class="node">
<title>Node26</title>
<g id="a_Node000026"><a xlink:href="../../d8/d50/read__cif_8c.html" target="_top" xlink:title="Functions to read CIF files.">
<polygon fill="white" stroke="#666666" points="2788.5,-30 2685.5,-30 2685.5,0 2788.5,0 2788.5,-30"/>
<text text-anchor="start" x="2693.5" y="-18" font-family="Helvetica,sans-Serif" font-size="10.00">project/readers/read</text>
<text text-anchor="middle" x="2737" y="-7" font-family="Helvetica,sans-Serif" font-size="10.00">_cif.c</text>
</a>
</g>
</g>
<!-- Node5&#45;&gt;Node26 -->
<g id="edge25_Node000005_Node000026" class="edge">
<title>Node5&#45;&gt;Node26</title>
<g id="a_edge25_Node000005_Node000026"><a xlink:title=" ">
<path fill="none" stroke="#63b8ff" d="M1536.7,-65.97C2042.81,-27.93 2176.51,-94.58 2676,-30 2679.02,-29.61 2682.1,-29.14 2685.21,-28.61"/>
<polygon fill="#63b8ff" stroke="#63b8ff" points="1536.65,-62.46 1526.94,-66.72 1537.18,-69.44 1536.65,-62.46"/>
</a>
</g>
</g>
</g>
</svg>
