<?xml version="1.0" encoding="UTF-8" standalone="no"?>
<!DOCTYPE svg PUBLIC "-//W3C//DTD SVG 1.1//EN"
 "http://www.w3.org/Graphics/SVG/1.1/DTD/svg11.dtd">
<!-- Generated by graphviz version 2.43.0 (0)
 -->
<!-- Title: /home/slookeur/files/codeblocks&#45;files/atomes/src/curve/show.c Pages: 1 -->
<!--zoomable 269 -->

<svg id="main" version="1.1" xmlns="http://www.w3.org/2000/svg" xmlns:xlink="http://www.w3.org/1999/xlink" xml:space="preserve" onload="init(evt)">
<style type="text/css"><![CDATA[
.node, .edge {opacity: 0.7;}
.node.selected, .edge.selected {opacity: 1;}
.edge:hover path { stroke: red; }
.edge:hover polygon { stroke: red; fill: red; }
]]></style>

<defs>
  <circle id="rim" cx="0" cy="0" r="7"/>
  <circle id="rim2" cx="0" cy="0" r="3.5"/>
  <g id="zoomPlus">
    <use xlink:href="#rim" fill="#404040"><set attributeName="fill" to="#808080" begin="zoomplus.mouseover" end="zoomplus.mouseout"/></use>
    <path d="M-4,0h8M0,-4v8" fill="none" stroke="white" stroke-width="1.5" pointer-events="none"/>
  </g>
  <g id="zoomMin">
    <use xlink:href="#rim" fill="#404040"><set attributeName="fill" to="#808080" begin="zoomminus.mouseover" end="zoomminus.mouseout"/></use>
    <path d="M-4,0h8" fill="none" stroke="white" stroke-width="1.5" pointer-events="none"/>
  </g>
  <g id="arrowUp" transform="translate(30 24)">
    <use xlink:href="#rim"/>
    <path pointer-events="none" fill="none" stroke="white" stroke-width="1.5" d="M0,-3.0v7 M-2.5,-0.5L0,-3.0L2.5,-0.5"/>
  </g>
  <g id="arrowRight" transform="rotate(90) translate(36 -43)">
    <use xlink:href="#rim"/>
    <path pointer-events="none" fill="none" stroke="white" stroke-width="1.5" d="M0,-3.0v7 M-2.5,-0.5L0,-3.0L2.5,-0.5"/>
  </g>
  <g id="arrowDown" transform="rotate(180) translate(-30 -48)">
    <use xlink:href="#rim"/>
    <path pointer-events="none" fill="none" stroke="white" stroke-width="1.5" d="M0,-3.0v7 M-2.5,-0.5L0,-3.0L2.5,-0.5"/>
  </g>
  <g id="arrowLeft" transform="rotate(270) translate(-36 17)">
    <use xlink:href="#rim"/>
    <path pointer-events="none" fill="none" stroke="white" stroke-width="1.5" d="M0,-3.0v7 M-2.5,-0.5L0,-3.0L2.5,-0.5"/>
  </g>
  <g id="resetDef">
    <use xlink:href="#rim2" fill="#404040"><set attributeName="fill" to="#808080" begin="reset.mouseover" end="reset.mouseout"/></use>
  </g>
</defs>
<script type="application/ecmascript">
var viewWidth = 1735;
var viewHeight = 269;
var sectionId = 'dynsection-0';
</script>
<script type="application/ecmascript" xlink:href="../../svg.min.js"/>
<svg id="graph" class="graph">
<g id="viewport">
<title>/home/slookeur/files/codeblocks&#45;files/atomes/src/curve/show.c</title>
<!-- Node1 -->
<g id="Node000001" class="node">
<title>Node1</title>
<g id="a_Node000001"><a xlink:title="Functions to draw the complete graph.">
<polygon fill="#999999" stroke="#666666" points="596,-261 458,-261 458,-220 596,-220 596,-261"/>
<text text-anchor="start" x="466" y="-249" font-family="Helvetica,sans-Serif" font-size="10.00">/home/slookeur/files</text>
<text text-anchor="start" x="466" y="-238" font-family="Helvetica,sans-Serif" font-size="10.00">/codeblocks&#45;files/atomes</text>
<text text-anchor="middle" x="527" y="-227" font-family="Helvetica,sans-Serif" font-size="10.00">/src/curve/show.c</text>
</a>
</g>
</g>
<!-- Node2 -->
<g id="Node000002" class="node">
<title>Node2</title>
<g id="a_Node000002"><a xlink:title=" ">
<polygon fill="#e0e0e0" stroke="#999999" points="60,-74 0,-74 0,-55 60,-55 60,-74"/>
<text text-anchor="middle" x="30" y="-62" font-family="Helvetica,sans-Serif" font-size="10.00">gtk/gtk.h</text>
</a>
</g>
</g>
<!-- Node1&#45;&gt;Node2 -->
<g id="edge1_Node000001_Node000002" class="edge">
<title>Node1&#45;&gt;Node2</title>
<g id="a_edge1_Node000001_Node000002"><a xlink:title=" ">
<path fill="none" stroke="#63b8ff" d="M457.55,-221.63C419.83,-211.48 372.55,-198.02 331,-184 229.77,-149.83 112.77,-101.01 59.34,-78.18"/>
<polygon fill="#63b8ff" stroke="#63b8ff" points="60.4,-74.82 49.83,-74.1 57.64,-81.25 60.4,-74.82"/>
</a>
</g>
</g>
<!-- Node3 -->
<g id="Node000003" class="node">
<title>Node3</title>
<g id="a_Node000003"><a xlink:title=" ">
<polygon fill="#e0e0e0" stroke="#999999" points="390,-184 340,-184 340,-165 390,-165 390,-184"/>
<text text-anchor="middle" x="365" y="-172" font-family="Helvetica,sans-Serif" font-size="10.00">cairo.h</text>
</a>
</g>
</g>
<!-- Node1&#45;&gt;Node3 -->
<g id="edge2_Node000001_Node000003" class="edge">
<title>Node1&#45;&gt;Node3</title>
<g id="a_edge2_Node000001_Node000003"><a xlink:title=" ">
<path fill="none" stroke="#63b8ff" d="M477.51,-219.95C451.09,-209.51 419.37,-196.98 396.35,-187.88"/>
<polygon fill="#63b8ff" stroke="#63b8ff" points="397.33,-184.51 386.75,-184.09 394.76,-191.02 397.33,-184.51"/>
</a>
</g>
</g>
<!-- Node4 -->
<g id="Node000004" class="node">
<title>Node4</title>
<g id="a_Node000004"><a xlink:title=" ">
<polygon fill="#e0e0e0" stroke="#999999" points="476,-184 408,-184 408,-165 476,-165 476,-184"/>
<text text-anchor="middle" x="442" y="-172" font-family="Helvetica,sans-Serif" font-size="10.00">cairo&#45;pdf.h</text>
</a>
</g>
</g>
<!-- Node1&#45;&gt;Node4 -->
<g id="edge3_Node000001_Node000004" class="edge">
<title>Node1&#45;&gt;Node4</title>
<g id="a_edge3_Node000001_Node000004"><a xlink:title=" ">
<path fill="none" stroke="#63b8ff" d="M501.04,-219.95C488.43,-210.46 473.53,-199.24 461.85,-190.44"/>
<polygon fill="#63b8ff" stroke="#63b8ff" points="463.73,-187.48 453.64,-184.26 459.52,-193.07 463.73,-187.48"/>
</a>
</g>
</g>
<!-- Node5 -->
<g id="Node000005" class="node">
<title>Node5</title>
<g id="a_Node000005"><a xlink:title=" ">
<polygon fill="#e0e0e0" stroke="#999999" points="559.5,-184 494.5,-184 494.5,-165 559.5,-165 559.5,-184"/>
<text text-anchor="middle" x="527" y="-172" font-family="Helvetica,sans-Serif" font-size="10.00">cairo&#45;ps.h</text>
</a>
</g>
</g>
<!-- Node1&#45;&gt;Node5 -->
<g id="edge4_Node000001_Node000005" class="edge">
<title>Node1&#45;&gt;Node5</title>
<g id="a_edge4_Node000001_Node000005"><a xlink:title=" ">
<path fill="none" stroke="#63b8ff" d="M527,-219.95C527,-211.85 527,-202.5 527,-194.47"/>
<polygon fill="#63b8ff" stroke="#63b8ff" points="530.5,-194.26 527,-184.26 523.5,-194.26 530.5,-194.26"/>
</a>
</g>
</g>
<!-- Node6 -->
<g id="Node000006" class="node">
<title>Node6</title>
<g id="a_Node000006"><a xlink:title=" ">
<polygon fill="#e0e0e0" stroke="#999999" points="648.5,-184 577.5,-184 577.5,-165 648.5,-165 648.5,-184"/>
<text text-anchor="middle" x="613" y="-172" font-family="Helvetica,sans-Serif" font-size="10.00">cairo&#45;svg.h</text>
</a>
</g>
</g>
<!-- Node1&#45;&gt;Node6 -->
<g id="edge5_Node000001_Node000006" class="edge">
<title>Node1&#45;&gt;Node6</title>
<g id="a_edge5_Node000001_Node000006"><a xlink:title=" ">
<path fill="none" stroke="#63b8ff" d="M553.27,-219.95C566.02,-210.46 581.1,-199.24 592.92,-190.44"/>
<polygon fill="#63b8ff" stroke="#63b8ff" points="595.3,-193.04 601.23,-184.26 591.12,-187.42 595.3,-193.04"/>
</a>
</g>
</g>
<!-- Node7 -->
<g id="Node000007" class="node">
<title>Node7</title>
<g id="a_Node000007"><a xlink:href="../../d2/d49/global_8h.html" target="_top" xlink:title="Global variable declarations &#160;&#160;Global convenience function declarations &#160;&#160;Global data structure defin...">
<polygon fill="white" stroke="#666666" points="776,-129 720,-129 720,-110 776,-110 776,-129"/>
<text text-anchor="middle" x="748" y="-117" font-family="Helvetica,sans-Serif" font-size="10.00">global.h</text>
</a>
</g>
</g>
<!-- Node1&#45;&gt;Node7 -->
<g id="edge6_Node000001_Node000007" class="edge">
<title>Node1&#45;&gt;Node7</title>
<g id="a_edge6_Node000001_Node000007"><a xlink:title=" ">
<path fill="none" stroke="#63b8ff" d="M596.19,-237.03C639.64,-231.88 693.89,-218.32 729,-184 740.95,-172.32 745.45,-153.46 747.12,-139.33"/>
<polygon fill="#63b8ff" stroke="#63b8ff" points="750.62,-139.48 747.93,-129.23 743.64,-138.92 750.62,-139.48"/>
</a>
</g>
</g>
<!-- Node29 -->
<g id="Node000029" class="node">
<title>Node29</title>
<g id="a_Node000029"><a xlink:href="../../df/de9/curve_8h.html" target="_top" xlink:title="Variable declarations for the curve widget &#160;&#160;Functions for interactions with the curve widget.">
<polygon fill="white" stroke="#666666" points="719.5,-184 666.5,-184 666.5,-165 719.5,-165 719.5,-184"/>
<text text-anchor="middle" x="693" y="-172" font-family="Helvetica,sans-Serif" font-size="10.00">curve.h</text>
</a>
</g>
</g>
<!-- Node1&#45;&gt;Node29 -->
<g id="edge31_Node000001_Node000029" class="edge">
<title>Node1&#45;&gt;Node29</title>
<g id="a_edge31_Node000001_Node000029"><a xlink:title=" ">
<path fill="none" stroke="#63b8ff" d="M577.71,-219.95C604.91,-209.46 637.58,-196.87 661.19,-187.76"/>
<polygon fill="#63b8ff" stroke="#63b8ff" points="662.64,-190.95 670.71,-184.09 660.13,-184.42 662.64,-190.95"/>
</a>
</g>
</g>
<!-- Node7&#45;&gt;Node2 -->
<g id="edge17_Node000007_Node000002" class="edge">
<title>Node7&#45;&gt;Node2</title>
<g id="a_edge17_Node000007_Node000002"><a xlink:title=" ">
<path fill="none" stroke="#63b8ff" d="M719.71,-118.15C627.52,-116.71 327.38,-109.51 70.06,-73.92"/>
<polygon fill="#63b8ff" stroke="#63b8ff" points="70.54,-70.46 60.15,-72.54 69.57,-77.39 70.54,-70.46"/>
</a>
</g>
</g>
<!-- Node8 -->
<g id="Node000008" class="node">
<title>Node8</title>
<g id="a_Node000008"><a xlink:title=" ">
<polygon fill="#e0e0e0" stroke="#999999" points="1727,-74 1683,-74 1683,-55 1727,-55 1727,-74"/>
<text text-anchor="middle" x="1705" y="-62" font-family="Helvetica,sans-Serif" font-size="10.00">glib.h</text>
</a>
</g>
</g>
<!-- Node7&#45;&gt;Node8 -->
<g id="edge7_Node000007_Node000008" class="edge">
<title>Node7&#45;&gt;Node8</title>
<g id="a_edge7_Node000007_Node000008"><a xlink:title=" ">
<path fill="none" stroke="#63b8ff" d="M776.22,-117.98C909.2,-115.4 1474.79,-102.99 1672.79,-73.76"/>
<polygon fill="#63b8ff" stroke="#63b8ff" points="1673.43,-77.2 1682.78,-72.22 1672.36,-70.29 1673.43,-77.2"/>
</a>
</g>
</g>
<!-- Node9 -->
<g id="Node000009" class="node">
<title>Node9</title>
<g id="a_Node000009"><a xlink:title=" ">
<polygon fill="#e0e0e0" stroke="#999999" points="152,-74 78,-74 78,-55 152,-55 152,-74"/>
<text text-anchor="middle" x="115" y="-62" font-family="Helvetica,sans-Serif" font-size="10.00">glib/gi18n.h</text>
</a>
</g>
</g>
<!-- Node7&#45;&gt;Node9 -->
<g id="edge8_Node000007_Node000009" class="edge">
<title>Node7&#45;&gt;Node9</title>
<g id="a_edge8_Node000007_Node000009"><a xlink:title=" ">
<path fill="none" stroke="#63b8ff" d="M719.79,-117.43C636.24,-114.05 382.68,-102.15 162.24,-74.02"/>
<polygon fill="#63b8ff" stroke="#63b8ff" points="162.47,-70.52 152.1,-72.71 161.57,-77.46 162.47,-70.52"/>
</a>
</g>
</g>
<!-- Node10 -->
<g id="Node000010" class="node">
<title>Node10</title>
<g id="a_Node000010"><a xlink:title=" ">
<polygon fill="#e0e0e0" stroke="#999999" points="225.5,-74 170.5,-74 170.5,-55 225.5,-55 225.5,-74"/>
<text text-anchor="middle" x="198" y="-62" font-family="Helvetica,sans-Serif" font-size="10.00">locale.h</text>
</a>
</g>
</g>
<!-- Node7&#45;&gt;Node10 -->
<g id="edge9_Node000007_Node000010" class="edge">
<title>Node7&#45;&gt;Node10</title>
<g id="a_edge9_Node000007_Node000010"><a xlink:title=" ">
<path fill="none" stroke="#63b8ff" d="M719.75,-117.43C643.33,-114.25 426.06,-103.27 235.7,-73.87"/>
<polygon fill="#63b8ff" stroke="#63b8ff" points="236.22,-70.41 225.8,-72.32 235.14,-77.33 236.22,-70.41"/>
</a>
</g>
</g>
<!-- Node11 -->
<g id="Node000011" class="node">
<title>Node11</title>
<g id="a_Node000011"><a xlink:title=" ">
<polygon fill="#e0e0e0" stroke="#999999" points="300,-74 244,-74 244,-55 300,-55 300,-74"/>
<text text-anchor="middle" x="272" y="-62" font-family="Helvetica,sans-Serif" font-size="10.00">unistd.h</text>
</a>
</g>
</g>
<!-- Node7&#45;&gt;Node11 -->
<g id="edge10_Node000007_Node000011" class="edge">
<title>Node7&#45;&gt;Node11</title>
<g id="a_edge10_Node000007_Node000011"><a xlink:title=" ">
<path fill="none" stroke="#63b8ff" d="M719.85,-116.87C651.39,-112.64 470.62,-99.93 310.25,-74.01"/>
<polygon fill="#63b8ff" stroke="#63b8ff" points="310.64,-70.53 300.21,-72.36 309.51,-77.43 310.64,-70.53"/>
</a>
</g>
</g>
<!-- Node12 -->
<g id="Node000012" class="node">
<title>Node12</title>
<g id="a_Node000012"><a xlink:title=" ">
<polygon fill="#e0e0e0" stroke="#999999" points="371.5,-74 318.5,-74 318.5,-55 371.5,-55 371.5,-74"/>
<text text-anchor="middle" x="345" y="-62" font-family="Helvetica,sans-Serif" font-size="10.00">string.h</text>
</a>
</g>
</g>
<!-- Node7&#45;&gt;Node12 -->
<g id="edge11_Node000007_Node000012" class="edge">
<title>Node7&#45;&gt;Node12</title>
<g id="a_edge11_Node000007_Node000012"><a xlink:title=" ">
<path fill="none" stroke="#63b8ff" d="M719.72,-115.82C658.6,-109.86 509.7,-94.39 386,-74 384.71,-73.79 383.4,-73.56 382.07,-73.33"/>
<polygon fill="#63b8ff" stroke="#63b8ff" points="382.32,-69.81 371.85,-71.39 381.02,-76.69 382.32,-69.81"/>
</a>
</g>
</g>
<!-- Node13 -->
<g id="Node000013" class="node">
<title>Node13</title>
<g id="a_Node000013"><a xlink:title=" ">
<polygon fill="#e0e0e0" stroke="#999999" points="637,-19 587,-19 587,0 637,0 637,-19"/>
<text text-anchor="middle" x="612" y="-7" font-family="Helvetica,sans-Serif" font-size="10.00">stdio.h</text>
</a>
</g>
</g>
<!-- Node7&#45;&gt;Node13 -->
<g id="edge12_Node000007_Node000013" class="edge">
<title>Node7&#45;&gt;Node13</title>
<g id="a_edge12_Node000007_Node000013"><a xlink:title=" ">
<path fill="none" stroke="#63b8ff" d="M719.99,-119.18C647.75,-120.28 458.11,-118.76 419,-74 373.72,-22.19 509.5,-12.47 576.7,-10.77"/>
<polygon fill="#63b8ff" stroke="#63b8ff" points="576.94,-14.27 586.86,-10.57 576.79,-7.27 576.94,-14.27"/>
</a>
</g>
</g>
<!-- Node14 -->
<g id="Node000014" class="node">
<title>Node14</title>
<g id="a_Node000014"><a xlink:title=" ">
<polygon fill="#e0e0e0" stroke="#999999" points="481.5,-74 428.5,-74 428.5,-55 481.5,-55 481.5,-74"/>
<text text-anchor="middle" x="455" y="-62" font-family="Helvetica,sans-Serif" font-size="10.00">stdlib.h</text>
</a>
</g>
</g>
<!-- Node7&#45;&gt;Node14 -->
<g id="edge13_Node000007_Node000014" class="edge">
<title>Node7&#45;&gt;Node14</title>
<g id="a_edge13_Node000007_Node000014"><a xlink:title=" ">
<path fill="none" stroke="#63b8ff" d="M719.75,-114.18C674.04,-107.07 580.8,-92.05 491.7,-74.03"/>
<polygon fill="#63b8ff" stroke="#63b8ff" points="492.19,-70.56 481.7,-71.99 490.8,-77.42 492.19,-70.56"/>
</a>
</g>
</g>
<!-- Node15 -->
<g id="Node000015" class="node">
<title>Node15</title>
<g id="a_Node000015"><a xlink:title=" ">
<polygon fill="#e0e0e0" stroke="#999999" points="572,-74 500,-74 500,-55 572,-55 572,-74"/>
<text text-anchor="middle" x="536" y="-62" font-family="Helvetica,sans-Serif" font-size="10.00">sys/types.h</text>
</a>
</g>
</g>
<!-- Node7&#45;&gt;Node15 -->
<g id="edge14_Node000007_Node000015" class="edge">
<title>Node7&#45;&gt;Node15</title>
<g id="a_edge14_Node000007_Node000015"><a xlink:title=" ">
<path fill="none" stroke="#63b8ff" d="M719.85,-111.46C684.16,-102.54 622.23,-87.06 580.2,-76.55"/>
<polygon fill="#63b8ff" stroke="#63b8ff" points="580.79,-73.09 570.24,-74.06 579.09,-79.88 580.79,-73.09"/>
</a>
</g>
</g>
<!-- Node16 -->
<g id="Node000016" class="node">
<title>Node16</title>
<g id="a_Node000016"><a xlink:title=" ">
<polygon fill="#e0e0e0" stroke="#999999" points="654,-74 590,-74 590,-55 654,-55 654,-74"/>
<text text-anchor="middle" x="622" y="-62" font-family="Helvetica,sans-Serif" font-size="10.00">sys/stat.h</text>
</a>
</g>
</g>
<!-- Node7&#45;&gt;Node16 -->
<g id="edge15_Node000007_Node000016" class="edge">
<title>Node7&#45;&gt;Node16</title>
<g id="a_edge15_Node000007_Node000016"><a xlink:title=" ">
<path fill="none" stroke="#63b8ff" d="M727.76,-109.98C707.3,-101.38 675.47,-87.99 652.07,-78.15"/>
<polygon fill="#63b8ff" stroke="#63b8ff" points="653.19,-74.82 642.61,-74.17 650.47,-81.27 653.19,-74.82"/>
</a>
</g>
</g>
<!-- Node17 -->
<g id="Node000017" class="node">
<title>Node17</title>
<g id="a_Node000017"><a xlink:title=" ">
<polygon fill="#e0e0e0" stroke="#999999" points="824.5,-19 773.5,-19 773.5,0 824.5,0 824.5,-19"/>
<text text-anchor="middle" x="799" y="-7" font-family="Helvetica,sans-Serif" font-size="10.00">math.h</text>
</a>
</g>
</g>
<!-- Node7&#45;&gt;Node17 -->
<g id="edge16_Node000007_Node000017" class="edge">
<title>Node7&#45;&gt;Node17</title>
<g id="a_edge16_Node000007_Node000017"><a xlink:title=" ">
<path fill="none" stroke="#63b8ff" d="M776.16,-117.86C907.82,-114.74 1457.36,-100.18 1482,-74 1487.79,-67.85 1487.77,-61.16 1482,-55 1437.5,-7.51 969.02,-8.71 834.77,-10.05"/>
<polygon fill="#63b8ff" stroke="#63b8ff" points="834.57,-6.55 824.61,-10.15 834.65,-13.55 834.57,-6.55"/>
</a>
</g>
</g>
<!-- Node18 -->
<g id="Node000018" class="node">
<title>Node18</title>
<g id="a_Node000018"><a xlink:title=" ">
<polygon fill="#e0e0e0" stroke="#999999" points="823.5,-74 758.5,-74 758.5,-55 823.5,-55 823.5,-74"/>
<text text-anchor="middle" x="791" y="-62" font-family="Helvetica,sans-Serif" font-size="10.00">gdk/gdk.h</text>
</a>
</g>
</g>
<!-- Node7&#45;&gt;Node18 -->
<g id="edge18_Node000007_Node000018" class="edge">
<title>Node7&#45;&gt;Node18</title>
<g id="a_edge18_Node000007_Node000018"><a xlink:title=" ">
<path fill="none" stroke="#63b8ff" d="M755.1,-109.75C761.17,-102.26 770.09,-91.28 777.51,-82.13"/>
<polygon fill="#63b8ff" stroke="#63b8ff" points="780.45,-84.06 784.03,-74.09 775.01,-79.65 780.45,-84.06"/>
</a>
</g>
</g>
<!-- Node19 -->
<g id="Node000019" class="node">
<title>Node19</title>
<g id="a_Node000019"><a xlink:title=" ">
<polygon fill="#e0e0e0" stroke="#999999" points="950,-74 842,-74 842,-55 950,-55 950,-74"/>
<text text-anchor="middle" x="896" y="-62" font-family="Helvetica,sans-Serif" font-size="10.00">gdk/gdkkeysyms.h</text>
</a>
</g>
</g>
<!-- Node7&#45;&gt;Node19 -->
<g id="edge19_Node000007_Node000019" class="edge">
<title>Node7&#45;&gt;Node19</title>
<g id="a_edge19_Node000007_Node000019"><a xlink:title=" ">
<path fill="none" stroke="#63b8ff" d="M771.78,-109.98C796.23,-101.23 834.53,-87.51 862.15,-77.62"/>
<polygon fill="#63b8ff" stroke="#63b8ff" points="863.55,-80.84 871.79,-74.17 861.19,-74.25 863.55,-80.84"/>
</a>
</g>
</g>
<!-- Node20 -->
<g id="Node000020" class="node">
<title>Node20</title>
<g id="a_Node000020"><a xlink:title=" ">
<polygon fill="#e0e0e0" stroke="#999999" points="1101.5,-74 968.5,-74 968.5,-55 1101.5,-55 1101.5,-74"/>
<text text-anchor="middle" x="1035" y="-62" font-family="Helvetica,sans-Serif" font-size="10.00">gdk&#45;pixbuf/gdk&#45;pixbuf.h</text>
</a>
</g>
</g>
<!-- Node7&#45;&gt;Node20 -->
<g id="edge20_Node000007_Node000020" class="edge">
<title>Node7&#45;&gt;Node20</title>
<g id="a_edge20_Node000007_Node000020"><a xlink:title=" ">
<path fill="none" stroke="#63b8ff" d="M776.04,-113.32C822.87,-104.67 917.86,-87.13 978.86,-75.87"/>
<polygon fill="#63b8ff" stroke="#63b8ff" points="979.52,-79.31 988.71,-74.05 978.25,-72.42 979.52,-79.31"/>
</a>
</g>
</g>
<!-- Node21 -->
<g id="Node000021" class="node">
<title>Node21</title>
<g id="a_Node000021"><a xlink:title=" ">
<polygon fill="#e0e0e0" stroke="#999999" points="1220.5,-74 1119.5,-74 1119.5,-55 1220.5,-55 1220.5,-74"/>
<text text-anchor="middle" x="1170" y="-62" font-family="Helvetica,sans-Serif" font-size="10.00">pango/pangoft2.h</text>
</a>
</g>
</g>
<!-- Node7&#45;&gt;Node21 -->
<g id="edge21_Node000007_Node000021" class="edge">
<title>Node7&#45;&gt;Node21</title>
<g id="a_edge21_Node000007_Node000021"><a xlink:title=" ">
<path fill="none" stroke="#63b8ff" d="M776.27,-115.24C835.83,-108.33 978.88,-91.5 1109.31,-74.2"/>
<polygon fill="#63b8ff" stroke="#63b8ff" points="1110.03,-77.64 1119.48,-72.85 1109.1,-70.7 1110.03,-77.64"/>
</a>
</g>
</g>
<!-- Node22 -->
<g id="Node000022" class="node">
<title>Node22</title>
<g id="a_Node000022"><a xlink:title=" ">
<polygon fill="#e0e0e0" stroke="#999999" points="1307,-74 1239,-74 1239,-55 1307,-55 1307,-74"/>
<text text-anchor="middle" x="1273" y="-62" font-family="Helvetica,sans-Serif" font-size="10.00">epoxy/gl.h</text>
</a>
</g>
</g>
<!-- Node7&#45;&gt;Node22 -->
<g id="edge22_Node000007_Node000022" class="edge">
<title>Node7&#45;&gt;Node22</title>
<g id="a_edge22_Node000007_Node000022"><a xlink:title=" ">
<path fill="none" stroke="#63b8ff" d="M776.1,-116.92C849.08,-112.61 1050.79,-99.31 1228.72,-74.04"/>
<polygon fill="#63b8ff" stroke="#63b8ff" points="1229.39,-77.48 1238.79,-72.59 1228.39,-70.55 1229.39,-77.48"/>
</a>
</g>
</g>
<!-- Node23 -->
<g id="Node000023" class="node">
<title>Node23</title>
<g id="a_Node000023"><a xlink:title=" ">
<polygon fill="#e0e0e0" stroke="#999999" points="1381,-74 1325,-74 1325,-55 1381,-55 1381,-74"/>
<text text-anchor="middle" x="1353" y="-62" font-family="Helvetica,sans-Serif" font-size="10.00">GL/glu.h</text>
</a>
</g>
</g>
<!-- Node7&#45;&gt;Node23 -->
<g id="edge23_Node000007_Node000023" class="edge">
<title>Node7&#45;&gt;Node23</title>
<g id="a_edge23_Node000007_Node000023"><a xlink:title=" ">
<path fill="none" stroke="#63b8ff" d="M776.24,-117.76C858.1,-115.31 1102.63,-105.79 1314.73,-73.96"/>
<polygon fill="#63b8ff" stroke="#63b8ff" points="1315.44,-77.39 1324.8,-72.43 1314.39,-70.47 1315.44,-77.39"/>
</a>
</g>
</g>
<!-- Node24 -->
<g id="Node000024" class="node">
<title>Node24</title>
<g id="a_Node000024"><a xlink:title=" ">
<polygon fill="#e0e0e0" stroke="#999999" points="1473,-74 1399,-74 1399,-55 1473,-55 1473,-74"/>
<text text-anchor="middle" x="1436" y="-62" font-family="Helvetica,sans-Serif" font-size="10.00">epoxy/glx.h</text>
</a>
</g>
</g>
<!-- Node7&#45;&gt;Node24 -->
<g id="edge24_Node000007_Node000024" class="edge">
<title>Node7&#45;&gt;Node24</title>
<g id="a_edge24_Node000007_Node000024"><a xlink:title=" ">
<path fill="none" stroke="#63b8ff" d="M776.27,-117.69C865.02,-114.89 1146.08,-104.19 1388.83,-74"/>
<polygon fill="#63b8ff" stroke="#63b8ff" points="1389.41,-77.45 1398.9,-72.73 1388.54,-70.5 1389.41,-77.45"/>
</a>
</g>
</g>
<!-- Node25 -->
<g id="Node000025" class="node">
<title>Node25</title>
<g id="a_Node000025"><a xlink:href="../../dc/db0/math__3d_8h.html" target="_top" xlink:title="Functions for OpenGL math.">
<polygon fill="white" stroke="#666666" points="740,-74 672,-74 672,-55 740,-55 740,-74"/>
<text text-anchor="middle" x="706" y="-62" font-family="Helvetica,sans-Serif" font-size="10.00">math_3d.h</text>
</a>
</g>
</g>
<!-- Node7&#45;&gt;Node25 -->
<g id="edge25_Node000007_Node000025" class="edge">
<title>Node7&#45;&gt;Node25</title>
<g id="a_edge25_Node000007_Node000025"><a xlink:title=" ">
<path fill="none" stroke="#63b8ff" d="M741.06,-109.75C735.13,-102.26 726.43,-91.28 719.18,-82.13"/>
<polygon fill="#63b8ff" stroke="#63b8ff" points="721.76,-79.75 712.81,-74.09 716.27,-84.1 721.76,-79.75"/>
</a>
</g>
</g>
<!-- Node26 -->
<g id="Node000026" class="node">
<title>Node26</title>
<g id="a_Node000026"><a xlink:href="../../da/d7e/glwin_8h.html" target="_top" xlink:title="Variable declarations related the OpenGL window &#160;&#160;Data structure declarations related the OpenGL wind...">
<polygon fill="white" stroke="#666666" points="1581,-74 1529,-74 1529,-55 1581,-55 1581,-74"/>
<text text-anchor="middle" x="1555" y="-62" font-family="Helvetica,sans-Serif" font-size="10.00">glwin.h</text>
</a>
</g>
</g>
<!-- Node7&#45;&gt;Node26 -->
<g id="edge28_Node000007_Node000026" class="edge">
<title>Node7&#45;&gt;Node26</title>
<g id="a_edge28_Node000007_Node000026"><a xlink:title=" ">
<path fill="none" stroke="#63b8ff" d="M776.01,-118.4C876.49,-117.73 1228.14,-112.57 1515,-74 1516.27,-73.83 1517.55,-73.64 1518.85,-73.44"/>
<polygon fill="#63b8ff" stroke="#63b8ff" points="1519.62,-76.86 1528.85,-71.65 1518.39,-69.97 1519.62,-76.86"/>
</a>
</g>
</g>
<!-- Node28 -->
<g id="Node000028" class="node">
<title>Node28</title>
<g id="a_Node000028"><a xlink:title=" ">
<polygon fill="#e0e0e0" stroke="#999999" points="1665,-74 1599,-74 1599,-55 1665,-55 1665,-74"/>
<text text-anchor="middle" x="1632" y="-62" font-family="Helvetica,sans-Serif" font-size="10.00">gtk/gtkx.h</text>
</a>
</g>
</g>
<!-- Node7&#45;&gt;Node28 -->
<g id="edge30_Node000007_Node000028" class="edge">
<title>Node7&#45;&gt;Node28</title>
<g id="a_edge30_Node000007_Node000028"><a xlink:title=" ">
<path fill="none" stroke="#63b8ff" d="M776.12,-118.51C881.67,-118.23 1264.37,-114.4 1588.55,-73.99"/>
<polygon fill="#63b8ff" stroke="#63b8ff" points="1589.12,-77.44 1598.6,-72.72 1588.24,-70.5 1589.12,-77.44"/>
</a>
</g>
</g>
<!-- Node25&#45;&gt;Node13 -->
<g id="edge27_Node000025_Node000013" class="edge">
<title>Node25&#45;&gt;Node13</title>
<g id="a_edge27_Node000025_Node000013"><a xlink:title=" ">
<path fill="none" stroke="#63b8ff" d="M690.9,-54.98C676.18,-46.69 653.58,-33.94 636.33,-24.22"/>
<polygon fill="#63b8ff" stroke="#63b8ff" points="637.81,-21.03 627.38,-19.17 634.37,-27.13 637.81,-21.03"/>
</a>
</g>
</g>
<!-- Node25&#45;&gt;Node17 -->
<g id="edge26_Node000025_Node000017" class="edge">
<title>Node25&#45;&gt;Node17</title>
<g id="a_edge26_Node000025_Node000017"><a xlink:title=" ">
<path fill="none" stroke="#63b8ff" d="M720.94,-54.98C735.5,-46.69 757.87,-33.94 774.93,-24.22"/>
<polygon fill="#63b8ff" stroke="#63b8ff" points="776.83,-27.16 783.79,-19.17 773.36,-21.08 776.83,-27.16"/>
</a>
</g>
</g>
<!-- Node27 -->
<g id="Node000027" class="node">
<title>Node27</title>
<g id="a_Node000027"><a xlink:href="../../d5/d9e/ogl__shading_8h.html" target="_top" xlink:title="Variable declarations related to GLSL programs &#160;&#160;Data structure declarations related to GLSL programs...">
<polygon fill="white" stroke="#666666" points="1597,-19 1513,-19 1513,0 1597,0 1597,-19"/>
<text text-anchor="middle" x="1555" y="-7" font-family="Helvetica,sans-Serif" font-size="10.00">ogl_shading.h</text>
</a>
</g>
</g>
<!-- Node26&#45;&gt;Node27 -->
<g id="edge29_Node000026_Node000027" class="edge">
<title>Node26&#45;&gt;Node27</title>
<g id="a_edge29_Node000026_Node000027"><a xlink:title=" ">
<path fill="none" stroke="#63b8ff" d="M1555,-54.75C1555,-47.8 1555,-37.85 1555,-29.13"/>
<polygon fill="#63b8ff" stroke="#63b8ff" points="1558.5,-29.09 1555,-19.09 1551.5,-29.09 1558.5,-29.09"/>
</a>
</g>
</g>
<!-- Node29&#45;&gt;Node7 -->
<g id="edge32_Node000029_Node000007" class="edge">
<title>Node29&#45;&gt;Node7</title>
<g id="a_edge32_Node000029_Node000007"><a xlink:title=" ">
<path fill="none" stroke="#63b8ff" d="M702.08,-164.75C710.09,-157.03 721.96,-145.6 731.62,-136.28"/>
<polygon fill="#63b8ff" stroke="#63b8ff" points="734.31,-138.55 739.09,-129.09 729.46,-133.51 734.31,-138.55"/>
</a>
</g>
</g>
</g>
</svg>

<g id="navigator" transform="translate(0 0)" fill="#404254">
  <rect fill="#f2f5e9" fill-opacity="0.5" stroke="#606060" stroke-width=".5" x="0" y="0" width="60" height="60"/>
  <use id="zoomplus" xlink:href="#zoomPlus" x="17" y="9" onmousedown="handleZoom(evt,'in')"/>
  <use id="zoomminus" xlink:href="#zoomMin" x="42" y="9" onmousedown="handleZoom(evt,'out')"/>
  <use id="reset" xlink:href="#resetDef" x="30" y="36" onmousedown="handleReset()"/>
   <use id="arrowup" xlink:href="#arrowUp" x="0" y="0" onmousedown="handlePan(0,-1)"/>
  <use id="arrowright" xlink:href="#arrowRight" x="0" y="0" onmousedown="handlePan(1,0)"/>
  <use id="arrowdown" xlink:href="#arrowDown" x="0" y="0" onmousedown="handlePan(0,1)"/>
  <use id="arrowleft" xlink:href="#arrowLeft" x="0" y="0" onmousedown="handlePan(-1,0)"/>
</g>
<svg viewBox="0 0 15 15" width="100%" height="30px" preserveAspectRatio="xMaxYMin meet">
 <g id="arrow_out" transform="scale(0.3 0.3)">
  <a xlink:href="show_8c__incl_org.svg" target="_base">
   <rect id="button" ry="5" rx="5" y="6" x="6" height="38" width="38"
        fill="#f2f5e9" fill-opacity="0.5" stroke="#606060" stroke-width="1.0"/>
   <path id="arrow"
     d="M 11.500037,31.436501 C 11.940474,20.09759 22.043105,11.32322 32.158766,21.979434 L 37.068811,17.246167 C 37.068811,17.246167 37.088388,32 37.088388,32 L 22.160133,31.978069 C 22.160133,31.978069 26.997745,27.140456 26.997745,27.140456 C 18.528582,18.264221 13.291696,25.230495 11.500037,31.436501 z"
     style="fill:#404040;"/>
  </a>
 </g>
</svg>

<style type='text/css'>
<![CDATA[
[data-mouse-over-selected='false'] { opacity: 0.7; }
[data-mouse-over-selected='true']  { opacity: 1.0; }
]]>
</style>
<script type="application/ecmascript"><![CDATA[
document.addEventListener('DOMContentLoaded', (event) => {
  highlightEdges();
  highlightAdjacentNodes();
});
]]></script>
</svg>
