<?xml version="1.0" encoding="UTF-8" standalone="no"?>
<!DOCTYPE svg PUBLIC "-//W3C//DTD SVG 1.1//EN"
 "http://www.w3.org/Graphics/SVG/1.1/DTD/svg11.dtd">
<!-- Generated by graphviz version 2.43.0 (0)
 -->
<!-- Title: opengl/edit/cbuild_edit.h Pages: 1 -->
<svg width="1035pt" height="104pt"
 viewBox="0.00 0.00 1034.50 104.00" xmlns="http://www.w3.org/2000/svg" xmlns:xlink="http://www.w3.org/1999/xlink">
<g id="graph0" class="graph" transform="scale(1 1) rotate(0) translate(4 100)">
<title>opengl/edit/cbuild_edit.h</title>
<!-- Node1 -->
<g id="Node000001" class="node">
<title>Node1</title>
<g id="a_Node000001"><a xlink:title="Function declarations for the crystal builder.">
<polygon fill="#999999" stroke="#666666" points="552,-96 448,-96 448,-66 552,-66 552,-96"/>
<text text-anchor="start" x="456" y="-84" font-family="Helvetica,sans-Serif" font-size="10.00">opengl/edit/cbuild</text>
<text text-anchor="middle" x="500" y="-73" font-family="Helvetica,sans-Serif" font-size="10.00">_edit.h</text>
</a>
</g>
</g>
<!-- Node2 -->
<g id="Node000002" class="node">
<title>Node2</title>
<g id="a_Node000002"><a xlink:href="../../d0/dd3/cbuild__action_8c.html" target="_top" xlink:title="Functions to build a crystal using space group, crystallographic position(s) and object(s) to insert.">
<polygon fill="white" stroke="#666666" points="104,-30 0,-30 0,0 104,0 104,-30"/>
<text text-anchor="start" x="8" y="-18" font-family="Helvetica,sans-Serif" font-size="10.00">opengl/edit/cbuild</text>
<text text-anchor="middle" x="52" y="-7" font-family="Helvetica,sans-Serif" font-size="10.00">_action.c</text>
</a>
</g>
</g>
<!-- Node1&#45;&gt;Node2 -->
<g id="edge1_Node000001_Node000002" class="edge">
<title>Node1&#45;&gt;Node2</title>
<g id="a_edge1_Node000001_Node000002"><a xlink:title=" ">
<path fill="none" stroke="#63b8ff" d="M437.82,-73.85C361.13,-65.83 226.92,-50.38 113,-30 110.11,-29.48 107.15,-28.92 104.18,-28.33"/>
<polygon fill="#63b8ff" stroke="#63b8ff" points="437.49,-77.33 447.8,-74.88 438.21,-70.37 437.49,-77.33"/>
</a>
</g>
</g>
<!-- Node3 -->
<g id="Node000003" class="node">
<title>Node3</title>
<g id="a_Node000003"><a xlink:href="../../db/d0b/cbuild__edit_8c.html" target="_top" xlink:title="Functions to create the crystal builder window.">
<polygon fill="white" stroke="#666666" points="226,-30 122,-30 122,0 226,0 226,-30"/>
<text text-anchor="start" x="130" y="-18" font-family="Helvetica,sans-Serif" font-size="10.00">opengl/edit/cbuild</text>
<text text-anchor="middle" x="174" y="-7" font-family="Helvetica,sans-Serif" font-size="10.00">_edit.c</text>
</a>
</g>
</g>
<!-- Node1&#45;&gt;Node3 -->
<g id="edge2_Node000001_Node000003" class="edge">
<title>Node1&#45;&gt;Node3</title>
<g id="a_edge2_Node000001_Node000003"><a xlink:title=" ">
<path fill="none" stroke="#63b8ff" d="M437.52,-68.92C383.73,-59.22 304.1,-44.44 235,-30 232.13,-29.4 229.18,-28.77 226.21,-28.12"/>
<polygon fill="#63b8ff" stroke="#63b8ff" points="437.13,-72.41 447.59,-70.74 438.37,-65.52 437.13,-72.41"/>
</a>
</g>
</g>
<!-- Node4 -->
<g id="Node000004" class="node">
<title>Node4</title>
<g id="a_Node000004"><a xlink:href="../../d9/ded/cbuild__info_8c.html" target="_top" xlink:title="Functions to create the space group information dialog.">
<polygon fill="white" stroke="#666666" points="348,-30 244,-30 244,0 348,0 348,-30"/>
<text text-anchor="start" x="252" y="-18" font-family="Helvetica,sans-Serif" font-size="10.00">opengl/edit/cbuild</text>
<text text-anchor="middle" x="296" y="-7" font-family="Helvetica,sans-Serif" font-size="10.00">_info.c</text>
</a>
</g>
</g>
<!-- Node1&#45;&gt;Node4 -->
<g id="edge3_Node000001_Node000004" class="edge">
<title>Node1&#45;&gt;Node4</title>
<g id="a_edge3_Node000001_Node000004"><a xlink:title=" ">
<path fill="none" stroke="#63b8ff" d="M445.35,-62.86C412.6,-52.58 371.47,-39.68 340.66,-30.01"/>
<polygon fill="#63b8ff" stroke="#63b8ff" points="444.64,-66.3 455.23,-65.95 446.74,-59.62 444.64,-66.3"/>
</a>
</g>
</g>
<!-- Node5 -->
<g id="Node000005" class="node">
<title>Node5</title>
<g id="a_Node000005"><a xlink:href="../../d3/ddb/cbuild__sg_8c.html" target="_top" xlink:title="Functions to read space group data from XML files.">
<polygon fill="white" stroke="#666666" points="494,-24.5 366,-24.5 366,-5.5 494,-5.5 494,-24.5"/>
<text text-anchor="middle" x="430" y="-12.5" font-family="Helvetica,sans-Serif" font-size="10.00">opengl/edit/cbuild_sg.c</text>
</a>
</g>
</g>
<!-- Node1&#45;&gt;Node5 -->
<g id="edge4_Node000001_Node000005" class="edge">
<title>Node1&#45;&gt;Node5</title>
<g id="a_edge4_Node000001_Node000005"><a xlink:title=" ">
<path fill="none" stroke="#63b8ff" d="M476.96,-58.93C464.29,-47.35 449.26,-33.61 439.67,-24.84"/>
<polygon fill="#63b8ff" stroke="#63b8ff" points="474.72,-61.63 484.46,-65.8 479.45,-56.47 474.72,-61.63"/>
</a>
</g>
</g>
<!-- Node6 -->
<g id="Node000006" class="node">
<title>Node6</title>
<g id="a_Node000006"><a xlink:href="../../d8/d50/read__cif_8c.html" target="_top" xlink:title="Functions to read CIF files.">
<polygon fill="white" stroke="#666666" points="627.5,-30 512.5,-30 512.5,0 627.5,0 627.5,-30"/>
<text text-anchor="start" x="520.5" y="-18" font-family="Helvetica,sans-Serif" font-size="10.00">project/readers/read</text>
<text text-anchor="middle" x="570" y="-7" font-family="Helvetica,sans-Serif" font-size="10.00">_cif.c</text>
</a>
</g>
</g>
<!-- Node1&#45;&gt;Node6 -->
<g id="edge5_Node000001_Node000006" class="edge">
<title>Node1&#45;&gt;Node6</title>
<g id="a_edge5_Node000001_Node000006"><a xlink:title=" ">
<path fill="none" stroke="#63b8ff" d="M523.05,-58.92C533.37,-49.49 545.27,-38.61 554.51,-30.16"/>
<polygon fill="#63b8ff" stroke="#63b8ff" points="520.55,-56.47 515.54,-65.8 525.28,-61.63 520.55,-56.47"/>
</a>
</g>
</g>
<!-- Node7 -->
<g id="Node000007" class="node">
<title>Node7</title>
<g id="a_Node000007"><a xlink:href="../../d5/d22/read__coord_8c.html" target="_top" xlink:title="General functions to import atomic coordinates.">
<polygon fill="white" stroke="#666666" points="760.5,-30 645.5,-30 645.5,0 760.5,0 760.5,-30"/>
<text text-anchor="start" x="653.5" y="-18" font-family="Helvetica,sans-Serif" font-size="10.00">project/readers/read</text>
<text text-anchor="middle" x="703" y="-7" font-family="Helvetica,sans-Serif" font-size="10.00">_coord.c</text>
</a>
</g>
</g>
<!-- Node1&#45;&gt;Node7 -->
<g id="edge6_Node000001_Node000007" class="edge">
<title>Node1&#45;&gt;Node7</title>
<g id="a_edge6_Node000001_Node000007"><a xlink:title=" ">
<path fill="none" stroke="#63b8ff" d="M554.38,-62.86C586.97,-52.58 627.9,-39.68 658.55,-30.01"/>
<polygon fill="#63b8ff" stroke="#63b8ff" points="553.03,-59.61 544.55,-65.95 555.14,-66.29 553.03,-59.61"/>
</a>
</g>
</g>
<!-- Node8 -->
<g id="Node000008" class="node">
<title>Node8</title>
<g id="a_Node000008"><a xlink:href="../../df/df9/read__hist_8c.html" target="_top" xlink:title="Functions to read DL&#45;POLY history file.">
<polygon fill="white" stroke="#666666" points="893.5,-30 778.5,-30 778.5,0 893.5,0 893.5,-30"/>
<text text-anchor="start" x="786.5" y="-18" font-family="Helvetica,sans-Serif" font-size="10.00">project/readers/read</text>
<text text-anchor="middle" x="836" y="-7" font-family="Helvetica,sans-Serif" font-size="10.00">_hist.c</text>
</a>
</g>
</g>
<!-- Node1&#45;&gt;Node8 -->
<g id="edge7_Node000001_Node000008" class="edge">
<title>Node1&#45;&gt;Node8</title>
<g id="a_edge7_Node000001_Node000008"><a xlink:title=" ">
<path fill="none" stroke="#63b8ff" d="M561.99,-68.99C616.77,-59.15 698.8,-44.14 770,-30 772.76,-29.45 775.58,-28.88 778.43,-28.3"/>
<polygon fill="#63b8ff" stroke="#63b8ff" points="561.31,-65.56 552.09,-70.77 562.55,-72.45 561.31,-65.56"/>
</a>
</g>
</g>
<!-- Node9 -->
<g id="Node000009" class="node">
<title>Node9</title>
<g id="a_Node000009"><a xlink:href="../../d1/da7/read__npt_8c.html" target="_top" xlink:title="Functions to read NPT data.">
<polygon fill="white" stroke="#666666" points="1026.5,-30 911.5,-30 911.5,0 1026.5,0 1026.5,-30"/>
<text text-anchor="start" x="919.5" y="-18" font-family="Helvetica,sans-Serif" font-size="10.00">project/readers/read</text>
<text text-anchor="middle" x="969" y="-7" font-family="Helvetica,sans-Serif" font-size="10.00">_npt.c</text>
</a>
</g>
</g>
<!-- Node1&#45;&gt;Node9 -->
<g id="edge8_Node000001_Node000009" class="edge">
<title>Node1&#45;&gt;Node9</title>
<g id="a_edge8_Node000001_Node000009"><a xlink:title=" ">
<path fill="none" stroke="#63b8ff" d="M562.37,-73.94C641.77,-65.83 783.06,-50.12 903,-30 905.77,-29.53 908.61,-29.03 911.46,-28.51"/>
<polygon fill="#63b8ff" stroke="#63b8ff" points="561.65,-70.49 552.05,-74.98 562.36,-77.45 561.65,-70.49"/>
</a>
</g>
</g>
</g>
</svg>
