<?xml version="1.0" encoding="UTF-8" standalone="no"?>
<!DOCTYPE svg PUBLIC "-//W3C//DTD SVG 1.1//EN"
 "http://www.w3.org/Graphics/SVG/1.1/DTD/svg11.dtd">
<!-- Generated by graphviz version 7.1.0 (0)
 -->
<!-- Title: opengl/edit/cbuild_edit.h Pages: 1 -->
<svg width="939pt" height="104pt"
 viewBox="0.00 0.00 938.50 104.00" xmlns="http://www.w3.org/2000/svg" xmlns:xlink="http://www.w3.org/1999/xlink">
<g id="graph0" class="graph" transform="scale(1 1) rotate(0) translate(4 100)">
<title>opengl/edit/cbuild_edit.h</title>
<!-- Node1 -->
<g id="node1" class="node">
<title>Node1</title>
<g id="a_node1"><a xlink:title="Function declarations for the crystal builder.">
<polygon fill="#999999" stroke="#666666" points="498,-96 406,-96 406,-66 498,-66 498,-96"/>
<text text-anchor="start" x="414" y="-84" font-family="Helvetica,sans-Serif" font-size="10.00">opengl/edit/cbuild</text>
<text text-anchor="middle" x="452" y="-73" font-family="Helvetica,sans-Serif" font-size="10.00">_edit.h</text>
</a>
</g>
</g>
<!-- Node2 -->
<g id="node2" class="node">
<title>Node2</title>
<g id="a_node2"><a xlink:href="../../d0/dd3/cbuild__action_8c.html" target="_top" xlink:title="Functions to build a crystal using space group, crystallographic position(s) and object(s) to insert.">
<polygon fill="white" stroke="#666666" points="92,-30 0,-30 0,0 92,0 92,-30"/>
<text text-anchor="start" x="8" y="-18" font-family="Helvetica,sans-Serif" font-size="10.00">opengl/edit/cbuild</text>
<text text-anchor="middle" x="46" y="-7" font-family="Helvetica,sans-Serif" font-size="10.00">_action.c</text>
</a>
</g>
</g>
<!-- Node1&#45;&gt;Node2 -->
<g id="edge1" class="edge">
<title>Node1&#45;&gt;Node2</title>
<path fill="none" stroke="#63b8ff" d="M394.57,-73.75C324.8,-65.7 203.67,-50.32 101,-30 98.2,-29.45 95.32,-28.84 92.43,-28.19"/>
<polygon fill="#63b8ff" stroke="#63b8ff" points="393.9,-77.19 404.23,-74.85 394.7,-70.24 393.9,-77.19"/>
</g>
<!-- Node3 -->
<g id="node3" class="node">
<title>Node3</title>
<g id="a_node3"><a xlink:href="../../db/d0b/cbuild__edit_8c.html" target="_top" xlink:title="Functions to create the crystal builder window.">
<polygon fill="white" stroke="#666666" points="202,-30 110,-30 110,0 202,0 202,-30"/>
<text text-anchor="start" x="118" y="-18" font-family="Helvetica,sans-Serif" font-size="10.00">opengl/edit/cbuild</text>
<text text-anchor="middle" x="156" y="-7" font-family="Helvetica,sans-Serif" font-size="10.00">_edit.c</text>
</a>
</g>
</g>
<!-- Node1&#45;&gt;Node3 -->
<g id="edge2" class="edge">
<title>Node1&#45;&gt;Node3</title>
<path fill="none" stroke="#63b8ff" d="M394.67,-68.86C345.74,-59.16 273.58,-44.45 211,-30 208.22,-29.36 205.36,-28.68 202.48,-27.99"/>
<polygon fill="#63b8ff" stroke="#63b8ff" points="393.69,-72.23 404.18,-70.73 395.05,-65.36 393.69,-72.23"/>
</g>
<!-- Node4 -->
<g id="node4" class="node">
<title>Node4</title>
<g id="a_node4"><a xlink:href="../../d9/ded/cbuild__info_8c.html" target="_top" xlink:title="Functions to create the space group information dialog.">
<polygon fill="white" stroke="#666666" points="312,-30 220,-30 220,0 312,0 312,-30"/>
<text text-anchor="start" x="228" y="-18" font-family="Helvetica,sans-Serif" font-size="10.00">opengl/edit/cbuild</text>
<text text-anchor="middle" x="266" y="-7" font-family="Helvetica,sans-Serif" font-size="10.00">_info.c</text>
</a>
</g>
</g>
<!-- Node1&#45;&gt;Node4 -->
<g id="edge3" class="edge">
<title>Node1&#45;&gt;Node4</title>
<path fill="none" stroke="#63b8ff" d="M399.5,-61.94C370.53,-51.97 335.03,-39.75 307.92,-30.43"/>
<polygon fill="#63b8ff" stroke="#63b8ff" points="398.23,-65.2 408.83,-65.14 400.51,-58.58 398.23,-65.2"/>
</g>
<!-- Node5 -->
<g id="node5" class="node">
<title>Node5</title>
<g id="a_node5"><a xlink:href="../../d3/ddb/cbuild__sg_8c.html" target="_top" xlink:title="Functions to read space group data from XML files.">
<polygon fill="white" stroke="#666666" points="446,-24.5 330,-24.5 330,-5.5 446,-5.5 446,-24.5"/>
<text text-anchor="middle" x="388" y="-12.5" font-family="Helvetica,sans-Serif" font-size="10.00">opengl/edit/cbuild_sg.c</text>
</a>
</g>
</g>
<!-- Node1&#45;&gt;Node5 -->
<g id="edge4" class="edge">
<title>Node1&#45;&gt;Node5</title>
<path fill="none" stroke="#63b8ff" d="M429.94,-57.94C418.58,-46.58 405.36,-33.36 396.84,-24.84"/>
<polygon fill="#63b8ff" stroke="#63b8ff" points="427.18,-60.13 436.73,-64.73 432.13,-55.18 427.18,-60.13"/>
</g>
<!-- Node6 -->
<g id="node6" class="node">
<title>Node6</title>
<g id="a_node6"><a xlink:href="../../d8/d50/read__cif_8c.html" target="_top" xlink:title="Functions to read CIF files.">
<polygon fill="white" stroke="#666666" points="567.5,-30 464.5,-30 464.5,0 567.5,0 567.5,-30"/>
<text text-anchor="start" x="472.5" y="-18" font-family="Helvetica,sans-Serif" font-size="10.00">project/readers/read</text>
<text text-anchor="middle" x="516" y="-7" font-family="Helvetica,sans-Serif" font-size="10.00">_cif.c</text>
</a>
</g>
</g>
<!-- Node1&#45;&gt;Node6 -->
<g id="edge5" class="edge">
<title>Node1&#45;&gt;Node6</title>
<path fill="none" stroke="#63b8ff" d="M474.19,-57.81C483.36,-48.64 493.72,-38.28 501.84,-30.16"/>
<polygon fill="#63b8ff" stroke="#63b8ff" points="471.87,-55.18 467.27,-64.73 476.82,-60.13 471.87,-55.18"/>
</g>
<!-- Node7 -->
<g id="node7" class="node">
<title>Node7</title>
<g id="a_node7"><a xlink:href="../../d5/d22/read__coord_8c.html" target="_top" xlink:title="General functions to import atomic coordinates.">
<polygon fill="white" stroke="#666666" points="688.5,-30 585.5,-30 585.5,0 688.5,0 688.5,-30"/>
<text text-anchor="start" x="593.5" y="-18" font-family="Helvetica,sans-Serif" font-size="10.00">project/readers/read</text>
<text text-anchor="middle" x="637" y="-7" font-family="Helvetica,sans-Serif" font-size="10.00">_coord.c</text>
</a>
</g>
</g>
<!-- Node1&#45;&gt;Node7 -->
<g id="edge6" class="edge">
<title>Node1&#45;&gt;Node7</title>
<path fill="none" stroke="#63b8ff" d="M504.22,-61.94C533.04,-51.97 568.34,-39.75 595.3,-30.43"/>
<polygon fill="#63b8ff" stroke="#63b8ff" points="503.25,-58.57 494.95,-65.14 505.54,-65.18 503.25,-58.57"/>
</g>
<!-- Node8 -->
<g id="node8" class="node">
<title>Node8</title>
<g id="a_node8"><a xlink:href="../../df/df9/read__hist_8c.html" target="_top" xlink:title="Functions to read DL&#45;POLY history file.">
<polygon fill="white" stroke="#666666" points="809.5,-30 706.5,-30 706.5,0 809.5,0 809.5,-30"/>
<text text-anchor="start" x="714.5" y="-18" font-family="Helvetica,sans-Serif" font-size="10.00">project/readers/read</text>
<text text-anchor="middle" x="758" y="-7" font-family="Helvetica,sans-Serif" font-size="10.00">_hist.c</text>
</a>
</g>
</g>
<!-- Node1&#45;&gt;Node8 -->
<g id="edge7" class="edge">
<title>Node1&#45;&gt;Node8</title>
<path fill="none" stroke="#63b8ff" d="M509.54,-68.79C559.45,-58.95 633.61,-44.05 698,-30 700.72,-29.41 703.5,-28.79 706.31,-28.16"/>
<polygon fill="#63b8ff" stroke="#63b8ff" points="508.95,-65.34 499.81,-70.7 510.3,-72.21 508.95,-65.34"/>
</g>
<!-- Node9 -->
<g id="node9" class="node">
<title>Node9</title>
<g id="a_node9"><a xlink:href="../../d1/da7/read__npt_8c.html" target="_top" xlink:title="Functions to read NPT data.">
<polygon fill="white" stroke="#666666" points="930.5,-30 827.5,-30 827.5,0 930.5,0 930.5,-30"/>
<text text-anchor="start" x="835.5" y="-18" font-family="Helvetica,sans-Serif" font-size="10.00">project/readers/read</text>
<text text-anchor="middle" x="879" y="-7" font-family="Helvetica,sans-Serif" font-size="10.00">_npt.c</text>
</a>
</g>
</g>
<!-- Node1&#45;&gt;Node9 -->
<g id="edge8" class="edge">
<title>Node1&#45;&gt;Node9</title>
<path fill="none" stroke="#63b8ff" d="M509.42,-73.87C581.88,-65.74 710.2,-50.06 819,-30 821.63,-29.52 824.32,-28.99 827.03,-28.44"/>
<polygon fill="#63b8ff" stroke="#63b8ff" points="509.34,-70.35 499.78,-74.94 510.11,-77.31 509.34,-70.35"/>
</g>
</g>
</svg>
