<?xml version="1.0" encoding="UTF-8" standalone="no"?>
<!DOCTYPE svg PUBLIC "-//W3C//DTD SVG 1.1//EN"
 "http://www.w3.org/Graphics/SVG/1.1/DTD/svg11.dtd">
<!-- Generated by graphviz version 7.1.0 (0)
 -->
<!-- Title: cbuild_edit.h Pages: 1 -->
<svg width="685pt" height="82pt"
 viewBox="0.00 0.00 685.00 82.00" xmlns="http://www.w3.org/2000/svg" xmlns:xlink="http://www.w3.org/1999/xlink">
<g id="graph0" class="graph" transform="scale(1 1) rotate(0) translate(4 78)">
<title>cbuild_edit.h</title>
<!-- Node1 -->
<g id="node1" class="node">
<title>Node1</title>
<g id="a_node1"><a xlink:title="Function declarations for the crystal builder.">
<polygon fill="#999999" stroke="#666666" points="387.5,-74 316.5,-74 316.5,-55 387.5,-55 387.5,-74"/>
<text text-anchor="middle" x="352" y="-62" font-family="Helvetica,sans-Serif" font-size="10.00">cbuild_edit.h</text>
</a>
</g>
</g>
<!-- Node2 -->
<g id="node2" class="node">
<title>Node2</title>
<g id="a_node2"><a xlink:href="../../d0/dd3/cbuild__action_8c.html" target="_top" xlink:title="Functions to build a crystal using space group, crystallographic position(s) and object(s) to insert.">
<polygon fill="white" stroke="#666666" points="82,-19 0,-19 0,0 82,0 82,-19"/>
<text text-anchor="middle" x="41" y="-7" font-family="Helvetica,sans-Serif" font-size="10.00">cbuild_action.c</text>
</a>
</g>
</g>
<!-- Node1&#45;&gt;Node2 -->
<g id="edge1" class="edge">
<title>Node1&#45;&gt;Node2</title>
<path fill="none" stroke="#63b8ff" d="M304.87,-55.47C244.26,-45.14 139.97,-27.37 82.32,-17.54"/>
<polygon fill="#63b8ff" stroke="#63b8ff" points="304.08,-58.88 314.53,-57.11 305.26,-51.98 304.08,-58.88"/>
</g>
<!-- Node3 -->
<g id="node3" class="node">
<title>Node3</title>
<g id="a_node3"><a xlink:href="../../db/d0b/cbuild__edit_8c.html" target="_top" xlink:title="Functions to create the crystal builder window.">
<polygon fill="white" stroke="#666666" points="171.5,-19 100.5,-19 100.5,0 171.5,0 171.5,-19"/>
<text text-anchor="middle" x="136" y="-7" font-family="Helvetica,sans-Serif" font-size="10.00">cbuild_edit.c</text>
</a>
</g>
</g>
<!-- Node1&#45;&gt;Node3 -->
<g id="edge2" class="edge">
<title>Node1&#45;&gt;Node3</title>
<path fill="none" stroke="#63b8ff" d="M305.24,-52.03C265.15,-42.19 208.24,-28.23 171.72,-19.26"/>
<polygon fill="#63b8ff" stroke="#63b8ff" points="304.32,-55.4 314.86,-54.39 305.98,-48.61 304.32,-55.4"/>
</g>
<!-- Node4 -->
<g id="node4" class="node">
<title>Node4</title>
<g id="a_node4"><a xlink:href="../../d9/ded/cbuild__info_8c.html" target="_top" xlink:title="Functions to create the space group information dialog.">
<polygon fill="white" stroke="#666666" points="260.5,-19 189.5,-19 189.5,0 260.5,0 260.5,-19"/>
<text text-anchor="middle" x="225" y="-7" font-family="Helvetica,sans-Serif" font-size="10.00">cbuild_info.c</text>
</a>
</g>
</g>
<!-- Node1&#45;&gt;Node4 -->
<g id="edge3" class="edge">
<title>Node1&#45;&gt;Node4</title>
<path fill="none" stroke="#63b8ff" d="M320.11,-50.19C297.01,-40.55 266.4,-27.78 246.23,-19.36"/>
<polygon fill="#63b8ff" stroke="#63b8ff" points="318.48,-53.31 329.06,-53.93 321.18,-46.84 318.48,-53.31"/>
</g>
<!-- Node5 -->
<g id="node5" class="node">
<title>Node5</title>
<g id="a_node5"><a xlink:href="../../d3/ddb/cbuild__sg_8c.html" target="_top" xlink:title="Functions to read space group data from XML files.">
<polygon fill="white" stroke="#666666" points="345,-19 279,-19 279,0 345,0 345,-19"/>
<text text-anchor="middle" x="312" y="-7" font-family="Helvetica,sans-Serif" font-size="10.00">cbuild_sg.c</text>
</a>
</g>
</g>
<!-- Node1&#45;&gt;Node5 -->
<g id="edge4" class="edge">
<title>Node1&#45;&gt;Node5</title>
<path fill="none" stroke="#63b8ff" d="M338.53,-45.65C331.88,-36.84 324.14,-26.59 318.75,-19.44"/>
<polygon fill="#63b8ff" stroke="#63b8ff" points="335.67,-47.67 344.48,-53.54 341.25,-43.45 335.67,-47.67"/>
</g>
<!-- Node6 -->
<g id="node6" class="node">
<title>Node6</title>
<g id="a_node6"><a xlink:href="../../d8/d50/read__cif_8c.html" target="_top" xlink:title="Functions to read CIF files.">
<polygon fill="white" stroke="#666666" points="422.5,-19 363.5,-19 363.5,0 422.5,0 422.5,-19"/>
<text text-anchor="middle" x="393" y="-7" font-family="Helvetica,sans-Serif" font-size="10.00">read_cif.c</text>
</a>
</g>
</g>
<!-- Node1&#45;&gt;Node6 -->
<g id="edge5" class="edge">
<title>Node1&#45;&gt;Node6</title>
<path fill="none" stroke="#63b8ff" d="M365.81,-45.65C372.63,-36.84 380.55,-26.59 386.08,-19.44"/>
<polygon fill="#63b8ff" stroke="#63b8ff" points="363.05,-43.5 359.7,-53.55 368.58,-47.78 363.05,-43.5"/>
</g>
<!-- Node7 -->
<g id="node7" class="node">
<title>Node7</title>
<g id="a_node7"><a xlink:href="../../d5/d22/read__coord_8c.html" target="_top" xlink:title="General functions to import atomic coordinates.">
<polygon fill="white" stroke="#666666" points="513.5,-19 440.5,-19 440.5,0 513.5,0 513.5,-19"/>
<text text-anchor="middle" x="477" y="-7" font-family="Helvetica,sans-Serif" font-size="10.00">read_coord.c</text>
</a>
</g>
</g>
<!-- Node1&#45;&gt;Node7 -->
<g id="edge6" class="edge">
<title>Node1&#45;&gt;Node7</title>
<path fill="none" stroke="#63b8ff" d="M383.69,-50.06C406.4,-40.43 436.34,-27.74 456.11,-19.36"/>
<polygon fill="#63b8ff" stroke="#63b8ff" points="382.44,-46.79 374.6,-53.92 385.17,-53.24 382.44,-46.79"/>
</g>
<!-- Node8 -->
<g id="node8" class="node">
<title>Node8</title>
<g id="a_node8"><a xlink:href="../../df/df9/read__hist_8c.html" target="_top" xlink:title="Functions to read DL&#45;POLY history file.">
<polygon fill="white" stroke="#666666" points="596.5,-19 531.5,-19 531.5,0 596.5,0 596.5,-19"/>
<text text-anchor="middle" x="564" y="-7" font-family="Helvetica,sans-Serif" font-size="10.00">read_hist.c</text>
</a>
</g>
</g>
<!-- Node1&#45;&gt;Node8 -->
<g id="edge7" class="edge">
<title>Node1&#45;&gt;Node8</title>
<path fill="none" stroke="#63b8ff" d="M399.05,-51.74C439.1,-41.73 495.61,-27.6 531,-18.75"/>
<polygon fill="#63b8ff" stroke="#63b8ff" points="398.28,-48.32 389.43,-54.14 399.98,-55.11 398.28,-48.32"/>
</g>
<!-- Node9 -->
<g id="node9" class="node">
<title>Node9</title>
<g id="a_node9"><a xlink:href="../../d1/da7/read__npt_8c.html" target="_top" xlink:title="Functions to read NPT data.">
<polygon fill="white" stroke="#666666" points="677,-19 615,-19 615,0 677,0 677,-19"/>
<text text-anchor="middle" x="646" y="-7" font-family="Helvetica,sans-Serif" font-size="10.00">read_npt.c</text>
</a>
</g>
</g>
<!-- Node1&#45;&gt;Node9 -->
<g id="edge8" class="edge">
<title>Node1&#45;&gt;Node9</title>
<path fill="none" stroke="#63b8ff" d="M399.15,-55.76C450.21,-47.26 534.03,-32.95 606,-19 608.79,-18.46 611.68,-17.88 614.58,-17.29"/>
<polygon fill="#63b8ff" stroke="#63b8ff" points="398.61,-52.3 389.32,-57.39 399.76,-59.21 398.61,-52.3"/>
</g>
</g>
</svg>
