<?xml version="1.0" encoding="UTF-8" standalone="no"?>
<!DOCTYPE svg PUBLIC "-//W3C//DTD SVG 1.1//EN"
 "http://www.w3.org/Graphics/SVG/1.1/DTD/svg11.dtd">
<!-- Generated by graphviz version 9.0.0 (20230911.1827)
 -->
<!-- Title: project/readers/read_hist.c Pages: 1 -->
<svg width="2035pt" height="264pt"
 viewBox="0.00 0.00 2035.00 264.00" xmlns="http://www.w3.org/2000/svg" xmlns:xlink="http://www.w3.org/1999/xlink">
<g id="graph0" class="graph" transform="scale(1 1) rotate(0) translate(4 260)">
<title>project/readers/read_hist.c</title>
<!-- Node1 -->
<g id="Node000001" class="node">
<title>Node1</title>
<g id="a_Node000001"><a xlink:title="Functions to read DL&#45;POLY history file.">
<polygon fill="#999999" stroke="#666666" points="1421.25,-256 1319,-256 1319,-224 1421.25,-224 1421.25,-256"/>
<text text-anchor="start" x="1327" y="-242.5" font-family="Helvetica,sans-Serif" font-size="10.00">project/readers/read</text>
<text text-anchor="middle" x="1370.12" y="-230.5" font-family="Helvetica,sans-Serif" font-size="10.00">_hist.c</text>
</a>
</g>
</g>
<!-- Node2 -->
<g id="Node000002" class="node">
<title>Node2</title>
<g id="a_Node000002"><a xlink:href="../../d2/d49/global_8h.html" target="_top" xlink:title="Global variable declarations &#160;&#160;Global convenience function declarations &#160;&#160;Global data structure defin...">
<polygon fill="white" stroke="#666666" points="961,-132 911.25,-132 911.25,-112 961,-112 961,-132"/>
<text text-anchor="middle" x="936.12" y="-118.5" font-family="Helvetica,sans-Serif" font-size="10.00">global.h</text>
</a>
</g>
</g>
<!-- Node1&#45;&gt;Node2 -->
<g id="edge1_Node000001_Node000002" class="edge">
<title>Node1&#45;&gt;Node2</title>
<g id="a_edge1_Node000001_Node000002"><a xlink:title=" ">
<path fill="none" stroke="#63b8ff" d="M1318.64,-225.24C1229.58,-201.43 1048.94,-153.15 972.07,-132.61"/>
<polygon fill="#63b8ff" stroke="#63b8ff" points="973.1,-129.26 962.54,-130.06 971.29,-136.02 973.1,-129.26"/>
</a>
</g>
</g>
<!-- Node25 -->
<g id="Node000025" class="node">
<title>Node25</title>
<g id="a_Node000025"><a xlink:href="../../da/dc2/bind_8h.html" target="_top" xlink:title="Binding to the Fortran90 subroutines.">
<polygon fill="white" stroke="#666666" points="1245.25,-188 1203,-188 1203,-168 1245.25,-168 1245.25,-188"/>
<text text-anchor="middle" x="1224.12" y="-174.5" font-family="Helvetica,sans-Serif" font-size="10.00">bind.h</text>
</a>
</g>
</g>
<!-- Node1&#45;&gt;Node25 -->
<g id="edge26_Node000001_Node000025" class="edge">
<title>Node1&#45;&gt;Node25</title>
<g id="a_edge26_Node000001_Node000025"><a xlink:title=" ">
<path fill="none" stroke="#63b8ff" d="M1332.53,-223.55C1308.86,-213.82 1278.63,-201.4 1256.12,-192.15"/>
<polygon fill="#63b8ff" stroke="#63b8ff" points="1257.72,-189.02 1247.14,-188.46 1255.06,-195.5 1257.72,-189.02"/>
</a>
</g>
</g>
<!-- Node26 -->
<g id="Node000026" class="node">
<title>Node26</title>
<g id="a_Node000026"><a xlink:href="../../d4/da9/interface_8h.html" target="_top" xlink:title="Messaging function declarations.">
<polygon fill="white" stroke="#666666" points="1325,-188 1263.25,-188 1263.25,-168 1325,-168 1325,-188"/>
<text text-anchor="middle" x="1294.12" y="-174.5" font-family="Helvetica,sans-Serif" font-size="10.00">interface.h</text>
</a>
</g>
</g>
<!-- Node1&#45;&gt;Node26 -->
<g id="edge27_Node000001_Node000026" class="edge">
<title>Node1&#45;&gt;Node26</title>
<g id="a_edge27_Node000001_Node000026"><a xlink:title=" ">
<path fill="none" stroke="#63b8ff" d="M1350.55,-223.55C1339.67,-214.95 1326.12,-204.26 1315.03,-195.5"/>
<polygon fill="#63b8ff" stroke="#63b8ff" points="1317.25,-192.8 1307.23,-189.35 1312.91,-198.29 1317.25,-192.8"/>
</a>
</g>
</g>
<!-- Node27 -->
<g id="Node000027" class="node">
<title>Node27</title>
<g id="a_Node000027"><a xlink:href="../../dc/d8d/project_8h.html" target="_top" xlink:title="Function declarations for reading atomes project file &#160;&#160;Function declarations for saving atomes proje...">
<polygon fill="white" stroke="#666666" points="1396.88,-188 1343.38,-188 1343.38,-168 1396.88,-168 1396.88,-188"/>
<text text-anchor="middle" x="1370.12" y="-174.5" font-family="Helvetica,sans-Serif" font-size="10.00">project.h</text>
</a>
</g>
</g>
<!-- Node1&#45;&gt;Node27 -->
<g id="edge28_Node000001_Node000027" class="edge">
<title>Node1&#45;&gt;Node27</title>
<g id="a_edge28_Node000001_Node000027"><a xlink:title=" ">
<path fill="none" stroke="#63b8ff" d="M1370.12,-223.55C1370.12,-216.34 1370.12,-207.66 1370.12,-199.88"/>
<polygon fill="#63b8ff" stroke="#63b8ff" points="1373.63,-199.92 1370.13,-189.92 1366.63,-199.92 1373.63,-199.92"/>
</a>
</g>
</g>
<!-- Node28 -->
<g id="Node000028" class="node">
<title>Node28</title>
<g id="a_Node000028"><a xlink:title=" ">
<polygon fill="#e0e0e0" stroke="#999999" points="1463.25,-188 1415,-188 1415,-168 1463.25,-168 1463.25,-188"/>
<text text-anchor="middle" x="1439.12" y="-174.5" font-family="Helvetica,sans-Serif" font-size="10.00">ctype.h</text>
</a>
</g>
</g>
<!-- Node1&#45;&gt;Node28 -->
<g id="edge29_Node000001_Node000028" class="edge">
<title>Node1&#45;&gt;Node28</title>
<g id="a_edge29_Node000001_Node000028"><a xlink:title=" ">
<path fill="none" stroke="#63b8ff" d="M1387.89,-223.55C1397.68,-215.04 1409.83,-204.48 1419.84,-195.77"/>
<polygon fill="#63b8ff" stroke="#63b8ff" points="1421.91,-198.6 1427.16,-189.4 1417.32,-193.32 1421.91,-198.6"/>
</a>
</g>
</g>
<!-- Node29 -->
<g id="Node000029" class="node">
<title>Node29</title>
<g id="a_Node000029"><a xlink:href="../../de/d8a/cbuild__edit_8h.html" target="_top" xlink:title="Function declarations for the crystal builder.">
<polygon fill="white" stroke="#666666" points="1552.5,-188 1481.75,-188 1481.75,-168 1552.5,-168 1552.5,-188"/>
<text text-anchor="middle" x="1517.12" y="-174.5" font-family="Helvetica,sans-Serif" font-size="10.00">cbuild_edit.h</text>
</a>
</g>
</g>
<!-- Node1&#45;&gt;Node29 -->
<g id="edge30_Node000001_Node000029" class="edge">
<title>Node1&#45;&gt;Node29</title>
<g id="a_edge30_Node000001_Node000029"><a xlink:title=" ">
<path fill="none" stroke="#63b8ff" d="M1407.98,-223.55C1431.37,-214 1461.13,-201.86 1483.65,-192.66"/>
<polygon fill="#63b8ff" stroke="#63b8ff" points="1484.74,-196 1492.67,-188.98 1482.09,-189.52 1484.74,-196"/>
</a>
</g>
</g>
<!-- Node31 -->
<g id="Node000031" class="node">
<title>Node31</title>
<g id="a_Node000031"><a xlink:href="../../d1/dfb/readers_8h.html" target="_top" xlink:title="Functions declaration to read atomic coordinates.">
<polygon fill="white" stroke="#666666" points="1786.38,-188 1729.88,-188 1729.88,-168 1786.38,-168 1786.38,-188"/>
<text text-anchor="middle" x="1758.12" y="-174.5" font-family="Helvetica,sans-Serif" font-size="10.00">readers.h</text>
</a>
</g>
</g>
<!-- Node1&#45;&gt;Node31 -->
<g id="edge33_Node000001_Node000031" class="edge">
<title>Node1&#45;&gt;Node31</title>
<g id="a_edge33_Node000001_Node000031"><a xlink:title=" ">
<path fill="none" stroke="#63b8ff" d="M1421.65,-231.03C1500.15,-218.89 1648.01,-196.03 1718.63,-185.11"/>
<polygon fill="#63b8ff" stroke="#63b8ff" points="1718.84,-188.62 1728.18,-183.63 1717.77,-181.7 1718.84,-188.62"/>
</a>
</g>
</g>
<!-- Node3 -->
<g id="Node000003" class="node">
<title>Node3</title>
<g id="a_Node000003"><a xlink:title=" ">
<polygon fill="#e0e0e0" stroke="#999999" points="1375.75,-76 1336.5,-76 1336.5,-56 1375.75,-56 1375.75,-76"/>
<text text-anchor="middle" x="1356.12" y="-62.5" font-family="Helvetica,sans-Serif" font-size="10.00">glib.h</text>
</a>
</g>
</g>
<!-- Node2&#45;&gt;Node3 -->
<g id="edge2_Node000002_Node000003" class="edge">
<title>Node2&#45;&gt;Node3</title>
<g id="a_edge2_Node000002_Node000003"><a xlink:title=" ">
<path fill="none" stroke="#63b8ff" d="M961.09,-119.74C1021.84,-116.34 1182.3,-105.33 1325.16,-76.02"/>
<polygon fill="#63b8ff" stroke="#63b8ff" points="1325.73,-79.48 1334.8,-74 1324.3,-72.62 1325.73,-79.48"/>
</a>
</g>
</g>
<!-- Node4 -->
<g id="Node000004" class="node">
<title>Node4</title>
<g id="a_Node000004"><a xlink:title=" ">
<polygon fill="#e0e0e0" stroke="#999999" points="1458.88,-76 1393.38,-76 1393.38,-56 1458.88,-56 1458.88,-76"/>
<text text-anchor="middle" x="1426.12" y="-62.5" font-family="Helvetica,sans-Serif" font-size="10.00">glib/gi18n.h</text>
</a>
</g>
</g>
<!-- Node2&#45;&gt;Node4 -->
<g id="edge3_Node000002_Node000004" class="edge">
<title>Node2&#45;&gt;Node4</title>
<g id="a_edge3_Node000002_Node000004"><a xlink:title=" ">
<path fill="none" stroke="#63b8ff" d="M961.08,-119.52C1027.84,-115.35 1216.26,-102.16 1382.17,-76.32"/>
<polygon fill="#63b8ff" stroke="#63b8ff" points="1382.24,-79.85 1391.57,-74.84 1381.15,-72.94 1382.24,-79.85"/>
</a>
</g>
</g>
<!-- Node5 -->
<g id="Node000005" class="node">
<title>Node5</title>
<g id="a_Node000005"><a xlink:title=" ">
<polygon fill="#e0e0e0" stroke="#999999" points="1527,-76 1477.25,-76 1477.25,-56 1527,-56 1527,-76"/>
<text text-anchor="middle" x="1502.12" y="-62.5" font-family="Helvetica,sans-Serif" font-size="10.00">locale.h</text>
</a>
</g>
</g>
<!-- Node2&#45;&gt;Node5 -->
<g id="edge4_Node000002_Node000005" class="edge">
<title>Node2&#45;&gt;Node5</title>
<g id="a_edge4_Node000002_Node000005"><a xlink:title=" ">
<path fill="none" stroke="#63b8ff" d="M961.25,-120.43C1036.43,-118.39 1266.22,-109.8 1465.7,-76.12"/>
<polygon fill="#63b8ff" stroke="#63b8ff" points="1466.23,-79.58 1475.49,-74.43 1465.04,-72.68 1466.23,-79.58"/>
</a>
</g>
</g>
<!-- Node6 -->
<g id="Node000006" class="node">
<title>Node6</title>
<g id="a_Node000006"><a xlink:title=" ">
<polygon fill="#e0e0e0" stroke="#999999" points="1595.38,-76 1544.88,-76 1544.88,-56 1595.38,-56 1595.38,-76"/>
<text text-anchor="middle" x="1570.12" y="-62.5" font-family="Helvetica,sans-Serif" font-size="10.00">unistd.h</text>
</a>
</g>
</g>
<!-- Node2&#45;&gt;Node6 -->
<g id="edge5_Node000002_Node000006" class="edge">
<title>Node2&#45;&gt;Node6</title>
<g id="a_edge5_Node000002_Node000006"><a xlink:title=" ">
<path fill="none" stroke="#63b8ff" d="M961.48,-120.76C1043.18,-119.64 1307,-113.33 1533.52,-76.14"/>
<polygon fill="#63b8ff" stroke="#63b8ff" points="1533.83,-79.64 1543.12,-74.54 1532.68,-72.73 1533.83,-79.64"/>
</a>
</g>
</g>
<!-- Node7 -->
<g id="Node000007" class="node">
<title>Node7</title>
<g id="a_Node000007"><a xlink:title=" ">
<polygon fill="#e0e0e0" stroke="#999999" points="48.25,-76 0,-76 0,-56 48.25,-56 48.25,-76"/>
<text text-anchor="middle" x="24.12" y="-62.5" font-family="Helvetica,sans-Serif" font-size="10.00">string.h</text>
</a>
</g>
</g>
<!-- Node2&#45;&gt;Node7 -->
<g id="edge6_Node000002_Node000007" class="edge">
<title>Node2&#45;&gt;Node7</title>
<g id="a_edge6_Node000002_Node000007"><a xlink:title=" ">
<path fill="none" stroke="#63b8ff" d="M910.94,-121.36C806.22,-122.53 395.28,-123.63 62.12,-76 61.29,-75.88 60.46,-75.75 59.61,-75.62"/>
<polygon fill="#63b8ff" stroke="#63b8ff" points="60.5,-72.22 50.02,-73.76 59.17,-79.1 60.5,-72.22"/>
</a>
</g>
</g>
<!-- Node8 -->
<g id="Node000008" class="node">
<title>Node8</title>
<g id="a_Node000008"><a xlink:title=" ">
<polygon fill="#e0e0e0" stroke="#999999" points="297.75,-20 252.5,-20 252.5,0 297.75,0 297.75,-20"/>
<text text-anchor="middle" x="275.12" y="-6.5" font-family="Helvetica,sans-Serif" font-size="10.00">stdio.h</text>
</a>
</g>
</g>
<!-- Node2&#45;&gt;Node8 -->
<g id="edge7_Node000002_Node000008" class="edge">
<title>Node2&#45;&gt;Node8</title>
<g id="a_edge7_Node000002_Node000008"><a xlink:title=" ">
<path fill="none" stroke="#63b8ff" d="M910.99,-120.62C774.16,-118.42 123.92,-106.38 95.12,-76 50.78,-29.22 177.01,-16.01 240.76,-12.36"/>
<polygon fill="#63b8ff" stroke="#63b8ff" points="240.93,-15.86 250.73,-11.84 240.56,-8.87 240.93,-15.86"/>
</a>
</g>
</g>
<!-- Node9 -->
<g id="Node000009" class="node">
<title>Node9</title>
<g id="a_Node000009"><a xlink:title=" ">
<polygon fill="#e0e0e0" stroke="#999999" points="151.88,-76 104.38,-76 104.38,-56 151.88,-56 151.88,-76"/>
<text text-anchor="middle" x="128.12" y="-62.5" font-family="Helvetica,sans-Serif" font-size="10.00">stdlib.h</text>
</a>
</g>
</g>
<!-- Node2&#45;&gt;Node9 -->
<g id="edge8_Node000002_Node000009" class="edge">
<title>Node2&#45;&gt;Node9</title>
<g id="a_edge8_Node000002_Node000009"><a xlink:title=" ">
<path fill="none" stroke="#63b8ff" d="M910.94,-120.27C797.42,-116.88 331.76,-101.78 163.47,-76.17"/>
<polygon fill="#63b8ff" stroke="#63b8ff" points="164.03,-72.71 153.61,-74.59 162.92,-79.63 164.03,-72.71"/>
</a>
</g>
</g>
<!-- Node10 -->
<g id="Node000010" class="node">
<title>Node10</title>
<g id="a_Node000010"><a xlink:title=" ">
<polygon fill="#e0e0e0" stroke="#999999" points="236.62,-76 169.62,-76 169.62,-56 236.62,-56 236.62,-76"/>
<text text-anchor="middle" x="203.12" y="-62.5" font-family="Helvetica,sans-Serif" font-size="10.00">sys/types.h</text>
</a>
</g>
</g>
<!-- Node2&#45;&gt;Node10 -->
<g id="edge9_Node000002_Node000010" class="edge">
<title>Node2&#45;&gt;Node10</title>
<g id="a_edge9_Node000002_Node000010"><a xlink:title=" ">
<path fill="none" stroke="#63b8ff" d="M910.89,-120.68C821.63,-119.29 512.45,-112.11 248.33,-76.26"/>
<polygon fill="#63b8ff" stroke="#63b8ff" points="248.86,-72.8 238.47,-74.9 247.9,-79.73 248.86,-72.8"/>
</a>
</g>
</g>
<!-- Node11 -->
<g id="Node000011" class="node">
<title>Node11</title>
<g id="a_Node000011"><a xlink:title=" ">
<polygon fill="#e0e0e0" stroke="#999999" points="313.88,-76 254.38,-76 254.38,-56 313.88,-56 313.88,-76"/>
<text text-anchor="middle" x="284.12" y="-62.5" font-family="Helvetica,sans-Serif" font-size="10.00">sys/stat.h</text>
</a>
</g>
</g>
<!-- Node2&#45;&gt;Node11 -->
<g id="edge10_Node000002_Node000011" class="edge">
<title>Node2&#45;&gt;Node11</title>
<g id="a_edge10_Node000002_Node000011"><a xlink:title=" ">
<path fill="none" stroke="#63b8ff" d="M910.86,-120.53C828.18,-118.71 558.07,-110.48 325.32,-76.1"/>
<polygon fill="#63b8ff" stroke="#63b8ff" points="326.18,-72.68 315.77,-74.66 325.14,-79.61 326.18,-72.68"/>
</a>
</g>
</g>
<!-- Node12 -->
<g id="Node000012" class="node">
<title>Node12</title>
<g id="a_Node000012"><a xlink:title=" ">
<polygon fill="#e0e0e0" stroke="#999999" points="473.12,-20 427.12,-20 427.12,0 473.12,0 473.12,-20"/>
<text text-anchor="middle" x="450.12" y="-6.5" font-family="Helvetica,sans-Serif" font-size="10.00">math.h</text>
</a>
</g>
</g>
<!-- Node2&#45;&gt;Node12 -->
<g id="edge11_Node000002_Node000012" class="edge">
<title>Node2&#45;&gt;Node12</title>
<g id="a_edge11_Node000002_Node000012"><a xlink:title=" ">
<path fill="none" stroke="#63b8ff" d="M961.46,-121.06C1025.51,-120.63 1191.19,-115.63 1225.12,-76 1230.91,-69.25 1231.23,-62.46 1225.12,-56 1199.37,-28.71 631.74,-14.84 484.67,-11.7"/>
<polygon fill="#63b8ff" stroke="#63b8ff" points="484.87,-8.2 474.8,-11.49 484.72,-15.2 484.87,-8.2"/>
</a>
</g>
</g>
<!-- Node13 -->
<g id="Node000013" class="node">
<title>Node13</title>
<g id="a_Node000013"><a xlink:title=" ">
<polygon fill="#e0e0e0" stroke="#999999" points="466.25,-76 412,-76 412,-56 466.25,-56 466.25,-76"/>
<text text-anchor="middle" x="439.12" y="-62.5" font-family="Helvetica,sans-Serif" font-size="10.00">gtk/gtk.h</text>
</a>
</g>
</g>
<!-- Node2&#45;&gt;Node13 -->
<g id="edge12_Node000002_Node000013" class="edge">
<title>Node2&#45;&gt;Node13</title>
<g id="a_edge12_Node000002_Node000013"><a xlink:title=" ">
<path fill="none" stroke="#63b8ff" d="M910.96,-119.85C842.76,-116.46 648.53,-104.99 477.77,-76.22"/>
<polygon fill="#63b8ff" stroke="#63b8ff" points="478.49,-72.79 468.05,-74.56 477.31,-79.69 478.49,-72.79"/>
</a>
</g>
</g>
<!-- Node14 -->
<g id="Node000014" class="node">
<title>Node14</title>
<g id="a_Node000014"><a xlink:title=" ">
<polygon fill="#e0e0e0" stroke="#999999" points="543.88,-76 484.38,-76 484.38,-56 543.88,-56 543.88,-76"/>
<text text-anchor="middle" x="514.12" y="-62.5" font-family="Helvetica,sans-Serif" font-size="10.00">gtk/gtkx.h</text>
</a>
</g>
</g>
<!-- Node2&#45;&gt;Node14 -->
<g id="edge13_Node000002_Node000014" class="edge">
<title>Node2&#45;&gt;Node14</title>
<g id="a_edge13_Node000002_Node000014"><a xlink:title=" ">
<path fill="none" stroke="#63b8ff" d="M910.89,-119C851.02,-114.05 695.52,-100.01 555.62,-76.26"/>
<polygon fill="#63b8ff" stroke="#63b8ff" points="556.23,-72.81 545.78,-74.56 555.04,-79.71 556.23,-72.81"/>
</a>
</g>
</g>
<!-- Node15 -->
<g id="Node000015" class="node">
<title>Node15</title>
<g id="a_Node000015"><a xlink:title=" ">
<polygon fill="#e0e0e0" stroke="#999999" points="620.5,-76 561.75,-76 561.75,-56 620.5,-56 620.5,-76"/>
<text text-anchor="middle" x="591.12" y="-62.5" font-family="Helvetica,sans-Serif" font-size="10.00">gdk/gdk.h</text>
</a>
</g>
</g>
<!-- Node2&#45;&gt;Node15 -->
<g id="edge14_Node000002_Node000015" class="edge">
<title>Node2&#45;&gt;Node15</title>
<g id="a_edge14_Node000002_Node000015"><a xlink:title=" ">
<path fill="none" stroke="#63b8ff" d="M911.02,-118.01C860.35,-111.82 742.02,-96.61 632.17,-76.24"/>
<polygon fill="#63b8ff" stroke="#63b8ff" points="632.84,-72.81 622.37,-74.41 631.55,-79.69 632.84,-72.81"/>
</a>
</g>
</g>
<!-- Node16 -->
<g id="Node000016" class="node">
<title>Node16</title>
<g id="a_Node000016"><a xlink:title=" ">
<polygon fill="#e0e0e0" stroke="#999999" points="737.38,-76 638.88,-76 638.88,-56 737.38,-56 737.38,-76"/>
<text text-anchor="middle" x="688.12" y="-62.5" font-family="Helvetica,sans-Serif" font-size="10.00">gdk/gdkkeysyms.h</text>
</a>
</g>
</g>
<!-- Node2&#45;&gt;Node16 -->
<g id="edge15_Node000002_Node000016" class="edge">
<title>Node2&#45;&gt;Node16</title>
<g id="a_edge15_Node000002_Node000016"><a xlink:title=" ">
<path fill="none" stroke="#63b8ff" d="M910.98,-115.53C871.74,-106.98 795.04,-90.28 742.69,-78.88"/>
<polygon fill="#63b8ff" stroke="#63b8ff" points="743.58,-75.49 733.07,-76.79 742.09,-82.33 743.58,-75.49"/>
</a>
</g>
</g>
<!-- Node17 -->
<g id="Node000017" class="node">
<title>Node17</title>
<g id="a_Node000017"><a xlink:title=" ">
<polygon fill="#e0e0e0" stroke="#999999" points="872.75,-76 755.5,-76 755.5,-56 872.75,-56 872.75,-76"/>
<text text-anchor="middle" x="814.12" y="-62.5" font-family="Helvetica,sans-Serif" font-size="10.00">gdk&#45;pixbuf/gdk&#45;pixbuf.h</text>
</a>
</g>
</g>
<!-- Node2&#45;&gt;Node17 -->
<g id="edge16_Node000002_Node000017" class="edge">
<title>Node2&#45;&gt;Node17</title>
<g id="a_edge16_Node000002_Node000017"><a xlink:title=" ">
<path fill="none" stroke="#63b8ff" d="M914.87,-111.59C895.84,-103.17 867.65,-90.69 845.92,-81.07"/>
<polygon fill="#63b8ff" stroke="#63b8ff" points="847.49,-77.94 836.93,-77.09 844.65,-84.34 847.49,-77.94"/>
</a>
</g>
</g>
<!-- Node18 -->
<g id="Node000018" class="node">
<title>Node18</title>
<g id="a_Node000018"><a xlink:title=" ">
<polygon fill="#e0e0e0" stroke="#999999" points="981.62,-76 890.62,-76 890.62,-56 981.62,-56 981.62,-76"/>
<text text-anchor="middle" x="936.12" y="-62.5" font-family="Helvetica,sans-Serif" font-size="10.00">pango/pangoft2.h</text>
</a>
</g>
</g>
<!-- Node2&#45;&gt;Node18 -->
<g id="edge17_Node000002_Node000018" class="edge">
<title>Node2&#45;&gt;Node18</title>
<g id="a_edge17_Node000002_Node000018"><a xlink:title=" ">
<path fill="none" stroke="#63b8ff" d="M936.12,-111.59C936.12,-105.01 936.12,-95.96 936.12,-87.73"/>
<polygon fill="#63b8ff" stroke="#63b8ff" points="939.63,-87.81 936.13,-77.81 932.63,-87.81 939.63,-87.81"/>
</a>
</g>
</g>
<!-- Node19 -->
<g id="Node000019" class="node">
<title>Node19</title>
<g id="a_Node000019"><a xlink:title=" ">
<polygon fill="#e0e0e0" stroke="#999999" points="1060.62,-76 999.62,-76 999.62,-56 1060.62,-56 1060.62,-76"/>
<text text-anchor="middle" x="1030.12" y="-62.5" font-family="Helvetica,sans-Serif" font-size="10.00">epoxy/gl.h</text>
</a>
</g>
</g>
<!-- Node2&#45;&gt;Node19 -->
<g id="edge18_Node000002_Node000019" class="edge">
<title>Node2&#45;&gt;Node19</title>
<g id="a_edge18_Node000002_Node000019"><a xlink:title=" ">
<path fill="none" stroke="#63b8ff" d="M952.5,-111.59C966.7,-103.44 987.51,-91.48 1004.01,-82"/>
<polygon fill="#63b8ff" stroke="#63b8ff" points="1005.38,-85.25 1012.31,-77.23 1001.9,-79.18 1005.38,-85.25"/>
</a>
</g>
</g>
<!-- Node20 -->
<g id="Node000020" class="node">
<title>Node20</title>
<g id="a_Node000020"><a xlink:title=" ">
<polygon fill="#e0e0e0" stroke="#999999" points="1131.5,-76 1078.75,-76 1078.75,-56 1131.5,-56 1131.5,-76"/>
<text text-anchor="middle" x="1105.12" y="-62.5" font-family="Helvetica,sans-Serif" font-size="10.00">GL/glu.h</text>
</a>
</g>
</g>
<!-- Node2&#45;&gt;Node20 -->
<g id="edge19_Node000002_Node000020" class="edge">
<title>Node2&#45;&gt;Node20</title>
<g id="a_edge19_Node000002_Node000020"><a xlink:title=" ">
<path fill="none" stroke="#63b8ff" d="M961.43,-112.92C989.51,-103.94 1035.14,-89.36 1067.44,-79.04"/>
<polygon fill="#63b8ff" stroke="#63b8ff" points="1068.35,-82.42 1076.81,-76.05 1066.22,-75.76 1068.35,-82.42"/>
</a>
</g>
</g>
<!-- Node21 -->
<g id="Node000021" class="node">
<title>Node21</title>
<g id="a_Node000021"><a xlink:title=" ">
<polygon fill="#e0e0e0" stroke="#999999" points="1216.25,-76 1150,-76 1150,-56 1216.25,-56 1216.25,-76"/>
<text text-anchor="middle" x="1183.12" y="-62.5" font-family="Helvetica,sans-Serif" font-size="10.00">epoxy/glx.h</text>
</a>
</g>
</g>
<!-- Node2&#45;&gt;Node21 -->
<g id="edge20_Node000002_Node000021" class="edge">
<title>Node2&#45;&gt;Node21</title>
<g id="a_edge20_Node000002_Node000021"><a xlink:title=" ">
<path fill="none" stroke="#63b8ff" d="M961.17,-115.53C1002.79,-106.43 1086.73,-88.07 1138.62,-76.73"/>
<polygon fill="#63b8ff" stroke="#63b8ff" points="1139.31,-80.16 1148.33,-74.61 1137.82,-73.32 1139.31,-80.16"/>
</a>
</g>
</g>
<!-- Node22 -->
<g id="Node000022" class="node">
<title>Node22</title>
<g id="a_Node000022"><a xlink:href="../../dc/db0/math__3d_8h.html" target="_top" xlink:title="Functions for OpenGL math.">
<polygon fill="white" stroke="#666666" points="394,-76 332.25,-76 332.25,-56 394,-56 394,-76"/>
<text text-anchor="middle" x="363.12" y="-62.5" font-family="Helvetica,sans-Serif" font-size="10.00">math_3d.h</text>
</a>
</g>
</g>
<!-- Node2&#45;&gt;Node22 -->
<g id="edge21_Node000002_Node000022" class="edge">
<title>Node2&#45;&gt;Node22</title>
<g id="a_edge21_Node000002_Node000022"><a xlink:title=" ">
<path fill="none" stroke="#63b8ff" d="M911.01,-120.1C835.84,-117.16 605.99,-106.3 405.81,-76.21"/>
<polygon fill="#63b8ff" stroke="#63b8ff" points="406.4,-72.76 395.99,-74.71 405.34,-79.68 406.4,-72.76"/>
</a>
</g>
</g>
<!-- Node23 -->
<g id="Node000023" class="node">
<title>Node23</title>
<g id="a_Node000023"><a xlink:href="../../da/d7e/glwin_8h.html" target="_top" xlink:title="Variable declarations related the OpenGL window &#160;&#160;Data structure declarations related the OpenGL wind...">
<polygon fill="white" stroke="#666666" points="1318.5,-76 1271.75,-76 1271.75,-56 1318.5,-56 1318.5,-76"/>
<text text-anchor="middle" x="1295.12" y="-62.5" font-family="Helvetica,sans-Serif" font-size="10.00">glwin.h</text>
</a>
</g>
</g>
<!-- Node2&#45;&gt;Node23 -->
<g id="edge24_Node000002_Node000023" class="edge">
<title>Node2&#45;&gt;Node23</title>
<g id="a_edge24_Node000002_Node000023"><a xlink:title=" ">
<path fill="none" stroke="#63b8ff" d="M961.32,-118.35C1015.76,-112.42 1148.35,-96.97 1258.12,-76 1258.79,-75.87 1259.47,-75.74 1260.15,-75.6"/>
<polygon fill="#63b8ff" stroke="#63b8ff" points="1260.82,-79.04 1269.84,-73.48 1259.32,-72.2 1260.82,-79.04"/>
</a>
</g>
</g>
<!-- Node22&#45;&gt;Node8 -->
<g id="edge23_Node000022_Node000008" class="edge">
<title>Node22&#45;&gt;Node8</title>
<g id="a_edge23_Node000022_Node000008"><a xlink:title=" ">
<path fill="none" stroke="#63b8ff" d="M347.8,-55.59C334.63,-47.51 315.39,-35.71 300.02,-26.27"/>
<polygon fill="#63b8ff" stroke="#63b8ff" points="302.22,-23.52 291.86,-21.27 298.56,-29.48 302.22,-23.52"/>
</a>
</g>
</g>
<!-- Node22&#45;&gt;Node12 -->
<g id="edge22_Node000022_Node000012" class="edge">
<title>Node22&#45;&gt;Node12</title>
<g id="a_edge22_Node000022_Node000012"><a xlink:title=" ">
<path fill="none" stroke="#63b8ff" d="M378.28,-55.59C391.17,-47.59 409.96,-35.93 425.08,-26.54"/>
<polygon fill="#63b8ff" stroke="#63b8ff" points="426.92,-29.53 433.57,-21.28 423.22,-23.58 426.92,-29.53"/>
</a>
</g>
</g>
<!-- Node24 -->
<g id="Node000024" class="node">
<title>Node24</title>
<g id="a_Node000024"><a xlink:href="../../d5/d9e/ogl__shading_8h.html" target="_top" xlink:title="Variable declarations related to GLSL programs &#160;&#160;Data structure declarations related to GLSL programs...">
<polygon fill="white" stroke="#666666" points="1333.12,-20 1257.12,-20 1257.12,0 1333.12,0 1333.12,-20"/>
<text text-anchor="middle" x="1295.12" y="-6.5" font-family="Helvetica,sans-Serif" font-size="10.00">ogl_shading.h</text>
</a>
</g>
</g>
<!-- Node23&#45;&gt;Node24 -->
<g id="edge25_Node000023_Node000024" class="edge">
<title>Node23&#45;&gt;Node24</title>
<g id="a_edge25_Node000023_Node000024"><a xlink:title=" ">
<path fill="none" stroke="#63b8ff" d="M1295.12,-55.59C1295.12,-49.01 1295.12,-39.96 1295.12,-31.73"/>
<polygon fill="#63b8ff" stroke="#63b8ff" points="1298.63,-31.81 1295.13,-21.81 1291.63,-31.81 1298.63,-31.81"/>
</a>
</g>
</g>
<!-- Node29&#45;&gt;Node2 -->
<g id="edge31_Node000029_Node000002" class="edge">
<title>Node29&#45;&gt;Node2</title>
<g id="a_edge31_Node000029_Node000002"><a xlink:title=" ">
<path fill="none" stroke="#63b8ff" d="M1481.33,-169.46C1478.22,-168.92 1475.12,-168.42 1472.12,-168 1285.35,-141.57 1059.61,-128.83 972.68,-124.63"/>
<polygon fill="#63b8ff" stroke="#63b8ff" points="973.02,-121.15 962.87,-124.17 972.69,-128.14 973.02,-121.15"/>
</a>
</g>
</g>
<!-- Node30 -->
<g id="Node000030" class="node">
<title>Node30</title>
<g id="a_Node000030"><a xlink:title=" ">
<polygon fill="#e0e0e0" stroke="#999999" points="1708.88,-76 1613.38,-76 1613.38,-56 1708.88,-56 1708.88,-76"/>
<text text-anchor="middle" x="1661.12" y="-62.5" font-family="Helvetica,sans-Serif" font-size="10.00">libxml/xmlreader.h</text>
</a>
</g>
</g>
<!-- Node29&#45;&gt;Node30 -->
<g id="edge32_Node000029_Node000030" class="edge">
<title>Node29&#45;&gt;Node30</title>
<g id="a_edge32_Node000029_Node000030"><a xlink:title=" ">
<path fill="none" stroke="#63b8ff" d="M1529.4,-167.62C1553.95,-148.87 1609.35,-106.55 1639.9,-83.21"/>
<polygon fill="#63b8ff" stroke="#63b8ff" points="1641.85,-86.13 1647.68,-77.27 1637.6,-80.56 1641.85,-86.13"/>
</a>
</g>
</g>
<!-- Node32 -->
<g id="Node000032" class="node">
<title>Node32</title>
<g id="a_Node000032"><a xlink:href="../../dc/d50/read__isaacs_8h.html" target="_top" xlink:title="Function declarations to read / write ISAACS XML file.">
<polygon fill="white" stroke="#666666" points="1811.5,-132 1734.75,-132 1734.75,-112 1811.5,-112 1811.5,-132"/>
<text text-anchor="middle" x="1773.12" y="-118.5" font-family="Helvetica,sans-Serif" font-size="10.00">read_isaacs.h</text>
</a>
</g>
</g>
<!-- Node31&#45;&gt;Node32 -->
<g id="edge34_Node000031_Node000032" class="edge">
<title>Node31&#45;&gt;Node32</title>
<g id="a_edge34_Node000031_Node000032"><a xlink:title=" ">
<path fill="none" stroke="#63b8ff" d="M1760.74,-167.59C1762.61,-160.86 1765.2,-151.53 1767.53,-143.15"/>
<polygon fill="#63b8ff" stroke="#63b8ff" points="1770.83,-144.33 1770.14,-133.76 1764.09,-142.46 1770.83,-144.33"/>
</a>
</g>
</g>
<!-- Node32&#45;&gt;Node30 -->
<g id="edge37_Node000032_Node000030" class="edge">
<title>Node32&#45;&gt;Node30</title>
<g id="a_edge37_Node000032_Node000030"><a xlink:title=" ">
<path fill="none" stroke="#63b8ff" d="M1753.62,-111.59C1736.38,-103.28 1710.97,-91.03 1691.14,-81.47"/>
<polygon fill="#63b8ff" stroke="#63b8ff" points="1692.68,-78.33 1682.15,-77.14 1689.64,-84.63 1692.68,-78.33"/>
</a>
</g>
</g>
<!-- Node33 -->
<g id="Node000033" class="node">
<title>Node33</title>
<g id="a_Node000033"><a xlink:title=" ">
<polygon fill="#e0e0e0" stroke="#999999" points="2027,-76 1935.25,-76 1935.25,-56 2027,-56 2027,-76"/>
<text text-anchor="middle" x="1981.12" y="-62.5" font-family="Helvetica,sans-Serif" font-size="10.00">libxml/encoding.h</text>
</a>
</g>
</g>
<!-- Node32&#45;&gt;Node33 -->
<g id="edge35_Node000032_Node000033" class="edge">
<title>Node32&#45;&gt;Node33</title>
<g id="a_edge35_Node000032_Node000033"><a xlink:title=" ">
<path fill="none" stroke="#63b8ff" d="M1809.36,-111.59C1843.89,-102.63 1896.09,-89.08 1933.87,-79.27"/>
<polygon fill="#63b8ff" stroke="#63b8ff" points="1934.35,-82.76 1943.15,-76.86 1932.59,-75.99 1934.35,-82.76"/>
</a>
</g>
</g>
<!-- Node34 -->
<g id="Node000034" class="node">
<title>Node34</title>
<g id="a_Node000034"><a xlink:title=" ">
<polygon fill="#e0e0e0" stroke="#999999" points="1819.38,-76 1726.88,-76 1726.88,-56 1819.38,-56 1819.38,-76"/>
<text text-anchor="middle" x="1773.12" y="-62.5" font-family="Helvetica,sans-Serif" font-size="10.00">libxml/xmlwriter.h</text>
</a>
</g>
</g>
<!-- Node32&#45;&gt;Node34 -->
<g id="edge36_Node000032_Node000034" class="edge">
<title>Node32&#45;&gt;Node34</title>
<g id="a_edge36_Node000032_Node000034"><a xlink:title=" ">
<path fill="none" stroke="#63b8ff" d="M1773.12,-111.59C1773.12,-105.01 1773.12,-95.96 1773.12,-87.73"/>
<polygon fill="#63b8ff" stroke="#63b8ff" points="1776.63,-87.81 1773.13,-77.81 1769.63,-87.81 1776.63,-87.81"/>
</a>
</g>
</g>
<!-- Node35 -->
<g id="Node000035" class="node">
<title>Node35</title>
<g id="a_Node000035"><a xlink:title=" ">
<polygon fill="#e0e0e0" stroke="#999999" points="1917,-76 1837.25,-76 1837.25,-56 1917,-56 1917,-76"/>
<text text-anchor="middle" x="1877.12" y="-62.5" font-family="Helvetica,sans-Serif" font-size="10.00">libxml/parser.h</text>
</a>
</g>
</g>
<!-- Node32&#45;&gt;Node35 -->
<g id="edge38_Node000032_Node000035" class="edge">
<title>Node32&#45;&gt;Node35</title>
<g id="a_edge38_Node000032_Node000035"><a xlink:title=" ">
<path fill="none" stroke="#63b8ff" d="M1791.24,-111.59C1807.1,-103.36 1830.41,-91.26 1848.74,-81.74"/>
<polygon fill="#63b8ff" stroke="#63b8ff" points="1850.26,-84.89 1857.52,-77.18 1847.04,-78.68 1850.26,-84.89"/>
</a>
</g>
</g>
</g>
</svg>
