<?xml version="1.0" encoding="UTF-8" standalone="no"?>
<!DOCTYPE svg PUBLIC "-//W3C//DTD SVG 1.1//EN"
 "http://www.w3.org/Graphics/SVG/1.1/DTD/svg11.dtd">
<!-- Generated by graphviz version 9.0.0 (20230911.1827)
 -->
<!-- Title: atomic_object Pages: 1 -->
<svg width="185pt" height="104pt"
 viewBox="0.00 0.00 185.00 104.00" xmlns="http://www.w3.org/2000/svg" xmlns:xlink="http://www.w3.org/1999/xlink">

<svg id="main" version="1.1" xmlns="http://www.w3.org/2000/svg" xmlns:xlink="http://www.w3.org/1999/xlink" xml:space="preserve" onload="init(evt)">
<style type="text/css"><![CDATA[
.node, .edge {opacity: 0.7;}
.node.selected, .edge.selected {opacity: 1;}
.edge:hover path { stroke: red; }
.edge:hover polygon { stroke: red; fill: red; }
]]></style>
<script type="application/ecmascript" xlink:href="../../svg.min.js"/>
<svg id="graph" class="graph">
<g id="graph0" class="graph" transform="scale(1 1) rotate(0) translate(4 100)">
<title>atomic_object</title>
<!-- Node1 -->
<g id="Node000001" class="node">
<title>Node1</title>
<g id="a_Node000001"><a xlink:title=" ">
<polygon fill="#999999" stroke="#666666" points="137.25,-22 60.5,-22 60.5,-2 137.25,-2 137.25,-22"/>
<text text-anchor="middle" x="98.88" y="-8.5" font-family="Helvetica,sans-Serif" font-size="10.00">atomic_object</text>
</a>
</g>
</g>
<!-- Node1&#45;&gt;Node1 -->
<g id="edge4_Node000001_Node000001" class="edge">
<title>Node1&#45;&gt;Node1</title>
<g id="a_edge4_Node000001_Node000001"><a xlink:title=" ">
<path fill="none" stroke="#9a32cd" stroke-dasharray="5,2" d="M148.96,-17.1C152.85,-15.97 155.25,-14.27 155.25,-12 155.25,-7.96 147.67,-5.73 137.61,-5.32"/>
<polygon fill="#9a32cd" stroke="#9a32cd" points="148.53,-13.62 139.11,-18.47 149.49,-20.56 148.53,-13.62"/>
</a>
</g>
<text text-anchor="middle" x="166.12" y="-14.5" font-family="Helvetica,sans-Serif" font-size="10.00" fill="grey"> next</text>
<text text-anchor="middle" x="166.12" y="-2.5" font-family="Helvetica,sans-Serif" font-size="10.00" fill="grey">prev</text>
</g>
<!-- Node2 -->
<g id="Node000002" class="node">
<title>Node2</title>
<g id="a_Node000002"><a xlink:href="../../da/d81/structatom.html" target="_top" xlink:title=" ">
<polygon fill="white" stroke="#666666" points="37.75,-94 0,-94 0,-74 37.75,-74 37.75,-94"/>
<text text-anchor="middle" x="18.88" y="-80.5" font-family="Helvetica,sans-Serif" font-size="10.00">atom</text>
</a>
</g>
</g>
<!-- Node2&#45;&gt;Node1 -->
<g id="edge1_Node000001_Node000002" class="edge">
<title>Node2&#45;&gt;Node1</title>
<g id="a_edge1_Node000001_Node000002"><a xlink:title=" ">
<path fill="none" stroke="#9a32cd" stroke-dasharray="5,2" d="M38.13,-66.15C53.86,-52.39 75.5,-33.45 88.26,-22.29"/>
<polygon fill="#9a32cd" stroke="#9a32cd" points="36.02,-63.34 30.8,-72.56 40.63,-68.61 36.02,-63.34"/>
</a>
</g>
<text text-anchor="middle" x="78.5" y="-44.5" font-family="Helvetica,sans-Serif" font-size="10.00" fill="grey"> at_list</text>
</g>
<!-- Node2&#45;&gt;Node2 -->
<g id="edge2_Node000002_Node000002" class="edge">
<title>Node2&#45;&gt;Node2</title>
<g id="a_edge2_Node000002_Node000002"><a xlink:title=" ">
<path fill="none" stroke="#9a32cd" stroke-dasharray="5,2" d="M49.54,-89.84C53.29,-88.79 55.75,-86.85 55.75,-84 55.75,-78.8 47.53,-76.6 38.23,-77.41"/>
<polygon fill="#9a32cd" stroke="#9a32cd" points="49.48,-86.33 39.74,-90.49 49.95,-93.32 49.48,-86.33"/>
</a>
</g>
<text text-anchor="middle" x="66.62" y="-86.5" font-family="Helvetica,sans-Serif" font-size="10.00" fill="grey"> next</text>
<text text-anchor="middle" x="66.62" y="-74.5" font-family="Helvetica,sans-Serif" font-size="10.00" fill="grey">prev</text>
</g>
<!-- Node3 -->
<g id="Node000003" class="node">
<title>Node3</title>
<g id="a_Node000003"><a xlink:href="../../df/ddc/structcoord__info.html" target="_top" xlink:title=" ">
<polygon fill="white" stroke="#666666" points="156.38,-94 95.38,-94 95.38,-74 156.38,-74 156.38,-94"/>
<text text-anchor="middle" x="125.88" y="-80.5" font-family="Helvetica,sans-Serif" font-size="10.00">coord_info</text>
</a>
</g>
</g>
<!-- Node3&#45;&gt;Node1 -->
<g id="edge3_Node000001_Node000003" class="edge">
<title>Node3&#45;&gt;Node1</title>
<g id="a_edge3_Node000001_Node000003"><a xlink:title=" ">
<path fill="none" stroke="#9a32cd" stroke-dasharray="5,2" d="M118.15,-62.98C112.99,-49.6 106.44,-32.62 102.46,-22.29"/>
<polygon fill="#9a32cd" stroke="#9a32cd" points="114.82,-64.08 121.69,-72.15 121.36,-61.56 114.82,-64.08"/>
</a>
</g>
<text text-anchor="middle" x="127.38" y="-44.5" font-family="Helvetica,sans-Serif" font-size="10.00" fill="grey"> coord</text>
</g>
</g>
</svg>
</svg>

<style type='text/css'>
<![CDATA[
[data-mouse-over-selected='false'] { opacity: 0.7; }
[data-mouse-over-selected='true']  { opacity: 1.0; }
]]>
</style>
<script type="application/ecmascript"><![CDATA[
document.addEventListener('DOMContentLoaded', (event) => {
  highlightEdges();
  highlightAdjacentNodes();
});
]]></script>
</svg>
