<?xml version="1.0" encoding="UTF-8" standalone="no"?>
<!DOCTYPE svg PUBLIC "-//W3C//DTD SVG 1.1//EN"
 "http://www.w3.org/Graphics/SVG/1.1/DTD/svg11.dtd">
<!-- Generated by graphviz version 7.1.0 (0)
 -->
<!-- Title: atomic_object Pages: 1 -->
<svg width="187pt" height="99pt"
 viewBox="0.00 0.00 186.50 99.00" xmlns="http://www.w3.org/2000/svg" xmlns:xlink="http://www.w3.org/1999/xlink">
<g id="graph0" class="graph" transform="scale(1 1) rotate(0) translate(4 95)">
<title>atomic_object</title>
<!-- Node1 -->
<g id="node1" class="node">
<title>Node1</title>
<g id="a_node1"><a xlink:title="a data structure to describe an object to work on. &#160;the object can be one or more:">
<polygon fill="#999999" stroke="#666666" points="138.5,-20.5 61.5,-20.5 61.5,-1.5 138.5,-1.5 138.5,-20.5"/>
<text text-anchor="middle" x="100" y="-8.5" font-family="Helvetica,sans-Serif" font-size="10.00">atomic_object</text>
</a>
</g>
</g>
<!-- Node1&#45;&gt;Node1 -->
<g id="edge4" class="edge">
<title>Node1&#45;&gt;Node1</title>
<path fill="none" stroke="#9a32cd" stroke-dasharray="5,2" d="M150.2,-15.89C154.09,-14.81 156.5,-13.18 156.5,-11 156.5,-7.13 148.9,-4.99 138.82,-4.6"/>
<polygon fill="#9a32cd" stroke="#9a32cd" points="149.77,-12.41 140.32,-17.2 150.69,-19.35 149.77,-12.41"/>
<text text-anchor="middle" x="167.5" y="-14" font-family="Helvetica,sans-Serif" font-size="10.00"> next</text>
<text text-anchor="middle" x="167.5" y="-3" font-family="Helvetica,sans-Serif" font-size="10.00">prev</text>
</g>
<!-- Node2 -->
<g id="node2" class="node">
<title>Node2</title>
<g id="a_node2"><a xlink:href="../../da/d81/structatom.html" target="_top" xlink:title="The data structure for an atom.">
<polygon fill="white" stroke="#666666" points="38,-89.5 0,-89.5 0,-70.5 38,-70.5 38,-89.5"/>
<text text-anchor="middle" x="19" y="-77.5" font-family="Helvetica,sans-Serif" font-size="10.00">atom</text>
</a>
</g>
</g>
<!-- Node2&#45;&gt;Node1 -->
<g id="edge1" class="edge">
<title>Node2&#45;&gt;Node1</title>
<path fill="none" stroke="#9a32cd" stroke-dasharray="5,2" d="M38.13,-63.18C54.04,-50.01 76.12,-31.75 89.15,-20.98"/>
<polygon fill="#9a32cd" stroke="#9a32cd" points="36.23,-60.21 30.76,-69.28 40.69,-65.6 36.23,-60.21"/>
<text text-anchor="middle" x="80" y="-43" font-family="Helvetica,sans-Serif" font-size="10.00"> at_list</text>
</g>
<!-- Node2&#45;&gt;Node2 -->
<g id="edge2" class="edge">
<title>Node2&#45;&gt;Node2</title>
<path fill="none" stroke="#9a32cd" stroke-dasharray="5,2" d="M49.77,-85.59C53.53,-84.59 56,-82.73 56,-80 56,-75.01 47.76,-72.91 38.42,-73.69"/>
<polygon fill="#9a32cd" stroke="#9a32cd" points="49.69,-82.09 39.93,-86.22 50.13,-89.08 49.69,-82.09"/>
<text text-anchor="middle" x="67" y="-83" font-family="Helvetica,sans-Serif" font-size="10.00"> next</text>
<text text-anchor="middle" x="67" y="-72" font-family="Helvetica,sans-Serif" font-size="10.00">prev</text>
</g>
<!-- Node3 -->
<g id="node3" class="node">
<title>Node3</title>
<g id="a_node3"><a xlink:href="../../df/ddc/structcoord__info.html" target="_top" xlink:title="Data structure to store coordination information.">
<polygon fill="white" stroke="#666666" points="158,-89.5 96,-89.5 96,-70.5 158,-70.5 158,-89.5"/>
<text text-anchor="middle" x="127" y="-77.5" font-family="Helvetica,sans-Serif" font-size="10.00">coord_info</text>
</a>
</g>
</g>
<!-- Node3&#45;&gt;Node1 -->
<g id="edge3" class="edge">
<title>Node3&#45;&gt;Node1</title>
<path fill="none" stroke="#9a32cd" stroke-dasharray="5,2" d="M119.24,-59.75C114.1,-46.99 107.59,-30.84 103.62,-20.98"/>
<polygon fill="#9a32cd" stroke="#9a32cd" points="115.92,-60.87 122.9,-68.84 122.41,-58.25 115.92,-60.87"/>
<text text-anchor="middle" x="129" y="-43" font-family="Helvetica,sans-Serif" font-size="10.00"> coord</text>
</g>
</g>
</svg>
