<?xml version="1.0" encoding="UTF-8" standalone="no"?>
<!DOCTYPE svg PUBLIC "-//W3C//DTD SVG 1.1//EN"
 "http://www.w3.org/Graphics/SVG/1.1/DTD/svg11.dtd">
<!-- Generated by graphviz version 2.43.0 (0)
 -->
<!-- Title: atomic_object Pages: 1 -->
<svg width="202pt" height="99pt"
 viewBox="0.00 0.00 202.00 99.00" xmlns="http://www.w3.org/2000/svg" xmlns:xlink="http://www.w3.org/1999/xlink">

<svg id="main" version="1.1" xmlns="http://www.w3.org/2000/svg" xmlns:xlink="http://www.w3.org/1999/xlink" xml:space="preserve" onload="init(evt)">
<style type="text/css"><![CDATA[
.node, .edge {opacity: 0.7;}
.node.selected, .edge.selected {opacity: 1;}
.edge:hover path { stroke: red; }
.edge:hover polygon { stroke: red; fill: red; }
]]></style>
<script type="application/ecmascript" xlink:href="../../svg.min.js"/>
<svg id="graph" class="graph">
<g id="graph0" class="graph" transform="scale(1 1) rotate(0) translate(4 95)">
<title>atomic_object</title>
<!-- Node1 -->
<g id="Node000001" class="node">
<title>Node1</title>
<g id="a_Node000001"><a xlink:title=" ">
<polygon fill="#999999" stroke="#666666" points="151,-20.5 65,-20.5 65,-1.5 151,-1.5 151,-20.5"/>
<text text-anchor="middle" x="108" y="-8.5" font-family="Helvetica,sans-Serif" font-size="10.00">atomic_object</text>
</a>
</g>
</g>
<!-- Node1&#45;&gt;Node1 -->
<g id="edge4_Node000001_Node000001" class="edge">
<title>Node1&#45;&gt;Node1</title>
<g id="a_edge4_Node000001_Node000001"><a xlink:title=" ">
<path fill="none" stroke="#9a32cd" stroke-dasharray="5,2" d="M161.25,-16.04C166.01,-14.98 169,-13.3 169,-11 169,-7.31 161.35,-5.23 151.04,-4.74"/>
<polygon fill="#9a32cd" stroke="#9a32cd" points="160.55,-12.6 151.04,-17.26 161.38,-19.55 160.55,-12.6"/>
</a>
</g>
<text text-anchor="middle" x="181.5" y="-14" font-family="Helvetica,sans-Serif" font-size="10.00" fill="grey"> next</text>
<text text-anchor="middle" x="181.5" y="-3" font-family="Helvetica,sans-Serif" font-size="10.00" fill="grey">prev</text>
</g>
<!-- Node2 -->
<g id="Node000002" class="node">
<title>Node2</title>
<g id="a_Node000002"><a xlink:href="../../da/d81/structatom.html" target="_top" xlink:title=" ">
<polygon fill="white" stroke="#666666" points="42,-89.5 0,-89.5 0,-70.5 42,-70.5 42,-89.5"/>
<text text-anchor="middle" x="21" y="-77.5" font-family="Helvetica,sans-Serif" font-size="10.00">atom</text>
</a>
</g>
</g>
<!-- Node2&#45;&gt;Node1 -->
<g id="edge1_Node000001_Node000002" class="edge">
<title>Node2&#45;&gt;Node1</title>
<g id="a_edge1_Node000001_Node000002"><a xlink:title=" ">
<path fill="none" stroke="#9a32cd" stroke-dasharray="5,2" d="M40.7,-63.83C58.07,-50.45 82.76,-31.44 96.9,-20.55"/>
<polygon fill="#9a32cd" stroke="#9a32cd" points="38.16,-61.37 32.37,-70.24 42.43,-66.91 38.16,-61.37"/>
</a>
</g>
<text text-anchor="middle" x="87" y="-43" font-family="Helvetica,sans-Serif" font-size="10.00" fill="grey"> at_list</text>
</g>
<!-- Node2&#45;&gt;Node2 -->
<g id="edge2_Node000002_Node000002" class="edge">
<title>Node2&#45;&gt;Node2</title>
<g id="a_edge2_Node000002_Node000002"><a xlink:title=" ">
<path fill="none" stroke="#9a32cd" stroke-dasharray="5,2" d="M52.41,-85.74C56.95,-84.83 60,-82.91 60,-80 60,-75.22 51.77,-73.13 42.26,-73.72"/>
<polygon fill="#9a32cd" stroke="#9a32cd" points="52.06,-82.26 42.26,-86.28 52.43,-89.25 52.06,-82.26"/>
</a>
</g>
<text text-anchor="middle" x="72.5" y="-83" font-family="Helvetica,sans-Serif" font-size="10.00" fill="grey"> next</text>
<text text-anchor="middle" x="72.5" y="-72" font-family="Helvetica,sans-Serif" font-size="10.00" fill="grey">prev</text>
</g>
<!-- Node3 -->
<g id="Node000003" class="node">
<title>Node3</title>
<g id="a_Node000003"><a xlink:href="../../df/ddc/structcoord__info.html" target="_top" xlink:title=" ">
<polygon fill="white" stroke="#666666" points="171,-89.5 103,-89.5 103,-70.5 171,-70.5 171,-89.5"/>
<text text-anchor="middle" x="137" y="-77.5" font-family="Helvetica,sans-Serif" font-size="10.00">coord_info</text>
</a>
</g>
</g>
<!-- Node3&#45;&gt;Node1 -->
<g id="edge3_Node000001_Node000003" class="edge">
<title>Node3&#45;&gt;Node1</title>
<g id="a_edge3_Node000001_Node000003"><a xlink:title=" ">
<path fill="none" stroke="#9a32cd" stroke-dasharray="5,2" d="M129.12,-60.8C123.46,-47.71 116.07,-30.64 111.7,-20.55"/>
<polygon fill="#9a32cd" stroke="#9a32cd" points="126.02,-62.45 133.21,-70.24 132.45,-59.67 126.02,-62.45"/>
</a>
</g>
<text text-anchor="middle" x="139.5" y="-43" font-family="Helvetica,sans-Serif" font-size="10.00" fill="grey"> coord</text>
</g>
</g>
</svg>
</svg>

<style type='text/css'>
<![CDATA[
[data-mouse-over-selected='false'] { opacity: 0.7; }
[data-mouse-over-selected='true']  { opacity: 1.0; }
]]>
</style>
<script type="application/ecmascript"><![CDATA[
document.addEventListener('DOMContentLoaded', (event) => {
  highlightEdges();
  highlightAdjacentNodes();
});
]]></script>
</svg>
