<?xml version="1.0" encoding="UTF-8" standalone="no"?>
<!DOCTYPE svg PUBLIC "-//W3C//DTD SVG 1.1//EN"
 "http://www.w3.org/Graphics/SVG/1.1/DTD/svg11.dtd">
<!-- Generated by graphviz version 14.1.4 (20260321.0153)
 -->
<!-- Title: gui/sqcall.c Pages: 1 -->
<svg width="1802pt" height="252pt"
 viewBox="0.00 0.00 1802.00 252.00" xmlns="http://www.w3.org/2000/svg" xmlns:xlink="http://www.w3.org/1999/xlink">
<g id="graph0" class="graph" transform="scale(1 1) rotate(0) translate(4 248)">
<title>gui/sqcall.c</title>
<!-- Node1 -->
<g id="Node000001" class="node">
<title>Node1</title>
<g id="a_Node000001"><a xlink:title="Callbacks for the s(q) / s(k) calculation dialog.">
<polygon fill="#999999" stroke="#666666" points="298.88,-244 233.38,-244 233.38,-224 298.88,-224 298.88,-244"/>
<text xml:space="preserve" text-anchor="middle" x="266.12" y="-230.5" font-family="Helvetica,sans-Serif" font-size="10.00">gui/sqcall.c</text>
</a>
</g>
</g>
<!-- Node2 -->
<g id="Node000002" class="node">
<title>Node2</title>
<g id="a_Node000002"><a xlink:title=" ">
<polygon fill="#e0e0e0" stroke="#999999" points="54.25,-76 0,-76 0,-56 54.25,-56 54.25,-76"/>
<text xml:space="preserve" text-anchor="middle" x="27.12" y="-62.5" font-family="Helvetica,sans-Serif" font-size="10.00">gtk/gtk.h</text>
</a>
</g>
</g>
<!-- Node1&#45;&gt;Node2 -->
<g id="edge1_Node000001_Node000002" class="edge">
<title>Node1&#45;&gt;Node2</title>
<g id="a_edge1_Node000001_Node000002"><a xlink:title=" ">
<path fill="none" stroke="#63b8ff" d="M232.94,-225.11C207.29,-218.02 171.64,-205.94 144.12,-188 100.26,-159.4 60.47,-111.54 40.55,-85.41"/>
<polygon fill="#63b8ff" stroke="#63b8ff" points="43.4,-83.37 34.61,-77.46 37.79,-87.56 43.4,-83.37"/>
</a>
</g>
</g>
<!-- Node3 -->
<g id="Node000003" class="node">
<title>Node3</title>
<g id="a_Node000003"><a xlink:title=" ">
<polygon fill="#e0e0e0" stroke="#999999" points="120.25,-76 72,-76 72,-56 120.25,-56 120.25,-76"/>
<text xml:space="preserve" text-anchor="middle" x="96.12" y="-62.5" font-family="Helvetica,sans-Serif" font-size="10.00">string.h</text>
</a>
</g>
</g>
<!-- Node1&#45;&gt;Node3 -->
<g id="edge2_Node000001_Node000003" class="edge">
<title>Node1&#45;&gt;Node3</title>
<g id="a_edge2_Node000001_Node000003"><a xlink:title=" ">
<path fill="none" stroke="#63b8ff" d="M232.91,-223.62C212.16,-216.47 185.92,-204.93 167.12,-188 135.43,-159.44 113.87,-113.31 103.41,-87.03"/>
<polygon fill="#63b8ff" stroke="#63b8ff" points="106.76,-86 99.93,-77.9 100.22,-88.49 106.76,-86"/>
</a>
</g>
</g>
<!-- Node4 -->
<g id="Node000004" class="node">
<title>Node4</title>
<g id="a_Node000004"><a xlink:title=" ">
<polygon fill="#e0e0e0" stroke="#999999" points="185.88,-76 138.38,-76 138.38,-56 185.88,-56 185.88,-76"/>
<text xml:space="preserve" text-anchor="middle" x="162.12" y="-62.5" font-family="Helvetica,sans-Serif" font-size="10.00">stdlib.h</text>
</a>
</g>
</g>
<!-- Node1&#45;&gt;Node4 -->
<g id="edge3_Node000001_Node000004" class="edge">
<title>Node1&#45;&gt;Node4</title>
<g id="a_edge3_Node000001_Node000004"><a xlink:title=" ">
<path fill="none" stroke="#63b8ff" d="M232.94,-223.55C214.79,-216.65 193.54,-205.4 181.12,-188 159.78,-158.09 158.59,-113.43 160.08,-87.55"/>
<polygon fill="#63b8ff" stroke="#63b8ff" points="163.56,-87.97 160.85,-77.72 156.58,-87.42 163.56,-87.97"/>
</a>
</g>
</g>
<!-- Node5 -->
<g id="Node000005" class="node">
<title>Node5</title>
<g id="a_Node000005"><a xlink:href="../../d2/d49/global_8h.html" target="_top" xlink:title="Global variable declarations &#160;&#160;Global convenience function declarations &#160;&#160;Global data structure defin...">
<polygon fill="white" stroke="#666666" points="974,-132 924.25,-132 924.25,-112 974,-112 974,-132"/>
<text xml:space="preserve" text-anchor="middle" x="949.12" y="-118.5" font-family="Helvetica,sans-Serif" font-size="10.00">global.h</text>
</a>
</g>
</g>
<!-- Node1&#45;&gt;Node5 -->
<g id="edge4_Node000001_Node000005" class="edge">
<title>Node1&#45;&gt;Node5</title>
<g id="a_edge4_Node000001_Node000005"><a xlink:title=" ">
<path fill="none" stroke="#63b8ff" d="M265.79,-223.68C265.83,-209.2 268.26,-181.55 285.12,-168 334.19,-128.56 780.98,-123.66 912.72,-123.07"/>
<polygon fill="#63b8ff" stroke="#63b8ff" points="912.62,-126.57 922.61,-123.04 912.59,-119.57 912.62,-126.57"/>
</a>
</g>
</g>
<!-- Node28 -->
<g id="Node000028" class="node">
<title>Node28</title>
<g id="a_Node000028"><a xlink:href="../../da/dc2/bind_8h.html" target="_top" xlink:title="Binding to the Fortran90 subroutines.">
<polygon fill="white" stroke="#666666" points="336.25,-188 294,-188 294,-168 336.25,-168 336.25,-188"/>
<text xml:space="preserve" text-anchor="middle" x="315.12" y="-174.5" font-family="Helvetica,sans-Serif" font-size="10.00">bind.h</text>
</a>
</g>
</g>
<!-- Node1&#45;&gt;Node28 -->
<g id="edge32_Node000001_Node000028" class="edge">
<title>Node1&#45;&gt;Node28</title>
<g id="a_edge32_Node000001_Node000028"><a xlink:title=" ">
<path fill="none" stroke="#63b8ff" d="M274.66,-223.59C281.41,-216.16 291.01,-205.58 299.17,-196.58"/>
<polygon fill="#63b8ff" stroke="#63b8ff" points="301.54,-199.18 305.67,-189.42 296.36,-194.47 301.54,-199.18"/>
</a>
</g>
</g>
<!-- Node29 -->
<g id="Node000029" class="node">
<title>Node29</title>
<g id="a_Node000029"><a xlink:href="../../d4/da9/interface_8h.html" target="_top" xlink:title="Messaging function declarations.">
<polygon fill="white" stroke="#666666" points="416,-188 354.25,-188 354.25,-168 416,-168 416,-188"/>
<text xml:space="preserve" text-anchor="middle" x="385.12" y="-174.5" font-family="Helvetica,sans-Serif" font-size="10.00">interface.h</text>
</a>
</g>
</g>
<!-- Node1&#45;&gt;Node29 -->
<g id="edge33_Node000001_Node000029" class="edge">
<title>Node1&#45;&gt;Node29</title>
<g id="a_edge33_Node000001_Node000029"><a xlink:title=" ">
<path fill="none" stroke="#63b8ff" d="M286.85,-223.59C305.34,-215.21 332.67,-202.8 353.82,-193.21"/>
<polygon fill="#63b8ff" stroke="#63b8ff" points="355.2,-196.42 362.86,-189.1 352.3,-190.05 355.2,-196.42"/>
</a>
</g>
</g>
<!-- Node30 -->
<g id="Node000030" class="node">
<title>Node30</title>
<g id="a_Node000030"><a xlink:href="../../dd/d49/callbacks_8h.html" target="_top" xlink:title="Callback declarations for main window.">
<polygon fill="white" stroke="#666666" points="499.88,-188 434.38,-188 434.38,-168 499.88,-168 499.88,-188"/>
<text xml:space="preserve" text-anchor="middle" x="467.12" y="-174.5" font-family="Helvetica,sans-Serif" font-size="10.00">callbacks.h</text>
</a>
</g>
</g>
<!-- Node1&#45;&gt;Node30 -->
<g id="edge34_Node000001_Node000030" class="edge">
<title>Node1&#45;&gt;Node30</title>
<g id="a_edge34_Node000001_Node000030"><a xlink:title=" ">
<path fill="none" stroke="#63b8ff" d="M299.32,-224.08C333.07,-215.02 385.56,-200.91 422.84,-190.9"/>
<polygon fill="#63b8ff" stroke="#63b8ff" points="423.67,-194.3 432.42,-188.32 421.86,-187.54 423.67,-194.3"/>
</a>
</g>
</g>
<!-- Node31 -->
<g id="Node000031" class="node">
<title>Node31</title>
<g id="a_Node000031"><a xlink:href="../../dc/d8d/project_8h.html" target="_top" xlink:title="Function declarations for reading atomes project file &#160;&#160;Function declarations for saving atomes proje...">
<polygon fill="white" stroke="#666666" points="571.88,-188 518.38,-188 518.38,-168 571.88,-168 571.88,-188"/>
<text xml:space="preserve" text-anchor="middle" x="545.12" y="-174.5" font-family="Helvetica,sans-Serif" font-size="10.00">project.h</text>
</a>
</g>
</g>
<!-- Node1&#45;&gt;Node31 -->
<g id="edge35_Node000001_Node000031" class="edge">
<title>Node1&#45;&gt;Node31</title>
<g id="a_edge35_Node000001_Node000031"><a xlink:title=" ">
<path fill="none" stroke="#63b8ff" d="M299.27,-227.53C344.15,-219.98 426.98,-205.53 507.25,-188.3"/>
<polygon fill="#63b8ff" stroke="#63b8ff" points="507.53,-191.82 516.56,-186.28 506.05,-184.98 507.53,-191.82"/>
</a>
</g>
</g>
<!-- Node32 -->
<g id="Node000032" class="node">
<title>Node32</title>
<g id="a_Node000032"><a xlink:href="../../df/de9/curve_8h.html" target="_top" xlink:title="Variable declarations for the curve widget &#160;&#160;Functions for interactions with the curve widget.">
<polygon fill="white" stroke="#666666" points="238.25,-188 190,-188 190,-168 238.25,-168 238.25,-188"/>
<text xml:space="preserve" text-anchor="middle" x="214.12" y="-174.5" font-family="Helvetica,sans-Serif" font-size="10.00">curve.h</text>
</a>
</g>
</g>
<!-- Node1&#45;&gt;Node32 -->
<g id="edge36_Node000001_Node000032" class="edge">
<title>Node1&#45;&gt;Node32</title>
<g id="a_edge36_Node000001_Node000032"><a xlink:title=" ">
<path fill="none" stroke="#63b8ff" d="M257.07,-223.59C249.91,-216.16 239.72,-205.58 231.06,-196.58"/>
<polygon fill="#63b8ff" stroke="#63b8ff" points="233.59,-194.16 224.13,-189.39 228.54,-199.02 233.59,-194.16"/>
</a>
</g>
</g>
<!-- Node5&#45;&gt;Node2 -->
<g id="edge17_Node000005_Node000002" class="edge">
<title>Node5&#45;&gt;Node2</title>
<g id="a_edge17_Node000005_Node000002"><a xlink:title=" ">
<path fill="none" stroke="#63b8ff" d="M923.83,-120.38C800.22,-117.25 258.16,-102.34 65.87,-76.06"/>
<polygon fill="#63b8ff" stroke="#63b8ff" points="66.43,-72.6 56.03,-74.65 65.43,-79.53 66.43,-72.6"/>
</a>
</g>
</g>
<!-- Node5&#45;&gt;Node3 -->
<g id="edge11_Node000005_Node000003" class="edge">
<title>Node5&#45;&gt;Node3</title>
<g id="a_edge11_Node000005_Node000003"><a xlink:title=" ">
<path fill="none" stroke="#63b8ff" d="M924.14,-120.34C806.9,-117.14 309.99,-102.38 131.78,-76.02"/>
<polygon fill="#63b8ff" stroke="#63b8ff" points="132.42,-72.58 122,-74.5 131.35,-79.5 132.42,-72.58"/>
</a>
</g>
</g>
<!-- Node5&#45;&gt;Node4 -->
<g id="edge13_Node000005_Node000004" class="edge">
<title>Node5&#45;&gt;Node4</title>
<g id="a_edge13_Node000005_Node000004"><a xlink:title=" ">
<path fill="none" stroke="#63b8ff" d="M923.86,-121.37C829.25,-122.39 487.03,-122.53 197.3,-75.99"/>
<polygon fill="#63b8ff" stroke="#63b8ff" points="198.08,-72.57 187.64,-74.41 196.95,-79.48 198.08,-72.57"/>
</a>
</g>
</g>
<!-- Node6 -->
<g id="Node000006" class="node">
<title>Node6</title>
<g id="a_Node000006"><a xlink:title=" ">
<polygon fill="#e0e0e0" stroke="#999999" points="1291.5,-76 1244.75,-76 1244.75,-56 1291.5,-56 1291.5,-76"/>
<text xml:space="preserve" text-anchor="middle" x="1268.12" y="-62.5" font-family="Helvetica,sans-Serif" font-size="10.00">libintl.h</text>
</a>
</g>
</g>
<!-- Node5&#45;&gt;Node6 -->
<g id="edge5_Node000005_Node000006" class="edge">
<title>Node5&#45;&gt;Node6</title>
<g id="a_edge5_Node000005_Node000006"><a xlink:title=" ">
<path fill="none" stroke="#63b8ff" d="M974.16,-118C1022.35,-112.04 1131.5,-97.56 1233.31,-76.17"/>
<polygon fill="#63b8ff" stroke="#63b8ff" points="1233.88,-79.63 1242.93,-74.12 1232.42,-72.78 1233.88,-79.63"/>
</a>
</g>
</g>
<!-- Node7 -->
<g id="Node000007" class="node">
<title>Node7</title>
<g id="a_Node000007"><a xlink:title=" ">
<polygon fill="#e0e0e0" stroke="#999999" points="1359,-76 1309.25,-76 1309.25,-56 1359,-56 1359,-76"/>
<text xml:space="preserve" text-anchor="middle" x="1334.12" y="-62.5" font-family="Helvetica,sans-Serif" font-size="10.00">locale.h</text>
</a>
</g>
</g>
<!-- Node5&#45;&gt;Node7 -->
<g id="edge6_Node000005_Node000007" class="edge">
<title>Node5&#45;&gt;Node7</title>
<g id="a_edge6_Node000005_Node000007"><a xlink:title=" ">
<path fill="none" stroke="#63b8ff" d="M974.42,-118.91C1030.76,-114 1170.99,-100.44 1297.9,-76.2"/>
<polygon fill="#63b8ff" stroke="#63b8ff" points="1298.32,-79.68 1307.47,-74.34 1296.99,-72.81 1298.32,-79.68"/>
</a>
</g>
</g>
<!-- Node8 -->
<g id="Node000008" class="node">
<title>Node8</title>
<g id="a_Node000008"><a xlink:title=" ">
<polygon fill="#e0e0e0" stroke="#999999" points="1416.75,-76 1377.5,-76 1377.5,-56 1416.75,-56 1416.75,-76"/>
<text xml:space="preserve" text-anchor="middle" x="1397.12" y="-62.5" font-family="Helvetica,sans-Serif" font-size="10.00">glib.h</text>
</a>
</g>
</g>
<!-- Node5&#45;&gt;Node8 -->
<g id="edge7_Node000005_Node000008" class="edge">
<title>Node5&#45;&gt;Node8</title>
<g id="a_edge7_Node000005_Node000008"><a xlink:title=" ">
<path fill="none" stroke="#63b8ff" d="M974.42,-119.99C1038.5,-117.08 1212.48,-106.94 1366.25,-75.98"/>
<polygon fill="#63b8ff" stroke="#63b8ff" points="1366.72,-79.46 1375.81,-74.02 1365.31,-72.6 1366.72,-79.46"/>
</a>
</g>
</g>
<!-- Node9 -->
<g id="Node000009" class="node">
<title>Node9</title>
<g id="a_Node000009"><a xlink:title=" ">
<polygon fill="#e0e0e0" stroke="#999999" points="1499.88,-76 1434.38,-76 1434.38,-56 1499.88,-56 1499.88,-76"/>
<text xml:space="preserve" text-anchor="middle" x="1467.12" y="-62.5" font-family="Helvetica,sans-Serif" font-size="10.00">glib/gi18n.h</text>
</a>
</g>
</g>
<!-- Node5&#45;&gt;Node9 -->
<g id="edge8_Node000005_Node000009" class="edge">
<title>Node5&#45;&gt;Node9</title>
<g id="a_edge8_Node000005_Node000009"><a xlink:title=" ">
<path fill="none" stroke="#63b8ff" d="M974.34,-119.71C1044.13,-115.9 1245.86,-103.36 1422.73,-76.37"/>
<polygon fill="#63b8ff" stroke="#63b8ff" points="1423.23,-79.84 1432.58,-74.85 1422.16,-72.92 1423.23,-79.84"/>
</a>
</g>
</g>
<!-- Node10 -->
<g id="Node000010" class="node">
<title>Node10</title>
<g id="a_Node000010"><a xlink:title=" ">
<polygon fill="#e0e0e0" stroke="#999999" points="1570.5,-76 1517.75,-76 1517.75,-56 1570.5,-56 1570.5,-76"/>
<text xml:space="preserve" text-anchor="middle" x="1544.12" y="-62.5" font-family="Helvetica,sans-Serif" font-size="10.00">gio/gio.h</text>
</a>
</g>
</g>
<!-- Node5&#45;&gt;Node10 -->
<g id="edge9_Node000005_Node000010" class="edge">
<title>Node5&#45;&gt;Node10</title>
<g id="a_edge9_Node000005_Node000010"><a xlink:title=" ">
<path fill="none" stroke="#63b8ff" d="M974.43,-120.51C1052.4,-118.67 1295.94,-110.53 1506.22,-76.22"/>
<polygon fill="#63b8ff" stroke="#63b8ff" points="1506.69,-79.69 1515.98,-74.6 1505.54,-72.79 1506.69,-79.69"/>
</a>
</g>
</g>
<!-- Node11 -->
<g id="Node000011" class="node">
<title>Node11</title>
<g id="a_Node000011"><a xlink:title=" ">
<polygon fill="#e0e0e0" stroke="#999999" points="1639.38,-76 1588.88,-76 1588.88,-56 1639.38,-56 1639.38,-76"/>
<text xml:space="preserve" text-anchor="middle" x="1614.12" y="-62.5" font-family="Helvetica,sans-Serif" font-size="10.00">unistd.h</text>
</a>
</g>
</g>
<!-- Node5&#45;&gt;Node11 -->
<g id="edge10_Node000005_Node000011" class="edge">
<title>Node5&#45;&gt;Node11</title>
<g id="a_edge10_Node000005_Node000011"><a xlink:title=" ">
<path fill="none" stroke="#63b8ff" d="M974.22,-120.83C1058.27,-119.91 1337.54,-114.13 1577.58,-75.91"/>
<polygon fill="#63b8ff" stroke="#63b8ff" points="1577.82,-79.42 1587.13,-74.37 1576.7,-72.51 1577.82,-79.42"/>
</a>
</g>
</g>
<!-- Node12 -->
<g id="Node000012" class="node">
<title>Node12</title>
<g id="a_Node000012"><a xlink:title=" ">
<polygon fill="#e0e0e0" stroke="#999999" points="1702.75,-20 1657.5,-20 1657.5,0 1702.75,0 1702.75,-20"/>
<text xml:space="preserve" text-anchor="middle" x="1680.12" y="-6.5" font-family="Helvetica,sans-Serif" font-size="10.00">stdio.h</text>
</a>
</g>
</g>
<!-- Node5&#45;&gt;Node12 -->
<g id="edge12_Node000005_Node000012" class="edge">
<title>Node5&#45;&gt;Node12</title>
<g id="a_edge12_Node000005_Node000012"><a xlink:title=" ">
<path fill="none" stroke="#63b8ff" d="M974.49,-120.85C1093.28,-119.98 1591.18,-114.03 1648.12,-76 1663.31,-65.86 1671.57,-46.31 1675.86,-31.29"/>
<polygon fill="#63b8ff" stroke="#63b8ff" points="1679.17,-32.5 1678.16,-21.95 1672.37,-30.83 1679.17,-32.5"/>
</a>
</g>
</g>
<!-- Node13 -->
<g id="Node000013" class="node">
<title>Node13</title>
<g id="a_Node000013"><a xlink:title=" ">
<polygon fill="#e0e0e0" stroke="#999999" points="270.62,-76 203.62,-76 203.62,-56 270.62,-56 270.62,-76"/>
<text xml:space="preserve" text-anchor="middle" x="237.12" y="-62.5" font-family="Helvetica,sans-Serif" font-size="10.00">sys/types.h</text>
</a>
</g>
</g>
<!-- Node5&#45;&gt;Node13 -->
<g id="edge14_Node000005_Node000013" class="edge">
<title>Node5&#45;&gt;Node13</title>
<g id="a_edge14_Node000005_Node000013"><a xlink:title=" ">
<path fill="none" stroke="#63b8ff" d="M924.05,-120.62C836.75,-119.01 538.02,-111.22 282.35,-76.27"/>
<polygon fill="#63b8ff" stroke="#63b8ff" points="282.86,-72.81 272.48,-74.9 281.9,-79.74 282.86,-72.81"/>
</a>
</g>
</g>
<!-- Node14 -->
<g id="Node000014" class="node">
<title>Node14</title>
<g id="a_Node000014"><a xlink:title=" ">
<polygon fill="#e0e0e0" stroke="#999999" points="347.88,-76 288.38,-76 288.38,-56 347.88,-56 347.88,-76"/>
<text xml:space="preserve" text-anchor="middle" x="318.12" y="-62.5" font-family="Helvetica,sans-Serif" font-size="10.00">sys/stat.h</text>
</a>
</g>
</g>
<!-- Node5&#45;&gt;Node14 -->
<g id="edge15_Node000005_Node000014" class="edge">
<title>Node5&#45;&gt;Node14</title>
<g id="a_edge15_Node000005_Node000014"><a xlink:title=" ">
<path fill="none" stroke="#63b8ff" d="M923.87,-120.44C843.1,-118.37 583.74,-109.52 359.59,-76.14"/>
<polygon fill="#63b8ff" stroke="#63b8ff" points="360.18,-72.69 349.77,-74.66 359.13,-79.61 360.18,-72.69"/>
</a>
</g>
</g>
<!-- Node15 -->
<g id="Node000015" class="node">
<title>Node15</title>
<g id="a_Node000015"><a xlink:title=" ">
<polygon fill="#e0e0e0" stroke="#999999" points="1794.12,-20 1748.12,-20 1748.12,0 1794.12,0 1794.12,-20"/>
<text xml:space="preserve" text-anchor="middle" x="1771.12" y="-6.5" font-family="Helvetica,sans-Serif" font-size="10.00">math.h</text>
</a>
</g>
</g>
<!-- Node5&#45;&gt;Node15 -->
<g id="edge16_Node000005_Node000015" class="edge">
<title>Node5&#45;&gt;Node15</title>
<g id="a_edge16_Node000005_Node000015"><a xlink:title=" ">
<path fill="none" stroke="#63b8ff" d="M974.38,-120.54C1108.99,-117.95 1737.12,-104.38 1766.12,-76 1777.75,-64.62 1777.9,-45.53 1775.79,-30.97"/>
<polygon fill="#63b8ff" stroke="#63b8ff" points="1779.31,-30.72 1773.98,-21.56 1772.43,-32.04 1779.31,-30.72"/>
</a>
</g>
</g>
<!-- Node16 -->
<g id="Node000016" class="node">
<title>Node16</title>
<g id="a_Node000016"><a xlink:title=" ">
<polygon fill="#e0e0e0" stroke="#999999" points="425.88,-76 366.38,-76 366.38,-56 425.88,-56 425.88,-76"/>
<text xml:space="preserve" text-anchor="middle" x="396.12" y="-62.5" font-family="Helvetica,sans-Serif" font-size="10.00">gtk/gtkx.h</text>
</a>
</g>
</g>
<!-- Node5&#45;&gt;Node16 -->
<g id="edge18_Node000005_Node000016" class="edge">
<title>Node5&#45;&gt;Node16</title>
<g id="a_edge18_Node000005_Node000016"><a xlink:title=" ">
<path fill="none" stroke="#63b8ff" d="M923.84,-120.04C850.28,-116.97 629.97,-105.93 437.46,-76.15"/>
<polygon fill="#63b8ff" stroke="#63b8ff" points="438.19,-72.72 427.77,-74.63 437.11,-79.64 438.19,-72.72"/>
</a>
</g>
</g>
<!-- Node17 -->
<g id="Node000017" class="node">
<title>Node17</title>
<g id="a_Node000017"><a xlink:title=" ">
<polygon fill="#e0e0e0" stroke="#999999" points="502.5,-76 443.75,-76 443.75,-56 502.5,-56 502.5,-76"/>
<text xml:space="preserve" text-anchor="middle" x="473.12" y="-62.5" font-family="Helvetica,sans-Serif" font-size="10.00">gdk/gdk.h</text>
</a>
</g>
</g>
<!-- Node5&#45;&gt;Node17 -->
<g id="edge19_Node000005_Node000017" class="edge">
<title>Node5&#45;&gt;Node17</title>
<g id="a_edge19_Node000005_Node000017"><a xlink:title=" ">
<path fill="none" stroke="#63b8ff" d="M923.85,-119.5C858.06,-115.36 675.92,-102.42 513.99,-76.1"/>
<polygon fill="#63b8ff" stroke="#63b8ff" points="514.79,-72.68 504.35,-74.51 513.65,-79.59 514.79,-72.68"/>
</a>
</g>
</g>
<!-- Node18 -->
<g id="Node000018" class="node">
<title>Node18</title>
<g id="a_Node000018"><a xlink:title=" ">
<polygon fill="#e0e0e0" stroke="#999999" points="619.38,-76 520.88,-76 520.88,-56 619.38,-56 619.38,-76"/>
<text xml:space="preserve" text-anchor="middle" x="570.12" y="-62.5" font-family="Helvetica,sans-Serif" font-size="10.00">gdk/gdkkeysyms.h</text>
</a>
</g>
</g>
<!-- Node5&#45;&gt;Node18 -->
<g id="edge20_Node000005_Node000018" class="edge">
<title>Node5&#45;&gt;Node18</title>
<g id="a_edge20_Node000005_Node000018"><a xlink:title=" ">
<path fill="none" stroke="#63b8ff" d="M924.13,-117.62C871.78,-110.52 746.51,-93.39 630.94,-76.4"/>
<polygon fill="#63b8ff" stroke="#63b8ff" points="631.69,-72.97 621.29,-74.98 630.67,-79.9 631.69,-72.97"/>
</a>
</g>
</g>
<!-- Node19 -->
<g id="Node000019" class="node">
<title>Node19</title>
<g id="a_Node000019"><a xlink:title=" ">
<polygon fill="#e0e0e0" stroke="#999999" points="754.75,-76 637.5,-76 637.5,-56 754.75,-56 754.75,-76"/>
<text xml:space="preserve" text-anchor="middle" x="696.12" y="-62.5" font-family="Helvetica,sans-Serif" font-size="10.00">gdk&#45;pixbuf/gdk&#45;pixbuf.h</text>
</a>
</g>
</g>
<!-- Node5&#45;&gt;Node19 -->
<g id="edge21_Node000005_Node000019" class="edge">
<title>Node5&#45;&gt;Node19</title>
<g id="a_edge21_Node000005_Node000019"><a xlink:title=" ">
<path fill="none" stroke="#63b8ff" d="M923.94,-115.62C883.92,-107.08 804.84,-90.2 751.22,-78.76"/>
<polygon fill="#63b8ff" stroke="#63b8ff" points="752.18,-75.39 741.67,-76.72 750.72,-82.23 752.18,-75.39"/>
</a>
</g>
</g>
<!-- Node20 -->
<g id="Node000020" class="node">
<title>Node20</title>
<g id="a_Node000020"><a xlink:title=" ">
<polygon fill="#e0e0e0" stroke="#999999" points="863.62,-76 772.62,-76 772.62,-56 863.62,-56 863.62,-76"/>
<text xml:space="preserve" text-anchor="middle" x="818.12" y="-62.5" font-family="Helvetica,sans-Serif" font-size="10.00">pango/pangoft2.h</text>
</a>
</g>
</g>
<!-- Node5&#45;&gt;Node20 -->
<g id="edge22_Node000005_Node000020" class="edge">
<title>Node5&#45;&gt;Node20</title>
<g id="a_edge22_Node000005_Node000020"><a xlink:title=" ">
<path fill="none" stroke="#63b8ff" d="M926.31,-111.59C905.68,-103.09 875.04,-90.46 851.63,-80.81"/>
<polygon fill="#63b8ff" stroke="#63b8ff" points="853.1,-77.63 842.52,-77.06 850.43,-84.1 853.1,-77.63"/>
</a>
</g>
</g>
<!-- Node21 -->
<g id="Node000021" class="node">
<title>Node21</title>
<g id="a_Node000021"><a xlink:title=" ">
<polygon fill="#e0e0e0" stroke="#999999" points="942.62,-76 881.62,-76 881.62,-56 942.62,-56 942.62,-76"/>
<text xml:space="preserve" text-anchor="middle" x="912.12" y="-62.5" font-family="Helvetica,sans-Serif" font-size="10.00">epoxy/gl.h</text>
</a>
</g>
</g>
<!-- Node5&#45;&gt;Node21 -->
<g id="edge23_Node000005_Node000021" class="edge">
<title>Node5&#45;&gt;Node21</title>
<g id="a_edge23_Node000005_Node000021"><a xlink:title=" ">
<path fill="none" stroke="#63b8ff" d="M942.68,-111.59C937.8,-104.47 930.93,-94.45 924.95,-85.72"/>
<polygon fill="#63b8ff" stroke="#63b8ff" points="927.89,-83.82 919.35,-77.55 922.12,-87.77 927.89,-83.82"/>
</a>
</g>
</g>
<!-- Node22 -->
<g id="Node000022" class="node">
<title>Node22</title>
<g id="a_Node000022"><a xlink:title=" ">
<polygon fill="#e0e0e0" stroke="#999999" points="1013.5,-76 960.75,-76 960.75,-56 1013.5,-56 1013.5,-76"/>
<text xml:space="preserve" text-anchor="middle" x="987.12" y="-62.5" font-family="Helvetica,sans-Serif" font-size="10.00">GL/glu.h</text>
</a>
</g>
</g>
<!-- Node5&#45;&gt;Node22 -->
<g id="edge24_Node000005_Node000022" class="edge">
<title>Node5&#45;&gt;Node22</title>
<g id="a_edge24_Node000005_Node000022"><a xlink:title=" ">
<path fill="none" stroke="#63b8ff" d="M955.74,-111.59C960.81,-104.39 967.96,-94.23 974.15,-85.43"/>
<polygon fill="#63b8ff" stroke="#63b8ff" points="976.82,-87.73 979.71,-77.54 971.09,-83.7 976.82,-87.73"/>
</a>
</g>
</g>
<!-- Node23 -->
<g id="Node000023" class="node">
<title>Node23</title>
<g id="a_Node000023"><a xlink:title=" ">
<polygon fill="#e0e0e0" stroke="#999999" points="1098.25,-76 1032,-76 1032,-56 1098.25,-56 1098.25,-76"/>
<text xml:space="preserve" text-anchor="middle" x="1065.12" y="-62.5" font-family="Helvetica,sans-Serif" font-size="10.00">epoxy/glx.h</text>
</a>
</g>
</g>
<!-- Node5&#45;&gt;Node23 -->
<g id="edge25_Node000005_Node000023" class="edge">
<title>Node5&#45;&gt;Node23</title>
<g id="a_edge25_Node000005_Node000023"><a xlink:title=" ">
<path fill="none" stroke="#63b8ff" d="M969.33,-111.59C987.35,-103.21 1013.99,-90.8 1034.61,-81.21"/>
<polygon fill="#63b8ff" stroke="#63b8ff" points="1035.8,-84.51 1043.39,-77.12 1032.85,-78.17 1035.8,-84.51"/>
</a>
</g>
</g>
<!-- Node24 -->
<g id="Node000024" class="node">
<title>Node24</title>
<g id="a_Node000024"><a xlink:href="../../dc/db0/math__3d_8h.html" target="_top" xlink:title="Functions for OpenGL math.">
<polygon fill="white" stroke="#666666" points="1757,-76 1695.25,-76 1695.25,-56 1757,-56 1757,-76"/>
<text xml:space="preserve" text-anchor="middle" x="1726.12" y="-62.5" font-family="Helvetica,sans-Serif" font-size="10.00">math_3d.h</text>
</a>
</g>
</g>
<!-- Node5&#45;&gt;Node24 -->
<g id="edge26_Node000005_Node000024" class="edge">
<title>Node5&#45;&gt;Node24</title>
<g id="a_edge26_Node000005_Node000024"><a xlink:title=" ">
<path fill="none" stroke="#63b8ff" d="M974.21,-120.69C1067.82,-119.28 1405.57,-111.86 1681.12,-76 1682.13,-75.87 1683.14,-75.73 1684.16,-75.58"/>
<polygon fill="#63b8ff" stroke="#63b8ff" points="1684.44,-79.08 1693.74,-74 1683.3,-72.18 1684.44,-79.08"/>
</a>
</g>
</g>
<!-- Node25 -->
<g id="Node000025" class="node">
<title>Node25</title>
<g id="a_Node000025"><a xlink:href="../../d7/d21/cedit_8h.html" target="_top" xlink:title="Variable declarations for the curve layout edition window.">
<polygon fill="white" stroke="#666666" points="1161.75,-76 1116.5,-76 1116.5,-56 1161.75,-56 1161.75,-76"/>
<text xml:space="preserve" text-anchor="middle" x="1139.12" y="-62.5" font-family="Helvetica,sans-Serif" font-size="10.00">cedit.h</text>
</a>
</g>
</g>
<!-- Node5&#45;&gt;Node25 -->
<g id="edge29_Node000005_Node000025" class="edge">
<title>Node5&#45;&gt;Node25</title>
<g id="a_edge29_Node000005_Node000025"><a xlink:title=" ">
<path fill="none" stroke="#63b8ff" d="M974.36,-113.83C1008.02,-104.26 1067.74,-87.29 1105.28,-76.62"/>
<polygon fill="#63b8ff" stroke="#63b8ff" points="1106.05,-80.04 1114.72,-73.94 1104.14,-73.3 1106.05,-80.04"/>
</a>
</g>
</g>
<!-- Node26 -->
<g id="Node000026" class="node">
<title>Node26</title>
<g id="a_Node000026"><a xlink:href="../../da/d7e/glwin_8h.html" target="_top" xlink:title="Variable declarations related the OpenGL window &#160;&#160;Data structure declarations related the OpenGL wind...">
<polygon fill="white" stroke="#666666" points="1226.5,-76 1179.75,-76 1179.75,-56 1226.5,-56 1226.5,-76"/>
<text xml:space="preserve" text-anchor="middle" x="1203.12" y="-62.5" font-family="Helvetica,sans-Serif" font-size="10.00">glwin.h</text>
</a>
</g>
</g>
<!-- Node5&#45;&gt;Node26 -->
<g id="edge30_Node000005_Node000026" class="edge">
<title>Node5&#45;&gt;Node26</title>
<g id="a_edge30_Node000005_Node000026"><a xlink:title=" ">
<path fill="none" stroke="#63b8ff" d="M974.23,-116.54C1013.57,-109.41 1092.37,-94.61 1168.24,-76.57"/>
<polygon fill="#63b8ff" stroke="#63b8ff" points="1169.03,-79.98 1177.94,-74.23 1167.4,-73.17 1169.03,-79.98"/>
</a>
</g>
</g>
<!-- Node24&#45;&gt;Node12 -->
<g id="edge28_Node000024_Node000012" class="edge">
<title>Node24&#45;&gt;Node12</title>
<g id="a_edge28_Node000024_Node000012"><a xlink:title=" ">
<path fill="none" stroke="#63b8ff" d="M1718.11,-55.59C1711.85,-48.24 1702.95,-37.8 1695.34,-28.87"/>
<polygon fill="#63b8ff" stroke="#63b8ff" points="1698.18,-26.79 1689.03,-21.45 1692.85,-31.33 1698.18,-26.79"/>
</a>
</g>
</g>
<!-- Node24&#45;&gt;Node15 -->
<g id="edge27_Node000024_Node000015" class="edge">
<title>Node24&#45;&gt;Node15</title>
<g id="a_edge27_Node000024_Node000015"><a xlink:title=" ">
<path fill="none" stroke="#63b8ff" d="M1733.96,-55.59C1740.09,-48.24 1748.8,-37.8 1756.24,-28.87"/>
<polygon fill="#63b8ff" stroke="#63b8ff" points="1758.69,-31.38 1762.41,-21.46 1753.32,-26.9 1758.69,-31.38"/>
</a>
</g>
</g>
<!-- Node27 -->
<g id="Node000027" class="node">
<title>Node27</title>
<g id="a_Node000027"><a xlink:href="../../d5/d9e/ogl__shading_8h.html" target="_top" xlink:title="Variable declarations related to GLSL programs &#160;&#160;Data structure declarations related to GLSL programs...">
<polygon fill="white" stroke="#666666" points="1241.12,-20 1165.12,-20 1165.12,0 1241.12,0 1241.12,-20"/>
<text xml:space="preserve" text-anchor="middle" x="1203.12" y="-6.5" font-family="Helvetica,sans-Serif" font-size="10.00">ogl_shading.h</text>
</a>
</g>
</g>
<!-- Node26&#45;&gt;Node27 -->
<g id="edge31_Node000026_Node000027" class="edge">
<title>Node26&#45;&gt;Node27</title>
<g id="a_edge31_Node000026_Node000027"><a xlink:title=" ">
<path fill="none" stroke="#63b8ff" d="M1203.12,-55.59C1203.12,-49.01 1203.12,-39.96 1203.12,-31.73"/>
<polygon fill="#63b8ff" stroke="#63b8ff" points="1206.63,-31.81 1203.13,-21.81 1199.63,-31.81 1206.63,-31.81"/>
</a>
</g>
</g>
<!-- Node32&#45;&gt;Node5 -->
<g id="edge37_Node000032_Node000005" class="edge">
<title>Node32&#45;&gt;Node5</title>
<g id="a_edge37_Node000032_Node000005"><a xlink:title=" ">
<path fill="none" stroke="#63b8ff" d="M238.54,-170.58C243.03,-169.58 247.7,-168.66 252.12,-168 502.74,-130.5 808.65,-124.24 912.58,-123.2"/>
<polygon fill="#63b8ff" stroke="#63b8ff" points="912.48,-126.7 922.45,-123.11 912.41,-119.7 912.48,-126.7"/>
</a>
</g>
</g>
</g>
</svg>
