<?xml version="1.0" encoding="UTF-8" standalone="no"?>
<!DOCTYPE svg PUBLIC "-//W3C//DTD SVG 1.1//EN"
 "http://www.w3.org/Graphics/SVG/1.1/DTD/svg11.dtd">
<!-- Generated by graphviz version 2.43.0 (0)
 -->
<!-- Title: /home/slookeur/files/codeblocks&#45;files/atomes/src/curve/cwidget.c Pages: 1 -->
<svg width="1751pt" height="269pt"
 viewBox="0.00 0.00 1751.00 269.00" xmlns="http://www.w3.org/2000/svg" xmlns:xlink="http://www.w3.org/1999/xlink">
<g id="graph0" class="graph" transform="scale(1 1) rotate(0) translate(4 265)">
<title>/home/slookeur/files/codeblocks&#45;files/atomes/src/curve/cwidget.c</title>
<!-- Node1 -->
<g id="Node000001" class="node">
<title>Node1</title>
<g id="a_Node000001"><a xlink:title="Initialization of the curve widget.">
<polygon fill="#999999" stroke="#666666" points="782,-261 644,-261 644,-220 782,-220 782,-261"/>
<text text-anchor="start" x="652" y="-249" font-family="Helvetica,sans-Serif" font-size="10.00">/home/slookeur/files</text>
<text text-anchor="start" x="652" y="-238" font-family="Helvetica,sans-Serif" font-size="10.00">/codeblocks&#45;files/atomes</text>
<text text-anchor="middle" x="713" y="-227" font-family="Helvetica,sans-Serif" font-size="10.00">/src/curve/cwidget.c</text>
</a>
</g>
</g>
<!-- Node2 -->
<g id="Node000002" class="node">
<title>Node2</title>
<g id="a_Node000002"><a xlink:title=" ">
<polygon fill="#e0e0e0" stroke="#999999" points="60,-74 0,-74 0,-55 60,-55 60,-74"/>
<text text-anchor="middle" x="30" y="-62" font-family="Helvetica,sans-Serif" font-size="10.00">gtk/gtk.h</text>
</a>
</g>
</g>
<!-- Node1&#45;&gt;Node2 -->
<g id="edge1_Node000001_Node000002" class="edge">
<title>Node1&#45;&gt;Node2</title>
<g id="a_edge1_Node000001_Node000002"><a xlink:title=" ">
<path fill="none" stroke="#63b8ff" d="M643.76,-225.61C592.11,-214.97 519.91,-199.54 457,-184 312.73,-148.37 143.07,-99.04 68.47,-76.97"/>
<polygon fill="#63b8ff" stroke="#63b8ff" points="69.17,-73.53 58.59,-74.04 67.18,-80.24 69.17,-73.53"/>
</a>
</g>
</g>
<!-- Node3 -->
<g id="Node000003" class="node">
<title>Node3</title>
<g id="a_Node000003"><a xlink:title=" ">
<polygon fill="#e0e0e0" stroke="#999999" points="131.5,-74 78.5,-74 78.5,-55 131.5,-55 131.5,-74"/>
<text text-anchor="middle" x="105" y="-62" font-family="Helvetica,sans-Serif" font-size="10.00">stdlib.h</text>
</a>
</g>
</g>
<!-- Node1&#45;&gt;Node3 -->
<g id="edge2_Node000001_Node000003" class="edge">
<title>Node1&#45;&gt;Node3</title>
<g id="a_edge2_Node000001_Node000003"><a xlink:title=" ">
<path fill="none" stroke="#63b8ff" d="M644.73,-219.96C515.75,-183.05 240.31,-104.22 141.35,-75.9"/>
<polygon fill="#63b8ff" stroke="#63b8ff" points="142.1,-72.48 131.52,-73.09 140.17,-79.21 142.1,-72.48"/>
</a>
</g>
</g>
<!-- Node4 -->
<g id="Node000004" class="node">
<title>Node4</title>
<g id="a_Node000004"><a xlink:href="../../d2/d49/global_8h.html" target="_top" xlink:title="Global variable declarations &#160;&#160;Global convenience function declarations &#160;&#160;Global data structure defin...">
<polygon fill="white" stroke="#666666" points="886,-129 830,-129 830,-110 886,-110 886,-129"/>
<text text-anchor="middle" x="858" y="-117" font-family="Helvetica,sans-Serif" font-size="10.00">global.h</text>
</a>
</g>
</g>
<!-- Node1&#45;&gt;Node4 -->
<g id="edge3_Node000001_Node000004" class="edge">
<title>Node1&#45;&gt;Node4</title>
<g id="a_edge3_Node000001_Node000004"><a xlink:title=" ">
<path fill="none" stroke="#63b8ff" d="M730.15,-219.9C744.48,-204.11 765.92,-181.85 787,-165 801.4,-153.49 818.95,-142.47 832.99,-134.27"/>
<polygon fill="#63b8ff" stroke="#63b8ff" points="835.13,-137.08 842.08,-129.08 831.66,-131 835.13,-137.08"/>
</a>
</g>
</g>
<!-- Node25 -->
<g id="Node000025" class="node">
<title>Node25</title>
<g id="a_Node000025"><a xlink:href="../../d4/da9/interface_8h.html" target="_top" xlink:title="Messaging function declarations.">
<polygon fill="white" stroke="#666666" points="865.5,-184 796.5,-184 796.5,-165 865.5,-165 865.5,-184"/>
<text text-anchor="middle" x="831" y="-172" font-family="Helvetica,sans-Serif" font-size="10.00">interface.h</text>
</a>
</g>
</g>
<!-- Node1&#45;&gt;Node25 -->
<g id="edge28_Node000001_Node000025" class="edge">
<title>Node1&#45;&gt;Node25</title>
<g id="a_edge28_Node000001_Node000025"><a xlink:title=" ">
<path fill="none" stroke="#63b8ff" d="M749.05,-219.95C767.52,-209.93 789.54,-197.99 806.11,-189"/>
<polygon fill="#63b8ff" stroke="#63b8ff" points="808.04,-191.94 815.16,-184.09 804.7,-185.78 808.04,-191.94"/>
</a>
</g>
</g>
<!-- Node26 -->
<g id="Node000026" class="node">
<title>Node26</title>
<g id="a_Node000026"><a xlink:href="../../df/de9/curve_8h.html" target="_top" xlink:title="Variable declarations for the curve widget &#160;&#160;Functions for interactions with the curve widget.">
<polygon fill="white" stroke="#666666" points="739.5,-184 686.5,-184 686.5,-165 739.5,-165 739.5,-184"/>
<text text-anchor="middle" x="713" y="-172" font-family="Helvetica,sans-Serif" font-size="10.00">curve.h</text>
</a>
</g>
</g>
<!-- Node1&#45;&gt;Node26 -->
<g id="edge29_Node000001_Node000026" class="edge">
<title>Node1&#45;&gt;Node26</title>
<g id="a_edge29_Node000001_Node000026"><a xlink:title=" ">
<path fill="none" stroke="#63b8ff" d="M713,-219.95C713,-211.85 713,-202.5 713,-194.47"/>
<polygon fill="#63b8ff" stroke="#63b8ff" points="716.5,-194.26 713,-184.26 709.5,-194.26 716.5,-194.26"/>
</a>
</g>
</g>
<!-- Node4&#45;&gt;Node2 -->
<g id="edge14_Node000004_Node000002" class="edge">
<title>Node4&#45;&gt;Node2</title>
<g id="a_edge14_Node000004_Node000002"><a xlink:title=" ">
<path fill="none" stroke="#63b8ff" d="M829.89,-118.52C728.61,-118.25 372.79,-114.39 70.43,-73.96"/>
<polygon fill="#63b8ff" stroke="#63b8ff" points="70.53,-70.44 60.15,-72.56 69.59,-77.37 70.53,-70.44"/>
</a>
</g>
</g>
<!-- Node4&#45;&gt;Node3 -->
<g id="edge10_Node000004_Node000003" class="edge">
<title>Node4&#45;&gt;Node3</title>
<g id="a_edge10_Node000004_Node000003"><a xlink:title=" ">
<path fill="none" stroke="#63b8ff" d="M829.71,-118.17C733.49,-116.75 410.22,-109.46 146,-74 144.7,-73.83 143.39,-73.63 142.06,-73.43"/>
<polygon fill="#63b8ff" stroke="#63b8ff" points="142.27,-69.91 131.81,-71.63 141.06,-76.81 142.27,-69.91"/>
</a>
</g>
</g>
<!-- Node5 -->
<g id="Node000005" class="node">
<title>Node5</title>
<g id="a_Node000005"><a xlink:title=" ">
<polygon fill="#e0e0e0" stroke="#999999" points="1345,-74 1301,-74 1301,-55 1345,-55 1345,-74"/>
<text text-anchor="middle" x="1323" y="-62" font-family="Helvetica,sans-Serif" font-size="10.00">glib.h</text>
</a>
</g>
</g>
<!-- Node4&#45;&gt;Node5 -->
<g id="edge4_Node000004_Node000005" class="edge">
<title>Node4&#45;&gt;Node5</title>
<g id="a_edge4_Node000004_Node000005"><a xlink:title=" ">
<path fill="none" stroke="#63b8ff" d="M886.16,-117.23C954.19,-113.81 1132.96,-102.8 1290.86,-73.91"/>
<polygon fill="#63b8ff" stroke="#63b8ff" points="1291.56,-77.34 1300.75,-72.07 1290.28,-70.46 1291.56,-77.34"/>
</a>
</g>
</g>
<!-- Node6 -->
<g id="Node000006" class="node">
<title>Node6</title>
<g id="a_Node000006"><a xlink:title=" ">
<polygon fill="#e0e0e0" stroke="#999999" points="1437,-74 1363,-74 1363,-55 1437,-55 1437,-74"/>
<text text-anchor="middle" x="1400" y="-62" font-family="Helvetica,sans-Serif" font-size="10.00">glib/gi18n.h</text>
</a>
</g>
</g>
<!-- Node4&#45;&gt;Node6 -->
<g id="edge5_Node000004_Node000006" class="edge">
<title>Node4&#45;&gt;Node6</title>
<g id="a_edge5_Node000004_Node000006"><a xlink:title=" ">
<path fill="none" stroke="#63b8ff" d="M886.07,-116.9C960.46,-112.47 1168.97,-98.79 1352.77,-74.04"/>
<polygon fill="#63b8ff" stroke="#63b8ff" points="1353.45,-77.48 1362.89,-72.66 1352.51,-70.54 1353.45,-77.48"/>
</a>
</g>
</g>
<!-- Node7 -->
<g id="Node000007" class="node">
<title>Node7</title>
<g id="a_Node000007"><a xlink:title=" ">
<polygon fill="#e0e0e0" stroke="#999999" points="1510.5,-74 1455.5,-74 1455.5,-55 1510.5,-55 1510.5,-74"/>
<text text-anchor="middle" x="1483" y="-62" font-family="Helvetica,sans-Serif" font-size="10.00">locale.h</text>
</a>
</g>
</g>
<!-- Node4&#45;&gt;Node7 -->
<g id="edge6_Node000004_Node000007" class="edge">
<title>Node4&#45;&gt;Node7</title>
<g id="a_edge6_Node000004_Node000007"><a xlink:title=" ">
<path fill="none" stroke="#63b8ff" d="M886.02,-117.87C969.57,-115.69 1224.31,-106.74 1445.05,-73.89"/>
<polygon fill="#63b8ff" stroke="#63b8ff" points="1445.84,-77.31 1455.21,-72.36 1444.8,-70.39 1445.84,-77.31"/>
</a>
</g>
</g>
<!-- Node8 -->
<g id="Node000008" class="node">
<title>Node8</title>
<g id="a_Node000008"><a xlink:title=" ">
<polygon fill="#e0e0e0" stroke="#999999" points="1585,-74 1529,-74 1529,-55 1585,-55 1585,-74"/>
<text text-anchor="middle" x="1557" y="-62" font-family="Helvetica,sans-Serif" font-size="10.00">unistd.h</text>
</a>
</g>
</g>
<!-- Node4&#45;&gt;Node8 -->
<g id="edge7_Node000004_Node000008" class="edge">
<title>Node4&#45;&gt;Node8</title>
<g id="a_edge7_Node000004_Node000008"><a xlink:title=" ">
<path fill="none" stroke="#63b8ff" d="M886.24,-118.2C976.87,-116.9 1268.59,-110.12 1518.8,-73.93"/>
<polygon fill="#63b8ff" stroke="#63b8ff" points="1519.42,-77.38 1528.81,-72.46 1518.4,-70.45 1519.42,-77.38"/>
</a>
</g>
</g>
<!-- Node9 -->
<g id="Node000009" class="node">
<title>Node9</title>
<g id="a_Node000009"><a xlink:title=" ">
<polygon fill="#e0e0e0" stroke="#999999" points="1656.5,-74 1603.5,-74 1603.5,-55 1656.5,-55 1656.5,-74"/>
<text text-anchor="middle" x="1630" y="-62" font-family="Helvetica,sans-Serif" font-size="10.00">string.h</text>
</a>
</g>
</g>
<!-- Node4&#45;&gt;Node9 -->
<g id="edge8_Node000004_Node000009" class="edge">
<title>Node4&#45;&gt;Node9</title>
<g id="a_edge8_Node000004_Node000009"><a xlink:title=" ">
<path fill="none" stroke="#63b8ff" d="M886.26,-118.53C983.39,-118.26 1312.6,-114.35 1593.39,-73.79"/>
<polygon fill="#63b8ff" stroke="#63b8ff" points="1593.97,-77.24 1603.36,-72.33 1592.96,-70.31 1593.97,-77.24"/>
</a>
</g>
</g>
<!-- Node10 -->
<g id="Node000010" class="node">
<title>Node10</title>
<g id="a_Node000010"><a xlink:title=" ">
<polygon fill="#e0e0e0" stroke="#999999" points="750,-19 700,-19 700,0 750,0 750,-19"/>
<text text-anchor="middle" x="725" y="-7" font-family="Helvetica,sans-Serif" font-size="10.00">stdio.h</text>
</a>
</g>
</g>
<!-- Node4&#45;&gt;Node10 -->
<g id="edge9_Node000004_Node000010" class="edge">
<title>Node4&#45;&gt;Node10</title>
<g id="a_edge9_Node000004_Node000010"><a xlink:title=" ">
<path fill="none" stroke="#63b8ff" d="M886.09,-118.95C955.72,-119.41 1133.29,-116.31 1170,-74 1175.53,-67.62 1175.67,-61.26 1170,-55 1142.67,-24.8 861.12,-14.21 760.5,-11.37"/>
<polygon fill="#63b8ff" stroke="#63b8ff" points="760.34,-7.87 750.24,-11.09 760.15,-14.86 760.34,-7.87"/>
</a>
</g>
</g>
<!-- Node11 -->
<g id="Node000011" class="node">
<title>Node11</title>
<g id="a_Node000011"><a xlink:title=" ">
<polygon fill="#e0e0e0" stroke="#999999" points="346,-74 274,-74 274,-55 346,-55 346,-74"/>
<text text-anchor="middle" x="310" y="-62" font-family="Helvetica,sans-Serif" font-size="10.00">sys/types.h</text>
</a>
</g>
</g>
<!-- Node4&#45;&gt;Node11 -->
<g id="edge11_Node000004_Node000011" class="edge">
<title>Node4&#45;&gt;Node11</title>
<g id="a_edge11_Node000004_Node000011"><a xlink:title=" ">
<path fill="none" stroke="#63b8ff" d="M829.81,-116.98C754.56,-112.72 542.61,-99.38 356.28,-74.05"/>
<polygon fill="#63b8ff" stroke="#63b8ff" points="356.68,-70.57 346.3,-72.67 355.73,-77.5 356.68,-70.57"/>
</a>
</g>
</g>
<!-- Node12 -->
<g id="Node000012" class="node">
<title>Node12</title>
<g id="a_Node000012"><a xlink:title=" ">
<polygon fill="#e0e0e0" stroke="#999999" points="428,-74 364,-74 364,-55 428,-55 428,-74"/>
<text text-anchor="middle" x="396" y="-62" font-family="Helvetica,sans-Serif" font-size="10.00">sys/stat.h</text>
</a>
</g>
</g>
<!-- Node4&#45;&gt;Node12 -->
<g id="edge12_Node000004_Node000012" class="edge">
<title>Node4&#45;&gt;Node12</title>
<g id="a_edge12_Node000004_Node000012"><a xlink:title=" ">
<path fill="none" stroke="#63b8ff" d="M829.79,-116.49C763.34,-111.55 591.64,-97.57 438.25,-74.05"/>
<polygon fill="#63b8ff" stroke="#63b8ff" points="438.59,-70.56 428.17,-72.48 437.52,-77.48 438.59,-70.56"/>
</a>
</g>
</g>
<!-- Node13 -->
<g id="Node000013" class="node">
<title>Node13</title>
<g id="a_Node000013"><a xlink:title=" ">
<polygon fill="#e0e0e0" stroke="#999999" points="216.5,-19 165.5,-19 165.5,0 216.5,0 216.5,-19"/>
<text text-anchor="middle" x="191" y="-7" font-family="Helvetica,sans-Serif" font-size="10.00">math.h</text>
</a>
</g>
</g>
<!-- Node4&#45;&gt;Node13 -->
<g id="edge13_Node000004_Node000013" class="edge">
<title>Node4&#45;&gt;Node13</title>
<g id="a_edge13_Node000004_Node000013"><a xlink:title=" ">
<path fill="none" stroke="#63b8ff" d="M829.72,-118.86C706.92,-120.16 224.07,-122.12 179,-74 167.53,-61.76 173.55,-42.16 180.54,-27.97"/>
<polygon fill="#63b8ff" stroke="#63b8ff" points="183.63,-29.62 185.34,-19.17 177.48,-26.28 183.63,-29.62"/>
</a>
</g>
</g>
<!-- Node14 -->
<g id="Node000014" class="node">
<title>Node14</title>
<g id="a_Node000014"><a xlink:title=" ">
<polygon fill="#e0e0e0" stroke="#999999" points="511.5,-74 446.5,-74 446.5,-55 511.5,-55 511.5,-74"/>
<text text-anchor="middle" x="479" y="-62" font-family="Helvetica,sans-Serif" font-size="10.00">gdk/gdk.h</text>
</a>
</g>
</g>
<!-- Node4&#45;&gt;Node14 -->
<g id="edge15_Node000004_Node000014" class="edge">
<title>Node4&#45;&gt;Node14</title>
<g id="a_edge15_Node000004_Node000014"><a xlink:title=" ">
<path fill="none" stroke="#63b8ff" d="M829.94,-115.45C773.61,-109.19 642.52,-93.92 521.68,-74"/>
<polygon fill="#63b8ff" stroke="#63b8ff" points="521.96,-70.5 511.52,-72.31 520.81,-77.4 521.96,-70.5"/>
</a>
</g>
</g>
<!-- Node15 -->
<g id="Node000015" class="node">
<title>Node15</title>
<g id="a_Node000015"><a xlink:title=" ">
<polygon fill="#e0e0e0" stroke="#999999" points="638,-74 530,-74 530,-55 638,-55 638,-74"/>
<text text-anchor="middle" x="584" y="-62" font-family="Helvetica,sans-Serif" font-size="10.00">gdk/gdkkeysyms.h</text>
</a>
</g>
</g>
<!-- Node4&#45;&gt;Node15 -->
<g id="edge16_Node000004_Node000015" class="edge">
<title>Node4&#45;&gt;Node15</title>
<g id="a_edge16_Node000004_Node000015"><a xlink:title=" ">
<path fill="none" stroke="#63b8ff" d="M829.96,-113.08C784.93,-104.37 695.69,-87.1 637.99,-75.94"/>
<polygon fill="#63b8ff" stroke="#63b8ff" points="638.44,-72.46 627.95,-74 637.11,-79.34 638.44,-72.46"/>
</a>
</g>
</g>
<!-- Node16 -->
<g id="Node000016" class="node">
<title>Node16</title>
<g id="a_Node000016"><a xlink:title=" ">
<polygon fill="#e0e0e0" stroke="#999999" points="789.5,-74 656.5,-74 656.5,-55 789.5,-55 789.5,-74"/>
<text text-anchor="middle" x="723" y="-62" font-family="Helvetica,sans-Serif" font-size="10.00">gdk&#45;pixbuf/gdk&#45;pixbuf.h</text>
</a>
</g>
</g>
<!-- Node4&#45;&gt;Node16 -->
<g id="edge17_Node000004_Node000016" class="edge">
<title>Node4&#45;&gt;Node16</title>
<g id="a_edge17_Node000004_Node000016"><a xlink:title=" ">
<path fill="none" stroke="#63b8ff" d="M836.31,-109.98C814.2,-101.3 779.68,-87.75 754.55,-77.88"/>
<polygon fill="#63b8ff" stroke="#63b8ff" points="755.67,-74.57 745.08,-74.17 753.11,-81.08 755.67,-74.57"/>
</a>
</g>
</g>
<!-- Node17 -->
<g id="Node000017" class="node">
<title>Node17</title>
<g id="a_Node000017"><a xlink:title=" ">
<polygon fill="#e0e0e0" stroke="#999999" points="908.5,-74 807.5,-74 807.5,-55 908.5,-55 908.5,-74"/>
<text text-anchor="middle" x="858" y="-62" font-family="Helvetica,sans-Serif" font-size="10.00">pango/pangoft2.h</text>
</a>
</g>
</g>
<!-- Node4&#45;&gt;Node17 -->
<g id="edge18_Node000004_Node000017" class="edge">
<title>Node4&#45;&gt;Node17</title>
<g id="a_edge18_Node000004_Node000017"><a xlink:title=" ">
<path fill="none" stroke="#63b8ff" d="M858,-109.75C858,-102.8 858,-92.85 858,-84.13"/>
<polygon fill="#63b8ff" stroke="#63b8ff" points="861.5,-84.09 858,-74.09 854.5,-84.09 861.5,-84.09"/>
</a>
</g>
</g>
<!-- Node18 -->
<g id="Node000018" class="node">
<title>Node18</title>
<g id="a_Node000018"><a xlink:title=" ">
<polygon fill="#e0e0e0" stroke="#999999" points="995,-74 927,-74 927,-55 995,-55 995,-74"/>
<text text-anchor="middle" x="961" y="-62" font-family="Helvetica,sans-Serif" font-size="10.00">epoxy/gl.h</text>
</a>
</g>
</g>
<!-- Node4&#45;&gt;Node18 -->
<g id="edge19_Node000004_Node000018" class="edge">
<title>Node4&#45;&gt;Node18</title>
<g id="a_edge19_Node000004_Node000018"><a xlink:title=" ">
<path fill="none" stroke="#63b8ff" d="M874.55,-109.98C890.89,-101.57 916.13,-88.59 935.13,-78.81"/>
<polygon fill="#63b8ff" stroke="#63b8ff" points="936.86,-81.86 944.15,-74.17 933.66,-75.63 936.86,-81.86"/>
</a>
</g>
</g>
<!-- Node19 -->
<g id="Node000019" class="node">
<title>Node19</title>
<g id="a_Node000019"><a xlink:title=" ">
<polygon fill="#e0e0e0" stroke="#999999" points="1069,-74 1013,-74 1013,-55 1069,-55 1069,-74"/>
<text text-anchor="middle" x="1041" y="-62" font-family="Helvetica,sans-Serif" font-size="10.00">GL/glu.h</text>
</a>
</g>
</g>
<!-- Node4&#45;&gt;Node19 -->
<g id="edge20_Node000004_Node000019" class="edge">
<title>Node4&#45;&gt;Node19</title>
<g id="a_edge20_Node000004_Node000019"><a xlink:title=" ">
<path fill="none" stroke="#63b8ff" d="M886.19,-110.33C917.49,-101.27 968.18,-86.59 1002.97,-76.51"/>
<polygon fill="#63b8ff" stroke="#63b8ff" points="1004.14,-79.82 1012.78,-73.67 1002.2,-73.09 1004.14,-79.82"/>
</a>
</g>
</g>
<!-- Node20 -->
<g id="Node000020" class="node">
<title>Node20</title>
<g id="a_Node000020"><a xlink:title=" ">
<polygon fill="#e0e0e0" stroke="#999999" points="1161,-74 1087,-74 1087,-55 1161,-55 1161,-74"/>
<text text-anchor="middle" x="1124" y="-62" font-family="Helvetica,sans-Serif" font-size="10.00">epoxy/glx.h</text>
</a>
</g>
</g>
<!-- Node4&#45;&gt;Node20 -->
<g id="edge21_Node000004_Node000020" class="edge">
<title>Node4&#45;&gt;Node20</title>
<g id="a_edge21_Node000004_Node000020"><a xlink:title=" ">
<path fill="none" stroke="#63b8ff" d="M886.47,-112.83C932.01,-103.75 1021.75,-85.87 1076.94,-74.88"/>
<polygon fill="#63b8ff" stroke="#63b8ff" points="1077.71,-78.29 1086.83,-72.91 1076.34,-71.43 1077.71,-78.29"/>
</a>
</g>
</g>
<!-- Node21 -->
<g id="Node000021" class="node">
<title>Node21</title>
<g id="a_Node000021"><a xlink:href="../../dc/db0/math__3d_8h.html" target="_top" xlink:title="Functions for OpenGL math.">
<polygon fill="white" stroke="#666666" points="256,-74 188,-74 188,-55 256,-55 256,-74"/>
<text text-anchor="middle" x="222" y="-62" font-family="Helvetica,sans-Serif" font-size="10.00">math_3d.h</text>
</a>
</g>
</g>
<!-- Node4&#45;&gt;Node21 -->
<g id="edge22_Node000004_Node000021" class="edge">
<title>Node4&#45;&gt;Node21</title>
<g id="a_edge22_Node000004_Node000021"><a xlink:title=" ">
<path fill="none" stroke="#63b8ff" d="M829.79,-117.59C745.65,-114.61 489.04,-103.7 266.44,-74.03"/>
<polygon fill="#63b8ff" stroke="#63b8ff" points="266.58,-70.52 256.21,-72.65 265.65,-77.45 266.58,-70.52"/>
</a>
</g>
</g>
<!-- Node22 -->
<g id="Node000022" class="node">
<title>Node22</title>
<g id="a_Node000022"><a xlink:href="../../da/d7e/glwin_8h.html" target="_top" xlink:title="Variable declarations related the OpenGL window &#160;&#160;Data structure declarations related the OpenGL wind...">
<polygon fill="white" stroke="#666666" points="1727,-74 1675,-74 1675,-55 1727,-55 1727,-74"/>
<text text-anchor="middle" x="1701" y="-62" font-family="Helvetica,sans-Serif" font-size="10.00">glwin.h</text>
</a>
</g>
</g>
<!-- Node4&#45;&gt;Node22 -->
<g id="edge25_Node000004_Node000022" class="edge">
<title>Node4&#45;&gt;Node22</title>
<g id="a_edge25_Node000004_Node000022"><a xlink:title=" ">
<path fill="none" stroke="#63b8ff" d="M886.1,-118.81C989.01,-119.55 1355.04,-118.77 1664.66,-73.9"/>
<polygon fill="#63b8ff" stroke="#63b8ff" points="1665.34,-77.34 1674.73,-72.43 1664.33,-70.42 1665.34,-77.34"/>
</a>
</g>
</g>
<!-- Node24 -->
<g id="Node000024" class="node">
<title>Node24</title>
<g id="a_Node000024"><a xlink:title=" ">
<polygon fill="#e0e0e0" stroke="#999999" points="1283,-74 1217,-74 1217,-55 1283,-55 1283,-74"/>
<text text-anchor="middle" x="1250" y="-62" font-family="Helvetica,sans-Serif" font-size="10.00">gtk/gtkx.h</text>
</a>
</g>
</g>
<!-- Node4&#45;&gt;Node24 -->
<g id="edge27_Node000004_Node000024" class="edge">
<title>Node4&#45;&gt;Node24</title>
<g id="a_edge27_Node000004_Node000024"><a xlink:title=" ">
<path fill="none" stroke="#63b8ff" d="M886.24,-115.35C945.22,-108.66 1085.73,-92.16 1203,-74 1204.27,-73.8 1205.55,-73.6 1206.85,-73.39"/>
<polygon fill="#63b8ff" stroke="#63b8ff" points="1207.63,-76.81 1216.91,-71.7 1206.47,-69.91 1207.63,-76.81"/>
</a>
</g>
</g>
<!-- Node21&#45;&gt;Node10 -->
<g id="edge24_Node000021_Node000010" class="edge">
<title>Node21&#45;&gt;Node10</title>
<g id="a_edge24_Node000021_Node000010"><a xlink:title=" ">
<path fill="none" stroke="#63b8ff" d="M256.21,-56.42C259.18,-55.9 262.14,-55.42 265,-55 422.7,-31.84 612.65,-17.83 689.84,-12.71"/>
<polygon fill="#63b8ff" stroke="#63b8ff" points="690.21,-16.2 699.96,-12.05 689.76,-9.21 690.21,-16.2"/>
</a>
</g>
</g>
<!-- Node21&#45;&gt;Node13 -->
<g id="edge23_Node000021_Node000013" class="edge">
<title>Node21&#45;&gt;Node13</title>
<g id="a_edge23_Node000021_Node000013"><a xlink:title=" ">
<path fill="none" stroke="#63b8ff" d="M216.88,-54.75C212.64,-47.49 206.47,-36.95 201.22,-27.98"/>
<polygon fill="#63b8ff" stroke="#63b8ff" points="204.09,-25.95 196.02,-19.09 198.05,-29.49 204.09,-25.95"/>
</a>
</g>
</g>
<!-- Node23 -->
<g id="Node000023" class="node">
<title>Node23</title>
<g id="a_Node000023"><a xlink:href="../../d5/d9e/ogl__shading_8h.html" target="_top" xlink:title="Variable declarations related to GLSL programs &#160;&#160;Data structure declarations related to GLSL programs...">
<polygon fill="white" stroke="#666666" points="1743,-19 1659,-19 1659,0 1743,0 1743,-19"/>
<text text-anchor="middle" x="1701" y="-7" font-family="Helvetica,sans-Serif" font-size="10.00">ogl_shading.h</text>
</a>
</g>
</g>
<!-- Node22&#45;&gt;Node23 -->
<g id="edge26_Node000022_Node000023" class="edge">
<title>Node22&#45;&gt;Node23</title>
<g id="a_edge26_Node000022_Node000023"><a xlink:title=" ">
<path fill="none" stroke="#63b8ff" d="M1701,-54.75C1701,-47.8 1701,-37.85 1701,-29.13"/>
<polygon fill="#63b8ff" stroke="#63b8ff" points="1704.5,-29.09 1701,-19.09 1697.5,-29.09 1704.5,-29.09"/>
</a>
</g>
</g>
<!-- Node26&#45;&gt;Node4 -->
<g id="edge30_Node000026_Node000004" class="edge">
<title>Node26&#45;&gt;Node4</title>
<g id="a_edge30_Node000026_Node000004"><a xlink:title=" ">
<path fill="none" stroke="#63b8ff" d="M736.3,-164.98C760.25,-156.23 797.78,-142.51 824.83,-132.62"/>
<polygon fill="#63b8ff" stroke="#63b8ff" points="826.09,-135.89 834.28,-129.17 823.69,-129.32 826.09,-135.89"/>
</a>
</g>
</g>
</g>
</svg>
