<?xml version="1.0" encoding="UTF-8" standalone="no"?>
<!DOCTYPE svg PUBLIC "-//W3C//DTD SVG 1.1//EN"
 "http://www.w3.org/Graphics/SVG/1.1/DTD/svg11.dtd">
<!-- Generated by graphviz version 7.1.0 (0)
 -->
<!-- Title: cwidget.c Pages: 1 -->
<!--zoomable 247 -->
<svg id="main" version="1.1" xmlns="http://www.w3.org/2000/svg" xmlns:xlink="http://www.w3.org/1999/xlink" xml:space="preserve" onload="init(evt)">
<style type="text/css"><![CDATA[
.edge:hover path { stroke: red; }
.edge:hover polygon { stroke: red; fill: red; }
]]></style>
<script type="text/javascript"><![CDATA[
var edges = document.getElementsByTagName('g');
if (edges && edges.length) {
  for (var i=0;i<edges.length;i++) {
    if (edges[i].id.substr(0,4)=='edge') {
      edges[i].setAttribute('class','edge');
    }
  }
}
]]></script>
        <defs>
                <circle id="rim" cx="0" cy="0" r="7"/>
                <circle id="rim2" cx="0" cy="0" r="3.5"/>
                <g id="zoomPlus">
                        <use xlink:href="#rim" fill="#404040">
                                <set attributeName="fill" to="#808080" begin="zoomplus.mouseover" end="zoomplus.mouseout"/>
                        </use>
                        <path d="M-4,0h8M0,-4v8" fill="none" stroke="white" stroke-width="1.5" pointer-events="none"/>
                </g>
                <g id="zoomMin">
                        <use xlink:href="#rim" fill="#404040">
                                <set attributeName="fill" to="#808080" begin="zoomminus.mouseover" end="zoomminus.mouseout"/>
                        </use>
                        <path d="M-4,0h8" fill="none" stroke="white" stroke-width="1.5" pointer-events="none"/>
                </g>
                <g id="dirArrow">
                        <path fill="none" stroke="white" stroke-width="1.5" d="M0,-3.0v7 M-2.5,-0.5L0,-3.0L2.5,-0.5"/>
                </g>
               <g id="resetDef">
                       <use xlink:href="#rim2" fill="#404040">
                               <set attributeName="fill" to="#808080" begin="reset.mouseover" end="reset.mouseout"/>
                       </use>
               </g>
        </defs>

<script type="text/javascript">
var viewWidth = 1632;
var viewHeight = 247;
var sectionId = 'dynsection-0';
</script>
<script xlink:href="../../svgpan.js"/>
<svg id="graph" class="graph">
<g id="viewport">
<title>cwidget.c</title>
<!-- Node1 -->
<g id="node1" class="node">
<title>Node1</title>
<g id="a_node1"><a xlink:title=" ">
<polygon fill="#999999" stroke="#666666" points="693,-239 634,-239 634,-220 693,-220 693,-239"/>
<text text-anchor="middle" x="663.5" y="-227" font-family="Helvetica,sans-Serif" font-size="10.00">cwidget.c</text>
</a>
</g>
</g>
<!-- Node2 -->
<g id="node2" class="node">
<title>Node2</title>
<g id="a_node2"><a xlink:title=" ">
<polygon fill="#e0e0e0" stroke="#999999" points="55,-74 0,-74 0,-55 55,-55 55,-74"/>
<text text-anchor="middle" x="27.5" y="-62" font-family="Helvetica,sans-Serif" font-size="10.00">gtk/gtk.h</text>
</a>
</g>
</g>
<!-- Node1&#45;&gt;Node2 -->
<g id="edge1" class="edge">
<title>Node1&#45;&gt;Node2</title>
<path fill="none" stroke="#63b8ff" d="M633.58,-222.95C592.07,-215.1 514.75,-199.93 449.5,-184 307.11,-149.25 140.09,-99.71 66.12,-77.31"/>
<polygon fill="#63b8ff" stroke="#63b8ff" points="67.51,-74.07 56.92,-74.52 65.47,-80.77 67.51,-74.07"/>
</g>
<!-- Node3 -->
<g id="node3" class="node">
<title>Node3</title>
<g id="a_node3"><a xlink:title=" ">
<polygon fill="#e0e0e0" stroke="#999999" points="121.5,-74 73.5,-74 73.5,-55 121.5,-55 121.5,-74"/>
<text text-anchor="middle" x="97.5" y="-62" font-family="Helvetica,sans-Serif" font-size="10.00">stdlib.h</text>
</a>
</g>
</g>
<!-- Node1&#45;&gt;Node3 -->
<g id="edge2" class="edge">
<title>Node1&#45;&gt;Node3</title>
<path fill="none" stroke="#63b8ff" d="M633.87,-219.97C537.95,-192.34 236.19,-105.44 132.72,-75.64"/>
<polygon fill="#63b8ff" stroke="#63b8ff" points="133.98,-72.36 123.4,-72.96 132.04,-79.09 133.98,-72.36"/>
</g>
<!-- Node4 -->
<g id="node4" class="node">
<title>Node4</title>
<g id="a_node4"><a xlink:href="../../d2/d49/global_8h.html" target="_top" xlink:title="global variable declarations &#160;&#160;global convenience function declarations &#160;&#160;global data structure defin...">
<polygon fill="white" stroke="#666666" points="823.5,-129 773.5,-129 773.5,-110 823.5,-110 823.5,-129"/>
<text text-anchor="middle" x="798.5" y="-117" font-family="Helvetica,sans-Serif" font-size="10.00">global.h</text>
</a>
</g>
</g>
<!-- Node1&#45;&gt;Node4 -->
<g id="edge3" class="edge">
<title>Node1&#45;&gt;Node4</title>
<path fill="none" stroke="#63b8ff" d="M673,-219.53C686.51,-206.91 712.23,-183.4 735.5,-165 748.47,-154.75 763.58,-144.04 775.75,-135.69"/>
<polygon fill="#63b8ff" stroke="#63b8ff" points="777.61,-138.66 783.92,-130.15 773.68,-132.87 777.61,-138.66"/>
</g>
<!-- Node25 -->
<g id="node25" class="node">
<title>Node25</title>
<g id="a_node25"><a xlink:href="../../d4/da9/interface_8h.html" target="_top" xlink:title=" ">
<polygon fill="white" stroke="#666666" points="806.5,-184 744.5,-184 744.5,-165 806.5,-165 806.5,-184"/>
<text text-anchor="middle" x="775.5" y="-172" font-family="Helvetica,sans-Serif" font-size="10.00">interface.h</text>
</a>
</g>
</g>
<!-- Node1&#45;&gt;Node25 -->
<g id="edge28" class="edge">
<title>Node1&#45;&gt;Node25</title>
<path fill="none" stroke="#63b8ff" d="M682.5,-219.51C700.06,-211.2 726.42,-198.73 746.59,-189.18"/>
<polygon fill="#63b8ff" stroke="#63b8ff" points="747.87,-192.45 755.41,-185.01 744.88,-186.12 747.87,-192.45"/>
</g>
<!-- Node26 -->
<g id="node26" class="node">
<title>Node26</title>
<g id="a_node26"><a xlink:href="../../df/de9/curve_8h.html" target="_top" xlink:title=" ">
<polygon fill="white" stroke="#666666" points="688,-184 639,-184 639,-165 688,-165 688,-184"/>
<text text-anchor="middle" x="663.5" y="-172" font-family="Helvetica,sans-Serif" font-size="10.00">curve.h</text>
</a>
</g>
</g>
<!-- Node1&#45;&gt;Node26 -->
<g id="edge29" class="edge">
<title>Node1&#45;&gt;Node26</title>
<path fill="none" stroke="#63b8ff" d="M663.5,-219.75C663.5,-213.27 663.5,-204.16 663.5,-195.9"/>
<polygon fill="#63b8ff" stroke="#63b8ff" points="667,-195.96 663.5,-185.96 660,-195.96 667,-195.96"/>
</g>
<!-- Node4&#45;&gt;Node2 -->
<g id="edge14" class="edge">
<title>Node4&#45;&gt;Node2</title>
<path fill="none" stroke="#63b8ff" d="M773.32,-118.48C680.56,-118.07 349.17,-113.87 66.59,-74.02"/>
<polygon fill="#63b8ff" stroke="#63b8ff" points="67.18,-70.57 56.79,-72.62 66.19,-77.5 67.18,-70.57"/>
</g>
<!-- Node4&#45;&gt;Node3 -->
<g id="edge10" class="edge">
<title>Node4&#45;&gt;Node3</title>
<path fill="none" stroke="#63b8ff" d="M773.06,-118.19C684.57,-116.82 382.12,-109.65 135.5,-74 134.67,-73.88 133.84,-73.75 132.99,-73.62"/>
<polygon fill="#63b8ff" stroke="#63b8ff" points="133.89,-70.22 123.42,-71.82 132.6,-77.1 133.89,-70.22"/>
</g>
<!-- Node5 -->
<g id="node5" class="node">
<title>Node5</title>
<g id="a_node5"><a xlink:title=" ">
<polygon fill="#e0e0e0" stroke="#999999" points="1255.5,-74 1215.5,-74 1215.5,-55 1255.5,-55 1255.5,-74"/>
<text text-anchor="middle" x="1235.5" y="-62" font-family="Helvetica,sans-Serif" font-size="10.00">glib.h</text>
</a>
</g>
</g>
<!-- Node4&#45;&gt;Node5 -->
<g id="edge4" class="edge">
<title>Node4&#45;&gt;Node5</title>
<path fill="none" stroke="#63b8ff" d="M823.57,-117.31C886.23,-114 1054.75,-103.12 1203.86,-74.2"/>
<polygon fill="#63b8ff" stroke="#63b8ff" points="1204.4,-77.66 1213.53,-72.28 1203.04,-70.79 1204.4,-77.66"/>
</g>
<!-- Node6 -->
<g id="node6" class="node">
<title>Node6</title>
<g id="a_node6"><a xlink:title=" ">
<polygon fill="#e0e0e0" stroke="#999999" points="1339.5,-74 1273.5,-74 1273.5,-55 1339.5,-55 1339.5,-74"/>
<text text-anchor="middle" x="1306.5" y="-62" font-family="Helvetica,sans-Serif" font-size="10.00">glib/gi18n.h</text>
</a>
</g>
</g>
<!-- Node4&#45;&gt;Node6 -->
<g id="edge5" class="edge">
<title>Node4&#45;&gt;Node6</title>
<path fill="none" stroke="#63b8ff" d="M823.87,-117.01C892.65,-112.78 1088.62,-99.43 1261.72,-74.26"/>
<polygon fill="#63b8ff" stroke="#63b8ff" points="1262.2,-77.73 1271.59,-72.81 1261.18,-70.81 1262.2,-77.73"/>
</g>
<!-- Node7 -->
<g id="node7" class="node">
<title>Node7</title>
<g id="a_node7"><a xlink:title=" ">
<polygon fill="#e0e0e0" stroke="#999999" points="1407.5,-74 1357.5,-74 1357.5,-55 1407.5,-55 1407.5,-74"/>
<text text-anchor="middle" x="1382.5" y="-62" font-family="Helvetica,sans-Serif" font-size="10.00">locale.h</text>
</a>
</g>
</g>
<!-- Node4&#45;&gt;Node7 -->
<g id="edge6" class="edge">
<title>Node4&#45;&gt;Node7</title>
<path fill="none" stroke="#63b8ff" d="M823.9,-117.93C901.05,-115.87 1139.51,-107.24 1346.28,-74.08"/>
<polygon fill="#63b8ff" stroke="#63b8ff" points="1346.54,-77.58 1355.85,-72.52 1345.42,-70.68 1346.54,-77.58"/>
</g>
<!-- Node8 -->
<g id="node8" class="node">
<title>Node8</title>
<g id="a_node8"><a xlink:title=" ">
<polygon fill="#e0e0e0" stroke="#999999" points="1477,-74 1426,-74 1426,-55 1477,-55 1477,-74"/>
<text text-anchor="middle" x="1451.5" y="-62" font-family="Helvetica,sans-Serif" font-size="10.00">unistd.h</text>
</a>
</g>
</g>
<!-- Node4&#45;&gt;Node8 -->
<g id="edge7" class="edge">
<title>Node4&#45;&gt;Node8</title>
<path fill="none" stroke="#63b8ff" d="M823.98,-118.18C907.39,-116.82 1179.84,-109.86 1414.46,-74.03"/>
<polygon fill="#63b8ff" stroke="#63b8ff" points="1414.76,-77.52 1424.11,-72.53 1413.69,-70.6 1414.76,-77.52"/>
</g>
<!-- Node9 -->
<g id="node9" class="node">
<title>Node9</title>
<g id="a_node9"><a xlink:title=" ">
<polygon fill="#e0e0e0" stroke="#999999" points="1544,-74 1495,-74 1495,-55 1544,-55 1544,-74"/>
<text text-anchor="middle" x="1519.5" y="-62" font-family="Helvetica,sans-Serif" font-size="10.00">string.h</text>
</a>
</g>
</g>
<!-- Node4&#45;&gt;Node9 -->
<g id="edge8" class="edge">
<title>Node4&#45;&gt;Node9</title>
<path fill="none" stroke="#63b8ff" d="M823.99,-118.57C913.45,-118.45 1221.42,-115.01 1483.48,-74.19"/>
<polygon fill="#63b8ff" stroke="#63b8ff" points="1483.91,-77.67 1493.24,-72.65 1482.82,-70.75 1483.91,-77.67"/>
</g>
<!-- Node10 -->
<g id="node10" class="node">
<title>Node10</title>
<g id="a_node10"><a xlink:title=" ">
<polygon fill="#e0e0e0" stroke="#999999" points="700.5,-19 654.5,-19 654.5,0 700.5,0 700.5,-19"/>
<text text-anchor="middle" x="677.5" y="-7" font-family="Helvetica,sans-Serif" font-size="10.00">stdio.h</text>
</a>
</g>
</g>
<!-- Node4&#45;&gt;Node10 -->
<g id="edge9" class="edge">
<title>Node4&#45;&gt;Node10</title>
<path fill="none" stroke="#63b8ff" d="M823.63,-118.66C887.98,-118.46 1056.08,-114.06 1090.5,-74 1096,-67.59 1096.14,-61.28 1090.5,-55 1065.37,-27.02 807.03,-15.09 712.18,-11.63"/>
<polygon fill="#63b8ff" stroke="#63b8ff" points="712.57,-8.15 702.45,-11.29 712.32,-15.14 712.57,-8.15"/>
</g>
<!-- Node11 -->
<g id="node11" class="node">
<title>Node11</title>
<g id="a_node11"><a xlink:title=" ">
<polygon fill="#e0e0e0" stroke="#999999" points="325.5,-74 257.5,-74 257.5,-55 325.5,-55 325.5,-74"/>
<text text-anchor="middle" x="291.5" y="-62" font-family="Helvetica,sans-Serif" font-size="10.00">sys/types.h</text>
</a>
</g>
</g>
<!-- Node4&#45;&gt;Node11 -->
<g id="edge11" class="edge">
<title>Node4&#45;&gt;Node11</title>
<path fill="none" stroke="#63b8ff" d="M773.25,-116.97C704.77,-112.62 509.68,-98.99 337.05,-74.23"/>
<polygon fill="#63b8ff" stroke="#63b8ff" points="337.61,-70.77 327.21,-72.8 336.61,-77.7 337.61,-70.77"/>
</g>
<!-- Node12 -->
<g id="node12" class="node">
<title>Node12</title>
<g id="a_node12"><a xlink:title=" ">
<polygon fill="#e0e0e0" stroke="#999999" points="403.5,-74 343.5,-74 343.5,-55 403.5,-55 403.5,-74"/>
<text text-anchor="middle" x="373.5" y="-62" font-family="Helvetica,sans-Serif" font-size="10.00">sys/stat.h</text>
</a>
</g>
</g>
<!-- Node4&#45;&gt;Node12 -->
<g id="edge12" class="edge">
<title>Node4&#45;&gt;Node12</title>
<path fill="none" stroke="#63b8ff" d="M773.09,-116.45C712.72,-111.41 555.83,-97.2 414.67,-74.2"/>
<polygon fill="#63b8ff" stroke="#63b8ff" points="415.61,-70.81 405.17,-72.63 414.47,-77.72 415.61,-70.81"/>
</g>
<!-- Node13 -->
<g id="node13" class="node">
<title>Node13</title>
<g id="a_node13"><a xlink:title=" ">
<polygon fill="#e0e0e0" stroke="#999999" points="203,-19 156,-19 156,0 203,0 203,-19"/>
<text text-anchor="middle" x="179.5" y="-7" font-family="Helvetica,sans-Serif" font-size="10.00">math.h</text>
</a>
</g>
</g>
<!-- Node4&#45;&gt;Node13 -->
<g id="edge13" class="edge">
<title>Node4&#45;&gt;Node13</title>
<path fill="none" stroke="#63b8ff" d="M773.02,-118.7C660.3,-119.3 210.31,-118.87 168.5,-74 157.43,-62.12 162.45,-43.29 168.88,-29.21"/>
<polygon fill="#63b8ff" stroke="#63b8ff" points="171.89,-31.01 173.36,-20.51 165.67,-27.8 171.89,-31.01"/>
</g>
<!-- Node14 -->
<g id="node14" class="node">
<title>Node14</title>
<g id="a_node14"><a xlink:title=" ">
<polygon fill="#e0e0e0" stroke="#999999" points="481,-74 422,-74 422,-55 481,-55 481,-74"/>
<text text-anchor="middle" x="451.5" y="-62" font-family="Helvetica,sans-Serif" font-size="10.00">gdk/gdk.h</text>
</a>
</g>
</g>
<!-- Node4&#45;&gt;Node14 -->
<g id="edge15" class="edge">
<title>Node4&#45;&gt;Node14</title>
<path fill="none" stroke="#63b8ff" d="M773.16,-115.52C722.01,-109.37 602.54,-94.28 492.61,-74.46"/>
<polygon fill="#63b8ff" stroke="#63b8ff" points="493.28,-71.02 482.82,-72.67 492.03,-77.91 493.28,-71.02"/>
</g>
<!-- Node15 -->
<g id="node15" class="node">
<title>Node15</title>
<g id="a_node15"><a xlink:title=" ">
<polygon fill="#e0e0e0" stroke="#999999" points="598,-74 499,-74 499,-55 598,-55 598,-74"/>
<text text-anchor="middle" x="548.5" y="-62" font-family="Helvetica,sans-Serif" font-size="10.00">gdk/gdkkeysyms.h</text>
</a>
</g>
</g>
<!-- Node4&#45;&gt;Node15 -->
<g id="edge16" class="edge">
<title>Node4&#45;&gt;Node15</title>
<path fill="none" stroke="#63b8ff" d="M773.15,-113.13C733.25,-104.67 654.92,-88.06 602.12,-76.87"/>
<polygon fill="#63b8ff" stroke="#63b8ff" points="602.93,-73.46 592.42,-74.81 601.48,-80.31 602.93,-73.46"/>
</g>
<!-- Node16 -->
<g id="node16" class="node">
<title>Node16</title>
<g id="a_node16"><a xlink:title=" ">
<polygon fill="#e0e0e0" stroke="#999999" points="734.5,-74 616.5,-74 616.5,-55 734.5,-55 734.5,-74"/>
<text text-anchor="middle" x="675.5" y="-62" font-family="Helvetica,sans-Serif" font-size="10.00">gdk&#45;pixbuf/gdk&#45;pixbuf.h</text>
</a>
</g>
</g>
<!-- Node4&#45;&gt;Node16 -->
<g id="edge17" class="edge">
<title>Node4&#45;&gt;Node16</title>
<path fill="none" stroke="#63b8ff" d="M777.63,-109.51C758.08,-101.08 728.6,-88.38 706.33,-78.79"/>
<polygon fill="#63b8ff" stroke="#63b8ff" points="708.02,-75.7 697.45,-74.96 705.25,-82.13 708.02,-75.7"/>
</g>
<!-- Node17 -->
<g id="node17" class="node">
<title>Node17</title>
<g id="a_node17"><a xlink:title=" ">
<polygon fill="#e0e0e0" stroke="#999999" points="844.5,-74 752.5,-74 752.5,-55 844.5,-55 844.5,-74"/>
<text text-anchor="middle" x="798.5" y="-62" font-family="Helvetica,sans-Serif" font-size="10.00">pango/pangoft2.h</text>
</a>
</g>
</g>
<!-- Node4&#45;&gt;Node17 -->
<g id="edge18" class="edge">
<title>Node4&#45;&gt;Node17</title>
<path fill="none" stroke="#63b8ff" d="M798.5,-109.75C798.5,-103.27 798.5,-94.16 798.5,-85.9"/>
<polygon fill="#63b8ff" stroke="#63b8ff" points="802,-85.96 798.5,-75.96 795,-85.96 802,-85.96"/>
</g>
<!-- Node18 -->
<g id="node18" class="node">
<title>Node18</title>
<g id="a_node18"><a xlink:title=" ">
<polygon fill="#e0e0e0" stroke="#999999" points="924.5,-74 862.5,-74 862.5,-55 924.5,-55 924.5,-74"/>
<text text-anchor="middle" x="893.5" y="-62" font-family="Helvetica,sans-Serif" font-size="10.00">epoxy/gl.h</text>
</a>
</g>
</g>
<!-- Node4&#45;&gt;Node18 -->
<g id="edge19" class="edge">
<title>Node4&#45;&gt;Node18</title>
<path fill="none" stroke="#63b8ff" d="M814.62,-109.51C829.17,-101.39 850.84,-89.3 867.79,-79.85"/>
<polygon fill="#63b8ff" stroke="#63b8ff" points="869.27,-83.02 876.3,-75.1 865.86,-76.91 869.27,-83.02"/>
</g>
<!-- Node19 -->
<g id="node19" class="node">
<title>Node19</title>
<g id="a_node19"><a xlink:title=" ">
<polygon fill="#e0e0e0" stroke="#999999" points="996,-74 943,-74 943,-55 996,-55 996,-74"/>
<text text-anchor="middle" x="969.5" y="-62" font-family="Helvetica,sans-Serif" font-size="10.00">GL/glu.h</text>
</a>
</g>
</g>
<!-- Node4&#45;&gt;Node19 -->
<g id="edge20" class="edge">
<title>Node4&#45;&gt;Node19</title>
<path fill="none" stroke="#63b8ff" d="M823.73,-110.68C852.24,-101.84 898.93,-87.37 931.77,-77.19"/>
<polygon fill="#63b8ff" stroke="#63b8ff" points="932.79,-80.54 941.31,-74.24 930.72,-73.85 932.79,-80.54"/>
</g>
<!-- Node20 -->
<g id="node20" class="node">
<title>Node20</title>
<g id="a_node20"><a xlink:title=" ">
<polygon fill="#e0e0e0" stroke="#999999" points="1081,-74 1014,-74 1014,-55 1081,-55 1081,-74"/>
<text text-anchor="middle" x="1047.5" y="-62" font-family="Helvetica,sans-Serif" font-size="10.00">epoxy/glx.h</text>
</a>
</g>
</g>
<!-- Node4&#45;&gt;Node20 -->
<g id="edge21" class="edge">
<title>Node4&#45;&gt;Node20</title>
<path fill="none" stroke="#63b8ff" d="M823.75,-113.13C865.67,-104.2 950.22,-86.21 1002.54,-75.07"/>
<polygon fill="#63b8ff" stroke="#63b8ff" points="1002.97,-78.56 1012.02,-73.05 1001.51,-71.71 1002.97,-78.56"/>
</g>
<!-- Node21 -->
<g id="node21" class="node">
<title>Node21</title>
<g id="a_node21"><a xlink:href="../../dc/db0/math__3d_8h.html" target="_top" xlink:title=" ">
<polygon fill="white" stroke="#666666" points="239.5,-74 177.5,-74 177.5,-55 239.5,-55 239.5,-74"/>
<text text-anchor="middle" x="208.5" y="-62" font-family="Helvetica,sans-Serif" font-size="10.00">math_3d.h</text>
</a>
</g>
</g>
<!-- Node4&#45;&gt;Node21 -->
<g id="edge22" class="edge">
<title>Node4&#45;&gt;Node21</title>
<path fill="none" stroke="#63b8ff" d="M773.15,-117.61C696.18,-114.66 458.27,-103.76 251.27,-74.22"/>
<polygon fill="#63b8ff" stroke="#63b8ff" points="251.77,-70.75 241.37,-72.78 250.77,-77.68 251.77,-70.75"/>
</g>
<!-- Node22 -->
<g id="node22" class="node">
<title>Node22</title>
<g id="a_node22"><a xlink:href="../../da/d7e/glwin_8h.html" target="_top" xlink:title=" ">
<polygon fill="white" stroke="#666666" points="1609,-74 1562,-74 1562,-55 1609,-55 1609,-74"/>
<text text-anchor="middle" x="1585.5" y="-62" font-family="Helvetica,sans-Serif" font-size="10.00">glwin.h</text>
</a>
</g>
</g>
<!-- Node4&#45;&gt;Node22 -->
<g id="edge25" class="edge">
<title>Node4&#45;&gt;Node22</title>
<path fill="none" stroke="#63b8ff" d="M823.79,-118.84C918.48,-119.74 1261.06,-119.55 1550.7,-74.12"/>
<polygon fill="#63b8ff" stroke="#63b8ff" points="1551.03,-77.62 1560.35,-72.59 1549.93,-70.7 1551.03,-77.62"/>
</g>
<!-- Node24 -->
<g id="node24" class="node">
<title>Node24</title>
<g id="a_node24"><a xlink:title=" ">
<polygon fill="#e0e0e0" stroke="#999999" points="1197.5,-74 1137.5,-74 1137.5,-55 1197.5,-55 1197.5,-74"/>
<text text-anchor="middle" x="1167.5" y="-62" font-family="Helvetica,sans-Serif" font-size="10.00">gtk/gtkx.h</text>
</a>
</g>
</g>
<!-- Node4&#45;&gt;Node24 -->
<g id="edge27" class="edge">
<title>Node4&#45;&gt;Node24</title>
<path fill="none" stroke="#63b8ff" d="M823.86,-115.51C878.67,-108.93 1012.24,-92.35 1123.5,-74 1124.33,-73.86 1125.18,-73.72 1126.03,-73.58"/>
<polygon fill="#63b8ff" stroke="#63b8ff" points="1126.52,-77.04 1135.75,-71.84 1125.29,-70.15 1126.52,-77.04"/>
</g>
<!-- Node21&#45;&gt;Node10 -->
<g id="edge24" class="edge">
<title>Node21&#45;&gt;Node10</title>
<path fill="none" stroke="#63b8ff" d="M239.88,-56.5C242.79,-55.95 245.69,-55.44 248.5,-55 394.23,-32.02 569.76,-18.05 642.9,-12.84"/>
<polygon fill="#63b8ff" stroke="#63b8ff" points="642.9,-16.35 652.63,-12.15 642.41,-9.36 642.9,-16.35"/>
</g>
<!-- Node21&#45;&gt;Node13 -->
<g id="edge23" class="edge">
<title>Node21&#45;&gt;Node13</title>
<path fill="none" stroke="#63b8ff" d="M203.71,-54.75C199.96,-47.88 194.59,-38.08 189.87,-29.45"/>
<polygon fill="#63b8ff" stroke="#63b8ff" points="192.99,-27.86 185.12,-20.77 186.85,-31.22 192.99,-27.86"/>
</g>
<!-- Node23 -->
<g id="node23" class="node">
<title>Node23</title>
<g id="a_node23"><a xlink:href="../../d5/d9e/ogl__shading_8h.html" target="_top" xlink:title=" ">
<polygon fill="white" stroke="#666666" points="1624,-19 1547,-19 1547,0 1624,0 1624,-19"/>
<text text-anchor="middle" x="1585.5" y="-7" font-family="Helvetica,sans-Serif" font-size="10.00">ogl_shading.h</text>
</a>
</g>
</g>
<!-- Node22&#45;&gt;Node23 -->
<g id="edge26" class="edge">
<title>Node22&#45;&gt;Node23</title>
<path fill="none" stroke="#63b8ff" d="M1585.5,-54.75C1585.5,-48.27 1585.5,-39.16 1585.5,-30.9"/>
<polygon fill="#63b8ff" stroke="#63b8ff" points="1589,-30.96 1585.5,-20.96 1582,-30.96 1589,-30.96"/>
</g>
<!-- Node26&#45;&gt;Node4 -->
<g id="edge30" class="edge">
<title>Node26&#45;&gt;Node4</title>
<path fill="none" stroke="#63b8ff" d="M686.4,-164.51C708.06,-156.01 740.81,-143.15 765.32,-133.53"/>
<polygon fill="#63b8ff" stroke="#63b8ff" points="766.5,-136.82 774.53,-129.91 763.94,-130.31 766.5,-136.82"/>
</g>
</g>
</svg>
        <g id="navigator" transform="translate(0 0)" fill="#404254">
                <rect fill="#f2f5e9" fill-opacity="0.5" stroke="#606060" stroke-width=".5" x="0" y="0" width="60" height="60"/>
                <use id="zoomplus" xlink:href="#zoomPlus" x="17" y="9" onmousedown="handleZoom(evt,'in')"/>
                <use id="zoomminus" xlink:href="#zoomMin" x="42" y="9" onmousedown="handleZoom(evt,'out')"/>
                <use id="reset" xlink:href="#resetDef" x="30" y="36" onmousedown="handleReset()"/>
                <g id="arrowUp" xlink:href="#dirArrow" transform="translate(30 24)" onmousedown="handlePan(0,-1)">
                  <use xlink:href="#rim" fill="#404040">
                        <set attributeName="fill" to="#808080" begin="arrowUp.mouseover" end="arrowUp.mouseout"/>
                  </use>
                  <path fill="none" stroke="white" stroke-width="1.5" d="M0,-3.0v7 M-2.5,-0.5L0,-3.0L2.5,-0.5"/>
                </g>
                <g id="arrowRight" xlink:href="#dirArrow" transform="rotate(90) translate(36 -43)" onmousedown="handlePan(1,0)">
                  <use xlink:href="#rim" fill="#404040">
                        <set attributeName="fill" to="#808080" begin="arrowRight.mouseover" end="arrowRight.mouseout"/>
                  </use>
                  <path fill="none" stroke="white" stroke-width="1.5" d="M0,-3.0v7 M-2.5,-0.5L0,-3.0L2.5,-0.5"/>
                </g>
                <g id="arrowDown" xlink:href="#dirArrow" transform="rotate(180) translate(-30 -48)" onmousedown="handlePan(0,1)">
                  <use xlink:href="#rim" fill="#404040">
                        <set attributeName="fill" to="#808080" begin="arrowDown.mouseover" end="arrowDown.mouseout"/>
                  </use>
                  <path fill="none" stroke="white" stroke-width="1.5" d="M0,-3.0v7 M-2.5,-0.5L0,-3.0L2.5,-0.5"/>
                </g>
                <g id="arrowLeft" xlink:href="#dirArrow" transform="rotate(270) translate(-36 17)" onmousedown="handlePan(-1,0)">
                  <use xlink:href="#rim" fill="#404040">
                        <set attributeName="fill" to="#808080" begin="arrowLeft.mouseover" end="arrowLeft.mouseout"/>
                  </use>
                  <path fill="none" stroke="white" stroke-width="1.5" d="M0,-3.0v7 M-2.5,-0.5L0,-3.0L2.5,-0.5"/>
                </g>
        </g>
        <svg viewBox="0 0 15 15" width="100%" height="30px" preserveAspectRatio="xMaxYMin meet">
         <g id="arrow_out" transform="scale(0.3 0.3)">
          <a xlink:href="cwidget_8c__incl_org.svg" target="_base">
           <rect id="button" ry="5" rx="5" y="6" x="6" height="38" width="38"
                fill="#f2f5e9" fill-opacity="0.5" stroke="#606060" stroke-width="1.0"/>
           <path id="arrow"
             d="M 11.500037,31.436501 C 11.940474,20.09759 22.043105,11.32322 32.158766,21.979434 L 37.068811,17.246167 C 37.068811,17.246167 37.088388,32 37.088388,32 L 22.160133,31.978069 C 22.160133,31.978069 26.997745,27.140456 26.997745,27.140456 C 18.528582,18.264221 13.291696,25.230495 11.500037,31.436501 z"
             style="fill:#404040;"/>
          </a>
         </g>
        </svg>
</svg>
