<?xml version="1.0" encoding="UTF-8" standalone="no"?>
<!DOCTYPE svg PUBLIC "-//W3C//DTD SVG 1.1//EN"
 "http://www.w3.org/Graphics/SVG/1.1/DTD/svg11.dtd">
<!-- Generated by graphviz version 9.0.0 (20230911.1827)
 -->
<!-- Title: curve/cwidget.c Pages: 1 -->
<!--zoomable 252 -->

<svg id="main" version="1.1" xmlns="http://www.w3.org/2000/svg" xmlns:xlink="http://www.w3.org/1999/xlink" xml:space="preserve" onload="init(evt)">
<style type="text/css"><![CDATA[
.node, .edge {opacity: 0.7;}
.node.selected, .edge.selected {opacity: 1;}
.edge:hover path { stroke: red; }
.edge:hover polygon { stroke: red; fill: red; }
]]></style>

<defs>
  <circle id="rim" cx="0" cy="0" r="7"/>
  <circle id="rim2" cx="0" cy="0" r="3.5"/>
  <g id="zoomPlus">
    <use xlink:href="#rim" fill="#404040"><set attributeName="fill" to="#808080" begin="zoomplus.mouseover" end="zoomplus.mouseout"/></use>
    <path d="M-4,0h8M0,-4v8" fill="none" stroke="white" stroke-width="1.5" pointer-events="none"/>
  </g>
  <g id="zoomMin">
    <use xlink:href="#rim" fill="#404040"><set attributeName="fill" to="#808080" begin="zoomminus.mouseover" end="zoomminus.mouseout"/></use>
    <path d="M-4,0h8" fill="none" stroke="white" stroke-width="1.5" pointer-events="none"/>
  </g>
  <g id="arrowUp" transform="translate(30 24)">
    <use xlink:href="#rim"/>
    <path pointer-events="none" fill="none" stroke="white" stroke-width="1.5" d="M0,-3.0v7 M-2.5,-0.5L0,-3.0L2.5,-0.5"/>
  </g>
  <g id="arrowRight" transform="rotate(90) translate(36 -43)">
    <use xlink:href="#rim"/>
    <path pointer-events="none" fill="none" stroke="white" stroke-width="1.5" d="M0,-3.0v7 M-2.5,-0.5L0,-3.0L2.5,-0.5"/>
  </g>
  <g id="arrowDown" transform="rotate(180) translate(-30 -48)">
    <use xlink:href="#rim"/>
    <path pointer-events="none" fill="none" stroke="white" stroke-width="1.5" d="M0,-3.0v7 M-2.5,-0.5L0,-3.0L2.5,-0.5"/>
  </g>
  <g id="arrowLeft" transform="rotate(270) translate(-36 17)">
    <use xlink:href="#rim"/>
    <path pointer-events="none" fill="none" stroke="white" stroke-width="1.5" d="M0,-3.0v7 M-2.5,-0.5L0,-3.0L2.5,-0.5"/>
  </g>
  <g id="resetDef">
    <use xlink:href="#rim2" fill="#404040"><set attributeName="fill" to="#808080" begin="reset.mouseover" end="reset.mouseout"/></use>
  </g>
</defs>
<script type="application/ecmascript">
var viewWidth = 1619;
var viewHeight = 252;
var sectionId = 'dynsection-0';
</script>
<script type="application/ecmascript" xlink:href="../../svg.min.js"/>
<svg id="graph" class="graph">
<g id="viewport">
<title>curve/cwidget.c</title>
<!-- Node1 -->
<g id="Node000001" class="node">
<title>Node1</title>
<g id="a_Node000001"><a xlink:title="Initialization of the curve widget.">
<polygon fill="#999999" stroke="#666666" points="662.62,-244 577.62,-244 577.62,-224 662.62,-224 662.62,-244"/>
<text text-anchor="middle" x="620.12" y="-230.5" font-family="Helvetica,sans-Serif" font-size="10.00">curve/cwidget.c</text>
</a>
</g>
</g>
<!-- Node2 -->
<g id="Node000002" class="node">
<title>Node2</title>
<g id="a_Node000002"><a xlink:title=" ">
<polygon fill="#e0e0e0" stroke="#999999" points="54.25,-76 0,-76 0,-56 54.25,-56 54.25,-76"/>
<text text-anchor="middle" x="27.12" y="-62.5" font-family="Helvetica,sans-Serif" font-size="10.00">gtk/gtk.h</text>
</a>
</g>
</g>
<!-- Node1&#45;&gt;Node2 -->
<g id="edge1_Node000001_Node000002" class="edge">
<title>Node1&#45;&gt;Node2</title>
<g id="a_edge1_Node000001_Node000002"><a xlink:title=" ">
<path fill="none" stroke="#63b8ff" d="M577.21,-224.2C536.77,-215.7 474.56,-202.07 421.12,-188 289.37,-153.31 135.65,-103.29 65.53,-79.93"/>
<polygon fill="#63b8ff" stroke="#63b8ff" points="66.64,-76.61 56.04,-76.76 64.42,-83.25 66.64,-76.61"/>
</a>
</g>
</g>
<!-- Node3 -->
<g id="Node000003" class="node">
<title>Node3</title>
<g id="a_Node000003"><a xlink:title=" ">
<polygon fill="#e0e0e0" stroke="#999999" points="119.88,-76 72.38,-76 72.38,-56 119.88,-56 119.88,-76"/>
<text text-anchor="middle" x="96.12" y="-62.5" font-family="Helvetica,sans-Serif" font-size="10.00">stdlib.h</text>
</a>
</g>
</g>
<!-- Node1&#45;&gt;Node3 -->
<g id="edge2_Node000001_Node000003" class="edge">
<title>Node1&#45;&gt;Node3</title>
<g id="a_edge2_Node000001_Node000003"><a xlink:title=" ">
<path fill="none" stroke="#63b8ff" d="M590.45,-223.6C500.06,-194.96 228.36,-108.89 131.17,-78.1"/>
<polygon fill="#63b8ff" stroke="#63b8ff" points="132.24,-74.77 121.65,-75.09 130.13,-81.44 132.24,-74.77"/>
</a>
</g>
</g>
<!-- Node4 -->
<g id="Node000004" class="node">
<title>Node4</title>
<g id="a_Node000004"><a xlink:href="../../d2/d49/global_8h.html" target="_top" xlink:title="Global variable declarations &#160;&#160;Global convenience function declarations &#160;&#160;Global data structure defin...">
<polygon fill="white" stroke="#666666" points="773,-132 723.25,-132 723.25,-112 773,-112 773,-132"/>
<text text-anchor="middle" x="748.12" y="-118.5" font-family="Helvetica,sans-Serif" font-size="10.00">global.h</text>
</a>
</g>
</g>
<!-- Node1&#45;&gt;Node4 -->
<g id="edge3_Node000001_Node000004" class="edge">
<title>Node1&#45;&gt;Node4</title>
<g id="a_edge3_Node000001_Node000004"><a xlink:title=" ">
<path fill="none" stroke="#63b8ff" d="M630.03,-223.51C643.56,-210.63 668.72,-187.06 691.12,-168 702.71,-158.14 716.04,-147.58 726.89,-139.17"/>
<polygon fill="#63b8ff" stroke="#63b8ff" points="728.7,-142.2 734.49,-133.32 724.43,-136.65 728.7,-142.2"/>
</a>
</g>
</g>
<!-- Node25 -->
<g id="Node000025" class="node">
<title>Node25</title>
<g id="a_Node000025"><a xlink:href="../../d4/da9/interface_8h.html" target="_top" xlink:title="Messaging function declarations.">
<polygon fill="white" stroke="#666666" points="762,-188 700.25,-188 700.25,-168 762,-168 762,-188"/>
<text text-anchor="middle" x="731.12" y="-174.5" font-family="Helvetica,sans-Serif" font-size="10.00">interface.h</text>
</a>
</g>
</g>
<!-- Node1&#45;&gt;Node25 -->
<g id="edge28_Node000001_Node000025" class="edge">
<title>Node1&#45;&gt;Node25</title>
<g id="a_edge28_Node000001_Node000025"><a xlink:title=" ">
<path fill="none" stroke="#63b8ff" d="M639.46,-223.59C656.54,-215.28 681.73,-203.03 701.38,-193.47"/>
<polygon fill="#63b8ff" stroke="#63b8ff" points="702.82,-196.66 710.28,-189.14 699.75,-190.37 702.82,-196.66"/>
</a>
</g>
</g>
<!-- Node26 -->
<g id="Node000026" class="node">
<title>Node26</title>
<g id="a_Node000026"><a xlink:href="../../df/de9/curve_8h.html" target="_top" xlink:title="Variable declarations for the curve widget &#160;&#160;Functions for interactions with the curve widget.">
<polygon fill="white" stroke="#666666" points="644.25,-188 596,-188 596,-168 644.25,-168 644.25,-188"/>
<text text-anchor="middle" x="620.12" y="-174.5" font-family="Helvetica,sans-Serif" font-size="10.00">curve.h</text>
</a>
</g>
</g>
<!-- Node1&#45;&gt;Node26 -->
<g id="edge29_Node000001_Node000026" class="edge">
<title>Node1&#45;&gt;Node26</title>
<g id="a_edge29_Node000001_Node000026"><a xlink:title=" ">
<path fill="none" stroke="#63b8ff" d="M620.12,-223.59C620.12,-217.01 620.12,-207.96 620.12,-199.73"/>
<polygon fill="#63b8ff" stroke="#63b8ff" points="623.63,-199.81 620.13,-189.81 616.63,-199.81 623.63,-199.81"/>
</a>
</g>
</g>
<!-- Node4&#45;&gt;Node2 -->
<g id="edge14_Node000004_Node000002" class="edge">
<title>Node4&#45;&gt;Node2</title>
<g id="a_edge14_Node000004_Node000002"><a xlink:title=" ">
<path fill="none" stroke="#63b8ff" d="M722.75,-120.97C633.72,-120.52 327.19,-116.08 65.77,-76.14"/>
<polygon fill="#63b8ff" stroke="#63b8ff" points="66.45,-72.7 56.03,-74.62 65.38,-79.62 66.45,-72.7"/>
</a>
</g>
</g>
<!-- Node4&#45;&gt;Node3 -->
<g id="edge10_Node000004_Node000003" class="edge">
<title>Node4&#45;&gt;Node3</title>
<g id="a_edge10_Node000004_Node000003"><a xlink:title=" ">
<path fill="none" stroke="#63b8ff" d="M722.81,-120.59C638.66,-118.91 360.72,-110.91 134.12,-76 133.13,-75.85 132.12,-75.68 131.1,-75.5"/>
<polygon fill="#63b8ff" stroke="#63b8ff" points="132.11,-72.14 121.62,-73.6 130.73,-79 132.11,-72.14"/>
</a>
</g>
</g>
<!-- Node5 -->
<g id="Node000005" class="node">
<title>Node5</title>
<g id="a_Node000005"><a xlink:title=" ">
<polygon fill="#e0e0e0" stroke="#999999" points="1245.75,-76 1206.5,-76 1206.5,-56 1245.75,-56 1245.75,-76"/>
<text text-anchor="middle" x="1226.12" y="-62.5" font-family="Helvetica,sans-Serif" font-size="10.00">glib.h</text>
</a>
</g>
</g>
<!-- Node4&#45;&gt;Node5 -->
<g id="edge4_Node000004_Node000005" class="edge">
<title>Node4&#45;&gt;Node5</title>
<g id="a_edge4_Node000004_Node000005"><a xlink:title=" ">
<path fill="none" stroke="#63b8ff" d="M773.35,-119.84C841.42,-116.41 1034.33,-104.7 1192.12,-76 1193.12,-75.82 1194.14,-75.62 1195.16,-75.41"/>
<polygon fill="#63b8ff" stroke="#63b8ff" points="1195.69,-78.88 1204.63,-73.2 1194.1,-72.07 1195.69,-78.88"/>
</a>
</g>
</g>
<!-- Node6 -->
<g id="Node000006" class="node">
<title>Node6</title>
<g id="a_Node000006"><a xlink:title=" ">
<polygon fill="#e0e0e0" stroke="#999999" points="1328.88,-76 1263.38,-76 1263.38,-56 1328.88,-56 1328.88,-76"/>
<text text-anchor="middle" x="1296.12" y="-62.5" font-family="Helvetica,sans-Serif" font-size="10.00">glib/gi18n.h</text>
</a>
</g>
</g>
<!-- Node4&#45;&gt;Node6 -->
<g id="edge5_Node000004_Node000006" class="edge">
<title>Node4&#45;&gt;Node6</title>
<g id="a_edge5_Node000004_Node000006"><a xlink:title=" ">
<path fill="none" stroke="#63b8ff" d="M773.32,-119.9C846.06,-116.5 1062.79,-104.66 1251.81,-76.35"/>
<polygon fill="#63b8ff" stroke="#63b8ff" points="1252.22,-79.82 1261.58,-74.86 1251.17,-72.9 1252.22,-79.82"/>
</a>
</g>
</g>
<!-- Node7 -->
<g id="Node000007" class="node">
<title>Node7</title>
<g id="a_Node000007"><a xlink:title=" ">
<polygon fill="#e0e0e0" stroke="#999999" points="1397,-76 1347.25,-76 1347.25,-56 1397,-56 1397,-76"/>
<text text-anchor="middle" x="1372.12" y="-62.5" font-family="Helvetica,sans-Serif" font-size="10.00">locale.h</text>
</a>
</g>
</g>
<!-- Node4&#45;&gt;Node7 -->
<g id="edge6_Node000004_Node000007" class="edge">
<title>Node4&#45;&gt;Node7</title>
<g id="a_edge6_Node000004_Node000007"><a xlink:title=" ">
<path fill="none" stroke="#63b8ff" d="M773.34,-120.72C853.97,-119.47 1112.82,-112.82 1335.73,-76.09"/>
<polygon fill="#63b8ff" stroke="#63b8ff" points="1336.21,-79.56 1345.49,-74.45 1335.05,-72.65 1336.21,-79.56"/>
</a>
</g>
</g>
<!-- Node8 -->
<g id="Node000008" class="node">
<title>Node8</title>
<g id="a_Node000008"><a xlink:title=" ">
<polygon fill="#e0e0e0" stroke="#999999" points="1465.38,-76 1414.88,-76 1414.88,-56 1465.38,-56 1465.38,-76"/>
<text text-anchor="middle" x="1440.12" y="-62.5" font-family="Helvetica,sans-Serif" font-size="10.00">unistd.h</text>
</a>
</g>
</g>
<!-- Node4&#45;&gt;Node8 -->
<g id="edge7_Node000004_Node000008" class="edge">
<title>Node4&#45;&gt;Node8</title>
<g id="a_edge7_Node000004_Node000008"><a xlink:title=" ">
<path fill="none" stroke="#63b8ff" d="M773.43,-121C860.14,-120.62 1153.34,-116.39 1403.49,-76.13"/>
<polygon fill="#63b8ff" stroke="#63b8ff" points="1403.82,-79.62 1413.12,-74.55 1402.69,-72.71 1403.82,-79.62"/>
</a>
</g>
</g>
<!-- Node9 -->
<g id="Node000009" class="node">
<title>Node9</title>
<g id="a_Node000009"><a xlink:title=" ">
<polygon fill="#e0e0e0" stroke="#999999" points="1531.25,-76 1483,-76 1483,-56 1531.25,-56 1531.25,-76"/>
<text text-anchor="middle" x="1507.12" y="-62.5" font-family="Helvetica,sans-Serif" font-size="10.00">string.h</text>
</a>
</g>
</g>
<!-- Node4&#45;&gt;Node9 -->
<g id="edge8_Node000004_Node000009" class="edge">
<title>Node4&#45;&gt;Node9</title>
<g id="a_edge8_Node000004_Node000009"><a xlink:title=" ">
<path fill="none" stroke="#63b8ff" d="M773.41,-121.29C865.79,-121.97 1193.72,-120.99 1471.63,-76.07"/>
<polygon fill="#63b8ff" stroke="#63b8ff" points="1471.95,-79.57 1481.25,-74.49 1470.81,-72.66 1471.95,-79.57"/>
</a>
</g>
</g>
<!-- Node10 -->
<g id="Node000010" class="node">
<title>Node10</title>
<g id="a_Node000010"><a xlink:title=" ">
<polygon fill="#e0e0e0" stroke="#999999" points="732.75,-20 687.5,-20 687.5,0 732.75,0 732.75,-20"/>
<text text-anchor="middle" x="710.12" y="-6.5" font-family="Helvetica,sans-Serif" font-size="10.00">stdio.h</text>
</a>
</g>
</g>
<!-- Node4&#45;&gt;Node10 -->
<g id="edge9_Node000004_Node000010" class="edge">
<title>Node4&#45;&gt;Node10</title>
<g id="a_edge9_Node000004_Node000010"><a xlink:title=" ">
<path fill="none" stroke="#63b8ff" d="M773.39,-121C870.59,-120.58 1212.44,-114.93 1159.12,-56 1131.41,-25.37 844.56,-14.66 744.4,-11.84"/>
<polygon fill="#63b8ff" stroke="#63b8ff" points="744.75,-8.35 734.66,-11.58 744.56,-15.35 744.75,-8.35"/>
</a>
</g>
</g>
<!-- Node11 -->
<g id="Node000011" class="node">
<title>Node11</title>
<g id="a_Node000011"><a xlink:title=" ">
<polygon fill="#e0e0e0" stroke="#999999" points="322.62,-76 255.62,-76 255.62,-56 322.62,-56 322.62,-76"/>
<text text-anchor="middle" x="289.12" y="-62.5" font-family="Helvetica,sans-Serif" font-size="10.00">sys/types.h</text>
</a>
</g>
</g>
<!-- Node4&#45;&gt;Node11 -->
<g id="edge11_Node000004_Node000011" class="edge">
<title>Node4&#45;&gt;Node11</title>
<g id="a_edge11_Node000004_Node000011"><a xlink:title=" ">
<path fill="none" stroke="#63b8ff" d="M723.09,-119.21C659.64,-114.48 487.21,-100.42 333.99,-76.32"/>
<polygon fill="#63b8ff" stroke="#63b8ff" points="334.92,-72.93 324.49,-74.81 333.81,-79.84 334.92,-72.93"/>
</a>
</g>
</g>
<!-- Node12 -->
<g id="Node000012" class="node">
<title>Node12</title>
<g id="a_Node000012"><a xlink:title=" ">
<polygon fill="#e0e0e0" stroke="#999999" points="399.88,-76 340.38,-76 340.38,-56 399.88,-56 399.88,-76"/>
<text text-anchor="middle" x="370.12" y="-62.5" font-family="Helvetica,sans-Serif" font-size="10.00">sys/stat.h</text>
</a>
</g>
</g>
<!-- Node4&#45;&gt;Node12 -->
<g id="edge12_Node000004_Node000012" class="edge">
<title>Node4&#45;&gt;Node12</title>
<g id="a_edge12_Node000004_Node000012"><a xlink:title=" ">
<path fill="none" stroke="#63b8ff" d="M722.91,-118.48C668.1,-112.83 533.84,-98.03 411.36,-76.25"/>
<polygon fill="#63b8ff" stroke="#63b8ff" points="412.25,-72.86 401.79,-74.53 411.01,-79.75 412.25,-72.86"/>
</a>
</g>
</g>
<!-- Node13 -->
<g id="Node000013" class="node">
<title>Node13</title>
<g id="a_Node000013"><a xlink:title=" ">
<polygon fill="#e0e0e0" stroke="#999999" points="201.12,-20 155.12,-20 155.12,0 201.12,0 201.12,-20"/>
<text text-anchor="middle" x="178.12" y="-6.5" font-family="Helvetica,sans-Serif" font-size="10.00">math.h</text>
</a>
</g>
</g>
<!-- Node4&#45;&gt;Node13 -->
<g id="edge13_Node000004_Node000013" class="edge">
<title>Node4&#45;&gt;Node13</title>
<g id="a_edge13_Node000004_Node000013"><a xlink:title=" ">
<path fill="none" stroke="#63b8ff" d="M722.85,-121.01C616.02,-120.8 205.35,-117.3 167.12,-76 155.85,-63.82 160.88,-44.58 167.36,-30.18"/>
<polygon fill="#63b8ff" stroke="#63b8ff" points="170.28,-32.17 171.67,-21.67 164.03,-29.01 170.28,-32.17"/>
</a>
</g>
</g>
<!-- Node14 -->
<g id="Node000014" class="node">
<title>Node14</title>
<g id="a_Node000014"><a xlink:title=" ">
<polygon fill="#e0e0e0" stroke="#999999" points="477.88,-76 418.38,-76 418.38,-56 477.88,-56 477.88,-76"/>
<text text-anchor="middle" x="448.12" y="-62.5" font-family="Helvetica,sans-Serif" font-size="10.00">gtk/gtkx.h</text>
</a>
</g>
</g>
<!-- Node4&#45;&gt;Node14 -->
<g id="edge15_Node000004_Node000014" class="edge">
<title>Node4&#45;&gt;Node14</title>
<g id="a_edge15_Node000004_Node000014"><a xlink:title=" ">
<path fill="none" stroke="#63b8ff" d="M722.84,-117.12C677.96,-110.14 581.17,-94.62 489.48,-76.38"/>
<polygon fill="#63b8ff" stroke="#63b8ff" points="490.3,-72.98 479.81,-74.44 488.92,-79.84 490.3,-72.98"/>
</a>
</g>
</g>
<!-- Node15 -->
<g id="Node000015" class="node">
<title>Node15</title>
<g id="a_Node000015"><a xlink:title=" ">
<polygon fill="#e0e0e0" stroke="#999999" points="554.5,-76 495.75,-76 495.75,-56 554.5,-56 554.5,-76"/>
<text text-anchor="middle" x="525.12" y="-62.5" font-family="Helvetica,sans-Serif" font-size="10.00">gdk/gdk.h</text>
</a>
</g>
</g>
<!-- Node4&#45;&gt;Node15 -->
<g id="edge16_Node000004_Node000015" class="edge">
<title>Node4&#45;&gt;Node15</title>
<g id="a_edge16_Node000004_Node000015"><a xlink:title=" ">
<path fill="none" stroke="#63b8ff" d="M722.98,-114.91C684.75,-105.65 611.65,-87.95 565.8,-76.85"/>
<polygon fill="#63b8ff" stroke="#63b8ff" points="566.78,-73.49 556.24,-74.53 565.14,-80.29 566.78,-73.49"/>
</a>
</g>
</g>
<!-- Node16 -->
<g id="Node000016" class="node">
<title>Node16</title>
<g id="a_Node000016"><a xlink:title=" ">
<polygon fill="#e0e0e0" stroke="#999999" points="671.38,-76 572.88,-76 572.88,-56 671.38,-56 671.38,-76"/>
<text text-anchor="middle" x="622.12" y="-62.5" font-family="Helvetica,sans-Serif" font-size="10.00">gdk/gdkkeysyms.h</text>
</a>
</g>
</g>
<!-- Node4&#45;&gt;Node16 -->
<g id="edge17_Node000004_Node000016" class="edge">
<title>Node4&#45;&gt;Node16</title>
<g id="a_edge17_Node000004_Node000016"><a xlink:title=" ">
<path fill="none" stroke="#63b8ff" d="M726.18,-111.59C706.42,-103.13 677.13,-90.58 654.66,-80.94"/>
<polygon fill="#63b8ff" stroke="#63b8ff" points="656.21,-77.8 645.63,-77.08 653.45,-84.23 656.21,-77.8"/>
</a>
</g>
</g>
<!-- Node17 -->
<g id="Node000017" class="node">
<title>Node17</title>
<g id="a_Node000017"><a xlink:title=" ">
<polygon fill="#e0e0e0" stroke="#999999" points="806.75,-76 689.5,-76 689.5,-56 806.75,-56 806.75,-76"/>
<text text-anchor="middle" x="748.12" y="-62.5" font-family="Helvetica,sans-Serif" font-size="10.00">gdk&#45;pixbuf/gdk&#45;pixbuf.h</text>
</a>
</g>
</g>
<!-- Node4&#45;&gt;Node17 -->
<g id="edge18_Node000004_Node000017" class="edge">
<title>Node4&#45;&gt;Node17</title>
<g id="a_edge18_Node000004_Node000017"><a xlink:title=" ">
<path fill="none" stroke="#63b8ff" d="M748.12,-111.59C748.12,-105.01 748.12,-95.96 748.12,-87.73"/>
<polygon fill="#63b8ff" stroke="#63b8ff" points="751.63,-87.81 748.13,-77.81 744.63,-87.81 751.63,-87.81"/>
</a>
</g>
</g>
<!-- Node18 -->
<g id="Node000018" class="node">
<title>Node18</title>
<g id="a_Node000018"><a xlink:title=" ">
<polygon fill="#e0e0e0" stroke="#999999" points="915.62,-76 824.62,-76 824.62,-56 915.62,-56 915.62,-76"/>
<text text-anchor="middle" x="870.12" y="-62.5" font-family="Helvetica,sans-Serif" font-size="10.00">pango/pangoft2.h</text>
</a>
</g>
</g>
<!-- Node4&#45;&gt;Node18 -->
<g id="edge19_Node000004_Node000018" class="edge">
<title>Node4&#45;&gt;Node18</title>
<g id="a_edge19_Node000004_Node000018"><a xlink:title=" ">
<path fill="none" stroke="#63b8ff" d="M769.38,-111.59C788.41,-103.17 816.6,-90.69 838.33,-81.07"/>
<polygon fill="#63b8ff" stroke="#63b8ff" points="839.6,-84.34 847.32,-77.09 836.76,-77.94 839.6,-84.34"/>
</a>
</g>
</g>
<!-- Node19 -->
<g id="Node000019" class="node">
<title>Node19</title>
<g id="a_Node000019"><a xlink:title=" ">
<polygon fill="#e0e0e0" stroke="#999999" points="994.62,-76 933.62,-76 933.62,-56 994.62,-56 994.62,-76"/>
<text text-anchor="middle" x="964.12" y="-62.5" font-family="Helvetica,sans-Serif" font-size="10.00">epoxy/gl.h</text>
</a>
</g>
</g>
<!-- Node4&#45;&gt;Node19 -->
<g id="edge20_Node000004_Node000019" class="edge">
<title>Node4&#45;&gt;Node19</title>
<g id="a_edge20_Node000004_Node000019"><a xlink:title=" ">
<path fill="none" stroke="#63b8ff" d="M773.33,-114.7C809.87,-105.56 878.04,-88.52 922.22,-77.48"/>
<polygon fill="#63b8ff" stroke="#63b8ff" points="922.86,-80.93 931.71,-75.1 921.16,-74.13 922.86,-80.93"/>
</a>
</g>
</g>
<!-- Node20 -->
<g id="Node000020" class="node">
<title>Node20</title>
<g id="a_Node000020"><a xlink:title=" ">
<polygon fill="#e0e0e0" stroke="#999999" points="1065.5,-76 1012.75,-76 1012.75,-56 1065.5,-56 1065.5,-76"/>
<text text-anchor="middle" x="1039.12" y="-62.5" font-family="Helvetica,sans-Serif" font-size="10.00">GL/glu.h</text>
</a>
</g>
</g>
<!-- Node4&#45;&gt;Node20 -->
<g id="edge21_Node000004_Node000020" class="edge">
<title>Node4&#45;&gt;Node20</title>
<g id="a_edge21_Node000004_Node000020"><a xlink:title=" ">
<path fill="none" stroke="#63b8ff" d="M773.32,-117.24C817.53,-110.49 912.12,-95.43 1001.3,-76.48"/>
<polygon fill="#63b8ff" stroke="#63b8ff" points="1001.9,-79.93 1010.94,-74.41 1000.43,-73.09 1001.9,-79.93"/>
</a>
</g>
</g>
<!-- Node21 -->
<g id="Node000021" class="node">
<title>Node21</title>
<g id="a_Node000021"><a xlink:title=" ">
<polygon fill="#e0e0e0" stroke="#999999" points="1150.25,-76 1084,-76 1084,-56 1150.25,-56 1150.25,-76"/>
<text text-anchor="middle" x="1117.12" y="-62.5" font-family="Helvetica,sans-Serif" font-size="10.00">epoxy/glx.h</text>
</a>
</g>
</g>
<!-- Node4&#45;&gt;Node21 -->
<g id="edge22_Node000004_Node000021" class="edge">
<title>Node4&#45;&gt;Node21</title>
<g id="a_edge22_Node000004_Node000021"><a xlink:title=" ">
<path fill="none" stroke="#63b8ff" d="M773.16,-118.14C826.27,-111.96 954.31,-96.36 1072.77,-76.12"/>
<polygon fill="#63b8ff" stroke="#63b8ff" points="1073.08,-79.61 1082.34,-74.46 1071.89,-72.71 1073.08,-79.61"/>
</a>
</g>
</g>
<!-- Node22 -->
<g id="Node000022" class="node">
<title>Node22</title>
<g id="a_Node000022"><a xlink:href="../../dc/db0/math__3d_8h.html" target="_top" xlink:title="Functions for OpenGL math.">
<polygon fill="white" stroke="#666666" points="238,-76 176.25,-76 176.25,-56 238,-56 238,-76"/>
<text text-anchor="middle" x="207.12" y="-62.5" font-family="Helvetica,sans-Serif" font-size="10.00">math_3d.h</text>
</a>
</g>
</g>
<!-- Node4&#45;&gt;Node22 -->
<g id="edge23_Node000004_Node000022" class="edge">
<title>Node4&#45;&gt;Node22</title>
<g id="a_edge23_Node000004_Node000022"><a xlink:title=" ">
<path fill="none" stroke="#63b8ff" d="M722.9,-119.97C650.58,-116.74 436.19,-105.39 249.27,-76.32"/>
<polygon fill="#63b8ff" stroke="#63b8ff" points="250.05,-72.9 239.62,-74.8 248.96,-79.81 250.05,-72.9"/>
</a>
</g>
</g>
<!-- Node23 -->
<g id="Node000023" class="node">
<title>Node23</title>
<g id="a_Node000023"><a xlink:href="../../da/d7e/glwin_8h.html" target="_top" xlink:title="Variable declarations related the OpenGL window &#160;&#160;Data structure declarations related the OpenGL wind...">
<polygon fill="white" stroke="#666666" points="1596.5,-76 1549.75,-76 1549.75,-56 1596.5,-56 1596.5,-76"/>
<text text-anchor="middle" x="1573.12" y="-62.5" font-family="Helvetica,sans-Serif" font-size="10.00">glwin.h</text>
</a>
</g>
</g>
<!-- Node4&#45;&gt;Node23 -->
<g id="edge26_Node000004_Node000023" class="edge">
<title>Node4&#45;&gt;Node23</title>
<g id="a_edge26_Node000004_Node000023"><a xlink:title=" ">
<path fill="none" stroke="#63b8ff" d="M773.3,-121.48C870.74,-122.92 1232.44,-124.62 1538.15,-75.92"/>
<polygon fill="#63b8ff" stroke="#63b8ff" points="1538.66,-79.38 1547.97,-74.33 1537.54,-72.47 1538.66,-79.38"/>
</a>
</g>
</g>
<!-- Node22&#45;&gt;Node10 -->
<g id="edge25_Node000022_Node000010" class="edge">
<title>Node22&#45;&gt;Node10</title>
<g id="a_edge25_Node000022_Node000010"><a xlink:title=" ">
<path fill="none" stroke="#63b8ff" d="M238.13,-57.46C240.83,-56.92 243.52,-56.43 246.12,-56 405.73,-29.96 598.85,-17.15 675.94,-12.79"/>
<polygon fill="#63b8ff" stroke="#63b8ff" points="675.99,-16.29 685.79,-12.24 675.61,-9.3 675.99,-16.29"/>
</a>
</g>
</g>
<!-- Node22&#45;&gt;Node13 -->
<g id="edge24_Node000022_Node000013" class="edge">
<title>Node22&#45;&gt;Node13</title>
<g id="a_edge24_Node000022_Node000013"><a xlink:title=" ">
<path fill="none" stroke="#63b8ff" d="M202.07,-55.59C198.33,-48.63 193.1,-38.89 188.48,-30.29"/>
<polygon fill="#63b8ff" stroke="#63b8ff" points="191.65,-28.79 183.83,-21.63 185.48,-32.1 191.65,-28.79"/>
</a>
</g>
</g>
<!-- Node24 -->
<g id="Node000024" class="node">
<title>Node24</title>
<g id="a_Node000024"><a xlink:href="../../d5/d9e/ogl__shading_8h.html" target="_top" xlink:title="Variable declarations related to GLSL programs &#160;&#160;Data structure declarations related to GLSL programs...">
<polygon fill="white" stroke="#666666" points="1611.12,-20 1535.12,-20 1535.12,0 1611.12,0 1611.12,-20"/>
<text text-anchor="middle" x="1573.12" y="-6.5" font-family="Helvetica,sans-Serif" font-size="10.00">ogl_shading.h</text>
</a>
</g>
</g>
<!-- Node23&#45;&gt;Node24 -->
<g id="edge27_Node000023_Node000024" class="edge">
<title>Node23&#45;&gt;Node24</title>
<g id="a_edge27_Node000023_Node000024"><a xlink:title=" ">
<path fill="none" stroke="#63b8ff" d="M1573.12,-55.59C1573.12,-49.01 1573.12,-39.96 1573.12,-31.73"/>
<polygon fill="#63b8ff" stroke="#63b8ff" points="1576.63,-31.81 1573.13,-21.81 1569.63,-31.81 1576.63,-31.81"/>
</a>
</g>
</g>
<!-- Node26&#45;&gt;Node4 -->
<g id="edge30_Node000026_Node000004" class="edge">
<title>Node26&#45;&gt;Node4</title>
<g id="a_edge30_Node000026_Node000004"><a xlink:title=" ">
<path fill="none" stroke="#63b8ff" d="M642.42,-167.59C662.49,-159.13 692.24,-146.58 715.08,-136.94"/>
<polygon fill="#63b8ff" stroke="#63b8ff" points="716.41,-140.18 724.26,-133.07 713.69,-133.73 716.41,-140.18"/>
</a>
</g>
</g>
</g>
</svg>

<g id="navigator" transform="translate(0 0)" fill="#404254">
  <rect fill="#f2f5e9" fill-opacity="0.5" stroke="#606060" stroke-width=".5" x="0" y="0" width="60" height="60"/>
  <use id="zoomplus" xlink:href="#zoomPlus" x="17" y="9" onmousedown="handleZoom(evt,'in')"/>
  <use id="zoomminus" xlink:href="#zoomMin" x="42" y="9" onmousedown="handleZoom(evt,'out')"/>
  <use id="reset" xlink:href="#resetDef" x="30" y="36" onmousedown="handleReset()"/>
   <use id="arrowup" xlink:href="#arrowUp" x="0" y="0" onmousedown="handlePan(0,-1)"/>
  <use id="arrowright" xlink:href="#arrowRight" x="0" y="0" onmousedown="handlePan(1,0)"/>
  <use id="arrowdown" xlink:href="#arrowDown" x="0" y="0" onmousedown="handlePan(0,1)"/>
  <use id="arrowleft" xlink:href="#arrowLeft" x="0" y="0" onmousedown="handlePan(-1,0)"/>
</g>
<svg viewBox="0 0 15 15" width="100%" height="30px" preserveAspectRatio="xMaxYMin meet">
 <g id="arrow_out" transform="scale(0.3 0.3)">
  <a xlink:href="cwidget_8c__incl_org.svg" target="_base">
   <rect id="button" ry="5" rx="5" y="6" x="6" height="38" width="38"
        fill="#f2f5e9" fill-opacity="0.5" stroke="#606060" stroke-width="1.0"/>
   <path id="arrow"
     d="M 11.500037,31.436501 C 11.940474,20.09759 22.043105,11.32322 32.158766,21.979434 L 37.068811,17.246167 C 37.068811,17.246167 37.088388,32 37.088388,32 L 22.160133,31.978069 C 22.160133,31.978069 26.997745,27.140456 26.997745,27.140456 C 18.528582,18.264221 13.291696,25.230495 11.500037,31.436501 z"
     style="fill:#404040;"/>
  </a>
 </g>
</svg>

<style type='text/css'>
<![CDATA[
[data-mouse-over-selected='false'] { opacity: 0.7; }
[data-mouse-over-selected='true']  { opacity: 1.0; }
]]>
</style>
<script type="application/ecmascript"><![CDATA[
document.addEventListener('DOMContentLoaded', (event) => {
  highlightEdges();
  highlightAdjacentNodes();
});
]]></script>
</svg>
