<?xml version="1.0" encoding="UTF-8" standalone="no"?>
<!DOCTYPE svg PUBLIC "-//W3C//DTD SVG 1.1//EN"
 "http://www.w3.org/Graphics/SVG/1.1/DTD/svg11.dtd">
<!-- Generated by graphviz version 9.0.0 (20230911.1827)
 -->
<!-- Title: image Pages: 1 -->
<!--zoomable 292 -->

<svg id="main" version="1.1" xmlns="http://www.w3.org/2000/svg" xmlns:xlink="http://www.w3.org/1999/xlink" xml:space="preserve" onload="init(evt)">
<style type="text/css"><![CDATA[
.node, .edge {opacity: 0.7;}
.node.selected, .edge.selected {opacity: 1;}
.edge:hover path { stroke: red; }
.edge:hover polygon { stroke: red; fill: red; }
]]></style>

<defs>
  <circle id="rim" cx="0" cy="0" r="7"/>
  <circle id="rim2" cx="0" cy="0" r="3.5"/>
  <g id="zoomPlus">
    <use xlink:href="#rim" fill="#404040"><set attributeName="fill" to="#808080" begin="zoomplus.mouseover" end="zoomplus.mouseout"/></use>
    <path d="M-4,0h8M0,-4v8" fill="none" stroke="white" stroke-width="1.5" pointer-events="none"/>
  </g>
  <g id="zoomMin">
    <use xlink:href="#rim" fill="#404040"><set attributeName="fill" to="#808080" begin="zoomminus.mouseover" end="zoomminus.mouseout"/></use>
    <path d="M-4,0h8" fill="none" stroke="white" stroke-width="1.5" pointer-events="none"/>
  </g>
  <g id="arrowUp" transform="translate(30 24)">
    <use xlink:href="#rim"/>
    <path pointer-events="none" fill="none" stroke="white" stroke-width="1.5" d="M0,-3.0v7 M-2.5,-0.5L0,-3.0L2.5,-0.5"/>
  </g>
  <g id="arrowRight" transform="rotate(90) translate(36 -43)">
    <use xlink:href="#rim"/>
    <path pointer-events="none" fill="none" stroke="white" stroke-width="1.5" d="M0,-3.0v7 M-2.5,-0.5L0,-3.0L2.5,-0.5"/>
  </g>
  <g id="arrowDown" transform="rotate(180) translate(-30 -48)">
    <use xlink:href="#rim"/>
    <path pointer-events="none" fill="none" stroke="white" stroke-width="1.5" d="M0,-3.0v7 M-2.5,-0.5L0,-3.0L2.5,-0.5"/>
  </g>
  <g id="arrowLeft" transform="rotate(270) translate(-36 17)">
    <use xlink:href="#rim"/>
    <path pointer-events="none" fill="none" stroke="white" stroke-width="1.5" d="M0,-3.0v7 M-2.5,-0.5L0,-3.0L2.5,-0.5"/>
  </g>
  <g id="resetDef">
    <use xlink:href="#rim2" fill="#404040"><set attributeName="fill" to="#808080" begin="reset.mouseover" end="reset.mouseout"/></use>
  </g>
</defs>
<script type="application/ecmascript">
var viewWidth = 629;
var viewHeight = 292;
var sectionId = 'dynsection-0';
</script>
<script type="application/ecmascript" xlink:href="../../svg.min.js"/>
<svg id="graph" class="graph">
<g id="viewport">
<title>image</title>
<!-- Node1 -->
<g id="Node000001" class="node">
<title>Node1</title>
<g id="a_Node000001"><a xlink:title=" ">
<polygon fill="#999999" stroke="#666666" points="385.66,-20 343.41,-20 343.41,0 385.66,0 385.66,-20"/>
<text text-anchor="middle" x="364.54" y="-6.5" font-family="Helvetica,sans-Serif" font-size="10.00">image</text>
</a>
</g>
</g>
<!-- Node2 -->
<g id="Node000002" class="node">
<title>Node2</title>
<g id="a_Node000002"><a xlink:href="../../d1/d74/struct_col_r_g_b_a.html" target="_top" xlink:title=" ">
<polygon fill="white" stroke="#666666" points="144.29,-282 84.79,-282 84.79,-262 144.29,-262 144.29,-282"/>
<text text-anchor="middle" x="114.54" y="-268.5" font-family="Helvetica,sans-Serif" font-size="10.00">ColRGBA</text>
</a>
</g>
</g>
<!-- Node2&#45;&gt;Node1 -->
<g id="edge1_Node000001_Node000002" class="edge">
<title>Node2&#45;&gt;Node1</title>
<g id="a_edge1_Node000001_Node000002"><a xlink:title=" ">
<path fill="none" stroke="#9a32cd" stroke-dasharray="5,2" d="M92.06,-254.8C68.18,-236.06 31.83,-202.76 16.79,-164 1.36,-124.22 -10.56,-100.75 16.79,-68 58.75,-17.76 273.56,-11.68 342.92,-11.04"/>
<polygon fill="#9a32cd" stroke="#9a32cd" points="89.85,-257.52 99.93,-260.78 94.08,-251.94 89.85,-257.52"/>
</a>
</g>
<text text-anchor="middle" x="43.41" y="-154.5" font-family="Helvetica,sans-Serif" font-size="10.00" fill="grey"> at_color</text>
<text text-anchor="middle" x="43.41" y="-142.5" font-family="Helvetica,sans-Serif" font-size="10.00" fill="grey">axis_color</text>
<text text-anchor="middle" x="43.41" y="-130.5" font-family="Helvetica,sans-Serif" font-size="10.00" fill="grey">backcolor</text>
<text text-anchor="middle" x="43.41" y="-118.5" font-family="Helvetica,sans-Serif" font-size="10.00" fill="grey">box_color</text>
<text text-anchor="middle" x="43.41" y="-106.5" font-family="Helvetica,sans-Serif" font-size="10.00" fill="grey">fm_vol_col</text>
<text text-anchor="middle" x="43.41" y="-94.5" font-family="Helvetica,sans-Serif" font-size="10.00" fill="grey">labels_color</text>
<text text-anchor="middle" x="43.41" y="-82.5" font-family="Helvetica,sans-Serif" font-size="10.00" fill="grey">spcolor</text>
<text text-anchor="middle" x="43.41" y="-70.5" font-family="Helvetica,sans-Serif" font-size="10.00" fill="grey">vol_col</text>
</g>
<!-- Node3 -->
<g id="Node000003" class="node">
<title>Node3</title>
<g id="a_Node000003"><a xlink:href="../../d0/dc3/structscreen__string.html" target="_top" xlink:title=" ">
<polygon fill="white" stroke="#666666" points="151.79,-126 77.29,-126 77.29,-106 151.79,-106 151.79,-126"/>
<text text-anchor="middle" x="114.54" y="-112.5" font-family="Helvetica,sans-Serif" font-size="10.00">screen_string</text>
</a>
</g>
</g>
<!-- Node2&#45;&gt;Node3 -->
<g id="edge3_Node000003_Node000002" class="edge">
<title>Node2&#45;&gt;Node3</title>
<g id="a_edge3_Node000003_Node000002"><a xlink:title=" ">
<path fill="none" stroke="#9a32cd" stroke-dasharray="5,2" d="M114.54,-250.64C114.54,-216.91 114.54,-150.72 114.54,-126.32"/>
<polygon fill="#9a32cd" stroke="#9a32cd" points="111.04,-250.31 114.54,-260.31 118.04,-250.31 111.04,-250.31"/>
</a>
</g>
<text text-anchor="middle" x="122.41" y="-208.5" font-family="Helvetica,sans-Serif" font-size="10.00" fill="grey"> col</text>
</g>
<!-- Node4 -->
<g id="Node000004" class="node">
<title>Node4</title>
<g id="a_Node000004"><a xlink:href="../../d6/d0f/structatom__selection.html" target="_top" xlink:title=" ">
<polygon fill="white" stroke="#666666" points="288.54,-126 206.54,-126 206.54,-106 288.54,-106 288.54,-126"/>
<text text-anchor="middle" x="247.54" y="-112.5" font-family="Helvetica,sans-Serif" font-size="10.00">atom_selection</text>
</a>
</g>
</g>
<!-- Node2&#45;&gt;Node4 -->
<g id="edge6_Node000004_Node000002" class="edge">
<title>Node2&#45;&gt;Node4</title>
<g id="a_edge6_Node000004_Node000002"><a xlink:title=" ">
<path fill="none" stroke="#9a32cd" stroke-dasharray="5,2" d="M127.49,-252.51C144.47,-228.33 172.75,-188.31 178.29,-182 186.02,-173.2 188.99,-172.01 197.54,-164 211.45,-150.96 227.5,-135.86 237.59,-126.37"/>
<polygon fill="#9a32cd" stroke="#9a32cd" points="124.75,-250.32 121.88,-260.51 130.48,-254.34 124.75,-250.32"/>
</a>
</g>
<text text-anchor="middle" x="211.16" y="-220.5" font-family="Helvetica,sans-Serif" font-size="10.00" fill="grey"> angle_colors</text>
<text text-anchor="middle" x="211.16" y="-208.5" font-family="Helvetica,sans-Serif" font-size="10.00" fill="grey">bond_colors</text>
<text text-anchor="middle" x="211.16" y="-196.5" font-family="Helvetica,sans-Serif" font-size="10.00" fill="grey">dihedral_colors</text>
</g>
<!-- Node3&#45;&gt;Node1 -->
<g id="edge2_Node000001_Node000003" class="edge">
<title>Node3&#45;&gt;Node1</title>
<g id="a_edge2_Node000001_Node000003"><a xlink:title=" ">
<path fill="none" stroke="#9a32cd" stroke-dasharray="5,2" d="M130.21,-97.13C147.06,-79.16 175.56,-52.13 206.04,-38 251.62,-16.87 311.46,-12.1 342.98,-11.14"/>
<polygon fill="#9a32cd" stroke="#9a32cd" points="127.67,-94.72 123.53,-104.47 132.85,-99.43 127.67,-94.72"/>
</a>
</g>
<text text-anchor="middle" x="229.79" y="-40.5" font-family="Helvetica,sans-Serif" font-size="10.00" fill="grey"> labels_list</text>
</g>
<!-- Node3&#45;&gt;Node3 -->
<g id="edge4_Node000003_Node000003" class="edge">
<title>Node3&#45;&gt;Node3</title>
<g id="a_edge4_Node000003_Node000003"><a xlink:title=" ">
<path fill="none" stroke="#9a32cd" stroke-dasharray="5,2" d="M142.79,-129.08C157.04,-130.95 169.79,-126.59 169.79,-116 169.79,-102.71 149.71,-99.23 131.79,-105.57"/>
<polygon fill="#9a32cd" stroke="#9a32cd" points="143.81,-125.72 133.26,-126.79 142.17,-132.53 143.81,-125.72"/>
</a>
</g>
<text text-anchor="middle" x="179.16" y="-118.5" font-family="Helvetica,sans-Serif" font-size="10.00" fill="grey"> last</text>
<text text-anchor="middle" x="179.16" y="-106.5" font-family="Helvetica,sans-Serif" font-size="10.00" fill="grey">prev</text>
</g>
<!-- Node4&#45;&gt;Node1 -->
<g id="edge5_Node000001_Node000004" class="edge">
<title>Node4&#45;&gt;Node1</title>
<g id="a_edge5_Node000001_Node000004"><a xlink:title=" ">
<path fill="none" stroke="#9a32cd" stroke-dasharray="5,2" d="M246.65,-94.15C247.08,-76.9 250.53,-52.9 264.79,-38 285.13,-16.74 320.35,-11.64 343.03,-10.72"/>
<polygon fill="#9a32cd" stroke="#9a32cd" points="243.15,-94.05 246.76,-104.01 250.15,-93.97 243.15,-94.05"/>
</a>
</g>
<text text-anchor="middle" x="285.41" y="-40.5" font-family="Helvetica,sans-Serif" font-size="10.00" fill="grey"> selected</text>
</g>
<!-- Node5 -->
<g id="Node000005" class="node">
<title>Node5</title>
<g id="a_Node000005"><a xlink:href="../../df/dab/structatom__in__selection.html" target="_top" xlink:title=" ">
<polygon fill="white" stroke="#666666" points="294.91,-282 200.16,-282 200.16,-262 294.91,-262 294.91,-282"/>
<text text-anchor="middle" x="247.54" y="-268.5" font-family="Helvetica,sans-Serif" font-size="10.00">atom_in_selection</text>
</a>
</g>
</g>
<!-- Node5&#45;&gt;Node4 -->
<g id="edge7_Node000004_Node000005" class="edge">
<title>Node5&#45;&gt;Node4</title>
<g id="a_edge7_Node000004_Node000005"><a xlink:title=" ">
<path fill="none" stroke="#9a32cd" stroke-dasharray="5,2" d="M247.54,-250.64C247.54,-216.91 247.54,-150.72 247.54,-126.32"/>
<polygon fill="#9a32cd" stroke="#9a32cd" points="244.04,-250.31 247.54,-260.31 251.04,-250.31 244.04,-250.31"/>
</a>
</g>
<text text-anchor="middle" x="257.29" y="-214.5" font-family="Helvetica,sans-Serif" font-size="10.00" fill="grey"> first</text>
<text text-anchor="middle" x="257.29" y="-202.5" font-family="Helvetica,sans-Serif" font-size="10.00" fill="grey">last</text>
</g>
<!-- Node5&#45;&gt;Node5 -->
<g id="edge8_Node000005_Node000005" class="edge">
<title>Node5&#45;&gt;Node5</title>
<g id="a_edge8_Node000005_Node000005"><a xlink:title=" ">
<path fill="none" stroke="#9a32cd" stroke-dasharray="5,2" d="M288.45,-283.25C302.05,-283.24 312.91,-279.49 312.91,-272 312.91,-262.51 295.46,-259.02 277.12,-261.54"/>
<polygon fill="#9a32cd" stroke="#9a32cd" points="288.85,-279.77 278.63,-282.56 288.36,-286.75 288.85,-279.77"/>
</a>
</g>
<text text-anchor="middle" x="323.79" y="-274.5" font-family="Helvetica,sans-Serif" font-size="10.00" fill="grey"> next</text>
<text text-anchor="middle" x="323.79" y="-262.5" font-family="Helvetica,sans-Serif" font-size="10.00" fill="grey">prev</text>
</g>
<!-- Node6 -->
<g id="Node000006" class="node">
<title>Node6</title>
<g id="a_Node000006"><a xlink:href="../../d7/d36/structvec4__t.html" target="_top" xlink:title=" ">
<polygon fill="white" stroke="#666666" points="352.16,-126 306.91,-126 306.91,-106 352.16,-106 352.16,-126"/>
<text text-anchor="middle" x="329.54" y="-112.5" font-family="Helvetica,sans-Serif" font-size="10.00">vec4_t</text>
</a>
</g>
</g>
<!-- Node6&#45;&gt;Node1 -->
<g id="edge9_Node000001_Node000006" class="edge">
<title>Node6&#45;&gt;Node1</title>
<g id="a_edge9_Node000001_Node000006"><a xlink:title=" ">
<path fill="none" stroke="#9a32cd" stroke-dasharray="5,2" d="M317.94,-96.2C309.45,-79.78 301.14,-55.86 312.04,-38 318.82,-26.89 331.79,-20.16 343.15,-16.19"/>
<polygon fill="#9a32cd" stroke="#9a32cd" points="314.64,-97.46 322.61,-104.44 320.73,-94.01 314.64,-97.46"/>
</a>
</g>
<text text-anchor="middle" x="355.29" y="-40.5" font-family="Helvetica,sans-Serif" font-size="10.00" fill="grey"> rotation_quaternion</text>
</g>
<!-- Node7 -->
<g id="Node000007" class="node">
<title>Node7</title>
<g id="a_Node000007"><a xlink:href="../../db/d99/structatom__data.html" target="_top" xlink:title=" ">
<polygon fill="white" stroke="#666666" points="441.41,-126 379.66,-126 379.66,-106 441.41,-106 441.41,-126"/>
<text text-anchor="middle" x="410.54" y="-112.5" font-family="Helvetica,sans-Serif" font-size="10.00">atom_data</text>
</a>
</g>
</g>
<!-- Node7&#45;&gt;Node1 -->
<g id="edge10_Node000001_Node000007" class="edge">
<title>Node7&#45;&gt;Node1</title>
<g id="a_edge10_Node000001_Node000007"><a xlink:title=" ">
<path fill="none" stroke="#9a32cd" stroke-dasharray="5,2" d="M410.92,-94.3C410.34,-77.99 407.53,-55.21 397.54,-38 393.45,-30.96 386.78,-24.98 380.51,-20.46"/>
<polygon fill="#9a32cd" stroke="#9a32cd" points="407.42,-94.28 410.99,-104.25 414.42,-94.23 407.42,-94.28"/>
</a>
</g>
<text text-anchor="middle" x="421.16" y="-40.5" font-family="Helvetica,sans-Serif" font-size="10.00" fill="grey"> at_data</text>
</g>
<!-- Node8 -->
<g id="Node000008" class="node">
<title>Node8</title>
<g id="a_Node000008"><a xlink:href="../../d7/d61/struct_light.html" target="_top" xlink:title=" ">
<polygon fill="white" stroke="#666666" points="496.04,-126 459.04,-126 459.04,-106 496.04,-106 496.04,-126"/>
<text text-anchor="middle" x="477.54" y="-112.5" font-family="Helvetica,sans-Serif" font-size="10.00">Light</text>
</a>
</g>
</g>
<!-- Node8&#45;&gt;Node1 -->
<g id="edge11_Node000001_Node000008" class="edge">
<title>Node8&#45;&gt;Node1</title>
<g id="a_edge11_Node000001_Node000008"><a xlink:title=" ">
<path fill="none" stroke="#9a32cd" stroke-dasharray="5,2" d="M473.01,-94.4C468.2,-77.13 458.96,-52.96 442.54,-38 426.86,-23.72 403.24,-16.93 386.1,-13.74"/>
<polygon fill="#9a32cd" stroke="#9a32cd" points="469.6,-95.19 475.4,-104.05 476.39,-93.5 469.6,-95.19"/>
</a>
</g>
<text text-anchor="middle" x="465.54" y="-40.5" font-family="Helvetica,sans-Serif" font-size="10.00" fill="grey"> l_ght</text>
</g>
<!-- Node9 -->
<g id="Node000009" class="node">
<title>Node9</title>
<g id="a_Node000009"><a xlink:href="../../d3/d7c/structvec3__t.html" target="_top" xlink:title=" ">
<polygon fill="white" stroke="#666666" points="567.16,-282 521.91,-282 521.91,-262 567.16,-262 567.16,-282"/>
<text text-anchor="middle" x="544.54" y="-268.5" font-family="Helvetica,sans-Serif" font-size="10.00">vec3_t</text>
</a>
</g>
</g>
<!-- Node9&#45;&gt;Node8 -->
<g id="edge12_Node000008_Node000009" class="edge">
<title>Node9&#45;&gt;Node8</title>
<g id="a_edge12_Node000008_Node000009"><a xlink:title=" ">
<path fill="none" stroke="#9a32cd" stroke-dasharray="5,2" d="M511.12,-260.89C502.04,-256.52 493.18,-250.42 487.54,-242 463.07,-205.46 470.99,-148.76 475.42,-126.46"/>
<polygon fill="#9a32cd" stroke="#9a32cd" points="509.7,-264.1 520.28,-264.68 512.38,-257.63 509.7,-264.1"/>
</a>
</g>
<text text-anchor="middle" x="513.04" y="-232.5" font-family="Helvetica,sans-Serif" font-size="10.00" fill="grey"> attenuation</text>
<text text-anchor="middle" x="513.04" y="-220.5" font-family="Helvetica,sans-Serif" font-size="10.00" fill="grey">direction</text>
<text text-anchor="middle" x="513.04" y="-208.5" font-family="Helvetica,sans-Serif" font-size="10.00" fill="grey">intensity</text>
<text text-anchor="middle" x="513.04" y="-196.5" font-family="Helvetica,sans-Serif" font-size="10.00" fill="grey">position</text>
<text text-anchor="middle" x="513.04" y="-184.5" font-family="Helvetica,sans-Serif" font-size="10.00" fill="grey">spot_data</text>
</g>
<!-- Node10 -->
<g id="Node000010" class="node">
<title>Node10</title>
<g id="a_Node000010"><a xlink:href="../../d3/d0a/struct_material.html" target="_top" xlink:title=" ">
<polygon fill="white" stroke="#666666" points="564.79,-126 514.29,-126 514.29,-106 564.79,-106 564.79,-126"/>
<text text-anchor="middle" x="539.54" y="-112.5" font-family="Helvetica,sans-Serif" font-size="10.00">Material</text>
</a>
</g>
</g>
<!-- Node9&#45;&gt;Node10 -->
<g id="edge14_Node000010_Node000009" class="edge">
<title>Node9&#45;&gt;Node10</title>
<g id="a_edge14_Node000010_Node000009"><a xlink:title=" ">
<path fill="none" stroke="#9a32cd" stroke-dasharray="5,2" d="M543.88,-250.64C542.78,-216.91 540.63,-150.72 539.84,-126.32"/>
<polygon fill="#9a32cd" stroke="#9a32cd" points="540.37,-250.43 544.19,-260.32 547.37,-250.21 540.37,-250.43"/>
</a>
</g>
<text text-anchor="middle" x="560.29" y="-208.5" font-family="Helvetica,sans-Serif" font-size="10.00" fill="grey"> albedo</text>
</g>
<!-- Node11 -->
<g id="Node000011" class="node">
<title>Node11</title>
<g id="a_Node000011"><a xlink:href="../../d8/df7/struct_fog.html" target="_top" xlink:title=" ">
<polygon fill="white" stroke="#666666" points="615.79,-126 583.29,-126 583.29,-106 615.79,-106 615.79,-126"/>
<text text-anchor="middle" x="599.54" y="-112.5" font-family="Helvetica,sans-Serif" font-size="10.00">Fog</text>
</a>
</g>
</g>
<!-- Node9&#45;&gt;Node11 -->
<g id="edge16_Node000011_Node000009" class="edge">
<title>Node9&#45;&gt;Node11</title>
<g id="a_edge16_Node000011_Node000009"><a xlink:title=" ">
<path fill="none" stroke="#9a32cd" stroke-dasharray="5,2" d="M567.64,-254.4C571.46,-250.71 574.99,-246.54 577.54,-242 599.24,-203.39 600.43,-148.35 599.93,-126.48"/>
<polygon fill="#9a32cd" stroke="#9a32cd" points="565.63,-251.52 560.28,-260.66 570.16,-256.85 565.63,-251.52"/>
</a>
</g>
<text text-anchor="middle" x="608.54" y="-208.5" font-family="Helvetica,sans-Serif" font-size="10.00" fill="grey"> color</text>
</g>
<!-- Node10&#45;&gt;Node1 -->
<g id="edge13_Node000001_Node000010" class="edge">
<title>Node10&#45;&gt;Node1</title>
<g id="a_edge13_Node000001_Node000010"><a xlink:title=" ">
<path fill="none" stroke="#9a32cd" stroke-dasharray="5,2" d="M530.07,-95.6C520.36,-77.83 503.58,-52.18 481.54,-38 452.09,-19.05 410.9,-13.34 386.07,-11.66"/>
<polygon fill="#9a32cd" stroke="#9a32cd" points="526.9,-97.1 534.6,-104.37 533.12,-93.88 526.9,-97.1"/>
</a>
</g>
<text text-anchor="middle" x="515.29" y="-40.5" font-family="Helvetica,sans-Serif" font-size="10.00" fill="grey"> m_terial</text>
</g>
<!-- Node11&#45;&gt;Node1 -->
<g id="edge15_Node000001_Node000011" class="edge">
<title>Node11&#45;&gt;Node1</title>
<g id="a_edge15_Node000001_Node000011"><a xlink:title=" ">
<path fill="none" stroke="#9a32cd" stroke-dasharray="5,2" d="M590.82,-95.53C586.34,-86.65 580.39,-76.29 573.54,-68 560.27,-51.95 556.52,-46.58 537.54,-38 486.72,-15.01 419.87,-11.11 386.08,-10.74"/>
<polygon fill="#9a32cd" stroke="#9a32cd" points="587.56,-96.82 595.01,-104.35 593.88,-93.82 587.56,-96.82"/>
</a>
</g>
<text text-anchor="middle" x="565.79" y="-40.5" font-family="Helvetica,sans-Serif" font-size="10.00" fill="grey"> f_g</text>
</g>
</g>
</svg>

<g id="navigator" transform="translate(0 0)" fill="#404254">
  <rect fill="#f2f5e9" fill-opacity="0.5" stroke="#606060" stroke-width=".5" x="0" y="0" width="60" height="60"/>
  <use id="zoomplus" xlink:href="#zoomPlus" x="17" y="9" onmousedown="handleZoom(evt,'in')"/>
  <use id="zoomminus" xlink:href="#zoomMin" x="42" y="9" onmousedown="handleZoom(evt,'out')"/>
  <use id="reset" xlink:href="#resetDef" x="30" y="36" onmousedown="handleReset()"/>
   <use id="arrowup" xlink:href="#arrowUp" x="0" y="0" onmousedown="handlePan(0,-1)"/>
  <use id="arrowright" xlink:href="#arrowRight" x="0" y="0" onmousedown="handlePan(1,0)"/>
  <use id="arrowdown" xlink:href="#arrowDown" x="0" y="0" onmousedown="handlePan(0,1)"/>
  <use id="arrowleft" xlink:href="#arrowLeft" x="0" y="0" onmousedown="handlePan(-1,0)"/>
</g>
<svg viewBox="0 0 15 15" width="100%" height="30px" preserveAspectRatio="xMaxYMin meet">
 <g id="arrow_out" transform="scale(0.3 0.3)">
  <a xlink:href="structimage__coll__graph_org.svg" target="_base">
   <rect id="button" ry="5" rx="5" y="6" x="6" height="38" width="38"
        fill="#f2f5e9" fill-opacity="0.5" stroke="#606060" stroke-width="1.0"/>
   <path id="arrow"
     d="M 11.500037,31.436501 C 11.940474,20.09759 22.043105,11.32322 32.158766,21.979434 L 37.068811,17.246167 C 37.068811,17.246167 37.088388,32 37.088388,32 L 22.160133,31.978069 C 22.160133,31.978069 26.997745,27.140456 26.997745,27.140456 C 18.528582,18.264221 13.291696,25.230495 11.500037,31.436501 z"
     style="fill:#404040;"/>
  </a>
 </g>
</svg>

<style type='text/css'>
<![CDATA[
[data-mouse-over-selected='false'] { opacity: 0.7; }
[data-mouse-over-selected='true']  { opacity: 1.0; }
]]>
</style>
<script type="application/ecmascript"><![CDATA[
document.addEventListener('DOMContentLoaded', (event) => {
  highlightEdges();
  highlightAdjacentNodes();
});
]]></script>
</svg>
