<?xml version="1.0" encoding="UTF-8" standalone="no"?>
<!DOCTYPE svg PUBLIC "-//W3C//DTD SVG 1.1//EN"
 "http://www.w3.org/Graphics/SVG/1.1/DTD/svg11.dtd">
<!-- Generated by graphviz version 7.1.0 (0)
 -->
<!-- Title: image Pages: 1 -->
<svg width="633pt" height="275pt"
 viewBox="0.00 0.00 632.65 275.00" xmlns="http://www.w3.org/2000/svg" xmlns:xlink="http://www.w3.org/1999/xlink">
<g id="graph0" class="graph" transform="scale(1 1) rotate(0) translate(4 271)">
<title>image</title>
<!-- Node1 -->
<g id="node1" class="node">
<title>Node1</title>
<g id="a_node1"><a xlink:title=" ">
<polygon fill="#999999" stroke="#666666" points="387.15,-19 344.15,-19 344.15,0 387.15,0 387.15,-19"/>
<text text-anchor="middle" x="365.65" y="-7" font-family="Helvetica,sans-Serif" font-size="10.00">image</text>
</a>
</g>
</g>
<!-- Node2 -->
<g id="node2" class="node">
<title>Node2</title>
<g id="a_node2"><a xlink:href="../../d1/d74/struct_col_r_g_b_a.html" target="_top" xlink:title=" ">
<polygon fill="white" stroke="#666666" points="144.65,-265.5 84.65,-265.5 84.65,-246.5 144.65,-246.5 144.65,-265.5"/>
<text text-anchor="middle" x="114.65" y="-253.5" font-family="Helvetica,sans-Serif" font-size="10.00">ColRGBA</text>
</a>
</g>
</g>
<!-- Node2&#45;&gt;Node1 -->
<g id="edge1" class="edge">
<title>Node2&#45;&gt;Node1</title>
<path fill="none" stroke="#9a32cd" stroke-dasharray="5,2" d="M91.54,-239.8C67.38,-222.38 30.91,-191.36 15.65,-154 0.86,-117.79 -9.56,-95.9 15.65,-66 58.08,-15.67 274.15,-10.7 343.9,-10.43"/>
<polygon fill="#9a32cd" stroke="#9a32cd" points="89.29,-242.5 99.49,-245.34 93.29,-236.75 89.29,-242.5"/>
<text text-anchor="middle" x="41.65" y="-146" font-family="Helvetica,sans-Serif" font-size="10.00"> at_color</text>
<text text-anchor="middle" x="41.65" y="-135" font-family="Helvetica,sans-Serif" font-size="10.00">axis_color</text>
<text text-anchor="middle" x="41.65" y="-124" font-family="Helvetica,sans-Serif" font-size="10.00">backcolor</text>
<text text-anchor="middle" x="41.65" y="-113" font-family="Helvetica,sans-Serif" font-size="10.00">box_color</text>
<text text-anchor="middle" x="41.65" y="-102" font-family="Helvetica,sans-Serif" font-size="10.00">fm_vol_col</text>
<text text-anchor="middle" x="41.65" y="-91" font-family="Helvetica,sans-Serif" font-size="10.00">labels_color</text>
<text text-anchor="middle" x="41.65" y="-80" font-family="Helvetica,sans-Serif" font-size="10.00">spcolor</text>
<text text-anchor="middle" x="41.65" y="-69" font-family="Helvetica,sans-Serif" font-size="10.00">vol_col</text>
</g>
<!-- Node3 -->
<g id="node3" class="node">
<title>Node3</title>
<g id="a_node3"><a xlink:href="../../d0/dc3/structscreen__string.html" target="_top" xlink:title=" ">
<polygon fill="white" stroke="#666666" points="152.15,-119.5 77.15,-119.5 77.15,-100.5 152.15,-100.5 152.15,-119.5"/>
<text text-anchor="middle" x="114.65" y="-107.5" font-family="Helvetica,sans-Serif" font-size="10.00">screen_string</text>
</a>
</g>
</g>
<!-- Node2&#45;&gt;Node3 -->
<g id="edge3" class="edge">
<title>Node2&#45;&gt;Node3</title>
<path fill="none" stroke="#9a32cd" stroke-dasharray="5,2" d="M114.65,-235.12C114.65,-203.33 114.65,-142.33 114.65,-119.71"/>
<polygon fill="#9a32cd" stroke="#9a32cd" points="111.15,-234.91 114.65,-244.91 118.15,-234.91 111.15,-234.91"/>
<text text-anchor="middle" x="122.65" y="-197" font-family="Helvetica,sans-Serif" font-size="10.00"> col</text>
</g>
<!-- Node4 -->
<g id="node4" class="node">
<title>Node4</title>
<g id="a_node4"><a xlink:href="../../d6/d0f/structatom__selection.html" target="_top" xlink:title=" ">
<polygon fill="white" stroke="#666666" points="290.15,-119.5 207.15,-119.5 207.15,-100.5 290.15,-100.5 290.15,-119.5"/>
<text text-anchor="middle" x="248.65" y="-107.5" font-family="Helvetica,sans-Serif" font-size="10.00">atom_selection</text>
</a>
</g>
</g>
<!-- Node2&#45;&gt;Node4 -->
<g id="edge6" class="edge">
<title>Node2&#45;&gt;Node4</title>
<path fill="none" stroke="#9a32cd" stroke-dasharray="5,2" d="M127.83,-237.06C143.26,-216.23 168.04,-183.27 178.65,-172 188.87,-161.15 220.88,-134.12 237.84,-119.97"/>
<polygon fill="#9a32cd" stroke="#9a32cd" points="125.13,-234.83 122.01,-244.95 130.77,-238.98 125.13,-234.83"/>
<text text-anchor="middle" x="211.65" y="-208" font-family="Helvetica,sans-Serif" font-size="10.00"> angle_colors</text>
<text text-anchor="middle" x="211.65" y="-197" font-family="Helvetica,sans-Serif" font-size="10.00">bond_colors</text>
<text text-anchor="middle" x="211.65" y="-186" font-family="Helvetica,sans-Serif" font-size="10.00">dihedral_colors</text>
</g>
<!-- Node3&#45;&gt;Node1 -->
<g id="edge2" class="edge">
<title>Node3&#45;&gt;Node1</title>
<path fill="none" stroke="#9a32cd" stroke-dasharray="5,2" d="M130.87,-92.31C148.23,-75.51 177.38,-50.24 207.65,-37 253.26,-17.04 312.33,-12.04 343.75,-10.83"/>
<polygon fill="#9a32cd" stroke="#9a32cd" points="128.61,-89.61 123.99,-99.14 133.55,-94.57 128.61,-89.61"/>
<text text-anchor="middle" x="231.15" y="-40" font-family="Helvetica,sans-Serif" font-size="10.00"> labels_list</text>
</g>
<!-- Node3&#45;&gt;Node3 -->
<g id="edge4" class="edge">
<title>Node3&#45;&gt;Node3</title>
<path fill="none" stroke="#9a32cd" stroke-dasharray="5,2" d="M143.49,-122.32C157.61,-123.93 170.15,-119.82 170.15,-110 170.15,-97.67 150.41,-94.35 132.55,-100.03"/>
<polygon fill="#9a32cd" stroke="#9a32cd" points="144.55,-118.96 134.03,-120.29 143.08,-125.81 144.55,-118.96"/>
<text text-anchor="middle" x="179.65" y="-113" font-family="Helvetica,sans-Serif" font-size="10.00"> last</text>
<text text-anchor="middle" x="179.65" y="-102" font-family="Helvetica,sans-Serif" font-size="10.00">prev</text>
</g>
<!-- Node4&#45;&gt;Node1 -->
<g id="edge5" class="edge">
<title>Node4&#45;&gt;Node1</title>
<path fill="none" stroke="#9a32cd" stroke-dasharray="5,2" d="M247.77,-88.77C248.2,-72.69 251.47,-50.68 264.65,-37 285.27,-15.58 320.92,-10.73 343.88,-10.01"/>
<polygon fill="#9a32cd" stroke="#9a32cd" points="244.27,-88.66 247.88,-98.62 251.27,-88.58 244.27,-88.66"/>
<text text-anchor="middle" x="284.65" y="-40" font-family="Helvetica,sans-Serif" font-size="10.00"> selected</text>
</g>
<!-- Node5 -->
<g id="node5" class="node">
<title>Node5</title>
<g id="a_node5"><a xlink:href="../../df/dab/structatom__in__selection.html" target="_top" xlink:title=" ">
<polygon fill="white" stroke="#666666" points="296.15,-265.5 201.15,-265.5 201.15,-246.5 296.15,-246.5 296.15,-265.5"/>
<text text-anchor="middle" x="248.65" y="-253.5" font-family="Helvetica,sans-Serif" font-size="10.00">atom_in_selection</text>
</a>
</g>
</g>
<!-- Node5&#45;&gt;Node4 -->
<g id="edge7" class="edge">
<title>Node5&#45;&gt;Node4</title>
<path fill="none" stroke="#9a32cd" stroke-dasharray="5,2" d="M248.65,-235.12C248.65,-203.33 248.65,-142.33 248.65,-119.71"/>
<polygon fill="#9a32cd" stroke="#9a32cd" points="245.15,-234.91 248.65,-244.91 252.15,-234.91 245.15,-234.91"/>
<text text-anchor="middle" x="258.65" y="-202.5" font-family="Helvetica,sans-Serif" font-size="10.00"> first</text>
<text text-anchor="middle" x="258.65" y="-191.5" font-family="Helvetica,sans-Serif" font-size="10.00">last</text>
</g>
<!-- Node5&#45;&gt;Node5 -->
<g id="edge8" class="edge">
<title>Node5&#45;&gt;Node5</title>
<path fill="none" stroke="#9a32cd" stroke-dasharray="5,2" d="M290.79,-266.58C303.87,-266.38 314.15,-262.85 314.15,-256 314.15,-247.23 297.3,-243.9 279.31,-246.03"/>
<polygon fill="#9a32cd" stroke="#9a32cd" points="290.99,-263.09 280.82,-266.05 290.62,-270.08 290.99,-263.09"/>
<text text-anchor="middle" x="325.15" y="-259" font-family="Helvetica,sans-Serif" font-size="10.00"> next</text>
<text text-anchor="middle" x="325.15" y="-248" font-family="Helvetica,sans-Serif" font-size="10.00">prev</text>
</g>
<!-- Node6 -->
<g id="node6" class="node">
<title>Node6</title>
<g id="a_node6"><a xlink:href="../../d7/d36/structvec4__t.html" target="_top" xlink:title=" ">
<polygon fill="white" stroke="#666666" points="354.65,-119.5 308.65,-119.5 308.65,-100.5 354.65,-100.5 354.65,-119.5"/>
<text text-anchor="middle" x="331.65" y="-107.5" font-family="Helvetica,sans-Serif" font-size="10.00">vec4_t</text>
</a>
</g>
</g>
<!-- Node6&#45;&gt;Node1 -->
<g id="edge9" class="edge">
<title>Node6&#45;&gt;Node1</title>
<path fill="none" stroke="#9a32cd" stroke-dasharray="5,2" d="M319.52,-91.02C310.86,-75.71 302.38,-53.62 312.65,-37 319.46,-25.97 332.41,-19.38 343.8,-15.53"/>
<polygon fill="#9a32cd" stroke="#9a32cd" points="316.29,-92.44 324.53,-99.1 322.24,-88.75 316.29,-92.44"/>
<text text-anchor="middle" x="355.65" y="-40" font-family="Helvetica,sans-Serif" font-size="10.00"> rotation_quaternion</text>
</g>
<!-- Node7 -->
<g id="node7" class="node">
<title>Node7</title>
<g id="a_node7"><a xlink:href="../../db/d99/structatom__data.html" target="_top" xlink:title=" ">
<polygon fill="white" stroke="#666666" points="442.65,-119.5 380.65,-119.5 380.65,-100.5 442.65,-100.5 442.65,-119.5"/>
<text text-anchor="middle" x="411.65" y="-107.5" font-family="Helvetica,sans-Serif" font-size="10.00">atom_data</text>
</a>
</g>
</g>
<!-- Node7&#45;&gt;Node1 -->
<g id="edge10" class="edge">
<title>Node7&#45;&gt;Node1</title>
<path fill="none" stroke="#9a32cd" stroke-dasharray="5,2" d="M411.75,-89.16C411,-73.92 408.08,-52.87 398.65,-37 394.37,-29.8 387.36,-23.76 380.89,-19.27"/>
<polygon fill="#9a32cd" stroke="#9a32cd" points="408.24,-88.91 411.94,-98.84 415.24,-88.77 408.24,-88.91"/>
<text text-anchor="middle" x="422.65" y="-40" font-family="Helvetica,sans-Serif" font-size="10.00"> at_data</text>
</g>
<!-- Node8 -->
<g id="node8" class="node">
<title>Node8</title>
<g id="a_node8"><a xlink:href="../../d7/d61/struct_light.html" target="_top" xlink:title=" ">
<polygon fill="white" stroke="#666666" points="498.65,-119.5 460.65,-119.5 460.65,-100.5 498.65,-100.5 498.65,-119.5"/>
<text text-anchor="middle" x="479.65" y="-107.5" font-family="Helvetica,sans-Serif" font-size="10.00">Light</text>
</a>
</g>
</g>
<!-- Node8&#45;&gt;Node1 -->
<g id="edge11" class="edge">
<title>Node8&#45;&gt;Node1</title>
<path fill="none" stroke="#9a32cd" stroke-dasharray="5,2" d="M474.65,-89.21C469.61,-73.06 460.29,-50.75 444.65,-37 428.57,-22.87 404.68,-16.22 387.38,-13.12"/>
<polygon fill="#9a32cd" stroke="#9a32cd" points="471.23,-89.97 477.3,-98.65 477.97,-88.08 471.23,-89.97"/>
<text text-anchor="middle" x="466.15" y="-40" font-family="Helvetica,sans-Serif" font-size="10.00"> l_ght</text>
</g>
<!-- Node9 -->
<g id="node9" class="node">
<title>Node9</title>
<g id="a_node9"><a xlink:href="../../d3/d7c/structvec3__t.html" target="_top" xlink:title=" ">
<polygon fill="white" stroke="#666666" points="570.65,-265.5 524.65,-265.5 524.65,-246.5 570.65,-246.5 570.65,-265.5"/>
<text text-anchor="middle" x="547.65" y="-253.5" font-family="Helvetica,sans-Serif" font-size="10.00">vec3_t</text>
</a>
</g>
</g>
<!-- Node9&#45;&gt;Node8 -->
<g id="edge12" class="edge">
<title>Node9&#45;&gt;Node8</title>
<path fill="none" stroke="#9a32cd" stroke-dasharray="5,2" d="M513.49,-245.48C504.34,-241.28 495.4,-235.34 489.65,-227 466.48,-193.38 473.65,-140.59 477.7,-119.82"/>
<polygon fill="#9a32cd" stroke="#9a32cd" points="512.16,-248.72 522.75,-249.09 514.71,-242.2 512.16,-248.72"/>
<text text-anchor="middle" x="515.65" y="-219" font-family="Helvetica,sans-Serif" font-size="10.00"> attenuation</text>
<text text-anchor="middle" x="515.65" y="-208" font-family="Helvetica,sans-Serif" font-size="10.00">direction</text>
<text text-anchor="middle" x="515.65" y="-197" font-family="Helvetica,sans-Serif" font-size="10.00">intensity</text>
<text text-anchor="middle" x="515.65" y="-186" font-family="Helvetica,sans-Serif" font-size="10.00">position</text>
<text text-anchor="middle" x="515.65" y="-175" font-family="Helvetica,sans-Serif" font-size="10.00">spot_data</text>
</g>
<!-- Node10 -->
<g id="node10" class="node">
<title>Node10</title>
<g id="a_node10"><a xlink:href="../../d3/d0a/struct_material.html" target="_top" xlink:title=" ">
<polygon fill="white" stroke="#666666" points="568.15,-119.5 517.15,-119.5 517.15,-100.5 568.15,-100.5 568.15,-119.5"/>
<text text-anchor="middle" x="542.65" y="-107.5" font-family="Helvetica,sans-Serif" font-size="10.00">Material</text>
</a>
</g>
</g>
<!-- Node9&#45;&gt;Node10 -->
<g id="edge14" class="edge">
<title>Node9&#45;&gt;Node10</title>
<path fill="none" stroke="#9a32cd" stroke-dasharray="5,2" d="M546.96,-235.12C545.86,-203.33 543.74,-142.33 542.95,-119.71"/>
<polygon fill="#9a32cd" stroke="#9a32cd" points="543.45,-235.04 547.3,-244.91 550.45,-234.8 543.45,-235.04"/>
<text text-anchor="middle" x="562.65" y="-197" font-family="Helvetica,sans-Serif" font-size="10.00"> albedo</text>
</g>
<!-- Node11 -->
<g id="node11" class="node">
<title>Node11</title>
<g id="a_node11"><a xlink:href="../../d8/df7/struct_fog.html" target="_top" xlink:title=" ">
<polygon fill="white" stroke="#666666" points="619.15,-119.5 586.15,-119.5 586.15,-100.5 619.15,-100.5 619.15,-119.5"/>
<text text-anchor="middle" x="602.65" y="-107.5" font-family="Helvetica,sans-Serif" font-size="10.00">Fog</text>
</a>
</g>
</g>
<!-- Node9&#45;&gt;Node11 -->
<g id="edge16" class="edge">
<title>Node9&#45;&gt;Node11</title>
<path fill="none" stroke="#9a32cd" stroke-dasharray="5,2" d="M571.01,-238.76C574.71,-235.27 578.14,-231.31 580.65,-227 601.38,-191.4 603.12,-140.19 602.91,-119.83"/>
<polygon fill="#9a32cd" stroke="#9a32cd" points="568.85,-236.02 563.36,-245.08 573.3,-241.42 568.85,-236.02"/>
<text text-anchor="middle" x="612.15" y="-197" font-family="Helvetica,sans-Serif" font-size="10.00"> color</text>
</g>
<!-- Node10&#45;&gt;Node1 -->
<g id="edge13" class="edge">
<title>Node10&#45;&gt;Node1</title>
<path fill="none" stroke="#9a32cd" stroke-dasharray="5,2" d="M532.27,-90.56C521.9,-73.91 504.39,-50.06 482.65,-37 452.84,-19.09 412.13,-13.27 387.43,-11.39"/>
<polygon fill="#9a32cd" stroke="#9a32cd" points="529.15,-92.16 537.25,-98.98 535.17,-88.6 529.15,-92.16"/>
<text text-anchor="middle" x="516.65" y="-40" font-family="Helvetica,sans-Serif" font-size="10.00"> m_terial</text>
</g>
<!-- Node11&#45;&gt;Node1 -->
<g id="edge15" class="edge">
<title>Node11&#45;&gt;Node1</title>
<path fill="none" stroke="#9a32cd" stroke-dasharray="5,2" d="M593.15,-90.03C588.72,-82.15 583.02,-73.19 576.65,-66 562.8,-50.36 558.83,-45.29 539.65,-37 488.32,-14.82 421.46,-10.81 387.5,-10.32"/>
<polygon fill="#9a32cd" stroke="#9a32cd" points="590.02,-91.6 597.79,-98.81 596.21,-88.33 590.02,-91.6"/>
<text text-anchor="middle" x="568.15" y="-40" font-family="Helvetica,sans-Serif" font-size="10.00"> f_g</text>
</g>
</g>
</svg>
