<?xml version="1.0" encoding="UTF-8" standalone="no"?>
<!DOCTYPE svg PUBLIC "-//W3C//DTD SVG 1.1//EN"
 "http://www.w3.org/Graphics/SVG/1.1/DTD/svg11.dtd">
<!-- Generated by graphviz version 2.43.0 (0)
 -->
<!-- Title: image Pages: 1 -->
<svg width="688pt" height="275pt"
 viewBox="0.00 0.00 688.00 275.00" xmlns="http://www.w3.org/2000/svg" xmlns:xlink="http://www.w3.org/1999/xlink">
<g id="graph0" class="graph" transform="scale(1 1) rotate(0) translate(4 271)">
<title>image</title>
<!-- Node1 -->
<g id="Node000001" class="node">
<title>Node1</title>
<g id="a_Node000001"><a xlink:title=" ">
<polygon fill="#999999" stroke="#666666" points="422.5,-19 375.5,-19 375.5,0 422.5,0 422.5,-19"/>
<text text-anchor="middle" x="399" y="-7" font-family="Helvetica,sans-Serif" font-size="10.00">image</text>
</a>
</g>
</g>
<!-- Node2 -->
<g id="Node000002" class="node">
<title>Node2</title>
<g id="a_Node000002"><a xlink:href="../../d1/d74/struct_col_r_g_b_a.html" target="_top" xlink:title=" ">
<polygon fill="white" stroke="#666666" points="155,-265.5 95,-265.5 95,-246.5 155,-246.5 155,-265.5"/>
<text text-anchor="middle" x="125" y="-253.5" font-family="Helvetica,sans-Serif" font-size="10.00">ColRGBA</text>
</a>
</g>
</g>
<!-- Node2&#45;&gt;Node1 -->
<g id="edge1_Node000001_Node000002" class="edge">
<title>Node2&#45;&gt;Node1</title>
<g id="a_edge1_Node000001_Node000002"><a xlink:title=" ">
<path fill="none" stroke="#9a32cd" stroke-dasharray="5,2" d="M100.59,-241C74.07,-224.2 33.18,-193.34 16,-154 0.35,-118.16 -9.39,-95.75 16,-66 62.72,-11.25 299.5,-9.27 375.49,-10.08"/>
<polygon fill="#9a32cd" stroke="#9a32cd" points="98.96,-244.1 109.31,-246.34 102.61,-238.13 98.96,-244.1"/>
</a>
</g>
<text text-anchor="middle" x="45.5" y="-146" font-family="Helvetica,sans-Serif" font-size="10.00" fill="grey"> at_color</text>
<text text-anchor="middle" x="45.5" y="-135" font-family="Helvetica,sans-Serif" font-size="10.00" fill="grey">axis_color</text>
<text text-anchor="middle" x="45.5" y="-124" font-family="Helvetica,sans-Serif" font-size="10.00" fill="grey">backcolor</text>
<text text-anchor="middle" x="45.5" y="-113" font-family="Helvetica,sans-Serif" font-size="10.00" fill="grey">box_color</text>
<text text-anchor="middle" x="45.5" y="-102" font-family="Helvetica,sans-Serif" font-size="10.00" fill="grey">fm_vol_col</text>
<text text-anchor="middle" x="45.5" y="-91" font-family="Helvetica,sans-Serif" font-size="10.00" fill="grey">labels_color</text>
<text text-anchor="middle" x="45.5" y="-80" font-family="Helvetica,sans-Serif" font-size="10.00" fill="grey">spcolor</text>
<text text-anchor="middle" x="45.5" y="-69" font-family="Helvetica,sans-Serif" font-size="10.00" fill="grey">vol_col</text>
</g>
<!-- Node3 -->
<g id="Node000003" class="node">
<title>Node3</title>
<g id="a_Node000003"><a xlink:href="../../d0/dc3/structscreen__string.html" target="_top" xlink:title=" ">
<polygon fill="white" stroke="#666666" points="166,-119.5 84,-119.5 84,-100.5 166,-100.5 166,-119.5"/>
<text text-anchor="middle" x="125" y="-107.5" font-family="Helvetica,sans-Serif" font-size="10.00">screen_string</text>
</a>
</g>
</g>
<!-- Node2&#45;&gt;Node3 -->
<g id="edge3_Node000003_Node000002" class="edge">
<title>Node2&#45;&gt;Node3</title>
<g id="a_edge3_Node000003_Node000002"><a xlink:title=" ">
<path fill="none" stroke="#9a32cd" stroke-dasharray="5,2" d="M125,-236.38C125,-204.97 125,-142.63 125,-119.71"/>
<polygon fill="#9a32cd" stroke="#9a32cd" points="121.5,-236.42 125,-246.42 128.5,-236.42 121.5,-236.42"/>
</a>
</g>
<text text-anchor="middle" x="134" y="-197" font-family="Helvetica,sans-Serif" font-size="10.00" fill="grey"> col</text>
</g>
<!-- Node4 -->
<g id="Node000004" class="node">
<title>Node4</title>
<g id="a_Node000004"><a xlink:href="../../d6/d0f/structatom__selection.html" target="_top" xlink:title=" ">
<polygon fill="white" stroke="#666666" points="316,-119.5 224,-119.5 224,-100.5 316,-100.5 316,-119.5"/>
<text text-anchor="middle" x="270" y="-107.5" font-family="Helvetica,sans-Serif" font-size="10.00">atom_selection</text>
</a>
</g>
</g>
<!-- Node2&#45;&gt;Node4 -->
<g id="edge6_Node000004_Node000002" class="edge">
<title>Node2&#45;&gt;Node4</title>
<g id="a_edge6_Node000004_Node000002"><a xlink:title=" ">
<path fill="none" stroke="#9a32cd" stroke-dasharray="5,2" d="M138.21,-238.16C156.6,-214.75 188.03,-174.89 191,-172 200.56,-162.71 204.41,-162.11 215,-154 230.39,-142.21 248.03,-128.36 259.09,-119.63"/>
<polygon fill="#9a32cd" stroke="#9a32cd" points="135.31,-236.19 131.88,-246.22 140.81,-240.52 135.31,-236.19"/>
</a>
</g>
<text text-anchor="middle" x="228.5" y="-208" font-family="Helvetica,sans-Serif" font-size="10.00" fill="grey"> angle_colors</text>
<text text-anchor="middle" x="228.5" y="-197" font-family="Helvetica,sans-Serif" font-size="10.00" fill="grey">bond_colors</text>
<text text-anchor="middle" x="228.5" y="-186" font-family="Helvetica,sans-Serif" font-size="10.00" fill="grey">dihedral_colors</text>
</g>
<!-- Node3&#45;&gt;Node1 -->
<g id="edge2_Node000001_Node000003" class="edge">
<title>Node3&#45;&gt;Node1</title>
<g id="a_edge2_Node000001_Node000003"><a xlink:title=" ">
<path fill="none" stroke="#9a32cd" stroke-dasharray="5,2" d="M140.73,-93.4C158.74,-76.55 189.92,-50.32 222,-37 273.79,-15.49 340.54,-11.14 375.41,-10.44"/>
<polygon fill="#9a32cd" stroke="#9a32cd" points="138.22,-90.96 133.43,-100.4 143.07,-96.01 138.22,-90.96"/>
</a>
</g>
<text text-anchor="middle" x="248.5" y="-40" font-family="Helvetica,sans-Serif" font-size="10.00" fill="grey"> labels_list</text>
</g>
<!-- Node3&#45;&gt;Node3 -->
<g id="edge4_Node000003_Node000003" class="edge">
<title>Node3&#45;&gt;Node3</title>
<g id="a_edge4_Node000003_Node000003"><a xlink:title=" ">
<path fill="none" stroke="#9a32cd" stroke-dasharray="5,2" d="M153.37,-121.76C169.3,-124.01 184,-120.09 184,-110 184,-97.82 162.56,-94.63 143.42,-100.44"/>
<polygon fill="#9a32cd" stroke="#9a32cd" points="153.94,-118.3 143.42,-119.56 152.43,-125.14 153.94,-118.3"/>
</a>
</g>
<text text-anchor="middle" x="195" y="-113" font-family="Helvetica,sans-Serif" font-size="10.00" fill="grey"> last</text>
<text text-anchor="middle" x="195" y="-102" font-family="Helvetica,sans-Serif" font-size="10.00" fill="grey">prev</text>
</g>
<!-- Node4&#45;&gt;Node1 -->
<g id="edge5_Node000001_Node000004" class="edge">
<title>Node4&#45;&gt;Node1</title>
<g id="a_edge5_Node000001_Node000004"><a xlink:title=" ">
<path fill="none" stroke="#9a32cd" stroke-dasharray="5,2" d="M269,-89.63C269.27,-73.41 272.38,-50.78 286,-37 298.32,-24.53 346.1,-16.77 375.44,-13.08"/>
<polygon fill="#9a32cd" stroke="#9a32cd" points="265.51,-90.15 269.2,-100.08 272.51,-90.02 265.51,-90.15"/>
</a>
</g>
<text text-anchor="middle" x="308.5" y="-40" font-family="Helvetica,sans-Serif" font-size="10.00" fill="grey"> selected</text>
</g>
<!-- Node5 -->
<g id="Node000005" class="node">
<title>Node5</title>
<g id="a_Node000005"><a xlink:href="../../df/dab/structatom__in__selection.html" target="_top" xlink:title=" ">
<polygon fill="white" stroke="#666666" points="323,-265.5 217,-265.5 217,-246.5 323,-246.5 323,-265.5"/>
<text text-anchor="middle" x="270" y="-253.5" font-family="Helvetica,sans-Serif" font-size="10.00">atom_in_selection</text>
</a>
</g>
</g>
<!-- Node5&#45;&gt;Node4 -->
<g id="edge7_Node000004_Node000005" class="edge">
<title>Node5&#45;&gt;Node4</title>
<g id="a_edge7_Node000004_Node000005"><a xlink:title=" ">
<path fill="none" stroke="#9a32cd" stroke-dasharray="5,2" d="M270,-236.38C270,-204.97 270,-142.63 270,-119.71"/>
<polygon fill="#9a32cd" stroke="#9a32cd" points="266.5,-236.42 270,-246.42 273.5,-236.42 266.5,-236.42"/>
</a>
</g>
<text text-anchor="middle" x="281" y="-202.5" font-family="Helvetica,sans-Serif" font-size="10.00" fill="grey"> first</text>
<text text-anchor="middle" x="281" y="-191.5" font-family="Helvetica,sans-Serif" font-size="10.00" fill="grey">last</text>
</g>
<!-- Node5&#45;&gt;Node5 -->
<g id="edge8_Node000005_Node000005" class="edge">
<title>Node5&#45;&gt;Node5</title>
<g id="a_edge8_Node000005_Node000005"><a xlink:title=" ">
<path fill="none" stroke="#9a32cd" stroke-dasharray="5,2" d="M310.28,-266.41C326.92,-267.11 341,-263.63 341,-256 341,-246.87 320.86,-243.69 300.28,-246.47"/>
<polygon fill="#9a32cd" stroke="#9a32cd" points="310.55,-262.92 300.28,-265.53 309.93,-269.9 310.55,-262.92"/>
</a>
</g>
<text text-anchor="middle" x="353.5" y="-259" font-family="Helvetica,sans-Serif" font-size="10.00" fill="grey"> next</text>
<text text-anchor="middle" x="353.5" y="-248" font-family="Helvetica,sans-Serif" font-size="10.00" fill="grey">prev</text>
</g>
<!-- Node6 -->
<g id="Node000006" class="node">
<title>Node6</title>
<g id="a_Node000006"><a xlink:href="../../d7/d36/structvec4__t.html" target="_top" xlink:title=" ">
<polygon fill="white" stroke="#666666" points="383.5,-119.5 334.5,-119.5 334.5,-100.5 383.5,-100.5 383.5,-119.5"/>
<text text-anchor="middle" x="359" y="-107.5" font-family="Helvetica,sans-Serif" font-size="10.00">vec4_t</text>
</a>
</g>
</g>
<!-- Node6&#45;&gt;Node1 -->
<g id="edge9_Node000001_Node000006" class="edge">
<title>Node6&#45;&gt;Node1</title>
<g id="a_edge9_Node000001_Node000006"><a xlink:title=" ">
<path fill="none" stroke="#9a32cd" stroke-dasharray="5,2" d="M346.81,-91.8C337.55,-76.4 328.09,-53.74 339,-37 347.02,-24.69 362.19,-18.06 375.27,-14.51"/>
<polygon fill="#9a32cd" stroke="#9a32cd" points="343.98,-93.86 352.38,-100.33 349.85,-90.04 343.98,-93.86"/>
</a>
</g>
<text text-anchor="middle" x="389" y="-40" font-family="Helvetica,sans-Serif" font-size="10.00" fill="grey"> rotation_quaternion</text>
</g>
<!-- Node7 -->
<g id="Node000007" class="node">
<title>Node7</title>
<g id="a_Node000007"><a xlink:href="../../db/d99/structatom__data.html" target="_top" xlink:title=" ">
<polygon fill="white" stroke="#666666" points="485.5,-119.5 416.5,-119.5 416.5,-100.5 485.5,-100.5 485.5,-119.5"/>
<text text-anchor="middle" x="451" y="-107.5" font-family="Helvetica,sans-Serif" font-size="10.00">atom_data</text>
</a>
</g>
</g>
<!-- Node7&#45;&gt;Node1 -->
<g id="edge10_Node000001_Node000007" class="edge">
<title>Node7&#45;&gt;Node1</title>
<g id="a_edge10_Node000001_Node000007"><a xlink:title=" ">
<path fill="none" stroke="#9a32cd" stroke-dasharray="5,2" d="M451.84,-89.84C451.63,-74.4 449.22,-52.76 439,-37 434.01,-29.31 425.93,-23.34 418.32,-19.03"/>
<polygon fill="#9a32cd" stroke="#9a32cd" points="448.34,-90.17 451.67,-100.23 455.34,-90.29 448.34,-90.17"/>
</a>
</g>
<text text-anchor="middle" x="465" y="-40" font-family="Helvetica,sans-Serif" font-size="10.00" fill="grey"> at_data</text>
</g>
<!-- Node8 -->
<g id="Node000008" class="node">
<title>Node8</title>
<g id="a_Node000008"><a xlink:href="../../d7/d61/struct_light.html" target="_top" xlink:title=" ">
<polygon fill="white" stroke="#666666" points="544.5,-119.5 503.5,-119.5 503.5,-100.5 544.5,-100.5 544.5,-119.5"/>
<text text-anchor="middle" x="524" y="-107.5" font-family="Helvetica,sans-Serif" font-size="10.00">Light</text>
</a>
</g>
</g>
<!-- Node8&#45;&gt;Node1 -->
<g id="edge11_Node000001_Node000008" class="edge">
<title>Node8&#45;&gt;Node1</title>
<g id="a_edge11_Node000001_Node000008"><a xlink:title=" ">
<path fill="none" stroke="#9a32cd" stroke-dasharray="5,2" d="M519.42,-90C514.53,-73.7 505.2,-50.71 489,-37 470.22,-21.11 442.28,-14.75 422.52,-12.2"/>
<polygon fill="#9a32cd" stroke="#9a32cd" points="516.14,-91.29 522.12,-100.03 522.9,-89.47 516.14,-91.29"/>
</a>
</g>
<text text-anchor="middle" x="514" y="-40" font-family="Helvetica,sans-Serif" font-size="10.00" fill="grey"> l_ght</text>
</g>
<!-- Node9 -->
<g id="Node000009" class="node">
<title>Node9</title>
<g id="a_Node000009"><a xlink:href="../../d3/d7c/structvec3__t.html" target="_top" xlink:title=" ">
<polygon fill="white" stroke="#666666" points="619.5,-265.5 570.5,-265.5 570.5,-246.5 619.5,-246.5 619.5,-265.5"/>
<text text-anchor="middle" x="595" y="-253.5" font-family="Helvetica,sans-Serif" font-size="10.00">vec3_t</text>
</a>
</g>
</g>
<!-- Node9&#45;&gt;Node8 -->
<g id="edge12_Node000008_Node000009" class="edge">
<title>Node9&#45;&gt;Node8</title>
<g id="a_edge12_Node000008_Node000009"><a xlink:title=" ">
<path fill="none" stroke="#9a32cd" stroke-dasharray="5,2" d="M560.59,-248.35C548.63,-244.24 536.37,-237.63 529,-227 505.68,-193.37 516.2,-140.14 521.55,-119.53"/>
<polygon fill="#9a32cd" stroke="#9a32cd" points="559.88,-251.79 570.46,-251.24 561.85,-245.07 559.88,-251.79"/>
</a>
</g>
<text text-anchor="middle" x="559" y="-219" font-family="Helvetica,sans-Serif" font-size="10.00" fill="grey"> attenuation</text>
<text text-anchor="middle" x="559" y="-208" font-family="Helvetica,sans-Serif" font-size="10.00" fill="grey">direction</text>
<text text-anchor="middle" x="559" y="-197" font-family="Helvetica,sans-Serif" font-size="10.00" fill="grey">intensity</text>
<text text-anchor="middle" x="559" y="-186" font-family="Helvetica,sans-Serif" font-size="10.00" fill="grey">position</text>
<text text-anchor="middle" x="559" y="-175" font-family="Helvetica,sans-Serif" font-size="10.00" fill="grey">spot_data</text>
</g>
<!-- Node10 -->
<g id="Node000010" class="node">
<title>Node10</title>
<g id="a_Node000010"><a xlink:href="../../d3/d0a/struct_material.html" target="_top" xlink:title=" ">
<polygon fill="white" stroke="#666666" points="619.5,-119.5 562.5,-119.5 562.5,-100.5 619.5,-100.5 619.5,-119.5"/>
<text text-anchor="middle" x="591" y="-107.5" font-family="Helvetica,sans-Serif" font-size="10.00">Material</text>
</a>
</g>
</g>
<!-- Node9&#45;&gt;Node10 -->
<g id="edge14_Node000010_Node000009" class="edge">
<title>Node9&#45;&gt;Node10</title>
<g id="a_edge14_Node000010_Node000009"><a xlink:title=" ">
<path fill="none" stroke="#9a32cd" stroke-dasharray="5,2" d="M594.48,-236.38C593.61,-204.97 591.88,-142.63 591.24,-119.71"/>
<polygon fill="#9a32cd" stroke="#9a32cd" points="590.98,-236.52 594.76,-246.42 597.98,-236.33 590.98,-236.52"/>
</a>
</g>
<text text-anchor="middle" x="613.5" y="-197" font-family="Helvetica,sans-Serif" font-size="10.00" fill="grey"> albedo</text>
</g>
<!-- Node11 -->
<g id="Node000011" class="node">
<title>Node11</title>
<g id="a_Node000011"><a xlink:href="../../d8/df7/struct_fog.html" target="_top" xlink:title=" ">
<polygon fill="white" stroke="#666666" points="672,-119.5 638,-119.5 638,-100.5 672,-100.5 672,-119.5"/>
<text text-anchor="middle" x="655" y="-107.5" font-family="Helvetica,sans-Serif" font-size="10.00">Fog</text>
</a>
</g>
</g>
<!-- Node9&#45;&gt;Node11 -->
<g id="edge16_Node000011_Node000009" class="edge">
<title>Node9&#45;&gt;Node11</title>
<g id="a_edge16_Node000011_Node000009"><a xlink:title=" ">
<path fill="none" stroke="#9a32cd" stroke-dasharray="5,2" d="M620.1,-240.69C625.04,-236.83 629.7,-232.24 633,-227 655.05,-191.95 656,-139.99 655.42,-119.63"/>
<polygon fill="#9a32cd" stroke="#9a32cd" points="617.95,-237.92 611.73,-246.5 621.94,-243.68 617.95,-237.92"/>
</a>
</g>
<text text-anchor="middle" x="666" y="-197" font-family="Helvetica,sans-Serif" font-size="10.00" fill="grey"> color</text>
</g>
<!-- Node10&#45;&gt;Node1 -->
<g id="edge13_Node000001_Node000010" class="edge">
<title>Node10&#45;&gt;Node1</title>
<g id="a_edge13_Node000001_Node000010"><a xlink:title=" ">
<path fill="none" stroke="#9a32cd" stroke-dasharray="5,2" d="M581.46,-91.46C571.42,-74.74 554.01,-50.21 532,-37 497.88,-16.53 450.85,-11.54 422.82,-10.51"/>
<polygon fill="#9a32cd" stroke="#9a32cd" points="578.5,-93.33 586.51,-100.26 584.57,-89.84 578.5,-93.33"/>
</a>
</g>
<text text-anchor="middle" x="569" y="-40" font-family="Helvetica,sans-Serif" font-size="10.00" fill="grey"> m_terial</text>
</g>
<!-- Node11&#45;&gt;Node1 -->
<g id="edge15_Node000001_Node000011" class="edge">
<title>Node11&#45;&gt;Node1</title>
<g id="a_edge15_Node000001_Node000011"><a xlink:title=" ">
<path fill="none" stroke="#9a32cd" stroke-dasharray="5,2" d="M646.1,-90.94C636.31,-73.38 618.76,-47.83 595,-37 564.69,-23.19 467.76,-15.09 422.59,-11.98"/>
<polygon fill="#9a32cd" stroke="#9a32cd" points="643.2,-92.95 650.95,-100.18 649.4,-89.7 643.2,-92.95"/>
</a>
</g>
<text text-anchor="middle" x="621.5" y="-40" font-family="Helvetica,sans-Serif" font-size="10.00" fill="grey"> f_g</text>
</g>
</g>
</svg>
