<?xml version="1.0" encoding="UTF-8" standalone="no"?>
<!DOCTYPE svg PUBLIC "-//W3C//DTD SVG 1.1//EN"
 "http://www.w3.org/Graphics/SVG/1.1/DTD/svg11.dtd">
<!-- Generated by graphviz version 2.43.0 (0)
 -->
<!-- Title: /home/slookeur/files/codeblocks&#45;files/atomes/src/curve/cedit.c Pages: 1 -->
<svg width="1747pt" height="269pt"
 viewBox="0.00 0.00 1747.30 269.00" xmlns="http://www.w3.org/2000/svg" xmlns:xlink="http://www.w3.org/1999/xlink">
<g id="graph0" class="graph" transform="scale(1 1) rotate(0) translate(4 265)">
<title>/home/slookeur/files/codeblocks&#45;files/atomes/src/curve/cedit.c</title>
<!-- Node1 -->
<g id="Node000001" class="node">
<title>Node1</title>
<g id="a_Node000001"><a xlink:title="Initialization of the curve layout edition dialog.">
<polygon fill="#999999" stroke="#666666" points="554,-261 416,-261 416,-220 554,-220 554,-261"/>
<text text-anchor="start" x="424" y="-249" font-family="Helvetica,sans-Serif" font-size="10.00">/home/slookeur/files</text>
<text text-anchor="start" x="424" y="-238" font-family="Helvetica,sans-Serif" font-size="10.00">/codeblocks&#45;files/atomes</text>
<text text-anchor="middle" x="485" y="-227" font-family="Helvetica,sans-Serif" font-size="10.00">/src/curve/cedit.c</text>
</a>
</g>
</g>
<!-- Node2 -->
<g id="Node000002" class="node">
<title>Node2</title>
<g id="a_Node000002"><a xlink:title=" ">
<polygon fill="#e0e0e0" stroke="#999999" points="60,-74 0,-74 0,-55 60,-55 60,-74"/>
<text text-anchor="middle" x="30" y="-62" font-family="Helvetica,sans-Serif" font-size="10.00">gtk/gtk.h</text>
</a>
</g>
</g>
<!-- Node1&#45;&gt;Node2 -->
<g id="edge1_Node000001_Node000002" class="edge">
<title>Node1&#45;&gt;Node2</title>
<g id="a_edge1_Node000001_Node000002"><a xlink:title=" ">
<path fill="none" stroke="#63b8ff" d="M415.84,-239.21C346.91,-236.36 239.7,-224.89 157,-184 107.19,-159.37 63.28,-108.8 42.59,-82.39"/>
<polygon fill="#63b8ff" stroke="#63b8ff" points="45.13,-79.95 36.27,-74.14 39.57,-84.21 45.13,-79.95"/>
</a>
</g>
</g>
<!-- Node3 -->
<g id="Node000003" class="node">
<title>Node3</title>
<g id="a_Node000003"><a xlink:title=" ">
<polygon fill="#e0e0e0" stroke="#999999" points="216,-184 166,-184 166,-165 216,-165 216,-184"/>
<text text-anchor="middle" x="191" y="-172" font-family="Helvetica,sans-Serif" font-size="10.00">cairo.h</text>
</a>
</g>
</g>
<!-- Node1&#45;&gt;Node3 -->
<g id="edge2_Node000001_Node000003" class="edge">
<title>Node1&#45;&gt;Node3</title>
<g id="a_edge2_Node000001_Node000003"><a xlink:title=" ">
<path fill="none" stroke="#63b8ff" d="M415.88,-225.43C365.76,-215.06 296.12,-200.34 226.11,-184.2"/>
<polygon fill="#63b8ff" stroke="#63b8ff" points="226.76,-180.76 216.23,-181.91 225.18,-187.58 226.76,-180.76"/>
</a>
</g>
</g>
<!-- Node4 -->
<g id="Node000004" class="node">
<title>Node4</title>
<g id="a_Node000004"><a xlink:title=" ">
<polygon fill="#e0e0e0" stroke="#999999" points="302,-184 234,-184 234,-165 302,-165 302,-184"/>
<text text-anchor="middle" x="268" y="-172" font-family="Helvetica,sans-Serif" font-size="10.00">cairo&#45;pdf.h</text>
</a>
</g>
</g>
<!-- Node1&#45;&gt;Node4 -->
<g id="edge3_Node000001_Node000004" class="edge">
<title>Node1&#45;&gt;Node4</title>
<g id="a_edge3_Node000001_Node000004"><a xlink:title=" ">
<path fill="none" stroke="#63b8ff" d="M418.71,-219.95C382.1,-209.15 337.88,-196.11 306.84,-186.95"/>
<polygon fill="#63b8ff" stroke="#63b8ff" points="307.43,-183.48 296.85,-184.01 305.45,-190.19 307.43,-183.48"/>
</a>
</g>
</g>
<!-- Node5 -->
<g id="Node000005" class="node">
<title>Node5</title>
<g id="a_Node000005"><a xlink:title=" ">
<polygon fill="#e0e0e0" stroke="#999999" points="391.5,-184 320.5,-184 320.5,-165 391.5,-165 391.5,-184"/>
<text text-anchor="middle" x="356" y="-172" font-family="Helvetica,sans-Serif" font-size="10.00">cairo&#45;svg.h</text>
</a>
</g>
</g>
<!-- Node1&#45;&gt;Node5 -->
<g id="edge4_Node000001_Node000005" class="edge">
<title>Node1&#45;&gt;Node5</title>
<g id="a_edge4_Node000001_Node000005"><a xlink:title=" ">
<path fill="none" stroke="#63b8ff" d="M445.59,-219.95C425.21,-209.84 400.87,-197.76 382.71,-188.75"/>
<polygon fill="#63b8ff" stroke="#63b8ff" points="383.83,-185.4 373.32,-184.09 380.72,-191.67 383.83,-185.4"/>
</a>
</g>
</g>
<!-- Node6 -->
<g id="Node000006" class="node">
<title>Node6</title>
<g id="a_Node000006"><a xlink:title=" ">
<polygon fill="#e0e0e0" stroke="#999999" points="131.5,-74 78.5,-74 78.5,-55 131.5,-55 131.5,-74"/>
<text text-anchor="middle" x="105" y="-62" font-family="Helvetica,sans-Serif" font-size="10.00">string.h</text>
</a>
</g>
</g>
<!-- Node1&#45;&gt;Node6 -->
<g id="edge5_Node000001_Node000006" class="edge">
<title>Node1&#45;&gt;Node6</title>
<g id="a_edge5_Node000001_Node000006"><a xlink:title=" ">
<path fill="none" stroke="#63b8ff" d="M467.11,-219.97C450.97,-203.36 425.85,-179.88 400,-165 354.78,-138.96 209.95,-95.6 141.5,-75.86"/>
<polygon fill="#63b8ff" stroke="#63b8ff" points="142.16,-72.4 131.58,-73.01 140.23,-79.13 142.16,-72.4"/>
</a>
</g>
</g>
<!-- Node7 -->
<g id="Node000007" class="node">
<title>Node7</title>
<g id="a_Node000007"><a xlink:title=" ">
<polygon fill="#e0e0e0" stroke="#999999" points="202.5,-74 149.5,-74 149.5,-55 202.5,-55 202.5,-74"/>
<text text-anchor="middle" x="176" y="-62" font-family="Helvetica,sans-Serif" font-size="10.00">stdlib.h</text>
</a>
</g>
</g>
<!-- Node1&#45;&gt;Node7 -->
<g id="edge6_Node000001_Node000007" class="edge">
<title>Node1&#45;&gt;Node7</title>
<g id="a_edge6_Node000001_Node000007"><a xlink:title=" ">
<path fill="none" stroke="#63b8ff" d="M483.2,-219.73C479.45,-190.81 468.06,-137.44 434,-110 358.6,-49.25 312.95,-90.72 212.58,-73.84"/>
<polygon fill="#63b8ff" stroke="#63b8ff" points="213.16,-70.39 202.69,-72.02 211.89,-77.28 213.16,-70.39"/>
</a>
</g>
</g>
<!-- Node8 -->
<g id="Node000008" class="node">
<title>Node8</title>
<g id="a_Node000008"><a xlink:title=" ">
<polygon fill="#e0e0e0" stroke="#999999" points="836.5,-19 785.5,-19 785.5,0 836.5,0 836.5,-19"/>
<text text-anchor="middle" x="811" y="-7" font-family="Helvetica,sans-Serif" font-size="10.00">math.h</text>
</a>
</g>
</g>
<!-- Node1&#45;&gt;Node8 -->
<g id="edge7_Node000001_Node000008" class="edge">
<title>Node1&#45;&gt;Node8</title>
<g id="a_edge7_Node000001_Node000008"><a xlink:title=" ">
<path fill="none" stroke="#63b8ff" d="M554.25,-235.57C805.21,-220.65 1656.37,-163.73 1735,-74 1740.57,-67.65 1740.83,-61.11 1735,-55 1703.83,-22.29 1013.33,-12.7 846.87,-10.86"/>
<polygon fill="#63b8ff" stroke="#63b8ff" points="846.71,-7.36 836.67,-10.75 846.63,-14.36 846.71,-7.36"/>
</a>
</g>
</g>
<!-- Node9 -->
<g id="Node000009" class="node">
<title>Node9</title>
<g id="a_Node000009"><a xlink:href="../../d2/d49/global_8h.html" target="_top" xlink:title="Global variable declarations &#160;&#160;Global convenience function declarations &#160;&#160;Global data structure defin...">
<polygon fill="white" stroke="#666666" points="703,-129 647,-129 647,-110 703,-110 703,-129"/>
<text text-anchor="middle" x="675" y="-117" font-family="Helvetica,sans-Serif" font-size="10.00">global.h</text>
</a>
</g>
</g>
<!-- Node1&#45;&gt;Node9 -->
<g id="edge8_Node000001_Node000009" class="edge">
<title>Node1&#45;&gt;Node9</title>
<g id="a_edge8_Node000001_Node000009"><a xlink:title=" ">
<path fill="none" stroke="#63b8ff" d="M510.07,-219.7C530.48,-203.99 560.33,-181.94 588,-165 607.17,-153.26 629.79,-141.76 647.16,-133.39"/>
<polygon fill="#63b8ff" stroke="#63b8ff" points="648.7,-136.53 656.22,-129.08 645.69,-130.21 648.7,-136.53"/>
</a>
</g>
</g>
<!-- Node28 -->
<g id="Node000028" class="node">
<title>Node28</title>
<g id="a_Node000028"><a xlink:href="../../d4/da9/interface_8h.html" target="_top" xlink:title="Messaging function declarations.">
<polygon fill="white" stroke="#666666" points="665.5,-184 596.5,-184 596.5,-165 665.5,-165 665.5,-184"/>
<text text-anchor="middle" x="631" y="-172" font-family="Helvetica,sans-Serif" font-size="10.00">interface.h</text>
</a>
</g>
</g>
<!-- Node1&#45;&gt;Node28 -->
<g id="edge33_Node000001_Node000028" class="edge">
<title>Node1&#45;&gt;Node28</title>
<g id="a_edge33_Node000001_Node000028"><a xlink:title=" ">
<path fill="none" stroke="#63b8ff" d="M529.6,-219.95C553.2,-209.6 581.49,-197.2 602.19,-188.13"/>
<polygon fill="#63b8ff" stroke="#63b8ff" points="603.65,-191.31 611.4,-184.09 600.84,-184.9 603.65,-191.31"/>
</a>
</g>
</g>
<!-- Node29 -->
<g id="Node000029" class="node">
<title>Node29</title>
<g id="a_Node000029"><a xlink:href="../../dd/d49/callbacks_8h.html" target="_top" xlink:title="Callback declarations for main window.">
<polygon fill="white" stroke="#666666" points="754.5,-184 683.5,-184 683.5,-165 754.5,-165 754.5,-184"/>
<text text-anchor="middle" x="719" y="-172" font-family="Helvetica,sans-Serif" font-size="10.00">callbacks.h</text>
</a>
</g>
</g>
<!-- Node1&#45;&gt;Node29 -->
<g id="edge34_Node000001_Node000029" class="edge">
<title>Node1&#45;&gt;Node29</title>
<g id="a_edge34_Node000001_Node000029"><a xlink:title=" ">
<path fill="none" stroke="#63b8ff" d="M554.26,-220.56C594.44,-209.57 643.69,-196.1 677.82,-186.76"/>
<polygon fill="#63b8ff" stroke="#63b8ff" points="679.18,-190.02 687.9,-184.01 677.33,-183.27 679.18,-190.02"/>
</a>
</g>
</g>
<!-- Node30 -->
<g id="Node000030" class="node">
<title>Node30</title>
<g id="a_Node000030"><a xlink:href="../../dc/d8d/project_8h.html" target="_top" xlink:title="Function declarations for reading atomes project file &#160;&#160;Function declarations for saving atomes proje...">
<polygon fill="white" stroke="#666666" points="831.5,-184 772.5,-184 772.5,-165 831.5,-165 831.5,-184"/>
<text text-anchor="middle" x="802" y="-172" font-family="Helvetica,sans-Serif" font-size="10.00">project.h</text>
</a>
</g>
</g>
<!-- Node1&#45;&gt;Node30 -->
<g id="edge35_Node000001_Node000030" class="edge">
<title>Node1&#45;&gt;Node30</title>
<g id="a_edge35_Node000001_Node000030"><a xlink:title=" ">
<path fill="none" stroke="#63b8ff" d="M554.17,-226.21C608.37,-215.69 685.93,-200.4 762.35,-184.32"/>
<polygon fill="#63b8ff" stroke="#63b8ff" points="763.08,-187.74 772.14,-182.25 761.64,-180.89 763.08,-187.74"/>
</a>
</g>
</g>
<!-- Node31 -->
<g id="Node000031" class="node">
<title>Node31</title>
<g id="a_Node000031"><a xlink:href="../../df/de9/curve_8h.html" target="_top" xlink:title="Variable declarations for the curve widget &#160;&#160;Functions for interactions with the curve widget.">
<polygon fill="white" stroke="#666666" points="539.5,-184 486.5,-184 486.5,-165 539.5,-165 539.5,-184"/>
<text text-anchor="middle" x="513" y="-172" font-family="Helvetica,sans-Serif" font-size="10.00">curve.h</text>
</a>
</g>
</g>
<!-- Node1&#45;&gt;Node31 -->
<g id="edge36_Node000001_Node000031" class="edge">
<title>Node1&#45;&gt;Node31</title>
<g id="a_edge36_Node000001_Node000031"><a xlink:title=" ">
<path fill="none" stroke="#63b8ff" d="M493.55,-219.95C497.22,-211.58 501.47,-201.85 505.06,-193.64"/>
<polygon fill="#63b8ff" stroke="#63b8ff" points="508.37,-194.83 509.17,-184.26 501.95,-192.02 508.37,-194.83"/>
</a>
</g>
</g>
<!-- Node9&#45;&gt;Node2 -->
<g id="edge19_Node000009_Node000002" class="edge">
<title>Node9&#45;&gt;Node2</title>
<g id="a_edge19_Node000009_Node000002"><a xlink:title=" ">
<path fill="none" stroke="#63b8ff" d="M646.76,-117.84C561.3,-115.56 297.94,-106.32 70.29,-73.97"/>
<polygon fill="#63b8ff" stroke="#63b8ff" points="70.55,-70.47 60.16,-72.51 69.56,-77.4 70.55,-70.47"/>
</a>
</g>
</g>
<!-- Node9&#45;&gt;Node6 -->
<g id="edge13_Node000009_Node000006" class="edge">
<title>Node9&#45;&gt;Node6</title>
<g id="a_edge13_Node000009_Node000006"><a xlink:title=" ">
<path fill="none" stroke="#63b8ff" d="M646.97,-117.7C568.52,-115.14 340.04,-105.48 141.69,-74.04"/>
<polygon fill="#63b8ff" stroke="#63b8ff" points="142.09,-70.56 131.67,-72.43 140.98,-77.47 142.09,-70.56"/>
</a>
</g>
</g>
<!-- Node9&#45;&gt;Node7 -->
<g id="edge15_Node000009_Node000007" class="edge">
<title>Node9&#45;&gt;Node7</title>
<g id="a_edge15_Node000009_Node000007"><a xlink:title=" ">
<path fill="none" stroke="#63b8ff" d="M646.91,-117.13C575.84,-113.4 383.06,-101.5 212.56,-73.85"/>
<polygon fill="#63b8ff" stroke="#63b8ff" points="213.09,-70.39 202.65,-72.22 211.95,-77.3 213.09,-70.39"/>
</a>
</g>
</g>
<!-- Node9&#45;&gt;Node8 -->
<g id="edge18_Node000009_Node000008" class="edge">
<title>Node9&#45;&gt;Node8</title>
<g id="a_edge18_Node000009_Node000008"><a xlink:title=" ">
<path fill="none" stroke="#63b8ff" d="M703.03,-114.98C729.53,-110.2 768.62,-99.15 792,-74 803.26,-61.89 807.87,-43.35 809.74,-29.43"/>
<polygon fill="#63b8ff" stroke="#63b8ff" points="813.27,-29.36 810.76,-19.06 806.3,-28.67 813.27,-29.36"/>
</a>
</g>
</g>
<!-- Node10 -->
<g id="Node000010" class="node">
<title>Node10</title>
<g id="a_Node000010"><a xlink:title=" ">
<polygon fill="#e0e0e0" stroke="#999999" points="419,-74 375,-74 375,-55 419,-55 419,-74"/>
<text text-anchor="middle" x="397" y="-62" font-family="Helvetica,sans-Serif" font-size="10.00">glib.h</text>
</a>
</g>
</g>
<!-- Node9&#45;&gt;Node10 -->
<g id="edge9_Node000009_Node000010" class="edge">
<title>Node9&#45;&gt;Node10</title>
<g id="a_edge9_Node000009_Node000010"><a xlink:title=" ">
<path fill="none" stroke="#63b8ff" d="M646.68,-114.24C602.35,-107.4 513.7,-92.98 429.29,-74.13"/>
<polygon fill="#63b8ff" stroke="#63b8ff" points="429.82,-70.66 419.29,-71.87 428.27,-77.49 429.82,-70.66"/>
</a>
</g>
</g>
<!-- Node11 -->
<g id="Node000011" class="node">
<title>Node11</title>
<g id="a_Node000011"><a xlink:title=" ">
<polygon fill="#e0e0e0" stroke="#999999" points="511,-74 437,-74 437,-55 511,-55 511,-74"/>
<text text-anchor="middle" x="474" y="-62" font-family="Helvetica,sans-Serif" font-size="10.00">glib/gi18n.h</text>
</a>
</g>
</g>
<!-- Node9&#45;&gt;Node11 -->
<g id="edge10_Node000009_Node000011" class="edge">
<title>Node9&#45;&gt;Node11</title>
<g id="a_edge10_Node000009_Node000011"><a xlink:title=" ">
<path fill="none" stroke="#63b8ff" d="M646.63,-111.02C612.68,-102.07 555.53,-87 516.35,-76.67"/>
<polygon fill="#63b8ff" stroke="#63b8ff" points="517.12,-73.25 506.56,-74.08 515.33,-80.02 517.12,-73.25"/>
</a>
</g>
</g>
<!-- Node12 -->
<g id="Node000012" class="node">
<title>Node12</title>
<g id="a_Node000012"><a xlink:title=" ">
<polygon fill="#e0e0e0" stroke="#999999" points="584.5,-74 529.5,-74 529.5,-55 584.5,-55 584.5,-74"/>
<text text-anchor="middle" x="557" y="-62" font-family="Helvetica,sans-Serif" font-size="10.00">locale.h</text>
</a>
</g>
</g>
<!-- Node9&#45;&gt;Node12 -->
<g id="edge11_Node000009_Node000012" class="edge">
<title>Node9&#45;&gt;Node12</title>
<g id="a_edge11_Node000009_Node000012"><a xlink:title=" ">
<path fill="none" stroke="#63b8ff" d="M656.04,-109.98C636.97,-101.42 607.34,-88.11 585.45,-78.28"/>
<polygon fill="#63b8ff" stroke="#63b8ff" points="586.86,-75.07 576.3,-74.17 583.99,-81.46 586.86,-75.07"/>
</a>
</g>
</g>
<!-- Node13 -->
<g id="Node000013" class="node">
<title>Node13</title>
<g id="a_Node000013"><a xlink:title=" ">
<polygon fill="#e0e0e0" stroke="#999999" points="783,-74 727,-74 727,-55 783,-55 783,-74"/>
<text text-anchor="middle" x="755" y="-62" font-family="Helvetica,sans-Serif" font-size="10.00">unistd.h</text>
</a>
</g>
</g>
<!-- Node9&#45;&gt;Node13 -->
<g id="edge12_Node000009_Node000013" class="edge">
<title>Node9&#45;&gt;Node13</title>
<g id="a_edge12_Node000009_Node000013"><a xlink:title=" ">
<path fill="none" stroke="#63b8ff" d="M687.85,-109.98C700.14,-101.84 718.91,-89.41 733.48,-79.76"/>
<polygon fill="#63b8ff" stroke="#63b8ff" points="735.51,-82.61 741.91,-74.17 731.64,-76.78 735.51,-82.61"/>
</a>
</g>
</g>
<!-- Node14 -->
<g id="Node000014" class="node">
<title>Node14</title>
<g id="a_Node000014"><a xlink:title=" ">
<polygon fill="#e0e0e0" stroke="#999999" points="669,-19 619,-19 619,0 669,0 669,-19"/>
<text text-anchor="middle" x="644" y="-7" font-family="Helvetica,sans-Serif" font-size="10.00">stdio.h</text>
</a>
</g>
</g>
<!-- Node9&#45;&gt;Node14 -->
<g id="edge14_Node000009_Node000014" class="edge">
<title>Node9&#45;&gt;Node14</title>
<g id="a_edge14_Node000009_Node000014"><a xlink:title=" ">
<path fill="none" stroke="#63b8ff" d="M662.51,-109.93C652.13,-101.99 638.12,-89.14 632,-74 626.03,-59.23 630.38,-41.3 635.43,-28.27"/>
<polygon fill="#63b8ff" stroke="#63b8ff" points="638.68,-29.58 639.45,-19.02 632.26,-26.79 638.68,-29.58"/>
</a>
</g>
</g>
<!-- Node15 -->
<g id="Node000015" class="node">
<title>Node15</title>
<g id="a_Node000015"><a xlink:title=" ">
<polygon fill="#e0e0e0" stroke="#999999" points="911,-74 839,-74 839,-55 911,-55 911,-74"/>
<text text-anchor="middle" x="875" y="-62" font-family="Helvetica,sans-Serif" font-size="10.00">sys/types.h</text>
</a>
</g>
</g>
<!-- Node9&#45;&gt;Node15 -->
<g id="edge16_Node000009_Node000015" class="edge">
<title>Node9&#45;&gt;Node15</title>
<g id="a_edge16_Node000009_Node000015"><a xlink:title=" ">
<path fill="none" stroke="#63b8ff" d="M703.23,-111.02C736.94,-102.09 793.63,-87.06 832.61,-76.73"/>
<polygon fill="#63b8ff" stroke="#63b8ff" points="833.84,-80.03 842.61,-74.08 832.04,-73.26 833.84,-80.03"/>
</a>
</g>
</g>
<!-- Node16 -->
<g id="Node000016" class="node">
<title>Node16</title>
<g id="a_Node000016"><a xlink:title=" ">
<polygon fill="#e0e0e0" stroke="#999999" points="993,-74 929,-74 929,-55 993,-55 993,-74"/>
<text text-anchor="middle" x="961" y="-62" font-family="Helvetica,sans-Serif" font-size="10.00">sys/stat.h</text>
</a>
</g>
</g>
<!-- Node9&#45;&gt;Node16 -->
<g id="edge17_Node000009_Node000016" class="edge">
<title>Node9&#45;&gt;Node16</title>
<g id="a_edge17_Node000009_Node000016"><a xlink:title=" ">
<path fill="none" stroke="#63b8ff" d="M703.34,-113.59C747.27,-105.92 834.71,-90.46 918.82,-74.19"/>
<polygon fill="#63b8ff" stroke="#63b8ff" points="919.64,-77.6 928.79,-72.26 918.3,-70.73 919.64,-77.6"/>
</a>
</g>
</g>
<!-- Node17 -->
<g id="Node000017" class="node">
<title>Node17</title>
<g id="a_Node000017"><a xlink:title=" ">
<polygon fill="#e0e0e0" stroke="#999999" points="1076.5,-74 1011.5,-74 1011.5,-55 1076.5,-55 1076.5,-74"/>
<text text-anchor="middle" x="1044" y="-62" font-family="Helvetica,sans-Serif" font-size="10.00">gdk/gdk.h</text>
</a>
</g>
</g>
<!-- Node9&#45;&gt;Node17 -->
<g id="edge20_Node000009_Node000017" class="edge">
<title>Node9&#45;&gt;Node17</title>
<g id="a_edge20_Node000009_Node000017"><a xlink:title=" ">
<path fill="none" stroke="#63b8ff" d="M703.09,-115.3C758.17,-108.88 884.42,-93.53 1001.29,-74.01"/>
<polygon fill="#63b8ff" stroke="#63b8ff" points="1002.2,-77.41 1011.48,-72.3 1001.04,-70.51 1002.2,-77.41"/>
</a>
</g>
</g>
<!-- Node18 -->
<g id="Node000018" class="node">
<title>Node18</title>
<g id="a_Node000018"><a xlink:title=" ">
<polygon fill="#e0e0e0" stroke="#999999" points="1203,-74 1095,-74 1095,-55 1203,-55 1203,-74"/>
<text text-anchor="middle" x="1149" y="-62" font-family="Helvetica,sans-Serif" font-size="10.00">gdk/gdkkeysyms.h</text>
</a>
</g>
</g>
<!-- Node9&#45;&gt;Node18 -->
<g id="edge21_Node000009_Node000018" class="edge">
<title>Node9&#45;&gt;Node18</title>
<g id="a_edge21_Node000009_Node000018"><a xlink:title=" ">
<path fill="none" stroke="#63b8ff" d="M703.43,-115.68C768.74,-109.15 934.76,-92.24 1084.43,-74.16"/>
<polygon fill="#63b8ff" stroke="#63b8ff" points="1085.21,-77.59 1094.72,-72.92 1084.37,-70.65 1085.21,-77.59"/>
</a>
</g>
</g>
<!-- Node19 -->
<g id="Node000019" class="node">
<title>Node19</title>
<g id="a_Node000019"><a xlink:title=" ">
<polygon fill="#e0e0e0" stroke="#999999" points="1354.5,-74 1221.5,-74 1221.5,-55 1354.5,-55 1354.5,-74"/>
<text text-anchor="middle" x="1288" y="-62" font-family="Helvetica,sans-Serif" font-size="10.00">gdk&#45;pixbuf/gdk&#45;pixbuf.h</text>
</a>
</g>
</g>
<!-- Node9&#45;&gt;Node19 -->
<g id="edge22_Node000009_Node000019" class="edge">
<title>Node9&#45;&gt;Node19</title>
<g id="a_edge22_Node000009_Node000019"><a xlink:title=" ">
<path fill="none" stroke="#63b8ff" d="M703.26,-116.45C781.86,-110.67 1009.89,-93.5 1211.12,-74.06"/>
<polygon fill="#63b8ff" stroke="#63b8ff" points="1211.67,-77.52 1221.28,-73.07 1210.99,-70.55 1211.67,-77.52"/>
</a>
</g>
</g>
<!-- Node20 -->
<g id="Node000020" class="node">
<title>Node20</title>
<g id="a_Node000020"><a xlink:title=" ">
<polygon fill="#e0e0e0" stroke="#999999" points="1473.5,-74 1372.5,-74 1372.5,-55 1473.5,-55 1473.5,-74"/>
<text text-anchor="middle" x="1423" y="-62" font-family="Helvetica,sans-Serif" font-size="10.00">pango/pangoft2.h</text>
</a>
</g>
</g>
<!-- Node9&#45;&gt;Node20 -->
<g id="edge23_Node000009_Node000020" class="edge">
<title>Node9&#45;&gt;Node20</title>
<g id="a_edge23_Node000009_Node000020"><a xlink:title=" ">
<path fill="none" stroke="#63b8ff" d="M703.29,-117.47C796.17,-113.92 1100.41,-100.97 1362.11,-74.12"/>
<polygon fill="#63b8ff" stroke="#63b8ff" points="1362.6,-77.59 1372.18,-73.08 1361.88,-70.63 1362.6,-77.59"/>
</a>
</g>
</g>
<!-- Node21 -->
<g id="Node000021" class="node">
<title>Node21</title>
<g id="a_Node000021"><a xlink:title=" ">
<polygon fill="#e0e0e0" stroke="#999999" points="1560,-74 1492,-74 1492,-55 1560,-55 1560,-74"/>
<text text-anchor="middle" x="1526" y="-62" font-family="Helvetica,sans-Serif" font-size="10.00">epoxy/gl.h</text>
</a>
</g>
</g>
<!-- Node9&#45;&gt;Node21 -->
<g id="edge24_Node000009_Node000021" class="edge">
<title>Node9&#45;&gt;Node21</title>
<g id="a_edge24_Node000009_Node000021"><a xlink:title=" ">
<path fill="none" stroke="#63b8ff" d="M703.04,-118.38C805.74,-117.62 1171.16,-112.33 1481.71,-73.97"/>
<polygon fill="#63b8ff" stroke="#63b8ff" points="1482.31,-77.42 1491.8,-72.71 1481.45,-70.48 1482.31,-77.42"/>
</a>
</g>
</g>
<!-- Node22 -->
<g id="Node000022" class="node">
<title>Node22</title>
<g id="a_Node000022"><a xlink:title=" ">
<polygon fill="#e0e0e0" stroke="#999999" points="1634,-74 1578,-74 1578,-55 1634,-55 1634,-74"/>
<text text-anchor="middle" x="1606" y="-62" font-family="Helvetica,sans-Serif" font-size="10.00">GL/glu.h</text>
</a>
</g>
</g>
<!-- Node9&#45;&gt;Node22 -->
<g id="edge25_Node000009_Node000022" class="edge">
<title>Node9&#45;&gt;Node22</title>
<g id="a_edge25_Node000009_Node000022"><a xlink:title=" ">
<path fill="none" stroke="#63b8ff" d="M703.35,-118.9C813.4,-120.06 1222.84,-120.88 1567.88,-73.88"/>
<polygon fill="#63b8ff" stroke="#63b8ff" points="1568.38,-77.35 1577.81,-72.51 1567.43,-70.41 1568.38,-77.35"/>
</a>
</g>
</g>
<!-- Node23 -->
<g id="Node000023" class="node">
<title>Node23</title>
<g id="a_Node000023"><a xlink:title=" ">
<polygon fill="#e0e0e0" stroke="#999999" points="1726,-74 1652,-74 1652,-55 1726,-55 1726,-74"/>
<text text-anchor="middle" x="1689" y="-62" font-family="Helvetica,sans-Serif" font-size="10.00">epoxy/glx.h</text>
</a>
</g>
</g>
<!-- Node9&#45;&gt;Node23 -->
<g id="edge26_Node000009_Node000023" class="edge">
<title>Node9&#45;&gt;Node23</title>
<g id="a_edge26_Node000009_Node000023"><a xlink:title=" ">
<path fill="none" stroke="#63b8ff" d="M703.23,-118.61C818.55,-118.77 1265.27,-116.5 1641.91,-73.95"/>
<polygon fill="#63b8ff" stroke="#63b8ff" points="1642.37,-77.42 1651.91,-72.8 1641.58,-70.46 1642.37,-77.42"/>
</a>
</g>
</g>
<!-- Node24 -->
<g id="Node000024" class="node">
<title>Node24</title>
<g id="a_Node000024"><a xlink:href="../../dc/db0/math__3d_8h.html" target="_top" xlink:title="Functions for OpenGL math.">
<polygon fill="white" stroke="#666666" points="709,-74 641,-74 641,-55 709,-55 709,-74"/>
<text text-anchor="middle" x="675" y="-62" font-family="Helvetica,sans-Serif" font-size="10.00">math_3d.h</text>
</a>
</g>
</g>
<!-- Node9&#45;&gt;Node24 -->
<g id="edge27_Node000009_Node000024" class="edge">
<title>Node9&#45;&gt;Node24</title>
<g id="a_edge27_Node000009_Node000024"><a xlink:title=" ">
<path fill="none" stroke="#63b8ff" d="M675,-109.75C675,-102.8 675,-92.85 675,-84.13"/>
<polygon fill="#63b8ff" stroke="#63b8ff" points="678.5,-84.09 675,-74.09 671.5,-84.09 678.5,-84.09"/>
</a>
</g>
</g>
<!-- Node25 -->
<g id="Node000025" class="node">
<title>Node25</title>
<g id="a_Node000025"><a xlink:href="../../da/d7e/glwin_8h.html" target="_top" xlink:title="Variable declarations related the OpenGL window &#160;&#160;Data structure declarations related the OpenGL wind...">
<polygon fill="white" stroke="#666666" points="273,-74 221,-74 221,-55 273,-55 273,-74"/>
<text text-anchor="middle" x="247" y="-62" font-family="Helvetica,sans-Serif" font-size="10.00">glwin.h</text>
</a>
</g>
</g>
<!-- Node9&#45;&gt;Node25 -->
<g id="edge30_Node000009_Node000025" class="edge">
<title>Node9&#45;&gt;Node25</title>
<g id="a_edge30_Node000009_Node000025"><a xlink:title=" ">
<path fill="none" stroke="#63b8ff" d="M646.71,-116.52C583.37,-111.83 425.21,-98.67 283.47,-74.05"/>
<polygon fill="#63b8ff" stroke="#63b8ff" points="283.75,-70.55 273.3,-72.26 282.54,-77.44 283.75,-70.55"/>
</a>
</g>
</g>
<!-- Node27 -->
<g id="Node000027" class="node">
<title>Node27</title>
<g id="a_Node000027"><a xlink:title=" ">
<polygon fill="#e0e0e0" stroke="#999999" points="357,-74 291,-74 291,-55 357,-55 357,-74"/>
<text text-anchor="middle" x="324" y="-62" font-family="Helvetica,sans-Serif" font-size="10.00">gtk/gtkx.h</text>
</a>
</g>
</g>
<!-- Node9&#45;&gt;Node27 -->
<g id="edge32_Node000009_Node000027" class="edge">
<title>Node9&#45;&gt;Node27</title>
<g id="a_edge32_Node000009_Node000027"><a xlink:title=" ">
<path fill="none" stroke="#63b8ff" d="M646.8,-114.98C594.01,-108.28 476.47,-92.81 367.61,-74.2"/>
<polygon fill="#63b8ff" stroke="#63b8ff" points="367.89,-70.69 357.44,-72.45 366.7,-77.59 367.89,-70.69"/>
</a>
</g>
</g>
<!-- Node24&#45;&gt;Node8 -->
<g id="edge28_Node000024_Node000008" class="edge">
<title>Node24&#45;&gt;Node8</title>
<g id="a_edge28_Node000024_Node000008"><a xlink:title=" ">
<path fill="none" stroke="#63b8ff" d="M696.85,-54.98C719.12,-46.3 753.9,-32.75 779.22,-22.88"/>
<polygon fill="#63b8ff" stroke="#63b8ff" points="780.71,-26.06 788.75,-19.17 778.16,-19.54 780.71,-26.06"/>
</a>
</g>
</g>
<!-- Node24&#45;&gt;Node14 -->
<g id="edge29_Node000024_Node000014" class="edge">
<title>Node24&#45;&gt;Node14</title>
<g id="a_edge29_Node000024_Node000014"><a xlink:title=" ">
<path fill="none" stroke="#63b8ff" d="M669.88,-54.75C665.64,-47.49 659.47,-36.95 654.22,-27.98"/>
<polygon fill="#63b8ff" stroke="#63b8ff" points="657.09,-25.95 649.02,-19.09 651.05,-29.49 657.09,-25.95"/>
</a>
</g>
</g>
<!-- Node26 -->
<g id="Node000026" class="node">
<title>Node26</title>
<g id="a_Node000026"><a xlink:href="../../d5/d9e/ogl__shading_8h.html" target="_top" xlink:title="Variable declarations related to GLSL programs &#160;&#160;Data structure declarations related to GLSL programs...">
<polygon fill="white" stroke="#666666" points="289,-19 205,-19 205,0 289,0 289,-19"/>
<text text-anchor="middle" x="247" y="-7" font-family="Helvetica,sans-Serif" font-size="10.00">ogl_shading.h</text>
</a>
</g>
</g>
<!-- Node25&#45;&gt;Node26 -->
<g id="edge31_Node000025_Node000026" class="edge">
<title>Node25&#45;&gt;Node26</title>
<g id="a_edge31_Node000025_Node000026"><a xlink:title=" ">
<path fill="none" stroke="#63b8ff" d="M247,-54.75C247,-47.8 247,-37.85 247,-29.13"/>
<polygon fill="#63b8ff" stroke="#63b8ff" points="250.5,-29.09 247,-19.09 243.5,-29.09 250.5,-29.09"/>
</a>
</g>
</g>
<!-- Node31&#45;&gt;Node9 -->
<g id="edge37_Node000031_Node000009" class="edge">
<title>Node31&#45;&gt;Node9</title>
<g id="a_edge37_Node000031_Node000009"><a xlink:title=" ">
<path fill="none" stroke="#63b8ff" d="M539.03,-164.98C566.11,-156.13 608.71,-142.19 639.01,-132.28"/>
<polygon fill="#63b8ff" stroke="#63b8ff" points="640.35,-135.52 648.77,-129.08 638.18,-128.87 640.35,-135.52"/>
</a>
</g>
</g>
</g>
</svg>
