<?xml version="1.0" encoding="UTF-8" standalone="no"?>
<!DOCTYPE svg PUBLIC "-//W3C//DTD SVG 1.1//EN"
 "http://www.w3.org/Graphics/SVG/1.1/DTD/svg11.dtd">
<!-- Generated by graphviz version 9.0.0 (20230911.1827)
 -->
<!-- Title: curve/cedit.c Pages: 1 -->
<!--zoomable 252 -->

<svg id="main" version="1.1" xmlns="http://www.w3.org/2000/svg" xmlns:xlink="http://www.w3.org/1999/xlink" xml:space="preserve" onload="init(evt)">
<style type="text/css"><![CDATA[
.node, .edge {opacity: 0.7;}
.node.selected, .edge.selected {opacity: 1;}
.edge:hover path { stroke: red; }
.edge:hover polygon { stroke: red; fill: red; }
]]></style>

<defs>
  <circle id="rim" cx="0" cy="0" r="7"/>
  <circle id="rim2" cx="0" cy="0" r="3.5"/>
  <g id="zoomPlus">
    <use xlink:href="#rim" fill="#404040"><set attributeName="fill" to="#808080" begin="zoomplus.mouseover" end="zoomplus.mouseout"/></use>
    <path d="M-4,0h8M0,-4v8" fill="none" stroke="white" stroke-width="1.5" pointer-events="none"/>
  </g>
  <g id="zoomMin">
    <use xlink:href="#rim" fill="#404040"><set attributeName="fill" to="#808080" begin="zoomminus.mouseover" end="zoomminus.mouseout"/></use>
    <path d="M-4,0h8" fill="none" stroke="white" stroke-width="1.5" pointer-events="none"/>
  </g>
  <g id="arrowUp" transform="translate(30 24)">
    <use xlink:href="#rim"/>
    <path pointer-events="none" fill="none" stroke="white" stroke-width="1.5" d="M0,-3.0v7 M-2.5,-0.5L0,-3.0L2.5,-0.5"/>
  </g>
  <g id="arrowRight" transform="rotate(90) translate(36 -43)">
    <use xlink:href="#rim"/>
    <path pointer-events="none" fill="none" stroke="white" stroke-width="1.5" d="M0,-3.0v7 M-2.5,-0.5L0,-3.0L2.5,-0.5"/>
  </g>
  <g id="arrowDown" transform="rotate(180) translate(-30 -48)">
    <use xlink:href="#rim"/>
    <path pointer-events="none" fill="none" stroke="white" stroke-width="1.5" d="M0,-3.0v7 M-2.5,-0.5L0,-3.0L2.5,-0.5"/>
  </g>
  <g id="arrowLeft" transform="rotate(270) translate(-36 17)">
    <use xlink:href="#rim"/>
    <path pointer-events="none" fill="none" stroke="white" stroke-width="1.5" d="M0,-3.0v7 M-2.5,-0.5L0,-3.0L2.5,-0.5"/>
  </g>
  <g id="resetDef">
    <use xlink:href="#rim2" fill="#404040"><set attributeName="fill" to="#808080" begin="reset.mouseover" end="reset.mouseout"/></use>
  </g>
</defs>
<script type="application/ecmascript">
var viewWidth = 1618;
var viewHeight = 252;
var sectionId = 'dynsection-0';
</script>
<script type="application/ecmascript" xlink:href="../../svg.min.js"/>
<svg id="graph" class="graph">
<g id="viewport">
<title>curve/cedit.c</title>
<!-- Node1 -->
<g id="Node000001" class="node">
<title>Node1</title>
<g id="a_Node000001"><a xlink:title="Initialization of the curve layout edition dialog.">
<polygon fill="#999999" stroke="#666666" points="490.25,-244 418,-244 418,-224 490.25,-224 490.25,-244"/>
<text text-anchor="middle" x="454.12" y="-230.5" font-family="Helvetica,sans-Serif" font-size="10.00">curve/cedit.c</text>
</a>
</g>
</g>
<!-- Node2 -->
<g id="Node000002" class="node">
<title>Node2</title>
<g id="a_Node000002"><a xlink:title=" ">
<polygon fill="#e0e0e0" stroke="#999999" points="54.25,-76 0,-76 0,-56 54.25,-56 54.25,-76"/>
<text text-anchor="middle" x="27.12" y="-62.5" font-family="Helvetica,sans-Serif" font-size="10.00">gtk/gtk.h</text>
</a>
</g>
</g>
<!-- Node1&#45;&gt;Node2 -->
<g id="edge1_Node000001_Node000002" class="edge">
<title>Node1&#45;&gt;Node2</title>
<g id="a_edge1_Node000001_Node000002"><a xlink:title=" ">
<path fill="none" stroke="#63b8ff" d="M417.6,-230.62C346.46,-225.51 192.16,-211.97 145.12,-188 97.6,-163.78 58.07,-112.95 39.15,-85.51"/>
<polygon fill="#63b8ff" stroke="#63b8ff" points="42.25,-83.85 33.77,-77.5 36.44,-87.75 42.25,-83.85"/>
</a>
</g>
</g>
<!-- Node3 -->
<g id="Node000003" class="node">
<title>Node3</title>
<g id="a_Node000003"><a xlink:title=" ">
<polygon fill="#e0e0e0" stroke="#999999" points="199.75,-188 154.5,-188 154.5,-168 199.75,-168 199.75,-188"/>
<text text-anchor="middle" x="177.12" y="-174.5" font-family="Helvetica,sans-Serif" font-size="10.00">cairo.h</text>
</a>
</g>
</g>
<!-- Node1&#45;&gt;Node3 -->
<g id="edge2_Node000001_Node000003" class="edge">
<title>Node1&#45;&gt;Node3</title>
<g id="a_edge2_Node000001_Node000003"><a xlink:title=" ">
<path fill="none" stroke="#63b8ff" d="M417.79,-227.41C371.93,-220.11 290.39,-206.36 211.27,-188.32"/>
<polygon fill="#63b8ff" stroke="#63b8ff" points="212.14,-184.93 201.61,-186.09 210.56,-191.75 212.14,-184.93"/>
</a>
</g>
</g>
<!-- Node4 -->
<g id="Node000004" class="node">
<title>Node4</title>
<g id="a_Node000004"><a xlink:title=" ">
<polygon fill="#e0e0e0" stroke="#999999" points="280,-188 218.25,-188 218.25,-168 280,-168 280,-188"/>
<text text-anchor="middle" x="249.12" y="-174.5" font-family="Helvetica,sans-Serif" font-size="10.00">cairo&#45;pdf.h</text>
</a>
</g>
</g>
<!-- Node1&#45;&gt;Node4 -->
<g id="edge3_Node000001_Node000004" class="edge">
<title>Node1&#45;&gt;Node4</title>
<g id="a_edge3_Node000001_Node000004"><a xlink:title=" ">
<path fill="none" stroke="#63b8ff" d="M418.42,-223.59C383.07,-214.28 328.95,-200.03 291.46,-190.15"/>
<polygon fill="#63b8ff" stroke="#63b8ff" points="292.42,-186.79 281.86,-187.62 290.64,-193.56 292.42,-186.79"/>
</a>
</g>
</g>
<!-- Node5 -->
<g id="Node000005" class="node">
<title>Node5</title>
<g id="a_Node000005"><a xlink:title=" ">
<polygon fill="#e0e0e0" stroke="#999999" points="362.12,-188 298.12,-188 298.12,-168 362.12,-168 362.12,-188"/>
<text text-anchor="middle" x="330.12" y="-174.5" font-family="Helvetica,sans-Serif" font-size="10.00">cairo&#45;svg.h</text>
</a>
</g>
</g>
<!-- Node1&#45;&gt;Node5 -->
<g id="edge4_Node000001_Node000005" class="edge">
<title>Node1&#45;&gt;Node5</title>
<g id="a_edge4_Node000001_Node000005"><a xlink:title=" ">
<path fill="none" stroke="#63b8ff" d="M432.53,-223.59C413.17,-215.17 384.52,-202.69 362.44,-193.07"/>
<polygon fill="#63b8ff" stroke="#63b8ff" points="363.85,-189.87 353.28,-189.08 361.05,-196.29 363.85,-189.87"/>
</a>
</g>
</g>
<!-- Node6 -->
<g id="Node000006" class="node">
<title>Node6</title>
<g id="a_Node000006"><a xlink:title=" ">
<polygon fill="#e0e0e0" stroke="#999999" points="120.25,-76 72,-76 72,-56 120.25,-56 120.25,-76"/>
<text text-anchor="middle" x="96.12" y="-62.5" font-family="Helvetica,sans-Serif" font-size="10.00">string.h</text>
</a>
</g>
</g>
<!-- Node1&#45;&gt;Node6 -->
<g id="edge5_Node000001_Node000006" class="edge">
<title>Node1&#45;&gt;Node6</title>
<g id="a_edge5_Node000001_Node000006"><a xlink:title=" ">
<path fill="none" stroke="#63b8ff" d="M444.62,-223.91C429.9,-210.22 400.23,-184.21 371.12,-168 328.47,-144.24 195.15,-99.32 131.12,-78.34"/>
<polygon fill="#63b8ff" stroke="#63b8ff" points="132.41,-75.07 121.81,-75.29 130.23,-81.73 132.41,-75.07"/>
</a>
</g>
</g>
<!-- Node7 -->
<g id="Node000007" class="node">
<title>Node7</title>
<g id="a_Node000007"><a xlink:title=" ">
<polygon fill="#e0e0e0" stroke="#999999" points="185.88,-76 138.38,-76 138.38,-56 185.88,-56 185.88,-76"/>
<text text-anchor="middle" x="162.12" y="-62.5" font-family="Helvetica,sans-Serif" font-size="10.00">stdlib.h</text>
</a>
</g>
</g>
<!-- Node1&#45;&gt;Node7 -->
<g id="edge6_Node000001_Node000007" class="edge">
<title>Node1&#45;&gt;Node7</title>
<g id="a_edge6_Node000001_Node000007"><a xlink:title=" ">
<path fill="none" stroke="#63b8ff" d="M453.26,-223.64C450.58,-200.6 440.33,-140.97 404.12,-112 333.26,-55.3 290.4,-93.35 197.21,-76.1"/>
<polygon fill="#63b8ff" stroke="#63b8ff" points="198.19,-72.73 187.69,-74.16 196.79,-79.59 198.19,-72.73"/>
</a>
</g>
</g>
<!-- Node8 -->
<g id="Node000008" class="node">
<title>Node8</title>
<g id="a_Node000008"><a xlink:title=" ">
<polygon fill="#e0e0e0" stroke="#999999" points="781.12,-20 735.12,-20 735.12,0 781.12,0 781.12,-20"/>
<text text-anchor="middle" x="758.12" y="-6.5" font-family="Helvetica,sans-Serif" font-size="10.00">math.h</text>
</a>
</g>
</g>
<!-- Node1&#45;&gt;Node8 -->
<g id="edge7_Node000001_Node000008" class="edge">
<title>Node1&#45;&gt;Node8</title>
<g id="a_edge7_Node000001_Node000008"><a xlink:title=" ">
<path fill="none" stroke="#63b8ff" d="M490.63,-230.83C678.41,-219.3 1529.68,-162.48 1605.12,-76 1610.97,-69.3 1611.24,-62.45 1605.12,-56 1576.7,-26.03 947.28,-14.02 792.35,-11.52"/>
<polygon fill="#63b8ff" stroke="#63b8ff" points="792.79,-8.02 782.74,-11.36 792.68,-15.02 792.79,-8.02"/>
</a>
</g>
</g>
<!-- Node9 -->
<g id="Node000009" class="node">
<title>Node9</title>
<g id="a_Node000009"><a xlink:href="../../d2/d49/global_8h.html" target="_top" xlink:title="Global variable declarations &#160;&#160;Global convenience function declarations &#160;&#160;Global data structure defin...">
<polygon fill="white" stroke="#666666" points="656,-132 606.25,-132 606.25,-112 656,-112 656,-132"/>
<text text-anchor="middle" x="631.12" y="-118.5" font-family="Helvetica,sans-Serif" font-size="10.00">global.h</text>
</a>
</g>
</g>
<!-- Node1&#45;&gt;Node9 -->
<g id="edge8_Node000001_Node000009" class="edge">
<title>Node1&#45;&gt;Node9</title>
<g id="a_edge8_Node000001_Node000009"><a xlink:title=" ">
<path fill="none" stroke="#63b8ff" d="M467.4,-223.62C485.89,-210.67 520.56,-186.8 551.12,-168 568.22,-157.49 587.86,-146.43 603.4,-137.9"/>
<polygon fill="#63b8ff" stroke="#63b8ff" points="604.98,-141.02 612.09,-133.17 601.63,-134.88 604.98,-141.02"/>
</a>
</g>
</g>
<!-- Node28 -->
<g id="Node000028" class="node">
<title>Node28</title>
<g id="a_Node000028"><a xlink:href="../../d4/da9/interface_8h.html" target="_top" xlink:title="Messaging function declarations.">
<polygon fill="white" stroke="#666666" points="622,-188 560.25,-188 560.25,-168 622,-168 622,-188"/>
<text text-anchor="middle" x="591.12" y="-174.5" font-family="Helvetica,sans-Serif" font-size="10.00">interface.h</text>
</a>
</g>
</g>
<!-- Node1&#45;&gt;Node28 -->
<g id="edge33_Node000001_Node000028" class="edge">
<title>Node1&#45;&gt;Node28</title>
<g id="a_edge33_Node000001_Node000028"><a xlink:title=" ">
<path fill="none" stroke="#63b8ff" d="M477.99,-223.59C499.66,-215.05 531.89,-202.35 556.42,-192.68"/>
<polygon fill="#63b8ff" stroke="#63b8ff" points="557.65,-195.96 565.67,-189.03 555.08,-189.45 557.65,-195.96"/>
</a>
</g>
</g>
<!-- Node29 -->
<g id="Node000029" class="node">
<title>Node29</title>
<g id="a_Node000029"><a xlink:href="../../dd/d49/callbacks_8h.html" target="_top" xlink:title="Callback declarations for main window.">
<polygon fill="white" stroke="#666666" points="705.88,-188 640.38,-188 640.38,-168 705.88,-168 705.88,-188"/>
<text text-anchor="middle" x="673.12" y="-174.5" font-family="Helvetica,sans-Serif" font-size="10.00">callbacks.h</text>
</a>
</g>
</g>
<!-- Node1&#45;&gt;Node29 -->
<g id="edge34_Node000001_Node000029" class="edge">
<title>Node1&#45;&gt;Node29</title>
<g id="a_edge34_Node000001_Node000029"><a xlink:title=" ">
<path fill="none" stroke="#63b8ff" d="M490.29,-224.08C528.38,-214.69 588.38,-199.9 629.17,-189.84"/>
<polygon fill="#63b8ff" stroke="#63b8ff" points="629.79,-193.29 638.67,-187.5 628.12,-186.49 629.79,-193.29"/>
</a>
</g>
</g>
<!-- Node30 -->
<g id="Node000030" class="node">
<title>Node30</title>
<g id="a_Node000030"><a xlink:href="../../dc/d8d/project_8h.html" target="_top" xlink:title="Function declarations for reading atomes project file &#160;&#160;Function declarations for saving atomes proje...">
<polygon fill="white" stroke="#666666" points="777.88,-188 724.38,-188 724.38,-168 777.88,-168 777.88,-188"/>
<text text-anchor="middle" x="751.12" y="-174.5" font-family="Helvetica,sans-Serif" font-size="10.00">project.h</text>
</a>
</g>
</g>
<!-- Node1&#45;&gt;Node30 -->
<g id="edge35_Node000001_Node000030" class="edge">
<title>Node1&#45;&gt;Node30</title>
<g id="a_edge35_Node000001_Node000030"><a xlink:title=" ">
<path fill="none" stroke="#63b8ff" d="M490.6,-227.59C539.08,-220.2 627.65,-206.05 712.87,-188.35"/>
<polygon fill="#63b8ff" stroke="#63b8ff" points="713.5,-191.79 722.57,-186.31 712.06,-184.94 713.5,-191.79"/>
</a>
</g>
</g>
<!-- Node31 -->
<g id="Node000031" class="node">
<title>Node31</title>
<g id="a_Node000031"><a xlink:href="../../df/de9/curve_8h.html" target="_top" xlink:title="Variable declarations for the curve widget &#160;&#160;Functions for interactions with the curve widget.">
<polygon fill="white" stroke="#666666" points="504.25,-188 456,-188 456,-168 504.25,-168 504.25,-188"/>
<text text-anchor="middle" x="480.12" y="-174.5" font-family="Helvetica,sans-Serif" font-size="10.00">curve.h</text>
</a>
</g>
</g>
<!-- Node1&#45;&gt;Node31 -->
<g id="edge36_Node000001_Node000031" class="edge">
<title>Node1&#45;&gt;Node31</title>
<g id="a_edge36_Node000001_Node000031"><a xlink:title=" ">
<path fill="none" stroke="#63b8ff" d="M458.65,-223.59C461.97,-216.7 466.59,-207.1 470.7,-198.57"/>
<polygon fill="#63b8ff" stroke="#63b8ff" points="473.81,-200.19 474.99,-189.66 467.5,-197.15 473.81,-200.19"/>
</a>
</g>
</g>
<!-- Node9&#45;&gt;Node2 -->
<g id="edge19_Node000009_Node000002" class="edge">
<title>Node9&#45;&gt;Node2</title>
<g id="a_edge19_Node000009_Node000002"><a xlink:title=" ">
<path fill="none" stroke="#63b8ff" d="M605.75,-120.49C526.96,-118.58 279.48,-110.24 65.67,-76.15"/>
<polygon fill="#63b8ff" stroke="#63b8ff" points="66.47,-72.74 56.04,-74.6 65.35,-79.65 66.47,-72.74"/>
</a>
</g>
</g>
<!-- Node9&#45;&gt;Node6 -->
<g id="edge13_Node000009_Node000006" class="edge">
<title>Node9&#45;&gt;Node6</title>
<g id="a_edge13_Node000009_Node000006"><a xlink:title=" ">
<path fill="none" stroke="#63b8ff" d="M605.84,-120.31C533.37,-118.01 318.6,-108.87 131.66,-76.15"/>
<polygon fill="#63b8ff" stroke="#63b8ff" points="132.47,-72.74 122.01,-74.44 131.24,-79.64 132.47,-72.74"/>
</a>
</g>
</g>
<!-- Node9&#45;&gt;Node7 -->
<g id="edge15_Node000009_Node000007" class="edge">
<title>Node9&#45;&gt;Node7</title>
<g id="a_edge15_Node000009_Node000007"><a xlink:title=" ">
<path fill="none" stroke="#63b8ff" d="M605.85,-119.84C540.07,-116.51 358.02,-105.35 197.22,-76.09"/>
<polygon fill="#63b8ff" stroke="#63b8ff" points="198.13,-72.7 187.66,-74.32 196.85,-79.58 198.13,-72.7"/>
</a>
</g>
</g>
<!-- Node9&#45;&gt;Node8 -->
<g id="edge18_Node000009_Node000008" class="edge">
<title>Node9&#45;&gt;Node8</title>
<g id="a_edge18_Node000009_Node000008"><a xlink:title=" ">
<path fill="none" stroke="#63b8ff" d="M656.15,-116.98C680.68,-111.74 717.45,-100.21 739.12,-76 750.05,-63.79 754.71,-45.62 756.69,-31.59"/>
<polygon fill="#63b8ff" stroke="#63b8ff" points="760.17,-31.97 757.7,-21.66 753.21,-31.26 760.17,-31.97"/>
</a>
</g>
</g>
<!-- Node10 -->
<g id="Node000010" class="node">
<title>Node10</title>
<g id="a_Node000010"><a xlink:title=" ">
<polygon fill="#e0e0e0" stroke="#999999" points="392.75,-76 353.5,-76 353.5,-56 392.75,-56 392.75,-76"/>
<text text-anchor="middle" x="373.12" y="-62.5" font-family="Helvetica,sans-Serif" font-size="10.00">glib.h</text>
</a>
</g>
</g>
<!-- Node9&#45;&gt;Node10 -->
<g id="edge9_Node000009_Node000010" class="edge">
<title>Node9&#45;&gt;Node10</title>
<g id="a_edge9_Node000009_Node000010"><a xlink:title=" ">
<path fill="none" stroke="#63b8ff" d="M606.06,-117.09C565.48,-110.55 482.69,-96.33 404.26,-76.6"/>
<polygon fill="#63b8ff" stroke="#63b8ff" points="405.25,-73.24 394.7,-74.15 403.52,-80.02 405.25,-73.24"/>
</a>
</g>
</g>
<!-- Node11 -->
<g id="Node000011" class="node">
<title>Node11</title>
<g id="a_Node000011"><a xlink:title=" ">
<polygon fill="#e0e0e0" stroke="#999999" points="475.88,-76 410.38,-76 410.38,-56 475.88,-56 475.88,-76"/>
<text text-anchor="middle" x="443.12" y="-62.5" font-family="Helvetica,sans-Serif" font-size="10.00">glib/gi18n.h</text>
</a>
</g>
</g>
<!-- Node9&#45;&gt;Node11 -->
<g id="edge10_Node000009_Node000011" class="edge">
<title>Node9&#45;&gt;Node11</title>
<g id="a_edge10_Node000009_Node000011"><a xlink:title=" ">
<path fill="none" stroke="#63b8ff" d="M605.77,-113.72C575.34,-104.98 523.81,-90.18 486.91,-79.58"/>
<polygon fill="#63b8ff" stroke="#63b8ff" points="487.99,-76.25 477.42,-76.85 486.06,-82.97 487.99,-76.25"/>
</a>
</g>
</g>
<!-- Node12 -->
<g id="Node000012" class="node">
<title>Node12</title>
<g id="a_Node000012"><a xlink:title=" ">
<polygon fill="#e0e0e0" stroke="#999999" points="544,-76 494.25,-76 494.25,-56 544,-56 544,-76"/>
<text text-anchor="middle" x="519.12" y="-62.5" font-family="Helvetica,sans-Serif" font-size="10.00">locale.h</text>
</a>
</g>
</g>
<!-- Node9&#45;&gt;Node12 -->
<g id="edge11_Node000009_Node000012" class="edge">
<title>Node9&#45;&gt;Node12</title>
<g id="a_edge11_Node000009_Node000012"><a xlink:title=" ">
<path fill="none" stroke="#63b8ff" d="M611.62,-111.59C594.38,-103.28 568.97,-91.03 549.14,-81.47"/>
<polygon fill="#63b8ff" stroke="#63b8ff" points="550.68,-78.33 540.15,-77.14 547.64,-84.63 550.68,-78.33"/>
</a>
</g>
</g>
<!-- Node13 -->
<g id="Node000013" class="node">
<title>Node13</title>
<g id="a_Node000013"><a xlink:title=" ">
<polygon fill="#e0e0e0" stroke="#999999" points="730.38,-76 679.88,-76 679.88,-56 730.38,-56 730.38,-76"/>
<text text-anchor="middle" x="705.12" y="-62.5" font-family="Helvetica,sans-Serif" font-size="10.00">unistd.h</text>
</a>
</g>
</g>
<!-- Node9&#45;&gt;Node13 -->
<g id="edge12_Node000009_Node000013" class="edge">
<title>Node9&#45;&gt;Node13</title>
<g id="a_edge12_Node000009_Node000013"><a xlink:title=" ">
<path fill="none" stroke="#63b8ff" d="M644.01,-111.59C654.84,-103.7 670.54,-92.24 683.31,-82.92"/>
<polygon fill="#63b8ff" stroke="#63b8ff" points="685.15,-85.91 691.16,-77.19 681.02,-80.26 685.15,-85.91"/>
</a>
</g>
</g>
<!-- Node14 -->
<g id="Node000014" class="node">
<title>Node14</title>
<g id="a_Node000014"><a xlink:title=" ">
<polygon fill="#e0e0e0" stroke="#999999" points="623.75,-20 578.5,-20 578.5,0 623.75,0 623.75,-20"/>
<text text-anchor="middle" x="601.12" y="-6.5" font-family="Helvetica,sans-Serif" font-size="10.00">stdio.h</text>
</a>
</g>
</g>
<!-- Node9&#45;&gt;Node14 -->
<g id="edge14_Node000009_Node000014" class="edge">
<title>Node9&#45;&gt;Node14</title>
<g id="a_edge14_Node000009_Node000014"><a xlink:title=" ">
<path fill="none" stroke="#63b8ff" d="M619.1,-111.78C609.47,-103.59 596.7,-90.66 591.12,-76 585.6,-61.46 588.79,-43.98 592.98,-30.81"/>
<polygon fill="#63b8ff" stroke="#63b8ff" points="596.22,-32.15 596.37,-21.56 589.65,-29.74 596.22,-32.15"/>
</a>
</g>
</g>
<!-- Node15 -->
<g id="Node000015" class="node">
<title>Node15</title>
<g id="a_Node000015"><a xlink:title=" ">
<polygon fill="#e0e0e0" stroke="#999999" points="853.62,-76 786.62,-76 786.62,-56 853.62,-56 853.62,-76"/>
<text text-anchor="middle" x="820.12" y="-62.5" font-family="Helvetica,sans-Serif" font-size="10.00">sys/types.h</text>
</a>
</g>
</g>
<!-- Node9&#45;&gt;Node15 -->
<g id="edge16_Node000009_Node000015" class="edge">
<title>Node9&#45;&gt;Node15</title>
<g id="a_edge16_Node000009_Node000015"><a xlink:title=" ">
<path fill="none" stroke="#63b8ff" d="M656.22,-113.83C686.71,-105.12 738.67,-90.27 775.92,-79.63"/>
<polygon fill="#63b8ff" stroke="#63b8ff" points="776.86,-83 785.51,-76.89 774.93,-76.27 776.86,-83"/>
</a>
</g>
</g>
<!-- Node16 -->
<g id="Node000016" class="node">
<title>Node16</title>
<g id="a_Node000016"><a xlink:title=" ">
<polygon fill="#e0e0e0" stroke="#999999" points="930.88,-76 871.38,-76 871.38,-56 930.88,-56 930.88,-76"/>
<text text-anchor="middle" x="901.12" y="-62.5" font-family="Helvetica,sans-Serif" font-size="10.00">sys/stat.h</text>
</a>
</g>
</g>
<!-- Node9&#45;&gt;Node16 -->
<g id="edge17_Node000009_Node000016" class="edge">
<title>Node9&#45;&gt;Node16</title>
<g id="a_edge17_Node000009_Node000016"><a xlink:title=" ">
<path fill="none" stroke="#63b8ff" d="M656.26,-116.47C696.99,-109.07 780.2,-93.62 860.04,-76.6"/>
<polygon fill="#63b8ff" stroke="#63b8ff" points="860.76,-80.03 869.8,-74.51 859.29,-73.18 860.76,-80.03"/>
</a>
</g>
</g>
<!-- Node17 -->
<g id="Node000017" class="node">
<title>Node17</title>
<g id="a_Node000017"><a xlink:title=" ">
<polygon fill="#e0e0e0" stroke="#999999" points="1008.88,-76 949.38,-76 949.38,-56 1008.88,-56 1008.88,-76"/>
<text text-anchor="middle" x="979.12" y="-62.5" font-family="Helvetica,sans-Serif" font-size="10.00">gtk/gtkx.h</text>
</a>
</g>
</g>
<!-- Node9&#45;&gt;Node17 -->
<g id="edge20_Node000009_Node000017" class="edge">
<title>Node9&#45;&gt;Node17</title>
<g id="a_edge20_Node000009_Node000017"><a xlink:title=" ">
<path fill="none" stroke="#63b8ff" d="M656.48,-118.02C707.7,-111.86 827.38,-96.69 937.93,-76.28"/>
<polygon fill="#63b8ff" stroke="#63b8ff" points="938.27,-79.78 947.46,-74.5 936.98,-72.9 938.27,-79.78"/>
</a>
</g>
</g>
<!-- Node18 -->
<g id="Node000018" class="node">
<title>Node18</title>
<g id="a_Node000018"><a xlink:title=" ">
<polygon fill="#e0e0e0" stroke="#999999" points="1085.5,-76 1026.75,-76 1026.75,-56 1085.5,-56 1085.5,-76"/>
<text text-anchor="middle" x="1056.12" y="-62.5" font-family="Helvetica,sans-Serif" font-size="10.00">gdk/gdk.h</text>
</a>
</g>
</g>
<!-- Node9&#45;&gt;Node18 -->
<g id="edge21_Node000009_Node000018" class="edge">
<title>Node9&#45;&gt;Node18</title>
<g id="a_edge21_Node000009_Node000018"><a xlink:title=" ">
<path fill="none" stroke="#63b8ff" d="M656.17,-119.11C716.41,-114.34 874.27,-100.57 1015.33,-76.32"/>
<polygon fill="#63b8ff" stroke="#63b8ff" points="1015.58,-79.83 1024.83,-74.67 1014.38,-72.94 1015.58,-79.83"/>
</a>
</g>
</g>
<!-- Node19 -->
<g id="Node000019" class="node">
<title>Node19</title>
<g id="a_Node000019"><a xlink:title=" ">
<polygon fill="#e0e0e0" stroke="#999999" points="1202.38,-76 1103.88,-76 1103.88,-56 1202.38,-56 1202.38,-76"/>
<text text-anchor="middle" x="1153.12" y="-62.5" font-family="Helvetica,sans-Serif" font-size="10.00">gdk/gdkkeysyms.h</text>
</a>
</g>
</g>
<!-- Node9&#45;&gt;Node19 -->
<g id="edge22_Node000009_Node000019" class="edge">
<title>Node9&#45;&gt;Node19</title>
<g id="a_edge22_Node000009_Node000019"><a xlink:title=" ">
<path fill="none" stroke="#63b8ff" d="M656.27,-119.04C724.47,-113.63 918.84,-97.51 1092.19,-76.17"/>
<polygon fill="#63b8ff" stroke="#63b8ff" points="1092.58,-79.65 1102.08,-74.94 1091.72,-72.7 1092.58,-79.65"/>
</a>
</g>
</g>
<!-- Node20 -->
<g id="Node000020" class="node">
<title>Node20</title>
<g id="a_Node000020"><a xlink:title=" ">
<polygon fill="#e0e0e0" stroke="#999999" points="1337.75,-76 1220.5,-76 1220.5,-56 1337.75,-56 1337.75,-76"/>
<text text-anchor="middle" x="1279.12" y="-62.5" font-family="Helvetica,sans-Serif" font-size="10.00">gdk&#45;pixbuf/gdk&#45;pixbuf.h</text>
</a>
</g>
</g>
<!-- Node9&#45;&gt;Node20 -->
<g id="edge23_Node000009_Node000020" class="edge">
<title>Node9&#45;&gt;Node20</title>
<g id="a_edge23_Node000009_Node000020"><a xlink:title=" ">
<path fill="none" stroke="#63b8ff" d="M656.33,-119.53C735.78,-114.81 988.35,-99 1209.03,-76.16"/>
<polygon fill="#63b8ff" stroke="#63b8ff" points="1209.09,-79.68 1218.67,-75.16 1208.36,-72.71 1209.09,-79.68"/>
</a>
</g>
</g>
<!-- Node21 -->
<g id="Node000021" class="node">
<title>Node21</title>
<g id="a_Node000021"><a xlink:title=" ">
<polygon fill="#e0e0e0" stroke="#999999" points="1446.62,-76 1355.62,-76 1355.62,-56 1446.62,-56 1446.62,-76"/>
<text text-anchor="middle" x="1401.12" y="-62.5" font-family="Helvetica,sans-Serif" font-size="10.00">pango/pangoft2.h</text>
</a>
</g>
</g>
<!-- Node9&#45;&gt;Node21 -->
<g id="edge24_Node000009_Node000021" class="edge">
<title>Node9&#45;&gt;Node21</title>
<g id="a_edge24_Node000009_Node000021"><a xlink:title=" ">
<path fill="none" stroke="#63b8ff" d="M656.26,-120.35C747.32,-117.81 1068.72,-107.14 1343.8,-76.28"/>
<polygon fill="#63b8ff" stroke="#63b8ff" points="1344.17,-79.76 1353.71,-75.15 1343.38,-72.8 1344.17,-79.76"/>
</a>
</g>
</g>
<!-- Node22 -->
<g id="Node000022" class="node">
<title>Node22</title>
<g id="a_Node000022"><a xlink:title=" ">
<polygon fill="#e0e0e0" stroke="#999999" points="1525.62,-76 1464.62,-76 1464.62,-56 1525.62,-56 1525.62,-76"/>
<text text-anchor="middle" x="1495.12" y="-62.5" font-family="Helvetica,sans-Serif" font-size="10.00">epoxy/gl.h</text>
</a>
</g>
</g>
<!-- Node9&#45;&gt;Node22 -->
<g id="edge25_Node000009_Node000022" class="edge">
<title>Node9&#45;&gt;Node22</title>
<g id="a_edge25_Node000009_Node000022"><a xlink:title=" ">
<path fill="none" stroke="#63b8ff" d="M656.25,-121.2C756.03,-121.68 1133.96,-120.37 1452.82,-76.25"/>
<polygon fill="#63b8ff" stroke="#63b8ff" points="1453.22,-79.72 1462.64,-74.87 1452.25,-72.79 1453.22,-79.72"/>
</a>
</g>
</g>
<!-- Node23 -->
<g id="Node000023" class="node">
<title>Node23</title>
<g id="a_Node000023"><a xlink:title=" ">
<polygon fill="#e0e0e0" stroke="#999999" points="1596.5,-76 1543.75,-76 1543.75,-56 1596.5,-56 1596.5,-76"/>
<text text-anchor="middle" x="1570.12" y="-62.5" font-family="Helvetica,sans-Serif" font-size="10.00">GL/glu.h</text>
</a>
</g>
</g>
<!-- Node9&#45;&gt;Node23 -->
<g id="edge26_Node000009_Node000023" class="edge">
<title>Node9&#45;&gt;Node23</title>
<g id="a_edge26_Node000009_Node000023"><a xlink:title=" ">
<path fill="none" stroke="#63b8ff" d="M656.09,-120.44C780.64,-117.54 1336.29,-103.38 1532.21,-76.09"/>
<polygon fill="#63b8ff" stroke="#63b8ff" points="1532.6,-79.57 1541.99,-74.66 1531.59,-72.64 1532.6,-79.57"/>
</a>
</g>
</g>
<!-- Node24 -->
<g id="Node000024" class="node">
<title>Node24</title>
<g id="a_Node000024"><a xlink:title=" ">
<polygon fill="#e0e0e0" stroke="#999999" points="270.25,-76 204,-76 204,-56 270.25,-56 270.25,-76"/>
<text text-anchor="middle" x="237.12" y="-62.5" font-family="Helvetica,sans-Serif" font-size="10.00">epoxy/glx.h</text>
</a>
</g>
</g>
<!-- Node9&#45;&gt;Node24 -->
<g id="edge27_Node000009_Node000024" class="edge">
<title>Node9&#45;&gt;Node24</title>
<g id="a_edge27_Node000009_Node000024"><a xlink:title=" ">
<path fill="none" stroke="#63b8ff" d="M605.91,-118.46C549.74,-112.65 409.82,-97.36 281.59,-76.11"/>
<polygon fill="#63b8ff" stroke="#63b8ff" points="282.34,-72.69 271.9,-74.49 281.19,-79.59 282.34,-72.69"/>
</a>
</g>
</g>
<!-- Node25 -->
<g id="Node000025" class="node">
<title>Node25</title>
<g id="a_Node000025"><a xlink:href="../../dc/db0/math__3d_8h.html" target="_top" xlink:title="Functions for OpenGL math.">
<polygon fill="white" stroke="#666666" points="662,-76 600.25,-76 600.25,-56 662,-56 662,-76"/>
<text text-anchor="middle" x="631.12" y="-62.5" font-family="Helvetica,sans-Serif" font-size="10.00">math_3d.h</text>
</a>
</g>
</g>
<!-- Node9&#45;&gt;Node25 -->
<g id="edge28_Node000009_Node000025" class="edge">
<title>Node9&#45;&gt;Node25</title>
<g id="a_edge28_Node000009_Node000025"><a xlink:title=" ">
<path fill="none" stroke="#63b8ff" d="M631.12,-111.59C631.12,-105.01 631.12,-95.96 631.12,-87.73"/>
<polygon fill="#63b8ff" stroke="#63b8ff" points="634.63,-87.81 631.13,-77.81 627.63,-87.81 634.63,-87.81"/>
</a>
</g>
</g>
<!-- Node26 -->
<g id="Node000026" class="node">
<title>Node26</title>
<g id="a_Node000026"><a xlink:href="../../da/d7e/glwin_8h.html" target="_top" xlink:title="Variable declarations related the OpenGL window &#160;&#160;Data structure declarations related the OpenGL wind...">
<polygon fill="white" stroke="#666666" points="335.5,-76 288.75,-76 288.75,-56 335.5,-56 335.5,-76"/>
<text text-anchor="middle" x="312.12" y="-62.5" font-family="Helvetica,sans-Serif" font-size="10.00">glwin.h</text>
</a>
</g>
</g>
<!-- Node9&#45;&gt;Node26 -->
<g id="edge31_Node000009_Node000026" class="edge">
<title>Node9&#45;&gt;Node26</title>
<g id="a_edge31_Node000009_Node000026"><a xlink:title=" ">
<path fill="none" stroke="#63b8ff" d="M605.99,-118.08C557.61,-112.24 448.03,-97.97 346.84,-76.39"/>
<polygon fill="#63b8ff" stroke="#63b8ff" points="347.81,-73.02 337.29,-74.32 346.32,-79.86 347.81,-73.02"/>
</a>
</g>
</g>
<!-- Node25&#45;&gt;Node8 -->
<g id="edge29_Node000025_Node000008" class="edge">
<title>Node25&#45;&gt;Node8</title>
<g id="a_edge29_Node000025_Node000008"><a xlink:title=" ">
<path fill="none" stroke="#63b8ff" d="M653.25,-55.59C673.16,-47.13 702.68,-34.58 725.33,-24.94"/>
<polygon fill="#63b8ff" stroke="#63b8ff" points="726.6,-28.21 734.44,-21.07 723.87,-21.76 726.6,-28.21"/>
</a>
</g>
</g>
<!-- Node25&#45;&gt;Node14 -->
<g id="edge30_Node000025_Node000014" class="edge">
<title>Node25&#45;&gt;Node14</title>
<g id="a_edge30_Node000025_Node000014"><a xlink:title=" ">
<path fill="none" stroke="#63b8ff" d="M625.9,-55.59C622.03,-48.63 616.62,-38.89 611.84,-30.29"/>
<polygon fill="#63b8ff" stroke="#63b8ff" points="614.94,-28.66 607.03,-21.62 608.82,-32.06 614.94,-28.66"/>
</a>
</g>
</g>
<!-- Node27 -->
<g id="Node000027" class="node">
<title>Node27</title>
<g id="a_Node000027"><a xlink:href="../../d5/d9e/ogl__shading_8h.html" target="_top" xlink:title="Variable declarations related to GLSL programs &#160;&#160;Data structure declarations related to GLSL programs...">
<polygon fill="white" stroke="#666666" points="350.12,-20 274.12,-20 274.12,0 350.12,0 350.12,-20"/>
<text text-anchor="middle" x="312.12" y="-6.5" font-family="Helvetica,sans-Serif" font-size="10.00">ogl_shading.h</text>
</a>
</g>
</g>
<!-- Node26&#45;&gt;Node27 -->
<g id="edge32_Node000026_Node000027" class="edge">
<title>Node26&#45;&gt;Node27</title>
<g id="a_edge32_Node000026_Node000027"><a xlink:title=" ">
<path fill="none" stroke="#63b8ff" d="M312.12,-55.59C312.12,-49.01 312.12,-39.96 312.12,-31.73"/>
<polygon fill="#63b8ff" stroke="#63b8ff" points="315.63,-31.81 312.13,-21.81 308.63,-31.81 315.63,-31.81"/>
</a>
</g>
</g>
<!-- Node31&#45;&gt;Node9 -->
<g id="edge37_Node000031_Node000009" class="edge">
<title>Node31&#45;&gt;Node9</title>
<g id="a_edge37_Node000031_Node000009"><a xlink:title=" ">
<path fill="none" stroke="#63b8ff" d="M504.72,-168.2C529.29,-159.42 567.32,-145.82 595.25,-135.83"/>
<polygon fill="#63b8ff" stroke="#63b8ff" points="596.12,-139.24 604.36,-132.57 593.76,-132.64 596.12,-139.24"/>
</a>
</g>
</g>
</g>
</svg>

<g id="navigator" transform="translate(0 0)" fill="#404254">
  <rect fill="#f2f5e9" fill-opacity="0.5" stroke="#606060" stroke-width=".5" x="0" y="0" width="60" height="60"/>
  <use id="zoomplus" xlink:href="#zoomPlus" x="17" y="9" onmousedown="handleZoom(evt,'in')"/>
  <use id="zoomminus" xlink:href="#zoomMin" x="42" y="9" onmousedown="handleZoom(evt,'out')"/>
  <use id="reset" xlink:href="#resetDef" x="30" y="36" onmousedown="handleReset()"/>
   <use id="arrowup" xlink:href="#arrowUp" x="0" y="0" onmousedown="handlePan(0,-1)"/>
  <use id="arrowright" xlink:href="#arrowRight" x="0" y="0" onmousedown="handlePan(1,0)"/>
  <use id="arrowdown" xlink:href="#arrowDown" x="0" y="0" onmousedown="handlePan(0,1)"/>
  <use id="arrowleft" xlink:href="#arrowLeft" x="0" y="0" onmousedown="handlePan(-1,0)"/>
</g>
<svg viewBox="0 0 15 15" width="100%" height="30px" preserveAspectRatio="xMaxYMin meet">
 <g id="arrow_out" transform="scale(0.3 0.3)">
  <a xlink:href="cedit_8c__incl_org.svg" target="_base">
   <rect id="button" ry="5" rx="5" y="6" x="6" height="38" width="38"
        fill="#f2f5e9" fill-opacity="0.5" stroke="#606060" stroke-width="1.0"/>
   <path id="arrow"
     d="M 11.500037,31.436501 C 11.940474,20.09759 22.043105,11.32322 32.158766,21.979434 L 37.068811,17.246167 C 37.068811,17.246167 37.088388,32 37.088388,32 L 22.160133,31.978069 C 22.160133,31.978069 26.997745,27.140456 26.997745,27.140456 C 18.528582,18.264221 13.291696,25.230495 11.500037,31.436501 z"
     style="fill:#404040;"/>
  </a>
 </g>
</svg>

<style type='text/css'>
<![CDATA[
[data-mouse-over-selected='false'] { opacity: 0.7; }
[data-mouse-over-selected='true']  { opacity: 1.0; }
]]>
</style>
<script type="application/ecmascript"><![CDATA[
document.addEventListener('DOMContentLoaded', (event) => {
  highlightEdges();
  highlightAdjacentNodes();
});
]]></script>
</svg>
