<?xml version="1.0" encoding="UTF-8" standalone="no"?>
<!DOCTYPE svg PUBLIC "-//W3C//DTD SVG 1.1//EN"
 "http://www.w3.org/Graphics/SVG/1.1/DTD/svg11.dtd">
<!-- Generated by graphviz version 7.1.0 (0)
 -->
<!-- Title: cbuild_action.c Pages: 1 -->
<!--zoomable 247 -->
<svg id="main" version="1.1" xmlns="http://www.w3.org/2000/svg" xmlns:xlink="http://www.w3.org/1999/xlink" xml:space="preserve" onload="init(evt)">
<style type="text/css"><![CDATA[
.edge:hover path { stroke: red; }
.edge:hover polygon { stroke: red; fill: red; }
]]></style>
<script type="text/javascript"><![CDATA[
var edges = document.getElementsByTagName('g');
if (edges && edges.length) {
  for (var i=0;i<edges.length;i++) {
    if (edges[i].id.substr(0,4)=='edge') {
      edges[i].setAttribute('class','edge');
    }
  }
}
]]></script>
        <defs>
                <circle id="rim" cx="0" cy="0" r="7"/>
                <circle id="rim2" cx="0" cy="0" r="3.5"/>
                <g id="zoomPlus">
                        <use xlink:href="#rim" fill="#404040">
                                <set attributeName="fill" to="#808080" begin="zoomplus.mouseover" end="zoomplus.mouseout"/>
                        </use>
                        <path d="M-4,0h8M0,-4v8" fill="none" stroke="white" stroke-width="1.5" pointer-events="none"/>
                </g>
                <g id="zoomMin">
                        <use xlink:href="#rim" fill="#404040">
                                <set attributeName="fill" to="#808080" begin="zoomminus.mouseover" end="zoomminus.mouseout"/>
                        </use>
                        <path d="M-4,0h8" fill="none" stroke="white" stroke-width="1.5" pointer-events="none"/>
                </g>
                <g id="dirArrow">
                        <path fill="none" stroke="white" stroke-width="1.5" d="M0,-3.0v7 M-2.5,-0.5L0,-3.0L2.5,-0.5"/>
                </g>
               <g id="resetDef">
                       <use xlink:href="#rim2" fill="#404040">
                               <set attributeName="fill" to="#808080" begin="reset.mouseover" end="reset.mouseout"/>
                       </use>
               </g>
        </defs>

<script type="text/javascript">
var viewWidth = 2053;
var viewHeight = 247;
var sectionId = 'dynsection-0';
</script>
<script xlink:href="../../svgpan.js"/>
<svg id="graph" class="graph">
<g id="viewport">
<title>cbuild_action.c</title>
<!-- Node1 -->
<g id="node1" class="node">
<title>Node1</title>
<g id="a_node1"><a xlink:title=" ">
<polygon fill="#999999" stroke="#666666" points="1440.5,-239 1358.5,-239 1358.5,-220 1440.5,-220 1440.5,-239"/>
<text text-anchor="middle" x="1399.5" y="-227" font-family="Helvetica,sans-Serif" font-size="10.00">cbuild_action.c</text>
</a>
</g>
</g>
<!-- Node2 -->
<g id="node2" class="node">
<title>Node2</title>
<g id="a_node2"><a xlink:href="../../d2/d49/global_8h.html" target="_top" xlink:title=" ">
<polygon fill="white" stroke="#666666" points="985.5,-129 935.5,-129 935.5,-110 985.5,-110 985.5,-129"/>
<text text-anchor="middle" x="960.5" y="-117" font-family="Helvetica,sans-Serif" font-size="10.00">global.h</text>
</a>
</g>
</g>
<!-- Node1&#45;&gt;Node2 -->
<g id="edge1" class="edge">
<title>Node1&#45;&gt;Node2</title>
<path fill="none" stroke="#63b8ff" d="M1358.24,-225.93C1300.01,-221.5 1190.84,-210.24 1101.5,-184 1059.66,-171.71 1014.15,-149.45 986.47,-134.82"/>
<polygon fill="#63b8ff" stroke="#63b8ff" points="988.24,-131.8 977.77,-130.16 984.93,-137.97 988.24,-131.8"/>
</g>
<!-- Node25 -->
<g id="node25" class="node">
<title>Node25</title>
<g id="a_node25"><a xlink:href="../../dd/d49/callbacks_8h.html" target="_top" xlink:title=" ">
<polygon fill="white" stroke="#666666" points="1176.5,-184 1110.5,-184 1110.5,-165 1176.5,-165 1176.5,-184"/>
<text text-anchor="middle" x="1143.5" y="-172" font-family="Helvetica,sans-Serif" font-size="10.00">callbacks.h</text>
</a>
</g>
</g>
<!-- Node1&#45;&gt;Node25 -->
<g id="edge26" class="edge">
<title>Node1&#45;&gt;Node25</title>
<path fill="none" stroke="#63b8ff" d="M1358.08,-219.93C1311.41,-210.26 1235.83,-194.62 1187.95,-184.7"/>
<polygon fill="#63b8ff" stroke="#63b8ff" points="1188.69,-181.28 1178.18,-182.68 1187.27,-188.14 1188.69,-181.28"/>
</g>
<!-- Node26 -->
<g id="node26" class="node">
<title>Node26</title>
<g id="a_node26"><a xlink:href="../../d4/da9/interface_8h.html" target="_top" xlink:title=" ">
<polygon fill="white" stroke="#666666" points="1256.5,-184 1194.5,-184 1194.5,-165 1256.5,-165 1256.5,-184"/>
<text text-anchor="middle" x="1225.5" y="-172" font-family="Helvetica,sans-Serif" font-size="10.00">interface.h</text>
</a>
</g>
</g>
<!-- Node1&#45;&gt;Node26 -->
<g id="edge27" class="edge">
<title>Node1&#45;&gt;Node26</title>
<path fill="none" stroke="#63b8ff" d="M1369.98,-219.51C1341.27,-210.76 1297.45,-197.42 1265.59,-187.71"/>
<polygon fill="#63b8ff" stroke="#63b8ff" points="1266.9,-184.45 1256.32,-184.89 1264.86,-191.15 1266.9,-184.45"/>
</g>
<!-- Node27 -->
<g id="node27" class="node">
<title>Node27</title>
<g id="a_node27"><a xlink:href="../../dc/de3/glview_8h.html" target="_top" xlink:title=" ">
<polygon fill="white" stroke="#666666" points="1326.5,-184 1274.5,-184 1274.5,-165 1326.5,-165 1326.5,-184"/>
<text text-anchor="middle" x="1300.5" y="-172" font-family="Helvetica,sans-Serif" font-size="10.00">glview.h</text>
</a>
</g>
</g>
<!-- Node1&#45;&gt;Node27 -->
<g id="edge28" class="edge">
<title>Node1&#45;&gt;Node27</title>
<path fill="none" stroke="#63b8ff" d="M1382.71,-219.51C1367.4,-211.31 1344.53,-199.07 1326.8,-189.58"/>
<polygon fill="#63b8ff" stroke="#63b8ff" points="1328.85,-186.71 1318.38,-185.07 1325.54,-192.88 1328.85,-186.71"/>
</g>
<!-- Node28 -->
<g id="node28" class="node">
<title>Node28</title>
<g id="a_node28"><a xlink:href="../../da/dc2/bind_8h.html" target="_top" xlink:title=" ">
<polygon fill="white" stroke="#666666" points="1388,-184 1345,-184 1345,-165 1388,-165 1388,-184"/>
<text text-anchor="middle" x="1366.5" y="-172" font-family="Helvetica,sans-Serif" font-size="10.00">bind.h</text>
</a>
</g>
</g>
<!-- Node1&#45;&gt;Node28 -->
<g id="edge29" class="edge">
<title>Node1&#45;&gt;Node28</title>
<path fill="none" stroke="#63b8ff" d="M1394.05,-219.75C1389.73,-212.81 1383.54,-202.86 1378.12,-194.16"/>
<polygon fill="#63b8ff" stroke="#63b8ff" points="1381.12,-192.37 1372.87,-185.73 1375.18,-196.07 1381.12,-192.37"/>
</g>
<!-- Node29 -->
<g id="node29" class="node">
<title>Node29</title>
<g id="a_node29"><a xlink:href="../../dc/d8d/project_8h.html" target="_top" xlink:title=" ">
<polygon fill="white" stroke="#666666" points="1460.5,-184 1406.5,-184 1406.5,-165 1460.5,-165 1460.5,-184"/>
<text text-anchor="middle" x="1433.5" y="-172" font-family="Helvetica,sans-Serif" font-size="10.00">project.h</text>
</a>
</g>
</g>
<!-- Node1&#45;&gt;Node29 -->
<g id="edge30" class="edge">
<title>Node1&#45;&gt;Node29</title>
<path fill="none" stroke="#63b8ff" d="M1405.11,-219.75C1409.62,-212.73 1416.09,-202.64 1421.71,-193.87"/>
<polygon fill="#63b8ff" stroke="#63b8ff" points="1424.49,-196.02 1426.95,-185.72 1418.6,-192.24 1424.49,-196.02"/>
</g>
<!-- Node30 -->
<g id="node30" class="node">
<title>Node30</title>
<g id="a_node30"><a xlink:href="../../d4/de6/workspace_8h.html" target="_top" xlink:title=" ">
<polygon fill="white" stroke="#666666" points="1550.5,-184 1478.5,-184 1478.5,-165 1550.5,-165 1550.5,-184"/>
<text text-anchor="middle" x="1514.5" y="-172" font-family="Helvetica,sans-Serif" font-size="10.00">workspace.h</text>
</a>
</g>
</g>
<!-- Node1&#45;&gt;Node30 -->
<g id="edge31" class="edge">
<title>Node1&#45;&gt;Node30</title>
<path fill="none" stroke="#63b8ff" d="M1419.01,-219.51C1437.13,-211.16 1464.35,-198.61 1485.1,-189.05"/>
<polygon fill="#63b8ff" stroke="#63b8ff" points="1486.29,-192.36 1493.91,-184.99 1483.36,-186 1486.29,-192.36"/>
</g>
<!-- Node31 -->
<g id="node31" class="node">
<title>Node31</title>
<g id="a_node31"><a xlink:href="../../de/d8a/cbuild__edit_8h.html" target="_top" xlink:title=" ">
<polygon fill="white" stroke="#666666" points="1640,-184 1569,-184 1569,-165 1640,-165 1640,-184"/>
<text text-anchor="middle" x="1604.5" y="-172" font-family="Helvetica,sans-Serif" font-size="10.00">cbuild_edit.h</text>
</a>
</g>
</g>
<!-- Node1&#45;&gt;Node31 -->
<g id="edge32" class="edge">
<title>Node1&#45;&gt;Node31</title>
<path fill="none" stroke="#63b8ff" d="M1434.28,-219.51C1468.69,-210.61 1521.54,-196.95 1559.22,-187.21"/>
<polygon fill="#63b8ff" stroke="#63b8ff" points="1559.63,-190.72 1568.43,-184.83 1557.87,-183.94 1559.63,-190.72"/>
</g>
<!-- Node33 -->
<g id="node33" class="node">
<title>Node33</title>
<g id="a_node33"><a xlink:href="../../d1/dfb/readers_8h.html" target="_top" xlink:title=" ">
<polygon fill="white" stroke="#666666" points="1715,-184 1658,-184 1658,-165 1715,-165 1715,-184"/>
<text text-anchor="middle" x="1686.5" y="-172" font-family="Helvetica,sans-Serif" font-size="10.00">readers.h</text>
</a>
</g>
</g>
<!-- Node1&#45;&gt;Node33 -->
<g id="edge35" class="edge">
<title>Node1&#45;&gt;Node33</title>
<path fill="none" stroke="#63b8ff" d="M1440.58,-221.72C1487.81,-213.8 1567.92,-199.99 1646.78,-184.27"/>
<polygon fill="#63b8ff" stroke="#63b8ff" points="1647.29,-187.73 1656.41,-182.34 1645.92,-180.87 1647.29,-187.73"/>
</g>
<!-- Node38 -->
<g id="node38" class="node">
<title>Node38</title>
<g id="a_node38"><a xlink:title=" ">
<polygon fill="#e0e0e0" stroke="#999999" points="1782,-184 1733,-184 1733,-165 1782,-165 1782,-184"/>
<text text-anchor="middle" x="1757.5" y="-172" font-family="Helvetica,sans-Serif" font-size="10.00">ctype.h</text>
</a>
</g>
</g>
<!-- Node1&#45;&gt;Node38 -->
<g id="edge41" class="edge">
<title>Node1&#45;&gt;Node38</title>
<path fill="none" stroke="#63b8ff" d="M1440.8,-224.4C1500.65,-218.12 1615.18,-204.83 1721.46,-184.41"/>
<polygon fill="#63b8ff" stroke="#63b8ff" points="1722.07,-187.86 1731.22,-182.51 1720.73,-180.99 1722.07,-187.86"/>
</g>
<!-- Node3 -->
<g id="node3" class="node">
<title>Node3</title>
<g id="a_node3"><a xlink:title=" ">
<polygon fill="#e0e0e0" stroke="#999999" points="1388.5,-74 1348.5,-74 1348.5,-55 1388.5,-55 1388.5,-74"/>
<text text-anchor="middle" x="1368.5" y="-62" font-family="Helvetica,sans-Serif" font-size="10.00">glib.h</text>
</a>
</g>
</g>
<!-- Node2&#45;&gt;Node3 -->
<g id="edge2" class="edge">
<title>Node2&#45;&gt;Node3</title>
<path fill="none" stroke="#63b8ff" d="M985.56,-117.02C1045.01,-113.2 1199.29,-101.49 1336.87,-74.22"/>
<polygon fill="#63b8ff" stroke="#63b8ff" points="1337.42,-77.68 1346.53,-72.27 1336.03,-70.82 1337.42,-77.68"/>
</g>
<!-- Node4 -->
<g id="node4" class="node">
<title>Node4</title>
<g id="a_node4"><a xlink:title=" ">
<polygon fill="#e0e0e0" stroke="#999999" points="1472.5,-74 1406.5,-74 1406.5,-55 1472.5,-55 1472.5,-74"/>
<text text-anchor="middle" x="1439.5" y="-62" font-family="Helvetica,sans-Serif" font-size="10.00">glib/gi18n.h</text>
</a>
</g>
</g>
<!-- Node2&#45;&gt;Node4 -->
<g id="edge3" class="edge">
<title>Node2&#45;&gt;Node4</title>
<path fill="none" stroke="#63b8ff" d="M985.73,-116.8C1051.44,-112.2 1233.38,-98.27 1394.98,-74.24"/>
<polygon fill="#63b8ff" stroke="#63b8ff" points="1395.22,-77.75 1404.59,-72.8 1394.18,-70.82 1395.22,-77.75"/>
</g>
<!-- Node5 -->
<g id="node5" class="node">
<title>Node5</title>
<g id="a_node5"><a xlink:title=" ">
<polygon fill="#e0e0e0" stroke="#999999" points="1540.5,-74 1490.5,-74 1490.5,-55 1540.5,-55 1540.5,-74"/>
<text text-anchor="middle" x="1515.5" y="-62" font-family="Helvetica,sans-Serif" font-size="10.00">locale.h</text>
</a>
</g>
</g>
<!-- Node2&#45;&gt;Node5 -->
<g id="edge4" class="edge">
<title>Node2&#45;&gt;Node5</title>
<path fill="none" stroke="#63b8ff" d="M985.89,-117.77C1060.25,-115.32 1284.04,-105.81 1479.02,-74.14"/>
<polygon fill="#63b8ff" stroke="#63b8ff" points="1479.55,-77.59 1488.85,-72.51 1478.41,-70.69 1479.55,-77.59"/>
</g>
<!-- Node6 -->
<g id="node6" class="node">
<title>Node6</title>
<g id="a_node6"><a xlink:title=" ">
<polygon fill="#e0e0e0" stroke="#999999" points="1610,-74 1559,-74 1559,-55 1610,-55 1610,-74"/>
<text text-anchor="middle" x="1584.5" y="-62" font-family="Helvetica,sans-Serif" font-size="10.00">unistd.h</text>
</a>
</g>
</g>
<!-- Node2&#45;&gt;Node6 -->
<g id="edge5" class="edge">
<title>Node2&#45;&gt;Node6</title>
<path fill="none" stroke="#63b8ff" d="M985.93,-118.06C1066.67,-116.33 1324.49,-108.46 1547.35,-74.05"/>
<polygon fill="#63b8ff" stroke="#63b8ff" points="1547.77,-77.53 1557.11,-72.52 1546.68,-70.61 1547.77,-77.53"/>
</g>
<!-- Node7 -->
<g id="node7" class="node">
<title>Node7</title>
<g id="a_node7"><a xlink:title=" ">
<polygon fill="#e0e0e0" stroke="#999999" points="49,-74 0,-74 0,-55 49,-55 49,-74"/>
<text text-anchor="middle" x="24.5" y="-62" font-family="Helvetica,sans-Serif" font-size="10.00">string.h</text>
</a>
</g>
</g>
<!-- Node2&#45;&gt;Node7 -->
<g id="edge6" class="edge">
<title>Node2&#45;&gt;Node7</title>
<path fill="none" stroke="#63b8ff" d="M935.03,-118.77C828.25,-119.57 406.24,-119.53 63.5,-74 62.48,-73.86 61.44,-73.72 60.4,-73.56"/>
<polygon fill="#63b8ff" stroke="#63b8ff" points="61.1,-70.13 50.64,-71.79 59.85,-77.01 61.1,-70.13"/>
</g>
<!-- Node8 -->
<g id="node8" class="node">
<title>Node8</title>
<g id="a_node8"><a xlink:title=" ">
<polygon fill="#e0e0e0" stroke="#999999" points="300.5,-19 254.5,-19 254.5,0 300.5,0 300.5,-19"/>
<text text-anchor="middle" x="277.5" y="-7" font-family="Helvetica,sans-Serif" font-size="10.00">stdio.h</text>
</a>
</g>
</g>
<!-- Node2&#45;&gt;Node8 -->
<g id="edge7" class="edge">
<title>Node2&#45;&gt;Node8</title>
<path fill="none" stroke="#63b8ff" d="M935.14,-118.17C795.57,-116.21 126.14,-105.21 96.5,-74 52.02,-27.17 178.8,-14.85 242.89,-11.63"/>
<polygon fill="#63b8ff" stroke="#63b8ff" points="242.73,-15.14 252.56,-11.2 242.42,-8.15 242.73,-15.14"/>
</g>
<!-- Node9 -->
<g id="node9" class="node">
<title>Node9</title>
<g id="a_node9"><a xlink:title=" ">
<polygon fill="#e0e0e0" stroke="#999999" points="153.5,-74 105.5,-74 105.5,-55 153.5,-55 153.5,-74"/>
<text text-anchor="middle" x="129.5" y="-62" font-family="Helvetica,sans-Serif" font-size="10.00">stdlib.h</text>
</a>
</g>
</g>
<!-- Node2&#45;&gt;Node9 -->
<g id="edge8" class="edge">
<title>Node2&#45;&gt;Node9</title>
<path fill="none" stroke="#63b8ff" d="M935.15,-118.89C837.05,-120.01 472.86,-120.72 165.27,-74.1"/>
<polygon fill="#63b8ff" stroke="#63b8ff" points="165.81,-70.64 155.39,-72.58 164.74,-77.56 165.81,-70.64"/>
</g>
<!-- Node10 -->
<g id="node10" class="node">
<title>Node10</title>
<g id="a_node10"><a xlink:title=" ">
<polygon fill="#e0e0e0" stroke="#999999" points="239.5,-74 171.5,-74 171.5,-55 239.5,-55 239.5,-74"/>
<text text-anchor="middle" x="205.5" y="-62" font-family="Helvetica,sans-Serif" font-size="10.00">sys/types.h</text>
</a>
</g>
</g>
<!-- Node2&#45;&gt;Node10 -->
<g id="edge9" class="edge">
<title>Node2&#45;&gt;Node10</title>
<path fill="none" stroke="#63b8ff" d="M935.16,-118.13C844.06,-116.55 524.55,-108.81 251.05,-74.14"/>
<polygon fill="#63b8ff" stroke="#63b8ff" points="251.57,-70.68 241.2,-72.88 250.67,-77.62 251.57,-70.68"/>
</g>
<!-- Node11 -->
<g id="node11" class="node">
<title>Node11</title>
<g id="a_node11"><a xlink:title=" ">
<polygon fill="#e0e0e0" stroke="#999999" points="317.5,-74 257.5,-74 257.5,-55 317.5,-55 317.5,-74"/>
<text text-anchor="middle" x="287.5" y="-62" font-family="Helvetica,sans-Serif" font-size="10.00">sys/stat.h</text>
</a>
</g>
</g>
<!-- Node2&#45;&gt;Node11 -->
<g id="edge10" class="edge">
<title>Node2&#45;&gt;Node11</title>
<path fill="none" stroke="#63b8ff" d="M935.29,-118.04C850.87,-116.21 570.28,-107.95 328.76,-74.1"/>
<polygon fill="#63b8ff" stroke="#63b8ff" points="329.55,-70.68 319.15,-72.74 328.56,-77.61 329.55,-70.68"/>
</g>
<!-- Node12 -->
<g id="node12" class="node">
<title>Node12</title>
<g id="a_node12"><a xlink:title=" ">
<polygon fill="#e0e0e0" stroke="#999999" points="478,-19 431,-19 431,0 478,0 478,-19"/>
<text text-anchor="middle" x="454.5" y="-7" font-family="Helvetica,sans-Serif" font-size="10.00">math.h</text>
</a>
</g>
</g>
<!-- Node2&#45;&gt;Node12 -->
<g id="edge11" class="edge">
<title>Node2&#45;&gt;Node12</title>
<path fill="none" stroke="#63b8ff" d="M985.78,-118.33C1049.28,-117.1 1206.93,-108.73 1156.5,-55 1133.43,-30.42 627.87,-15.14 489.33,-11.4"/>
<polygon fill="#63b8ff" stroke="#63b8ff" points="489.78,-7.91 479.69,-11.14 489.59,-14.91 489.78,-7.91"/>
</g>
<!-- Node13 -->
<g id="node13" class="node">
<title>Node13</title>
<g id="a_node13"><a xlink:title=" ">
<polygon fill="#e0e0e0" stroke="#999999" points="471,-74 416,-74 416,-55 471,-55 471,-74"/>
<text text-anchor="middle" x="443.5" y="-62" font-family="Helvetica,sans-Serif" font-size="10.00">gtk/gtk.h</text>
</a>
</g>
</g>
<!-- Node2&#45;&gt;Node13 -->
<g id="edge12" class="edge">
<title>Node2&#45;&gt;Node13</title>
<path fill="none" stroke="#63b8ff" d="M935.05,-117.4C864.58,-114.09 660.86,-102.73 482.5,-74.29"/>
<polygon fill="#63b8ff" stroke="#63b8ff" points="483.26,-70.86 472.82,-72.72 482.14,-77.77 483.26,-70.86"/>
</g>
<!-- Node14 -->
<g id="node14" class="node">
<title>Node14</title>
<g id="a_node14"><a xlink:title=" ">
<polygon fill="#e0e0e0" stroke="#999999" points="548,-74 489,-74 489,-55 548,-55 548,-74"/>
<text text-anchor="middle" x="518.5" y="-62" font-family="Helvetica,sans-Serif" font-size="10.00">gdk/gdk.h</text>
</a>
</g>
</g>
<!-- Node2&#45;&gt;Node14 -->
<g id="edge13" class="edge">
<title>Node2&#45;&gt;Node14</title>
<path fill="none" stroke="#63b8ff" d="M935.31,-116.7C873.13,-112.04 707.21,-98.38 559.37,-74.32"/>
<polygon fill="#63b8ff" stroke="#63b8ff" points="560.24,-70.92 549.8,-72.74 559.1,-77.82 560.24,-70.92"/>
</g>
<!-- Node15 -->
<g id="node15" class="node">
<title>Node15</title>
<g id="a_node15"><a xlink:title=" ">
<polygon fill="#e0e0e0" stroke="#999999" points="665,-74 566,-74 566,-55 665,-55 665,-74"/>
<text text-anchor="middle" x="615.5" y="-62" font-family="Helvetica,sans-Serif" font-size="10.00">gdk/gdkkeysyms.h</text>
</a>
</g>
</g>
<!-- Node2&#45;&gt;Node15 -->
<g id="edge14" class="edge">
<title>Node2&#45;&gt;Node15</title>
<path fill="none" stroke="#63b8ff" d="M935.13,-114.6C881,-106.29 752.86,-86.6 676.28,-74.84"/>
<polygon fill="#63b8ff" stroke="#63b8ff" points="677.28,-71.45 666.86,-73.39 676.22,-78.37 677.28,-71.45"/>
</g>
<!-- Node16 -->
<g id="node16" class="node">
<title>Node16</title>
<g id="a_node16"><a xlink:title=" ">
<polygon fill="#e0e0e0" stroke="#999999" points="801.5,-74 683.5,-74 683.5,-55 801.5,-55 801.5,-74"/>
<text text-anchor="middle" x="742.5" y="-62" font-family="Helvetica,sans-Serif" font-size="10.00">gdk&#45;pixbuf/gdk&#45;pixbuf.h</text>
</a>
</g>
</g>
<!-- Node2&#45;&gt;Node16 -->
<g id="edge15" class="edge">
<title>Node2&#45;&gt;Node16</title>
<path fill="none" stroke="#63b8ff" d="M935.07,-112.32C899.73,-103.73 835.11,-88.02 790.54,-77.18"/>
<polygon fill="#63b8ff" stroke="#63b8ff" points="791.4,-73.79 780.86,-74.83 789.75,-80.59 791.4,-73.79"/>
</g>
<!-- Node17 -->
<g id="node17" class="node">
<title>Node17</title>
<g id="a_node17"><a xlink:title=" ">
<polygon fill="#e0e0e0" stroke="#999999" points="911.5,-74 819.5,-74 819.5,-55 911.5,-55 911.5,-74"/>
<text text-anchor="middle" x="865.5" y="-62" font-family="Helvetica,sans-Serif" font-size="10.00">pango/pangoft2.h</text>
</a>
</g>
</g>
<!-- Node2&#45;&gt;Node17 -->
<g id="edge16" class="edge">
<title>Node2&#45;&gt;Node17</title>
<path fill="none" stroke="#63b8ff" d="M944.38,-109.51C929.83,-101.39 908.16,-89.3 891.21,-79.85"/>
<polygon fill="#63b8ff" stroke="#63b8ff" points="893.14,-76.91 882.7,-75.1 889.73,-83.02 893.14,-76.91"/>
</g>
<!-- Node18 -->
<g id="node18" class="node">
<title>Node18</title>
<g id="a_node18"><a xlink:title=" ">
<polygon fill="#e0e0e0" stroke="#999999" points="991.5,-74 929.5,-74 929.5,-55 991.5,-55 991.5,-74"/>
<text text-anchor="middle" x="960.5" y="-62" font-family="Helvetica,sans-Serif" font-size="10.00">epoxy/gl.h</text>
</a>
</g>
</g>
<!-- Node2&#45;&gt;Node18 -->
<g id="edge17" class="edge">
<title>Node2&#45;&gt;Node18</title>
<path fill="none" stroke="#63b8ff" d="M960.5,-109.75C960.5,-103.27 960.5,-94.16 960.5,-85.9"/>
<polygon fill="#63b8ff" stroke="#63b8ff" points="964,-85.96 960.5,-75.96 957,-85.96 964,-85.96"/>
</g>
<!-- Node19 -->
<g id="node19" class="node">
<title>Node19</title>
<g id="a_node19"><a xlink:title=" ">
<polygon fill="#e0e0e0" stroke="#999999" points="1063,-74 1010,-74 1010,-55 1063,-55 1063,-74"/>
<text text-anchor="middle" x="1036.5" y="-62" font-family="Helvetica,sans-Serif" font-size="10.00">GL/glu.h</text>
</a>
</g>
</g>
<!-- Node2&#45;&gt;Node19 -->
<g id="edge18" class="edge">
<title>Node2&#45;&gt;Node19</title>
<path fill="none" stroke="#63b8ff" d="M973.39,-109.51C984.6,-101.7 1001.07,-90.21 1014.38,-80.93"/>
<polygon fill="#63b8ff" stroke="#63b8ff" points="1016.36,-83.81 1022.56,-75.22 1012.35,-78.07 1016.36,-83.81"/>
</g>
<!-- Node20 -->
<g id="node20" class="node">
<title>Node20</title>
<g id="a_node20"><a xlink:title=" ">
<polygon fill="#e0e0e0" stroke="#999999" points="1148,-74 1081,-74 1081,-55 1148,-55 1148,-74"/>
<text text-anchor="middle" x="1114.5" y="-62" font-family="Helvetica,sans-Serif" font-size="10.00">epoxy/glx.h</text>
</a>
</g>
</g>
<!-- Node2&#45;&gt;Node20 -->
<g id="edge19" class="edge">
<title>Node2&#45;&gt;Node20</title>
<path fill="none" stroke="#63b8ff" d="M985.93,-109.75C1010.97,-101.13 1049.47,-87.88 1077.82,-78.12"/>
<polygon fill="#63b8ff" stroke="#63b8ff" points="1078.77,-81.5 1087.09,-74.93 1076.49,-74.88 1078.77,-81.5"/>
</g>
<!-- Node21 -->
<g id="node21" class="node">
<title>Node21</title>
<g id="a_node21"><a xlink:href="../../dc/db0/math__3d_8h.html" target="_top" xlink:title=" ">
<polygon fill="white" stroke="#666666" points="397.5,-74 335.5,-74 335.5,-55 397.5,-55 397.5,-74"/>
<text text-anchor="middle" x="366.5" y="-62" font-family="Helvetica,sans-Serif" font-size="10.00">math_3d.h</text>
</a>
</g>
</g>
<!-- Node2&#45;&gt;Node21 -->
<g id="edge20" class="edge">
<title>Node2&#45;&gt;Node21</title>
<path fill="none" stroke="#63b8ff" d="M935.25,-117.63C857.98,-114.74 617.81,-103.93 409.05,-74.18"/>
<polygon fill="#63b8ff" stroke="#63b8ff" points="409.77,-70.75 399.37,-72.78 408.77,-77.68 409.77,-70.75"/>
</g>
<!-- Node22 -->
<g id="node22" class="node">
<title>Node22</title>
<g id="a_node22"><a xlink:href="../../da/d7e/glwin_8h.html" target="_top" xlink:title=" ">
<polygon fill="white" stroke="#666666" points="1252,-74 1205,-74 1205,-55 1252,-55 1252,-74"/>
<text text-anchor="middle" x="1228.5" y="-62" font-family="Helvetica,sans-Serif" font-size="10.00">glwin.h</text>
</a>
</g>
</g>
<!-- Node2&#45;&gt;Node22 -->
<g id="edge23" class="edge">
<title>Node2&#45;&gt;Node22</title>
<path fill="none" stroke="#63b8ff" d="M985.73,-113.87C1028.11,-106.03 1116.25,-89.48 1190.5,-74 1191.51,-73.79 1192.54,-73.57 1193.58,-73.35"/>
<polygon fill="#63b8ff" stroke="#63b8ff" points="1194.3,-76.78 1203.33,-71.23 1192.81,-69.94 1194.3,-76.78"/>
</g>
<!-- Node24 -->
<g id="node24" class="node">
<title>Node24</title>
<g id="a_node24"><a xlink:title=" ">
<polygon fill="#e0e0e0" stroke="#999999" points="1330.5,-74 1270.5,-74 1270.5,-55 1330.5,-55 1330.5,-74"/>
<text text-anchor="middle" x="1300.5" y="-62" font-family="Helvetica,sans-Serif" font-size="10.00">gtk/gtkx.h</text>
</a>
</g>
</g>
<!-- Node2&#45;&gt;Node24 -->
<g id="edge25" class="edge">
<title>Node2&#45;&gt;Node24</title>
<path fill="none" stroke="#63b8ff" d="M985.87,-115.28C1035.94,-108.8 1151.2,-93.33 1259.29,-74.1"/>
<polygon fill="#63b8ff" stroke="#63b8ff" points="1259.68,-77.59 1268.91,-72.37 1258.45,-70.7 1259.68,-77.59"/>
</g>
<!-- Node21&#45;&gt;Node8 -->
<g id="edge22" class="edge">
<title>Node21&#45;&gt;Node8</title>
<path fill="none" stroke="#63b8ff" d="M351.4,-54.51C337.9,-46.47 317.85,-34.53 302.04,-25.11"/>
<polygon fill="#63b8ff" stroke="#63b8ff" points="304.06,-22.24 293.68,-20.13 300.48,-28.26 304.06,-22.24"/>
</g>
<!-- Node21&#45;&gt;Node12 -->
<g id="edge21" class="edge">
<title>Node21&#45;&gt;Node12</title>
<path fill="none" stroke="#63b8ff" d="M381.43,-54.51C394.78,-46.47 414.61,-34.53 430.24,-25.11"/>
<polygon fill="#63b8ff" stroke="#63b8ff" points="431.74,-28.3 438.5,-20.14 428.12,-22.3 431.74,-28.3"/>
</g>
<!-- Node23 -->
<g id="node23" class="node">
<title>Node23</title>
<g id="a_node23"><a xlink:href="../../d5/d9e/ogl__shading_8h.html" target="_top" xlink:title=" ">
<polygon fill="white" stroke="#666666" points="1267,-19 1190,-19 1190,0 1267,0 1267,-19"/>
<text text-anchor="middle" x="1228.5" y="-7" font-family="Helvetica,sans-Serif" font-size="10.00">ogl_shading.h</text>
</a>
</g>
</g>
<!-- Node22&#45;&gt;Node23 -->
<g id="edge24" class="edge">
<title>Node22&#45;&gt;Node23</title>
<path fill="none" stroke="#63b8ff" d="M1228.5,-54.75C1228.5,-48.27 1228.5,-39.16 1228.5,-30.9"/>
<polygon fill="#63b8ff" stroke="#63b8ff" points="1232,-30.96 1228.5,-20.96 1225,-30.96 1232,-30.96"/>
</g>
<!-- Node31&#45;&gt;Node2 -->
<g id="edge33" class="edge">
<title>Node31&#45;&gt;Node2</title>
<path fill="none" stroke="#63b8ff" d="M1568.7,-166.36C1565.59,-165.86 1562.5,-165.39 1559.5,-165 1347.53,-137.2 1090.9,-125.39 997.09,-121.78"/>
<polygon fill="#63b8ff" stroke="#63b8ff" points="997.35,-118.29 987.22,-121.41 997.09,-125.29 997.35,-118.29"/>
</g>
<!-- Node32 -->
<g id="node32" class="node">
<title>Node32</title>
<g id="a_node32"><a xlink:title=" ">
<polygon fill="#e0e0e0" stroke="#999999" points="1724.5,-74 1628.5,-74 1628.5,-55 1724.5,-55 1724.5,-74"/>
<text text-anchor="middle" x="1676.5" y="-62" font-family="Helvetica,sans-Serif" font-size="10.00">libxml/xmlreader.h</text>
</a>
</g>
</g>
<!-- Node31&#45;&gt;Node32 -->
<g id="edge34" class="edge">
<title>Node31&#45;&gt;Node32</title>
<path fill="none" stroke="#63b8ff" d="M1610.39,-164.66C1622.1,-147.1 1648.51,-107.48 1664.18,-83.98"/>
<polygon fill="#63b8ff" stroke="#63b8ff" points="1667.05,-85.98 1669.69,-75.72 1661.23,-82.1 1667.05,-85.98"/>
</g>
<!-- Node34 -->
<g id="node34" class="node">
<title>Node34</title>
<g id="a_node34"><a xlink:href="../../dc/d50/read__isaacs_8h.html" target="_top" xlink:title=" ">
<polygon fill="white" stroke="#666666" points="1828,-129 1751,-129 1751,-110 1828,-110 1828,-129"/>
<text text-anchor="middle" x="1789.5" y="-117" font-family="Helvetica,sans-Serif" font-size="10.00">read_isaacs.h</text>
</a>
</g>
</g>
<!-- Node33&#45;&gt;Node34 -->
<g id="edge36" class="edge">
<title>Node33&#45;&gt;Node34</title>
<path fill="none" stroke="#63b8ff" d="M1703.97,-164.51C1719.9,-156.31 1743.69,-144.07 1762.14,-134.58"/>
<polygon fill="#63b8ff" stroke="#63b8ff" points="1763.65,-137.74 1770.94,-130.05 1760.45,-131.51 1763.65,-137.74"/>
</g>
<!-- Node34&#45;&gt;Node32 -->
<g id="edge39" class="edge">
<title>Node34&#45;&gt;Node32</title>
<path fill="none" stroke="#63b8ff" d="M1770.33,-109.51C1752.61,-101.2 1726.02,-88.73 1705.67,-79.18"/>
<polygon fill="#63b8ff" stroke="#63b8ff" points="1707.3,-76.08 1696.76,-75 1704.32,-82.42 1707.3,-76.08"/>
</g>
<!-- Node35 -->
<g id="node35" class="node">
<title>Node35</title>
<g id="a_node35"><a xlink:title=" ">
<polygon fill="#e0e0e0" stroke="#999999" points="2044.5,-74 1952.5,-74 1952.5,-55 2044.5,-55 2044.5,-74"/>
<text text-anchor="middle" x="1998.5" y="-62" font-family="Helvetica,sans-Serif" font-size="10.00">libxml/encoding.h</text>
</a>
</g>
</g>
<!-- Node34&#45;&gt;Node35 -->
<g id="edge37" class="edge">
<title>Node34&#45;&gt;Node35</title>
<path fill="none" stroke="#63b8ff" d="M1824.95,-109.51C1860.04,-100.61 1913.92,-86.95 1952.33,-77.21"/>
<polygon fill="#63b8ff" stroke="#63b8ff" points="1952.92,-80.67 1961.75,-74.82 1951.2,-73.88 1952.92,-80.67"/>
</g>
<!-- Node36 -->
<g id="node36" class="node">
<title>Node36</title>
<g id="a_node36"><a xlink:title=" ">
<polygon fill="#e0e0e0" stroke="#999999" points="1836,-74 1743,-74 1743,-55 1836,-55 1836,-74"/>
<text text-anchor="middle" x="1789.5" y="-62" font-family="Helvetica,sans-Serif" font-size="10.00">libxml/xmlwriter.h</text>
</a>
</g>
</g>
<!-- Node34&#45;&gt;Node36 -->
<g id="edge38" class="edge">
<title>Node34&#45;&gt;Node36</title>
<path fill="none" stroke="#63b8ff" d="M1789.5,-109.75C1789.5,-103.27 1789.5,-94.16 1789.5,-85.9"/>
<polygon fill="#63b8ff" stroke="#63b8ff" points="1793,-85.96 1789.5,-75.96 1786,-85.96 1793,-85.96"/>
</g>
<!-- Node37 -->
<g id="node37" class="node">
<title>Node37</title>
<g id="a_node37"><a xlink:title=" ">
<polygon fill="#e0e0e0" stroke="#999999" points="1934.5,-74 1854.5,-74 1854.5,-55 1934.5,-55 1934.5,-74"/>
<text text-anchor="middle" x="1894.5" y="-62" font-family="Helvetica,sans-Serif" font-size="10.00">libxml/parser.h</text>
</a>
</g>
</g>
<!-- Node34&#45;&gt;Node37 -->
<g id="edge40" class="edge">
<title>Node34&#45;&gt;Node37</title>
<path fill="none" stroke="#63b8ff" d="M1807.31,-109.51C1823.63,-101.27 1848.03,-88.96 1866.87,-79.45"/>
<polygon fill="#63b8ff" stroke="#63b8ff" points="1868.25,-82.67 1875.6,-75.04 1865.1,-76.42 1868.25,-82.67"/>
</g>
</g>
</svg>
        <g id="navigator" transform="translate(0 0)" fill="#404254">
                <rect fill="#f2f5e9" fill-opacity="0.5" stroke="#606060" stroke-width=".5" x="0" y="0" width="60" height="60"/>
                <use id="zoomplus" xlink:href="#zoomPlus" x="17" y="9" onmousedown="handleZoom(evt,'in')"/>
                <use id="zoomminus" xlink:href="#zoomMin" x="42" y="9" onmousedown="handleZoom(evt,'out')"/>
                <use id="reset" xlink:href="#resetDef" x="30" y="36" onmousedown="handleReset()"/>
                <g id="arrowUp" xlink:href="#dirArrow" transform="translate(30 24)" onmousedown="handlePan(0,-1)">
                  <use xlink:href="#rim" fill="#404040">
                        <set attributeName="fill" to="#808080" begin="arrowUp.mouseover" end="arrowUp.mouseout"/>
                  </use>
                  <path fill="none" stroke="white" stroke-width="1.5" d="M0,-3.0v7 M-2.5,-0.5L0,-3.0L2.5,-0.5"/>
                </g>
                <g id="arrowRight" xlink:href="#dirArrow" transform="rotate(90) translate(36 -43)" onmousedown="handlePan(1,0)">
                  <use xlink:href="#rim" fill="#404040">
                        <set attributeName="fill" to="#808080" begin="arrowRight.mouseover" end="arrowRight.mouseout"/>
                  </use>
                  <path fill="none" stroke="white" stroke-width="1.5" d="M0,-3.0v7 M-2.5,-0.5L0,-3.0L2.5,-0.5"/>
                </g>
                <g id="arrowDown" xlink:href="#dirArrow" transform="rotate(180) translate(-30 -48)" onmousedown="handlePan(0,1)">
                  <use xlink:href="#rim" fill="#404040">
                        <set attributeName="fill" to="#808080" begin="arrowDown.mouseover" end="arrowDown.mouseout"/>
                  </use>
                  <path fill="none" stroke="white" stroke-width="1.5" d="M0,-3.0v7 M-2.5,-0.5L0,-3.0L2.5,-0.5"/>
                </g>
                <g id="arrowLeft" xlink:href="#dirArrow" transform="rotate(270) translate(-36 17)" onmousedown="handlePan(-1,0)">
                  <use xlink:href="#rim" fill="#404040">
                        <set attributeName="fill" to="#808080" begin="arrowLeft.mouseover" end="arrowLeft.mouseout"/>
                  </use>
                  <path fill="none" stroke="white" stroke-width="1.5" d="M0,-3.0v7 M-2.5,-0.5L0,-3.0L2.5,-0.5"/>
                </g>
        </g>
        <svg viewBox="0 0 15 15" width="100%" height="30px" preserveAspectRatio="xMaxYMin meet">
         <g id="arrow_out" transform="scale(0.3 0.3)">
          <a xlink:href="cbuild__action_8c__incl_org.svg" target="_base">
           <rect id="button" ry="5" rx="5" y="6" x="6" height="38" width="38"
                fill="#f2f5e9" fill-opacity="0.5" stroke="#606060" stroke-width="1.0"/>
           <path id="arrow"
             d="M 11.500037,31.436501 C 11.940474,20.09759 22.043105,11.32322 32.158766,21.979434 L 37.068811,17.246167 C 37.068811,17.246167 37.088388,32 37.088388,32 L 22.160133,31.978069 C 22.160133,31.978069 26.997745,27.140456 26.997745,27.140456 C 18.528582,18.264221 13.291696,25.230495 11.500037,31.436501 z"
             style="fill:#404040;"/>
          </a>
         </g>
        </svg>
</svg>
