<?xml version="1.0" encoding="UTF-8" standalone="no"?>
<!DOCTYPE svg PUBLIC "-//W3C//DTD SVG 1.1//EN"
 "http://www.w3.org/Graphics/SVG/1.1/DTD/svg11.dtd">
<!-- Generated by graphviz version 9.0.0 (20230911.1827)
 -->
<!-- Title: opengl/edit/cbuild_action.c Pages: 1 -->
<!--zoomable 264 -->

<svg id="main" version="1.1" xmlns="http://www.w3.org/2000/svg" xmlns:xlink="http://www.w3.org/1999/xlink" xml:space="preserve" onload="init(evt)">
<style type="text/css"><![CDATA[
.node, .edge {opacity: 0.7;}
.node.selected, .edge.selected {opacity: 1;}
.edge:hover path { stroke: red; }
.edge:hover polygon { stroke: red; fill: red; }
]]></style>

<defs>
  <circle id="rim" cx="0" cy="0" r="7"/>
  <circle id="rim2" cx="0" cy="0" r="3.5"/>
  <g id="zoomPlus">
    <use xlink:href="#rim" fill="#404040"><set attributeName="fill" to="#808080" begin="zoomplus.mouseover" end="zoomplus.mouseout"/></use>
    <path d="M-4,0h8M0,-4v8" fill="none" stroke="white" stroke-width="1.5" pointer-events="none"/>
  </g>
  <g id="zoomMin">
    <use xlink:href="#rim" fill="#404040"><set attributeName="fill" to="#808080" begin="zoomminus.mouseover" end="zoomminus.mouseout"/></use>
    <path d="M-4,0h8" fill="none" stroke="white" stroke-width="1.5" pointer-events="none"/>
  </g>
  <g id="arrowUp" transform="translate(30 24)">
    <use xlink:href="#rim"/>
    <path pointer-events="none" fill="none" stroke="white" stroke-width="1.5" d="M0,-3.0v7 M-2.5,-0.5L0,-3.0L2.5,-0.5"/>
  </g>
  <g id="arrowRight" transform="rotate(90) translate(36 -43)">
    <use xlink:href="#rim"/>
    <path pointer-events="none" fill="none" stroke="white" stroke-width="1.5" d="M0,-3.0v7 M-2.5,-0.5L0,-3.0L2.5,-0.5"/>
  </g>
  <g id="arrowDown" transform="rotate(180) translate(-30 -48)">
    <use xlink:href="#rim"/>
    <path pointer-events="none" fill="none" stroke="white" stroke-width="1.5" d="M0,-3.0v7 M-2.5,-0.5L0,-3.0L2.5,-0.5"/>
  </g>
  <g id="arrowLeft" transform="rotate(270) translate(-36 17)">
    <use xlink:href="#rim"/>
    <path pointer-events="none" fill="none" stroke="white" stroke-width="1.5" d="M0,-3.0v7 M-2.5,-0.5L0,-3.0L2.5,-0.5"/>
  </g>
  <g id="resetDef">
    <use xlink:href="#rim2" fill="#404040"><set attributeName="fill" to="#808080" begin="reset.mouseover" end="reset.mouseout"/></use>
  </g>
</defs>
<script type="application/ecmascript">
var viewWidth = 2036;
var viewHeight = 264;
var sectionId = 'dynsection-0';
</script>
<script type="application/ecmascript" xlink:href="../../svg.min.js"/>
<svg id="graph" class="graph">
<g id="viewport">
<title>opengl/edit/cbuild_action.c</title>
<!-- Node1 -->
<g id="Node000001" class="node">
<title>Node1</title>
<g id="a_Node000001"><a xlink:title="Functions to build a crystal using space group, crystallographic position(s) and object(s) to insert.">
<polygon fill="#999999" stroke="#666666" points="842.25,-256 750.5,-256 750.5,-224 842.25,-224 842.25,-256"/>
<text text-anchor="start" x="758.5" y="-242.5" font-family="Helvetica,sans-Serif" font-size="10.00">opengl/edit/cbuild</text>
<text text-anchor="middle" x="796.38" y="-230.5" font-family="Helvetica,sans-Serif" font-size="10.00">_action.c</text>
</a>
</g>
</g>
<!-- Node2 -->
<g id="Node000002" class="node">
<title>Node2</title>
<g id="a_Node000002"><a xlink:href="../../d2/d49/global_8h.html" target="_top" xlink:title="Global variable declarations &#160;&#160;Global convenience function declarations &#160;&#160;Global data structure defin...">
<polygon fill="white" stroke="#666666" points="981.25,-132 931.5,-132 931.5,-112 981.25,-112 981.25,-132"/>
<text text-anchor="middle" x="956.38" y="-118.5" font-family="Helvetica,sans-Serif" font-size="10.00">global.h</text>
</a>
</g>
</g>
<!-- Node1&#45;&gt;Node2 -->
<g id="edge1_Node000001_Node000002" class="edge">
<title>Node1&#45;&gt;Node2</title>
<g id="a_edge1_Node000001_Node000002"><a xlink:title=" ">
<path fill="none" stroke="#63b8ff" d="M817.62,-223.6C848,-201.57 903.56,-161.29 934.35,-138.97"/>
<polygon fill="#63b8ff" stroke="#63b8ff" points="936.15,-141.98 942.19,-133.28 932.04,-136.32 936.15,-141.98"/>
</a>
</g>
</g>
<!-- Node25 -->
<g id="Node000025" class="node">
<title>Node25</title>
<g id="a_Node000025"><a xlink:href="../../dd/d49/callbacks_8h.html" target="_top" xlink:title="Callback declarations for main window.">
<polygon fill="white" stroke="#666666" points="380.12,-132 314.62,-132 314.62,-112 380.12,-112 380.12,-132"/>
<text text-anchor="middle" x="347.38" y="-118.5" font-family="Helvetica,sans-Serif" font-size="10.00">callbacks.h</text>
</a>
</g>
</g>
<!-- Node1&#45;&gt;Node25 -->
<g id="edge26_Node000001_Node000025" class="edge">
<title>Node1&#45;&gt;Node25</title>
<g id="a_edge26_Node000001_Node000025"><a xlink:title=" ">
<path fill="none" stroke="#63b8ff" d="M750.04,-233.13C694.38,-225.48 598.48,-210.37 518.38,-188 468.42,-174.05 412.6,-151.44 378.74,-136.9"/>
<polygon fill="#63b8ff" stroke="#63b8ff" points="380.51,-133.85 369.94,-133.09 377.72,-140.28 380.51,-133.85"/>
</a>
</g>
</g>
<!-- Node26 -->
<g id="Node000026" class="node">
<title>Node26</title>
<g id="a_Node000026"><a xlink:href="../../d4/da9/interface_8h.html" target="_top" xlink:title="Messaging function declarations.">
<polygon fill="white" stroke="#666666" points="460.25,-132 398.5,-132 398.5,-112 460.25,-112 460.25,-132"/>
<text text-anchor="middle" x="429.38" y="-118.5" font-family="Helvetica,sans-Serif" font-size="10.00">interface.h</text>
</a>
</g>
</g>
<!-- Node1&#45;&gt;Node26 -->
<g id="edge27_Node000001_Node000026" class="edge">
<title>Node1&#45;&gt;Node26</title>
<g id="a_edge27_Node000001_Node000026"><a xlink:title=" ">
<path fill="none" stroke="#63b8ff" d="M750.36,-231.64C703.94,-223.53 630.56,-208.81 569.38,-188 528.84,-174.21 484.36,-152.31 456.66,-137.8"/>
<polygon fill="#63b8ff" stroke="#63b8ff" points="458.37,-134.75 447.9,-133.16 455.09,-140.93 458.37,-134.75"/>
</a>
</g>
</g>
<!-- Node27 -->
<g id="Node000027" class="node">
<title>Node27</title>
<g id="a_Node000027"><a xlink:href="../../dc/de3/glview_8h.html" target="_top" xlink:title="Variable declarations related to the OpenGL window &#160;&#160;Function declarations related to the OpenGL wind...">
<polygon fill="white" stroke="#666666" points="530,-132 478.75,-132 478.75,-112 530,-112 530,-132"/>
<text text-anchor="middle" x="504.38" y="-118.5" font-family="Helvetica,sans-Serif" font-size="10.00">glview.h</text>
</a>
</g>
</g>
<!-- Node1&#45;&gt;Node27 -->
<g id="edge28_Node000001_Node000027" class="edge">
<title>Node1&#45;&gt;Node27</title>
<g id="a_edge28_Node000001_Node000027"><a xlink:title=" ">
<path fill="none" stroke="#63b8ff" d="M750.16,-230.28C711.53,-222.09 655.51,-208.07 609.38,-188 578.79,-174.7 546.61,-153.56 526.06,-139.03"/>
<polygon fill="#63b8ff" stroke="#63b8ff" points="528.36,-136.37 518.2,-133.37 524.27,-142.05 528.36,-136.37"/>
</a>
</g>
</g>
<!-- Node28 -->
<g id="Node000028" class="node">
<title>Node28</title>
<g id="a_Node000028"><a xlink:href="../../da/dc2/bind_8h.html" target="_top" xlink:title="Binding to the Fortran90 subroutines.">
<polygon fill="white" stroke="#666666" points="590.5,-132 548.25,-132 548.25,-112 590.5,-112 590.5,-132"/>
<text text-anchor="middle" x="569.38" y="-118.5" font-family="Helvetica,sans-Serif" font-size="10.00">bind.h</text>
</a>
</g>
</g>
<!-- Node1&#45;&gt;Node28 -->
<g id="edge29_Node000001_Node000028" class="edge">
<title>Node1&#45;&gt;Node28</title>
<g id="a_edge29_Node000001_Node000028"><a xlink:title=" ">
<path fill="none" stroke="#63b8ff" d="M750.21,-230.02C717.17,-222.25 672.5,-208.9 637.38,-188 616.42,-175.53 596.78,-155.5 584.05,-140.97"/>
<polygon fill="#63b8ff" stroke="#63b8ff" points="586.85,-138.86 577.71,-133.5 581.51,-143.39 586.85,-138.86"/>
</a>
</g>
</g>
<!-- Node29 -->
<g id="Node000029" class="node">
<title>Node29</title>
<g id="a_Node000029"><a xlink:href="../../dc/d8d/project_8h.html" target="_top" xlink:title="Function declarations for reading atomes project file &#160;&#160;Function declarations for saving atomes proje...">
<polygon fill="white" stroke="#666666" points="823.12,-132 769.62,-132 769.62,-112 823.12,-112 823.12,-132"/>
<text text-anchor="middle" x="796.38" y="-118.5" font-family="Helvetica,sans-Serif" font-size="10.00">project.h</text>
</a>
</g>
</g>
<!-- Node1&#45;&gt;Node29 -->
<g id="edge30_Node000001_Node000029" class="edge">
<title>Node1&#45;&gt;Node29</title>
<g id="a_edge30_Node000001_Node000029"><a xlink:title=" ">
<path fill="none" stroke="#63b8ff" d="M796.38,-223.84C796.38,-203.41 796.38,-166.97 796.38,-143.95"/>
<polygon fill="#63b8ff" stroke="#63b8ff" points="799.88,-143.95 796.38,-133.95 792.88,-143.95 799.88,-143.95"/>
</a>
</g>
</g>
<!-- Node30 -->
<g id="Node000030" class="node">
<title>Node30</title>
<g id="a_Node000030"><a xlink:href="../../d4/de6/workspace_8h.html" target="_top" xlink:title="Function declarations for workspace managment.">
<polygon fill="white" stroke="#666666" points="913.12,-132 841.62,-132 841.62,-112 913.12,-112 913.12,-132"/>
<text text-anchor="middle" x="877.38" y="-118.5" font-family="Helvetica,sans-Serif" font-size="10.00">workspace.h</text>
</a>
</g>
</g>
<!-- Node1&#45;&gt;Node30 -->
<g id="edge31_Node000001_Node000030" class="edge">
<title>Node1&#45;&gt;Node30</title>
<g id="a_edge31_Node000001_Node000030"><a xlink:title=" ">
<path fill="none" stroke="#63b8ff" d="M806.96,-223.84C821.69,-202.75 848.34,-164.58 864.29,-141.74"/>
<polygon fill="#63b8ff" stroke="#63b8ff" points="867.06,-143.88 869.92,-133.68 861.32,-139.87 867.06,-143.88"/>
</a>
</g>
</g>
<!-- Node31 -->
<g id="Node000031" class="node">
<title>Node31</title>
<g id="a_Node000031"><a xlink:href="../../d5/d9c/atom__edit_8h.html" target="_top" xlink:title="Function declarations for the mode edition window.">
<polygon fill="white" stroke="#666666" points="713.88,-188 646.88,-188 646.88,-168 713.88,-168 713.88,-188"/>
<text text-anchor="middle" x="680.38" y="-174.5" font-family="Helvetica,sans-Serif" font-size="10.00">atom_edit.h</text>
</a>
</g>
</g>
<!-- Node1&#45;&gt;Node31 -->
<g id="edge32_Node000001_Node000031" class="edge">
<title>Node1&#45;&gt;Node31</title>
<g id="a_edge32_Node000001_Node000031"><a xlink:title=" ">
<path fill="none" stroke="#63b8ff" d="M766.5,-223.55C748.71,-214.35 726.27,-202.74 708.75,-193.68"/>
<polygon fill="#63b8ff" stroke="#63b8ff" points="710.4,-190.59 699.91,-189.1 707.18,-196.81 710.4,-190.59"/>
</a>
</g>
</g>
<!-- Node34 -->
<g id="Node000034" class="node">
<title>Node34</title>
<g id="a_Node000034"><a xlink:href="../../de/d8a/cbuild__edit_8h.html" target="_top" xlink:title="Function declarations for the crystal builder.">
<polygon fill="white" stroke="#666666" points="988.75,-188 918,-188 918,-168 988.75,-168 988.75,-188"/>
<text text-anchor="middle" x="953.38" y="-174.5" font-family="Helvetica,sans-Serif" font-size="10.00">cbuild_edit.h</text>
</a>
</g>
</g>
<!-- Node1&#45;&gt;Node34 -->
<g id="edge42_Node000001_Node000034" class="edge">
<title>Node1&#45;&gt;Node34</title>
<g id="a_edge42_Node000001_Node000034"><a xlink:title=" ">
<path fill="none" stroke="#63b8ff" d="M836.81,-223.55C862.02,-213.91 894.14,-201.64 918.28,-192.41"/>
<polygon fill="#63b8ff" stroke="#63b8ff" points="919.25,-195.79 927.34,-188.95 916.75,-189.25 919.25,-195.79"/>
</a>
</g>
</g>
<!-- Node36 -->
<g id="Node000036" class="node">
<title>Node36</title>
<g id="a_Node000036"><a xlink:href="../../d1/dfb/readers_8h.html" target="_top" xlink:title="Functions declaration to read atomic coordinates.">
<polygon fill="white" stroke="#666666" points="1063.62,-188 1007.12,-188 1007.12,-168 1063.62,-168 1063.62,-188"/>
<text text-anchor="middle" x="1035.38" y="-174.5" font-family="Helvetica,sans-Serif" font-size="10.00">readers.h</text>
</a>
</g>
</g>
<!-- Node1&#45;&gt;Node36 -->
<g id="edge45_Node000001_Node000036" class="edge">
<title>Node1&#45;&gt;Node36</title>
<g id="a_edge45_Node000001_Node000036"><a xlink:title=" ">
<path fill="none" stroke="#63b8ff" d="M842.74,-227.36C887.26,-216.18 953.77,-199.49 995.85,-188.92"/>
<polygon fill="#63b8ff" stroke="#63b8ff" points="996.45,-192.38 1005.3,-186.55 994.75,-185.59 996.45,-192.38"/>
</a>
</g>
</g>
<!-- Node41 -->
<g id="Node000041" class="node">
<title>Node41</title>
<g id="a_Node000041"><a xlink:title=" ">
<polygon fill="#e0e0e0" stroke="#999999" points="1129.5,-188 1081.25,-188 1081.25,-168 1129.5,-168 1129.5,-188"/>
<text text-anchor="middle" x="1105.38" y="-174.5" font-family="Helvetica,sans-Serif" font-size="10.00">ctype.h</text>
</a>
</g>
</g>
<!-- Node1&#45;&gt;Node41 -->
<g id="edge51_Node000001_Node000041" class="edge">
<title>Node1&#45;&gt;Node41</title>
<g id="a_edge51_Node000001_Node000041"><a xlink:title=" ">
<path fill="none" stroke="#63b8ff" d="M842.52,-231.68C895.21,-223.06 984.22,-207.69 1069.71,-188.46"/>
<polygon fill="#63b8ff" stroke="#63b8ff" points="1070.47,-191.88 1079.45,-186.25 1068.92,-185.05 1070.47,-191.88"/>
</a>
</g>
</g>
<!-- Node3 -->
<g id="Node000003" class="node">
<title>Node3</title>
<g id="a_Node000003"><a xlink:title=" ">
<polygon fill="#e0e0e0" stroke="#999999" points="830,-76 790.75,-76 790.75,-56 830,-56 830,-76"/>
<text text-anchor="middle" x="810.38" y="-62.5" font-family="Helvetica,sans-Serif" font-size="10.00">glib.h</text>
</a>
</g>
</g>
<!-- Node2&#45;&gt;Node3 -->
<g id="edge2_Node000002_Node000003" class="edge">
<title>Node2&#45;&gt;Node3</title>
<g id="a_edge2_Node000002_Node000003"><a xlink:title=" ">
<path fill="none" stroke="#63b8ff" d="M931.28,-111.72C906.31,-102.48 867.95,-88.3 841.16,-78.39"/>
<polygon fill="#63b8ff" stroke="#63b8ff" points="842.47,-75.14 831.88,-74.95 840.04,-81.7 842.47,-75.14"/>
</a>
</g>
</g>
<!-- Node4 -->
<g id="Node000004" class="node">
<title>Node4</title>
<g id="a_Node000004"><a xlink:title=" ">
<polygon fill="#e0e0e0" stroke="#999999" points="913.12,-76 847.62,-76 847.62,-56 913.12,-56 913.12,-76"/>
<text text-anchor="middle" x="880.38" y="-62.5" font-family="Helvetica,sans-Serif" font-size="10.00">glib/gi18n.h</text>
</a>
</g>
</g>
<!-- Node2&#45;&gt;Node4 -->
<g id="edge3_Node000002_Node000004" class="edge">
<title>Node2&#45;&gt;Node4</title>
<g id="a_edge3_Node000002_Node000004"><a xlink:title=" ">
<path fill="none" stroke="#63b8ff" d="M943.14,-111.59C932.09,-103.74 916.09,-92.38 903.02,-83.09"/>
<polygon fill="#63b8ff" stroke="#63b8ff" points="905.13,-80.3 894.95,-77.36 901.07,-86 905.13,-80.3"/>
</a>
</g>
</g>
<!-- Node5 -->
<g id="Node000005" class="node">
<title>Node5</title>
<g id="a_Node000005"><a xlink:title=" ">
<polygon fill="#e0e0e0" stroke="#999999" points="981.25,-76 931.5,-76 931.5,-56 981.25,-56 981.25,-76"/>
<text text-anchor="middle" x="956.38" y="-62.5" font-family="Helvetica,sans-Serif" font-size="10.00">locale.h</text>
</a>
</g>
</g>
<!-- Node2&#45;&gt;Node5 -->
<g id="edge4_Node000002_Node000005" class="edge">
<title>Node2&#45;&gt;Node5</title>
<g id="a_edge4_Node000002_Node000005"><a xlink:title=" ">
<path fill="none" stroke="#63b8ff" d="M956.38,-111.59C956.38,-105.01 956.38,-95.96 956.38,-87.73"/>
<polygon fill="#63b8ff" stroke="#63b8ff" points="959.88,-87.81 956.38,-77.81 952.88,-87.81 959.88,-87.81"/>
</a>
</g>
</g>
<!-- Node6 -->
<g id="Node000006" class="node">
<title>Node6</title>
<g id="a_Node000006"><a xlink:title=" ">
<polygon fill="#e0e0e0" stroke="#999999" points="1049.62,-76 999.12,-76 999.12,-56 1049.62,-56 1049.62,-76"/>
<text text-anchor="middle" x="1024.38" y="-62.5" font-family="Helvetica,sans-Serif" font-size="10.00">unistd.h</text>
</a>
</g>
</g>
<!-- Node2&#45;&gt;Node6 -->
<g id="edge5_Node000002_Node000006" class="edge">
<title>Node2&#45;&gt;Node6</title>
<g id="a_edge5_Node000002_Node000006"><a xlink:title=" ">
<path fill="none" stroke="#63b8ff" d="M968.22,-111.59C978.07,-103.77 992.31,-92.46 1003.98,-83.19"/>
<polygon fill="#63b8ff" stroke="#63b8ff" points="1005.83,-86.2 1011.48,-77.24 1001.47,-80.72 1005.83,-86.2"/>
</a>
</g>
</g>
<!-- Node7 -->
<g id="Node000007" class="node">
<title>Node7</title>
<g id="a_Node000007"><a xlink:title=" ">
<polygon fill="#e0e0e0" stroke="#999999" points="1115.5,-76 1067.25,-76 1067.25,-56 1115.5,-56 1115.5,-76"/>
<text text-anchor="middle" x="1091.38" y="-62.5" font-family="Helvetica,sans-Serif" font-size="10.00">string.h</text>
</a>
</g>
</g>
<!-- Node2&#45;&gt;Node7 -->
<g id="edge6_Node000002_Node000007" class="edge">
<title>Node2&#45;&gt;Node7</title>
<g id="a_edge6_Node000002_Node000007"><a xlink:title=" ">
<path fill="none" stroke="#63b8ff" d="M979.89,-111.59C1001.25,-103.05 1033.01,-90.35 1057.17,-80.68"/>
<polygon fill="#63b8ff" stroke="#63b8ff" points="1058.29,-84.01 1066.27,-77.04 1055.69,-77.51 1058.29,-84.01"/>
</a>
</g>
</g>
<!-- Node8 -->
<g id="Node000008" class="node">
<title>Node8</title>
<g id="a_Node000008"><a xlink:title=" ">
<polygon fill="#e0e0e0" stroke="#999999" points="735,-20 689.75,-20 689.75,0 735,0 735,-20"/>
<text text-anchor="middle" x="712.38" y="-6.5" font-family="Helvetica,sans-Serif" font-size="10.00">stdio.h</text>
</a>
</g>
</g>
<!-- Node2&#45;&gt;Node8 -->
<g id="edge7_Node000002_Node000008" class="edge">
<title>Node2&#45;&gt;Node8</title>
<g id="a_edge7_Node000002_Node000008"><a xlink:title=" ">
<path fill="none" stroke="#63b8ff" d="M931.19,-114.04C928.23,-113.31 925.24,-112.61 922.38,-112 873.71,-101.62 733.61,-113.91 701.38,-76 690.73,-63.48 695.49,-44.55 701.72,-30.34"/>
<polygon fill="#63b8ff" stroke="#63b8ff" points="704.78,-32.04 706.09,-21.53 698.51,-28.93 704.78,-32.04"/>
</a>
</g>
</g>
<!-- Node9 -->
<g id="Node000009" class="node">
<title>Node9</title>
<g id="a_Node000009"><a xlink:title=" ">
<polygon fill="#e0e0e0" stroke="#999999" points="1219.12,-76 1171.62,-76 1171.62,-56 1219.12,-56 1219.12,-76"/>
<text text-anchor="middle" x="1195.38" y="-62.5" font-family="Helvetica,sans-Serif" font-size="10.00">stdlib.h</text>
</a>
</g>
</g>
<!-- Node2&#45;&gt;Node9 -->
<g id="edge8_Node000002_Node000009" class="edge">
<title>Node2&#45;&gt;Node9</title>
<g id="a_edge8_Node000002_Node000009"><a xlink:title=" ">
<path fill="none" stroke="#63b8ff" d="M981.47,-115.49C1019.53,-107.1 1094.13,-90.57 1157.38,-76 1158.36,-75.77 1159.35,-75.54 1160.36,-75.31"/>
<polygon fill="#63b8ff" stroke="#63b8ff" points="1160.85,-78.79 1169.79,-73.1 1159.25,-71.97 1160.85,-78.79"/>
</a>
</g>
</g>
<!-- Node10 -->
<g id="Node000010" class="node">
<title>Node10</title>
<g id="a_Node000010"><a xlink:title=" ">
<polygon fill="#e0e0e0" stroke="#999999" points="1303.88,-76 1236.88,-76 1236.88,-56 1303.88,-56 1303.88,-76"/>
<text text-anchor="middle" x="1270.38" y="-62.5" font-family="Helvetica,sans-Serif" font-size="10.00">sys/types.h</text>
</a>
</g>
</g>
<!-- Node2&#45;&gt;Node10 -->
<g id="edge9_Node000002_Node000010" class="edge">
<title>Node2&#45;&gt;Node10</title>
<g id="a_edge9_Node000002_Node000010"><a xlink:title=" ">
<path fill="none" stroke="#63b8ff" d="M981.57,-117.24C1027.84,-110.24 1129.7,-94.44 1225.17,-76.54"/>
<polygon fill="#63b8ff" stroke="#63b8ff" points="1225.81,-79.98 1234.99,-74.69 1224.51,-73.11 1225.81,-79.98"/>
</a>
</g>
</g>
<!-- Node11 -->
<g id="Node000011" class="node">
<title>Node11</title>
<g id="a_Node000011"><a xlink:title=" ">
<polygon fill="#e0e0e0" stroke="#999999" points="1381.12,-76 1321.62,-76 1321.62,-56 1381.12,-56 1381.12,-76"/>
<text text-anchor="middle" x="1351.38" y="-62.5" font-family="Helvetica,sans-Serif" font-size="10.00">sys/stat.h</text>
</a>
</g>
</g>
<!-- Node2&#45;&gt;Node11 -->
<g id="edge10_Node000002_Node000011" class="edge">
<title>Node2&#45;&gt;Node11</title>
<g id="a_edge10_Node000002_Node000011"><a xlink:title=" ">
<path fill="none" stroke="#63b8ff" d="M981.62,-118.76C1038.54,-113.5 1181.42,-99.19 1309.95,-76.47"/>
<polygon fill="#63b8ff" stroke="#63b8ff" points="1310.44,-79.94 1319.66,-74.73 1309.2,-73.05 1310.44,-79.94"/>
</a>
</g>
</g>
<!-- Node12 -->
<g id="Node000012" class="node">
<title>Node12</title>
<g id="a_Node000012"><a xlink:title=" ">
<polygon fill="#e0e0e0" stroke="#999999" points="983.38,-20 937.38,-20 937.38,0 983.38,0 983.38,-20"/>
<text text-anchor="middle" x="960.38" y="-6.5" font-family="Helvetica,sans-Serif" font-size="10.00">math.h</text>
</a>
</g>
</g>
<!-- Node2&#45;&gt;Node12 -->
<g id="edge11_Node000002_Node000012" class="edge">
<title>Node2&#45;&gt;Node12</title>
<g id="a_edge11_Node000002_Node000012"><a xlink:title=" ">
<path fill="none" stroke="#63b8ff" d="M981.64,-117.97C1024.15,-112.3 1107.05,-98.58 1124.38,-76 1159.7,-29.97 1052.93,-16.47 995.03,-12.56"/>
<polygon fill="#63b8ff" stroke="#63b8ff" points="995.52,-9.09 985.33,-11.97 995.1,-16.07 995.52,-9.09"/>
</a>
</g>
</g>
<!-- Node13 -->
<g id="Node000013" class="node">
<title>Node13</title>
<g id="a_Node000013"><a xlink:title=" ">
<polygon fill="#e0e0e0" stroke="#999999" points="1518.5,-76 1464.25,-76 1464.25,-56 1518.5,-56 1518.5,-76"/>
<text text-anchor="middle" x="1491.38" y="-62.5" font-family="Helvetica,sans-Serif" font-size="10.00">gtk/gtk.h</text>
</a>
</g>
</g>
<!-- Node2&#45;&gt;Node13 -->
<g id="edge12_Node000002_Node000013" class="edge">
<title>Node2&#45;&gt;Node13</title>
<g id="a_edge12_Node000002_Node000013"><a xlink:title=" ">
<path fill="none" stroke="#63b8ff" d="M981.68,-120.04C1053.72,-117.03 1266.22,-106.23 1452.87,-75.97"/>
<polygon fill="#63b8ff" stroke="#63b8ff" points="1453.2,-79.47 1462.5,-74.39 1452.06,-72.56 1453.2,-79.47"/>
</a>
</g>
</g>
<!-- Node14 -->
<g id="Node000014" class="node">
<title>Node14</title>
<g id="a_Node000014"><a xlink:title=" ">
<polygon fill="#e0e0e0" stroke="#999999" points="1596.12,-76 1536.62,-76 1536.62,-56 1596.12,-56 1596.12,-76"/>
<text text-anchor="middle" x="1566.38" y="-62.5" font-family="Helvetica,sans-Serif" font-size="10.00">gtk/gtkx.h</text>
</a>
</g>
</g>
<!-- Node2&#45;&gt;Node14 -->
<g id="edge13_Node000002_Node000014" class="edge">
<title>Node2&#45;&gt;Node14</title>
<g id="a_edge13_Node000002_Node000014"><a xlink:title=" ">
<path fill="none" stroke="#63b8ff" d="M981.57,-120.34C1060.39,-118.02 1309.33,-108.55 1525.01,-76.13"/>
<polygon fill="#63b8ff" stroke="#63b8ff" points="1525.37,-79.62 1534.73,-74.65 1524.32,-72.7 1525.37,-79.62"/>
</a>
</g>
</g>
<!-- Node15 -->
<g id="Node000015" class="node">
<title>Node15</title>
<g id="a_Node000015"><a xlink:title=" ">
<polygon fill="#e0e0e0" stroke="#999999" points="58.75,-76 0,-76 0,-56 58.75,-56 58.75,-76"/>
<text text-anchor="middle" x="29.38" y="-62.5" font-family="Helvetica,sans-Serif" font-size="10.00">gdk/gdk.h</text>
</a>
</g>
</g>
<!-- Node2&#45;&gt;Node15 -->
<g id="edge14_Node000002_Node000015" class="edge">
<title>Node2&#45;&gt;Node15</title>
<g id="a_edge14_Node000002_Node000015"><a xlink:title=" ">
<path fill="none" stroke="#63b8ff" d="M931.25,-113.7C928.28,-113.03 925.27,-112.44 922.38,-112 550.44,-55.62 446.86,-125.54 70.3,-75.95"/>
<polygon fill="#63b8ff" stroke="#63b8ff" points="70.96,-72.51 60.58,-74.65 70.03,-79.45 70.96,-72.51"/>
</a>
</g>
</g>
<!-- Node16 -->
<g id="Node000016" class="node">
<title>Node16</title>
<g id="a_Node000016"><a xlink:title=" ">
<polygon fill="#e0e0e0" stroke="#999999" points="175.62,-76 77.12,-76 77.12,-56 175.62,-56 175.62,-76"/>
<text text-anchor="middle" x="126.38" y="-62.5" font-family="Helvetica,sans-Serif" font-size="10.00">gdk/gdkkeysyms.h</text>
</a>
</g>
</g>
<!-- Node2&#45;&gt;Node16 -->
<g id="edge15_Node000002_Node000016" class="edge">
<title>Node2&#45;&gt;Node16</title>
<g id="a_edge15_Node000002_Node000016"><a xlink:title=" ">
<path fill="none" stroke="#63b8ff" d="M931.25,-113.72C928.28,-113.05 925.27,-112.45 922.38,-112 601.5,-62.27 513.06,-108.17 187.2,-76.17"/>
<polygon fill="#63b8ff" stroke="#63b8ff" points="187.81,-72.72 177.51,-75.2 187.11,-79.68 187.81,-72.72"/>
</a>
</g>
</g>
<!-- Node17 -->
<g id="Node000017" class="node">
<title>Node17</title>
<g id="a_Node000017"><a xlink:title=" ">
<polygon fill="#e0e0e0" stroke="#999999" points="311,-76 193.75,-76 193.75,-56 311,-56 311,-76"/>
<text text-anchor="middle" x="252.38" y="-62.5" font-family="Helvetica,sans-Serif" font-size="10.00">gdk&#45;pixbuf/gdk&#45;pixbuf.h</text>
</a>
</g>
</g>
<!-- Node2&#45;&gt;Node17 -->
<g id="edge16_Node000002_Node000017" class="edge">
<title>Node2&#45;&gt;Node17</title>
<g id="a_edge16_Node000002_Node000017"><a xlink:title=" ">
<path fill="none" stroke="#63b8ff" d="M931.24,-113.75C928.27,-113.07 925.27,-112.46 922.38,-112 660.92,-70.02 588.57,-101.02 322.36,-76.21"/>
<polygon fill="#63b8ff" stroke="#63b8ff" points="322.97,-72.75 312.68,-75.29 322.3,-79.72 322.97,-72.75"/>
</a>
</g>
</g>
<!-- Node18 -->
<g id="Node000018" class="node">
<title>Node18</title>
<g id="a_Node000018"><a xlink:title=" ">
<polygon fill="#e0e0e0" stroke="#999999" points="419.88,-76 328.88,-76 328.88,-56 419.88,-56 419.88,-76"/>
<text text-anchor="middle" x="374.38" y="-62.5" font-family="Helvetica,sans-Serif" font-size="10.00">pango/pangoft2.h</text>
</a>
</g>
</g>
<!-- Node2&#45;&gt;Node18 -->
<g id="edge17_Node000002_Node000018" class="edge">
<title>Node2&#45;&gt;Node18</title>
<g id="a_edge17_Node000002_Node000018"><a xlink:title=" ">
<path fill="none" stroke="#63b8ff" d="M931.24,-113.79C928.27,-113.1 925.27,-112.48 922.38,-112 708.86,-76.28 648.94,-101.26 431.44,-76.26"/>
<polygon fill="#63b8ff" stroke="#63b8ff" points="432.13,-72.82 421.79,-75.13 431.32,-79.77 432.13,-72.82"/>
</a>
</g>
</g>
<!-- Node19 -->
<g id="Node000019" class="node">
<title>Node19</title>
<g id="a_Node000019"><a xlink:title=" ">
<polygon fill="#e0e0e0" stroke="#999999" points="498.88,-76 437.88,-76 437.88,-56 498.88,-56 498.88,-76"/>
<text text-anchor="middle" x="468.38" y="-62.5" font-family="Helvetica,sans-Serif" font-size="10.00">epoxy/gl.h</text>
</a>
</g>
</g>
<!-- Node2&#45;&gt;Node19 -->
<g id="edge18_Node000002_Node000019" class="edge">
<title>Node2&#45;&gt;Node19</title>
<g id="a_edge18_Node000002_Node000019"><a xlink:title=" ">
<path fill="none" stroke="#63b8ff" d="M931.23,-113.83C928.26,-113.14 925.26,-112.5 922.38,-112 744.07,-80.89 692.92,-103.39 510.64,-76.13"/>
<polygon fill="#63b8ff" stroke="#63b8ff" points="511.22,-72.67 500.8,-74.62 510.16,-79.59 511.22,-72.67"/>
</a>
</g>
</g>
<!-- Node20 -->
<g id="Node000020" class="node">
<title>Node20</title>
<g id="a_Node000020"><a xlink:title=" ">
<polygon fill="#e0e0e0" stroke="#999999" points="569.75,-76 517,-76 517,-56 569.75,-56 569.75,-76"/>
<text text-anchor="middle" x="543.38" y="-62.5" font-family="Helvetica,sans-Serif" font-size="10.00">GL/glu.h</text>
</a>
</g>
</g>
<!-- Node2&#45;&gt;Node20 -->
<g id="edge19_Node000002_Node000020" class="edge">
<title>Node2&#45;&gt;Node20</title>
<g id="a_edge19_Node000002_Node000020"><a xlink:title=" ">
<path fill="none" stroke="#63b8ff" d="M931.22,-113.88C928.25,-113.18 925.26,-112.53 922.38,-112 775.15,-84.95 732.32,-101.82 581.1,-76.04"/>
<polygon fill="#63b8ff" stroke="#63b8ff" points="581.97,-72.63 571.51,-74.36 580.76,-79.53 581.97,-72.63"/>
</a>
</g>
</g>
<!-- Node21 -->
<g id="Node000021" class="node">
<title>Node21</title>
<g id="a_Node000021"><a xlink:title=" ">
<polygon fill="#e0e0e0" stroke="#999999" points="654.5,-76 588.25,-76 588.25,-56 654.5,-56 654.5,-76"/>
<text text-anchor="middle" x="621.38" y="-62.5" font-family="Helvetica,sans-Serif" font-size="10.00">epoxy/glx.h</text>
</a>
</g>
</g>
<!-- Node2&#45;&gt;Node21 -->
<g id="edge20_Node000002_Node000021" class="edge">
<title>Node2&#45;&gt;Node21</title>
<g id="a_edge20_Node000002_Node000021"><a xlink:title=" ">
<path fill="none" stroke="#63b8ff" d="M931.2,-113.98C928.24,-113.26 925.25,-112.58 922.38,-112 810.63,-89.37 780.84,-94.73 668.38,-76 667.56,-75.86 666.74,-75.73 665.91,-75.58"/>
<polygon fill="#63b8ff" stroke="#63b8ff" points="666.92,-72.21 656.46,-73.9 665.69,-79.1 666.92,-72.21"/>
</a>
</g>
</g>
<!-- Node22 -->
<g id="Node000022" class="node">
<title>Node22</title>
<g id="a_Node000022"><a xlink:href="../../dc/db0/math__3d_8h.html" target="_top" xlink:title="Functions for OpenGL math.">
<polygon fill="white" stroke="#666666" points="772.25,-76 710.5,-76 710.5,-56 772.25,-56 772.25,-76"/>
<text text-anchor="middle" x="741.38" y="-62.5" font-family="Helvetica,sans-Serif" font-size="10.00">math_3d.h</text>
</a>
</g>
</g>
<!-- Node2&#45;&gt;Node22 -->
<g id="edge21_Node000002_Node000022" class="edge">
<title>Node2&#45;&gt;Node22</title>
<g id="a_edge21_Node000002_Node000022"><a xlink:title=" ">
<path fill="none" stroke="#63b8ff" d="M931.14,-114.27C928.18,-113.5 925.21,-112.73 922.38,-112 874.77,-99.78 819.98,-86.23 783.26,-77.22"/>
<polygon fill="#63b8ff" stroke="#63b8ff" points="784.49,-73.92 773.95,-74.94 782.83,-80.72 784.49,-73.92"/>
</a>
</g>
</g>
<!-- Node23 -->
<g id="Node000023" class="node">
<title>Node23</title>
<g id="a_Node000023"><a xlink:href="../../da/d7e/glwin_8h.html" target="_top" xlink:title="Variable declarations related the OpenGL window &#160;&#160;Data structure declarations related the OpenGL wind...">
<polygon fill="white" stroke="#666666" points="1445.75,-76 1399,-76 1399,-56 1445.75,-56 1445.75,-76"/>
<text text-anchor="middle" x="1422.38" y="-62.5" font-family="Helvetica,sans-Serif" font-size="10.00">glwin.h</text>
</a>
</g>
</g>
<!-- Node2&#45;&gt;Node23 -->
<g id="edge24_Node000002_Node000023" class="edge">
<title>Node2&#45;&gt;Node23</title>
<g id="a_edge24_Node000002_Node000023"><a xlink:title=" ">
<path fill="none" stroke="#63b8ff" d="M981.55,-119.9C1047.06,-116.7 1228.34,-105.85 1387.76,-76.21"/>
<polygon fill="#63b8ff" stroke="#63b8ff" points="1388.05,-79.72 1397.23,-74.42 1386.75,-72.84 1388.05,-79.72"/>
</a>
</g>
</g>
<!-- Node22&#45;&gt;Node8 -->
<g id="edge23_Node000022_Node000008" class="edge">
<title>Node22&#45;&gt;Node8</title>
<g id="a_edge23_Node000022_Node000008"><a xlink:title=" ">
<path fill="none" stroke="#63b8ff" d="M736.32,-55.59C732.58,-48.63 727.35,-38.89 722.73,-30.29"/>
<polygon fill="#63b8ff" stroke="#63b8ff" points="725.9,-28.79 718.08,-21.63 719.73,-32.1 725.9,-28.79"/>
</a>
</g>
</g>
<!-- Node22&#45;&gt;Node12 -->
<g id="edge22_Node000022_Node000012" class="edge">
<title>Node22&#45;&gt;Node12</title>
<g id="a_edge22_Node000022_Node000012"><a xlink:title=" ">
<path fill="none" stroke="#63b8ff" d="M772.29,-57.38C812.81,-47.39 883.68,-29.91 925.9,-19.5"/>
<polygon fill="#63b8ff" stroke="#63b8ff" points="926.66,-22.92 935.53,-17.13 924.98,-16.12 926.66,-22.92"/>
</a>
</g>
</g>
<!-- Node24 -->
<g id="Node000024" class="node">
<title>Node24</title>
<g id="a_Node000024"><a xlink:href="../../d5/d9e/ogl__shading_8h.html" target="_top" xlink:title="Variable declarations related to GLSL programs &#160;&#160;Data structure declarations related to GLSL programs...">
<polygon fill="white" stroke="#666666" points="1460.38,-20 1384.38,-20 1384.38,0 1460.38,0 1460.38,-20"/>
<text text-anchor="middle" x="1422.38" y="-6.5" font-family="Helvetica,sans-Serif" font-size="10.00">ogl_shading.h</text>
</a>
</g>
</g>
<!-- Node23&#45;&gt;Node24 -->
<g id="edge25_Node000023_Node000024" class="edge">
<title>Node23&#45;&gt;Node24</title>
<g id="a_edge25_Node000023_Node000024"><a xlink:title=" ">
<path fill="none" stroke="#63b8ff" d="M1422.38,-55.59C1422.38,-49.01 1422.38,-39.96 1422.38,-31.73"/>
<polygon fill="#63b8ff" stroke="#63b8ff" points="1425.88,-31.81 1422.38,-21.81 1418.88,-31.81 1425.88,-31.81"/>
</a>
</g>
</g>
<!-- Node31&#45;&gt;Node2 -->
<g id="edge33_Node000031_Node000002" class="edge">
<title>Node31&#45;&gt;Node2</title>
<g id="a_edge33_Node000031_Node000002"><a xlink:title=" ">
<path fill="none" stroke="#63b8ff" d="M714.21,-171.53C759.04,-164.11 840.81,-149.95 920.02,-132.39"/>
<polygon fill="#63b8ff" stroke="#63b8ff" points="920.71,-135.83 929.7,-130.23 919.18,-129 920.71,-135.83"/>
</a>
</g>
</g>
<!-- Node31&#45;&gt;Node25 -->
<g id="edge35_Node000031_Node000025" class="edge">
<title>Node31&#45;&gt;Node25</title>
<g id="a_edge35_Node000031_Node000025"><a xlink:title=" ">
<path fill="none" stroke="#63b8ff" d="M646.66,-172.43C594.3,-165.19 490.02,-150.23 391.42,-132.29"/>
<polygon fill="#63b8ff" stroke="#63b8ff" points="392.31,-128.89 381.84,-130.53 391.05,-135.78 392.31,-128.89"/>
</a>
</g>
</g>
<!-- Node31&#45;&gt;Node26 -->
<g id="edge36_Node000031_Node000026" class="edge">
<title>Node31&#45;&gt;Node26</title>
<g id="a_edge36_Node000031_Node000026"><a xlink:title=" ">
<path fill="none" stroke="#63b8ff" d="M646.73,-169.95C607.18,-161.63 539.29,-147.26 471.29,-132.4"/>
<polygon fill="#63b8ff" stroke="#63b8ff" points="472.37,-129.06 461.85,-130.33 470.87,-135.89 472.37,-129.06"/>
</a>
</g>
</g>
<!-- Node31&#45;&gt;Node27 -->
<g id="edge38_Node000031_Node000027" class="edge">
<title>Node31&#45;&gt;Node27</title>
<g id="a_edge38_Node000031_Node000027"><a xlink:title=" ">
<path fill="none" stroke="#63b8ff" d="M649.72,-167.59C619.5,-158.32 573.3,-144.15 541.13,-134.28"/>
<polygon fill="#63b8ff" stroke="#63b8ff" points="542.42,-131.01 531.83,-131.42 540.37,-137.7 542.42,-131.01"/>
</a>
</g>
</g>
<!-- Node31&#45;&gt;Node28 -->
<g id="edge34_Node000031_Node000028" class="edge">
<title>Node31&#45;&gt;Node28</title>
<g id="a_edge34_Node000031_Node000028"><a xlink:title=" ">
<path fill="none" stroke="#63b8ff" d="M661.04,-167.59C643.96,-159.28 618.77,-147.03 599.12,-137.47"/>
<polygon fill="#63b8ff" stroke="#63b8ff" points="600.75,-134.37 590.22,-133.14 597.68,-140.66 600.75,-134.37"/>
</a>
</g>
</g>
<!-- Node31&#45;&gt;Node29 -->
<g id="edge40_Node000031_Node000029" class="edge">
<title>Node31&#45;&gt;Node29</title>
<g id="a_edge40_Node000031_Node000029"><a xlink:title=" ">
<path fill="none" stroke="#63b8ff" d="M700.58,-167.59C718.6,-159.21 745.24,-146.8 765.86,-137.21"/>
<polygon fill="#63b8ff" stroke="#63b8ff" points="767.05,-140.51 774.64,-133.12 764.1,-134.17 767.05,-140.51"/>
</a>
</g>
</g>
<!-- Node31&#45;&gt;Node30 -->
<g id="edge41_Node000031_Node000030" class="edge">
<title>Node31&#45;&gt;Node30</title>
<g id="a_edge41_Node000031_Node000030"><a xlink:title=" ">
<path fill="none" stroke="#63b8ff" d="M714.24,-167.72C746.84,-158.78 796.35,-145.21 832.28,-135.36"/>
<polygon fill="#63b8ff" stroke="#63b8ff" points="832.78,-138.85 841.5,-132.83 830.93,-132.1 832.78,-138.85"/>
</a>
</g>
</g>
<!-- Node32 -->
<g id="Node000032" class="node">
<title>Node32</title>
<g id="a_Node000032"><a xlink:href="../../d6/d75/initcoord_8h.html" target="_top" xlink:title="Function declarations to handle the atomic coordination data.">
<polygon fill="white" stroke="#666666" points="751.88,-132 690.88,-132 690.88,-112 751.88,-112 751.88,-132"/>
<text text-anchor="middle" x="721.38" y="-118.5" font-family="Helvetica,sans-Serif" font-size="10.00">initcoord.h</text>
</a>
</g>
</g>
<!-- Node31&#45;&gt;Node32 -->
<g id="edge37_Node000031_Node000032" class="edge">
<title>Node31&#45;&gt;Node32</title>
<g id="a_edge37_Node000031_Node000032"><a xlink:title=" ">
<path fill="none" stroke="#63b8ff" d="M687.52,-167.59C692.98,-160.39 700.7,-150.23 707.38,-141.43"/>
<polygon fill="#63b8ff" stroke="#63b8ff" points="710.14,-143.58 713.4,-133.5 704.57,-139.35 710.14,-143.58"/>
</a>
</g>
</g>
<!-- Node33 -->
<g id="Node000033" class="node">
<title>Node33</title>
<g id="a_Node000033"><a xlink:href="../../d1/d2a/glwindow_8h.html" target="_top" xlink:title="Function declarations for the creation of the OpenGL window.">
<polygon fill="white" stroke="#666666" points="672.38,-132 608.38,-132 608.38,-112 672.38,-112 672.38,-132"/>
<text text-anchor="middle" x="640.38" y="-118.5" font-family="Helvetica,sans-Serif" font-size="10.00">glwindow.h</text>
</a>
</g>
</g>
<!-- Node31&#45;&gt;Node33 -->
<g id="edge39_Node000031_Node000033" class="edge">
<title>Node31&#45;&gt;Node33</title>
<g id="a_edge39_Node000031_Node000033"><a xlink:title=" ">
<path fill="none" stroke="#63b8ff" d="M673.41,-167.59C668.07,-160.39 660.55,-150.23 654.03,-141.43"/>
<polygon fill="#63b8ff" stroke="#63b8ff" points="656.93,-139.47 648.16,-133.51 651.3,-143.63 656.93,-139.47"/>
</a>
</g>
</g>
<!-- Node34&#45;&gt;Node2 -->
<g id="edge43_Node000034_Node000002" class="edge">
<title>Node34&#45;&gt;Node2</title>
<g id="a_edge43_Node000034_Node000002"><a xlink:title=" ">
<path fill="none" stroke="#63b8ff" d="M953.9,-167.59C954.26,-161.01 954.77,-151.96 955.22,-143.73"/>
<polygon fill="#63b8ff" stroke="#63b8ff" points="958.71,-143.99 955.77,-133.81 951.73,-143.6 958.71,-143.99"/>
</a>
</g>
</g>
<!-- Node35 -->
<g id="Node000035" class="node">
<title>Node35</title>
<g id="a_Node000035"><a xlink:title=" ">
<polygon fill="#e0e0e0" stroke="#999999" points="1710.12,-76 1614.62,-76 1614.62,-56 1710.12,-56 1710.12,-76"/>
<text text-anchor="middle" x="1662.38" y="-62.5" font-family="Helvetica,sans-Serif" font-size="10.00">libxml/xmlreader.h</text>
</a>
</g>
</g>
<!-- Node34&#45;&gt;Node35 -->
<g id="edge44_Node000034_Node000035" class="edge">
<title>Node34&#45;&gt;Node35</title>
<g id="a_edge44_Node000034_Node000035"><a xlink:title=" ">
<path fill="none" stroke="#63b8ff" d="M989.21,-169.68C992.3,-169.09 995.39,-168.52 998.38,-168 1263.44,-121.43 1333.81,-117.81 1602.87,-76.38"/>
<polygon fill="#63b8ff" stroke="#63b8ff" points="1603.33,-79.85 1612.68,-74.86 1602.26,-72.93 1603.33,-79.85"/>
</a>
</g>
</g>
<!-- Node37 -->
<g id="Node000037" class="node">
<title>Node37</title>
<g id="a_Node000037"><a xlink:href="../../dc/d50/read__isaacs_8h.html" target="_top" xlink:title="Function declarations to read / write ISAACS XML file.">
<polygon fill="white" stroke="#666666" points="1812.75,-132 1736,-132 1736,-112 1812.75,-112 1812.75,-132"/>
<text text-anchor="middle" x="1774.38" y="-118.5" font-family="Helvetica,sans-Serif" font-size="10.00">read_isaacs.h</text>
</a>
</g>
</g>
<!-- Node36&#45;&gt;Node37 -->
<g id="edge46_Node000036_Node000037" class="edge">
<title>Node36&#45;&gt;Node37</title>
<g id="a_edge46_Node000036_Node000037"><a xlink:title=" ">
<path fill="none" stroke="#63b8ff" d="M1063.96,-169.52C1066.79,-168.94 1069.63,-168.42 1072.38,-168 1314.86,-131.03 1608.97,-124.37 1724.44,-123.22"/>
<polygon fill="#63b8ff" stroke="#63b8ff" points="1724.21,-126.72 1734.18,-123.13 1724.15,-119.72 1724.21,-126.72"/>
</a>
</g>
</g>
<!-- Node37&#45;&gt;Node35 -->
<g id="edge49_Node000037_Node000035" class="edge">
<title>Node37&#45;&gt;Node35</title>
<g id="a_edge49_Node000037_Node000035"><a xlink:title=" ">
<path fill="none" stroke="#63b8ff" d="M1754.87,-111.59C1737.63,-103.28 1712.22,-91.03 1692.39,-81.47"/>
<polygon fill="#63b8ff" stroke="#63b8ff" points="1693.93,-78.33 1683.4,-77.14 1690.89,-84.63 1693.93,-78.33"/>
</a>
</g>
</g>
<!-- Node38 -->
<g id="Node000038" class="node">
<title>Node38</title>
<g id="a_Node000038"><a xlink:title=" ">
<polygon fill="#e0e0e0" stroke="#999999" points="1820.25,-76 1728.5,-76 1728.5,-56 1820.25,-56 1820.25,-76"/>
<text text-anchor="middle" x="1774.38" y="-62.5" font-family="Helvetica,sans-Serif" font-size="10.00">libxml/encoding.h</text>
</a>
</g>
</g>
<!-- Node37&#45;&gt;Node38 -->
<g id="edge47_Node000037_Node000038" class="edge">
<title>Node37&#45;&gt;Node38</title>
<g id="a_edge47_Node000037_Node000038"><a xlink:title=" ">
<path fill="none" stroke="#63b8ff" d="M1774.38,-111.59C1774.38,-105.01 1774.38,-95.96 1774.38,-87.73"/>
<polygon fill="#63b8ff" stroke="#63b8ff" points="1777.88,-87.81 1774.38,-77.81 1770.88,-87.81 1777.88,-87.81"/>
</a>
</g>
</g>
<!-- Node39 -->
<g id="Node000039" class="node">
<title>Node39</title>
<g id="a_Node000039"><a xlink:title=" ">
<polygon fill="#e0e0e0" stroke="#999999" points="1930.62,-76 1838.12,-76 1838.12,-56 1930.62,-56 1930.62,-76"/>
<text text-anchor="middle" x="1884.38" y="-62.5" font-family="Helvetica,sans-Serif" font-size="10.00">libxml/xmlwriter.h</text>
</a>
</g>
</g>
<!-- Node37&#45;&gt;Node39 -->
<g id="edge48_Node000037_Node000039" class="edge">
<title>Node37&#45;&gt;Node39</title>
<g id="a_edge48_Node000037_Node000039"><a xlink:title=" ">
<path fill="none" stroke="#63b8ff" d="M1793.54,-111.59C1810.47,-103.28 1835.42,-91.03 1854.9,-81.47"/>
<polygon fill="#63b8ff" stroke="#63b8ff" points="1856.27,-84.7 1863.71,-77.15 1853.19,-78.41 1856.27,-84.7"/>
</a>
</g>
</g>
<!-- Node40 -->
<g id="Node000040" class="node">
<title>Node40</title>
<g id="a_Node000040"><a xlink:title=" ">
<polygon fill="#e0e0e0" stroke="#999999" points="2028.25,-76 1948.5,-76 1948.5,-56 2028.25,-56 2028.25,-76"/>
<text text-anchor="middle" x="1988.38" y="-62.5" font-family="Helvetica,sans-Serif" font-size="10.00">libxml/parser.h</text>
</a>
</g>
</g>
<!-- Node37&#45;&gt;Node40 -->
<g id="edge50_Node000037_Node000040" class="edge">
<title>Node37&#45;&gt;Node40</title>
<g id="a_edge50_Node000037_Node000040"><a xlink:title=" ">
<path fill="none" stroke="#63b8ff" d="M1811.65,-111.59C1847.18,-102.63 1900.88,-89.08 1939.76,-79.27"/>
<polygon fill="#63b8ff" stroke="#63b8ff" points="1940.5,-82.69 1949.34,-76.85 1938.79,-75.9 1940.5,-82.69"/>
</a>
</g>
</g>
</g>
</svg>

<g id="navigator" transform="translate(0 0)" fill="#404254">
  <rect fill="#f2f5e9" fill-opacity="0.5" stroke="#606060" stroke-width=".5" x="0" y="0" width="60" height="60"/>
  <use id="zoomplus" xlink:href="#zoomPlus" x="17" y="9" onmousedown="handleZoom(evt,'in')"/>
  <use id="zoomminus" xlink:href="#zoomMin" x="42" y="9" onmousedown="handleZoom(evt,'out')"/>
  <use id="reset" xlink:href="#resetDef" x="30" y="36" onmousedown="handleReset()"/>
   <use id="arrowup" xlink:href="#arrowUp" x="0" y="0" onmousedown="handlePan(0,-1)"/>
  <use id="arrowright" xlink:href="#arrowRight" x="0" y="0" onmousedown="handlePan(1,0)"/>
  <use id="arrowdown" xlink:href="#arrowDown" x="0" y="0" onmousedown="handlePan(0,1)"/>
  <use id="arrowleft" xlink:href="#arrowLeft" x="0" y="0" onmousedown="handlePan(-1,0)"/>
</g>
<svg viewBox="0 0 15 15" width="100%" height="30px" preserveAspectRatio="xMaxYMin meet">
 <g id="arrow_out" transform="scale(0.3 0.3)">
  <a xlink:href="cbuild__action_8c__incl_org.svg" target="_base">
   <rect id="button" ry="5" rx="5" y="6" x="6" height="38" width="38"
        fill="#f2f5e9" fill-opacity="0.5" stroke="#606060" stroke-width="1.0"/>
   <path id="arrow"
     d="M 11.500037,31.436501 C 11.940474,20.09759 22.043105,11.32322 32.158766,21.979434 L 37.068811,17.246167 C 37.068811,17.246167 37.088388,32 37.088388,32 L 22.160133,31.978069 C 22.160133,31.978069 26.997745,27.140456 26.997745,27.140456 C 18.528582,18.264221 13.291696,25.230495 11.500037,31.436501 z"
     style="fill:#404040;"/>
  </a>
 </g>
</svg>

<style type='text/css'>
<![CDATA[
[data-mouse-over-selected='false'] { opacity: 0.7; }
[data-mouse-over-selected='true']  { opacity: 1.0; }
]]>
</style>
<script type="application/ecmascript"><![CDATA[
document.addEventListener('DOMContentLoaded', (event) => {
  highlightEdges();
  highlightAdjacentNodes();
});
]]></script>
</svg>
