<?xml version="1.0" encoding="UTF-8" standalone="no"?>
<!DOCTYPE svg PUBLIC "-//W3C//DTD SVG 1.1//EN"
 "http://www.w3.org/Graphics/SVG/1.1/DTD/svg11.dtd">
<!-- Generated by graphviz version 2.43.0 (0)
 -->
<!-- Title: opengl/edit/cbuild_action.c Pages: 1 -->
<svg width="2216pt" height="258pt"
 viewBox="0.00 0.00 2215.50 258.00" xmlns="http://www.w3.org/2000/svg" xmlns:xlink="http://www.w3.org/1999/xlink">
<g id="graph0" class="graph" transform="scale(1 1) rotate(0) translate(4 254)">
<title>opengl/edit/cbuild_action.c</title>
<!-- Node1 -->
<g id="Node000001" class="node">
<title>Node1</title>
<g id="a_Node000001"><a xlink:title="Functions to build a crystal using space group, crystallographic position(s) and object(s) to insert.">
<polygon fill="#999999" stroke="#666666" points="919,-250 815,-250 815,-220 919,-220 919,-250"/>
<text text-anchor="start" x="823" y="-238" font-family="Helvetica,sans-Serif" font-size="10.00">opengl/edit/cbuild</text>
<text text-anchor="middle" x="867" y="-227" font-family="Helvetica,sans-Serif" font-size="10.00">_action.c</text>
</a>
</g>
</g>
<!-- Node2 -->
<g id="Node000002" class="node">
<title>Node2</title>
<g id="a_Node000002"><a xlink:href="../../d2/d49/global_8h.html" target="_top" xlink:title="Global variable declarations &#160;&#160;Global convenience function declarations &#160;&#160;Global data structure defin...">
<polygon fill="white" stroke="#666666" points="1067,-129 1011,-129 1011,-110 1067,-110 1067,-129"/>
<text text-anchor="middle" x="1039" y="-117" font-family="Helvetica,sans-Serif" font-size="10.00">global.h</text>
</a>
</g>
</g>
<!-- Node1&#45;&gt;Node2 -->
<g id="edge1_Node000001_Node000002" class="edge">
<title>Node1&#45;&gt;Node2</title>
<g id="a_edge1_Node000001_Node000002"><a xlink:title=" ">
<path fill="none" stroke="#63b8ff" d="M888.44,-219.85C921.36,-198.13 984.04,-156.77 1017.19,-134.89"/>
<polygon fill="#63b8ff" stroke="#63b8ff" points="1019.29,-137.7 1025.71,-129.27 1015.43,-131.86 1019.29,-137.7"/>
</a>
</g>
</g>
<!-- Node25 -->
<g id="Node000025" class="node">
<title>Node25</title>
<g id="a_Node000025"><a xlink:href="../../dd/d49/callbacks_8h.html" target="_top" xlink:title="Callback declarations for main window.">
<polygon fill="white" stroke="#666666" points="416.5,-129 345.5,-129 345.5,-110 416.5,-110 416.5,-129"/>
<text text-anchor="middle" x="381" y="-117" font-family="Helvetica,sans-Serif" font-size="10.00">callbacks.h</text>
</a>
</g>
</g>
<!-- Node1&#45;&gt;Node25 -->
<g id="edge26_Node000001_Node000025" class="edge">
<title>Node1&#45;&gt;Node25</title>
<g id="a_edge26_Node000001_Node000025"><a xlink:title=" ">
<path fill="none" stroke="#63b8ff" d="M814.98,-227.96C754.72,-220.36 652.76,-205.63 567,-184 511.35,-169.96 448.54,-146.96 412,-132.83"/>
<polygon fill="#63b8ff" stroke="#63b8ff" points="413,-129.47 402.42,-129.1 410.46,-135.99 413,-129.47"/>
</a>
</g>
</g>
<!-- Node26 -->
<g id="Node000026" class="node">
<title>Node26</title>
<g id="a_Node000026"><a xlink:href="../../d4/da9/interface_8h.html" target="_top" xlink:title="Messaging function declarations.">
<polygon fill="white" stroke="#666666" points="503.5,-129 434.5,-129 434.5,-110 503.5,-110 503.5,-129"/>
<text text-anchor="middle" x="469" y="-117" font-family="Helvetica,sans-Serif" font-size="10.00">interface.h</text>
</a>
</g>
</g>
<!-- Node1&#45;&gt;Node26 -->
<g id="edge27_Node000001_Node000026" class="edge">
<title>Node1&#45;&gt;Node26</title>
<g id="a_edge27_Node000001_Node000026"><a xlink:title=" ">
<path fill="none" stroke="#63b8ff" d="M814.66,-226.31C764.55,-218.25 687.16,-203.97 622,-184 576.54,-170.07 525.99,-147.65 495.88,-133.52"/>
<polygon fill="#63b8ff" stroke="#63b8ff" points="497.03,-130.19 486.49,-129.06 494.03,-136.51 497.03,-130.19"/>
</a>
</g>
</g>
<!-- Node27 -->
<g id="Node000027" class="node">
<title>Node27</title>
<g id="a_Node000027"><a xlink:href="../../dc/de3/glview_8h.html" target="_top" xlink:title="Variable declarations related to the OpenGL window &#160;&#160;Function declarations related to the OpenGL wind...">
<polygon fill="white" stroke="#666666" points="578.5,-129 521.5,-129 521.5,-110 578.5,-110 578.5,-129"/>
<text text-anchor="middle" x="550" y="-117" font-family="Helvetica,sans-Serif" font-size="10.00">glview.h</text>
</a>
</g>
</g>
<!-- Node1&#45;&gt;Node27 -->
<g id="edge28_Node000001_Node000027" class="edge">
<title>Node1&#45;&gt;Node27</title>
<g id="a_edge28_Node000001_Node000027"><a xlink:title=" ">
<path fill="none" stroke="#63b8ff" d="M814.94,-225.15C773.22,-217.12 713.65,-203.54 664,-184 630.06,-170.65 593.72,-148.97 571.42,-134.73"/>
<polygon fill="#63b8ff" stroke="#63b8ff" points="573.07,-131.62 562.78,-129.12 569.26,-137.5 573.07,-131.62"/>
</a>
</g>
</g>
<!-- Node28 -->
<g id="Node000028" class="node">
<title>Node28</title>
<g id="a_Node000028"><a xlink:href="../../da/dc2/bind_8h.html" target="_top" xlink:title="Binding to the Fortran90 subroutines.">
<polygon fill="white" stroke="#666666" points="643.5,-129 596.5,-129 596.5,-110 643.5,-110 643.5,-129"/>
<text text-anchor="middle" x="620" y="-117" font-family="Helvetica,sans-Serif" font-size="10.00">bind.h</text>
</a>
</g>
</g>
<!-- Node1&#45;&gt;Node28 -->
<g id="edge29_Node000001_Node000028" class="edge">
<title>Node1&#45;&gt;Node28</title>
<g id="a_edge29_Node000001_Node000028"><a xlink:title=" ">
<path fill="none" stroke="#63b8ff" d="M814.81,-224.99C779.27,-217.43 731.96,-204.51 694,-184 671.09,-171.62 649,-151.2 635.01,-136.86"/>
<polygon fill="#63b8ff" stroke="#63b8ff" points="637.19,-134.07 627.76,-129.23 632.11,-138.89 637.19,-134.07"/>
</a>
</g>
</g>
<!-- Node29 -->
<g id="Node000029" class="node">
<title>Node29</title>
<g id="a_Node000029"><a xlink:href="../../dc/d8d/project_8h.html" target="_top" xlink:title="Function declarations for reading atomes project file &#160;&#160;Function declarations for saving atomes proje...">
<polygon fill="white" stroke="#666666" points="896.5,-129 837.5,-129 837.5,-110 896.5,-110 896.5,-129"/>
<text text-anchor="middle" x="867" y="-117" font-family="Helvetica,sans-Serif" font-size="10.00">project.h</text>
</a>
</g>
</g>
<!-- Node1&#45;&gt;Node29 -->
<g id="edge30_Node000001_Node000029" class="edge">
<title>Node1&#45;&gt;Node29</title>
<g id="a_edge30_Node000001_Node000029"><a xlink:title=" ">
<path fill="none" stroke="#63b8ff" d="M867,-219.63C867,-199.21 867,-161.81 867,-139.24"/>
<polygon fill="#63b8ff" stroke="#63b8ff" points="870.5,-139.23 867,-129.23 863.5,-139.23 870.5,-139.23"/>
</a>
</g>
</g>
<!-- Node30 -->
<g id="Node000030" class="node">
<title>Node30</title>
<g id="a_Node000030"><a xlink:href="../../d4/de6/workspace_8h.html" target="_top" xlink:title="Function declarations for workspace managment.">
<polygon fill="white" stroke="#666666" points="993,-129 915,-129 915,-110 993,-110 993,-129"/>
<text text-anchor="middle" x="954" y="-117" font-family="Helvetica,sans-Serif" font-size="10.00">workspace.h</text>
</a>
</g>
</g>
<!-- Node1&#45;&gt;Node30 -->
<g id="edge31_Node000001_Node000030" class="edge">
<title>Node1&#45;&gt;Node30</title>
<g id="a_edge31_Node000001_Node000030"><a xlink:title=" ">
<path fill="none" stroke="#63b8ff" d="M878.02,-219.63C894.09,-198.65 923.92,-159.75 941.03,-137.42"/>
<polygon fill="#63b8ff" stroke="#63b8ff" points="944,-139.3 947.31,-129.23 938.45,-135.04 944,-139.3"/>
</a>
</g>
</g>
<!-- Node31 -->
<g id="Node000031" class="node">
<title>Node31</title>
<g id="a_Node000031"><a xlink:href="../../d5/d9c/atom__edit_8h.html" target="_top" xlink:title="Function declarations for the mode edition window.">
<polygon fill="white" stroke="#666666" points="778.5,-184 703.5,-184 703.5,-165 778.5,-165 778.5,-184"/>
<text text-anchor="middle" x="741" y="-172" font-family="Helvetica,sans-Serif" font-size="10.00">atom_edit.h</text>
</a>
</g>
</g>
<!-- Node1&#45;&gt;Node31 -->
<g id="edge32_Node000001_Node000031" class="edge">
<title>Node1&#45;&gt;Node31</title>
<g id="a_edge32_Node000001_Node000031"><a xlink:title=" ">
<path fill="none" stroke="#63b8ff" d="M836.82,-219.99C816.17,-210.4 789,-197.79 768.87,-188.44"/>
<polygon fill="#63b8ff" stroke="#63b8ff" points="770.15,-185.18 759.61,-184.14 767.2,-191.52 770.15,-185.18"/>
</a>
</g>
</g>
<!-- Node34 -->
<g id="Node000034" class="node">
<title>Node34</title>
<g id="a_Node000034"><a xlink:href="../../de/d8a/cbuild__edit_8h.html" target="_top" xlink:title="Function declarations for the crystal builder.">
<polygon fill="white" stroke="#666666" points="1074.5,-184 995.5,-184 995.5,-165 1074.5,-165 1074.5,-184"/>
<text text-anchor="middle" x="1035" y="-172" font-family="Helvetica,sans-Serif" font-size="10.00">cbuild_edit.h</text>
</a>
</g>
</g>
<!-- Node1&#45;&gt;Node34 -->
<g id="edge42_Node000001_Node000034" class="edge">
<title>Node1&#45;&gt;Node34</title>
<g id="a_edge42_Node000001_Node000034"><a xlink:title=" ">
<path fill="none" stroke="#63b8ff" d="M907.24,-219.99C935.77,-210.05 973.65,-196.86 1000.73,-187.43"/>
<polygon fill="#63b8ff" stroke="#63b8ff" points="1001.9,-190.73 1010.19,-184.14 999.6,-184.12 1001.9,-190.73"/>
</a>
</g>
</g>
<!-- Node36 -->
<g id="Node000036" class="node">
<title>Node36</title>
<g id="a_Node000036"><a xlink:href="../../d1/dfb/readers_8h.html" target="_top" xlink:title="Functions declaration to read atomic coordinates.">
<polygon fill="white" stroke="#666666" points="1154,-184 1092,-184 1092,-165 1154,-165 1154,-184"/>
<text text-anchor="middle" x="1123" y="-172" font-family="Helvetica,sans-Serif" font-size="10.00">readers.h</text>
</a>
</g>
</g>
<!-- Node1&#45;&gt;Node36 -->
<g id="edge45_Node000001_Node000036" class="edge">
<title>Node1&#45;&gt;Node36</title>
<g id="a_edge45_Node000001_Node000036"><a xlink:title=" ">
<path fill="none" stroke="#63b8ff" d="M919.11,-222.09C967.26,-211.09 1037.83,-194.96 1082.05,-184.86"/>
<polygon fill="#63b8ff" stroke="#63b8ff" points="1082.91,-188.25 1091.88,-182.61 1081.36,-181.43 1082.91,-188.25"/>
</a>
</g>
</g>
<!-- Node41 -->
<g id="Node000041" class="node">
<title>Node41</title>
<g id="a_Node000041"><a xlink:title=" ">
<polygon fill="#e0e0e0" stroke="#999999" points="1225.5,-184 1172.5,-184 1172.5,-165 1225.5,-165 1225.5,-184"/>
<text text-anchor="middle" x="1199" y="-172" font-family="Helvetica,sans-Serif" font-size="10.00">ctype.h</text>
</a>
</g>
</g>
<!-- Node1&#45;&gt;Node41 -->
<g id="edge51_Node000001_Node000041" class="edge">
<title>Node1&#45;&gt;Node41</title>
<g id="a_edge51_Node000001_Node000041"><a xlink:title=" ">
<path fill="none" stroke="#63b8ff" d="M919.05,-226.25C976.24,-217.5 1070.99,-202.32 1162.34,-184.02"/>
<polygon fill="#63b8ff" stroke="#63b8ff" points="1163.2,-187.42 1172.31,-182.01 1161.81,-180.55 1163.2,-187.42"/>
</a>
</g>
</g>
<!-- Node3 -->
<g id="Node000003" class="node">
<title>Node3</title>
<g id="a_Node000003"><a xlink:title=" ">
<polygon fill="#e0e0e0" stroke="#999999" points="901,-74 857,-74 857,-55 901,-55 901,-74"/>
<text text-anchor="middle" x="879" y="-62" font-family="Helvetica,sans-Serif" font-size="10.00">glib.h</text>
</a>
</g>
</g>
<!-- Node2&#45;&gt;Node3 -->
<g id="edge2_Node000002_Node000003" class="edge">
<title>Node2&#45;&gt;Node3</title>
<g id="a_edge2_Node000002_Node000003"><a xlink:title=" ">
<path fill="none" stroke="#63b8ff" d="M1013.29,-109.98C985.36,-100.73 940.7,-85.94 910.63,-75.98"/>
<polygon fill="#63b8ff" stroke="#63b8ff" points="911.63,-72.62 901.04,-72.8 909.43,-79.27 911.63,-72.62"/>
</a>
</g>
</g>
<!-- Node4 -->
<g id="Node000004" class="node">
<title>Node4</title>
<g id="a_Node000004"><a xlink:title=" ">
<polygon fill="#e0e0e0" stroke="#999999" points="993,-74 919,-74 919,-55 993,-55 993,-74"/>
<text text-anchor="middle" x="956" y="-62" font-family="Helvetica,sans-Serif" font-size="10.00">glib/gi18n.h</text>
</a>
</g>
</g>
<!-- Node2&#45;&gt;Node4 -->
<g id="edge3_Node000002_Node000004" class="edge">
<title>Node2&#45;&gt;Node4</title>
<g id="a_edge3_Node000002_Node000004"><a xlink:title=" ">
<path fill="none" stroke="#63b8ff" d="M1025.66,-109.98C1012.91,-101.84 993.45,-89.41 978.33,-79.76"/>
<polygon fill="#63b8ff" stroke="#63b8ff" points="979.89,-76.6 969.58,-74.17 976.12,-82.5 979.89,-76.6"/>
</a>
</g>
</g>
<!-- Node5 -->
<g id="Node000005" class="node">
<title>Node5</title>
<g id="a_Node000005"><a xlink:title=" ">
<polygon fill="#e0e0e0" stroke="#999999" points="1066.5,-74 1011.5,-74 1011.5,-55 1066.5,-55 1066.5,-74"/>
<text text-anchor="middle" x="1039" y="-62" font-family="Helvetica,sans-Serif" font-size="10.00">locale.h</text>
</a>
</g>
</g>
<!-- Node2&#45;&gt;Node5 -->
<g id="edge4_Node000002_Node000005" class="edge">
<title>Node2&#45;&gt;Node5</title>
<g id="a_edge4_Node000002_Node000005"><a xlink:title=" ">
<path fill="none" stroke="#63b8ff" d="M1039,-109.75C1039,-102.8 1039,-92.85 1039,-84.13"/>
<polygon fill="#63b8ff" stroke="#63b8ff" points="1042.5,-84.09 1039,-74.09 1035.5,-84.09 1042.5,-84.09"/>
</a>
</g>
</g>
<!-- Node6 -->
<g id="Node000006" class="node">
<title>Node6</title>
<g id="a_Node000006"><a xlink:title=" ">
<polygon fill="#e0e0e0" stroke="#999999" points="1141,-74 1085,-74 1085,-55 1141,-55 1141,-74"/>
<text text-anchor="middle" x="1113" y="-62" font-family="Helvetica,sans-Serif" font-size="10.00">unistd.h</text>
</a>
</g>
</g>
<!-- Node2&#45;&gt;Node6 -->
<g id="edge5_Node000002_Node000006" class="edge">
<title>Node2&#45;&gt;Node6</title>
<g id="a_edge5_Node000002_Node000006"><a xlink:title=" ">
<path fill="none" stroke="#63b8ff" d="M1050.89,-109.98C1062.15,-101.92 1079.29,-89.65 1092.71,-80.03"/>
<polygon fill="#63b8ff" stroke="#63b8ff" points="1094.8,-82.84 1100.89,-74.17 1090.73,-77.15 1094.8,-82.84"/>
</a>
</g>
</g>
<!-- Node7 -->
<g id="Node000007" class="node">
<title>Node7</title>
<g id="a_Node000007"><a xlink:title=" ">
<polygon fill="#e0e0e0" stroke="#999999" points="1212.5,-74 1159.5,-74 1159.5,-55 1212.5,-55 1212.5,-74"/>
<text text-anchor="middle" x="1186" y="-62" font-family="Helvetica,sans-Serif" font-size="10.00">string.h</text>
</a>
</g>
</g>
<!-- Node2&#45;&gt;Node7 -->
<g id="edge6_Node000002_Node000007" class="edge">
<title>Node2&#45;&gt;Node7</title>
<g id="a_edge6_Node000002_Node000007"><a xlink:title=" ">
<path fill="none" stroke="#63b8ff" d="M1062.62,-109.98C1086.9,-101.23 1124.95,-87.51 1152.37,-77.62"/>
<polygon fill="#63b8ff" stroke="#63b8ff" points="1153.73,-80.85 1161.95,-74.17 1151.36,-74.27 1153.73,-80.85"/>
</a>
</g>
</g>
<!-- Node8 -->
<g id="Node000008" class="node">
<title>Node8</title>
<g id="a_Node000008"><a xlink:title=" ">
<polygon fill="#e0e0e0" stroke="#999999" points="715,-19 665,-19 665,0 715,0 715,-19"/>
<text text-anchor="middle" x="690" y="-7" font-family="Helvetica,sans-Serif" font-size="10.00">stdio.h</text>
</a>
</g>
</g>
<!-- Node2&#45;&gt;Node8 -->
<g id="edge7_Node000002_Node000008" class="edge">
<title>Node2&#45;&gt;Node8</title>
<g id="a_edge7_Node000002_Node000008"><a xlink:title=" ">
<path fill="none" stroke="#63b8ff" d="M1010.79,-111.67C1007.83,-111.06 1004.86,-110.49 1002,-110 930.58,-97.87 726.31,-127.98 678,-74 666.92,-61.62 672.67,-42.32 679.49,-28.25"/>
<polygon fill="#63b8ff" stroke="#63b8ff" points="682.76,-29.56 684.42,-19.09 676.6,-26.24 682.76,-29.56"/>
</a>
</g>
</g>
<!-- Node9 -->
<g id="Node000009" class="node">
<title>Node9</title>
<g id="a_Node000009"><a xlink:title=" ">
<polygon fill="#e0e0e0" stroke="#999999" points="1322.5,-74 1269.5,-74 1269.5,-55 1322.5,-55 1322.5,-74"/>
<text text-anchor="middle" x="1296" y="-62" font-family="Helvetica,sans-Serif" font-size="10.00">stdlib.h</text>
</a>
</g>
</g>
<!-- Node2&#45;&gt;Node9 -->
<g id="edge8_Node000002_Node000009" class="edge">
<title>Node2&#45;&gt;Node9</title>
<g id="a_edge8_Node000002_Node000009"><a xlink:title=" ">
<path fill="none" stroke="#63b8ff" d="M1067.31,-112.68C1108.58,-104.19 1187.7,-87.91 1255,-74 1256.28,-73.74 1257.59,-73.47 1258.9,-73.19"/>
<polygon fill="#63b8ff" stroke="#63b8ff" points="1260.01,-76.54 1269.09,-71.08 1258.59,-69.68 1260.01,-76.54"/>
</a>
</g>
</g>
<!-- Node10 -->
<g id="Node000010" class="node">
<title>Node10</title>
<g id="a_Node000010"><a xlink:title=" ">
<polygon fill="#e0e0e0" stroke="#999999" points="1413,-74 1341,-74 1341,-55 1413,-55 1413,-74"/>
<text text-anchor="middle" x="1377" y="-62" font-family="Helvetica,sans-Serif" font-size="10.00">sys/types.h</text>
</a>
</g>
</g>
<!-- Node2&#45;&gt;Node10 -->
<g id="edge9_Node000002_Node000010" class="edge">
<title>Node2&#45;&gt;Node10</title>
<g id="a_edge9_Node000002_Node000010"><a xlink:title=" ">
<path fill="none" stroke="#63b8ff" d="M1067.24,-114.5C1119.41,-107.04 1234.42,-90.28 1331,-74 1331.1,-73.98 1331.2,-73.97 1331.3,-73.95"/>
<polygon fill="#63b8ff" stroke="#63b8ff" points="1331.61,-77.45 1340.86,-72.29 1330.41,-70.55 1331.61,-77.45"/>
</a>
</g>
</g>
<!-- Node11 -->
<g id="Node000011" class="node">
<title>Node11</title>
<g id="a_Node000011"><a xlink:title=" ">
<polygon fill="#e0e0e0" stroke="#999999" points="1495,-74 1431,-74 1431,-55 1495,-55 1495,-74"/>
<text text-anchor="middle" x="1463" y="-62" font-family="Helvetica,sans-Serif" font-size="10.00">sys/stat.h</text>
</a>
</g>
</g>
<!-- Node2&#45;&gt;Node11 -->
<g id="edge10_Node000002_Node000011" class="edge">
<title>Node2&#45;&gt;Node11</title>
<g id="a_edge10_Node000002_Node000011"><a xlink:title=" ">
<path fill="none" stroke="#63b8ff" d="M1067.47,-116.06C1129.71,-110.55 1282.76,-95.99 1420.9,-74.05"/>
<polygon fill="#63b8ff" stroke="#63b8ff" points="1421.5,-77.49 1430.82,-72.45 1420.39,-70.58 1421.5,-77.49"/>
</a>
</g>
</g>
<!-- Node12 -->
<g id="Node000012" class="node">
<title>Node12</title>
<g id="a_Node000012"><a xlink:title=" ">
<polygon fill="#e0e0e0" stroke="#999999" points="1025.5,-19 974.5,-19 974.5,0 1025.5,0 1025.5,-19"/>
<text text-anchor="middle" x="1000" y="-7" font-family="Helvetica,sans-Serif" font-size="10.00">math.h</text>
</a>
</g>
</g>
<!-- Node2&#45;&gt;Node12 -->
<g id="edge11_Node000002_Node000012" class="edge">
<title>Node2&#45;&gt;Node12</title>
<g id="a_edge11_Node000002_Node000012"><a xlink:title=" ">
<path fill="none" stroke="#63b8ff" d="M1067.4,-118.15C1128.47,-116.41 1263.4,-106.79 1221,-55 1198,-26.91 1092.25,-16.16 1035.78,-12.37"/>
<polygon fill="#63b8ff" stroke="#63b8ff" points="1035.71,-8.86 1025.51,-11.72 1035.27,-15.85 1035.71,-8.86"/>
</a>
</g>
</g>
<!-- Node13 -->
<g id="Node000013" class="node">
<title>Node13</title>
<g id="a_Node000013"><a xlink:title=" ">
<polygon fill="#e0e0e0" stroke="#999999" points="1643,-74 1583,-74 1583,-55 1643,-55 1643,-74"/>
<text text-anchor="middle" x="1613" y="-62" font-family="Helvetica,sans-Serif" font-size="10.00">gtk/gtk.h</text>
</a>
</g>
</g>
<!-- Node2&#45;&gt;Node13 -->
<g id="edge12_Node000002_Node000013" class="edge">
<title>Node2&#45;&gt;Node13</title>
<g id="a_edge12_Node000002_Node000013"><a xlink:title=" ">
<path fill="none" stroke="#63b8ff" d="M1067.28,-117.46C1145.91,-114.29 1373.85,-103.22 1572.79,-73.98"/>
<polygon fill="#63b8ff" stroke="#63b8ff" points="1573.46,-77.42 1582.84,-72.48 1572.43,-70.5 1573.46,-77.42"/>
</a>
</g>
</g>
<!-- Node14 -->
<g id="Node000014" class="node">
<title>Node14</title>
<g id="a_Node000014"><a xlink:title=" ">
<polygon fill="#e0e0e0" stroke="#999999" points="1726.5,-74 1661.5,-74 1661.5,-55 1726.5,-55 1726.5,-74"/>
<text text-anchor="middle" x="1694" y="-62" font-family="Helvetica,sans-Serif" font-size="10.00">gdk/gdk.h</text>
</a>
</g>
</g>
<!-- Node2&#45;&gt;Node14 -->
<g id="edge13_Node000002_Node000014" class="edge">
<title>Node2&#45;&gt;Node14</title>
<g id="a_edge13_Node000002_Node000014"><a xlink:title=" ">
<path fill="none" stroke="#63b8ff" d="M1067.24,-117.73C1153.33,-115.1 1420.18,-104.98 1651.12,-73.93"/>
<polygon fill="#63b8ff" stroke="#63b8ff" points="1651.62,-77.4 1661.05,-72.58 1650.67,-70.46 1651.62,-77.4"/>
</a>
</g>
</g>
<!-- Node15 -->
<g id="Node000015" class="node">
<title>Node15</title>
<g id="a_Node000015"><a xlink:title=" ">
<polygon fill="#e0e0e0" stroke="#999999" points="108,-74 0,-74 0,-55 108,-55 108,-74"/>
<text text-anchor="middle" x="54" y="-62" font-family="Helvetica,sans-Serif" font-size="10.00">gdk/gdkkeysyms.h</text>
</a>
</g>
</g>
<!-- Node2&#45;&gt;Node15 -->
<g id="edge14_Node000002_Node000015" class="edge">
<title>Node2&#45;&gt;Node15</title>
<g id="a_edge14_Node000002_Node000015"><a xlink:title=" ">
<path fill="none" stroke="#63b8ff" d="M1010.82,-111.46C1007.85,-110.89 1004.87,-110.39 1002,-110 615.16,-58.15 510.93,-107.5 118.47,-74.03"/>
<polygon fill="#63b8ff" stroke="#63b8ff" points="118.52,-70.52 108.26,-73.15 117.92,-77.5 118.52,-70.52"/>
</a>
</g>
</g>
<!-- Node16 -->
<g id="Node000016" class="node">
<title>Node16</title>
<g id="a_Node000016"><a xlink:title=" ">
<polygon fill="#e0e0e0" stroke="#999999" points="259.5,-74 126.5,-74 126.5,-55 259.5,-55 259.5,-74"/>
<text text-anchor="middle" x="193" y="-62" font-family="Helvetica,sans-Serif" font-size="10.00">gdk&#45;pixbuf/gdk&#45;pixbuf.h</text>
</a>
</g>
</g>
<!-- Node2&#45;&gt;Node16 -->
<g id="edge15_Node000002_Node000016" class="edge">
<title>Node2&#45;&gt;Node16</title>
<g id="a_edge15_Node000002_Node000016"><a xlink:title=" ">
<path fill="none" stroke="#63b8ff" d="M1010.81,-111.48C1007.85,-110.91 1004.87,-110.4 1002,-110 681.78,-65.72 595.31,-99.69 269.83,-74.09"/>
<polygon fill="#63b8ff" stroke="#63b8ff" points="269.88,-70.58 259.63,-73.28 269.32,-77.56 269.88,-70.58"/>
</a>
</g>
</g>
<!-- Node17 -->
<g id="Node000017" class="node">
<title>Node17</title>
<g id="a_Node000017"><a xlink:title=" ">
<polygon fill="#e0e0e0" stroke="#999999" points="378.5,-74 277.5,-74 277.5,-55 378.5,-55 378.5,-74"/>
<text text-anchor="middle" x="328" y="-62" font-family="Helvetica,sans-Serif" font-size="10.00">pango/pangoft2.h</text>
</a>
</g>
</g>
<!-- Node2&#45;&gt;Node17 -->
<g id="edge16_Node000002_Node000017" class="edge">
<title>Node2&#45;&gt;Node17</title>
<g id="a_edge16_Node000002_Node000017"><a xlink:title=" ">
<path fill="none" stroke="#63b8ff" d="M1010.81,-111.51C1007.85,-110.93 1004.87,-110.41 1002,-110 734.7,-71.74 661.77,-100.47 388.91,-73.99"/>
<polygon fill="#63b8ff" stroke="#63b8ff" points="389,-70.48 378.7,-72.98 388.31,-77.45 389,-70.48"/>
</a>
</g>
</g>
<!-- Node18 -->
<g id="Node000018" class="node">
<title>Node18</title>
<g id="a_Node000018"><a xlink:title=" ">
<polygon fill="#e0e0e0" stroke="#999999" points="465,-74 397,-74 397,-55 465,-55 465,-74"/>
<text text-anchor="middle" x="431" y="-62" font-family="Helvetica,sans-Serif" font-size="10.00">epoxy/gl.h</text>
</a>
</g>
</g>
<!-- Node2&#45;&gt;Node18 -->
<g id="edge17_Node000002_Node000018" class="edge">
<title>Node2&#45;&gt;Node18</title>
<g id="a_edge17_Node000002_Node000018"><a xlink:title=" ">
<path fill="none" stroke="#63b8ff" d="M1010.81,-111.54C1007.84,-110.95 1004.87,-110.42 1002,-110 772.62,-76.05 708.97,-104.05 475.37,-74"/>
<polygon fill="#63b8ff" stroke="#63b8ff" points="475.57,-70.5 465.2,-72.67 474.66,-77.44 475.57,-70.5"/>
</a>
</g>
</g>
<!-- Node19 -->
<g id="Node000019" class="node">
<title>Node19</title>
<g id="a_Node000019"><a xlink:title=" ">
<polygon fill="#e0e0e0" stroke="#999999" points="539,-74 483,-74 483,-55 539,-55 539,-74"/>
<text text-anchor="middle" x="511" y="-62" font-family="Helvetica,sans-Serif" font-size="10.00">GL/glu.h</text>
</a>
</g>
</g>
<!-- Node2&#45;&gt;Node19 -->
<g id="edge18_Node000002_Node000019" class="edge">
<title>Node2&#45;&gt;Node19</title>
<g id="a_edge18_Node000002_Node000019"><a xlink:title=" ">
<path fill="none" stroke="#63b8ff" d="M1010.8,-111.57C1007.84,-110.98 1004.87,-110.44 1002,-110 805.16,-79.75 749.84,-103.94 549.18,-73.94"/>
<polygon fill="#63b8ff" stroke="#63b8ff" points="549.61,-70.47 539.2,-72.43 548.56,-77.39 549.61,-70.47"/>
</a>
</g>
</g>
<!-- Node20 -->
<g id="Node000020" class="node">
<title>Node20</title>
<g id="a_Node000020"><a xlink:title=" ">
<polygon fill="#e0e0e0" stroke="#999999" points="631,-74 557,-74 557,-55 631,-55 631,-74"/>
<text text-anchor="middle" x="594" y="-62" font-family="Helvetica,sans-Serif" font-size="10.00">epoxy/glx.h</text>
</a>
</g>
</g>
<!-- Node2&#45;&gt;Node20 -->
<g id="edge19_Node000002_Node000020" class="edge">
<title>Node2&#45;&gt;Node20</title>
<g id="a_edge19_Node000002_Node000020"><a xlink:title=" ">
<path fill="none" stroke="#63b8ff" d="M1010.79,-111.64C1007.83,-111.03 1004.86,-110.47 1002,-110 844.65,-84.1 803.07,-95.12 645,-74 643.72,-73.83 642.43,-73.65 641.13,-73.47"/>
<polygon fill="#63b8ff" stroke="#63b8ff" points="641.41,-69.97 631,-71.96 640.38,-76.89 641.41,-69.97"/>
</a>
</g>
</g>
<!-- Node21 -->
<g id="Node000021" class="node">
<title>Node21</title>
<g id="a_Node000021"><a xlink:href="../../dc/db0/math__3d_8h.html" target="_top" xlink:title="Functions for OpenGL math.">
<polygon fill="white" stroke="#666666" points="755,-74 687,-74 687,-55 755,-55 755,-74"/>
<text text-anchor="middle" x="721" y="-62" font-family="Helvetica,sans-Serif" font-size="10.00">math_3d.h</text>
</a>
</g>
</g>
<!-- Node2&#45;&gt;Node21 -->
<g id="edge20_Node000002_Node000021" class="edge">
<title>Node2&#45;&gt;Node21</title>
<g id="a_edge20_Node000002_Node000021"><a xlink:title=" ">
<path fill="none" stroke="#63b8ff" d="M1010.76,-111.78C1007.81,-111.15 1004.85,-110.54 1002,-110 900.08,-90.61 871.13,-92.25 765.38,-74.17"/>
<polygon fill="#63b8ff" stroke="#63b8ff" points="765.69,-70.67 755.24,-72.41 764.5,-77.57 765.69,-70.67"/>
</a>
</g>
</g>
<!-- Node22 -->
<g id="Node000022" class="node">
<title>Node22</title>
<g id="a_Node000022"><a xlink:href="../../da/d7e/glwin_8h.html" target="_top" xlink:title="Variable declarations related the OpenGL window &#160;&#160;Data structure declarations related the OpenGL wind...">
<polygon fill="white" stroke="#666666" points="1565,-74 1513,-74 1513,-55 1565,-55 1565,-74"/>
<text text-anchor="middle" x="1539" y="-62" font-family="Helvetica,sans-Serif" font-size="10.00">glwin.h</text>
</a>
</g>
</g>
<!-- Node2&#45;&gt;Node22 -->
<g id="edge23_Node000002_Node000022" class="edge">
<title>Node2&#45;&gt;Node22</title>
<g id="a_edge23_Node000002_Node000022"><a xlink:title=" ">
<path fill="none" stroke="#63b8ff" d="M1067.23,-117.21C1138.62,-113.63 1332.29,-102.09 1502.81,-73.97"/>
<polygon fill="#63b8ff" stroke="#63b8ff" points="1503.42,-77.41 1512.71,-72.31 1502.27,-70.51 1503.42,-77.41"/>
</a>
</g>
</g>
<!-- Node24 -->
<g id="Node000024" class="node">
<title>Node24</title>
<g id="a_Node000024"><a xlink:title=" ">
<polygon fill="#e0e0e0" stroke="#999999" points="839,-74 773,-74 773,-55 839,-55 839,-74"/>
<text text-anchor="middle" x="806" y="-62" font-family="Helvetica,sans-Serif" font-size="10.00">gtk/gtkx.h</text>
</a>
</g>
</g>
<!-- Node2&#45;&gt;Node24 -->
<g id="edge25_Node000002_Node000024" class="edge">
<title>Node2&#45;&gt;Node24</title>
<g id="a_edge25_Node000002_Node000024"><a xlink:title=" ">
<path fill="none" stroke="#63b8ff" d="M1010.72,-112C1007.78,-111.32 1004.83,-110.65 1002,-110 949.43,-97.99 888.9,-84.27 849.18,-75.27"/>
<polygon fill="#63b8ff" stroke="#63b8ff" points="849.82,-71.83 839.3,-73.03 848.28,-78.65 849.82,-71.83"/>
</a>
</g>
</g>
<!-- Node21&#45;&gt;Node8 -->
<g id="edge22_Node000021_Node000008" class="edge">
<title>Node21&#45;&gt;Node8</title>
<g id="a_edge22_Node000021_Node000008"><a xlink:title=" ">
<path fill="none" stroke="#63b8ff" d="M715.88,-54.75C711.64,-47.49 705.47,-36.95 700.22,-27.98"/>
<polygon fill="#63b8ff" stroke="#63b8ff" points="703.09,-25.95 695.02,-19.09 697.05,-29.49 703.09,-25.95"/>
</a>
</g>
</g>
<!-- Node21&#45;&gt;Node12 -->
<g id="edge21_Node000021_Node000012" class="edge">
<title>Node21&#45;&gt;Node12</title>
<g id="a_edge21_Node000021_Node000012"><a xlink:title=" ">
<path fill="none" stroke="#63b8ff" d="M755.26,-56.7C758.22,-56.12 761.16,-55.55 764,-55 835.02,-41.28 918.17,-25.72 964.39,-17.11"/>
<polygon fill="#63b8ff" stroke="#63b8ff" points="965.3,-20.5 974.49,-15.23 964.02,-13.62 965.3,-20.5"/>
</a>
</g>
</g>
<!-- Node23 -->
<g id="Node000023" class="node">
<title>Node23</title>
<g id="a_Node000023"><a xlink:href="../../d5/d9e/ogl__shading_8h.html" target="_top" xlink:title="Variable declarations related to GLSL programs &#160;&#160;Data structure declarations related to GLSL programs...">
<polygon fill="white" stroke="#666666" points="1581,-19 1497,-19 1497,0 1581,0 1581,-19"/>
<text text-anchor="middle" x="1539" y="-7" font-family="Helvetica,sans-Serif" font-size="10.00">ogl_shading.h</text>
</a>
</g>
</g>
<!-- Node22&#45;&gt;Node23 -->
<g id="edge24_Node000022_Node000023" class="edge">
<title>Node22&#45;&gt;Node23</title>
<g id="a_edge24_Node000022_Node000023"><a xlink:title=" ">
<path fill="none" stroke="#63b8ff" d="M1539,-54.75C1539,-47.8 1539,-37.85 1539,-29.13"/>
<polygon fill="#63b8ff" stroke="#63b8ff" points="1542.5,-29.09 1539,-19.09 1535.5,-29.09 1542.5,-29.09"/>
</a>
</g>
</g>
<!-- Node31&#45;&gt;Node2 -->
<g id="edge33_Node000031_Node000002" class="edge">
<title>Node31&#45;&gt;Node2</title>
<g id="a_edge33_Node000031_Node000002"><a xlink:title=" ">
<path fill="none" stroke="#63b8ff" d="M778.73,-167.76C827.65,-160.16 915.85,-145.95 1000.69,-129.17"/>
<polygon fill="#63b8ff" stroke="#63b8ff" points="1001.63,-132.55 1010.75,-127.16 1000.26,-125.69 1001.63,-132.55"/>
</a>
</g>
</g>
<!-- Node31&#45;&gt;Node25 -->
<g id="edge35_Node000031_Node000025" class="edge">
<title>Node31&#45;&gt;Node25</title>
<g id="a_edge35_Node000031_Node000025"><a xlink:title=" ">
<path fill="none" stroke="#63b8ff" d="M703.45,-168.84C645.95,-161.57 532.42,-146.67 426.42,-129.17"/>
<polygon fill="#63b8ff" stroke="#63b8ff" points="426.95,-125.71 416.51,-127.52 425.8,-132.61 426.95,-125.71"/>
</a>
</g>
</g>
<!-- Node31&#45;&gt;Node26 -->
<g id="edge36_Node000031_Node000026" class="edge">
<title>Node31&#45;&gt;Node26</title>
<g id="a_edge36_Node000031_Node000026"><a xlink:title=" ">
<path fill="none" stroke="#63b8ff" d="M703.31,-166.21C659.96,-157.83 586.36,-143.56 513.94,-129.38"/>
<polygon fill="#63b8ff" stroke="#63b8ff" points="514.22,-125.86 503.73,-127.38 512.87,-132.73 514.22,-125.86"/>
</a>
</g>
</g>
<!-- Node31&#45;&gt;Node27 -->
<g id="edge38_Node000031_Node000027" class="edge">
<title>Node31&#45;&gt;Node27</title>
<g id="a_edge38_Node000031_Node000027"><a xlink:title=" ">
<path fill="none" stroke="#63b8ff" d="M710.31,-164.98C677.15,-155.78 624.26,-141.11 588.38,-131.15"/>
<polygon fill="#63b8ff" stroke="#63b8ff" points="589.31,-127.78 578.74,-128.47 587.44,-134.52 589.31,-127.78"/>
</a>
</g>
</g>
<!-- Node31&#45;&gt;Node28 -->
<g id="edge34_Node000031_Node000028" class="edge">
<title>Node31&#45;&gt;Node28</title>
<g id="a_edge34_Node000031_Node000028"><a xlink:title=" ">
<path fill="none" stroke="#63b8ff" d="M721.56,-164.98C702.01,-156.42 671.62,-143.11 649.18,-133.28"/>
<polygon fill="#63b8ff" stroke="#63b8ff" points="650.36,-129.98 639.79,-129.17 647.55,-136.39 650.36,-129.98"/>
</a>
</g>
</g>
<!-- Node31&#45;&gt;Node29 -->
<g id="edge40_Node000031_Node000029" class="edge">
<title>Node31&#45;&gt;Node29</title>
<g id="a_edge40_Node000031_Node000029"><a xlink:title=" ">
<path fill="none" stroke="#63b8ff" d="M761.24,-164.98C781.7,-156.38 813.53,-142.99 836.93,-133.15"/>
<polygon fill="#63b8ff" stroke="#63b8ff" points="838.53,-136.27 846.39,-129.17 835.81,-129.82 838.53,-136.27"/>
</a>
</g>
</g>
<!-- Node31&#45;&gt;Node30 -->
<g id="edge41_Node000031_Node000030" class="edge">
<title>Node31&#45;&gt;Node30</title>
<g id="a_edge41_Node000031_Node000030"><a xlink:title=" ">
<path fill="none" stroke="#63b8ff" d="M775.22,-164.98C811.76,-155.89 869.78,-141.46 909.76,-131.51"/>
<polygon fill="#63b8ff" stroke="#63b8ff" points="910.65,-134.89 919.51,-129.08 908.96,-128.1 910.65,-134.89"/>
</a>
</g>
</g>
<!-- Node32 -->
<g id="Node000032" class="node">
<title>Node32</title>
<g id="a_Node000032"><a xlink:href="../../d6/d75/initcoord_8h.html" target="_top" xlink:title="Function declarations to handle the atomic coordination data.">
<polygon fill="white" stroke="#666666" points="819,-129 751,-129 751,-110 819,-110 819,-129"/>
<text text-anchor="middle" x="785" y="-117" font-family="Helvetica,sans-Serif" font-size="10.00">initcoord.h</text>
</a>
</g>
</g>
<!-- Node31&#45;&gt;Node32 -->
<g id="edge37_Node000031_Node000032" class="edge">
<title>Node31&#45;&gt;Node32</title>
<g id="a_edge37_Node000031_Node000032"><a xlink:title=" ">
<path fill="none" stroke="#63b8ff" d="M748.27,-164.75C754.54,-157.18 763.79,-146.05 771.43,-136.84"/>
<polygon fill="#63b8ff" stroke="#63b8ff" points="774.17,-139.02 777.87,-129.09 768.79,-134.55 774.17,-139.02"/>
</a>
</g>
</g>
<!-- Node33 -->
<g id="Node000033" class="node">
<title>Node33</title>
<g id="a_Node000033"><a xlink:href="../../d1/d2a/glwindow_8h.html" target="_top" xlink:title="Function declarations for the creation of the OpenGL window.">
<polygon fill="white" stroke="#666666" points="732.5,-129 661.5,-129 661.5,-110 732.5,-110 732.5,-129"/>
<text text-anchor="middle" x="697" y="-117" font-family="Helvetica,sans-Serif" font-size="10.00">glwindow.h</text>
</a>
</g>
</g>
<!-- Node31&#45;&gt;Node33 -->
<g id="edge39_Node000031_Node000033" class="edge">
<title>Node31&#45;&gt;Node33</title>
<g id="a_edge39_Node000031_Node000033"><a xlink:title=" ">
<path fill="none" stroke="#63b8ff" d="M733.73,-164.75C727.46,-157.18 718.21,-146.05 710.57,-136.84"/>
<polygon fill="#63b8ff" stroke="#63b8ff" points="713.21,-134.55 704.13,-129.09 707.83,-139.02 713.21,-134.55"/>
</a>
</g>
</g>
<!-- Node34&#45;&gt;Node2 -->
<g id="edge43_Node000034_Node000002" class="edge">
<title>Node34&#45;&gt;Node2</title>
<g id="a_edge43_Node000034_Node000002"><a xlink:title=" ">
<path fill="none" stroke="#63b8ff" d="M1035.66,-164.75C1036.18,-157.8 1036.94,-147.85 1037.59,-139.13"/>
<polygon fill="#63b8ff" stroke="#63b8ff" points="1041.09,-139.32 1038.35,-129.09 1034.11,-138.8 1041.09,-139.32"/>
</a>
</g>
</g>
<!-- Node35 -->
<g id="Node000035" class="node">
<title>Node35</title>
<g id="a_Node000035"><a xlink:title=" ">
<polygon fill="#e0e0e0" stroke="#999999" points="1853.5,-74 1744.5,-74 1744.5,-55 1853.5,-55 1853.5,-74"/>
<text text-anchor="middle" x="1799" y="-62" font-family="Helvetica,sans-Serif" font-size="10.00">libxml/xmlreader.h</text>
</a>
</g>
</g>
<!-- Node34&#45;&gt;Node35 -->
<g id="edge44_Node000034_Node000035" class="edge">
<title>Node34&#45;&gt;Node35</title>
<g id="a_edge44_Node000034_Node000035"><a xlink:title=" ">
<path fill="none" stroke="#63b8ff" d="M1074.53,-166.38C1077.4,-165.9 1080.24,-165.44 1083,-165 1146.75,-154.93 1570.3,-96.81 1734.3,-74.35"/>
<polygon fill="#63b8ff" stroke="#63b8ff" points="1734.83,-77.81 1744.26,-72.99 1733.88,-70.88 1734.83,-77.81"/>
</a>
</g>
</g>
<!-- Node37 -->
<g id="Node000037" class="node">
<title>Node37</title>
<g id="a_Node000037"><a xlink:href="../../dc/d50/read__isaacs_8h.html" target="_top" xlink:title="Function declarations to read / write ISAACS XML file.">
<polygon fill="white" stroke="#666666" points="1965.5,-129 1882.5,-129 1882.5,-110 1965.5,-110 1965.5,-129"/>
<text text-anchor="middle" x="1924" y="-117" font-family="Helvetica,sans-Serif" font-size="10.00">read_isaacs.h</text>
</a>
</g>
</g>
<!-- Node36&#45;&gt;Node37 -->
<g id="edge46_Node000036_Node000037" class="edge">
<title>Node36&#45;&gt;Node37</title>
<g id="a_edge46_Node000036_Node000037"><a xlink:title=" ">
<path fill="none" stroke="#63b8ff" d="M1154.36,-166.37C1157.27,-165.85 1160.19,-165.38 1163,-165 1427.77,-129.34 1748.16,-122.25 1871.82,-120.84"/>
<polygon fill="#63b8ff" stroke="#63b8ff" points="1872.17,-124.34 1882.13,-120.73 1872.09,-117.34 1872.17,-124.34"/>
</a>
</g>
</g>
<!-- Node37&#45;&gt;Node35 -->
<g id="edge49_Node000037_Node000035" class="edge">
<title>Node37&#45;&gt;Node35</title>
<g id="a_edge49_Node000037_Node000035"><a xlink:title=" ">
<path fill="none" stroke="#63b8ff" d="M1903.92,-109.98C1883.63,-101.38 1852.04,-87.99 1828.83,-78.15"/>
<polygon fill="#63b8ff" stroke="#63b8ff" points="1830.02,-74.85 1819.45,-74.17 1827.29,-81.3 1830.02,-74.85"/>
</a>
</g>
</g>
<!-- Node38 -->
<g id="Node000038" class="node">
<title>Node38</title>
<g id="a_Node000038"><a xlink:title=" ">
<polygon fill="#e0e0e0" stroke="#999999" points="1976,-74 1872,-74 1872,-55 1976,-55 1976,-74"/>
<text text-anchor="middle" x="1924" y="-62" font-family="Helvetica,sans-Serif" font-size="10.00">libxml/encoding.h</text>
</a>
</g>
</g>
<!-- Node37&#45;&gt;Node38 -->
<g id="edge47_Node000037_Node000038" class="edge">
<title>Node37&#45;&gt;Node38</title>
<g id="a_edge47_Node000037_Node000038"><a xlink:title=" ">
<path fill="none" stroke="#63b8ff" d="M1924,-109.75C1924,-102.8 1924,-92.85 1924,-84.13"/>
<polygon fill="#63b8ff" stroke="#63b8ff" points="1927.5,-84.09 1924,-74.09 1920.5,-84.09 1927.5,-84.09"/>
</a>
</g>
</g>
<!-- Node39 -->
<g id="Node000039" class="node">
<title>Node39</title>
<g id="a_Node000039"><a xlink:title=" ">
<polygon fill="#e0e0e0" stroke="#999999" points="2100,-74 1994,-74 1994,-55 2100,-55 2100,-74"/>
<text text-anchor="middle" x="2047" y="-62" font-family="Helvetica,sans-Serif" font-size="10.00">libxml/xmlwriter.h</text>
</a>
</g>
</g>
<!-- Node37&#45;&gt;Node39 -->
<g id="edge48_Node000037_Node000039" class="edge">
<title>Node37&#45;&gt;Node39</title>
<g id="a_edge48_Node000037_Node000039"><a xlink:title=" ">
<path fill="none" stroke="#63b8ff" d="M1943.76,-109.98C1963.73,-101.38 1994.8,-87.99 2017.65,-78.15"/>
<polygon fill="#63b8ff" stroke="#63b8ff" points="2019.08,-81.34 2026.88,-74.17 2016.31,-74.91 2019.08,-81.34"/>
</a>
</g>
</g>
<!-- Node40 -->
<g id="Node000040" class="node">
<title>Node40</title>
<g id="a_Node000040"><a xlink:title=" ">
<polygon fill="#e0e0e0" stroke="#999999" points="2207.5,-74 2118.5,-74 2118.5,-55 2207.5,-55 2207.5,-74"/>
<text text-anchor="middle" x="2163" y="-62" font-family="Helvetica,sans-Serif" font-size="10.00">libxml/parser.h</text>
</a>
</g>
</g>
<!-- Node37&#45;&gt;Node40 -->
<g id="edge50_Node000037_Node000040" class="edge">
<title>Node37&#45;&gt;Node40</title>
<g id="a_edge50_Node000037_Node000040"><a xlink:title=" ">
<path fill="none" stroke="#63b8ff" d="M1962.4,-109.98C2003.74,-100.82 2069.6,-86.21 2114.49,-76.26"/>
<polygon fill="#63b8ff" stroke="#63b8ff" points="2115.29,-79.66 2124.3,-74.08 2113.78,-72.83 2115.29,-79.66"/>
</a>
</g>
</g>
</g>
</svg>
