<?xml version="1.0" encoding="UTF-8" standalone="no"?>
<!DOCTYPE svg PUBLIC "-//W3C//DTD SVG 1.1//EN"
 "http://www.w3.org/Graphics/SVG/1.1/DTD/svg11.dtd">
<!-- Generated by graphviz version 9.0.0 (20230911.1827)
 -->
<!-- Title: opengl/draw/d_atoms.c Pages: 1 -->
<!--zoomable 252 -->

<svg id="main" version="1.1" xmlns="http://www.w3.org/2000/svg" xmlns:xlink="http://www.w3.org/1999/xlink" xml:space="preserve" onload="init(evt)">
<style type="text/css"><![CDATA[
.node, .edge {opacity: 0.7;}
.node.selected, .edge.selected {opacity: 1;}
.edge:hover path { stroke: red; }
.edge:hover polygon { stroke: red; fill: red; }
]]></style>

<defs>
  <circle id="rim" cx="0" cy="0" r="7"/>
  <circle id="rim2" cx="0" cy="0" r="3.5"/>
  <g id="zoomPlus">
    <use xlink:href="#rim" fill="#404040"><set attributeName="fill" to="#808080" begin="zoomplus.mouseover" end="zoomplus.mouseout"/></use>
    <path d="M-4,0h8M0,-4v8" fill="none" stroke="white" stroke-width="1.5" pointer-events="none"/>
  </g>
  <g id="zoomMin">
    <use xlink:href="#rim" fill="#404040"><set attributeName="fill" to="#808080" begin="zoomminus.mouseover" end="zoomminus.mouseout"/></use>
    <path d="M-4,0h8" fill="none" stroke="white" stroke-width="1.5" pointer-events="none"/>
  </g>
  <g id="arrowUp" transform="translate(30 24)">
    <use xlink:href="#rim"/>
    <path pointer-events="none" fill="none" stroke="white" stroke-width="1.5" d="M0,-3.0v7 M-2.5,-0.5L0,-3.0L2.5,-0.5"/>
  </g>
  <g id="arrowRight" transform="rotate(90) translate(36 -43)">
    <use xlink:href="#rim"/>
    <path pointer-events="none" fill="none" stroke="white" stroke-width="1.5" d="M0,-3.0v7 M-2.5,-0.5L0,-3.0L2.5,-0.5"/>
  </g>
  <g id="arrowDown" transform="rotate(180) translate(-30 -48)">
    <use xlink:href="#rim"/>
    <path pointer-events="none" fill="none" stroke="white" stroke-width="1.5" d="M0,-3.0v7 M-2.5,-0.5L0,-3.0L2.5,-0.5"/>
  </g>
  <g id="arrowLeft" transform="rotate(270) translate(-36 17)">
    <use xlink:href="#rim"/>
    <path pointer-events="none" fill="none" stroke="white" stroke-width="1.5" d="M0,-3.0v7 M-2.5,-0.5L0,-3.0L2.5,-0.5"/>
  </g>
  <g id="resetDef">
    <use xlink:href="#rim2" fill="#404040"><set attributeName="fill" to="#808080" begin="reset.mouseover" end="reset.mouseout"/></use>
  </g>
</defs>
<script type="application/ecmascript">
var viewWidth = 1621;
var viewHeight = 252;
var sectionId = 'dynsection-0';
</script>
<script type="application/ecmascript" xlink:href="../../svg.min.js"/>
<svg id="graph" class="graph">
<g id="viewport">
<title>opengl/draw/d_atoms.c</title>
<!-- Node1 -->
<g id="Node000001" class="node">
<title>Node1</title>
<g id="a_Node000001"><a xlink:title="nctions to prepare the OpenGL rendering atom(s) and clone(s)">
<polygon fill="#999999" stroke="#666666" points="654.6,-244 537.35,-244 537.35,-224 654.6,-224 654.6,-244"/>
<text text-anchor="middle" x="595.98" y="-230.5" font-family="Helvetica,sans-Serif" font-size="10.00">opengl/draw/d_atoms.c</text>
</a>
</g>
</g>
<!-- Node2 -->
<g id="Node000002" class="node">
<title>Node2</title>
<g id="a_Node000002"><a xlink:href="../../d2/d49/global_8h.html" target="_top" xlink:title="Global variable declarations &#160;&#160;Global convenience function declarations &#160;&#160;Global data structure defin...">
<polygon fill="white" stroke="#666666" points="721.85,-132 672.1,-132 672.1,-112 721.85,-112 721.85,-132"/>
<text text-anchor="middle" x="696.98" y="-118.5" font-family="Helvetica,sans-Serif" font-size="10.00">global.h</text>
</a>
</g>
</g>
<!-- Node1&#45;&gt;Node2 -->
<g id="edge1_Node000001_Node000002" class="edge">
<title>Node1&#45;&gt;Node2</title>
<g id="a_edge1_Node000001_Node000002"><a xlink:title=" ">
<path fill="none" stroke="#63b8ff" d="M591.27,-223.71C585.17,-210.23 576.6,-185.01 587.98,-168 603.99,-144.06 635.34,-132.84 660.32,-127.59"/>
<polygon fill="#63b8ff" stroke="#63b8ff" points="660.92,-131.04 670.13,-125.79 659.66,-124.15 660.92,-131.04"/>
</a>
</g>
</g>
<!-- Node24 -->
<g id="Node000024" class="node">
<title>Node24</title>
<g id="a_Node000024"><a xlink:href="../../d5/d9e/ogl__shading_8h.html" target="_top" xlink:title="Variable declarations related to GLSL programs &#160;&#160;Data structure declarations related to GLSL programs...">
<polygon fill="white" stroke="#666666" points="194.98,-20 118.98,-20 118.98,0 194.98,0 194.98,-20"/>
<text text-anchor="middle" x="156.98" y="-6.5" font-family="Helvetica,sans-Serif" font-size="10.00">ogl_shading.h</text>
</a>
</g>
</g>
<!-- Node1&#45;&gt;Node24 -->
<g id="edge27_Node000001_Node000024" class="edge">
<title>Node1&#45;&gt;Node24</title>
<g id="a_edge27_Node000001_Node000024"><a xlink:title=" ">
<path fill="none" stroke="#63b8ff" d="M537.1,-226.3C401.17,-209.51 72.1,-160.76 6.98,-76 -22.41,-37.76 53.29,-21.65 107.53,-15.13"/>
<polygon fill="#63b8ff" stroke="#63b8ff" points="107.68,-18.64 117.23,-14.05 106.9,-11.68 107.68,-18.64"/>
</a>
</g>
</g>
<!-- Node25 -->
<g id="Node000025" class="node">
<title>Node25</title>
<g id="a_Node000025"><a xlink:href="../../dc/de3/glview_8h.html" target="_top" xlink:title="Variable declarations related to the OpenGL window &#160;&#160;Function declarations related to the OpenGL wind...">
<polygon fill="white" stroke="#666666" points="648.6,-188 597.35,-188 597.35,-168 648.6,-168 648.6,-188"/>
<text text-anchor="middle" x="622.98" y="-174.5" font-family="Helvetica,sans-Serif" font-size="10.00">glview.h</text>
</a>
</g>
</g>
<!-- Node1&#45;&gt;Node25 -->
<g id="edge26_Node000001_Node000025" class="edge">
<title>Node1&#45;&gt;Node25</title>
<g id="a_edge26_Node000001_Node000025"><a xlink:title=" ">
<path fill="none" stroke="#63b8ff" d="M600.68,-223.59C604.12,-216.7 608.92,-207.1 613.19,-198.57"/>
<polygon fill="#63b8ff" stroke="#63b8ff" points="616.31,-200.16 617.65,-189.65 610.05,-197.03 616.31,-200.16"/>
</a>
</g>
</g>
<!-- Node26 -->
<g id="Node000026" class="node">
<title>Node26</title>
<g id="a_Node000026"><a xlink:href="../../d8/da6/dlp__field_8h.html" target="_top" xlink:title="Variable declarations for the creation of the DL_POLY input file(s)">
<polygon fill="white" stroke="#666666" points="727.1,-188 666.85,-188 666.85,-168 727.1,-168 727.1,-188"/>
<text text-anchor="middle" x="696.98" y="-174.5" font-family="Helvetica,sans-Serif" font-size="10.00">dlp_field.h</text>
</a>
</g>
</g>
<!-- Node1&#45;&gt;Node26 -->
<g id="edge28_Node000001_Node000026" class="edge">
<title>Node1&#45;&gt;Node26</title>
<g id="a_edge28_Node000001_Node000026"><a xlink:title=" ">
<path fill="none" stroke="#63b8ff" d="M613.57,-223.59C628.9,-215.4 651.39,-203.37 669.16,-193.87"/>
<polygon fill="#63b8ff" stroke="#63b8ff" points="670.74,-196.99 677.91,-189.19 667.44,-190.82 670.74,-196.99"/>
</a>
</g>
</g>
<!-- Node3 -->
<g id="Node000003" class="node">
<title>Node3</title>
<g id="a_Node000003"><a xlink:title=" ">
<polygon fill="#e0e0e0" stroke="#999999" points="1612.6,-76 1573.35,-76 1573.35,-56 1612.6,-56 1612.6,-76"/>
<text text-anchor="middle" x="1592.98" y="-62.5" font-family="Helvetica,sans-Serif" font-size="10.00">glib.h</text>
</a>
</g>
</g>
<!-- Node2&#45;&gt;Node3 -->
<g id="edge2_Node000002_Node000003" class="edge">
<title>Node2&#45;&gt;Node3</title>
<g id="a_edge2_Node000002_Node000003"><a xlink:title=" ">
<path fill="none" stroke="#63b8ff" d="M722,-120.39C845.55,-117.28 1391.31,-102.28 1558.98,-76 1559.98,-75.84 1560.99,-75.67 1562.02,-75.48"/>
<polygon fill="#63b8ff" stroke="#63b8ff" points="1562.51,-78.95 1571.51,-73.36 1560.99,-72.12 1562.51,-78.95"/>
</a>
</g>
</g>
<!-- Node4 -->
<g id="Node000004" class="node">
<title>Node4</title>
<g id="a_Node000004"><a xlink:title=" ">
<polygon fill="#e0e0e0" stroke="#999999" points="81.73,-76 16.23,-76 16.23,-56 81.73,-56 81.73,-76"/>
<text text-anchor="middle" x="48.98" y="-62.5" font-family="Helvetica,sans-Serif" font-size="10.00">glib/gi18n.h</text>
</a>
</g>
</g>
<!-- Node2&#45;&gt;Node4 -->
<g id="edge3_Node000002_Node000004" class="edge">
<title>Node2&#45;&gt;Node4</title>
<g id="a_edge3_Node000002_Node000004"><a xlink:title=" ">
<path fill="none" stroke="#63b8ff" d="M671.73,-120.36C589.75,-118.04 323.48,-108.44 93.2,-76.11"/>
<polygon fill="#63b8ff" stroke="#63b8ff" points="93.81,-72.66 83.41,-74.72 92.82,-79.59 93.81,-72.66"/>
</a>
</g>
</g>
<!-- Node5 -->
<g id="Node000005" class="node">
<title>Node5</title>
<g id="a_Node000005"><a xlink:title=" ">
<polygon fill="#e0e0e0" stroke="#999999" points="149.85,-76 100.1,-76 100.1,-56 149.85,-56 149.85,-76"/>
<text text-anchor="middle" x="124.98" y="-62.5" font-family="Helvetica,sans-Serif" font-size="10.00">locale.h</text>
</a>
</g>
</g>
<!-- Node2&#45;&gt;Node5 -->
<g id="edge4_Node000002_Node000005" class="edge">
<title>Node2&#45;&gt;Node5</title>
<g id="a_edge4_Node000002_Node000005"><a xlink:title=" ">
<path fill="none" stroke="#63b8ff" d="M671.84,-120.46C596.07,-118.51 363.17,-110.11 161.23,-76.09"/>
<polygon fill="#63b8ff" stroke="#63b8ff" points="162.06,-72.68 151.61,-74.44 160.88,-79.58 162.06,-72.68"/>
</a>
</g>
</g>
<!-- Node6 -->
<g id="Node000006" class="node">
<title>Node6</title>
<g id="a_Node000006"><a xlink:title=" ">
<polygon fill="#e0e0e0" stroke="#999999" points="218.23,-76 167.73,-76 167.73,-56 218.23,-56 218.23,-76"/>
<text text-anchor="middle" x="192.98" y="-62.5" font-family="Helvetica,sans-Serif" font-size="10.00">unistd.h</text>
</a>
</g>
</g>
<!-- Node2&#45;&gt;Node6 -->
<g id="edge5_Node000002_Node000006" class="edge">
<title>Node2&#45;&gt;Node6</title>
<g id="a_edge5_Node000002_Node000006"><a xlink:title=" ">
<path fill="none" stroke="#63b8ff" d="M671.81,-120.04C602.66,-117.09 403.8,-106.57 229.66,-76.21"/>
<polygon fill="#63b8ff" stroke="#63b8ff" points="230.44,-72.8 219.99,-74.5 229.22,-79.69 230.44,-72.8"/>
</a>
</g>
</g>
<!-- Node7 -->
<g id="Node000007" class="node">
<title>Node7</title>
<g id="a_Node000007"><a xlink:title=" ">
<polygon fill="#e0e0e0" stroke="#999999" points="284.1,-76 235.85,-76 235.85,-56 284.1,-56 284.1,-76"/>
<text text-anchor="middle" x="259.98" y="-62.5" font-family="Helvetica,sans-Serif" font-size="10.00">string.h</text>
</a>
</g>
</g>
<!-- Node2&#45;&gt;Node7 -->
<g id="edge6_Node000002_Node000007" class="edge">
<title>Node2&#45;&gt;Node7</title>
<g id="a_edge6_Node000002_Node000007"><a xlink:title=" ">
<path fill="none" stroke="#63b8ff" d="M671.79,-119.48C609.63,-115.47 443.85,-103.1 295.49,-75.99"/>
<polygon fill="#63b8ff" stroke="#63b8ff" points="296.35,-72.59 285.88,-74.2 295.07,-79.47 296.35,-72.59"/>
</a>
</g>
</g>
<!-- Node8 -->
<g id="Node000008" class="node">
<title>Node8</title>
<g id="a_Node000008"><a xlink:title=" ">
<polygon fill="#e0e0e0" stroke="#999999" points="1035.6,-20 990.35,-20 990.35,0 1035.6,0 1035.6,-20"/>
<text text-anchor="middle" x="1012.98" y="-6.5" font-family="Helvetica,sans-Serif" font-size="10.00">stdio.h</text>
</a>
</g>
</g>
<!-- Node2&#45;&gt;Node8 -->
<g id="edge7_Node000002_Node000008" class="edge">
<title>Node2&#45;&gt;Node8</title>
<g id="a_edge7_Node000002_Node000008"><a xlink:title=" ">
<path fill="none" stroke="#63b8ff" d="M672.28,-111.64C644.19,-99.64 604.56,-77.79 623.98,-56 647.43,-29.68 888.29,-16.47 978.82,-12.4"/>
<polygon fill="#63b8ff" stroke="#63b8ff" points="978.73,-15.91 988.56,-11.98 978.42,-8.92 978.73,-15.91"/>
</a>
</g>
</g>
<!-- Node9 -->
<g id="Node000009" class="node">
<title>Node9</title>
<g id="a_Node000009"><a xlink:title=" ">
<polygon fill="#e0e0e0" stroke="#999999" points="414.73,-76 367.23,-76 367.23,-56 414.73,-56 414.73,-76"/>
<text text-anchor="middle" x="390.98" y="-62.5" font-family="Helvetica,sans-Serif" font-size="10.00">stdlib.h</text>
</a>
</g>
</g>
<!-- Node2&#45;&gt;Node9 -->
<g id="edge8_Node000002_Node000009" class="edge">
<title>Node2&#45;&gt;Node9</title>
<g id="a_edge8_Node000002_Node000009"><a xlink:title=" ">
<path fill="none" stroke="#63b8ff" d="M671.86,-117.83C625.21,-111.74 521.85,-97.29 426.05,-76.5"/>
<polygon fill="#63b8ff" stroke="#63b8ff" points="427.01,-73.13 416.49,-74.4 425.51,-79.97 427.01,-73.13"/>
</a>
</g>
</g>
<!-- Node10 -->
<g id="Node000010" class="node">
<title>Node10</title>
<g id="a_Node000010"><a xlink:title=" ">
<polygon fill="#e0e0e0" stroke="#999999" points="499.48,-76 432.48,-76 432.48,-56 499.48,-56 499.48,-76"/>
<text text-anchor="middle" x="465.98" y="-62.5" font-family="Helvetica,sans-Serif" font-size="10.00">sys/types.h</text>
</a>
</g>
</g>
<!-- Node2&#45;&gt;Node10 -->
<g id="edge9_Node000002_Node000010" class="edge">
<title>Node2&#45;&gt;Node10</title>
<g id="a_edge9_Node000002_Node000010"><a xlink:title=" ">
<path fill="none" stroke="#63b8ff" d="M671.81,-115.12C633.17,-106.08 558.64,-88.66 510.67,-77.45"/>
<polygon fill="#63b8ff" stroke="#63b8ff" points="511.68,-74.09 501.14,-75.22 510.08,-80.91 511.68,-74.09"/>
</a>
</g>
</g>
<!-- Node11 -->
<g id="Node000011" class="node">
<title>Node11</title>
<g id="a_Node000011"><a xlink:title=" ">
<polygon fill="#e0e0e0" stroke="#999999" points="576.73,-76 517.23,-76 517.23,-56 576.73,-56 576.73,-76"/>
<text text-anchor="middle" x="546.98" y="-62.5" font-family="Helvetica,sans-Serif" font-size="10.00">sys/stat.h</text>
</a>
</g>
</g>
<!-- Node2&#45;&gt;Node11 -->
<g id="edge10_Node000002_Node000011" class="edge">
<title>Node2&#45;&gt;Node11</title>
<g id="a_edge10_Node000002_Node000011"><a xlink:title=" ">
<path fill="none" stroke="#63b8ff" d="M671.87,-111.96C647.83,-103.31 611.26,-90.14 583.9,-80.29"/>
<polygon fill="#63b8ff" stroke="#63b8ff" points="585.19,-77.04 574.6,-76.94 582.82,-83.62 585.19,-77.04"/>
</a>
</g>
</g>
<!-- Node12 -->
<g id="Node000012" class="node">
<title>Node12</title>
<g id="a_Node000012"><a xlink:title=" ">
<polygon fill="#e0e0e0" stroke="#999999" points="1537.98,-20 1491.98,-20 1491.98,0 1537.98,0 1537.98,-20"/>
<text text-anchor="middle" x="1514.98" y="-6.5" font-family="Helvetica,sans-Serif" font-size="10.00">math.h</text>
</a>
</g>
</g>
<!-- Node2&#45;&gt;Node12 -->
<g id="edge11_Node000002_Node000012" class="edge">
<title>Node2&#45;&gt;Node12</title>
<g id="a_edge11_Node000002_Node000012"><a xlink:title=" ">
<path fill="none" stroke="#63b8ff" d="M722.19,-120.6C858.04,-118.3 1497.63,-105.92 1525.98,-76 1537.39,-63.95 1532.34,-44.69 1525.82,-30.26"/>
<polygon fill="#63b8ff" stroke="#63b8ff" points="1529.13,-29.04 1521.48,-21.71 1522.89,-32.21 1529.13,-29.04"/>
</a>
</g>
</g>
<!-- Node13 -->
<g id="Node000013" class="node">
<title>Node13</title>
<g id="a_Node000013"><a xlink:title=" ">
<polygon fill="#e0e0e0" stroke="#999999" points="687.1,-76 632.85,-76 632.85,-56 687.1,-56 687.1,-76"/>
<text text-anchor="middle" x="659.98" y="-62.5" font-family="Helvetica,sans-Serif" font-size="10.00">gtk/gtk.h</text>
</a>
</g>
</g>
<!-- Node2&#45;&gt;Node13 -->
<g id="edge12_Node000002_Node000013" class="edge">
<title>Node2&#45;&gt;Node13</title>
<g id="a_edge12_Node000002_Node000013"><a xlink:title=" ">
<path fill="none" stroke="#63b8ff" d="M690.53,-111.59C685.65,-104.47 678.79,-94.45 672.8,-85.72"/>
<polygon fill="#63b8ff" stroke="#63b8ff" points="675.74,-83.82 667.2,-77.55 669.97,-87.77 675.74,-83.82"/>
</a>
</g>
</g>
<!-- Node14 -->
<g id="Node000014" class="node">
<title>Node14</title>
<g id="a_Node000014"><a xlink:title=" ">
<polygon fill="#e0e0e0" stroke="#999999" points="764.73,-76 705.23,-76 705.23,-56 764.73,-56 764.73,-76"/>
<text text-anchor="middle" x="734.98" y="-62.5" font-family="Helvetica,sans-Serif" font-size="10.00">gtk/gtkx.h</text>
</a>
</g>
</g>
<!-- Node2&#45;&gt;Node14 -->
<g id="edge13_Node000002_Node000014" class="edge">
<title>Node2&#45;&gt;Node14</title>
<g id="a_edge13_Node000002_Node000014"><a xlink:title=" ">
<path fill="none" stroke="#63b8ff" d="M703.59,-111.59C708.66,-104.39 715.81,-94.23 722.01,-85.43"/>
<polygon fill="#63b8ff" stroke="#63b8ff" points="724.67,-87.73 727.56,-77.54 718.94,-83.7 724.67,-87.73"/>
</a>
</g>
</g>
<!-- Node15 -->
<g id="Node000015" class="node">
<title>Node15</title>
<g id="a_Node000015"><a xlink:title=" ">
<polygon fill="#e0e0e0" stroke="#999999" points="841.35,-76 782.6,-76 782.6,-56 841.35,-56 841.35,-76"/>
<text text-anchor="middle" x="811.98" y="-62.5" font-family="Helvetica,sans-Serif" font-size="10.00">gdk/gdk.h</text>
</a>
</g>
</g>
<!-- Node2&#45;&gt;Node15 -->
<g id="edge14_Node000002_Node000015" class="edge">
<title>Node2&#45;&gt;Node15</title>
<g id="a_edge14_Node000002_Node000015"><a xlink:title=" ">
<path fill="none" stroke="#63b8ff" d="M717.01,-111.59C734.79,-103.24 761.04,-90.92 781.44,-81.34"/>
<polygon fill="#63b8ff" stroke="#63b8ff" points="782.85,-84.54 790.42,-77.12 779.88,-78.21 782.85,-84.54"/>
</a>
</g>
</g>
<!-- Node16 -->
<g id="Node000016" class="node">
<title>Node16</title>
<g id="a_Node000016"><a xlink:title=" ">
<polygon fill="#e0e0e0" stroke="#999999" points="958.23,-76 859.73,-76 859.73,-56 958.23,-56 958.23,-76"/>
<text text-anchor="middle" x="908.98" y="-62.5" font-family="Helvetica,sans-Serif" font-size="10.00">gdk/gdkkeysyms.h</text>
</a>
</g>
</g>
<!-- Node2&#45;&gt;Node16 -->
<g id="edge15_Node000002_Node000016" class="edge">
<title>Node2&#45;&gt;Node16</title>
<g id="a_edge15_Node000002_Node000016"><a xlink:title=" ">
<path fill="none" stroke="#63b8ff" d="M722.13,-114.59C756.16,-105.93 817.56,-90.28 860.66,-79.31"/>
<polygon fill="#63b8ff" stroke="#63b8ff" points="861.46,-82.72 870.28,-76.86 859.73,-75.93 861.46,-82.72"/>
</a>
</g>
</g>
<!-- Node17 -->
<g id="Node000017" class="node">
<title>Node17</title>
<g id="a_Node000017"><a xlink:title=" ">
<polygon fill="#e0e0e0" stroke="#999999" points="1093.6,-76 976.35,-76 976.35,-56 1093.6,-56 1093.6,-76"/>
<text text-anchor="middle" x="1034.98" y="-62.5" font-family="Helvetica,sans-Serif" font-size="10.00">gdk&#45;pixbuf/gdk&#45;pixbuf.h</text>
</a>
</g>
</g>
<!-- Node2&#45;&gt;Node17 -->
<g id="edge16_Node000002_Node000017" class="edge">
<title>Node2&#45;&gt;Node17</title>
<g id="a_edge16_Node000002_Node000017"><a xlink:title=" ">
<path fill="none" stroke="#63b8ff" d="M722.1,-116.99C772.82,-108.88 889.01,-90.32 964.64,-78.24"/>
<polygon fill="#63b8ff" stroke="#63b8ff" points="965.13,-81.7 974.45,-76.67 964.03,-74.79 965.13,-81.7"/>
</a>
</g>
</g>
<!-- Node18 -->
<g id="Node000018" class="node">
<title>Node18</title>
<g id="a_Node000018"><a xlink:title=" ">
<polygon fill="#e0e0e0" stroke="#999999" points="1202.48,-76 1111.48,-76 1111.48,-56 1202.48,-56 1202.48,-76"/>
<text text-anchor="middle" x="1156.98" y="-62.5" font-family="Helvetica,sans-Serif" font-size="10.00">pango/pangoft2.h</text>
</a>
</g>
</g>
<!-- Node2&#45;&gt;Node18 -->
<g id="edge17_Node000002_Node000018" class="edge">
<title>Node2&#45;&gt;Node18</title>
<g id="a_edge17_Node000002_Node000018"><a xlink:title=" ">
<path fill="none" stroke="#63b8ff" d="M722.22,-118.69C784.54,-112.87 950.93,-96.73 1099.9,-76.37"/>
<polygon fill="#63b8ff" stroke="#63b8ff" points="1100.12,-79.87 1109.55,-75.04 1099.16,-72.94 1100.12,-79.87"/>
</a>
</g>
</g>
<!-- Node19 -->
<g id="Node000019" class="node">
<title>Node19</title>
<g id="a_Node000019"><a xlink:title=" ">
<polygon fill="#e0e0e0" stroke="#999999" points="1281.48,-76 1220.48,-76 1220.48,-56 1281.48,-56 1281.48,-76"/>
<text text-anchor="middle" x="1250.98" y="-62.5" font-family="Helvetica,sans-Serif" font-size="10.00">epoxy/gl.h</text>
</a>
</g>
</g>
<!-- Node2&#45;&gt;Node19 -->
<g id="edge18_Node000002_Node000019" class="edge">
<title>Node2&#45;&gt;Node19</title>
<g id="a_edge18_Node000002_Node000019"><a xlink:title=" ">
<path fill="none" stroke="#63b8ff" d="M722.31,-120.04C796.01,-116.98 1016.75,-105.97 1209.22,-76.23"/>
<polygon fill="#63b8ff" stroke="#63b8ff" points="1209.57,-79.72 1218.9,-74.72 1208.48,-72.81 1209.57,-79.72"/>
</a>
</g>
</g>
<!-- Node20 -->
<g id="Node000020" class="node">
<title>Node20</title>
<g id="a_Node000020"><a xlink:title=" ">
<polygon fill="#e0e0e0" stroke="#999999" points="1352.35,-76 1299.6,-76 1299.6,-56 1352.35,-56 1352.35,-76"/>
<text text-anchor="middle" x="1325.98" y="-62.5" font-family="Helvetica,sans-Serif" font-size="10.00">GL/glu.h</text>
</a>
</g>
</g>
<!-- Node2&#45;&gt;Node20 -->
<g id="edge19_Node000002_Node000020" class="edge">
<title>Node2&#45;&gt;Node20</title>
<g id="a_edge19_Node000002_Node000020"><a xlink:title=" ">
<path fill="none" stroke="#63b8ff" d="M722.06,-120.68C802.88,-119.3 1063.75,-112.3 1288,-76.22"/>
<polygon fill="#63b8ff" stroke="#63b8ff" points="1288.53,-79.68 1297.83,-74.61 1287.4,-72.77 1288.53,-79.68"/>
</a>
</g>
</g>
<!-- Node21 -->
<g id="Node000021" class="node">
<title>Node21</title>
<g id="a_Node000021"><a xlink:title=" ">
<polygon fill="#e0e0e0" stroke="#999999" points="1437.1,-76 1370.85,-76 1370.85,-56 1437.1,-56 1437.1,-76"/>
<text text-anchor="middle" x="1403.98" y="-62.5" font-family="Helvetica,sans-Serif" font-size="10.00">epoxy/glx.h</text>
</a>
</g>
</g>
<!-- Node2&#45;&gt;Node21 -->
<g id="edge20_Node000002_Node000021" class="edge">
<title>Node2&#45;&gt;Node21</title>
<g id="a_edge20_Node000002_Node000021"><a xlink:title=" ">
<path fill="none" stroke="#63b8ff" d="M722.13,-120.55C809.01,-118.73 1104.62,-110.37 1359.39,-75.99"/>
<polygon fill="#63b8ff" stroke="#63b8ff" points="1359.79,-79.46 1369.22,-74.64 1358.84,-72.53 1359.79,-79.46"/>
</a>
</g>
</g>
<!-- Node22 -->
<g id="Node000022" class="node">
<title>Node22</title>
<g id="a_Node000022"><a xlink:href="../../dc/db0/math__3d_8h.html" target="_top" xlink:title="Functions for OpenGL math.">
<polygon fill="white" stroke="#666666" points="1516.85,-76 1455.1,-76 1455.1,-56 1516.85,-56 1516.85,-76"/>
<text text-anchor="middle" x="1485.98" y="-62.5" font-family="Helvetica,sans-Serif" font-size="10.00">math_3d.h</text>
</a>
</g>
</g>
<!-- Node2&#45;&gt;Node22 -->
<g id="edge21_Node000002_Node000022" class="edge">
<title>Node2&#45;&gt;Node22</title>
<g id="a_edge21_Node000002_Node000022"><a xlink:title=" ">
<path fill="none" stroke="#63b8ff" d="M722.34,-120.95C816.56,-120.48 1155.39,-116.02 1443.53,-76.11"/>
<polygon fill="#63b8ff" stroke="#63b8ff" points="1443.71,-79.62 1453.12,-74.77 1442.73,-72.69 1443.71,-79.62"/>
</a>
</g>
</g>
<!-- Node23 -->
<g id="Node000023" class="node">
<title>Node23</title>
<g id="a_Node000023"><a xlink:href="../../da/d7e/glwin_8h.html" target="_top" xlink:title="Variable declarations related the OpenGL window &#160;&#160;Data structure declarations related the OpenGL wind...">
<polygon fill="white" stroke="#666666" points="349.35,-76 302.6,-76 302.6,-56 349.35,-56 349.35,-76"/>
<text text-anchor="middle" x="325.98" y="-62.5" font-family="Helvetica,sans-Serif" font-size="10.00">glwin.h</text>
</a>
</g>
</g>
<!-- Node2&#45;&gt;Node23 -->
<g id="edge24_Node000002_Node000023" class="edge">
<title>Node2&#45;&gt;Node23</title>
<g id="a_edge24_Node000002_Node000023"><a xlink:title=" ">
<path fill="none" stroke="#63b8ff" d="M671.68,-118.88C616.72,-114.02 482.18,-100.7 360.62,-76.3"/>
<polygon fill="#63b8ff" stroke="#63b8ff" points="361.63,-72.94 351.13,-74.37 360.23,-79.8 361.63,-72.94"/>
</a>
</g>
</g>
<!-- Node22&#45;&gt;Node8 -->
<g id="edge23_Node000022_Node000008" class="edge">
<title>Node22&#45;&gt;Node8</title>
<g id="a_edge23_Node000022_Node000008"><a xlink:title=" ">
<path fill="none" stroke="#63b8ff" d="M1454.6,-57.57C1451.69,-57 1448.79,-56.46 1445.98,-56 1298.32,-31.8 1120.08,-18.12 1046.87,-13.16"/>
<polygon fill="#63b8ff" stroke="#63b8ff" points="1047.36,-9.68 1037.15,-12.51 1046.89,-16.67 1047.36,-9.68"/>
</a>
</g>
</g>
<!-- Node22&#45;&gt;Node12 -->
<g id="edge22_Node000022_Node000012" class="edge">
<title>Node22&#45;&gt;Node12</title>
<g id="a_edge22_Node000022_Node000012"><a xlink:title=" ">
<path fill="none" stroke="#63b8ff" d="M1491.03,-55.59C1494.77,-48.63 1500,-38.89 1504.62,-30.29"/>
<polygon fill="#63b8ff" stroke="#63b8ff" points="1507.62,-32.1 1509.27,-21.63 1501.45,-28.79 1507.62,-32.1"/>
</a>
</g>
</g>
<!-- Node23&#45;&gt;Node24 -->
<g id="edge25_Node000023_Node000024" class="edge">
<title>Node23&#45;&gt;Node24</title>
<g id="a_edge25_Node000023_Node000024"><a xlink:title=" ">
<path fill="none" stroke="#63b8ff" d="M302.12,-57.38C274.9,-48.68 229.93,-34.31 197.25,-23.87"/>
<polygon fill="#63b8ff" stroke="#63b8ff" points="198.72,-20.66 188.12,-20.95 196.59,-27.33 198.72,-20.66"/>
</a>
</g>
</g>
<!-- Node26&#45;&gt;Node2 -->
<g id="edge29_Node000026_Node000002" class="edge">
<title>Node26&#45;&gt;Node2</title>
<g id="a_edge29_Node000026_Node000002"><a xlink:title=" ">
<path fill="none" stroke="#63b8ff" d="M696.98,-167.59C696.98,-161.01 696.98,-151.96 696.98,-143.73"/>
<polygon fill="#63b8ff" stroke="#63b8ff" points="700.48,-143.81 696.98,-133.81 693.48,-143.81 700.48,-143.81"/>
</a>
</g>
</g>
</g>
</svg>

<g id="navigator" transform="translate(0 0)" fill="#404254">
  <rect fill="#f2f5e9" fill-opacity="0.5" stroke="#606060" stroke-width=".5" x="0" y="0" width="60" height="60"/>
  <use id="zoomplus" xlink:href="#zoomPlus" x="17" y="9" onmousedown="handleZoom(evt,'in')"/>
  <use id="zoomminus" xlink:href="#zoomMin" x="42" y="9" onmousedown="handleZoom(evt,'out')"/>
  <use id="reset" xlink:href="#resetDef" x="30" y="36" onmousedown="handleReset()"/>
   <use id="arrowup" xlink:href="#arrowUp" x="0" y="0" onmousedown="handlePan(0,-1)"/>
  <use id="arrowright" xlink:href="#arrowRight" x="0" y="0" onmousedown="handlePan(1,0)"/>
  <use id="arrowdown" xlink:href="#arrowDown" x="0" y="0" onmousedown="handlePan(0,1)"/>
  <use id="arrowleft" xlink:href="#arrowLeft" x="0" y="0" onmousedown="handlePan(-1,0)"/>
</g>
<svg viewBox="0 0 15 15" width="100%" height="30px" preserveAspectRatio="xMaxYMin meet">
 <g id="arrow_out" transform="scale(0.3 0.3)">
  <a xlink:href="d__atoms_8c__incl_org.svg" target="_base">
   <rect id="button" ry="5" rx="5" y="6" x="6" height="38" width="38"
        fill="#f2f5e9" fill-opacity="0.5" stroke="#606060" stroke-width="1.0"/>
   <path id="arrow"
     d="M 11.500037,31.436501 C 11.940474,20.09759 22.043105,11.32322 32.158766,21.979434 L 37.068811,17.246167 C 37.068811,17.246167 37.088388,32 37.088388,32 L 22.160133,31.978069 C 22.160133,31.978069 26.997745,27.140456 26.997745,27.140456 C 18.528582,18.264221 13.291696,25.230495 11.500037,31.436501 z"
     style="fill:#404040;"/>
  </a>
 </g>
</svg>

<style type='text/css'>
<![CDATA[
[data-mouse-over-selected='false'] { opacity: 0.7; }
[data-mouse-over-selected='true']  { opacity: 1.0; }
]]>
</style>
<script type="application/ecmascript"><![CDATA[
document.addEventListener('DOMContentLoaded', (event) => {
  highlightEdges();
  highlightAdjacentNodes();
});
]]></script>
</svg>
