<?xml version="1.0" encoding="UTF-8" standalone="no"?>
<!DOCTYPE svg PUBLIC "-//W3C//DTD SVG 1.1//EN"
 "http://www.w3.org/Graphics/SVG/1.1/DTD/svg11.dtd">
<!-- Generated by graphviz version 7.1.0 (0)
 -->
<!-- Title: d_atoms.c Pages: 1 -->
<!--zoomable 247 -->
<svg id="main" version="1.1" xmlns="http://www.w3.org/2000/svg" xmlns:xlink="http://www.w3.org/1999/xlink" xml:space="preserve" onload="init(evt)">
<style type="text/css"><![CDATA[
.edge:hover path { stroke: red; }
.edge:hover polygon { stroke: red; fill: red; }
]]></style>
<script type="text/javascript"><![CDATA[
var edges = document.getElementsByTagName('g');
if (edges && edges.length) {
  for (var i=0;i<edges.length;i++) {
    if (edges[i].id.substr(0,4)=='edge') {
      edges[i].setAttribute('class','edge');
    }
  }
}
]]></script>
        <defs>
                <circle id="rim" cx="0" cy="0" r="7"/>
                <circle id="rim2" cx="0" cy="0" r="3.5"/>
                <g id="zoomPlus">
                        <use xlink:href="#rim" fill="#404040">
                                <set attributeName="fill" to="#808080" begin="zoomplus.mouseover" end="zoomplus.mouseout"/>
                        </use>
                        <path d="M-4,0h8M0,-4v8" fill="none" stroke="white" stroke-width="1.5" pointer-events="none"/>
                </g>
                <g id="zoomMin">
                        <use xlink:href="#rim" fill="#404040">
                                <set attributeName="fill" to="#808080" begin="zoomminus.mouseover" end="zoomminus.mouseout"/>
                        </use>
                        <path d="M-4,0h8" fill="none" stroke="white" stroke-width="1.5" pointer-events="none"/>
                </g>
                <g id="dirArrow">
                        <path fill="none" stroke="white" stroke-width="1.5" d="M0,-3.0v7 M-2.5,-0.5L0,-3.0L2.5,-0.5"/>
                </g>
               <g id="resetDef">
                       <use xlink:href="#rim2" fill="#404040">
                               <set attributeName="fill" to="#808080" begin="reset.mouseover" end="reset.mouseout"/>
                       </use>
               </g>
        </defs>

<script type="text/javascript">
var viewWidth = 1633;
var viewHeight = 247;
var sectionId = 'dynsection-0';
</script>
<script xlink:href="../../svgpan.js"/>
<svg id="graph" class="graph">
<g id="viewport">
<title>d_atoms.c</title>
<!-- Node1 -->
<g id="node1" class="node">
<title>Node1</title>
<g id="a_node1"><a xlink:title=" ">
<polygon fill="#999999" stroke="#666666" points="632.01,-239 570.01,-239 570.01,-220 632.01,-220 632.01,-239"/>
<text text-anchor="middle" x="601.01" y="-227" font-family="Helvetica,sans-Serif" font-size="10.00">d_atoms.c</text>
</a>
</g>
</g>
<!-- Node2 -->
<g id="node2" class="node">
<title>Node2</title>
<g id="a_node2"><a xlink:href="../../d2/d49/global_8h.html" target="_top" xlink:title=" ">
<polygon fill="white" stroke="#666666" points="728.01,-129 678.01,-129 678.01,-110 728.01,-110 728.01,-129"/>
<text text-anchor="middle" x="703.01" y="-117" font-family="Helvetica,sans-Serif" font-size="10.00">global.h</text>
</a>
</g>
</g>
<!-- Node1&#45;&gt;Node2 -->
<g id="edge1" class="edge">
<title>Node1&#45;&gt;Node2</title>
<path fill="none" stroke="#63b8ff" d="M596.56,-219.85C590.52,-206.79 581.71,-181.77 593.01,-165 609.39,-140.71 641.52,-129.67 666.85,-124.66"/>
<polygon fill="#63b8ff" stroke="#63b8ff" points="667.17,-128.16 676.43,-123.01 665.98,-121.26 667.17,-128.16"/>
</g>
<!-- Node23 -->
<g id="node23" class="node">
<title>Node23</title>
<g id="a_node23"><a xlink:href="../../d5/d9e/ogl__shading_8h.html" target="_top" xlink:title=" ">
<polygon fill="white" stroke="#666666" points="196.51,-19 119.51,-19 119.51,0 196.51,0 196.51,-19"/>
<text text-anchor="middle" x="158.01" y="-7" font-family="Helvetica,sans-Serif" font-size="10.00">ogl_shading.h</text>
</a>
</g>
</g>
<!-- Node1&#45;&gt;Node23 -->
<g id="edge27" class="edge">
<title>Node1&#45;&gt;Node23</title>
<path fill="none" stroke="#63b8ff" d="M569.56,-225.29C457.1,-213.1 77.89,-165.67 7.01,-74 -22.46,-35.88 53.24,-20.4 107.8,-14.29"/>
<polygon fill="#63b8ff" stroke="#63b8ff" points="107.98,-17.79 117.57,-13.28 107.26,-10.83 107.98,-17.79"/>
</g>
<!-- Node25 -->
<g id="node25" class="node">
<title>Node25</title>
<g id="a_node25"><a xlink:href="../../dc/de3/glview_8h.html" target="_top" xlink:title=" ">
<polygon fill="white" stroke="#666666" points="654.01,-184 602.01,-184 602.01,-165 654.01,-165 654.01,-184"/>
<text text-anchor="middle" x="628.01" y="-172" font-family="Helvetica,sans-Serif" font-size="10.00">glview.h</text>
</a>
</g>
</g>
<!-- Node1&#45;&gt;Node25 -->
<g id="edge26" class="edge">
<title>Node1&#45;&gt;Node25</title>
<path fill="none" stroke="#63b8ff" d="M605.47,-219.75C608.97,-212.88 613.96,-203.08 618.36,-194.45"/>
<polygon fill="#63b8ff" stroke="#63b8ff" points="621.35,-196.29 622.77,-185.79 615.11,-193.11 621.35,-196.29"/>
</g>
<!-- Node26 -->
<g id="node26" class="node">
<title>Node26</title>
<g id="a_node26"><a xlink:href="../../d8/da6/dlp__field_8h.html" target="_top" xlink:title=" ">
<polygon fill="white" stroke="#666666" points="733.51,-184 672.51,-184 672.51,-165 733.51,-165 733.51,-184"/>
<text text-anchor="middle" x="703.01" y="-172" font-family="Helvetica,sans-Serif" font-size="10.00">dlp_field.h</text>
</a>
</g>
</g>
<!-- Node1&#45;&gt;Node26 -->
<g id="edge28" class="edge">
<title>Node1&#45;&gt;Node26</title>
<path fill="none" stroke="#63b8ff" d="M618.32,-219.51C634.09,-211.31 657.65,-199.07 675.92,-189.58"/>
<polygon fill="#63b8ff" stroke="#63b8ff" points="677.36,-192.77 684.62,-185.06 674.14,-186.56 677.36,-192.77"/>
</g>
<!-- Node3 -->
<g id="node3" class="node">
<title>Node3</title>
<g id="a_node3"><a xlink:title=" ">
<polygon fill="#e0e0e0" stroke="#999999" points="1625.01,-74 1585.01,-74 1585.01,-55 1625.01,-55 1625.01,-74"/>
<text text-anchor="middle" x="1605.01" y="-62" font-family="Helvetica,sans-Serif" font-size="10.00">glib.h</text>
</a>
</g>
</g>
<!-- Node2&#45;&gt;Node3 -->
<g id="edge2" class="edge">
<title>Node2&#45;&gt;Node3</title>
<path fill="none" stroke="#63b8ff" d="M728.37,-118.01C851.06,-115.51 1384.6,-103.25 1573.42,-73.96"/>
<polygon fill="#63b8ff" stroke="#63b8ff" points="1573.76,-77.45 1583.06,-72.38 1572.63,-70.54 1573.76,-77.45"/>
</g>
<!-- Node4 -->
<g id="node4" class="node">
<title>Node4</title>
<g id="a_node4"><a xlink:title=" ">
<polygon fill="#e0e0e0" stroke="#999999" points="82.01,-74 16.01,-74 16.01,-55 82.01,-55 82.01,-74"/>
<text text-anchor="middle" x="49.01" y="-62" font-family="Helvetica,sans-Serif" font-size="10.00">glib/gi18n.h</text>
</a>
</g>
</g>
<!-- Node2&#45;&gt;Node4 -->
<g id="edge3" class="edge">
<title>Node2&#45;&gt;Node4</title>
<path fill="none" stroke="#63b8ff" d="M677.53,-117.81C594.79,-115.31 326,-105.31 93.8,-74.2"/>
<polygon fill="#63b8ff" stroke="#63b8ff" points="94.3,-70.74 83.92,-72.86 93.36,-77.68 94.3,-70.74"/>
</g>
<!-- Node5 -->
<g id="node5" class="node">
<title>Node5</title>
<g id="a_node5"><a xlink:title=" ">
<polygon fill="#e0e0e0" stroke="#999999" points="150.01,-74 100.01,-74 100.01,-55 150.01,-55 150.01,-74"/>
<text text-anchor="middle" x="125.01" y="-62" font-family="Helvetica,sans-Serif" font-size="10.00">locale.h</text>
</a>
</g>
</g>
<!-- Node2&#45;&gt;Node5 -->
<g id="edge4" class="edge">
<title>Node2&#45;&gt;Node5</title>
<path fill="none" stroke="#63b8ff" d="M677.62,-117.89C601.06,-115.76 365.71,-106.95 161.41,-74.11"/>
<polygon fill="#63b8ff" stroke="#63b8ff" points="162.1,-70.68 151.66,-72.52 160.97,-77.59 162.1,-70.68"/>
</g>
<!-- Node6 -->
<g id="node6" class="node">
<title>Node6</title>
<g id="a_node6"><a xlink:title=" ">
<polygon fill="#e0e0e0" stroke="#999999" points="219.51,-74 168.51,-74 168.51,-55 219.51,-55 219.51,-74"/>
<text text-anchor="middle" x="194.01" y="-62" font-family="Helvetica,sans-Serif" font-size="10.00">unistd.h</text>
</a>
</g>
</g>
<!-- Node2&#45;&gt;Node6 -->
<g id="edge5" class="edge">
<title>Node2&#45;&gt;Node6</title>
<path fill="none" stroke="#63b8ff" d="M677.61,-117.48C607.77,-114.38 406.92,-103.55 231.19,-74.31"/>
<polygon fill="#63b8ff" stroke="#63b8ff" points="231.85,-70.88 221.41,-72.66 230.69,-77.78 231.85,-70.88"/>
</g>
<!-- Node7 -->
<g id="node7" class="node">
<title>Node7</title>
<g id="a_node7"><a xlink:title=" ">
<polygon fill="#e0e0e0" stroke="#999999" points="286.51,-74 237.51,-74 237.51,-55 286.51,-55 286.51,-74"/>
<text text-anchor="middle" x="262.01" y="-62" font-family="Helvetica,sans-Serif" font-size="10.00">string.h</text>
</a>
</g>
</g>
<!-- Node2&#45;&gt;Node7 -->
<g id="edge6" class="edge">
<title>Node2&#45;&gt;Node7</title>
<path fill="none" stroke="#63b8ff" d="M677.53,-117C614.62,-113.01 446.83,-100.76 297.94,-74.3"/>
<polygon fill="#63b8ff" stroke="#63b8ff" points="298.75,-70.89 288.29,-72.56 297.5,-77.78 298.75,-70.89"/>
</g>
<!-- Node8 -->
<g id="node8" class="node">
<title>Node8</title>
<g id="a_node8"><a xlink:title=" ">
<polygon fill="#e0e0e0" stroke="#999999" points="1005.01,-19 959.01,-19 959.01,0 1005.01,0 1005.01,-19"/>
<text text-anchor="middle" x="982.01" y="-7" font-family="Helvetica,sans-Serif" font-size="10.00">stdio.h</text>
</a>
</g>
</g>
<!-- Node2&#45;&gt;Node8 -->
<g id="edge7" class="edge">
<title>Node2&#45;&gt;Node8</title>
<path fill="none" stroke="#63b8ff" d="M678.12,-109.53C649.78,-98 609.76,-76.84 629.01,-55 649.89,-31.32 862.5,-17.09 947.34,-12.31"/>
<polygon fill="#63b8ff" stroke="#63b8ff" points="947.35,-15.81 957.15,-11.77 946.97,-8.82 947.35,-15.81"/>
</g>
<!-- Node9 -->
<g id="node9" class="node">
<title>Node9</title>
<g id="a_node9"><a xlink:title=" ">
<polygon fill="#e0e0e0" stroke="#999999" points="418.01,-74 370.01,-74 370.01,-55 418.01,-55 418.01,-74"/>
<text text-anchor="middle" x="394.01" y="-62" font-family="Helvetica,sans-Serif" font-size="10.00">stdlib.h</text>
</a>
</g>
</g>
<!-- Node2&#45;&gt;Node9 -->
<g id="edge8" class="edge">
<title>Node2&#45;&gt;Node9</title>
<path fill="none" stroke="#63b8ff" d="M677.76,-115.22C630.82,-108.96 526.81,-94.3 429.66,-74.39"/>
<polygon fill="#63b8ff" stroke="#63b8ff" points="430.45,-70.98 419.95,-72.37 429.03,-77.83 430.45,-70.98"/>
</g>
<!-- Node10 -->
<g id="node10" class="node">
<title>Node10</title>
<g id="a_node10"><a xlink:title=" ">
<polygon fill="#e0e0e0" stroke="#999999" points="504.01,-74 436.01,-74 436.01,-55 504.01,-55 504.01,-74"/>
<text text-anchor="middle" x="470.01" y="-62" font-family="Helvetica,sans-Serif" font-size="10.00">sys/types.h</text>
</a>
</g>
</g>
<!-- Node2&#45;&gt;Node10 -->
<g id="edge9" class="edge">
<title>Node2&#45;&gt;Node10</title>
<path fill="none" stroke="#63b8ff" d="M677.64,-112.73C638.76,-103.88 563.91,-86.86 515.5,-75.85"/>
<polygon fill="#63b8ff" stroke="#63b8ff" points="516.4,-72.46 505.87,-73.66 514.85,-79.29 516.4,-72.46"/>
</g>
<!-- Node11 -->
<g id="node11" class="node">
<title>Node11</title>
<g id="a_node11"><a xlink:title=" ">
<polygon fill="#e0e0e0" stroke="#999999" points="582.01,-74 522.01,-74 522.01,-55 582.01,-55 582.01,-74"/>
<text text-anchor="middle" x="552.01" y="-62" font-family="Helvetica,sans-Serif" font-size="10.00">sys/stat.h</text>
</a>
</g>
</g>
<!-- Node2&#45;&gt;Node11 -->
<g id="edge10" class="edge">
<title>Node2&#45;&gt;Node11</title>
<path fill="none" stroke="#63b8ff" d="M677.74,-109.63C653.32,-101.06 616.06,-87.98 588.43,-78.28"/>
<polygon fill="#63b8ff" stroke="#63b8ff" points="589.65,-75 579.05,-74.99 587.33,-81.6 589.65,-75"/>
</g>
<!-- Node12 -->
<g id="node12" class="node">
<title>Node12</title>
<g id="a_node12"><a xlink:title=" ">
<polygon fill="#e0e0e0" stroke="#999999" points="1472.51,-19 1425.51,-19 1425.51,0 1472.51,0 1472.51,-19"/>
<text text-anchor="middle" x="1449.01" y="-7" font-family="Helvetica,sans-Serif" font-size="10.00">math.h</text>
</a>
</g>
</g>
<!-- Node2&#45;&gt;Node12 -->
<g id="edge11" class="edge">
<title>Node2&#45;&gt;Node12</title>
<path fill="none" stroke="#63b8ff" d="M728.12,-117.98C856.46,-115.21 1434.33,-101.24 1460.01,-74 1471.16,-62.18 1466.12,-43.34 1459.68,-29.25"/>
<polygon fill="#63b8ff" stroke="#63b8ff" points="1462.88,-27.82 1455.18,-20.53 1456.66,-31.03 1462.88,-27.82"/>
</g>
<!-- Node13 -->
<g id="node13" class="node">
<title>Node13</title>
<g id="a_node13"><a xlink:title=" ">
<polygon fill="#e0e0e0" stroke="#999999" points="693.51,-74 638.51,-74 638.51,-55 693.51,-55 693.51,-74"/>
<text text-anchor="middle" x="666.01" y="-62" font-family="Helvetica,sans-Serif" font-size="10.00">gtk/gtk.h</text>
</a>
</g>
</g>
<!-- Node2&#45;&gt;Node13 -->
<g id="edge12" class="edge">
<title>Node2&#45;&gt;Node13</title>
<path fill="none" stroke="#63b8ff" d="M696.9,-109.75C692.01,-102.73 684.96,-92.64 678.84,-83.87"/>
<polygon fill="#63b8ff" stroke="#63b8ff" points="681.72,-81.88 673.12,-75.68 675.98,-85.89 681.72,-81.88"/>
</g>
<!-- Node14 -->
<g id="node14" class="node">
<title>Node14</title>
<g id="a_node14"><a xlink:title=" ">
<polygon fill="#e0e0e0" stroke="#999999" points="770.51,-74 711.51,-74 711.51,-55 770.51,-55 770.51,-74"/>
<text text-anchor="middle" x="741.01" y="-62" font-family="Helvetica,sans-Serif" font-size="10.00">gdk/gdk.h</text>
</a>
</g>
</g>
<!-- Node2&#45;&gt;Node14 -->
<g id="edge13" class="edge">
<title>Node2&#45;&gt;Node14</title>
<path fill="none" stroke="#63b8ff" d="M709.29,-109.75C714.37,-102.66 721.71,-92.42 728.05,-83.59"/>
<polygon fill="#63b8ff" stroke="#63b8ff" points="730.74,-85.84 733.72,-75.67 725.05,-81.76 730.74,-85.84"/>
</g>
<!-- Node15 -->
<g id="node15" class="node">
<title>Node15</title>
<g id="a_node15"><a xlink:title=" ">
<polygon fill="#e0e0e0" stroke="#999999" points="887.51,-74 788.51,-74 788.51,-55 887.51,-55 887.51,-74"/>
<text text-anchor="middle" x="838.01" y="-62" font-family="Helvetica,sans-Serif" font-size="10.00">gdk/gdkkeysyms.h</text>
</a>
</g>
</g>
<!-- Node2&#45;&gt;Node15 -->
<g id="edge14" class="edge">
<title>Node2&#45;&gt;Node15</title>
<path fill="none" stroke="#63b8ff" d="M725.92,-109.51C747.57,-101.01 780.32,-88.15 804.84,-78.53"/>
<polygon fill="#63b8ff" stroke="#63b8ff" points="806.01,-81.82 814.04,-74.91 803.46,-75.31 806.01,-81.82"/>
</g>
<!-- Node16 -->
<g id="node16" class="node">
<title>Node16</title>
<g id="a_node16"><a xlink:title=" ">
<polygon fill="#e0e0e0" stroke="#999999" points="1024.01,-74 906.01,-74 906.01,-55 1024.01,-55 1024.01,-74"/>
<text text-anchor="middle" x="965.01" y="-62" font-family="Helvetica,sans-Serif" font-size="10.00">gdk&#45;pixbuf/gdk&#45;pixbuf.h</text>
</a>
</g>
</g>
<!-- Node2&#45;&gt;Node16 -->
<g id="edge15" class="edge">
<title>Node2&#45;&gt;Node16</title>
<path fill="none" stroke="#63b8ff" d="M728.14,-113.42C769.72,-105.01 853.8,-88 909.77,-76.68"/>
<polygon fill="#63b8ff" stroke="#63b8ff" points="910.32,-80.13 919.43,-74.72 908.94,-73.27 910.32,-80.13"/>
</g>
<!-- Node17 -->
<g id="node17" class="node">
<title>Node17</title>
<g id="a_node17"><a xlink:title=" ">
<polygon fill="#e0e0e0" stroke="#999999" points="1134.01,-74 1042.01,-74 1042.01,-55 1134.01,-55 1134.01,-74"/>
<text text-anchor="middle" x="1088.01" y="-62" font-family="Helvetica,sans-Serif" font-size="10.00">pango/pangoft2.h</text>
</a>
</g>
</g>
<!-- Node2&#45;&gt;Node17 -->
<g id="edge16" class="edge">
<title>Node2&#45;&gt;Node17</title>
<path fill="none" stroke="#63b8ff" d="M728.29,-115.26C781.92,-108.35 911.29,-91.49 1030.66,-74.32"/>
<polygon fill="#63b8ff" stroke="#63b8ff" points="1030.92,-77.82 1040.31,-72.92 1029.92,-70.89 1030.92,-77.82"/>
</g>
<!-- Node18 -->
<g id="node18" class="node">
<title>Node18</title>
<g id="a_node18"><a xlink:title=" ">
<polygon fill="#e0e0e0" stroke="#999999" points="1214.01,-74 1152.01,-74 1152.01,-55 1214.01,-55 1214.01,-74"/>
<text text-anchor="middle" x="1183.01" y="-62" font-family="Helvetica,sans-Serif" font-size="10.00">epoxy/gl.h</text>
</a>
</g>
</g>
<!-- Node2&#45;&gt;Node18 -->
<g id="edge17" class="edge">
<title>Node2&#45;&gt;Node18</title>
<path fill="none" stroke="#63b8ff" d="M728.43,-116.9C794.62,-112.53 977.89,-99.11 1140.46,-74.24"/>
<polygon fill="#63b8ff" stroke="#63b8ff" points="1140.79,-77.73 1150.14,-72.74 1139.72,-70.81 1140.79,-77.73"/>
</g>
<!-- Node19 -->
<g id="node19" class="node">
<title>Node19</title>
<g id="a_node19"><a xlink:title=" ">
<polygon fill="#e0e0e0" stroke="#999999" points="1285.51,-74 1232.51,-74 1232.51,-55 1285.51,-55 1285.51,-74"/>
<text text-anchor="middle" x="1259.01" y="-62" font-family="Helvetica,sans-Serif" font-size="10.00">GL/glu.h</text>
</a>
</g>
</g>
<!-- Node2&#45;&gt;Node19 -->
<g id="edge18" class="edge">
<title>Node2&#45;&gt;Node19</title>
<path fill="none" stroke="#63b8ff" d="M728.34,-117.65C802.5,-114.88 1025.73,-104.57 1221.02,-74.05"/>
<polygon fill="#63b8ff" stroke="#63b8ff" points="1221.54,-77.51 1230.87,-72.49 1220.44,-70.6 1221.54,-77.51"/>
</g>
<!-- Node20 -->
<g id="node20" class="node">
<title>Node20</title>
<g id="a_node20"><a xlink:title=" ">
<polygon fill="#e0e0e0" stroke="#999999" points="1370.51,-74 1303.51,-74 1303.51,-55 1370.51,-55 1370.51,-74"/>
<text text-anchor="middle" x="1337.01" y="-62" font-family="Helvetica,sans-Serif" font-size="10.00">epoxy/glx.h</text>
</a>
</g>
</g>
<!-- Node2&#45;&gt;Node20 -->
<g id="edge19" class="edge">
<title>Node2&#45;&gt;Node20</title>
<path fill="none" stroke="#63b8ff" d="M728.23,-117.73C808.9,-115.03 1067.98,-104.52 1291.84,-74.28"/>
<polygon fill="#63b8ff" stroke="#63b8ff" points="1292.22,-77.76 1301.65,-72.94 1291.27,-70.83 1292.22,-77.76"/>
</g>
<!-- Node21 -->
<g id="node21" class="node">
<title>Node21</title>
<g id="a_node21"><a xlink:href="../../dc/db0/math__3d_8h.html" target="_top" xlink:title=" ">
<polygon fill="white" stroke="#666666" points="1451.01,-74 1389.01,-74 1389.01,-55 1451.01,-55 1451.01,-74"/>
<text text-anchor="middle" x="1420.01" y="-62" font-family="Helvetica,sans-Serif" font-size="10.00">math_3d.h</text>
</a>
</g>
</g>
<!-- Node2&#45;&gt;Node21 -->
<g id="edge20" class="edge">
<title>Node2&#45;&gt;Node21</title>
<path fill="none" stroke="#63b8ff" d="M728.35,-118.15C816.6,-116.64 1118.69,-109.17 1377.52,-74.14"/>
<polygon fill="#63b8ff" stroke="#63b8ff" points="1377.72,-77.64 1387.15,-72.82 1376.76,-70.71 1377.72,-77.64"/>
</g>
<!-- Node22 -->
<g id="node22" class="node">
<title>Node22</title>
<g id="a_node22"><a xlink:href="../../da/d7e/glwin_8h.html" target="_top" xlink:title=" ">
<polygon fill="white" stroke="#666666" points="351.51,-74 304.51,-74 304.51,-55 351.51,-55 351.51,-74"/>
<text text-anchor="middle" x="328.01" y="-62" font-family="Helvetica,sans-Serif" font-size="10.00">glwin.h</text>
</a>
</g>
</g>
<!-- Node2&#45;&gt;Node22 -->
<g id="edge23" class="edge">
<title>Node2&#45;&gt;Node22</title>
<path fill="none" stroke="#63b8ff" d="M677.53,-116.26C622.15,-111.17 486.56,-97.48 362.89,-74.12"/>
<polygon fill="#63b8ff" stroke="#63b8ff" points="363.7,-70.71 353.21,-72.26 362.38,-77.59 363.7,-70.71"/>
</g>
<!-- Node24 -->
<g id="node24" class="node">
<title>Node24</title>
<g id="a_node24"><a xlink:title=" ">
<polygon fill="#e0e0e0" stroke="#999999" points="1567.01,-74 1507.01,-74 1507.01,-55 1567.01,-55 1567.01,-74"/>
<text text-anchor="middle" x="1537.01" y="-62" font-family="Helvetica,sans-Serif" font-size="10.00">gtk/gtkx.h</text>
</a>
</g>
</g>
<!-- Node2&#45;&gt;Node24 -->
<g id="edge25" class="edge">
<title>Node2&#45;&gt;Node24</title>
<path fill="none" stroke="#63b8ff" d="M728.36,-118.31C826.9,-117.31 1193.79,-111.16 1493.01,-74 1493.85,-73.9 1494.7,-73.78 1495.56,-73.67"/>
<polygon fill="#63b8ff" stroke="#63b8ff" points="1495.98,-77.15 1505.31,-72.13 1494.88,-70.23 1495.98,-77.15"/>
</g>
<!-- Node21&#45;&gt;Node8 -->
<g id="edge22" class="edge">
<title>Node21&#45;&gt;Node8</title>
<path fill="none" stroke="#63b8ff" d="M1388.63,-56.53C1385.72,-55.97 1382.82,-55.45 1380.01,-55 1246.36,-33.38 1085.74,-18.9 1016.52,-13.21"/>
<polygon fill="#63b8ff" stroke="#63b8ff" points="1017.21,-9.76 1006.96,-12.43 1016.64,-16.73 1017.21,-9.76"/>
</g>
<!-- Node21&#45;&gt;Node12 -->
<g id="edge21" class="edge">
<title>Node21&#45;&gt;Node12</title>
<path fill="none" stroke="#63b8ff" d="M1424.8,-54.75C1428.56,-47.88 1433.92,-38.08 1438.65,-29.45"/>
<polygon fill="#63b8ff" stroke="#63b8ff" points="1441.67,-31.22 1443.4,-20.77 1435.52,-27.86 1441.67,-31.22"/>
</g>
<!-- Node22&#45;&gt;Node23 -->
<g id="edge24" class="edge">
<title>Node22&#45;&gt;Node23</title>
<path fill="none" stroke="#63b8ff" d="M304.02,-56.02C276.31,-47.38 230.31,-33.04 197.35,-22.76"/>
<polygon fill="#63b8ff" stroke="#63b8ff" points="198.75,-19.53 188.16,-19.9 196.67,-26.22 198.75,-19.53"/>
</g>
<!-- Node26&#45;&gt;Node2 -->
<g id="edge29" class="edge">
<title>Node26&#45;&gt;Node2</title>
<path fill="none" stroke="#63b8ff" d="M703.01,-164.75C703.01,-158.27 703.01,-149.16 703.01,-140.9"/>
<polygon fill="#63b8ff" stroke="#63b8ff" points="706.51,-140.96 703.01,-130.96 699.51,-140.96 706.51,-140.96"/>
</g>
</g>
</svg>
        <g id="navigator" transform="translate(0 0)" fill="#404254">
                <rect fill="#f2f5e9" fill-opacity="0.5" stroke="#606060" stroke-width=".5" x="0" y="0" width="60" height="60"/>
                <use id="zoomplus" xlink:href="#zoomPlus" x="17" y="9" onmousedown="handleZoom(evt,'in')"/>
                <use id="zoomminus" xlink:href="#zoomMin" x="42" y="9" onmousedown="handleZoom(evt,'out')"/>
                <use id="reset" xlink:href="#resetDef" x="30" y="36" onmousedown="handleReset()"/>
                <g id="arrowUp" xlink:href="#dirArrow" transform="translate(30 24)" onmousedown="handlePan(0,-1)">
                  <use xlink:href="#rim" fill="#404040">
                        <set attributeName="fill" to="#808080" begin="arrowUp.mouseover" end="arrowUp.mouseout"/>
                  </use>
                  <path fill="none" stroke="white" stroke-width="1.5" d="M0,-3.0v7 M-2.5,-0.5L0,-3.0L2.5,-0.5"/>
                </g>
                <g id="arrowRight" xlink:href="#dirArrow" transform="rotate(90) translate(36 -43)" onmousedown="handlePan(1,0)">
                  <use xlink:href="#rim" fill="#404040">
                        <set attributeName="fill" to="#808080" begin="arrowRight.mouseover" end="arrowRight.mouseout"/>
                  </use>
                  <path fill="none" stroke="white" stroke-width="1.5" d="M0,-3.0v7 M-2.5,-0.5L0,-3.0L2.5,-0.5"/>
                </g>
                <g id="arrowDown" xlink:href="#dirArrow" transform="rotate(180) translate(-30 -48)" onmousedown="handlePan(0,1)">
                  <use xlink:href="#rim" fill="#404040">
                        <set attributeName="fill" to="#808080" begin="arrowDown.mouseover" end="arrowDown.mouseout"/>
                  </use>
                  <path fill="none" stroke="white" stroke-width="1.5" d="M0,-3.0v7 M-2.5,-0.5L0,-3.0L2.5,-0.5"/>
                </g>
                <g id="arrowLeft" xlink:href="#dirArrow" transform="rotate(270) translate(-36 17)" onmousedown="handlePan(-1,0)">
                  <use xlink:href="#rim" fill="#404040">
                        <set attributeName="fill" to="#808080" begin="arrowLeft.mouseover" end="arrowLeft.mouseout"/>
                  </use>
                  <path fill="none" stroke="white" stroke-width="1.5" d="M0,-3.0v7 M-2.5,-0.5L0,-3.0L2.5,-0.5"/>
                </g>
        </g>
        <svg viewBox="0 0 15 15" width="100%" height="30px" preserveAspectRatio="xMaxYMin meet">
         <g id="arrow_out" transform="scale(0.3 0.3)">
          <a xlink:href="d__atoms_8c__incl_org.svg" target="_base">
           <rect id="button" ry="5" rx="5" y="6" x="6" height="38" width="38"
                fill="#f2f5e9" fill-opacity="0.5" stroke="#606060" stroke-width="1.0"/>
           <path id="arrow"
             d="M 11.500037,31.436501 C 11.940474,20.09759 22.043105,11.32322 32.158766,21.979434 L 37.068811,17.246167 C 37.068811,17.246167 37.088388,32 37.088388,32 L 22.160133,31.978069 C 22.160133,31.978069 26.997745,27.140456 26.997745,27.140456 C 18.528582,18.264221 13.291696,25.230495 11.500037,31.436501 z"
             style="fill:#404040;"/>
          </a>
         </g>
        </svg>
</svg>
