<?xml version="1.0" encoding="UTF-8" standalone="no"?>
<!DOCTYPE svg PUBLIC "-//W3C//DTD SVG 1.1//EN"
 "http://www.w3.org/Graphics/SVG/1.1/DTD/svg11.dtd">
<!-- Generated by graphviz version 2.43.0 (0)
 -->
<!-- Title: /home/slookeur/files/codeblocks&#45;files/atomes/src/opengl/draw/image.c Pages: 1 -->
<svg width="2506pt" height="214pt"
 viewBox="0.00 0.00 2506.00 214.00" xmlns="http://www.w3.org/2000/svg" xmlns:xlink="http://www.w3.org/1999/xlink">
<g id="graph0" class="graph" transform="scale(1 1) rotate(0) translate(4 210)">
<title>/home/slookeur/files/codeblocks&#45;files/atomes/src/opengl/draw/image.c</title>
<!-- Node1 -->
<g id="Node000001" class="node">
<title>Node1</title>
<g id="a_Node000001"><a xlink:title="Functions to render an image from the OpenGL window.">
<polygon fill="#999999" stroke="#666666" points="1999,-206 1860,-206 1860,-165 1999,-165 1999,-206"/>
<text text-anchor="start" x="1868" y="-194" font-family="Helvetica,sans-Serif" font-size="10.00">/home/slookeur/files</text>
<text text-anchor="start" x="1868" y="-183" font-family="Helvetica,sans-Serif" font-size="10.00">/codeblocks&#45;files/atomes</text>
<text text-anchor="middle" x="1929.5" y="-172" font-family="Helvetica,sans-Serif" font-size="10.00">/src/opengl/draw/image.c</text>
</a>
</g>
</g>
<!-- Node2 -->
<g id="Node000002" class="node">
<title>Node2</title>
<g id="a_Node000002"><a xlink:href="../../d2/d49/global_8h.html" target="_top" xlink:title="Global variable declarations &#160;&#160;Global convenience function declarations &#160;&#160;Global data structure defin...">
<polygon fill="white" stroke="#666666" points="1024.5,-129 968.5,-129 968.5,-110 1024.5,-110 1024.5,-129"/>
<text text-anchor="middle" x="996.5" y="-117" font-family="Helvetica,sans-Serif" font-size="10.00">global.h</text>
</a>
</g>
</g>
<!-- Node1&#45;&gt;Node2 -->
<g id="edge1_Node000001_Node000002" class="edge">
<title>Node1&#45;&gt;Node2</title>
<g id="a_edge1_Node000001_Node000002"><a xlink:title=" ">
<path fill="none" stroke="#63b8ff" d="M1859.75,-179.72C1675.04,-167.05 1177.58,-132.92 1035.11,-123.15"/>
<polygon fill="#63b8ff" stroke="#63b8ff" points="1034.92,-119.63 1024.71,-122.44 1034.45,-126.61 1034.92,-119.63"/>
</a>
</g>
</g>
<!-- Node25 -->
<g id="Node000025" class="node">
<title>Node25</title>
<g id="a_Node000025"><a xlink:href="../../d4/da9/interface_8h.html" target="_top" xlink:title="Messaging function declarations.">
<polygon fill="white" stroke="#666666" points="1799,-129 1730,-129 1730,-110 1799,-110 1799,-129"/>
<text text-anchor="middle" x="1764.5" y="-117" font-family="Helvetica,sans-Serif" font-size="10.00">interface.h</text>
</a>
</g>
</g>
<!-- Node1&#45;&gt;Node25 -->
<g id="edge26_Node000001_Node000025" class="edge">
<title>Node1&#45;&gt;Node25</title>
<g id="a_edge26_Node000001_Node000025"><a xlink:title=" ">
<path fill="none" stroke="#63b8ff" d="M1879.1,-164.95C1852.06,-154.46 1819.58,-141.87 1796.11,-132.76"/>
<polygon fill="#63b8ff" stroke="#63b8ff" points="1797.24,-129.45 1786.65,-129.09 1794.71,-135.97 1797.24,-129.45"/>
</a>
</g>
</g>
<!-- Node26 -->
<g id="Node000026" class="node">
<title>Node26</title>
<g id="a_Node000026"><a xlink:href="../../dc/d8d/project_8h.html" target="_top" xlink:title="Function declarations for reading atomes project file &#160;&#160;Function declarations for saving atomes proje...">
<polygon fill="white" stroke="#666666" points="1876,-129 1817,-129 1817,-110 1876,-110 1876,-129"/>
<text text-anchor="middle" x="1846.5" y="-117" font-family="Helvetica,sans-Serif" font-size="10.00">project.h</text>
</a>
</g>
</g>
<!-- Node1&#45;&gt;Node26 -->
<g id="edge27_Node000001_Node000026" class="edge">
<title>Node1&#45;&gt;Node26</title>
<g id="a_edge27_Node000001_Node000026"><a xlink:title=" ">
<path fill="none" stroke="#63b8ff" d="M1904.15,-164.95C1891.84,-155.46 1877.28,-144.24 1865.88,-135.44"/>
<polygon fill="#63b8ff" stroke="#63b8ff" points="1867.92,-132.6 1857.86,-129.26 1863.64,-138.14 1867.92,-132.6"/>
</a>
</g>
</g>
<!-- Node27 -->
<g id="Node000027" class="node">
<title>Node27</title>
<g id="a_Node000027"><a xlink:href="../../d1/d2a/glwindow_8h.html" target="_top" xlink:title="Function declarations for the creation of the OpenGL window.">
<polygon fill="white" stroke="#666666" points="1965,-129 1894,-129 1894,-110 1965,-110 1965,-129"/>
<text text-anchor="middle" x="1929.5" y="-117" font-family="Helvetica,sans-Serif" font-size="10.00">glwindow.h</text>
</a>
</g>
</g>
<!-- Node1&#45;&gt;Node27 -->
<g id="edge28_Node000001_Node000027" class="edge">
<title>Node1&#45;&gt;Node27</title>
<g id="a_edge28_Node000001_Node000027"><a xlink:title=" ">
<path fill="none" stroke="#63b8ff" d="M1929.5,-164.95C1929.5,-156.85 1929.5,-147.5 1929.5,-139.47"/>
<polygon fill="#63b8ff" stroke="#63b8ff" points="1933,-139.26 1929.5,-129.26 1926,-139.26 1933,-139.26"/>
</a>
</g>
</g>
<!-- Node28 -->
<g id="Node000028" class="node">
<title>Node28</title>
<g id="a_Node000028"><a xlink:href="../../dc/de3/glview_8h.html" target="_top" xlink:title="Variable declarations related to the OpenGL window &#160;&#160;Function declarations related to the OpenGL wind...">
<polygon fill="white" stroke="#666666" points="2040,-129 1983,-129 1983,-110 2040,-110 2040,-129"/>
<text text-anchor="middle" x="2011.5" y="-117" font-family="Helvetica,sans-Serif" font-size="10.00">glview.h</text>
</a>
</g>
</g>
<!-- Node1&#45;&gt;Node28 -->
<g id="edge29_Node000001_Node000028" class="edge">
<title>Node1&#45;&gt;Node28</title>
<g id="a_edge29_Node000001_Node000028"><a xlink:title=" ">
<path fill="none" stroke="#63b8ff" d="M1954.55,-164.95C1966.71,-155.46 1981.09,-144.24 1992.35,-135.44"/>
<polygon fill="#63b8ff" stroke="#63b8ff" points="1994.55,-138.17 2000.28,-129.26 1990.24,-132.65 1994.55,-138.17"/>
</a>
</g>
</g>
<!-- Node29 -->
<g id="Node000029" class="node">
<title>Node29</title>
<g id="a_Node000029"><a xlink:href="../../da/ddd/movie_8h.html" target="_top" xlink:title="Data structure declarations for movie encoding &#160;&#160;Function declarations for movie encoding.">
<polygon fill="white" stroke="#666666" points="2114.5,-129 2058.5,-129 2058.5,-110 2114.5,-110 2114.5,-129"/>
<text text-anchor="middle" x="2086.5" y="-117" font-family="Helvetica,sans-Serif" font-size="10.00">movie.h</text>
</a>
</g>
</g>
<!-- Node1&#45;&gt;Node29 -->
<g id="edge30_Node000001_Node000029" class="edge">
<title>Node1&#45;&gt;Node29</title>
<g id="a_edge30_Node000001_Node000029"><a xlink:title=" ">
<path fill="none" stroke="#63b8ff" d="M1977.46,-164.95C2003.07,-154.51 2033.81,-141.98 2056.12,-132.88"/>
<polygon fill="#63b8ff" stroke="#63b8ff" points="2057.48,-136.11 2065.42,-129.09 2054.84,-129.63 2057.48,-136.11"/>
</a>
</g>
</g>
<!-- Node33 -->
<g id="Node000033" class="node">
<title>Node33</title>
<g id="a_Node000033"><a xlink:title=" ">
<polygon fill="#e0e0e0" stroke="#999999" points="2498,-74 2367,-74 2367,-55 2498,-55 2498,-74"/>
<text text-anchor="middle" x="2432.5" y="-62" font-family="Helvetica,sans-Serif" font-size="10.00">libavformat/avformat.h</text>
</a>
</g>
</g>
<!-- Node1&#45;&gt;Node33 -->
<g id="edge37_Node000001_Node000033" class="edge">
<title>Node1&#45;&gt;Node33</title>
<g id="a_edge37_Node000001_Node000033"><a xlink:title=" ">
<path fill="none" stroke="#63b8ff" d="M1999.18,-168.02C2103.71,-143.29 2298.28,-97.25 2386.68,-76.34"/>
<polygon fill="#63b8ff" stroke="#63b8ff" points="2387.49,-79.75 2396.41,-74.04 2385.88,-72.93 2387.49,-79.75"/>
</a>
</g>
</g>
<!-- Node3 -->
<g id="Node000003" class="node">
<title>Node3</title>
<g id="a_Node000003"><a xlink:title=" ">
<polygon fill="#e0e0e0" stroke="#999999" points="1344.5,-74 1300.5,-74 1300.5,-55 1344.5,-55 1344.5,-74"/>
<text text-anchor="middle" x="1322.5" y="-62" font-family="Helvetica,sans-Serif" font-size="10.00">glib.h</text>
</a>
</g>
</g>
<!-- Node2&#45;&gt;Node3 -->
<g id="edge2_Node000002_Node000003" class="edge">
<title>Node2&#45;&gt;Node3</title>
<g id="a_edge2_Node000002_Node000003"><a xlink:title=" ">
<path fill="none" stroke="#63b8ff" d="M1024.76,-115.36C1075.88,-109.45 1187.22,-95.46 1290.28,-74.04"/>
<polygon fill="#63b8ff" stroke="#63b8ff" points="1291.16,-77.43 1300.23,-71.95 1289.72,-70.58 1291.16,-77.43"/>
</a>
</g>
</g>
<!-- Node4 -->
<g id="Node000004" class="node">
<title>Node4</title>
<g id="a_Node000004"><a xlink:title=" ">
<polygon fill="#e0e0e0" stroke="#999999" points="1436.5,-74 1362.5,-74 1362.5,-55 1436.5,-55 1436.5,-74"/>
<text text-anchor="middle" x="1399.5" y="-62" font-family="Helvetica,sans-Serif" font-size="10.00">glib/gi18n.h</text>
</a>
</g>
</g>
<!-- Node2&#45;&gt;Node4 -->
<g id="edge3_Node000002_Node000004" class="edge">
<title>Node2&#45;&gt;Node4</title>
<g id="a_edge3_Node000002_Node000004"><a xlink:title=" ">
<path fill="none" stroke="#63b8ff" d="M1024.81,-115.54C1083.77,-109.26 1224.22,-93.66 1352.38,-74.09"/>
<polygon fill="#63b8ff" stroke="#63b8ff" points="1353.02,-77.53 1362.37,-72.55 1351.96,-70.62 1353.02,-77.53"/>
</a>
</g>
</g>
<!-- Node5 -->
<g id="Node000005" class="node">
<title>Node5</title>
<g id="a_Node000005"><a xlink:title=" ">
<polygon fill="#e0e0e0" stroke="#999999" points="1510,-74 1455,-74 1455,-55 1510,-55 1510,-74"/>
<text text-anchor="middle" x="1482.5" y="-62" font-family="Helvetica,sans-Serif" font-size="10.00">locale.h</text>
</a>
</g>
</g>
<!-- Node2&#45;&gt;Node5 -->
<g id="edge4_Node000002_Node000005" class="edge">
<title>Node2&#45;&gt;Node5</title>
<g id="a_edge4_Node000002_Node000005"><a xlink:title=" ">
<path fill="none" stroke="#63b8ff" d="M1024.51,-116.96C1093.92,-112.9 1279.59,-100.41 1444.37,-73.97"/>
<polygon fill="#63b8ff" stroke="#63b8ff" points="1445.39,-77.35 1454.69,-72.29 1444.26,-70.44 1445.39,-77.35"/>
</a>
</g>
</g>
<!-- Node6 -->
<g id="Node000006" class="node">
<title>Node6</title>
<g id="a_Node000006"><a xlink:title=" ">
<polygon fill="#e0e0e0" stroke="#999999" points="1584.5,-74 1528.5,-74 1528.5,-55 1584.5,-55 1584.5,-74"/>
<text text-anchor="middle" x="1556.5" y="-62" font-family="Helvetica,sans-Serif" font-size="10.00">unistd.h</text>
</a>
</g>
</g>
<!-- Node2&#45;&gt;Node6 -->
<g id="edge5_Node000002_Node000006" class="edge">
<title>Node2&#45;&gt;Node6</title>
<g id="a_edge5_Node000002_Node000006"><a xlink:title=" ">
<path fill="none" stroke="#63b8ff" d="M1024.67,-117.44C1103.23,-114.19 1331.29,-102.78 1518.5,-74 1518.6,-73.98 1518.7,-73.97 1518.8,-73.95"/>
<polygon fill="#63b8ff" stroke="#63b8ff" points="1519.13,-77.45 1528.36,-72.24 1517.9,-70.56 1519.13,-77.45"/>
</a>
</g>
</g>
<!-- Node7 -->
<g id="Node000007" class="node">
<title>Node7</title>
<g id="a_Node000007"><a xlink:title=" ">
<polygon fill="#e0e0e0" stroke="#999999" points="1656,-74 1603,-74 1603,-55 1656,-55 1656,-74"/>
<text text-anchor="middle" x="1629.5" y="-62" font-family="Helvetica,sans-Serif" font-size="10.00">string.h</text>
</a>
</g>
</g>
<!-- Node2&#45;&gt;Node7 -->
<g id="edge6_Node000002_Node000007" class="edge">
<title>Node2&#45;&gt;Node7</title>
<g id="a_edge6_Node000002_Node000007"><a xlink:title=" ">
<path fill="none" stroke="#63b8ff" d="M1024.65,-117.97C1109.23,-116.06 1368.51,-107.78 1592.87,-73.82"/>
<polygon fill="#63b8ff" stroke="#63b8ff" points="1593.5,-77.26 1602.86,-72.28 1592.44,-70.34 1593.5,-77.26"/>
</a>
</g>
</g>
<!-- Node8 -->
<g id="Node000008" class="node">
<title>Node8</title>
<g id="a_Node000008"><a xlink:title=" ">
<polygon fill="#e0e0e0" stroke="#999999" points="1182.5,-19 1132.5,-19 1132.5,0 1182.5,0 1182.5,-19"/>
<text text-anchor="middle" x="1157.5" y="-7" font-family="Helvetica,sans-Serif" font-size="10.00">stdio.h</text>
</a>
</g>
</g>
<!-- Node2&#45;&gt;Node8 -->
<g id="edge7_Node000002_Node000008" class="edge">
<title>Node2&#45;&gt;Node8</title>
<g id="a_edge7_Node000002_Node000008"><a xlink:title=" ">
<path fill="none" stroke="#63b8ff" d="M1024.62,-115.41C1068.96,-109.89 1151.88,-96.73 1169.5,-74 1179.57,-61.01 1174.19,-42.1 1167.74,-28.3"/>
<polygon fill="#63b8ff" stroke="#63b8ff" points="1170.78,-26.56 1163.06,-19.31 1164.57,-29.79 1170.78,-26.56"/>
</a>
</g>
</g>
<!-- Node9 -->
<g id="Node000009" class="node">
<title>Node9</title>
<g id="a_Node000009"><a xlink:title=" ">
<polygon fill="#e0e0e0" stroke="#999999" points="53,-74 0,-74 0,-55 53,-55 53,-74"/>
<text text-anchor="middle" x="26.5" y="-62" font-family="Helvetica,sans-Serif" font-size="10.00">stdlib.h</text>
</a>
</g>
</g>
<!-- Node2&#45;&gt;Node9 -->
<g id="edge8_Node000002_Node000009" class="edge">
<title>Node2&#45;&gt;Node9</title>
<g id="a_edge8_Node000002_Node000009"><a xlink:title=" ">
<path fill="none" stroke="#63b8ff" d="M968.06,-117.85C834.02,-114.69 263.91,-100.03 63.26,-73.75"/>
<polygon fill="#63b8ff" stroke="#63b8ff" points="63.51,-70.25 53.13,-72.37 62.57,-77.19 63.51,-70.25"/>
</a>
</g>
</g>
<!-- Node10 -->
<g id="Node000010" class="node">
<title>Node10</title>
<g id="a_Node000010"><a xlink:title=" ">
<polygon fill="#e0e0e0" stroke="#999999" points="143.5,-74 71.5,-74 71.5,-55 143.5,-55 143.5,-74"/>
<text text-anchor="middle" x="107.5" y="-62" font-family="Helvetica,sans-Serif" font-size="10.00">sys/types.h</text>
</a>
</g>
</g>
<!-- Node2&#45;&gt;Node10 -->
<g id="edge9_Node000002_Node000010" class="edge">
<title>Node2&#45;&gt;Node10</title>
<g id="a_edge9_Node000002_Node000010"><a xlink:title=" ">
<path fill="none" stroke="#63b8ff" d="M968.33,-118.38C862.59,-117.65 479.15,-112.43 153.88,-73.99"/>
<polygon fill="#63b8ff" stroke="#63b8ff" points="154.13,-70.5 143.78,-72.79 153.3,-77.45 154.13,-70.5"/>
</a>
</g>
</g>
<!-- Node11 -->
<g id="Node000011" class="node">
<title>Node11</title>
<g id="a_Node000011"><a xlink:title=" ">
<polygon fill="#e0e0e0" stroke="#999999" points="225.5,-74 161.5,-74 161.5,-55 225.5,-55 225.5,-74"/>
<text text-anchor="middle" x="193.5" y="-62" font-family="Helvetica,sans-Serif" font-size="10.00">sys/stat.h</text>
</a>
</g>
</g>
<!-- Node2&#45;&gt;Node11 -->
<g id="edge10_Node000002_Node000011" class="edge">
<title>Node2&#45;&gt;Node11</title>
<g id="a_edge10_Node000002_Node000011"><a xlink:title=" ">
<path fill="none" stroke="#63b8ff" d="M968.2,-118.1C868.23,-116.42 522.45,-108.32 239.5,-74 238.23,-73.85 236.94,-73.68 235.64,-73.5"/>
<polygon fill="#63b8ff" stroke="#63b8ff" points="236.01,-70.02 225.59,-71.95 234.94,-76.93 236.01,-70.02"/>
</a>
</g>
</g>
<!-- Node12 -->
<g id="Node000012" class="node">
<title>Node12</title>
<g id="a_Node000012"><a xlink:title=" ">
<polygon fill="#e0e0e0" stroke="#999999" points="712,-19 661,-19 661,0 712,0 712,-19"/>
<text text-anchor="middle" x="686.5" y="-7" font-family="Helvetica,sans-Serif" font-size="10.00">math.h</text>
</a>
</g>
</g>
<!-- Node2&#45;&gt;Node12 -->
<g id="edge11_Node000002_Node000012" class="edge">
<title>Node2&#45;&gt;Node12</title>
<g id="a_edge11_Node000002_Node000012"><a xlink:title=" ">
<path fill="none" stroke="#63b8ff" d="M968.29,-117.84C837.65,-114.62 296.76,-99.8 272.5,-74 219.47,-17.61 541.01,-11.09 650.75,-10.5"/>
<polygon fill="#63b8ff" stroke="#63b8ff" points="651,-14 660.99,-10.46 650.98,-7 651,-14"/>
</a>
</g>
</g>
<!-- Node13 -->
<g id="Node000013" class="node">
<title>Node13</title>
<g id="a_Node000013"><a xlink:title=" ">
<polygon fill="#e0e0e0" stroke="#999999" points="341.5,-74 281.5,-74 281.5,-55 341.5,-55 341.5,-74"/>
<text text-anchor="middle" x="311.5" y="-62" font-family="Helvetica,sans-Serif" font-size="10.00">gtk/gtk.h</text>
</a>
</g>
</g>
<!-- Node2&#45;&gt;Node13 -->
<g id="edge12_Node000002_Node000013" class="edge">
<title>Node2&#45;&gt;Node13</title>
<g id="a_edge12_Node000002_Node000013"><a xlink:title=" ">
<path fill="none" stroke="#63b8ff" d="M968.33,-118.02C879.26,-116.21 595.73,-108.08 351.78,-73.96"/>
<polygon fill="#63b8ff" stroke="#63b8ff" points="352.05,-70.46 341.65,-72.53 351.07,-77.4 352.05,-70.46"/>
</a>
</g>
</g>
<!-- Node14 -->
<g id="Node000014" class="node">
<title>Node14</title>
<g id="a_Node000014"><a xlink:title=" ">
<polygon fill="#e0e0e0" stroke="#999999" points="425,-74 360,-74 360,-55 425,-55 425,-74"/>
<text text-anchor="middle" x="392.5" y="-62" font-family="Helvetica,sans-Serif" font-size="10.00">gdk/gdk.h</text>
</a>
</g>
</g>
<!-- Node2&#45;&gt;Node14 -->
<g id="edge13_Node000002_Node000014" class="edge">
<title>Node2&#45;&gt;Node14</title>
<g id="a_edge13_Node000002_Node000014"><a xlink:title=" ">
<path fill="none" stroke="#63b8ff" d="M968.3,-117.47C887.11,-114.26 645.75,-102.91 435.44,-73.95"/>
<polygon fill="#63b8ff" stroke="#63b8ff" points="435.84,-70.47 425.45,-72.56 434.87,-77.41 435.84,-70.47"/>
</a>
</g>
</g>
<!-- Node15 -->
<g id="Node000015" class="node">
<title>Node15</title>
<g id="a_Node000015"><a xlink:title=" ">
<polygon fill="#e0e0e0" stroke="#999999" points="551.5,-74 443.5,-74 443.5,-55 551.5,-55 551.5,-74"/>
<text text-anchor="middle" x="497.5" y="-62" font-family="Helvetica,sans-Serif" font-size="10.00">gdk/gdkkeysyms.h</text>
</a>
</g>
</g>
<!-- Node2&#45;&gt;Node15 -->
<g id="edge14_Node000002_Node000015" class="edge">
<title>Node2&#45;&gt;Node15</title>
<g id="a_edge14_Node000002_Node000015"><a xlink:title=" ">
<path fill="none" stroke="#63b8ff" d="M968.41,-115.95C900.5,-109.72 721.79,-92.92 561.81,-74.12"/>
<polygon fill="#63b8ff" stroke="#63b8ff" points="562.12,-70.63 551.78,-72.94 561.3,-77.59 562.12,-70.63"/>
</a>
</g>
</g>
<!-- Node16 -->
<g id="Node000016" class="node">
<title>Node16</title>
<g id="a_Node000016"><a xlink:title=" ">
<polygon fill="#e0e0e0" stroke="#999999" points="703,-74 570,-74 570,-55 703,-55 703,-74"/>
<text text-anchor="middle" x="636.5" y="-62" font-family="Helvetica,sans-Serif" font-size="10.00">gdk&#45;pixbuf/gdk&#45;pixbuf.h</text>
</a>
</g>
</g>
<!-- Node2&#45;&gt;Node16 -->
<g id="edge15_Node000002_Node000016" class="edge">
<title>Node2&#45;&gt;Node16</title>
<g id="a_edge15_Node000002_Node000016"><a xlink:title=" ">
<path fill="none" stroke="#63b8ff" d="M968.25,-114.34C911.82,-106.03 783.76,-87.18 704.28,-75.48"/>
<polygon fill="#63b8ff" stroke="#63b8ff" points="704.76,-72.01 694.35,-74.02 703.74,-78.94 704.76,-72.01"/>
</a>
</g>
</g>
<!-- Node17 -->
<g id="Node000017" class="node">
<title>Node17</title>
<g id="a_Node000017"><a xlink:title=" ">
<polygon fill="#e0e0e0" stroke="#999999" points="822,-74 721,-74 721,-55 822,-55 822,-74"/>
<text text-anchor="middle" x="771.5" y="-62" font-family="Helvetica,sans-Serif" font-size="10.00">pango/pangoft2.h</text>
</a>
</g>
</g>
<!-- Node2&#45;&gt;Node17 -->
<g id="edge16_Node000002_Node000017" class="edge">
<title>Node2&#45;&gt;Node17</title>
<g id="a_edge16_Node000002_Node000017"><a xlink:title=" ">
<path fill="none" stroke="#63b8ff" d="M968.46,-111.89C930.67,-102.99 862.94,-87.04 817.6,-76.36"/>
<polygon fill="#63b8ff" stroke="#63b8ff" points="818.26,-72.92 807.72,-74.03 816.65,-79.73 818.26,-72.92"/>
</a>
</g>
</g>
<!-- Node18 -->
<g id="Node000018" class="node">
<title>Node18</title>
<g id="a_Node000018"><a xlink:title=" ">
<polygon fill="#e0e0e0" stroke="#999999" points="908.5,-74 840.5,-74 840.5,-55 908.5,-55 908.5,-74"/>
<text text-anchor="middle" x="874.5" y="-62" font-family="Helvetica,sans-Serif" font-size="10.00">epoxy/gl.h</text>
</a>
</g>
</g>
<!-- Node2&#45;&gt;Node18 -->
<g id="edge17_Node000002_Node000018" class="edge">
<title>Node2&#45;&gt;Node18</title>
<g id="a_edge17_Node000002_Node000018"><a xlink:title=" ">
<path fill="none" stroke="#63b8ff" d="M976.9,-109.98C957.18,-101.42 926.55,-88.11 903.92,-78.28"/>
<polygon fill="#63b8ff" stroke="#63b8ff" points="905.02,-74.94 894.46,-74.17 902.24,-81.37 905.02,-74.94"/>
</a>
</g>
</g>
<!-- Node19 -->
<g id="Node000019" class="node">
<title>Node19</title>
<g id="a_Node000019"><a xlink:title=" ">
<polygon fill="#e0e0e0" stroke="#999999" points="982.5,-74 926.5,-74 926.5,-55 982.5,-55 982.5,-74"/>
<text text-anchor="middle" x="954.5" y="-62" font-family="Helvetica,sans-Serif" font-size="10.00">GL/glu.h</text>
</a>
</g>
</g>
<!-- Node2&#45;&gt;Node19 -->
<g id="edge18_Node000002_Node000019" class="edge">
<title>Node2&#45;&gt;Node19</title>
<g id="a_edge18_Node000002_Node000019"><a xlink:title=" ">
<path fill="none" stroke="#63b8ff" d="M989.56,-109.75C983.63,-102.26 974.93,-91.28 967.68,-82.13"/>
<polygon fill="#63b8ff" stroke="#63b8ff" points="970.26,-79.75 961.31,-74.09 964.77,-84.1 970.26,-79.75"/>
</a>
</g>
</g>
<!-- Node20 -->
<g id="Node000020" class="node">
<title>Node20</title>
<g id="a_Node000020"><a xlink:title=" ">
<polygon fill="#e0e0e0" stroke="#999999" points="1074.5,-74 1000.5,-74 1000.5,-55 1074.5,-55 1074.5,-74"/>
<text text-anchor="middle" x="1037.5" y="-62" font-family="Helvetica,sans-Serif" font-size="10.00">epoxy/glx.h</text>
</a>
</g>
</g>
<!-- Node2&#45;&gt;Node20 -->
<g id="edge19_Node000002_Node000020" class="edge">
<title>Node2&#45;&gt;Node20</title>
<g id="a_edge19_Node000002_Node000020"><a xlink:title=" ">
<path fill="none" stroke="#63b8ff" d="M1003.27,-109.75C1009.06,-102.26 1017.56,-91.28 1024.64,-82.13"/>
<polygon fill="#63b8ff" stroke="#63b8ff" points="1027.51,-84.14 1030.86,-74.09 1021.97,-79.86 1027.51,-84.14"/>
</a>
</g>
</g>
<!-- Node21 -->
<g id="Node000021" class="node">
<title>Node21</title>
<g id="a_Node000021"><a xlink:href="../../dc/db0/math__3d_8h.html" target="_top" xlink:title="Functions for OpenGL math.">
<polygon fill="white" stroke="#666666" points="1160.5,-74 1092.5,-74 1092.5,-55 1160.5,-55 1160.5,-74"/>
<text text-anchor="middle" x="1126.5" y="-62" font-family="Helvetica,sans-Serif" font-size="10.00">math_3d.h</text>
</a>
</g>
</g>
<!-- Node2&#45;&gt;Node21 -->
<g id="edge20_Node000002_Node000021" class="edge">
<title>Node2&#45;&gt;Node21</title>
<g id="a_edge20_Node000002_Node000021"><a xlink:title=" ">
<path fill="none" stroke="#63b8ff" d="M1017.39,-109.98C1038.58,-101.34 1071.63,-87.87 1095.8,-78.02"/>
<polygon fill="#63b8ff" stroke="#63b8ff" points="1097.29,-81.19 1105.23,-74.17 1094.65,-74.7 1097.29,-81.19"/>
</a>
</g>
</g>
<!-- Node22 -->
<g id="Node000022" class="node">
<title>Node22</title>
<g id="a_Node000022"><a xlink:href="../../da/d7e/glwin_8h.html" target="_top" xlink:title="Variable declarations related the OpenGL window &#160;&#160;Data structure declarations related the OpenGL wind...">
<polygon fill="white" stroke="#666666" points="1726.5,-74 1674.5,-74 1674.5,-55 1726.5,-55 1726.5,-74"/>
<text text-anchor="middle" x="1700.5" y="-62" font-family="Helvetica,sans-Serif" font-size="10.00">glwin.h</text>
</a>
</g>
</g>
<!-- Node2&#45;&gt;Node22 -->
<g id="edge23_Node000002_Node000022" class="edge">
<title>Node2&#45;&gt;Node22</title>
<g id="a_edge23_Node000002_Node000022"><a xlink:title=" ">
<path fill="none" stroke="#63b8ff" d="M1024.68,-118.29C1115.78,-117.24 1410.62,-111.14 1664.11,-73.74"/>
<polygon fill="#63b8ff" stroke="#63b8ff" points="1664.88,-77.17 1674.25,-72.23 1663.84,-70.24 1664.88,-77.17"/>
</a>
</g>
</g>
<!-- Node24 -->
<g id="Node000024" class="node">
<title>Node24</title>
<g id="a_Node000024"><a xlink:title=" ">
<polygon fill="#e0e0e0" stroke="#999999" points="1282.5,-74 1216.5,-74 1216.5,-55 1282.5,-55 1282.5,-74"/>
<text text-anchor="middle" x="1249.5" y="-62" font-family="Helvetica,sans-Serif" font-size="10.00">gtk/gtkx.h</text>
</a>
</g>
</g>
<!-- Node2&#45;&gt;Node24 -->
<g id="edge25_Node000002_Node000024" class="edge">
<title>Node2&#45;&gt;Node24</title>
<g id="a_edge25_Node000002_Node000024"><a xlink:title=" ">
<path fill="none" stroke="#63b8ff" d="M1024.54,-112.63C1068.57,-103.4 1154.23,-85.46 1206.21,-74.57"/>
<polygon fill="#63b8ff" stroke="#63b8ff" points="1207.06,-77.97 1216.13,-72.49 1205.62,-71.12 1207.06,-77.97"/>
</a>
</g>
</g>
<!-- Node21&#45;&gt;Node8 -->
<g id="edge22_Node000021_Node000008" class="edge">
<title>Node21&#45;&gt;Node8</title>
<g id="a_edge22_Node000021_Node000008"><a xlink:title=" ">
<path fill="none" stroke="#63b8ff" d="M1131.62,-54.75C1135.86,-47.49 1142.03,-36.95 1147.28,-27.98"/>
<polygon fill="#63b8ff" stroke="#63b8ff" points="1150.45,-29.49 1152.48,-19.09 1144.41,-25.95 1150.45,-29.49"/>
</a>
</g>
</g>
<!-- Node21&#45;&gt;Node12 -->
<g id="edge21_Node000021_Node000012" class="edge">
<title>Node21&#45;&gt;Node12</title>
<g id="a_edge21_Node000021_Node000012"><a xlink:title=" ">
<path fill="none" stroke="#63b8ff" d="M1092.28,-56.47C1089.31,-55.94 1086.36,-55.44 1083.5,-55 950.83,-34.49 791.82,-19.55 722.15,-13.49"/>
<polygon fill="#63b8ff" stroke="#63b8ff" points="722.41,-10 712.14,-12.63 721.81,-16.97 722.41,-10"/>
</a>
</g>
</g>
<!-- Node23 -->
<g id="Node000023" class="node">
<title>Node23</title>
<g id="a_Node000023"><a xlink:href="../../d5/d9e/ogl__shading_8h.html" target="_top" xlink:title="Variable declarations related to GLSL programs &#160;&#160;Data structure declarations related to GLSL programs...">
<polygon fill="white" stroke="#666666" points="1742.5,-19 1658.5,-19 1658.5,0 1742.5,0 1742.5,-19"/>
<text text-anchor="middle" x="1700.5" y="-7" font-family="Helvetica,sans-Serif" font-size="10.00">ogl_shading.h</text>
</a>
</g>
</g>
<!-- Node22&#45;&gt;Node23 -->
<g id="edge24_Node000022_Node000023" class="edge">
<title>Node22&#45;&gt;Node23</title>
<g id="a_edge24_Node000022_Node000023"><a xlink:title=" ">
<path fill="none" stroke="#63b8ff" d="M1700.5,-54.75C1700.5,-47.8 1700.5,-37.85 1700.5,-29.13"/>
<polygon fill="#63b8ff" stroke="#63b8ff" points="1704,-29.09 1700.5,-19.09 1697,-29.09 1704,-29.09"/>
</a>
</g>
</g>
<!-- Node30 -->
<g id="Node000030" class="node">
<title>Node30</title>
<g id="a_Node000030"><a xlink:title=" ">
<polygon fill="#e0e0e0" stroke="#999999" points="2208.5,-74 2098.5,-74 2098.5,-55 2208.5,-55 2208.5,-74"/>
<text text-anchor="middle" x="2153.5" y="-62" font-family="Helvetica,sans-Serif" font-size="10.00">libavutil/avassert.h</text>
</a>
</g>
</g>
<!-- Node29&#45;&gt;Node30 -->
<g id="edge31_Node000029_Node000030" class="edge">
<title>Node29&#45;&gt;Node30</title>
<g id="a_edge31_Node000029_Node000030"><a xlink:title=" ">
<path fill="none" stroke="#63b8ff" d="M2097.26,-109.98C2107.27,-102.07 2122.39,-90.11 2134.43,-80.58"/>
<polygon fill="#63b8ff" stroke="#63b8ff" points="2136.87,-83.12 2142.54,-74.17 2132.53,-77.63 2136.87,-83.12"/>
</a>
</g>
</g>
<!-- Node31 -->
<g id="Node000031" class="node">
<title>Node31</title>
<g id="a_Node000031"><a xlink:title=" ">
<polygon fill="#e0e0e0" stroke="#999999" points="2348.5,-74 2226.5,-74 2226.5,-55 2348.5,-55 2348.5,-74"/>
<text text-anchor="middle" x="2287.5" y="-62" font-family="Helvetica,sans-Serif" font-size="10.00">libavcodec/avcodec.h</text>
</a>
</g>
</g>
<!-- Node29&#45;&gt;Node31 -->
<g id="edge32_Node000029_Node000031" class="edge">
<title>Node29&#45;&gt;Node31</title>
<g id="a_edge32_Node000029_Node000031"><a xlink:title=" ">
<path fill="none" stroke="#63b8ff" d="M2114.87,-111.02C2148.82,-102.07 2205.97,-87 2245.15,-76.67"/>
<polygon fill="#63b8ff" stroke="#63b8ff" points="2246.17,-80.02 2254.94,-74.08 2244.38,-73.25 2246.17,-80.02"/>
</a>
</g>
</g>
<!-- Node32 -->
<g id="Node000032" class="node">
<title>Node32</title>
<g id="a_Node000032"><a xlink:title=" ">
<polygon fill="#e0e0e0" stroke="#999999" points="1840.5,-74 1744.5,-74 1744.5,-55 1840.5,-55 1840.5,-74"/>
<text text-anchor="middle" x="1792.5" y="-62" font-family="Helvetica,sans-Serif" font-size="10.00">libavutil/avutil.h</text>
</a>
</g>
</g>
<!-- Node29&#45;&gt;Node32 -->
<g id="edge33_Node000029_Node000032" class="edge">
<title>Node29&#45;&gt;Node32</title>
<g id="a_edge33_Node000029_Node000032"><a xlink:title=" ">
<path fill="none" stroke="#63b8ff" d="M2058.31,-112.04C2055.01,-111.33 2051.68,-110.63 2048.5,-110 1980.89,-96.57 1902.78,-83.32 1850.79,-74.82"/>
<polygon fill="#63b8ff" stroke="#63b8ff" points="1851.19,-71.33 1840.75,-73.18 1850.06,-78.24 1851.19,-71.33"/>
</a>
</g>
</g>
<!-- Node29&#45;&gt;Node33 -->
<g id="edge34_Node000029_Node000033" class="edge">
<title>Node29&#45;&gt;Node33</title>
<g id="a_edge34_Node000029_Node000033"><a xlink:title=" ">
<path fill="none" stroke="#63b8ff" d="M2114.52,-114.21C2169.1,-105.85 2290.97,-87.18 2366.98,-75.54"/>
<polygon fill="#63b8ff" stroke="#63b8ff" points="2367.58,-78.99 2376.93,-74.01 2366.52,-72.07 2367.58,-78.99"/>
</a>
</g>
</g>
<!-- Node34 -->
<g id="Node000034" class="node">
<title>Node34</title>
<g id="a_Node000034"><a xlink:title=" ">
<polygon fill="#e0e0e0" stroke="#999999" points="1942.5,-74 1858.5,-74 1858.5,-55 1942.5,-55 1942.5,-74"/>
<text text-anchor="middle" x="1900.5" y="-62" font-family="Helvetica,sans-Serif" font-size="10.00">libavutil/opt.h</text>
</a>
</g>
</g>
<!-- Node29&#45;&gt;Node34 -->
<g id="edge35_Node000029_Node000034" class="edge">
<title>Node29&#45;&gt;Node34</title>
<g id="a_edge35_Node000029_Node000034"><a xlink:title=" ">
<path fill="none" stroke="#63b8ff" d="M2058.25,-110.45C2026.89,-101.52 1976.04,-87.03 1940.58,-76.92"/>
<polygon fill="#63b8ff" stroke="#63b8ff" points="1941.14,-73.44 1930.56,-74.07 1939.22,-80.17 1941.14,-73.44"/>
</a>
</g>
</g>
<!-- Node35 -->
<g id="Node000035" class="node">
<title>Node35</title>
<g id="a_Node000035"><a xlink:title=" ">
<polygon fill="#e0e0e0" stroke="#999999" points="2080,-74 1961,-74 1961,-55 2080,-55 2080,-74"/>
<text text-anchor="middle" x="2020.5" y="-62" font-family="Helvetica,sans-Serif" font-size="10.00">libswscale/swscale.h</text>
</a>
</g>
</g>
<!-- Node29&#45;&gt;Node35 -->
<g id="edge36_Node000029_Node000035" class="edge">
<title>Node29&#45;&gt;Node35</title>
<g id="a_edge36_Node000029_Node000035"><a xlink:title=" ">
<path fill="none" stroke="#63b8ff" d="M2075.9,-109.98C2066.04,-102.07 2051.15,-90.11 2039.28,-80.58"/>
<polygon fill="#63b8ff" stroke="#63b8ff" points="2041.29,-77.7 2031.3,-74.17 2036.9,-83.16 2041.29,-77.7"/>
</a>
</g>
</g>
</g>
</svg>
