<?xml version="1.0" encoding="UTF-8" standalone="no"?>
<!DOCTYPE svg PUBLIC "-//W3C//DTD SVG 1.1//EN"
 "http://www.w3.org/Graphics/SVG/1.1/DTD/svg11.dtd">
<!-- Generated by graphviz version 9.0.0 (20230911.1827)
 -->
<!-- Title: space_group Pages: 1 -->
<svg width="256pt" height="108pt"
 viewBox="0.00 0.00 255.62 108.00" xmlns="http://www.w3.org/2000/svg" xmlns:xlink="http://www.w3.org/1999/xlink">

<svg id="main" version="1.1" xmlns="http://www.w3.org/2000/svg" xmlns:xlink="http://www.w3.org/1999/xlink" xml:space="preserve" onload="init(evt)">
<style type="text/css"><![CDATA[
.node, .edge {opacity: 0.7;}
.node.selected, .edge.selected {opacity: 1;}
.edge:hover path { stroke: red; }
.edge:hover polygon { stroke: red; fill: red; }
]]></style>
<script type="application/ecmascript" xlink:href="../../svg.min.js"/>
<svg id="graph" class="graph">
<g id="graph0" class="graph" transform="scale(1 1) rotate(0) translate(4 104)">
<title>space_group</title>
<!-- Node1 -->
<g id="Node000001" class="node">
<title>Node1</title>
<g id="a_Node000001"><a xlink:title=" ">
<polygon fill="#999999" stroke="#666666" points="164.88,-20 93.38,-20 93.38,0 164.88,0 164.88,-20"/>
<text text-anchor="middle" x="129.12" y="-6.5" font-family="Helvetica,sans-Serif" font-size="10.00">space_group</text>
</a>
</g>
</g>
<!-- Node2 -->
<g id="Node000002" class="node">
<title>Node2</title>
<g id="a_Node000002"><a xlink:href="../../dc/de2/structspg__setting.html" target="_top" xlink:title=" ">
<polygon fill="white" stroke="#666666" points="66.25,-100 0,-100 0,-80 66.25,-80 66.25,-100"/>
<text text-anchor="middle" x="33.12" y="-86.5" font-family="Helvetica,sans-Serif" font-size="10.00">spg_setting</text>
</a>
</g>
</g>
<!-- Node2&#45;&gt;Node1 -->
<g id="edge1_Node000001_Node000002" class="edge">
<title>Node2&#45;&gt;Node1</title>
<g id="a_edge1_Node000001_Node000002"><a xlink:title=" ">
<path fill="none" stroke="#9a32cd" stroke-dasharray="5,2" d="M49.8,-71.94C60.25,-61.63 74.24,-48.49 87.62,-38 95.74,-31.64 105.37,-25.31 113.31,-20.38"/>
<polygon fill="#9a32cd" stroke="#9a32cd" points="47.59,-69.2 43.01,-78.75 52.55,-74.14 47.59,-69.2"/>
</a>
</g>
<text text-anchor="middle" x="106.88" y="-46.5" font-family="Helvetica,sans-Serif" font-size="10.00" fill="grey"> settings</text>
</g>
<!-- Node3 -->
<g id="Node000003" class="node">
<title>Node3</title>
<g id="a_Node000003"><a xlink:href="../../d9/d4f/structwyckoff__position.html" target="_top" xlink:title=" ">
<polygon fill="white" stroke="#666666" points="173.5,-100 84.75,-100 84.75,-80 173.5,-80 173.5,-100"/>
<text text-anchor="middle" x="129.12" y="-86.5" font-family="Helvetica,sans-Serif" font-size="10.00">wyckoff_position</text>
</a>
</g>
</g>
<!-- Node3&#45;&gt;Node1 -->
<g id="edge2_Node000001_Node000003" class="edge">
<title>Node3&#45;&gt;Node1</title>
<g id="a_edge2_Node000001_Node000003"><a xlink:title=" ">
<path fill="none" stroke="#9a32cd" stroke-dasharray="5,2" d="M129.12,-68.59C129.12,-52.94 129.12,-32.08 129.12,-20.24"/>
<polygon fill="#9a32cd" stroke="#9a32cd" points="125.63,-68.23 129.13,-78.23 132.63,-68.23 125.63,-68.23"/>
</a>
</g>
<text text-anchor="middle" x="147.5" y="-46.5" font-family="Helvetica,sans-Serif" font-size="10.00" fill="grey"> wyckoff</text>
</g>
<!-- Node4 -->
<g id="Node000004" class="node">
<title>Node4</title>
<g id="a_Node000004"><a xlink:href="../../d6/d41/unionmat4__t.html" target="_top" xlink:title=" ">
<polygon fill="white" stroke="#666666" points="237.12,-100 191.12,-100 191.12,-80 237.12,-80 237.12,-100"/>
<text text-anchor="middle" x="214.12" y="-86.5" font-family="Helvetica,sans-Serif" font-size="10.00">mat4_t</text>
</a>
</g>
</g>
<!-- Node4&#45;&gt;Node1 -->
<g id="edge3_Node000001_Node000004" class="edge">
<title>Node4&#45;&gt;Node1</title>
<g id="a_edge3_Node000001_Node000004"><a xlink:title=" ">
<path fill="none" stroke="#9a32cd" stroke-dasharray="5,2" d="M200.43,-70.74C192.25,-60.49 181.31,-47.82 170.12,-38 162.57,-31.36 153.27,-25.11 145.43,-20.29"/>
<polygon fill="#9a32cd" stroke="#9a32cd" points="197.52,-72.7 206.41,-78.46 203.05,-68.41 197.52,-72.7"/>
</a>
</g>
<text text-anchor="middle" x="219.88" y="-52.5" font-family="Helvetica,sans-Serif" font-size="10.00" fill="grey"> coord_origin</text>
<text text-anchor="middle" x="219.88" y="-40.5" font-family="Helvetica,sans-Serif" font-size="10.00" fill="grey">wyck_origin</text>
</g>
</g>
</svg>
</svg>

<style type='text/css'>
<![CDATA[
[data-mouse-over-selected='false'] { opacity: 0.7; }
[data-mouse-over-selected='true']  { opacity: 1.0; }
]]>
</style>
<script type="application/ecmascript"><![CDATA[
document.addEventListener('DOMContentLoaded', (event) => {
  highlightEdges();
  highlightAdjacentNodes();
});
]]></script>
</svg>
