<?xml version="1.0" encoding="UTF-8" standalone="no"?>
<!DOCTYPE svg PUBLIC "-//W3C//DTD SVG 1.1//EN"
 "http://www.w3.org/Graphics/SVG/1.1/DTD/svg11.dtd">
<!-- Generated by graphviz version 7.1.0 (0)
 -->
<!-- Title: opengl/edit/atom_edit.h Pages: 1 -->
<!--zoomable 82 -->

<svg id="main" version="1.1" xmlns="http://www.w3.org/2000/svg" xmlns:xlink="http://www.w3.org/1999/xlink" xml:space="preserve" onload="init(evt)">
<style type="text/css"><![CDATA[
.node, .edge {opacity: 0.7;}
.node.selected, .edge.selected {opacity: 1;}
.edge:hover path { stroke: red; }
.edge:hover polygon { stroke: red; fill: red; }
]]></style>

<defs>
  <circle id="rim" cx="0" cy="0" r="7"/>
  <circle id="rim2" cx="0" cy="0" r="3.5"/>
  <g id="zoomPlus">
    <use xlink:href="#rim" fill="#404040"><set attributeName="fill" to="#808080" begin="zoomplus.mouseover" end="zoomplus.mouseout"/></use>
    <path d="M-4,0h8M0,-4v8" fill="none" stroke="white" stroke-width="1.5" pointer-events="none"/>
  </g>
  <g id="zoomMin">
    <use xlink:href="#rim" fill="#404040"><set attributeName="fill" to="#808080" begin="zoomminus.mouseover" end="zoomminus.mouseout"/></use>
    <path d="M-4,0h8" fill="none" stroke="white" stroke-width="1.5" pointer-events="none"/>
  </g>
  <g id="arrowUp" transform="translate(30 24)">
    <use xlink:href="#rim"/>
    <path pointer-events="none" fill="none" stroke="white" stroke-width="1.5" d="M0,-3.0v7 M-2.5,-0.5L0,-3.0L2.5,-0.5"/>
  </g>
  <g id="arrowRight" transform="rotate(90) translate(36 -43)">
    <use xlink:href="#rim"/>
    <path pointer-events="none" fill="none" stroke="white" stroke-width="1.5" d="M0,-3.0v7 M-2.5,-0.5L0,-3.0L2.5,-0.5"/>
  </g>
  <g id="arrowDown" transform="rotate(180) translate(-30 -48)">
    <use xlink:href="#rim"/>
    <path pointer-events="none" fill="none" stroke="white" stroke-width="1.5" d="M0,-3.0v7 M-2.5,-0.5L0,-3.0L2.5,-0.5"/>
  </g>
  <g id="arrowLeft" transform="rotate(270) translate(-36 17)">
    <use xlink:href="#rim"/>
    <path pointer-events="none" fill="none" stroke="white" stroke-width="1.5" d="M0,-3.0v7 M-2.5,-0.5L0,-3.0L2.5,-0.5"/>
  </g>
  <g id="resetDef">
    <use xlink:href="#rim2" fill="#404040"><set attributeName="fill" to="#808080" begin="reset.mouseover" end="reset.mouseout"/></use>
  </g>
</defs>
<script type="application/ecmascript">
var viewWidth = 2565;
var viewHeight = 82;
var sectionId = 'dynsection-1';
</script>
<script type="application/ecmascript" xlink:href="../../svg.min.js"/>
<svg id="graph" class="graph">
<g id="viewport">
<title>opengl/edit/atom_edit.h</title>
<!-- Node1 -->
<g id="Node000001" class="node">
<title>Node1</title>
<g id="a_Node000001"><a xlink:title="Function declarations for the mode edition window.">
<polygon fill="#999999" stroke="#666666" points="1373,-74 1255,-74 1255,-55 1373,-55 1373,-74"/>
<text text-anchor="middle" x="1314" y="-62" font-family="Helvetica,sans-Serif" font-size="10.00">opengl/edit/atom_edit.h</text>
</a>
</g>
</g>
<!-- Node2 -->
<g id="Node000002" class="node">
<title>Node2</title>
<g id="a_Node000002"><a xlink:href="../../d3/d3a/callbacks_8c.html" target="_top" xlink:title="General callbacks &#160;&#160;Functions to open and close files.">
<polygon fill="white" stroke="#666666" points="82,-19 0,-19 0,0 82,0 82,-19"/>
<text text-anchor="middle" x="41" y="-7" font-family="Helvetica,sans-Serif" font-size="10.00">gui/callbacks.c</text>
</a>
</g>
</g>
<!-- Node1&#45;&gt;Node2 -->
<g id="edge1_Node000001_Node000002" class="edge">
<title>Node1&#45;&gt;Node2</title>
<g id="a_edge1_Node000001_Node000002"><a xlink:title=" ">
<path fill="none" stroke="#63b8ff" d="M1243.26,-64.18C1055.18,-65.29 527.29,-63.82 91,-19 88.2,-18.71 85.31,-18.36 82.41,-17.97"/>
<polygon fill="#63b8ff" stroke="#63b8ff" points="1243.14,-67.68 1253.11,-64.12 1243.09,-60.68 1243.14,-67.68"/>
</a>
</g>
</g>
<!-- Node3 -->
<g id="Node000003" class="node">
<title>Node3</title>
<g id="a_Node000003"><a xlink:href="../../d8/d15/atom__action_8c.html" target="_top" xlink:title="Functions to apply the edition actions to the model.">
<polygon fill="white" stroke="#666666" points="228,-19 100,-19 100,0 228,0 228,-19"/>
<text text-anchor="middle" x="164" y="-7" font-family="Helvetica,sans-Serif" font-size="10.00">opengl/edit/atom_action.c</text>
</a>
</g>
</g>
<!-- Node1&#45;&gt;Node3 -->
<g id="edge2_Node000001_Node000003" class="edge">
<title>Node1&#45;&gt;Node3</title>
<g id="a_edge2_Node000001_Node000003"><a xlink:title=" ">
<path fill="none" stroke="#63b8ff" d="M1243.23,-62.4C1070.86,-59.33 615.65,-48.83 237,-19 234.2,-18.78 231.35,-18.53 228.46,-18.27"/>
<polygon fill="#63b8ff" stroke="#63b8ff" points="1243.08,-65.9 1253.14,-62.58 1243.21,-58.9 1243.08,-65.9"/>
</a>
</g>
</g>
<!-- Node4 -->
<g id="Node000004" class="node">
<title>Node4</title>
<g id="a_Node000004"><a xlink:href="../../d9/dbe/atom__coord_8c.html" target="_top" xlink:title="Functions to correct the coordination menus and the corresponding data pointers after edition.">
<polygon fill="white" stroke="#666666" points="372,-19 246,-19 246,0 372,0 372,-19"/>
<text text-anchor="middle" x="309" y="-7" font-family="Helvetica,sans-Serif" font-size="10.00">opengl/edit/atom_coord.c</text>
</a>
</g>
</g>
<!-- Node1&#45;&gt;Node4 -->
<g id="edge3_Node000001_Node000004" class="edge">
<title>Node1&#45;&gt;Node4</title>
<g id="a_edge3_Node000001_Node000004"><a xlink:title=" ">
<path fill="none" stroke="#63b8ff" d="M1243.43,-61.82C1087.6,-57.73 702.44,-45.61 381,-19 378.11,-18.76 375.17,-18.5 372.19,-18.21"/>
<polygon fill="#63b8ff" stroke="#63b8ff" points="1243.09,-65.31 1253.18,-62.07 1243.27,-58.31 1243.09,-65.31"/>
</a>
</g>
</g>
<!-- Node5 -->
<g id="Node000005" class="node">
<title>Node5</title>
<g id="a_Node000005"><a xlink:href="../../dc/d6c/atom__edit_8c.html" target="_top" xlink:title="Functions to create the model edition window.">
<polygon fill="white" stroke="#666666" points="508,-19 390,-19 390,0 508,0 508,-19"/>
<text text-anchor="middle" x="449" y="-7" font-family="Helvetica,sans-Serif" font-size="10.00">opengl/edit/atom_edit.c</text>
</a>
</g>
</g>
<!-- Node1&#45;&gt;Node5 -->
<g id="edge4_Node000001_Node000005" class="edge">
<title>Node1&#45;&gt;Node5</title>
<g id="a_edge4_Node000001_Node000005"><a xlink:title=" ">
<path fill="none" stroke="#63b8ff" d="M1243.61,-61.19C1104.55,-56.27 784.82,-43.19 517,-19 514.16,-18.74 511.25,-18.46 508.31,-18.16"/>
<polygon fill="#63b8ff" stroke="#63b8ff" points="1243.28,-64.68 1253.4,-61.53 1243.52,-57.69 1243.28,-64.68"/>
</a>
</g>
</g>
<!-- Node6 -->
<g id="Node000006" class="node">
<title>Node6</title>
<g id="a_Node000006"><a xlink:href="../../d2/d4a/atom__geo_8c.html" target="_top" xlink:title="Functions to check for the appropriate atomic coordinations.">
<polygon fill="white" stroke="#666666" points="644,-19 526,-19 526,0 644,0 644,-19"/>
<text text-anchor="middle" x="585" y="-7" font-family="Helvetica,sans-Serif" font-size="10.00">opengl/edit/atom_geo.c</text>
</a>
</g>
</g>
<!-- Node1&#45;&gt;Node6 -->
<g id="edge5_Node000001_Node000006" class="edge">
<title>Node1&#45;&gt;Node6</title>
<g id="a_edge5_Node000001_Node000006"><a xlink:title=" ">
<path fill="none" stroke="#63b8ff" d="M1243.37,-60.07C1122.34,-53.9 867.61,-39.62 653,-19 650.16,-18.73 647.25,-18.43 644.32,-18.12"/>
<polygon fill="#63b8ff" stroke="#63b8ff" points="1242.98,-63.56 1253.14,-60.57 1243.33,-56.57 1242.98,-63.56"/>
</a>
</g>
</g>
<!-- Node7 -->
<g id="Node000007" class="node">
<title>Node7</title>
<g id="a_Node000007"><a xlink:href="../../dd/d0b/atom__insert_8c.html" target="_top" xlink:title="Functions to insert bond(s) in a project.">
<polygon fill="white" stroke="#666666" points="788,-19 662,-19 662,0 788,0 788,-19"/>
<text text-anchor="middle" x="725" y="-7" font-family="Helvetica,sans-Serif" font-size="10.00">opengl/edit/atom_insert.c</text>
</a>
</g>
</g>
<!-- Node1&#45;&gt;Node7 -->
<g id="edge6_Node000001_Node000007" class="edge">
<title>Node1&#45;&gt;Node7</title>
<g id="a_edge6_Node000001_Node000007"><a xlink:title=" ">
<path fill="none" stroke="#63b8ff" d="M1243.21,-58.12C1143.56,-50.38 956.27,-35.25 797,-19 794.12,-18.71 791.18,-18.4 788.2,-18.08"/>
<polygon fill="#63b8ff" stroke="#63b8ff" points="1242.88,-61.6 1253.12,-58.89 1243.42,-54.63 1242.88,-61.6"/>
</a>
</g>
</g>
<!-- Node8 -->
<g id="Node000008" class="node">
<title>Node8</title>
<g id="a_Node000008"><a xlink:href="../../d7/d27/atom__move_8c.html" target="_top" xlink:title="Functions to move atom(s) and group of atom(s) &#160;&#160;Functions to move randomly atom(s) and group of atom...">
<polygon fill="white" stroke="#666666" points="932,-19 806,-19 806,0 932,0 932,-19"/>
<text text-anchor="middle" x="869" y="-7" font-family="Helvetica,sans-Serif" font-size="10.00">opengl/edit/atom_move.c</text>
</a>
</g>
</g>
<!-- Node1&#45;&gt;Node8 -->
<g id="edge7_Node000001_Node000008" class="edge">
<title>Node1&#45;&gt;Node8</title>
<g id="a_edge7_Node000001_Node000008"><a xlink:title=" ">
<path fill="none" stroke="#63b8ff" d="M1243.73,-55.13C1158.09,-44.93 1014.64,-27.85 932.29,-18.04"/>
<polygon fill="#63b8ff" stroke="#63b8ff" points="1243.06,-58.58 1253.4,-56.28 1243.89,-51.62 1243.06,-58.58"/>
</a>
</g>
</g>
<!-- Node9 -->
<g id="Node000009" class="node">
<title>Node9</title>
<g id="a_Node000009"><a xlink:href="../../d7/d6a/atom__object_8c.html" target="_top" xlink:title="Functions to create atomic objects.">
<polygon fill="white" stroke="#666666" points="1078,-19 950,-19 950,0 1078,0 1078,-19"/>
<text text-anchor="middle" x="1014" y="-7" font-family="Helvetica,sans-Serif" font-size="10.00">opengl/edit/atom_object.c</text>
</a>
</g>
</g>
<!-- Node1&#45;&gt;Node9 -->
<g id="edge8_Node000001_Node000009" class="edge">
<title>Node1&#45;&gt;Node9</title>
<g id="a_edge8_Node000001_Node000009"><a xlink:title=" ">
<path fill="none" stroke="#63b8ff" d="M1252.04,-52.55C1196.69,-42.77 1116.58,-28.62 1064.89,-19.49"/>
<polygon fill="#63b8ff" stroke="#63b8ff" points="1251.16,-55.95 1261.62,-54.25 1252.38,-49.06 1251.16,-55.95"/>
</a>
</g>
</g>
<!-- Node10 -->
<g id="Node000010" class="node">
<title>Node10</title>
<g id="a_Node000010"><a xlink:href="../../d3/ded/atom__remove_8c.html" target="_top" xlink:title="Functions to remove bond(s) from a project &#160;&#160;Function to prepare the passivation (removal followed by...">
<polygon fill="white" stroke="#666666" points="1230,-19 1096,-19 1096,0 1230,0 1230,-19"/>
<text text-anchor="middle" x="1163" y="-7" font-family="Helvetica,sans-Serif" font-size="10.00">opengl/edit/atom_remove.c</text>
</a>
</g>
</g>
<!-- Node1&#45;&gt;Node10 -->
<g id="edge9_Node000001_Node000010" class="edge">
<title>Node1&#45;&gt;Node10</title>
<g id="a_edge9_Node000001_Node000010"><a xlink:title=" ">
<path fill="none" stroke="#63b8ff" d="M1277.6,-50.73C1250.06,-41.06 1212.92,-28.02 1188.49,-19.45"/>
<polygon fill="#63b8ff" stroke="#63b8ff" points="1276.36,-54 1286.96,-54.01 1278.68,-47.39 1276.36,-54"/>
</a>
</g>
</g>
<!-- Node11 -->
<g id="Node000011" class="node">
<title>Node11</title>
<g id="a_Node000011"><a xlink:href="../../d9/d33/atom__search_8c.html" target="_top" xlink:title="Functions to prepare the model edition &#39;search&#39; tabs and the associated widgets.">
<polygon fill="white" stroke="#666666" points="1379.5,-19 1248.5,-19 1248.5,0 1379.5,0 1379.5,-19"/>
<text text-anchor="middle" x="1314" y="-7" font-family="Helvetica,sans-Serif" font-size="10.00">opengl/edit/atom_search.c</text>
</a>
</g>
</g>
<!-- Node1&#45;&gt;Node11 -->
<g id="edge10_Node000001_Node000011" class="edge">
<title>Node1&#45;&gt;Node11</title>
<g id="a_edge10_Node000001_Node000011"><a xlink:title=" ">
<path fill="none" stroke="#63b8ff" d="M1314,-43.35C1314,-35.1 1314,-25.97 1314,-19.44"/>
<polygon fill="#63b8ff" stroke="#63b8ff" points="1310.5,-43.23 1314,-53.23 1317.5,-43.23 1310.5,-43.23"/>
</a>
</g>
</g>
<!-- Node12 -->
<g id="Node000012" class="node">
<title>Node12</title>
<g id="a_Node000012"><a xlink:href="../../dd/d37/atom__species_8c.html" target="_top" xlink:title="Functions to look for new chemical species and modify the chemical information accordingly.">
<polygon fill="white" stroke="#666666" points="1534,-19 1398,-19 1398,0 1534,0 1534,-19"/>
<text text-anchor="middle" x="1466" y="-7" font-family="Helvetica,sans-Serif" font-size="10.00">opengl/edit/atom_species.c</text>
</a>
</g>
</g>
<!-- Node1&#45;&gt;Node12 -->
<g id="edge11_Node000001_Node000012" class="edge">
<title>Node1&#45;&gt;Node12</title>
<g id="a_edge11_Node000001_Node000012"><a xlink:title=" ">
<path fill="none" stroke="#63b8ff" d="M1350.64,-50.73C1378.36,-41.06 1415.75,-28.02 1440.34,-19.45"/>
<polygon fill="#63b8ff" stroke="#63b8ff" points="1349.5,-47.41 1341.21,-54.01 1351.81,-54.02 1349.5,-47.41"/>
</a>
</g>
</g>
<!-- Node13 -->
<g id="Node000013" class="node">
<title>Node13</title>
<g id="a_Node000013"><a xlink:href="../../d2/d17/cell__cut_8c.html" target="_top" xlink:title="Functions to create the &#39;slab cutting&#39; tab of the cell edition window.">
<polygon fill="white" stroke="#666666" points="1661.5,-19 1552.5,-19 1552.5,0 1661.5,0 1661.5,-19"/>
<text text-anchor="middle" x="1607" y="-7" font-family="Helvetica,sans-Serif" font-size="10.00">opengl/edit/cell_cut.c</text>
</a>
</g>
</g>
<!-- Node1&#45;&gt;Node13 -->
<g id="edge12_Node000001_Node000013" class="edge">
<title>Node1&#45;&gt;Node13</title>
<g id="a_edge12_Node000001_Node000013"><a xlink:title=" ">
<path fill="none" stroke="#63b8ff" d="M1374.87,-52.49C1429.01,-42.7 1507.18,-28.56 1557.54,-19.45"/>
<polygon fill="#63b8ff" stroke="#63b8ff" points="1374.41,-49.02 1365.19,-54.24 1375.66,-55.9 1374.41,-49.02"/>
</a>
</g>
</g>
<!-- Node14 -->
<g id="Node000014" class="node">
<title>Node14</title>
<g id="a_Node000014"><a xlink:href="../../d8/d1c/cell__super_8c.html" target="_top" xlink:title="Functions to create a super&#45;cell using the extra cell(s)">
<polygon fill="white" stroke="#666666" points="1798.5,-19 1679.5,-19 1679.5,0 1798.5,0 1798.5,-19"/>
<text text-anchor="middle" x="1739" y="-7" font-family="Helvetica,sans-Serif" font-size="10.00">opengl/edit/cell_super.c</text>
</a>
</g>
</g>
<!-- Node1&#45;&gt;Node14 -->
<g id="edge13_Node000001_Node000014" class="edge">
<title>Node1&#45;&gt;Node14</title>
<g id="a_edge13_Node000001_Node000014"><a xlink:title=" ">
<path fill="none" stroke="#63b8ff" d="M1384.56,-54.71C1456.57,-45.74 1571.58,-31.41 1671,-19 1673.72,-18.66 1676.49,-18.31 1679.3,-17.96"/>
<polygon fill="#63b8ff" stroke="#63b8ff" points="1384.37,-51.21 1374.88,-55.92 1385.24,-58.15 1384.37,-51.21"/>
</a>
</g>
</g>
<!-- Node15 -->
<g id="Node000015" class="node">
<title>Node15</title>
<g id="a_Node000015"><a xlink:href="../../dc/d50/selection_8c.html" target="_top" xlink:title="Functions handling the atom and bond selection process in the OpenGL window.">
<polygon fill="white" stroke="#666666" points="1911.5,-19 1816.5,-19 1816.5,0 1911.5,0 1911.5,-19"/>
<text text-anchor="middle" x="1864" y="-7" font-family="Helvetica,sans-Serif" font-size="10.00">opengl/selection.c</text>
</a>
</g>
</g>
<!-- Node1&#45;&gt;Node15 -->
<g id="edge14_Node000001_Node000015" class="edge">
<title>Node1&#45;&gt;Node15</title>
<g id="a_edge14_Node000001_Node000015"><a xlink:title=" ">
<path fill="none" stroke="#63b8ff" d="M1384.74,-58.49C1480.77,-51.37 1657.67,-37.16 1808,-19 1810.64,-18.68 1813.34,-18.34 1816.07,-17.97"/>
<polygon fill="#63b8ff" stroke="#63b8ff" points="1384.66,-54.98 1374.94,-59.21 1385.17,-61.96 1384.66,-54.98"/>
</a>
</g>
</g>
<!-- Node16 -->
<g id="Node000016" class="node">
<title>Node16</title>
<g id="a_Node000016"><a xlink:href="../../db/d42/m__edit_8c.html" target="_top" xlink:title="Functions to create the &#39;Tools &#45;&gt; Edit&#39; submenu.">
<polygon fill="white" stroke="#666666" points="2034,-19 1930,-19 1930,0 2034,0 2034,-19"/>
<text text-anchor="middle" x="1982" y="-7" font-family="Helvetica,sans-Serif" font-size="10.00">opengl/win/m_edit.c</text>
</a>
</g>
</g>
<!-- Node1&#45;&gt;Node16 -->
<g id="edge15_Node000001_Node000016" class="edge">
<title>Node1&#45;&gt;Node16</title>
<g id="a_edge15_Node000001_Node000016"><a xlink:title=" ">
<path fill="none" stroke="#63b8ff" d="M1384.39,-59.84C1497.63,-53.6 1727.23,-39.58 1921,-19 1923.87,-18.7 1926.81,-18.36 1929.78,-18"/>
<polygon fill="#63b8ff" stroke="#63b8ff" points="1384.44,-56.33 1374.65,-60.37 1384.82,-63.32 1384.44,-56.33"/>
</a>
</g>
</g>
<!-- Node17 -->
<g id="Node000017" class="node">
<title>Node17</title>
<g id="a_Node000017"><a xlink:href="../../d3/d51/m__tools_8c.html" target="_top" xlink:title="Functions to create the &#39;Tools&#39; submenu.">
<polygon fill="white" stroke="#666666" points="2161.5,-19 2052.5,-19 2052.5,0 2161.5,0 2161.5,-19"/>
<text text-anchor="middle" x="2107" y="-7" font-family="Helvetica,sans-Serif" font-size="10.00">opengl/win/m_tools.c</text>
</a>
</g>
</g>
<!-- Node1&#45;&gt;Node17 -->
<g id="edge16_Node000001_Node000017" class="edge">
<title>Node1&#45;&gt;Node17</title>
<g id="a_edge16_Node000001_Node000017"><a xlink:title=" ">
<path fill="none" stroke="#63b8ff" d="M1384.53,-60.86C1514.83,-55.62 1801.96,-42.33 2043,-19 2046.01,-18.71 2049.1,-18.38 2052.22,-18.04"/>
<polygon fill="#63b8ff" stroke="#63b8ff" points="1384.54,-57.36 1374.68,-61.25 1384.81,-64.35 1384.54,-57.36"/>
</a>
</g>
</g>
<!-- Node18 -->
<g id="Node000018" class="node">
<title>Node18</title>
<g id="a_Node000018"><a xlink:href="../../d5/da4/popup_8c.html" target="_top" xlink:title="Functions to create the OpenGL window popup menus:">
<polygon fill="white" stroke="#666666" points="2280.5,-19 2179.5,-19 2179.5,0 2280.5,0 2280.5,-19"/>
<text text-anchor="middle" x="2230" y="-7" font-family="Helvetica,sans-Serif" font-size="10.00">opengl/win/popup.c</text>
</a>
</g>
</g>
<!-- Node1&#45;&gt;Node18 -->
<g id="edge17_Node000001_Node000018" class="edge">
<title>Node1&#45;&gt;Node18</title>
<g id="a_edge17_Node000001_Node000018"><a xlink:title=" ">
<path fill="none" stroke="#63b8ff" d="M1384.85,-62.01C1531.75,-58.43 1880.1,-47.45 2171,-19 2173.68,-18.74 2176.42,-18.44 2179.19,-18.12"/>
<polygon fill="#63b8ff" stroke="#63b8ff" points="1384.79,-58.51 1374.87,-62.24 1384.96,-65.5 1384.79,-58.51"/>
</a>
</g>
</g>
<!-- Node19 -->
<g id="Node000019" class="node">
<title>Node19</title>
<g id="a_Node000019"><a xlink:href="../../de/dc7/w__search_8c.html" target="_top" xlink:title="Functions to create the object search widgets, for: &#160;.">
<polygon fill="white" stroke="#666666" points="2415,-19 2299,-19 2299,0 2415,0 2415,-19"/>
<text text-anchor="middle" x="2357" y="-7" font-family="Helvetica,sans-Serif" font-size="10.00">opengl/win/w_search.c</text>
</a>
</g>
</g>
<!-- Node1&#45;&gt;Node19 -->
<g id="edge18_Node000001_Node000019" class="edge">
<title>Node1&#45;&gt;Node19</title>
<g id="a_edge18_Node000001_Node000019"><a xlink:title=" ">
<path fill="none" stroke="#63b8ff" d="M1384.39,-62.24C1545.14,-58.92 1951.47,-48.14 2290,-19 2292.8,-18.76 2295.67,-18.49 2298.56,-18.2"/>
<polygon fill="#63b8ff" stroke="#63b8ff" points="1384.69,-58.73 1374.76,-62.43 1384.83,-65.73 1384.69,-58.73"/>
</a>
</g>
</g>
<!-- Node20 -->
<g id="Node000020" class="node">
<title>Node20</title>
<g id="a_Node000020"><a xlink:href="../../d8/de9/w__volumes_8c.html" target="_top" xlink:title="Functions to create the &#39;Volumes&#39; window &#160;&#160;Functions to compute system / fragment / molecular volumes...">
<polygon fill="white" stroke="#666666" points="2557,-19 2433,-19 2433,0 2557,0 2557,-19"/>
<text text-anchor="middle" x="2495" y="-7" font-family="Helvetica,sans-Serif" font-size="10.00">opengl/win/w_volumes.c</text>
</a>
</g>
</g>
<!-- Node1&#45;&gt;Node20 -->
<g id="edge19_Node000001_Node000020" class="edge">
<title>Node1&#45;&gt;Node20</title>
<g id="a_edge19_Node000001_Node000020"><a xlink:title=" ">
<path fill="none" stroke="#63b8ff" d="M1384.77,-62.6C1560.75,-59.95 2032.2,-50.26 2424,-19 2426.85,-18.77 2429.75,-18.52 2432.69,-18.24"/>
<polygon fill="#63b8ff" stroke="#63b8ff" points="1384.82,-59.1 1374.87,-62.75 1384.92,-66.1 1384.82,-59.1"/>
</a>
</g>
</g>
</g>
</svg>

<g id="navigator" transform="translate(0 0)" fill="#404254">
  <rect fill="#f2f5e9" fill-opacity="0.5" stroke="#606060" stroke-width=".5" x="0" y="0" width="60" height="60"/>
  <use id="zoomplus" xlink:href="#zoomPlus" x="17" y="9" onmousedown="handleZoom(evt,'in')"/>
  <use id="zoomminus" xlink:href="#zoomMin" x="42" y="9" onmousedown="handleZoom(evt,'out')"/>
  <use id="reset" xlink:href="#resetDef" x="30" y="36" onmousedown="handleReset()"/>
   <use id="arrowup" xlink:href="#arrowUp" x="0" y="0" onmousedown="handlePan(0,-1)"/>
  <use id="arrowright" xlink:href="#arrowRight" x="0" y="0" onmousedown="handlePan(1,0)"/>
  <use id="arrowdown" xlink:href="#arrowDown" x="0" y="0" onmousedown="handlePan(0,1)"/>
  <use id="arrowleft" xlink:href="#arrowLeft" x="0" y="0" onmousedown="handlePan(-1,0)"/>
</g>
<svg viewBox="0 0 15 15" width="100%" height="30px" preserveAspectRatio="xMaxYMin meet">
 <g id="arrow_out" transform="scale(0.3 0.3)">
  <a xlink:href="atom__edit_8h__dep__incl_org.svg" target="_base">
   <rect id="button" ry="5" rx="5" y="6" x="6" height="38" width="38"
        fill="#f2f5e9" fill-opacity="0.5" stroke="#606060" stroke-width="1.0"/>
   <path id="arrow"
     d="M 11.500037,31.436501 C 11.940474,20.09759 22.043105,11.32322 32.158766,21.979434 L 37.068811,17.246167 C 37.068811,17.246167 37.088388,32 37.088388,32 L 22.160133,31.978069 C 22.160133,31.978069 26.997745,27.140456 26.997745,27.140456 C 18.528582,18.264221 13.291696,25.230495 11.500037,31.436501 z"
     style="fill:#404040;"/>
  </a>
 </g>
</svg>

<style type='text/css'>
<![CDATA[
[data-mouse-over-selected='false'] { opacity: 0.7; }
[data-mouse-over-selected='true']  { opacity: 1.0; }
]]>
</style>
<script type="application/ecmascript"><![CDATA[
document.addEventListener('DOMContentLoaded', (event) => {
  highlightEdges();
  highlightAdjacentNodes();
});
]]></script>
</svg>
