<?xml version="1.0" encoding="UTF-8" standalone="no"?>
<!DOCTYPE svg PUBLIC "-//W3C//DTD SVG 1.1//EN"
 "http://www.w3.org/Graphics/SVG/1.1/DTD/svg11.dtd">
<!-- Generated by graphviz version 2.43.0 (0)
 -->
<!-- Title: opengl/edit/atom_edit.h Pages: 1 -->
<svg width="3063pt" height="93pt"
 viewBox="0.00 0.00 3063.00 93.00" xmlns="http://www.w3.org/2000/svg" xmlns:xlink="http://www.w3.org/1999/xlink">
<g id="graph0" class="graph" transform="scale(1 1) rotate(0) translate(4 89)">
<title>opengl/edit/atom_edit.h</title>
<!-- Node1 -->
<g id="Node000001" class="node">
<title>Node1</title>
<g id="a_Node000001"><a xlink:title="Function declarations for the mode edition window.">
<polygon fill="#999999" stroke="#666666" points="1680,-85 1547,-85 1547,-66 1680,-66 1680,-85"/>
<text text-anchor="middle" x="1613.5" y="-73" font-family="Helvetica,sans-Serif" font-size="10.00">opengl/edit/atom_edit.h</text>
</a>
</g>
</g>
<!-- Node2 -->
<g id="Node000002" class="node">
<title>Node2</title>
<g id="a_Node000002"><a xlink:href="../../d3/d3a/callbacks_8c.html" target="_top" xlink:title="General callbacks &#160;&#160;Functions to open and close files.">
<polygon fill="white" stroke="#666666" points="89,-24.5 0,-24.5 0,-5.5 89,-5.5 89,-24.5"/>
<text text-anchor="middle" x="44.5" y="-12.5" font-family="Helvetica,sans-Serif" font-size="10.00">gui/callbacks.c</text>
</a>
</g>
</g>
<!-- Node1&#45;&gt;Node2 -->
<g id="edge1_Node000001_Node000002" class="edge">
<title>Node1&#45;&gt;Node2</title>
<g id="a_edge1_Node000001_Node000002"><a xlink:title=" ">
<path fill="none" stroke="#63b8ff" d="M1536.45,-74.57C1268.67,-74.43 379.57,-70.84 97.5,-30 89.12,-28.79 80.16,-26.72 72.03,-24.55"/>
<polygon fill="#63b8ff" stroke="#63b8ff" points="1536.84,-78.07 1546.84,-74.57 1536.84,-71.07 1536.84,-78.07"/>
</a>
</g>
</g>
<!-- Node3 -->
<g id="Node000003" class="node">
<title>Node3</title>
<g id="a_Node000003"><a xlink:href="../../d8/d15/atom__action_8c.html" target="_top" xlink:title="Functions to apply the edition actions to the model.">
<polygon fill="white" stroke="#666666" points="250,-24.5 107,-24.5 107,-5.5 250,-5.5 250,-24.5"/>
<text text-anchor="middle" x="178.5" y="-12.5" font-family="Helvetica,sans-Serif" font-size="10.00">opengl/edit/atom_action.c</text>
</a>
</g>
</g>
<!-- Node1&#45;&gt;Node3 -->
<g id="edge2_Node000001_Node000003" class="edge">
<title>Node1&#45;&gt;Node3</title>
<g id="a_edge2_Node000001_Node000003"><a xlink:title=" ">
<path fill="none" stroke="#63b8ff" d="M1536.88,-73.38C1288.95,-69.52 510.04,-55.64 259.5,-30 247.01,-28.72 233.53,-26.67 221.23,-24.52"/>
<polygon fill="#63b8ff" stroke="#63b8ff" points="1536.83,-76.88 1546.89,-73.53 1536.94,-69.88 1536.83,-76.88"/>
</a>
</g>
</g>
<!-- Node4 -->
<g id="Node000004" class="node">
<title>Node4</title>
<g id="a_Node000004"><a xlink:href="../../d9/dbe/atom__coord_8c.html" target="_top" xlink:title="Functions to correct the coordination menus and the corresponding data pointers after edition.">
<polygon fill="white" stroke="#666666" points="408.5,-24.5 268.5,-24.5 268.5,-5.5 408.5,-5.5 408.5,-24.5"/>
<text text-anchor="middle" x="338.5" y="-12.5" font-family="Helvetica,sans-Serif" font-size="10.00">opengl/edit/atom_coord.c</text>
</a>
</g>
</g>
<!-- Node1&#45;&gt;Node4 -->
<g id="edge3_Node000001_Node000004" class="edge">
<title>Node1&#45;&gt;Node4</title>
<g id="a_edge3_Node000001_Node000004"><a xlink:title=" ">
<path fill="none" stroke="#63b8ff" d="M1536.65,-73.03C1308.23,-68.44 635.73,-53.28 417.5,-30 405.45,-28.71 392.47,-26.69 380.58,-24.57"/>
<polygon fill="#63b8ff" stroke="#63b8ff" points="1536.8,-76.53 1546.87,-73.23 1536.94,-69.54 1536.8,-76.53"/>
</a>
</g>
</g>
<!-- Node5 -->
<g id="Node000005" class="node">
<title>Node5</title>
<g id="a_Node000005"><a xlink:href="../../dc/d6c/atom__edit_8c.html" target="_top" xlink:title="Functions to create the model edition window.">
<polygon fill="white" stroke="#666666" points="558.5,-24.5 426.5,-24.5 426.5,-5.5 558.5,-5.5 558.5,-24.5"/>
<text text-anchor="middle" x="492.5" y="-12.5" font-family="Helvetica,sans-Serif" font-size="10.00">opengl/edit/atom_edit.c</text>
</a>
</g>
</g>
<!-- Node1&#45;&gt;Node5 -->
<g id="edge4_Node000001_Node000005" class="edge">
<title>Node1&#45;&gt;Node5</title>
<g id="a_edge4_Node000001_Node000005"><a xlink:title=" ">
<path fill="none" stroke="#63b8ff" d="M1536.81,-74.96C1363.48,-75.17 928.49,-71.16 567.5,-30 556.05,-28.69 543.72,-26.66 532.43,-24.54"/>
<polygon fill="#63b8ff" stroke="#63b8ff" points="1536.86,-78.46 1546.86,-74.94 1536.85,-71.46 1536.86,-78.46"/>
</a>
</g>
</g>
<!-- Node6 -->
<g id="Node000006" class="node">
<title>Node6</title>
<g id="a_Node000006"><a xlink:href="../../d2/d4a/atom__geo_8c.html" target="_top" xlink:title="Functions to check for the appropriate atomic coordinations.">
<polygon fill="white" stroke="#666666" points="708,-24.5 577,-24.5 577,-5.5 708,-5.5 708,-24.5"/>
<text text-anchor="middle" x="642.5" y="-12.5" font-family="Helvetica,sans-Serif" font-size="10.00">opengl/edit/atom_geo.c</text>
</a>
</g>
</g>
<!-- Node1&#45;&gt;Node6 -->
<g id="edge5_Node000001_Node000006" class="edge">
<title>Node1&#45;&gt;Node6</title>
<g id="a_edge5_Node000001_Node000006"><a xlink:title=" ">
<path fill="none" stroke="#63b8ff" d="M1536.45,-74.24C1380.91,-72.92 1018.45,-65.88 716.5,-30 705.33,-28.67 693.32,-26.66 682.29,-24.57"/>
<polygon fill="#63b8ff" stroke="#63b8ff" points="1536.82,-77.74 1546.85,-74.32 1536.87,-70.74 1536.82,-77.74"/>
</a>
</g>
</g>
<!-- Node7 -->
<g id="Node000007" class="node">
<title>Node7</title>
<g id="a_Node000007"><a xlink:href="../../dd/d0b/atom__insert_8c.html" target="_top" xlink:title="Functions to insert bond(s) in a project.">
<polygon fill="white" stroke="#666666" points="867,-24.5 726,-24.5 726,-5.5 867,-5.5 867,-24.5"/>
<text text-anchor="middle" x="796.5" y="-12.5" font-family="Helvetica,sans-Serif" font-size="10.00">opengl/edit/atom_insert.c</text>
</a>
</g>
</g>
<!-- Node1&#45;&gt;Node7 -->
<g id="edge6_Node000001_Node000007" class="edge">
<title>Node1&#45;&gt;Node7</title>
<g id="a_edge6_Node000001_Node000007"><a xlink:title=" ">
<path fill="none" stroke="#63b8ff" d="M1536.67,-72.78C1402.23,-69.12 1115.73,-58.43 875.5,-30 863.74,-28.61 851.08,-26.6 839.42,-24.53"/>
<polygon fill="#63b8ff" stroke="#63b8ff" points="1536.78,-76.28 1546.87,-73.05 1536.96,-69.29 1536.78,-76.28"/>
</a>
</g>
</g>
<!-- Node8 -->
<g id="Node000008" class="node">
<title>Node8</title>
<g id="a_Node000008"><a xlink:href="../../d7/d27/atom__move_8c.html" target="_top" xlink:title="Functions to move atom(s) and group of atom(s) &#160;&#160;Functions to move randomly atom(s) and group of atom...">
<polygon fill="white" stroke="#666666" points="1026,-24.5 885,-24.5 885,-5.5 1026,-5.5 1026,-24.5"/>
<text text-anchor="middle" x="955.5" y="-12.5" font-family="Helvetica,sans-Serif" font-size="10.00">opengl/edit/atom_move.c</text>
</a>
</g>
</g>
<!-- Node1&#45;&gt;Node8 -->
<g id="edge7_Node000001_Node000008" class="edge">
<title>Node1&#45;&gt;Node8</title>
<g id="a_edge7_Node000001_Node000008"><a xlink:title=" ">
<path fill="none" stroke="#63b8ff" d="M1536.75,-71.02C1425.65,-65.43 1213.69,-52.71 1034.5,-30 1023.03,-28.55 1010.69,-26.56 999.26,-24.55"/>
<polygon fill="#63b8ff" stroke="#63b8ff" points="1536.69,-74.52 1546.85,-71.52 1537.04,-67.53 1536.69,-74.52"/>
</a>
</g>
</g>
<!-- Node9 -->
<g id="Node000009" class="node">
<title>Node9</title>
<g id="a_Node000009"><a xlink:href="../../d7/d6a/atom__object_8c.html" target="_top" xlink:title="Functions to create atomic objects.">
<polygon fill="white" stroke="#666666" points="1187,-24.5 1044,-24.5 1044,-5.5 1187,-5.5 1187,-24.5"/>
<text text-anchor="middle" x="1115.5" y="-12.5" font-family="Helvetica,sans-Serif" font-size="10.00">opengl/edit/atom_object.c</text>
</a>
</g>
</g>
<!-- Node1&#45;&gt;Node9 -->
<g id="edge8_Node000001_Node000009" class="edge">
<title>Node1&#45;&gt;Node9</title>
<g id="a_edge8_Node000001_Node000009"><a xlink:title=" ">
<path fill="none" stroke="#63b8ff" d="M1536.76,-67.89C1452.77,-60.29 1314.25,-46.69 1195.5,-30 1184.33,-28.43 1172.33,-26.47 1161.11,-24.53"/>
<polygon fill="#63b8ff" stroke="#63b8ff" points="1536.45,-71.38 1546.73,-68.79 1537.08,-64.4 1536.45,-71.38"/>
</a>
</g>
</g>
<!-- Node10 -->
<g id="Node000010" class="node">
<title>Node10</title>
<g id="a_Node000010"><a xlink:href="../../d3/ded/atom__remove_8c.html" target="_top" xlink:title="Functions to remove bond(s) from a project &#160;&#160;Function to prepare the passivation (removal followed by...">
<polygon fill="white" stroke="#666666" points="1356,-24.5 1205,-24.5 1205,-5.5 1356,-5.5 1356,-24.5"/>
<text text-anchor="middle" x="1280.5" y="-12.5" font-family="Helvetica,sans-Serif" font-size="10.00">opengl/edit/atom_remove.c</text>
</a>
</g>
</g>
<!-- Node1&#45;&gt;Node10 -->
<g id="edge9_Node000001_Node000010" class="edge">
<title>Node1&#45;&gt;Node10</title>
<g id="a_edge9_Node000001_Node000010"><a xlink:title=" ">
<path fill="none" stroke="#63b8ff" d="M1555.11,-64.24C1490.91,-52.96 1388.94,-35.05 1328.98,-24.52"/>
<polygon fill="#63b8ff" stroke="#63b8ff" points="1554.62,-67.71 1565.08,-65.99 1555.84,-60.82 1554.62,-67.71"/>
</a>
</g>
</g>
<!-- Node11 -->
<g id="Node000011" class="node">
<title>Node11</title>
<g id="a_Node000011"><a xlink:href="../../d9/d33/atom__search_8c.html" target="_top" xlink:title="Functions to prepare the model edition &#39;search&#39; tabs and the associated widgets.">
<polygon fill="white" stroke="#666666" points="1520.5,-24.5 1374.5,-24.5 1374.5,-5.5 1520.5,-5.5 1520.5,-24.5"/>
<text text-anchor="middle" x="1447.5" y="-12.5" font-family="Helvetica,sans-Serif" font-size="10.00">opengl/edit/atom_search.c</text>
</a>
</g>
</g>
<!-- Node1&#45;&gt;Node11 -->
<g id="edge10_Node000001_Node000011" class="edge">
<title>Node1&#45;&gt;Node11</title>
<g id="a_edge10_Node000001_Node000011"><a xlink:title=" ">
<path fill="none" stroke="#63b8ff" d="M1579.52,-62.52C1547.42,-51.21 1500.08,-34.53 1471.67,-24.52"/>
<polygon fill="#63b8ff" stroke="#63b8ff" points="1578.77,-65.97 1589.36,-65.99 1581.09,-59.37 1578.77,-65.97"/>
</a>
</g>
</g>
<!-- Node12 -->
<g id="Node000012" class="node">
<title>Node12</title>
<g id="a_Node000012"><a xlink:href="../../dd/d37/atom__species_8c.html" target="_top" xlink:title="Functions to look for new chemical species and modify the chemical information accordingly.">
<polygon fill="white" stroke="#666666" points="1688.5,-24.5 1538.5,-24.5 1538.5,-5.5 1688.5,-5.5 1688.5,-24.5"/>
<text text-anchor="middle" x="1613.5" y="-12.5" font-family="Helvetica,sans-Serif" font-size="10.00">opengl/edit/atom_species.c</text>
</a>
</g>
</g>
<!-- Node1&#45;&gt;Node12 -->
<g id="edge11_Node000001_Node000012" class="edge">
<title>Node1&#45;&gt;Node12</title>
<g id="a_edge11_Node000001_Node000012"><a xlink:title=" ">
<path fill="none" stroke="#63b8ff" d="M1613.5,-55.66C1613.5,-45.24 1613.5,-32.8 1613.5,-24.67"/>
<polygon fill="#63b8ff" stroke="#63b8ff" points="1610,-55.87 1613.5,-65.87 1617,-55.87 1610,-55.87"/>
</a>
</g>
</g>
<!-- Node13 -->
<g id="Node000013" class="node">
<title>Node13</title>
<g id="a_Node000013"><a xlink:href="../../d0/dd3/cbuild__action_8c.html" target="_top" xlink:title="Functions to build a crystal using space group, crystallographic position(s) and object(s) to insert.">
<polygon fill="white" stroke="#666666" points="1810.5,-30 1706.5,-30 1706.5,0 1810.5,0 1810.5,-30"/>
<text text-anchor="start" x="1714.5" y="-18" font-family="Helvetica,sans-Serif" font-size="10.00">opengl/edit/cbuild</text>
<text text-anchor="middle" x="1758.5" y="-7" font-family="Helvetica,sans-Serif" font-size="10.00">_action.c</text>
</a>
</g>
</g>
<!-- Node1&#45;&gt;Node13 -->
<g id="edge12_Node000001_Node000013" class="edge">
<title>Node1&#45;&gt;Node13</title>
<g id="a_edge12_Node000001_Node000013"><a xlink:title=" ">
<path fill="none" stroke="#63b8ff" d="M1643.97,-62.21C1667.24,-52.82 1699.34,-39.87 1723.64,-30.06"/>
<polygon fill="#63b8ff" stroke="#63b8ff" points="1642.55,-59.01 1634.58,-65.99 1645.17,-65.5 1642.55,-59.01"/>
</a>
</g>
</g>
<!-- Node14 -->
<g id="Node000014" class="node">
<title>Node14</title>
<g id="a_Node000014"><a xlink:href="../../d2/d17/cell__cut_8c.html" target="_top" xlink:title="Functions to create the &#39;slab cutting&#39; tab of the cell edition window.">
<polygon fill="white" stroke="#666666" points="1948.5,-24.5 1828.5,-24.5 1828.5,-5.5 1948.5,-5.5 1948.5,-24.5"/>
<text text-anchor="middle" x="1888.5" y="-12.5" font-family="Helvetica,sans-Serif" font-size="10.00">opengl/edit/cell_cut.c</text>
</a>
</g>
</g>
<!-- Node1&#45;&gt;Node14 -->
<g id="edge13_Node000001_Node000014" class="edge">
<title>Node1&#45;&gt;Node14</title>
<g id="a_edge13_Node000001_Node000014"><a xlink:title=" ">
<path fill="none" stroke="#63b8ff" d="M1663.36,-63.89C1716.46,-52.6 1799.46,-34.94 1848.46,-24.52"/>
<polygon fill="#63b8ff" stroke="#63b8ff" points="1662.54,-60.49 1653.49,-65.99 1664,-67.34 1662.54,-60.49"/>
</a>
</g>
</g>
<!-- Node15 -->
<g id="Node000015" class="node">
<title>Node15</title>
<g id="a_Node000015"><a xlink:href="../../d8/d1c/cell__super_8c.html" target="_top" xlink:title="Functions to create a super&#45;cell using the extra cell(s)">
<polygon fill="white" stroke="#666666" points="2098,-24.5 1967,-24.5 1967,-5.5 2098,-5.5 2098,-24.5"/>
<text text-anchor="middle" x="2032.5" y="-12.5" font-family="Helvetica,sans-Serif" font-size="10.00">opengl/edit/cell_super.c</text>
</a>
</g>
</g>
<!-- Node1&#45;&gt;Node15 -->
<g id="edge14_Node000001_Node000015" class="edge">
<title>Node1&#45;&gt;Node15</title>
<g id="a_edge14_Node000001_Node000015"><a xlink:title=" ">
<path fill="none" stroke="#63b8ff" d="M1690.28,-65.81C1760.11,-57.62 1865.94,-44.46 1957.5,-30 1967.71,-28.39 1978.65,-26.46 1988.95,-24.56"/>
<polygon fill="#63b8ff" stroke="#63b8ff" points="1689.77,-62.35 1680.25,-66.99 1690.59,-69.3 1689.77,-62.35"/>
</a>
</g>
</g>
<!-- Node16 -->
<g id="Node000016" class="node">
<title>Node16</title>
<g id="a_Node000016"><a xlink:href="../../dc/d50/selection_8c.html" target="_top" xlink:title="Functions handling the atom and bond selection process in the OpenGL window.">
<polygon fill="white" stroke="#666666" points="2221,-24.5 2116,-24.5 2116,-5.5 2221,-5.5 2221,-24.5"/>
<text text-anchor="middle" x="2168.5" y="-12.5" font-family="Helvetica,sans-Serif" font-size="10.00">opengl/selection.c</text>
</a>
</g>
</g>
<!-- Node1&#45;&gt;Node16 -->
<g id="edge15_Node000001_Node000016" class="edge">
<title>Node1&#45;&gt;Node16</title>
<g id="a_edge15_Node000001_Node000016"><a xlink:title=" ">
<path fill="none" stroke="#63b8ff" d="M1690.23,-70.82C1787.71,-65.41 1960.89,-53.32 2107.5,-30 2116.51,-28.57 2126.18,-26.57 2135.1,-24.53"/>
<polygon fill="#63b8ff" stroke="#63b8ff" points="1689.97,-67.33 1680.17,-71.37 1690.35,-74.32 1689.97,-67.33"/>
</a>
</g>
</g>
<!-- Node17 -->
<g id="Node000017" class="node">
<title>Node17</title>
<g id="a_Node000017"><a xlink:href="../../db/d42/m__edit_8c.html" target="_top" xlink:title="Functions to create the &#39;Tools &#45;&gt; Edit&#39; submenu.">
<polygon fill="white" stroke="#666666" points="2354,-24.5 2239,-24.5 2239,-5.5 2354,-5.5 2354,-24.5"/>
<text text-anchor="middle" x="2296.5" y="-12.5" font-family="Helvetica,sans-Serif" font-size="10.00">opengl/win/m_edit.c</text>
</a>
</g>
</g>
<!-- Node1&#45;&gt;Node17 -->
<g id="edge16_Node000001_Node000017" class="edge">
<title>Node1&#45;&gt;Node17</title>
<g id="a_edge16_Node000001_Node000017"><a xlink:title=" ">
<path fill="none" stroke="#63b8ff" d="M1690.3,-72.34C1807.36,-68.29 2037.22,-57.34 2230.5,-30 2240.36,-28.61 2250.95,-26.59 2260.69,-24.53"/>
<polygon fill="#63b8ff" stroke="#63b8ff" points="1689.89,-68.85 1680.01,-72.69 1690.13,-75.85 1689.89,-68.85"/>
</a>
</g>
</g>
<!-- Node18 -->
<g id="Node000018" class="node">
<title>Node18</title>
<g id="a_Node000018"><a xlink:href="../../d3/d51/m__tools_8c.html" target="_top" xlink:title="Functions to create the &#39;Tools&#39; submenu.">
<polygon fill="white" stroke="#666666" points="2492.5,-24.5 2372.5,-24.5 2372.5,-5.5 2492.5,-5.5 2492.5,-24.5"/>
<text text-anchor="middle" x="2432.5" y="-12.5" font-family="Helvetica,sans-Serif" font-size="10.00">opengl/win/m_tools.c</text>
</a>
</g>
</g>
<!-- Node1&#45;&gt;Node18 -->
<g id="edge17_Node000001_Node000018" class="edge">
<title>Node1&#45;&gt;Node18</title>
<g id="a_edge17_Node000001_Node000018"><a xlink:title=" ">
<path fill="none" stroke="#63b8ff" d="M1690.33,-73.51C1826.52,-70.95 2118.95,-61.9 2363.5,-30 2373.92,-28.64 2385.13,-26.61 2395.42,-24.52"/>
<polygon fill="#63b8ff" stroke="#63b8ff" points="1689.95,-70.01 1680.01,-73.69 1690.07,-77.01 1689.95,-70.01"/>
</a>
</g>
</g>
<!-- Node19 -->
<g id="Node000019" class="node">
<title>Node19</title>
<g id="a_Node000019"><a xlink:href="../../d5/da4/popup_8c.html" target="_top" xlink:title="Functions to create the OpenGL window popup menus:">
<polygon fill="white" stroke="#666666" points="2622,-24.5 2511,-24.5 2511,-5.5 2622,-5.5 2622,-24.5"/>
<text text-anchor="middle" x="2566.5" y="-12.5" font-family="Helvetica,sans-Serif" font-size="10.00">opengl/win/popup.c</text>
</a>
</g>
</g>
<!-- Node1&#45;&gt;Node19 -->
<g id="edge18_Node000001_Node000019" class="edge">
<title>Node1&#45;&gt;Node19</title>
<g id="a_edge18_Node000001_Node000019"><a xlink:title=" ">
<path fill="none" stroke="#63b8ff" d="M1690.43,-74.83C1844.88,-74.56 2203.43,-69.31 2501.5,-30 2511.46,-28.69 2522.15,-26.65 2531.94,-24.53"/>
<polygon fill="#63b8ff" stroke="#63b8ff" points="1690.11,-71.33 1680.11,-74.84 1690.12,-78.33 1690.11,-71.33"/>
</a>
</g>
</g>
<!-- Node20 -->
<g id="Node000020" class="node">
<title>Node20</title>
<g id="a_Node000020"><a xlink:href="../../de/dc7/w__search_8c.html" target="_top" xlink:title="Functions to create the object search widgets, for:">
<polygon fill="white" stroke="#666666" points="2767,-24.5 2640,-24.5 2640,-5.5 2767,-5.5 2767,-24.5"/>
<text text-anchor="middle" x="2703.5" y="-12.5" font-family="Helvetica,sans-Serif" font-size="10.00">opengl/win/w_search.c</text>
</a>
</g>
</g>
<!-- Node1&#45;&gt;Node20 -->
<g id="edge19_Node000001_Node000020" class="edge">
<title>Node1&#45;&gt;Node20</title>
<g id="a_edge19_Node000001_Node000020"><a xlink:title=" ">
<path fill="none" stroke="#63b8ff" d="M1690.29,-75.02C1860.43,-75.33 2281.8,-71.41 2631.5,-30 2642.5,-28.7 2654.34,-26.66 2665.18,-24.54"/>
<polygon fill="#63b8ff" stroke="#63b8ff" points="1690.18,-71.52 1680.18,-75 1690.17,-78.52 1690.18,-71.52"/>
</a>
</g>
</g>
<!-- Node21 -->
<g id="Node000021" class="node">
<title>Node21</title>
<g id="a_Node000021"><a xlink:href="../../d8/de9/w__volumes_8c.html" target="_top" xlink:title="Functions to create the &#39;Volumes&#39; window &#160;&#160;Functions to compute system / fragment / molecular volumes...">
<polygon fill="white" stroke="#666666" points="2922,-24.5 2785,-24.5 2785,-5.5 2922,-5.5 2922,-24.5"/>
<text text-anchor="middle" x="2853.5" y="-12.5" font-family="Helvetica,sans-Serif" font-size="10.00">opengl/win/w_volumes.c</text>
</a>
</g>
</g>
<!-- Node1&#45;&gt;Node21 -->
<g id="edge20_Node000001_Node000021" class="edge">
<title>Node1&#45;&gt;Node21</title>
<g id="a_edge20_Node000001_Node000021"><a xlink:title=" ">
<path fill="none" stroke="#63b8ff" d="M1690.18,-72.99C1914.17,-68.33 2564.96,-53.16 2776.5,-30 2788.25,-28.71 2800.91,-26.68 2812.5,-24.57"/>
<polygon fill="#63b8ff" stroke="#63b8ff" points="1690.09,-69.49 1680.16,-73.19 1690.23,-76.48 1690.09,-69.49"/>
</a>
</g>
</g>
<!-- Node22 -->
<g id="Node000022" class="node">
<title>Node22</title>
<g id="a_Node000022"><a xlink:href="../../d8/d50/read__cif_8c.html" target="_top" xlink:title="Functions to read CIF files.">
<polygon fill="white" stroke="#666666" points="3055,-30 2940,-30 2940,0 3055,0 3055,-30"/>
<text text-anchor="start" x="2948" y="-18" font-family="Helvetica,sans-Serif" font-size="10.00">project/readers/read</text>
<text text-anchor="middle" x="2997.5" y="-7" font-family="Helvetica,sans-Serif" font-size="10.00">_cif.c</text>
</a>
</g>
</g>
<!-- Node1&#45;&gt;Node22 -->
<g id="edge21_Node000001_Node000022" class="edge">
<title>Node1&#45;&gt;Node22</title>
<g id="a_edge21_Node000001_Node000022"><a xlink:title=" ">
<path fill="none" stroke="#63b8ff" d="M1690.58,-73.67C1934.7,-70.77 2688.97,-59.59 2931.5,-30 2934.17,-29.67 2936.9,-29.29 2939.65,-28.87"/>
<polygon fill="#63b8ff" stroke="#63b8ff" points="1690.34,-70.17 1680.38,-73.79 1690.42,-77.17 1690.34,-70.17"/>
</a>
</g>
</g>
</g>
</svg>
