<?xml version="1.0" encoding="UTF-8" standalone="no"?>
<!DOCTYPE svg PUBLIC "-//W3C//DTD SVG 1.1//EN"
 "http://www.w3.org/Graphics/SVG/1.1/DTD/svg11.dtd">
<!-- Generated by graphviz version 2.43.0 (0)
 -->
<!-- Title: /home/slookeur/files/codeblocks&#45;files/atomes/src/opengl/edit/atom_edit.h Pages: 1 -->
<svg width="3246pt" height="126pt"
 viewBox="0.00 0.00 3245.50 126.00" xmlns="http://www.w3.org/2000/svg" xmlns:xlink="http://www.w3.org/1999/xlink">
<g id="graph0" class="graph" transform="scale(1 1) rotate(0) translate(4 122)">
<title>/home/slookeur/files/codeblocks&#45;files/atomes/src/opengl/edit/atom_edit.h</title>
<!-- Node1 -->
<g id="Node000001" class="node">
<title>Node1</title>
<g id="a_Node000001"><a xlink:title="Function declarations for the mode edition window.">
<polygon fill="#999999" stroke="#666666" points="1748.5,-118 1595.5,-118 1595.5,-77 1748.5,-77 1748.5,-118"/>
<text text-anchor="start" x="1603.5" y="-106" font-family="Helvetica,sans-Serif" font-size="10.00">/home/slookeur/files</text>
<text text-anchor="start" x="1603.5" y="-95" font-family="Helvetica,sans-Serif" font-size="10.00">/codeblocks&#45;files/atomes</text>
<text text-anchor="middle" x="1672" y="-84" font-family="Helvetica,sans-Serif" font-size="10.00">/src/opengl/edit/atom_edit.h</text>
</a>
</g>
</g>
<!-- Node2 -->
<g id="Node000002" class="node">
<title>Node2</title>
<g id="a_Node000002"><a xlink:href="../../d3/d3a/callbacks_8c.html" target="_top" xlink:title="General callbacks &#160;&#160;Functions to open and close files.">
<polygon fill="white" stroke="#666666" points="138,-41 0,-41 0,0 138,0 138,-41"/>
<text text-anchor="start" x="8" y="-29" font-family="Helvetica,sans-Serif" font-size="10.00">/home/slookeur/files</text>
<text text-anchor="start" x="8" y="-18" font-family="Helvetica,sans-Serif" font-size="10.00">/codeblocks&#45;files/atomes</text>
<text text-anchor="middle" x="69" y="-7" font-family="Helvetica,sans-Serif" font-size="10.00">/src/gui/callbacks.c</text>
</a>
</g>
</g>
<!-- Node1&#45;&gt;Node2 -->
<g id="edge1_Node000001_Node000002" class="edge">
<title>Node1&#45;&gt;Node2</title>
<g id="a_edge1_Node000001_Node000002"><a xlink:title=" ">
<path fill="none" stroke="#63b8ff" d="M1585.4,-95.72C1305.61,-92.84 427.81,-80.77 147,-41 144.1,-40.59 141.15,-40.11 138.17,-39.59"/>
<polygon fill="#63b8ff" stroke="#63b8ff" points="1585.46,-99.22 1595.5,-95.83 1585.53,-92.22 1585.46,-99.22"/>
</a>
</g>
</g>
<!-- Node3 -->
<g id="Node000003" class="node">
<title>Node3</title>
<g id="a_Node000003"><a xlink:href="../../d8/d15/atom__action_8c.html" target="_top" xlink:title="Functions to apply the edition actions to the model.">
<polygon fill="white" stroke="#666666" points="320,-41 156,-41 156,0 320,0 320,-41"/>
<text text-anchor="start" x="164" y="-29" font-family="Helvetica,sans-Serif" font-size="10.00">/home/slookeur/files</text>
<text text-anchor="start" x="164" y="-18" font-family="Helvetica,sans-Serif" font-size="10.00">/codeblocks&#45;files/atomes</text>
<text text-anchor="middle" x="238" y="-7" font-family="Helvetica,sans-Serif" font-size="10.00">/src/opengl/edit/atom_action.c</text>
</a>
</g>
</g>
<!-- Node1&#45;&gt;Node3 -->
<g id="edge2_Node000001_Node000003" class="edge">
<title>Node1&#45;&gt;Node3</title>
<g id="a_edge2_Node000001_Node000003"><a xlink:title=" ">
<path fill="none" stroke="#63b8ff" d="M1585.39,-94.84C1328.49,-89.63 573.44,-72.01 329,-41 326.11,-40.63 323.19,-40.22 320.23,-39.78"/>
<polygon fill="#63b8ff" stroke="#63b8ff" points="1585.35,-98.34 1595.42,-95.05 1585.49,-91.35 1585.35,-98.34"/>
</a>
</g>
</g>
<!-- Node4 -->
<g id="Node000004" class="node">
<title>Node4</title>
<g id="a_Node000004"><a xlink:href="../../d9/dbe/atom__coord_8c.html" target="_top" xlink:title="Functions to correct the coordination menus and the corresponding data pointers after edition.">
<polygon fill="white" stroke="#666666" points="499.5,-41 338.5,-41 338.5,0 499.5,0 499.5,-41"/>
<text text-anchor="start" x="346.5" y="-29" font-family="Helvetica,sans-Serif" font-size="10.00">/home/slookeur/files</text>
<text text-anchor="start" x="346.5" y="-18" font-family="Helvetica,sans-Serif" font-size="10.00">/codeblocks&#45;files/atomes</text>
<text text-anchor="middle" x="419" y="-7" font-family="Helvetica,sans-Serif" font-size="10.00">/src/opengl/edit/atom_coord.c</text>
</a>
</g>
</g>
<!-- Node1&#45;&gt;Node4 -->
<g id="edge3_Node000001_Node000004" class="edge">
<title>Node1&#45;&gt;Node4</title>
<g id="a_edge3_Node000001_Node000004"><a xlink:title=" ">
<path fill="none" stroke="#63b8ff" d="M1585.29,-97.25C1391.45,-97.87 908.7,-93.47 509,-41 505.99,-40.6 502.93,-40.16 499.84,-39.68"/>
<polygon fill="#63b8ff" stroke="#63b8ff" points="1585.42,-100.75 1595.41,-97.22 1585.4,-93.75 1585.42,-100.75"/>
</a>
</g>
</g>
<!-- Node5 -->
<g id="Node000005" class="node">
<title>Node5</title>
<g id="a_Node000005"><a xlink:href="../../dc/d6c/atom__edit_8c.html" target="_top" xlink:title="Functions to create the model edition window.">
<polygon fill="white" stroke="#666666" points="670,-41 518,-41 518,0 670,0 670,-41"/>
<text text-anchor="start" x="526" y="-29" font-family="Helvetica,sans-Serif" font-size="10.00">/home/slookeur/files</text>
<text text-anchor="start" x="526" y="-18" font-family="Helvetica,sans-Serif" font-size="10.00">/codeblocks&#45;files/atomes</text>
<text text-anchor="middle" x="594" y="-7" font-family="Helvetica,sans-Serif" font-size="10.00">/src/opengl/edit/atom_edit.c</text>
</a>
</g>
</g>
<!-- Node1&#45;&gt;Node5 -->
<g id="edge4_Node000001_Node000005" class="edge">
<title>Node1&#45;&gt;Node5</title>
<g id="a_edge4_Node000001_Node000005"><a xlink:title=" ">
<path fill="none" stroke="#63b8ff" d="M1585.18,-96.58C1411.97,-95.66 1011.52,-88.09 679,-41 676.15,-40.6 673.26,-40.15 670.34,-39.66"/>
<polygon fill="#63b8ff" stroke="#63b8ff" points="1585.24,-100.08 1595.26,-96.63 1585.28,-93.08 1585.24,-100.08"/>
</a>
</g>
</g>
<!-- Node6 -->
<g id="Node000006" class="node">
<title>Node6</title>
<g id="a_Node000006"><a xlink:href="../../d2/d4a/atom__geo_8c.html" target="_top" xlink:title="Functions to check for the appropriate atomic coordinations.">
<polygon fill="white" stroke="#666666" points="840,-41 688,-41 688,0 840,0 840,-41"/>
<text text-anchor="start" x="696" y="-29" font-family="Helvetica,sans-Serif" font-size="10.00">/home/slookeur/files</text>
<text text-anchor="start" x="696" y="-18" font-family="Helvetica,sans-Serif" font-size="10.00">/codeblocks&#45;files/atomes</text>
<text text-anchor="middle" x="764" y="-7" font-family="Helvetica,sans-Serif" font-size="10.00">/src/opengl/edit/atom_geo.c</text>
</a>
</g>
</g>
<!-- Node1&#45;&gt;Node6 -->
<g id="edge5_Node000001_Node000006" class="edge">
<title>Node1&#45;&gt;Node6</title>
<g id="a_edge5_Node000001_Node000006"><a xlink:title=" ">
<path fill="none" stroke="#63b8ff" d="M1585.15,-95.15C1434.53,-91.81 1115.42,-80.29 849,-41 846.15,-40.58 843.26,-40.12 840.35,-39.61"/>
<polygon fill="#63b8ff" stroke="#63b8ff" points="1585.19,-98.65 1595.27,-95.37 1585.34,-91.65 1585.19,-98.65"/>
</a>
</g>
</g>
<!-- Node7 -->
<g id="Node000007" class="node">
<title>Node7</title>
<g id="a_Node000007"><a xlink:href="../../dd/d0b/atom__insert_8c.html" target="_top" xlink:title="Functions to insert bond(s) in a project.">
<polygon fill="white" stroke="#666666" points="1019.5,-41 858.5,-41 858.5,0 1019.5,0 1019.5,-41"/>
<text text-anchor="start" x="866.5" y="-29" font-family="Helvetica,sans-Serif" font-size="10.00">/home/slookeur/files</text>
<text text-anchor="start" x="866.5" y="-18" font-family="Helvetica,sans-Serif" font-size="10.00">/codeblocks&#45;files/atomes</text>
<text text-anchor="middle" x="939" y="-7" font-family="Helvetica,sans-Serif" font-size="10.00">/src/opengl/edit/atom_insert.c</text>
</a>
</g>
</g>
<!-- Node1&#45;&gt;Node7 -->
<g id="edge6_Node000001_Node000007" class="edge">
<title>Node1&#45;&gt;Node7</title>
<g id="a_edge6_Node000001_Node000007"><a xlink:title=" ">
<path fill="none" stroke="#63b8ff" d="M1585.08,-92.59C1460.96,-86.2 1226.02,-71.1 1028,-41 1025.34,-40.6 1022.64,-40.16 1019.92,-39.7"/>
<polygon fill="#63b8ff" stroke="#63b8ff" points="1585.12,-96.1 1595.29,-93.11 1585.48,-89.11 1585.12,-96.1"/>
</a>
</g>
</g>
<!-- Node8 -->
<g id="Node000008" class="node">
<title>Node8</title>
<g id="a_Node000008"><a xlink:href="../../d7/d27/atom__move_8c.html" target="_top" xlink:title="Functions to move atom(s) and group of atom(s) &#160;&#160;Functions to move randomly atom(s) and group of atom...">
<polygon fill="white" stroke="#666666" points="1198.5,-41 1037.5,-41 1037.5,0 1198.5,0 1198.5,-41"/>
<text text-anchor="start" x="1045.5" y="-29" font-family="Helvetica,sans-Serif" font-size="10.00">/home/slookeur/files</text>
<text text-anchor="start" x="1045.5" y="-18" font-family="Helvetica,sans-Serif" font-size="10.00">/codeblocks&#45;files/atomes</text>
<text text-anchor="middle" x="1118" y="-7" font-family="Helvetica,sans-Serif" font-size="10.00">/src/opengl/edit/atom_move.c</text>
</a>
</g>
</g>
<!-- Node1&#45;&gt;Node8 -->
<g id="edge7_Node000001_Node000008" class="edge">
<title>Node1&#45;&gt;Node8</title>
<g id="a_edge7_Node000001_Node000008"><a xlink:title=" ">
<path fill="none" stroke="#63b8ff" d="M1585.35,-88.6C1491.88,-79.51 1338.85,-62.95 1208,-41 1205,-40.5 1201.96,-39.96 1198.88,-39.4"/>
<polygon fill="#63b8ff" stroke="#63b8ff" points="1585.04,-92.09 1595.33,-89.57 1585.71,-85.12 1585.04,-92.09"/>
</a>
</g>
</g>
<!-- Node9 -->
<g id="Node000009" class="node">
<title>Node9</title>
<g id="a_Node000009"><a xlink:href="../../d7/d6a/atom__object_8c.html" target="_top" xlink:title="Functions to create atomic objects.">
<polygon fill="white" stroke="#666666" points="1381,-41 1217,-41 1217,0 1381,0 1381,-41"/>
<text text-anchor="start" x="1225" y="-29" font-family="Helvetica,sans-Serif" font-size="10.00">/home/slookeur/files</text>
<text text-anchor="start" x="1225" y="-18" font-family="Helvetica,sans-Serif" font-size="10.00">/codeblocks&#45;files/atomes</text>
<text text-anchor="middle" x="1299" y="-7" font-family="Helvetica,sans-Serif" font-size="10.00">/src/opengl/edit/atom_object.c</text>
</a>
</g>
</g>
<!-- Node1&#45;&gt;Node9 -->
<g id="edge8_Node000001_Node000009" class="edge">
<title>Node1&#45;&gt;Node9</title>
<g id="a_edge8_Node000001_Node000009"><a xlink:title=" ">
<path fill="none" stroke="#63b8ff" d="M1585.48,-79.86C1529.64,-69.03 1455.47,-54.46 1390,-41 1387.15,-40.41 1384.25,-39.81 1381.33,-39.21"/>
<polygon fill="#63b8ff" stroke="#63b8ff" points="1584.85,-83.3 1595.33,-81.77 1586.18,-76.43 1584.85,-83.3"/>
</a>
</g>
</g>
<!-- Node10 -->
<g id="Node000010" class="node">
<title>Node10</title>
<g id="a_Node000010"><a xlink:href="../../d3/ded/atom__remove_8c.html" target="_top" xlink:title="Functions to remove bond(s) from a project &#160;&#160;Function to prepare the passivation (removal followed by...">
<polygon fill="white" stroke="#666666" points="1570.5,-41 1399.5,-41 1399.5,0 1570.5,0 1570.5,-41"/>
<text text-anchor="start" x="1407.5" y="-29" font-family="Helvetica,sans-Serif" font-size="10.00">/home/slookeur/files</text>
<text text-anchor="start" x="1407.5" y="-18" font-family="Helvetica,sans-Serif" font-size="10.00">/codeblocks&#45;files/atomes</text>
<text text-anchor="middle" x="1485" y="-7" font-family="Helvetica,sans-Serif" font-size="10.00">/src/opengl/edit/atom_remove.c</text>
</a>
</g>
</g>
<!-- Node1&#45;&gt;Node10 -->
<g id="edge9_Node000001_Node000010" class="edge">
<title>Node1&#45;&gt;Node10</title>
<g id="a_edge9_Node000001_Node000010"><a xlink:title=" ">
<path fill="none" stroke="#63b8ff" d="M1614.07,-73.27C1588.31,-62.94 1558.31,-50.9 1533.72,-41.04"/>
<polygon fill="#63b8ff" stroke="#63b8ff" points="1612.77,-76.52 1623.36,-76.99 1615.38,-70.02 1612.77,-76.52"/>
</a>
</g>
</g>
<!-- Node11 -->
<g id="Node000011" class="node">
<title>Node11</title>
<g id="a_Node000011"><a xlink:href="../../d9/d33/atom__search_8c.html" target="_top" xlink:title="Functions to prepare the model edition &#39;search&#39; tabs and the associated widgets.">
<polygon fill="white" stroke="#666666" points="1755,-41 1589,-41 1589,0 1755,0 1755,-41"/>
<text text-anchor="start" x="1597" y="-29" font-family="Helvetica,sans-Serif" font-size="10.00">/home/slookeur/files</text>
<text text-anchor="start" x="1597" y="-18" font-family="Helvetica,sans-Serif" font-size="10.00">/codeblocks&#45;files/atomes</text>
<text text-anchor="middle" x="1672" y="-7" font-family="Helvetica,sans-Serif" font-size="10.00">/src/opengl/edit/atom_search.c</text>
</a>
</g>
</g>
<!-- Node1&#45;&gt;Node11 -->
<g id="edge10_Node000001_Node000011" class="edge">
<title>Node1&#45;&gt;Node11</title>
<g id="a_edge10_Node000001_Node000011"><a xlink:title=" ">
<path fill="none" stroke="#63b8ff" d="M1672,-66.69C1672,-58.08 1672,-48.9 1672,-41.07"/>
<polygon fill="#63b8ff" stroke="#63b8ff" points="1668.5,-66.79 1672,-76.79 1675.5,-66.79 1668.5,-66.79"/>
</a>
</g>
</g>
<!-- Node12 -->
<g id="Node000012" class="node">
<title>Node12</title>
<g id="a_Node000012"><a xlink:href="../../dd/d37/atom__species_8c.html" target="_top" xlink:title="Functions to look for new chemical species and modify the chemical information accordingly.">
<polygon fill="white" stroke="#666666" points="1943,-41 1773,-41 1773,0 1943,0 1943,-41"/>
<text text-anchor="start" x="1781" y="-29" font-family="Helvetica,sans-Serif" font-size="10.00">/home/slookeur/files</text>
<text text-anchor="start" x="1781" y="-18" font-family="Helvetica,sans-Serif" font-size="10.00">/codeblocks&#45;files/atomes</text>
<text text-anchor="middle" x="1858" y="-7" font-family="Helvetica,sans-Serif" font-size="10.00">/src/opengl/edit/atom_species.c</text>
</a>
</g>
</g>
<!-- Node1&#45;&gt;Node12 -->
<g id="edge11_Node000001_Node000012" class="edge">
<title>Node1&#45;&gt;Node12</title>
<g id="a_edge11_Node000001_Node000012"><a xlink:title=" ">
<path fill="none" stroke="#63b8ff" d="M1729.95,-73.13C1755.5,-62.83 1785.19,-50.86 1809.54,-41.04"/>
<polygon fill="#63b8ff" stroke="#63b8ff" points="1728.35,-70 1720.38,-76.99 1730.97,-76.5 1728.35,-70"/>
</a>
</g>
</g>
<!-- Node13 -->
<g id="Node000013" class="node">
<title>Node13</title>
<g id="a_Node000013"><a xlink:href="../../d2/d17/cell__cut_8c.html" target="_top" xlink:title="Functions to create the &#39;slab cutting&#39; tab of the cell edition window.">
<polygon fill="white" stroke="#666666" points="2101,-41 1961,-41 1961,0 2101,0 2101,-41"/>
<text text-anchor="start" x="1969" y="-29" font-family="Helvetica,sans-Serif" font-size="10.00">/home/slookeur/files</text>
<text text-anchor="start" x="1969" y="-18" font-family="Helvetica,sans-Serif" font-size="10.00">/codeblocks&#45;files/atomes</text>
<text text-anchor="middle" x="2031" y="-7" font-family="Helvetica,sans-Serif" font-size="10.00">/src/opengl/edit/cell_cut.c</text>
</a>
</g>
</g>
<!-- Node1&#45;&gt;Node13 -->
<g id="edge12_Node000001_Node000013" class="edge">
<title>Node1&#45;&gt;Node13</title>
<g id="a_edge12_Node000001_Node000013"><a xlink:title=" ">
<path fill="none" stroke="#63b8ff" d="M1758.69,-80.39C1814.11,-69.83 1887.45,-55.36 1952,-41 1954.9,-40.36 1957.85,-39.69 1960.83,-39"/>
<polygon fill="#63b8ff" stroke="#63b8ff" points="1757.73,-77.01 1748.56,-82.32 1759.03,-83.89 1757.73,-77.01"/>
</a>
</g>
</g>
<!-- Node14 -->
<g id="Node000014" class="node">
<title>Node14</title>
<g id="a_Node000014"><a xlink:href="../../d8/d1c/cell__super_8c.html" target="_top" xlink:title="Functions to create a super&#45;cell using the extra cell(s)">
<polygon fill="white" stroke="#666666" points="2271,-41 2119,-41 2119,0 2271,0 2271,-41"/>
<text text-anchor="start" x="2127" y="-29" font-family="Helvetica,sans-Serif" font-size="10.00">/home/slookeur/files</text>
<text text-anchor="start" x="2127" y="-18" font-family="Helvetica,sans-Serif" font-size="10.00">/codeblocks&#45;files/atomes</text>
<text text-anchor="middle" x="2195" y="-7" font-family="Helvetica,sans-Serif" font-size="10.00">/src/opengl/edit/cell_super.c</text>
</a>
</g>
</g>
<!-- Node1&#45;&gt;Node14 -->
<g id="edge13_Node000001_Node000014" class="edge">
<title>Node1&#45;&gt;Node14</title>
<g id="a_edge13_Node000001_Node000014"><a xlink:title=" ">
<path fill="none" stroke="#63b8ff" d="M1758.71,-88.08C1847.35,-78.88 1988.83,-62.52 2110,-41 2112.83,-40.5 2115.71,-39.96 2118.62,-39.4"/>
<polygon fill="#63b8ff" stroke="#63b8ff" points="1758.29,-84.61 1748.7,-89.12 1759.01,-91.57 1758.29,-84.61"/>
</a>
</g>
</g>
<!-- Node15 -->
<g id="Node000015" class="node">
<title>Node15</title>
<g id="a_Node000015"><a xlink:href="../../dc/d50/selection_8c.html" target="_top" xlink:title="Functions handling the atom and bond selection process in the OpenGL window.">
<polygon fill="white" stroke="#666666" points="2427,-41 2289,-41 2289,0 2427,0 2427,-41"/>
<text text-anchor="start" x="2297" y="-29" font-family="Helvetica,sans-Serif" font-size="10.00">/home/slookeur/files</text>
<text text-anchor="start" x="2297" y="-18" font-family="Helvetica,sans-Serif" font-size="10.00">/codeblocks&#45;files/atomes</text>
<text text-anchor="middle" x="2358" y="-7" font-family="Helvetica,sans-Serif" font-size="10.00">/src/opengl/selection.c</text>
</a>
</g>
</g>
<!-- Node1&#45;&gt;Node15 -->
<g id="edge14_Node000001_Node000015" class="edge">
<title>Node1&#45;&gt;Node15</title>
<g id="a_edge14_Node000001_Node000015"><a xlink:title=" ">
<path fill="none" stroke="#63b8ff" d="M1758.9,-92.78C1877.38,-86.75 2095.95,-72.21 2280,-41 2282.89,-40.51 2285.83,-39.97 2288.79,-39.39"/>
<polygon fill="#63b8ff" stroke="#63b8ff" points="1758.61,-89.29 1748.79,-93.28 1758.96,-96.28 1758.61,-89.29"/>
</a>
</g>
</g>
<!-- Node16 -->
<g id="Node000016" class="node">
<title>Node16</title>
<g id="a_Node000016"><a xlink:href="../../db/d42/m__edit_8c.html" target="_top" xlink:title="Functions to create the &#39;Tools &#45;&gt; Edit&#39; submenu.">
<polygon fill="white" stroke="#666666" points="2583,-41 2445,-41 2445,0 2583,0 2583,-41"/>
<text text-anchor="start" x="2453" y="-29" font-family="Helvetica,sans-Serif" font-size="10.00">/home/slookeur/files</text>
<text text-anchor="start" x="2453" y="-18" font-family="Helvetica,sans-Serif" font-size="10.00">/codeblocks&#45;files/atomes</text>
<text text-anchor="middle" x="2514" y="-7" font-family="Helvetica,sans-Serif" font-size="10.00">/src/opengl/win/m_edit.c</text>
</a>
</g>
</g>
<!-- Node1&#45;&gt;Node16 -->
<g id="edge15_Node000001_Node000016" class="edge">
<title>Node1&#45;&gt;Node16</title>
<g id="a_edge15_Node000001_Node000016"><a xlink:title=" ">
<path fill="none" stroke="#63b8ff" d="M1759.09,-95.05C1901.51,-91.59 2192.75,-79.94 2436,-41 2438.89,-40.54 2441.84,-40.02 2444.81,-39.46"/>
<polygon fill="#63b8ff" stroke="#63b8ff" points="1758.6,-91.56 1748.68,-95.29 1758.76,-98.56 1758.6,-91.56"/>
</a>
</g>
</g>
<!-- Node17 -->
<g id="Node000017" class="node">
<title>Node17</title>
<g id="a_Node000017"><a xlink:href="../../d3/d51/m__tools_8c.html" target="_top" xlink:title="Functions to create the &#39;Tools&#39; submenu.">
<polygon fill="white" stroke="#666666" points="2741,-41 2601,-41 2601,0 2741,0 2741,-41"/>
<text text-anchor="start" x="2609" y="-29" font-family="Helvetica,sans-Serif" font-size="10.00">/home/slookeur/files</text>
<text text-anchor="start" x="2609" y="-18" font-family="Helvetica,sans-Serif" font-size="10.00">/codeblocks&#45;files/atomes</text>
<text text-anchor="middle" x="2671" y="-7" font-family="Helvetica,sans-Serif" font-size="10.00">/src/opengl/win/m_tools.c</text>
</a>
</g>
</g>
<!-- Node1&#45;&gt;Node17 -->
<g id="edge16_Node000001_Node000017" class="edge">
<title>Node1&#45;&gt;Node17</title>
<g id="a_edge16_Node000001_Node000017"><a xlink:title=" ">
<path fill="none" stroke="#63b8ff" d="M1758.54,-96.5C1922.25,-95.35 2288.11,-87.28 2592,-41 2594.93,-40.55 2597.92,-40.05 2600.92,-39.5"/>
<polygon fill="#63b8ff" stroke="#63b8ff" points="1758.5,-93 1748.52,-96.57 1758.55,-100 1758.5,-93"/>
</a>
</g>
</g>
<!-- Node18 -->
<g id="Node000018" class="node">
<title>Node18</title>
<g id="a_Node000018"><a xlink:href="../../d5/da4/popup_8c.html" target="_top" xlink:title="Functions to create the OpenGL window popup menus:">
<polygon fill="white" stroke="#666666" points="2897,-41 2759,-41 2759,0 2897,0 2897,-41"/>
<text text-anchor="start" x="2767" y="-29" font-family="Helvetica,sans-Serif" font-size="10.00">/home/slookeur/files</text>
<text text-anchor="start" x="2767" y="-18" font-family="Helvetica,sans-Serif" font-size="10.00">/codeblocks&#45;files/atomes</text>
<text text-anchor="middle" x="2828" y="-7" font-family="Helvetica,sans-Serif" font-size="10.00">/src/opengl/win/popup.c</text>
</a>
</g>
</g>
<!-- Node1&#45;&gt;Node18 -->
<g id="edge17_Node000001_Node000018" class="edge">
<title>Node1&#45;&gt;Node18</title>
<g id="a_edge17_Node000001_Node000018"><a xlink:title=" ">
<path fill="none" stroke="#63b8ff" d="M1759.1,-94.19C1980.29,-87.98 2559.57,-69.43 2750,-41 2752.9,-40.57 2755.85,-40.07 2758.82,-39.53"/>
<polygon fill="#63b8ff" stroke="#63b8ff" points="1758.74,-90.7 1748.84,-94.48 1758.94,-97.7 1758.74,-90.7"/>
</a>
</g>
</g>
<!-- Node19 -->
<g id="Node000019" class="node">
<title>Node19</title>
<g id="a_Node000019"><a xlink:href="../../de/dc7/w__search_8c.html" target="_top" xlink:title="Functions to create the object search widgets, for:">
<polygon fill="white" stroke="#666666" points="3062.5,-41 2915.5,-41 2915.5,0 3062.5,0 3062.5,-41"/>
<text text-anchor="start" x="2923.5" y="-29" font-family="Helvetica,sans-Serif" font-size="10.00">/home/slookeur/files</text>
<text text-anchor="start" x="2923.5" y="-18" font-family="Helvetica,sans-Serif" font-size="10.00">/codeblocks&#45;files/atomes</text>
<text text-anchor="middle" x="2989" y="-7" font-family="Helvetica,sans-Serif" font-size="10.00">/src/opengl/win/w_search.c</text>
</a>
</g>
</g>
<!-- Node1&#45;&gt;Node19 -->
<g id="edge18_Node000001_Node000019" class="edge">
<title>Node1&#45;&gt;Node19</title>
<g id="a_edge18_Node000001_Node000019"><a xlink:title=" ">
<path fill="none" stroke="#63b8ff" d="M1759.07,-94.69C2002.02,-89.3 2684.02,-71.79 2906,-41 2909.08,-40.57 2912.21,-40.08 2915.37,-39.55"/>
<polygon fill="#63b8ff" stroke="#63b8ff" points="1758.8,-91.19 1748.88,-94.91 1758.95,-98.19 1758.8,-91.19"/>
</a>
</g>
</g>
<!-- Node20 -->
<g id="Node000020" class="node">
<title>Node20</title>
<g id="a_Node000020"><a xlink:href="../../d8/de9/w__volumes_8c.html" target="_top" xlink:title="Functions to create the &#39;Volumes&#39; window &#160;&#160;Functions to compute system / fragment / molecular volumes...">
<polygon fill="white" stroke="#666666" points="3237.5,-41 3080.5,-41 3080.5,0 3237.5,0 3237.5,-41"/>
<text text-anchor="start" x="3088.5" y="-29" font-family="Helvetica,sans-Serif" font-size="10.00">/home/slookeur/files</text>
<text text-anchor="start" x="3088.5" y="-18" font-family="Helvetica,sans-Serif" font-size="10.00">/codeblocks&#45;files/atomes</text>
<text text-anchor="middle" x="3159" y="-7" font-family="Helvetica,sans-Serif" font-size="10.00">/src/opengl/win/w_volumes.c</text>
</a>
</g>
</g>
<!-- Node1&#45;&gt;Node20 -->
<g id="edge19_Node000001_Node000020" class="edge">
<title>Node1&#45;&gt;Node20</title>
<g id="a_edge19_Node000001_Node000020"><a xlink:title=" ">
<path fill="none" stroke="#63b8ff" d="M1759.04,-95.11C2023.69,-90.56 2816.29,-74.45 3072,-41 3074.76,-40.64 3077.57,-40.23 3080.39,-39.79"/>
<polygon fill="#63b8ff" stroke="#63b8ff" points="1758.66,-91.62 1748.72,-95.29 1758.78,-98.62 1758.66,-91.62"/>
</a>
</g>
</g>
</g>
</svg>
