<?xml version="1.0" encoding="UTF-8" standalone="no"?>
<!DOCTYPE svg PUBLIC "-//W3C//DTD SVG 1.1//EN"
 "http://www.w3.org/Graphics/SVG/1.1/DTD/svg11.dtd">
<!-- Generated by graphviz version 9.0.0 (20230911.1827)
 -->
<!-- Title: opengl/edit/atom_edit.h Pages: 1 -->
<svg width="2785pt" height="96pt"
 viewBox="0.00 0.00 2784.75 96.00" xmlns="http://www.w3.org/2000/svg" xmlns:xlink="http://www.w3.org/1999/xlink">
<g id="graph0" class="graph" transform="scale(1 1) rotate(0) translate(4 92)">
<title>opengl/edit/atom_edit.h</title>
<!-- Node1 -->
<g id="Node000001" class="node">
<title>Node1</title>
<g id="a_Node000001"><a xlink:title="Function declarations for the mode edition window.">
<polygon fill="#999999" stroke="#666666" points="1519.25,-88 1402,-88 1402,-68 1519.25,-68 1519.25,-88"/>
<text text-anchor="middle" x="1460.62" y="-74.5" font-family="Helvetica,sans-Serif" font-size="10.00">opengl/edit/atom_edit.h</text>
</a>
</g>
</g>
<!-- Node2 -->
<g id="Node000002" class="node">
<title>Node2</title>
<g id="a_Node000002"><a xlink:href="../../d3/d3a/callbacks_8c.html" target="_top" xlink:title="General callbacks &#160;&#160;Functions to open and close files.">
<polygon fill="white" stroke="#666666" points="81.25,-26 0,-26 0,-6 81.25,-6 81.25,-26"/>
<text text-anchor="middle" x="40.62" y="-12.5" font-family="Helvetica,sans-Serif" font-size="10.00">gui/callbacks.c</text>
</a>
</g>
</g>
<!-- Node1&#45;&gt;Node2 -->
<g id="edge1_Node000001_Node000002" class="edge">
<title>Node1&#45;&gt;Node2</title>
<g id="a_edge1_Node000001_Node000002"><a xlink:title=" ">
<path fill="none" stroke="#63b8ff" d="M1390.02,-77.09C1146.76,-77.01 344.51,-73.53 90.62,-32 83.02,-30.76 74.96,-28.68 67.57,-26.47"/>
<polygon fill="#63b8ff" stroke="#63b8ff" points="1390,-80.59 1400,-77.09 1390,-73.59 1390,-80.59"/>
</a>
</g>
</g>
<!-- Node3 -->
<g id="Node000003" class="node">
<title>Node3</title>
<g id="a_Node000003"><a xlink:href="../../d8/d15/atom__action_8c.html" target="_top" xlink:title="Functions to apply the edition actions to the model.">
<polygon fill="white" stroke="#666666" points="227.5,-26 99.75,-26 99.75,-6 227.5,-6 227.5,-26"/>
<text text-anchor="middle" x="163.62" y="-12.5" font-family="Helvetica,sans-Serif" font-size="10.00">opengl/edit/atom_action.c</text>
</a>
</g>
</g>
<!-- Node1&#45;&gt;Node3 -->
<g id="edge2_Node000001_Node000003" class="edge">
<title>Node1&#45;&gt;Node3</title>
<g id="a_edge2_Node000001_Node000003"><a xlink:title=" ">
<path fill="none" stroke="#63b8ff" d="M1390.54,-75.95C1165.45,-72.35 462.43,-59.16 236.62,-32 225.83,-30.7 214.27,-28.64 203.59,-26.46"/>
<polygon fill="#63b8ff" stroke="#63b8ff" points="1390.28,-79.45 1400.33,-76.11 1390.39,-72.45 1390.28,-79.45"/>
</a>
</g>
</g>
<!-- Node4 -->
<g id="Node000004" class="node">
<title>Node4</title>
<g id="a_Node000004"><a xlink:href="../../d9/dbe/atom__coord_8c.html" target="_top" xlink:title="Functions to correct the coordination menus and the corresponding data pointers after edition.">
<polygon fill="white" stroke="#666666" points="371.38,-26 245.88,-26 245.88,-6 371.38,-6 371.38,-26"/>
<text text-anchor="middle" x="308.62" y="-12.5" font-family="Helvetica,sans-Serif" font-size="10.00">opengl/edit/atom_coord.c</text>
</a>
</g>
</g>
<!-- Node1&#45;&gt;Node4 -->
<g id="edge3_Node000001_Node000004" class="edge">
<title>Node1&#45;&gt;Node4</title>
<g id="a_edge3_Node000001_Node000004"><a xlink:title=" ">
<path fill="none" stroke="#63b8ff" d="M1390.42,-75.61C1183.17,-71.25 576.26,-56.69 379.62,-32 369.12,-30.68 357.87,-28.61 347.49,-26.43"/>
<polygon fill="#63b8ff" stroke="#63b8ff" points="1390.16,-79.1 1400.23,-75.81 1390.3,-72.1 1390.16,-79.1"/>
</a>
</g>
</g>
<!-- Node5 -->
<g id="Node000005" class="node">
<title>Node5</title>
<g id="a_Node000005"><a xlink:href="../../dc/d6c/atom__edit_8c.html" target="_top" xlink:title="Functions to create the model edition window.">
<polygon fill="white" stroke="#666666" points="506.25,-26 389,-26 389,-6 506.25,-6 506.25,-26"/>
<text text-anchor="middle" x="447.62" y="-12.5" font-family="Helvetica,sans-Serif" font-size="10.00">opengl/edit/atom_edit.c</text>
</a>
</g>
</g>
<!-- Node1&#45;&gt;Node5 -->
<g id="edge4_Node000001_Node000005" class="edge">
<title>Node1&#45;&gt;Node5</title>
<g id="a_edge4_Node000001_Node000005"><a xlink:title=" ">
<path fill="none" stroke="#63b8ff" d="M1390.25,-77.79C1232.66,-78.66 839.72,-75.79 514.62,-32 504.82,-30.68 494.33,-28.64 484.63,-26.48"/>
<polygon fill="#63b8ff" stroke="#63b8ff" points="1390.14,-81.29 1400.12,-77.73 1390.1,-74.29 1390.14,-81.29"/>
</a>
</g>
</g>
<!-- Node6 -->
<g id="Node000006" class="node">
<title>Node6</title>
<g id="a_Node000006"><a xlink:href="../../d2/d4a/atom__geo_8c.html" target="_top" xlink:title="Functions to check for the appropriate atomic coordinations.">
<polygon fill="white" stroke="#666666" points="641.25,-26 524,-26 524,-6 641.25,-6 641.25,-26"/>
<text text-anchor="middle" x="582.62" y="-12.5" font-family="Helvetica,sans-Serif" font-size="10.00">opengl/edit/atom_geo.c</text>
</a>
</g>
</g>
<!-- Node1&#45;&gt;Node6 -->
<g id="edge5_Node000001_Node000006" class="edge">
<title>Node1&#45;&gt;Node6</title>
<g id="a_edge5_Node000001_Node000006"><a xlink:title=" ">
<path fill="none" stroke="#63b8ff" d="M1390.07,-76.98C1248.81,-76.09 921.51,-69.72 649.62,-32 639.83,-30.64 629.34,-28.59 619.64,-26.43"/>
<polygon fill="#63b8ff" stroke="#63b8ff" points="1390,-80.48 1400.02,-77.04 1390.04,-73.48 1390,-80.48"/>
</a>
</g>
</g>
<!-- Node7 -->
<g id="Node000007" class="node">
<title>Node7</title>
<g id="a_Node000007"><a xlink:href="../../dd/d0b/atom__insert_8c.html" target="_top" xlink:title="Functions to insert bond(s) in a project.">
<polygon fill="white" stroke="#666666" points="784.38,-26 658.88,-26 658.88,-6 784.38,-6 784.38,-26"/>
<text text-anchor="middle" x="721.62" y="-12.5" font-family="Helvetica,sans-Serif" font-size="10.00">opengl/edit/atom_insert.c</text>
</a>
</g>
</g>
<!-- Node1&#45;&gt;Node7 -->
<g id="edge6_Node000001_Node000007" class="edge">
<title>Node1&#45;&gt;Node7</title>
<g id="a_edge6_Node000001_Node000007"><a xlink:title=" ">
<path fill="none" stroke="#63b8ff" d="M1390.55,-75.45C1268.68,-72.05 1010,-61.69 793.62,-32 783.38,-30.59 772.41,-28.58 762.2,-26.47"/>
<polygon fill="#63b8ff" stroke="#63b8ff" points="1390.31,-78.95 1400.4,-75.72 1390.5,-71.95 1390.31,-78.95"/>
</a>
</g>
</g>
<!-- Node8 -->
<g id="Node000008" class="node">
<title>Node8</title>
<g id="a_Node000008"><a xlink:href="../../d7/d27/atom__move_8c.html" target="_top" xlink:title="Functions to move atom(s) and group of atom(s) &#160;&#160;Functions to move randomly atom(s) and group of atom...">
<polygon fill="white" stroke="#666666" points="928.38,-26 802.88,-26 802.88,-6 928.38,-6 928.38,-26"/>
<text text-anchor="middle" x="865.62" y="-12.5" font-family="Helvetica,sans-Serif" font-size="10.00">opengl/edit/atom_move.c</text>
</a>
</g>
</g>
<!-- Node1&#45;&gt;Node8 -->
<g id="edge7_Node000001_Node000008" class="edge">
<title>Node1&#45;&gt;Node8</title>
<g id="a_edge7_Node000001_Node000008"><a xlink:title=" ">
<path fill="none" stroke="#63b8ff" d="M1390.3,-73.62C1289.6,-68.19 1098.68,-55.62 937.62,-32 927.64,-30.54 916.97,-28.55 906.97,-26.5"/>
<polygon fill="#63b8ff" stroke="#63b8ff" points="1389.85,-77.11 1400.02,-74.14 1390.22,-70.12 1389.85,-77.11"/>
</a>
</g>
</g>
<!-- Node9 -->
<g id="Node000009" class="node">
<title>Node9</title>
<g id="a_Node000009"><a xlink:href="../../d7/d6a/atom__object_8c.html" target="_top" xlink:title="Functions to create atomic objects.">
<polygon fill="white" stroke="#666666" points="1074.5,-26 946.75,-26 946.75,-6 1074.5,-6 1074.5,-26"/>
<text text-anchor="middle" x="1010.62" y="-12.5" font-family="Helvetica,sans-Serif" font-size="10.00">opengl/edit/atom_object.c</text>
</a>
</g>
</g>
<!-- Node1&#45;&gt;Node9 -->
<g id="edge8_Node000001_Node000009" class="edge">
<title>Node1&#45;&gt;Node9</title>
<g id="a_edge8_Node000001_Node000009"><a xlink:title=" ">
<path fill="none" stroke="#63b8ff" d="M1390.34,-70.39C1314.44,-62.84 1190.07,-49.26 1083.62,-32 1073.92,-30.43 1063.54,-28.46 1053.75,-26.48"/>
<polygon fill="#63b8ff" stroke="#63b8ff" points="1389.84,-73.86 1400.13,-71.36 1390.53,-66.89 1389.84,-73.86"/>
</a>
</g>
</g>
<!-- Node10 -->
<g id="Node000010" class="node">
<title>Node10</title>
<g id="a_Node000010"><a xlink:href="../../d3/ded/atom__remove_8c.html" target="_top" xlink:title="Functions to remove bond(s) from a project &#160;&#160;Function to prepare the passivation (removal followed by...">
<polygon fill="white" stroke="#666666" points="1226.5,-26 1092.75,-26 1092.75,-6 1226.5,-6 1226.5,-26"/>
<text text-anchor="middle" x="1159.62" y="-12.5" font-family="Helvetica,sans-Serif" font-size="10.00">opengl/edit/atom_remove.c</text>
</a>
</g>
</g>
<!-- Node1&#45;&gt;Node10 -->
<g id="edge9_Node000001_Node000010" class="edge">
<title>Node1&#45;&gt;Node10</title>
<g id="a_edge9_Node000001_Node000010"><a xlink:title=" ">
<path fill="none" stroke="#63b8ff" d="M1402.29,-65.37C1345.45,-54.04 1260.07,-37.02 1207.21,-26.48"/>
<polygon fill="#63b8ff" stroke="#63b8ff" points="1401.29,-68.74 1411.78,-67.26 1402.66,-61.88 1401.29,-68.74"/>
</a>
</g>
</g>
<!-- Node11 -->
<g id="Node000011" class="node">
<title>Node11</title>
<g id="a_Node000011"><a xlink:href="../../d9/d33/atom__search_8c.html" target="_top" xlink:title="Functions to prepare the model edition &#39;search&#39; tabs and the associated widgets.">
<polygon fill="white" stroke="#666666" points="1375,-26 1244.25,-26 1244.25,-6 1375,-6 1375,-26"/>
<text text-anchor="middle" x="1309.62" y="-12.5" font-family="Helvetica,sans-Serif" font-size="10.00">opengl/edit/atom_search.c</text>
</a>
</g>
</g>
<!-- Node1&#45;&gt;Node11 -->
<g id="edge10_Node000001_Node000011" class="edge">
<title>Node1&#45;&gt;Node11</title>
<g id="a_edge10_Node000001_Node000011"><a xlink:title=" ">
<path fill="none" stroke="#63b8ff" d="M1426.34,-63.38C1397.83,-52.05 1358.03,-36.23 1333.05,-26.31"/>
<polygon fill="#63b8ff" stroke="#63b8ff" points="1425.04,-66.63 1435.62,-67.07 1427.62,-60.12 1425.04,-66.63"/>
</a>
</g>
</g>
<!-- Node12 -->
<g id="Node000012" class="node">
<title>Node12</title>
<g id="a_Node000012"><a xlink:href="../../dd/d37/atom__species_8c.html" target="_top" xlink:title="Functions to look for new chemical species and modify the chemical information accordingly.">
<polygon fill="white" stroke="#666666" points="1528.25,-26 1393,-26 1393,-6 1528.25,-6 1528.25,-26"/>
<text text-anchor="middle" x="1460.62" y="-12.5" font-family="Helvetica,sans-Serif" font-size="10.00">opengl/edit/atom_species.c</text>
</a>
</g>
</g>
<!-- Node1&#45;&gt;Node12 -->
<g id="edge11_Node000001_Node000012" class="edge">
<title>Node1&#45;&gt;Node12</title>
<g id="a_edge11_Node000001_Node000012"><a xlink:title=" ">
<path fill="none" stroke="#63b8ff" d="M1460.62,-56.25C1460.62,-45.97 1460.62,-34.09 1460.62,-26.11"/>
<polygon fill="#63b8ff" stroke="#63b8ff" points="1457.13,-56.11 1460.63,-66.11 1464.13,-56.11 1457.13,-56.11"/>
</a>
</g>
</g>
<!-- Node13 -->
<g id="Node000013" class="node">
<title>Node13</title>
<g id="a_Node000013"><a xlink:href="../../d0/dd3/cbuild__action_8c.html" target="_top" xlink:title="Functions to build a crystal using space group, crystallographic position(s) and object(s) to insert.">
<polygon fill="white" stroke="#666666" points="1638.5,-32 1546.75,-32 1546.75,0 1638.5,0 1638.5,-32"/>
<text text-anchor="start" x="1554.75" y="-18.5" font-family="Helvetica,sans-Serif" font-size="10.00">opengl/edit/cbuild</text>
<text text-anchor="middle" x="1592.62" y="-6.5" font-family="Helvetica,sans-Serif" font-size="10.00">_action.c</text>
</a>
</g>
</g>
<!-- Node1&#45;&gt;Node13 -->
<g id="edge12_Node000001_Node000013" class="edge">
<title>Node1&#45;&gt;Node13</title>
<g id="a_edge12_Node000001_Node000013"><a xlink:title=" ">
<path fill="none" stroke="#63b8ff" d="M1491.71,-62.87C1511.78,-53.75 1537.91,-41.87 1558.55,-32.49"/>
<polygon fill="#63b8ff" stroke="#63b8ff" points="1490.28,-59.67 1482.63,-67 1493.18,-66.05 1490.28,-59.67"/>
</a>
</g>
</g>
<!-- Node14 -->
<g id="Node000014" class="node">
<title>Node14</title>
<g id="a_Node000014"><a xlink:href="../../d2/d17/cell__cut_8c.html" target="_top" xlink:title="Functions to create the &#39;slab cutting&#39; tab of the cell edition window.">
<polygon fill="white" stroke="#666666" points="1764.75,-26 1656.5,-26 1656.5,-6 1764.75,-6 1764.75,-26"/>
<text text-anchor="middle" x="1710.62" y="-12.5" font-family="Helvetica,sans-Serif" font-size="10.00">opengl/edit/cell_cut.c</text>
</a>
</g>
</g>
<!-- Node1&#45;&gt;Node14 -->
<g id="edge13_Node000001_Node000014" class="edge">
<title>Node1&#45;&gt;Node14</title>
<g id="a_edge13_Node000001_Node000014"><a xlink:title=" ">
<path fill="none" stroke="#63b8ff" d="M1511.16,-64.87C1558.35,-53.55 1627.84,-36.87 1671.1,-26.48"/>
<polygon fill="#63b8ff" stroke="#63b8ff" points="1510.34,-61.47 1501.43,-67.21 1511.97,-68.28 1510.34,-61.47"/>
</a>
</g>
</g>
<!-- Node15 -->
<g id="Node000015" class="node">
<title>Node15</title>
<g id="a_Node000015"><a xlink:href="../../d8/d1c/cell__super_8c.html" target="_top" xlink:title="Functions to create a super&#45;cell using the extra cell(s)">
<polygon fill="white" stroke="#666666" points="1902,-26 1783.25,-26 1783.25,-6 1902,-6 1902,-26"/>
<text text-anchor="middle" x="1842.62" y="-12.5" font-family="Helvetica,sans-Serif" font-size="10.00">opengl/edit/cell_super.c</text>
</a>
</g>
</g>
<!-- Node1&#45;&gt;Node15 -->
<g id="edge14_Node000001_Node000015" class="edge">
<title>Node1&#45;&gt;Node15</title>
<g id="a_edge14_Node000001_Node000015"><a xlink:title=" ">
<path fill="none" stroke="#63b8ff" d="M1530.76,-68.37C1594.35,-60.2 1690.55,-46.98 1773.62,-32 1782.67,-30.37 1792.34,-28.41 1801.49,-26.44"/>
<polygon fill="#63b8ff" stroke="#63b8ff" points="1530.65,-64.86 1521.17,-69.59 1531.53,-71.8 1530.65,-64.86"/>
</a>
</g>
</g>
<!-- Node16 -->
<g id="Node000016" class="node">
<title>Node16</title>
<g id="a_Node000016"><a xlink:href="../../dc/d50/selection_8c.html" target="_top" xlink:title="Functions handling the atom and bond selection process in the OpenGL window.">
<polygon fill="white" stroke="#666666" points="2015,-26 1920.25,-26 1920.25,-6 2015,-6 2015,-26"/>
<text text-anchor="middle" x="1967.62" y="-12.5" font-family="Helvetica,sans-Serif" font-size="10.00">opengl/selection.c</text>
</a>
</g>
</g>
<!-- Node1&#45;&gt;Node16 -->
<g id="edge15_Node000001_Node000016" class="edge">
<title>Node1&#45;&gt;Node16</title>
<g id="a_edge15_Node000001_Node000016"><a xlink:title=" ">
<path fill="none" stroke="#63b8ff" d="M1530.94,-73.41C1619.9,-68.08 1777.57,-56.01 1910.62,-32 1918.68,-30.55 1927.27,-28.54 1935.27,-26.46"/>
<polygon fill="#63b8ff" stroke="#63b8ff" points="1530.93,-69.9 1521.16,-73.98 1531.34,-76.89 1530.93,-69.9"/>
</a>
</g>
</g>
<!-- Node17 -->
<g id="Node000017" class="node">
<title>Node17</title>
<g id="a_Node000017"><a xlink:href="../../db/d42/m__edit_8c.html" target="_top" xlink:title="Functions to create the &#39;Tools &#45;&gt; Edit&#39; submenu.">
<polygon fill="white" stroke="#666666" points="2136.12,-26 2033.12,-26 2033.12,-6 2136.12,-6 2136.12,-26"/>
<text text-anchor="middle" x="2084.62" y="-12.5" font-family="Helvetica,sans-Serif" font-size="10.00">opengl/win/m_edit.c</text>
</a>
</g>
</g>
<!-- Node1&#45;&gt;Node17 -->
<g id="edge16_Node000001_Node000017" class="edge">
<title>Node1&#45;&gt;Node17</title>
<g id="a_edge16_Node000001_Node000017"><a xlink:title=" ">
<path fill="none" stroke="#63b8ff" d="M1530.62,-75.03C1637.51,-71.21 1847.58,-60.49 2023.62,-32 2032.35,-30.59 2041.65,-28.57 2050.31,-26.47"/>
<polygon fill="#63b8ff" stroke="#63b8ff" points="1530.74,-71.53 1520.87,-75.37 1530.98,-78.52 1530.74,-71.53"/>
</a>
</g>
</g>
<!-- Node18 -->
<g id="Node000018" class="node">
<title>Node18</title>
<g id="a_Node000018"><a xlink:href="../../d3/d51/m__tools_8c.html" target="_top" xlink:title="Functions to create the &#39;Tools&#39; submenu.">
<polygon fill="white" stroke="#666666" points="2262.75,-26 2154.5,-26 2154.5,-6 2262.75,-6 2262.75,-26"/>
<text text-anchor="middle" x="2208.62" y="-12.5" font-family="Helvetica,sans-Serif" font-size="10.00">opengl/win/m_tools.c</text>
</a>
</g>
</g>
<!-- Node1&#45;&gt;Node18 -->
<g id="edge17_Node000001_Node000018" class="edge">
<title>Node1&#45;&gt;Node18</title>
<g id="a_edge17_Node000001_Node000018"><a xlink:title=" ">
<path fill="none" stroke="#63b8ff" d="M1530.87,-76.27C1655.4,-74.12 1922.78,-65.6 2145.62,-32 2154.74,-30.63 2164.48,-28.59 2173.51,-26.46"/>
<polygon fill="#63b8ff" stroke="#63b8ff" points="1531.08,-72.77 1521.14,-76.43 1531.19,-79.77 1531.08,-72.77"/>
</a>
</g>
</g>
<!-- Node19 -->
<g id="Node000019" class="node">
<title>Node19</title>
<g id="a_Node000019"><a xlink:href="../../d5/da4/popup_8c.html" target="_top" xlink:title="Functions to create the OpenGL window popup menus:">
<polygon fill="white" stroke="#666666" points="2380.62,-26 2280.62,-26 2280.62,-6 2380.62,-6 2380.62,-26"/>
<text text-anchor="middle" x="2330.62" y="-12.5" font-family="Helvetica,sans-Serif" font-size="10.00">opengl/win/popup.c</text>
</a>
</g>
</g>
<!-- Node1&#45;&gt;Node19 -->
<g id="edge18_Node000001_Node000019" class="edge">
<title>Node1&#45;&gt;Node19</title>
<g id="a_edge18_Node000001_Node000019"><a xlink:title=" ">
<path fill="none" stroke="#63b8ff" d="M1531.01,-77.65C1672.3,-77.97 2000.14,-73.64 2271.62,-32 2280.3,-30.67 2289.55,-28.63 2298.09,-26.47"/>
<polygon fill="#63b8ff" stroke="#63b8ff" points="1531.07,-74.16 1521.06,-77.62 1531.05,-81.16 1531.07,-74.16"/>
</a>
</g>
</g>
<!-- Node20 -->
<g id="Node000020" class="node">
<title>Node20</title>
<g id="a_Node000020"><a xlink:href="../../de/dc7/w__search_8c.html" target="_top" xlink:title="Functions to create the object search widgets, for:">
<polygon fill="white" stroke="#666666" points="2514.5,-26 2398.75,-26 2398.75,-6 2514.5,-6 2514.5,-26"/>
<text text-anchor="middle" x="2456.62" y="-12.5" font-family="Helvetica,sans-Serif" font-size="10.00">opengl/win/w_search.c</text>
</a>
</g>
</g>
<!-- Node1&#45;&gt;Node20 -->
<g id="edge19_Node000001_Node000020" class="edge">
<title>Node1&#45;&gt;Node20</title>
<g id="a_edge19_Node000001_Node000020"><a xlink:title=" ">
<path fill="none" stroke="#63b8ff" d="M1530.88,-77.7C1686.38,-78.36 2071.16,-75.04 2389.62,-32 2399.43,-30.68 2409.92,-28.63 2419.62,-26.48"/>
<polygon fill="#63b8ff" stroke="#63b8ff" points="1531.17,-74.2 1521.15,-77.65 1531.13,-81.2 1531.17,-74.2"/>
</a>
</g>
</g>
<!-- Node21 -->
<g id="Node000021" class="node">
<title>Node21</title>
<g id="a_Node000021"><a xlink:href="../../d8/de9/w__volumes_8c.html" target="_top" xlink:title="Functions to create the &#39;Volumes&#39; window &#160;&#160;Functions to compute system / fragment / molecular volumes...">
<polygon fill="white" stroke="#666666" points="2656.25,-26 2533,-26 2533,-6 2656.25,-6 2656.25,-26"/>
<text text-anchor="middle" x="2594.62" y="-12.5" font-family="Helvetica,sans-Serif" font-size="10.00">opengl/win/w_volumes.c</text>
</a>
</g>
</g>
<!-- Node1&#45;&gt;Node21 -->
<g id="edge20_Node000001_Node000021" class="edge">
<title>Node1&#45;&gt;Node21</title>
<g id="a_edge20_Node000001_Node000021"><a xlink:title=" ">
<path fill="none" stroke="#63b8ff" d="M1531.04,-75.54C1736.13,-71.06 2330.7,-56.29 2523.62,-32 2534.12,-30.68 2545.38,-28.61 2555.76,-26.42"/>
<polygon fill="#63b8ff" stroke="#63b8ff" points="1530.97,-72.05 1521.05,-75.76 1531.13,-79.04 1530.97,-72.05"/>
</a>
</g>
</g>
<!-- Node22 -->
<g id="Node000022" class="node">
<title>Node22</title>
<g id="a_Node000022"><a xlink:href="../../d8/d50/read__cif_8c.html" target="_top" xlink:title="Functions to read CIF files.">
<polygon fill="white" stroke="#666666" points="2776.75,-32 2674.5,-32 2674.5,0 2776.75,0 2776.75,-32"/>
<text text-anchor="start" x="2682.5" y="-18.5" font-family="Helvetica,sans-Serif" font-size="10.00">project/readers/read</text>
<text text-anchor="middle" x="2725.62" y="-6.5" font-family="Helvetica,sans-Serif" font-size="10.00">_cif.c</text>
</a>
</g>
</g>
<!-- Node1&#45;&gt;Node22 -->
<g id="edge21_Node000001_Node000022" class="edge">
<title>Node1&#45;&gt;Node22</title>
<g id="a_edge21_Node000001_Node000022"><a xlink:title=" ">
<path fill="none" stroke="#63b8ff" d="M1530.82,-76.29C1753.81,-73.74 2444.33,-63.45 2665.62,-32 2668.39,-31.61 2671.21,-31.14 2674.05,-30.62"/>
<polygon fill="#63b8ff" stroke="#63b8ff" points="1531.09,-72.79 1521.13,-76.4 1531.17,-79.79 1531.09,-72.79"/>
</a>
</g>
</g>
</g>
</svg>
