<?xml version="1.0" encoding="UTF-8" standalone="no"?>
<!DOCTYPE svg PUBLIC "-//W3C//DTD SVG 1.1//EN"
 "http://www.w3.org/Graphics/SVG/1.1/DTD/svg11.dtd">
<!-- Generated by graphviz version 2.43.0 (0)
 -->
<!-- Title: /home/slookeur/files/codeblocks&#45;files/atomes/src/opengl/win/m_edit.c Pages: 1 -->
<!--zoomable 269 -->

<svg id="main" version="1.1" xmlns="http://www.w3.org/2000/svg" xmlns:xlink="http://www.w3.org/1999/xlink" xml:space="preserve" onload="init(evt)">
<style type="text/css"><![CDATA[
.node, .edge {opacity: 0.7;}
.node.selected, .edge.selected {opacity: 1;}
.edge:hover path { stroke: red; }
.edge:hover polygon { stroke: red; fill: red; }
]]></style>

<defs>
  <circle id="rim" cx="0" cy="0" r="7"/>
  <circle id="rim2" cx="0" cy="0" r="3.5"/>
  <g id="zoomPlus">
    <use xlink:href="#rim" fill="#404040"><set attributeName="fill" to="#808080" begin="zoomplus.mouseover" end="zoomplus.mouseout"/></use>
    <path d="M-4,0h8M0,-4v8" fill="none" stroke="white" stroke-width="1.5" pointer-events="none"/>
  </g>
  <g id="zoomMin">
    <use xlink:href="#rim" fill="#404040"><set attributeName="fill" to="#808080" begin="zoomminus.mouseover" end="zoomminus.mouseout"/></use>
    <path d="M-4,0h8" fill="none" stroke="white" stroke-width="1.5" pointer-events="none"/>
  </g>
  <g id="arrowUp" transform="translate(30 24)">
    <use xlink:href="#rim"/>
    <path pointer-events="none" fill="none" stroke="white" stroke-width="1.5" d="M0,-3.0v7 M-2.5,-0.5L0,-3.0L2.5,-0.5"/>
  </g>
  <g id="arrowRight" transform="rotate(90) translate(36 -43)">
    <use xlink:href="#rim"/>
    <path pointer-events="none" fill="none" stroke="white" stroke-width="1.5" d="M0,-3.0v7 M-2.5,-0.5L0,-3.0L2.5,-0.5"/>
  </g>
  <g id="arrowDown" transform="rotate(180) translate(-30 -48)">
    <use xlink:href="#rim"/>
    <path pointer-events="none" fill="none" stroke="white" stroke-width="1.5" d="M0,-3.0v7 M-2.5,-0.5L0,-3.0L2.5,-0.5"/>
  </g>
  <g id="arrowLeft" transform="rotate(270) translate(-36 17)">
    <use xlink:href="#rim"/>
    <path pointer-events="none" fill="none" stroke="white" stroke-width="1.5" d="M0,-3.0v7 M-2.5,-0.5L0,-3.0L2.5,-0.5"/>
  </g>
  <g id="resetDef">
    <use xlink:href="#rim2" fill="#404040"><set attributeName="fill" to="#808080" begin="reset.mouseover" end="reset.mouseout"/></use>
  </g>
</defs>
<script type="application/ecmascript">
var viewWidth = 1735;
var viewHeight = 269;
var sectionId = 'dynsection-0';
</script>
<script type="application/ecmascript" xlink:href="../../svg.min.js"/>
<svg id="graph" class="graph">
<g id="viewport">
<title>/home/slookeur/files/codeblocks&#45;files/atomes/src/opengl/win/m_edit.c</title>
<!-- Node1 -->
<g id="Node000001" class="node">
<title>Node1</title>
<g id="a_Node000001"><a xlink:title="Functions to create the &#39;Tools &#45;&gt; Edit&#39; submenu.">
<polygon fill="#999999" stroke="#666666" points="506,-261 368,-261 368,-220 506,-220 506,-261"/>
<text text-anchor="start" x="376" y="-249" font-family="Helvetica,sans-Serif" font-size="10.00">/home/slookeur/files</text>
<text text-anchor="start" x="376" y="-238" font-family="Helvetica,sans-Serif" font-size="10.00">/codeblocks&#45;files/atomes</text>
<text text-anchor="middle" x="437" y="-227" font-family="Helvetica,sans-Serif" font-size="10.00">/src/opengl/win/m_edit.c</text>
</a>
</g>
</g>
<!-- Node2 -->
<g id="Node000002" class="node">
<title>Node2</title>
<g id="a_Node000002"><a xlink:href="../../d9/d97/cell__edit_8h.html" target="_top" xlink:title="Function declarations for the cell edition window.">
<polygon fill="white" stroke="#666666" points="426.5,-184 359.5,-184 359.5,-165 426.5,-165 426.5,-184"/>
<text text-anchor="middle" x="393" y="-172" font-family="Helvetica,sans-Serif" font-size="10.00">cell_edit.h</text>
</a>
</g>
</g>
<!-- Node1&#45;&gt;Node2 -->
<g id="edge1_Node000001_Node000002" class="edge">
<title>Node1&#45;&gt;Node2</title>
<g id="a_edge1_Node000001_Node000002"><a xlink:title=" ">
<path fill="none" stroke="#63b8ff" d="M423.56,-219.95C417.55,-211.2 410.52,-200.99 404.73,-192.56"/>
<polygon fill="#63b8ff" stroke="#63b8ff" points="407.57,-190.52 399.02,-184.26 401.8,-194.48 407.57,-190.52"/>
</a>
</g>
</g>
<!-- Node33 -->
<g id="Node000033" class="node">
<title>Node33</title>
<g id="a_Node000033"><a xlink:href="../../d5/d9c/atom__edit_8h.html" target="_top" xlink:title="Function declarations for the mode edition window.">
<polygon fill="white" stroke="#666666" points="519.5,-184 444.5,-184 444.5,-165 519.5,-165 519.5,-184"/>
<text text-anchor="middle" x="482" y="-172" font-family="Helvetica,sans-Serif" font-size="10.00">atom_edit.h</text>
</a>
</g>
</g>
<!-- Node1&#45;&gt;Node33 -->
<g id="edge34_Node000001_Node000033" class="edge">
<title>Node1&#45;&gt;Node33</title>
<g id="a_edge34_Node000001_Node000033"><a xlink:title=" ">
<path fill="none" stroke="#63b8ff" d="M450.75,-219.95C456.9,-211.2 464.08,-200.99 470.01,-192.56"/>
<polygon fill="#63b8ff" stroke="#63b8ff" points="472.95,-194.45 475.84,-184.26 467.23,-190.43 472.95,-194.45"/>
</a>
</g>
</g>
<!-- Node3 -->
<g id="Node000003" class="node">
<title>Node3</title>
<g id="a_Node000003"><a xlink:href="../../d2/d49/global_8h.html" target="_top" xlink:title="Global variable declarations &#160;&#160;Global convenience function declarations &#160;&#160;Global data structure defin...">
<polygon fill="white" stroke="#666666" points="758,-129 702,-129 702,-110 758,-110 758,-129"/>
<text text-anchor="middle" x="730" y="-117" font-family="Helvetica,sans-Serif" font-size="10.00">global.h</text>
</a>
</g>
</g>
<!-- Node2&#45;&gt;Node3 -->
<g id="edge2_Node000002_Node000003" class="edge">
<title>Node2&#45;&gt;Node3</title>
<g id="a_edge2_Node000002_Node000003"><a xlink:title=" ">
<path fill="none" stroke="#63b8ff" d="M426.77,-166.64C429.89,-166.06 433,-165.51 436,-165 546.51,-146.35 577.82,-149.72 691.61,-129.11"/>
<polygon fill="#63b8ff" stroke="#63b8ff" points="692.57,-132.5 701.77,-127.25 691.3,-125.61 692.57,-132.5"/>
</a>
</g>
</g>
<!-- Node26 -->
<g id="Node000026" class="node">
<title>Node26</title>
<g id="a_Node000026"><a xlink:href="../../da/dc2/bind_8h.html" target="_top" xlink:title="Binding to the Fortran90 subroutines.">
<polygon fill="white" stroke="#666666" points="169.5,-129 122.5,-129 122.5,-110 169.5,-110 169.5,-129"/>
<text text-anchor="middle" x="146" y="-117" font-family="Helvetica,sans-Serif" font-size="10.00">bind.h</text>
</a>
</g>
</g>
<!-- Node2&#45;&gt;Node26 -->
<g id="edge27_Node000002_Node000026" class="edge">
<title>Node2&#45;&gt;Node26</title>
<g id="a_edge27_Node000002_Node000026"><a xlink:title=" ">
<path fill="none" stroke="#63b8ff" d="M359.36,-167.14C318.92,-159.36 248.78,-145.45 179.88,-129.35"/>
<polygon fill="#63b8ff" stroke="#63b8ff" points="180.26,-125.85 169.73,-126.96 178.66,-132.66 180.26,-125.85"/>
</a>
</g>
</g>
<!-- Node27 -->
<g id="Node000027" class="node">
<title>Node27</title>
<g id="a_Node000027"><a xlink:href="../../dd/d49/callbacks_8h.html" target="_top" xlink:title="Callback declarations for main window.">
<polygon fill="white" stroke="#666666" points="258.5,-129 187.5,-129 187.5,-110 258.5,-110 258.5,-129"/>
<text text-anchor="middle" x="223" y="-117" font-family="Helvetica,sans-Serif" font-size="10.00">callbacks.h</text>
</a>
</g>
</g>
<!-- Node2&#45;&gt;Node27 -->
<g id="edge28_Node000002_Node000027" class="edge">
<title>Node2&#45;&gt;Node27</title>
<g id="a_edge28_Node000002_Node000027"><a xlink:title=" ">
<path fill="none" stroke="#63b8ff" d="M365.69,-164.98C337.15,-156.09 292.17,-142.07 260.36,-132.15"/>
<polygon fill="#63b8ff" stroke="#63b8ff" points="261.12,-128.72 250.53,-129.08 259.03,-135.4 261.12,-128.72"/>
</a>
</g>
</g>
<!-- Node28 -->
<g id="Node000028" class="node">
<title>Node28</title>
<g id="a_Node000028"><a xlink:href="../../d4/da9/interface_8h.html" target="_top" xlink:title="Messaging function declarations.">
<polygon fill="white" stroke="#666666" points="345.5,-129 276.5,-129 276.5,-110 345.5,-110 345.5,-129"/>
<text text-anchor="middle" x="311" y="-117" font-family="Helvetica,sans-Serif" font-size="10.00">interface.h</text>
</a>
</g>
</g>
<!-- Node2&#45;&gt;Node28 -->
<g id="edge29_Node000002_Node000028" class="edge">
<title>Node2&#45;&gt;Node28</title>
<g id="a_edge29_Node000002_Node000028"><a xlink:title=" ">
<path fill="none" stroke="#63b8ff" d="M379.83,-164.98C367.23,-156.84 348,-144.41 333.06,-134.76"/>
<polygon fill="#63b8ff" stroke="#63b8ff" points="334.71,-131.66 324.41,-129.17 330.91,-137.54 334.71,-131.66"/>
</a>
</g>
</g>
<!-- Node29 -->
<g id="Node000029" class="node">
<title>Node29</title>
<g id="a_Node000029"><a xlink:href="../../dc/d8d/project_8h.html" target="_top" xlink:title="Function declarations for reading atomes project file &#160;&#160;Function declarations for saving atomes proje...">
<polygon fill="white" stroke="#666666" points="422.5,-129 363.5,-129 363.5,-110 422.5,-110 422.5,-129"/>
<text text-anchor="middle" x="393" y="-117" font-family="Helvetica,sans-Serif" font-size="10.00">project.h</text>
</a>
</g>
</g>
<!-- Node2&#45;&gt;Node29 -->
<g id="edge30_Node000002_Node000029" class="edge">
<title>Node2&#45;&gt;Node29</title>
<g id="a_edge30_Node000002_Node000029"><a xlink:title=" ">
<path fill="none" stroke="#63b8ff" d="M393,-164.75C393,-157.8 393,-147.85 393,-139.13"/>
<polygon fill="#63b8ff" stroke="#63b8ff" points="396.5,-139.09 393,-129.09 389.5,-139.09 396.5,-139.09"/>
</a>
</g>
</g>
<!-- Node30 -->
<g id="Node000030" class="node">
<title>Node30</title>
<g id="a_Node000030"><a xlink:href="../../d4/de6/workspace_8h.html" target="_top" xlink:title="Function declarations for workspace managment.">
<polygon fill="white" stroke="#666666" points="519,-129 441,-129 441,-110 519,-110 519,-129"/>
<text text-anchor="middle" x="480" y="-117" font-family="Helvetica,sans-Serif" font-size="10.00">workspace.h</text>
</a>
</g>
</g>
<!-- Node2&#45;&gt;Node30 -->
<g id="edge31_Node000002_Node000030" class="edge">
<title>Node2&#45;&gt;Node30</title>
<g id="a_edge31_Node000002_Node000030"><a xlink:title=" ">
<path fill="none" stroke="#63b8ff" d="M406.98,-164.98C420.47,-156.77 441.13,-144.18 457.04,-134.49"/>
<polygon fill="#63b8ff" stroke="#63b8ff" points="459.05,-137.36 465.77,-129.17 455.41,-131.38 459.05,-137.36"/>
</a>
</g>
</g>
<!-- Node31 -->
<g id="Node000031" class="node">
<title>Node31</title>
<g id="a_Node000031"><a xlink:href="../../dc/de3/glview_8h.html" target="_top" xlink:title="Variable declarations related to the OpenGL window &#160;&#160;Function declarations related to the OpenGL wind...">
<polygon fill="white" stroke="#666666" points="594.5,-129 537.5,-129 537.5,-110 594.5,-110 594.5,-129"/>
<text text-anchor="middle" x="566" y="-117" font-family="Helvetica,sans-Serif" font-size="10.00">glview.h</text>
</a>
</g>
</g>
<!-- Node2&#45;&gt;Node31 -->
<g id="edge32_Node000002_Node000031" class="edge">
<title>Node2&#45;&gt;Node31</title>
<g id="a_edge32_Node000002_Node000031"><a xlink:title=" ">
<path fill="none" stroke="#63b8ff" d="M420.8,-164.98C449.97,-156.05 496,-141.94 528.4,-132.02"/>
<polygon fill="#63b8ff" stroke="#63b8ff" points="529.45,-135.36 537.99,-129.08 527.4,-128.66 529.45,-135.36"/>
</a>
</g>
</g>
<!-- Node32 -->
<g id="Node000032" class="node">
<title>Node32</title>
<g id="a_Node000032"><a xlink:href="../../d1/d2a/glwindow_8h.html" target="_top" xlink:title="Function declarations for the creation of the OpenGL window.">
<polygon fill="white" stroke="#666666" points="683.5,-129 612.5,-129 612.5,-110 683.5,-110 683.5,-129"/>
<text text-anchor="middle" x="648" y="-117" font-family="Helvetica,sans-Serif" font-size="10.00">glwindow.h</text>
</a>
</g>
</g>
<!-- Node2&#45;&gt;Node32 -->
<g id="edge33_Node000002_Node000032" class="edge">
<title>Node2&#45;&gt;Node32</title>
<g id="a_edge33_Node000002_Node000032"><a xlink:title=" ">
<path fill="none" stroke="#63b8ff" d="M426.6,-166.52C471.64,-157.15 551.77,-140.5 602.28,-130"/>
<polygon fill="#63b8ff" stroke="#63b8ff" points="603.19,-133.39 612.27,-127.93 601.77,-126.53 603.19,-133.39"/>
</a>
</g>
</g>
<!-- Node4 -->
<g id="Node000004" class="node">
<title>Node4</title>
<g id="a_Node000004"><a xlink:title=" ">
<polygon fill="#e0e0e0" stroke="#999999" points="44,-74 0,-74 0,-55 44,-55 44,-74"/>
<text text-anchor="middle" x="22" y="-62" font-family="Helvetica,sans-Serif" font-size="10.00">glib.h</text>
</a>
</g>
</g>
<!-- Node3&#45;&gt;Node4 -->
<g id="edge3_Node000003_Node000004" class="edge">
<title>Node3&#45;&gt;Node4</title>
<g id="a_edge3_Node000003_Node000004"><a xlink:title=" ">
<path fill="none" stroke="#63b8ff" d="M701.81,-111.51C698.85,-110.93 695.87,-110.41 693,-110 414.24,-70.43 336,-118.77 54.33,-73.84"/>
<polygon fill="#63b8ff" stroke="#63b8ff" points="54.66,-70.34 44.23,-72.2 53.54,-77.25 54.66,-70.34"/>
</a>
</g>
</g>
<!-- Node5 -->
<g id="Node000005" class="node">
<title>Node5</title>
<g id="a_Node000005"><a xlink:title=" ">
<polygon fill="#e0e0e0" stroke="#999999" points="136,-74 62,-74 62,-55 136,-55 136,-74"/>
<text text-anchor="middle" x="99" y="-62" font-family="Helvetica,sans-Serif" font-size="10.00">glib/gi18n.h</text>
</a>
</g>
</g>
<!-- Node3&#45;&gt;Node5 -->
<g id="edge4_Node000003_Node000005" class="edge">
<title>Node3&#45;&gt;Node5</title>
<g id="a_edge4_Node000003_Node000005"><a xlink:title=" ">
<path fill="none" stroke="#63b8ff" d="M701.81,-111.53C698.85,-110.95 695.87,-110.42 693,-110 454.81,-75.05 388.99,-103.43 146.29,-74"/>
<polygon fill="#63b8ff" stroke="#63b8ff" points="146.45,-70.49 136.1,-72.74 145.6,-77.44 146.45,-70.49"/>
</a>
</g>
</g>
<!-- Node6 -->
<g id="Node000006" class="node">
<title>Node6</title>
<g id="a_Node000006"><a xlink:title=" ">
<polygon fill="#e0e0e0" stroke="#999999" points="209.5,-74 154.5,-74 154.5,-55 209.5,-55 209.5,-74"/>
<text text-anchor="middle" x="182" y="-62" font-family="Helvetica,sans-Serif" font-size="10.00">locale.h</text>
</a>
</g>
</g>
<!-- Node3&#45;&gt;Node6 -->
<g id="edge5_Node000003_Node000006" class="edge">
<title>Node3&#45;&gt;Node6</title>
<g id="a_edge5_Node000003_Node000006"><a xlink:title=" ">
<path fill="none" stroke="#63b8ff" d="M701.8,-111.56C698.84,-110.97 695.87,-110.44 693,-110 487.39,-78.75 429.67,-104.9 219.9,-73.88"/>
<polygon fill="#63b8ff" stroke="#63b8ff" points="220.2,-70.38 209.79,-72.36 219.16,-77.31 220.2,-70.38"/>
</a>
</g>
</g>
<!-- Node7 -->
<g id="Node000007" class="node">
<title>Node7</title>
<g id="a_Node000007"><a xlink:title=" ">
<polygon fill="#e0e0e0" stroke="#999999" points="284,-74 228,-74 228,-55 284,-55 284,-74"/>
<text text-anchor="middle" x="256" y="-62" font-family="Helvetica,sans-Serif" font-size="10.00">unistd.h</text>
</a>
</g>
</g>
<!-- Node3&#45;&gt;Node7 -->
<g id="edge6_Node000003_Node000007" class="edge">
<title>Node3&#45;&gt;Node7</title>
<g id="a_edge6_Node000003_Node000007"><a xlink:title=" ">
<path fill="none" stroke="#63b8ff" d="M701.8,-111.6C698.84,-111.01 695.86,-110.46 693,-110 519.91,-82.46 471.04,-101.34 294.1,-73.95"/>
<polygon fill="#63b8ff" stroke="#63b8ff" points="294.63,-70.49 284.2,-72.4 293.54,-77.41 294.63,-70.49"/>
</a>
</g>
</g>
<!-- Node8 -->
<g id="Node000008" class="node">
<title>Node8</title>
<g id="a_Node000008"><a xlink:title=" ">
<polygon fill="#e0e0e0" stroke="#999999" points="355.5,-74 302.5,-74 302.5,-55 355.5,-55 355.5,-74"/>
<text text-anchor="middle" x="329" y="-62" font-family="Helvetica,sans-Serif" font-size="10.00">string.h</text>
</a>
</g>
</g>
<!-- Node3&#45;&gt;Node8 -->
<g id="edge7_Node000003_Node000008" class="edge">
<title>Node3&#45;&gt;Node8</title>
<g id="a_edge7_Node000003_Node000008"><a xlink:title=" ">
<path fill="none" stroke="#63b8ff" d="M701.79,-111.67C698.83,-111.06 695.86,-110.49 693,-110 550.6,-85.79 512.65,-96.69 370,-74 368.71,-73.79 367.39,-73.58 366.07,-73.35"/>
<polygon fill="#63b8ff" stroke="#63b8ff" points="366.31,-69.83 355.84,-71.44 365.03,-76.71 366.31,-69.83"/>
</a>
</g>
</g>
<!-- Node9 -->
<g id="Node000009" class="node">
<title>Node9</title>
<g id="a_Node000009"><a xlink:title=" ">
<polygon fill="#e0e0e0" stroke="#999999" points="423,-19 373,-19 373,0 423,0 423,-19"/>
<text text-anchor="middle" x="398" y="-7" font-family="Helvetica,sans-Serif" font-size="10.00">stdio.h</text>
</a>
</g>
</g>
<!-- Node3&#45;&gt;Node9 -->
<g id="edge8_Node000003_Node000009" class="edge">
<title>Node3&#45;&gt;Node9</title>
<g id="a_edge8_Node000003_Node000009"><a xlink:title=" ">
<path fill="none" stroke="#63b8ff" d="M701.78,-111.7C698.82,-111.09 695.86,-110.5 693,-110 629.05,-98.72 447.88,-120.94 403,-74 391.9,-62.39 391.79,-43.53 393.76,-29.37"/>
<polygon fill="#63b8ff" stroke="#63b8ff" points="397.26,-29.72 395.63,-19.25 390.37,-28.45 397.26,-29.72"/>
</a>
</g>
</g>
<!-- Node10 -->
<g id="Node000010" class="node">
<title>Node10</title>
<g id="a_Node000010"><a xlink:title=" ">
<polygon fill="#e0e0e0" stroke="#999999" points="589.5,-74 536.5,-74 536.5,-55 589.5,-55 589.5,-74"/>
<text text-anchor="middle" x="563" y="-62" font-family="Helvetica,sans-Serif" font-size="10.00">stdlib.h</text>
</a>
</g>
</g>
<!-- Node3&#45;&gt;Node10 -->
<g id="edge9_Node000003_Node000010" class="edge">
<title>Node3&#45;&gt;Node10</title>
<g id="a_edge9_Node000003_Node000010"><a xlink:title=" ">
<path fill="none" stroke="#63b8ff" d="M703.17,-109.98C675.05,-101.06 630.69,-86.98 599.42,-77.06"/>
<polygon fill="#63b8ff" stroke="#63b8ff" points="600.36,-73.68 589.76,-73.99 598.24,-80.36 600.36,-73.68"/>
</a>
</g>
</g>
<!-- Node11 -->
<g id="Node000011" class="node">
<title>Node11</title>
<g id="a_Node000011"><a xlink:title=" ">
<polygon fill="#e0e0e0" stroke="#999999" points="680,-74 608,-74 608,-55 680,-55 680,-74"/>
<text text-anchor="middle" x="644" y="-62" font-family="Helvetica,sans-Serif" font-size="10.00">sys/types.h</text>
</a>
</g>
</g>
<!-- Node3&#45;&gt;Node11 -->
<g id="edge10_Node000003_Node000011" class="edge">
<title>Node3&#45;&gt;Node11</title>
<g id="a_edge10_Node000003_Node000011"><a xlink:title=" ">
<path fill="none" stroke="#63b8ff" d="M716.18,-109.98C702.85,-101.77 682.42,-89.18 666.69,-79.49"/>
<polygon fill="#63b8ff" stroke="#63b8ff" points="668.42,-76.44 658.07,-74.17 664.75,-82.4 668.42,-76.44"/>
</a>
</g>
</g>
<!-- Node12 -->
<g id="Node000012" class="node">
<title>Node12</title>
<g id="a_Node000012"><a xlink:title=" ">
<polygon fill="#e0e0e0" stroke="#999999" points="762,-74 698,-74 698,-55 762,-55 762,-74"/>
<text text-anchor="middle" x="730" y="-62" font-family="Helvetica,sans-Serif" font-size="10.00">sys/stat.h</text>
</a>
</g>
</g>
<!-- Node3&#45;&gt;Node12 -->
<g id="edge11_Node000003_Node000012" class="edge">
<title>Node3&#45;&gt;Node12</title>
<g id="a_edge11_Node000003_Node000012"><a xlink:title=" ">
<path fill="none" stroke="#63b8ff" d="M730,-109.75C730,-102.8 730,-92.85 730,-84.13"/>
<polygon fill="#63b8ff" stroke="#63b8ff" points="733.5,-84.09 730,-74.09 726.5,-84.09 733.5,-84.09"/>
</a>
</g>
</g>
<!-- Node13 -->
<g id="Node000013" class="node">
<title>Node13</title>
<g id="a_Node000013"><a xlink:title=" ">
<polygon fill="#e0e0e0" stroke="#999999" points="506.5,-19 455.5,-19 455.5,0 506.5,0 506.5,-19"/>
<text text-anchor="middle" x="481" y="-7" font-family="Helvetica,sans-Serif" font-size="10.00">math.h</text>
</a>
</g>
</g>
<!-- Node3&#45;&gt;Node13 -->
<g id="edge12_Node000003_Node000013" class="edge">
<title>Node3&#45;&gt;Node13</title>
<g id="a_edge12_Node000003_Node000013"><a xlink:title=" ">
<path fill="none" stroke="#63b8ff" d="M701.73,-111.97C698.78,-111.3 695.83,-110.63 693,-110 619.76,-93.6 591.02,-114.77 528,-74 510.6,-62.74 497.36,-42.65 489.44,-28.07"/>
<polygon fill="#63b8ff" stroke="#63b8ff" points="492.49,-26.35 484.82,-19.04 486.26,-29.54 492.49,-26.35"/>
</a>
</g>
</g>
<!-- Node14 -->
<g id="Node000014" class="node">
<title>Node14</title>
<g id="a_Node000014"><a xlink:title=" ">
<polygon fill="#e0e0e0" stroke="#999999" points="840,-74 780,-74 780,-55 840,-55 840,-74"/>
<text text-anchor="middle" x="810" y="-62" font-family="Helvetica,sans-Serif" font-size="10.00">gtk/gtk.h</text>
</a>
</g>
</g>
<!-- Node3&#45;&gt;Node14 -->
<g id="edge13_Node000003_Node000014" class="edge">
<title>Node3&#45;&gt;Node14</title>
<g id="a_edge13_Node000003_Node000014"><a xlink:title=" ">
<path fill="none" stroke="#63b8ff" d="M742.85,-109.98C755.14,-101.84 773.91,-89.41 788.48,-79.76"/>
<polygon fill="#63b8ff" stroke="#63b8ff" points="790.51,-82.61 796.91,-74.17 786.64,-76.78 790.51,-82.61"/>
</a>
</g>
</g>
<!-- Node15 -->
<g id="Node000015" class="node">
<title>Node15</title>
<g id="a_Node000015"><a xlink:title=" ">
<polygon fill="#e0e0e0" stroke="#999999" points="923.5,-74 858.5,-74 858.5,-55 923.5,-55 923.5,-74"/>
<text text-anchor="middle" x="891" y="-62" font-family="Helvetica,sans-Serif" font-size="10.00">gdk/gdk.h</text>
</a>
</g>
</g>
<!-- Node3&#45;&gt;Node15 -->
<g id="edge14_Node000003_Node000015" class="edge">
<title>Node3&#45;&gt;Node15</title>
<g id="a_edge14_Node000003_Node000015"><a xlink:title=" ">
<path fill="none" stroke="#63b8ff" d="M755.87,-109.98C782.78,-101.13 825.12,-87.19 855.23,-77.28"/>
<polygon fill="#63b8ff" stroke="#63b8ff" points="856.53,-80.53 864.93,-74.08 854.34,-73.88 856.53,-80.53"/>
</a>
</g>
</g>
<!-- Node16 -->
<g id="Node000016" class="node">
<title>Node16</title>
<g id="a_Node000016"><a xlink:title=" ">
<polygon fill="#e0e0e0" stroke="#999999" points="1050,-74 942,-74 942,-55 1050,-55 1050,-74"/>
<text text-anchor="middle" x="996" y="-62" font-family="Helvetica,sans-Serif" font-size="10.00">gdk/gdkkeysyms.h</text>
</a>
</g>
</g>
<!-- Node3&#45;&gt;Node16 -->
<g id="edge15_Node000003_Node000016" class="edge">
<title>Node3&#45;&gt;Node16</title>
<g id="a_edge15_Node000003_Node000016"><a xlink:title=" ">
<path fill="none" stroke="#63b8ff" d="M758.26,-111.9C761.21,-111.25 764.16,-110.6 767,-110 825.69,-97.56 893.13,-84.62 939.55,-75.92"/>
<polygon fill="#63b8ff" stroke="#63b8ff" points="940.23,-79.35 949.42,-74.07 938.94,-72.47 940.23,-79.35"/>
</a>
</g>
</g>
<!-- Node17 -->
<g id="Node000017" class="node">
<title>Node17</title>
<g id="a_Node000017"><a xlink:title=" ">
<polygon fill="#e0e0e0" stroke="#999999" points="1201.5,-74 1068.5,-74 1068.5,-55 1201.5,-55 1201.5,-74"/>
<text text-anchor="middle" x="1135" y="-62" font-family="Helvetica,sans-Serif" font-size="10.00">gdk&#45;pixbuf/gdk&#45;pixbuf.h</text>
</a>
</g>
</g>
<!-- Node3&#45;&gt;Node17 -->
<g id="edge16_Node000003_Node000017" class="edge">
<title>Node3&#45;&gt;Node17</title>
<g id="a_edge16_Node000003_Node000017"><a xlink:title=" ">
<path fill="none" stroke="#63b8ff" d="M758.22,-111.69C761.18,-111.08 764.14,-110.5 767,-110 794.92,-105.12 958.74,-85.88 1058.16,-74.35"/>
<polygon fill="#63b8ff" stroke="#63b8ff" points="1058.63,-77.82 1068.16,-73.19 1057.83,-70.87 1058.63,-77.82"/>
</a>
</g>
</g>
<!-- Node18 -->
<g id="Node000018" class="node">
<title>Node18</title>
<g id="a_Node000018"><a xlink:title=" ">
<polygon fill="#e0e0e0" stroke="#999999" points="1320.5,-74 1219.5,-74 1219.5,-55 1320.5,-55 1320.5,-74"/>
<text text-anchor="middle" x="1270" y="-62" font-family="Helvetica,sans-Serif" font-size="10.00">pango/pangoft2.h</text>
</a>
</g>
</g>
<!-- Node3&#45;&gt;Node18 -->
<g id="edge17_Node000003_Node000018" class="edge">
<title>Node3&#45;&gt;Node18</title>
<g id="a_edge17_Node000003_Node000018"><a xlink:title=" ">
<path fill="none" stroke="#63b8ff" d="M758.2,-111.58C761.16,-110.98 764.13,-110.44 767,-110 959.41,-80.26 1012.51,-95.6 1209.4,-74.11"/>
<polygon fill="#63b8ff" stroke="#63b8ff" points="1209.94,-77.57 1219.5,-72.99 1209.17,-70.61 1209.94,-77.57"/>
</a>
</g>
</g>
<!-- Node19 -->
<g id="Node000019" class="node">
<title>Node19</title>
<g id="a_Node000019"><a xlink:title=" ">
<polygon fill="#e0e0e0" stroke="#999999" points="1407,-74 1339,-74 1339,-55 1407,-55 1407,-74"/>
<text text-anchor="middle" x="1373" y="-62" font-family="Helvetica,sans-Serif" font-size="10.00">epoxy/gl.h</text>
</a>
</g>
</g>
<!-- Node3&#45;&gt;Node19 -->
<g id="edge18_Node000003_Node000019" class="edge">
<title>Node3&#45;&gt;Node19</title>
<g id="a_edge18_Node000003_Node000019"><a xlink:title=" ">
<path fill="none" stroke="#63b8ff" d="M758.19,-111.53C761.15,-110.94 764.13,-110.42 767,-110 1011.84,-74.29 1079.59,-105.53 1328.72,-73.98"/>
<polygon fill="#63b8ff" stroke="#63b8ff" points="1329.33,-77.43 1338.8,-72.68 1328.43,-70.49 1329.33,-77.43"/>
</a>
</g>
</g>
<!-- Node20 -->
<g id="Node000020" class="node">
<title>Node20</title>
<g id="a_Node000020"><a xlink:title=" ">
<polygon fill="#e0e0e0" stroke="#999999" points="1481,-74 1425,-74 1425,-55 1481,-55 1481,-74"/>
<text text-anchor="middle" x="1453" y="-62" font-family="Helvetica,sans-Serif" font-size="10.00">GL/glu.h</text>
</a>
</g>
</g>
<!-- Node3&#45;&gt;Node20 -->
<g id="edge19_Node000003_Node000020" class="edge">
<title>Node3&#45;&gt;Node20</title>
<g id="a_edge19_Node000003_Node000020"><a xlink:title=" ">
<path fill="none" stroke="#63b8ff" d="M758.19,-111.5C761.15,-110.92 764.13,-110.41 767,-110 1049.68,-69.99 1128.13,-113.45 1414.53,-73.94"/>
<polygon fill="#63b8ff" stroke="#63b8ff" points="1415.39,-77.35 1424.81,-72.5 1414.42,-70.42 1415.39,-77.35"/>
</a>
</g>
</g>
<!-- Node21 -->
<g id="Node000021" class="node">
<title>Node21</title>
<g id="a_Node000021"><a xlink:title=" ">
<polygon fill="#e0e0e0" stroke="#999999" points="1573,-74 1499,-74 1499,-55 1573,-55 1573,-74"/>
<text text-anchor="middle" x="1536" y="-62" font-family="Helvetica,sans-Serif" font-size="10.00">epoxy/glx.h</text>
</a>
</g>
</g>
<!-- Node3&#45;&gt;Node21 -->
<g id="edge20_Node000003_Node000021" class="edge">
<title>Node3&#45;&gt;Node21</title>
<g id="a_edge20_Node000003_Node000021"><a xlink:title=" ">
<path fill="none" stroke="#63b8ff" d="M758.19,-111.49C761.15,-110.91 764.13,-110.4 767,-110 1082.41,-66.26 1168.68,-110.39 1488.88,-73.95"/>
<polygon fill="#63b8ff" stroke="#63b8ff" points="1489.37,-77.42 1498.91,-72.79 1488.57,-70.46 1489.37,-77.42"/>
</a>
</g>
</g>
<!-- Node22 -->
<g id="Node000022" class="node">
<title>Node22</title>
<g id="a_Node000022"><a xlink:href="../../dc/db0/math__3d_8h.html" target="_top" xlink:title="Functions for OpenGL math.">
<polygon fill="white" stroke="#666666" points="480,-74 412,-74 412,-55 480,-55 480,-74"/>
<text text-anchor="middle" x="446" y="-62" font-family="Helvetica,sans-Serif" font-size="10.00">math_3d.h</text>
</a>
</g>
</g>
<!-- Node3&#45;&gt;Node22 -->
<g id="edge21_Node000003_Node000022" class="edge">
<title>Node3&#45;&gt;Node22</title>
<g id="a_edge21_Node000003_Node000022"><a xlink:title=" ">
<path fill="none" stroke="#63b8ff" d="M701.75,-111.86C698.8,-111.21 695.84,-110.58 693,-110 673.5,-106.01 556,-85.04 490.33,-73.37"/>
<polygon fill="#63b8ff" stroke="#63b8ff" points="490.72,-69.88 480.26,-71.58 489.49,-76.77 490.72,-69.88"/>
</a>
</g>
</g>
<!-- Node23 -->
<g id="Node000023" class="node">
<title>Node23</title>
<g id="a_Node000023"><a xlink:href="../../da/d7e/glwin_8h.html" target="_top" xlink:title="Variable declarations related the OpenGL window &#160;&#160;Data structure declarations related the OpenGL wind...">
<polygon fill="white" stroke="#666666" points="1643,-74 1591,-74 1591,-55 1643,-55 1643,-74"/>
<text text-anchor="middle" x="1617" y="-62" font-family="Helvetica,sans-Serif" font-size="10.00">glwin.h</text>
</a>
</g>
</g>
<!-- Node3&#45;&gt;Node23 -->
<g id="edge24_Node000003_Node000023" class="edge">
<title>Node3&#45;&gt;Node23</title>
<g id="a_edge24_Node000003_Node000023"><a xlink:title=" ">
<path fill="none" stroke="#63b8ff" d="M758.18,-111.47C761.15,-110.9 764.13,-110.39 767,-110 1122.94,-61.66 1221.21,-123.85 1580.57,-73.89"/>
<polygon fill="#63b8ff" stroke="#63b8ff" points="1581.32,-77.32 1590.73,-72.46 1580.34,-70.39 1581.32,-77.32"/>
</a>
</g>
</g>
<!-- Node25 -->
<g id="Node000025" class="node">
<title>Node25</title>
<g id="a_Node000025"><a xlink:title=" ">
<polygon fill="#e0e0e0" stroke="#999999" points="1727,-74 1661,-74 1661,-55 1727,-55 1727,-74"/>
<text text-anchor="middle" x="1694" y="-62" font-family="Helvetica,sans-Serif" font-size="10.00">gtk/gtkx.h</text>
</a>
</g>
</g>
<!-- Node3&#45;&gt;Node25 -->
<g id="edge26_Node000003_Node000025" class="edge">
<title>Node3&#45;&gt;Node25</title>
<g id="a_edge26_Node000003_Node000025"><a xlink:title=" ">
<path fill="none" stroke="#63b8ff" d="M758.18,-111.46C761.15,-110.89 764.13,-110.39 767,-110 1153.84,-58.15 1259.38,-120.12 1650.43,-73.97"/>
<polygon fill="#63b8ff" stroke="#63b8ff" points="1651.09,-77.42 1660.61,-72.76 1650.26,-70.47 1651.09,-77.42"/>
</a>
</g>
</g>
<!-- Node22&#45;&gt;Node9 -->
<g id="edge23_Node000022_Node000009" class="edge">
<title>Node22&#45;&gt;Node9</title>
<g id="a_edge23_Node000022_Node000009"><a xlink:title=" ">
<path fill="none" stroke="#63b8ff" d="M438.07,-54.75C431.15,-47.11 420.93,-35.82 412.55,-26.56"/>
<polygon fill="#63b8ff" stroke="#63b8ff" points="415.09,-24.15 405.78,-19.09 409.9,-28.85 415.09,-24.15"/>
</a>
</g>
</g>
<!-- Node22&#45;&gt;Node13 -->
<g id="edge22_Node000022_Node000013" class="edge">
<title>Node22&#45;&gt;Node13</title>
<g id="a_edge22_Node000022_Node000013"><a xlink:title=" ">
<path fill="none" stroke="#63b8ff" d="M451.78,-54.75C456.62,-47.42 463.68,-36.73 469.64,-27.7"/>
<polygon fill="#63b8ff" stroke="#63b8ff" points="472.74,-29.36 475.33,-19.09 466.9,-25.5 472.74,-29.36"/>
</a>
</g>
</g>
<!-- Node24 -->
<g id="Node000024" class="node">
<title>Node24</title>
<g id="a_Node000024"><a xlink:href="../../d5/d9e/ogl__shading_8h.html" target="_top" xlink:title="Variable declarations related to GLSL programs &#160;&#160;Data structure declarations related to GLSL programs...">
<polygon fill="white" stroke="#666666" points="1659,-19 1575,-19 1575,0 1659,0 1659,-19"/>
<text text-anchor="middle" x="1617" y="-7" font-family="Helvetica,sans-Serif" font-size="10.00">ogl_shading.h</text>
</a>
</g>
</g>
<!-- Node23&#45;&gt;Node24 -->
<g id="edge25_Node000023_Node000024" class="edge">
<title>Node23&#45;&gt;Node24</title>
<g id="a_edge25_Node000023_Node000024"><a xlink:title=" ">
<path fill="none" stroke="#63b8ff" d="M1617,-54.75C1617,-47.8 1617,-37.85 1617,-29.13"/>
<polygon fill="#63b8ff" stroke="#63b8ff" points="1620.5,-29.09 1617,-19.09 1613.5,-29.09 1620.5,-29.09"/>
</a>
</g>
</g>
<!-- Node33&#45;&gt;Node3 -->
<g id="edge35_Node000033_Node000003" class="edge">
<title>Node33&#45;&gt;Node3</title>
<g id="a_edge35_Node000033_Node000003"><a xlink:title=" ">
<path fill="none" stroke="#63b8ff" d="M519.78,-165.75C559.97,-157.45 625.68,-143.75 691.58,-129.28"/>
<polygon fill="#63b8ff" stroke="#63b8ff" points="692.72,-132.62 701.73,-127.05 691.21,-125.78 692.72,-132.62"/>
</a>
</g>
</g>
<!-- Node33&#45;&gt;Node26 -->
<g id="edge36_Node000033_Node000026" class="edge">
<title>Node33&#45;&gt;Node26</title>
<g id="a_edge36_Node000033_Node000026"><a xlink:title=" ">
<path fill="none" stroke="#63b8ff" d="M444.31,-166.55C441.16,-166.01 438.03,-165.49 435,-165 324.34,-147.25 292.82,-151.58 179.79,-129.16"/>
<polygon fill="#63b8ff" stroke="#63b8ff" points="180.18,-125.67 169.69,-127.13 178.8,-132.54 180.18,-125.67"/>
</a>
</g>
</g>
<!-- Node33&#45;&gt;Node27 -->
<g id="edge37_Node000033_Node000027" class="edge">
<title>Node33&#45;&gt;Node27</title>
<g id="a_edge37_Node000033_Node000027"><a xlink:title=" ">
<path fill="none" stroke="#63b8ff" d="M444.34,-165.79C397.74,-156.26 318.46,-140.04 268.51,-129.81"/>
<polygon fill="#63b8ff" stroke="#63b8ff" points="269.12,-126.37 258.62,-127.79 267.72,-133.22 269.12,-126.37"/>
</a>
</g>
</g>
<!-- Node33&#45;&gt;Node28 -->
<g id="edge38_Node000033_Node000028" class="edge">
<title>Node33&#45;&gt;Node28</title>
<g id="a_edge38_Node000033_Node000028"><a xlink:title=" ">
<path fill="none" stroke="#63b8ff" d="M454.53,-164.98C425.82,-156.09 380.58,-142.07 348.58,-132.15"/>
<polygon fill="#63b8ff" stroke="#63b8ff" points="349.28,-128.7 338.69,-129.08 347.2,-135.39 349.28,-128.7"/>
</a>
</g>
</g>
<!-- Node33&#45;&gt;Node29 -->
<g id="edge42_Node000033_Node000029" class="edge">
<title>Node33&#45;&gt;Node29</title>
<g id="a_edge42_Node000033_Node000029"><a xlink:title=" ">
<path fill="none" stroke="#63b8ff" d="M467.7,-164.98C453.9,-156.77 432.76,-144.18 416.49,-134.49"/>
<polygon fill="#63b8ff" stroke="#63b8ff" points="417.94,-131.28 407.56,-129.17 414.36,-137.29 417.94,-131.28"/>
</a>
</g>
</g>
<!-- Node33&#45;&gt;Node30 -->
<g id="edge43_Node000033_Node000030" class="edge">
<title>Node33&#45;&gt;Node30</title>
<g id="a_edge43_Node000033_Node000030"><a xlink:title=" ">
<path fill="none" stroke="#63b8ff" d="M481.67,-164.75C481.41,-157.8 481.03,-147.85 480.7,-139.13"/>
<polygon fill="#63b8ff" stroke="#63b8ff" points="484.2,-138.95 480.32,-129.09 477.2,-139.21 484.2,-138.95"/>
</a>
</g>
</g>
<!-- Node33&#45;&gt;Node31 -->
<g id="edge40_Node000033_Node000031" class="edge">
<title>Node33&#45;&gt;Node31</title>
<g id="a_edge40_Node000033_Node000031"><a xlink:title=" ">
<path fill="none" stroke="#63b8ff" d="M495.5,-164.98C508.4,-156.84 528.1,-144.41 543.4,-134.76"/>
<polygon fill="#63b8ff" stroke="#63b8ff" points="545.67,-137.47 552.26,-129.17 541.93,-131.55 545.67,-137.47"/>
</a>
</g>
</g>
<!-- Node33&#45;&gt;Node32 -->
<g id="edge41_Node000033_Node000032" class="edge">
<title>Node33&#45;&gt;Node32</title>
<g id="a_edge41_Node000033_Node000032"><a xlink:title=" ">
<path fill="none" stroke="#63b8ff" d="M508.67,-164.98C536.54,-156.09 580.45,-142.07 611.52,-132.15"/>
<polygon fill="#63b8ff" stroke="#63b8ff" points="612.66,-135.46 621.12,-129.08 610.53,-128.79 612.66,-135.46"/>
</a>
</g>
</g>
<!-- Node34 -->
<g id="Node000034" class="node">
<title>Node34</title>
<g id="a_Node000034"><a xlink:href="../../d6/d75/initcoord_8h.html" target="_top" xlink:title="Function declarations to handle the atomic coordination data.">
<polygon fill="white" stroke="#666666" points="844,-129 776,-129 776,-110 844,-110 844,-129"/>
<text text-anchor="middle" x="810" y="-117" font-family="Helvetica,sans-Serif" font-size="10.00">initcoord.h</text>
</a>
</g>
</g>
<!-- Node33&#45;&gt;Node34 -->
<g id="edge39_Node000033_Node000034" class="edge">
<title>Node33&#45;&gt;Node34</title>
<g id="a_edge39_Node000033_Node000034"><a xlink:title=" ">
<path fill="none" stroke="#63b8ff" d="M519.88,-168.08C572.69,-160.42 671.67,-145.66 765.78,-129.16"/>
<polygon fill="#63b8ff" stroke="#63b8ff" points="766.52,-132.58 775.76,-127.4 765.3,-125.69 766.52,-132.58"/>
</a>
</g>
</g>
</g>
</svg>

<g id="navigator" transform="translate(0 0)" fill="#404254">
  <rect fill="#f2f5e9" fill-opacity="0.5" stroke="#606060" stroke-width=".5" x="0" y="0" width="60" height="60"/>
  <use id="zoomplus" xlink:href="#zoomPlus" x="17" y="9" onmousedown="handleZoom(evt,'in')"/>
  <use id="zoomminus" xlink:href="#zoomMin" x="42" y="9" onmousedown="handleZoom(evt,'out')"/>
  <use id="reset" xlink:href="#resetDef" x="30" y="36" onmousedown="handleReset()"/>
   <use id="arrowup" xlink:href="#arrowUp" x="0" y="0" onmousedown="handlePan(0,-1)"/>
  <use id="arrowright" xlink:href="#arrowRight" x="0" y="0" onmousedown="handlePan(1,0)"/>
  <use id="arrowdown" xlink:href="#arrowDown" x="0" y="0" onmousedown="handlePan(0,1)"/>
  <use id="arrowleft" xlink:href="#arrowLeft" x="0" y="0" onmousedown="handlePan(-1,0)"/>
</g>
<svg viewBox="0 0 15 15" width="100%" height="30px" preserveAspectRatio="xMaxYMin meet">
 <g id="arrow_out" transform="scale(0.3 0.3)">
  <a xlink:href="m__edit_8c__incl_org.svg" target="_base">
   <rect id="button" ry="5" rx="5" y="6" x="6" height="38" width="38"
        fill="#f2f5e9" fill-opacity="0.5" stroke="#606060" stroke-width="1.0"/>
   <path id="arrow"
     d="M 11.500037,31.436501 C 11.940474,20.09759 22.043105,11.32322 32.158766,21.979434 L 37.068811,17.246167 C 37.068811,17.246167 37.088388,32 37.088388,32 L 22.160133,31.978069 C 22.160133,31.978069 26.997745,27.140456 26.997745,27.140456 C 18.528582,18.264221 13.291696,25.230495 11.500037,31.436501 z"
     style="fill:#404040;"/>
  </a>
 </g>
</svg>

<style type='text/css'>
<![CDATA[
[data-mouse-over-selected='false'] { opacity: 0.7; }
[data-mouse-over-selected='true']  { opacity: 1.0; }
]]>
</style>
<script type="application/ecmascript"><![CDATA[
document.addEventListener('DOMContentLoaded', (event) => {
  highlightEdges();
  highlightAdjacentNodes();
});
]]></script>
</svg>
