<?xml version="1.0" encoding="UTF-8" standalone="no"?>
<!DOCTYPE svg PUBLIC "-//W3C//DTD SVG 1.1//EN"
 "http://www.w3.org/Graphics/SVG/1.1/DTD/svg11.dtd">
<!-- Generated by graphviz version 7.1.0 (0)
 -->
<!-- Title: read_isaacs.c Pages: 1 -->
<svg width="1618pt" height="192pt"
 viewBox="0.00 0.00 1618.00 192.00" xmlns="http://www.w3.org/2000/svg" xmlns:xlink="http://www.w3.org/1999/xlink">
<g id="graph0" class="graph" transform="scale(1 1) rotate(0) translate(4 188)">
<title>read_isaacs.c</title>
<!-- Node1 -->
<g id="node1" class="node">
<title>Node1</title>
<g id="a_node1"><a xlink:title=" ">
<polygon fill="#999999" stroke="#666666" points="678.5,-184 601.5,-184 601.5,-165 678.5,-165 678.5,-184"/>
<text text-anchor="middle" x="640" y="-172" font-family="Helvetica,sans-Serif" font-size="10.00">read_isaacs.c</text>
</a>
</g>
</g>
<!-- Node2 -->
<g id="node2" class="node">
<title>Node2</title>
<g id="a_node2"><a xlink:title=" ">
<polygon fill="#e0e0e0" stroke="#999999" points="356,-129 264,-129 264,-110 356,-110 356,-129"/>
<text text-anchor="middle" x="310" y="-117" font-family="Helvetica,sans-Serif" font-size="10.00">libxml/encoding.h</text>
</a>
</g>
</g>
<!-- Node1&#45;&gt;Node2 -->
<g id="edge1" class="edge">
<title>Node1&#45;&gt;Node2</title>
<path fill="none" stroke="#63b8ff" d="M601.17,-167.26C543.43,-157.99 434.56,-140.51 367.54,-129.74"/>
<polygon fill="#63b8ff" stroke="#63b8ff" points="368.27,-126.31 357.85,-128.18 367.16,-133.23 368.27,-126.31"/>
</g>
<!-- Node3 -->
<g id="node3" class="node">
<title>Node3</title>
<g id="a_node3"><a xlink:title=" ">
<polygon fill="#e0e0e0" stroke="#999999" points="467.5,-129 374.5,-129 374.5,-110 467.5,-110 467.5,-129"/>
<text text-anchor="middle" x="421" y="-117" font-family="Helvetica,sans-Serif" font-size="10.00">libxml/xmlwriter.h</text>
</a>
</g>
</g>
<!-- Node1&#45;&gt;Node3 -->
<g id="edge2" class="edge">
<title>Node1&#45;&gt;Node3</title>
<path fill="none" stroke="#63b8ff" d="M602.85,-164.51C566.01,-155.59 509.38,-141.89 469.12,-132.15"/>
<polygon fill="#63b8ff" stroke="#63b8ff" points="469.98,-128.75 459.44,-129.8 468.33,-135.56 469.98,-128.75"/>
</g>
<!-- Node4 -->
<g id="node4" class="node">
<title>Node4</title>
<g id="a_node4"><a xlink:title=" ">
<polygon fill="#e0e0e0" stroke="#999999" points="582,-129 486,-129 486,-110 582,-110 582,-129"/>
<text text-anchor="middle" x="534" y="-117" font-family="Helvetica,sans-Serif" font-size="10.00">libxml/xmlreader.h</text>
</a>
</g>
</g>
<!-- Node1&#45;&gt;Node4 -->
<g id="edge3" class="edge">
<title>Node1&#45;&gt;Node4</title>
<path fill="none" stroke="#63b8ff" d="M622.02,-164.51C605.55,-156.27 580.91,-143.96 561.89,-134.45"/>
<polygon fill="#63b8ff" stroke="#63b8ff" points="563.58,-131.38 553.07,-130.03 560.45,-137.64 563.58,-131.38"/>
</g>
<!-- Node5 -->
<g id="node5" class="node">
<title>Node5</title>
<g id="a_node5"><a xlink:title=" ">
<polygon fill="#e0e0e0" stroke="#999999" points="680,-129 600,-129 600,-110 680,-110 680,-129"/>
<text text-anchor="middle" x="640" y="-117" font-family="Helvetica,sans-Serif" font-size="10.00">libxml/parser.h</text>
</a>
</g>
</g>
<!-- Node1&#45;&gt;Node5 -->
<g id="edge4" class="edge">
<title>Node1&#45;&gt;Node5</title>
<path fill="none" stroke="#63b8ff" d="M640,-164.75C640,-158.27 640,-149.16 640,-140.9"/>
<polygon fill="#63b8ff" stroke="#63b8ff" points="643.5,-140.96 640,-130.96 636.5,-140.96 643.5,-140.96"/>
</g>
<!-- Node6 -->
<g id="node6" class="node">
<title>Node6</title>
<g id="a_node6"><a xlink:href="../../d2/d49/global_8h.html" target="_top" xlink:title=" ">
<polygon fill="white" stroke="#666666" points="748,-129 698,-129 698,-110 748,-110 748,-129"/>
<text text-anchor="middle" x="723" y="-117" font-family="Helvetica,sans-Serif" font-size="10.00">global.h</text>
</a>
</g>
</g>
<!-- Node1&#45;&gt;Node6 -->
<g id="edge5" class="edge">
<title>Node1&#45;&gt;Node6</title>
<path fill="none" stroke="#63b8ff" d="M654.08,-164.51C666.56,-156.54 685.02,-144.75 699.69,-135.38"/>
<polygon fill="#63b8ff" stroke="#63b8ff" points="701.31,-138.5 707.85,-130.17 697.54,-132.6 701.31,-138.5"/>
</g>
<!-- Node29 -->
<g id="node29" class="node">
<title>Node29</title>
<g id="a_node29"><a xlink:href="../../d4/da9/interface_8h.html" target="_top" xlink:title=" ">
<polygon fill="white" stroke="#666666" points="828,-129 766,-129 766,-110 828,-110 828,-129"/>
<text text-anchor="middle" x="797" y="-117" font-family="Helvetica,sans-Serif" font-size="10.00">interface.h</text>
</a>
</g>
</g>
<!-- Node1&#45;&gt;Node29 -->
<g id="edge30" class="edge">
<title>Node1&#45;&gt;Node29</title>
<path fill="none" stroke="#63b8ff" d="M666.63,-164.51C692.2,-155.88 731.05,-142.76 759.69,-133.1"/>
<polygon fill="#63b8ff" stroke="#63b8ff" points="760.71,-136.45 769.06,-129.93 758.47,-129.81 760.71,-136.45"/>
</g>
<!-- Node30 -->
<g id="node30" class="node">
<title>Node30</title>
<g id="a_node30"><a xlink:href="../../dd/d49/callbacks_8h.html" target="_top" xlink:title=" ">
<polygon fill="white" stroke="#666666" points="912,-129 846,-129 846,-110 912,-110 912,-129"/>
<text text-anchor="middle" x="879" y="-117" font-family="Helvetica,sans-Serif" font-size="10.00">callbacks.h</text>
</a>
</g>
</g>
<!-- Node1&#45;&gt;Node30 -->
<g id="edge31" class="edge">
<title>Node1&#45;&gt;Node30</title>
<path fill="none" stroke="#63b8ff" d="M678.93,-164.87C721.64,-155.4 790.05,-140.22 834.76,-130.31"/>
<polygon fill="#63b8ff" stroke="#63b8ff" points="835.38,-133.76 844.39,-128.18 833.87,-126.92 835.38,-133.76"/>
</g>
<!-- Node7 -->
<g id="node7" class="node">
<title>Node7</title>
<g id="a_node7"><a xlink:title=" ">
<polygon fill="#e0e0e0" stroke="#999999" points="40,-74 0,-74 0,-55 40,-55 40,-74"/>
<text text-anchor="middle" x="20" y="-62" font-family="Helvetica,sans-Serif" font-size="10.00">glib.h</text>
</a>
</g>
</g>
<!-- Node6&#45;&gt;Node7 -->
<g id="edge6" class="edge">
<title>Node6&#45;&gt;Node7</title>
<path fill="none" stroke="#63b8ff" d="M697.86,-111.65C694.89,-111.01 691.89,-110.44 689,-110 411.04,-67.82 331.84,-120.95 51.79,-74.06"/>
<polygon fill="#63b8ff" stroke="#63b8ff" points="52.4,-70.61 41.95,-72.38 51.22,-77.51 52.4,-70.61"/>
</g>
<!-- Node8 -->
<g id="node8" class="node">
<title>Node8</title>
<g id="a_node8"><a xlink:title=" ">
<polygon fill="#e0e0e0" stroke="#999999" points="124,-74 58,-74 58,-55 124,-55 124,-74"/>
<text text-anchor="middle" x="91" y="-62" font-family="Helvetica,sans-Serif" font-size="10.00">glib/gi18n.h</text>
</a>
</g>
</g>
<!-- Node6&#45;&gt;Node8 -->
<g id="edge7" class="edge">
<title>Node6&#45;&gt;Node8</title>
<path fill="none" stroke="#63b8ff" d="M697.85,-111.68C694.88,-111.03 691.89,-110.45 689,-110 448.04,-72.39 380.5,-105.6 135.81,-74.18"/>
<polygon fill="#63b8ff" stroke="#63b8ff" points="136.27,-70.71 125.9,-72.88 135.36,-77.65 136.27,-70.71"/>
</g>
<!-- Node9 -->
<g id="node9" class="node">
<title>Node9</title>
<g id="a_node9"><a xlink:title=" ">
<polygon fill="#e0e0e0" stroke="#999999" points="192,-74 142,-74 142,-55 192,-55 192,-74"/>
<text text-anchor="middle" x="167" y="-62" font-family="Helvetica,sans-Serif" font-size="10.00">locale.h</text>
</a>
</g>
</g>
<!-- Node6&#45;&gt;Node9 -->
<g id="edge8" class="edge">
<title>Node6&#45;&gt;Node9</title>
<path fill="none" stroke="#63b8ff" d="M697.85,-111.7C694.88,-111.05 691.88,-110.46 689,-110 477.95,-76.09 417.77,-107.39 203.47,-74.09"/>
<polygon fill="#63b8ff" stroke="#63b8ff" points="204.07,-70.65 193.65,-72.54 202.97,-77.56 204.07,-70.65"/>
</g>
<!-- Node10 -->
<g id="node10" class="node">
<title>Node10</title>
<g id="a_node10"><a xlink:title=" ">
<polygon fill="#e0e0e0" stroke="#999999" points="261.5,-74 210.5,-74 210.5,-55 261.5,-55 261.5,-74"/>
<text text-anchor="middle" x="236" y="-62" font-family="Helvetica,sans-Serif" font-size="10.00">unistd.h</text>
</a>
</g>
</g>
<!-- Node6&#45;&gt;Node10 -->
<g id="edge9" class="edge">
<title>Node6&#45;&gt;Node10</title>
<path fill="none" stroke="#63b8ff" d="M697.84,-111.74C694.88,-111.08 691.88,-110.48 689,-110 508.24,-79.84 456.37,-103.79 273.02,-74.26"/>
<polygon fill="#63b8ff" stroke="#63b8ff" points="273.83,-70.84 263.39,-72.67 272.69,-77.75 273.83,-70.84"/>
</g>
<!-- Node11 -->
<g id="node11" class="node">
<title>Node11</title>
<g id="a_node11"><a xlink:title=" ">
<polygon fill="#e0e0e0" stroke="#999999" points="328.5,-74 279.5,-74 279.5,-55 328.5,-55 328.5,-74"/>
<text text-anchor="middle" x="304" y="-62" font-family="Helvetica,sans-Serif" font-size="10.00">string.h</text>
</a>
</g>
</g>
<!-- Node6&#45;&gt;Node11 -->
<g id="edge10" class="edge">
<title>Node6&#45;&gt;Node11</title>
<path fill="none" stroke="#63b8ff" d="M697.83,-111.79C694.87,-111.12 691.88,-110.51 689,-110 536.74,-83.18 495.65,-98.5 343,-74 341.98,-73.84 340.95,-73.66 339.91,-73.48"/>
<polygon fill="#63b8ff" stroke="#63b8ff" points="340.65,-70.06 330.17,-71.6 339.32,-76.93 340.65,-70.06"/>
</g>
<!-- Node12 -->
<g id="node12" class="node">
<title>Node12</title>
<g id="a_node12"><a xlink:title=" ">
<polygon fill="#e0e0e0" stroke="#999999" points="580,-19 534,-19 534,0 580,0 580,-19"/>
<text text-anchor="middle" x="557" y="-7" font-family="Helvetica,sans-Serif" font-size="10.00">stdio.h</text>
</a>
</g>
</g>
<!-- Node6&#45;&gt;Node12 -->
<g id="edge11" class="edge">
<title>Node6&#45;&gt;Node12</title>
<path fill="none" stroke="#63b8ff" d="M697.83,-111.82C694.86,-111.15 691.87,-110.52 689,-110 620.11,-97.48 422.59,-126.26 376,-74 333.11,-25.9 458.51,-14.23 522.26,-11.4"/>
<polygon fill="#63b8ff" stroke="#63b8ff" points="522.39,-14.9 532.25,-11.02 522.12,-7.91 522.39,-14.9"/>
</g>
<!-- Node13 -->
<g id="node13" class="node">
<title>Node13</title>
<g id="a_node13"><a xlink:title=" ">
<polygon fill="#e0e0e0" stroke="#999999" points="433,-74 385,-74 385,-55 433,-55 433,-74"/>
<text text-anchor="middle" x="409" y="-62" font-family="Helvetica,sans-Serif" font-size="10.00">stdlib.h</text>
</a>
</g>
</g>
<!-- Node6&#45;&gt;Node13 -->
<g id="edge12" class="edge">
<title>Node6&#45;&gt;Node13</title>
<path fill="none" stroke="#63b8ff" d="M697.81,-111.9C694.85,-111.22 691.87,-110.57 689,-110 583.67,-89.21 552.74,-95.42 444.52,-74.31"/>
<polygon fill="#63b8ff" stroke="#63b8ff" points="445.42,-70.92 434.93,-72.4 444.05,-77.79 445.42,-70.92"/>
</g>
<!-- Node14 -->
<g id="node14" class="node">
<title>Node14</title>
<g id="a_node14"><a xlink:title=" ">
<polygon fill="#e0e0e0" stroke="#999999" points="519,-74 451,-74 451,-55 519,-55 519,-74"/>
<text text-anchor="middle" x="485" y="-62" font-family="Helvetica,sans-Serif" font-size="10.00">sys/types.h</text>
</a>
</g>
</g>
<!-- Node6&#45;&gt;Node14 -->
<g id="edge13" class="edge">
<title>Node6&#45;&gt;Node14</title>
<path fill="none" stroke="#63b8ff" d="M697.77,-112.1C694.82,-111.38 691.84,-110.67 689,-110 634.64,-97.28 571.85,-83.76 530.45,-75"/>
<polygon fill="#63b8ff" stroke="#63b8ff" points="531.35,-71.62 520.84,-72.98 529.9,-78.47 531.35,-71.62"/>
</g>
<!-- Node15 -->
<g id="node15" class="node">
<title>Node15</title>
<g id="a_node15"><a xlink:title=" ">
<polygon fill="#e0e0e0" stroke="#999999" points="597,-74 537,-74 537,-55 597,-55 597,-74"/>
<text text-anchor="middle" x="567" y="-62" font-family="Helvetica,sans-Serif" font-size="10.00">sys/stat.h</text>
</a>
</g>
</g>
<!-- Node6&#45;&gt;Node15 -->
<g id="edge14" class="edge">
<title>Node6&#45;&gt;Node15</title>
<path fill="none" stroke="#63b8ff" d="M697.59,-109.87C672.28,-101.27 633.16,-87.98 604.33,-78.18"/>
<polygon fill="#63b8ff" stroke="#63b8ff" points="605.47,-74.87 594.88,-74.97 603.22,-81.5 605.47,-74.87"/>
</g>
<!-- Node16 -->
<g id="node16" class="node">
<title>Node16</title>
<g id="a_node16"><a xlink:title=" ">
<polygon fill="#e0e0e0" stroke="#999999" points="757.5,-19 710.5,-19 710.5,0 757.5,0 757.5,-19"/>
<text text-anchor="middle" x="734" y="-7" font-family="Helvetica,sans-Serif" font-size="10.00">math.h</text>
</a>
</g>
</g>
<!-- Node6&#45;&gt;Node16 -->
<g id="edge15" class="edge">
<title>Node6&#45;&gt;Node16</title>
<path fill="none" stroke="#63b8ff" d="M748.14,-111.64C751.11,-111 754.11,-110.43 757,-110 831.82,-98.77 1384.93,-128.9 1437,-74 1442.81,-67.87 1442.78,-61.16 1437,-55 1413.9,-30.39 907.62,-15.13 768.88,-11.4"/>
<polygon fill="#63b8ff" stroke="#63b8ff" points="769.31,-7.91 759.22,-11.14 769.12,-14.9 769.31,-7.91"/>
</g>
<!-- Node17 -->
<g id="node17" class="node">
<title>Node17</title>
<g id="a_node17"><a xlink:title=" ">
<polygon fill="#e0e0e0" stroke="#999999" points="750.5,-74 695.5,-74 695.5,-55 750.5,-55 750.5,-74"/>
<text text-anchor="middle" x="723" y="-62" font-family="Helvetica,sans-Serif" font-size="10.00">gtk/gtk.h</text>
</a>
</g>
</g>
<!-- Node6&#45;&gt;Node17 -->
<g id="edge16" class="edge">
<title>Node6&#45;&gt;Node17</title>
<path fill="none" stroke="#63b8ff" d="M723,-109.75C723,-103.27 723,-94.16 723,-85.9"/>
<polygon fill="#63b8ff" stroke="#63b8ff" points="726.5,-85.96 723,-75.96 719.5,-85.96 726.5,-85.96"/>
</g>
<!-- Node18 -->
<g id="node18" class="node">
<title>Node18</title>
<g id="a_node18"><a xlink:title=" ">
<polygon fill="#e0e0e0" stroke="#999999" points="827.5,-74 768.5,-74 768.5,-55 827.5,-55 827.5,-74"/>
<text text-anchor="middle" x="798" y="-62" font-family="Helvetica,sans-Serif" font-size="10.00">gdk/gdk.h</text>
</a>
</g>
</g>
<!-- Node6&#45;&gt;Node18 -->
<g id="edge17" class="edge">
<title>Node6&#45;&gt;Node18</title>
<path fill="none" stroke="#63b8ff" d="M735.72,-109.51C746.78,-101.7 763.04,-90.21 776.17,-80.93"/>
<polygon fill="#63b8ff" stroke="#63b8ff" points="778.08,-83.86 784.23,-75.23 774.04,-78.14 778.08,-83.86"/>
</g>
<!-- Node19 -->
<g id="node19" class="node">
<title>Node19</title>
<g id="a_node19"><a xlink:title=" ">
<polygon fill="#e0e0e0" stroke="#999999" points="944.5,-74 845.5,-74 845.5,-55 944.5,-55 944.5,-74"/>
<text text-anchor="middle" x="895" y="-62" font-family="Helvetica,sans-Serif" font-size="10.00">gdk/gdkkeysyms.h</text>
</a>
</g>
</g>
<!-- Node6&#45;&gt;Node19 -->
<g id="edge18" class="edge">
<title>Node6&#45;&gt;Node19</title>
<path fill="none" stroke="#63b8ff" d="M748.38,-110.68C776.59,-101.99 822.5,-87.84 855.44,-77.69"/>
<polygon fill="#63b8ff" stroke="#63b8ff" points="856.09,-81.15 864.62,-74.86 854.03,-74.46 856.09,-81.15"/>
</g>
<!-- Node20 -->
<g id="node20" class="node">
<title>Node20</title>
<g id="a_node20"><a xlink:title=" ">
<polygon fill="#e0e0e0" stroke="#999999" points="1081,-74 963,-74 963,-55 1081,-55 1081,-74"/>
<text text-anchor="middle" x="1022" y="-62" font-family="Helvetica,sans-Serif" font-size="10.00">gdk&#45;pixbuf/gdk&#45;pixbuf.h</text>
</a>
</g>
</g>
<!-- Node6&#45;&gt;Node20 -->
<g id="edge19" class="edge">
<title>Node6&#45;&gt;Node20</title>
<path fill="none" stroke="#63b8ff" d="M748.2,-111.97C751.16,-111.27 754.14,-110.6 757,-110 822.55,-96.32 897.91,-83.99 951.46,-75.8"/>
<polygon fill="#63b8ff" stroke="#63b8ff" points="951.69,-79.31 961.05,-74.34 950.64,-72.39 951.69,-79.31"/>
</g>
<!-- Node21 -->
<g id="node21" class="node">
<title>Node21</title>
<g id="a_node21"><a xlink:title=" ">
<polygon fill="#e0e0e0" stroke="#999999" points="1191,-74 1099,-74 1099,-55 1191,-55 1191,-74"/>
<text text-anchor="middle" x="1145" y="-62" font-family="Helvetica,sans-Serif" font-size="10.00">pango/pangoft2.h</text>
</a>
</g>
</g>
<!-- Node6&#45;&gt;Node21 -->
<g id="edge20" class="edge">
<title>Node6&#45;&gt;Node21</title>
<path fill="none" stroke="#63b8ff" d="M748.17,-111.8C751.13,-111.13 754.12,-110.51 757,-110 899.98,-84.52 940.44,-92.93 1087.28,-74.29"/>
<polygon fill="#63b8ff" stroke="#63b8ff" points="1087.54,-77.78 1097.01,-73.03 1086.64,-70.84 1087.54,-77.78"/>
</g>
<!-- Node22 -->
<g id="node22" class="node">
<title>Node22</title>
<g id="a_node22"><a xlink:title=" ">
<polygon fill="#e0e0e0" stroke="#999999" points="1271,-74 1209,-74 1209,-55 1271,-55 1271,-74"/>
<text text-anchor="middle" x="1240" y="-62" font-family="Helvetica,sans-Serif" font-size="10.00">epoxy/gl.h</text>
</a>
</g>
</g>
<!-- Node6&#45;&gt;Node22 -->
<g id="edge21" class="edge">
<title>Node6&#45;&gt;Node22</title>
<path fill="none" stroke="#63b8ff" d="M748.15,-111.72C751.12,-111.07 754.12,-110.47 757,-110 948.3,-78.53 1002.54,-101.69 1197.42,-74.18"/>
<polygon fill="#63b8ff" stroke="#63b8ff" points="1197.73,-77.67 1207.13,-72.78 1196.73,-70.74 1197.73,-77.67"/>
</g>
<!-- Node23 -->
<g id="node23" class="node">
<title>Node23</title>
<g id="a_node23"><a xlink:title=" ">
<polygon fill="#e0e0e0" stroke="#999999" points="1342.5,-74 1289.5,-74 1289.5,-55 1342.5,-55 1342.5,-74"/>
<text text-anchor="middle" x="1316" y="-62" font-family="Helvetica,sans-Serif" font-size="10.00">GL/glu.h</text>
</a>
</g>
</g>
<!-- Node6&#45;&gt;Node23 -->
<g id="edge22" class="edge">
<title>Node6&#45;&gt;Node23</title>
<path fill="none" stroke="#63b8ff" d="M748.15,-111.69C751.12,-111.04 754.12,-110.46 757,-110 983.54,-74.17 1047.64,-107.8 1278.25,-73.96"/>
<polygon fill="#63b8ff" stroke="#63b8ff" points="1278.49,-77.47 1287.86,-72.53 1277.45,-70.54 1278.49,-77.47"/>
</g>
<!-- Node24 -->
<g id="node24" class="node">
<title>Node24</title>
<g id="a_node24"><a xlink:title=" ">
<polygon fill="#e0e0e0" stroke="#999999" points="1427.5,-74 1360.5,-74 1360.5,-55 1427.5,-55 1427.5,-74"/>
<text text-anchor="middle" x="1394" y="-62" font-family="Helvetica,sans-Serif" font-size="10.00">epoxy/glx.h</text>
</a>
</g>
</g>
<!-- Node6&#45;&gt;Node24 -->
<g id="edge23" class="edge">
<title>Node6&#45;&gt;Node24</title>
<path fill="none" stroke="#63b8ff" d="M748.15,-111.66C751.11,-111.02 754.11,-110.44 757,-110 1014.7,-70.33 1086.65,-106.66 1348.85,-74.06"/>
<polygon fill="#63b8ff" stroke="#63b8ff" points="1349.29,-77.53 1358.77,-72.8 1348.41,-70.59 1349.29,-77.53"/>
</g>
<!-- Node25 -->
<g id="node25" class="node">
<title>Node25</title>
<g id="a_node25"><a xlink:href="../../dc/db0/math__3d_8h.html" target="_top" xlink:title=" ">
<polygon fill="white" stroke="#666666" points="677,-74 615,-74 615,-55 677,-55 677,-74"/>
<text text-anchor="middle" x="646" y="-62" font-family="Helvetica,sans-Serif" font-size="10.00">math_3d.h</text>
</a>
</g>
</g>
<!-- Node6&#45;&gt;Node25 -->
<g id="edge24" class="edge">
<title>Node6&#45;&gt;Node25</title>
<path fill="none" stroke="#63b8ff" d="M709.94,-109.51C698.48,-101.62 681.57,-89.98 668.02,-80.65"/>
<polygon fill="#63b8ff" stroke="#63b8ff" points="670.34,-78 660.12,-75.22 666.37,-83.77 670.34,-78"/>
</g>
<!-- Node26 -->
<g id="node26" class="node">
<title>Node26</title>
<g id="a_node26"><a xlink:href="../../da/d7e/glwin_8h.html" target="_top" xlink:title=" ">
<polygon fill="white" stroke="#666666" points="1531.5,-74 1484.5,-74 1484.5,-55 1531.5,-55 1531.5,-74"/>
<text text-anchor="middle" x="1508" y="-62" font-family="Helvetica,sans-Serif" font-size="10.00">glwin.h</text>
</a>
</g>
</g>
<!-- Node6&#45;&gt;Node26 -->
<g id="edge27" class="edge">
<title>Node6&#45;&gt;Node26</title>
<path fill="none" stroke="#63b8ff" d="M748.14,-111.64C751.11,-111 754.11,-110.43 757,-110 1070.84,-63.3 1155.61,-116.78 1470,-74 1471.03,-73.86 1472.06,-73.71 1473.11,-73.54"/>
<polygon fill="#63b8ff" stroke="#63b8ff" points="1473.72,-76.99 1482.91,-71.71 1472.43,-70.11 1473.72,-76.99"/>
</g>
<!-- Node28 -->
<g id="node28" class="node">
<title>Node28</title>
<g id="a_node28"><a xlink:title=" ">
<polygon fill="#e0e0e0" stroke="#999999" points="1610,-74 1550,-74 1550,-55 1610,-55 1610,-74"/>
<text text-anchor="middle" x="1580" y="-62" font-family="Helvetica,sans-Serif" font-size="10.00">gtk/gtkx.h</text>
</a>
</g>
</g>
<!-- Node6&#45;&gt;Node28 -->
<g id="edge29" class="edge">
<title>Node6&#45;&gt;Node28</title>
<path fill="none" stroke="#63b8ff" d="M748.14,-111.62C751.11,-110.99 754.11,-110.42 757,-110 1098.42,-59.99 1193.12,-118.03 1538.51,-74.06"/>
<polygon fill="#63b8ff" stroke="#63b8ff" points="1538.89,-77.55 1548.35,-72.79 1537.99,-70.6 1538.89,-77.55"/>
</g>
<!-- Node25&#45;&gt;Node12 -->
<g id="edge26" class="edge">
<title>Node25&#45;&gt;Node12</title>
<path fill="none" stroke="#63b8ff" d="M630.9,-54.51C617.4,-46.47 597.35,-34.53 581.54,-25.11"/>
<polygon fill="#63b8ff" stroke="#63b8ff" points="583.56,-22.24 573.18,-20.13 579.98,-28.26 583.56,-22.24"/>
</g>
<!-- Node25&#45;&gt;Node16 -->
<g id="edge25" class="edge">
<title>Node25&#45;&gt;Node16</title>
<path fill="none" stroke="#63b8ff" d="M660.93,-54.51C674.28,-46.47 694.11,-34.53 709.74,-25.11"/>
<polygon fill="#63b8ff" stroke="#63b8ff" points="711.24,-28.3 718,-20.14 707.62,-22.3 711.24,-28.3"/>
</g>
<!-- Node27 -->
<g id="node27" class="node">
<title>Node27</title>
<g id="a_node27"><a xlink:href="../../d5/d9e/ogl__shading_8h.html" target="_top" xlink:title=" ">
<polygon fill="white" stroke="#666666" points="1546.5,-19 1469.5,-19 1469.5,0 1546.5,0 1546.5,-19"/>
<text text-anchor="middle" x="1508" y="-7" font-family="Helvetica,sans-Serif" font-size="10.00">ogl_shading.h</text>
</a>
</g>
</g>
<!-- Node26&#45;&gt;Node27 -->
<g id="edge28" class="edge">
<title>Node26&#45;&gt;Node27</title>
<path fill="none" stroke="#63b8ff" d="M1508,-54.75C1508,-48.27 1508,-39.16 1508,-30.9"/>
<polygon fill="#63b8ff" stroke="#63b8ff" points="1511.5,-30.96 1508,-20.96 1504.5,-30.96 1511.5,-30.96"/>
</g>
</g>
</svg>
