<?xml version="1.0" encoding="UTF-8" standalone="no"?>
<!DOCTYPE svg PUBLIC "-//W3C//DTD SVG 1.1//EN"
 "http://www.w3.org/Graphics/SVG/1.1/DTD/svg11.dtd">
<!-- Generated by graphviz version 9.0.0 (20230911.1827)
 -->
<!-- Title: curve/yaxis.c Pages: 1 -->
<svg width="1632pt" height="252pt"
 viewBox="0.00 0.00 1632.00 252.00" xmlns="http://www.w3.org/2000/svg" xmlns:xlink="http://www.w3.org/1999/xlink">
<g id="graph0" class="graph" transform="scale(1 1) rotate(0) translate(4 248)">
<title>curve/yaxis.c</title>
<!-- Node1 -->
<g id="Node000001" class="node">
<title>Node1</title>
<g id="a_Node000001"><a xlink:title="Functions to draw the y axis.">
<polygon fill="#999999" stroke="#666666" points="662.25,-244 587.75,-244 587.75,-224 662.25,-224 662.25,-244"/>
<text text-anchor="middle" x="625" y="-230.5" font-family="Helvetica,sans-Serif" font-size="10.00">curve/yaxis.c</text>
</a>
</g>
</g>
<!-- Node2 -->
<g id="Node000002" class="node">
<title>Node2</title>
<g id="a_Node000002"><a xlink:title=" ">
<polygon fill="#e0e0e0" stroke="#999999" points="46,-20 0,-20 0,0 46,0 46,-20"/>
<text text-anchor="middle" x="23" y="-6.5" font-family="Helvetica,sans-Serif" font-size="10.00">math.h</text>
</a>
</g>
</g>
<!-- Node1&#45;&gt;Node2 -->
<g id="edge1_Node000001_Node000002" class="edge">
<title>Node1&#45;&gt;Node2</title>
<g id="a_edge1_Node000001_Node000002"><a xlink:title=" ">
<path fill="none" stroke="#63b8ff" d="M587.65,-228.98C467.83,-215.28 96.8,-166.1 25,-76 15.1,-63.57 15.48,-45.16 17.83,-31.1"/>
<polygon fill="#63b8ff" stroke="#63b8ff" points="21.19,-32.12 19.88,-21.61 14.35,-30.64 21.19,-32.12"/>
</a>
</g>
</g>
<!-- Node3 -->
<g id="Node000003" class="node">
<title>Node3</title>
<g id="a_Node000003"><a xlink:title=" ">
<polygon fill="#e0e0e0" stroke="#999999" points="738.62,-188 693.38,-188 693.38,-168 738.62,-168 738.62,-188"/>
<text text-anchor="middle" x="716" y="-174.5" font-family="Helvetica,sans-Serif" font-size="10.00">cairo.h</text>
</a>
</g>
</g>
<!-- Node1&#45;&gt;Node3 -->
<g id="edge2_Node000001_Node000003" class="edge">
<title>Node1&#45;&gt;Node3</title>
<g id="a_edge2_Node000001_Node000003"><a xlink:title=" ">
<path fill="none" stroke="#63b8ff" d="M640.85,-223.59C654.47,-215.51 674.36,-203.71 690.26,-194.27"/>
<polygon fill="#63b8ff" stroke="#63b8ff" points="691.91,-197.37 698.72,-189.25 688.34,-191.35 691.91,-197.37"/>
</a>
</g>
</g>
<!-- Node4 -->
<g id="Node000004" class="node">
<title>Node4</title>
<g id="a_Node000004"><a xlink:href="../../d2/d49/global_8h.html" target="_top" xlink:title="Global variable declarations &#160;&#160;Global convenience function declarations &#160;&#160;Global data structure defin...">
<polygon fill="white" stroke="#666666" points="675.88,-132 626.12,-132 626.12,-112 675.88,-112 675.88,-132"/>
<text text-anchor="middle" x="651" y="-118.5" font-family="Helvetica,sans-Serif" font-size="10.00">global.h</text>
</a>
</g>
</g>
<!-- Node1&#45;&gt;Node4 -->
<g id="edge3_Node000001_Node000004" class="edge">
<title>Node1&#45;&gt;Node4</title>
<g id="a_edge3_Node000001_Node000004"><a xlink:title=" ">
<path fill="none" stroke="#63b8ff" d="M621.7,-223.92C617.55,-211.13 611.71,-187.2 618,-168 621.26,-158.05 627.64,-148.48 633.94,-140.75"/>
<polygon fill="#63b8ff" stroke="#63b8ff" points="636.38,-143.27 640.35,-133.45 631.12,-138.65 636.38,-143.27"/>
</a>
</g>
</g>
<!-- Node26 -->
<g id="Node000026" class="node">
<title>Node26</title>
<g id="a_Node000026"><a xlink:href="../../df/de9/curve_8h.html" target="_top" xlink:title="Variable declarations for the curve widget &#160;&#160;Functions for interactions with the curve widget.">
<polygon fill="white" stroke="#666666" points="675.12,-188 626.88,-188 626.88,-168 675.12,-168 675.12,-188"/>
<text text-anchor="middle" x="651" y="-174.5" font-family="Helvetica,sans-Serif" font-size="10.00">curve.h</text>
</a>
</g>
</g>
<!-- Node1&#45;&gt;Node26 -->
<g id="edge28_Node000001_Node000026" class="edge">
<title>Node1&#45;&gt;Node26</title>
<g id="a_edge28_Node000001_Node000026"><a xlink:title=" ">
<path fill="none" stroke="#63b8ff" d="M629.53,-223.59C632.85,-216.7 637.47,-207.1 641.58,-198.57"/>
<polygon fill="#63b8ff" stroke="#63b8ff" points="644.68,-200.19 645.87,-189.66 638.37,-197.15 644.68,-200.19"/>
</a>
</g>
</g>
<!-- Node4&#45;&gt;Node2 -->
<g id="edge13_Node000004_Node000002" class="edge">
<title>Node4&#45;&gt;Node2</title>
<g id="a_edge13_Node000004_Node000002"><a xlink:title=" ">
<path fill="none" stroke="#63b8ff" d="M625.91,-120.81C516.92,-119.74 88.01,-113.21 42,-76 28.86,-65.37 24.49,-46.18 23.18,-31.4"/>
<polygon fill="#63b8ff" stroke="#63b8ff" points="26.69,-31.65 22.74,-21.82 19.7,-31.96 26.69,-31.65"/>
</a>
</g>
</g>
<!-- Node5 -->
<g id="Node000005" class="node">
<title>Node5</title>
<g id="a_Node000005"><a xlink:title=" ">
<polygon fill="#e0e0e0" stroke="#999999" points="170.62,-76 131.38,-76 131.38,-56 170.62,-56 170.62,-76"/>
<text text-anchor="middle" x="151" y="-62.5" font-family="Helvetica,sans-Serif" font-size="10.00">glib.h</text>
</a>
</g>
</g>
<!-- Node4&#45;&gt;Node5 -->
<g id="edge4_Node000004_Node000005" class="edge">
<title>Node4&#45;&gt;Node5</title>
<g id="a_edge4_Node000004_Node000005"><a xlink:title=" ">
<path fill="none" stroke="#63b8ff" d="M625.64,-120.5C555.97,-118.73 355.75,-110.94 182.18,-76.28"/>
<polygon fill="#63b8ff" stroke="#63b8ff" points="183.03,-72.89 172.53,-74.32 181.63,-79.74 183.03,-72.89"/>
</a>
</g>
</g>
<!-- Node6 -->
<g id="Node000006" class="node">
<title>Node6</title>
<g id="a_Node000006"><a xlink:title=" ">
<polygon fill="#e0e0e0" stroke="#999999" points="253.75,-76 188.25,-76 188.25,-56 253.75,-56 253.75,-76"/>
<text text-anchor="middle" x="221" y="-62.5" font-family="Helvetica,sans-Serif" font-size="10.00">glib/gi18n.h</text>
</a>
</g>
</g>
<!-- Node4&#45;&gt;Node6 -->
<g id="edge5_Node000004_Node000006" class="edge">
<title>Node4&#45;&gt;Node6</title>
<g id="a_edge5_Node000004_Node000006"><a xlink:title=" ">
<path fill="none" stroke="#63b8ff" d="M625.92,-118.93C565.6,-113.77 407.47,-99.2 265.05,-76.19"/>
<polygon fill="#63b8ff" stroke="#63b8ff" points="265.89,-72.78 255.45,-74.62 264.76,-79.69 265.89,-72.78"/>
</a>
</g>
</g>
<!-- Node7 -->
<g id="Node000007" class="node">
<title>Node7</title>
<g id="a_Node000007"><a xlink:title=" ">
<polygon fill="#e0e0e0" stroke="#999999" points="321.88,-76 272.12,-76 272.12,-56 321.88,-56 321.88,-76"/>
<text text-anchor="middle" x="297" y="-62.5" font-family="Helvetica,sans-Serif" font-size="10.00">locale.h</text>
</a>
</g>
</g>
<!-- Node4&#45;&gt;Node7 -->
<g id="edge6_Node000004_Node000007" class="edge">
<title>Node4&#45;&gt;Node7</title>
<g id="a_edge6_Node000004_Node000007"><a xlink:title=" ">
<path fill="none" stroke="#63b8ff" d="M625.93,-118.5C573.46,-113.06 448.05,-98.91 333.25,-76.24"/>
<polygon fill="#63b8ff" stroke="#63b8ff" points="334.15,-72.85 323.66,-74.32 332.77,-79.72 334.15,-72.85"/>
</a>
</g>
</g>
<!-- Node8 -->
<g id="Node000008" class="node">
<title>Node8</title>
<g id="a_Node000008"><a xlink:title=" ">
<polygon fill="#e0e0e0" stroke="#999999" points="390.25,-76 339.75,-76 339.75,-56 390.25,-56 390.25,-76"/>
<text text-anchor="middle" x="365" y="-62.5" font-family="Helvetica,sans-Serif" font-size="10.00">unistd.h</text>
</a>
</g>
</g>
<!-- Node4&#45;&gt;Node8 -->
<g id="edge7_Node000004_Node000008" class="edge">
<title>Node4&#45;&gt;Node8</title>
<g id="a_edge7_Node000004_Node000008"><a xlink:title=" ">
<path fill="none" stroke="#63b8ff" d="M625.83,-117.21C582.19,-110.48 489.47,-95.53 401.78,-76.48"/>
<polygon fill="#63b8ff" stroke="#63b8ff" points="402.56,-73.06 392.04,-74.33 401.06,-79.9 402.56,-73.06"/>
</a>
</g>
</g>
<!-- Node9 -->
<g id="Node000009" class="node">
<title>Node9</title>
<g id="a_Node000009"><a xlink:title=" ">
<polygon fill="#e0e0e0" stroke="#999999" points="456.12,-76 407.88,-76 407.88,-56 456.12,-56 456.12,-76"/>
<text text-anchor="middle" x="432" y="-62.5" font-family="Helvetica,sans-Serif" font-size="10.00">string.h</text>
</a>
</g>
</g>
<!-- Node4&#45;&gt;Node9 -->
<g id="edge8_Node000004_Node000009" class="edge">
<title>Node4&#45;&gt;Node9</title>
<g id="a_edge8_Node000004_Node000009"><a xlink:title=" ">
<path fill="none" stroke="#63b8ff" d="M625.88,-114.81C587,-105.22 512.1,-86.75 467.64,-75.79"/>
<polygon fill="#63b8ff" stroke="#63b8ff" points="468.51,-72.4 457.96,-73.4 466.84,-79.19 468.51,-72.4"/>
</a>
</g>
</g>
<!-- Node10 -->
<g id="Node000010" class="node">
<title>Node10</title>
<g id="a_Node000010"><a xlink:title=" ">
<polygon fill="#e0e0e0" stroke="#999999" points="308.62,-20 263.38,-20 263.38,0 308.62,0 308.62,-20"/>
<text text-anchor="middle" x="286" y="-6.5" font-family="Helvetica,sans-Serif" font-size="10.00">stdio.h</text>
</a>
</g>
</g>
<!-- Node4&#45;&gt;Node10 -->
<g id="edge9_Node000004_Node000010" class="edge">
<title>Node4&#45;&gt;Node10</title>
<g id="a_edge9_Node000004_Node000010"><a xlink:title=" ">
<path fill="none" stroke="#63b8ff" d="M625.88,-114.92C596.03,-107.33 544.98,-93.25 503,-76 485.35,-68.75 482.83,-62.82 465,-56 415.99,-37.25 356.42,-24.07 319.87,-17.01"/>
<polygon fill="#63b8ff" stroke="#63b8ff" points="320.82,-13.63 310.34,-15.22 319.52,-20.51 320.82,-13.63"/>
</a>
</g>
</g>
<!-- Node11 -->
<g id="Node000011" class="node">
<title>Node11</title>
<g id="a_Node000011"><a xlink:title=" ">
<polygon fill="#e0e0e0" stroke="#999999" points="559.75,-76 512.25,-76 512.25,-56 559.75,-56 559.75,-76"/>
<text text-anchor="middle" x="536" y="-62.5" font-family="Helvetica,sans-Serif" font-size="10.00">stdlib.h</text>
</a>
</g>
</g>
<!-- Node4&#45;&gt;Node11 -->
<g id="edge10_Node000004_Node000011" class="edge">
<title>Node4&#45;&gt;Node11</title>
<g id="a_edge10_Node000004_Node000011"><a xlink:title=" ">
<path fill="none" stroke="#63b8ff" d="M630.97,-111.59C613.19,-103.24 586.93,-90.92 566.54,-81.34"/>
<polygon fill="#63b8ff" stroke="#63b8ff" points="568.1,-78.21 557.56,-77.12 565.12,-84.54 568.1,-78.21"/>
</a>
</g>
</g>
<!-- Node12 -->
<g id="Node000012" class="node">
<title>Node12</title>
<g id="a_Node000012"><a xlink:title=" ">
<polygon fill="#e0e0e0" stroke="#999999" points="644.5,-76 577.5,-76 577.5,-56 644.5,-56 644.5,-76"/>
<text text-anchor="middle" x="611" y="-62.5" font-family="Helvetica,sans-Serif" font-size="10.00">sys/types.h</text>
</a>
</g>
</g>
<!-- Node4&#45;&gt;Node12 -->
<g id="edge11_Node000004_Node000012" class="edge">
<title>Node4&#45;&gt;Node12</title>
<g id="a_edge11_Node000004_Node000012"><a xlink:title=" ">
<path fill="none" stroke="#63b8ff" d="M644.03,-111.59C638.7,-104.39 631.17,-94.23 624.65,-85.43"/>
<polygon fill="#63b8ff" stroke="#63b8ff" points="627.55,-83.47 618.79,-77.51 621.93,-87.63 627.55,-83.47"/>
</a>
</g>
</g>
<!-- Node13 -->
<g id="Node000013" class="node">
<title>Node13</title>
<g id="a_Node000013"><a xlink:title=" ">
<polygon fill="#e0e0e0" stroke="#999999" points="721.75,-76 662.25,-76 662.25,-56 721.75,-56 721.75,-76"/>
<text text-anchor="middle" x="692" y="-62.5" font-family="Helvetica,sans-Serif" font-size="10.00">sys/stat.h</text>
</a>
</g>
</g>
<!-- Node4&#45;&gt;Node13 -->
<g id="edge12_Node000004_Node000013" class="edge">
<title>Node4&#45;&gt;Node13</title>
<g id="a_edge12_Node000004_Node000013"><a xlink:title=" ">
<path fill="none" stroke="#63b8ff" d="M658.14,-111.59C663.61,-104.39 671.32,-94.23 678.01,-85.43"/>
<polygon fill="#63b8ff" stroke="#63b8ff" points="680.77,-87.58 684.02,-77.5 675.19,-83.35 680.77,-87.58"/>
</a>
</g>
</g>
<!-- Node14 -->
<g id="Node000014" class="node">
<title>Node14</title>
<g id="a_Node000014"><a xlink:title=" ">
<polygon fill="#e0e0e0" stroke="#999999" points="794.12,-76 739.88,-76 739.88,-56 794.12,-56 794.12,-76"/>
<text text-anchor="middle" x="767" y="-62.5" font-family="Helvetica,sans-Serif" font-size="10.00">gtk/gtk.h</text>
</a>
</g>
</g>
<!-- Node4&#45;&gt;Node14 -->
<g id="edge14_Node000004_Node000014" class="edge">
<title>Node4&#45;&gt;Node14</title>
<g id="a_edge14_Node000004_Node000014"><a xlink:title=" ">
<path fill="none" stroke="#63b8ff" d="M671.21,-111.59C689.23,-103.21 715.87,-90.8 736.48,-81.21"/>
<polygon fill="#63b8ff" stroke="#63b8ff" points="737.68,-84.51 745.26,-77.12 734.72,-78.17 737.68,-84.51"/>
</a>
</g>
</g>
<!-- Node15 -->
<g id="Node000015" class="node">
<title>Node15</title>
<g id="a_Node000015"><a xlink:title=" ">
<polygon fill="#e0e0e0" stroke="#999999" points="871.75,-76 812.25,-76 812.25,-56 871.75,-56 871.75,-76"/>
<text text-anchor="middle" x="842" y="-62.5" font-family="Helvetica,sans-Serif" font-size="10.00">gtk/gtkx.h</text>
</a>
</g>
</g>
<!-- Node4&#45;&gt;Node15 -->
<g id="edge15_Node000004_Node000015" class="edge">
<title>Node4&#45;&gt;Node15</title>
<g id="a_edge15_Node000004_Node000015"><a xlink:title=" ">
<path fill="none" stroke="#63b8ff" d="M676.36,-113.83C708.23,-104.82 763.31,-89.25 801.14,-78.55"/>
<polygon fill="#63b8ff" stroke="#63b8ff" points="801.68,-82.04 810.35,-75.95 799.77,-75.3 801.68,-82.04"/>
</a>
</g>
</g>
<!-- Node16 -->
<g id="Node000016" class="node">
<title>Node16</title>
<g id="a_Node000016"><a xlink:title=" ">
<polygon fill="#e0e0e0" stroke="#999999" points="948.38,-76 889.62,-76 889.62,-56 948.38,-56 948.38,-76"/>
<text text-anchor="middle" x="919" y="-62.5" font-family="Helvetica,sans-Serif" font-size="10.00">gdk/gdk.h</text>
</a>
</g>
</g>
<!-- Node4&#45;&gt;Node16 -->
<g id="edge16_Node000004_Node000016" class="edge">
<title>Node4&#45;&gt;Node16</title>
<g id="a_edge16_Node000004_Node000016"><a xlink:title=" ">
<path fill="none" stroke="#63b8ff" d="M676.25,-116.4C716.75,-108.94 799,-93.5 878.03,-76.58"/>
<polygon fill="#63b8ff" stroke="#63b8ff" points="878.64,-80.03 887.67,-74.5 877.16,-73.19 878.64,-80.03"/>
</a>
</g>
</g>
<!-- Node17 -->
<g id="Node000017" class="node">
<title>Node17</title>
<g id="a_Node000017"><a xlink:title=" ">
<polygon fill="#e0e0e0" stroke="#999999" points="1065.25,-76 966.75,-76 966.75,-56 1065.25,-56 1065.25,-76"/>
<text text-anchor="middle" x="1016" y="-62.5" font-family="Helvetica,sans-Serif" font-size="10.00">gdk/gdkkeysyms.h</text>
</a>
</g>
</g>
<!-- Node4&#45;&gt;Node17 -->
<g id="edge17_Node000004_Node000017" class="edge">
<title>Node4&#45;&gt;Node17</title>
<g id="a_edge17_Node000004_Node000017"><a xlink:title=" ">
<path fill="none" stroke="#63b8ff" d="M676,-117.37C726.47,-110.03 844.47,-92.82 955.06,-76.28"/>
<polygon fill="#63b8ff" stroke="#63b8ff" points="955.56,-79.75 964.93,-74.81 954.52,-72.82 955.56,-79.75"/>
</a>
</g>
</g>
<!-- Node18 -->
<g id="Node000018" class="node">
<title>Node18</title>
<g id="a_Node000018"><a xlink:title=" ">
<polygon fill="#e0e0e0" stroke="#999999" points="1200.62,-76 1083.38,-76 1083.38,-56 1200.62,-56 1200.62,-76"/>
<text text-anchor="middle" x="1142" y="-62.5" font-family="Helvetica,sans-Serif" font-size="10.00">gdk&#45;pixbuf/gdk&#45;pixbuf.h</text>
</a>
</g>
</g>
<!-- Node4&#45;&gt;Node18 -->
<g id="edge18_Node000004_Node000018" class="edge">
<title>Node4&#45;&gt;Node18</title>
<g id="a_edge18_Node000004_Node000018"><a xlink:title=" ">
<path fill="none" stroke="#63b8ff" d="M676.29,-118.54C740.43,-112.24 914.87,-94.83 1071.77,-76.24"/>
<polygon fill="#63b8ff" stroke="#63b8ff" points="1072.02,-79.73 1081.54,-75.08 1071.19,-72.78 1072.02,-79.73"/>
</a>
</g>
</g>
<!-- Node19 -->
<g id="Node000019" class="node">
<title>Node19</title>
<g id="a_Node000019"><a xlink:title=" ">
<polygon fill="#e0e0e0" stroke="#999999" points="1309.5,-76 1218.5,-76 1218.5,-56 1309.5,-56 1309.5,-76"/>
<text text-anchor="middle" x="1264" y="-62.5" font-family="Helvetica,sans-Serif" font-size="10.00">pango/pangoft2.h</text>
</a>
</g>
</g>
<!-- Node4&#45;&gt;Node19 -->
<g id="edge19_Node000004_Node000019" class="edge">
<title>Node4&#45;&gt;Node19</title>
<g id="a_edge19_Node000004_Node000019"><a xlink:title=" ">
<path fill="none" stroke="#63b8ff" d="M676.15,-119.74C753.66,-115.69 995.94,-101.83 1206.79,-76.31"/>
<polygon fill="#63b8ff" stroke="#63b8ff" points="1207.08,-79.8 1216.58,-75.11 1206.23,-72.85 1207.08,-79.8"/>
</a>
</g>
</g>
<!-- Node20 -->
<g id="Node000020" class="node">
<title>Node20</title>
<g id="a_Node000020"><a xlink:title=" ">
<polygon fill="#e0e0e0" stroke="#999999" points="1388.5,-76 1327.5,-76 1327.5,-56 1388.5,-56 1388.5,-76"/>
<text text-anchor="middle" x="1358" y="-62.5" font-family="Helvetica,sans-Serif" font-size="10.00">epoxy/gl.h</text>
</a>
</g>
</g>
<!-- Node4&#45;&gt;Node20 -->
<g id="edge20_Node000004_Node000020" class="edge">
<title>Node4&#45;&gt;Node20</title>
<g id="a_edge20_Node000004_Node000020"><a xlink:title=" ">
<path fill="none" stroke="#63b8ff" d="M676.33,-120.75C763.82,-119.56 1061.46,-113.02 1315.7,-76.28"/>
<polygon fill="#63b8ff" stroke="#63b8ff" points="1316.12,-79.76 1325.51,-74.84 1315.11,-72.83 1316.12,-79.76"/>
</a>
</g>
</g>
<!-- Node21 -->
<g id="Node000021" class="node">
<title>Node21</title>
<g id="a_Node000021"><a xlink:title=" ">
<polygon fill="#e0e0e0" stroke="#999999" points="1459.38,-76 1406.62,-76 1406.62,-56 1459.38,-56 1459.38,-76"/>
<text text-anchor="middle" x="1433" y="-62.5" font-family="Helvetica,sans-Serif" font-size="10.00">GL/glu.h</text>
</a>
</g>
</g>
<!-- Node4&#45;&gt;Node21 -->
<g id="edge21_Node000004_Node000021" class="edge">
<title>Node4&#45;&gt;Node21</title>
<g id="a_edge21_Node000004_Node000021"><a xlink:title=" ">
<path fill="none" stroke="#63b8ff" d="M676.34,-121.22C770.45,-121.69 1108.82,-120.13 1395.33,-76.13"/>
<polygon fill="#63b8ff" stroke="#63b8ff" points="1395.52,-79.64 1404.86,-74.64 1394.44,-72.73 1395.52,-79.64"/>
</a>
</g>
</g>
<!-- Node22 -->
<g id="Node000022" class="node">
<title>Node22</title>
<g id="a_Node000022"><a xlink:title=" ">
<polygon fill="#e0e0e0" stroke="#999999" points="1544.12,-76 1477.88,-76 1477.88,-56 1544.12,-56 1544.12,-76"/>
<text text-anchor="middle" x="1511" y="-62.5" font-family="Helvetica,sans-Serif" font-size="10.00">epoxy/glx.h</text>
</a>
</g>
</g>
<!-- Node4&#45;&gt;Node22 -->
<g id="edge22_Node000004_Node000022" class="edge">
<title>Node4&#45;&gt;Node22</title>
<g id="a_edge22_Node000004_Node000022"><a xlink:title=" ">
<path fill="none" stroke="#63b8ff" d="M676.2,-121C775.44,-120.7 1148.9,-116.86 1466.48,-75.95"/>
<polygon fill="#63b8ff" stroke="#63b8ff" points="1466.79,-79.44 1476.25,-74.67 1465.88,-72.5 1466.79,-79.44"/>
</a>
</g>
</g>
<!-- Node23 -->
<g id="Node000023" class="node">
<title>Node23</title>
<g id="a_Node000023"><a xlink:href="../../dc/db0/math__3d_8h.html" target="_top" xlink:title="Functions for OpenGL math.">
<polygon fill="white" stroke="#666666" points="112.88,-76 51.12,-76 51.12,-56 112.88,-56 112.88,-76"/>
<text text-anchor="middle" x="82" y="-62.5" font-family="Helvetica,sans-Serif" font-size="10.00">math_3d.h</text>
</a>
</g>
</g>
<!-- Node4&#45;&gt;Node23 -->
<g id="edge23_Node000004_Node000023" class="edge">
<title>Node4&#45;&gt;Node23</title>
<g id="a_edge23_Node000004_Node000023"><a xlink:title=" ">
<path fill="none" stroke="#63b8ff" d="M625.8,-120.08C550.91,-117.08 323.1,-106.11 124.59,-76.2"/>
<polygon fill="#63b8ff" stroke="#63b8ff" points="125.28,-72.76 114.86,-74.71 124.22,-79.68 125.28,-72.76"/>
</a>
</g>
</g>
<!-- Node24 -->
<g id="Node000024" class="node">
<title>Node24</title>
<g id="a_Node000024"><a xlink:href="../../da/d7e/glwin_8h.html" target="_top" xlink:title="Variable declarations related the OpenGL window &#160;&#160;Data structure declarations related the OpenGL wind...">
<polygon fill="white" stroke="#666666" points="1609.38,-76 1562.62,-76 1562.62,-56 1609.38,-56 1609.38,-76"/>
<text text-anchor="middle" x="1586" y="-62.5" font-family="Helvetica,sans-Serif" font-size="10.00">glwin.h</text>
</a>
</g>
</g>
<!-- Node4&#45;&gt;Node24 -->
<g id="edge26_Node000004_Node000024" class="edge">
<title>Node4&#45;&gt;Node24</title>
<g id="a_edge26_Node000004_Node000024"><a xlink:title=" ">
<path fill="none" stroke="#63b8ff" d="M676.34,-120.48C801.48,-117.78 1355.03,-104.54 1551.06,-75.84"/>
<polygon fill="#63b8ff" stroke="#63b8ff" points="1551.49,-79.32 1560.84,-74.34 1550.43,-72.4 1551.49,-79.32"/>
</a>
</g>
</g>
<!-- Node23&#45;&gt;Node2 -->
<g id="edge24_Node000023_Node000002" class="edge">
<title>Node23&#45;&gt;Node2</title>
<g id="a_edge24_Node000023_Node000002"><a xlink:title=" ">
<path fill="none" stroke="#63b8ff" d="M71.72,-55.59C63.43,-48.01 51.55,-37.13 41.6,-28.02"/>
<polygon fill="#63b8ff" stroke="#63b8ff" points="44.02,-25.49 34.28,-21.32 39.29,-30.65 44.02,-25.49"/>
</a>
</g>
</g>
<!-- Node23&#45;&gt;Node10 -->
<g id="edge25_Node000023_Node000010" class="edge">
<title>Node23&#45;&gt;Node10</title>
<g id="a_edge25_Node000023_Node000010"><a xlink:title=" ">
<path fill="none" stroke="#63b8ff" d="M112.98,-56.8C150.52,-46.86 213.53,-30.18 252.26,-19.93"/>
<polygon fill="#63b8ff" stroke="#63b8ff" points="252.74,-23.43 261.51,-17.48 250.95,-16.66 252.74,-23.43"/>
</a>
</g>
</g>
<!-- Node25 -->
<g id="Node000025" class="node">
<title>Node25</title>
<g id="a_Node000025"><a xlink:href="../../d5/d9e/ogl__shading_8h.html" target="_top" xlink:title="Variable declarations related to GLSL programs &#160;&#160;Data structure declarations related to GLSL programs...">
<polygon fill="white" stroke="#666666" points="1624,-20 1548,-20 1548,0 1624,0 1624,-20"/>
<text text-anchor="middle" x="1586" y="-6.5" font-family="Helvetica,sans-Serif" font-size="10.00">ogl_shading.h</text>
</a>
</g>
</g>
<!-- Node24&#45;&gt;Node25 -->
<g id="edge27_Node000024_Node000025" class="edge">
<title>Node24&#45;&gt;Node25</title>
<g id="a_edge27_Node000024_Node000025"><a xlink:title=" ">
<path fill="none" stroke="#63b8ff" d="M1586,-55.59C1586,-49.01 1586,-39.96 1586,-31.73"/>
<polygon fill="#63b8ff" stroke="#63b8ff" points="1589.5,-31.81 1586,-21.81 1582.5,-31.81 1589.5,-31.81"/>
</a>
</g>
</g>
<!-- Node26&#45;&gt;Node4 -->
<g id="edge29_Node000026_Node000004" class="edge">
<title>Node26&#45;&gt;Node4</title>
<g id="a_edge29_Node000026_Node000004"><a xlink:title=" ">
<path fill="none" stroke="#63b8ff" d="M651,-167.59C651,-161.01 651,-151.96 651,-143.73"/>
<polygon fill="#63b8ff" stroke="#63b8ff" points="654.5,-143.81 651,-133.81 647.5,-143.81 654.5,-143.81"/>
</a>
</g>
</g>
</g>
</svg>
