<?xml version="1.0" encoding="UTF-8" standalone="no"?>
<!DOCTYPE svg PUBLIC "-//W3C//DTD SVG 1.1//EN"
 "http://www.w3.org/Graphics/SVG/1.1/DTD/svg11.dtd">
<!-- Generated by graphviz version 2.43.0 (0)
 -->
<!-- Title: curve/labels.c Pages: 1 -->
<svg width="1972pt" height="247pt"
 viewBox="0.00 0.00 1972.00 247.00" xmlns="http://www.w3.org/2000/svg" xmlns:xlink="http://www.w3.org/1999/xlink">
<g id="graph0" class="graph" transform="scale(1 1) rotate(0) translate(4 243)">
<title>curve/labels.c</title>
<!-- Node1 -->
<g id="Node000001" class="node">
<title>Node1</title>
<g id="a_Node000001"><a xlink:title="Function to draw the axis labels.">
<polygon fill="#999999" stroke="#666666" points="1433.5,-239 1349.5,-239 1349.5,-220 1433.5,-220 1433.5,-239"/>
<text text-anchor="middle" x="1391.5" y="-227" font-family="Helvetica,sans-Serif" font-size="10.00">curve/labels.c</text>
</a>
</g>
</g>
<!-- Node2 -->
<g id="Node000002" class="node">
<title>Node2</title>
<g id="a_Node000002"><a xlink:title=" ">
<polygon fill="#e0e0e0" stroke="#999999" points="53,-74 0,-74 0,-55 53,-55 53,-74"/>
<text text-anchor="middle" x="26.5" y="-62" font-family="Helvetica,sans-Serif" font-size="10.00">string.h</text>
</a>
</g>
</g>
<!-- Node1&#45;&gt;Node2 -->
<g id="edge1_Node000001_Node000002" class="edge">
<title>Node1&#45;&gt;Node2</title>
<g id="a_edge1_Node000001_Node000002"><a xlink:title=" ">
<path fill="none" stroke="#63b8ff" d="M1349.35,-225.39C1185.24,-212.92 573.39,-162.93 63.31,-73.94"/>
<polygon fill="#63b8ff" stroke="#63b8ff" points="63.62,-70.44 53.16,-72.16 62.41,-77.33 63.62,-70.44"/>
</a>
</g>
</g>
<!-- Node3 -->
<g id="Node000003" class="node">
<title>Node3</title>
<g id="a_Node000003"><a xlink:title=" ">
<polygon fill="#e0e0e0" stroke="#999999" points="1742,-19 1691,-19 1691,0 1742,0 1742,-19"/>
<text text-anchor="middle" x="1716.5" y="-7" font-family="Helvetica,sans-Serif" font-size="10.00">math.h</text>
</a>
</g>
</g>
<!-- Node1&#45;&gt;Node3 -->
<g id="edge2_Node000001_Node000003" class="edge">
<title>Node1&#45;&gt;Node3</title>
<g id="a_edge2_Node000001_Node000003"><a xlink:title=" ">
<path fill="none" stroke="#63b8ff" d="M1433.51,-222.9C1506.29,-210.67 1654.13,-174.17 1717.5,-74 1725.88,-60.75 1724.64,-42.63 1721.89,-29.14"/>
<polygon fill="#63b8ff" stroke="#63b8ff" points="1725.2,-27.96 1719.39,-19.1 1718.41,-29.65 1725.2,-27.96"/>
</a>
</g>
</g>
<!-- Node4 -->
<g id="Node000004" class="node">
<title>Node4</title>
<g id="a_Node000004"><a xlink:title=" ">
<polygon fill="#e0e0e0" stroke="#999999" points="1832.5,-184 1782.5,-184 1782.5,-165 1832.5,-165 1832.5,-184"/>
<text text-anchor="middle" x="1807.5" y="-172" font-family="Helvetica,sans-Serif" font-size="10.00">cairo.h</text>
</a>
</g>
</g>
<!-- Node1&#45;&gt;Node4 -->
<g id="edge3_Node000001_Node000004" class="edge">
<title>Node1&#45;&gt;Node4</title>
<g id="a_edge3_Node000001_Node000004"><a xlink:title=" ">
<path fill="none" stroke="#63b8ff" d="M1433.53,-224.88C1503.37,-218.57 1647.6,-204.26 1768.5,-184 1769.77,-183.79 1771.06,-183.56 1772.36,-183.32"/>
<polygon fill="#63b8ff" stroke="#63b8ff" points="1773.26,-186.71 1782.39,-181.35 1771.91,-179.85 1773.26,-186.71"/>
</a>
</g>
</g>
<!-- Node5 -->
<g id="Node000005" class="node">
<title>Node5</title>
<g id="a_Node000005"><a xlink:title=" ">
<polygon fill="#e0e0e0" stroke="#999999" points="1964,-184 1851,-184 1851,-165 1964,-165 1964,-184"/>
<text text-anchor="middle" x="1907.5" y="-172" font-family="Helvetica,sans-Serif" font-size="10.00">pango/pangocairo.h</text>
</a>
</g>
</g>
<!-- Node1&#45;&gt;Node5 -->
<g id="edge4_Node000001_Node000005" class="edge">
<title>Node1&#45;&gt;Node5</title>
<g id="a_edge4_Node000001_Node000005"><a xlink:title=" ">
<path fill="none" stroke="#63b8ff" d="M1433.73,-224.74C1511.78,-217.71 1684.12,-201.75 1840.7,-184.06"/>
<polygon fill="#63b8ff" stroke="#63b8ff" points="1841.45,-187.5 1850.99,-182.89 1840.66,-180.54 1841.45,-187.5"/>
</a>
</g>
</g>
<!-- Node6 -->
<g id="Node000006" class="node">
<title>Node6</title>
<g id="a_Node000006"><a xlink:href="../../d2/d49/global_8h.html" target="_top" xlink:title="Global variable declarations &#160;&#160;Global convenience function declarations &#160;&#160;Global data structure defin...">
<polygon fill="white" stroke="#666666" points="1000.5,-129 944.5,-129 944.5,-110 1000.5,-110 1000.5,-129"/>
<text text-anchor="middle" x="972.5" y="-117" font-family="Helvetica,sans-Serif" font-size="10.00">global.h</text>
</a>
</g>
</g>
<!-- Node1&#45;&gt;Node6 -->
<g id="edge5_Node000001_Node000006" class="edge">
<title>Node1&#45;&gt;Node6</title>
<g id="a_edge5_Node000001_Node000006"><a xlink:title=" ">
<path fill="none" stroke="#63b8ff" d="M1365.7,-219.99C1326.13,-207.11 1247.93,-182.33 1180.5,-165 1121.65,-149.87 1052.51,-135.81 1010.63,-127.69"/>
<polygon fill="#63b8ff" stroke="#63b8ff" points="1011.07,-124.21 1000.59,-125.75 1009.75,-131.08 1011.07,-124.21"/>
</a>
</g>
</g>
<!-- Node27 -->
<g id="Node000027" class="node">
<title>Node27</title>
<g id="a_Node000027"><a xlink:href="../../df/de9/curve_8h.html" target="_top" xlink:title="Variable declarations for the curve widget &#160;&#160;Functions for interactions with the curve widget.">
<polygon fill="white" stroke="#666666" points="1171,-184 1118,-184 1118,-165 1171,-165 1171,-184"/>
<text text-anchor="middle" x="1144.5" y="-172" font-family="Helvetica,sans-Serif" font-size="10.00">curve.h</text>
</a>
</g>
</g>
<!-- Node1&#45;&gt;Node27 -->
<g id="edge30_Node000001_Node000027" class="edge">
<title>Node1&#45;&gt;Node27</title>
<g id="a_edge30_Node000001_Node000027"><a xlink:title=" ">
<path fill="none" stroke="#63b8ff" d="M1351.82,-219.98C1304.65,-209.86 1226.61,-193.12 1180.93,-183.32"/>
<polygon fill="#63b8ff" stroke="#63b8ff" points="1181.66,-179.89 1171.15,-181.22 1180.19,-186.74 1181.66,-179.89"/>
</a>
</g>
</g>
<!-- Node6&#45;&gt;Node2 -->
<g id="edge10_Node000006_Node000002" class="edge">
<title>Node6&#45;&gt;Node2</title>
<g id="a_edge10_Node000006_Node000002"><a xlink:title=" ">
<path fill="none" stroke="#63b8ff" d="M944.35,-117.82C813.01,-114.53 259.05,-99.49 63.29,-73.75"/>
<polygon fill="#63b8ff" stroke="#63b8ff" points="63.52,-70.25 53.13,-72.36 62.57,-77.19 63.52,-70.25"/>
</a>
</g>
</g>
<!-- Node6&#45;&gt;Node3 -->
<g id="edge15_Node000006_Node000003" class="edge">
<title>Node6&#45;&gt;Node3</title>
<g id="a_edge15_Node000006_Node000003"><a xlink:title=" ">
<path fill="none" stroke="#63b8ff" d="M1000.63,-118.64C1127.44,-119.05 1642.12,-117.94 1697.5,-74 1710.73,-63.5 1715.04,-44.17 1716.3,-29.58"/>
<polygon fill="#63b8ff" stroke="#63b8ff" points="1719.82,-29.31 1716.78,-19.16 1712.82,-28.99 1719.82,-29.31"/>
</a>
</g>
</g>
<!-- Node7 -->
<g id="Node000007" class="node">
<title>Node7</title>
<g id="a_Node000007"><a xlink:title=" ">
<polygon fill="#e0e0e0" stroke="#999999" points="115.5,-74 71.5,-74 71.5,-55 115.5,-55 115.5,-74"/>
<text text-anchor="middle" x="93.5" y="-62" font-family="Helvetica,sans-Serif" font-size="10.00">glib.h</text>
</a>
</g>
</g>
<!-- Node6&#45;&gt;Node7 -->
<g id="edge6_Node000006_Node000007" class="edge">
<title>Node6&#45;&gt;Node7</title>
<g id="a_edge6_Node000006_Node000007"><a xlink:title=" ">
<path fill="none" stroke="#63b8ff" d="M944.13,-117.83C818.06,-114.74 307.14,-100.87 125.66,-73.76"/>
<polygon fill="#63b8ff" stroke="#63b8ff" points="126.15,-70.29 115.72,-72.21 125.07,-77.21 126.15,-70.29"/>
</a>
</g>
</g>
<!-- Node8 -->
<g id="Node000008" class="node">
<title>Node8</title>
<g id="a_Node000008"><a xlink:title=" ">
<polygon fill="#e0e0e0" stroke="#999999" points="207.5,-74 133.5,-74 133.5,-55 207.5,-55 207.5,-74"/>
<text text-anchor="middle" x="170.5" y="-62" font-family="Helvetica,sans-Serif" font-size="10.00">glib/gi18n.h</text>
</a>
</g>
</g>
<!-- Node6&#45;&gt;Node8 -->
<g id="edge7_Node000006_Node000008" class="edge">
<title>Node6&#45;&gt;Node8</title>
<g id="a_edge7_Node000006_Node000008"><a xlink:title=" ">
<path fill="none" stroke="#63b8ff" d="M944.24,-118.1C845.57,-116.43 507.14,-108.48 217.87,-74"/>
<polygon fill="#63b8ff" stroke="#63b8ff" points="217.94,-70.48 207.6,-72.76 217.11,-77.43 217.94,-70.48"/>
</a>
</g>
</g>
<!-- Node9 -->
<g id="Node000009" class="node">
<title>Node9</title>
<g id="a_Node000009"><a xlink:title=" ">
<polygon fill="#e0e0e0" stroke="#999999" points="281,-74 226,-74 226,-55 281,-55 281,-74"/>
<text text-anchor="middle" x="253.5" y="-62" font-family="Helvetica,sans-Serif" font-size="10.00">locale.h</text>
</a>
</g>
</g>
<!-- Node6&#45;&gt;Node9 -->
<g id="edge8_Node000006_Node000009" class="edge">
<title>Node6&#45;&gt;Node9</title>
<g id="a_edge8_Node000006_Node000009"><a xlink:title=" ">
<path fill="none" stroke="#63b8ff" d="M944.4,-118.28C852.14,-117.22 550.13,-111.06 291.25,-73.84"/>
<polygon fill="#63b8ff" stroke="#63b8ff" points="291.69,-70.37 281.29,-72.39 290.68,-77.29 291.69,-70.37"/>
</a>
</g>
</g>
<!-- Node10 -->
<g id="Node000010" class="node">
<title>Node10</title>
<g id="a_Node000010"><a xlink:title=" ">
<polygon fill="#e0e0e0" stroke="#999999" points="355.5,-74 299.5,-74 299.5,-55 355.5,-55 355.5,-74"/>
<text text-anchor="middle" x="327.5" y="-62" font-family="Helvetica,sans-Serif" font-size="10.00">unistd.h</text>
</a>
</g>
</g>
<!-- Node6&#45;&gt;Node10 -->
<g id="edge9_Node000006_Node000010" class="edge">
<title>Node6&#45;&gt;Node10</title>
<g id="a_edge9_Node000006_Node000010"><a xlink:title=" ">
<path fill="none" stroke="#63b8ff" d="M944.45,-117.97C859,-116.03 594.29,-107.66 365.86,-73.96"/>
<polygon fill="#63b8ff" stroke="#63b8ff" points="366.1,-70.46 355.7,-72.44 365.07,-77.39 366.1,-70.46"/>
</a>
</g>
</g>
<!-- Node11 -->
<g id="Node000011" class="node">
<title>Node11</title>
<g id="a_Node000011"><a xlink:title=" ">
<polygon fill="#e0e0e0" stroke="#999999" points="1644.5,-19 1594.5,-19 1594.5,0 1644.5,0 1644.5,-19"/>
<text text-anchor="middle" x="1619.5" y="-7" font-family="Helvetica,sans-Serif" font-size="10.00">stdio.h</text>
</a>
</g>
</g>
<!-- Node6&#45;&gt;Node11 -->
<g id="edge11_Node000006_Node000011" class="edge">
<title>Node6&#45;&gt;Node11</title>
<g id="a_edge11_Node000006_Node000011"><a xlink:title=" ">
<path fill="none" stroke="#63b8ff" d="M1000.68,-117.8C1112.73,-114.84 1523.08,-102.13 1573.5,-74 1591.47,-63.98 1604.25,-43.66 1611.71,-28.69"/>
<polygon fill="#63b8ff" stroke="#63b8ff" points="1615,-29.92 1616.02,-19.38 1608.64,-26.98 1615,-29.92"/>
</a>
</g>
</g>
<!-- Node12 -->
<g id="Node000012" class="node">
<title>Node12</title>
<g id="a_Node000012"><a xlink:title=" ">
<polygon fill="#e0e0e0" stroke="#999999" points="427,-74 374,-74 374,-55 427,-55 427,-74"/>
<text text-anchor="middle" x="400.5" y="-62" font-family="Helvetica,sans-Serif" font-size="10.00">stdlib.h</text>
</a>
</g>
</g>
<!-- Node6&#45;&gt;Node12 -->
<g id="edge12_Node000006_Node000012" class="edge">
<title>Node6&#45;&gt;Node12</title>
<g id="a_edge12_Node000006_Node000012"><a xlink:title=" ">
<path fill="none" stroke="#63b8ff" d="M944.42,-117.64C865.85,-114.93 637.01,-104.92 437.24,-73.85"/>
<polygon fill="#63b8ff" stroke="#63b8ff" points="437.57,-70.36 427.15,-72.26 436.48,-77.27 437.57,-70.36"/>
</a>
</g>
</g>
<!-- Node13 -->
<g id="Node000013" class="node">
<title>Node13</title>
<g id="a_Node000013"><a xlink:title=" ">
<polygon fill="#e0e0e0" stroke="#999999" points="517.5,-74 445.5,-74 445.5,-55 517.5,-55 517.5,-74"/>
<text text-anchor="middle" x="481.5" y="-62" font-family="Helvetica,sans-Serif" font-size="10.00">sys/types.h</text>
</a>
</g>
</g>
<!-- Node6&#45;&gt;Node13 -->
<g id="edge13_Node000006_Node000013" class="edge">
<title>Node6&#45;&gt;Node13</title>
<g id="a_edge13_Node000006_Node000013"><a xlink:title=" ">
<path fill="none" stroke="#63b8ff" d="M944.48,-116.56C875.46,-111.59 691.56,-97.27 528.05,-74.11"/>
<polygon fill="#63b8ff" stroke="#63b8ff" points="528.2,-70.59 517.8,-72.64 527.21,-77.52 528.2,-70.59"/>
</a>
</g>
</g>
<!-- Node14 -->
<g id="Node000014" class="node">
<title>Node14</title>
<g id="a_Node000014"><a xlink:title=" ">
<polygon fill="#e0e0e0" stroke="#999999" points="599.5,-74 535.5,-74 535.5,-55 599.5,-55 599.5,-74"/>
<text text-anchor="middle" x="567.5" y="-62" font-family="Helvetica,sans-Serif" font-size="10.00">sys/stat.h</text>
</a>
</g>
</g>
<!-- Node6&#45;&gt;Node14 -->
<g id="edge14_Node000006_Node000014" class="edge">
<title>Node6&#45;&gt;Node14</title>
<g id="a_edge14_Node000006_Node000014"><a xlink:title=" ">
<path fill="none" stroke="#63b8ff" d="M944.07,-115.83C884.17,-110.04 740.43,-95.24 609.86,-74.1"/>
<polygon fill="#63b8ff" stroke="#63b8ff" points="610.12,-70.59 599.68,-72.43 608.99,-77.5 610.12,-70.59"/>
</a>
</g>
</g>
<!-- Node15 -->
<g id="Node000015" class="node">
<title>Node15</title>
<g id="a_Node000015"><a xlink:title=" ">
<polygon fill="#e0e0e0" stroke="#999999" points="677.5,-74 617.5,-74 617.5,-55 677.5,-55 677.5,-74"/>
<text text-anchor="middle" x="647.5" y="-62" font-family="Helvetica,sans-Serif" font-size="10.00">gtk/gtk.h</text>
</a>
</g>
</g>
<!-- Node6&#45;&gt;Node15 -->
<g id="edge16_Node000006_Node000015" class="edge">
<title>Node6&#45;&gt;Node15</title>
<g id="a_edge16_Node000006_Node000015"><a xlink:title=" ">
<path fill="none" stroke="#63b8ff" d="M944.39,-114.7C894.68,-107.85 787.79,-92.59 687.67,-74.12"/>
<polygon fill="#63b8ff" stroke="#63b8ff" points="688.17,-70.66 677.7,-72.27 686.89,-77.54 688.17,-70.66"/>
</a>
</g>
</g>
<!-- Node16 -->
<g id="Node000016" class="node">
<title>Node16</title>
<g id="a_Node000016"><a xlink:title=" ">
<polygon fill="#e0e0e0" stroke="#999999" points="761,-74 696,-74 696,-55 761,-55 761,-74"/>
<text text-anchor="middle" x="728.5" y="-62" font-family="Helvetica,sans-Serif" font-size="10.00">gdk/gdk.h</text>
</a>
</g>
</g>
<!-- Node6&#45;&gt;Node16 -->
<g id="edge17_Node000006_Node000016" class="edge">
<title>Node6&#45;&gt;Node16</title>
<g id="a_edge17_Node000006_Node000016"><a xlink:title=" ">
<path fill="none" stroke="#63b8ff" d="M944.03,-112.32C901.34,-103.04 820.46,-85.47 770.83,-74.69"/>
<polygon fill="#63b8ff" stroke="#63b8ff" points="771.56,-71.27 761.04,-72.57 770.07,-78.11 771.56,-71.27"/>
</a>
</g>
</g>
<!-- Node17 -->
<g id="Node000017" class="node">
<title>Node17</title>
<g id="a_Node000017"><a xlink:title=" ">
<polygon fill="#e0e0e0" stroke="#999999" points="887.5,-74 779.5,-74 779.5,-55 887.5,-55 887.5,-74"/>
<text text-anchor="middle" x="833.5" y="-62" font-family="Helvetica,sans-Serif" font-size="10.00">gdk/gdkkeysyms.h</text>
</a>
</g>
</g>
<!-- Node6&#45;&gt;Node17 -->
<g id="edge18_Node000006_Node000017" class="edge">
<title>Node6&#45;&gt;Node17</title>
<g id="a_edge18_Node000006_Node000017"><a xlink:title=" ">
<path fill="none" stroke="#63b8ff" d="M950.17,-109.98C927.3,-101.27 891.54,-87.63 865.64,-77.75"/>
<polygon fill="#63b8ff" stroke="#63b8ff" points="866.83,-74.46 856.24,-74.17 864.34,-81 866.83,-74.46"/>
</a>
</g>
</g>
<!-- Node18 -->
<g id="Node000018" class="node">
<title>Node18</title>
<g id="a_Node000018"><a xlink:title=" ">
<polygon fill="#e0e0e0" stroke="#999999" points="1039,-74 906,-74 906,-55 1039,-55 1039,-74"/>
<text text-anchor="middle" x="972.5" y="-62" font-family="Helvetica,sans-Serif" font-size="10.00">gdk&#45;pixbuf/gdk&#45;pixbuf.h</text>
</a>
</g>
</g>
<!-- Node6&#45;&gt;Node18 -->
<g id="edge19_Node000006_Node000018" class="edge">
<title>Node6&#45;&gt;Node18</title>
<g id="a_edge19_Node000006_Node000018"><a xlink:title=" ">
<path fill="none" stroke="#63b8ff" d="M972.5,-109.75C972.5,-102.8 972.5,-92.85 972.5,-84.13"/>
<polygon fill="#63b8ff" stroke="#63b8ff" points="976,-84.09 972.5,-74.09 969,-84.09 976,-84.09"/>
</a>
</g>
</g>
<!-- Node19 -->
<g id="Node000019" class="node">
<title>Node19</title>
<g id="a_Node000019"><a xlink:title=" ">
<polygon fill="#e0e0e0" stroke="#999999" points="1158,-74 1057,-74 1057,-55 1158,-55 1158,-74"/>
<text text-anchor="middle" x="1107.5" y="-62" font-family="Helvetica,sans-Serif" font-size="10.00">pango/pangoft2.h</text>
</a>
</g>
</g>
<!-- Node6&#45;&gt;Node19 -->
<g id="edge20_Node000006_Node000019" class="edge">
<title>Node6&#45;&gt;Node19</title>
<g id="a_edge20_Node000006_Node000019"><a xlink:title=" ">
<path fill="none" stroke="#63b8ff" d="M994.19,-109.98C1016.3,-101.3 1050.82,-87.75 1075.95,-77.88"/>
<polygon fill="#63b8ff" stroke="#63b8ff" points="1077.39,-81.08 1085.42,-74.17 1074.83,-74.57 1077.39,-81.08"/>
</a>
</g>
</g>
<!-- Node20 -->
<g id="Node000020" class="node">
<title>Node20</title>
<g id="a_Node000020"><a xlink:title=" ">
<polygon fill="#e0e0e0" stroke="#999999" points="1244.5,-74 1176.5,-74 1176.5,-55 1244.5,-55 1244.5,-74"/>
<text text-anchor="middle" x="1210.5" y="-62" font-family="Helvetica,sans-Serif" font-size="10.00">epoxy/gl.h</text>
</a>
</g>
</g>
<!-- Node6&#45;&gt;Node20 -->
<g id="edge21_Node000006_Node000020" class="edge">
<title>Node6&#45;&gt;Node20</title>
<g id="a_edge21_Node000006_Node000020"><a xlink:title=" ">
<path fill="none" stroke="#63b8ff" d="M1000.74,-112.21C1041.66,-103.1 1117.84,-86.13 1166.27,-75.35"/>
<polygon fill="#63b8ff" stroke="#63b8ff" points="1167.15,-78.74 1176.15,-73.15 1165.63,-71.91 1167.15,-78.74"/>
</a>
</g>
</g>
<!-- Node21 -->
<g id="Node000021" class="node">
<title>Node21</title>
<g id="a_Node000021"><a xlink:title=" ">
<polygon fill="#e0e0e0" stroke="#999999" points="1318.5,-74 1262.5,-74 1262.5,-55 1318.5,-55 1318.5,-74"/>
<text text-anchor="middle" x="1290.5" y="-62" font-family="Helvetica,sans-Serif" font-size="10.00">GL/glu.h</text>
</a>
</g>
</g>
<!-- Node6&#45;&gt;Node21 -->
<g id="edge22_Node000006_Node000021" class="edge">
<title>Node6&#45;&gt;Node21</title>
<g id="a_edge22_Node000006_Node000021"><a xlink:title=" ">
<path fill="none" stroke="#63b8ff" d="M1000.53,-114.71C1049.53,-107.95 1154.12,-92.9 1252.18,-74.14"/>
<polygon fill="#63b8ff" stroke="#63b8ff" points="1253.11,-77.53 1262.26,-72.2 1251.78,-70.66 1253.11,-77.53"/>
</a>
</g>
</g>
<!-- Node22 -->
<g id="Node000022" class="node">
<title>Node22</title>
<g id="a_Node000022"><a xlink:title=" ">
<polygon fill="#e0e0e0" stroke="#999999" points="1410.5,-74 1336.5,-74 1336.5,-55 1410.5,-55 1410.5,-74"/>
<text text-anchor="middle" x="1373.5" y="-62" font-family="Helvetica,sans-Serif" font-size="10.00">epoxy/glx.h</text>
</a>
</g>
</g>
<!-- Node6&#45;&gt;Node22 -->
<g id="edge23_Node000006_Node000022" class="edge">
<title>Node6&#45;&gt;Node22</title>
<g id="a_edge23_Node000006_Node000022"><a xlink:title=" ">
<path fill="none" stroke="#63b8ff" d="M1000.65,-115.53C1059.28,-109.23 1198.94,-93.6 1326.44,-74.08"/>
<polygon fill="#63b8ff" stroke="#63b8ff" points="1327.03,-77.54 1336.37,-72.55 1325.96,-70.62 1327.03,-77.54"/>
</a>
</g>
</g>
<!-- Node23 -->
<g id="Node000023" class="node">
<title>Node23</title>
<g id="a_Node000023"><a xlink:href="../../dc/db0/math__3d_8h.html" target="_top" xlink:title="Functions for OpenGL math.">
<polygon fill="white" stroke="#666666" points="1688.5,-74 1620.5,-74 1620.5,-55 1688.5,-55 1688.5,-74"/>
<text text-anchor="middle" x="1654.5" y="-62" font-family="Helvetica,sans-Serif" font-size="10.00">math_3d.h</text>
</a>
</g>
</g>
<!-- Node6&#45;&gt;Node23 -->
<g id="edge24_Node000006_Node000023" class="edge">
<title>Node6&#45;&gt;Node23</title>
<g id="a_edge24_Node000006_Node000023"><a xlink:title=" ">
<path fill="none" stroke="#63b8ff" d="M1000.72,-117.58C1089.9,-114.44 1373.52,-102.72 1606.5,-74 1607.78,-73.84 1609.07,-73.67 1610.37,-73.5"/>
<polygon fill="#63b8ff" stroke="#63b8ff" points="1611.11,-76.93 1620.48,-71.98 1610.07,-70 1611.11,-76.93"/>
</a>
</g>
</g>
<!-- Node24 -->
<g id="Node000024" class="node">
<title>Node24</title>
<g id="a_Node000024"><a xlink:href="../../da/d7e/glwin_8h.html" target="_top" xlink:title="Variable declarations related the OpenGL window &#160;&#160;Data structure declarations related the OpenGL wind...">
<polygon fill="white" stroke="#666666" points="1480.5,-74 1428.5,-74 1428.5,-55 1480.5,-55 1480.5,-74"/>
<text text-anchor="middle" x="1454.5" y="-62" font-family="Helvetica,sans-Serif" font-size="10.00">glwin.h</text>
</a>
</g>
</g>
<!-- Node6&#45;&gt;Node24 -->
<g id="edge27_Node000006_Node000024" class="edge">
<title>Node6&#45;&gt;Node24</title>
<g id="a_edge27_Node000006_Node000024"><a xlink:title=" ">
<path fill="none" stroke="#63b8ff" d="M1000.66,-117.06C1070.02,-113.22 1254.69,-101.26 1417.98,-74.03"/>
<polygon fill="#63b8ff" stroke="#63b8ff" points="1418.93,-77.42 1428.21,-72.3 1417.76,-70.52 1418.93,-77.42"/>
</a>
</g>
</g>
<!-- Node26 -->
<g id="Node000026" class="node">
<title>Node26</title>
<g id="a_Node000026"><a xlink:title=" ">
<polygon fill="#e0e0e0" stroke="#999999" points="1564.5,-74 1498.5,-74 1498.5,-55 1564.5,-55 1564.5,-74"/>
<text text-anchor="middle" x="1531.5" y="-62" font-family="Helvetica,sans-Serif" font-size="10.00">gtk/gtkx.h</text>
</a>
</g>
</g>
<!-- Node6&#45;&gt;Node26 -->
<g id="edge29_Node000006_Node000026" class="edge">
<title>Node6&#45;&gt;Node26</title>
<g id="a_edge29_Node000006_Node000026"><a xlink:title=" ">
<path fill="none" stroke="#63b8ff" d="M1000.65,-117.21C1077.31,-113.44 1296.36,-101.09 1488.11,-74.04"/>
<polygon fill="#63b8ff" stroke="#63b8ff" points="1488.68,-77.5 1498.09,-72.62 1487.69,-70.57 1488.68,-77.5"/>
</a>
</g>
</g>
<!-- Node23&#45;&gt;Node3 -->
<g id="edge25_Node000023_Node000003" class="edge">
<title>Node23&#45;&gt;Node3</title>
<g id="a_edge25_Node000023_Node000003"><a xlink:title=" ">
<path fill="none" stroke="#63b8ff" d="M1664.46,-54.98C1673.63,-47.15 1687.44,-35.34 1698.53,-25.86"/>
<polygon fill="#63b8ff" stroke="#63b8ff" points="1701.03,-28.33 1706.36,-19.17 1696.48,-23.01 1701.03,-28.33"/>
</a>
</g>
</g>
<!-- Node23&#45;&gt;Node11 -->
<g id="edge26_Node000023_Node000011" class="edge">
<title>Node23&#45;&gt;Node11</title>
<g id="a_edge26_Node000023_Node000011"><a xlink:title=" ">
<path fill="none" stroke="#63b8ff" d="M1648.72,-54.75C1643.88,-47.42 1636.82,-36.73 1630.86,-27.7"/>
<polygon fill="#63b8ff" stroke="#63b8ff" points="1633.6,-25.5 1625.17,-19.09 1627.76,-29.36 1633.6,-25.5"/>
</a>
</g>
</g>
<!-- Node25 -->
<g id="Node000025" class="node">
<title>Node25</title>
<g id="a_Node000025"><a xlink:href="../../d5/d9e/ogl__shading_8h.html" target="_top" xlink:title="Variable declarations related to GLSL programs &#160;&#160;Data structure declarations related to GLSL programs...">
<polygon fill="white" stroke="#666666" points="1496.5,-19 1412.5,-19 1412.5,0 1496.5,0 1496.5,-19"/>
<text text-anchor="middle" x="1454.5" y="-7" font-family="Helvetica,sans-Serif" font-size="10.00">ogl_shading.h</text>
</a>
</g>
</g>
<!-- Node24&#45;&gt;Node25 -->
<g id="edge28_Node000024_Node000025" class="edge">
<title>Node24&#45;&gt;Node25</title>
<g id="a_edge28_Node000024_Node000025"><a xlink:title=" ">
<path fill="none" stroke="#63b8ff" d="M1454.5,-54.75C1454.5,-47.8 1454.5,-37.85 1454.5,-29.13"/>
<polygon fill="#63b8ff" stroke="#63b8ff" points="1458,-29.09 1454.5,-19.09 1451,-29.09 1458,-29.09"/>
</a>
</g>
</g>
<!-- Node27&#45;&gt;Node6 -->
<g id="edge31_Node000027_Node000006" class="edge">
<title>Node27&#45;&gt;Node6</title>
<g id="a_edge31_Node000027_Node000006"><a xlink:title=" ">
<path fill="none" stroke="#63b8ff" d="M1117.62,-165.22C1088.68,-156.3 1042.43,-142.05 1009.93,-132.03"/>
<polygon fill="#63b8ff" stroke="#63b8ff" points="1010.91,-128.67 1000.33,-129.07 1008.85,-135.36 1010.91,-128.67"/>
</a>
</g>
</g>
</g>
</svg>
