<?xml version="1.0" encoding="UTF-8" standalone="no"?>
<!DOCTYPE svg PUBLIC "-//W3C//DTD SVG 1.1//EN"
 "http://www.w3.org/Graphics/SVG/1.1/DTD/svg11.dtd">
<!-- Generated by graphviz version 9.0.0 (20230911.1827)
 -->
<!-- Title: curve/labels.c Pages: 1 -->
<svg width="1825pt" height="252pt"
 viewBox="0.00 0.00 1824.50 252.00" xmlns="http://www.w3.org/2000/svg" xmlns:xlink="http://www.w3.org/1999/xlink">
<g id="graph0" class="graph" transform="scale(1 1) rotate(0) translate(4 248)">
<title>curve/labels.c</title>
<!-- Node1 -->
<g id="Node000001" class="node">
<title>Node1</title>
<g id="a_Node000001"><a xlink:title="Function to draw the axis labels.">
<polygon fill="#999999" stroke="#666666" points="1300.5,-244 1223.75,-244 1223.75,-224 1300.5,-224 1300.5,-244"/>
<text text-anchor="middle" x="1262.12" y="-230.5" font-family="Helvetica,sans-Serif" font-size="10.00">curve/labels.c</text>
</a>
</g>
</g>
<!-- Node2 -->
<g id="Node000002" class="node">
<title>Node2</title>
<g id="a_Node000002"><a xlink:title=" ">
<polygon fill="#e0e0e0" stroke="#999999" points="48.25,-76 0,-76 0,-56 48.25,-56 48.25,-76"/>
<text text-anchor="middle" x="24.12" y="-62.5" font-family="Helvetica,sans-Serif" font-size="10.00">string.h</text>
</a>
</g>
</g>
<!-- Node1&#45;&gt;Node2 -->
<g id="edge1_Node000001_Node000002" class="edge">
<title>Node1&#45;&gt;Node2</title>
<g id="a_edge1_Node000001_Node000002"><a xlink:title=" ">
<path fill="none" stroke="#63b8ff" d="M1223.31,-229.89C1073.69,-217.49 520.18,-167.86 59.75,-76.3"/>
<polygon fill="#63b8ff" stroke="#63b8ff" points="60.52,-72.88 50.03,-74.36 59.15,-79.75 60.52,-72.88"/>
</a>
</g>
</g>
<!-- Node3 -->
<g id="Node000003" class="node">
<title>Node3</title>
<g id="a_Node000003"><a xlink:title=" ">
<polygon fill="#e0e0e0" stroke="#999999" points="1609.12,-20 1563.12,-20 1563.12,0 1609.12,0 1609.12,-20"/>
<text text-anchor="middle" x="1586.12" y="-6.5" font-family="Helvetica,sans-Serif" font-size="10.00">math.h</text>
</a>
</g>
</g>
<!-- Node1&#45;&gt;Node3 -->
<g id="edge2_Node000001_Node000003" class="edge">
<title>Node1&#45;&gt;Node3</title>
<g id="a_edge2_Node000001_Node000003"><a xlink:title=" ">
<path fill="none" stroke="#63b8ff" d="M1300.92,-227.58C1372.34,-215.27 1523.18,-177.91 1587.12,-76 1595.39,-62.83 1594.47,-45 1591.85,-31.35"/>
<polygon fill="#63b8ff" stroke="#63b8ff" points="1595.28,-30.62 1589.54,-21.71 1588.47,-32.25 1595.28,-30.62"/>
</a>
</g>
</g>
<!-- Node4 -->
<g id="Node000004" class="node">
<title>Node4</title>
<g id="a_Node000004"><a xlink:title=" ">
<polygon fill="#e0e0e0" stroke="#999999" points="1697.75,-188 1652.5,-188 1652.5,-168 1697.75,-168 1697.75,-188"/>
<text text-anchor="middle" x="1675.12" y="-174.5" font-family="Helvetica,sans-Serif" font-size="10.00">cairo.h</text>
</a>
</g>
</g>
<!-- Node1&#45;&gt;Node4 -->
<g id="edge3_Node000001_Node000004" class="edge">
<title>Node1&#45;&gt;Node4</title>
<g id="a_edge3_Node000001_Node000004"><a xlink:title=" ">
<path fill="none" stroke="#63b8ff" d="M1300.78,-229.91C1369.18,-224.1 1515.85,-210.11 1638.12,-188 1639.12,-187.82 1640.13,-187.63 1641.15,-187.43"/>
<polygon fill="#63b8ff" stroke="#63b8ff" points="1641.62,-190.91 1650.64,-185.37 1640.13,-184.07 1641.62,-190.91"/>
</a>
</g>
</g>
<!-- Node5 -->
<g id="Node000005" class="node">
<title>Node5</title>
<g id="a_Node000005"><a xlink:title=" ">
<polygon fill="#e0e0e0" stroke="#999999" points="1816.5,-188 1715.75,-188 1715.75,-168 1816.5,-168 1816.5,-188"/>
<text text-anchor="middle" x="1766.12" y="-174.5" font-family="Helvetica,sans-Serif" font-size="10.00">pango/pangocairo.h</text>
</a>
</g>
</g>
<!-- Node1&#45;&gt;Node5 -->
<g id="edge4_Node000001_Node000005" class="edge">
<title>Node1&#45;&gt;Node5</title>
<g id="a_edge4_Node000001_Node000005"><a xlink:title=" ">
<path fill="none" stroke="#63b8ff" d="M1300.89,-229.74C1376.45,-223.26 1548.96,-207.74 1704.16,-188.32"/>
<polygon fill="#63b8ff" stroke="#63b8ff" points="1704.31,-191.83 1713.8,-187.11 1703.44,-184.89 1704.31,-191.83"/>
</a>
</g>
</g>
<!-- Node6 -->
<g id="Node000006" class="node">
<title>Node6</title>
<g id="a_Node000006"><a xlink:href="../../d2/d49/global_8h.html" target="_top" xlink:title="Global variable declarations &#160;&#160;Global convenience function declarations &#160;&#160;Global data structure defin...">
<polygon fill="white" stroke="#666666" points="872,-132 822.25,-132 822.25,-112 872,-112 872,-132"/>
<text text-anchor="middle" x="847.12" y="-118.5" font-family="Helvetica,sans-Serif" font-size="10.00">global.h</text>
</a>
</g>
</g>
<!-- Node1&#45;&gt;Node6 -->
<g id="edge5_Node000001_Node000006" class="edge">
<title>Node1&#45;&gt;Node6</title>
<g id="a_edge5_Node000001_Node000006"><a xlink:title=" ">
<path fill="none" stroke="#63b8ff" d="M1234.15,-223.52C1194.1,-210.13 1117.99,-185.39 1052.12,-168 993.48,-152.52 924.43,-138.14 883.3,-129.98"/>
<polygon fill="#63b8ff" stroke="#63b8ff" points="884.19,-126.59 873.7,-128.09 882.84,-133.46 884.19,-126.59"/>
</a>
</g>
</g>
<!-- Node27 -->
<g id="Node000027" class="node">
<title>Node27</title>
<g id="a_Node000027"><a xlink:href="../../df/de9/curve_8h.html" target="_top" xlink:title="Variable declarations for the curve widget &#160;&#160;Functions for interactions with the curve widget.">
<polygon fill="white" stroke="#666666" points="1043.25,-188 995,-188 995,-168 1043.25,-168 1043.25,-188"/>
<text text-anchor="middle" x="1019.12" y="-174.5" font-family="Helvetica,sans-Serif" font-size="10.00">curve.h</text>
</a>
</g>
</g>
<!-- Node1&#45;&gt;Node27 -->
<g id="edge30_Node000001_Node000027" class="edge">
<title>Node1&#45;&gt;Node27</title>
<g id="a_edge30_Node000001_Node000027"><a xlink:title=" ">
<path fill="none" stroke="#63b8ff" d="M1223.35,-224.38C1176.88,-214.06 1099.66,-196.9 1054.67,-186.9"/>
<polygon fill="#63b8ff" stroke="#63b8ff" points="1055.7,-183.54 1045.17,-184.79 1054.18,-190.37 1055.7,-183.54"/>
</a>
</g>
</g>
<!-- Node6&#45;&gt;Node2 -->
<g id="edge10_Node000006_Node000002" class="edge">
<title>Node6&#45;&gt;Node2</title>
<g id="a_edge10_Node000006_Node000002"><a xlink:title=" ">
<path fill="none" stroke="#63b8ff" d="M821.89,-120.27C706.96,-116.86 231.69,-101.57 59.86,-76.04"/>
<polygon fill="#63b8ff" stroke="#63b8ff" points="60.42,-72.58 50,-74.5 59.34,-79.5 60.42,-72.58"/>
</a>
</g>
</g>
<!-- Node6&#45;&gt;Node3 -->
<g id="edge15_Node000006_Node000003" class="edge">
<title>Node6&#45;&gt;Node3</title>
<g id="a_edge15_Node000006_Node000003"><a xlink:title=" ">
<path fill="none" stroke="#63b8ff" d="M872.19,-121.11C993.03,-121.43 1511.85,-120.19 1567.12,-76 1580.33,-65.45 1584.69,-46.25 1585.98,-31.44"/>
<polygon fill="#63b8ff" stroke="#63b8ff" points="1589.46,-31.98 1586.4,-21.84 1582.47,-31.68 1589.46,-31.98"/>
</a>
</g>
</g>
<!-- Node7 -->
<g id="Node000007" class="node">
<title>Node7</title>
<g id="a_Node000007"><a xlink:title=" ">
<polygon fill="#e0e0e0" stroke="#999999" points="105.75,-76 66.5,-76 66.5,-56 105.75,-56 105.75,-76"/>
<text text-anchor="middle" x="86.12" y="-62.5" font-family="Helvetica,sans-Serif" font-size="10.00">glib.h</text>
</a>
</g>
</g>
<!-- Node6&#45;&gt;Node7 -->
<g id="edge6_Node000006_Node000007" class="edge">
<title>Node6&#45;&gt;Node7</title>
<g id="a_edge6_Node000006_Node000007"><a xlink:title=" ">
<path fill="none" stroke="#63b8ff" d="M821.83,-120.29C712.03,-117.1 275.44,-103.08 117.07,-76.07"/>
<polygon fill="#63b8ff" stroke="#63b8ff" points="118.11,-72.7 107.65,-74.37 116.87,-79.59 118.11,-72.7"/>
</a>
</g>
</g>
<!-- Node8 -->
<g id="Node000008" class="node">
<title>Node8</title>
<g id="a_Node000008"><a xlink:title=" ">
<polygon fill="#e0e0e0" stroke="#999999" points="188.88,-76 123.38,-76 123.38,-56 188.88,-56 188.88,-76"/>
<text text-anchor="middle" x="156.12" y="-62.5" font-family="Helvetica,sans-Serif" font-size="10.00">glib/gi18n.h</text>
</a>
</g>
</g>
<!-- Node6&#45;&gt;Node8 -->
<g id="edge7_Node000006_Node000008" class="edge">
<title>Node6&#45;&gt;Node8</title>
<g id="a_edge7_Node000006_Node000008"><a xlink:title=" ">
<path fill="none" stroke="#63b8ff" d="M821.93,-120.54C736.28,-118.69 448.31,-110.3 200.46,-76.11"/>
<polygon fill="#63b8ff" stroke="#63b8ff" points="200.95,-72.65 190.56,-74.73 199.98,-79.58 200.95,-72.65"/>
</a>
</g>
</g>
<!-- Node9 -->
<g id="Node000009" class="node">
<title>Node9</title>
<g id="a_Node000009"><a xlink:title=" ">
<polygon fill="#e0e0e0" stroke="#999999" points="257,-76 207.25,-76 207.25,-56 257,-56 257,-76"/>
<text text-anchor="middle" x="232.12" y="-62.5" font-family="Helvetica,sans-Serif" font-size="10.00">locale.h</text>
</a>
</g>
</g>
<!-- Node6&#45;&gt;Node9 -->
<g id="edge8_Node000006_Node000009" class="edge">
<title>Node6&#45;&gt;Node9</title>
<g id="a_edge8_Node000006_Node000009"><a xlink:title=" ">
<path fill="none" stroke="#63b8ff" d="M822.01,-120.68C742.28,-119.32 487.73,-112.36 268.34,-76.06"/>
<polygon fill="#63b8ff" stroke="#63b8ff" points="269.2,-72.66 258.76,-74.45 268.04,-79.56 269.2,-72.66"/>
</a>
</g>
</g>
<!-- Node10 -->
<g id="Node000010" class="node">
<title>Node10</title>
<g id="a_Node000010"><a xlink:title=" ">
<polygon fill="#e0e0e0" stroke="#999999" points="325.38,-76 274.88,-76 274.88,-56 325.38,-56 325.38,-76"/>
<text text-anchor="middle" x="300.12" y="-62.5" font-family="Helvetica,sans-Serif" font-size="10.00">unistd.h</text>
</a>
</g>
</g>
<!-- Node6&#45;&gt;Node10 -->
<g id="edge9_Node000006_Node000010" class="edge">
<title>Node6&#45;&gt;Node10</title>
<g id="a_edge9_Node000006_Node000010"><a xlink:title=" ">
<path fill="none" stroke="#63b8ff" d="M821.84,-120.31C748.3,-117.99 528.11,-108.78 336.75,-76.18"/>
<polygon fill="#63b8ff" stroke="#63b8ff" points="337.58,-72.77 327.13,-74.51 336.39,-79.67 337.58,-72.77"/>
</a>
</g>
</g>
<!-- Node11 -->
<g id="Node000011" class="node">
<title>Node11</title>
<g id="a_Node000011"><a xlink:title=" ">
<polygon fill="#e0e0e0" stroke="#999999" points="1531.75,-20 1486.5,-20 1486.5,0 1531.75,0 1531.75,-20"/>
<text text-anchor="middle" x="1509.12" y="-6.5" font-family="Helvetica,sans-Serif" font-size="10.00">stdio.h</text>
</a>
</g>
</g>
<!-- Node6&#45;&gt;Node11 -->
<g id="edge11_Node000006_Node000011" class="edge">
<title>Node6&#45;&gt;Node11</title>
<g id="a_edge11_Node000006_Node000011"><a xlink:title=" ">
<path fill="none" stroke="#63b8ff" d="M872.29,-120.2C979.7,-116.66 1396.57,-101.39 1449.12,-76 1470.02,-65.91 1487.16,-45.08 1497.69,-29.71"/>
<polygon fill="#63b8ff" stroke="#63b8ff" points="1500.57,-31.7 1503.07,-21.41 1494.69,-27.89 1500.57,-31.7"/>
</a>
</g>
</g>
<!-- Node12 -->
<g id="Node000012" class="node">
<title>Node12</title>
<g id="a_Node000012"><a xlink:title=" ">
<polygon fill="#e0e0e0" stroke="#999999" points="390.88,-76 343.38,-76 343.38,-56 390.88,-56 390.88,-76"/>
<text text-anchor="middle" x="367.12" y="-62.5" font-family="Helvetica,sans-Serif" font-size="10.00">stdlib.h</text>
</a>
</g>
</g>
<!-- Node6&#45;&gt;Node12 -->
<g id="edge12_Node000006_Node000012" class="edge">
<title>Node6&#45;&gt;Node12</title>
<g id="a_edge12_Node000006_Node000012"><a xlink:title=" ">
<path fill="none" stroke="#63b8ff" d="M822.14,-120.02C755.31,-117.06 566.83,-106.64 401.96,-76.27"/>
<polygon fill="#63b8ff" stroke="#63b8ff" points="403.09,-72.92 392.62,-74.51 401.8,-79.8 403.09,-72.92"/>
</a>
</g>
</g>
<!-- Node13 -->
<g id="Node000013" class="node">
<title>Node13</title>
<g id="a_Node000013"><a xlink:title=" ">
<polygon fill="#e0e0e0" stroke="#999999" points="475.62,-76 408.62,-76 408.62,-56 475.62,-56 475.62,-76"/>
<text text-anchor="middle" x="442.12" y="-62.5" font-family="Helvetica,sans-Serif" font-size="10.00">sys/types.h</text>
</a>
</g>
</g>
<!-- Node6&#45;&gt;Node13 -->
<g id="edge13_Node000006_Node000013" class="edge">
<title>Node6&#45;&gt;Node13</title>
<g id="a_edge13_Node000006_Node000013"><a xlink:title=" ">
<path fill="none" stroke="#63b8ff" d="M821.93,-118.65C764.36,-113.1 618.57,-98.15 487.06,-76.38"/>
<polygon fill="#63b8ff" stroke="#63b8ff" points="487.94,-72.98 477.49,-74.78 486.78,-79.88 487.94,-72.98"/>
</a>
</g>
</g>
<!-- Node14 -->
<g id="Node000014" class="node">
<title>Node14</title>
<g id="a_Node000014"><a xlink:title=" ">
<polygon fill="#e0e0e0" stroke="#999999" points="552.88,-76 493.38,-76 493.38,-56 552.88,-56 552.88,-76"/>
<text text-anchor="middle" x="523.12" y="-62.5" font-family="Helvetica,sans-Serif" font-size="10.00">sys/stat.h</text>
</a>
</g>
</g>
<!-- Node6&#45;&gt;Node14 -->
<g id="edge14_Node000006_Node000014" class="edge">
<title>Node6&#45;&gt;Node14</title>
<g id="a_edge14_Node000006_Node000014"><a xlink:title=" ">
<path fill="none" stroke="#63b8ff" d="M821.86,-117.62C773.76,-111.05 665.49,-95.65 564.34,-76.32"/>
<polygon fill="#63b8ff" stroke="#63b8ff" points="565.28,-72.93 554.8,-74.47 563.96,-79.81 565.28,-72.93"/>
</a>
</g>
</g>
<!-- Node15 -->
<g id="Node000015" class="node">
<title>Node15</title>
<g id="a_Node000015"><a xlink:title=" ">
<polygon fill="#e0e0e0" stroke="#999999" points="625.25,-76 571,-76 571,-56 625.25,-56 625.25,-76"/>
<text text-anchor="middle" x="598.12" y="-62.5" font-family="Helvetica,sans-Serif" font-size="10.00">gtk/gtk.h</text>
</a>
</g>
</g>
<!-- Node6&#45;&gt;Node15 -->
<g id="edge16_Node000006_Node000015" class="edge">
<title>Node6&#45;&gt;Node15</title>
<g id="a_edge16_Node000006_Node000015"><a xlink:title=" ">
<path fill="none" stroke="#63b8ff" d="M821.81,-115.97C783.79,-108.34 709.44,-93.16 636.79,-76.55"/>
<polygon fill="#63b8ff" stroke="#63b8ff" points="637.62,-73.15 627.09,-74.32 636.05,-79.97 637.62,-73.15"/>
</a>
</g>
</g>
<!-- Node16 -->
<g id="Node000016" class="node">
<title>Node16</title>
<g id="a_Node000016"><a xlink:title=" ">
<polygon fill="#e0e0e0" stroke="#999999" points="702.88,-76 643.38,-76 643.38,-56 702.88,-56 702.88,-76"/>
<text text-anchor="middle" x="673.12" y="-62.5" font-family="Helvetica,sans-Serif" font-size="10.00">gtk/gtkx.h</text>
</a>
</g>
</g>
<!-- Node6&#45;&gt;Node16 -->
<g id="edge17_Node000006_Node000016" class="edge">
<title>Node6&#45;&gt;Node16</title>
<g id="a_edge17_Node000006_Node000016"><a xlink:title=" ">
<path fill="none" stroke="#63b8ff" d="M821.82,-113.15C793.54,-104.37 747.33,-90.03 713.93,-79.66"/>
<polygon fill="#63b8ff" stroke="#63b8ff" points="715.16,-76.38 704.58,-76.76 713.09,-83.07 715.16,-76.38"/>
</a>
</g>
</g>
<!-- Node17 -->
<g id="Node000017" class="node">
<title>Node17</title>
<g id="a_Node000017"><a xlink:title=" ">
<polygon fill="#e0e0e0" stroke="#999999" points="779.5,-76 720.75,-76 720.75,-56 779.5,-56 779.5,-76"/>
<text text-anchor="middle" x="750.12" y="-62.5" font-family="Helvetica,sans-Serif" font-size="10.00">gdk/gdk.h</text>
</a>
</g>
</g>
<!-- Node6&#45;&gt;Node17 -->
<g id="edge18_Node000006_Node000017" class="edge">
<title>Node6&#45;&gt;Node17</title>
<g id="a_edge18_Node000006_Node000017"><a xlink:title=" ">
<path fill="none" stroke="#63b8ff" d="M830.23,-111.59C815.58,-103.44 794.1,-91.48 777.08,-82"/>
<polygon fill="#63b8ff" stroke="#63b8ff" points="778.92,-79.02 768.48,-77.22 775.51,-85.14 778.92,-79.02"/>
</a>
</g>
</g>
<!-- Node18 -->
<g id="Node000018" class="node">
<title>Node18</title>
<g id="a_Node000018"><a xlink:title=" ">
<polygon fill="#e0e0e0" stroke="#999999" points="896.38,-76 797.88,-76 797.88,-56 896.38,-56 896.38,-76"/>
<text text-anchor="middle" x="847.12" y="-62.5" font-family="Helvetica,sans-Serif" font-size="10.00">gdk/gdkkeysyms.h</text>
</a>
</g>
</g>
<!-- Node6&#45;&gt;Node18 -->
<g id="edge19_Node000006_Node000018" class="edge">
<title>Node6&#45;&gt;Node18</title>
<g id="a_edge19_Node000006_Node000018"><a xlink:title=" ">
<path fill="none" stroke="#63b8ff" d="M847.12,-111.59C847.12,-105.01 847.12,-95.96 847.12,-87.73"/>
<polygon fill="#63b8ff" stroke="#63b8ff" points="850.63,-87.81 847.13,-77.81 843.63,-87.81 850.63,-87.81"/>
</a>
</g>
</g>
<!-- Node19 -->
<g id="Node000019" class="node">
<title>Node19</title>
<g id="a_Node000019"><a xlink:title=" ">
<polygon fill="#e0e0e0" stroke="#999999" points="1031.75,-76 914.5,-76 914.5,-56 1031.75,-56 1031.75,-76"/>
<text text-anchor="middle" x="973.12" y="-62.5" font-family="Helvetica,sans-Serif" font-size="10.00">gdk&#45;pixbuf/gdk&#45;pixbuf.h</text>
</a>
</g>
</g>
<!-- Node6&#45;&gt;Node19 -->
<g id="edge20_Node000006_Node000019" class="edge">
<title>Node6&#45;&gt;Node19</title>
<g id="a_edge20_Node000006_Node000019"><a xlink:title=" ">
<path fill="none" stroke="#63b8ff" d="M869.07,-111.59C888.83,-103.13 918.12,-90.58 940.59,-80.94"/>
<polygon fill="#63b8ff" stroke="#63b8ff" points="941.8,-84.23 949.62,-77.08 939.04,-77.8 941.8,-84.23"/>
</a>
</g>
</g>
<!-- Node20 -->
<g id="Node000020" class="node">
<title>Node20</title>
<g id="a_Node000020"><a xlink:title=" ">
<polygon fill="#e0e0e0" stroke="#999999" points="1140.62,-76 1049.62,-76 1049.62,-56 1140.62,-56 1140.62,-76"/>
<text text-anchor="middle" x="1095.12" y="-62.5" font-family="Helvetica,sans-Serif" font-size="10.00">pango/pangoft2.h</text>
</a>
</g>
</g>
<!-- Node6&#45;&gt;Node20 -->
<g id="edge21_Node000006_Node000020" class="edge">
<title>Node6&#45;&gt;Node20</title>
<g id="a_edge21_Node000006_Node000020"><a xlink:title=" ">
<path fill="none" stroke="#63b8ff" d="M872.27,-115.53C911.51,-106.98 988.21,-90.28 1040.56,-78.88"/>
<polygon fill="#63b8ff" stroke="#63b8ff" points="1041.16,-82.33 1050.18,-76.79 1039.67,-75.49 1041.16,-82.33"/>
</a>
</g>
</g>
<!-- Node21 -->
<g id="Node000021" class="node">
<title>Node21</title>
<g id="a_Node000021"><a xlink:title=" ">
<polygon fill="#e0e0e0" stroke="#999999" points="1219.62,-76 1158.62,-76 1158.62,-56 1219.62,-56 1219.62,-76"/>
<text text-anchor="middle" x="1189.12" y="-62.5" font-family="Helvetica,sans-Serif" font-size="10.00">epoxy/gl.h</text>
</a>
</g>
</g>
<!-- Node6&#45;&gt;Node21 -->
<g id="edge22_Node000006_Node000021" class="edge">
<title>Node6&#45;&gt;Node21</title>
<g id="a_edge22_Node000006_Node000021"><a xlink:title=" ">
<path fill="none" stroke="#63b8ff" d="M872.38,-117.94C922.77,-111.68 1039.61,-96.45 1147.44,-76.39"/>
<polygon fill="#63b8ff" stroke="#63b8ff" points="1147.85,-79.87 1157.03,-74.59 1146.55,-72.99 1147.85,-79.87"/>
</a>
</g>
</g>
<!-- Node22 -->
<g id="Node000022" class="node">
<title>Node22</title>
<g id="a_Node000022"><a xlink:title=" ">
<polygon fill="#e0e0e0" stroke="#999999" points="1290.5,-76 1237.75,-76 1237.75,-56 1290.5,-56 1290.5,-76"/>
<text text-anchor="middle" x="1264.12" y="-62.5" font-family="Helvetica,sans-Serif" font-size="10.00">GL/glu.h</text>
</a>
</g>
</g>
<!-- Node6&#45;&gt;Node22 -->
<g id="edge23_Node000006_Node000022" class="edge">
<title>Node6&#45;&gt;Node22</title>
<g id="a_edge23_Node000006_Node000022"><a xlink:title=" ">
<path fill="none" stroke="#63b8ff" d="M872.33,-119.21C932.13,-114.71 1087.39,-101.58 1226.21,-76.33"/>
<polygon fill="#63b8ff" stroke="#63b8ff" points="1226.77,-79.79 1235.97,-74.53 1225.5,-72.9 1226.77,-79.79"/>
</a>
</g>
</g>
<!-- Node23 -->
<g id="Node000023" class="node">
<title>Node23</title>
<g id="a_Node000023"><a xlink:title=" ">
<polygon fill="#e0e0e0" stroke="#999999" points="1375.25,-76 1309,-76 1309,-56 1375.25,-56 1375.25,-76"/>
<text text-anchor="middle" x="1342.12" y="-62.5" font-family="Helvetica,sans-Serif" font-size="10.00">epoxy/glx.h</text>
</a>
</g>
</g>
<!-- Node6&#45;&gt;Node23 -->
<g id="edge24_Node000006_Node000023" class="edge">
<title>Node6&#45;&gt;Node23</title>
<g id="a_edge24_Node000006_Node000023"><a xlink:title=" ">
<path fill="none" stroke="#63b8ff" d="M872.23,-119.45C939.38,-115.1 1128.82,-101.52 1297.52,-76.06"/>
<polygon fill="#63b8ff" stroke="#63b8ff" points="1298,-79.53 1307.36,-74.56 1296.94,-72.61 1298,-79.53"/>
</a>
</g>
</g>
<!-- Node24 -->
<g id="Node000024" class="node">
<title>Node24</title>
<g id="a_Node000024"><a xlink:href="../../dc/db0/math__3d_8h.html" target="_top" xlink:title="Functions for OpenGL math.">
<polygon fill="white" stroke="#666666" points="1558,-76 1496.25,-76 1496.25,-56 1558,-56 1558,-76"/>
<text text-anchor="middle" x="1527.12" y="-62.5" font-family="Helvetica,sans-Serif" font-size="10.00">math_3d.h</text>
</a>
</g>
</g>
<!-- Node6&#45;&gt;Node24 -->
<g id="edge25_Node000006_Node000024" class="edge">
<title>Node6&#45;&gt;Node24</title>
<g id="a_edge25_Node000006_Node000024"><a xlink:title=" ">
<path fill="none" stroke="#63b8ff" d="M872.35,-120.36C958.14,-117.94 1246.37,-107.8 1482.12,-76 1483.13,-75.86 1484.14,-75.72 1485.16,-75.57"/>
<polygon fill="#63b8ff" stroke="#63b8ff" points="1485.45,-79.07 1494.73,-73.97 1484.29,-72.17 1485.45,-79.07"/>
</a>
</g>
</g>
<!-- Node25 -->
<g id="Node000025" class="node">
<title>Node25</title>
<g id="a_Node000025"><a xlink:href="../../da/d7e/glwin_8h.html" target="_top" xlink:title="Variable declarations related the OpenGL window &#160;&#160;Data structure declarations related the OpenGL wind...">
<polygon fill="white" stroke="#666666" points="1440.5,-76 1393.75,-76 1393.75,-56 1440.5,-56 1440.5,-76"/>
<text text-anchor="middle" x="1417.12" y="-62.5" font-family="Helvetica,sans-Serif" font-size="10.00">glwin.h</text>
</a>
</g>
</g>
<!-- Node6&#45;&gt;Node25 -->
<g id="edge28_Node000006_Node000025" class="edge">
<title>Node6&#45;&gt;Node25</title>
<g id="a_edge28_Node000006_Node000025"><a xlink:title=" ">
<path fill="none" stroke="#63b8ff" d="M872.5,-120.52C948.45,-118.72 1180.68,-110.73 1382.35,-75.96"/>
<polygon fill="#63b8ff" stroke="#63b8ff" points="1382.71,-79.45 1391.96,-74.27 1381.5,-72.55 1382.71,-79.45"/>
</a>
</g>
</g>
<!-- Node24&#45;&gt;Node3 -->
<g id="edge26_Node000024_Node000003" class="edge">
<title>Node24&#45;&gt;Node3</title>
<g id="a_edge26_Node000024_Node000003"><a xlink:title=" ">
<path fill="none" stroke="#63b8ff" d="M1537.4,-55.59C1545.69,-48.01 1557.57,-37.13 1567.53,-28.02"/>
<polygon fill="#63b8ff" stroke="#63b8ff" points="1569.84,-30.65 1574.85,-21.32 1565.11,-25.49 1569.84,-30.65"/>
</a>
</g>
</g>
<!-- Node24&#45;&gt;Node11 -->
<g id="edge27_Node000024_Node000011" class="edge">
<title>Node24&#45;&gt;Node11</title>
<g id="a_edge27_Node000024_Node000011"><a xlink:title=" ">
<path fill="none" stroke="#63b8ff" d="M1523.99,-55.59C1521.74,-48.86 1518.64,-39.53 1515.84,-31.15"/>
<polygon fill="#63b8ff" stroke="#63b8ff" points="1519.19,-30.11 1512.7,-21.73 1512.55,-32.33 1519.19,-30.11"/>
</a>
</g>
</g>
<!-- Node26 -->
<g id="Node000026" class="node">
<title>Node26</title>
<g id="a_Node000026"><a xlink:href="../../d5/d9e/ogl__shading_8h.html" target="_top" xlink:title="Variable declarations related to GLSL programs &#160;&#160;Data structure declarations related to GLSL programs...">
<polygon fill="white" stroke="#666666" points="1455.12,-20 1379.12,-20 1379.12,0 1455.12,0 1455.12,-20"/>
<text text-anchor="middle" x="1417.12" y="-6.5" font-family="Helvetica,sans-Serif" font-size="10.00">ogl_shading.h</text>
</a>
</g>
</g>
<!-- Node25&#45;&gt;Node26 -->
<g id="edge29_Node000025_Node000026" class="edge">
<title>Node25&#45;&gt;Node26</title>
<g id="a_edge29_Node000025_Node000026"><a xlink:title=" ">
<path fill="none" stroke="#63b8ff" d="M1417.12,-55.59C1417.12,-49.01 1417.12,-39.96 1417.12,-31.73"/>
<polygon fill="#63b8ff" stroke="#63b8ff" points="1420.63,-31.81 1417.13,-21.81 1413.63,-31.81 1420.63,-31.81"/>
</a>
</g>
</g>
<!-- Node27&#45;&gt;Node6 -->
<g id="edge31_Node000027_Node000006" class="edge">
<title>Node27&#45;&gt;Node6</title>
<g id="a_edge31_Node000027_Node000006"><a xlink:title=" ">
<path fill="none" stroke="#63b8ff" d="M994.85,-169.38C965.73,-160.24 916.66,-144.83 883.12,-134.3"/>
<polygon fill="#63b8ff" stroke="#63b8ff" points="884.43,-131.04 873.84,-131.39 882.34,-137.72 884.43,-131.04"/>
</a>
</g>
</g>
</g>
</svg>
