<?xml version="1.0" encoding="UTF-8" standalone="no"?>
<!DOCTYPE svg PUBLIC "-//W3C//DTD SVG 1.1//EN"
 "http://www.w3.org/Graphics/SVG/1.1/DTD/svg11.dtd">
<!-- Generated by graphviz version 9.0.0 (20230911.1827)
 -->
<!-- Title: curve/glyph.c Pages: 1 -->
<svg width="1721pt" height="252pt"
 viewBox="0.00 0.00 1720.62 252.00" xmlns="http://www.w3.org/2000/svg" xmlns:xlink="http://www.w3.org/1999/xlink">
<g id="graph0" class="graph" transform="scale(1 1) rotate(0) translate(4 248)">
<title>curve/glyph.c</title>
<!-- Node1 -->
<g id="Node000001" class="node">
<title>Node1</title>
<g id="a_Node000001"><a xlink:title="Functions to draw the glyphs.">
<polygon fill="#999999" stroke="#666666" points="263.88,-244 189.38,-244 189.38,-224 263.88,-224 263.88,-244"/>
<text text-anchor="middle" x="226.62" y="-230.5" font-family="Helvetica,sans-Serif" font-size="10.00">curve/glyph.c</text>
</a>
</g>
</g>
<!-- Node2 -->
<g id="Node000002" class="node">
<title>Node2</title>
<g id="a_Node000002"><a xlink:title=" ">
<polygon fill="#e0e0e0" stroke="#999999" points="45.25,-188 0,-188 0,-168 45.25,-168 45.25,-188"/>
<text text-anchor="middle" x="22.62" y="-174.5" font-family="Helvetica,sans-Serif" font-size="10.00">cairo.h</text>
</a>
</g>
</g>
<!-- Node1&#45;&gt;Node2 -->
<g id="edge1_Node000001_Node000002" class="edge">
<title>Node1&#45;&gt;Node2</title>
<g id="a_edge1_Node000001_Node000002"><a xlink:title=" ">
<path fill="none" stroke="#63b8ff" d="M191.09,-223.59C153.23,-213.57 93.72,-197.82 56.5,-187.97"/>
<polygon fill="#63b8ff" stroke="#63b8ff" points="57.74,-184.68 47.18,-185.5 55.95,-191.44 57.74,-184.68"/>
</a>
</g>
</g>
<!-- Node3 -->
<g id="Node000003" class="node">
<title>Node3</title>
<g id="a_Node000003"><a xlink:title=" ">
<polygon fill="#e0e0e0" stroke="#999999" points="134.62,-20 88.62,-20 88.62,0 134.62,0 134.62,-20"/>
<text text-anchor="middle" x="111.62" y="-6.5" font-family="Helvetica,sans-Serif" font-size="10.00">math.h</text>
</a>
</g>
</g>
<!-- Node1&#45;&gt;Node3 -->
<g id="edge2_Node000001_Node000003" class="edge">
<title>Node1&#45;&gt;Node3</title>
<g id="a_edge2_Node000001_Node000003"><a xlink:title=" ">
<path fill="none" stroke="#63b8ff" d="M216.57,-223.56C193.18,-200.85 135.43,-140.24 113.62,-76 108.73,-61.58 108.44,-44.31 109.26,-31.2"/>
<polygon fill="#63b8ff" stroke="#63b8ff" points="112.71,-31.91 110.13,-21.63 105.74,-31.27 112.71,-31.91"/>
</a>
</g>
</g>
<!-- Node4 -->
<g id="Node000004" class="node">
<title>Node4</title>
<g id="a_Node000004"><a xlink:href="../../d2/d49/global_8h.html" target="_top" xlink:title="Global variable declarations &#160;&#160;Global convenience function declarations &#160;&#160;Global data structure defin...">
<polygon fill="white" stroke="#666666" points="724.5,-132 674.75,-132 674.75,-112 724.5,-112 724.5,-132"/>
<text text-anchor="middle" x="699.62" y="-118.5" font-family="Helvetica,sans-Serif" font-size="10.00">global.h</text>
</a>
</g>
</g>
<!-- Node1&#45;&gt;Node4 -->
<g id="edge3_Node000001_Node000004" class="edge">
<title>Node1&#45;&gt;Node4</title>
<g id="a_edge3_Node000001_Node000004"><a xlink:title=" ">
<path fill="none" stroke="#63b8ff" d="M264.14,-224.28C353.02,-203.6 575.58,-151.85 663.28,-131.45"/>
<polygon fill="#63b8ff" stroke="#63b8ff" points="664.07,-134.86 673.02,-129.19 662.49,-128.04 664.07,-134.86"/>
</a>
</g>
</g>
<!-- Node26 -->
<g id="Node000026" class="node">
<title>Node26</title>
<g id="a_Node000026"><a xlink:href="../../df/de9/curve_8h.html" target="_top" xlink:title="Variable declarations for the curve widget &#160;&#160;Functions for interactions with the curve widget.">
<polygon fill="white" stroke="#666666" points="647.75,-188 599.5,-188 599.5,-168 647.75,-168 647.75,-188"/>
<text text-anchor="middle" x="623.62" y="-174.5" font-family="Helvetica,sans-Serif" font-size="10.00">curve.h</text>
</a>
</g>
</g>
<!-- Node1&#45;&gt;Node26 -->
<g id="edge28_Node000001_Node000026" class="edge">
<title>Node1&#45;&gt;Node26</title>
<g id="a_edge28_Node000001_Node000026"><a xlink:title=" ">
<path fill="none" stroke="#63b8ff" d="M264.33,-227.87C340.94,-217.45 513.84,-193.93 588.36,-183.8"/>
<polygon fill="#63b8ff" stroke="#63b8ff" points="588.51,-187.31 597.94,-182.49 587.56,-180.37 588.51,-187.31"/>
</a>
</g>
</g>
<!-- Node4&#45;&gt;Node3 -->
<g id="edge13_Node000004_Node000003" class="edge">
<title>Node4&#45;&gt;Node3</title>
<g id="a_edge13_Node000004_Node000003"><a xlink:title=" ">
<path fill="none" stroke="#63b8ff" d="M674.44,-120.67C569.86,-119.06 173.3,-110.7 130.62,-76 117.51,-65.34 113.13,-46.15 111.82,-31.38"/>
<polygon fill="#63b8ff" stroke="#63b8ff" points="115.33,-31.63 111.38,-21.81 108.34,-31.96 115.33,-31.63"/>
</a>
</g>
</g>
<!-- Node5 -->
<g id="Node000005" class="node">
<title>Node5</title>
<g id="a_Node000005"><a xlink:title=" ">
<polygon fill="#e0e0e0" stroke="#999999" points="259.25,-76 220,-76 220,-56 259.25,-56 259.25,-76"/>
<text text-anchor="middle" x="239.62" y="-62.5" font-family="Helvetica,sans-Serif" font-size="10.00">glib.h</text>
</a>
</g>
</g>
<!-- Node4&#45;&gt;Node5 -->
<g id="edge4_Node000004_Node000005" class="edge">
<title>Node4&#45;&gt;Node5</title>
<g id="a_edge4_Node000004_Node000005"><a xlink:title=" ">
<path fill="none" stroke="#63b8ff" d="M674.51,-120.2C609.14,-117.74 428.37,-108.49 270.52,-76.25"/>
<polygon fill="#63b8ff" stroke="#63b8ff" points="271.66,-72.92 261.16,-74.3 270.24,-79.77 271.66,-72.92"/>
</a>
</g>
</g>
<!-- Node6 -->
<g id="Node000006" class="node">
<title>Node6</title>
<g id="a_Node000006"><a xlink:title=" ">
<polygon fill="#e0e0e0" stroke="#999999" points="342.38,-76 276.88,-76 276.88,-56 342.38,-56 342.38,-76"/>
<text text-anchor="middle" x="309.62" y="-62.5" font-family="Helvetica,sans-Serif" font-size="10.00">glib/gi18n.h</text>
</a>
</g>
</g>
<!-- Node4&#45;&gt;Node6 -->
<g id="edge5_Node000004_Node000006" class="edge">
<title>Node4&#45;&gt;Node6</title>
<g id="a_edge5_Node000004_Node000006"><a xlink:title=" ">
<path fill="none" stroke="#63b8ff" d="M674.62,-118.48C618.91,-112.72 480.17,-97.54 353.62,-76.21"/>
<polygon fill="#63b8ff" stroke="#63b8ff" points="354.53,-72.82 344.08,-74.59 353.35,-79.72 354.53,-72.82"/>
</a>
</g>
</g>
<!-- Node7 -->
<g id="Node000007" class="node">
<title>Node7</title>
<g id="a_Node000007"><a xlink:title=" ">
<polygon fill="#e0e0e0" stroke="#999999" points="410.5,-76 360.75,-76 360.75,-56 410.5,-56 410.5,-76"/>
<text text-anchor="middle" x="385.62" y="-62.5" font-family="Helvetica,sans-Serif" font-size="10.00">locale.h</text>
</a>
</g>
</g>
<!-- Node4&#45;&gt;Node7 -->
<g id="edge6_Node000004_Node000007" class="edge">
<title>Node4&#45;&gt;Node7</title>
<g id="a_edge6_Node000004_Node000007"><a xlink:title=" ">
<path fill="none" stroke="#63b8ff" d="M674.37,-117.8C626.88,-111.6 520.85,-96.89 421.9,-76.3"/>
<polygon fill="#63b8ff" stroke="#63b8ff" points="422.8,-72.92 412.29,-74.28 421.35,-79.77 422.8,-72.92"/>
</a>
</g>
</g>
<!-- Node8 -->
<g id="Node000008" class="node">
<title>Node8</title>
<g id="a_Node000008"><a xlink:title=" ">
<polygon fill="#e0e0e0" stroke="#999999" points="478.88,-76 428.38,-76 428.38,-56 478.88,-56 478.88,-76"/>
<text text-anchor="middle" x="453.62" y="-62.5" font-family="Helvetica,sans-Serif" font-size="10.00">unistd.h</text>
</a>
</g>
</g>
<!-- Node4&#45;&gt;Node8 -->
<g id="edge7_Node000004_Node000008" class="edge">
<title>Node4&#45;&gt;Node8</title>
<g id="a_edge7_Node000004_Node000008"><a xlink:title=" ">
<path fill="none" stroke="#63b8ff" d="M674.41,-116.07C636.54,-108.57 562.48,-93.57 490.31,-76.55"/>
<polygon fill="#63b8ff" stroke="#63b8ff" points="491.22,-73.17 480.68,-74.27 489.6,-79.98 491.22,-73.17"/>
</a>
</g>
</g>
<!-- Node9 -->
<g id="Node000009" class="node">
<title>Node9</title>
<g id="a_Node000009"><a xlink:title=" ">
<polygon fill="#e0e0e0" stroke="#999999" points="544.75,-76 496.5,-76 496.5,-56 544.75,-56 544.75,-76"/>
<text text-anchor="middle" x="520.62" y="-62.5" font-family="Helvetica,sans-Serif" font-size="10.00">string.h</text>
</a>
</g>
</g>
<!-- Node4&#45;&gt;Node9 -->
<g id="edge8_Node000004_Node000009" class="edge">
<title>Node4&#45;&gt;Node9</title>
<g id="a_edge8_Node000004_Node000009"><a xlink:title=" ">
<path fill="none" stroke="#63b8ff" d="M674.36,-113.38C643.4,-104.04 590.77,-88.16 555.85,-77.63"/>
<polygon fill="#63b8ff" stroke="#63b8ff" points="557.22,-74.38 546.64,-74.85 555.2,-81.09 557.22,-74.38"/>
</a>
</g>
</g>
<!-- Node10 -->
<g id="Node000010" class="node">
<title>Node10</title>
<g id="a_Node000010"><a xlink:title=" ">
<polygon fill="#e0e0e0" stroke="#999999" points="397.25,-20 352,-20 352,0 397.25,0 397.25,-20"/>
<text text-anchor="middle" x="374.62" y="-6.5" font-family="Helvetica,sans-Serif" font-size="10.00">stdio.h</text>
</a>
</g>
</g>
<!-- Node4&#45;&gt;Node10 -->
<g id="edge9_Node000004_Node000010" class="edge">
<title>Node4&#45;&gt;Node10</title>
<g id="a_edge9_Node000004_Node000010"><a xlink:title=" ">
<path fill="none" stroke="#63b8ff" d="M675.33,-111.6C653.26,-102.89 619.93,-89.31 591.62,-76 574.35,-67.88 571.45,-62.82 553.62,-56 504.61,-37.25 445.05,-24.07 408.5,-17.01"/>
<polygon fill="#63b8ff" stroke="#63b8ff" points="409.44,-13.63 398.97,-15.22 408.15,-20.51 409.44,-13.63"/>
</a>
</g>
</g>
<!-- Node11 -->
<g id="Node000011" class="node">
<title>Node11</title>
<g id="a_Node000011"><a xlink:title=" ">
<polygon fill="#e0e0e0" stroke="#999999" points="648.38,-76 600.88,-76 600.88,-56 648.38,-56 648.38,-76"/>
<text text-anchor="middle" x="624.62" y="-62.5" font-family="Helvetica,sans-Serif" font-size="10.00">stdlib.h</text>
</a>
</g>
</g>
<!-- Node4&#45;&gt;Node11 -->
<g id="edge10_Node000004_Node000011" class="edge">
<title>Node4&#45;&gt;Node11</title>
<g id="a_edge10_Node000004_Node000011"><a xlink:title=" ">
<path fill="none" stroke="#63b8ff" d="M686.56,-111.59C675.66,-103.74 659.87,-92.38 646.97,-83.09"/>
<polygon fill="#63b8ff" stroke="#63b8ff" points="649.18,-80.37 639.02,-77.36 645.09,-86.05 649.18,-80.37"/>
</a>
</g>
</g>
<!-- Node12 -->
<g id="Node000012" class="node">
<title>Node12</title>
<g id="a_Node000012"><a xlink:title=" ">
<polygon fill="#e0e0e0" stroke="#999999" points="733.12,-76 666.12,-76 666.12,-56 733.12,-56 733.12,-76"/>
<text text-anchor="middle" x="699.62" y="-62.5" font-family="Helvetica,sans-Serif" font-size="10.00">sys/types.h</text>
</a>
</g>
</g>
<!-- Node4&#45;&gt;Node12 -->
<g id="edge11_Node000004_Node000012" class="edge">
<title>Node4&#45;&gt;Node12</title>
<g id="a_edge11_Node000004_Node000012"><a xlink:title=" ">
<path fill="none" stroke="#63b8ff" d="M699.62,-111.59C699.62,-105.01 699.62,-95.96 699.62,-87.73"/>
<polygon fill="#63b8ff" stroke="#63b8ff" points="703.13,-87.81 699.63,-77.81 696.13,-87.81 703.13,-87.81"/>
</a>
</g>
</g>
<!-- Node13 -->
<g id="Node000013" class="node">
<title>Node13</title>
<g id="a_Node000013"><a xlink:title=" ">
<polygon fill="#e0e0e0" stroke="#999999" points="810.38,-76 750.88,-76 750.88,-56 810.38,-56 810.38,-76"/>
<text text-anchor="middle" x="780.62" y="-62.5" font-family="Helvetica,sans-Serif" font-size="10.00">sys/stat.h</text>
</a>
</g>
</g>
<!-- Node4&#45;&gt;Node13 -->
<g id="edge12_Node000004_Node000013" class="edge">
<title>Node4&#45;&gt;Node13</title>
<g id="a_edge12_Node000004_Node000013"><a xlink:title=" ">
<path fill="none" stroke="#63b8ff" d="M713.73,-111.59C725.62,-103.67 742.89,-92.16 756.9,-82.82"/>
<polygon fill="#63b8ff" stroke="#63b8ff" points="758.77,-85.78 765.15,-77.32 754.88,-79.95 758.77,-85.78"/>
</a>
</g>
</g>
<!-- Node14 -->
<g id="Node000014" class="node">
<title>Node14</title>
<g id="a_Node000014"><a xlink:title=" ">
<polygon fill="#e0e0e0" stroke="#999999" points="882.75,-76 828.5,-76 828.5,-56 882.75,-56 882.75,-76"/>
<text text-anchor="middle" x="855.62" y="-62.5" font-family="Helvetica,sans-Serif" font-size="10.00">gtk/gtk.h</text>
</a>
</g>
</g>
<!-- Node4&#45;&gt;Node14 -->
<g id="edge14_Node000004_Node000014" class="edge">
<title>Node4&#45;&gt;Node14</title>
<g id="a_edge14_Node000004_Node000014"><a xlink:title=" ">
<path fill="none" stroke="#63b8ff" d="M724.69,-112.32C749.82,-103.63 788.82,-90.13 817.73,-80.12"/>
<polygon fill="#63b8ff" stroke="#63b8ff" points="818.53,-83.55 826.83,-76.97 816.24,-76.93 818.53,-83.55"/>
</a>
</g>
</g>
<!-- Node15 -->
<g id="Node000015" class="node">
<title>Node15</title>
<g id="a_Node000015"><a xlink:title=" ">
<polygon fill="#e0e0e0" stroke="#999999" points="960.38,-76 900.88,-76 900.88,-56 960.38,-56 960.38,-76"/>
<text text-anchor="middle" x="930.62" y="-62.5" font-family="Helvetica,sans-Serif" font-size="10.00">gtk/gtkx.h</text>
</a>
</g>
</g>
<!-- Node4&#45;&gt;Node15 -->
<g id="edge15_Node000004_Node000015" class="edge">
<title>Node4&#45;&gt;Node15</title>
<g id="a_edge15_Node000004_Node000015"><a xlink:title=" ">
<path fill="none" stroke="#63b8ff" d="M724.79,-115.12C764.32,-105.88 841.41,-87.86 889.21,-76.68"/>
<polygon fill="#63b8ff" stroke="#63b8ff" points="889.98,-80.1 898.92,-74.41 888.39,-73.28 889.98,-80.1"/>
</a>
</g>
</g>
<!-- Node16 -->
<g id="Node000016" class="node">
<title>Node16</title>
<g id="a_Node000016"><a xlink:title=" ">
<polygon fill="#e0e0e0" stroke="#999999" points="1037,-76 978.25,-76 978.25,-56 1037,-56 1037,-76"/>
<text text-anchor="middle" x="1007.62" y="-62.5" font-family="Helvetica,sans-Serif" font-size="10.00">gdk/gdk.h</text>
</a>
</g>
</g>
<!-- Node4&#45;&gt;Node16 -->
<g id="edge16_Node000004_Node000016" class="edge">
<title>Node4&#45;&gt;Node16</title>
<g id="a_edge16_Node000004_Node000016"><a xlink:title=" ">
<path fill="none" stroke="#63b8ff" d="M724.67,-117.4C770.65,-110.68 871.85,-95.3 966.58,-76.51"/>
<polygon fill="#63b8ff" stroke="#63b8ff" points="967.19,-79.96 976.31,-74.56 965.82,-73.1 967.19,-79.96"/>
</a>
</g>
</g>
<!-- Node17 -->
<g id="Node000017" class="node">
<title>Node17</title>
<g id="a_Node000017"><a xlink:title=" ">
<polygon fill="#e0e0e0" stroke="#999999" points="1153.88,-76 1055.38,-76 1055.38,-56 1153.88,-56 1153.88,-76"/>
<text text-anchor="middle" x="1104.62" y="-62.5" font-family="Helvetica,sans-Serif" font-size="10.00">gdk/gdkkeysyms.h</text>
</a>
</g>
</g>
<!-- Node4&#45;&gt;Node17 -->
<g id="edge17_Node000004_Node000017" class="edge">
<title>Node4&#45;&gt;Node17</title>
<g id="a_edge17_Node000004_Node000017"><a xlink:title=" ">
<path fill="none" stroke="#63b8ff" d="M724.83,-117.92C780.34,-111.08 917.6,-93.96 1044.04,-76.2"/>
<polygon fill="#63b8ff" stroke="#63b8ff" points="1044.15,-79.71 1053.56,-74.85 1043.17,-72.78 1044.15,-79.71"/>
</a>
</g>
</g>
<!-- Node18 -->
<g id="Node000018" class="node">
<title>Node18</title>
<g id="a_Node000018"><a xlink:title=" ">
<polygon fill="#e0e0e0" stroke="#999999" points="1289.25,-76 1172,-76 1172,-56 1289.25,-56 1289.25,-76"/>
<text text-anchor="middle" x="1230.62" y="-62.5" font-family="Helvetica,sans-Serif" font-size="10.00">gdk&#45;pixbuf/gdk&#45;pixbuf.h</text>
</a>
</g>
</g>
<!-- Node4&#45;&gt;Node18 -->
<g id="edge18_Node000004_Node000018" class="edge">
<title>Node4&#45;&gt;Node18</title>
<g id="a_edge18_Node000004_Node000018"><a xlink:title=" ">
<path fill="none" stroke="#63b8ff" d="M724.75,-118.87C792.89,-113.02 987.15,-95.91 1160.3,-76.23"/>
<polygon fill="#63b8ff" stroke="#63b8ff" points="1160.63,-79.71 1170.16,-75.1 1159.83,-72.76 1160.63,-79.71"/>
</a>
</g>
</g>
<!-- Node19 -->
<g id="Node000019" class="node">
<title>Node19</title>
<g id="a_Node000019"><a xlink:title=" ">
<polygon fill="#e0e0e0" stroke="#999999" points="1398.12,-76 1307.12,-76 1307.12,-56 1398.12,-56 1398.12,-76"/>
<text text-anchor="middle" x="1352.62" y="-62.5" font-family="Helvetica,sans-Serif" font-size="10.00">pango/pangoft2.h</text>
</a>
</g>
</g>
<!-- Node4&#45;&gt;Node19 -->
<g id="edge19_Node000004_Node000019" class="edge">
<title>Node4&#45;&gt;Node19</title>
<g id="a_edge19_Node000004_Node000019"><a xlink:title=" ">
<path fill="none" stroke="#63b8ff" d="M724.81,-119.92C806.02,-116.28 1068.42,-103.16 1295.58,-76.27"/>
<polygon fill="#63b8ff" stroke="#63b8ff" points="1295.69,-79.79 1305.21,-75.12 1294.86,-72.84 1295.69,-79.79"/>
</a>
</g>
</g>
<!-- Node20 -->
<g id="Node000020" class="node">
<title>Node20</title>
<g id="a_Node000020"><a xlink:title=" ">
<polygon fill="#e0e0e0" stroke="#999999" points="1477.12,-76 1416.12,-76 1416.12,-56 1477.12,-56 1477.12,-76"/>
<text text-anchor="middle" x="1446.62" y="-62.5" font-family="Helvetica,sans-Serif" font-size="10.00">epoxy/gl.h</text>
</a>
</g>
</g>
<!-- Node4&#45;&gt;Node20 -->
<g id="edge20_Node000004_Node000020" class="edge">
<title>Node4&#45;&gt;Node20</title>
<g id="a_edge20_Node000004_Node000020"><a xlink:title=" ">
<path fill="none" stroke="#63b8ff" d="M724.86,-120.88C815.58,-120.15 1133.7,-114.89 1404.4,-76.26"/>
<polygon fill="#63b8ff" stroke="#63b8ff" points="1404.74,-79.75 1414.13,-74.85 1403.74,-72.82 1404.74,-79.75"/>
</a>
</g>
</g>
<!-- Node21 -->
<g id="Node000021" class="node">
<title>Node21</title>
<g id="a_Node000021"><a xlink:title=" ">
<polygon fill="#e0e0e0" stroke="#999999" points="1548,-76 1495.25,-76 1495.25,-56 1548,-56 1548,-76"/>
<text text-anchor="middle" x="1521.62" y="-62.5" font-family="Helvetica,sans-Serif" font-size="10.00">GL/glu.h</text>
</a>
</g>
</g>
<!-- Node4&#45;&gt;Node21 -->
<g id="edge21_Node000004_Node000021" class="edge">
<title>Node4&#45;&gt;Node21</title>
<g id="a_edge21_Node000004_Node000021"><a xlink:title=" ">
<path fill="none" stroke="#63b8ff" d="M724.96,-121.33C822.2,-122.25 1180.9,-122.2 1483.78,-76.15"/>
<polygon fill="#63b8ff" stroke="#63b8ff" points="1484.14,-79.64 1493.49,-74.65 1483.07,-72.72 1484.14,-79.64"/>
</a>
</g>
</g>
<!-- Node22 -->
<g id="Node000022" class="node">
<title>Node22</title>
<g id="a_Node000022"><a xlink:title=" ">
<polygon fill="#e0e0e0" stroke="#999999" points="1632.75,-76 1566.5,-76 1566.5,-56 1632.75,-56 1632.75,-76"/>
<text text-anchor="middle" x="1599.62" y="-62.5" font-family="Helvetica,sans-Serif" font-size="10.00">epoxy/glx.h</text>
</a>
</g>
</g>
<!-- Node4&#45;&gt;Node22 -->
<g id="edge22_Node000004_Node000022" class="edge">
<title>Node4&#45;&gt;Node22</title>
<g id="a_edge22_Node000004_Node000022"><a xlink:title=" ">
<path fill="none" stroke="#63b8ff" d="M724.99,-121.09C827.5,-121.15 1221.13,-118.55 1555.02,-75.95"/>
<polygon fill="#63b8ff" stroke="#63b8ff" points="1555.41,-79.43 1564.88,-74.68 1554.51,-72.49 1555.41,-79.43"/>
</a>
</g>
</g>
<!-- Node23 -->
<g id="Node000023" class="node">
<title>Node23</title>
<g id="a_Node000023"><a xlink:href="../../dc/db0/math__3d_8h.html" target="_top" xlink:title="Functions for OpenGL math.">
<polygon fill="white" stroke="#666666" points="201.5,-76 139.75,-76 139.75,-56 201.5,-56 201.5,-76"/>
<text text-anchor="middle" x="170.62" y="-62.5" font-family="Helvetica,sans-Serif" font-size="10.00">math_3d.h</text>
</a>
</g>
</g>
<!-- Node4&#45;&gt;Node23 -->
<g id="edge23_Node000004_Node000023" class="edge">
<title>Node4&#45;&gt;Node23</title>
<g id="a_edge23_Node000004_Node000023"><a xlink:title=" ">
<path fill="none" stroke="#63b8ff" d="M674.29,-119.83C603.15,-116.3 395.38,-104.31 213.13,-76.2"/>
<polygon fill="#63b8ff" stroke="#63b8ff" points="213.91,-72.78 203.49,-74.7 212.83,-79.7 213.91,-72.78"/>
</a>
</g>
</g>
<!-- Node24 -->
<g id="Node000024" class="node">
<title>Node24</title>
<g id="a_Node000024"><a xlink:href="../../da/d7e/glwin_8h.html" target="_top" xlink:title="Variable declarations related the OpenGL window &#160;&#160;Data structure declarations related the OpenGL wind...">
<polygon fill="white" stroke="#666666" points="1698,-76 1651.25,-76 1651.25,-56 1698,-56 1698,-76"/>
<text text-anchor="middle" x="1674.62" y="-62.5" font-family="Helvetica,sans-Serif" font-size="10.00">glwin.h</text>
</a>
</g>
</g>
<!-- Node4&#45;&gt;Node24 -->
<g id="edge26_Node000004_Node000024" class="edge">
<title>Node4&#45;&gt;Node24</title>
<g id="a_edge26_Node000004_Node000024"><a xlink:title=" ">
<path fill="none" stroke="#63b8ff" d="M724.78,-120.54C852.99,-118.1 1435.29,-105.63 1639.78,-75.83"/>
<polygon fill="#63b8ff" stroke="#63b8ff" points="1640.11,-79.32 1649.47,-74.35 1639.06,-72.4 1640.11,-79.32"/>
</a>
</g>
</g>
<!-- Node23&#45;&gt;Node3 -->
<g id="edge24_Node000023_Node000003" class="edge">
<title>Node23&#45;&gt;Node3</title>
<g id="a_edge24_Node000023_Node000003"><a xlink:title=" ">
<path fill="none" stroke="#63b8ff" d="M160.35,-55.59C152.06,-48.01 140.18,-37.13 130.22,-28.02"/>
<polygon fill="#63b8ff" stroke="#63b8ff" points="132.64,-25.49 122.9,-21.32 127.91,-30.65 132.64,-25.49"/>
</a>
</g>
</g>
<!-- Node23&#45;&gt;Node10 -->
<g id="edge25_Node000023_Node000010" class="edge">
<title>Node23&#45;&gt;Node10</title>
<g id="a_edge25_Node000023_Node000010"><a xlink:title=" ">
<path fill="none" stroke="#63b8ff" d="M201.61,-56.8C239.14,-46.86 302.15,-30.18 340.89,-19.93"/>
<polygon fill="#63b8ff" stroke="#63b8ff" points="341.36,-23.43 350.14,-17.48 339.57,-16.66 341.36,-23.43"/>
</a>
</g>
</g>
<!-- Node25 -->
<g id="Node000025" class="node">
<title>Node25</title>
<g id="a_Node000025"><a xlink:href="../../d5/d9e/ogl__shading_8h.html" target="_top" xlink:title="Variable declarations related to GLSL programs &#160;&#160;Data structure declarations related to GLSL programs...">
<polygon fill="white" stroke="#666666" points="1712.62,-20 1636.62,-20 1636.62,0 1712.62,0 1712.62,-20"/>
<text text-anchor="middle" x="1674.62" y="-6.5" font-family="Helvetica,sans-Serif" font-size="10.00">ogl_shading.h</text>
</a>
</g>
</g>
<!-- Node24&#45;&gt;Node25 -->
<g id="edge27_Node000024_Node000025" class="edge">
<title>Node24&#45;&gt;Node25</title>
<g id="a_edge27_Node000024_Node000025"><a xlink:title=" ">
<path fill="none" stroke="#63b8ff" d="M1674.62,-55.59C1674.62,-49.01 1674.62,-39.96 1674.62,-31.73"/>
<polygon fill="#63b8ff" stroke="#63b8ff" points="1678.13,-31.81 1674.63,-21.81 1671.13,-31.81 1678.13,-31.81"/>
</a>
</g>
</g>
<!-- Node26&#45;&gt;Node4 -->
<g id="edge29_Node000026_Node000004" class="edge">
<title>Node26&#45;&gt;Node4</title>
<g id="a_edge29_Node000026_Node000004"><a xlink:title=" ">
<path fill="none" stroke="#63b8ff" d="M636.86,-167.59C647.91,-159.74 663.91,-148.38 676.98,-139.09"/>
<polygon fill="#63b8ff" stroke="#63b8ff" points="678.93,-142 685.05,-133.36 674.87,-136.3 678.93,-142"/>
</a>
</g>
</g>
</g>
</svg>
