<?xml version="1.0" encoding="UTF-8" standalone="no"?>
<!DOCTYPE svg PUBLIC "-//W3C//DTD SVG 1.1//EN"
 "http://www.w3.org/Graphics/SVG/1.1/DTD/svg11.dtd">
<!-- Generated by graphviz version 2.43.0 (0)
 -->
<!-- Title: /home/slookeur/files/codeblocks&#45;files/atomes/src/curve/glyph.c Pages: 1 -->
<svg width="1841pt" height="269pt"
 viewBox="0.00 0.00 1841.00 269.00" xmlns="http://www.w3.org/2000/svg" xmlns:xlink="http://www.w3.org/1999/xlink">
<g id="graph0" class="graph" transform="scale(1 1) rotate(0) translate(4 265)">
<title>/home/slookeur/files/codeblocks&#45;files/atomes/src/curve/glyph.c</title>
<!-- Node1 -->
<g id="Node000001" class="node">
<title>Node1</title>
<g id="a_Node000001"><a xlink:title="Functions to draw the glyphs.">
<polygon fill="#999999" stroke="#666666" points="311,-261 173,-261 173,-220 311,-220 311,-261"/>
<text text-anchor="start" x="181" y="-249" font-family="Helvetica,sans-Serif" font-size="10.00">/home/slookeur/files</text>
<text text-anchor="start" x="181" y="-238" font-family="Helvetica,sans-Serif" font-size="10.00">/codeblocks&#45;files/atomes</text>
<text text-anchor="middle" x="242" y="-227" font-family="Helvetica,sans-Serif" font-size="10.00">/src/curve/glyph.c</text>
</a>
</g>
</g>
<!-- Node2 -->
<g id="Node000002" class="node">
<title>Node2</title>
<g id="a_Node000002"><a xlink:title=" ">
<polygon fill="#e0e0e0" stroke="#999999" points="50,-184 0,-184 0,-165 50,-165 50,-184"/>
<text text-anchor="middle" x="25" y="-172" font-family="Helvetica,sans-Serif" font-size="10.00">cairo.h</text>
</a>
</g>
</g>
<!-- Node1&#45;&gt;Node2 -->
<g id="edge1_Node000001_Node000002" class="edge">
<title>Node1&#45;&gt;Node2</title>
<g id="a_edge1_Node000001_Node000002"><a xlink:title=" ">
<path fill="none" stroke="#63b8ff" d="M175.71,-219.95C137.64,-208.72 91.35,-195.07 60.2,-185.88"/>
<polygon fill="#63b8ff" stroke="#63b8ff" points="60.83,-182.42 50.25,-182.95 58.85,-189.13 60.83,-182.42"/>
</a>
</g>
</g>
<!-- Node3 -->
<g id="Node000003" class="node">
<title>Node3</title>
<g id="a_Node000003"><a xlink:title=" ">
<polygon fill="#e0e0e0" stroke="#999999" points="141.5,-19 90.5,-19 90.5,0 141.5,0 141.5,-19"/>
<text text-anchor="middle" x="116" y="-7" font-family="Helvetica,sans-Serif" font-size="10.00">math.h</text>
</a>
</g>
</g>
<!-- Node1&#45;&gt;Node3 -->
<g id="edge2_Node000001_Node000003" class="edge">
<title>Node1&#45;&gt;Node3</title>
<g id="a_edge2_Node000001_Node000003"><a xlink:title=" ">
<path fill="none" stroke="#63b8ff" d="M221.16,-219.97C192.11,-191.21 140.56,-134.34 119,-74 113.83,-59.53 113.4,-42.02 114.08,-29.05"/>
<polygon fill="#63b8ff" stroke="#63b8ff" points="117.57,-29.27 114.87,-19.02 110.59,-28.71 117.57,-29.27"/>
</a>
</g>
</g>
<!-- Node4 -->
<g id="Node000004" class="node">
<title>Node4</title>
<g id="a_Node000004"><a xlink:href="../../d2/d49/global_8h.html" target="_top" xlink:title="Global variable declarations &#160;&#160;Global convenience function declarations &#160;&#160;Global data structure defin...">
<polygon fill="white" stroke="#666666" points="778,-129 722,-129 722,-110 778,-110 778,-129"/>
<text text-anchor="middle" x="750" y="-117" font-family="Helvetica,sans-Serif" font-size="10.00">global.h</text>
</a>
</g>
</g>
<!-- Node1&#45;&gt;Node4 -->
<g id="edge3_Node000001_Node000004" class="edge">
<title>Node1&#45;&gt;Node4</title>
<g id="a_edge3_Node000001_Node000004"><a xlink:title=" ">
<path fill="none" stroke="#63b8ff" d="M311.04,-223.33C419.75,-197.86 627.17,-149.27 712.21,-129.35"/>
<polygon fill="#63b8ff" stroke="#63b8ff" points="713.02,-132.76 721.95,-127.07 711.42,-125.94 713.02,-132.76"/>
</a>
</g>
</g>
<!-- Node26 -->
<g id="Node000026" class="node">
<title>Node26</title>
<g id="a_Node000026"><a xlink:href="../../df/de9/curve_8h.html" target="_top" xlink:title="Variable declarations for the curve widget &#160;&#160;Functions for interactions with the curve widget.">
<polygon fill="white" stroke="#666666" points="694.5,-184 641.5,-184 641.5,-165 694.5,-165 694.5,-184"/>
<text text-anchor="middle" x="668" y="-172" font-family="Helvetica,sans-Serif" font-size="10.00">curve.h</text>
</a>
</g>
</g>
<!-- Node1&#45;&gt;Node26 -->
<g id="edge28_Node000001_Node000026" class="edge">
<title>Node1&#45;&gt;Node26</title>
<g id="a_edge28_Node000001_Node000026"><a xlink:title=" ">
<path fill="none" stroke="#63b8ff" d="M311.39,-229.07C402.66,-215.36 559.79,-191.76 631,-181.06"/>
<polygon fill="#63b8ff" stroke="#63b8ff" points="631.9,-184.46 641.26,-179.52 630.86,-177.54 631.9,-184.46"/>
</a>
</g>
</g>
<!-- Node4&#45;&gt;Node3 -->
<g id="edge13_Node000004_Node000003" class="edge">
<title>Node4&#45;&gt;Node3</title>
<g id="a_edge13_Node000004_Node000003"><a xlink:title=" ">
<path fill="none" stroke="#63b8ff" d="M721.63,-118.31C606.91,-117.3 181.18,-111.05 135,-74 121.83,-63.43 117.51,-44.11 116.23,-29.55"/>
<polygon fill="#63b8ff" stroke="#63b8ff" points="119.71,-28.97 115.74,-19.14 112.72,-29.3 119.71,-28.97"/>
</a>
</g>
</g>
<!-- Node5 -->
<g id="Node000005" class="node">
<title>Node5</title>
<g id="a_Node000005"><a xlink:title=" ">
<polygon fill="#e0e0e0" stroke="#999999" points="274,-74 230,-74 230,-55 274,-55 274,-74"/>
<text text-anchor="middle" x="252" y="-62" font-family="Helvetica,sans-Serif" font-size="10.00">glib.h</text>
</a>
</g>
</g>
<!-- Node4&#45;&gt;Node5 -->
<g id="edge4_Node000004_Node000005" class="edge">
<title>Node4&#45;&gt;Node5</title>
<g id="a_edge4_Node000004_Node000005"><a xlink:title=" ">
<path fill="none" stroke="#63b8ff" d="M721.87,-117.51C650.27,-114.64 455.24,-104.57 284.18,-73.9"/>
<polygon fill="#63b8ff" stroke="#63b8ff" points="284.71,-70.44 274.24,-72.09 283.46,-77.33 284.71,-70.44"/>
</a>
</g>
</g>
<!-- Node6 -->
<g id="Node000006" class="node">
<title>Node6</title>
<g id="a_Node000006"><a xlink:title=" ">
<polygon fill="#e0e0e0" stroke="#999999" points="366,-74 292,-74 292,-55 366,-55 366,-74"/>
<text text-anchor="middle" x="329" y="-62" font-family="Helvetica,sans-Serif" font-size="10.00">glib/gi18n.h</text>
</a>
</g>
</g>
<!-- Node4&#45;&gt;Node6 -->
<g id="edge5_Node000004_Node000006" class="edge">
<title>Node4&#45;&gt;Node6</title>
<g id="a_edge5_Node000004_Node000006"><a xlink:title=" ">
<path fill="none" stroke="#63b8ff" d="M721.69,-115.77C660.57,-109.75 511.51,-94.33 376.25,-74.1"/>
<polygon fill="#63b8ff" stroke="#63b8ff" points="376.53,-70.6 366.12,-72.57 375.49,-77.52 376.53,-70.6"/>
</a>
</g>
</g>
<!-- Node7 -->
<g id="Node000007" class="node">
<title>Node7</title>
<g id="a_Node000007"><a xlink:title=" ">
<polygon fill="#e0e0e0" stroke="#999999" points="439.5,-74 384.5,-74 384.5,-55 439.5,-55 439.5,-74"/>
<text text-anchor="middle" x="412" y="-62" font-family="Helvetica,sans-Serif" font-size="10.00">locale.h</text>
</a>
</g>
</g>
<!-- Node4&#45;&gt;Node7 -->
<g id="edge6_Node000004_Node000007" class="edge">
<title>Node4&#45;&gt;Node7</title>
<g id="a_edge6_Node000004_Node000007"><a xlink:title=" ">
<path fill="none" stroke="#63b8ff" d="M721.66,-115.07C669.77,-108.63 555.84,-93.72 449.74,-74"/>
<polygon fill="#63b8ff" stroke="#63b8ff" points="450.3,-70.55 439.83,-72.14 449.01,-77.43 450.3,-70.55"/>
</a>
</g>
</g>
<!-- Node8 -->
<g id="Node000008" class="node">
<title>Node8</title>
<g id="a_Node000008"><a xlink:title=" ">
<polygon fill="#e0e0e0" stroke="#999999" points="514,-74 458,-74 458,-55 514,-55 514,-74"/>
<text text-anchor="middle" x="486" y="-62" font-family="Helvetica,sans-Serif" font-size="10.00">unistd.h</text>
</a>
</g>
</g>
<!-- Node4&#45;&gt;Node8 -->
<g id="edge7_Node000004_Node000008" class="edge">
<title>Node4&#45;&gt;Node8</title>
<g id="a_edge7_Node000004_Node000008"><a xlink:title=" ">
<path fill="none" stroke="#63b8ff" d="M721.98,-113.31C680.82,-105.62 601.36,-90.52 524.15,-74.19"/>
<polygon fill="#63b8ff" stroke="#63b8ff" points="524.77,-70.75 514.26,-72.09 523.32,-77.59 524.77,-70.75"/>
</a>
</g>
</g>
<!-- Node9 -->
<g id="Node000009" class="node">
<title>Node9</title>
<g id="a_Node000009"><a xlink:title=" ">
<polygon fill="#e0e0e0" stroke="#999999" points="585.5,-74 532.5,-74 532.5,-55 585.5,-55 585.5,-74"/>
<text text-anchor="middle" x="559" y="-62" font-family="Helvetica,sans-Serif" font-size="10.00">string.h</text>
</a>
</g>
</g>
<!-- Node4&#45;&gt;Node9 -->
<g id="edge8_Node000004_Node000009" class="edge">
<title>Node4&#45;&gt;Node9</title>
<g id="a_edge8_Node000004_Node000009"><a xlink:title=" ">
<path fill="none" stroke="#63b8ff" d="M721.82,-110.68C688.33,-101.39 632.39,-85.86 595.59,-75.65"/>
<polygon fill="#63b8ff" stroke="#63b8ff" points="596.33,-72.23 585.76,-72.92 594.46,-78.97 596.33,-72.23"/>
</a>
</g>
</g>
<!-- Node10 -->
<g id="Node000010" class="node">
<title>Node10</title>
<g id="a_Node000010"><a xlink:title=" ">
<polygon fill="#e0e0e0" stroke="#999999" points="425,-19 375,-19 375,0 425,0 425,-19"/>
<text text-anchor="middle" x="400" y="-7" font-family="Helvetica,sans-Serif" font-size="10.00">stdio.h</text>
</a>
</g>
</g>
<!-- Node4&#45;&gt;Node10 -->
<g id="edge9_Node000004_Node000010" class="edge">
<title>Node4&#45;&gt;Node10</title>
<g id="a_edge9_Node000004_Node000010"><a xlink:title=" ">
<path fill="none" stroke="#63b8ff" d="M726.24,-109.99C702.64,-101.4 665.52,-87.51 634,-74 615.91,-66.25 612.59,-61.46 594,-55 539.92,-36.21 474.57,-23.1 435.2,-16.19"/>
<polygon fill="#63b8ff" stroke="#63b8ff" points="435.74,-12.73 425.3,-14.49 434.56,-19.63 435.74,-12.73"/>
</a>
</g>
</g>
<!-- Node11 -->
<g id="Node000011" class="node">
<title>Node11</title>
<g id="a_Node000011"><a xlink:title=" ">
<polygon fill="#e0e0e0" stroke="#999999" points="695.5,-74 642.5,-74 642.5,-55 695.5,-55 695.5,-74"/>
<text text-anchor="middle" x="669" y="-62" font-family="Helvetica,sans-Serif" font-size="10.00">stdlib.h</text>
</a>
</g>
</g>
<!-- Node4&#45;&gt;Node11 -->
<g id="edge10_Node000004_Node000011" class="edge">
<title>Node4&#45;&gt;Node11</title>
<g id="a_edge10_Node000004_Node000011"><a xlink:title=" ">
<path fill="none" stroke="#63b8ff" d="M736.99,-109.98C724.54,-101.84 705.54,-89.41 690.79,-79.76"/>
<polygon fill="#63b8ff" stroke="#63b8ff" points="692.54,-76.72 682.25,-74.17 688.7,-82.57 692.54,-76.72"/>
</a>
</g>
</g>
<!-- Node12 -->
<g id="Node000012" class="node">
<title>Node12</title>
<g id="a_Node000012"><a xlink:title=" ">
<polygon fill="#e0e0e0" stroke="#999999" points="786,-74 714,-74 714,-55 786,-55 786,-74"/>
<text text-anchor="middle" x="750" y="-62" font-family="Helvetica,sans-Serif" font-size="10.00">sys/types.h</text>
</a>
</g>
</g>
<!-- Node4&#45;&gt;Node12 -->
<g id="edge11_Node000004_Node000012" class="edge">
<title>Node4&#45;&gt;Node12</title>
<g id="a_edge11_Node000004_Node000012"><a xlink:title=" ">
<path fill="none" stroke="#63b8ff" d="M750,-109.75C750,-102.8 750,-92.85 750,-84.13"/>
<polygon fill="#63b8ff" stroke="#63b8ff" points="753.5,-84.09 750,-74.09 746.5,-84.09 753.5,-84.09"/>
</a>
</g>
</g>
<!-- Node13 -->
<g id="Node000013" class="node">
<title>Node13</title>
<g id="a_Node000013"><a xlink:title=" ">
<polygon fill="#e0e0e0" stroke="#999999" points="868,-74 804,-74 804,-55 868,-55 868,-74"/>
<text text-anchor="middle" x="836" y="-62" font-family="Helvetica,sans-Serif" font-size="10.00">sys/stat.h</text>
</a>
</g>
</g>
<!-- Node4&#45;&gt;Node13 -->
<g id="edge12_Node000004_Node000013" class="edge">
<title>Node4&#45;&gt;Node13</title>
<g id="a_edge12_Node000004_Node000013"><a xlink:title=" ">
<path fill="none" stroke="#63b8ff" d="M763.82,-109.98C777.15,-101.77 797.58,-89.18 813.31,-79.49"/>
<polygon fill="#63b8ff" stroke="#63b8ff" points="815.25,-82.4 821.93,-74.17 811.58,-76.44 815.25,-82.4"/>
</a>
</g>
</g>
<!-- Node14 -->
<g id="Node000014" class="node">
<title>Node14</title>
<g id="a_Node000014"><a xlink:title=" ">
<polygon fill="#e0e0e0" stroke="#999999" points="946,-74 886,-74 886,-55 946,-55 946,-74"/>
<text text-anchor="middle" x="916" y="-62" font-family="Helvetica,sans-Serif" font-size="10.00">gtk/gtk.h</text>
</a>
</g>
</g>
<!-- Node4&#45;&gt;Node14 -->
<g id="edge14_Node000004_Node000014" class="edge">
<title>Node4&#45;&gt;Node14</title>
<g id="a_edge14_Node000004_Node000014"><a xlink:title=" ">
<path fill="none" stroke="#63b8ff" d="M776.67,-109.98C804.54,-101.09 848.45,-87.07 879.52,-77.15"/>
<polygon fill="#63b8ff" stroke="#63b8ff" points="880.66,-80.46 889.12,-74.08 878.53,-73.79 880.66,-80.46"/>
</a>
</g>
</g>
<!-- Node15 -->
<g id="Node000015" class="node">
<title>Node15</title>
<g id="a_Node000015"><a xlink:title=" ">
<polygon fill="#e0e0e0" stroke="#999999" points="1029.5,-74 964.5,-74 964.5,-55 1029.5,-55 1029.5,-74"/>
<text text-anchor="middle" x="997" y="-62" font-family="Helvetica,sans-Serif" font-size="10.00">gdk/gdk.h</text>
</a>
</g>
</g>
<!-- Node4&#45;&gt;Node15 -->
<g id="edge15_Node000004_Node000015" class="edge">
<title>Node4&#45;&gt;Node15</title>
<g id="a_edge15_Node000004_Node000015"><a xlink:title=" ">
<path fill="none" stroke="#63b8ff" d="M778.33,-112.42C821.49,-103.16 903.97,-85.46 954.37,-74.65"/>
<polygon fill="#63b8ff" stroke="#63b8ff" points="955.27,-78.03 964.31,-72.51 953.8,-71.19 955.27,-78.03"/>
</a>
</g>
</g>
<!-- Node16 -->
<g id="Node000016" class="node">
<title>Node16</title>
<g id="a_Node000016"><a xlink:title=" ">
<polygon fill="#e0e0e0" stroke="#999999" points="1156,-74 1048,-74 1048,-55 1156,-55 1156,-74"/>
<text text-anchor="middle" x="1102" y="-62" font-family="Helvetica,sans-Serif" font-size="10.00">gdk/gdkkeysyms.h</text>
</a>
</g>
</g>
<!-- Node4&#45;&gt;Node16 -->
<g id="edge16_Node000004_Node000016" class="edge">
<title>Node4&#45;&gt;Node16</title>
<g id="a_edge16_Node000004_Node000016"><a xlink:title=" ">
<path fill="none" stroke="#63b8ff" d="M778.21,-114.25C834.18,-105.82 960.54,-86.8 1037.81,-75.16"/>
<polygon fill="#63b8ff" stroke="#63b8ff" points="1038.54,-78.59 1047.91,-73.64 1037.5,-71.67 1038.54,-78.59"/>
</a>
</g>
</g>
<!-- Node17 -->
<g id="Node000017" class="node">
<title>Node17</title>
<g id="a_Node000017"><a xlink:title=" ">
<polygon fill="#e0e0e0" stroke="#999999" points="1307.5,-74 1174.5,-74 1174.5,-55 1307.5,-55 1307.5,-74"/>
<text text-anchor="middle" x="1241" y="-62" font-family="Helvetica,sans-Serif" font-size="10.00">gdk&#45;pixbuf/gdk&#45;pixbuf.h</text>
</a>
</g>
</g>
<!-- Node4&#45;&gt;Node17 -->
<g id="edge17_Node000004_Node000017" class="edge">
<title>Node4&#45;&gt;Node17</title>
<g id="a_edge17_Node000004_Node000017"><a xlink:title=" ">
<path fill="none" stroke="#63b8ff" d="M778.18,-115.52C843.79,-108.58 1012.06,-90.73 1164.27,-74.08"/>
<polygon fill="#63b8ff" stroke="#63b8ff" points="1164.71,-77.55 1174.27,-72.98 1163.95,-70.59 1164.71,-77.55"/>
</a>
</g>
</g>
<!-- Node18 -->
<g id="Node000018" class="node">
<title>Node18</title>
<g id="a_Node000018"><a xlink:title=" ">
<polygon fill="#e0e0e0" stroke="#999999" points="1426.5,-74 1325.5,-74 1325.5,-55 1426.5,-55 1426.5,-74"/>
<text text-anchor="middle" x="1376" y="-62" font-family="Helvetica,sans-Serif" font-size="10.00">pango/pangoft2.h</text>
</a>
</g>
</g>
<!-- Node4&#45;&gt;Node18 -->
<g id="edge18_Node000004_Node000018" class="edge">
<title>Node4&#45;&gt;Node18</title>
<g id="a_edge18_Node000004_Node000018"><a xlink:title=" ">
<path fill="none" stroke="#63b8ff" d="M778.08,-116.94C859.51,-112.29 1102.9,-97.41 1315.4,-74.11"/>
<polygon fill="#63b8ff" stroke="#63b8ff" points="1315.94,-77.57 1325.5,-73 1315.17,-70.62 1315.94,-77.57"/>
</a>
</g>
</g>
<!-- Node19 -->
<g id="Node000019" class="node">
<title>Node19</title>
<g id="a_Node000019"><a xlink:title=" ">
<polygon fill="#e0e0e0" stroke="#999999" points="1513,-74 1445,-74 1445,-55 1513,-55 1513,-74"/>
<text text-anchor="middle" x="1479" y="-62" font-family="Helvetica,sans-Serif" font-size="10.00">epoxy/gl.h</text>
</a>
</g>
</g>
<!-- Node4&#45;&gt;Node19 -->
<g id="edge19_Node000004_Node000019" class="edge">
<title>Node4&#45;&gt;Node19</title>
<g id="a_edge19_Node000004_Node000019"><a xlink:title=" ">
<path fill="none" stroke="#63b8ff" d="M778.23,-117.99C870.89,-116.02 1174.32,-107.4 1434.77,-73.98"/>
<polygon fill="#63b8ff" stroke="#63b8ff" points="1435.33,-77.44 1444.8,-72.68 1434.43,-70.5 1435.33,-77.44"/>
</a>
</g>
</g>
<!-- Node20 -->
<g id="Node000020" class="node">
<title>Node20</title>
<g id="a_Node000020"><a xlink:title=" ">
<polygon fill="#e0e0e0" stroke="#999999" points="1587,-74 1531,-74 1531,-55 1587,-55 1587,-74"/>
<text text-anchor="middle" x="1559" y="-62" font-family="Helvetica,sans-Serif" font-size="10.00">GL/glu.h</text>
</a>
</g>
</g>
<!-- Node4&#45;&gt;Node20 -->
<g id="edge20_Node000004_Node000020" class="edge">
<title>Node4&#45;&gt;Node20</title>
<g id="a_edge20_Node000004_Node000020"><a xlink:title=" ">
<path fill="none" stroke="#63b8ff" d="M778.21,-118.58C878.29,-118.51 1225.67,-115.22 1520.78,-73.91"/>
<polygon fill="#63b8ff" stroke="#63b8ff" points="1521.4,-77.36 1530.81,-72.49 1520.42,-70.43 1521.4,-77.36"/>
</a>
</g>
</g>
<!-- Node21 -->
<g id="Node000021" class="node">
<title>Node21</title>
<g id="a_Node000021"><a xlink:title=" ">
<polygon fill="#e0e0e0" stroke="#999999" points="1679,-74 1605,-74 1605,-55 1679,-55 1679,-74"/>
<text text-anchor="middle" x="1642" y="-62" font-family="Helvetica,sans-Serif" font-size="10.00">epoxy/glx.h</text>
</a>
</g>
</g>
<!-- Node4&#45;&gt;Node21 -->
<g id="edge21_Node000004_Node000021" class="edge">
<title>Node4&#45;&gt;Node21</title>
<g id="a_edge21_Node000004_Node000021"><a xlink:title=" ">
<path fill="none" stroke="#63b8ff" d="M778.23,-118.35C884.21,-117.49 1268.5,-111.88 1594.78,-73.97"/>
<polygon fill="#63b8ff" stroke="#63b8ff" points="1595.38,-77.43 1604.91,-72.78 1594.57,-70.47 1595.38,-77.43"/>
</a>
</g>
</g>
<!-- Node22 -->
<g id="Node000022" class="node">
<title>Node22</title>
<g id="a_Node000022"><a xlink:href="../../dc/db0/math__3d_8h.html" target="_top" xlink:title="Functions for OpenGL math.">
<polygon fill="white" stroke="#666666" points="212,-74 144,-74 144,-55 212,-55 212,-74"/>
<text text-anchor="middle" x="178" y="-62" font-family="Helvetica,sans-Serif" font-size="10.00">math_3d.h</text>
</a>
</g>
</g>
<!-- Node4&#45;&gt;Node22 -->
<g id="edge22_Node000004_Node000022" class="edge">
<title>Node4&#45;&gt;Node22</title>
<g id="a_edge22_Node000004_Node000022"><a xlink:title=" ">
<path fill="none" stroke="#63b8ff" d="M721.78,-117.23C643.84,-113.5 418.93,-101.15 222.15,-74.01"/>
<polygon fill="#63b8ff" stroke="#63b8ff" points="222.6,-70.53 212.21,-72.62 221.63,-77.47 222.6,-70.53"/>
</a>
</g>
</g>
<!-- Node23 -->
<g id="Node000023" class="node">
<title>Node23</title>
<g id="a_Node000023"><a xlink:href="../../da/d7e/glwin_8h.html" target="_top" xlink:title="Variable declarations related the OpenGL window &#160;&#160;Data structure declarations related the OpenGL wind...">
<polygon fill="white" stroke="#666666" points="1749,-74 1697,-74 1697,-55 1749,-55 1749,-74"/>
<text text-anchor="middle" x="1723" y="-62" font-family="Helvetica,sans-Serif" font-size="10.00">glwin.h</text>
</a>
</g>
</g>
<!-- Node4&#45;&gt;Node23 -->
<g id="edge25_Node000004_Node000023" class="edge">
<title>Node4&#45;&gt;Node23</title>
<g id="a_edge25_Node000004_Node000023"><a xlink:title=" ">
<path fill="none" stroke="#63b8ff" d="M778.11,-117.89C911.9,-114.88 1485.57,-100.72 1686.59,-73.86"/>
<polygon fill="#63b8ff" stroke="#63b8ff" points="1687.31,-77.29 1696.73,-72.45 1686.34,-70.36 1687.31,-77.29"/>
</a>
</g>
</g>
<!-- Node25 -->
<g id="Node000025" class="node">
<title>Node25</title>
<g id="a_Node000025"><a xlink:title=" ">
<polygon fill="#e0e0e0" stroke="#999999" points="1833,-74 1767,-74 1767,-55 1833,-55 1833,-74"/>
<text text-anchor="middle" x="1800" y="-62" font-family="Helvetica,sans-Serif" font-size="10.00">gtk/gtkx.h</text>
</a>
</g>
</g>
<!-- Node4&#45;&gt;Node25 -->
<g id="edge27_Node000004_Node000025" class="edge">
<title>Node4&#45;&gt;Node25</title>
<g id="a_edge27_Node000004_Node000025"><a xlink:title=" ">
<path fill="none" stroke="#63b8ff" d="M778.19,-118.86C896.42,-120.02 1363.92,-121.27 1756.47,-73.98"/>
<polygon fill="#63b8ff" stroke="#63b8ff" points="1757.1,-77.43 1766.61,-72.75 1756.26,-70.48 1757.1,-77.43"/>
</a>
</g>
</g>
<!-- Node22&#45;&gt;Node3 -->
<g id="edge23_Node000022_Node000003" class="edge">
<title>Node22&#45;&gt;Node3</title>
<g id="a_edge23_Node000022_Node000003"><a xlink:title=" ">
<path fill="none" stroke="#63b8ff" d="M168.04,-54.98C158.87,-47.15 145.06,-35.34 133.97,-25.86"/>
<polygon fill="#63b8ff" stroke="#63b8ff" points="136.02,-23.01 126.14,-19.17 131.47,-28.33 136.02,-23.01"/>
</a>
</g>
</g>
<!-- Node22&#45;&gt;Node10 -->
<g id="edge24_Node000022_Node000010" class="edge">
<title>Node22&#45;&gt;Node10</title>
<g id="a_edge24_Node000022_Node000010"><a xlink:title=" ">
<path fill="none" stroke="#63b8ff" d="M212.2,-55.33C253.66,-45.44 323.16,-28.84 364.99,-18.86"/>
<polygon fill="#63b8ff" stroke="#63b8ff" points="365.82,-22.26 374.74,-16.53 364.2,-15.45 365.82,-22.26"/>
</a>
</g>
</g>
<!-- Node24 -->
<g id="Node000024" class="node">
<title>Node24</title>
<g id="a_Node000024"><a xlink:href="../../d5/d9e/ogl__shading_8h.html" target="_top" xlink:title="Variable declarations related to GLSL programs &#160;&#160;Data structure declarations related to GLSL programs...">
<polygon fill="white" stroke="#666666" points="1765,-19 1681,-19 1681,0 1765,0 1765,-19"/>
<text text-anchor="middle" x="1723" y="-7" font-family="Helvetica,sans-Serif" font-size="10.00">ogl_shading.h</text>
</a>
</g>
</g>
<!-- Node23&#45;&gt;Node24 -->
<g id="edge26_Node000023_Node000024" class="edge">
<title>Node23&#45;&gt;Node24</title>
<g id="a_edge26_Node000023_Node000024"><a xlink:title=" ">
<path fill="none" stroke="#63b8ff" d="M1723,-54.75C1723,-47.8 1723,-37.85 1723,-29.13"/>
<polygon fill="#63b8ff" stroke="#63b8ff" points="1726.5,-29.09 1723,-19.09 1719.5,-29.09 1726.5,-29.09"/>
</a>
</g>
</g>
<!-- Node26&#45;&gt;Node4 -->
<g id="edge29_Node000026_Node000004" class="edge">
<title>Node26&#45;&gt;Node4</title>
<g id="a_edge29_Node000026_Node000004"><a xlink:title=" ">
<path fill="none" stroke="#63b8ff" d="M681.17,-164.98C693.77,-156.84 713,-144.41 727.94,-134.76"/>
<polygon fill="#63b8ff" stroke="#63b8ff" points="730.09,-137.54 736.59,-129.17 726.29,-131.66 730.09,-137.54"/>
</a>
</g>
</g>
</g>
</svg>
