<?xml version="1.0" encoding="UTF-8" standalone="no"?>
<!DOCTYPE svg PUBLIC "-//W3C//DTD SVG 1.1//EN"
 "http://www.w3.org/Graphics/SVG/1.1/DTD/svg11.dtd">
<!-- Generated by graphviz version 2.43.0 (0)
 -->
<!-- Title: /home/slookeur/files/codeblocks&#45;files/atomes/src/project/readers/read_isaacs.h Pages: 1 -->
<svg width="1754pt" height="225pt"
 viewBox="0.00 0.00 1754.00 225.00" xmlns="http://www.w3.org/2000/svg" xmlns:xlink="http://www.w3.org/1999/xlink">
<g id="graph0" class="graph" transform="scale(1 1) rotate(0) translate(4 221)">
<title>/home/slookeur/files/codeblocks&#45;files/atomes/src/project/readers/read_isaacs.h</title>
<!-- Node1 -->
<g id="Node000001" class="node">
<title>Node1</title>
<g id="a_Node000001"><a xlink:title="Function declarations to read / write ISAACS XML file.">
<polygon fill="#999999" stroke="#666666" points="910,-217 772,-217 772,-165 910,-165 910,-217"/>
<text text-anchor="start" x="780" y="-205" font-family="Helvetica,sans-Serif" font-size="10.00">/home/slookeur/files</text>
<text text-anchor="start" x="780" y="-194" font-family="Helvetica,sans-Serif" font-size="10.00">/codeblocks&#45;files/atomes</text>
<text text-anchor="start" x="780" y="-183" font-family="Helvetica,sans-Serif" font-size="10.00">/src/project/readers/read</text>
<text text-anchor="middle" x="841" y="-172" font-family="Helvetica,sans-Serif" font-size="10.00">_isaacs.h</text>
</a>
</g>
</g>
<!-- Node2 -->
<g id="Node000002" class="node">
<title>Node2</title>
<g id="a_Node000002"><a xlink:href="../../d1/dfb/readers_8h.html" target="_top" xlink:title="Functions declaration to read atomic coordinates.">
<polygon fill="white" stroke="#666666" points="920.5,-129 761.5,-129 761.5,-88 920.5,-88 920.5,-129"/>
<text text-anchor="start" x="769.5" y="-117" font-family="Helvetica,sans-Serif" font-size="10.00">/home/slookeur/files</text>
<text text-anchor="start" x="769.5" y="-106" font-family="Helvetica,sans-Serif" font-size="10.00">/codeblocks&#45;files/atomes</text>
<text text-anchor="middle" x="841" y="-95" font-family="Helvetica,sans-Serif" font-size="10.00">/src/project/readers/readers.h</text>
</a>
</g>
</g>
<!-- Node1&#45;&gt;Node2 -->
<g id="edge1_Node000001_Node000002" class="edge">
<title>Node1&#45;&gt;Node2</title>
<g id="a_edge1_Node000001_Node000002"><a xlink:title=" ">
<path fill="none" stroke="#63b8ff" d="M841,-154.87C841,-146.05 841,-136.9 841,-129.15"/>
<polygon fill="#63b8ff" stroke="#63b8ff" points="837.5,-154.97 841,-164.97 844.5,-154.97 837.5,-154.97"/>
</a>
</g>
</g>
<!-- Node3 -->
<g id="Node000003" class="node">
<title>Node3</title>
<g id="a_Node000003"><a xlink:href="../../d3/d3a/callbacks_8c.html" target="_top" xlink:title="General callbacks &#160;&#160;Functions to open and close files.">
<polygon fill="white" stroke="#666666" points="138,-46.5 0,-46.5 0,-5.5 138,-5.5 138,-46.5"/>
<text text-anchor="start" x="8" y="-34.5" font-family="Helvetica,sans-Serif" font-size="10.00">/home/slookeur/files</text>
<text text-anchor="start" x="8" y="-23.5" font-family="Helvetica,sans-Serif" font-size="10.00">/codeblocks&#45;files/atomes</text>
<text text-anchor="middle" x="69" y="-12.5" font-family="Helvetica,sans-Serif" font-size="10.00">/src/gui/callbacks.c</text>
</a>
</g>
</g>
<!-- Node2&#45;&gt;Node3 -->
<g id="edge2_Node000002_Node000003" class="edge">
<title>Node2&#45;&gt;Node3</title>
<g id="a_edge2_Node000002_Node000003"><a xlink:title=" ">
<path fill="none" stroke="#63b8ff" d="M751.2,-106.89C618.05,-104.52 360.95,-94.25 147,-52 139.75,-50.57 132.22,-48.69 124.83,-46.6"/>
<polygon fill="#63b8ff" stroke="#63b8ff" points="751.29,-110.39 761.35,-107.06 751.41,-103.4 751.29,-110.39"/>
</a>
</g>
</g>
<!-- Node4 -->
<g id="Node000004" class="node">
<title>Node4</title>
<g id="a_Node000004"><a xlink:href="../../d0/dd3/cbuild__action_8c.html" target="_top" xlink:title="Functions to build a crystal using space group, crystallographic position(s) and object(s) to insert.">
<polygon fill="white" stroke="#666666" points="294,-52 156,-52 156,0 294,0 294,-52"/>
<text text-anchor="start" x="164" y="-40" font-family="Helvetica,sans-Serif" font-size="10.00">/home/slookeur/files</text>
<text text-anchor="start" x="164" y="-29" font-family="Helvetica,sans-Serif" font-size="10.00">/codeblocks&#45;files/atomes</text>
<text text-anchor="start" x="164" y="-18" font-family="Helvetica,sans-Serif" font-size="10.00">/src/opengl/edit/cbuild</text>
<text text-anchor="middle" x="225" y="-7" font-family="Helvetica,sans-Serif" font-size="10.00">_action.c</text>
</a>
</g>
</g>
<!-- Node2&#45;&gt;Node4 -->
<g id="edge3_Node000002_Node000004" class="edge">
<title>Node2&#45;&gt;Node4</title>
<g id="a_edge3_Node000002_Node000004"><a xlink:title=" ">
<path fill="none" stroke="#63b8ff" d="M751.19,-103.93C643.66,-98.35 458.58,-84.59 303,-52 300.08,-51.39 297.11,-50.71 294.12,-49.98"/>
<polygon fill="#63b8ff" stroke="#63b8ff" points="751.19,-107.43 761.35,-104.44 751.54,-100.44 751.19,-107.43"/>
</a>
</g>
</g>
<!-- Node5 -->
<g id="Node000005" class="node">
<title>Node5</title>
<g id="a_Node000005"><a xlink:href="../../db/d0b/cbuild__edit_8c.html" target="_top" xlink:title="Functions to create the crystal builder window.">
<polygon fill="white" stroke="#666666" points="468,-46.5 312,-46.5 312,-5.5 468,-5.5 468,-46.5"/>
<text text-anchor="start" x="320" y="-34.5" font-family="Helvetica,sans-Serif" font-size="10.00">/home/slookeur/files</text>
<text text-anchor="start" x="320" y="-23.5" font-family="Helvetica,sans-Serif" font-size="10.00">/codeblocks&#45;files/atomes</text>
<text text-anchor="middle" x="390" y="-12.5" font-family="Helvetica,sans-Serif" font-size="10.00">/src/opengl/edit/cbuild_edit.c</text>
</a>
</g>
</g>
<!-- Node2&#45;&gt;Node5 -->
<g id="edge4_Node000002_Node000005" class="edge">
<title>Node2&#45;&gt;Node5</title>
<g id="a_edge4_Node000002_Node000005"><a xlink:title=" ">
<path fill="none" stroke="#63b8ff" d="M751.07,-97.06C677.04,-87.68 569.59,-72.27 477,-52 469.78,-50.42 462.29,-48.58 454.85,-46.62"/>
<polygon fill="#63b8ff" stroke="#63b8ff" points="750.93,-100.57 761.29,-98.34 751.8,-93.62 750.93,-100.57"/>
</a>
</g>
</g>
<!-- Node6 -->
<g id="Node000006" class="node">
<title>Node6</title>
<g id="a_Node000006"><a xlink:href="../../da/d70/read__c3d_8c.html" target="_top" xlink:title="Functions to read Chem3d atomic coordinates.">
<polygon fill="white" stroke="#666666" points="652,-46.5 486,-46.5 486,-5.5 652,-5.5 652,-46.5"/>
<text text-anchor="start" x="494" y="-34.5" font-family="Helvetica,sans-Serif" font-size="10.00">/home/slookeur/files</text>
<text text-anchor="start" x="494" y="-23.5" font-family="Helvetica,sans-Serif" font-size="10.00">/codeblocks&#45;files/atomes</text>
<text text-anchor="middle" x="569" y="-12.5" font-family="Helvetica,sans-Serif" font-size="10.00">/src/project/readers/read_c3d.c</text>
</a>
</g>
</g>
<!-- Node2&#45;&gt;Node6 -->
<g id="edge5_Node000002_Node000006" class="edge">
<title>Node2&#45;&gt;Node6</title>
<g id="a_edge5_Node000002_Node000006"><a xlink:title=" ">
<path fill="none" stroke="#63b8ff" d="M765.16,-85.05C724.27,-72.95 674.29,-58.16 635.02,-46.54"/>
<polygon fill="#63b8ff" stroke="#63b8ff" points="764.23,-88.43 774.81,-87.91 766.21,-81.72 764.23,-88.43"/>
</a>
</g>
</g>
<!-- Node7 -->
<g id="Node000007" class="node">
<title>Node7</title>
<g id="a_Node000007"><a xlink:href="../../d8/d50/read__cif_8c.html" target="_top" xlink:title="Functions to read CIF files.">
<polygon fill="white" stroke="#666666" points="830,-46.5 670,-46.5 670,-5.5 830,-5.5 830,-46.5"/>
<text text-anchor="start" x="678" y="-34.5" font-family="Helvetica,sans-Serif" font-size="10.00">/home/slookeur/files</text>
<text text-anchor="start" x="678" y="-23.5" font-family="Helvetica,sans-Serif" font-size="10.00">/codeblocks&#45;files/atomes</text>
<text text-anchor="middle" x="750" y="-12.5" font-family="Helvetica,sans-Serif" font-size="10.00">/src/project/readers/read_cif.c</text>
</a>
</g>
</g>
<!-- Node2&#45;&gt;Node7 -->
<g id="edge6_Node000002_Node000007" class="edge">
<title>Node2&#45;&gt;Node7</title>
<g id="a_edge6_Node000002_Node000007"><a xlink:title=" ">
<path fill="none" stroke="#63b8ff" d="M810.92,-80.89C798.3,-69.72 783.88,-56.97 772.24,-46.67"/>
<polygon fill="#63b8ff" stroke="#63b8ff" points="808.7,-83.6 818.51,-87.6 813.33,-78.35 808.7,-83.6"/>
</a>
</g>
</g>
<!-- Node8 -->
<g id="Node000008" class="node">
<title>Node8</title>
<g id="a_Node000008"><a xlink:href="../../df/df9/read__hist_8c.html" target="_top" xlink:title="Functions to read DL&#45;POLY history file.">
<polygon fill="white" stroke="#666666" points="1015.5,-46.5 848.5,-46.5 848.5,-5.5 1015.5,-5.5 1015.5,-46.5"/>
<text text-anchor="start" x="856.5" y="-34.5" font-family="Helvetica,sans-Serif" font-size="10.00">/home/slookeur/files</text>
<text text-anchor="start" x="856.5" y="-23.5" font-family="Helvetica,sans-Serif" font-size="10.00">/codeblocks&#45;files/atomes</text>
<text text-anchor="middle" x="932" y="-12.5" font-family="Helvetica,sans-Serif" font-size="10.00">/src/project/readers/read_hist.c</text>
</a>
</g>
</g>
<!-- Node2&#45;&gt;Node8 -->
<g id="edge7_Node000002_Node000008" class="edge">
<title>Node2&#45;&gt;Node8</title>
<g id="a_edge7_Node000002_Node000008"><a xlink:title=" ">
<path fill="none" stroke="#63b8ff" d="M871.08,-80.89C883.7,-69.72 898.12,-56.97 909.76,-46.67"/>
<polygon fill="#63b8ff" stroke="#63b8ff" points="868.67,-78.35 863.49,-87.6 873.3,-83.6 868.67,-78.35"/>
</a>
</g>
</g>
<!-- Node9 -->
<g id="Node000009" class="node">
<title>Node9</title>
<g id="a_Node000009"><a xlink:href="../../d9/d42/read__pdb_8c.html" target="_top" xlink:title="Functions to read PDB files.">
<polygon fill="white" stroke="#666666" points="1200.5,-46.5 1033.5,-46.5 1033.5,-5.5 1200.5,-5.5 1200.5,-46.5"/>
<text text-anchor="start" x="1041.5" y="-34.5" font-family="Helvetica,sans-Serif" font-size="10.00">/home/slookeur/files</text>
<text text-anchor="start" x="1041.5" y="-23.5" font-family="Helvetica,sans-Serif" font-size="10.00">/codeblocks&#45;files/atomes</text>
<text text-anchor="middle" x="1117" y="-12.5" font-family="Helvetica,sans-Serif" font-size="10.00">/src/project/readers/read_pdb.c</text>
</a>
</g>
</g>
<!-- Node2&#45;&gt;Node9 -->
<g id="edge8_Node000002_Node000009" class="edge">
<title>Node2&#45;&gt;Node9</title>
<g id="a_edge8_Node000002_Node000009"><a xlink:title=" ">
<path fill="none" stroke="#63b8ff" d="M917.96,-85.05C959.45,-72.95 1010.16,-58.16 1050.01,-46.54"/>
<polygon fill="#63b8ff" stroke="#63b8ff" points="916.78,-81.75 908.16,-87.91 918.74,-88.47 916.78,-81.75"/>
</a>
</g>
</g>
<!-- Node10 -->
<g id="Node000010" class="node">
<title>Node10</title>
<g id="a_Node000010"><a xlink:href="../../d9/deb/read__trj_8c.html" target="_top" xlink:title="Functions to read CPMD atomic coordinates.">
<polygon fill="white" stroke="#666666" points="1377.5,-46.5 1218.5,-46.5 1218.5,-5.5 1377.5,-5.5 1377.5,-46.5"/>
<text text-anchor="start" x="1226.5" y="-34.5" font-family="Helvetica,sans-Serif" font-size="10.00">/home/slookeur/files</text>
<text text-anchor="start" x="1226.5" y="-23.5" font-family="Helvetica,sans-Serif" font-size="10.00">/codeblocks&#45;files/atomes</text>
<text text-anchor="middle" x="1298" y="-12.5" font-family="Helvetica,sans-Serif" font-size="10.00">/src/project/readers/read_trj.c</text>
</a>
</g>
</g>
<!-- Node2&#45;&gt;Node10 -->
<g id="edge9_Node000002_Node000010" class="edge">
<title>Node2&#45;&gt;Node10</title>
<g id="a_edge9_Node000002_Node000010"><a xlink:title=" ">
<path fill="none" stroke="#63b8ff" d="M931.07,-97.21C1006.14,-87.86 1115.66,-72.41 1210,-52 1217.45,-50.39 1225.2,-48.5 1232.88,-46.5"/>
<polygon fill="#63b8ff" stroke="#63b8ff" points="930.21,-93.79 920.71,-98.49 931.06,-100.74 930.21,-93.79"/>
</a>
</g>
</g>
<!-- Node11 -->
<g id="Node000011" class="node">
<title>Node11</title>
<g id="a_Node000011"><a xlink:href="../../d6/dc9/read__vas_8c.html" target="_top" xlink:title="Functions to read VASP atomic coordinates.">
<polygon fill="white" stroke="#666666" points="1562,-46.5 1396,-46.5 1396,-5.5 1562,-5.5 1562,-46.5"/>
<text text-anchor="start" x="1404" y="-34.5" font-family="Helvetica,sans-Serif" font-size="10.00">/home/slookeur/files</text>
<text text-anchor="start" x="1404" y="-23.5" font-family="Helvetica,sans-Serif" font-size="10.00">/codeblocks&#45;files/atomes</text>
<text text-anchor="middle" x="1479" y="-12.5" font-family="Helvetica,sans-Serif" font-size="10.00">/src/project/readers/read_vas.c</text>
</a>
</g>
</g>
<!-- Node2&#45;&gt;Node11 -->
<g id="edge10_Node000002_Node000011" class="edge">
<title>Node2&#45;&gt;Node11</title>
<g id="a_edge10_Node000002_Node000011"><a xlink:title=" ">
<path fill="none" stroke="#63b8ff" d="M930.97,-102.89C1039.72,-96.27 1227.95,-81.49 1387,-52 1395.22,-50.48 1403.77,-48.58 1412.22,-46.52"/>
<polygon fill="#63b8ff" stroke="#63b8ff" points="930.47,-99.41 920.7,-103.5 930.89,-106.4 930.47,-99.41"/>
</a>
</g>
</g>
<!-- Node12 -->
<g id="Node000012" class="node">
<title>Node12</title>
<g id="a_Node000012"><a xlink:href="../../d0/dce/read__xyz_8c.html" target="_top" xlink:title="Functions to read XYZ atomic coordinates.">
<polygon fill="white" stroke="#666666" points="1746,-46.5 1580,-46.5 1580,-5.5 1746,-5.5 1746,-46.5"/>
<text text-anchor="start" x="1588" y="-34.5" font-family="Helvetica,sans-Serif" font-size="10.00">/home/slookeur/files</text>
<text text-anchor="start" x="1588" y="-23.5" font-family="Helvetica,sans-Serif" font-size="10.00">/codeblocks&#45;files/atomes</text>
<text text-anchor="middle" x="1663" y="-12.5" font-family="Helvetica,sans-Serif" font-size="10.00">/src/project/readers/read_xyz.c</text>
</a>
</g>
</g>
<!-- Node2&#45;&gt;Node12 -->
<g id="edge11_Node000002_Node000012" class="edge">
<title>Node2&#45;&gt;Node12</title>
<g id="a_edge11_Node000002_Node000012"><a xlink:title=" ">
<path fill="none" stroke="#63b8ff" d="M930.87,-106.13C1069.3,-102.8 1342.64,-91.34 1571,-52 1579.48,-50.54 1588.31,-48.64 1597,-46.54"/>
<polygon fill="#63b8ff" stroke="#63b8ff" points="930.65,-102.64 920.73,-106.37 930.81,-109.63 930.65,-102.64"/>
</a>
</g>
</g>
</g>
</svg>
