<?xml version="1.0" encoding="UTF-8" standalone="no"?>
<!DOCTYPE svg PUBLIC "-//W3C//DTD SVG 1.1//EN"
 "http://www.w3.org/Graphics/SVG/1.1/DTD/svg11.dtd">
<!-- Generated by graphviz version 7.1.0 (0)
 -->
<!-- Title: project/readers/read_isaacs.h Pages: 1 -->
<!--zoomable 159 -->

<svg id="main" version="1.1" xmlns="http://www.w3.org/2000/svg" xmlns:xlink="http://www.w3.org/1999/xlink" xml:space="preserve" onload="init(evt)">
<style type="text/css"><![CDATA[
.node, .edge {opacity: 0.7;}
.node.selected, .edge.selected {opacity: 1;}
.edge:hover path { stroke: red; }
.edge:hover polygon { stroke: red; fill: red; }
]]></style>

<defs>
  <circle id="rim" cx="0" cy="0" r="7"/>
  <circle id="rim2" cx="0" cy="0" r="3.5"/>
  <g id="zoomPlus">
    <use xlink:href="#rim" fill="#404040"><set attributeName="fill" to="#808080" begin="zoomplus.mouseover" end="zoomplus.mouseout"/></use>
    <path d="M-4,0h8M0,-4v8" fill="none" stroke="white" stroke-width="1.5" pointer-events="none"/>
  </g>
  <g id="zoomMin">
    <use xlink:href="#rim" fill="#404040"><set attributeName="fill" to="#808080" begin="zoomminus.mouseover" end="zoomminus.mouseout"/></use>
    <path d="M-4,0h8" fill="none" stroke="white" stroke-width="1.5" pointer-events="none"/>
  </g>
  <g id="arrowUp" transform="translate(30 24)">
    <use xlink:href="#rim"/>
    <path pointer-events="none" fill="none" stroke="white" stroke-width="1.5" d="M0,-3.0v7 M-2.5,-0.5L0,-3.0L2.5,-0.5"/>
  </g>
  <g id="arrowRight" transform="rotate(90) translate(36 -43)">
    <use xlink:href="#rim"/>
    <path pointer-events="none" fill="none" stroke="white" stroke-width="1.5" d="M0,-3.0v7 M-2.5,-0.5L0,-3.0L2.5,-0.5"/>
  </g>
  <g id="arrowDown" transform="rotate(180) translate(-30 -48)">
    <use xlink:href="#rim"/>
    <path pointer-events="none" fill="none" stroke="white" stroke-width="1.5" d="M0,-3.0v7 M-2.5,-0.5L0,-3.0L2.5,-0.5"/>
  </g>
  <g id="arrowLeft" transform="rotate(270) translate(-36 17)">
    <use xlink:href="#rim"/>
    <path pointer-events="none" fill="none" stroke="white" stroke-width="1.5" d="M0,-3.0v7 M-2.5,-0.5L0,-3.0L2.5,-0.5"/>
  </g>
  <g id="resetDef">
    <use xlink:href="#rim2" fill="#404040"><set attributeName="fill" to="#808080" begin="reset.mouseover" end="reset.mouseout"/></use>
  </g>
</defs>
<script type="application/ecmascript">
var viewWidth = 1158;
var viewHeight = 159;
var sectionId = 'dynsection-1';
</script>
<script type="application/ecmascript" xlink:href="../../svg.min.js"/>
<svg id="graph" class="graph">
<g id="viewport">
<title>project/readers/read_isaacs.h</title>
<!-- Node1 -->
<g id="Node000001" class="node">
<title>Node1</title>
<g id="a_Node000001"><a xlink:title="Function declarations to read / write ISAACS XML file.">
<polygon fill="#999999" stroke="#666666" points="604.5,-151 501.5,-151 501.5,-121 604.5,-121 604.5,-151"/>
<text text-anchor="start" x="509.5" y="-139" font-family="Helvetica,sans-Serif" font-size="10.00">project/readers/read</text>
<text text-anchor="middle" x="553" y="-128" font-family="Helvetica,sans-Serif" font-size="10.00">_isaacs.h</text>
</a>
</g>
</g>
<!-- Node2 -->
<g id="Node000002" class="node">
<title>Node2</title>
<g id="a_Node000002"><a xlink:href="../../d1/dfb/readers_8h.html" target="_top" xlink:title="Functions declaration to read atomic coordinates.">
<polygon fill="white" stroke="#666666" points="615.5,-85 490.5,-85 490.5,-66 615.5,-66 615.5,-85"/>
<text text-anchor="middle" x="553" y="-73" font-family="Helvetica,sans-Serif" font-size="10.00">project/readers/readers.h</text>
</a>
</g>
</g>
<!-- Node1&#45;&gt;Node2 -->
<g id="edge1_Node000001_Node000002" class="edge">
<title>Node1&#45;&gt;Node2</title>
<g id="a_edge1_Node000001_Node000002"><a xlink:title=" ">
<path fill="none" stroke="#63b8ff" d="M553,-109.3C553,-100.65 553,-91.58 553,-85.18"/>
<polygon fill="#63b8ff" stroke="#63b8ff" points="549.5,-109.03 553,-119.03 556.5,-109.03 549.5,-109.03"/>
</a>
</g>
</g>
<!-- Node3 -->
<g id="Node000003" class="node">
<title>Node3</title>
<g id="a_Node000003"><a xlink:href="../../d3/d3a/callbacks_8c.html" target="_top" xlink:title="General callbacks &#160;&#160;Functions to open and close files.">
<polygon fill="white" stroke="#666666" points="82,-24.5 0,-24.5 0,-5.5 82,-5.5 82,-24.5"/>
<text text-anchor="middle" x="41" y="-12.5" font-family="Helvetica,sans-Serif" font-size="10.00">gui/callbacks.c</text>
</a>
</g>
</g>
<!-- Node2&#45;&gt;Node3 -->
<g id="edge2_Node000002_Node000003" class="edge">
<title>Node2&#45;&gt;Node3</title>
<g id="a_edge2_Node000002_Node000003"><a xlink:title=" ">
<path fill="none" stroke="#63b8ff" d="M478.72,-71.4C386.97,-66.63 226.4,-55.27 91,-30 84,-28.69 76.56,-26.86 69.61,-24.95"/>
<polygon fill="#63b8ff" stroke="#63b8ff" points="478.44,-74.89 488.6,-71.9 478.79,-67.89 478.44,-74.89"/>
</a>
</g>
</g>
<!-- Node4 -->
<g id="Node000004" class="node">
<title>Node4</title>
<g id="a_Node000004"><a xlink:href="../../d0/dd3/cbuild__action_8c.html" target="_top" xlink:title="Functions to build a crystal using space group, crystallographic position(s) and object(s) to insert.">
<polygon fill="white" stroke="#666666" points="192,-30 100,-30 100,0 192,0 192,-30"/>
<text text-anchor="start" x="108" y="-18" font-family="Helvetica,sans-Serif" font-size="10.00">opengl/edit/cbuild</text>
<text text-anchor="middle" x="146" y="-7" font-family="Helvetica,sans-Serif" font-size="10.00">_action.c</text>
</a>
</g>
</g>
<!-- Node2&#45;&gt;Node4 -->
<g id="edge3_Node000002_Node000004" class="edge">
<title>Node2&#45;&gt;Node4</title>
<g id="a_edge3_Node000002_Node000004"><a xlink:title=" ">
<path fill="none" stroke="#63b8ff" d="M478.87,-67.82C407.35,-60.73 296.21,-48.07 201,-30 198.19,-29.47 195.32,-28.88 192.42,-28.25"/>
<polygon fill="#63b8ff" stroke="#63b8ff" points="478.2,-71.27 488.5,-68.76 478.88,-64.3 478.2,-71.27"/>
</a>
</g>
</g>
<!-- Node5 -->
<g id="Node000005" class="node">
<title>Node5</title>
<g id="a_Node000005"><a xlink:href="../../db/d0b/cbuild__edit_8c.html" target="_top" xlink:title="Functions to create the crystal builder window.">
<polygon fill="white" stroke="#666666" points="302,-30 210,-30 210,0 302,0 302,-30"/>
<text text-anchor="start" x="218" y="-18" font-family="Helvetica,sans-Serif" font-size="10.00">opengl/edit/cbuild</text>
<text text-anchor="middle" x="256" y="-7" font-family="Helvetica,sans-Serif" font-size="10.00">_edit.c</text>
</a>
</g>
</g>
<!-- Node2&#45;&gt;Node5 -->
<g id="edge4_Node000002_Node000005" class="edge">
<title>Node2&#45;&gt;Node5</title>
<g id="a_edge4_Node000002_Node000005"><a xlink:title=" ">
<path fill="none" stroke="#63b8ff" d="M487.44,-63.68C438.62,-55.32 370.43,-43.01 311,-30 308.21,-29.39 305.34,-28.74 302.46,-28.06"/>
<polygon fill="#63b8ff" stroke="#63b8ff" points="486.55,-67.07 496.99,-65.3 487.72,-60.17 486.55,-67.07"/>
</a>
</g>
</g>
<!-- Node6 -->
<g id="Node000006" class="node">
<title>Node6</title>
<g id="a_Node000006"><a xlink:href="../../da/d70/read__c3d_8c.html" target="_top" xlink:title="Functions to read Chem3d atomic coordinates.">
<polygon fill="white" stroke="#666666" points="423.5,-30 320.5,-30 320.5,0 423.5,0 423.5,-30"/>
<text text-anchor="start" x="328.5" y="-18" font-family="Helvetica,sans-Serif" font-size="10.00">project/readers/read</text>
<text text-anchor="middle" x="372" y="-7" font-family="Helvetica,sans-Serif" font-size="10.00">_c3d.c</text>
</a>
</g>
</g>
<!-- Node2&#45;&gt;Node6 -->
<g id="edge5_Node000002_Node000006" class="edge">
<title>Node2&#45;&gt;Node6</title>
<g id="a_edge5_Node000002_Node000006"><a xlink:title=" ">
<path fill="none" stroke="#63b8ff" d="M514.7,-62.12C486.04,-52.86 446.77,-40.17 416.68,-30.44"/>
<polygon fill="#63b8ff" stroke="#63b8ff" points="513.48,-65.4 524.07,-65.15 515.63,-58.74 513.48,-65.4"/>
</a>
</g>
</g>
<!-- Node7 -->
<g id="Node000007" class="node">
<title>Node7</title>
<g id="a_Node000007"><a xlink:href="../../d8/d50/read__cif_8c.html" target="_top" xlink:title="Functions to read CIF files.">
<polygon fill="white" stroke="#666666" points="544.5,-30 441.5,-30 441.5,0 544.5,0 544.5,-30"/>
<text text-anchor="start" x="449.5" y="-18" font-family="Helvetica,sans-Serif" font-size="10.00">project/readers/read</text>
<text text-anchor="middle" x="493" y="-7" font-family="Helvetica,sans-Serif" font-size="10.00">_cif.c</text>
</a>
</g>
</g>
<!-- Node2&#45;&gt;Node7 -->
<g id="edge6_Node000002_Node000007" class="edge">
<title>Node2&#45;&gt;Node7</title>
<g id="a_edge6_Node000002_Node000007"><a xlink:title=" ">
<path fill="none" stroke="#63b8ff" d="M535.8,-57.73C526.96,-49.11 516.28,-38.7 507.81,-30.44"/>
<polygon fill="#63b8ff" stroke="#63b8ff" points="533.2,-60.08 542.8,-64.56 538.09,-55.07 533.2,-60.08"/>
</a>
</g>
</g>
<!-- Node8 -->
<g id="Node000008" class="node">
<title>Node8</title>
<g id="a_Node000008"><a xlink:href="../../df/df9/read__hist_8c.html" target="_top" xlink:title="Functions to read DL&#45;POLY history file.">
<polygon fill="white" stroke="#666666" points="665.5,-30 562.5,-30 562.5,0 665.5,0 665.5,-30"/>
<text text-anchor="start" x="570.5" y="-18" font-family="Helvetica,sans-Serif" font-size="10.00">project/readers/read</text>
<text text-anchor="middle" x="614" y="-7" font-family="Helvetica,sans-Serif" font-size="10.00">_hist.c</text>
</a>
</g>
</g>
<!-- Node2&#45;&gt;Node8 -->
<g id="edge7_Node000002_Node000008" class="edge">
<title>Node2&#45;&gt;Node8</title>
<g id="a_edge7_Node000002_Node000008"><a xlink:title=" ">
<path fill="none" stroke="#63b8ff" d="M570.49,-57.73C579.48,-49.11 590.33,-38.7 598.94,-30.44"/>
<polygon fill="#63b8ff" stroke="#63b8ff" points="568.15,-55.12 563.36,-64.57 573,-60.17 568.15,-55.12"/>
</a>
</g>
</g>
<!-- Node9 -->
<g id="Node000009" class="node">
<title>Node9</title>
<g id="a_Node000009"><a xlink:href="../../d9/d42/read__pdb_8c.html" target="_top" xlink:title="Functions to read PDB files.">
<polygon fill="white" stroke="#666666" points="786.5,-30 683.5,-30 683.5,0 786.5,0 786.5,-30"/>
<text text-anchor="start" x="691.5" y="-18" font-family="Helvetica,sans-Serif" font-size="10.00">project/readers/read</text>
<text text-anchor="middle" x="735" y="-7" font-family="Helvetica,sans-Serif" font-size="10.00">_pdb.c</text>
</a>
</g>
</g>
<!-- Node2&#45;&gt;Node9 -->
<g id="edge8_Node000002_Node000009" class="edge">
<title>Node2&#45;&gt;Node9</title>
<g id="a_edge8_Node000002_Node000009"><a xlink:title=" ">
<path fill="none" stroke="#63b8ff" d="M591.51,-62.12C620.33,-52.86 659.82,-40.17 690.08,-30.44"/>
<polygon fill="#63b8ff" stroke="#63b8ff" points="590.53,-58.76 582.08,-65.15 592.67,-65.42 590.53,-58.76"/>
</a>
</g>
</g>
<!-- Node10 -->
<g id="Node000010" class="node">
<title>Node10</title>
<g id="a_Node000010"><a xlink:href="../../d9/deb/read__trj_8c.html" target="_top" xlink:title="Functions to read CPMD atomic coordinates.">
<polygon fill="white" stroke="#666666" points="907.5,-30 804.5,-30 804.5,0 907.5,0 907.5,-30"/>
<text text-anchor="start" x="812.5" y="-18" font-family="Helvetica,sans-Serif" font-size="10.00">project/readers/read</text>
<text text-anchor="middle" x="856" y="-7" font-family="Helvetica,sans-Serif" font-size="10.00">_trj.c</text>
</a>
</g>
</g>
<!-- Node2&#45;&gt;Node10 -->
<g id="edge9_Node000002_Node000010" class="edge">
<title>Node2&#45;&gt;Node10</title>
<g id="a_edge9_Node000002_Node000010"><a xlink:title=" ">
<path fill="none" stroke="#63b8ff" d="M617.32,-63.59C666.4,-55.06 735.62,-42.57 796,-30 798.72,-29.43 801.51,-28.84 804.32,-28.22"/>
<polygon fill="#63b8ff" stroke="#63b8ff" points="616.98,-60.1 607.73,-65.25 618.18,-66.99 616.98,-60.1"/>
</a>
</g>
</g>
<!-- Node11 -->
<g id="Node000011" class="node">
<title>Node11</title>
<g id="a_Node000011"><a xlink:href="../../d6/dc9/read__vas_8c.html" target="_top" xlink:title="Functions to read VASP atomic coordinates.">
<polygon fill="white" stroke="#666666" points="1028.5,-30 925.5,-30 925.5,0 1028.5,0 1028.5,-30"/>
<text text-anchor="start" x="933.5" y="-18" font-family="Helvetica,sans-Serif" font-size="10.00">project/readers/read</text>
<text text-anchor="middle" x="977" y="-7" font-family="Helvetica,sans-Serif" font-size="10.00">_vas.c</text>
</a>
</g>
</g>
<!-- Node2&#45;&gt;Node11 -->
<g id="edge10_Node000002_Node000011" class="edge">
<title>Node2&#45;&gt;Node11</title>
<g id="a_edge10_Node000002_Node000011"><a xlink:title=" ">
<path fill="none" stroke="#63b8ff" d="M626.8,-67.83C700.58,-60.61 817.13,-47.7 917,-30 919.63,-29.53 922.32,-29.02 925.04,-28.49"/>
<polygon fill="#63b8ff" stroke="#63b8ff" points="626.9,-64.3 617.29,-68.75 627.58,-71.27 626.9,-64.3"/>
</a>
</g>
</g>
<!-- Node12 -->
<g id="Node000012" class="node">
<title>Node12</title>
<g id="a_Node000012"><a xlink:href="../../d0/dce/read__xyz_8c.html" target="_top" xlink:title="Functions to read XYZ atomic coordinates.">
<polygon fill="white" stroke="#666666" points="1149.5,-30 1046.5,-30 1046.5,0 1149.5,0 1149.5,-30"/>
<text text-anchor="start" x="1054.5" y="-18" font-family="Helvetica,sans-Serif" font-size="10.00">project/readers/read</text>
<text text-anchor="middle" x="1098" y="-7" font-family="Helvetica,sans-Serif" font-size="10.00">_xyz.c</text>
</a>
</g>
</g>
<!-- Node2&#45;&gt;Node12 -->
<g id="edge11_Node000002_Node000012" class="edge">
<title>Node2&#45;&gt;Node12</title>
<g id="a_edge11_Node000002_Node000012"><a xlink:title=" ">
<path fill="none" stroke="#63b8ff" d="M627,-70.89C722.46,-65.5 893.42,-53.39 1038,-30 1040.64,-29.57 1043.34,-29.1 1046.05,-28.58"/>
<polygon fill="#63b8ff" stroke="#63b8ff" points="627.05,-67.38 617.25,-71.43 627.43,-74.37 627.05,-67.38"/>
</a>
</g>
</g>
</g>
</svg>

<g id="navigator" transform="translate(0 0)" fill="#404254">
  <rect fill="#f2f5e9" fill-opacity="0.5" stroke="#606060" stroke-width=".5" x="0" y="0" width="60" height="60"/>
  <use id="zoomplus" xlink:href="#zoomPlus" x="17" y="9" onmousedown="handleZoom(evt,'in')"/>
  <use id="zoomminus" xlink:href="#zoomMin" x="42" y="9" onmousedown="handleZoom(evt,'out')"/>
  <use id="reset" xlink:href="#resetDef" x="30" y="36" onmousedown="handleReset()"/>
   <use id="arrowup" xlink:href="#arrowUp" x="0" y="0" onmousedown="handlePan(0,-1)"/>
  <use id="arrowright" xlink:href="#arrowRight" x="0" y="0" onmousedown="handlePan(1,0)"/>
  <use id="arrowdown" xlink:href="#arrowDown" x="0" y="0" onmousedown="handlePan(0,1)"/>
  <use id="arrowleft" xlink:href="#arrowLeft" x="0" y="0" onmousedown="handlePan(-1,0)"/>
</g>
<svg viewBox="0 0 15 15" width="100%" height="30px" preserveAspectRatio="xMaxYMin meet">
 <g id="arrow_out" transform="scale(0.3 0.3)">
  <a xlink:href="read__isaacs_8h__dep__incl_org.svg" target="_base">
   <rect id="button" ry="5" rx="5" y="6" x="6" height="38" width="38"
        fill="#f2f5e9" fill-opacity="0.5" stroke="#606060" stroke-width="1.0"/>
   <path id="arrow"
     d="M 11.500037,31.436501 C 11.940474,20.09759 22.043105,11.32322 32.158766,21.979434 L 37.068811,17.246167 C 37.068811,17.246167 37.088388,32 37.088388,32 L 22.160133,31.978069 C 22.160133,31.978069 26.997745,27.140456 26.997745,27.140456 C 18.528582,18.264221 13.291696,25.230495 11.500037,31.436501 z"
     style="fill:#404040;"/>
  </a>
 </g>
</svg>

<style type='text/css'>
<![CDATA[
[data-mouse-over-selected='false'] { opacity: 0.7; }
[data-mouse-over-selected='true']  { opacity: 1.0; }
]]>
</style>
<script type="application/ecmascript"><![CDATA[
document.addEventListener('DOMContentLoaded', (event) => {
  highlightEdges();
  highlightAdjacentNodes();
});
]]></script>
</svg>
