<?xml version="1.0" encoding="UTF-8" standalone="no"?>
<!DOCTYPE svg PUBLIC "-//W3C//DTD SVG 1.1//EN"
 "http://www.w3.org/Graphics/SVG/1.1/DTD/svg11.dtd">
<!-- Generated by graphviz version 7.1.0 (0)
 -->
<!-- Title: save_opengl.c Pages: 1 -->
<svg width="1633pt" height="192pt"
 viewBox="0.00 0.00 1632.50 192.00" xmlns="http://www.w3.org/2000/svg" xmlns:xlink="http://www.w3.org/1999/xlink">
<g id="graph0" class="graph" transform="scale(1 1) rotate(0) translate(4 188)">
<title>save_opengl.c</title>
<!-- Node1 -->
<g id="node1" class="node">
<title>Node1</title>
<g id="a_node1"><a xlink:title=" ">
<polygon fill="#999999" stroke="#666666" points="1253,-184 1173,-184 1173,-165 1253,-165 1253,-184"/>
<text text-anchor="middle" x="1213" y="-172" font-family="Helvetica,sans-Serif" font-size="10.00">save_opengl.c</text>
</a>
</g>
</g>
<!-- Node2 -->
<g id="node2" class="node">
<title>Node2</title>
<g id="a_node2"><a xlink:href="../../d2/d49/global_8h.html" target="_top" xlink:title=" ">
<polygon fill="white" stroke="#666666" points="813,-129 763,-129 763,-110 813,-110 813,-129"/>
<text text-anchor="middle" x="788" y="-117" font-family="Helvetica,sans-Serif" font-size="10.00">global.h</text>
</a>
</g>
</g>
<!-- Node1&#45;&gt;Node2 -->
<g id="edge1" class="edge">
<title>Node1&#45;&gt;Node2</title>
<path fill="none" stroke="#63b8ff" d="M1172.63,-168.47C1090.25,-158.19 903.88,-134.95 824.69,-125.08"/>
<polygon fill="#63b8ff" stroke="#63b8ff" points="825.23,-121.62 814.88,-123.85 824.37,-128.56 825.23,-121.62"/>
</g>
<!-- Node22 -->
<g id="node22" class="node">
<title>Node22</title>
<g id="a_node22"><a xlink:href="../../da/d7e/glwin_8h.html" target="_top" xlink:title=" ">
<polygon fill="white" stroke="#666666" points="1609.5,-74 1562.5,-74 1562.5,-55 1609.5,-55 1609.5,-74"/>
<text text-anchor="middle" x="1586" y="-62" font-family="Helvetica,sans-Serif" font-size="10.00">glwin.h</text>
</a>
</g>
</g>
<!-- Node1&#45;&gt;Node22 -->
<g id="edge27" class="edge">
<title>Node1&#45;&gt;Node22</title>
<path fill="none" stroke="#63b8ff" d="M1212.8,-164.93C1212.99,-151.02 1215.57,-123.72 1232,-110 1284.67,-66.01 1465.51,-85.1 1551.12,-73.79"/>
<polygon fill="#63b8ff" stroke="#63b8ff" points="1551.47,-77.28 1560.8,-72.27 1550.38,-70.36 1551.47,-77.28"/>
</g>
<!-- Node25 -->
<g id="node25" class="node">
<title>Node25</title>
<g id="a_node25"><a xlink:href="../../dc/d8d/project_8h.html" target="_top" xlink:title=" ">
<polygon fill="white" stroke="#666666" points="1295,-129 1241,-129 1241,-110 1295,-110 1295,-129"/>
<text text-anchor="middle" x="1268" y="-117" font-family="Helvetica,sans-Serif" font-size="10.00">project.h</text>
</a>
</g>
</g>
<!-- Node1&#45;&gt;Node25 -->
<g id="edge26" class="edge">
<title>Node1&#45;&gt;Node25</title>
<path fill="none" stroke="#63b8ff" d="M1222.08,-164.75C1229.84,-157.27 1241.21,-146.32 1250.7,-137.17"/>
<polygon fill="#63b8ff" stroke="#63b8ff" points="1252.86,-139.95 1257.63,-130.49 1248,-134.91 1252.86,-139.95"/>
</g>
<!-- Node3 -->
<g id="node3" class="node">
<title>Node3</title>
<g id="a_node3"><a xlink:title=" ">
<polygon fill="#e0e0e0" stroke="#999999" points="1544,-74 1504,-74 1504,-55 1544,-55 1544,-74"/>
<text text-anchor="middle" x="1524" y="-62" font-family="Helvetica,sans-Serif" font-size="10.00">glib.h</text>
</a>
</g>
</g>
<!-- Node2&#45;&gt;Node3 -->
<g id="edge2" class="edge">
<title>Node2&#45;&gt;Node3</title>
<path fill="none" stroke="#63b8ff" d="M813.29,-118.93C904.16,-120.03 1222.67,-120.3 1492.35,-74.06"/>
<polygon fill="#63b8ff" stroke="#63b8ff" points="1492.8,-77.53 1502.05,-72.37 1491.6,-70.64 1492.8,-77.53"/>
</g>
<!-- Node4 -->
<g id="node4" class="node">
<title>Node4</title>
<g id="a_node4"><a xlink:title=" ">
<polygon fill="#e0e0e0" stroke="#999999" points="66,-74 0,-74 0,-55 66,-55 66,-74"/>
<text text-anchor="middle" x="33" y="-62" font-family="Helvetica,sans-Serif" font-size="10.00">glib/gi18n.h</text>
</a>
</g>
</g>
<!-- Node2&#45;&gt;Node4 -->
<g id="edge3" class="edge">
<title>Node2&#45;&gt;Node4</title>
<path fill="none" stroke="#63b8ff" d="M762.62,-118.17C671.38,-116.74 351.36,-109.44 77.75,-74.17"/>
<polygon fill="#63b8ff" stroke="#63b8ff" points="78.27,-70.71 67.9,-72.89 77.36,-77.65 78.27,-70.71"/>
</g>
<!-- Node5 -->
<g id="node5" class="node">
<title>Node5</title>
<g id="a_node5"><a xlink:title=" ">
<polygon fill="#e0e0e0" stroke="#999999" points="134,-74 84,-74 84,-55 134,-55 134,-74"/>
<text text-anchor="middle" x="109" y="-62" font-family="Helvetica,sans-Serif" font-size="10.00">locale.h</text>
</a>
</g>
</g>
<!-- Node2&#45;&gt;Node5 -->
<g id="edge4" class="edge">
<title>Node2&#45;&gt;Node5</title>
<path fill="none" stroke="#63b8ff" d="M762.62,-118.35C676.97,-117.51 390.76,-111.98 145.43,-74.08"/>
<polygon fill="#63b8ff" stroke="#63b8ff" points="146.07,-70.64 135.64,-72.55 144.98,-77.55 146.07,-70.64"/>
</g>
<!-- Node6 -->
<g id="node6" class="node">
<title>Node6</title>
<g id="a_node6"><a xlink:title=" ">
<polygon fill="#e0e0e0" stroke="#999999" points="203.5,-74 152.5,-74 152.5,-55 203.5,-55 203.5,-74"/>
<text text-anchor="middle" x="178" y="-62" font-family="Helvetica,sans-Serif" font-size="10.00">unistd.h</text>
</a>
</g>
</g>
<!-- Node2&#45;&gt;Node6 -->
<g id="edge5" class="edge">
<title>Node2&#45;&gt;Node6</title>
<path fill="none" stroke="#63b8ff" d="M762.55,-118.05C682.97,-116.34 431.66,-108.53 215.16,-74.26"/>
<polygon fill="#63b8ff" stroke="#63b8ff" points="215.82,-70.82 205.39,-72.69 214.71,-77.73 215.82,-70.82"/>
</g>
<!-- Node7 -->
<g id="node7" class="node">
<title>Node7</title>
<g id="a_node7"><a xlink:title=" ">
<polygon fill="#e0e0e0" stroke="#999999" points="270.5,-74 221.5,-74 221.5,-55 270.5,-55 270.5,-74"/>
<text text-anchor="middle" x="246" y="-62" font-family="Helvetica,sans-Serif" font-size="10.00">string.h</text>
</a>
</g>
</g>
<!-- Node2&#45;&gt;Node7 -->
<g id="edge6" class="edge">
<title>Node2&#45;&gt;Node7</title>
<path fill="none" stroke="#63b8ff" d="M762.74,-117.4C688.88,-113.92 467,-101.77 285,-74 283.98,-73.84 282.95,-73.68 281.91,-73.5"/>
<polygon fill="#63b8ff" stroke="#63b8ff" points="282.63,-70.08 272.16,-71.65 281.33,-76.96 282.63,-70.08"/>
</g>
<!-- Node8 -->
<g id="node8" class="node">
<title>Node8</title>
<g id="a_node8"><a xlink:title=" ">
<polygon fill="#e0e0e0" stroke="#999999" points="522,-19 476,-19 476,0 522,0 522,-19"/>
<text text-anchor="middle" x="499" y="-7" font-family="Helvetica,sans-Serif" font-size="10.00">stdio.h</text>
</a>
</g>
</g>
<!-- Node2&#45;&gt;Node8 -->
<g id="edge7" class="edge">
<title>Node2&#45;&gt;Node8</title>
<path fill="none" stroke="#63b8ff" d="M762.64,-118.05C669.22,-116.12 348.13,-107.12 318,-74 274.54,-26.23 400.79,-14.4 464.57,-11.46"/>
<polygon fill="#63b8ff" stroke="#63b8ff" points="464.34,-14.98 474.19,-11.07 464.05,-7.98 464.34,-14.98"/>
</g>
<!-- Node9 -->
<g id="node9" class="node">
<title>Node9</title>
<g id="a_node9"><a xlink:title=" ">
<polygon fill="#e0e0e0" stroke="#999999" points="375,-74 327,-74 327,-55 375,-55 375,-74"/>
<text text-anchor="middle" x="351" y="-62" font-family="Helvetica,sans-Serif" font-size="10.00">stdlib.h</text>
</a>
</g>
</g>
<!-- Node2&#45;&gt;Node9 -->
<g id="edge8" class="edge">
<title>Node2&#45;&gt;Node9</title>
<path fill="none" stroke="#63b8ff" d="M762.76,-116.97C700.47,-112.94 534.33,-100.59 386.49,-74.21"/>
<polygon fill="#63b8ff" stroke="#63b8ff" points="387.38,-70.81 376.91,-72.47 386.13,-77.7 387.38,-70.81"/>
</g>
<!-- Node10 -->
<g id="node10" class="node">
<title>Node10</title>
<g id="a_node10"><a xlink:title=" ">
<polygon fill="#e0e0e0" stroke="#999999" points="461,-74 393,-74 393,-55 461,-55 461,-74"/>
<text text-anchor="middle" x="427" y="-62" font-family="Helvetica,sans-Serif" font-size="10.00">sys/types.h</text>
</a>
</g>
</g>
<!-- Node2&#45;&gt;Node10 -->
<g id="edge9" class="edge">
<title>Node2&#45;&gt;Node10</title>
<path fill="none" stroke="#63b8ff" d="M762.78,-115.46C710.57,-109.06 586.64,-93.34 472.27,-74.3"/>
<polygon fill="#63b8ff" stroke="#63b8ff" points="473.17,-70.9 462.73,-72.7 472.01,-77.81 473.17,-70.9"/>
</g>
<!-- Node11 -->
<g id="node11" class="node">
<title>Node11</title>
<g id="a_node11"><a xlink:title=" ">
<polygon fill="#e0e0e0" stroke="#999999" points="539,-74 479,-74 479,-55 539,-55 539,-74"/>
<text text-anchor="middle" x="509" y="-62" font-family="Helvetica,sans-Serif" font-size="10.00">sys/stat.h</text>
</a>
</g>
</g>
<!-- Node2&#45;&gt;Node11 -->
<g id="edge10" class="edge">
<title>Node2&#45;&gt;Node11</title>
<path fill="none" stroke="#63b8ff" d="M762.73,-114.08C720.8,-106.7 633.98,-91.16 550.44,-74.44"/>
<polygon fill="#63b8ff" stroke="#63b8ff" points="551.19,-71.02 540.7,-72.48 549.81,-77.88 551.19,-71.02"/>
</g>
<!-- Node12 -->
<g id="node12" class="node">
<title>Node12</title>
<g id="a_node12"><a xlink:title=" ">
<polygon fill="#e0e0e0" stroke="#999999" points="699.5,-19 652.5,-19 652.5,0 699.5,0 699.5,-19"/>
<text text-anchor="middle" x="676" y="-7" font-family="Helvetica,sans-Serif" font-size="10.00">math.h</text>
</a>
</g>
</g>
<!-- Node2&#45;&gt;Node12 -->
<g id="edge11" class="edge">
<title>Node2&#45;&gt;Node12</title>
<path fill="none" stroke="#63b8ff" d="M813.31,-118.57C921.2,-118.59 1339.1,-115.94 1378,-74 1383.74,-67.81 1383.78,-61.16 1378,-55 1354.93,-30.42 849.37,-15.14 710.83,-11.4"/>
<polygon fill="#63b8ff" stroke="#63b8ff" points="711.28,-7.91 701.19,-11.14 711.09,-14.91 711.28,-7.91"/>
</g>
<!-- Node13 -->
<g id="node13" class="node">
<title>Node13</title>
<g id="a_node13"><a xlink:title=" ">
<polygon fill="#e0e0e0" stroke="#999999" points="692.5,-74 637.5,-74 637.5,-55 692.5,-55 692.5,-74"/>
<text text-anchor="middle" x="665" y="-62" font-family="Helvetica,sans-Serif" font-size="10.00">gtk/gtk.h</text>
</a>
</g>
</g>
<!-- Node2&#45;&gt;Node13 -->
<g id="edge12" class="edge">
<title>Node2&#45;&gt;Node13</title>
<path fill="none" stroke="#63b8ff" d="M767.13,-109.51C747.58,-101.08 718.1,-88.38 695.83,-78.79"/>
<polygon fill="#63b8ff" stroke="#63b8ff" points="697.52,-75.7 686.95,-74.96 694.75,-82.13 697.52,-75.7"/>
</g>
<!-- Node14 -->
<g id="node14" class="node">
<title>Node14</title>
<g id="a_node14"><a xlink:title=" ">
<polygon fill="#e0e0e0" stroke="#999999" points="769.5,-74 710.5,-74 710.5,-55 769.5,-55 769.5,-74"/>
<text text-anchor="middle" x="740" y="-62" font-family="Helvetica,sans-Serif" font-size="10.00">gdk/gdk.h</text>
</a>
</g>
</g>
<!-- Node2&#45;&gt;Node14 -->
<g id="edge13" class="edge">
<title>Node2&#45;&gt;Node14</title>
<path fill="none" stroke="#63b8ff" d="M780.07,-109.75C773.44,-102.43 763.78,-91.76 755.61,-82.74"/>
<polygon fill="#63b8ff" stroke="#63b8ff" points="758.42,-80.63 749.11,-75.56 753.23,-85.33 758.42,-80.63"/>
</g>
<!-- Node15 -->
<g id="node15" class="node">
<title>Node15</title>
<g id="a_node15"><a xlink:title=" ">
<polygon fill="#e0e0e0" stroke="#999999" points="886.5,-74 787.5,-74 787.5,-55 886.5,-55 886.5,-74"/>
<text text-anchor="middle" x="837" y="-62" font-family="Helvetica,sans-Serif" font-size="10.00">gdk/gdkkeysyms.h</text>
</a>
</g>
</g>
<!-- Node2&#45;&gt;Node15 -->
<g id="edge14" class="edge">
<title>Node2&#45;&gt;Node15</title>
<path fill="none" stroke="#63b8ff" d="M796.09,-109.75C802.86,-102.43 812.72,-91.76 821.06,-82.74"/>
<polygon fill="#63b8ff" stroke="#63b8ff" points="823.49,-85.27 827.71,-75.55 818.35,-80.52 823.49,-85.27"/>
</g>
<!-- Node16 -->
<g id="node16" class="node">
<title>Node16</title>
<g id="a_node16"><a xlink:title=" ">
<polygon fill="#e0e0e0" stroke="#999999" points="1023,-74 905,-74 905,-55 1023,-55 1023,-74"/>
<text text-anchor="middle" x="964" y="-62" font-family="Helvetica,sans-Serif" font-size="10.00">gdk&#45;pixbuf/gdk&#45;pixbuf.h</text>
</a>
</g>
</g>
<!-- Node2&#45;&gt;Node16 -->
<g id="edge15" class="edge">
<title>Node2&#45;&gt;Node16</title>
<path fill="none" stroke="#63b8ff" d="M813.22,-110.91C841.91,-102.27 889.18,-88.03 923.15,-77.8"/>
<polygon fill="#63b8ff" stroke="#63b8ff" points="924.1,-81.17 932.67,-74.93 922.09,-74.47 924.1,-81.17"/>
</g>
<!-- Node17 -->
<g id="node17" class="node">
<title>Node17</title>
<g id="a_node17"><a xlink:title=" ">
<polygon fill="#e0e0e0" stroke="#999999" points="1133,-74 1041,-74 1041,-55 1133,-55 1133,-74"/>
<text text-anchor="middle" x="1087" y="-62" font-family="Helvetica,sans-Serif" font-size="10.00">pango/pangoft2.h</text>
</a>
</g>
</g>
<!-- Node2&#45;&gt;Node17 -->
<g id="edge16" class="edge">
<title>Node2&#45;&gt;Node17</title>
<path fill="none" stroke="#63b8ff" d="M813.49,-113.98C860.99,-105.56 964.09,-87.29 1029.26,-75.73"/>
<polygon fill="#63b8ff" stroke="#63b8ff" points="1029.84,-79.19 1039.08,-73.99 1028.62,-72.29 1029.84,-79.19"/>
</g>
<!-- Node18 -->
<g id="node18" class="node">
<title>Node18</title>
<g id="a_node18"><a xlink:title=" ">
<polygon fill="#e0e0e0" stroke="#999999" points="1213,-74 1151,-74 1151,-55 1213,-55 1213,-74"/>
<text text-anchor="middle" x="1182" y="-62" font-family="Helvetica,sans-Serif" font-size="10.00">epoxy/gl.h</text>
</a>
</g>
</g>
<!-- Node2&#45;&gt;Node18 -->
<g id="edge17" class="edge">
<title>Node2&#45;&gt;Node18</title>
<path fill="none" stroke="#63b8ff" d="M813.43,-116.05C870.1,-110.42 1011.24,-95.55 1139.43,-74.31"/>
<polygon fill="#63b8ff" stroke="#63b8ff" points="1139.83,-77.79 1149.11,-72.68 1138.67,-70.88 1139.83,-77.79"/>
</g>
<!-- Node19 -->
<g id="node19" class="node">
<title>Node19</title>
<g id="a_node19"><a xlink:title=" ">
<polygon fill="#e0e0e0" stroke="#999999" points="1284.5,-74 1231.5,-74 1231.5,-55 1284.5,-55 1284.5,-74"/>
<text text-anchor="middle" x="1258" y="-62" font-family="Helvetica,sans-Serif" font-size="10.00">GL/glu.h</text>
</a>
</g>
</g>
<!-- Node2&#45;&gt;Node19 -->
<g id="edge18" class="edge">
<title>Node2&#45;&gt;Node19</title>
<path fill="none" stroke="#63b8ff" d="M813.1,-117.07C878.46,-113.1 1059.39,-100.58 1220.29,-74.05"/>
<polygon fill="#63b8ff" stroke="#63b8ff" points="1220.56,-77.55 1229.85,-72.45 1219.41,-70.65 1220.56,-77.55"/>
</g>
<!-- Node20 -->
<g id="node20" class="node">
<title>Node20</title>
<g id="a_node20"><a xlink:title=" ">
<polygon fill="#e0e0e0" stroke="#999999" points="1369.5,-74 1302.5,-74 1302.5,-55 1369.5,-55 1369.5,-74"/>
<text text-anchor="middle" x="1336" y="-62" font-family="Helvetica,sans-Serif" font-size="10.00">epoxy/glx.h</text>
</a>
</g>
</g>
<!-- Node2&#45;&gt;Node20 -->
<g id="edge19" class="edge">
<title>Node2&#45;&gt;Node20</title>
<path fill="none" stroke="#63b8ff" d="M813.33,-117.23C885.97,-113.39 1101.38,-100.58 1290.96,-74.12"/>
<polygon fill="#63b8ff" stroke="#63b8ff" points="1291.35,-77.6 1300.76,-72.74 1290.37,-70.67 1291.35,-77.6"/>
</g>
<!-- Node21 -->
<g id="node21" class="node">
<title>Node21</title>
<g id="a_node21"><a xlink:href="../../dc/db0/math__3d_8h.html" target="_top" xlink:title=" ">
<polygon fill="white" stroke="#666666" points="619,-74 557,-74 557,-55 619,-55 619,-74"/>
<text text-anchor="middle" x="588" y="-62" font-family="Helvetica,sans-Serif" font-size="10.00">math_3d.h</text>
</a>
</g>
</g>
<!-- Node2&#45;&gt;Node21 -->
<g id="edge20" class="edge">
<title>Node2&#45;&gt;Node21</title>
<path fill="none" stroke="#63b8ff" d="M762.67,-111.79C729.4,-102.97 670.52,-87.37 630.4,-76.74"/>
<polygon fill="#63b8ff" stroke="#63b8ff" points="631.39,-73.38 620.83,-74.2 629.6,-80.14 631.39,-73.38"/>
</g>
<!-- Node2&#45;&gt;Node22 -->
<g id="edge23" class="edge">
<title>Node2&#45;&gt;Node22</title>
<path fill="none" stroke="#63b8ff" d="M813.28,-118.8C908.72,-119.57 1256.17,-119.02 1550.98,-73.95"/>
<polygon fill="#63b8ff" stroke="#63b8ff" points="1551.48,-77.41 1560.83,-72.42 1550.41,-70.49 1551.48,-77.41"/>
</g>
<!-- Node24 -->
<g id="node24" class="node">
<title>Node24</title>
<g id="a_node24"><a xlink:title=" ">
<polygon fill="#e0e0e0" stroke="#999999" points="1486,-74 1426,-74 1426,-55 1486,-55 1486,-74"/>
<text text-anchor="middle" x="1456" y="-62" font-family="Helvetica,sans-Serif" font-size="10.00">gtk/gtkx.h</text>
</a>
</g>
</g>
<!-- Node2&#45;&gt;Node24 -->
<g id="edge25" class="edge">
<title>Node2&#45;&gt;Node24</title>
<path fill="none" stroke="#63b8ff" d="M813.37,-117.78C898.37,-115.13 1180.76,-104.47 1412,-74 1412.84,-73.89 1413.69,-73.77 1414.54,-73.65"/>
<polygon fill="#63b8ff" stroke="#63b8ff" points="1414.97,-77.13 1424.29,-72.07 1413.86,-70.22 1414.97,-77.13"/>
</g>
<!-- Node21&#45;&gt;Node8 -->
<g id="edge22" class="edge">
<title>Node21&#45;&gt;Node8</title>
<path fill="none" stroke="#63b8ff" d="M572.9,-54.51C559.4,-46.47 539.35,-34.53 523.54,-25.11"/>
<polygon fill="#63b8ff" stroke="#63b8ff" points="525.56,-22.24 515.18,-20.13 521.98,-28.26 525.56,-22.24"/>
</g>
<!-- Node21&#45;&gt;Node12 -->
<g id="edge21" class="edge">
<title>Node21&#45;&gt;Node12</title>
<path fill="none" stroke="#63b8ff" d="M602.93,-54.51C616.28,-46.47 636.11,-34.53 651.74,-25.11"/>
<polygon fill="#63b8ff" stroke="#63b8ff" points="653.24,-28.3 660,-20.14 649.62,-22.3 653.24,-28.3"/>
</g>
<!-- Node23 -->
<g id="node23" class="node">
<title>Node23</title>
<g id="a_node23"><a xlink:href="../../d5/d9e/ogl__shading_8h.html" target="_top" xlink:title=" ">
<polygon fill="white" stroke="#666666" points="1624.5,-19 1547.5,-19 1547.5,0 1624.5,0 1624.5,-19"/>
<text text-anchor="middle" x="1586" y="-7" font-family="Helvetica,sans-Serif" font-size="10.00">ogl_shading.h</text>
</a>
</g>
</g>
<!-- Node22&#45;&gt;Node23 -->
<g id="edge24" class="edge">
<title>Node22&#45;&gt;Node23</title>
<path fill="none" stroke="#63b8ff" d="M1586,-54.75C1586,-48.27 1586,-39.16 1586,-30.9"/>
<polygon fill="#63b8ff" stroke="#63b8ff" points="1589.5,-30.96 1586,-20.96 1582.5,-30.96 1589.5,-30.96"/>
</g>
</g>
</svg>
