<?xml version="1.0" encoding="UTF-8" standalone="no"?>
<!DOCTYPE svg PUBLIC "-//W3C//DTD SVG 1.1//EN"
 "http://www.w3.org/Graphics/SVG/1.1/DTD/svg11.dtd">
<!-- Generated by graphviz version 9.0.0 (20230911.1827)
 -->
<!-- Title: project/save_opengl.c Pages: 1 -->
<!--zoomable 196 -->

<svg id="main" version="1.1" xmlns="http://www.w3.org/2000/svg" xmlns:xlink="http://www.w3.org/1999/xlink" xml:space="preserve" onload="init(evt)">
<style type="text/css"><![CDATA[
.node, .edge {opacity: 0.7;}
.node.selected, .edge.selected {opacity: 1;}
.edge:hover path { stroke: red; }
.edge:hover polygon { stroke: red; fill: red; }
]]></style>

<defs>
  <circle id="rim" cx="0" cy="0" r="7"/>
  <circle id="rim2" cx="0" cy="0" r="3.5"/>
  <g id="zoomPlus">
    <use xlink:href="#rim" fill="#404040"><set attributeName="fill" to="#808080" begin="zoomplus.mouseover" end="zoomplus.mouseout"/></use>
    <path d="M-4,0h8M0,-4v8" fill="none" stroke="white" stroke-width="1.5" pointer-events="none"/>
  </g>
  <g id="zoomMin">
    <use xlink:href="#rim" fill="#404040"><set attributeName="fill" to="#808080" begin="zoomminus.mouseover" end="zoomminus.mouseout"/></use>
    <path d="M-4,0h8" fill="none" stroke="white" stroke-width="1.5" pointer-events="none"/>
  </g>
  <g id="arrowUp" transform="translate(30 24)">
    <use xlink:href="#rim"/>
    <path pointer-events="none" fill="none" stroke="white" stroke-width="1.5" d="M0,-3.0v7 M-2.5,-0.5L0,-3.0L2.5,-0.5"/>
  </g>
  <g id="arrowRight" transform="rotate(90) translate(36 -43)">
    <use xlink:href="#rim"/>
    <path pointer-events="none" fill="none" stroke="white" stroke-width="1.5" d="M0,-3.0v7 M-2.5,-0.5L0,-3.0L2.5,-0.5"/>
  </g>
  <g id="arrowDown" transform="rotate(180) translate(-30 -48)">
    <use xlink:href="#rim"/>
    <path pointer-events="none" fill="none" stroke="white" stroke-width="1.5" d="M0,-3.0v7 M-2.5,-0.5L0,-3.0L2.5,-0.5"/>
  </g>
  <g id="arrowLeft" transform="rotate(270) translate(-36 17)">
    <use xlink:href="#rim"/>
    <path pointer-events="none" fill="none" stroke="white" stroke-width="1.5" d="M0,-3.0v7 M-2.5,-0.5L0,-3.0L2.5,-0.5"/>
  </g>
  <g id="resetDef">
    <use xlink:href="#rim2" fill="#404040"><set attributeName="fill" to="#808080" begin="reset.mouseover" end="reset.mouseout"/></use>
  </g>
</defs>
<script type="application/ecmascript">
var viewWidth = 1619;
var viewHeight = 196;
var sectionId = 'dynsection-0';
</script>
<script type="application/ecmascript" xlink:href="../../svg.min.js"/>
<svg id="graph" class="graph">
<g id="viewport">
<title>project/save_opengl.c</title>
<!-- Node1 -->
<g id="Node000001" class="node">
<title>Node1</title>
<g id="a_Node000001"><a xlink:title="Functions to save OpenGL information in the atomes project file format.">
<polygon fill="#999999" stroke="#666666" points="1254.38,-188 1143.12,-188 1143.12,-168 1254.38,-168 1254.38,-188"/>
<text text-anchor="middle" x="1198.75" y="-174.5" font-family="Helvetica,sans-Serif" font-size="10.00">project/save_opengl.c</text>
</a>
</g>
</g>
<!-- Node2 -->
<g id="Node000002" class="node">
<title>Node2</title>
<g id="a_Node000002"><a xlink:href="../../d2/d49/global_8h.html" target="_top" xlink:title="Global variable declarations &#160;&#160;Global convenience function declarations &#160;&#160;Global data structure defin...">
<polygon fill="white" stroke="#666666" points="796.62,-132 746.88,-132 746.88,-112 796.62,-112 796.62,-132"/>
<text text-anchor="middle" x="771.75" y="-118.5" font-family="Helvetica,sans-Serif" font-size="10.00">global.h</text>
</a>
</g>
</g>
<!-- Node1&#45;&gt;Node2 -->
<g id="edge1_Node000001_Node000002" class="edge">
<title>Node1&#45;&gt;Node2</title>
<g id="a_edge1_Node000001_Node000002"><a xlink:title=" ">
<path fill="none" stroke="#63b8ff" d="M1142.93,-169.94C1054.09,-158.71 882.96,-137.06 808.2,-127.61"/>
<polygon fill="#63b8ff" stroke="#63b8ff" points="808.92,-124.17 798.56,-126.39 808.04,-131.12 808.92,-124.17"/>
</a>
</g>
</g>
<!-- Node23 -->
<g id="Node000023" class="node">
<title>Node23</title>
<g id="a_Node000023"><a xlink:href="../../da/d7e/glwin_8h.html" target="_top" xlink:title="Variable declarations related the OpenGL window &#160;&#160;Data structure declarations related the OpenGL wind...">
<polygon fill="white" stroke="#666666" points="1596.12,-76 1549.38,-76 1549.38,-56 1596.12,-56 1596.12,-76"/>
<text text-anchor="middle" x="1572.75" y="-62.5" font-family="Helvetica,sans-Serif" font-size="10.00">glwin.h</text>
</a>
</g>
</g>
<!-- Node1&#45;&gt;Node23 -->
<g id="edge27_Node000001_Node000023" class="edge">
<title>Node1&#45;&gt;Node23</title>
<g id="a_edge27_Node000001_Node000023"><a xlink:title=" ">
<path fill="none" stroke="#63b8ff" d="M1198.48,-167.77C1198.62,-153.41 1201.19,-125.91 1217.75,-112 1270.62,-67.59 1452.84,-87.83 1537.98,-75.97"/>
<polygon fill="#63b8ff" stroke="#63b8ff" points="1538.31,-79.46 1547.59,-74.37 1537.16,-72.56 1538.31,-79.46"/>
</a>
</g>
</g>
<!-- Node25 -->
<g id="Node000025" class="node">
<title>Node25</title>
<g id="a_Node000025"><a xlink:href="../../dc/d8d/project_8h.html" target="_top" xlink:title="Function declarations for reading atomes project file &#160;&#160;Function declarations for saving atomes proje...">
<polygon fill="white" stroke="#666666" points="1280.5,-132 1227,-132 1227,-112 1280.5,-112 1280.5,-132"/>
<text text-anchor="middle" x="1253.75" y="-118.5" font-family="Helvetica,sans-Serif" font-size="10.00">project.h</text>
</a>
</g>
</g>
<!-- Node1&#45;&gt;Node25 -->
<g id="edge26_Node000001_Node000025" class="edge">
<title>Node1&#45;&gt;Node25</title>
<g id="a_edge26_Node000001_Node000025"><a xlink:title=" ">
<path fill="none" stroke="#63b8ff" d="M1208.33,-167.59C1215.98,-160.08 1226.91,-149.35 1236.13,-140.3"/>
<polygon fill="#63b8ff" stroke="#63b8ff" points="1238.52,-142.86 1243.2,-133.36 1233.61,-137.87 1238.52,-142.86"/>
</a>
</g>
</g>
<!-- Node3 -->
<g id="Node000003" class="node">
<title>Node3</title>
<g id="a_Node000003"><a xlink:title=" ">
<polygon fill="#e0e0e0" stroke="#999999" points="1531.38,-76 1492.12,-76 1492.12,-56 1531.38,-56 1531.38,-76"/>
<text text-anchor="middle" x="1511.75" y="-62.5" font-family="Helvetica,sans-Serif" font-size="10.00">glib.h</text>
</a>
</g>
</g>
<!-- Node2&#45;&gt;Node3 -->
<g id="edge2_Node000002_Node000003" class="edge">
<title>Node2&#45;&gt;Node3</title>
<g id="a_edge2_Node000002_Node000003"><a xlink:title=" ">
<path fill="none" stroke="#63b8ff" d="M796.96,-121.16C888.83,-121.38 1214.08,-118.88 1477.75,-76 1478.75,-75.84 1479.77,-75.66 1480.79,-75.46"/>
<polygon fill="#63b8ff" stroke="#63b8ff" points="1481.29,-78.94 1490.28,-73.32 1479.75,-72.11 1481.29,-78.94"/>
</a>
</g>
</g>
<!-- Node4 -->
<g id="Node000004" class="node">
<title>Node4</title>
<g id="a_Node000004"><a xlink:title=" ">
<polygon fill="#e0e0e0" stroke="#999999" points="65.5,-76 0,-76 0,-56 65.5,-56 65.5,-76"/>
<text text-anchor="middle" x="32.75" y="-62.5" font-family="Helvetica,sans-Serif" font-size="10.00">glib/gi18n.h</text>
</a>
</g>
</g>
<!-- Node2&#45;&gt;Node4 -->
<g id="edge3_Node000002_Node000004" class="edge">
<title>Node2&#45;&gt;Node4</title>
<g id="a_edge3_Node000002_Node000004"><a xlink:title=" ">
<path fill="none" stroke="#63b8ff" d="M746.61,-120.71C656.95,-119.38 344.4,-112.38 76.79,-76.06"/>
<polygon fill="#63b8ff" stroke="#63b8ff" points="77.57,-72.64 67.18,-74.74 76.61,-79.57 77.57,-72.64"/>
</a>
</g>
</g>
<!-- Node5 -->
<g id="Node000005" class="node">
<title>Node5</title>
<g id="a_Node000005"><a xlink:title=" ">
<polygon fill="#e0e0e0" stroke="#999999" points="133.62,-76 83.88,-76 83.88,-56 133.62,-56 133.62,-76"/>
<text text-anchor="middle" x="108.75" y="-62.5" font-family="Helvetica,sans-Serif" font-size="10.00">locale.h</text>
</a>
</g>
</g>
<!-- Node2&#45;&gt;Node5 -->
<g id="edge4_Node000002_Node000005" class="edge">
<title>Node2&#45;&gt;Node5</title>
<g id="a_edge4_Node000002_Node000005"><a xlink:title=" ">
<path fill="none" stroke="#63b8ff" d="M746.38,-120.88C662.12,-120.14 383.82,-114.85 145.22,-76.09"/>
<polygon fill="#63b8ff" stroke="#63b8ff" points="145.82,-72.64 135.38,-74.46 144.68,-79.54 145.82,-72.64"/>
</a>
</g>
</g>
<!-- Node6 -->
<g id="Node000006" class="node">
<title>Node6</title>
<g id="a_Node000006"><a xlink:title=" ">
<polygon fill="#e0e0e0" stroke="#999999" points="202,-76 151.5,-76 151.5,-56 202,-56 202,-76"/>
<text text-anchor="middle" x="176.75" y="-62.5" font-family="Helvetica,sans-Serif" font-size="10.00">unistd.h</text>
</a>
</g>
</g>
<!-- Node2&#45;&gt;Node6 -->
<g id="edge5_Node000002_Node000006" class="edge">
<title>Node2&#45;&gt;Node6</title>
<g id="a_edge5_Node000002_Node000006"><a xlink:title=" ">
<path fill="none" stroke="#63b8ff" d="M746.39,-120.58C668.25,-118.93 424.2,-111.28 213.54,-76.19"/>
<polygon fill="#63b8ff" stroke="#63b8ff" points="214.2,-72.75 203.75,-74.53 213.03,-79.65 214.2,-72.75"/>
</a>
</g>
</g>
<!-- Node7 -->
<g id="Node000007" class="node">
<title>Node7</title>
<g id="a_Node000007"><a xlink:title=" ">
<polygon fill="#e0e0e0" stroke="#999999" points="267.88,-76 219.62,-76 219.62,-56 267.88,-56 267.88,-76"/>
<text text-anchor="middle" x="243.75" y="-62.5" font-family="Helvetica,sans-Serif" font-size="10.00">string.h</text>
</a>
</g>
</g>
<!-- Node2&#45;&gt;Node7 -->
<g id="edge6_Node000002_Node000007" class="edge">
<title>Node2&#45;&gt;Node7</title>
<g id="a_edge6_Node000002_Node000007"><a xlink:title=" ">
<path fill="none" stroke="#63b8ff" d="M746.61,-119.94C674.07,-116.63 458.38,-104.88 281.75,-76 280.92,-75.86 280.09,-75.72 279.24,-75.57"/>
<polygon fill="#63b8ff" stroke="#63b8ff" points="280.16,-72.19 269.66,-73.62 278.76,-79.05 280.16,-72.19"/>
</a>
</g>
</g>
<!-- Node8 -->
<g id="Node000008" class="node">
<title>Node8</title>
<g id="a_Node000008"><a xlink:title=" ">
<polygon fill="#e0e0e0" stroke="#999999" points="517.38,-20 472.12,-20 472.12,0 517.38,0 517.38,-20"/>
<text text-anchor="middle" x="494.75" y="-6.5" font-family="Helvetica,sans-Serif" font-size="10.00">stdio.h</text>
</a>
</g>
</g>
<!-- Node2&#45;&gt;Node8 -->
<g id="edge7_Node000002_Node000008" class="edge">
<title>Node2&#45;&gt;Node8</title>
<g id="a_edge7_Node000002_Node000008"><a xlink:title=" ">
<path fill="none" stroke="#63b8ff" d="M746.46,-120.45C654.81,-118.19 343.93,-108.19 314.75,-76 271.46,-28.24 397.15,-15.54 460.57,-12.19"/>
<polygon fill="#63b8ff" stroke="#63b8ff" points="460.66,-15.69 470.48,-11.72 460.33,-8.69 460.66,-15.69"/>
</a>
</g>
</g>
<!-- Node9 -->
<g id="Node000009" class="node">
<title>Node9</title>
<g id="a_Node000009"><a xlink:title=" ">
<polygon fill="#e0e0e0" stroke="#999999" points="371.5,-76 324,-76 324,-56 371.5,-56 371.5,-76"/>
<text text-anchor="middle" x="347.75" y="-62.5" font-family="Helvetica,sans-Serif" font-size="10.00">stdlib.h</text>
</a>
</g>
</g>
<!-- Node2&#45;&gt;Node9 -->
<g id="edge8_Node000002_Node000009" class="edge">
<title>Node2&#45;&gt;Node9</title>
<g id="a_edge8_Node000002_Node000009"><a xlink:title=" ">
<path fill="none" stroke="#63b8ff" d="M746.77,-119.52C685.96,-115.63 525.31,-103.6 382.86,-76.36"/>
<polygon fill="#63b8ff" stroke="#63b8ff" points="383.73,-72.96 373.25,-74.49 382.4,-79.83 383.73,-72.96"/>
</a>
</g>
</g>
<!-- Node10 -->
<g id="Node000010" class="node">
<title>Node10</title>
<g id="a_Node000010"><a xlink:title=" ">
<polygon fill="#e0e0e0" stroke="#999999" points="456.25,-76 389.25,-76 389.25,-56 456.25,-56 456.25,-76"/>
<text text-anchor="middle" x="422.75" y="-62.5" font-family="Helvetica,sans-Serif" font-size="10.00">sys/types.h</text>
</a>
</g>
</g>
<!-- Node2&#45;&gt;Node10 -->
<g id="edge9_Node000002_Node000010" class="edge">
<title>Node2&#45;&gt;Node10</title>
<g id="a_edge9_Node000002_Node000010"><a xlink:title=" ">
<path fill="none" stroke="#63b8ff" d="M746.59,-117.88C695.8,-111.46 577.15,-95.86 467.86,-76.47"/>
<polygon fill="#63b8ff" stroke="#63b8ff" points="468.59,-73.05 458.13,-74.73 467.35,-79.94 468.59,-73.05"/>
</a>
</g>
</g>
<!-- Node11 -->
<g id="Node000011" class="node">
<title>Node11</title>
<g id="a_Node000011"><a xlink:title=" ">
<polygon fill="#e0e0e0" stroke="#999999" points="533.5,-76 474,-76 474,-56 533.5,-56 533.5,-76"/>
<text text-anchor="middle" x="503.75" y="-62.5" font-family="Helvetica,sans-Serif" font-size="10.00">sys/stat.h</text>
</a>
</g>
</g>
<!-- Node2&#45;&gt;Node11 -->
<g id="edge10_Node000002_Node000011" class="edge">
<title>Node2&#45;&gt;Node11</title>
<g id="a_edge10_Node000002_Node000011"><a xlink:title=" ">
<path fill="none" stroke="#63b8ff" d="M746.62,-116.34C706.31,-108.81 624.44,-93.26 545.13,-76.45"/>
<polygon fill="#63b8ff" stroke="#63b8ff" points="545.95,-73.05 535.44,-74.39 544.49,-79.9 545.95,-73.05"/>
</a>
</g>
</g>
<!-- Node12 -->
<g id="Node000012" class="node">
<title>Node12</title>
<g id="a_Node000012"><a xlink:title=" ">
<polygon fill="#e0e0e0" stroke="#999999" points="692.75,-20 646.75,-20 646.75,0 692.75,0 692.75,-20"/>
<text text-anchor="middle" x="669.75" y="-6.5" font-family="Helvetica,sans-Serif" font-size="10.00">math.h</text>
</a>
</g>
</g>
<!-- Node2&#45;&gt;Node12 -->
<g id="edge11_Node000002_Node000012" class="edge">
<title>Node2&#45;&gt;Node12</title>
<g id="a_edge11_Node000002_Node000012"><a xlink:title=" ">
<path fill="none" stroke="#63b8ff" d="M796.77,-120.27C916.07,-116.7 1422.18,-100.13 1444.75,-76 1450.82,-69.51 1450.85,-62.46 1444.75,-56 1419,-28.71 851.36,-14.84 704.3,-11.7"/>
<polygon fill="#63b8ff" stroke="#63b8ff" points="704.5,-8.2 694.42,-11.49 704.35,-15.2 704.5,-8.2"/>
</a>
</g>
</g>
<!-- Node13 -->
<g id="Node000013" class="node">
<title>Node13</title>
<g id="a_Node000013"><a xlink:title=" ">
<polygon fill="#e0e0e0" stroke="#999999" points="685.88,-76 631.62,-76 631.62,-56 685.88,-56 685.88,-76"/>
<text text-anchor="middle" x="658.75" y="-62.5" font-family="Helvetica,sans-Serif" font-size="10.00">gtk/gtk.h</text>
</a>
</g>
</g>
<!-- Node2&#45;&gt;Node13 -->
<g id="edge12_Node000002_Node000013" class="edge">
<title>Node2&#45;&gt;Node13</title>
<g id="a_edge12_Node000002_Node000013"><a xlink:title=" ">
<path fill="none" stroke="#63b8ff" d="M752.07,-111.59C734.59,-103.24 708.8,-90.92 688.75,-81.34"/>
<polygon fill="#63b8ff" stroke="#63b8ff" points="690.48,-78.29 679.95,-77.13 687.47,-84.6 690.48,-78.29"/>
</a>
</g>
</g>
<!-- Node14 -->
<g id="Node000014" class="node">
<title>Node14</title>
<g id="a_Node000014"><a xlink:title=" ">
<polygon fill="#e0e0e0" stroke="#999999" points="763.5,-76 704,-76 704,-56 763.5,-56 763.5,-76"/>
<text text-anchor="middle" x="733.75" y="-62.5" font-family="Helvetica,sans-Serif" font-size="10.00">gtk/gtkx.h</text>
</a>
</g>
</g>
<!-- Node2&#45;&gt;Node14 -->
<g id="edge13_Node000002_Node000014" class="edge">
<title>Node2&#45;&gt;Node14</title>
<g id="a_edge13_Node000002_Node000014"><a xlink:title=" ">
<path fill="none" stroke="#63b8ff" d="M765.13,-111.59C760.06,-104.39 752.91,-94.23 746.72,-85.43"/>
<polygon fill="#63b8ff" stroke="#63b8ff" points="749.78,-83.7 741.16,-77.54 744.06,-87.73 749.78,-83.7"/>
</a>
</g>
</g>
<!-- Node15 -->
<g id="Node000015" class="node">
<title>Node15</title>
<g id="a_Node000015"><a xlink:title=" ">
<polygon fill="#e0e0e0" stroke="#999999" points="840.12,-76 781.38,-76 781.38,-56 840.12,-56 840.12,-76"/>
<text text-anchor="middle" x="810.75" y="-62.5" font-family="Helvetica,sans-Serif" font-size="10.00">gdk/gdk.h</text>
</a>
</g>
</g>
<!-- Node2&#45;&gt;Node15 -->
<g id="edge14_Node000002_Node000015" class="edge">
<title>Node2&#45;&gt;Node15</title>
<g id="a_edge14_Node000002_Node000015"><a xlink:title=" ">
<path fill="none" stroke="#63b8ff" d="M778.54,-111.59C783.74,-104.39 791.08,-94.23 797.44,-85.43"/>
<polygon fill="#63b8ff" stroke="#63b8ff" points="800.13,-87.68 803.15,-77.53 794.46,-83.58 800.13,-87.68"/>
</a>
</g>
</g>
<!-- Node16 -->
<g id="Node000016" class="node">
<title>Node16</title>
<g id="a_Node000016"><a xlink:title=" ">
<polygon fill="#e0e0e0" stroke="#999999" points="957,-76 858.5,-76 858.5,-56 957,-56 957,-76"/>
<text text-anchor="middle" x="907.75" y="-62.5" font-family="Helvetica,sans-Serif" font-size="10.00">gdk/gdkkeysyms.h</text>
</a>
</g>
</g>
<!-- Node2&#45;&gt;Node16 -->
<g id="edge15_Node000002_Node000016" class="edge">
<title>Node2&#45;&gt;Node16</title>
<g id="a_edge15_Node000002_Node000016"><a xlink:title=" ">
<path fill="none" stroke="#63b8ff" d="M795.44,-111.59C816.95,-103.05 848.95,-90.35 873.29,-80.68"/>
<polygon fill="#63b8ff" stroke="#63b8ff" points="874.47,-83.98 882.47,-77.04 871.88,-77.48 874.47,-83.98"/>
</a>
</g>
</g>
<!-- Node17 -->
<g id="Node000017" class="node">
<title>Node17</title>
<g id="a_Node000017"><a xlink:title=" ">
<polygon fill="#e0e0e0" stroke="#999999" points="1092.38,-76 975.12,-76 975.12,-56 1092.38,-56 1092.38,-76"/>
<text text-anchor="middle" x="1033.75" y="-62.5" font-family="Helvetica,sans-Serif" font-size="10.00">gdk&#45;pixbuf/gdk&#45;pixbuf.h</text>
</a>
</g>
</g>
<!-- Node2&#45;&gt;Node17 -->
<g id="edge16_Node000002_Node000017" class="edge">
<title>Node2&#45;&gt;Node17</title>
<g id="a_edge16_Node000002_Node000017"><a xlink:title=" ">
<path fill="none" stroke="#63b8ff" d="M796.87,-115.82C837.97,-107.35 920.6,-90.32 976.56,-78.79"/>
<polygon fill="#63b8ff" stroke="#63b8ff" points="977.15,-82.24 986.24,-76.79 975.74,-75.38 977.15,-82.24"/>
</a>
</g>
</g>
<!-- Node18 -->
<g id="Node000018" class="node">
<title>Node18</title>
<g id="a_Node000018"><a xlink:title=" ">
<polygon fill="#e0e0e0" stroke="#999999" points="1201.25,-76 1110.25,-76 1110.25,-56 1201.25,-56 1201.25,-76"/>
<text text-anchor="middle" x="1155.75" y="-62.5" font-family="Helvetica,sans-Serif" font-size="10.00">pango/pangoft2.h</text>
</a>
</g>
</g>
<!-- Node2&#45;&gt;Node18 -->
<g id="edge17_Node000002_Node000018" class="edge">
<title>Node2&#45;&gt;Node18</title>
<g id="a_edge17_Node000002_Node000018"><a xlink:title=" ">
<path fill="none" stroke="#63b8ff" d="M797.04,-117.81C850.69,-110.99 980.11,-94.25 1098.73,-76.42"/>
<polygon fill="#63b8ff" stroke="#63b8ff" points="1098.95,-79.93 1108.31,-74.98 1097.9,-73.01 1098.95,-79.93"/>
</a>
</g>
</g>
<!-- Node19 -->
<g id="Node000019" class="node">
<title>Node19</title>
<g id="a_Node000019"><a xlink:title=" ">
<polygon fill="#e0e0e0" stroke="#999999" points="1280.25,-76 1219.25,-76 1219.25,-56 1280.25,-56 1280.25,-76"/>
<text text-anchor="middle" x="1249.75" y="-62.5" font-family="Helvetica,sans-Serif" font-size="10.00">epoxy/gl.h</text>
</a>
</g>
</g>
<!-- Node2&#45;&gt;Node19 -->
<g id="edge18_Node000002_Node000019" class="edge">
<title>Node2&#45;&gt;Node19</title>
<g id="a_edge18_Node000002_Node000019"><a xlink:title=" ">
<path fill="none" stroke="#63b8ff" d="M797.07,-119.46C863,-115.21 1045.51,-102.05 1207.67,-76.15"/>
<polygon fill="#63b8ff" stroke="#63b8ff" points="1208.01,-79.64 1217.32,-74.58 1206.89,-72.73 1208.01,-79.64"/>
</a>
</g>
</g>
<!-- Node20 -->
<g id="Node000020" class="node">
<title>Node20</title>
<g id="a_Node000020"><a xlink:title=" ">
<polygon fill="#e0e0e0" stroke="#999999" points="1351.12,-76 1298.38,-76 1298.38,-56 1351.12,-56 1351.12,-76"/>
<text text-anchor="middle" x="1324.75" y="-62.5" font-family="Helvetica,sans-Serif" font-size="10.00">GL/glu.h</text>
</a>
</g>
</g>
<!-- Node2&#45;&gt;Node20 -->
<g id="edge19_Node000002_Node000020" class="edge">
<title>Node2&#45;&gt;Node20</title>
<g id="a_edge19_Node000002_Node000020"><a xlink:title=" ">
<path fill="none" stroke="#63b8ff" d="M796.95,-120.22C870.73,-117.63 1092.8,-107.74 1286.84,-76.03"/>
<polygon fill="#63b8ff" stroke="#63b8ff" points="1287.33,-79.5 1296.62,-74.41 1286.18,-72.59 1287.33,-79.5"/>
</a>
</g>
</g>
<!-- Node21 -->
<g id="Node000021" class="node">
<title>Node21</title>
<g id="a_Node000021"><a xlink:title=" ">
<polygon fill="#e0e0e0" stroke="#999999" points="1435.88,-76 1369.62,-76 1369.62,-56 1435.88,-56 1435.88,-76"/>
<text text-anchor="middle" x="1402.75" y="-62.5" font-family="Helvetica,sans-Serif" font-size="10.00">epoxy/glx.h</text>
</a>
</g>
</g>
<!-- Node2&#45;&gt;Node21 -->
<g id="edge20_Node000002_Node000021" class="edge">
<title>Node2&#45;&gt;Node21</title>
<g id="a_edge20_Node000002_Node000021"><a xlink:title=" ">
<path fill="none" stroke="#63b8ff" d="M797.09,-120.24C877.57,-117.57 1134.62,-107.15 1358.2,-76"/>
<polygon fill="#63b8ff" stroke="#63b8ff" points="1358.58,-79.48 1367.99,-74.62 1357.6,-72.55 1358.58,-79.48"/>
</a>
</g>
</g>
<!-- Node22 -->
<g id="Node000022" class="node">
<title>Node22</title>
<g id="a_Node000022"><a xlink:href="../../dc/db0/math__3d_8h.html" target="_top" xlink:title="Functions for OpenGL math.">
<polygon fill="white" stroke="#666666" points="613.62,-76 551.88,-76 551.88,-56 613.62,-56 613.62,-76"/>
<text text-anchor="middle" x="582.75" y="-62.5" font-family="Helvetica,sans-Serif" font-size="10.00">math_3d.h</text>
</a>
</g>
</g>
<!-- Node2&#45;&gt;Node22 -->
<g id="edge21_Node000002_Node000022" class="edge">
<title>Node2&#45;&gt;Node22</title>
<g id="a_edge21_Node000002_Node000022"><a xlink:title=" ">
<path fill="none" stroke="#63b8ff" d="M746.65,-113.83C715.62,-104.96 662.34,-89.74 624.97,-79.06"/>
<polygon fill="#63b8ff" stroke="#63b8ff" points="625.96,-75.71 615.38,-76.32 624.04,-82.44 625.96,-75.71"/>
</a>
</g>
</g>
<!-- Node2&#45;&gt;Node23 -->
<g id="edge24_Node000002_Node000023" class="edge">
<title>Node2&#45;&gt;Node23</title>
<g id="a_edge24_Node000002_Node000023"><a xlink:title=" ">
<path fill="none" stroke="#63b8ff" d="M797.09,-120.25C910.32,-116.8 1371.33,-101.56 1538.09,-76.04"/>
<polygon fill="#63b8ff" stroke="#63b8ff" points="1538.3,-79.55 1547.62,-74.5 1537.19,-72.64 1538.3,-79.55"/>
</a>
</g>
</g>
<!-- Node22&#45;&gt;Node8 -->
<g id="edge23_Node000022_Node000008" class="edge">
<title>Node22&#45;&gt;Node8</title>
<g id="a_edge23_Node000022_Node000008"><a xlink:title=" ">
<path fill="none" stroke="#63b8ff" d="M567.42,-55.59C554.25,-47.51 535.02,-35.71 519.64,-26.27"/>
<polygon fill="#63b8ff" stroke="#63b8ff" points="521.84,-23.52 511.49,-21.27 518.18,-29.48 521.84,-23.52"/>
</a>
</g>
</g>
<!-- Node22&#45;&gt;Node12 -->
<g id="edge22_Node000022_Node000012" class="edge">
<title>Node22&#45;&gt;Node12</title>
<g id="a_edge22_Node000022_Node000012"><a xlink:title=" ">
<path fill="none" stroke="#63b8ff" d="M597.9,-55.59C610.8,-47.59 629.58,-35.93 644.71,-26.54"/>
<polygon fill="#63b8ff" stroke="#63b8ff" points="646.54,-29.53 653.19,-21.28 642.85,-23.58 646.54,-29.53"/>
</a>
</g>
</g>
<!-- Node24 -->
<g id="Node000024" class="node">
<title>Node24</title>
<g id="a_Node000024"><a xlink:href="../../d5/d9e/ogl__shading_8h.html" target="_top" xlink:title="Variable declarations related to GLSL programs &#160;&#160;Data structure declarations related to GLSL programs...">
<polygon fill="white" stroke="#666666" points="1610.75,-20 1534.75,-20 1534.75,0 1610.75,0 1610.75,-20"/>
<text text-anchor="middle" x="1572.75" y="-6.5" font-family="Helvetica,sans-Serif" font-size="10.00">ogl_shading.h</text>
</a>
</g>
</g>
<!-- Node23&#45;&gt;Node24 -->
<g id="edge25_Node000023_Node000024" class="edge">
<title>Node23&#45;&gt;Node24</title>
<g id="a_edge25_Node000023_Node000024"><a xlink:title=" ">
<path fill="none" stroke="#63b8ff" d="M1572.75,-55.59C1572.75,-49.01 1572.75,-39.96 1572.75,-31.73"/>
<polygon fill="#63b8ff" stroke="#63b8ff" points="1576.25,-31.81 1572.75,-21.81 1569.25,-31.81 1576.25,-31.81"/>
</a>
</g>
</g>
</g>
</svg>

<g id="navigator" transform="translate(0 0)" fill="#404254">
  <rect fill="#f2f5e9" fill-opacity="0.5" stroke="#606060" stroke-width=".5" x="0" y="0" width="60" height="60"/>
  <use id="zoomplus" xlink:href="#zoomPlus" x="17" y="9" onmousedown="handleZoom(evt,'in')"/>
  <use id="zoomminus" xlink:href="#zoomMin" x="42" y="9" onmousedown="handleZoom(evt,'out')"/>
  <use id="reset" xlink:href="#resetDef" x="30" y="36" onmousedown="handleReset()"/>
   <use id="arrowup" xlink:href="#arrowUp" x="0" y="0" onmousedown="handlePan(0,-1)"/>
  <use id="arrowright" xlink:href="#arrowRight" x="0" y="0" onmousedown="handlePan(1,0)"/>
  <use id="arrowdown" xlink:href="#arrowDown" x="0" y="0" onmousedown="handlePan(0,1)"/>
  <use id="arrowleft" xlink:href="#arrowLeft" x="0" y="0" onmousedown="handlePan(-1,0)"/>
</g>
<svg viewBox="0 0 15 15" width="100%" height="30px" preserveAspectRatio="xMaxYMin meet">
 <g id="arrow_out" transform="scale(0.3 0.3)">
  <a xlink:href="save__opengl_8c__incl_org.svg" target="_base">
   <rect id="button" ry="5" rx="5" y="6" x="6" height="38" width="38"
        fill="#f2f5e9" fill-opacity="0.5" stroke="#606060" stroke-width="1.0"/>
   <path id="arrow"
     d="M 11.500037,31.436501 C 11.940474,20.09759 22.043105,11.32322 32.158766,21.979434 L 37.068811,17.246167 C 37.068811,17.246167 37.088388,32 37.088388,32 L 22.160133,31.978069 C 22.160133,31.978069 26.997745,27.140456 26.997745,27.140456 C 18.528582,18.264221 13.291696,25.230495 11.500037,31.436501 z"
     style="fill:#404040;"/>
  </a>
 </g>
</svg>

<style type='text/css'>
<![CDATA[
[data-mouse-over-selected='false'] { opacity: 0.7; }
[data-mouse-over-selected='true']  { opacity: 1.0; }
]]>
</style>
<script type="application/ecmascript"><![CDATA[
document.addEventListener('DOMContentLoaded', (event) => {
  highlightEdges();
  highlightAdjacentNodes();
});
]]></script>
</svg>
