<?xml version="1.0" encoding="UTF-8" standalone="no"?>
<!DOCTYPE svg PUBLIC "-//W3C//DTD SVG 1.1//EN"
 "http://www.w3.org/Graphics/SVG/1.1/DTD/svg11.dtd">
<!-- Generated by graphviz version 7.1.0 (0)
 -->
<!-- Title: opengl/glwin.h Pages: 1 -->
<svg width="5789pt" height="214pt"
 viewBox="0.00 0.00 5788.50 214.00" xmlns="http://www.w3.org/2000/svg" xmlns:xlink="http://www.w3.org/1999/xlink">
<g id="graph0" class="graph" transform="scale(1 1) rotate(0) translate(4 210)">
<title>opengl/glwin.h</title>
<!-- Node1 -->
<g id="node1" class="node">
<title>Node1</title>
<g id="a_node1"><a xlink:title="Variable declarations related the OpenGL window &#160;&#160;Data structure declarations related the OpenGL wind...">
<polygon fill="#999999" stroke="#666666" points="3010,-206 2931,-206 2931,-187 3010,-187 3010,-206"/>
<text text-anchor="middle" x="2970.5" y="-194" font-family="Helvetica,sans-Serif" font-size="10.00">opengl/glwin.h</text>
</a>
</g>
</g>
<!-- Node2 -->
<g id="node2" class="node">
<title>Node2</title>
<g id="a_node2"><a xlink:href="../../d2/d49/global_8h.html" target="_top" xlink:title="Global variable declarations &#160;&#160;Global convenience function declarations &#160;&#160;Global data structure defin...">
<polygon fill="#fff0f0" stroke="red" points="2969.5,-151 2919.5,-151 2919.5,-132 2969.5,-132 2969.5,-151"/>
<text text-anchor="middle" x="2944.5" y="-139" font-family="Helvetica,sans-Serif" font-size="10.00">global.h</text>
</a>
</g>
</g>
<!-- Node1&#45;&gt;Node2 -->
<g id="edge1" class="edge">
<title>Node1&#45;&gt;Node2</title>
<path fill="none" stroke="#63b8ff" d="M2961.18,-176.5C2956.99,-167.96 2952.24,-158.28 2948.89,-151.44"/>
<polygon fill="#63b8ff" stroke="#63b8ff" points="2957.99,-177.95 2965.54,-185.39 2964.28,-174.87 2957.99,-177.95"/>
</g>
<!-- Node206 -->
<g id="node50" class="node">
<title>Node206</title>
<g id="a_node50"><a xlink:href="../../d2/d45/save__opengl_8c.html" target="_top" xlink:title="Functions to save OpenGL information in the atomes project file format.">
<polygon fill="white" stroke="#666666" points="5780.5,-90.5 5668.5,-90.5 5668.5,-71.5 5780.5,-71.5 5780.5,-90.5"/>
<text text-anchor="middle" x="5724.5" y="-78.5" font-family="Helvetica,sans-Serif" font-size="10.00">project/save_opengl.c</text>
</a>
</g>
</g>
<!-- Node1&#45;&gt;Node206 -->
<g id="edge60" class="edge">
<title>Node1&#45;&gt;Node206</title>
<path fill="none" stroke="#63b8ff" d="M3021.72,-194.83C3346.34,-190.4 5121.2,-163.4 5659.5,-96 5668.89,-94.82 5678.94,-92.96 5688.25,-90.98"/>
<polygon fill="#63b8ff" stroke="#63b8ff" points="3021.82,-191.33 3011.87,-194.96 3021.91,-198.33 3021.82,-191.33"/>
</g>
<!-- Node3 -->
<g id="node3" class="node">
<title>Node3</title>
<g id="a_node3"><a xlink:href="../../d1/dcc/calc_8c.html" target="_top" xlink:title="Callbacks used in by the molecular dynamics calculation assistants &#160;&#160;Atom selection structure manipul...">
<polygon fill="white" stroke="#666666" points="5380.5,-90.5 5316.5,-90.5 5316.5,-71.5 5380.5,-71.5 5380.5,-90.5"/>
<text text-anchor="middle" x="5348.5" y="-78.5" font-family="Helvetica,sans-Serif" font-size="10.00">calc/calc.c</text>
</a>
</g>
</g>
<!-- Node2&#45;&gt;Node3 -->
<g id="edge2" class="edge">
<title>Node2&#45;&gt;Node3</title>
<path fill="none" stroke="#63b8ff" d="M2981.11,-140.42C3261.49,-139.73 5063.92,-133.81 5302.5,-96 5309.43,-94.9 5316.76,-93.02 5323.49,-90.98"/>
<polygon fill="#63b8ff" stroke="#63b8ff" points="2981.49,-136.92 2971.49,-140.44 2981.5,-143.92 2981.49,-136.92"/>
</g>
<!-- Node4 -->
<g id="node4" class="node">
<title>Node4</title>
<g id="a_node4"><a xlink:href="../../db/d9f/cp2k__basis_8c.html" target="_top" xlink:title="CP2K basis set, as delivered with CP2K v9.1.">
<polygon fill="white" stroke="#666666" points="5518,-90.5 5399,-90.5 5399,-71.5 5518,-71.5 5518,-90.5"/>
<text text-anchor="middle" x="5458.5" y="-78.5" font-family="Helvetica,sans-Serif" font-size="10.00">calc/cp2k/cp2k_basis.c</text>
</a>
</g>
</g>
<!-- Node2&#45;&gt;Node4 -->
<g id="edge3" class="edge">
<title>Node2&#45;&gt;Node4</title>
<path fill="none" stroke="#63b8ff" d="M2981.08,-140.24C3267.08,-138.13 5140.13,-123.34 5389.5,-96 5399.71,-94.88 5410.64,-92.99 5420.73,-90.95"/>
<polygon fill="#63b8ff" stroke="#63b8ff" points="2981.23,-136.74 2971.26,-140.31 2981.29,-143.74 2981.23,-136.74"/>
</g>
<!-- Node5 -->
<g id="node5" class="node">
<title>Node5</title>
<g id="a_node5"><a xlink:href="../../d0/da4/cp2k__files_8c.html" target="_top" xlink:title="Functions to handle CP2K basis sets and pseudopotentials.">
<polygon fill="white" stroke="#666666" points="5650.5,-90.5 5536.5,-90.5 5536.5,-71.5 5650.5,-71.5 5650.5,-90.5"/>
<text text-anchor="middle" x="5593.5" y="-78.5" font-family="Helvetica,sans-Serif" font-size="10.00">calc/cp2k/cp2k_files.c</text>
</a>
</g>
</g>
<!-- Node2&#45;&gt;Node5 -->
<g id="edge4" class="edge">
<title>Node2&#45;&gt;Node5</title>
<path fill="none" stroke="#63b8ff" d="M2981.28,-140.29C3277.01,-138.51 5262.69,-125.57 5526.5,-96 5536.42,-94.89 5547.04,-93 5556.84,-90.96"/>
<polygon fill="#63b8ff" stroke="#63b8ff" points="2981.46,-136.79 2971.48,-140.34 2981.5,-143.79 2981.46,-136.79"/>
</g>
<!-- Node6 -->
<g id="node6" class="node">
<title>Node6</title>
<g id="a_node6"><a xlink:href="../../d5/d98/cp2k__gth-basis_8c.html" target="_top" xlink:title="CP2K GTH basis set, as delivered with CP2K v9.1.">
<polygon fill="white" stroke="#666666" points="101,-96 0,-96 0,-66 101,-66 101,-96"/>
<text text-anchor="start" x="8" y="-84" font-family="Helvetica,sans-Serif" font-size="10.00">calc/cp2k/cp2k_gth</text>
<text text-anchor="middle" x="50.5" y="-73" font-family="Helvetica,sans-Serif" font-size="10.00">&#45;basis.c</text>
</a>
</g>
</g>
<!-- Node2&#45;&gt;Node6 -->
<g id="edge5" class="edge">
<title>Node2&#45;&gt;Node6</title>
<path fill="none" stroke="#63b8ff" d="M2907.56,-140.41C2595.16,-139.55 399.76,-132.28 109.5,-96 106.78,-95.66 104.01,-95.25 101.22,-94.77"/>
<polygon fill="#63b8ff" stroke="#63b8ff" points="2907.54,-143.91 2917.55,-140.43 2907.56,-136.91 2907.54,-143.91"/>
</g>
<!-- Node7 -->
<g id="node7" class="node">
<title>Node7</title>
<g id="a_node7"><a xlink:href="../../de/d92/cp2k__init_8c.html" target="_top" xlink:title="Initialization of the CP2K input assistant.">
<polygon fill="white" stroke="#666666" points="228,-90.5 119,-90.5 119,-71.5 228,-71.5 228,-90.5"/>
<text text-anchor="middle" x="173.5" y="-78.5" font-family="Helvetica,sans-Serif" font-size="10.00">calc/cp2k/cp2k_init.c</text>
</a>
</g>
</g>
<!-- Node2&#45;&gt;Node7 -->
<g id="edge6" class="edge">
<title>Node2&#45;&gt;Node7</title>
<path fill="none" stroke="#63b8ff" d="M2907.82,-140.34C2604.45,-138.95 514.51,-128.25 237.5,-96 228.01,-94.9 217.86,-93.01 208.5,-90.97"/>
<polygon fill="#63b8ff" stroke="#63b8ff" points="2907.49,-143.84 2917.5,-140.38 2907.52,-136.84 2907.49,-143.84"/>
</g>
<!-- Node8 -->
<g id="node8" class="node">
<title>Node8</title>
<g id="a_node8"><a xlink:href="../../d5/d8d/cp2k__mol_8c.html" target="_top" xlink:title="Functions to fix fragment(s) when creating the CP2K input file.">
<polygon fill="white" stroke="#666666" points="358.5,-90.5 246.5,-90.5 246.5,-71.5 358.5,-71.5 358.5,-90.5"/>
<text text-anchor="middle" x="302.5" y="-78.5" font-family="Helvetica,sans-Serif" font-size="10.00">calc/cp2k/cp2k_mol.c</text>
</a>
</g>
</g>
<!-- Node2&#45;&gt;Node8 -->
<g id="edge7" class="edge">
<title>Node2&#45;&gt;Node8</title>
<path fill="none" stroke="#63b8ff" d="M2907.79,-140.3C2612.62,-138.63 630.7,-126.32 367.5,-96 357.87,-94.89 347.56,-93 338.05,-90.96"/>
<polygon fill="#63b8ff" stroke="#63b8ff" points="2907.55,-143.8 2917.56,-140.35 2907.58,-136.8 2907.55,-143.8"/>
</g>
<!-- Node9 -->
<g id="node9" class="node">
<title>Node9</title>
<g id="a_node9"><a xlink:href="../../da/d91/cp2k__molopt-basis_8c.html" target="_top" xlink:title="CP2K MOLOPT basis set, as distributed with CP2K 9.1.">
<polygon fill="white" stroke="#666666" points="494,-96 377,-96 377,-66 494,-66 494,-96"/>
<text text-anchor="start" x="385" y="-84" font-family="Helvetica,sans-Serif" font-size="10.00">calc/cp2k/cp2k_molopt</text>
<text text-anchor="middle" x="435.5" y="-73" font-family="Helvetica,sans-Serif" font-size="10.00">&#45;basis.c</text>
</a>
</g>
</g>
<!-- Node2&#45;&gt;Node9 -->
<g id="edge8" class="edge">
<title>Node2&#45;&gt;Node9</title>
<path fill="none" stroke="#63b8ff" d="M2907.98,-140.24C2622.44,-138.18 752.42,-123.65 503.5,-96 500.51,-95.67 497.45,-95.27 494.37,-94.81"/>
<polygon fill="#63b8ff" stroke="#63b8ff" points="2907.76,-143.74 2917.78,-140.31 2907.81,-136.74 2907.76,-143.74"/>
</g>
<!-- Node10 -->
<g id="node10" class="node">
<title>Node10</title>
<g id="a_node10"><a xlink:href="../../d3/dcb/cp2k__pot_8c.html" target="_top" xlink:title="CP2K potentials, as distributed with CP2K v9.1.">
<polygon fill="white" stroke="#666666" points="622.5,-90.5 512.5,-90.5 512.5,-71.5 622.5,-71.5 622.5,-90.5"/>
<text text-anchor="middle" x="567.5" y="-78.5" font-family="Helvetica,sans-Serif" font-size="10.00">calc/cp2k/cp2k_pot.c</text>
</a>
</g>
</g>
<!-- Node2&#45;&gt;Node10 -->
<g id="edge9" class="edge">
<title>Node2&#45;&gt;Node10</title>
<path fill="none" stroke="#63b8ff" d="M2907.77,-140.23C2630.17,-138.12 866.58,-123.7 631.5,-96 622.01,-94.88 611.86,-92.99 602.5,-90.95"/>
<polygon fill="#63b8ff" stroke="#63b8ff" points="2907.61,-143.73 2917.64,-140.3 2907.67,-136.73 2907.61,-143.73"/>
</g>
<!-- Node11 -->
<g id="node11" class="node">
<title>Node11</title>
<g id="a_node11"><a xlink:href="../../dc/d4a/cp2k__print_8c.html" target="_top" xlink:title="Functions to print the CP2K input file(s)">
<polygon fill="white" stroke="#666666" points="756,-90.5 641,-90.5 641,-71.5 756,-71.5 756,-90.5"/>
<text text-anchor="middle" x="698.5" y="-78.5" font-family="Helvetica,sans-Serif" font-size="10.00">calc/cp2k/cp2k_print.c</text>
</a>
</g>
</g>
<!-- Node2&#45;&gt;Node11 -->
<g id="edge10" class="edge">
<title>Node2&#45;&gt;Node11</title>
<path fill="none" stroke="#63b8ff" d="M2908.07,-140.7C2659,-141.9 1204.11,-146.65 764.5,-96 754.73,-94.87 744.26,-92.98 734.61,-90.94"/>
<polygon fill="#63b8ff" stroke="#63b8ff" points="2907.83,-144.2 2917.81,-140.65 2907.79,-137.2 2907.83,-144.2"/>
</g>
<!-- Node12 -->
<g id="node12" class="node">
<title>Node12</title>
<g id="a_node12"><a xlink:href="../../d6/d03/cpmd__atoms_8c.html" target="_top" xlink:title="Functions to handle dummy atom(s) for the CPMD input file.">
<polygon fill="white" stroke="#666666" points="903,-90.5 774,-90.5 774,-71.5 903,-71.5 903,-90.5"/>
<text text-anchor="middle" x="838.5" y="-78.5" font-family="Helvetica,sans-Serif" font-size="10.00">calc/cpmd/cpmd_atoms.c</text>
</a>
</g>
</g>
<!-- Node2&#45;&gt;Node12 -->
<g id="edge11" class="edge">
<title>Node2&#45;&gt;Node12</title>
<path fill="none" stroke="#63b8ff" d="M2907.95,-140.54C2668.43,-140.66 1320.39,-139.37 911.5,-96 900.85,-94.87 889.43,-93 878.86,-90.99"/>
<polygon fill="#63b8ff" stroke="#63b8ff" points="2907.61,-144.04 2917.6,-140.53 2907.6,-137.04 2907.61,-144.04"/>
</g>
<!-- Node13 -->
<g id="node13" class="node">
<title>Node13</title>
<g id="a_node13"><a xlink:href="../../dd/dc0/cpmd__init_8c.html" target="_top" xlink:title="Functions to initialize the QM / QM&#45;MM input file creation assistant.">
<polygon fill="white" stroke="#666666" points="1036,-90.5 921,-90.5 921,-71.5 1036,-71.5 1036,-90.5"/>
<text text-anchor="middle" x="978.5" y="-78.5" font-family="Helvetica,sans-Serif" font-size="10.00">calc/cpmd/cpmd_init.c</text>
</a>
</g>
</g>
<!-- Node2&#45;&gt;Node13 -->
<g id="edge12" class="edge">
<title>Node2&#45;&gt;Node13</title>
<path fill="none" stroke="#63b8ff" d="M2907.85,-140.57C2677.28,-140.87 1424.82,-140.4 1044.5,-96 1034.84,-94.87 1024.51,-93 1014.96,-90.99"/>
<polygon fill="#63b8ff" stroke="#63b8ff" points="2907.72,-144.07 2917.72,-140.56 2907.71,-137.07 2907.72,-144.07"/>
</g>
<!-- Node14 -->
<g id="node14" class="node">
<title>Node14</title>
<g id="a_node14"><a xlink:href="../../d6/dc0/cpmd__nose_8c.html" target="_top" xlink:title="Functions to prepare the thermostat(s) configuration widgets for QM / QM&#45;MM input files.">
<polygon fill="white" stroke="#666666" points="1177,-90.5 1054,-90.5 1054,-71.5 1177,-71.5 1177,-90.5"/>
<text text-anchor="middle" x="1115.5" y="-78.5" font-family="Helvetica,sans-Serif" font-size="10.00">calc/cpmd/cpmd_nose.c</text>
</a>
</g>
</g>
<!-- Node2&#45;&gt;Node14 -->
<g id="edge13" class="edge">
<title>Node2&#45;&gt;Node14</title>
<path fill="none" stroke="#63b8ff" d="M2907.83,-140.43C2687.43,-139.9 1536.33,-135.23 1185.5,-96 1175.28,-94.86 1164.32,-92.98 1154.19,-90.97"/>
<polygon fill="#63b8ff" stroke="#63b8ff" points="2907.52,-143.93 2917.53,-140.45 2907.54,-136.93 2907.52,-143.93"/>
</g>
<!-- Node15 -->
<g id="node15" class="node">
<title>Node15</title>
<g id="a_node15"><a xlink:href="../../d1/dcc/cpmd__print_8c.html" target="_top" xlink:title="Functions to print the CPMD input file(s)">
<polygon fill="white" stroke="#666666" points="1316,-90.5 1195,-90.5 1195,-71.5 1316,-71.5 1316,-90.5"/>
<text text-anchor="middle" x="1255.5" y="-78.5" font-family="Helvetica,sans-Serif" font-size="10.00">calc/cpmd/cpmd_print.c</text>
</a>
</g>
</g>
<!-- Node2&#45;&gt;Node15 -->
<g id="edge14" class="edge">
<title>Node2&#45;&gt;Node15</title>
<path fill="none" stroke="#63b8ff" d="M2907.83,-140.34C2697.92,-139.29 1646.87,-132.29 1325.5,-96 1315.28,-94.85 1304.33,-92.97 1294.19,-90.96"/>
<polygon fill="#63b8ff" stroke="#63b8ff" points="2907.56,-143.84 2917.58,-140.39 2907.6,-136.84 2907.56,-143.84"/>
</g>
<!-- Node16 -->
<g id="node16" class="node">
<title>Node16</title>
<g id="a_node16"><a xlink:href="../../db/d6f/cpmd__restart_8c.html" target="_top" xlink:title="Functions to configure the restart section for the CPMD input file creation assistant.">
<polygon fill="white" stroke="#666666" points="1464.5,-90.5 1334.5,-90.5 1334.5,-71.5 1464.5,-71.5 1464.5,-90.5"/>
<text text-anchor="middle" x="1399.5" y="-78.5" font-family="Helvetica,sans-Serif" font-size="10.00">calc/cpmd/cpmd_restart.c</text>
</a>
</g>
</g>
<!-- Node2&#45;&gt;Node16 -->
<g id="edge15" class="edge">
<title>Node2&#45;&gt;Node16</title>
<path fill="none" stroke="#63b8ff" d="M2907.63,-140.11C2709.36,-137.88 1767.99,-125.89 1478.5,-96 1467.14,-94.83 1454.95,-92.97 1443.63,-90.99"/>
<polygon fill="#63b8ff" stroke="#63b8ff" points="2907.55,-143.61 2917.58,-140.22 2907.62,-136.61 2907.55,-143.61"/>
</g>
<!-- Node17 -->
<g id="node17" class="node">
<title>Node17</title>
<g id="a_node17"><a xlink:href="../../d8/ded/dlp__comp_8c.html" target="_top" xlink:title="Functions to compare and adjust field body parameters.">
<polygon fill="white" stroke="#666666" points="1430.5,-24.5 1308.5,-24.5 1308.5,-5.5 1430.5,-5.5 1430.5,-24.5"/>
<text text-anchor="middle" x="1369.5" y="-12.5" font-family="Helvetica,sans-Serif" font-size="10.00">calc/dl_poly/dlp_comp.c</text>
</a>
</g>
</g>
<!-- Node2&#45;&gt;Node17 -->
<g id="edge16" class="edge">
<title>Node2&#45;&gt;Node17</title>
<path fill="none" stroke="#63b8ff" d="M2908.05,-140.52C2698.96,-140.45 1656.48,-138.01 1520.5,-96 1496.82,-88.68 1495.15,-78.06 1473.5,-66 1445.15,-50.21 1411.03,-34.38 1389.8,-24.89"/>
<polygon fill="#63b8ff" stroke="#63b8ff" points="2907.76,-144.02 2917.76,-140.52 2907.76,-137.02 2907.76,-144.02"/>
</g>
<!-- Node18 -->
<g id="node18" class="node">
<title>Node18</title>
<g id="a_node18"><a xlink:href="../../da/d88/dlp__copy_8c.html" target="_top" xlink:title="Functions to copy force field and related data structures.">
<polygon fill="white" stroke="#666666" points="1566.5,-24.5 1448.5,-24.5 1448.5,-5.5 1566.5,-5.5 1566.5,-24.5"/>
<text text-anchor="middle" x="1507.5" y="-12.5" font-family="Helvetica,sans-Serif" font-size="10.00">calc/dl_poly/dlp_copy.c</text>
</a>
</g>
</g>
<!-- Node2&#45;&gt;Node18 -->
<g id="edge17" class="edge">
<title>Node2&#45;&gt;Node18</title>
<path fill="none" stroke="#63b8ff" d="M2907.89,-140.37C2693.53,-139.47 1608.7,-133.09 1549.5,-96 1523.71,-79.84 1512.89,-42.23 1509.16,-24.96"/>
<polygon fill="#63b8ff" stroke="#63b8ff" points="2907.57,-143.87 2917.58,-140.41 2907.6,-136.87 2907.57,-143.87"/>
</g>
<!-- Node19 -->
<g id="node19" class="node">
<title>Node19</title>
<g id="a_node19"><a xlink:href="../../d4/d28/dlp__edit_8c.html" target="_top" xlink:title="Functions to edit DL&#45;POLY force field parameters.">
<polygon fill="white" stroke="#666666" points="1698,-24.5 1585,-24.5 1585,-5.5 1698,-5.5 1698,-24.5"/>
<text text-anchor="middle" x="1641.5" y="-12.5" font-family="Helvetica,sans-Serif" font-size="10.00">calc/dl_poly/dlp_edit.c</text>
</a>
</g>
</g>
<!-- Node2&#45;&gt;Node19 -->
<g id="edge18" class="edge">
<title>Node2&#45;&gt;Node19</title>
<path fill="none" stroke="#63b8ff" d="M2907.76,-140.27C2720.47,-138.93 1876.55,-131 1765.5,-96 1717.85,-80.98 1670.85,-42.43 1651.15,-24.9"/>
<polygon fill="#63b8ff" stroke="#63b8ff" points="2907.59,-143.77 2917.62,-140.34 2907.64,-136.77 2907.59,-143.77"/>
</g>
<!-- Node20 -->
<g id="node20" class="node">
<title>Node20</title>
<g id="a_node20"><a xlink:href="../../dc/d79/dlp__ff__match_8c.html" target="_top" xlink:title="Functions the list the available database parameters for the atom database window.">
<polygon fill="white" stroke="#666666" points="1811,-30 1716,-30 1716,0 1811,0 1811,-30"/>
<text text-anchor="start" x="1724" y="-18" font-family="Helvetica,sans-Serif" font-size="10.00">calc/dl_poly/dlp_ff</text>
<text text-anchor="middle" x="1763.5" y="-7" font-family="Helvetica,sans-Serif" font-size="10.00">_match.c</text>
</a>
</g>
</g>
<!-- Node2&#45;&gt;Node20 -->
<g id="edge19" class="edge">
<title>Node2&#45;&gt;Node20</title>
<path fill="none" stroke="#63b8ff" d="M2907.59,-140.28C2715.04,-138.97 1832.79,-131.07 1787.5,-96 1767.44,-80.46 1763.59,-48.78 1763.16,-30.29"/>
<polygon fill="#63b8ff" stroke="#63b8ff" points="2907.48,-143.78 2917.5,-140.34 2907.53,-136.78 2907.48,-143.78"/>
</g>
<!-- Node21 -->
<g id="node21" class="node">
<title>Node21</title>
<g id="a_node21"><a xlink:href="../../d8/da6/dlp__field_8h.html" target="_top" xlink:title="Variable declarations for the creation of the DL_POLY input file(s)">
<polygon fill="#fff0f0" stroke="red" points="1674.5,-90.5 1558.5,-90.5 1558.5,-71.5 1674.5,-71.5 1674.5,-90.5"/>
<text text-anchor="middle" x="1616.5" y="-78.5" font-family="Helvetica,sans-Serif" font-size="10.00">calc/dl_poly/dlp_field.h</text>
</a>
</g>
</g>
<!-- Node2&#45;&gt;Node21 -->
<g id="edge20" class="edge">
<title>Node2&#45;&gt;Node21</title>
<path fill="none" stroke="#63b8ff" d="M2907.61,-139.97C2726.89,-137.27 1933.79,-124.02 1688.5,-96 1678.13,-94.81 1667.01,-92.95 1656.69,-90.97"/>
<polygon fill="#63b8ff" stroke="#63b8ff" points="2907.52,-143.47 2917.57,-140.12 2907.62,-136.47 2907.52,-143.47"/>
</g>
<!-- Node30 -->
<g id="node22" class="node">
<title>Node30</title>
<g id="a_node22"><a xlink:href="../../d7/d30/force__fields_8c.html" target="_top" xlink:title="Functions to prepare the force field XML files from the sources in atomes &#160;&#160;Functions to read the for...">
<polygon fill="white" stroke="#666666" points="1942,-30 1829,-30 1829,0 1942,0 1942,-30"/>
<text text-anchor="start" x="1837" y="-18" font-family="Helvetica,sans-Serif" font-size="10.00">calc/force_fields/force</text>
<text text-anchor="middle" x="1885.5" y="-7" font-family="Helvetica,sans-Serif" font-size="10.00">_fields.c</text>
</a>
</g>
</g>
<!-- Node2&#45;&gt;Node30 -->
<g id="edge44" class="edge">
<title>Node2&#45;&gt;Node30</title>
<path fill="none" stroke="#63b8ff" d="M2907.71,-140.49C2715.82,-140.25 1836.87,-136.93 1797.5,-96 1774.17,-71.75 1816.22,-45.94 1849.86,-30.4"/>
<polygon fill="#63b8ff" stroke="#63b8ff" points="2907.58,-143.99 2917.58,-140.5 2907.59,-136.99 2907.58,-143.99"/>
</g>
<!-- Node42 -->
<g id="node23" class="node">
<title>Node42</title>
<g id="a_node23"><a xlink:href="../../d4/ddc/amber94_8c.html" target="_top" xlink:title="Amber&#45;94 force field, from &#39;parm94&#39;.">
<polygon fill="white" stroke="#666666" points="1944,-90.5 1807,-90.5 1807,-71.5 1944,-71.5 1944,-90.5"/>
<text text-anchor="middle" x="1875.5" y="-78.5" font-family="Helvetica,sans-Serif" font-size="10.00">calc/force_fields/amber94.c</text>
</a>
</g>
</g>
<!-- Node2&#45;&gt;Node42 -->
<g id="edge26" class="edge">
<title>Node2&#45;&gt;Node42</title>
<path fill="none" stroke="#63b8ff" d="M2907.85,-140.64C2777.42,-140.75 2323.78,-137.89 1952.5,-96 1941.56,-94.77 1929.84,-92.91 1918.92,-90.95"/>
<polygon fill="#63b8ff" stroke="#63b8ff" points="2907.6,-144.14 2917.59,-140.62 2907.59,-137.14 2907.6,-144.14"/>
</g>
<!-- Node43 -->
<g id="node24" class="node">
<title>Node43</title>
<g id="a_node24"><a xlink:href="../../dd/d7e/amber96_8c.html" target="_top" xlink:title="Amber&#45;96 force field, from &#39;parm96&#39;.">
<polygon fill="white" stroke="#666666" points="2099,-90.5 1962,-90.5 1962,-71.5 2099,-71.5 2099,-90.5"/>
<text text-anchor="middle" x="2030.5" y="-78.5" font-family="Helvetica,sans-Serif" font-size="10.00">calc/force_fields/amber96.c</text>
</a>
</g>
</g>
<!-- Node2&#45;&gt;Node43 -->
<g id="edge27" class="edge">
<title>Node2&#45;&gt;Node43</title>
<path fill="none" stroke="#63b8ff" d="M2907.59,-140.2C2790.23,-138.91 2415.3,-132.02 2107.5,-96 2096.7,-94.74 2085.14,-92.9 2074.33,-90.96"/>
<polygon fill="#63b8ff" stroke="#63b8ff" points="2907.51,-143.7 2917.55,-140.31 2907.59,-136.7 2907.51,-143.7"/>
</g>
<!-- Node44 -->
<g id="node25" class="node">
<title>Node44</title>
<g id="a_node25"><a xlink:href="../../d5/d08/amber98_8c.html" target="_top" xlink:title="Amber&#45;98 force field, from &#39;parm98&#39;.">
<polygon fill="white" stroke="#666666" points="2254,-90.5 2117,-90.5 2117,-71.5 2254,-71.5 2254,-90.5"/>
<text text-anchor="middle" x="2185.5" y="-78.5" font-family="Helvetica,sans-Serif" font-size="10.00">calc/force_fields/amber98.c</text>
</a>
</g>
</g>
<!-- Node2&#45;&gt;Node44 -->
<g id="edge28" class="edge">
<title>Node2&#45;&gt;Node44</title>
<path fill="none" stroke="#63b8ff" d="M2907.77,-139.58C2805.31,-136.71 2507.75,-126.2 2262.5,-96 2251.85,-94.69 2240.44,-92.85 2229.75,-90.94"/>
<polygon fill="#63b8ff" stroke="#63b8ff" points="2907.41,-143.08 2917.5,-139.85 2907.6,-136.08 2907.41,-143.08"/>
</g>
<!-- Node45 -->
<g id="node26" class="node">
<title>Node45</title>
<g id="a_node26"><a xlink:href="../../df/dad/amber99_8c.html" target="_top" xlink:title="Amber&#45;99 force field, from &#39;parm99&#39;.">
<polygon fill="white" stroke="#666666" points="2409,-90.5 2272,-90.5 2272,-71.5 2409,-71.5 2409,-90.5"/>
<text text-anchor="middle" x="2340.5" y="-78.5" font-family="Helvetica,sans-Serif" font-size="10.00">calc/force_fields/amber99.c</text>
</a>
</g>
</g>
<!-- Node2&#45;&gt;Node45 -->
<g id="edge29" class="edge">
<title>Node2&#45;&gt;Node45</title>
<path fill="none" stroke="#63b8ff" d="M2907.79,-138.57C2821.93,-133.82 2601.42,-120.1 2418.5,-96 2408,-94.62 2396.76,-92.8 2386.17,-90.93"/>
<polygon fill="#63b8ff" stroke="#63b8ff" points="2907.54,-142.07 2917.72,-139.12 2907.92,-135.08 2907.54,-142.07"/>
</g>
<!-- Node46 -->
<g id="node27" class="node">
<title>Node46</title>
<g id="a_node27"><a xlink:href="../../d9/de7/cff91_8c.html" target="_top" xlink:title="CFF91 force field, from &#39;CFF91.frc&#39;.">
<polygon fill="white" stroke="#666666" points="2547.5,-90.5 2427.5,-90.5 2427.5,-71.5 2547.5,-71.5 2547.5,-90.5"/>
<text text-anchor="middle" x="2487.5" y="-78.5" font-family="Helvetica,sans-Serif" font-size="10.00">calc/force_fields/cff91.c</text>
</a>
</g>
</g>
<!-- Node2&#45;&gt;Node46 -->
<g id="edge30" class="edge">
<title>Node2&#45;&gt;Node46</title>
<path fill="none" stroke="#63b8ff" d="M2908.38,-137.4C2839.63,-131.28 2685.32,-116.42 2556.5,-96 2547.45,-94.56 2537.77,-92.77 2528.62,-90.95"/>
<polygon fill="#63b8ff" stroke="#63b8ff" points="2907.66,-140.85 2917.93,-138.25 2908.27,-133.88 2907.66,-140.85"/>
</g>
<!-- Node47 -->
<g id="node28" class="node">
<title>Node47</title>
<g id="a_node28"><a xlink:href="../../d2/d6d/charmm22__prot_8c.html" target="_top" xlink:title="CHARMM&#45;charmm22_prot force field, from &#39;charmm22_prot&#39;.">
<polygon fill="white" stroke="#666666" points="2703,-96 2566,-96 2566,-66 2703,-66 2703,-96"/>
<text text-anchor="start" x="2574" y="-84" font-family="Helvetica,sans-Serif" font-size="10.00">calc/force_fields/charmm22</text>
<text text-anchor="middle" x="2634.5" y="-73" font-family="Helvetica,sans-Serif" font-size="10.00">_prot.c</text>
</a>
</g>
</g>
<!-- Node2&#45;&gt;Node47 -->
<g id="edge31" class="edge">
<title>Node2&#45;&gt;Node47</title>
<path fill="none" stroke="#63b8ff" d="M2907.89,-133.59C2857.71,-124.12 2766.62,-106.93 2703.44,-95.01"/>
<polygon fill="#63b8ff" stroke="#63b8ff" points="2907.17,-137.02 2917.64,-135.43 2908.47,-130.14 2907.17,-137.02"/>
</g>
<!-- Node48 -->
<g id="node29" class="node">
<title>Node48</title>
<g id="a_node29"><a xlink:href="../../de/d55/charmm22__prot__metals_8c.html" target="_top" xlink:title=" ">
<polygon fill="white" stroke="#666666" points="2858,-96 2721,-96 2721,-66 2858,-66 2858,-96"/>
<text text-anchor="start" x="2729" y="-84" font-family="Helvetica,sans-Serif" font-size="10.00">calc/force_fields/charmm22</text>
<text text-anchor="middle" x="2789.5" y="-73" font-family="Helvetica,sans-Serif" font-size="10.00">_prot_metals.c</text>
</a>
</g>
</g>
<!-- Node2&#45;&gt;Node48 -->
<g id="edge32" class="edge">
<title>Node2&#45;&gt;Node48</title>
<path fill="none" stroke="#63b8ff" d="M2910.39,-127.63C2885.97,-118.41 2853.07,-105.99 2827.76,-96.44"/>
<polygon fill="#63b8ff" stroke="#63b8ff" points="2908.95,-130.82 2919.54,-131.08 2911.42,-124.27 2908.95,-130.82"/>
</g>
<!-- Node49 -->
<g id="node30" class="node">
<title>Node49</title>
<g id="a_node30"><a xlink:href="../../d7/d39/charmm35__ethers_8c.html" target="_top" xlink:title="CHARMM&#45;charmm35_ethers force field, from &#39;charmm35_ethers&#39;.">
<polygon fill="white" stroke="#666666" points="3013,-96 2876,-96 2876,-66 3013,-66 3013,-96"/>
<text text-anchor="start" x="2884" y="-84" font-family="Helvetica,sans-Serif" font-size="10.00">calc/force_fields/charmm35</text>
<text text-anchor="middle" x="2944.5" y="-73" font-family="Helvetica,sans-Serif" font-size="10.00">_ethers.c</text>
</a>
</g>
</g>
<!-- Node2&#45;&gt;Node49 -->
<g id="edge33" class="edge">
<title>Node2&#45;&gt;Node49</title>
<path fill="none" stroke="#63b8ff" d="M2944.5,-120.51C2944.5,-112.49 2944.5,-103.43 2944.5,-96.11"/>
<polygon fill="#63b8ff" stroke="#63b8ff" points="2941,-120.35 2944.5,-130.35 2948,-120.35 2941,-120.35"/>
</g>
<!-- Node50 -->
<g id="node31" class="node">
<title>Node50</title>
<g id="a_node31"><a xlink:href="../../de/db7/charmm36__carb_8c.html" target="_top" xlink:title="CHARMM&#45;charmm36_carb force field, from &#39;charmm36_carb&#39;.">
<polygon fill="white" stroke="#666666" points="3168,-96 3031,-96 3031,-66 3168,-66 3168,-96"/>
<text text-anchor="start" x="3039" y="-84" font-family="Helvetica,sans-Serif" font-size="10.00">calc/force_fields/charmm36</text>
<text text-anchor="middle" x="3099.5" y="-73" font-family="Helvetica,sans-Serif" font-size="10.00">_carb.c</text>
</a>
</g>
</g>
<!-- Node2&#45;&gt;Node50 -->
<g id="edge34" class="edge">
<title>Node2&#45;&gt;Node50</title>
<path fill="none" stroke="#63b8ff" d="M2978.61,-127.63C3003.03,-118.41 3035.93,-105.99 3061.24,-96.44"/>
<polygon fill="#63b8ff" stroke="#63b8ff" points="2977.58,-124.27 2969.46,-131.08 2980.05,-130.82 2977.58,-124.27"/>
</g>
<!-- Node51 -->
<g id="node32" class="node">
<title>Node51</title>
<g id="a_node32"><a xlink:href="../../d1/d40/charmm36__cgenff_8c.html" target="_top" xlink:title="CHARMM&#45;charmm36_cgenff force field, from &#39;charmm36_cgenff&#39;.">
<polygon fill="white" stroke="#666666" points="3323,-96 3186,-96 3186,-66 3323,-66 3323,-96"/>
<text text-anchor="start" x="3194" y="-84" font-family="Helvetica,sans-Serif" font-size="10.00">calc/force_fields/charmm36</text>
<text text-anchor="middle" x="3254.5" y="-73" font-family="Helvetica,sans-Serif" font-size="10.00">_cgenff.c</text>
</a>
</g>
</g>
<!-- Node2&#45;&gt;Node51 -->
<g id="edge35" class="edge">
<title>Node2&#45;&gt;Node51</title>
<path fill="none" stroke="#63b8ff" d="M2981.11,-133.59C3031.29,-124.12 3122.38,-106.93 3185.56,-95.01"/>
<polygon fill="#63b8ff" stroke="#63b8ff" points="2980.53,-130.14 2971.36,-135.43 2981.83,-137.02 2980.53,-130.14"/>
</g>
<!-- Node52 -->
<g id="node33" class="node">
<title>Node52</title>
<g id="a_node33"><a xlink:href="../../d6/de8/charmm36__lipid_8c.html" target="_top" xlink:title="CHARMM&#45;charmm36_lipid force field, from &#39;charmm36_lipid&#39;.">
<polygon fill="white" stroke="#666666" points="3478,-96 3341,-96 3341,-66 3478,-66 3478,-96"/>
<text text-anchor="start" x="3349" y="-84" font-family="Helvetica,sans-Serif" font-size="10.00">calc/force_fields/charmm36</text>
<text text-anchor="middle" x="3409.5" y="-73" font-family="Helvetica,sans-Serif" font-size="10.00">_lipid.c</text>
</a>
</g>
</g>
<!-- Node2&#45;&gt;Node52 -->
<g id="edge36" class="edge">
<title>Node2&#45;&gt;Node52</title>
<path fill="none" stroke="#63b8ff" d="M2980.99,-137.08C3049.74,-130.46 3203.1,-114.89 3331.5,-96 3334.49,-95.56 3337.55,-95.09 3340.64,-94.6"/>
<polygon fill="#63b8ff" stroke="#63b8ff" points="2981.06,-133.56 2971.44,-137.99 2981.72,-140.53 2981.06,-133.56"/>
</g>
<!-- Node53 -->
<g id="node34" class="node">
<title>Node53</title>
<g id="a_node34"><a xlink:href="../../da/daa/charmm36__na_8c.html" target="_top" xlink:title="CHARMM&#45;charmm36_na force field, from &#39;charmm36_na&#39;.">
<polygon fill="white" stroke="#666666" points="3657,-90.5 3496,-90.5 3496,-71.5 3657,-71.5 3657,-90.5"/>
<text text-anchor="middle" x="3576.5" y="-78.5" font-family="Helvetica,sans-Serif" font-size="10.00">calc/force_fields/charmm36_na.c</text>
</a>
</g>
</g>
<!-- Node2&#45;&gt;Node53 -->
<g id="edge37" class="edge">
<title>Node2&#45;&gt;Node53</title>
<path fill="none" stroke="#63b8ff" d="M2981.4,-138.4C3069.14,-133.19 3297.11,-118.47 3486.5,-96 3498.43,-94.58 3511.21,-92.77 3523.29,-90.93"/>
<polygon fill="#63b8ff" stroke="#63b8ff" points="2981.25,-134.9 2971.47,-138.98 2981.66,-141.89 2981.25,-134.9"/>
</g>
<!-- Node54 -->
<g id="node35" class="node">
<title>Node54</title>
<g id="a_node35"><a xlink:href="../../d1/d8a/charmm36__prot_8c.html" target="_top" xlink:title="CHARMM&#45;charmm36_prot force field, from &#39;charmm36_prot&#39;.">
<polygon fill="white" stroke="#666666" points="3812,-96 3675,-96 3675,-66 3812,-66 3812,-96"/>
<text text-anchor="start" x="3683" y="-84" font-family="Helvetica,sans-Serif" font-size="10.00">calc/force_fields/charmm36</text>
<text text-anchor="middle" x="3743.5" y="-73" font-family="Helvetica,sans-Serif" font-size="10.00">_prot.c</text>
</a>
</g>
</g>
<!-- Node2&#45;&gt;Node54 -->
<g id="edge38" class="edge">
<title>Node2&#45;&gt;Node54</title>
<path fill="none" stroke="#63b8ff" d="M2981.14,-139.74C3087.36,-137.21 3404.43,-127.38 3665.5,-96 3668.51,-95.64 3671.57,-95.24 3674.66,-94.8"/>
<polygon fill="#63b8ff" stroke="#63b8ff" points="2981.25,-136.23 2971.33,-139.96 2981.41,-143.23 2981.25,-136.23"/>
</g>
<!-- Node55 -->
<g id="node36" class="node">
<title>Node55</title>
<g id="a_node36"><a xlink:href="../../d7/df9/charmm36__prot__metals_8c.html" target="_top" xlink:title="CHARMM&#45;charmm36m_prot force field, from &#39;charmm36m_prot&#39;.">
<polygon fill="white" stroke="#666666" points="3967,-96 3830,-96 3830,-66 3967,-66 3967,-96"/>
<text text-anchor="start" x="3838" y="-84" font-family="Helvetica,sans-Serif" font-size="10.00">calc/force_fields/charmm36</text>
<text text-anchor="middle" x="3898.5" y="-73" font-family="Helvetica,sans-Serif" font-size="10.00">_prot_metals.c</text>
</a>
</g>
</g>
<!-- Node2&#45;&gt;Node55 -->
<g id="edge39" class="edge">
<title>Node2&#45;&gt;Node55</title>
<path fill="none" stroke="#63b8ff" d="M2981.11,-140.3C3101.59,-139.29 3496.52,-133.15 3820.5,-96 3823.51,-95.66 3826.57,-95.27 3829.67,-94.84"/>
<polygon fill="#63b8ff" stroke="#63b8ff" points="2981.17,-136.8 2971.2,-140.38 2981.22,-143.8 2981.17,-136.8"/>
</g>
<!-- Node56 -->
<g id="node37" class="node">
<title>Node56</title>
<g id="a_node37"><a xlink:href="../../d3/deb/charmm__silicates_8c.html" target="_top" xlink:title="CHARMM&#45;charmm_silicates force field, from &#39;charmm_silicates&#39;.">
<polygon fill="white" stroke="#666666" points="4111.5,-96 3985.5,-96 3985.5,-66 4111.5,-66 4111.5,-96"/>
<text text-anchor="start" x="3993.5" y="-84" font-family="Helvetica,sans-Serif" font-size="10.00">calc/force_fields/charmm</text>
<text text-anchor="middle" x="4048.5" y="-73" font-family="Helvetica,sans-Serif" font-size="10.00">_silicates.c</text>
</a>
</g>
</g>
<!-- Node2&#45;&gt;Node56 -->
<g id="edge40" class="edge">
<title>Node2&#45;&gt;Node56</title>
<path fill="none" stroke="#63b8ff" d="M2980.85,-140.85C3114.09,-141.72 3588.14,-141.26 3975.5,-96 3978.7,-95.63 3981.98,-95.19 3985.28,-94.71"/>
<polygon fill="#63b8ff" stroke="#63b8ff" points="2981.27,-137.35 2971.24,-140.78 2981.22,-144.35 2981.27,-137.35"/>
</g>
<!-- Node57 -->
<g id="node38" class="node">
<title>Node57</title>
<g id="a_node38"><a xlink:href="../../d6/dfb/compass_8c.html" target="_top" xlink:title="Compass force field, from &#39;Compass.frc&#39;.">
<polygon fill="white" stroke="#666666" points="4269,-90.5 4130,-90.5 4130,-71.5 4269,-71.5 4269,-90.5"/>
<text text-anchor="middle" x="4199.5" y="-78.5" font-family="Helvetica,sans-Serif" font-size="10.00">calc/force_fields/compass.c</text>
</a>
</g>
</g>
<!-- Node2&#45;&gt;Node57 -->
<g id="edge41" class="edge">
<title>Node2&#45;&gt;Node57</title>
<path fill="none" stroke="#63b8ff" d="M2981.09,-140.94C3125.98,-142.32 3673.43,-143.84 4120.5,-96 4131.72,-94.8 4143.75,-92.96 4154.95,-91"/>
<polygon fill="#63b8ff" stroke="#63b8ff" points="2981.38,-137.45 2971.35,-140.84 2981.31,-144.45 2981.38,-137.45"/>
</g>
<!-- Node58 -->
<g id="node39" class="node">
<title>Node58</title>
<g id="a_node39"><a xlink:href="../../de/df0/cvff_8c.html" target="_top" xlink:title="CVFF force field, from &#39;CVFF.frc&#39;.">
<polygon fill="white" stroke="#666666" points="4402,-90.5 4287,-90.5 4287,-71.5 4402,-71.5 4402,-90.5"/>
<text text-anchor="middle" x="4344.5" y="-78.5" font-family="Helvetica,sans-Serif" font-size="10.00">calc/force_fields/cvff.c</text>
</a>
</g>
</g>
<!-- Node2&#45;&gt;Node58 -->
<g id="edge42" class="edge">
<title>Node2&#45;&gt;Node58</title>
<path fill="none" stroke="#63b8ff" d="M2981.25,-140.13C3168.34,-138.12 4016.27,-127.41 4277.5,-96 4287.17,-94.84 4297.53,-92.98 4307.13,-91"/>
<polygon fill="#63b8ff" stroke="#63b8ff" points="2981.37,-136.63 2971.41,-140.24 2981.45,-143.63 2981.37,-136.63"/>
</g>
<!-- Node59 -->
<g id="node40" class="node">
<title>Node59</title>
<g id="a_node40"><a xlink:href="../../d3/d21/cvff__aug_8c.html" target="_top" xlink:title="CVFF_aug force field, from &#39;CVFF_aug.frc&#39;.">
<polygon fill="white" stroke="#666666" points="4527,-96 4420,-96 4420,-66 4527,-66 4527,-96"/>
<text text-anchor="start" x="4428" y="-84" font-family="Helvetica,sans-Serif" font-size="10.00">calc/force_fields/cvff</text>
<text text-anchor="middle" x="4473.5" y="-73" font-family="Helvetica,sans-Serif" font-size="10.00">_aug.c</text>
</a>
</g>
</g>
<!-- Node2&#45;&gt;Node59 -->
<g id="edge43" class="edge">
<title>Node2&#45;&gt;Node59</title>
<path fill="none" stroke="#63b8ff" d="M2981.39,-140.32C3179.79,-139.22 4121.72,-132.14 4410.5,-96 4413.5,-95.62 4416.57,-95.17 4419.66,-94.66"/>
<polygon fill="#63b8ff" stroke="#63b8ff" points="2981.41,-136.82 2971.43,-140.38 2981.45,-143.82 2981.41,-136.82"/>
</g>
<!-- Node60 -->
<g id="node41" class="node">
<title>Node60</title>
<g id="a_node41"><a xlink:href="../../dc/d29/oplsaap_8c.html" target="_top" xlink:title="OPLSAAM force field.">
<polygon fill="white" stroke="#666666" points="4678,-90.5 4545,-90.5 4545,-71.5 4678,-71.5 4678,-90.5"/>
<text text-anchor="middle" x="4611.5" y="-78.5" font-family="Helvetica,sans-Serif" font-size="10.00">calc/force_fields/oplsaap.c</text>
</a>
</g>
</g>
<!-- Node2&#45;&gt;Node60 -->
<g id="edge45" class="edge">
<title>Node2&#45;&gt;Node60</title>
<path fill="none" stroke="#63b8ff" d="M2981.17,-140.24C3188.89,-138.67 4219.76,-129.3 4535.5,-96 4546.57,-94.83 4558.46,-92.95 4569.46,-90.94"/>
<polygon fill="#63b8ff" stroke="#63b8ff" points="2981.23,-136.74 2971.26,-140.32 2981.29,-143.74 2981.23,-136.74"/>
</g>
<!-- Node61 -->
<g id="node42" class="node">
<title>Node61</title>
<g id="a_node42"><a xlink:href="../../d4/d82/oplsaar_8c.html" target="_top" xlink:title="OPLSAAR force field.">
<polygon fill="white" stroke="#666666" points="4827,-90.5 4696,-90.5 4696,-71.5 4827,-71.5 4827,-90.5"/>
<text text-anchor="middle" x="4761.5" y="-78.5" font-family="Helvetica,sans-Serif" font-size="10.00">calc/force_fields/oplsaar.c</text>
</a>
</g>
</g>
<!-- Node2&#45;&gt;Node61 -->
<g id="edge46" class="edge">
<title>Node2&#45;&gt;Node61</title>
<path fill="none" stroke="#63b8ff" d="M2981.13,-140.36C3200.18,-139.39 4338.99,-132.64 4686.5,-96 4697.43,-94.85 4709.16,-92.97 4720.02,-90.96"/>
<polygon fill="#63b8ff" stroke="#63b8ff" points="2981.2,-136.86 2971.22,-140.4 2981.23,-143.86 2981.2,-136.86"/>
</g>
<!-- Node62 -->
<g id="node43" class="node">
<title>Node62</title>
<g id="a_node43"><a xlink:href="../../dd/d55/pcff_8c.html" target="_top" xlink:title="PCFF force field, from &#39;PCFF.frc&#39;.">
<polygon fill="white" stroke="#666666" points="4960,-90.5 4845,-90.5 4845,-71.5 4960,-71.5 4960,-90.5"/>
<text text-anchor="middle" x="4902.5" y="-78.5" font-family="Helvetica,sans-Serif" font-size="10.00">calc/force_fields/pcff.c</text>
</a>
</g>
</g>
<!-- Node2&#45;&gt;Node62 -->
<g id="edge47" class="edge">
<title>Node2&#45;&gt;Node62</title>
<path fill="none" stroke="#63b8ff" d="M2981.34,-140.55C3211.76,-140.73 4457.12,-139.61 4835.5,-96 4845.3,-94.87 4855.79,-93 4865.49,-90.99"/>
<polygon fill="#63b8ff" stroke="#63b8ff" points="2981.48,-137.05 2971.47,-140.54 2981.47,-144.05 2981.48,-137.05"/>
</g>
<!-- Node63 -->
<g id="node44" class="node">
<title>Node63</title>
<g id="a_node44"><a xlink:href="../../d3/d0c/cedit_8c.html" target="_top" xlink:title="Initialization of the curve layout edition dialog.">
<polygon fill="white" stroke="#666666" points="5029,-24.5 4956,-24.5 4956,-5.5 5029,-5.5 5029,-24.5"/>
<text text-anchor="middle" x="4992.5" y="-12.5" font-family="Helvetica,sans-Serif" font-size="10.00">curve/cedit.c</text>
</a>
</g>
</g>
<!-- Node2&#45;&gt;Node63 -->
<g id="edge48" class="edge">
<title>Node2&#45;&gt;Node63</title>
<path fill="none" stroke="#63b8ff" d="M2981.39,-140.29C3252.51,-138.65 4927.38,-127.3 4968.5,-96 4990.88,-78.96 4993.12,-41.8 4992.9,-24.81"/>
<polygon fill="#63b8ff" stroke="#63b8ff" points="2981.39,-136.79 2971.41,-140.35 2981.43,-143.79 2981.39,-136.79"/>
</g>
<!-- Node64 -->
<g id="node45" class="node">
<title>Node64</title>
<g id="a_node45"><a xlink:href="../../d7/d21/cedit_8h.html" target="_top" xlink:title="Variable declarations for the curve layout edition window.">
<polygon fill="#fff0f0" stroke="red" points="5128,-90.5 5055,-90.5 5055,-71.5 5128,-71.5 5128,-90.5"/>
<text text-anchor="middle" x="5091.5" y="-78.5" font-family="Helvetica,sans-Serif" font-size="10.00">curve/cedit.h</text>
</a>
</g>
</g>
<!-- Node2&#45;&gt;Node64 -->
<g id="edge49" class="edge">
<title>Node2&#45;&gt;Node64</title>
<path fill="none" stroke="#63b8ff" d="M2981.39,-140.26C3244.28,-138.52 4829.21,-126.76 5040.5,-96 5048.13,-94.89 5056.25,-93 5063.71,-90.96"/>
<polygon fill="#63b8ff" stroke="#63b8ff" points="2981.38,-136.76 2971.4,-140.33 2981.42,-143.76 2981.38,-136.76"/>
</g>
<!-- Node65 -->
<g id="node46" class="node">
<title>Node65</title>
<g id="a_node46"><a xlink:href="../../dc/d22/curve_8c.html" target="_top" xlink:title="Functions to manage curves.">
<polygon fill="white" stroke="#666666" points="5128.5,-24.5 5052.5,-24.5 5052.5,-5.5 5128.5,-5.5 5128.5,-24.5"/>
<text text-anchor="middle" x="5090.5" y="-12.5" font-family="Helvetica,sans-Serif" font-size="10.00">curve/curve.c</text>
</a>
</g>
</g>
<!-- Node2&#45;&gt;Node65 -->
<g id="edge51" class="edge">
<title>Node2&#45;&gt;Node65</title>
<path fill="none" stroke="#63b8ff" d="M2981.14,-140.38C3248.73,-139.44 4894.42,-132.15 4992.5,-96 5032.68,-81.19 5068.51,-42.52 5083.3,-24.94"/>
<polygon fill="#63b8ff" stroke="#63b8ff" points="2981.29,-136.88 2971.3,-140.42 2981.31,-143.88 2981.29,-136.88"/>
</g>
<!-- Node72 -->
<g id="node47" class="node">
<title>Node72</title>
<g id="a_node47"><a xlink:href="../../df/de9/curve_8h.html" target="_top" xlink:title="Variable declarations for the curve widget \ Functions for interactions with the curve widget.">
<polygon fill="#fff0f0" stroke="red" points="5222.5,-90.5 5146.5,-90.5 5146.5,-71.5 5222.5,-71.5 5222.5,-90.5"/>
<text text-anchor="middle" x="5184.5" y="-78.5" font-family="Helvetica,sans-Serif" font-size="10.00">curve/curve.h</text>
</a>
</g>
</g>
<!-- Node2&#45;&gt;Node72 -->
<g id="edge52" class="edge">
<title>Node2&#45;&gt;Node72</title>
<path fill="none" stroke="#63b8ff" d="M2981.4,-140.34C3251.18,-139.07 4915.33,-129.89 5136.5,-96 5143.71,-94.9 5151.35,-93.01 5158.37,-90.97"/>
<polygon fill="#63b8ff" stroke="#63b8ff" points="2981.45,-136.84 2971.47,-140.38 2981.49,-143.84 2981.45,-136.84"/>
</g>
<!-- Node73 -->
<g id="node48" class="node">
<title>Node73</title>
<g id="a_node48"><a xlink:href="../../d4/d80/cwidget_8c.html" target="_top" xlink:title="Initialization of the curve widget.">
<polygon fill="white" stroke="#666666" points="5232.5,-24.5 5146.5,-24.5 5146.5,-5.5 5232.5,-5.5 5232.5,-24.5"/>
<text text-anchor="middle" x="5189.5" y="-12.5" font-family="Helvetica,sans-Serif" font-size="10.00">curve/cwidget.c</text>
</a>
</g>
</g>
<!-- Node2&#45;&gt;Node73 -->
<g id="edge57" class="edge">
<title>Node2&#45;&gt;Node73</title>
<path fill="none" stroke="#63b8ff" d="M2981.12,-140.14C3272.93,-137.21 5210.93,-116.97 5231.5,-96 5252.37,-74.72 5219.13,-40.96 5200.6,-24.97"/>
<polygon fill="#63b8ff" stroke="#63b8ff" points="2981.42,-136.63 2971.45,-140.23 2981.49,-143.63 2981.42,-136.63"/>
</g>
<!-- Node74 -->
<g id="node49" class="node">
<title>Node74</title>
<g id="a_node49"><a xlink:href="../../da/dae/datab_8c.html" target="_top" xlink:title="Curve data edition window and associated callbacks.">
<polygon fill="white" stroke="#666666" points="5326.5,-24.5 5250.5,-24.5 5250.5,-5.5 5326.5,-5.5 5326.5,-24.5"/>
<text text-anchor="middle" x="5288.5" y="-12.5" font-family="Helvetica,sans-Serif" font-size="10.00">curve/datab.c</text>
</a>
</g>
</g>
<!-- Node2&#45;&gt;Node74 -->
<g id="edge58" class="edge">
<title>Node2&#45;&gt;Node74</title>
<path fill="none" stroke="#63b8ff" d="M2980.91,-140.32C3271.12,-138.85 5199.59,-127.87 5249.5,-96 5274.76,-79.87 5284.13,-42.24 5287.19,-24.97"/>
<polygon fill="#63b8ff" stroke="#63b8ff" points="2981.29,-136.82 2971.31,-140.37 2981.32,-143.82 2981.29,-136.82"/>
</g>
<!-- Node2&#45;&gt;Node206 -->
<g id="edge59" class="edge">
<title>Node2&#45;&gt;Node206</title>
<path fill="none" stroke="#63b8ff" d="M2980.81,-140.34C3283.37,-138.91 5381.48,-127.91 5659.5,-96 5669.13,-94.89 5679.44,-93.01 5688.95,-90.97"/>
<polygon fill="#63b8ff" stroke="#63b8ff" points="2981.15,-136.83 2971.17,-140.38 2981.18,-143.83 2981.15,-136.83"/>
</g>
<!-- Node21&#45;&gt;Node17 -->
<g id="edge21" class="edge">
<title>Node21&#45;&gt;Node17</title>
<path fill="none" stroke="#63b8ff" d="M1570.82,-68.16C1522.51,-55.65 1447.39,-36.18 1403.87,-24.91"/>
<polygon fill="#63b8ff" stroke="#63b8ff" points="1569.87,-71.53 1580.43,-70.65 1571.63,-64.76 1569.87,-71.53"/>
</g>
<!-- Node21&#45;&gt;Node18 -->
<g id="edge22" class="edge">
<title>Node21&#45;&gt;Node18</title>
<path fill="none" stroke="#63b8ff" d="M1591.68,-65.42C1570.37,-52.92 1540.37,-35.3 1522.53,-24.82"/>
<polygon fill="#63b8ff" stroke="#63b8ff" points="1589.64,-68.29 1600.04,-70.33 1593.19,-62.25 1589.64,-68.29"/>
</g>
<!-- Node21&#45;&gt;Node19 -->
<g id="edge23" class="edge">
<title>Node21&#45;&gt;Node19</title>
<path fill="none" stroke="#63b8ff" d="M1624.15,-60.43C1628.79,-48.55 1634.48,-33.96 1638.05,-24.82"/>
<polygon fill="#63b8ff" stroke="#63b8ff" points="1620.91,-59.1 1620.53,-69.69 1627.43,-61.65 1620.91,-59.1"/>
</g>
<!-- Node21&#45;&gt;Node20 -->
<g id="edge24" class="edge">
<title>Node21&#45;&gt;Node20</title>
<path fill="none" stroke="#63b8ff" d="M1647.36,-66.57C1671.63,-56 1705.38,-41.3 1730.25,-30.48"/>
<polygon fill="#63b8ff" stroke="#63b8ff" points="1646.1,-63.3 1638.33,-70.5 1648.89,-69.71 1646.1,-63.3"/>
</g>
<!-- Node21&#45;&gt;Node30 -->
<g id="edge25" class="edge">
<title>Node21&#45;&gt;Node30</title>
<path fill="none" stroke="#63b8ff" d="M1665.36,-68.38C1711.33,-57.44 1780.16,-41.06 1828.59,-29.54"/>
<polygon fill="#63b8ff" stroke="#63b8ff" points="1664.58,-64.96 1655.66,-70.68 1666.2,-71.77 1664.58,-64.96"/>
</g>
<!-- Node64&#45;&gt;Node65 -->
<g id="edge50" class="edge">
<title>Node64&#45;&gt;Node65</title>
<path fill="none" stroke="#63b8ff" d="M5091.18,-59.68C5091,-47.94 5090.78,-33.77 5090.64,-24.82"/>
<polygon fill="#63b8ff" stroke="#63b8ff" points="5087.68,-59.64 5091.34,-69.59 5094.68,-59.53 5087.68,-59.64"/>
</g>
<!-- Node72&#45;&gt;Node63 -->
<g id="edge53" class="edge">
<title>Node72&#45;&gt;Node63</title>
<path fill="none" stroke="#63b8ff" d="M5147.29,-67.6C5109.72,-55.07 5052.61,-36.04 5019.28,-24.93"/>
<polygon fill="#63b8ff" stroke="#63b8ff" points="5145.77,-70.78 5156.37,-70.62 5147.99,-64.14 5145.77,-70.78"/>
</g>
<!-- Node72&#45;&gt;Node65 -->
<g id="edge54" class="edge">
<title>Node72&#45;&gt;Node65</title>
<path fill="none" stroke="#63b8ff" d="M5162.08,-64.74C5143.78,-52.28 5118.56,-35.11 5103.46,-24.82"/>
<polygon fill="#63b8ff" stroke="#63b8ff" points="5159.94,-67.51 5170.18,-70.25 5163.88,-61.73 5159.94,-67.51"/>
</g>
<!-- Node72&#45;&gt;Node73 -->
<g id="edge55" class="edge">
<title>Node72&#45;&gt;Node73</title>
<path fill="none" stroke="#63b8ff" d="M5186.09,-59.68C5187,-47.94 5188.11,-33.77 5188.81,-24.82"/>
<polygon fill="#63b8ff" stroke="#63b8ff" points="5182.6,-59.35 5185.31,-69.59 5189.58,-59.9 5182.6,-59.35"/>
</g>
<!-- Node72&#45;&gt;Node74 -->
<g id="edge56" class="edge">
<title>Node72&#45;&gt;Node74</title>
<path fill="none" stroke="#63b8ff" d="M5208.74,-65.08C5229.03,-52.6 5257.3,-35.2 5274.16,-24.82"/>
<polygon fill="#63b8ff" stroke="#63b8ff" points="5206.93,-62.09 5200.25,-70.31 5210.6,-68.05 5206.93,-62.09"/>
</g>
</g>
</svg>
