<?xml version="1.0" encoding="UTF-8" standalone="no"?>
<!DOCTYPE svg PUBLIC "-//W3C//DTD SVG 1.1//EN"
 "http://www.w3.org/Graphics/SVG/1.1/DTD/svg11.dtd">
<!-- Generated by graphviz version 7.1.0 (0)
 -->
<!-- Title: glwin.h Pages: 1 -->
<!--zoomable 192 -->
<svg id="main" version="1.1" xmlns="http://www.w3.org/2000/svg" xmlns:xlink="http://www.w3.org/1999/xlink" xml:space="preserve" onload="init(evt)">
<style type="text/css"><![CDATA[
.edge:hover path { stroke: red; }
.edge:hover polygon { stroke: red; fill: red; }
]]></style>
<script type="text/javascript"><![CDATA[
var edges = document.getElementsByTagName('g');
if (edges && edges.length) {
  for (var i=0;i<edges.length;i++) {
    if (edges[i].id.substr(0,4)=='edge') {
      edges[i].setAttribute('class','edge');
    }
  }
}
]]></script>
        <defs>
                <circle id="rim" cx="0" cy="0" r="7"/>
                <circle id="rim2" cx="0" cy="0" r="3.5"/>
                <g id="zoomPlus">
                        <use xlink:href="#rim" fill="#404040">
                                <set attributeName="fill" to="#808080" begin="zoomplus.mouseover" end="zoomplus.mouseout"/>
                        </use>
                        <path d="M-4,0h8M0,-4v8" fill="none" stroke="white" stroke-width="1.5" pointer-events="none"/>
                </g>
                <g id="zoomMin">
                        <use xlink:href="#rim" fill="#404040">
                                <set attributeName="fill" to="#808080" begin="zoomminus.mouseover" end="zoomminus.mouseout"/>
                        </use>
                        <path d="M-4,0h8" fill="none" stroke="white" stroke-width="1.5" pointer-events="none"/>
                </g>
                <g id="dirArrow">
                        <path fill="none" stroke="white" stroke-width="1.5" d="M0,-3.0v7 M-2.5,-0.5L0,-3.0L2.5,-0.5"/>
                </g>
               <g id="resetDef">
                       <use xlink:href="#rim2" fill="#404040">
                               <set attributeName="fill" to="#808080" begin="reset.mouseover" end="reset.mouseout"/>
                       </use>
               </g>
        </defs>

<script type="text/javascript">
var viewWidth = 4130;
var viewHeight = 192;
var sectionId = 'dynsection-1';
</script>
<script xlink:href="../../svgpan.js"/>
<svg id="graph" class="graph">
<g id="viewport">
<title>glwin.h</title>
<!-- Node1 -->
<g id="node1" class="node">
<title>Node1</title>
<g id="a_node1"><a xlink:title=" ">
<polygon fill="#999999" stroke="#666666" points="1948.5,-184 1901.5,-184 1901.5,-165 1948.5,-165 1948.5,-184"/>
<text text-anchor="middle" x="1925" y="-172" font-family="Helvetica,sans-Serif" font-size="10.00">glwin.h</text>
</a>
</g>
</g>
<!-- Node2 -->
<g id="node2" class="node">
<title>Node2</title>
<g id="a_node2"><a xlink:href="../../d2/d49/global_8h.html" target="_top" xlink:title=" ">
<polygon fill="#fff0f0" stroke="red" points="1924,-129 1874,-129 1874,-110 1924,-110 1924,-129"/>
<text text-anchor="middle" x="1899" y="-117" font-family="Helvetica,sans-Serif" font-size="10.00">global.h</text>
</a>
</g>
</g>
<!-- Node1&#45;&gt;Node2 -->
<g id="edge1" class="edge">
<title>Node1&#45;&gt;Node2</title>
<path fill="none" stroke="#63b8ff" d="M1915.68,-154.5C1911.49,-145.96 1906.74,-136.28 1903.39,-129.44"/>
<polygon fill="#63b8ff" stroke="#63b8ff" points="1912.49,-155.95 1920.04,-163.39 1918.78,-152.87 1912.49,-155.95"/>
</g>
<!-- Node186 -->
<g id="node50" class="node">
<title>Node186</title>
<g id="a_node50"><a xlink:href="../../d2/d45/save__opengl_8c.html" target="_top" xlink:title=" ">
<polygon fill="white" stroke="#666666" points="4122,-74 4042,-74 4042,-55 4122,-55 4122,-74"/>
<text text-anchor="middle" x="4082" y="-62" font-family="Helvetica,sans-Serif" font-size="10.00">save_opengl.c</text>
</a>
</g>
</g>
<!-- Node1&#45;&gt;Node186 -->
<g id="edge57" class="edge">
<title>Node1&#45;&gt;Node186</title>
<path fill="none" stroke="#63b8ff" d="M1960.08,-173.48C2161.95,-173.01 3195.63,-166.03 4033,-74 4035.83,-73.69 4038.75,-73.32 4041.68,-72.9"/>
<polygon fill="#63b8ff" stroke="#63b8ff" points="1960.27,-169.98 1950.28,-173.5 1960.28,-176.98 1960.27,-169.98"/>
</g>
<!-- Node3 -->
<g id="node3" class="node">
<title>Node3</title>
<g id="a_node3"><a xlink:href="../../d4/ddc/amber94_8c.html" target="_top" xlink:title=" ">
<polygon fill="white" stroke="#666666" points="3864,-74 3802,-74 3802,-55 3864,-55 3864,-74"/>
<text text-anchor="middle" x="3833" y="-62" font-family="Helvetica,sans-Serif" font-size="10.00">amber94.c</text>
</a>
</g>
</g>
<!-- Node2&#45;&gt;Node3 -->
<g id="edge2" class="edge">
<title>Node2&#45;&gt;Node3</title>
<path fill="none" stroke="#63b8ff" d="M1935.54,-118.57C2165.38,-118.86 3413.89,-118.34 3793,-74 3795.82,-73.67 3798.74,-73.24 3801.65,-72.74"/>
<polygon fill="#63b8ff" stroke="#63b8ff" points="1935.71,-115.07 1925.7,-118.55 1935.7,-122.07 1935.71,-115.07"/>
</g>
<!-- Node4 -->
<g id="node4" class="node">
<title>Node4</title>
<g id="a_node4"><a xlink:href="../../dd/d7e/amber96_8c.html" target="_top" xlink:title=" ">
<polygon fill="white" stroke="#666666" points="3944,-74 3882,-74 3882,-55 3944,-55 3944,-74"/>
<text text-anchor="middle" x="3913" y="-62" font-family="Helvetica,sans-Serif" font-size="10.00">amber96.c</text>
</a>
</g>
</g>
<!-- Node2&#45;&gt;Node4 -->
<g id="edge3" class="edge">
<title>Node2&#45;&gt;Node4</title>
<path fill="none" stroke="#63b8ff" d="M1935.68,-118.09C2188.93,-115.17 3673.78,-97.21 3873,-74 3875.82,-73.67 3878.74,-73.24 3881.65,-72.74"/>
<polygon fill="#63b8ff" stroke="#63b8ff" points="1935.71,-114.59 1925.75,-118.2 1935.79,-121.59 1935.71,-114.59"/>
</g>
<!-- Node5 -->
<g id="node5" class="node">
<title>Node5</title>
<g id="a_node5"><a xlink:href="../../d5/d08/amber98_8c.html" target="_top" xlink:title=" ">
<polygon fill="white" stroke="#666666" points="4024,-74 3962,-74 3962,-55 4024,-55 4024,-74"/>
<text text-anchor="middle" x="3993" y="-62" font-family="Helvetica,sans-Serif" font-size="10.00">amber98.c</text>
</a>
</g>
</g>
<!-- Node2&#45;&gt;Node5 -->
<g id="edge4" class="edge">
<title>Node2&#45;&gt;Node5</title>
<path fill="none" stroke="#63b8ff" d="M1935.54,-118.12C2194.27,-115.39 3745.27,-98.11 3953,-74 3955.82,-73.67 3958.74,-73.24 3961.65,-72.74"/>
<polygon fill="#63b8ff" stroke="#63b8ff" points="1935.69,-114.62 1925.72,-118.23 1935.76,-121.62 1935.69,-114.62"/>
</g>
<!-- Node6 -->
<g id="node6" class="node">
<title>Node6</title>
<g id="a_node6"><a xlink:href="../../df/dad/amber99_8c.html" target="_top" xlink:title=" ">
<polygon fill="white" stroke="#666666" points="62,-74 0,-74 0,-55 62,-55 62,-74"/>
<text text-anchor="middle" x="31" y="-62" font-family="Helvetica,sans-Serif" font-size="10.00">amber99.c</text>
</a>
</g>
</g>
<!-- Node2&#45;&gt;Node6 -->
<g id="edge5" class="edge">
<title>Node2&#45;&gt;Node6</title>
<path fill="none" stroke="#63b8ff" d="M1862.34,-118.53C1636.88,-118.59 436.13,-116.86 71,-74 68.18,-73.67 65.26,-73.23 62.35,-72.74"/>
<polygon fill="#63b8ff" stroke="#63b8ff" points="1862.27,-122.03 1872.27,-118.53 1862.26,-115.03 1862.27,-122.03"/>
</g>
<!-- Node7 -->
<g id="node7" class="node">
<title>Node7</title>
<g id="a_node7"><a xlink:href="../../d3/d23/arcball_8c.html" target="_top" xlink:title=" ">
<polygon fill="white" stroke="#666666" points="133.5,-74 80.5,-74 80.5,-55 133.5,-55 133.5,-74"/>
<text text-anchor="middle" x="107" y="-62" font-family="Helvetica,sans-Serif" font-size="10.00">arcball.c</text>
</a>
</g>
</g>
<!-- Node2&#45;&gt;Node7 -->
<g id="edge6" class="edge">
<title>Node2&#45;&gt;Node7</title>
<path fill="none" stroke="#63b8ff" d="M1862.17,-118.46C1641.93,-118.1 496.92,-114.27 148,-74 143.38,-73.47 138.5,-72.67 133.79,-71.77"/>
<polygon fill="#63b8ff" stroke="#63b8ff" points="1862.14,-121.96 1872.14,-118.48 1862.15,-114.96 1862.14,-121.96"/>
</g>
<!-- Node8 -->
<g id="node8" class="node">
<title>Node8</title>
<g id="a_node8"><a xlink:href="../../d5/d9c/atom__edit_8h.html" target="_top" xlink:title=" ">
<polygon fill="#fff0f0" stroke="red" points="258,-74 190,-74 190,-55 258,-55 258,-74"/>
<text text-anchor="middle" x="224" y="-62" font-family="Helvetica,sans-Serif" font-size="10.00">atom_edit.h</text>
</a>
</g>
</g>
<!-- Node2&#45;&gt;Node8 -->
<g id="edge7" class="edge">
<title>Node2&#45;&gt;Node8</title>
<path fill="none" stroke="#63b8ff" d="M1862.37,-118.34C1651.58,-117.28 591.16,-110.2 267,-74 264.13,-73.68 261.16,-73.27 258.19,-72.8"/>
<polygon fill="#63b8ff" stroke="#63b8ff" points="1862.15,-121.84 1872.16,-118.39 1862.18,-114.84 1862.15,-121.84"/>
</g>
<!-- Node19 -->
<g id="node9" class="node">
<title>Node19</title>
<g id="a_node9"><a xlink:href="../../d3/d3a/callbacks_8c.html" target="_top" xlink:title=" ">
<polygon fill="white" stroke="#666666" points="257,-19 191,-19 191,0 257,0 257,-19"/>
<text text-anchor="middle" x="224" y="-7" font-family="Helvetica,sans-Serif" font-size="10.00">callbacks.c</text>
</a>
</g>
</g>
<!-- Node2&#45;&gt;Node19 -->
<g id="edge12" class="edge">
<title>Node2&#45;&gt;Node19</title>
<path fill="none" stroke="#63b8ff" d="M1862.38,-118.25C1616.22,-116.51 211.39,-105.19 181,-74 164.27,-56.84 192.33,-32.42 210.46,-19.43"/>
<polygon fill="#63b8ff" stroke="#63b8ff" points="1862,-121.75 1872.02,-118.32 1862.04,-114.75 1862,-121.75"/>
</g>
<!-- Node28 -->
<g id="node10" class="node">
<title>Node28</title>
<g id="a_node10"><a xlink:href="../../d5/d34/bdcall_8c.html" target="_top" xlink:title=" ">
<polygon fill="white" stroke="#666666" points="406,-74 356,-74 356,-55 406,-55 406,-74"/>
<text text-anchor="middle" x="381" y="-62" font-family="Helvetica,sans-Serif" font-size="10.00">bdcall.c</text>
</a>
</g>
</g>
<!-- Node2&#45;&gt;Node28 -->
<g id="edge9" class="edge">
<title>Node2&#45;&gt;Node28</title>
<path fill="none" stroke="#63b8ff" d="M1862.26,-118.47C1662.68,-118.13 707.12,-114.42 415,-74 412.11,-73.6 409.1,-73.05 406.13,-72.42"/>
<polygon fill="#63b8ff" stroke="#63b8ff" points="1862.01,-121.97 1872.02,-118.48 1862.02,-114.97 1862.01,-121.97"/>
</g>
<!-- Node29 -->
<g id="node11" class="node">
<title>Node29</title>
<g id="a_node11"><a xlink:href="../../d1/dcc/calc_8c.html" target="_top" xlink:title=" ">
<polygon fill="white" stroke="#666666" points="467.5,-74 424.5,-74 424.5,-55 467.5,-55 467.5,-74"/>
<text text-anchor="middle" x="446" y="-62" font-family="Helvetica,sans-Serif" font-size="10.00">calc.c</text>
</a>
</g>
</g>
<!-- Node2&#45;&gt;Node29 -->
<g id="edge10" class="edge">
<title>Node2&#45;&gt;Node29</title>
<path fill="none" stroke="#63b8ff" d="M1862.25,-118.52C1667.63,-118.47 755.71,-115.97 477,-74 474.02,-73.55 470.92,-72.91 467.88,-72.19"/>
<polygon fill="#63b8ff" stroke="#63b8ff" points="1862,-122.02 1872,-118.52 1862,-115.02 1862,-122.02"/>
</g>
<!-- Node30 -->
<g id="node12" class="node">
<title>Node30</title>
<g id="a_node12"><a xlink:href="../../d8/d5e/calc__menu_8c.html" target="_top" xlink:title=" ">
<polygon fill="white" stroke="#666666" points="558,-74 486,-74 486,-55 558,-55 558,-74"/>
<text text-anchor="middle" x="522" y="-62" font-family="Helvetica,sans-Serif" font-size="10.00">calc_menu.c</text>
</a>
</g>
</g>
<!-- Node2&#45;&gt;Node30 -->
<g id="edge11" class="edge">
<title>Node2&#45;&gt;Node30</title>
<path fill="none" stroke="#63b8ff" d="M1862.43,-117.94C1676.29,-115 832.6,-100.4 572,-74 567.53,-73.55 562.86,-72.94 558.24,-72.25"/>
<polygon fill="#63b8ff" stroke="#63b8ff" points="1862.16,-121.44 1872.22,-118.09 1862.27,-114.44 1862.16,-121.44"/>
</g>
<!-- Node31 -->
<g id="node13" class="node">
<title>Node31</title>
<g id="a_node13"><a xlink:href="../../d0/dd3/cbuild__action_8c.html" target="_top" xlink:title=" ">
<polygon fill="white" stroke="#666666" points="578,-19 496,-19 496,0 578,0 578,-19"/>
<text text-anchor="middle" x="537" y="-7" font-family="Helvetica,sans-Serif" font-size="10.00">cbuild_action.c</text>
</a>
</g>
</g>
<!-- Node2&#45;&gt;Node31 -->
<g id="edge13" class="edge">
<title>Node2&#45;&gt;Node31</title>
<path fill="none" stroke="#63b8ff" d="M1862.21,-118.45C1666.04,-118.03 747.62,-113.92 628,-74 593.65,-62.53 560.67,-33.66 545.58,-19.13"/>
<polygon fill="#63b8ff" stroke="#63b8ff" points="1862.04,-121.95 1872.05,-118.47 1862.06,-114.95 1862.04,-121.95"/>
</g>
<!-- Node32 -->
<g id="node14" class="node">
<title>Node32</title>
<g id="a_node14"><a xlink:href="../../db/d0b/cbuild__edit_8c.html" target="_top" xlink:title=" ">
<polygon fill="white" stroke="#666666" points="667.5,-19 596.5,-19 596.5,0 667.5,0 667.5,-19"/>
<text text-anchor="middle" x="632" y="-7" font-family="Helvetica,sans-Serif" font-size="10.00">cbuild_edit.c</text>
</a>
</g>
</g>
<!-- Node2&#45;&gt;Node32 -->
<g id="edge14" class="edge">
<title>Node2&#45;&gt;Node32</title>
<path fill="none" stroke="#63b8ff" d="M1862.12,-118.49C1659.59,-118.27 690.1,-115.09 643,-74 627.32,-60.32 628.62,-33 630.5,-19.08"/>
<polygon fill="#63b8ff" stroke="#63b8ff" points="1862.04,-121.99 1872.04,-118.5 1862.04,-114.99 1862.04,-121.99"/>
</g>
<!-- Node33 -->
<g id="node15" class="node">
<title>Node33</title>
<g id="a_node15"><a xlink:href="../../de/d8a/cbuild__edit_8h.html" target="_top" xlink:title=" ">
<polygon fill="#fff0f0" stroke="red" points="723.5,-74 652.5,-74 652.5,-55 723.5,-55 723.5,-74"/>
<text text-anchor="middle" x="688" y="-62" font-family="Helvetica,sans-Serif" font-size="10.00">cbuild_edit.h</text>
</a>
</g>
</g>
<!-- Node2&#45;&gt;Node33 -->
<g id="edge15" class="edge">
<title>Node2&#45;&gt;Node33</title>
<path fill="none" stroke="#63b8ff" d="M1862.41,-118.83C1718.69,-119.74 1179.03,-119.74 738,-74 733.45,-73.53 728.68,-72.9 723.97,-72.19"/>
<polygon fill="#63b8ff" stroke="#63b8ff" points="1862.1,-122.33 1872.07,-118.76 1862.05,-115.33 1862.1,-122.33"/>
</g>
<!-- Node34 -->
<g id="node16" class="node">
<title>Node34</title>
<g id="a_node16"><a xlink:href="../../d9/ded/cbuild__info_8c.html" target="_top" xlink:title=" ">
<polygon fill="white" stroke="#666666" points="756.5,-19 685.5,-19 685.5,0 756.5,0 756.5,-19"/>
<text text-anchor="middle" x="721" y="-7" font-family="Helvetica,sans-Serif" font-size="10.00">cbuild_info.c</text>
</a>
</g>
</g>
<!-- Node2&#45;&gt;Node34 -->
<g id="edge20" class="edge">
<title>Node2&#45;&gt;Node34</title>
<path fill="none" stroke="#63b8ff" d="M1862.32,-118.42C1682.43,-117.83 898.12,-113.01 797,-74 766.84,-62.37 739.99,-33.57 727.85,-19.1"/>
<polygon fill="#63b8ff" stroke="#63b8ff" points="1862.22,-121.92 1872.23,-118.45 1862.24,-114.92 1862.22,-121.92"/>
</g>
<!-- Node35 -->
<g id="node17" class="node">
<title>Node35</title>
<g id="a_node17"><a xlink:href="../../d3/ddb/cbuild__sg_8c.html" target="_top" xlink:title=" ">
<polygon fill="white" stroke="#666666" points="841,-19 775,-19 775,0 841,0 841,-19"/>
<text text-anchor="middle" x="808" y="-7" font-family="Helvetica,sans-Serif" font-size="10.00">cbuild_sg.c</text>
</a>
</g>
</g>
<!-- Node2&#45;&gt;Node35 -->
<g id="edge21" class="edge">
<title>Node2&#45;&gt;Node35</title>
<path fill="none" stroke="#63b8ff" d="M1862.29,-118.4C1676.44,-117.72 846.56,-112.52 809,-74 794.84,-59.48 800.52,-33.03 804.83,-19.3"/>
<polygon fill="#63b8ff" stroke="#63b8ff" points="1862.06,-121.9 1872.07,-118.43 1862.09,-114.9 1862.06,-121.9"/>
</g>
<!-- Node40 -->
<g id="node18" class="node">
<title>Node40</title>
<g id="a_node18"><a xlink:href="../../d3/d0c/cedit_8c.html" target="_top" xlink:title=" ">
<polygon fill="white" stroke="#666666" points="864,-74 818,-74 818,-55 864,-55 864,-74"/>
<text text-anchor="middle" x="841" y="-62" font-family="Helvetica,sans-Serif" font-size="10.00">cedit.c</text>
</a>
</g>
</g>
<!-- Node2&#45;&gt;Node40 -->
<g id="edge22" class="edge">
<title>Node2&#45;&gt;Node40</title>
<path fill="none" stroke="#63b8ff" d="M1862.12,-117.79C1702.95,-114.61 1073.99,-100.56 878,-74 873.56,-73.4 868.87,-72.52 864.37,-71.55"/>
<polygon fill="#63b8ff" stroke="#63b8ff" points="1862.01,-121.29 1872.08,-117.99 1862.15,-114.29 1862.01,-121.29"/>
</g>
<!-- Node41 -->
<g id="node19" class="node">
<title>Node41</title>
<g id="a_node19"><a xlink:href="../../d7/d21/cedit_8h.html" target="_top" xlink:title=" ">
<polygon fill="#fff0f0" stroke="red" points="966,-74 920,-74 920,-55 966,-55 966,-74"/>
<text text-anchor="middle" x="943" y="-62" font-family="Helvetica,sans-Serif" font-size="10.00">cedit.h</text>
</a>
</g>
</g>
<!-- Node2&#45;&gt;Node41 -->
<g id="edge23" class="edge">
<title>Node2&#45;&gt;Node41</title>
<path fill="none" stroke="#63b8ff" d="M1862.76,-117.78C1714.12,-114.66 1150.77,-101.26 975,-74 972.16,-73.56 969.21,-72.97 966.3,-72.3"/>
<polygon fill="#63b8ff" stroke="#63b8ff" points="1862.32,-121.27 1872.39,-117.98 1862.47,-114.27 1862.32,-121.27"/>
</g>
<!-- Node42 -->
<g id="node20" class="node">
<title>Node42</title>
<g id="a_node20"><a xlink:href="../../dc/d22/curve_8c.html" target="_top" xlink:title=" ">
<polygon fill="white" stroke="#666666" points="941.5,-19 892.5,-19 892.5,0 941.5,0 941.5,-19"/>
<text text-anchor="middle" x="917" y="-7" font-family="Helvetica,sans-Serif" font-size="10.00">curve.c</text>
</a>
</g>
</g>
<!-- Node2&#45;&gt;Node42 -->
<g id="edge55" class="edge">
<title>Node2&#45;&gt;Node42</title>
<path fill="none" stroke="#63b8ff" d="M1862.16,-118.25C1686.88,-116.88 944.47,-109.02 911,-74 896.92,-59.27 906.18,-32.91 912.5,-19.25"/>
<polygon fill="#63b8ff" stroke="#63b8ff" points="1862.01,-121.75 1872.04,-118.32 1862.07,-114.75 1862.01,-121.75"/>
</g>
<!-- Node49 -->
<g id="node21" class="node">
<title>Node49</title>
<g id="a_node21"><a xlink:href="../../d9/d97/cell__edit_8h.html" target="_top" xlink:title=" ">
<polygon fill="#fff0f0" stroke="red" points="337.5,-74 276.5,-74 276.5,-55 337.5,-55 337.5,-74"/>
<text text-anchor="middle" x="307" y="-62" font-family="Helvetica,sans-Serif" font-size="10.00">cell_edit.h</text>
</a>
</g>
</g>
<!-- Node2&#45;&gt;Node49 -->
<g id="edge25" class="edge">
<title>Node2&#45;&gt;Node49</title>
<path fill="none" stroke="#63b8ff" d="M1862.24,-118.35C1657.29,-117.36 654.03,-110.72 347,-74 344.04,-73.65 340.97,-73.18 337.92,-72.65"/>
<polygon fill="#63b8ff" stroke="#63b8ff" points="1861.99,-121.85 1872.01,-118.39 1862.03,-114.85 1861.99,-121.85"/>
</g>
<!-- Node54 -->
<g id="node22" class="node">
<title>Node54</title>
<g id="a_node22"><a xlink:href="../../d9/de7/cff91_8c.html" target="_top" xlink:title=" ">
<polygon fill="white" stroke="#666666" points="1030,-74 984,-74 984,-55 1030,-55 1030,-74"/>
<text text-anchor="middle" x="1007" y="-62" font-family="Helvetica,sans-Serif" font-size="10.00">cff91.c</text>
</a>
</g>
</g>
<!-- Node2&#45;&gt;Node54 -->
<g id="edge27" class="edge">
<title>Node2&#45;&gt;Node54</title>
<path fill="none" stroke="#63b8ff" d="M1862.52,-117.62C1720.12,-114.04 1201.51,-99.5 1039,-74 1036.16,-73.55 1033.21,-72.96 1030.3,-72.29"/>
<polygon fill="#63b8ff" stroke="#63b8ff" points="1862.03,-121.11 1872.11,-117.86 1862.2,-114.11 1862.03,-121.11"/>
</g>
<!-- Node55 -->
<g id="node23" class="node">
<title>Node55</title>
<g id="a_node23"><a xlink:href="../../d2/d01/chainscall_8c.html" target="_top" xlink:title=" ">
<polygon fill="white" stroke="#666666" points="1116,-74 1048,-74 1048,-55 1116,-55 1116,-74"/>
<text text-anchor="middle" x="1082" y="-62" font-family="Helvetica,sans-Serif" font-size="10.00">chainscall.c</text>
</a>
</g>
</g>
<!-- Node2&#45;&gt;Node55 -->
<g id="edge28" class="edge">
<title>Node2&#45;&gt;Node55</title>
<path fill="none" stroke="#63b8ff" d="M1862.63,-118.18C1751.62,-116.84 1407.46,-109.86 1125,-74 1122.13,-73.64 1119.17,-73.19 1116.2,-72.7"/>
<polygon fill="#63b8ff" stroke="#63b8ff" points="1862.27,-121.68 1872.31,-118.29 1862.35,-114.68 1862.27,-121.68"/>
</g>
<!-- Node56 -->
<g id="node24" class="node">
<title>Node56</title>
<g id="a_node24"><a xlink:href="../../d2/d6d/charmm22__prot_8c.html" target="_top" xlink:title=" ">
<polygon fill="white" stroke="#666666" points="1226,-74 1134,-74 1134,-55 1226,-55 1226,-74"/>
<text text-anchor="middle" x="1180" y="-62" font-family="Helvetica,sans-Serif" font-size="10.00">charmm22_prot.c</text>
</a>
</g>
</g>
<!-- Node2&#45;&gt;Node56 -->
<g id="edge29" class="edge">
<title>Node2&#45;&gt;Node56</title>
<path fill="none" stroke="#63b8ff" d="M1862.28,-117.15C1761.7,-113.23 1473.36,-100.36 1235,-74 1232.22,-73.69 1229.36,-73.34 1226.47,-72.97"/>
<polygon fill="#63b8ff" stroke="#63b8ff" points="1861.96,-120.64 1872.09,-117.53 1862.23,-113.65 1861.96,-120.64"/>
</g>
<!-- Node57 -->
<g id="node25" class="node">
<title>Node57</title>
<g id="a_node25"><a xlink:href="../../de/d55/charmm22__prot__metals_8c.html" target="_top" xlink:title=" ">
<polygon fill="white" stroke="#666666" points="1371.5,-74 1244.5,-74 1244.5,-55 1371.5,-55 1371.5,-74"/>
<text text-anchor="middle" x="1308" y="-62" font-family="Helvetica,sans-Serif" font-size="10.00">charmm22_prot_metals.c</text>
</a>
</g>
</g>
<!-- Node2&#45;&gt;Node57 -->
<g id="edge30" class="edge">
<title>Node2&#45;&gt;Node57</title>
<path fill="none" stroke="#63b8ff" d="M1862.26,-115.76C1777.3,-109.32 1560.69,-92.41 1380,-74 1377.37,-73.73 1374.69,-73.45 1371.98,-73.16"/>
<polygon fill="#63b8ff" stroke="#63b8ff" points="1861.85,-119.23 1872.08,-116.5 1862.37,-112.25 1861.85,-119.23"/>
</g>
<!-- Node58 -->
<g id="node26" class="node">
<title>Node58</title>
<g id="a_node26"><a xlink:href="../../d7/d39/charmm35__ethers_8c.html" target="_top" xlink:title=" ">
<polygon fill="white" stroke="#666666" points="1492.5,-74 1389.5,-74 1389.5,-55 1492.5,-55 1492.5,-74"/>
<text text-anchor="middle" x="1441" y="-62" font-family="Helvetica,sans-Serif" font-size="10.00">charmm35_ethers.c</text>
</a>
</g>
</g>
<!-- Node2&#45;&gt;Node58 -->
<g id="edge31" class="edge">
<title>Node2&#45;&gt;Node58</title>
<path fill="none" stroke="#63b8ff" d="M1862.57,-114.79C1792.48,-107.57 1634.02,-90.85 1501,-74 1498.29,-73.66 1495.5,-73.29 1492.7,-72.92"/>
<polygon fill="#63b8ff" stroke="#63b8ff" points="1862.01,-118.25 1872.32,-115.79 1862.73,-111.29 1862.01,-118.25"/>
</g>
<!-- Node59 -->
<g id="node27" class="node">
<title>Node59</title>
<g id="a_node27"><a xlink:href="../../de/db7/charmm36__carb_8c.html" target="_top" xlink:title=" ">
<polygon fill="white" stroke="#666666" points="1605.5,-74 1510.5,-74 1510.5,-55 1605.5,-55 1605.5,-74"/>
<text text-anchor="middle" x="1558" y="-62" font-family="Helvetica,sans-Serif" font-size="10.00">charmm36_carb.c</text>
</a>
</g>
</g>
<!-- Node2&#45;&gt;Node59 -->
<g id="edge32" class="edge">
<title>Node2&#45;&gt;Node59</title>
<path fill="none" stroke="#63b8ff" d="M1862.5,-112.83C1800.57,-103.2 1674.94,-83.68 1605.98,-72.96"/>
<polygon fill="#63b8ff" stroke="#63b8ff" points="1861.73,-116.25 1872.15,-114.33 1862.81,-109.33 1861.73,-116.25"/>
</g>
<!-- Node60 -->
<g id="node28" class="node">
<title>Node60</title>
<g id="a_node28"><a xlink:href="../../d1/d40/charmm36__cgenff_8c.html" target="_top" xlink:title=" ">
<polygon fill="white" stroke="#666666" points="1726,-74 1624,-74 1624,-55 1726,-55 1726,-74"/>
<text text-anchor="middle" x="1675" y="-62" font-family="Helvetica,sans-Serif" font-size="10.00">charmm36_cgenff.c</text>
</a>
</g>
</g>
<!-- Node2&#45;&gt;Node60 -->
<g id="edge33" class="edge">
<title>Node2&#45;&gt;Node60</title>
<path fill="none" stroke="#63b8ff" d="M1862.59,-109.88C1821.39,-100.14 1754.61,-84.34 1712.84,-74.45"/>
<polygon fill="#63b8ff" stroke="#63b8ff" points="1861.73,-113.28 1872.27,-112.17 1863.34,-106.47 1861.73,-113.28"/>
</g>
<!-- Node61 -->
<g id="node29" class="node">
<title>Node61</title>
<g id="a_node29"><a xlink:href="../../d6/de8/charmm36__lipid_8c.html" target="_top" xlink:title=" ">
<polygon fill="white" stroke="#666666" points="1837.5,-74 1744.5,-74 1744.5,-55 1837.5,-55 1837.5,-74"/>
<text text-anchor="middle" x="1791" y="-62" font-family="Helvetica,sans-Serif" font-size="10.00">charmm36_lipid.c</text>
</a>
</g>
</g>
<!-- Node2&#45;&gt;Node61 -->
<g id="edge34" class="edge">
<title>Node2&#45;&gt;Node61</title>
<path fill="none" stroke="#63b8ff" d="M1870.54,-104.53C1851.06,-94.97 1825.82,-82.59 1809.05,-74.36"/>
<polygon fill="#63b8ff" stroke="#63b8ff" points="1868.8,-107.58 1879.32,-108.84 1871.89,-101.29 1868.8,-107.58"/>
</g>
<!-- Node62 -->
<g id="node30" class="node">
<title>Node62</title>
<g id="a_node30"><a xlink:href="../../da/daa/charmm36__na_8c.html" target="_top" xlink:title=" ">
<polygon fill="white" stroke="#666666" points="1942,-74 1856,-74 1856,-55 1942,-55 1942,-74"/>
<text text-anchor="middle" x="1899" y="-62" font-family="Helvetica,sans-Serif" font-size="10.00">charmm36_na.c</text>
</a>
</g>
</g>
<!-- Node2&#45;&gt;Node62 -->
<g id="edge35" class="edge">
<title>Node2&#45;&gt;Node62</title>
<path fill="none" stroke="#63b8ff" d="M1899,-98.35C1899,-90.1 1899,-80.97 1899,-74.44"/>
<polygon fill="#63b8ff" stroke="#63b8ff" points="1895.5,-98.23 1899,-108.23 1902.5,-98.23 1895.5,-98.23"/>
</g>
<!-- Node63 -->
<g id="node31" class="node">
<title>Node63</title>
<g id="a_node31"><a xlink:href="../../d1/d8a/charmm36__prot_8c.html" target="_top" xlink:title=" ">
<polygon fill="white" stroke="#666666" points="2052,-74 1960,-74 1960,-55 2052,-55 2052,-74"/>
<text text-anchor="middle" x="2006" y="-62" font-family="Helvetica,sans-Serif" font-size="10.00">charmm36_prot.c</text>
</a>
</g>
</g>
<!-- Node2&#45;&gt;Node63 -->
<g id="edge36" class="edge">
<title>Node2&#45;&gt;Node63</title>
<path fill="none" stroke="#63b8ff" d="M1927.46,-104.4C1946.73,-94.86 1971.58,-82.55 1988.12,-74.36"/>
<polygon fill="#63b8ff" stroke="#63b8ff" points="1925.91,-101.26 1918.51,-108.84 1929.02,-107.54 1925.91,-101.26"/>
</g>
<!-- Node64 -->
<g id="node32" class="node">
<title>Node64</title>
<g id="a_node32"><a xlink:href="../../d7/df9/charmm36__prot__metals_8c.html" target="_top" xlink:title=" ">
<polygon fill="white" stroke="#666666" points="2197.5,-74 2070.5,-74 2070.5,-55 2197.5,-55 2197.5,-74"/>
<text text-anchor="middle" x="2134" y="-62" font-family="Helvetica,sans-Serif" font-size="10.00">charmm36_prot_metals.c</text>
</a>
</g>
</g>
<!-- Node2&#45;&gt;Node64 -->
<g id="edge37" class="edge">
<title>Node2&#45;&gt;Node64</title>
<path fill="none" stroke="#63b8ff" d="M1935.22,-110.33C1978.21,-100.63 2049.69,-84.51 2094.2,-74.48"/>
<polygon fill="#63b8ff" stroke="#63b8ff" points="1934.61,-106.88 1925.63,-112.5 1936.15,-113.71 1934.61,-106.88"/>
</g>
<!-- Node65 -->
<g id="node33" class="node">
<title>Node65</title>
<g id="a_node33"><a xlink:href="../../d3/deb/charmm__silicates_8c.html" target="_top" xlink:title=" ">
<polygon fill="white" stroke="#666666" points="2316.5,-74 2215.5,-74 2215.5,-55 2316.5,-55 2316.5,-74"/>
<text text-anchor="middle" x="2266" y="-62" font-family="Helvetica,sans-Serif" font-size="10.00">charmm_silicates.c</text>
</a>
</g>
</g>
<!-- Node2&#45;&gt;Node65 -->
<g id="edge38" class="edge">
<title>Node2&#45;&gt;Node65</title>
<path fill="none" stroke="#63b8ff" d="M1935.25,-113.27C2000.99,-103.77 2140.05,-83.69 2215.22,-72.83"/>
<polygon fill="#63b8ff" stroke="#63b8ff" points="1935.12,-109.75 1925.72,-114.64 1936.12,-116.68 1935.12,-109.75"/>
</g>
<!-- Node66 -->
<g id="node34" class="node">
<title>Node66</title>
<g id="a_node34"><a xlink:href="../../d3/d50/close__p_8c.html" target="_top" xlink:title=" ">
<polygon fill="white" stroke="#666666" points="2393.5,-74 2334.5,-74 2334.5,-55 2393.5,-55 2393.5,-74"/>
<text text-anchor="middle" x="2364" y="-62" font-family="Helvetica,sans-Serif" font-size="10.00">close_p.c</text>
</a>
</g>
</g>
<!-- Node2&#45;&gt;Node66 -->
<g id="edge39" class="edge">
<title>Node2&#45;&gt;Node66</title>
<path fill="none" stroke="#63b8ff" d="M1935.49,-116.05C2009.36,-110.8 2181.73,-97.02 2325,-74 2328.01,-73.52 2331.14,-72.95 2334.25,-72.34"/>
<polygon fill="#63b8ff" stroke="#63b8ff" points="1935.34,-112.56 1925.61,-116.75 1935.83,-119.54 1935.34,-112.56"/>
</g>
<!-- Node67 -->
<g id="node35" class="node">
<title>Node67</title>
<g id="a_node35"><a xlink:href="../../dc/d16/color__box_8c.html" target="_top" xlink:title=" ">
<polygon fill="white" stroke="#666666" points="2478.5,-74 2411.5,-74 2411.5,-55 2478.5,-55 2478.5,-74"/>
<text text-anchor="middle" x="2445" y="-62" font-family="Helvetica,sans-Serif" font-size="10.00">color_box.c</text>
</a>
</g>
</g>
<!-- Node2&#45;&gt;Node67 -->
<g id="edge40" class="edge">
<title>Node2&#45;&gt;Node67</title>
<path fill="none" stroke="#63b8ff" d="M1935.86,-116.59C2019.22,-111.98 2228.49,-98.75 2402,-74 2405.01,-73.57 2408.13,-73.07 2411.26,-72.52"/>
<polygon fill="#63b8ff" stroke="#63b8ff" points="1935.8,-113.09 1926.01,-117.13 1936.18,-120.08 1935.8,-113.09"/>
</g>
<!-- Node68 -->
<g id="node36" class="node">
<title>Node68</title>
<g id="a_node36"><a xlink:href="../../d6/dfb/compass_8c.html" target="_top" xlink:title=" ">
<polygon fill="white" stroke="#666666" points="2561.5,-74 2496.5,-74 2496.5,-55 2561.5,-55 2561.5,-74"/>
<text text-anchor="middle" x="2529" y="-62" font-family="Helvetica,sans-Serif" font-size="10.00">compass.c</text>
</a>
</g>
</g>
<!-- Node2&#45;&gt;Node68 -->
<g id="edge41" class="edge">
<title>Node2&#45;&gt;Node68</title>
<path fill="none" stroke="#63b8ff" d="M1935.59,-117.31C2028.26,-113.96 2279.59,-102.72 2487,-74 2489.95,-73.59 2493,-73.1 2496.05,-72.57"/>
<polygon fill="#63b8ff" stroke="#63b8ff" points="1935.72,-113.8 1925.85,-117.65 1935.97,-120.8 1935.72,-113.8"/>
</g>
<!-- Node69 -->
<g id="node37" class="node">
<title>Node69</title>
<g id="a_node37"><a xlink:href="../../db/d9f/cp2k__basis_8c.html" target="_top" xlink:title=" ">
<polygon fill="white" stroke="#666666" points="2654,-74 2580,-74 2580,-55 2654,-55 2654,-74"/>
<text text-anchor="middle" x="2617" y="-62" font-family="Helvetica,sans-Serif" font-size="10.00">cp2k_basis.c</text>
</a>
</g>
</g>
<!-- Node2&#45;&gt;Node69 -->
<g id="edge42" class="edge">
<title>Node2&#45;&gt;Node69</title>
<path fill="none" stroke="#63b8ff" d="M1935.79,-117.52C2037.21,-114.49 2329.21,-103.66 2570,-74 2573.13,-73.61 2576.36,-73.16 2579.6,-72.66"/>
<polygon fill="#63b8ff" stroke="#63b8ff" points="1935.79,-114.01 1925.9,-117.8 1936,-121.01 1935.79,-114.01"/>
</g>
<!-- Node70 -->
<g id="node38" class="node">
<title>Node70</title>
<g id="a_node38"><a xlink:href="../../d0/da4/cp2k__files_8c.html" target="_top" xlink:title=" ">
<polygon fill="white" stroke="#666666" points="2741.5,-74 2672.5,-74 2672.5,-55 2741.5,-55 2741.5,-74"/>
<text text-anchor="middle" x="2707" y="-62" font-family="Helvetica,sans-Serif" font-size="10.00">cp2k_files.c</text>
</a>
</g>
</g>
<!-- Node2&#45;&gt;Node70 -->
<g id="edge43" class="edge">
<title>Node2&#45;&gt;Node70</title>
<path fill="none" stroke="#63b8ff" d="M1935.6,-118.09C2045.91,-116.48 2384.71,-108.83 2663,-74 2665.93,-73.63 2668.97,-73.19 2672,-72.7"/>
<polygon fill="#63b8ff" stroke="#63b8ff" points="1935.64,-114.59 1925.68,-118.22 1935.73,-121.59 1935.64,-114.59"/>
</g>
<!-- Node71 -->
<g id="node39" class="node">
<title>Node71</title>
<g id="a_node39"><a xlink:href="../../d5/d98/cp2k__gth-basis_8c.html" target="_top" xlink:title=" ">
<polygon fill="white" stroke="#666666" points="2850.5,-74 2759.5,-74 2759.5,-55 2850.5,-55 2850.5,-74"/>
<text text-anchor="middle" x="2805" y="-62" font-family="Helvetica,sans-Serif" font-size="10.00">cp2k_gth&#45;basis.c</text>
</a>
</g>
</g>
<!-- Node2&#45;&gt;Node71 -->
<g id="edge44" class="edge">
<title>Node2&#45;&gt;Node71</title>
<path fill="none" stroke="#63b8ff" d="M1935.73,-117.91C2054.07,-115.71 2435.92,-106.4 2750,-74 2752.98,-73.69 2756.04,-73.34 2759.13,-72.94"/>
<polygon fill="#63b8ff" stroke="#63b8ff" points="1935.93,-114.4 1926,-118.08 1936.06,-121.4 1935.93,-114.4"/>
</g>
<!-- Node72 -->
<g id="node40" class="node">
<title>Node72</title>
<g id="a_node40"><a xlink:href="../../de/d92/cp2k__init_8c.html" target="_top" xlink:title=" ">
<polygon fill="white" stroke="#666666" points="2933,-74 2869,-74 2869,-55 2933,-55 2933,-74"/>
<text text-anchor="middle" x="2901" y="-62" font-family="Helvetica,sans-Serif" font-size="10.00">cp2k_init.c</text>
</a>
</g>
</g>
<!-- Node2&#45;&gt;Node72 -->
<g id="edge45" class="edge">
<title>Node2&#45;&gt;Node72</title>
<path fill="none" stroke="#63b8ff" d="M1935.74,-118.82C2063.67,-119.5 2501.28,-118.22 2859,-74 2862.1,-73.62 2865.31,-73.13 2868.52,-72.59"/>
<polygon fill="#63b8ff" stroke="#63b8ff" points="1935.87,-115.32 1925.85,-118.76 1935.83,-122.32 1935.87,-115.32"/>
</g>
<!-- Node73 -->
<g id="node41" class="node">
<title>Node73</title>
<g id="a_node41"><a xlink:href="../../d5/d8d/cp2k__mol_8c.html" target="_top" xlink:title=" ">
<polygon fill="white" stroke="#666666" points="3018.5,-74 2951.5,-74 2951.5,-55 3018.5,-55 3018.5,-74"/>
<text text-anchor="middle" x="2985" y="-62" font-family="Helvetica,sans-Serif" font-size="10.00">cp2k_mol.c</text>
</a>
</g>
</g>
<!-- Node2&#45;&gt;Node73 -->
<g id="edge46" class="edge">
<title>Node2&#45;&gt;Node73</title>
<path fill="none" stroke="#63b8ff" d="M1935.33,-118.95C2069.53,-120.18 2549.82,-120.85 2942,-74 2945.02,-73.64 2948.15,-73.18 2951.28,-72.67"/>
<polygon fill="#63b8ff" stroke="#63b8ff" points="1935.69,-115.45 1925.65,-118.85 1935.62,-122.45 1935.69,-115.45"/>
</g>
<!-- Node74 -->
<g id="node42" class="node">
<title>Node74</title>
<g id="a_node42"><a xlink:href="../../da/d91/cp2k__molopt-basis_8c.html" target="_top" xlink:title=" ">
<polygon fill="white" stroke="#666666" points="3143.5,-74 3036.5,-74 3036.5,-55 3143.5,-55 3143.5,-74"/>
<text text-anchor="middle" x="3090" y="-62" font-family="Helvetica,sans-Serif" font-size="10.00">cp2k_molopt&#45;basis.c</text>
</a>
</g>
</g>
<!-- Node2&#45;&gt;Node74 -->
<g id="edge47" class="edge">
<title>Node2&#45;&gt;Node74</title>
<path fill="none" stroke="#63b8ff" d="M1935.86,-118.31C2077.36,-117.32 2599.18,-111.22 3027,-74 3029.97,-73.74 3033.01,-73.44 3036.08,-73.12"/>
<polygon fill="#63b8ff" stroke="#63b8ff" points="1935.96,-114.81 1925.98,-118.38 1936.01,-121.81 1935.96,-114.81"/>
</g>
<!-- Node75 -->
<g id="node43" class="node">
<title>Node75</title>
<g id="a_node43"><a xlink:href="../../d3/dcb/cp2k__pot_8c.html" target="_top" xlink:title=" ">
<polygon fill="white" stroke="#666666" points="3226.5,-74 3161.5,-74 3161.5,-55 3226.5,-55 3226.5,-74"/>
<text text-anchor="middle" x="3194" y="-62" font-family="Helvetica,sans-Serif" font-size="10.00">cp2k_pot.c</text>
</a>
</g>
</g>
<!-- Node2&#45;&gt;Node75 -->
<g id="edge48" class="edge">
<title>Node2&#45;&gt;Node75</title>
<path fill="none" stroke="#63b8ff" d="M1935.8,-118.01C2116.11,-115.48 2907.4,-102.9 3152,-74 3154.96,-73.65 3158.01,-73.2 3161.07,-72.7"/>
<polygon fill="#63b8ff" stroke="#63b8ff" points="1935.82,-114.51 1925.87,-118.15 1935.92,-121.51 1935.82,-114.51"/>
</g>
<!-- Node76 -->
<g id="node44" class="node">
<title>Node76</title>
<g id="a_node44"><a xlink:href="../../dc/d4a/cp2k__print_8c.html" target="_top" xlink:title=" ">
<polygon fill="white" stroke="#666666" points="3315,-74 3245,-74 3245,-55 3315,-55 3315,-74"/>
<text text-anchor="middle" x="3280" y="-62" font-family="Helvetica,sans-Serif" font-size="10.00">cp2k_print.c</text>
</a>
</g>
</g>
<!-- Node2&#45;&gt;Node76 -->
<g id="edge49" class="edge">
<title>Node2&#45;&gt;Node76</title>
<path fill="none" stroke="#63b8ff" d="M1935.82,-118.04C2123.28,-115.57 2972.89,-102.95 3235,-74 3238.16,-73.65 3241.43,-73.2 3244.7,-72.7"/>
<polygon fill="#63b8ff" stroke="#63b8ff" points="1935.91,-114.54 1925.96,-118.17 1936,-121.54 1935.91,-114.54"/>
</g>
<!-- Node77 -->
<g id="node45" class="node">
<title>Node77</title>
<g id="a_node45"><a xlink:href="../../d6/d03/cpmd__atoms_8c.html" target="_top" xlink:title=" ">
<polygon fill="white" stroke="#666666" points="3414.5,-74 3333.5,-74 3333.5,-55 3414.5,-55 3414.5,-74"/>
<text text-anchor="middle" x="3374" y="-62" font-family="Helvetica,sans-Serif" font-size="10.00">cpmd_atoms.c</text>
</a>
</g>
</g>
<!-- Node2&#45;&gt;Node77 -->
<g id="edge50" class="edge">
<title>Node2&#45;&gt;Node77</title>
<path fill="none" stroke="#63b8ff" d="M1935.77,-118.04C2130.48,-115.47 3042.96,-102.14 3324,-74 3326.98,-73.7 3330.05,-73.33 3333.13,-72.92"/>
<polygon fill="#63b8ff" stroke="#63b8ff" points="1935.96,-114.53 1926.01,-118.16 1936.05,-121.53 1935.96,-114.53"/>
</g>
<!-- Node78 -->
<g id="node46" class="node">
<title>Node78</title>
<g id="a_node46"><a xlink:href="../../dd/dc0/cpmd__init_8c.html" target="_top" xlink:title=" ">
<polygon fill="white" stroke="#666666" points="3499.5,-74 3432.5,-74 3432.5,-55 3499.5,-55 3499.5,-74"/>
<text text-anchor="middle" x="3466" y="-62" font-family="Helvetica,sans-Serif" font-size="10.00">cpmd_init.c</text>
</a>
</g>
</g>
<!-- Node2&#45;&gt;Node78 -->
<g id="edge51" class="edge">
<title>Node2&#45;&gt;Node78</title>
<path fill="none" stroke="#63b8ff" d="M1935.72,-118.26C2138.33,-116.78 3121.57,-107.95 3423,-74 3426.02,-73.66 3429.15,-73.22 3432.28,-72.71"/>
<polygon fill="#63b8ff" stroke="#63b8ff" points="1935.78,-114.75 1925.8,-118.33 1935.83,-121.75 1935.78,-114.75"/>
</g>
<!-- Node79 -->
<g id="node47" class="node">
<title>Node79</title>
<g id="a_node47"><a xlink:href="../../d6/dc0/cpmd__nose_8c.html" target="_top" xlink:title=" ">
<polygon fill="white" stroke="#666666" points="3592.5,-74 3517.5,-74 3517.5,-55 3592.5,-55 3592.5,-74"/>
<text text-anchor="middle" x="3555" y="-62" font-family="Helvetica,sans-Serif" font-size="10.00">cpmd_nose.c</text>
</a>
</g>
</g>
<!-- Node2&#45;&gt;Node79 -->
<g id="edge52" class="edge">
<title>Node2&#45;&gt;Node79</title>
<path fill="none" stroke="#63b8ff" d="M1935.75,-118.24C2145.03,-116.64 3188.46,-107.12 3508,-74 3510.97,-73.69 3514.03,-73.3 3517.11,-72.86"/>
<polygon fill="#63b8ff" stroke="#63b8ff" points="1935.73,-114.74 1925.76,-118.31 1935.78,-121.74 1935.73,-114.74"/>
</g>
<!-- Node80 -->
<g id="node48" class="node">
<title>Node80</title>
<g id="a_node48"><a xlink:href="../../d1/dcc/cpmd__print_8c.html" target="_top" xlink:title=" ">
<polygon fill="white" stroke="#666666" points="3683.5,-74 3610.5,-74 3610.5,-55 3683.5,-55 3683.5,-74"/>
<text text-anchor="middle" x="3647" y="-62" font-family="Helvetica,sans-Serif" font-size="10.00">cpmd_print.c</text>
</a>
</g>
</g>
<!-- Node2&#45;&gt;Node80 -->
<g id="edge53" class="edge">
<title>Node2&#45;&gt;Node80</title>
<path fill="none" stroke="#63b8ff" d="M1935.5,-118.34C2151.32,-117.3 3262.68,-110.24 3602,-74 3604.69,-73.71 3607.46,-73.35 3610.23,-72.94"/>
<polygon fill="#63b8ff" stroke="#63b8ff" points="1935.72,-114.84 1925.74,-118.39 1935.76,-121.84 1935.72,-114.84"/>
</g>
<!-- Node81 -->
<g id="node49" class="node">
<title>Node81</title>
<g id="a_node49"><a xlink:href="../../db/d6f/cpmd__restart_8c.html" target="_top" xlink:title=" ">
<polygon fill="white" stroke="#666666" points="3784,-74 3702,-74 3702,-55 3784,-55 3784,-74"/>
<text text-anchor="middle" x="3743" y="-62" font-family="Helvetica,sans-Serif" font-size="10.00">cpmd_restart.c</text>
</a>
</g>
</g>
<!-- Node2&#45;&gt;Node81 -->
<g id="edge54" class="edge">
<title>Node2&#45;&gt;Node81</title>
<path fill="none" stroke="#63b8ff" d="M1935.67,-118.31C2158.59,-117.04 3334.26,-108.76 3693,-74 3695.8,-73.73 3698.69,-73.39 3701.59,-73.01"/>
<polygon fill="#63b8ff" stroke="#63b8ff" points="1935.83,-114.81 1925.85,-118.36 1935.87,-121.81 1935.83,-114.81"/>
</g>
<!-- Node2&#45;&gt;Node186 -->
<g id="edge56" class="edge">
<title>Node2&#45;&gt;Node186</title>
<path fill="none" stroke="#63b8ff" d="M1935.72,-118.07C2200.71,-114.91 3816.4,-94.92 4033,-74 4035.84,-73.73 4038.76,-73.38 4041.69,-72.99"/>
<polygon fill="#63b8ff" stroke="#63b8ff" points="1935.94,-114.57 1925.98,-118.18 1936.02,-121.57 1935.94,-114.57"/>
</g>
<!-- Node8&#45;&gt;Node19 -->
<g id="edge8" class="edge">
<title>Node8&#45;&gt;Node19</title>
<path fill="none" stroke="#63b8ff" d="M224,-43.35C224,-35.1 224,-25.97 224,-19.44"/>
<polygon fill="#63b8ff" stroke="#63b8ff" points="220.5,-43.23 224,-53.23 227.5,-43.23 220.5,-43.23"/>
</g>
<!-- Node33&#45;&gt;Node31 -->
<g id="edge16" class="edge">
<title>Node33&#45;&gt;Node31</title>
<path fill="none" stroke="#63b8ff" d="M651.6,-50.73C624.06,-41.06 586.92,-28.02 562.49,-19.45"/>
<polygon fill="#63b8ff" stroke="#63b8ff" points="650.36,-54 660.96,-54.01 652.68,-47.39 650.36,-54"/>
</g>
<!-- Node33&#45;&gt;Node32 -->
<g id="edge17" class="edge">
<title>Node33&#45;&gt;Node32</title>
<path fill="none" stroke="#63b8ff" d="M670.37,-46.81C660.76,-37.72 649.25,-26.82 641.36,-19.36"/>
<polygon fill="#63b8ff" stroke="#63b8ff" points="667.73,-49.14 677.4,-53.47 672.54,-44.05 667.73,-49.14"/>
</g>
<!-- Node33&#45;&gt;Node34 -->
<g id="edge18" class="edge">
<title>Node33&#45;&gt;Node34</title>
<path fill="none" stroke="#63b8ff" d="M699.47,-45.08C704.88,-36.4 711.08,-26.44 715.43,-19.44"/>
<polygon fill="#63b8ff" stroke="#63b8ff" points="696.56,-43.12 694.25,-53.46 702.51,-46.82 696.56,-43.12"/>
</g>
<!-- Node33&#45;&gt;Node35 -->
<g id="edge19" class="edge">
<title>Node33&#45;&gt;Node35</title>
<path fill="none" stroke="#63b8ff" d="M718.72,-49.93C740.49,-40.32 769.05,-27.7 787.94,-19.36"/>
<polygon fill="#63b8ff" stroke="#63b8ff" points="717.47,-46.66 709.74,-53.9 720.3,-53.06 717.47,-46.66"/>
</g>
<!-- Node41&#45;&gt;Node42 -->
<g id="edge24" class="edge">
<title>Node41&#45;&gt;Node42</title>
<path fill="none" stroke="#63b8ff" d="M933.68,-44.5C929.49,-35.96 924.74,-26.28 921.39,-19.44"/>
<polygon fill="#63b8ff" stroke="#63b8ff" points="930.49,-45.95 938.04,-53.39 936.78,-42.87 930.49,-45.95"/>
</g>
<!-- Node49&#45;&gt;Node19 -->
<g id="edge26" class="edge">
<title>Node49&#45;&gt;Node19</title>
<path fill="none" stroke="#63b8ff" d="M283.45,-48.46C268.73,-39.06 250.28,-27.28 237.87,-19.36"/>
<polygon fill="#63b8ff" stroke="#63b8ff" points="281.33,-51.26 291.64,-53.69 285.1,-45.36 281.33,-51.26"/>
</g>
</g>
</svg>
        <g id="navigator" transform="translate(0 0)" fill="#404254">
                <rect fill="#f2f5e9" fill-opacity="0.5" stroke="#606060" stroke-width=".5" x="0" y="0" width="60" height="60"/>
                <use id="zoomplus" xlink:href="#zoomPlus" x="17" y="9" onmousedown="handleZoom(evt,'in')"/>
                <use id="zoomminus" xlink:href="#zoomMin" x="42" y="9" onmousedown="handleZoom(evt,'out')"/>
                <use id="reset" xlink:href="#resetDef" x="30" y="36" onmousedown="handleReset()"/>
                <g id="arrowUp" xlink:href="#dirArrow" transform="translate(30 24)" onmousedown="handlePan(0,-1)">
                  <use xlink:href="#rim" fill="#404040">
                        <set attributeName="fill" to="#808080" begin="arrowUp.mouseover" end="arrowUp.mouseout"/>
                  </use>
                  <path fill="none" stroke="white" stroke-width="1.5" d="M0,-3.0v7 M-2.5,-0.5L0,-3.0L2.5,-0.5"/>
                </g>
                <g id="arrowRight" xlink:href="#dirArrow" transform="rotate(90) translate(36 -43)" onmousedown="handlePan(1,0)">
                  <use xlink:href="#rim" fill="#404040">
                        <set attributeName="fill" to="#808080" begin="arrowRight.mouseover" end="arrowRight.mouseout"/>
                  </use>
                  <path fill="none" stroke="white" stroke-width="1.5" d="M0,-3.0v7 M-2.5,-0.5L0,-3.0L2.5,-0.5"/>
                </g>
                <g id="arrowDown" xlink:href="#dirArrow" transform="rotate(180) translate(-30 -48)" onmousedown="handlePan(0,1)">
                  <use xlink:href="#rim" fill="#404040">
                        <set attributeName="fill" to="#808080" begin="arrowDown.mouseover" end="arrowDown.mouseout"/>
                  </use>
                  <path fill="none" stroke="white" stroke-width="1.5" d="M0,-3.0v7 M-2.5,-0.5L0,-3.0L2.5,-0.5"/>
                </g>
                <g id="arrowLeft" xlink:href="#dirArrow" transform="rotate(270) translate(-36 17)" onmousedown="handlePan(-1,0)">
                  <use xlink:href="#rim" fill="#404040">
                        <set attributeName="fill" to="#808080" begin="arrowLeft.mouseover" end="arrowLeft.mouseout"/>
                  </use>
                  <path fill="none" stroke="white" stroke-width="1.5" d="M0,-3.0v7 M-2.5,-0.5L0,-3.0L2.5,-0.5"/>
                </g>
        </g>
        <svg viewBox="0 0 15 15" width="100%" height="30px" preserveAspectRatio="xMaxYMin meet">
         <g id="arrow_out" transform="scale(0.3 0.3)">
          <a xlink:href="glwin_8h__dep__incl_org.svg" target="_base">
           <rect id="button" ry="5" rx="5" y="6" x="6" height="38" width="38"
                fill="#f2f5e9" fill-opacity="0.5" stroke="#606060" stroke-width="1.0"/>
           <path id="arrow"
             d="M 11.500037,31.436501 C 11.940474,20.09759 22.043105,11.32322 32.158766,21.979434 L 37.068811,17.246167 C 37.068811,17.246167 37.088388,32 37.088388,32 L 22.160133,31.978069 C 22.160133,31.978069 26.997745,27.140456 26.997745,27.140456 C 18.528582,18.264221 13.291696,25.230495 11.500037,31.436501 z"
             style="fill:#404040;"/>
          </a>
         </g>
        </svg>
</svg>
