<?xml version="1.0" encoding="UTF-8" standalone="no"?>
<!DOCTYPE svg PUBLIC "-//W3C//DTD SVG 1.1//EN"
 "http://www.w3.org/Graphics/SVG/1.1/DTD/svg11.dtd">
<!-- Generated by graphviz version 9.0.0 (20230911.1827)
 -->
<!-- Title: calc/calc.h Pages: 1 -->
<!--zoomable 84 -->

<svg id="main" version="1.1" xmlns="http://www.w3.org/2000/svg" xmlns:xlink="http://www.w3.org/1999/xlink" xml:space="preserve" onload="init(evt)">
<style type="text/css"><![CDATA[
.node, .edge {opacity: 0.7;}
.node.selected, .edge.selected {opacity: 1;}
.edge:hover path { stroke: red; }
.edge:hover polygon { stroke: red; fill: red; }
]]></style>

<defs>
  <circle id="rim" cx="0" cy="0" r="7"/>
  <circle id="rim2" cx="0" cy="0" r="3.5"/>
  <g id="zoomPlus">
    <use xlink:href="#rim" fill="#404040"><set attributeName="fill" to="#808080" begin="zoomplus.mouseover" end="zoomplus.mouseout"/></use>
    <path d="M-4,0h8M0,-4v8" fill="none" stroke="white" stroke-width="1.5" pointer-events="none"/>
  </g>
  <g id="zoomMin">
    <use xlink:href="#rim" fill="#404040"><set attributeName="fill" to="#808080" begin="zoomminus.mouseover" end="zoomminus.mouseout"/></use>
    <path d="M-4,0h8" fill="none" stroke="white" stroke-width="1.5" pointer-events="none"/>
  </g>
  <g id="arrowUp" transform="translate(30 24)">
    <use xlink:href="#rim"/>
    <path pointer-events="none" fill="none" stroke="white" stroke-width="1.5" d="M0,-3.0v7 M-2.5,-0.5L0,-3.0L2.5,-0.5"/>
  </g>
  <g id="arrowRight" transform="rotate(90) translate(36 -43)">
    <use xlink:href="#rim"/>
    <path pointer-events="none" fill="none" stroke="white" stroke-width="1.5" d="M0,-3.0v7 M-2.5,-0.5L0,-3.0L2.5,-0.5"/>
  </g>
  <g id="arrowDown" transform="rotate(180) translate(-30 -48)">
    <use xlink:href="#rim"/>
    <path pointer-events="none" fill="none" stroke="white" stroke-width="1.5" d="M0,-3.0v7 M-2.5,-0.5L0,-3.0L2.5,-0.5"/>
  </g>
  <g id="arrowLeft" transform="rotate(270) translate(-36 17)">
    <use xlink:href="#rim"/>
    <path pointer-events="none" fill="none" stroke="white" stroke-width="1.5" d="M0,-3.0v7 M-2.5,-0.5L0,-3.0L2.5,-0.5"/>
  </g>
  <g id="resetDef">
    <use xlink:href="#rim2" fill="#404040"><set attributeName="fill" to="#808080" begin="reset.mouseover" end="reset.mouseout"/></use>
  </g>
</defs>
<script type="application/ecmascript">
var viewWidth = 2011;
var viewHeight = 84;
var sectionId = 'dynsection-0';
</script>
<script type="application/ecmascript" xlink:href="../../svg.min.js"/>
<svg id="graph" class="graph">
<g id="viewport">
<title>calc/calc.h</title>
<!-- Node1 -->
<g id="Node000001" class="node">
<title>Node1</title>
<g id="a_Node000001"><a xlink:title="Variable declarations for the MD input preparation assistants.">
<polygon fill="#999999" stroke="#666666" points="1029.38,-76 966.12,-76 966.12,-56 1029.38,-56 1029.38,-76"/>
<text text-anchor="middle" x="997.75" y="-62.5" font-family="Helvetica,sans-Serif" font-size="10.00">calc/calc.h</text>
</a>
</g>
</g>
<!-- Node2 -->
<g id="Node000002" class="node">
<title>Node2</title>
<g id="a_Node000002"><a xlink:href="../../d0/da4/cp2k__files_8c.html" target="_top" xlink:title="Functions to handle CP2K basis sets and pseudopotentials.">
<polygon fill="white" stroke="#666666" points="113.5,-20 0,-20 0,0 113.5,0 113.5,-20"/>
<text text-anchor="middle" x="56.75" y="-6.5" font-family="Helvetica,sans-Serif" font-size="10.00">calc/cp2k/cp2k_files.c</text>
</a>
</g>
</g>
<!-- Node1&#45;&gt;Node2 -->
<g id="edge1_Node000001_Node000002" class="edge">
<title>Node1&#45;&gt;Node2</title>
<g id="a_edge1_Node000001_Node000002"><a xlink:title=" ">
<path fill="none" stroke="#63b8ff" d="M954.74,-64.07C827.42,-61.04 441.44,-49.87 122.75,-20 119.87,-19.73 116.93,-19.43 113.95,-19.1"/>
<polygon fill="#63b8ff" stroke="#63b8ff" points="954.3,-67.56 964.38,-64.29 954.47,-60.56 954.3,-67.56"/>
</a>
</g>
</g>
<!-- Node3 -->
<g id="Node000003" class="node">
<title>Node3</title>
<g id="a_Node000003"><a xlink:href="../../de/d92/cp2k__init_8c.html" target="_top" xlink:title="Initialization of the CP2K input assistant.">
<polygon fill="white" stroke="#666666" points="239.88,-20 131.62,-20 131.62,0 239.88,0 239.88,-20"/>
<text text-anchor="middle" x="185.75" y="-6.5" font-family="Helvetica,sans-Serif" font-size="10.00">calc/cp2k/cp2k_init.c</text>
</a>
</g>
</g>
<!-- Node1&#45;&gt;Node3 -->
<g id="edge2_Node000001_Node000003" class="edge">
<title>Node1&#45;&gt;Node3</title>
<g id="a_edge2_Node000001_Node000003"><a xlink:title=" ">
<path fill="none" stroke="#63b8ff" d="M954.49,-63.64C839.43,-59.76 516.31,-47.1 248.75,-20 246,-19.72 243.19,-19.41 240.35,-19.08"/>
<polygon fill="#63b8ff" stroke="#63b8ff" points="954.29,-67.14 964.41,-63.97 954.53,-60.14 954.29,-67.14"/>
</a>
</g>
</g>
<!-- Node4 -->
<g id="Node000004" class="node">
<title>Node4</title>
<g id="a_Node000004"><a xlink:href="../../d5/d8d/cp2k__mol_8c.html" target="_top" xlink:title="Functions to fix fragment(s) when creating the CP2K input file.">
<polygon fill="white" stroke="#666666" points="369.38,-20 258.12,-20 258.12,0 369.38,0 369.38,-20"/>
<text text-anchor="middle" x="313.75" y="-6.5" font-family="Helvetica,sans-Serif" font-size="10.00">calc/cp2k/cp2k_mol.c</text>
</a>
</g>
</g>
<!-- Node1&#45;&gt;Node4 -->
<g id="edge3_Node000001_Node000004" class="edge">
<title>Node1&#45;&gt;Node4</title>
<g id="a_edge3_Node000001_Node000004"><a xlink:title=" ">
<path fill="none" stroke="#63b8ff" d="M954.56,-62.83C853.61,-57.54 594.43,-42.75 378.75,-20 375.8,-19.69 372.79,-19.35 369.74,-18.99"/>
<polygon fill="#63b8ff" stroke="#63b8ff" points="954.11,-66.31 964.28,-63.33 954.48,-59.32 954.11,-66.31"/>
</a>
</g>
</g>
<!-- Node5 -->
<g id="Node000005" class="node">
<title>Node5</title>
<g id="a_Node000005"><a xlink:href="../../dc/d4a/cp2k__print_8c.html" target="_top" xlink:title="Functions to print the CP2K input file(s)">
<polygon fill="white" stroke="#666666" points="501.88,-20 387.62,-20 387.62,0 501.88,0 501.88,-20"/>
<text text-anchor="middle" x="444.75" y="-6.5" font-family="Helvetica,sans-Serif" font-size="10.00">calc/cp2k/cp2k_print.c</text>
</a>
</g>
</g>
<!-- Node1&#45;&gt;Node5 -->
<g id="edge4_Node000001_Node000005" class="edge">
<title>Node1&#45;&gt;Node5</title>
<g id="a_edge4_Node000001_Node000005"><a xlink:title=" ">
<path fill="none" stroke="#63b8ff" d="M954.53,-61.64C869.46,-54.89 674.31,-38.7 510.75,-20 507.99,-19.68 505.17,-19.35 502.32,-19"/>
<polygon fill="#63b8ff" stroke="#63b8ff" points="954.04,-65.11 964.28,-62.41 954.59,-58.13 954.04,-65.11"/>
</a>
</g>
</g>
<!-- Node6 -->
<g id="Node000006" class="node">
<title>Node6</title>
<g id="a_Node000006"><a xlink:href="../../d6/d03/cpmd__atoms_8c.html" target="_top" xlink:title="Functions to handle dummy atom(s) for the CPMD input file.">
<polygon fill="white" stroke="#666666" points="648,-20 519.5,-20 519.5,0 648,0 648,-20"/>
<text text-anchor="middle" x="583.75" y="-6.5" font-family="Helvetica,sans-Serif" font-size="10.00">calc/cpmd/cpmd_atoms.c</text>
</a>
</g>
</g>
<!-- Node1&#45;&gt;Node6 -->
<g id="edge5_Node000001_Node000006" class="edge">
<title>Node1&#45;&gt;Node6</title>
<g id="a_edge5_Node000001_Node000006"><a xlink:title=" ">
<path fill="none" stroke="#63b8ff" d="M954.93,-59.42C882.11,-49.92 733.74,-30.56 648.28,-19.42"/>
<polygon fill="#63b8ff" stroke="#63b8ff" points="954.08,-62.83 964.45,-60.66 954.99,-55.89 954.08,-62.83"/>
</a>
</g>
</g>
<!-- Node7 -->
<g id="Node000007" class="node">
<title>Node7</title>
<g id="a_Node000007"><a xlink:href="../../dd/dc0/cpmd__init_8c.html" target="_top" xlink:title="Functions to initialize the QM / QM&#45;MM input file creation assistant.">
<polygon fill="white" stroke="#666666" points="779.88,-20 665.62,-20 665.62,0 779.88,0 779.88,-20"/>
<text text-anchor="middle" x="722.75" y="-6.5" font-family="Helvetica,sans-Serif" font-size="10.00">calc/cpmd/cpmd_init.c</text>
</a>
</g>
</g>
<!-- Node1&#45;&gt;Node7 -->
<g id="edge6_Node000001_Node000007" class="edge">
<title>Node1&#45;&gt;Node7</title>
<g id="a_edge6_Node000001_Node000007"><a xlink:title=" ">
<path fill="none" stroke="#63b8ff" d="M954.61,-56.53C904.68,-46.72 822.67,-30.62 770.76,-20.43"/>
<polygon fill="#63b8ff" stroke="#63b8ff" points="953.69,-59.92 964.18,-58.41 955.04,-53.05 953.69,-59.92"/>
</a>
</g>
</g>
<!-- Node8 -->
<g id="Node000008" class="node">
<title>Node8</title>
<g id="a_Node000008"><a xlink:href="../../d6/dc0/cpmd__nose_8c.html" target="_top" xlink:title="Functions to prepare the thermostat(s) configuration widgets for QM / QM&#45;MM input files.">
<polygon fill="white" stroke="#666666" points="920,-20 797.5,-20 797.5,0 920,0 920,-20"/>
<text text-anchor="middle" x="858.75" y="-6.5" font-family="Helvetica,sans-Serif" font-size="10.00">calc/cpmd/cpmd_nose.c</text>
</a>
</g>
</g>
<!-- Node1&#45;&gt;Node8 -->
<g id="edge7_Node000001_Node000008" class="edge">
<title>Node1&#45;&gt;Node8</title>
<g id="a_edge7_Node000001_Node000008"><a xlink:title=" ">
<path fill="none" stroke="#63b8ff" d="M963.08,-51.53C938.21,-41.87 905.3,-29.08 883.15,-20.48"/>
<polygon fill="#63b8ff" stroke="#63b8ff" points="961.54,-54.69 972.13,-55.05 964.07,-48.16 961.54,-54.69"/>
</a>
</g>
</g>
<!-- Node9 -->
<g id="Node000009" class="node">
<title>Node9</title>
<g id="a_Node000009"><a xlink:href="../../d1/dcc/cpmd__print_8c.html" target="_top" xlink:title="Functions to print the CPMD input file(s)">
<polygon fill="white" stroke="#666666" points="1057.88,-20 937.62,-20 937.62,0 1057.88,0 1057.88,-20"/>
<text text-anchor="middle" x="997.75" y="-6.5" font-family="Helvetica,sans-Serif" font-size="10.00">calc/cpmd/cpmd_print.c</text>
</a>
</g>
</g>
<!-- Node1&#45;&gt;Node9 -->
<g id="edge8_Node000001_Node000009" class="edge">
<title>Node1&#45;&gt;Node9</title>
<g id="a_edge8_Node000001_Node000009"><a xlink:title=" ">
<path fill="none" stroke="#63b8ff" d="M997.75,-44.13C997.75,-35.9 997.75,-26.85 997.75,-20.3"/>
<polygon fill="#63b8ff" stroke="#63b8ff" points="994.25,-44.08 997.75,-54.08 1001.25,-44.08 994.25,-44.08"/>
</a>
</g>
</g>
<!-- Node10 -->
<g id="Node000010" class="node">
<title>Node10</title>
<g id="a_Node000010"><a xlink:href="../../db/d6f/cpmd__restart_8c.html" target="_top" xlink:title="Functions to configure the restart section for the CPMD input file creation assistant.">
<polygon fill="white" stroke="#666666" points="1205.38,-20 1076.12,-20 1076.12,0 1205.38,0 1205.38,-20"/>
<text text-anchor="middle" x="1140.75" y="-6.5" font-family="Helvetica,sans-Serif" font-size="10.00">calc/cpmd/cpmd_restart.c</text>
</a>
</g>
</g>
<!-- Node1&#45;&gt;Node10 -->
<g id="edge9_Node000001_Node000010" class="edge">
<title>Node1&#45;&gt;Node10</title>
<g id="a_edge9_Node000001_Node000010"><a xlink:title=" ">
<path fill="none" stroke="#63b8ff" d="M1033.41,-51.53C1059.01,-41.87 1092.86,-29.08 1115.65,-20.48"/>
<polygon fill="#63b8ff" stroke="#63b8ff" points="1032.19,-48.25 1024.07,-55.06 1034.67,-54.8 1032.19,-48.25"/>
</a>
</g>
</g>
<!-- Node11 -->
<g id="Node000011" class="node">
<title>Node11</title>
<g id="a_Node000011"><a xlink:href="../../d2/da2/dlp__atom_8c.html" target="_top" xlink:title="Functions to handle atom selection(s) when creating a force field &#160;&#160;Functions to remove / add field a...">
<polygon fill="white" stroke="#666666" points="1342.12,-20 1223.38,-20 1223.38,0 1342.12,0 1342.12,-20"/>
<text text-anchor="middle" x="1282.75" y="-6.5" font-family="Helvetica,sans-Serif" font-size="10.00">calc/dl_poly/dlp_atom.c</text>
</a>
</g>
</g>
<!-- Node1&#45;&gt;Node11 -->
<g id="edge10_Node000001_Node000011" class="edge">
<title>Node1&#45;&gt;Node11</title>
<g id="a_edge10_Node000001_Node000011"><a xlink:title=" ">
<path fill="none" stroke="#63b8ff" d="M1040.67,-56.87C1092.14,-47.12 1178.26,-30.8 1232.7,-20.48"/>
<polygon fill="#63b8ff" stroke="#63b8ff" points="1040.27,-53.38 1031.1,-58.68 1041.58,-60.26 1040.27,-53.38"/>
</a>
</g>
</g>
<!-- Node12 -->
<g id="Node000012" class="node">
<title>Node12</title>
<g id="a_Node000012"><a xlink:href="../../d4/d28/dlp__edit_8c.html" target="_top" xlink:title="Functions to edit DL&#45;POLY force field parameters.">
<polygon fill="white" stroke="#666666" points="1473.12,-20 1360.38,-20 1360.38,0 1473.12,0 1473.12,-20"/>
<text text-anchor="middle" x="1416.75" y="-6.5" font-family="Helvetica,sans-Serif" font-size="10.00">calc/dl_poly/dlp_edit.c</text>
</a>
</g>
</g>
<!-- Node1&#45;&gt;Node12 -->
<g id="edge11_Node000001_Node000012" class="edge">
<title>Node1&#45;&gt;Node12</title>
<g id="a_edge11_Node000001_Node000012"><a xlink:title=" ">
<path fill="none" stroke="#63b8ff" d="M1040.65,-59.65C1107.11,-51.34 1238.94,-34.75 1350.75,-20 1353.85,-19.59 1357.02,-19.17 1360.23,-18.74"/>
<polygon fill="#63b8ff" stroke="#63b8ff" points="1040.4,-56.16 1030.91,-60.87 1041.26,-63.1 1040.4,-56.16"/>
</a>
</g>
</g>
<!-- Node13 -->
<g id="Node000013" class="node">
<title>Node13</title>
<g id="a_Node000013"><a xlink:href="../../d3/d43/dlp__field_8c.html" target="_top" xlink:title="Functions to prepare the DL&#45;POLY / LAMMPS input preparation assistant &#160;&#160;Functions to design a classic...">
<polygon fill="white" stroke="#666666" points="1606.25,-20 1491.25,-20 1491.25,0 1606.25,0 1606.25,-20"/>
<text text-anchor="middle" x="1548.75" y="-6.5" font-family="Helvetica,sans-Serif" font-size="10.00">calc/dl_poly/dlp_field.c</text>
</a>
</g>
</g>
<!-- Node1&#45;&gt;Node13 -->
<g id="edge12_Node000001_Node000013" class="edge">
<title>Node1&#45;&gt;Node13</title>
<g id="a_edge12_Node000001_Node000013"><a xlink:title=" ">
<path fill="none" stroke="#63b8ff" d="M1041.27,-61.55C1126.12,-54.7 1319.55,-38.43 1481.75,-20 1484.78,-19.66 1487.89,-19.29 1491.03,-18.91"/>
<polygon fill="#63b8ff" stroke="#63b8ff" points="1040.99,-58.06 1031.3,-62.35 1041.55,-65.04 1040.99,-58.06"/>
</a>
</g>
</g>
<!-- Node14 -->
<g id="Node000014" class="node">
<title>Node14</title>
<g id="a_Node000014"><a xlink:href="../../d7/d6f/dlp__mol_8c.html" target="_top" xlink:title="Functions to add / remove molecule(s) to / from the force field.">
<polygon fill="white" stroke="#666666" points="1737.12,-20 1624.38,-20 1624.38,0 1737.12,0 1737.12,-20"/>
<text text-anchor="middle" x="1680.75" y="-6.5" font-family="Helvetica,sans-Serif" font-size="10.00">calc/dl_poly/dlp_mol.c</text>
</a>
</g>
</g>
<!-- Node1&#45;&gt;Node14 -->
<g id="edge13_Node000001_Node000014" class="edge">
<title>Node1&#45;&gt;Node14</title>
<g id="a_edge13_Node000001_Node000014"><a xlink:title=" ">
<path fill="none" stroke="#63b8ff" d="M1040.87,-62.83C1141.65,-57.53 1400.42,-42.72 1615.75,-20 1618.47,-19.71 1621.25,-19.4 1624.06,-19.07"/>
<polygon fill="#63b8ff" stroke="#63b8ff" points="1040.97,-59.32 1031.17,-63.33 1041.34,-66.31 1040.97,-59.32"/>
</a>
</g>
</g>
<!-- Node15 -->
<g id="Node000015" class="node">
<title>Node15</title>
<g id="a_Node000015"><a xlink:href="../../d7/dc8/glwindow_8c.html" target="_top" xlink:title="Functions to create a project OpenGL window.">
<polygon fill="white" stroke="#666666" points="1868.5,-20 1755,-20 1755,0 1868.5,0 1868.5,-20"/>
<text text-anchor="middle" x="1811.75" y="-6.5" font-family="Helvetica,sans-Serif" font-size="10.00">opengl/win/glwindow.c</text>
</a>
</g>
</g>
<!-- Node1&#45;&gt;Node15 -->
<g id="edge14_Node000001_Node000015" class="edge">
<title>Node1&#45;&gt;Node15</title>
<g id="a_edge14_Node000001_Node000015"><a xlink:title=" ">
<path fill="none" stroke="#63b8ff" d="M1040.94,-63.54C1155.83,-59.42 1478.46,-46.23 1745.75,-20 1748.63,-19.72 1751.57,-19.4 1754.54,-19.07"/>
<polygon fill="#63b8ff" stroke="#63b8ff" points="1040.91,-60.04 1031.05,-63.89 1041.16,-67.04 1040.91,-60.04"/>
</a>
</g>
</g>
<!-- Node16 -->
<g id="Node000016" class="node">
<title>Node16</title>
<g id="a_Node000016"><a xlink:href="../../d5/dbe/menu__bar_8c.html" target="_top" xlink:title="Functions to create the menu bar of the OpenGL window &#160;&#160;Functions to create the menu items for the me...">
<polygon fill="white" stroke="#666666" points="2003,-20 1886.5,-20 1886.5,0 2003,0 2003,-20"/>
<text text-anchor="middle" x="1944.75" y="-6.5" font-family="Helvetica,sans-Serif" font-size="10.00">opengl/win/menu_bar.c</text>
</a>
</g>
</g>
<!-- Node1&#45;&gt;Node16 -->
<g id="edge15_Node000001_Node000016" class="edge">
<title>Node1&#45;&gt;Node16</title>
<g id="a_edge15_Node000001_Node000016"><a xlink:title=" ">
<path fill="none" stroke="#63b8ff" d="M1041,-64.05C1169.04,-60.97 1557.21,-49.67 1877.75,-20 1880.55,-19.74 1883.42,-19.45 1886.32,-19.14"/>
<polygon fill="#63b8ff" stroke="#63b8ff" points="1041.21,-60.54 1031.3,-64.28 1041.38,-67.54 1041.21,-60.54"/>
</a>
</g>
</g>
</g>
</svg>

<g id="navigator" transform="translate(0 0)" fill="#404254">
  <rect fill="#f2f5e9" fill-opacity="0.5" stroke="#606060" stroke-width=".5" x="0" y="0" width="60" height="60"/>
  <use id="zoomplus" xlink:href="#zoomPlus" x="17" y="9" onmousedown="handleZoom(evt,'in')"/>
  <use id="zoomminus" xlink:href="#zoomMin" x="42" y="9" onmousedown="handleZoom(evt,'out')"/>
  <use id="reset" xlink:href="#resetDef" x="30" y="36" onmousedown="handleReset()"/>
   <use id="arrowup" xlink:href="#arrowUp" x="0" y="0" onmousedown="handlePan(0,-1)"/>
  <use id="arrowright" xlink:href="#arrowRight" x="0" y="0" onmousedown="handlePan(1,0)"/>
  <use id="arrowdown" xlink:href="#arrowDown" x="0" y="0" onmousedown="handlePan(0,1)"/>
  <use id="arrowleft" xlink:href="#arrowLeft" x="0" y="0" onmousedown="handlePan(-1,0)"/>
</g>
<svg viewBox="0 0 15 15" width="100%" height="30px" preserveAspectRatio="xMaxYMin meet">
 <g id="arrow_out" transform="scale(0.3 0.3)">
  <a xlink:href="calc_8h__dep__incl_org.svg" target="_base">
   <rect id="button" ry="5" rx="5" y="6" x="6" height="38" width="38"
        fill="#f2f5e9" fill-opacity="0.5" stroke="#606060" stroke-width="1.0"/>
   <path id="arrow"
     d="M 11.500037,31.436501 C 11.940474,20.09759 22.043105,11.32322 32.158766,21.979434 L 37.068811,17.246167 C 37.068811,17.246167 37.088388,32 37.088388,32 L 22.160133,31.978069 C 22.160133,31.978069 26.997745,27.140456 26.997745,27.140456 C 18.528582,18.264221 13.291696,25.230495 11.500037,31.436501 z"
     style="fill:#404040;"/>
  </a>
 </g>
</svg>

<style type='text/css'>
<![CDATA[
[data-mouse-over-selected='false'] { opacity: 0.7; }
[data-mouse-over-selected='true']  { opacity: 1.0; }
]]>
</style>
<script type="application/ecmascript"><![CDATA[
document.addEventListener('DOMContentLoaded', (event) => {
  highlightEdges();
  highlightAdjacentNodes();
});
]]></script>
</svg>
