<?xml version="1.0" encoding="UTF-8" standalone="no"?>
<!DOCTYPE svg PUBLIC "-//W3C//DTD SVG 1.1//EN"
 "http://www.w3.org/Graphics/SVG/1.1/DTD/svg11.dtd">
<!-- Generated by graphviz version 7.1.0 (0)
 -->
<!-- Title: calc.h Pages: 1 -->
<svg width="1289pt" height="82pt"
 viewBox="0.00 0.00 1288.50 82.00" xmlns="http://www.w3.org/2000/svg" xmlns:xlink="http://www.w3.org/1999/xlink">
<g id="graph0" class="graph" transform="scale(1 1) rotate(0) translate(4 78)">
<title>calc.h</title>
<!-- Node1 -->
<g id="node1" class="node">
<title>Node1</title>
<g id="a_node1"><a xlink:title=" ">
<polygon fill="#999999" stroke="#666666" points="679,-74 636,-74 636,-55 679,-55 679,-74"/>
<text text-anchor="middle" x="657.5" y="-62" font-family="Helvetica,sans-Serif" font-size="10.00">calc.h</text>
</a>
</g>
</g>
<!-- Node2 -->
<g id="node2" class="node">
<title>Node2</title>
<g id="a_node2"><a xlink:href="../../d0/da4/cp2k__files_8c.html" target="_top" xlink:title=" ">
<polygon fill="white" stroke="#666666" points="69,-19 0,-19 0,0 69,0 69,-19"/>
<text text-anchor="middle" x="34.5" y="-7" font-family="Helvetica,sans-Serif" font-size="10.00">cp2k_files.c</text>
</a>
</g>
</g>
<!-- Node1&#45;&gt;Node2 -->
<g id="edge1" class="edge">
<title>Node1&#45;&gt;Node2</title>
<path fill="none" stroke="#63b8ff" d="M624.12,-62.27C535.11,-58.7 284.86,-46.77 78.5,-19 75.42,-18.58 72.22,-18.09 69.03,-17.56"/>
<polygon fill="#63b8ff" stroke="#63b8ff" points="623.94,-65.76 634.07,-62.66 624.22,-58.77 623.94,-65.76"/>
</g>
<!-- Node3 -->
<g id="node3" class="node">
<title>Node3</title>
<g id="a_node3"><a xlink:href="../../de/d92/cp2k__init_8c.html" target="_top" xlink:title=" ">
<polygon fill="white" stroke="#666666" points="151.5,-19 87.5,-19 87.5,0 151.5,0 151.5,-19"/>
<text text-anchor="middle" x="119.5" y="-7" font-family="Helvetica,sans-Serif" font-size="10.00">cp2k_init.c</text>
</a>
</g>
</g>
<!-- Node1&#45;&gt;Node3 -->
<g id="edge2" class="edge">
<title>Node1&#45;&gt;Node3</title>
<path fill="none" stroke="#63b8ff" d="M624.31,-61.85C544.22,-57.59 334.12,-44.68 160.5,-19 157.62,-18.57 154.64,-18.07 151.67,-17.53"/>
<polygon fill="#63b8ff" stroke="#63b8ff" points="623.91,-65.34 634.08,-62.36 624.28,-58.35 623.91,-65.34"/>
</g>
<!-- Node4 -->
<g id="node4" class="node">
<title>Node4</title>
<g id="a_node4"><a xlink:href="../../d5/d8d/cp2k__mol_8c.html" target="_top" xlink:title=" ">
<polygon fill="white" stroke="#666666" points="237,-19 170,-19 170,0 237,0 237,-19"/>
<text text-anchor="middle" x="203.5" y="-7" font-family="Helvetica,sans-Serif" font-size="10.00">cp2k_mol.c</text>
</a>
</g>
</g>
<!-- Node1&#45;&gt;Node4 -->
<g id="edge3" class="edge">
<title>Node1&#45;&gt;Node4</title>
<path fill="none" stroke="#63b8ff" d="M624.45,-60.91C554.48,-55.2 386.34,-40.35 246.5,-19 243.49,-18.54 240.37,-18.02 237.25,-17.46"/>
<polygon fill="#63b8ff" stroke="#63b8ff" points="623.82,-64.37 634.07,-61.68 624.39,-57.39 623.82,-64.37"/>
</g>
<!-- Node5 -->
<g id="node5" class="node">
<title>Node5</title>
<g id="a_node5"><a xlink:href="../../dc/d4a/cp2k__print_8c.html" target="_top" xlink:title=" ">
<polygon fill="white" stroke="#666666" points="325.5,-19 255.5,-19 255.5,0 325.5,0 325.5,-19"/>
<text text-anchor="middle" x="290.5" y="-7" font-family="Helvetica,sans-Serif" font-size="10.00">cp2k_print.c</text>
</a>
</g>
</g>
<!-- Node1&#45;&gt;Node5 -->
<g id="edge4" class="edge">
<title>Node1&#45;&gt;Node5</title>
<path fill="none" stroke="#63b8ff" d="M624.38,-59.54C565.78,-52.39 440.04,-36.45 334.5,-19 331.58,-18.52 328.56,-17.99 325.53,-17.44"/>
<polygon fill="#63b8ff" stroke="#63b8ff" points="623.66,-62.97 634,-60.7 624.5,-56.02 623.66,-62.97"/>
</g>
<!-- Node6 -->
<g id="node6" class="node">
<title>Node6</title>
<g id="a_node6"><a xlink:href="../../d6/d03/cpmd__atoms_8c.html" target="_top" xlink:title=" ">
<polygon fill="white" stroke="#666666" points="425,-19 344,-19 344,0 425,0 425,-19"/>
<text text-anchor="middle" x="384.5" y="-7" font-family="Helvetica,sans-Serif" font-size="10.00">cpmd_atoms.c</text>
</a>
</g>
</g>
<!-- Node1&#45;&gt;Node6 -->
<g id="edge5" class="edge">
<title>Node1&#45;&gt;Node6</title>
<path fill="none" stroke="#63b8ff" d="M624.5,-57.09C574.46,-47.38 479.49,-28.94 425.22,-18.41"/>
<polygon fill="#63b8ff" stroke="#63b8ff" points="623.65,-60.49 634.13,-58.96 624.99,-53.62 623.65,-60.49"/>
</g>
<!-- Node7 -->
<g id="node7" class="node">
<title>Node7</title>
<g id="a_node7"><a xlink:href="../../dd/dc0/cpmd__init_8c.html" target="_top" xlink:title=" ">
<polygon fill="white" stroke="#666666" points="510,-19 443,-19 443,0 510,0 510,-19"/>
<text text-anchor="middle" x="476.5" y="-7" font-family="Helvetica,sans-Serif" font-size="10.00">cpmd_init.c</text>
</a>
</g>
</g>
<!-- Node1&#45;&gt;Node7 -->
<g id="edge6" class="edge">
<title>Node1&#45;&gt;Node7</title>
<path fill="none" stroke="#63b8ff" d="M624.65,-53.88C591.22,-44.09 539.8,-29.04 507.17,-19.48"/>
<polygon fill="#63b8ff" stroke="#63b8ff" points="623.63,-57.23 634.21,-56.68 625.6,-50.51 623.63,-57.23"/>
</g>
<!-- Node8 -->
<g id="node8" class="node">
<title>Node8</title>
<g id="a_node8"><a xlink:href="../../d6/dc0/cpmd__nose_8c.html" target="_top" xlink:title=" ">
<polygon fill="white" stroke="#666666" points="603,-19 528,-19 528,0 603,0 603,-19"/>
<text text-anchor="middle" x="565.5" y="-7" font-family="Helvetica,sans-Serif" font-size="10.00">cpmd_nose.c</text>
</a>
</g>
</g>
<!-- Node1&#45;&gt;Node8 -->
<g id="edge7" class="edge">
<title>Node1&#45;&gt;Node8</title>
<path fill="none" stroke="#63b8ff" d="M632.33,-49C615.87,-39.52 594.9,-27.43 580.88,-19.36"/>
<polygon fill="#63b8ff" stroke="#63b8ff" points="630.17,-51.79 640.58,-53.75 633.66,-45.73 630.17,-51.79"/>
</g>
<!-- Node9 -->
<g id="node9" class="node">
<title>Node9</title>
<g id="a_node9"><a xlink:href="../../d1/dcc/cpmd__print_8c.html" target="_top" xlink:title=" ">
<polygon fill="white" stroke="#666666" points="694,-19 621,-19 621,0 694,0 694,-19"/>
<text text-anchor="middle" x="657.5" y="-7" font-family="Helvetica,sans-Serif" font-size="10.00">cpmd_print.c</text>
</a>
</g>
</g>
<!-- Node1&#45;&gt;Node9 -->
<g id="edge8" class="edge">
<title>Node1&#45;&gt;Node9</title>
<path fill="none" stroke="#63b8ff" d="M657.5,-43.35C657.5,-35.1 657.5,-25.97 657.5,-19.44"/>
<polygon fill="#63b8ff" stroke="#63b8ff" points="654,-43.23 657.5,-53.23 661,-43.23 654,-43.23"/>
</g>
<!-- Node10 -->
<g id="node10" class="node">
<title>Node10</title>
<g id="a_node10"><a xlink:href="../../db/d6f/cpmd__restart_8c.html" target="_top" xlink:title=" ">
<polygon fill="white" stroke="#666666" points="794.5,-19 712.5,-19 712.5,0 794.5,0 794.5,-19"/>
<text text-anchor="middle" x="753.5" y="-7" font-family="Helvetica,sans-Serif" font-size="10.00">cpmd_restart.c</text>
</a>
</g>
</g>
<!-- Node1&#45;&gt;Node10 -->
<g id="edge9" class="edge">
<title>Node1&#45;&gt;Node10</title>
<path fill="none" stroke="#63b8ff" d="M683.76,-49C700.94,-39.52 722.83,-27.43 737.46,-19.36"/>
<polygon fill="#63b8ff" stroke="#63b8ff" points="682.17,-45.88 675.11,-53.78 685.56,-52.01 682.17,-45.88"/>
</g>
<!-- Node11 -->
<g id="node11" class="node">
<title>Node11</title>
<g id="a_node11"><a xlink:href="../../d2/da2/dlp__atom_8c.html" target="_top" xlink:title=" ">
<polygon fill="white" stroke="#666666" points="878,-19 813,-19 813,0 878,0 878,-19"/>
<text text-anchor="middle" x="845.5" y="-7" font-family="Helvetica,sans-Serif" font-size="10.00">dlp_atom.c</text>
</a>
</g>
</g>
<!-- Node1&#45;&gt;Node11 -->
<g id="edge10" class="edge">
<title>Node1&#45;&gt;Node11</title>
<path fill="none" stroke="#63b8ff" d="M690.39,-54.23C725.09,-44.44 779.4,-29.13 813.69,-19.47"/>
<polygon fill="#63b8ff" stroke="#63b8ff" points="689.57,-50.82 680.89,-56.91 691.47,-57.56 689.57,-50.82"/>
</g>
<!-- Node12 -->
<g id="node12" class="node">
<title>Node12</title>
<g id="a_node12"><a xlink:href="../../d4/d28/dlp__edit_8c.html" target="_top" xlink:title=" ">
<polygon fill="white" stroke="#666666" points="955,-19 896,-19 896,0 955,0 955,-19"/>
<text text-anchor="middle" x="925.5" y="-7" font-family="Helvetica,sans-Serif" font-size="10.00">dlp_edit.c</text>
</a>
</g>
</g>
<!-- Node1&#45;&gt;Node12 -->
<g id="edge11" class="edge">
<title>Node1&#45;&gt;Node12</title>
<path fill="none" stroke="#63b8ff" d="M690.47,-57.43C735.19,-49.13 817.51,-33.6 887.5,-19 890.15,-18.45 892.89,-17.86 895.65,-17.26"/>
<polygon fill="#63b8ff" stroke="#63b8ff" points="690.11,-53.94 680.91,-59.2 691.38,-60.82 690.11,-53.94"/>
</g>
<!-- Node13 -->
<g id="node13" class="node">
<title>Node13</title>
<g id="a_node13"><a xlink:href="../../d3/d43/dlp__field_8c.html" target="_top" xlink:title=" ">
<polygon fill="white" stroke="#666666" points="1034,-19 973,-19 973,0 1034,0 1034,-19"/>
<text text-anchor="middle" x="1003.5" y="-7" font-family="Helvetica,sans-Serif" font-size="10.00">dlp_field.c</text>
</a>
</g>
</g>
<!-- Node1&#45;&gt;Node13 -->
<g id="edge12" class="edge">
<title>Node1&#45;&gt;Node13</title>
<path fill="none" stroke="#63b8ff" d="M690.55,-59.49C746.94,-52.47 865.27,-36.98 964.5,-19 967.23,-18.51 970.05,-17.96 972.88,-17.39"/>
<polygon fill="#63b8ff" stroke="#63b8ff" points="690.17,-56.01 680.68,-60.71 691.03,-62.96 690.17,-56.01"/>
</g>
<!-- Node14 -->
<g id="node14" class="node">
<title>Node14</title>
<g id="a_node14"><a xlink:href="../../d7/d6f/dlp__mol_8c.html" target="_top" xlink:title=" ">
<polygon fill="white" stroke="#666666" points="1111,-19 1052,-19 1052,0 1111,0 1111,-19"/>
<text text-anchor="middle" x="1081.5" y="-7" font-family="Helvetica,sans-Serif" font-size="10.00">dlp_mol.c</text>
</a>
</g>
</g>
<!-- Node1&#45;&gt;Node14 -->
<g id="edge13" class="edge">
<title>Node1&#45;&gt;Node14</title>
<path fill="none" stroke="#63b8ff" d="M690.84,-60.85C757.93,-55.25 913.88,-40.91 1043.5,-19 1046.17,-18.55 1048.93,-18.03 1051.69,-17.48"/>
<polygon fill="#63b8ff" stroke="#63b8ff" points="690.57,-57.36 680.89,-61.67 691.14,-64.33 690.57,-57.36"/>
</g>
<!-- Node15 -->
<g id="node15" class="node">
<title>Node15</title>
<g id="a_node15"><a xlink:href="../../d7/dc8/glwindow_8c.html" target="_top" xlink:title=" ">
<polygon fill="white" stroke="#666666" points="1194,-19 1129,-19 1129,0 1194,0 1194,-19"/>
<text text-anchor="middle" x="1161.5" y="-7" font-family="Helvetica,sans-Serif" font-size="10.00">glwindow.c</text>
</a>
</g>
</g>
<!-- Node1&#45;&gt;Node15 -->
<g id="edge14" class="edge">
<title>Node1&#45;&gt;Node15</title>
<path fill="none" stroke="#63b8ff" d="M690.48,-61.56C766.58,-56.83 960.21,-43.25 1120.5,-19 1123.23,-18.59 1126.06,-18.11 1128.88,-17.59"/>
<polygon fill="#63b8ff" stroke="#63b8ff" points="690.58,-58.05 680.81,-62.16 691,-65.04 690.58,-58.05"/>
</g>
<!-- Node16 -->
<g id="node16" class="node">
<title>Node16</title>
<g id="a_node16"><a xlink:href="../../d5/dbe/menu__bar_8c.html" target="_top" xlink:title=" ">
<polygon fill="white" stroke="#666666" points="1280.5,-19 1212.5,-19 1212.5,0 1280.5,0 1280.5,-19"/>
<text text-anchor="middle" x="1246.5" y="-7" font-family="Helvetica,sans-Serif" font-size="10.00">menu_bar.c</text>
</a>
</g>
</g>
<!-- Node1&#45;&gt;Node16 -->
<g id="edge15" class="edge">
<title>Node1&#45;&gt;Node16</title>
<path fill="none" stroke="#63b8ff" d="M690.72,-62.11C776.14,-58.26 1010.27,-45.88 1203.5,-19 1206.36,-18.6 1209.33,-18.13 1212.29,-17.63"/>
<polygon fill="#63b8ff" stroke="#63b8ff" points="690.79,-58.6 680.96,-62.54 691.1,-65.6 690.79,-58.6"/>
</g>
</g>
</svg>
