<?xml version="1.0" encoding="UTF-8" standalone="no"?>
<!DOCTYPE svg PUBLIC "-//W3C//DTD SVG 1.1//EN"
 "http://www.w3.org/Graphics/SVG/1.1/DTD/svg11.dtd">
<!-- Generated by graphviz version 2.43.0 (0)
 -->
<!-- Title: calc/calc.h Pages: 1 -->
<svg width="2185pt" height="82pt"
 viewBox="0.00 0.00 2184.50 82.00" xmlns="http://www.w3.org/2000/svg" xmlns:xlink="http://www.w3.org/1999/xlink">
<g id="graph0" class="graph" transform="scale(1 1) rotate(0) translate(4 78)">
<title>calc/calc.h</title>
<!-- Node1 -->
<g id="Node000001" class="node">
<title>Node1</title>
<g id="a_Node000001"><a xlink:title="Variable declarations for the MD input preparation assistants.">
<polygon fill="#999999" stroke="#666666" points="1112,-74 1044,-74 1044,-55 1112,-55 1112,-74"/>
<text text-anchor="middle" x="1078" y="-62" font-family="Helvetica,sans-Serif" font-size="10.00">calc/calc.h</text>
</a>
</g>
</g>
<!-- Node2 -->
<g id="Node000002" class="node">
<title>Node2</title>
<g id="a_Node000002"><a xlink:href="../../d0/da4/cp2k__files_8c.html" target="_top" xlink:title="Functions to handle CP2K basis sets and pseudopotentials.">
<polygon fill="white" stroke="#666666" points="122,-19 0,-19 0,0 122,0 122,-19"/>
<text text-anchor="middle" x="61" y="-7" font-family="Helvetica,sans-Serif" font-size="10.00">calc/cp2k/cp2k_files.c</text>
</a>
</g>
</g>
<!-- Node1&#45;&gt;Node2 -->
<g id="edge1_Node000001_Node000002" class="edge">
<title>Node1&#45;&gt;Node2</title>
<g id="a_edge1_Node000001_Node000002"><a xlink:title=" ">
<path fill="none" stroke="#63b8ff" d="M1033.59,-62.58C898.07,-59.52 477.92,-48.17 131,-19 128.07,-18.75 125.08,-18.48 122.06,-18.18"/>
<polygon fill="#63b8ff" stroke="#63b8ff" points="1033.89,-66.09 1043.97,-62.81 1034.05,-59.09 1033.89,-66.09"/>
</a>
</g>
</g>
<!-- Node3 -->
<g id="Node000003" class="node">
<title>Node3</title>
<g id="a_Node000003"><a xlink:href="../../de/d92/cp2k__init_8c.html" target="_top" xlink:title="Initialization of the CP2K input assistant.">
<polygon fill="white" stroke="#666666" points="258,-19 140,-19 140,0 258,0 258,-19"/>
<text text-anchor="middle" x="199" y="-7" font-family="Helvetica,sans-Serif" font-size="10.00">calc/cp2k/cp2k_init.c</text>
</a>
</g>
</g>
<!-- Node1&#45;&gt;Node3 -->
<g id="edge2_Node000001_Node000003" class="edge">
<title>Node1&#45;&gt;Node3</title>
<g id="a_edge2_Node000001_Node000003"><a xlink:title=" ">
<path fill="none" stroke="#63b8ff" d="M1033.86,-62.16C911.73,-58.21 559.04,-45.23 267,-19 264.16,-18.74 261.25,-18.46 258.31,-18.16"/>
<polygon fill="#63b8ff" stroke="#63b8ff" points="1033.84,-65.66 1043.94,-62.48 1034.06,-58.66 1033.84,-65.66"/>
</a>
</g>
</g>
<!-- Node4 -->
<g id="Node000004" class="node">
<title>Node4</title>
<g id="a_Node000004"><a xlink:href="../../d5/d8d/cp2k__mol_8c.html" target="_top" xlink:title="Functions to fix fragment(s) when creating the CP2K input file.">
<polygon fill="white" stroke="#666666" points="397.5,-19 276.5,-19 276.5,0 397.5,0 397.5,-19"/>
<text text-anchor="middle" x="337" y="-7" font-family="Helvetica,sans-Serif" font-size="10.00">calc/cp2k/cp2k_mol.c</text>
</a>
</g>
</g>
<!-- Node1&#45;&gt;Node4 -->
<g id="edge3_Node000001_Node000004" class="edge">
<title>Node1&#45;&gt;Node4</title>
<g id="a_edge3_Node000001_Node000004"><a xlink:title=" ">
<path fill="none" stroke="#63b8ff" d="M1033.5,-61.42C925.69,-56.2 642,-41.33 406,-19 403.24,-18.74 400.41,-18.46 397.56,-18.16"/>
<polygon fill="#63b8ff" stroke="#63b8ff" points="1033.52,-64.93 1043.68,-61.91 1033.86,-57.94 1033.52,-64.93"/>
</a>
</g>
</g>
<!-- Node5 -->
<g id="Node000005" class="node">
<title>Node5</title>
<g id="a_Node000005"><a xlink:href="../../dc/d4a/cp2k__print_8c.html" target="_top" xlink:title="Functions to print the CP2K input file(s)">
<polygon fill="white" stroke="#666666" points="540.5,-19 415.5,-19 415.5,0 540.5,0 540.5,-19"/>
<text text-anchor="middle" x="478" y="-7" font-family="Helvetica,sans-Serif" font-size="10.00">calc/cp2k/cp2k_print.c</text>
</a>
</g>
</g>
<!-- Node1&#45;&gt;Node5 -->
<g id="edge4_Node000001_Node000005" class="edge">
<title>Node1&#45;&gt;Node5</title>
<g id="a_edge4_Node000001_Node000005"><a xlink:title=" ">
<path fill="none" stroke="#63b8ff" d="M1033.8,-60.28C943.04,-53.55 729.16,-37.12 550,-19 546.99,-18.7 543.92,-18.37 540.82,-18.04"/>
<polygon fill="#63b8ff" stroke="#63b8ff" points="1033.76,-63.78 1043.99,-61.03 1034.27,-56.8 1033.76,-63.78"/>
</a>
</g>
</g>
<!-- Node6 -->
<g id="Node000006" class="node">
<title>Node6</title>
<g id="a_Node000006"><a xlink:href="../../d6/d03/cpmd__atoms_8c.html" target="_top" xlink:title="Functions to handle dummy atom(s) for the CPMD input file.">
<polygon fill="white" stroke="#666666" points="699,-19 559,-19 559,0 699,0 699,-19"/>
<text text-anchor="middle" x="629" y="-7" font-family="Helvetica,sans-Serif" font-size="10.00">calc/cpmd/cpmd_atoms.c</text>
</a>
</g>
</g>
<!-- Node1&#45;&gt;Node6 -->
<g id="edge5_Node000001_Node000006" class="edge">
<title>Node1&#45;&gt;Node6</title>
<g id="a_edge5_Node000001_Node000006"><a xlink:title=" ">
<path fill="none" stroke="#63b8ff" d="M1033.9,-58.29C955.84,-49.08 792.77,-29.83 699.14,-18.78"/>
<polygon fill="#63b8ff" stroke="#63b8ff" points="1033.54,-61.78 1043.88,-59.47 1034.36,-54.82 1033.54,-61.78"/>
</a>
</g>
</g>
<!-- Node7 -->
<g id="Node000007" class="node">
<title>Node7</title>
<g id="a_Node000007"><a xlink:href="../../dd/dc0/cpmd__init_8c.html" target="_top" xlink:title="Functions to initialize the QM / QM&#45;MM input file creation assistant.">
<polygon fill="white" stroke="#666666" points="842.5,-19 717.5,-19 717.5,0 842.5,0 842.5,-19"/>
<text text-anchor="middle" x="780" y="-7" font-family="Helvetica,sans-Serif" font-size="10.00">calc/cpmd/cpmd_init.c</text>
</a>
</g>
</g>
<!-- Node1&#45;&gt;Node7 -->
<g id="edge6_Node000001_Node000007" class="edge">
<title>Node1&#45;&gt;Node7</title>
<g id="a_edge6_Node000001_Node000007"><a xlink:title=" ">
<path fill="none" stroke="#63b8ff" d="M1033.66,-55.61C978.53,-45.81 884.79,-29.14 828.01,-19.04"/>
<polygon fill="#63b8ff" stroke="#63b8ff" points="1033.36,-59.12 1043.82,-57.42 1034.58,-52.22 1033.36,-59.12"/>
</a>
</g>
</g>
<!-- Node8 -->
<g id="Node000008" class="node">
<title>Node8</title>
<g id="a_Node000008"><a xlink:href="../../d6/dc0/cpmd__nose_8c.html" target="_top" xlink:title="Functions to prepare the thermostat(s) configuration widgets for QM / QM&#45;MM input files.">
<polygon fill="white" stroke="#666666" points="993.5,-19 860.5,-19 860.5,0 993.5,0 993.5,-19"/>
<text text-anchor="middle" x="927" y="-7" font-family="Helvetica,sans-Serif" font-size="10.00">calc/cpmd/cpmd_nose.c</text>
</a>
</g>
</g>
<!-- Node1&#45;&gt;Node8 -->
<g id="edge7_Node000001_Node000008" class="edge">
<title>Node1&#45;&gt;Node8</title>
<g id="a_edge7_Node000001_Node000008"><a xlink:title=" ">
<path fill="none" stroke="#63b8ff" d="M1043.95,-51.55C1015.91,-41.71 976.82,-27.98 951.7,-19.17"/>
<polygon fill="#63b8ff" stroke="#63b8ff" points="1043.14,-54.98 1053.74,-54.98 1045.46,-48.37 1043.14,-54.98"/>
</a>
</g>
</g>
<!-- Node9 -->
<g id="Node000009" class="node">
<title>Node9</title>
<g id="a_Node000009"><a xlink:href="../../d1/dcc/cpmd__print_8c.html" target="_top" xlink:title="Functions to print the CPMD input file(s)">
<polygon fill="white" stroke="#666666" points="1144,-19 1012,-19 1012,0 1144,0 1144,-19"/>
<text text-anchor="middle" x="1078" y="-7" font-family="Helvetica,sans-Serif" font-size="10.00">calc/cpmd/cpmd_print.c</text>
</a>
</g>
</g>
<!-- Node1&#45;&gt;Node9 -->
<g id="edge8_Node000001_Node000009" class="edge">
<title>Node1&#45;&gt;Node9</title>
<g id="a_edge8_Node000001_Node000009"><a xlink:title=" ">
<path fill="none" stroke="#63b8ff" d="M1078,-44.66C1078,-35.93 1078,-25.99 1078,-19.09"/>
<polygon fill="#63b8ff" stroke="#63b8ff" points="1074.5,-44.75 1078,-54.75 1081.5,-44.75 1074.5,-44.75"/>
</a>
</g>
</g>
<!-- Node10 -->
<g id="Node000010" class="node">
<title>Node10</title>
<g id="a_Node000010"><a xlink:href="../../db/d6f/cpmd__restart_8c.html" target="_top" xlink:title="Functions to configure the restart section for the CPMD input file creation assistant.">
<polygon fill="white" stroke="#666666" points="1304,-19 1162,-19 1162,0 1304,0 1304,-19"/>
<text text-anchor="middle" x="1233" y="-7" font-family="Helvetica,sans-Serif" font-size="10.00">calc/cpmd/cpmd_restart.c</text>
</a>
</g>
</g>
<!-- Node1&#45;&gt;Node10 -->
<g id="edge9_Node000001_Node000010" class="edge">
<title>Node1&#45;&gt;Node10</title>
<g id="a_edge9_Node000001_Node000010"><a xlink:title=" ">
<path fill="none" stroke="#63b8ff" d="M1112.6,-51.67C1141.5,-41.79 1182.03,-27.93 1207.9,-19.08"/>
<polygon fill="#63b8ff" stroke="#63b8ff" points="1111.23,-48.44 1102.9,-54.98 1113.5,-55.06 1111.23,-48.44"/>
</a>
</g>
</g>
<!-- Node11 -->
<g id="Node000011" class="node">
<title>Node11</title>
<g id="a_Node000011"><a xlink:href="../../d2/da2/dlp__atom_8c.html" target="_top" xlink:title="Functions to handle atom selection(s) when creating a force field &#160;&#160;Functions to remove / add field a...">
<polygon fill="white" stroke="#666666" points="1453.5,-19 1322.5,-19 1322.5,0 1453.5,0 1453.5,-19"/>
<text text-anchor="middle" x="1388" y="-7" font-family="Helvetica,sans-Serif" font-size="10.00">calc/dl_poly/dlp_atom.c</text>
</a>
</g>
</g>
<!-- Node1&#45;&gt;Node11 -->
<g id="edge10_Node000001_Node000011" class="edge">
<title>Node1&#45;&gt;Node11</title>
<g id="a_edge10_Node000001_Node000011"><a xlink:title=" ">
<path fill="none" stroke="#63b8ff" d="M1122.21,-55.94C1179.28,-46.18 1278.32,-29.25 1338.05,-19.04"/>
<polygon fill="#63b8ff" stroke="#63b8ff" points="1121.33,-52.54 1112.06,-57.68 1122.51,-59.44 1121.33,-52.54"/>
</a>
</g>
</g>
<!-- Node12 -->
<g id="Node000012" class="node">
<title>Node12</title>
<g id="a_Node000012"><a xlink:href="../../d4/d28/dlp__edit_8c.html" target="_top" xlink:title="Functions to edit DL&#45;POLY force field parameters.">
<polygon fill="white" stroke="#666666" points="1596.5,-19 1471.5,-19 1471.5,0 1596.5,0 1596.5,-19"/>
<text text-anchor="middle" x="1534" y="-7" font-family="Helvetica,sans-Serif" font-size="10.00">calc/dl_poly/dlp_edit.c</text>
</a>
</g>
</g>
<!-- Node1&#45;&gt;Node12 -->
<g id="edge11_Node000001_Node000012" class="edge">
<title>Node1&#45;&gt;Node12</title>
<g id="a_edge11_Node000001_Node000012"><a xlink:title=" ">
<path fill="none" stroke="#63b8ff" d="M1122.27,-58.44C1193.89,-50.25 1339.6,-33.52 1463,-19 1465.71,-18.68 1468.48,-18.35 1471.28,-18.02"/>
<polygon fill="#63b8ff" stroke="#63b8ff" points="1121.79,-54.97 1112.26,-59.59 1122.59,-61.93 1121.79,-54.97"/>
</a>
</g>
</g>
<!-- Node13 -->
<g id="Node000013" class="node">
<title>Node13</title>
<g id="a_Node000013"><a xlink:href="../../d3/d43/dlp__field_8c.html" target="_top" xlink:title="Functions to prepare the DL&#45;POLY / LAMMPS input preparation assistant &#160;&#160;Functions to design a classic...">
<polygon fill="white" stroke="#666666" points="1741.5,-19 1614.5,-19 1614.5,0 1741.5,0 1741.5,-19"/>
<text text-anchor="middle" x="1678" y="-7" font-family="Helvetica,sans-Serif" font-size="10.00">calc/dl_poly/dlp_field.c</text>
</a>
</g>
</g>
<!-- Node1&#45;&gt;Node13 -->
<g id="edge12_Node000001_Node000013" class="edge">
<title>Node1&#45;&gt;Node13</title>
<g id="a_edge12_Node000001_Node000013"><a xlink:title=" ">
<path fill="none" stroke="#63b8ff" d="M1122.2,-60.28C1212.96,-53.55 1426.84,-37.12 1606,-19 1608.76,-18.72 1611.57,-18.43 1614.41,-18.12"/>
<polygon fill="#63b8ff" stroke="#63b8ff" points="1121.73,-56.8 1112.01,-61.03 1122.24,-63.78 1121.73,-56.8"/>
</a>
</g>
</g>
<!-- Node14 -->
<g id="Node000014" class="node">
<title>Node14</title>
<g id="a_Node000014"><a xlink:href="../../d7/d6f/dlp__mol_8c.html" target="_top" xlink:title="Functions to add / remove molecule(s) to / from the force field.">
<polygon fill="white" stroke="#666666" points="1884.5,-19 1759.5,-19 1759.5,0 1884.5,0 1884.5,-19"/>
<text text-anchor="middle" x="1822" y="-7" font-family="Helvetica,sans-Serif" font-size="10.00">calc/dl_poly/dlp_mol.c</text>
</a>
</g>
</g>
<!-- Node1&#45;&gt;Node14 -->
<g id="edge13_Node000001_Node000014" class="edge">
<title>Node1&#45;&gt;Node14</title>
<g id="a_edge13_Node000001_Node000014"><a xlink:title=" ">
<path fill="none" stroke="#63b8ff" d="M1122.17,-61.39C1229.84,-56.08 1514.33,-40.98 1751,-19 1753.72,-18.75 1756.5,-18.48 1759.3,-18.19"/>
<polygon fill="#63b8ff" stroke="#63b8ff" points="1121.83,-57.91 1112.02,-61.89 1122.17,-64.9 1121.83,-57.91"/>
</a>
</g>
</g>
<!-- Node15 -->
<g id="Node000015" class="node">
<title>Node15</title>
<g id="a_Node000015"><a xlink:href="../../d7/dc8/glwindow_8c.html" target="_top" xlink:title="Functions to create a project OpenGL window.">
<polygon fill="white" stroke="#666666" points="2029.5,-19 1902.5,-19 1902.5,0 2029.5,0 2029.5,-19"/>
<text text-anchor="middle" x="1966" y="-7" font-family="Helvetica,sans-Serif" font-size="10.00">opengl/win/glwindow.c</text>
</a>
</g>
</g>
<!-- Node1&#45;&gt;Node15 -->
<g id="edge14_Node000001_Node000015" class="edge">
<title>Node1&#45;&gt;Node15</title>
<g id="a_edge14_Node000001_Node000015"><a xlink:title=" ">
<path fill="none" stroke="#63b8ff" d="M1122.4,-62.06C1245.26,-57.87 1600.07,-44.34 1894,-19 1896.76,-18.76 1899.58,-18.5 1902.42,-18.23"/>
<polygon fill="#63b8ff" stroke="#63b8ff" points="1122.13,-58.57 1112.26,-62.41 1122.37,-65.57 1122.13,-58.57"/>
</a>
</g>
</g>
<!-- Node16 -->
<g id="Node000016" class="node">
<title>Node16</title>
<g id="a_Node000016"><a xlink:href="../../d5/dbe/menu__bar_8c.html" target="_top" xlink:title="Functions to create the menu bar of the OpenGL window &#160;&#160;Functions to create the menu items for the me...">
<polygon fill="white" stroke="#666666" points="2176.5,-19 2047.5,-19 2047.5,0 2176.5,0 2176.5,-19"/>
<text text-anchor="middle" x="2112" y="-7" font-family="Helvetica,sans-Serif" font-size="10.00">opengl/win/menu_bar.c</text>
</a>
</g>
</g>
<!-- Node1&#45;&gt;Node16 -->
<g id="edge15_Node000001_Node000016" class="edge">
<title>Node1&#45;&gt;Node16</title>
<g id="a_edge15_Node000001_Node000016"><a xlink:title=" ">
<path fill="none" stroke="#63b8ff" d="M1122.17,-62.55C1258.73,-59.37 1686.12,-47.68 2039,-19 2041.67,-18.78 2044.39,-18.54 2047.14,-18.29"/>
<polygon fill="#63b8ff" stroke="#63b8ff" points="1122.02,-59.05 1112.1,-62.78 1122.18,-66.05 1122.02,-59.05"/>
</a>
</g>
</g>
</g>
</svg>
