<?xml version="1.0" encoding="UTF-8" standalone="no"?>
<!DOCTYPE svg PUBLIC "-//W3C//DTD SVG 1.1//EN"
 "http://www.w3.org/Graphics/SVG/1.1/DTD/svg11.dtd">
<!-- Generated by graphviz version 9.0.0 (20230911.1827)
 -->
<!-- Title: project/readers/readers.h Pages: 1 -->
<svg width="1150pt" height="96pt"
 viewBox="0.00 0.00 1149.75 96.00" xmlns="http://www.w3.org/2000/svg" xmlns:xlink="http://www.w3.org/1999/xlink">
<g id="graph0" class="graph" transform="scale(1 1) rotate(0) translate(4 92)">
<title>project/readers/readers.h</title>
<!-- Node1 -->
<g id="Node000001" class="node">
<title>Node1</title>
<g id="a_Node000001"><a xlink:title="Functions declaration to read atomic coordinates.">
<polygon fill="#999999" stroke="#666666" points="612.62,-88 488.62,-88 488.62,-68 612.62,-68 612.62,-88"/>
<text text-anchor="middle" x="550.62" y="-74.5" font-family="Helvetica,sans-Serif" font-size="10.00">project/readers/readers.h</text>
</a>
</g>
</g>
<!-- Node2 -->
<g id="Node000002" class="node">
<title>Node2</title>
<g id="a_Node000002"><a xlink:href="../../d3/d3a/callbacks_8c.html" target="_top" xlink:title="General callbacks &#160;&#160;Functions to open and close files.">
<polygon fill="white" stroke="#666666" points="81.25,-26 0,-26 0,-6 81.25,-6 81.25,-26"/>
<text text-anchor="middle" x="40.62" y="-12.5" font-family="Helvetica,sans-Serif" font-size="10.00">gui/callbacks.c</text>
</a>
</g>
</g>
<!-- Node1&#45;&gt;Node2 -->
<g id="edge1_Node000001_Node000002" class="edge">
<title>Node1&#45;&gt;Node2</title>
<g id="a_edge1_Node000001_Node000002"><a xlink:title=" ">
<path fill="none" stroke="#63b8ff" d="M476.98,-74.2C385.6,-69.71 225.39,-58.55 90.62,-32 83.42,-30.58 75.77,-28.56 68.68,-26.46"/>
<polygon fill="#63b8ff" stroke="#63b8ff" points="476.65,-77.68 486.8,-74.66 476.98,-70.69 476.65,-77.68"/>
</a>
</g>
</g>
<!-- Node3 -->
<g id="Node000003" class="node">
<title>Node3</title>
<g id="a_Node000003"><a xlink:href="../../d0/dd3/cbuild__action_8c.html" target="_top" xlink:title="Functions to build a crystal using space group, crystallographic position(s) and object(s) to insert.">
<polygon fill="white" stroke="#666666" points="191.5,-32 99.75,-32 99.75,0 191.5,0 191.5,-32"/>
<text text-anchor="start" x="107.75" y="-18.5" font-family="Helvetica,sans-Serif" font-size="10.00">opengl/edit/cbuild</text>
<text text-anchor="middle" x="145.62" y="-6.5" font-family="Helvetica,sans-Serif" font-size="10.00">_action.c</text>
</a>
</g>
</g>
<!-- Node1&#45;&gt;Node3 -->
<g id="edge2_Node000001_Node000003" class="edge">
<title>Node1&#45;&gt;Node3</title>
<g id="a_edge2_Node000001_Node000003"><a xlink:title=" ">
<path fill="none" stroke="#63b8ff" d="M477.17,-70.54C406.02,-63.58 295.29,-50.9 200.62,-32 197.71,-31.42 194.73,-30.77 191.73,-30.07"/>
<polygon fill="#63b8ff" stroke="#63b8ff" points="476.45,-73.99 486.74,-71.46 477.12,-67.02 476.45,-73.99"/>
</a>
</g>
</g>
<!-- Node4 -->
<g id="Node000004" class="node">
<title>Node4</title>
<g id="a_Node000004"><a xlink:href="../../db/d0b/cbuild__edit_8c.html" target="_top" xlink:title="Functions to create the crystal builder window.">
<polygon fill="white" stroke="#666666" points="301.5,-32 209.75,-32 209.75,0 301.5,0 301.5,-32"/>
<text text-anchor="start" x="217.75" y="-18.5" font-family="Helvetica,sans-Serif" font-size="10.00">opengl/edit/cbuild</text>
<text text-anchor="middle" x="255.62" y="-6.5" font-family="Helvetica,sans-Serif" font-size="10.00">_edit.c</text>
</a>
</g>
</g>
<!-- Node1&#45;&gt;Node4 -->
<g id="edge3_Node000001_Node000004" class="edge">
<title>Node1&#45;&gt;Node4</title>
<g id="a_edge3_Node000001_Node000004"><a xlink:title=" ">
<path fill="none" stroke="#63b8ff" d="M481.91,-65.64C433.75,-57.3 368,-45.18 310.62,-32 307.73,-31.34 304.76,-30.62 301.77,-29.88"/>
<polygon fill="#63b8ff" stroke="#63b8ff" points="481.19,-69.07 491.64,-67.31 482.38,-62.17 481.19,-69.07"/>
</a>
</g>
</g>
<!-- Node5 -->
<g id="Node000005" class="node">
<title>Node5</title>
<g id="a_Node000005"><a xlink:href="../../da/d70/read__c3d_8c.html" target="_top" xlink:title="Functions to read Chem3d atomic coordinates.">
<polygon fill="white" stroke="#666666" points="421.75,-32 319.5,-32 319.5,0 421.75,0 421.75,-32"/>
<text text-anchor="start" x="327.5" y="-18.5" font-family="Helvetica,sans-Serif" font-size="10.00">project/readers/read</text>
<text text-anchor="middle" x="370.62" y="-6.5" font-family="Helvetica,sans-Serif" font-size="10.00">_c3d.c</text>
</a>
</g>
</g>
<!-- Node1&#45;&gt;Node5 -->
<g id="edge4_Node000001_Node000005" class="edge">
<title>Node1&#45;&gt;Node5</title>
<g id="a_edge4_Node000001_Node000005"><a xlink:title=" ">
<path fill="none" stroke="#63b8ff" d="M511.62,-64C483.85,-54.74 446.41,-42.26 417.1,-32.49"/>
<polygon fill="#63b8ff" stroke="#63b8ff" points="510.47,-67.3 521.06,-67.15 512.68,-60.66 510.47,-67.3"/>
</a>
</g>
</g>
<!-- Node6 -->
<g id="Node000006" class="node">
<title>Node6</title>
<g id="a_Node000006"><a xlink:href="../../d8/d50/read__cif_8c.html" target="_top" xlink:title="Functions to read CIF files.">
<polygon fill="white" stroke="#666666" points="541.75,-32 439.5,-32 439.5,0 541.75,0 541.75,-32"/>
<text text-anchor="start" x="447.5" y="-18.5" font-family="Helvetica,sans-Serif" font-size="10.00">project/readers/read</text>
<text text-anchor="middle" x="490.62" y="-6.5" font-family="Helvetica,sans-Serif" font-size="10.00">_cif.c</text>
</a>
</g>
</g>
<!-- Node1&#45;&gt;Node6 -->
<g id="edge5_Node000001_Node000006" class="edge">
<title>Node1&#45;&gt;Node6</title>
<g id="a_edge5_Node000001_Node000006"><a xlink:title=" ">
<path fill="none" stroke="#63b8ff" d="M533.27,-59.65C524.57,-50.95 514.14,-40.51 505.77,-32.14"/>
<polygon fill="#63b8ff" stroke="#63b8ff" points="530.63,-61.96 540.18,-66.55 535.58,-57.01 530.63,-61.96"/>
</a>
</g>
</g>
<!-- Node7 -->
<g id="Node000007" class="node">
<title>Node7</title>
<g id="a_Node000007"><a xlink:href="../../df/df9/read__hist_8c.html" target="_top" xlink:title="Functions to read DL&#45;POLY history file.">
<polygon fill="white" stroke="#666666" points="661.75,-32 559.5,-32 559.5,0 661.75,0 661.75,-32"/>
<text text-anchor="start" x="567.5" y="-18.5" font-family="Helvetica,sans-Serif" font-size="10.00">project/readers/read</text>
<text text-anchor="middle" x="610.62" y="-6.5" font-family="Helvetica,sans-Serif" font-size="10.00">_hist.c</text>
</a>
</g>
</g>
<!-- Node1&#45;&gt;Node7 -->
<g id="edge6_Node000001_Node000007" class="edge">
<title>Node1&#45;&gt;Node7</title>
<g id="a_edge6_Node000001_Node000007"><a xlink:title=" ">
<path fill="none" stroke="#63b8ff" d="M567.98,-59.65C576.68,-50.95 587.11,-40.51 595.48,-32.14"/>
<polygon fill="#63b8ff" stroke="#63b8ff" points="565.67,-57.01 561.07,-66.55 570.62,-61.96 565.67,-57.01"/>
</a>
</g>
</g>
<!-- Node8 -->
<g id="Node000008" class="node">
<title>Node8</title>
<g id="a_Node000008"><a xlink:href="../../d9/d42/read__pdb_8c.html" target="_top" xlink:title="Functions to read PDB files.">
<polygon fill="white" stroke="#666666" points="781.75,-32 679.5,-32 679.5,0 781.75,0 781.75,-32"/>
<text text-anchor="start" x="687.5" y="-18.5" font-family="Helvetica,sans-Serif" font-size="10.00">project/readers/read</text>
<text text-anchor="middle" x="730.62" y="-6.5" font-family="Helvetica,sans-Serif" font-size="10.00">_pdb.c</text>
</a>
</g>
</g>
<!-- Node1&#45;&gt;Node8 -->
<g id="edge7_Node000001_Node000008" class="edge">
<title>Node1&#45;&gt;Node8</title>
<g id="a_edge7_Node000001_Node000008"><a xlink:title=" ">
<path fill="none" stroke="#63b8ff" d="M589.63,-64C617.4,-54.74 654.84,-42.26 684.15,-32.49"/>
<polygon fill="#63b8ff" stroke="#63b8ff" points="588.57,-60.66 580.19,-67.15 590.78,-67.3 588.57,-60.66"/>
</a>
</g>
</g>
<!-- Node9 -->
<g id="Node000009" class="node">
<title>Node9</title>
<g id="a_Node000009"><a xlink:href="../../d9/deb/read__trj_8c.html" target="_top" xlink:title="Functions to read CPMD atomic coordinates.">
<polygon fill="white" stroke="#666666" points="901.75,-32 799.5,-32 799.5,0 901.75,0 901.75,-32"/>
<text text-anchor="start" x="807.5" y="-18.5" font-family="Helvetica,sans-Serif" font-size="10.00">project/readers/read</text>
<text text-anchor="middle" x="850.62" y="-6.5" font-family="Helvetica,sans-Serif" font-size="10.00">_trj.c</text>
</a>
</g>
</g>
<!-- Node1&#45;&gt;Node9 -->
<g id="edge8_Node000001_Node000009" class="edge">
<title>Node1&#45;&gt;Node9</title>
<g id="a_edge8_Node000001_Node000009"><a xlink:title=" ">
<path fill="none" stroke="#63b8ff" d="M617.34,-65.59C665.62,-57.07 732.35,-44.74 790.62,-32 793.46,-31.38 796.36,-30.73 799.29,-30.05"/>
<polygon fill="#63b8ff" stroke="#63b8ff" points="616.84,-62.13 607.59,-67.3 618.05,-69.02 616.84,-62.13"/>
</a>
</g>
</g>
<!-- Node10 -->
<g id="Node000010" class="node">
<title>Node10</title>
<g id="a_Node000010"><a xlink:href="../../d6/dc9/read__vas_8c.html" target="_top" xlink:title="Functions to read VASP atomic coordinates.">
<polygon fill="white" stroke="#666666" points="1021.75,-32 919.5,-32 919.5,0 1021.75,0 1021.75,-32"/>
<text text-anchor="start" x="927.5" y="-18.5" font-family="Helvetica,sans-Serif" font-size="10.00">project/readers/read</text>
<text text-anchor="middle" x="970.62" y="-6.5" font-family="Helvetica,sans-Serif" font-size="10.00">_vas.c</text>
</a>
</g>
</g>
<!-- Node1&#45;&gt;Node10 -->
<g id="edge9_Node000001_Node000010" class="edge">
<title>Node1&#45;&gt;Node10</title>
<g id="a_edge9_Node000001_Node000010"><a xlink:title=" ">
<path fill="none" stroke="#63b8ff" d="M624.45,-70.4C697.5,-63.26 812.33,-50.36 910.62,-32 913.37,-31.49 916.17,-30.92 919,-30.33"/>
<polygon fill="#63b8ff" stroke="#63b8ff" points="624.21,-66.91 614.6,-71.35 624.89,-73.88 624.21,-66.91"/>
</a>
</g>
</g>
<!-- Node11 -->
<g id="Node000011" class="node">
<title>Node11</title>
<g id="a_Node000011"><a xlink:href="../../d0/dce/read__xyz_8c.html" target="_top" xlink:title="Functions to read XYZ atomic coordinates.">
<polygon fill="white" stroke="#666666" points="1141.75,-32 1039.5,-32 1039.5,0 1141.75,0 1141.75,-32"/>
<text text-anchor="start" x="1047.5" y="-18.5" font-family="Helvetica,sans-Serif" font-size="10.00">project/readers/read</text>
<text text-anchor="middle" x="1090.62" y="-6.5" font-family="Helvetica,sans-Serif" font-size="10.00">_xyz.c</text>
</a>
</g>
</g>
<!-- Node1&#45;&gt;Node11 -->
<g id="edge10_Node000001_Node000011" class="edge">
<title>Node1&#45;&gt;Node11</title>
<g id="a_edge10_Node000001_Node000011"><a xlink:title=" ">
<path fill="none" stroke="#63b8ff" d="M624.21,-73.57C718.8,-68.37 887.87,-56.39 1030.62,-32 1033.38,-31.53 1036.19,-31 1039.02,-30.43"/>
<polygon fill="#63b8ff" stroke="#63b8ff" points="624.08,-70.07 614.28,-74.1 624.46,-77.06 624.08,-70.07"/>
</a>
</g>
</g>
</g>
</svg>
