<?xml version="1.0" encoding="UTF-8" standalone="no"?>
<!DOCTYPE svg PUBLIC "-//W3C//DTD SVG 1.1//EN"
 "http://www.w3.org/Graphics/SVG/1.1/DTD/svg11.dtd">
<!-- Generated by graphviz version 7.1.0 (0)
 -->
<!-- Title: readers.h Pages: 1 -->
<svg width="831pt" height="82pt"
 viewBox="0.00 0.00 830.50 82.00" xmlns="http://www.w3.org/2000/svg" xmlns:xlink="http://www.w3.org/1999/xlink">
<g id="graph0" class="graph" transform="scale(1 1) rotate(0) translate(4 78)">
<title>readers.h</title>
<!-- Node1 -->
<g id="node1" class="node">
<title>Node1</title>
<g id="a_node1"><a xlink:title=" ">
<polygon fill="#999999" stroke="#666666" points="454.5,-74 397.5,-74 397.5,-55 454.5,-55 454.5,-74"/>
<text text-anchor="middle" x="426" y="-62" font-family="Helvetica,sans-Serif" font-size="10.00">readers.h</text>
</a>
</g>
</g>
<!-- Node2 -->
<g id="node2" class="node">
<title>Node2</title>
<g id="a_node2"><a xlink:href="../../d3/d3a/callbacks_8c.html" target="_top" xlink:title=" ">
<polygon fill="white" stroke="#666666" points="66,-19 0,-19 0,0 66,0 66,-19"/>
<text text-anchor="middle" x="33" y="-7" font-family="Helvetica,sans-Serif" font-size="10.00">callbacks.c</text>
</a>
</g>
</g>
<!-- Node1&#45;&gt;Node2 -->
<g id="edge1" class="edge">
<title>Node1&#45;&gt;Node2</title>
<path fill="none" stroke="#63b8ff" d="M385.84,-59.38C320.48,-52.46 187.12,-37.43 75,-19 72.21,-18.54 69.32,-18.03 66.43,-17.5"/>
<polygon fill="#63b8ff" stroke="#63b8ff" points="385.42,-62.86 395.73,-60.42 386.15,-55.89 385.42,-62.86"/>
</g>
<!-- Node3 -->
<g id="node3" class="node">
<title>Node3</title>
<g id="a_node3"><a xlink:href="../../d0/dd3/cbuild__action_8c.html" target="_top" xlink:title=" ">
<polygon fill="white" stroke="#666666" points="166,-19 84,-19 84,0 166,0 166,-19"/>
<text text-anchor="middle" x="125" y="-7" font-family="Helvetica,sans-Serif" font-size="10.00">cbuild_action.c</text>
</a>
</g>
</g>
<!-- Node1&#45;&gt;Node3 -->
<g id="edge2" class="edge">
<title>Node1&#45;&gt;Node3</title>
<path fill="none" stroke="#63b8ff" d="M386.03,-56.46C328.88,-46.4 224.32,-27.99 166.39,-17.79"/>
<polygon fill="#63b8ff" stroke="#63b8ff" points="385.19,-59.87 395.65,-58.16 386.41,-52.97 385.19,-59.87"/>
</g>
<!-- Node4 -->
<g id="node4" class="node">
<title>Node4</title>
<g id="a_node4"><a xlink:href="../../db/d0b/cbuild__edit_8c.html" target="_top" xlink:title=" ">
<polygon fill="white" stroke="#666666" points="255.5,-19 184.5,-19 184.5,0 255.5,0 255.5,-19"/>
<text text-anchor="middle" x="220" y="-7" font-family="Helvetica,sans-Serif" font-size="10.00">cbuild_edit.c</text>
</a>
</g>
</g>
<!-- Node1&#45;&gt;Node4 -->
<g id="edge3" class="edge">
<title>Node1&#45;&gt;Node4</title>
<path fill="none" stroke="#63b8ff" d="M386.68,-53.38C348.61,-43.59 291.45,-28.88 254.94,-19.49"/>
<polygon fill="#63b8ff" stroke="#63b8ff" points="385.33,-56.65 395.89,-55.75 387.08,-49.87 385.33,-56.65"/>
</g>
<!-- Node5 -->
<g id="node5" class="node">
<title>Node5</title>
<g id="a_node5"><a xlink:href="../../da/d70/read__c3d_8c.html" target="_top" xlink:title=" ">
<polygon fill="white" stroke="#666666" points="338.5,-19 273.5,-19 273.5,0 338.5,0 338.5,-19"/>
<text text-anchor="middle" x="306" y="-7" font-family="Helvetica,sans-Serif" font-size="10.00">read_c3d.c</text>
</a>
</g>
</g>
<!-- Node1&#45;&gt;Node5 -->
<g id="edge4" class="edge">
<title>Node1&#45;&gt;Node5</title>
<path fill="none" stroke="#63b8ff" d="M395.28,-49.93C373.51,-40.32 344.95,-27.7 326.06,-19.36"/>
<polygon fill="#63b8ff" stroke="#63b8ff" points="393.7,-53.06 404.26,-53.9 396.53,-46.66 393.7,-53.06"/>
</g>
<!-- Node6 -->
<g id="node6" class="node">
<title>Node6</title>
<g id="a_node6"><a xlink:href="../../d8/d50/read__cif_8c.html" target="_top" xlink:title=" ">
<polygon fill="white" stroke="#666666" points="415.5,-19 356.5,-19 356.5,0 415.5,0 415.5,-19"/>
<text text-anchor="middle" x="386" y="-7" font-family="Helvetica,sans-Serif" font-size="10.00">read_cif.c</text>
</a>
</g>
</g>
<!-- Node1&#45;&gt;Node6 -->
<g id="edge5" class="edge">
<title>Node1&#45;&gt;Node6</title>
<path fill="none" stroke="#63b8ff" d="M412.53,-45.65C405.88,-36.84 398.14,-26.59 392.75,-19.44"/>
<polygon fill="#63b8ff" stroke="#63b8ff" points="409.67,-47.67 418.48,-53.54 415.25,-43.45 409.67,-47.67"/>
</g>
<!-- Node7 -->
<g id="node7" class="node">
<title>Node7</title>
<g id="a_node7"><a xlink:href="../../df/df9/read__hist_8c.html" target="_top" xlink:title=" ">
<polygon fill="white" stroke="#666666" points="498.5,-19 433.5,-19 433.5,0 498.5,0 498.5,-19"/>
<text text-anchor="middle" x="466" y="-7" font-family="Helvetica,sans-Serif" font-size="10.00">read_hist.c</text>
</a>
</g>
</g>
<!-- Node1&#45;&gt;Node7 -->
<g id="edge6" class="edge">
<title>Node1&#45;&gt;Node7</title>
<path fill="none" stroke="#63b8ff" d="M439.47,-45.65C446.12,-36.84 453.86,-26.59 459.25,-19.44"/>
<polygon fill="#63b8ff" stroke="#63b8ff" points="436.75,-43.45 433.52,-53.54 442.33,-47.67 436.75,-43.45"/>
</g>
<!-- Node8 -->
<g id="node8" class="node">
<title>Node8</title>
<g id="a_node8"><a xlink:href="../../d9/d42/read__pdb_8c.html" target="_top" xlink:title=" ">
<polygon fill="white" stroke="#666666" points="581.5,-19 516.5,-19 516.5,0 581.5,0 581.5,-19"/>
<text text-anchor="middle" x="549" y="-7" font-family="Helvetica,sans-Serif" font-size="10.00">read_pdb.c</text>
</a>
</g>
</g>
<!-- Node1&#45;&gt;Node8 -->
<g id="edge7" class="edge">
<title>Node1&#45;&gt;Node8</title>
<path fill="none" stroke="#63b8ff" d="M457.19,-50.06C479.53,-40.43 508.99,-27.74 528.44,-19.36"/>
<polygon fill="#63b8ff" stroke="#63b8ff" points="456.05,-46.74 448.26,-53.91 458.82,-53.17 456.05,-46.74"/>
</g>
<!-- Node9 -->
<g id="node9" class="node">
<title>Node9</title>
<g id="a_node9"><a xlink:href="../../d9/deb/read__trj_8c.html" target="_top" xlink:title=" ">
<polygon fill="white" stroke="#666666" points="656.5,-19 599.5,-19 599.5,0 656.5,0 656.5,-19"/>
<text text-anchor="middle" x="628" y="-7" font-family="Helvetica,sans-Serif" font-size="10.00">read_trj.c</text>
</a>
</g>
</g>
<!-- Node1&#45;&gt;Node9 -->
<g id="edge8" class="edge">
<title>Node1&#45;&gt;Node9</title>
<path fill="none" stroke="#63b8ff" d="M465.95,-53.02C505.22,-42.72 564.19,-27.24 599.11,-18.08"/>
<polygon fill="#63b8ff" stroke="#63b8ff" points="465.19,-49.6 456.41,-55.52 466.97,-56.37 465.19,-49.6"/>
</g>
<!-- Node10 -->
<g id="node10" class="node">
<title>Node10</title>
<g id="a_node10"><a xlink:href="../../d6/dc9/read__vas_8c.html" target="_top" xlink:title=" ">
<polygon fill="white" stroke="#666666" points="739.5,-19 674.5,-19 674.5,0 739.5,0 739.5,-19"/>
<text text-anchor="middle" x="707" y="-7" font-family="Helvetica,sans-Serif" font-size="10.00">read_vas.c</text>
</a>
</g>
</g>
<!-- Node1&#45;&gt;Node10 -->
<g id="edge9" class="edge">
<title>Node1&#45;&gt;Node10</title>
<path fill="none" stroke="#63b8ff" d="M465.92,-56.36C513.58,-47.78 595.7,-32.8 666,-19 668.71,-18.47 671.52,-17.91 674.34,-17.34"/>
<polygon fill="#63b8ff" stroke="#63b8ff" points="465.57,-52.87 456.34,-58.09 466.8,-59.76 465.57,-52.87"/>
</g>
<!-- Node11 -->
<g id="node11" class="node">
<title>Node11</title>
<g id="a_node11"><a xlink:href="../../d0/dce/read__xyz_8c.html" target="_top" xlink:title=" ">
<polygon fill="white" stroke="#666666" points="822.5,-19 757.5,-19 757.5,0 822.5,0 822.5,-19"/>
<text text-anchor="middle" x="790" y="-7" font-family="Helvetica,sans-Serif" font-size="10.00">read_xyz.c</text>
</a>
</g>
</g>
<!-- Node1&#45;&gt;Node11 -->
<g id="edge10" class="edge">
<title>Node1&#45;&gt;Node11</title>
<path fill="none" stroke="#63b8ff" d="M466.04,-58.87C527.22,-51.59 647.54,-36.49 749,-19 751.72,-18.53 754.54,-18.01 757.36,-17.47"/>
<polygon fill="#63b8ff" stroke="#63b8ff" points="465.64,-55.39 456.12,-60.04 466.46,-62.34 465.64,-55.39"/>
</g>
</g>
</svg>
