<?xml version="1.0" encoding="UTF-8" standalone="no"?>
<!DOCTYPE svg PUBLIC "-//W3C//DTD SVG 1.1//EN"
 "http://www.w3.org/Graphics/SVG/1.1/DTD/svg11.dtd">
<!-- Generated by graphviz version 2.43.0 (0)
 -->
<!-- Title: project/readers/readers.h Pages: 1 -->
<svg width="1273pt" height="93pt"
 viewBox="0.00 0.00 1273.00 93.00" xmlns="http://www.w3.org/2000/svg" xmlns:xlink="http://www.w3.org/1999/xlink">
<g id="graph0" class="graph" transform="scale(1 1) rotate(0) translate(4 89)">
<title>project/readers/readers.h</title>
<!-- Node1 -->
<g id="Node000001" class="node">
<title>Node1</title>
<g id="a_Node000001"><a xlink:title="Functions declaration to read atomic coordinates.">
<polygon fill="#999999" stroke="#666666" points="678,-85 539,-85 539,-66 678,-66 678,-85"/>
<text text-anchor="middle" x="608.5" y="-73" font-family="Helvetica,sans-Serif" font-size="10.00">project/readers/readers.h</text>
</a>
</g>
</g>
<!-- Node2 -->
<g id="Node000002" class="node">
<title>Node2</title>
<g id="a_Node000002"><a xlink:href="../../d3/d3a/callbacks_8c.html" target="_top" xlink:title="General callbacks &#160;&#160;Functions to open and close files.">
<polygon fill="white" stroke="#666666" points="89,-24.5 0,-24.5 0,-5.5 89,-5.5 89,-24.5"/>
<text text-anchor="middle" x="44.5" y="-12.5" font-family="Helvetica,sans-Serif" font-size="10.00">gui/callbacks.c</text>
</a>
</g>
</g>
<!-- Node1&#45;&gt;Node2 -->
<g id="edge1_Node000001_Node000002" class="edge">
<title>Node1&#45;&gt;Node2</title>
<g id="a_edge1_Node000001_Node000002"><a xlink:title=" ">
<path fill="none" stroke="#63b8ff" d="M528.63,-71.65C427.78,-67.11 249.24,-55.93 98.5,-30 90.39,-28.6 81.71,-26.59 73.73,-24.53"/>
<polygon fill="#63b8ff" stroke="#63b8ff" points="528.59,-75.15 538.74,-72.09 528.9,-68.16 528.59,-75.15"/>
</a>
</g>
</g>
<!-- Node3 -->
<g id="Node000003" class="node">
<title>Node3</title>
<g id="a_Node000003"><a xlink:href="../../d0/dd3/cbuild__action_8c.html" target="_top" xlink:title="Functions to build a crystal using space group, crystallographic position(s) and object(s) to insert.">
<polygon fill="white" stroke="#666666" points="211.5,-30 107.5,-30 107.5,0 211.5,0 211.5,-30"/>
<text text-anchor="start" x="115.5" y="-18" font-family="Helvetica,sans-Serif" font-size="10.00">opengl/edit/cbuild</text>
<text text-anchor="middle" x="159.5" y="-7" font-family="Helvetica,sans-Serif" font-size="10.00">_action.c</text>
</a>
</g>
</g>
<!-- Node1&#45;&gt;Node3 -->
<g id="edge2_Node000001_Node000003" class="edge">
<title>Node1&#45;&gt;Node3</title>
<g id="a_edge2_Node000001_Node000003"><a xlink:title=" ">
<path fill="none" stroke="#63b8ff" d="M528.45,-67.94C449.74,-60.88 326.35,-48.16 220.5,-30 217.61,-29.5 214.65,-28.96 211.67,-28.37"/>
<polygon fill="#63b8ff" stroke="#63b8ff" points="528.51,-71.46 538.78,-68.86 529.13,-64.49 528.51,-71.46"/>
</a>
</g>
</g>
<!-- Node4 -->
<g id="Node000004" class="node">
<title>Node4</title>
<g id="a_Node000004"><a xlink:href="../../db/d0b/cbuild__edit_8c.html" target="_top" xlink:title="Functions to create the crystal builder window.">
<polygon fill="white" stroke="#666666" points="333.5,-30 229.5,-30 229.5,0 333.5,0 333.5,-30"/>
<text text-anchor="start" x="237.5" y="-18" font-family="Helvetica,sans-Serif" font-size="10.00">opengl/edit/cbuild</text>
<text text-anchor="middle" x="281.5" y="-7" font-family="Helvetica,sans-Serif" font-size="10.00">_edit.c</text>
</a>
</g>
</g>
<!-- Node1&#45;&gt;Node4 -->
<g id="edge3_Node000001_Node000004" class="edge">
<title>Node1&#45;&gt;Node4</title>
<g id="a_edge3_Node000001_Node000004"><a xlink:title=" ">
<path fill="none" stroke="#63b8ff" d="M541.38,-64.41C487.48,-56.03 409.92,-43.36 342.5,-30 339.62,-29.43 336.67,-28.82 333.7,-28.2"/>
<polygon fill="#63b8ff" stroke="#63b8ff" points="541.08,-67.91 551.5,-65.98 542.15,-60.99 541.08,-67.91"/>
</a>
</g>
</g>
<!-- Node5 -->
<g id="Node000005" class="node">
<title>Node5</title>
<g id="a_Node000005"><a xlink:href="../../da/d70/read__c3d_8c.html" target="_top" xlink:title="Functions to read Chem3d atomic coordinates.">
<polygon fill="white" stroke="#666666" points="467,-30 352,-30 352,0 467,0 467,-30"/>
<text text-anchor="start" x="360" y="-18" font-family="Helvetica,sans-Serif" font-size="10.00">project/readers/read</text>
<text text-anchor="middle" x="409.5" y="-7" font-family="Helvetica,sans-Serif" font-size="10.00">_c3d.c</text>
</a>
</g>
</g>
<!-- Node1&#45;&gt;Node5 -->
<g id="edge4_Node000001_Node000005" class="edge">
<title>Node1&#45;&gt;Node5</title>
<g id="a_edge4_Node000001_Node000005"><a xlink:title=" ">
<path fill="none" stroke="#63b8ff" d="M569.64,-63.08C537.51,-53.63 491.73,-40.17 457.34,-30.06"/>
<polygon fill="#63b8ff" stroke="#63b8ff" points="568.98,-66.53 579.56,-65.99 570.96,-59.82 568.98,-66.53"/>
</a>
</g>
</g>
<!-- Node6 -->
<g id="Node000006" class="node">
<title>Node6</title>
<g id="a_Node000006"><a xlink:href="../../d8/d50/read__cif_8c.html" target="_top" xlink:title="Functions to read CIF files.">
<polygon fill="white" stroke="#666666" points="600,-30 485,-30 485,0 600,0 600,-30"/>
<text text-anchor="start" x="493" y="-18" font-family="Helvetica,sans-Serif" font-size="10.00">project/readers/read</text>
<text text-anchor="middle" x="542.5" y="-7" font-family="Helvetica,sans-Serif" font-size="10.00">_cif.c</text>
</a>
</g>
</g>
<!-- Node1&#45;&gt;Node6 -->
<g id="edge5_Node000001_Node000006" class="edge">
<title>Node1&#45;&gt;Node6</title>
<g id="a_edge5_Node000001_Node000006"><a xlink:title=" ">
<path fill="none" stroke="#63b8ff" d="M591.28,-59.23C581.12,-50.23 568.35,-38.91 558.42,-30.11"/>
<polygon fill="#63b8ff" stroke="#63b8ff" points="588.96,-61.85 598.76,-65.87 593.6,-56.62 588.96,-61.85"/>
</a>
</g>
</g>
<!-- Node7 -->
<g id="Node000007" class="node">
<title>Node7</title>
<g id="a_Node000007"><a xlink:href="../../df/df9/read__hist_8c.html" target="_top" xlink:title="Functions to read DL&#45;POLY history file.">
<polygon fill="white" stroke="#666666" points="733,-30 618,-30 618,0 733,0 733,-30"/>
<text text-anchor="start" x="626" y="-18" font-family="Helvetica,sans-Serif" font-size="10.00">project/readers/read</text>
<text text-anchor="middle" x="675.5" y="-7" font-family="Helvetica,sans-Serif" font-size="10.00">_hist.c</text>
</a>
</g>
</g>
<!-- Node1&#45;&gt;Node7 -->
<g id="edge6_Node000001_Node000007" class="edge">
<title>Node1&#45;&gt;Node7</title>
<g id="a_edge6_Node000001_Node000007"><a xlink:title=" ">
<path fill="none" stroke="#63b8ff" d="M625.98,-59.23C636.3,-50.23 649.26,-38.91 659.33,-30.11"/>
<polygon fill="#63b8ff" stroke="#63b8ff" points="623.62,-56.65 618.39,-65.87 628.22,-61.93 623.62,-56.65"/>
</a>
</g>
</g>
<!-- Node8 -->
<g id="Node000008" class="node">
<title>Node8</title>
<g id="a_Node000008"><a xlink:href="../../d9/d42/read__pdb_8c.html" target="_top" xlink:title="Functions to read PDB files.">
<polygon fill="white" stroke="#666666" points="866,-30 751,-30 751,0 866,0 866,-30"/>
<text text-anchor="start" x="759" y="-18" font-family="Helvetica,sans-Serif" font-size="10.00">project/readers/read</text>
<text text-anchor="middle" x="808.5" y="-7" font-family="Helvetica,sans-Serif" font-size="10.00">_pdb.c</text>
</a>
</g>
</g>
<!-- Node1&#45;&gt;Node8 -->
<g id="edge7_Node000001_Node000008" class="edge">
<title>Node1&#45;&gt;Node8</title>
<g id="a_edge7_Node000001_Node000008"><a xlink:title=" ">
<path fill="none" stroke="#63b8ff" d="M647.55,-63.08C679.85,-53.63 725.86,-40.17 760.42,-30.06"/>
<polygon fill="#63b8ff" stroke="#63b8ff" points="646.2,-59.83 637.58,-65.99 648.16,-66.55 646.2,-59.83"/>
</a>
</g>
</g>
<!-- Node9 -->
<g id="Node000009" class="node">
<title>Node9</title>
<g id="a_Node000009"><a xlink:href="../../d9/deb/read__trj_8c.html" target="_top" xlink:title="Functions to read CPMD atomic coordinates.">
<polygon fill="white" stroke="#666666" points="999,-30 884,-30 884,0 999,0 999,-30"/>
<text text-anchor="start" x="892" y="-18" font-family="Helvetica,sans-Serif" font-size="10.00">project/readers/read</text>
<text text-anchor="middle" x="941.5" y="-7" font-family="Helvetica,sans-Serif" font-size="10.00">_trj.c</text>
</a>
</g>
</g>
<!-- Node1&#45;&gt;Node9 -->
<g id="edge8_Node000001_Node000009" class="edge">
<title>Node1&#45;&gt;Node9</title>
<g id="a_edge8_Node000001_Node000009"><a xlink:title=" ">
<path fill="none" stroke="#63b8ff" d="M674.26,-64.36C728.39,-55.82 807.07,-42.95 875.5,-30 878.26,-29.48 881.09,-28.93 883.94,-28.37"/>
<polygon fill="#63b8ff" stroke="#63b8ff" points="673.44,-60.95 664.11,-65.96 674.53,-67.86 673.44,-60.95"/>
</a>
</g>
</g>
<!-- Node10 -->
<g id="Node000010" class="node">
<title>Node10</title>
<g id="a_Node000010"><a xlink:href="../../d6/dc9/read__vas_8c.html" target="_top" xlink:title="Functions to read VASP atomic coordinates.">
<polygon fill="white" stroke="#666666" points="1132,-30 1017,-30 1017,0 1132,0 1132,-30"/>
<text text-anchor="start" x="1025" y="-18" font-family="Helvetica,sans-Serif" font-size="10.00">project/readers/read</text>
<text text-anchor="middle" x="1074.5" y="-7" font-family="Helvetica,sans-Serif" font-size="10.00">_vas.c</text>
</a>
</g>
</g>
<!-- Node1&#45;&gt;Node10 -->
<g id="edge9_Node000001_Node000010" class="edge">
<title>Node1&#45;&gt;Node10</title>
<g id="a_edge9_Node000001_Node000010"><a xlink:title=" ">
<path fill="none" stroke="#63b8ff" d="M688.27,-67.95C769.23,-60.76 898.03,-47.82 1008.5,-30 1011.28,-29.55 1014.11,-29.07 1016.97,-28.55"/>
<polygon fill="#63b8ff" stroke="#63b8ff" points="687.81,-64.48 678.15,-68.84 688.42,-71.45 687.81,-64.48"/>
</a>
</g>
</g>
<!-- Node11 -->
<g id="Node000011" class="node">
<title>Node11</title>
<g id="a_Node000011"><a xlink:href="../../d0/dce/read__xyz_8c.html" target="_top" xlink:title="Functions to read XYZ atomic coordinates.">
<polygon fill="white" stroke="#666666" points="1265,-30 1150,-30 1150,0 1265,0 1265,-30"/>
<text text-anchor="start" x="1158" y="-18" font-family="Helvetica,sans-Serif" font-size="10.00">project/readers/read</text>
<text text-anchor="middle" x="1207.5" y="-7" font-family="Helvetica,sans-Serif" font-size="10.00">_xyz.c</text>
</a>
</g>
</g>
<!-- Node1&#45;&gt;Node11 -->
<g id="edge10_Node000001_Node000011" class="edge">
<title>Node1&#45;&gt;Node11</title>
<g id="a_edge10_Node000001_Node000011"><a xlink:title=" ">
<path fill="none" stroke="#63b8ff" d="M688.4,-70.97C792.96,-65.63 981.69,-53.53 1141.5,-30 1144.28,-29.59 1147.12,-29.13 1149.98,-28.65"/>
<polygon fill="#63b8ff" stroke="#63b8ff" points="688.05,-67.48 678.24,-71.48 688.4,-74.47 688.05,-67.48"/>
</a>
</g>
</g>
</g>
</svg>
