<?xml version="1.0" encoding="UTF-8" standalone="no"?>
<!DOCTYPE svg PUBLIC "-//W3C//DTD SVG 1.1//EN"
 "http://www.w3.org/Graphics/SVG/1.1/DTD/svg11.dtd">
<!-- Generated by graphviz version 7.1.0 (0)
 -->
<!-- Title: mol Pages: 1 -->
<svg width="129pt" height="187pt"
 viewBox="0.00 0.00 129.00 187.00" xmlns="http://www.w3.org/2000/svg" xmlns:xlink="http://www.w3.org/1999/xlink">

<svg id="main" version="1.1" xmlns="http://www.w3.org/2000/svg" xmlns:xlink="http://www.w3.org/1999/xlink" xml:space="preserve" onload="init(evt)">
<style type="text/css"><![CDATA[
.node, .edge {opacity: 0.7;}
.node.selected, .edge.selected {opacity: 1;}
.edge:hover path { stroke: red; }
.edge:hover polygon { stroke: red; fill: red; }
]]></style>
<script type="application/ecmascript" xlink:href="../../svg.min.js"/>
<svg id="graph" class="graph">
<g id="graph0" class="graph" transform="scale(1 1) rotate(0) translate(4 183)">
<title>mol</title>
<!-- Node1 -->
<g id="Node000001" class="node">
<title>Node1</title>
<g id="a_Node000001"><a xlink:title=" ">
<polygon fill="#999999" stroke="#666666" points="32,-19 0,-19 0,0 32,0 32,-19"/>
<text text-anchor="middle" x="16" y="-7" font-family="Helvetica,sans-Serif" font-size="10.00">mol</text>
</a>
</g>
</g>
<!-- Node2 -->
<g id="Node000002" class="node">
<title>Node2</title>
<g id="a_Node000002"><a xlink:href="../../df/d6d/structparameters_1_1at.html" target="_top" xlink:title=" ">
<polygon fill="white" stroke="#666666" points="30.5,-177.5 1.5,-177.5 1.5,-158.5 30.5,-158.5 30.5,-177.5"/>
<text text-anchor="middle" x="16" y="-165.5" font-family="Helvetica,sans-Serif" font-size="10.00">at</text>
</a>
</g>
</g>
<!-- Node2&#45;&gt;Node1 -->
<g id="edge1_Node000001_Node000002" class="edge">
<title>Node2&#45;&gt;Node1</title>
<g id="a_edge1_Node000001_Node000002"><a xlink:title=" ">
<path fill="none" stroke="#9a32cd" stroke-dasharray="5,2" d="M12.93,-146.87C10.51,-128.64 7.74,-101.04 9,-77 10.1,-56.13 13.11,-31.73 14.81,-19.09"/>
<polygon fill="#9a32cd" stroke="#9a32cd" points="9.44,-147.17 14.32,-156.57 16.37,-146.17 9.44,-147.17"/>
</a>
</g>
<text text-anchor="middle" x="24.5" y="-91" font-family="Helvetica,sans-Serif" font-size="10.00" fill="grey"> atom</text>
<text text-anchor="middle" x="24.5" y="-80" font-family="Helvetica,sans-Serif" font-size="10.00" fill="grey">first_at</text>
</g>
<!-- Node2&#45;&gt;Node2 -->
<g id="edge2_Node000002_Node000002" class="edge">
<title>Node2&#45;&gt;Node2</title>
<g id="a_edge2_Node000002_Node000002"><a xlink:title=" ">
<path fill="none" stroke="#9a32cd" stroke-dasharray="5,2" d="M42.06,-174.79C45.91,-173.72 48.5,-171.46 48.5,-168 48.5,-161.67 39.82,-159.35 30.71,-161.03"/>
<polygon fill="#9a32cd" stroke="#9a32cd" points="42.16,-171.29 32.22,-174.95 42.27,-178.29 42.16,-171.29"/>
</a>
</g>
<text text-anchor="middle" x="59.5" y="-171" font-family="Helvetica,sans-Serif" font-size="10.00" fill="grey"> next</text>
<text text-anchor="middle" x="59.5" y="-160" font-family="Helvetica,sans-Serif" font-size="10.00" fill="grey">prev</text>
</g>
<!-- Node3 -->
<g id="Node000003" class="node">
<title>Node3</title>
<g id="a_Node000003"><a xlink:href="../../d9/d3d/structparameters_1_1mol.html" target="_top" xlink:title=" ">
<polygon fill="white" stroke="#666666" points="81,-97.5 49,-97.5 49,-78.5 81,-78.5 81,-97.5"/>
<text text-anchor="middle" x="65" y="-85.5" font-family="Helvetica,sans-Serif" font-size="10.00">mol</text>
</a>
</g>
</g>
<!-- Node2&#45;&gt;Node3 -->
<g id="edge4_Node000003_Node000002" class="edge">
<title>Node2&#45;&gt;Node3</title>
<g id="a_edge4_Node000003_Node000002"><a xlink:title=" ">
<path fill="none" stroke="#9a32cd" stroke-dasharray="5,2" d="M27.53,-148.65C37.58,-132.65 51.73,-110.13 59.44,-97.84"/>
<polygon fill="#9a32cd" stroke="#9a32cd" points="24.78,-146.44 22.43,-156.77 30.71,-150.16 24.78,-146.44"/>
</a>
</g>
<text text-anchor="middle" x="61.5" y="-131" font-family="Helvetica,sans-Serif" font-size="10.00" fill="grey"> atom</text>
<text text-anchor="middle" x="61.5" y="-120" font-family="Helvetica,sans-Serif" font-size="10.00" fill="grey">first_at</text>
</g>
<!-- Node3&#45;&gt;Node1 -->
<g id="edge3_Node000001_Node000003" class="edge">
<title>Node3&#45;&gt;Node1</title>
<g id="a_edge3_Node000001_Node000003"><a xlink:title=" ">
<path fill="none" stroke="#9a32cd" stroke-dasharray="5,2" d="M53.18,-68.55C43.15,-52.89 29.2,-31.11 21.56,-19.17"/>
<polygon fill="#9a32cd" stroke="#9a32cd" points="50.22,-70.42 58.56,-76.95 56.12,-66.64 50.22,-70.42"/>
</a>
</g>
<text text-anchor="middle" x="57" y="-51" font-family="Helvetica,sans-Serif" font-size="10.00" fill="grey"> next</text>
<text text-anchor="middle" x="57" y="-40" font-family="Helvetica,sans-Serif" font-size="10.00" fill="grey">prev</text>
</g>
<!-- Node3&#45;&gt;Node3 -->
<g id="edge5_Node000003_Node000003" class="edge">
<title>Node3&#45;&gt;Node3</title>
<g id="a_edge5_Node000003_Node000003"><a xlink:title=" ">
<path fill="none" stroke="#9a32cd" stroke-dasharray="5,2" d="M92.71,-94.67C96.48,-93.55 99,-91.33 99,-88 99,-81.91 90.58,-79.53 81.44,-80.86"/>
<polygon fill="#9a32cd" stroke="#9a32cd" points="92.8,-91.16 82.95,-95.08 93.09,-98.15 92.8,-91.16"/>
</a>
</g>
<text text-anchor="middle" x="110" y="-91" font-family="Helvetica,sans-Serif" font-size="10.00" fill="grey"> next</text>
<text text-anchor="middle" x="110" y="-80" font-family="Helvetica,sans-Serif" font-size="10.00" fill="grey">prev</text>
</g>
</g>
</svg>
</svg>

<style type='text/css'>
<![CDATA[
[data-mouse-over-selected='false'] { opacity: 0.7; }
[data-mouse-over-selected='true']  { opacity: 1.0; }
]]>
</style>
<script type="application/ecmascript"><![CDATA[
document.addEventListener('DOMContentLoaded', (event) => {
  highlightEdges();
  highlightAdjacentNodes();
});
]]></script>
</svg>
