<?xml version="1.0" encoding="UTF-8" standalone="no"?>
<!DOCTYPE svg PUBLIC "-//W3C//DTD SVG 1.1//EN"
 "http://www.w3.org/Graphics/SVG/1.1/DTD/svg11.dtd">
<!-- Generated by graphviz version 7.1.0 (0)
 -->
<!-- Title: opengl/math_3d.h Pages: 1 -->
<svg width="5772pt" height="214pt"
 viewBox="0.00 0.00 5772.00 214.00" xmlns="http://www.w3.org/2000/svg" xmlns:xlink="http://www.w3.org/1999/xlink">
<g id="graph0" class="graph" transform="scale(1 1) rotate(0) translate(4 210)">
<title>opengl/math_3d.h</title>
<!-- Node1 -->
<g id="node1" class="node">
<title>Node1</title>
<g id="a_node1"><a xlink:title="Functions for OpenGL math.">
<polygon fill="#999999" stroke="#666666" points="2813,-206 2719,-206 2719,-187 2813,-187 2813,-206"/>
<text text-anchor="middle" x="2766" y="-194" font-family="Helvetica,sans-Serif" font-size="10.00">opengl/math_3d.h</text>
</a>
</g>
</g>
<!-- Node2 -->
<g id="node2" class="node">
<title>Node2</title>
<g id="a_node2"><a xlink:href="../../d2/d49/global_8h.html" target="_top" xlink:title="Global variable declarations &#160;&#160;Global convenience function declarations &#160;&#160;Global data structure defin...">
<polygon fill="#fff0f0" stroke="red" points="2791,-151 2741,-151 2741,-132 2791,-132 2791,-151"/>
<text text-anchor="middle" x="2766" y="-139" font-family="Helvetica,sans-Serif" font-size="10.00">global.h</text>
</a>
</g>
</g>
<!-- Node1&#45;&gt;Node2 -->
<g id="edge1" class="edge">
<title>Node1&#45;&gt;Node2</title>
<path fill="none" stroke="#63b8ff" d="M2766,-175.35C2766,-167.1 2766,-157.97 2766,-151.44"/>
<polygon fill="#63b8ff" stroke="#63b8ff" points="2762.5,-175.23 2766,-185.23 2769.5,-175.23 2762.5,-175.23"/>
</g>
<!-- Node3 -->
<g id="node3" class="node">
<title>Node3</title>
<g id="a_node3"><a xlink:href="../../d1/dcc/calc_8c.html" target="_top" xlink:title="Callbacks used in by the molecular dynamics calculation assistants &#160;&#160;Atom selection structure manipul...">
<polygon fill="white" stroke="#666666" points="64,-90.5 0,-90.5 0,-71.5 64,-71.5 64,-90.5"/>
<text text-anchor="middle" x="32" y="-78.5" font-family="Helvetica,sans-Serif" font-size="10.00">calc/calc.c</text>
</a>
</g>
</g>
<!-- Node2&#45;&gt;Node3 -->
<g id="edge2" class="edge">
<title>Node2&#45;&gt;Node3</title>
<path fill="none" stroke="#63b8ff" d="M2729.48,-140.59C2427.38,-141.2 346.31,-143.7 73,-96 66.78,-94.91 60.22,-93.03 54.23,-91"/>
<polygon fill="#63b8ff" stroke="#63b8ff" points="2729.12,-144.09 2739.11,-140.57 2729.1,-137.09 2729.12,-144.09"/>
</g>
<!-- Node4 -->
<g id="node4" class="node">
<title>Node4</title>
<g id="a_node4"><a xlink:href="../../db/d9f/cp2k__basis_8c.html" target="_top" xlink:title="CP2K basis set, as delivered with CP2K v9.1.">
<polygon fill="white" stroke="#666666" points="201.5,-90.5 82.5,-90.5 82.5,-71.5 201.5,-71.5 201.5,-90.5"/>
<text text-anchor="middle" x="142" y="-78.5" font-family="Helvetica,sans-Serif" font-size="10.00">calc/cp2k/cp2k_basis.c</text>
</a>
</g>
</g>
<!-- Node2&#45;&gt;Node4 -->
<g id="edge3" class="edge">
<title>Node2&#45;&gt;Node4</title>
<path fill="none" stroke="#63b8ff" d="M2729.6,-140.27C2436.98,-138.36 472.13,-124.52 211,-96 200.79,-94.89 189.86,-92.99 179.77,-90.96"/>
<polygon fill="#63b8ff" stroke="#63b8ff" points="2729.26,-143.77 2739.28,-140.33 2729.31,-136.77 2729.26,-143.77"/>
</g>
<!-- Node5 -->
<g id="node5" class="node">
<title>Node5</title>
<g id="a_node5"><a xlink:href="../../d0/da4/cp2k__files_8c.html" target="_top" xlink:title="Functions to handle CP2K basis sets and pseudopotentials.">
<polygon fill="white" stroke="#666666" points="334,-90.5 220,-90.5 220,-71.5 334,-71.5 334,-90.5"/>
<text text-anchor="middle" x="277" y="-78.5" font-family="Helvetica,sans-Serif" font-size="10.00">calc/cp2k/cp2k_files.c</text>
</a>
</g>
</g>
<!-- Node2&#45;&gt;Node5 -->
<g id="edge4" class="edge">
<title>Node2&#45;&gt;Node5</title>
<path fill="none" stroke="#63b8ff" d="M2729.3,-140.25C2444.37,-138.25 589.87,-124.19 343,-96 333.22,-94.88 322.76,-92.99 313.11,-90.96"/>
<polygon fill="#63b8ff" stroke="#63b8ff" points="2729.06,-143.75 2739.09,-140.32 2729.11,-136.75 2729.06,-143.75"/>
</g>
<!-- Node6 -->
<g id="node6" class="node">
<title>Node6</title>
<g id="a_node6"><a xlink:href="../../d5/d98/cp2k__gth-basis_8c.html" target="_top" xlink:title="CP2K GTH basis set, as delivered with CP2K v9.1.">
<polygon fill="white" stroke="#666666" points="453.5,-96 352.5,-96 352.5,-66 453.5,-66 453.5,-96"/>
<text text-anchor="start" x="360.5" y="-84" font-family="Helvetica,sans-Serif" font-size="10.00">calc/cp2k/cp2k_gth</text>
<text text-anchor="middle" x="403" y="-73" font-family="Helvetica,sans-Serif" font-size="10.00">&#45;basis.c</text>
</a>
</g>
</g>
<!-- Node2&#45;&gt;Node6 -->
<g id="edge5" class="edge">
<title>Node2&#45;&gt;Node6</title>
<path fill="none" stroke="#63b8ff" d="M2729.41,-140.27C2452.85,-138.43 695.92,-125.66 462,-96 459.28,-95.66 456.51,-95.24 453.72,-94.76"/>
<polygon fill="#63b8ff" stroke="#63b8ff" points="2729.21,-143.76 2739.24,-140.33 2729.26,-136.76 2729.21,-143.76"/>
</g>
<!-- Node7 -->
<g id="node7" class="node">
<title>Node7</title>
<g id="a_node7"><a xlink:href="../../de/d92/cp2k__init_8c.html" target="_top" xlink:title="Initialization of the CP2K input assistant.">
<polygon fill="white" stroke="#666666" points="580.5,-90.5 471.5,-90.5 471.5,-71.5 580.5,-71.5 580.5,-90.5"/>
<text text-anchor="middle" x="526" y="-78.5" font-family="Helvetica,sans-Serif" font-size="10.00">calc/cp2k/cp2k_init.c</text>
</a>
</g>
</g>
<!-- Node2&#45;&gt;Node7 -->
<g id="edge6" class="edge">
<title>Node2&#45;&gt;Node7</title>
<path fill="none" stroke="#63b8ff" d="M2729.39,-140.18C2461.72,-137.8 810.58,-122.13 590,-96 580.51,-94.88 570.36,-92.98 561,-90.95"/>
<polygon fill="#63b8ff" stroke="#63b8ff" points="2729.2,-143.68 2739.23,-140.27 2729.26,-136.68 2729.2,-143.68"/>
</g>
<!-- Node8 -->
<g id="node8" class="node">
<title>Node8</title>
<g id="a_node8"><a xlink:href="../../d5/d8d/cp2k__mol_8c.html" target="_top" xlink:title="Functions to fix fragment(s) when creating the CP2K input file.">
<polygon fill="white" stroke="#666666" points="711,-90.5 599,-90.5 599,-71.5 711,-71.5 711,-90.5"/>
<text text-anchor="middle" x="655" y="-78.5" font-family="Helvetica,sans-Serif" font-size="10.00">calc/cp2k/cp2k_mol.c</text>
</a>
</g>
</g>
<!-- Node2&#45;&gt;Node8 -->
<g id="edge7" class="edge">
<title>Node2&#45;&gt;Node8</title>
<path fill="none" stroke="#63b8ff" d="M2729.58,-140.66C2489.5,-141.54 1131.2,-144.31 720,-96 710.37,-94.87 700.06,-92.97 690.56,-90.94"/>
<polygon fill="#63b8ff" stroke="#63b8ff" points="2729.27,-144.16 2739.26,-140.62 2729.25,-137.16 2729.27,-144.16"/>
</g>
<!-- Node9 -->
<g id="node9" class="node">
<title>Node9</title>
<g id="a_node9"><a xlink:href="../../da/d91/cp2k__molopt-basis_8c.html" target="_top" xlink:title="CP2K MOLOPT basis set, as distributed with CP2K 9.1.">
<polygon fill="white" stroke="#666666" points="846.5,-96 729.5,-96 729.5,-66 846.5,-66 846.5,-96"/>
<text text-anchor="start" x="737.5" y="-84" font-family="Helvetica,sans-Serif" font-size="10.00">calc/cp2k/cp2k_molopt</text>
<text text-anchor="middle" x="788" y="-73" font-family="Helvetica,sans-Serif" font-size="10.00">&#45;basis.c</text>
</a>
</g>
</g>
<!-- Node2&#45;&gt;Node9 -->
<g id="edge8" class="edge">
<title>Node2&#45;&gt;Node9</title>
<path fill="none" stroke="#63b8ff" d="M2729.16,-140.55C2497.4,-140.7 1238.46,-139.47 856,-96 853.01,-95.66 849.95,-95.25 846.87,-94.79"/>
<polygon fill="#63b8ff" stroke="#63b8ff" points="2729.09,-144.05 2739.09,-140.54 2729.08,-137.05 2729.09,-144.05"/>
</g>
<!-- Node10 -->
<g id="node10" class="node">
<title>Node10</title>
<g id="a_node10"><a xlink:href="../../d3/dcb/cp2k__pot_8c.html" target="_top" xlink:title="CP2K potentials, as distributed with CP2K v9.1.">
<polygon fill="white" stroke="#666666" points="975,-90.5 865,-90.5 865,-71.5 975,-71.5 975,-90.5"/>
<text text-anchor="middle" x="920" y="-78.5" font-family="Helvetica,sans-Serif" font-size="10.00">calc/cp2k/cp2k_pot.c</text>
</a>
</g>
</g>
<!-- Node2&#45;&gt;Node10 -->
<g id="edge9" class="edge">
<title>Node2&#45;&gt;Node10</title>
<path fill="none" stroke="#63b8ff" d="M2729.2,-140.54C2506.73,-140.61 1339.24,-138.89 984,-96 974.63,-94.87 964.61,-93 955.34,-90.99"/>
<polygon fill="#63b8ff" stroke="#63b8ff" points="2729,-144.04 2738.99,-140.53 2728.99,-137.04 2729,-144.04"/>
</g>
<!-- Node11 -->
<g id="node11" class="node">
<title>Node11</title>
<g id="a_node11"><a xlink:href="../../dc/d4a/cp2k__print_8c.html" target="_top" xlink:title="Functions to print the CP2K input file(s)">
<polygon fill="white" stroke="#666666" points="1108.5,-90.5 993.5,-90.5 993.5,-71.5 1108.5,-71.5 1108.5,-90.5"/>
<text text-anchor="middle" x="1051" y="-78.5" font-family="Helvetica,sans-Serif" font-size="10.00">calc/cp2k/cp2k_print.c</text>
</a>
</g>
</g>
<!-- Node2&#45;&gt;Node11 -->
<g id="edge10" class="edge">
<title>Node2&#45;&gt;Node11</title>
<path fill="none" stroke="#63b8ff" d="M2729.32,-140.42C2517.09,-139.81 1444.45,-134.82 1117,-96 1107.35,-94.86 1097.01,-92.98 1087.46,-90.97"/>
<polygon fill="#63b8ff" stroke="#63b8ff" points="2729.18,-143.92 2739.19,-140.44 2729.2,-136.92 2729.18,-143.92"/>
</g>
<!-- Node12 -->
<g id="node12" class="node">
<title>Node12</title>
<g id="a_node12"><a xlink:href="../../d6/d03/cpmd__atoms_8c.html" target="_top" xlink:title="Functions to handle dummy atom(s) for the CPMD input file.">
<polygon fill="white" stroke="#666666" points="1255.5,-90.5 1126.5,-90.5 1126.5,-71.5 1255.5,-71.5 1255.5,-90.5"/>
<text text-anchor="middle" x="1191" y="-78.5" font-family="Helvetica,sans-Serif" font-size="10.00">calc/cpmd/cpmd_atoms.c</text>
</a>
</g>
</g>
<!-- Node2&#45;&gt;Node12 -->
<g id="edge11" class="edge">
<title>Node2&#45;&gt;Node12</title>
<path fill="none" stroke="#63b8ff" d="M2729.17,-140.21C2528.07,-138.49 1560.85,-128.65 1264,-96 1253.35,-94.83 1241.94,-92.95 1231.37,-90.93"/>
<polygon fill="#63b8ff" stroke="#63b8ff" points="2728.98,-143.71 2739.01,-140.29 2729.04,-136.71 2728.98,-143.71"/>
</g>
<!-- Node13 -->
<g id="node13" class="node">
<title>Node13</title>
<g id="a_node13"><a xlink:href="../../dd/dc0/cpmd__init_8c.html" target="_top" xlink:title="Functions to initialize the QM / QM&#45;MM input file creation assistant.">
<polygon fill="white" stroke="#666666" points="1388.5,-90.5 1273.5,-90.5 1273.5,-71.5 1388.5,-71.5 1388.5,-90.5"/>
<text text-anchor="middle" x="1331" y="-78.5" font-family="Helvetica,sans-Serif" font-size="10.00">calc/cpmd/cpmd_init.c</text>
</a>
</g>
</g>
<!-- Node2&#45;&gt;Node13 -->
<g id="edge12" class="edge">
<title>Node2&#45;&gt;Node13</title>
<path fill="none" stroke="#63b8ff" d="M2729.46,-140.19C2539.79,-138.42 1665.81,-128.62 1397,-96 1387.35,-94.83 1377.02,-92.95 1367.46,-90.93"/>
<polygon fill="#63b8ff" stroke="#63b8ff" points="2729.17,-143.68 2739.2,-140.27 2729.23,-136.68 2729.17,-143.68"/>
</g>
<!-- Node14 -->
<g id="node14" class="node">
<title>Node14</title>
<g id="a_node14"><a xlink:href="../../d6/dc0/cpmd__nose_8c.html" target="_top" xlink:title="Functions to prepare the thermostat(s) configuration widgets for QM / QM&#45;MM input files.">
<polygon fill="white" stroke="#666666" points="1529.5,-90.5 1406.5,-90.5 1406.5,-71.5 1529.5,-71.5 1529.5,-90.5"/>
<text text-anchor="middle" x="1468" y="-78.5" font-family="Helvetica,sans-Serif" font-size="10.00">calc/cpmd/cpmd_nose.c</text>
</a>
</g>
</g>
<!-- Node2&#45;&gt;Node14 -->
<g id="edge13" class="edge">
<title>Node2&#45;&gt;Node14</title>
<path fill="none" stroke="#63b8ff" d="M2729.36,-139.97C2551.55,-137.27 1777.48,-124.1 1538,-96 1527.91,-94.82 1517.1,-92.95 1507.07,-90.97"/>
<polygon fill="#63b8ff" stroke="#63b8ff" points="2729.09,-143.47 2739.14,-140.12 2729.2,-136.47 2729.09,-143.47"/>
</g>
<!-- Node15 -->
<g id="node15" class="node">
<title>Node15</title>
<g id="a_node15"><a xlink:href="../../d1/dcc/cpmd__print_8c.html" target="_top" xlink:title="Functions to print the CPMD input file(s)">
<polygon fill="white" stroke="#666666" points="1668.5,-90.5 1547.5,-90.5 1547.5,-71.5 1668.5,-71.5 1668.5,-90.5"/>
<text text-anchor="middle" x="1608" y="-78.5" font-family="Helvetica,sans-Serif" font-size="10.00">calc/cpmd/cpmd_print.c</text>
</a>
</g>
</g>
<!-- Node2&#45;&gt;Node15 -->
<g id="edge14" class="edge">
<title>Node2&#45;&gt;Node15</title>
<path fill="none" stroke="#63b8ff" d="M2729.42,-139.77C2564.41,-136.38 1888.36,-121.18 1678,-96 1667.91,-94.79 1657.1,-92.92 1647.07,-90.94"/>
<polygon fill="#63b8ff" stroke="#63b8ff" points="2729.25,-143.27 2739.32,-139.98 2729.39,-136.27 2729.25,-143.27"/>
</g>
<!-- Node16 -->
<g id="node16" class="node">
<title>Node16</title>
<g id="a_node16"><a xlink:href="../../db/d6f/cpmd__restart_8c.html" target="_top" xlink:title="Functions to configure the restart section for the CPMD input file creation assistant.">
<polygon fill="white" stroke="#666666" points="1817,-90.5 1687,-90.5 1687,-71.5 1817,-71.5 1817,-90.5"/>
<text text-anchor="middle" x="1752" y="-78.5" font-family="Helvetica,sans-Serif" font-size="10.00">calc/cpmd/cpmd_restart.c</text>
</a>
</g>
</g>
<!-- Node2&#45;&gt;Node16 -->
<g id="edge15" class="edge">
<title>Node2&#45;&gt;Node16</title>
<path fill="none" stroke="#63b8ff" d="M2729.41,-140.44C2603.87,-139.86 2179.11,-134.97 1831,-96 1819.93,-94.76 1808.06,-92.93 1796.97,-91"/>
<polygon fill="#63b8ff" stroke="#63b8ff" points="2729.09,-143.94 2739.1,-140.47 2729.12,-136.94 2729.09,-143.94"/>
</g>
<!-- Node17 -->
<g id="node17" class="node">
<title>Node17</title>
<g id="a_node17"><a xlink:href="../../d8/ded/dlp__comp_8c.html" target="_top" xlink:title="Functions to compare and adjust field body parameters.">
<polygon fill="white" stroke="#666666" points="1783,-24.5 1661,-24.5 1661,-5.5 1783,-5.5 1783,-24.5"/>
<text text-anchor="middle" x="1722" y="-12.5" font-family="Helvetica,sans-Serif" font-size="10.00">calc/dl_poly/dlp_comp.c</text>
</a>
</g>
</g>
<!-- Node2&#45;&gt;Node17 -->
<g id="edge16" class="edge">
<title>Node2&#45;&gt;Node17</title>
<path fill="none" stroke="#63b8ff" d="M2729.3,-139.78C2571.55,-136.54 1955.42,-122.31 1873,-96 1849.39,-88.47 1847.65,-78.06 1826,-66 1797.65,-50.21 1763.53,-34.38 1742.3,-24.89"/>
<polygon fill="#63b8ff" stroke="#63b8ff" points="2729.09,-143.28 2739.16,-139.98 2729.23,-136.28 2729.09,-143.28"/>
</g>
<!-- Node18 -->
<g id="node18" class="node">
<title>Node18</title>
<g id="a_node18"><a xlink:href="../../da/d88/dlp__copy_8c.html" target="_top" xlink:title="Functions to copy force field and related data structures.">
<polygon fill="white" stroke="#666666" points="1919,-24.5 1801,-24.5 1801,-5.5 1919,-5.5 1919,-24.5"/>
<text text-anchor="middle" x="1860" y="-12.5" font-family="Helvetica,sans-Serif" font-size="10.00">calc/dl_poly/dlp_copy.c</text>
</a>
</g>
</g>
<!-- Node2&#45;&gt;Node18 -->
<g id="edge17" class="edge">
<title>Node2&#45;&gt;Node18</title>
<path fill="none" stroke="#63b8ff" d="M2729.52,-140.73C2574.16,-141.4 1972.43,-141.08 1902,-96 1876.37,-79.59 1865.47,-42.11 1861.69,-24.92"/>
<polygon fill="#63b8ff" stroke="#63b8ff" points="2729.24,-144.23 2739.22,-140.68 2729.2,-137.23 2729.24,-144.23"/>
</g>
<!-- Node19 -->
<g id="node19" class="node">
<title>Node19</title>
<g id="a_node19"><a xlink:href="../../d4/d28/dlp__edit_8c.html" target="_top" xlink:title="Functions to edit DL&#45;POLY force field parameters.">
<polygon fill="white" stroke="#666666" points="2050.5,-24.5 1937.5,-24.5 1937.5,-5.5 2050.5,-5.5 2050.5,-24.5"/>
<text text-anchor="middle" x="1994" y="-12.5" font-family="Helvetica,sans-Serif" font-size="10.00">calc/dl_poly/dlp_edit.c</text>
</a>
</g>
</g>
<!-- Node2&#45;&gt;Node19 -->
<g id="edge18" class="edge">
<title>Node2&#45;&gt;Node19</title>
<path fill="none" stroke="#63b8ff" d="M2729.29,-140.38C2609.75,-139.6 2232.71,-134.11 2118,-96 2070.59,-80.25 2023.46,-42.08 2003.69,-24.78"/>
<polygon fill="#63b8ff" stroke="#63b8ff" points="2729.15,-143.87 2739.16,-140.43 2729.18,-136.88 2729.15,-143.87"/>
</g>
<!-- Node20 -->
<g id="node20" class="node">
<title>Node20</title>
<g id="a_node20"><a xlink:href="../../dc/d79/dlp__ff__match_8c.html" target="_top" xlink:title="Functions the list the available database parameters for the atom database window.">
<polygon fill="white" stroke="#666666" points="2163.5,-30 2068.5,-30 2068.5,0 2163.5,0 2163.5,-30"/>
<text text-anchor="start" x="2076.5" y="-18" font-family="Helvetica,sans-Serif" font-size="10.00">calc/dl_poly/dlp_ff</text>
<text text-anchor="middle" x="2116" y="-7" font-family="Helvetica,sans-Serif" font-size="10.00">_match.c</text>
</a>
</g>
</g>
<!-- Node2&#45;&gt;Node20 -->
<g id="edge19" class="edge">
<title>Node2&#45;&gt;Node20</title>
<path fill="none" stroke="#63b8ff" d="M2729.2,-140.28C2601.99,-139.2 2186.04,-132.86 2140,-96 2120.19,-80.14 2116.25,-48.58 2115.74,-30.2"/>
<polygon fill="#63b8ff" stroke="#63b8ff" points="2729.05,-143.78 2739.08,-140.36 2729.11,-136.78 2729.05,-143.78"/>
</g>
<!-- Node21 -->
<g id="node21" class="node">
<title>Node21</title>
<g id="a_node21"><a xlink:href="../../d8/da6/dlp__field_8h.html" target="_top" xlink:title="Variable declarations for the creation of the DL_POLY input file(s)">
<polygon fill="#fff0f0" stroke="red" points="2027,-90.5 1911,-90.5 1911,-71.5 2027,-71.5 2027,-90.5"/>
<text text-anchor="middle" x="1969" y="-78.5" font-family="Helvetica,sans-Serif" font-size="10.00">calc/dl_poly/dlp_field.h</text>
</a>
</g>
</g>
<!-- Node2&#45;&gt;Node21 -->
<g id="edge20" class="edge">
<title>Node2&#45;&gt;Node21</title>
<path fill="none" stroke="#63b8ff" d="M2729.13,-139.94C2622.26,-137.94 2303.28,-129.4 2041,-96 2030.89,-94.71 2020.07,-92.86 2009.97,-90.93"/>
<polygon fill="#63b8ff" stroke="#63b8ff" points="2728.95,-143.43 2739.01,-140.11 2729.07,-136.44 2728.95,-143.43"/>
</g>
<!-- Node30 -->
<g id="node22" class="node">
<title>Node30</title>
<g id="a_node22"><a xlink:href="../../d7/d30/force__fields_8c.html" target="_top" xlink:title="Functions to prepare the force field XML files from the sources in atomes &#160;&#160;Functions to read the for...">
<polygon fill="white" stroke="#666666" points="2294.5,-30 2181.5,-30 2181.5,0 2294.5,0 2294.5,-30"/>
<text text-anchor="start" x="2189.5" y="-18" font-family="Helvetica,sans-Serif" font-size="10.00">calc/force_fields/force</text>
<text text-anchor="middle" x="2238" y="-7" font-family="Helvetica,sans-Serif" font-size="10.00">_fields.c</text>
</a>
</g>
</g>
<!-- Node2&#45;&gt;Node30 -->
<g id="edge44" class="edge">
<title>Node2&#45;&gt;Node30</title>
<path fill="none" stroke="#63b8ff" d="M2729.38,-140.68C2602.83,-140.94 2189.53,-138.49 2150,-96 2127.15,-71.44 2168.76,-45.82 2202.21,-30.39"/>
<polygon fill="#63b8ff" stroke="#63b8ff" points="2729.21,-144.18 2739.2,-140.66 2729.19,-137.18 2729.21,-144.18"/>
</g>
<!-- Node42 -->
<g id="node23" class="node">
<title>Node42</title>
<g id="a_node23"><a xlink:href="../../d4/ddc/amber94_8c.html" target="_top" xlink:title="Amber&#45;94 force field, from &#39;parm94&#39;.">
<polygon fill="white" stroke="#666666" points="2296.5,-90.5 2159.5,-90.5 2159.5,-71.5 2296.5,-71.5 2296.5,-90.5"/>
<text text-anchor="middle" x="2228" y="-78.5" font-family="Helvetica,sans-Serif" font-size="10.00">calc/force_fields/amber94.c</text>
</a>
</g>
</g>
<!-- Node2&#45;&gt;Node42 -->
<g id="edge26" class="edge">
<title>Node2&#45;&gt;Node42</title>
<path fill="none" stroke="#63b8ff" d="M2729.55,-138.02C2651.47,-132.49 2462.38,-117.86 2305,-96 2294.91,-94.6 2284.12,-92.82 2273.91,-91"/>
<polygon fill="#63b8ff" stroke="#63b8ff" points="2728.95,-141.49 2739.17,-138.7 2729.44,-134.51 2728.95,-141.49"/>
</g>
<!-- Node43 -->
<g id="node24" class="node">
<title>Node43</title>
<g id="a_node24"><a xlink:href="../../dd/d7e/amber96_8c.html" target="_top" xlink:title="Amber&#45;96 force field, from &#39;parm96&#39;.">
<polygon fill="white" stroke="#666666" points="2451.5,-90.5 2314.5,-90.5 2314.5,-71.5 2451.5,-71.5 2451.5,-90.5"/>
<text text-anchor="middle" x="2383" y="-78.5" font-family="Helvetica,sans-Serif" font-size="10.00">calc/force_fields/amber96.c</text>
</a>
</g>
</g>
<!-- Node2&#45;&gt;Node43 -->
<g id="edge27" class="edge">
<title>Node2&#45;&gt;Node43</title>
<path fill="none" stroke="#63b8ff" d="M2729.18,-135.57C2671.64,-127.78 2556.94,-111.86 2460,-96 2450.48,-94.44 2440.32,-92.67 2430.6,-90.93"/>
<polygon fill="#63b8ff" stroke="#63b8ff" points="2728.69,-139.04 2739.06,-136.91 2729.62,-132.1 2728.69,-139.04"/>
</g>
<!-- Node44 -->
<g id="node25" class="node">
<title>Node44</title>
<g id="a_node25"><a xlink:href="../../d5/d08/amber98_8c.html" target="_top" xlink:title="Amber&#45;98 force field, from &#39;parm98&#39;.">
<polygon fill="white" stroke="#666666" points="2606.5,-90.5 2469.5,-90.5 2469.5,-71.5 2606.5,-71.5 2606.5,-90.5"/>
<text text-anchor="middle" x="2538" y="-78.5" font-family="Helvetica,sans-Serif" font-size="10.00">calc/force_fields/amber98.c</text>
</a>
</g>
</g>
<!-- Node2&#45;&gt;Node44 -->
<g id="edge28" class="edge">
<title>Node2&#45;&gt;Node44</title>
<path fill="none" stroke="#63b8ff" d="M2729.65,-131.17C2686.63,-120.14 2615.51,-101.89 2573.06,-91"/>
<polygon fill="#63b8ff" stroke="#63b8ff" points="2728.71,-134.54 2739.26,-133.64 2730.45,-127.76 2728.71,-134.54"/>
</g>
<!-- Node45 -->
<g id="node26" class="node">
<title>Node45</title>
<g id="a_node26"><a xlink:href="../../df/dad/amber99_8c.html" target="_top" xlink:title="Amber&#45;99 force field, from &#39;parm99&#39;.">
<polygon fill="white" stroke="#666666" points="2761.5,-90.5 2624.5,-90.5 2624.5,-71.5 2761.5,-71.5 2761.5,-90.5"/>
<text text-anchor="middle" x="2693" y="-78.5" font-family="Helvetica,sans-Serif" font-size="10.00">calc/force_fields/amber99.c</text>
</a>
</g>
</g>
<!-- Node2&#45;&gt;Node45 -->
<g id="edge29" class="edge">
<title>Node2&#45;&gt;Node45</title>
<path fill="none" stroke="#63b8ff" d="M2746.32,-124.73C2732.81,-113.9 2715.38,-99.93 2704.19,-90.97"/>
<polygon fill="#63b8ff" stroke="#63b8ff" points="2743.74,-127.15 2753.73,-130.67 2748.12,-121.68 2743.74,-127.15"/>
</g>
<!-- Node46 -->
<g id="node27" class="node">
<title>Node46</title>
<g id="a_node27"><a xlink:href="../../d9/de7/cff91_8c.html" target="_top" xlink:title="CFF91 force field, from &#39;CFF91.frc&#39;.">
<polygon fill="white" stroke="#666666" points="2900,-90.5 2780,-90.5 2780,-71.5 2900,-71.5 2900,-90.5"/>
<text text-anchor="middle" x="2840" y="-78.5" font-family="Helvetica,sans-Serif" font-size="10.00">calc/force_fields/cff91.c</text>
</a>
</g>
</g>
<!-- Node2&#45;&gt;Node46 -->
<g id="edge30" class="edge">
<title>Node2&#45;&gt;Node46</title>
<path fill="none" stroke="#63b8ff" d="M2785.95,-124.73C2799.64,-113.9 2817.31,-99.93 2828.66,-90.97"/>
<polygon fill="#63b8ff" stroke="#63b8ff" points="2784.1,-121.73 2778.43,-130.68 2788.44,-127.22 2784.1,-121.73"/>
</g>
<!-- Node47 -->
<g id="node28" class="node">
<title>Node47</title>
<g id="a_node28"><a xlink:href="../../d2/d6d/charmm22__prot_8c.html" target="_top" xlink:title="CHARMM&#45;charmm22_prot force field, from &#39;charmm22_prot&#39;.">
<polygon fill="white" stroke="#666666" points="3055.5,-96 2918.5,-96 2918.5,-66 3055.5,-66 3055.5,-96"/>
<text text-anchor="start" x="2926.5" y="-84" font-family="Helvetica,sans-Serif" font-size="10.00">calc/force_fields/charmm22</text>
<text text-anchor="middle" x="2987" y="-73" font-family="Helvetica,sans-Serif" font-size="10.00">_prot.c</text>
</a>
</g>
</g>
<!-- Node2&#45;&gt;Node47 -->
<g id="edge31" class="edge">
<title>Node2&#45;&gt;Node47</title>
<path fill="none" stroke="#63b8ff" d="M2802.13,-130.94C2837.52,-121.57 2891.91,-107.17 2932.54,-96.42"/>
<polygon fill="#63b8ff" stroke="#63b8ff" points="2801.59,-127.46 2792.81,-133.4 2803.38,-134.23 2801.59,-127.46"/>
</g>
<!-- Node48 -->
<g id="node29" class="node">
<title>Node48</title>
<g id="a_node29"><a xlink:href="../../de/d55/charmm22__prot__metals_8c.html" target="_top" xlink:title=" ">
<polygon fill="white" stroke="#666666" points="3210.5,-96 3073.5,-96 3073.5,-66 3210.5,-66 3210.5,-96"/>
<text text-anchor="start" x="3081.5" y="-84" font-family="Helvetica,sans-Serif" font-size="10.00">calc/force_fields/charmm22</text>
<text text-anchor="middle" x="3142" y="-73" font-family="Helvetica,sans-Serif" font-size="10.00">_prot_metals.c</text>
</a>
</g>
</g>
<!-- Node2&#45;&gt;Node48 -->
<g id="edge32" class="edge">
<title>Node2&#45;&gt;Node48</title>
<path fill="none" stroke="#63b8ff" d="M2802.28,-135.43C2858.44,-127.51 2969.79,-111.49 3064,-96 3066.99,-95.51 3070.04,-95 3073.12,-94.48"/>
<polygon fill="#63b8ff" stroke="#63b8ff" points="2802.07,-131.93 2792.65,-136.79 2803.04,-138.86 2802.07,-131.93"/>
</g>
<!-- Node49 -->
<g id="node30" class="node">
<title>Node49</title>
<g id="a_node30"><a xlink:href="../../d7/d39/charmm35__ethers_8c.html" target="_top" xlink:title="CHARMM&#45;charmm35_ethers force field, from &#39;charmm35_ethers&#39;.">
<polygon fill="white" stroke="#666666" points="3365.5,-96 3228.5,-96 3228.5,-66 3365.5,-66 3365.5,-96"/>
<text text-anchor="start" x="3236.5" y="-84" font-family="Helvetica,sans-Serif" font-size="10.00">calc/force_fields/charmm35</text>
<text text-anchor="middle" x="3297" y="-73" font-family="Helvetica,sans-Serif" font-size="10.00">_ethers.c</text>
</a>
</g>
</g>
<!-- Node2&#45;&gt;Node49 -->
<g id="edge33" class="edge">
<title>Node2&#45;&gt;Node49</title>
<path fill="none" stroke="#63b8ff" d="M2802.57,-137.9C2879.73,-132.2 3064.83,-117.37 3219,-96 3222,-95.58 3225.06,-95.14 3228.14,-94.67"/>
<polygon fill="#63b8ff" stroke="#63b8ff" points="2802.36,-134.41 2792.64,-138.63 2802.87,-141.39 2802.36,-134.41"/>
</g>
<!-- Node50 -->
<g id="node31" class="node">
<title>Node50</title>
<g id="a_node31"><a xlink:href="../../de/db7/charmm36__carb_8c.html" target="_top" xlink:title="CHARMM&#45;charmm36_carb force field, from &#39;charmm36_carb&#39;.">
<polygon fill="white" stroke="#666666" points="3520.5,-96 3383.5,-96 3383.5,-66 3520.5,-66 3520.5,-96"/>
<text text-anchor="start" x="3391.5" y="-84" font-family="Helvetica,sans-Serif" font-size="10.00">calc/force_fields/charmm36</text>
<text text-anchor="middle" x="3452" y="-73" font-family="Helvetica,sans-Serif" font-size="10.00">_carb.c</text>
</a>
</g>
</g>
<!-- Node2&#45;&gt;Node50 -->
<g id="edge34" class="edge">
<title>Node2&#45;&gt;Node50</title>
<path fill="none" stroke="#63b8ff" d="M2802.5,-139.16C2897.17,-135.4 3158.25,-123.18 3374,-96 3377,-95.62 3380.07,-95.2 3383.16,-94.76"/>
<polygon fill="#63b8ff" stroke="#63b8ff" points="2802.66,-135.65 2792.8,-139.54 2802.93,-142.65 2802.66,-135.65"/>
</g>
<!-- Node51 -->
<g id="node32" class="node">
<title>Node51</title>
<g id="a_node32"><a xlink:href="../../d1/d40/charmm36__cgenff_8c.html" target="_top" xlink:title="CHARMM&#45;charmm36_cgenff force field, from &#39;charmm36_cgenff&#39;.">
<polygon fill="white" stroke="#666666" points="3675.5,-96 3538.5,-96 3538.5,-66 3675.5,-66 3675.5,-96"/>
<text text-anchor="start" x="3546.5" y="-84" font-family="Helvetica,sans-Serif" font-size="10.00">calc/force_fields/charmm36</text>
<text text-anchor="middle" x="3607" y="-73" font-family="Helvetica,sans-Serif" font-size="10.00">_cgenff.c</text>
</a>
</g>
</g>
<!-- Node2&#45;&gt;Node51 -->
<g id="edge35" class="edge">
<title>Node2&#45;&gt;Node51</title>
<path fill="none" stroke="#63b8ff" d="M2802.91,-139.91C2913.41,-137.8 3251.17,-128.92 3529,-96 3532.01,-95.64 3535.07,-95.25 3538.16,-94.81"/>
<polygon fill="#63b8ff" stroke="#63b8ff" points="2802.9,-136.41 2792.97,-140.09 2803.03,-143.41 2802.9,-136.41"/>
</g>
<!-- Node52 -->
<g id="node33" class="node">
<title>Node52</title>
<g id="a_node33"><a xlink:href="../../d6/de8/charmm36__lipid_8c.html" target="_top" xlink:title="CHARMM&#45;charmm36_lipid force field, from &#39;charmm36_lipid&#39;.">
<polygon fill="white" stroke="#666666" points="3830.5,-96 3693.5,-96 3693.5,-66 3830.5,-66 3830.5,-96"/>
<text text-anchor="start" x="3701.5" y="-84" font-family="Helvetica,sans-Serif" font-size="10.00">calc/force_fields/charmm36</text>
<text text-anchor="middle" x="3762" y="-73" font-family="Helvetica,sans-Serif" font-size="10.00">_lipid.c</text>
</a>
</g>
</g>
<!-- Node2&#45;&gt;Node52 -->
<g id="edge36" class="edge">
<title>Node2&#45;&gt;Node52</title>
<path fill="none" stroke="#63b8ff" d="M2802.72,-140.42C2926.98,-139.78 3342.99,-134.7 3684,-96 3687.01,-95.66 3690.07,-95.27 3693.17,-94.85"/>
<polygon fill="#63b8ff" stroke="#63b8ff" points="2802.78,-136.92 2792.8,-140.46 2802.82,-143.92 2802.78,-136.92"/>
</g>
<!-- Node53 -->
<g id="node34" class="node">
<title>Node53</title>
<g id="a_node34"><a xlink:href="../../da/daa/charmm36__na_8c.html" target="_top" xlink:title="CHARMM&#45;charmm36_na force field, from &#39;charmm36_na&#39;.">
<polygon fill="white" stroke="#666666" points="4009.5,-90.5 3848.5,-90.5 3848.5,-71.5 4009.5,-71.5 4009.5,-90.5"/>
<text text-anchor="middle" x="3929" y="-78.5" font-family="Helvetica,sans-Serif" font-size="10.00">calc/force_fields/charmm36_na.c</text>
</a>
</g>
</g>
<!-- Node2&#45;&gt;Node53 -->
<g id="edge37" class="edge">
<title>Node2&#45;&gt;Node53</title>
<path fill="none" stroke="#63b8ff" d="M2802.86,-140.48C2940.07,-140.07 3434.19,-135.75 3839,-96 3851.59,-94.76 3865.1,-92.93 3877.73,-91"/>
<polygon fill="#63b8ff" stroke="#63b8ff" points="2802.93,-136.98 2792.93,-140.5 2802.94,-143.98 2802.93,-136.98"/>
</g>
<!-- Node54 -->
<g id="node35" class="node">
<title>Node54</title>
<g id="a_node35"><a xlink:href="../../d1/d8a/charmm36__prot_8c.html" target="_top" xlink:title="CHARMM&#45;charmm36_prot force field, from &#39;charmm36_prot&#39;.">
<polygon fill="white" stroke="#666666" points="4164.5,-96 4027.5,-96 4027.5,-66 4164.5,-66 4164.5,-96"/>
<text text-anchor="start" x="4035.5" y="-84" font-family="Helvetica,sans-Serif" font-size="10.00">calc/force_fields/charmm36</text>
<text text-anchor="middle" x="4096" y="-73" font-family="Helvetica,sans-Serif" font-size="10.00">_prot.c</text>
</a>
</g>
</g>
<!-- Node2&#45;&gt;Node54 -->
<g id="edge38" class="edge">
<title>Node2&#45;&gt;Node54</title>
<path fill="none" stroke="#63b8ff" d="M2802.76,-139.9C2982.87,-136.85 3773.3,-122.18 4018,-96 4021.01,-95.68 4024.08,-95.31 4027.17,-94.9"/>
<polygon fill="#63b8ff" stroke="#63b8ff" points="2802.78,-136.4 2792.84,-140.07 2802.9,-143.4 2802.78,-136.4"/>
</g>
<!-- Node55 -->
<g id="node36" class="node">
<title>Node55</title>
<g id="a_node36"><a xlink:href="../../d7/df9/charmm36__prot__metals_8c.html" target="_top" xlink:title="CHARMM&#45;charmm36m_prot force field, from &#39;charmm36m_prot&#39;.">
<polygon fill="white" stroke="#666666" points="4319.5,-96 4182.5,-96 4182.5,-66 4319.5,-66 4319.5,-96"/>
<text text-anchor="start" x="4190.5" y="-84" font-family="Helvetica,sans-Serif" font-size="10.00">calc/force_fields/charmm36</text>
<text text-anchor="middle" x="4251" y="-73" font-family="Helvetica,sans-Serif" font-size="10.00">_prot_metals.c</text>
</a>
</g>
</g>
<!-- Node2&#45;&gt;Node55 -->
<g id="edge39" class="edge">
<title>Node2&#45;&gt;Node55</title>
<path fill="none" stroke="#63b8ff" d="M2802.91,-140.06C2996.45,-137.66 3895.93,-125.09 4173,-96 4176.01,-95.68 4179.08,-95.32 4182.17,-94.92"/>
<polygon fill="#63b8ff" stroke="#63b8ff" points="2802.91,-136.56 2792.95,-140.19 2803,-143.56 2802.91,-136.56"/>
</g>
<!-- Node56 -->
<g id="node37" class="node">
<title>Node56</title>
<g id="a_node37"><a xlink:href="../../d3/deb/charmm__silicates_8c.html" target="_top" xlink:title="CHARMM&#45;charmm_silicates force field, from &#39;charmm_silicates&#39;.">
<polygon fill="white" stroke="#666666" points="4464,-96 4338,-96 4338,-66 4464,-66 4464,-96"/>
<text text-anchor="start" x="4346" y="-84" font-family="Helvetica,sans-Serif" font-size="10.00">calc/force_fields/charmm</text>
<text text-anchor="middle" x="4401" y="-73" font-family="Helvetica,sans-Serif" font-size="10.00">_silicates.c</text>
</a>
</g>
</g>
<!-- Node2&#45;&gt;Node56 -->
<g id="edge40" class="edge">
<title>Node2&#45;&gt;Node56</title>
<path fill="none" stroke="#63b8ff" d="M2802.66,-140.26C3008.12,-138.78 4018.47,-129.87 4328,-96 4331.21,-95.65 4334.48,-95.23 4337.79,-94.77"/>
<polygon fill="#63b8ff" stroke="#63b8ff" points="2802.84,-136.76 2792.86,-140.33 2802.89,-143.76 2802.84,-136.76"/>
</g>
<!-- Node57 -->
<g id="node38" class="node">
<title>Node57</title>
<g id="a_node38"><a xlink:href="../../d6/dfb/compass_8c.html" target="_top" xlink:title="Compass force field, from &#39;Compass.frc&#39;.">
<polygon fill="white" stroke="#666666" points="4621.5,-90.5 4482.5,-90.5 4482.5,-71.5 4621.5,-71.5 4621.5,-90.5"/>
<text text-anchor="middle" x="4552" y="-78.5" font-family="Helvetica,sans-Serif" font-size="10.00">calc/force_fields/compass.c</text>
</a>
</g>
</g>
<!-- Node2&#45;&gt;Node57 -->
<g id="edge41" class="edge">
<title>Node2&#45;&gt;Node57</title>
<path fill="none" stroke="#63b8ff" d="M2802.58,-140.29C3018.88,-138.94 4132.68,-130.4 4473,-96 4484.5,-94.84 4496.85,-92.96 4508.29,-90.95"/>
<polygon fill="#63b8ff" stroke="#63b8ff" points="2802.77,-136.79 2792.8,-140.35 2802.82,-143.79 2802.77,-136.79"/>
</g>
<!-- Node58 -->
<g id="node39" class="node">
<title>Node58</title>
<g id="a_node39"><a xlink:href="../../de/df0/cvff_8c.html" target="_top" xlink:title="CVFF force field, from &#39;CVFF.frc&#39;.">
<polygon fill="white" stroke="#666666" points="4754.5,-90.5 4639.5,-90.5 4639.5,-71.5 4754.5,-71.5 4754.5,-90.5"/>
<text text-anchor="middle" x="4697" y="-78.5" font-family="Helvetica,sans-Serif" font-size="10.00">calc/force_fields/cvff.c</text>
</a>
</g>
</g>
<!-- Node2&#45;&gt;Node58 -->
<g id="edge42" class="edge">
<title>Node2&#45;&gt;Node58</title>
<path fill="none" stroke="#63b8ff" d="M2802.68,-140.54C3030.75,-140.62 4257.22,-139.03 4630,-96 4639.8,-94.87 4650.29,-93 4659.99,-90.99"/>
<polygon fill="#63b8ff" stroke="#63b8ff" points="2802.92,-137.04 2792.92,-140.53 2802.92,-144.04 2802.92,-137.04"/>
</g>
<!-- Node59 -->
<g id="node40" class="node">
<title>Node59</title>
<g id="a_node40"><a xlink:href="../../d3/d21/cvff__aug_8c.html" target="_top" xlink:title="CVFF_aug force field, from &#39;CVFF_aug.frc&#39;.">
<polygon fill="white" stroke="#666666" points="4879.5,-96 4772.5,-96 4772.5,-66 4879.5,-66 4879.5,-96"/>
<text text-anchor="start" x="4780.5" y="-84" font-family="Helvetica,sans-Serif" font-size="10.00">calc/force_fields/cvff</text>
<text text-anchor="middle" x="4826" y="-73" font-family="Helvetica,sans-Serif" font-size="10.00">_aug.c</text>
</a>
</g>
</g>
<!-- Node2&#45;&gt;Node59 -->
<g id="edge43" class="edge">
<title>Node2&#45;&gt;Node59</title>
<path fill="none" stroke="#63b8ff" d="M2802.65,-140.67C3040.01,-141.6 4362.43,-144.49 4763,-96 4766,-95.64 4769.07,-95.19 4772.16,-94.69"/>
<polygon fill="#63b8ff" stroke="#63b8ff" points="2802.79,-137.17 2792.78,-140.63 2802.76,-144.17 2802.79,-137.17"/>
</g>
<!-- Node60 -->
<g id="node41" class="node">
<title>Node60</title>
<g id="a_node41"><a xlink:href="../../dc/d29/oplsaap_8c.html" target="_top" xlink:title="OPLSAAM force field.">
<polygon fill="white" stroke="#666666" points="5030.5,-90.5 4897.5,-90.5 4897.5,-71.5 5030.5,-71.5 5030.5,-90.5"/>
<text text-anchor="middle" x="4964" y="-78.5" font-family="Helvetica,sans-Serif" font-size="10.00">calc/force_fields/oplsaap.c</text>
</a>
</g>
</g>
<!-- Node2&#45;&gt;Node60 -->
<g id="edge45" class="edge">
<title>Node2&#45;&gt;Node60</title>
<path fill="none" stroke="#63b8ff" d="M2802.97,-140.54C3049.67,-140.69 4460.36,-139.58 4888,-96 4899.08,-94.87 4910.96,-93 4921.96,-90.99"/>
<polygon fill="#63b8ff" stroke="#63b8ff" points="2803,-137.04 2793,-140.53 2803,-144.04 2803,-137.04"/>
</g>
<!-- Node61 -->
<g id="node42" class="node">
<title>Node61</title>
<g id="a_node42"><a xlink:href="../../d4/d82/oplsaar_8c.html" target="_top" xlink:title="OPLSAAR force field.">
<polygon fill="white" stroke="#666666" points="5179.5,-90.5 5048.5,-90.5 5048.5,-71.5 5179.5,-71.5 5179.5,-90.5"/>
<text text-anchor="middle" x="5114" y="-78.5" font-family="Helvetica,sans-Serif" font-size="10.00">calc/force_fields/oplsaar.c</text>
</a>
</g>
</g>
<!-- Node2&#45;&gt;Node61 -->
<g id="edge46" class="edge">
<title>Node2&#45;&gt;Node61</title>
<path fill="none" stroke="#63b8ff" d="M2802.37,-140.61C3057.28,-141.26 4579.06,-143.1 5039,-96 5050.07,-94.87 5061.95,-92.97 5072.92,-90.93"/>
<polygon fill="#63b8ff" stroke="#63b8ff" points="2802.72,-137.11 2792.72,-140.58 2802.71,-144.11 2802.72,-137.11"/>
</g>
<!-- Node62 -->
<g id="node43" class="node">
<title>Node62</title>
<g id="a_node43"><a xlink:href="../../dd/d55/pcff_8c.html" target="_top" xlink:title="PCFF force field, from &#39;PCFF.frc&#39;.">
<polygon fill="white" stroke="#666666" points="5312.5,-90.5 5197.5,-90.5 5197.5,-71.5 5312.5,-71.5 5312.5,-90.5"/>
<text text-anchor="middle" x="5255" y="-78.5" font-family="Helvetica,sans-Serif" font-size="10.00">calc/force_fields/pcff.c</text>
</a>
</g>
</g>
<!-- Node2&#45;&gt;Node62 -->
<g id="edge47" class="edge">
<title>Node2&#45;&gt;Node62</title>
<path fill="none" stroke="#63b8ff" d="M2802.68,-140.24C3087.49,-138.19 4941.19,-123.8 5188,-96 5197.92,-94.88 5208.54,-92.99 5218.34,-90.95"/>
<polygon fill="#63b8ff" stroke="#63b8ff" points="2802.88,-136.74 2792.9,-140.31 2802.93,-143.74 2802.88,-136.74"/>
</g>
<!-- Node63 -->
<g id="node44" class="node">
<title>Node63</title>
<g id="a_node44"><a xlink:href="../../d3/d0c/cedit_8c.html" target="_top" xlink:title="Initialization of the curve layout edition dialog.">
<polygon fill="white" stroke="#666666" points="5379.5,-24.5 5306.5,-24.5 5306.5,-5.5 5379.5,-5.5 5379.5,-24.5"/>
<text text-anchor="middle" x="5343" y="-12.5" font-family="Helvetica,sans-Serif" font-size="10.00">curve/cedit.c</text>
</a>
</g>
</g>
<!-- Node2&#45;&gt;Node63 -->
<g id="edge48" class="edge">
<title>Node2&#45;&gt;Node63</title>
<path fill="none" stroke="#63b8ff" d="M2802.51,-140.47C3110.8,-140.14 5268.93,-136.41 5321,-96 5343.08,-78.87 5344.33,-41.76 5343.64,-24.79"/>
<polygon fill="#63b8ff" stroke="#63b8ff" points="2802.66,-136.97 2792.66,-140.48 2802.67,-143.97 2802.66,-136.97"/>
</g>
<!-- Node64 -->
<g id="node45" class="node">
<title>Node64</title>
<g id="a_node45"><a xlink:href="../../d7/d21/cedit_8h.html" target="_top" xlink:title="Variable declarations for the curve layout edition window.">
<polygon fill="#fff0f0" stroke="red" points="5480.5,-90.5 5407.5,-90.5 5407.5,-71.5 5480.5,-71.5 5480.5,-90.5"/>
<text text-anchor="middle" x="5444" y="-78.5" font-family="Helvetica,sans-Serif" font-size="10.00">curve/cedit.h</text>
</a>
</g>
</g>
<!-- Node2&#45;&gt;Node64 -->
<g id="edge49" class="edge">
<title>Node2&#45;&gt;Node64</title>
<path fill="none" stroke="#63b8ff" d="M2802.51,-140.44C3100.25,-139.84 5125.37,-134.38 5393,-96 5400.63,-94.91 5408.75,-93.02 5416.21,-90.98"/>
<polygon fill="#63b8ff" stroke="#63b8ff" points="2802.64,-136.94 2792.65,-140.45 2802.65,-143.94 2802.64,-136.94"/>
</g>
<!-- Node65 -->
<g id="node46" class="node">
<title>Node65</title>
<g id="a_node46"><a xlink:href="../../dc/d22/curve_8c.html" target="_top" xlink:title="Functions to manage curves.">
<polygon fill="white" stroke="#666666" points="5476,-24.5 5400,-24.5 5400,-5.5 5476,-5.5 5476,-24.5"/>
<text text-anchor="middle" x="5438" y="-12.5" font-family="Helvetica,sans-Serif" font-size="10.00">curve/curve.c</text>
</a>
</g>
</g>
<!-- Node2&#45;&gt;Node65 -->
<g id="edge51" class="edge">
<title>Node2&#45;&gt;Node65</title>
<path fill="none" stroke="#63b8ff" d="M2802.69,-140.58C3108.16,-141.14 5220.78,-143.3 5345,-96 5383.81,-81.22 5417.46,-42.54 5431.29,-24.94"/>
<polygon fill="#63b8ff" stroke="#63b8ff" points="2802.95,-137.08 2792.94,-140.56 2802.93,-144.08 2802.95,-137.08"/>
</g>
<!-- Node72 -->
<g id="node47" class="node">
<title>Node72</title>
<g id="a_node47"><a xlink:href="../../df/de9/curve_8h.html" target="_top" xlink:title="Variable declarations for the curve widget \ Functions for interactions with the curve widget.">
<polygon fill="#fff0f0" stroke="red" points="5575,-90.5 5499,-90.5 5499,-71.5 5575,-71.5 5575,-90.5"/>
<text text-anchor="middle" x="5537" y="-78.5" font-family="Helvetica,sans-Serif" font-size="10.00">curve/curve.h</text>
</a>
</g>
</g>
<!-- Node2&#45;&gt;Node72 -->
<g id="edge52" class="edge">
<title>Node2&#45;&gt;Node72</title>
<path fill="none" stroke="#63b8ff" d="M2802.44,-140.49C3106.06,-140.37 5211.48,-137.96 5489,-96 5496.21,-94.91 5503.86,-93.03 5510.88,-90.99"/>
<polygon fill="#63b8ff" stroke="#63b8ff" points="2802.76,-136.99 2792.76,-140.5 2802.76,-143.99 2802.76,-136.99"/>
</g>
<!-- Node73 -->
<g id="node48" class="node">
<title>Node73</title>
<g id="a_node48"><a xlink:href="../../d4/d80/cwidget_8c.html" target="_top" xlink:title="Initialization of the curve widget.">
<polygon fill="white" stroke="#666666" points="5580,-24.5 5494,-24.5 5494,-5.5 5580,-5.5 5580,-24.5"/>
<text text-anchor="middle" x="5537" y="-12.5" font-family="Helvetica,sans-Serif" font-size="10.00">curve/cwidget.c</text>
</a>
</g>
</g>
<!-- Node2&#45;&gt;Node73 -->
<g id="edge58" class="edge">
<title>Node2&#45;&gt;Node73</title>
<path fill="none" stroke="#63b8ff" d="M2802.27,-140.63C3127.57,-141.72 5532.8,-148.02 5584,-96 5605.47,-74.19 5569.18,-40.69 5549.04,-24.86"/>
<polygon fill="#63b8ff" stroke="#63b8ff" points="2802.69,-137.13 2792.68,-140.6 2802.67,-144.13 2802.69,-137.13"/>
</g>
<!-- Node74 -->
<g id="node49" class="node">
<title>Node74</title>
<g id="a_node49"><a xlink:href="../../da/dae/datab_8c.html" target="_top" xlink:title="Curve data edition window and associated callbacks.">
<polygon fill="white" stroke="#666666" points="5674,-24.5 5598,-24.5 5598,-5.5 5674,-5.5 5674,-24.5"/>
<text text-anchor="middle" x="5636" y="-12.5" font-family="Helvetica,sans-Serif" font-size="10.00">curve/datab.c</text>
</a>
</g>
</g>
<!-- Node2&#45;&gt;Node74 -->
<g id="edge59" class="edge">
<title>Node2&#45;&gt;Node74</title>
<path fill="none" stroke="#63b8ff" d="M2802.37,-140.48C3128.61,-140.23 5541.06,-137.01 5602,-96 5626.29,-79.66 5633.29,-42.14 5635.26,-24.93"/>
<polygon fill="#63b8ff" stroke="#63b8ff" points="2802.75,-136.98 2792.75,-140.49 2802.75,-143.98 2802.75,-136.98"/>
</g>
<!-- Node75 -->
<g id="node50" class="node">
<title>Node75</title>
<g id="a_node50"><a xlink:href="../../d6/dd9/draw_8c.html" target="_top" xlink:title="Function to draw a curve.">
<polygon fill="white" stroke="#666666" points="5764,-24.5 5692,-24.5 5692,-5.5 5764,-5.5 5764,-24.5"/>
<text text-anchor="middle" x="5728" y="-12.5" font-family="Helvetica,sans-Serif" font-size="10.00">curve/draw.c</text>
</a>
</g>
</g>
<!-- Node2&#45;&gt;Node75 -->
<g id="edge60" class="edge">
<title>Node2&#45;&gt;Node75</title>
<path fill="none" stroke="#63b8ff" d="M2802.59,-140.6C3126.02,-141.43 5487.55,-145.75 5627,-96 5668.08,-81.34 5705.18,-42.6 5720.53,-24.97"/>
<polygon fill="#63b8ff" stroke="#63b8ff" points="2802.66,-137.1 2792.65,-140.58 2802.64,-144.1 2802.66,-137.1"/>
</g>
<!-- Node21&#45;&gt;Node17 -->
<g id="edge21" class="edge">
<title>Node21&#45;&gt;Node17</title>
<path fill="none" stroke="#63b8ff" d="M1923.32,-68.16C1875.01,-55.65 1799.89,-36.18 1756.37,-24.91"/>
<polygon fill="#63b8ff" stroke="#63b8ff" points="1922.37,-71.53 1932.93,-70.65 1924.13,-64.76 1922.37,-71.53"/>
</g>
<!-- Node21&#45;&gt;Node18 -->
<g id="edge22" class="edge">
<title>Node21&#45;&gt;Node18</title>
<path fill="none" stroke="#63b8ff" d="M1944.18,-65.42C1922.87,-52.92 1892.87,-35.3 1875.03,-24.82"/>
<polygon fill="#63b8ff" stroke="#63b8ff" points="1942.14,-68.29 1952.54,-70.33 1945.69,-62.25 1942.14,-68.29"/>
</g>
<!-- Node21&#45;&gt;Node19 -->
<g id="edge23" class="edge">
<title>Node21&#45;&gt;Node19</title>
<path fill="none" stroke="#63b8ff" d="M1976.65,-60.43C1981.29,-48.55 1986.98,-33.96 1990.55,-24.82"/>
<polygon fill="#63b8ff" stroke="#63b8ff" points="1973.41,-59.1 1973.03,-69.69 1979.93,-61.65 1973.41,-59.1"/>
</g>
<!-- Node21&#45;&gt;Node20 -->
<g id="edge24" class="edge">
<title>Node21&#45;&gt;Node20</title>
<path fill="none" stroke="#63b8ff" d="M1999.86,-66.57C2024.13,-56 2057.88,-41.3 2082.75,-30.48"/>
<polygon fill="#63b8ff" stroke="#63b8ff" points="1998.6,-63.3 1990.83,-70.5 2001.39,-69.71 1998.6,-63.3"/>
</g>
<!-- Node21&#45;&gt;Node30 -->
<g id="edge25" class="edge">
<title>Node21&#45;&gt;Node30</title>
<path fill="none" stroke="#63b8ff" d="M2017.86,-68.38C2063.83,-57.44 2132.66,-41.06 2181.09,-29.54"/>
<polygon fill="#63b8ff" stroke="#63b8ff" points="2017.08,-64.96 2008.16,-70.68 2018.7,-71.77 2017.08,-64.96"/>
</g>
<!-- Node64&#45;&gt;Node65 -->
<g id="edge50" class="edge">
<title>Node64&#45;&gt;Node65</title>
<path fill="none" stroke="#63b8ff" d="M5442.09,-59.68C5440.99,-47.94 5439.67,-33.77 5438.83,-24.82"/>
<polygon fill="#63b8ff" stroke="#63b8ff" points="5438.61,-59.96 5443.02,-69.59 5445.58,-59.31 5438.61,-59.96"/>
</g>
<!-- Node72&#45;&gt;Node63 -->
<g id="edge53" class="edge">
<title>Node72&#45;&gt;Node63</title>
<path fill="none" stroke="#63b8ff" d="M5499.4,-67.6C5461.44,-55.07 5403.74,-36.04 5370.06,-24.93"/>
<polygon fill="#63b8ff" stroke="#63b8ff" points="5497.99,-70.82 5508.59,-70.63 5500.19,-64.17 5497.99,-70.82"/>
</g>
<!-- Node72&#45;&gt;Node65 -->
<g id="edge54" class="edge">
<title>Node72&#45;&gt;Node65</title>
<path fill="none" stroke="#63b8ff" d="M5513.66,-64.91C5494.36,-52.44 5467.63,-35.15 5451.65,-24.82"/>
<polygon fill="#63b8ff" stroke="#63b8ff" points="5511.67,-67.79 5521.96,-70.28 5515.47,-61.91 5511.67,-67.79"/>
</g>
<!-- Node72&#45;&gt;Node73 -->
<g id="edge55" class="edge">
<title>Node72&#45;&gt;Node73</title>
<path fill="none" stroke="#63b8ff" d="M5537,-59.68C5537,-47.94 5537,-33.77 5537,-24.82"/>
<polygon fill="#63b8ff" stroke="#63b8ff" points="5533.5,-59.59 5537,-69.59 5540.5,-59.59 5533.5,-59.59"/>
</g>
<!-- Node72&#45;&gt;Node74 -->
<g id="edge56" class="edge">
<title>Node72&#45;&gt;Node74</title>
<path fill="none" stroke="#63b8ff" d="M5560.34,-64.91C5579.64,-52.44 5606.37,-35.15 5622.35,-24.82"/>
<polygon fill="#63b8ff" stroke="#63b8ff" points="5558.53,-61.91 5552.04,-70.28 5562.33,-67.79 5558.53,-61.91"/>
</g>
<!-- Node72&#45;&gt;Node75 -->
<g id="edge57" class="edge">
<title>Node72&#45;&gt;Node75</title>
<path fill="none" stroke="#63b8ff" d="M5574.02,-67.6C5611.39,-55.07 5668.2,-36.04 5701.36,-24.93"/>
<polygon fill="#63b8ff" stroke="#63b8ff" points="5573.36,-64.12 5564.99,-70.62 5575.59,-70.76 5573.36,-64.12"/>
</g>
</g>
</svg>
